<?xml version="1.0" encoding="utf-8"?>
<!-- Generator: Adobe Illustrator 26.3.1, SVG Export Plug-In . SVG Version: 6.00 Build 0)  -->
<svg version="1.1" id="Layer_1" xmlns="http://www.w3.org/2000/svg" xmlns:xlink="http://www.w3.org/1999/xlink" x="0px" y="0px"
	 viewBox="0 0 328.3 316" style="enable-background:new 0 0 328.3 316;" xml:space="preserve">
<style type="text/css">
	.st0{fill:#FFC900;}
	.st1{opacity:0.3;}
	.st2{fill:#E3E2E5;}
	.st3{fill:#EDEDED;}
	.st4{fill:#0F5BA9;}
	.st5{opacity:0.4;fill:#525067;}
	.st6{fill:#454559;}
	.st7{clip-path:url(#SVGID_00000024705805975303951310000016020195377465409416_);}
	.st8{fill:#D79200;}
	.st9{fill:#F6B000;}
	.st10{fill:#C68100;}
	.st11{fill:#D0D0D3;}
	.st12{fill:#F8F8F8;}
	.st13{fill:#404054;}
	.st14{opacity:0.3;fill:#FFFFFF;}
	.st15{fill:#00D9C7;}
	.st16{fill:#00C1A4;}
	.st17{fill:#26C3CC;}
	.st18{opacity:0.5;fill:#00FFE3;}
	.st19{fill:#007860;}
	.st20{fill:#009B7E;}
	.st21{fill:#3BEDED;}
	.st22{fill:#0A9B89;}
	.st23{fill:#FFF1CA;}
	.st24{fill:#FFF5E0;}
	.st25{fill:#FFFFFF;}
	.st26{opacity:0.8;}
	.st27{fill:#FFD336;}
	.st28{fill:#FFDF80;}
	
		.st29{opacity:0.5;fill:none;stroke:#FFFFFF;stroke-width:0.5841;stroke-linecap:round;stroke-linejoin:round;stroke-miterlimit:10;}
	.st30{opacity:0.6;}
	.st31{fill:#DD9800;}
	.st32{fill:#525067;}
	.st33{opacity:0.5;}
	.st34{opacity:0.2;fill:#525067;}
	.st35{opacity:0.3;fill:#525067;}
</style>
<g>
	<g>
		<polygon class="st0" points="268.8,103.4 273.2,105.1 269,106.7 267.4,110.9 265.7,106.7 261.6,105.1 265.9,103.5 267.4,99.3 		
			"/>
		<polygon class="st0" points="272.4,95.5 274.6,96.4 272.5,97.2 271.7,99.3 270.8,97.2 268.8,96.4 270.9,95.6 271.7,93.5 		"/>
	</g>
	<g>
		<polygon class="st0" points="135.9,25.4 140.3,27 136.1,28.7 134.4,32.9 132.8,28.7 128.6,27 133,25.5 134.4,21.2 		"/>
		<polygon class="st0" points="139.4,17.5 141.6,18.3 139.6,19.1 138.7,21.2 137.9,19.1 135.8,18.3 138,17.6 138.7,15.4 		"/>
	</g>
	<g>
		<path class="st1" d="M327.8,259.2L327.8,259.2c-0.1-1-0.6-2-1.6-2.6L290,235.2c-4.3-2.6-9.7-2.6-14-0.1l-79.9,46.3
			c-1,0.6-1.5,1.5-1.6,2.4l0,0c0,0,0,0.1,0,0.2c0,0,0,0,0,0c0,0.9,0,3.7,0,4.8c-0.1,1.1,0.4,2.3,1.5,2.9l36.3,22.4
			c3.9,2.4,8.8,2.5,12.8,0.2l81-47c1.1-0.6,1.6-1.7,1.7-2.8l0,0V259.2z"/>
		<g>
			<g>
				<g>
					<path class="st2" d="M196.1,279.2l79.9-46.3c4.3-2.5,9.7-2.5,14,0.1l36.2,21.5c2.2,1.3,2.2,4.5,0,5.7l-81,47
						c-4,2.3-8.9,2.2-12.8-0.2l-36.3-22.4C194,283.3,194.1,280.4,196.1,279.2z"/>
					<path class="st2" d="M194.6,276.6c0,0,0,5.6,0,5.5c0-0.1,19,0,19,0L194.6,276.6z"/>
					<polygon class="st2" points="327.8,252 327.8,257.4 317.6,257.1 					"/>
					<path class="st3" d="M196.1,274.2l79.9-46.3c4.3-2.5,9.7-2.5,14,0.1l36.2,21.5c2.2,1.3,2.2,4.5,0,5.7l-81,47
						c-4,2.3-8.9,2.2-12.8-0.2l-36.3-22.4C194,278.3,194.1,275.4,196.1,274.2z"/>
				</g>
				<polygon class="st4" points="212.3,268.6 256.3,290.9 322.1,254.7 279.1,229.6 				"/>
				<ellipse class="st5" cx="222.8" cy="283.8" rx="7.4" ry="4.5"/>
			</g>
			<polygon class="st6" points="242.3,254.6 279.5,275.3 285.2,271.9 247.6,251.6 			"/>
			<path class="st1" d="M285.4,247.7c-1.4-0.3-3-0.4-4.6-0.3c-9.2,0.4-18,5.9-19.7,12.4c0,0.1,0,0.1,0,0.2c0,0.1,0,0.1,0,0.2
				c-0.8,2.9,0.2,5.5,2.5,7.5c1.1,1,2.4,1.7,4,2.3c2.4,0.9,5.4,1.3,8.8,1.2c10.1-0.4,19.7-6,21.4-12.5
				C299.2,252.9,293.8,248.3,285.4,247.7z"/>
			<g>
				<g>
					<defs>
						<polygon id="SVGID_1_" points="244.5,255.8 278.6,274.8 301.6,248.6 259.8,224.9 						"/>
					</defs>
					<clipPath id="SVGID_00000023278880274713973240000012322580269528872098_">
						<use xlink:href="#SVGID_1_"  style="overflow:visible;"/>
					</clipPath>
					<g style="clip-path:url(#SVGID_00000023278880274713973240000012322580269528872098_);">
						<g>
							
								<ellipse transform="matrix(0.2294 -0.9733 0.9733 0.2294 -40.3623 459.3119)" class="st8" cx="269.9" cy="255.1" rx="21.4" ry="18.7"/>
							
								<ellipse transform="matrix(0.2295 -0.9733 0.9733 0.2295 -40.6143 457.0382)" class="st0" cx="268.3" cy="254.2" rx="21.4" ry="17"/>
							
								<ellipse transform="matrix(0.2294 -0.9733 0.9733 0.2294 -40.845 456.5456)" class="st9" cx="267.9" cy="254.1" rx="18.2" ry="14.4"/>
							<path class="st1" d="M254.5,251.3c2.3-9.8,10.4-16.2,18.2-14.4c2.4,0.6,4.6,1.9,6.2,3.8c-1.7-2.2-4-3.7-6.7-4.3
								c-7.7-1.8-15.9,4.6-18.2,14.4c-1.6,6.7,0,13.2,3.6,17.2C254.3,263.9,253,257.7,254.5,251.3z"/>
							<g>
								<g>
									<path class="st8" d="M275.5,261.7l-0.1,0.3c-0.7,3.3-3.5,5.2-6.2,4.1l-0.1,0l-0.4,1.8l-3.1-1.3l0.4-1.8l-1.3-0.5l-0.4,1.8
										l-3.1-1.3l0.4-1.8l-0.7-0.3l-1.5-0.6l0.9-3.9l1.5,0.6l1-4.7l0.9-3.9l0.9-4.2l-1.5-0.6l0.9-3.9l1.5,0.6l0.7,0.3l0.5-2.2
										l3.1,1.3l-0.5,2.2l1.3,0.5l0.5-2.2l3.1,1.3l-0.5,2.2c2.4,1.2,3.8,4.5,3.1,7.6l-0.1,0.3c-0.3,1.3-0.9,2.4-1.8,3.2
										C275.6,258.1,275.9,259.9,275.5,261.7z M272.3,260.8l0.1-0.3c0.3-1.2-0.3-2.5-1.3-2.9l-0.4-0.2l-4.8-1.9l-1,4.7l0.7,0.3
										l4.6,1.8C271.1,262.6,272,262,272.3,260.8 M267.7,247.4l-0.9,4.2l4.8,1.9c0.9,0.3,1.7-0.2,2-1.3l0.1-0.3
										c0.2-1.1-0.3-2.2-1.1-2.6l-4.2-1.7L267.7,247.4"/>
								</g>
								<polygon class="st8" points="267.8,267.7 268.7,267.9 267.5,266.2 								"/>
								<polygon class="st8" points="263.4,265.9 264.3,266.1 263.3,264.9 								"/>
								<polygon class="st8" points="259.3,258.1 260.2,258.3 260.3,259.5 								"/>
								<polygon class="st8" points="263,241.4 263.9,241.6 264.5,242.9 								"/>
								<polygon class="st8" points="265.7,240.1 266.6,240.4 266.8,241.3 								"/>
								<path class="st8" d="M264.9,240.1"/>
								<polygon class="st8" points="270.1,241.9 271,242.1 274.1,243.4 273.3,243.2 								"/>
								<polygon class="st10" points="268.9,241.4 269.7,241.6 269.3,243.8 268.4,243.6 								"/>
								<path class="st10" d="M273.3,243.2l0.9,0.2l-0.5,2.2c0,0-0.1-0.1-0.9-0.2L273.3,243.2z"/>
								<g>
									<path class="st0" d="M274.6,261.5l-0.1,0.3c-0.7,3.3-3.5,5.2-6.2,4.1l-0.1,0l-0.4,1.8l-3.1-1.3l0.4-1.8l-1.3-0.5l-0.4,1.8
										l-3.1-1.3l0.4-1.8l-0.7-0.3l-1.5-0.6l0.9-3.9l1.5,0.6l1-4.7l0.9-3.9l0.9-4.2l-1.5-0.6l0.9-3.9l1.5,0.6l0.7,0.3l0.5-2.2
										l3.1,1.3l-0.5,2.2l1.3,0.5l0.5-2.2l3.1,1.3l-0.5,2.2c2.4,1.2,3.8,4.5,3.1,7.6l-0.1,0.3c-0.3,1.3-0.9,2.4-1.8,3.2
										C274.7,257.9,275,259.7,274.6,261.5z M271.4,260.6l0.1-0.3c0.3-1.2-0.3-2.5-1.3-2.9l-0.4-0.2l-4.8-1.9l-1,4.7l0.7,0.3
										l4.6,1.8C270.2,262.4,271.2,261.8,271.4,260.6 M266.8,247.2l-0.9,4.2l4.8,1.9c0.9,0.3,1.7-0.2,2-1.3l0.1-0.3
										c0.2-1.1-0.3-2.2-1.1-2.6l-4.2-1.7L266.8,247.2"/>
								</g>
							</g>
						</g>
					</g>
				</g>
				<path class="st1" d="M280.9,271.7c-1.1,0.9-2.3,1.8-3.5,2.5l-26.2-14.6c-0.1-1.1-0.2-2.2-0.2-3.3L280.9,271.7z"/>
			</g>
		</g>
	</g>
	<g>
		<path class="st1" d="M84.8,198.2l-18.6,30.3c-1.7,2.8,0.3,6.4,3.6,6.4h198.4c3.3,0,5.3-3.6,3.6-6.3l-18.3-30.3
			c-0.9-1.5-2.5-2.4-4.3-2.4h-160C87.3,195.8,85.7,196.7,84.8,198.2z"/>
		<g>
			<path class="st11" d="M264.9,225.5H72.8c-4.1,0-7.3-3.3-7.3-7.3v-2.8l206.8-0.1v2.9C272.3,222.2,269,225.5,264.9,225.5z"/>
			<path class="st3" d="M236.6,180.5H102.4c-8.9,0-16.1-7.2-16.1-16.1V87.7c0-8.9,7.2-16.1,16.1-16.1h134.2
				c8.9,0,16.1,7.2,16.1,16.1v76.7C252.8,173.3,245.5,180.5,236.6,180.5z"/>
			<path class="st2" d="M84.8,182.9l-18.6,30.3c-1.7,2.8,0.3,6.4,3.6,6.4h198.4c3.3,0,5.3-3.6,3.6-6.3L253.4,183
				c-0.9-1.5-2.5-2.4-4.3-2.4h-160C87.3,180.5,85.7,181.4,84.8,182.9z"/>
			<path class="st11" d="M111.4,186.6l-5.6,13.5c-0.4,0.9,0.3,1.9,1.3,1.9h124.8c1,0,1.7-1,1.3-1.9l-5.6-13.5
				c-0.2-0.5-0.7-0.9-1.3-0.9H112.7C112.1,185.7,111.6,186,111.4,186.6z"/>
			<path class="st12" d="M147.5,207.3l-1,6.4c-0.1,0.9,0.5,1.6,1.4,1.6H191c0.9,0,1.5-0.8,1.4-1.6l-1-6.4c-0.1-0.7-0.7-1.2-1.4-1.2
				h-41.1C148.2,206.1,147.6,206.6,147.5,207.3z"/>
			<rect x="93.3" y="77.8" class="st4" width="152.6" height="95.7"/>
			<g>
				<rect x="93.3" y="77.8" class="st13" width="2.5" height="95.7"/>
				<rect x="243.4" y="77.8" class="st13" width="2.5" height="95.7"/>
				
					<rect x="168.3" y="2.8" transform="matrix(-1.836970e-16 1 -1 -1.836970e-16 248.67 -90.4775)" class="st13" width="2.5" height="152.6"/>
			</g>
		</g>
	</g>
	<g>
		<ellipse class="st1" cx="164" cy="148.3" rx="49.2" ry="16.4"/>
		<g>
			<g>
				<g>
					<g>
						<g>
							<path class="st9" d="M203.9,144.6L203.9,144.6c0,1.5-0.5,2.9-1.4,4.3c-0.6,0.9-1.5,1.8-2.5,2.7c-0.9,0.7-2,1.4-3.1,2.1
								c-0.8,0.4-1.6,0.8-2.5,1.2c-1.1,0.4-2.2,0.8-3.4,1.2c-0.8,0.2-1.7,0.4-2.5,0.6c-1,0.2-2.1,0.4-3.1,0.6
								c-0.8,0.1-1.7,0.2-2.5,0.3c-1,0.1-2.1,0.1-3.1,0.2c-0.4,0-0.9,0-1.3,0c-0.4,0-0.8,0-1.2,0c-1.1,0-2.2-0.1-3.3-0.2
								c-0.9-0.1-1.7-0.2-2.5-0.3c-1.1-0.2-2.2-0.4-3.3-0.6c-0.9-0.2-1.7-0.4-2.5-0.7c-1.3-0.4-2.5-0.8-3.6-1.3
								c-0.9-0.4-1.7-0.8-2.5-1.2c-1-0.6-2-1.2-2.8-1.9c-0.5-0.4-0.9-0.8-1.3-1.2c-0.5-0.5-0.9-1-1.3-1.5c-0.9-1.3-1.4-2.8-1.4-4.3
								v0c0-1.5,0.5-2.9,1.4-4.3c0.1-0.1,0.2-0.3,0.3-0.4c0.1-0.1,0.2-0.2,0.2-0.3c0.6-0.7,1.2-1.3,2-1.9c0.8-0.7,1.8-1.3,2.8-1.8
								c0.4-0.2,0.7-0.4,1.1-0.6c0,0,0.1,0,0.1,0c0.2-0.1,0.4-0.2,0.6-0.3c0.2-0.1,0.5-0.2,0.7-0.3c0,0,0,0,0,0c0,0,0,0,0,0
								c1.1-0.5,2.3-0.9,3.6-1.3c0.3-0.1,0.7-0.2,1.1-0.3c0.5-0.1,1-0.2,1.5-0.4c0.1,0,0.1,0,0.2,0c0,0,0,0,0,0c0,0,0,0,0.1,0
								c0.3-0.1,0.6-0.1,1-0.2c0.3-0.1,0.7-0.1,1-0.2c0.3-0.1,0.7-0.1,1.1-0.2c0.5-0.1,1.1-0.1,1.7-0.2c0,0,0,0,0,0
								c0.3,0,0.5-0.1,0.8-0.1c0.5,0,1-0.1,1.5-0.1c0.6,0,1.2-0.1,1.7-0.1c0.1,0,0.2,0,0.2,0h0c0.3,0,0.7,0,1,0c0.4,0,0.9,0,1.3,0
								c1.1,0,2.1,0.1,3.1,0.2c0.3,0,0.5,0,0.8,0.1c0.6,0.1,1.2,0.1,1.7,0.2c0.8,0.1,1.7,0.3,2.5,0.4c0.1,0,0.3,0.1,0.4,0.1
								c0.1,0,0.2,0,0.3,0.1v0c0.9,0.2,1.7,0.4,2.5,0.6c1.2,0.3,2.3,0.7,3.4,1.2c0.1,0,0.3,0.1,0.4,0.2c0,0,0,0,0,0
								c0.2,0.1,0.5,0.2,0.7,0.3c0.2,0.1,0.4,0.2,0.6,0.3c0,0,0.1,0,0.1,0c0.3,0.1,0.5,0.3,0.8,0.4c1.2,0.6,2.2,1.3,3.1,2
								c0.8,0.6,1.4,1.3,2,1.9c0.1,0.1,0.2,0.2,0.2,0.3c0.1,0.1,0.2,0.3,0.3,0.4C203.4,141.7,203.9,143.1,203.9,144.6z"/>
							<rect x="152.5" y="135.2" class="st9" width="51.3" height="9.4"/>
						</g>
						<g class="st1">
							<path d="M179.5,147.2v10.5c-0.4,0-0.9,0-1.3,0c-0.4,0-0.8,0-1.2,0v-10.5H179.5z"/>
							<path d="M185.2,146.8v10.4c-0.8,0.1-1.7,0.2-2.5,0.3v-10.7H185.2z"/>
							<path d="M190.8,146.1v9.9c-0.8,0.2-1.7,0.4-2.5,0.6v-10.5H190.8z"/>
							<path d="M196.8,143.6v10c-0.8,0.4-1.6,0.8-2.5,1.2v-11.1H196.8z"/>
							<path d="M202.4,135.2v13.7c-0.6,0.9-1.5,1.8-2.5,2.7v-16.3H202.4z"/>
							<path d="M173.7,146.4v11.1c-0.9-0.1-1.7-0.2-2.5-0.3v-10.8H173.7z"/>
							<path d="M167.9,145.3v11.2c-0.9-0.2-1.7-0.4-2.5-0.7v-10.6H167.9z"/>
							<path d="M161.8,143.1v11.5c-0.9-0.4-1.7-0.8-2.5-1.2v-10.3H161.8z"/>
							<path d="M156.5,133.8v17.7c-0.5-0.4-0.9-0.8-1.3-1.2c-0.5-0.5-0.9-1-1.3-1.5v-15.1H156.5z"/>
						</g>
						<path class="st0" d="M203.9,135.2c0,1.5-0.5,2.9-1.4,4.3c-0.1,0.1-0.2,0.3-0.3,0.4c-0.6,0.8-1.4,1.5-2.2,2.3
							c-0.9,0.7-2,1.4-3.1,2.1c-0.2,0.1-0.5,0.3-0.8,0.4c-0.6,0.3-1.2,0.5-1.8,0.8c-1.1,0.4-2.2,0.8-3.4,1.2
							c-0.8,0.2-1.7,0.4-2.5,0.6c-1,0.2-2.1,0.4-3.1,0.6c-0.8,0.1-1.7,0.2-2.5,0.3c-1,0.1-2.1,0.1-3.1,0.2c-0.4,0-0.9,0-1.3,0
							c-0.4,0-0.8,0-1.2,0c-1.1,0-2.2-0.1-3.3-0.2c-0.9-0.1-1.7-0.2-2.5-0.3c-1.1-0.2-2.2-0.4-3.3-0.6c-0.9-0.2-1.7-0.4-2.5-0.6
							c-1.3-0.4-2.5-0.8-3.6-1.3c-0.5-0.2-0.9-0.4-1.4-0.6c0,0,0,0,0,0c-0.4-0.2-0.8-0.4-1.1-0.6c-1-0.6-2-1.2-2.8-1.9
							c-0.9-0.7-1.6-1.5-2.2-2.3c-0.1-0.1-0.2-0.3-0.3-0.4c-0.9-1.3-1.4-2.8-1.4-4.3c0-0.1,0-0.2,0-0.3c0,0,0,0,0,0
							c0-0.1,0-0.2,0-0.3c0.1-1.3,0.6-2.5,1.4-3.7c0.2-0.2,0.3-0.5,0.5-0.7c0.1-0.1,0.2-0.2,0.3-0.3c0.5-0.6,1.1-1.1,1.7-1.6
							c0.8-0.7,1.7-1.3,2.8-1.9c0.4-0.2,0.8-0.4,1.2-0.6c0.4-0.2,0.8-0.4,1.2-0.6c0,0,0,0,0,0c0,0,0,0,0,0c0.5-0.2,1.1-0.4,1.6-0.6
							c0.7-0.3,1.4-0.5,2.2-0.7c1.2-0.3,2.4-0.6,3.7-0.9c0.3-0.1,0.6-0.1,0.9-0.2c0,0,0.1,0,0.1,0c1.3-0.2,2.7-0.4,4.2-0.5
							c0.6,0,1.2-0.1,1.8-0.1c0.6,0,1.2,0,1.9,0c1.8,0,3.5,0.1,5.1,0.3c0.1,0,0.2,0,0.3,0c1.2,0.1,2.3,0.3,3.4,0.5
							c0.1,0,0.1,0,0.2,0c0.2,0,0.4,0.1,0.6,0.1c1.8,0.4,3.5,0.9,5.1,1.4c0.4,0.2,0.8,0.3,1.2,0.5c0.1,0.1,0.3,0.1,0.4,0.2
							c0,0,0,0,0,0c0.4,0.2,0.8,0.4,1.2,0.6c0.3,0.1,0.6,0.3,0.9,0.4c1.2,0.6,2.2,1.3,3.1,2.1c0.6,0.5,1.2,1.1,1.7,1.6
							c0.1,0.1,0.2,0.2,0.3,0.3c0.2,0.2,0.4,0.5,0.5,0.7c0.8,1.2,1.3,2.4,1.4,3.7c0,0.1,0,0.2,0,0.3c0,0,0,0,0,0
							C203.9,135,203.9,135.1,203.9,135.2z"/>
						<ellipse class="st9" cx="178.2" cy="135.2" rx="17.7" ry="9"/>
					</g>
					<g>
						<g>
							<path class="st8" d="M189.5,136.4l0-0.1l0,0c0-0.1,0-0.1-0.1-0.2c0-0.1-0.1-0.3-0.2-0.4c-0.1-0.1-0.2-0.3-0.3-0.4
								c-0.2-0.2-0.4-0.3-0.6-0.4c-0.1-0.1-0.2-0.1-0.3-0.2c-0.3-0.2-0.6-0.3-1-0.4c0.2-0.1,0.3-0.3,0.5-0.4
								c0.3-0.3,0.6-0.7,0.6-1.1c0-0.1,0-0.1,0-0.2c0-0.1,0-0.2,0-0.3l0-0.2c0-0.2-0.1-0.4-0.2-0.6c-0.4-0.6-1.4-1.2-2.6-1.5
								c-0.2,0-0.4-0.1-0.6-0.1c-0.5-0.1-1-0.2-1.6-0.2c-0.1,0-0.2,0-0.3,0c-0.4,0-0.8,0-1.2,0l-0.1-0.7l-0.1-0.5l-0.1,0l-0.3,0
								l-1.3,0.1l-2.5,0.2h0l0,0.1l0.1,0.8l0,0.2l-0.2,0l-0.1,0l-1.5,0.1l-0.1-0.7l-0.1-0.4l-0.1,0l-0.2,0l-1.1,0.1l-2.5,0.2l-0.3,0
								l0.2,1l0,0.2l-0.9,0.1l-0.1,0l-0.5,0l-0.1,0l-1.5,0.1l0.2,1.2l0,0.1l0,0.3l0,0l0.1,0.3l0.8-0.1l1.2-0.1l0.1,0l0.1,0.5
								l0.2,1.3l0,0.3l0.1,0.3l0.3,1.6l0,0.2l0.1,0.6l0,0l0.2,1.5l-0.2,0l-1.9,0.2l0.2,1.3l0,0l0.1,0.7l1.6-0.1l0.6-0.1l0.9-0.1
								l0.1,0l0,0.2l0.1,0.7l0.8-0.1l3.3-0.3l0.2,0l-0.1-0.9l1.6-0.1l0.1,0l0,0.2l0.1,0.7l0.5,0l3.1-0.3l0.7-0.1l-0.2-0.9l0.2,0
								c0.7-0.1,1.3-0.2,1.9-0.3c1.3-0.3,2.4-0.8,3.1-1.3c0.7-0.5,1.1-1,1.2-1.6C189.6,136.8,189.6,136.6,189.5,136.4z M174.9,133.9
								l-0.2-1.5l0.9-0.1l1.4-0.1l2.5-0.2l1.9-0.2c0.5,0,0.9,0,1.3,0.1c0.4,0.1,0.6,0.2,0.8,0.4c0.1,0.1,0.2,0.2,0.2,0.4l0,0.2
								c0.1,0.4-0.4,0.8-1.1,1c-0.3,0.1-0.6,0.2-0.9,0.2l-2.2,0.2l-1.6,0.1l-0.9,0.1l-1.9,0.2l-0.1-0.4L174.9,133.9z M177,138.7
								l-0.3,0l-0.9,0.1l-0.1-0.6l0,0l-0.1-0.6l-0.2-1.1l1.6-0.2l2.5-0.2l2.6-0.2l0.6-0.1c0,0,0,0,0,0c1-0.1,1.9,0.1,2.3,0.5
								c0.1,0.1,0.2,0.2,0.2,0.3c0,0,0,0,0,0.1l0,0.2c0,0.1,0,0.2,0,0.3c0,0,0,0,0,0c-0.1,0.3-0.6,0.6-1.1,0.8
								c-0.3,0.1-0.7,0.2-1,0.2l-0.3,0l-3.1,0.3L177,138.7z"/>
						</g>
						<polygon class="st8" points="167.9,132.4 168.2,133 169.1,132.5 168.8,131.9 						"/>
						<polygon class="st8" points="169.3,140.7 169.6,141.4 170.7,140.1 						"/>
						<polygon class="st8" points="172.6,141.4 172.9,142 177.2,141.6 176.9,140.9 						"/>
						<polygon class="st8" points="178.7,140.8 179,141.4 183.3,141 183,140.4 						"/>
						<polygon class="st8" points="174.9,128.6 175.2,129.2 174.6,130.2 						"/>
						<polygon class="st8" points="181,128 181.3,128.7 180.5,129.5 						"/>
						<g>
							<path class="st0" d="M189.3,135.8l0-0.1l0,0c0-0.1-0.1-0.3-0.1-0.4c-0.1-0.2-0.2-0.4-0.4-0.6c-0.1-0.1-0.2-0.2-0.4-0.3
								c-0.3-0.2-0.6-0.3-0.9-0.5c-0.2-0.1-0.5-0.2-0.7-0.3c0.3-0.2,0.5-0.4,0.7-0.6c0.1-0.1,0.2-0.3,0.3-0.4
								c0.1-0.3,0.2-0.6,0.1-0.8l0-0.1l0-0.1c-0.1-0.8-0.9-1.4-2-1.8c-0.2-0.1-0.4-0.1-0.6-0.2c-0.3-0.1-0.6-0.1-0.9-0.2
								c-0.5-0.1-1.1-0.2-1.7-0.2c-0.4,0-0.9,0-1.3,0c0,0-0.1,0-0.2,0l-0.1-0.3l0-0.1l-0.1-0.3l0-0.2l0-0.1l-1.5,0.1l-0.8,0.1
								l-1.7,0.2l-0.3,0l0.1,0.3l0.1,0.8l-1.6,0.1l-0.1,0l0-0.3l0-0.2l-0.1-0.7l-1.2,0.1l-2.3,0.2l-0.2,0l-0.6,0.1l0.1,0.3l0.1,0.8
								l-1,0.1l-0.4,0l-0.1,0l-1.4,0.1l-0.3,0l0.3,1.6l0.1,0.4l0.1,0l0.9-0.1l1.1-0.1l0,0.1l0.1,0.6l0.1,0.5l0.2,1l0.1,0.3l0.1,0.6
								l0.2,1l0.1,0.9l0.1,0.7l0.1,0.8l-2.1,0.2l0.3,2l0.1,0l0.8-0.1l0.9-0.1l0.3,0l1-0.1l0.1,0.7l0,0.2l0.1,0l0.9-0.1l3.3-0.3
								l-0.1-0.9l0.2,0l1.6-0.2l0.1,0.7l0,0.2l0.1,0l0.6-0.1l3.1-0.3l0.4,0l-0.2-0.9l0.2,0c0.7-0.1,1.5-0.2,2.1-0.4
								c1.3-0.3,2.4-0.8,3.1-1.4c0.2-0.2,0.4-0.4,0.6-0.6c0.2-0.2,0.3-0.5,0.4-0.7c0-0.1,0-0.2,0-0.3
								C189.3,136,189.3,135.9,189.3,135.8z M182.7,137.5L182.7,137.5l-3.2,0.3L177,138l-0.6,0.1l-0.8,0.1l-0.1,0l-0.1-0.6l-0.3-1.7
								l1.9-0.2l2.5-0.2l1.9-0.2l0.4,0l0.6-0.1c0.1,0,0.2,0,0.3,0c0.4,0,0.9,0,1.2,0.1c0.6,0.1,1,0.4,1.1,0.8l0,0.2c0,0,0,0.1,0,0.1
								c0,0.2-0.1,0.3-0.3,0.5c-0.2,0.2-0.6,0.4-1,0.5C183.4,137.4,183.1,137.5,182.7,137.5z M183.4,131.9l0,0.2c0,0,0,0.1,0,0.1
								c0,0.3-0.3,0.6-0.8,0.8c-0.3,0.1-0.7,0.2-1.2,0.3l-2,0.2l-2.5,0.2l-2.1,0.2l-0.1,0l-0.3-2l0-0.1l0.8-0.1l0.1,0l1.6-0.2l0.2,0
								l0,0l1.8-0.2h0l0.5-0.1l1.6-0.2c0.4,0,0.7,0,1,0c0.2,0,0.4,0.1,0.5,0.1C183.1,131.4,183.4,131.6,183.4,131.9
								C183.4,131.9,183.4,131.9,183.4,131.9z"/>
						</g>
					</g>
					<path class="st14" d="M153.5,134.3c-0.1,0.5,0,1.2,0.5,1.4c0.4,0.2,0.9-0.2,1.1-0.6c0.2-0.4,0.2-0.9,0.2-1.4
						c0.2-0.9,0.7-1.8,1.5-2.3c0.4-0.3,0.9-0.4,1.2-0.8c0.3-0.3,0.5-0.9,0.2-1.3c-0.9-1.2-2.6,0.7-3.2,1.3
						C154.2,131.7,153.7,132.9,153.5,134.3z"/>
				</g>
				<g>
					<g>
						<g>
							<path class="st9" d="M203.9,134.6c0,0.1,0,0.2,0,0.3c0,0,0,0,0,0c0,0.1,0,0.2,0,0.3c-0.1,1.3-0.6,2.5-1.4,3.7
								c-0.2,0.2-0.3,0.5-0.5,0.7c-0.6,0.7-1.2,1.3-2,1.9c-0.9,0.7-2,1.4-3.1,2.1c0,0,0,0,0,0c-0.7,0.3-1.3,0.7-2.1,1
								c-0.1,0.1-0.3,0.1-0.4,0.2c-1.1,0.4-2.2,0.8-3.4,1.2c-0.1,0-0.2,0.1-0.3,0.1c-0.7,0.2-1.5,0.4-2.2,0.6
								c-1,0.2-2.1,0.4-3.1,0.6c-0.8,0.1-1.7,0.2-2.5,0.3c-1,0.1-2.1,0.1-3.1,0.2c-0.4,0-0.9,0-1.3,0c-0.4,0-0.8,0-1.2,0
								c-1.1,0-2.2-0.1-3.3-0.2c-0.9-0.1-1.7-0.2-2.5-0.3c-1.1-0.2-2.2-0.4-3.3-0.6c-0.9-0.2-1.7-0.4-2.5-0.7
								c-1.3-0.4-2.5-0.8-3.6-1.3c0,0,0,0-0.1,0c-0.3-0.1-0.7-0.3-1-0.4c-0.5-0.2-1-0.5-1.5-0.8c-1-0.6-2-1.2-2.8-1.9
								c-0.8-0.6-1.4-1.3-2-1.9c-0.2-0.2-0.4-0.5-0.5-0.7c-0.8-1.2-1.3-2.4-1.4-3.7c0-0.1,0-0.2,0-0.3c0,0,0,0,0,0
								c0-0.1,0-0.2,0-0.3c0-1.5,0.5-2.9,1.4-4.3c0.1-0.1,0.2-0.3,0.3-0.4c0.1-0.1,0.2-0.2,0.3-0.3c0.6-0.7,1.2-1.3,2-1.9
								c0.8-0.7,1.8-1.3,2.8-1.8c0.4-0.2,0.7-0.4,1.1-0.6c0,0,0.1,0,0.1,0c0.2-0.1,0.4-0.2,0.6-0.3c0.2-0.1,0.5-0.2,0.7-0.3
								c0,0,0,0,0,0c1.1-0.4,2.2-0.9,3.4-1.2c0.9-0.3,1.9-0.5,2.9-0.7c0,0,0.1,0,0.1,0c0,0,0,0,0,0c0.3-0.1,0.6-0.1,0.9-0.2
								c0.3-0.1,0.7-0.1,1-0.2c0.9-0.2,1.8-0.3,2.7-0.4c0,0,0,0,0,0c0.7-0.1,1.5-0.1,2.2-0.2c0.5,0,1-0.1,1.5-0.1c0.5,0,1,0,1.6,0
								c1.8,0,3.5,0.1,5.2,0.3c1.5,0.2,2.9,0.4,4.2,0.6c0.1,0,0.3,0.1,0.4,0.1c0.1,0,0.1,0,0.2,0c2.2,0.5,4.2,1.1,6,1.8
								c0.1,0,0.2,0.1,0.3,0.1c0.3,0.1,0.5,0.2,0.7,0.3c0.2,0.1,0.4,0.2,0.6,0.3c0,0,0.1,0,0.1,0c0.3,0.1,0.5,0.3,0.8,0.4
								c1.2,0.6,2.2,1.3,3.1,2c0.8,0.6,1.4,1.3,2,1.9c0.1,0.1,0.2,0.2,0.3,0.3c0.1,0.1,0.2,0.3,0.3,0.4
								C203.4,131.7,203.9,133.1,203.9,134.6z"/>
							<rect x="152.5" y="125.2" class="st9" width="51.3" height="9.4"/>
						</g>
						<g class="st1">
							<path d="M179.5,137.2v10.5c-0.4,0-0.9,0-1.3,0c-0.4,0-0.8,0-1.2,0v-10.5H179.5z"/>
							<path d="M185.2,136.8v10.4c-0.8,0.1-1.7,0.2-2.5,0.3v-10.7H185.2z"/>
							<path d="M190.8,136.1v9.9c-0.8,0.2-1.7,0.4-2.5,0.6v-10.5H190.8z"/>
							<path d="M196.8,133.6v10c-0.8,0.4-1.6,0.8-2.5,1.2v-11.1H196.8z"/>
							<path d="M202.4,125.2v13.7c-0.6,0.9-1.5,1.8-2.5,2.7v-16.3H202.4z"/>
							<path d="M173.7,136.4v11.1c-0.9-0.1-1.7-0.2-2.5-0.3v-10.8H173.7z"/>
							<path d="M167.9,135.3v11.2c-0.9-0.2-1.7-0.4-2.5-0.7v-10.6H167.9z"/>
							<path d="M161.8,133.1v11.5c-0.9-0.4-1.7-0.8-2.5-1.2v-10.3H161.8z"/>
							<path d="M156.5,123.8v17.7c-1-0.8-1.9-1.7-2.5-2.7v-15.1H156.5z"/>
						</g>
						<path class="st0" d="M203.9,125.2c0,1.5-0.5,2.9-1.4,4.3c-0.1,0.1-0.2,0.3-0.3,0.4c-0.1,0.1-0.2,0.2-0.2,0.3
							c-0.6,0.7-1.2,1.3-2,1.9c-0.9,0.7-2,1.4-3.1,2.1c-0.2,0.1-0.5,0.3-0.8,0.4c0,0-0.1,0-0.1,0.1c-0.2,0.1-0.4,0.2-0.5,0.2
							c-0.2,0.1-0.5,0.2-0.7,0.3c-0.1,0.1-0.3,0.1-0.4,0.2c-1.1,0.4-2.2,0.8-3.4,1.2c-0.4,0.1-0.9,0.2-1.3,0.4
							c-0.2,0.1-0.4,0.1-0.6,0.2c-0.2,0-0.4,0.1-0.6,0.1c-1,0.2-2.1,0.4-3.1,0.6c-0.4,0.1-0.8,0.1-1.1,0.1c-0.5,0.1-0.9,0.1-1.4,0.1
							c-1,0.1-2.1,0.1-3.1,0.2c-0.4,0-0.9,0-1.3,0c-0.4,0-0.8,0-1.2,0c-0.4,0-0.9,0-1.3,0c-0.7,0-1.3-0.1-1.9-0.1
							c-0.9-0.1-1.7-0.2-2.5-0.3c0,0,0,0,0,0c0,0-0.1,0-0.1,0c-1.1-0.2-2.1-0.3-3.1-0.6c-0.9-0.2-1.7-0.4-2.5-0.7c0,0-0.1,0-0.1,0
							c-1.2-0.4-2.4-0.8-3.4-1.2c0,0,0,0-0.1,0c-0.2-0.1-0.5-0.2-0.7-0.3c-0.2-0.1-0.4-0.2-0.5-0.2c0,0-0.1,0-0.1-0.1
							c-0.4-0.2-0.8-0.4-1.1-0.6c-1-0.6-2-1.2-2.8-1.9c-0.1-0.1-0.2-0.2-0.3-0.2c-0.4-0.4-0.9-0.8-1.2-1.2c-0.2-0.2-0.3-0.4-0.5-0.5
							c-0.1-0.1-0.2-0.2-0.2-0.3c-0.1-0.1-0.2-0.3-0.3-0.4c-0.9-1.3-1.4-2.8-1.4-4.3c0-0.1,0-0.2,0-0.4c0-0.1,0-0.2,0-0.3
							c0.1-1.3,0.6-2.5,1.4-3.6c0.2-0.2,0.4-0.5,0.6-0.7c0.5-0.7,1.2-1.3,2-1.9c0.7-0.6,1.5-1.1,2.3-1.6c0.5-0.3,1.1-0.6,1.7-0.9
							c0.4-0.2,0.9-0.4,1.3-0.6c2.5-1,5.3-1.8,8.4-2.4c0,0,0.1,0,0.1,0c1.3-0.2,2.7-0.4,4.2-0.5c0.4,0,0.8-0.1,1.2-0.1
							c0.8,0,1.7-0.1,2.5-0.1c1.8,0,3.5,0.1,5.1,0.3c0.1,0,0.2,0,0.4,0c1.2,0.1,2.4,0.3,3.6,0.5c0.2,0,0.4,0.1,0.6,0.1
							c2.4,0.5,4.7,1.2,6.7,2c0.4,0.2,0.9,0.4,1.3,0.6c1.5,0.7,2.9,1.6,4,2.5c0.8,0.6,1.4,1.3,2,1.9c0.2,0.2,0.4,0.5,0.6,0.7
							c0.8,1.1,1.3,2.4,1.4,3.6c0,0.1,0,0.2,0,0.3C203.9,125,203.9,125.1,203.9,125.2z"/>
						<ellipse class="st9" cx="178.2" cy="125.2" rx="17.7" ry="9"/>
					</g>
					<g>
						<g>
							<path class="st8" d="M189.5,126.4l0-0.2c0-0.1,0-0.2-0.1-0.2c0-0.1-0.1-0.3-0.2-0.4c-0.1-0.1-0.2-0.3-0.3-0.4
								c-0.3-0.2-0.6-0.5-1-0.7c-0.3-0.1-0.6-0.3-0.9-0.4c0.2-0.1,0.3-0.3,0.4-0.4c0.2-0.2,0.4-0.4,0.5-0.7c0.1-0.2,0.1-0.3,0.1-0.5
								c0,0,0-0.1,0-0.1c0-0.1,0-0.2,0-0.3l0-0.2c0-0.2-0.1-0.4-0.2-0.6c-0.5-0.8-1.7-1.3-3.3-1.6c-0.5-0.1-1-0.1-1.5-0.2
								c-0.5,0-1,0-1.5,0l-0.1-0.7l-0.1-0.5l-0.1,0l-0.3,0l-3.8,0.4l0.2,0.9l0,0.2l-0.3,0l-1.5,0.1l-0.1-0.7l-0.1-0.4l-0.1,0l-0.2,0
								l-3.9,0.4l0.2,0.9l0,0.2l-1,0.1l0,0l-0.5,0l-0.1,0l-1.5,0.1l0.2,1.2l0,0.1l0,0.3l0,0l0.1,0.4l0.8-0.1l1.1-0.1l0.1,0l0,0
								l0.1,0.5l0.2,1.3l0.1,0.3l0.1,0.3l0.3,1.6l0,0.1l0.1,0.7c0,0,0,0,0,0v0l0.2,1.2l0.1,0.3l-0.2,0l-0.5,0l-1.4,0.1l0.1,0.8
								l0.1,0.5l0,0l0,0.2l0.1,0.5l1.6-0.1l0.6-0.1l0.9-0.1l0.1,0l0,0.2l0.1,0.5l0,0.1l0.8-0.1l0.7-0.1l2.5-0.2l0.2,0h0l0-0.1
								l-0.1-0.8l1.6-0.2l0.1,0l0,0.2l0.1,0.6l0,0.1l0.5,0l2.6-0.2l0.5,0l0.7-0.1l-0.2-0.9l0.2,0c0.4,0,0.8-0.1,1.2-0.2
								c0.2,0,0.4-0.1,0.6-0.1c0.2,0,0.4-0.1,0.6-0.1c1-0.3,1.9-0.7,2.6-1.2c0.2-0.1,0.4-0.3,0.6-0.5c0.4-0.4,0.6-0.7,0.7-1.1
								C189.6,126.8,189.6,126.6,189.5,126.4z M174.9,123.9l-0.2-1.5l0.9-0.1l0.8-0.1l5-0.5c0.9-0.1,1.7,0.1,2.1,0.4
								c0.1,0.1,0.2,0.2,0.2,0.3c0,0,0,0,0,0l0,0.2c0.1,0.5-0.8,1.1-2,1.2l-3.4,0.3l-3.3,0.3l-0.1-0.5L174.9,123.9z M182.6,125.8
								c1-0.1,1.9,0.1,2.4,0.5c0.1,0.1,0.2,0.2,0.2,0.4l0,0.2c0,0,0,0.1,0,0.1c0,0.1,0,0.1,0,0.2c-0.1,0.3-0.5,0.6-1,0.7
								c-0.3,0.1-0.8,0.2-1.2,0.3l-0.3,0l-1.5,0.1l-0.1,0l-0.2,0l-1.4,0.1l-2.5,0.2l-0.2,0l-0.1,0l-0.9,0.1l-0.1-0.7v0l-0.3-1.7
								l2.6-0.2l4.1-0.4L182.6,125.8z"/>
						</g>
						<polygon class="st8" points="167.9,122.4 168.2,123 169.1,122.5 168.8,121.9 						"/>
						<polygon class="st8" points="169.3,130.8 169.6,131.4 170.7,130.2 						"/>
						<polygon class="st8" points="172.6,131.4 172.9,132 177.2,131.6 176.9,131 						"/>
						<polygon class="st8" points="178.7,130.8 179,131.4 183.3,131 183,130.4 						"/>
						<polygon class="st8" points="174.9,118.6 175.2,119.2 174.6,120.2 						"/>
						<polygon class="st8" points="181,118 181.3,118.7 180.5,119.5 						"/>
						<g>
							<path class="st0" d="M178.9,120.7l0-0.2l-0.1,0l-0.1-0.7l-1.5,0.1l0,0.2l-0.3,0l0.1,0.7l0.2,0.6l0,0l1.8-0.2l0,0L178.9,120.7
								z M176.4,128.1l-0.8,0.1l0,0h0c0.4,0,0.9,0,1.3,0V128L176.4,128.1z M189.3,125.8l0-0.1l0,0c0-0.1-0.1-0.3-0.1-0.4
								c-0.1-0.2-0.3-0.5-0.5-0.7c-0.3-0.3-0.7-0.5-1.2-0.8c-0.2-0.1-0.5-0.2-0.7-0.3c0.2-0.2,0.4-0.3,0.6-0.5c0,0,0.1-0.1,0.1-0.1
								c0.1-0.1,0.2-0.3,0.2-0.4c0.1-0.3,0.2-0.6,0.1-0.8l0-0.1l0,0c-0.1-0.8-0.9-1.4-2.1-1.8c-0.4-0.2-0.9-0.3-1.5-0.4
								c-0.9-0.1-1.8-0.2-2.9-0.1c0,0-0.1,0-0.2,0l-0.1-0.3l0-0.1l-0.1-0.4l0-0.3l-4.3,0.4l0,0.3l0.1,0.8l-1.6,0.2l-0.1,0l0-0.3
								l0-0.2l-0.1-0.7l-3.6,0.3l-0.8,0.1l0,0.3l0.1,0.8l-1,0.1l-0.4,0l-0.1,0l-1.6,0.2l0.3,2l0.1,0l0.9-0.1l1.1-0.1l0,0.1l0.1,0.6
								l0,0l0.1,0.4l0.2,1l0.1,0.3l0.1,0.7l0.2,1l0.1,0.8l0.1,0.7l0.1,0.9l-2.1,0.2l0.2,1.5l0.1,0.5l0.1,0l0.8-0.1l0.8-0.1l0.2,0
								l0.3,0l1-0.1l0.1,0.7l0,0.2l0.1,0l0.9-0.1l3.3-0.3l-0.1-0.7l0-0.2l0.2,0l0.1,0l1.5-0.1l0.1,0.7l0,0.2l0.1,0l0.6-0.1l3.1-0.3
								l0.4,0l-0.1-0.6l0-0.3l0.2,0c0.4,0,0.9-0.1,1.3-0.2c0.3-0.1,0.6-0.1,0.9-0.2c1.2-0.3,2.3-0.8,3-1.3c0.1,0,0.1-0.1,0.2-0.1
								c0.2-0.2,0.4-0.4,0.6-0.6c0.2-0.3,0.4-0.7,0.4-1C189.3,125.9,189.3,125.9,189.3,125.8z M184.9,126l0,0.2c0,0,0,0.1,0,0.1
								c0,0.2-0.1,0.3-0.2,0.5c0,0-0.1,0.1-0.1,0.1c-0.4,0.3-1.1,0.6-1.9,0.7l-0.1,0l-3.1,0.3L177,128l-0.6,0.1l-0.8,0.1l0,0
								c0,0,0,0,0,0l-0.1,0l0,0l-0.3-1.8l-0.1-0.5l6.3-0.6l0.4,0l0.6-0.1c0.6-0.1,1.1,0,1.5,0.1C184.5,125.4,184.9,125.7,184.9,126z
								 M183.4,121.9l0,0.2c0,0,0,0.1,0,0.1c0,0.1,0,0.2-0.1,0.3c-0.3,0.4-1,0.7-1.9,0.8l-6.6,0.6l-0.1,0l-0.2-1.5l-0.1-0.5l0-0.1
								l0.7-0.1l0.2,0l1.8-0.2l0,0l1.8-0.2l0,0l2.2-0.2c0.3,0,0.6,0,0.8,0C182.7,121.2,183.3,121.5,183.4,121.9
								C183.4,121.9,183.4,121.9,183.4,121.9z"/>
						</g>
					</g>
					<path class="st14" d="M153.5,124.3c-0.1,0.5,0,1.2,0.5,1.4c0.4,0.2,0.9-0.2,1.1-0.6c0.2-0.4,0.2-0.9,0.2-1.4
						c0.2-0.9,0.7-1.8,1.5-2.3c0.4-0.3,0.9-0.4,1.2-0.8c0.3-0.3,0.5-0.9,0.2-1.3c-0.9-1.2-2.6,0.7-3.2,1.3
						C154.2,121.7,153.7,122.9,153.5,124.3z"/>
				</g>
				<g>
					<g>
						<g>
							<path class="st9" d="M203.9,124.6L203.9,124.6c0,0.1,0,0.2,0,0.3c0,0.1,0,0.2,0,0.4c-0.1,1.3-0.6,2.5-1.4,3.6
								c-0.2,0.2-0.4,0.5-0.6,0.7c-0.1,0.1-0.2,0.2-0.3,0.3c-0.5,0.6-1.1,1.1-1.7,1.6c-0.9,0.7-2,1.4-3.1,2.1c0,0-0.1,0-0.1,0.1
								c-0.3,0.1-0.6,0.3-0.9,0.4c-0.4,0.2-0.8,0.4-1.2,0.5c0,0,0,0,0,0c-0.1,0-0.2,0.1-0.3,0.1c-0.4,0.2-0.8,0.3-1.3,0.5
								c-0.7,0.3-1.4,0.5-2.1,0.7c-0.1,0-0.3,0.1-0.4,0.1c-0.3,0.1-0.6,0.2-0.9,0.2c-0.1,0-0.2,0-0.3,0.1c-0.3,0.1-0.6,0.1-0.9,0.2
								c-1,0.2-2.1,0.4-3.1,0.6h0c-0.5,0.1-1,0.1-1.5,0.2c-0.3,0-0.7,0.1-1,0.1c-1,0.1-2.1,0.1-3.1,0.2c-0.4,0-0.9,0-1.3,0
								c-0.4,0-0.8,0-1.2,0c-0.5,0-1,0-1.5-0.1c-0.1,0-0.1,0-0.1,0c-0.6,0-1.1-0.1-1.7-0.1c-0.9-0.1-1.7-0.2-2.5-0.3
								c0,0-0.1,0-0.1,0c-0.1,0-0.1,0-0.2,0c-1-0.2-2-0.3-3-0.6c-0.8-0.2-1.6-0.4-2.4-0.6c0,0-0.1,0-0.1,0c-0.7-0.2-1.3-0.4-1.9-0.6
								c-0.5-0.2-1.1-0.4-1.6-0.6c0,0,0,0,0,0c0,0,0,0,0,0c-0.4-0.2-0.8-0.3-1.2-0.5c-0.5-0.2-0.9-0.5-1.4-0.7
								c-1-0.6-1.9-1.2-2.7-1.8c0,0-0.1,0-0.1-0.1c-0.4-0.4-0.9-0.7-1.2-1.1c-0.2-0.2-0.3-0.3-0.5-0.5c-0.1-0.1-0.2-0.2-0.3-0.3
								c-0.2-0.2-0.4-0.5-0.6-0.7c-0.8-1.1-1.3-2.4-1.4-3.6c0-0.1,0-0.2,0-0.4c0-0.1,0-0.2,0-0.3v0c0-1.5,0.5-2.9,1.4-4.3
								c0.1-0.1,0.2-0.3,0.3-0.4c0.6-0.8,1.3-1.5,2.2-2.3c0.6-0.5,1.2-0.9,1.9-1.4c0.6-0.4,1.3-0.7,2-1.1c0,0,0.1,0,0.1,0
								c2.2-1.1,4.8-1.9,7.6-2.6c0,0,0.1,0,0.1,0c0.3-0.1,0.6-0.1,1-0.2c0.3-0.1,0.7-0.1,1-0.2c1.6-0.3,3.3-0.5,5.1-0.6
								c1-0.1,2-0.1,3-0.1c1.8,0,3.5,0.1,5.2,0.3c1.5,0.2,2.9,0.4,4.2,0.6c0.1,0,0.3,0.1,0.4,0.1c2.9,0.6,5.6,1.5,7.9,2.6
								c0,0,0.1,0,0.1,0c1.5,0.7,2.8,1.5,3.9,2.4c0.9,0.7,1.6,1.5,2.2,2.3c0.1,0.1,0.2,0.3,0.3,0.4
								C203.4,121.6,203.9,123.1,203.9,124.6z"/>
							<rect x="152.5" y="115.2" class="st9" width="51.3" height="9.4"/>
						</g>
						<g class="st1">
							<path d="M179.5,127.1v10.5c-0.4,0-0.9,0-1.3,0c-0.4,0-0.8,0-1.2,0v-10.5H179.5z"/>
							<path d="M185.2,126.8v10.4c-0.8,0.1-1.7,0.2-2.5,0.3v-10.7H185.2z"/>
							<path d="M190.8,126v9.9c-0.8,0.2-1.7,0.4-2.5,0.6V126H190.8z"/>
							<path d="M196.8,123.6v10c-0.8,0.4-1.6,0.8-2.5,1.2v-11.1H196.8z"/>
							<path d="M202.4,115.2v13.7c-0.6,0.9-1.5,1.8-2.5,2.7v-16.3H202.4z"/>
							<path d="M173.7,126.3v11.1c-0.9-0.1-1.7-0.2-2.5-0.3v-10.8H173.7z"/>
							<path d="M167.9,125.3v11.2c-0.9-0.2-1.7-0.4-2.5-0.7v-10.6H167.9z"/>
							<path d="M161.8,123.1v11.5c-0.9-0.4-1.7-0.8-2.5-1.2v-10.3H161.8z"/>
							<path d="M156.5,113.8v17.7c-1-0.8-1.9-1.7-2.5-2.7v-15.1H156.5z"/>
						</g>
						<path class="st0" d="M203.9,115.2c0,1.5-0.5,2.9-1.4,4.3c-0.1,0.1-0.2,0.3-0.3,0.4c-0.1,0.1-0.2,0.2-0.3,0.3
							c-0.6,0.7-1.2,1.3-2,1.9c-0.9,0.7-2,1.4-3.1,2.1c-0.2,0.1-0.5,0.3-0.8,0.4c0,0-0.1,0-0.1,0.1c-0.2,0.1-0.4,0.2-0.6,0.3
							c-0.2,0.1-0.5,0.2-0.7,0.3c0,0,0,0,0,0c-0.1,0-0.2,0.1-0.3,0.1c-1.1,0.4-2.2,0.8-3.4,1.2c-0.4,0.1-0.9,0.2-1.3,0.4
							c-0.2,0.1-0.4,0.1-0.6,0.1c-0.2,0-0.4,0.1-0.6,0.1c-0.4,0.1-0.8,0.2-1.2,0.3c-0.6,0.1-1.3,0.2-1.9,0.3c-0.3,0-0.7,0.1-1,0.1
							c-0.5,0.1-1,0.1-1.5,0.2c-0.5,0-1,0.1-1.6,0.1c0,0,0,0,0,0c0,0,0,0-0.1,0c-0.5,0-1,0-1.5,0.1c-0.3,0-0.5,0-0.8,0
							c-0.2,0-0.3,0-0.5,0c-0.4,0-0.8,0-1.2,0c-0.5,0-0.9,0-1.3,0h0c0,0,0,0,0,0c0,0-0.1,0-0.1,0c-0.6,0-1.2-0.1-1.8-0.1
							c-0.9-0.1-1.7-0.2-2.5-0.3c0,0,0,0,0,0c0,0-0.1,0-0.1,0c-0.6-0.1-1.1-0.2-1.7-0.3c-0.5-0.1-1-0.2-1.4-0.3
							c-0.4-0.1-0.7-0.2-1.1-0.3c-0.5-0.1-1-0.3-1.4-0.4c-1.2-0.4-2.4-0.8-3.5-1.3c0,0,0,0,0,0c0,0,0,0,0,0
							c-0.2-0.1-0.5-0.2-0.7-0.3c-0.2-0.1-0.4-0.2-0.6-0.3c0,0-0.1,0-0.1-0.1c-0.4-0.2-0.8-0.4-1.1-0.6c-1-0.6-2-1.2-2.8-1.9
							c-0.1-0.1-0.2-0.1-0.3-0.2c-0.4-0.4-0.9-0.8-1.2-1.2c-0.2-0.2-0.3-0.4-0.5-0.5c-0.1-0.1-0.2-0.2-0.3-0.3
							c-0.1-0.1-0.2-0.3-0.3-0.4c-0.9-1.3-1.4-2.8-1.4-4.3c0-0.4,0-0.8,0.1-1.3c1.2-6.6,12.2-11.8,25.5-11.8
							C192.4,102.2,203.9,108,203.9,115.2z"/>
						<ellipse class="st9" cx="178.2" cy="115.2" rx="17.7" ry="9"/>
					</g>
					<g>
						<g>
							<path class="st8" d="M189.5,116.4l0-0.2c0-0.2-0.1-0.4-0.3-0.6c-0.1-0.1-0.2-0.3-0.3-0.4c-0.4-0.4-1.1-0.8-1.9-1
								c0.2-0.1,0.3-0.3,0.5-0.4c0.2-0.2,0.4-0.4,0.5-0.6c0.1-0.2,0.2-0.4,0.2-0.6c0-0.1,0-0.2,0-0.3l0-0.2c0-0.2-0.1-0.4-0.2-0.6
								c-0.8-1.2-3.4-2-6.3-1.8l-0.1-0.7l-0.1-0.5l-0.1,0l-0.3,0l-3.8,0.4l0.2,1.1l-1.8,0.2l-0.1-0.7l-0.1-0.4l-0.1,0l-0.2,0
								l-3.9,0.4l0.2,1.1l-1,0.1l-2.1,0.2l0.2,1.2l0,0.1l0,0.3l0.1,0.4l2-0.2l0.1,0l0,0.1l0.3,2.1l0.1,0.3l0.3,1.6l0,0.2l0.3,1.9
								l0,0.3l-0.8,0.1l-1.4,0.1l0.1,0.8l0.1,0.4l0,0l0,0.2l0.1,0.5l2.1-0.2l0.9-0.1l0.1,0l0,0.2l0.1,0.6l0,0.1l1.5-0.1l2.2-0.2
								l0.6-0.1l0-0.1l-0.1-0.8l1.6-0.2l0.1,0l0,0.2l0.1,0.6l0,0.1l3-0.3l1.3-0.1l-0.2-0.9l0.2,0c0.4,0,0.8-0.1,1.2-0.2
								c0.4-0.1,0.8-0.2,1.2-0.3c1.4-0.4,2.5-1,3.2-1.6C189.4,117.5,189.6,117,189.5,116.4z M185.2,117c-0.1,0.5-1,1-2.2,1.1
								l-1.9,0.2l-0.1,0l-0.1,0l-4.2,0.4l-0.1,0l-0.9,0.1l-0.1-0.7l-0.3-1.7l2.1-0.2l4.6-0.4l0.6-0.1c1-0.1,1.9,0.1,2.4,0.5
								c0.1,0.1,0.2,0.2,0.2,0.4l0,0.2C185.2,116.9,185.2,116.9,185.2,117z M174.7,112.4l0.9-0.1l0.1,0l5.7-0.5
								c0.9-0.1,1.7,0.1,2.1,0.4c0.1,0.1,0.2,0.2,0.2,0.4c0,0,0,0,0,0l0,0.2c0.1,0.5-0.8,1.1-2,1.2l-6.7,0.6l-0.1-0.7L174.7,112.4z"
								/>
						</g>
						<polygon class="st8" points="167.9,112.3 168.2,113 169.1,112.5 168.8,111.8 						"/>
						<polygon class="st8" points="169.3,120.7 169.6,121.4 170.7,120.1 						"/>
						<polygon class="st8" points="172.6,121.3 172.9,122 177.2,121.6 176.9,120.9 						"/>
						<polygon class="st8" points="178.7,120.8 179,121.4 183.3,121 183,120.3 						"/>
						<polygon class="st8" points="174.9,108.6 175.2,109.2 174.6,110.2 						"/>
						<polygon class="st8" points="181,108 181.3,108.6 180.5,109.5 						"/>
						<g>
							<path class="st0" d="M189.3,115.7l0-0.1l0,0c0-0.1-0.1-0.3-0.1-0.4c-0.3-0.6-0.9-1-1.7-1.4c-0.2-0.1-0.5-0.2-0.7-0.3
								c0.2-0.2,0.4-0.3,0.6-0.5c0.2-0.2,0.3-0.4,0.4-0.6c0.1-0.3,0.2-0.6,0.1-0.8l0-0.1l0-0.1c-0.3-1.5-3.1-2.6-6.4-2.4
								c0,0-0.1,0-0.2,0l-0.1-0.3l0-0.1L181,108l-4.3,0.4l0.2,1.1l-1.6,0.1l-0.1,0l0-0.3l0-0.2l-0.1-0.7l-4.3,0.4l0.2,1.1l-1,0.1
								l-2.1,0.2l0.3,2l0.1,0l0.9-0.1l1.1-0.1l0,0.1l0.1,0.6l0,0.1l0.2,1.4l0.2,1l0.2,1l0.1,0.8l0.3,1.5l-2.1,0.2l0.2,1.5l0.1,0.5
								l0.1,0l0.8-0.1l0.8-0.1l0.5,0l1-0.1l0.1,0.7l0,0.2l0.1,0l4.2-0.4l-0.1-0.7l0-0.2l0.3,0l1.5-0.1l0.1,0.7l0,0.2l0.1,0l4.2-0.4
								l-0.1-0.6l-0.1-0.3l0.2,0c0.4,0,0.8-0.1,1.1-0.2c1.6-0.3,3-0.8,3.9-1.5C189,117.2,189.4,116.5,189.3,115.7z M184.9,116l0,0.2
								c0,0,0,0.1,0,0.1c0,0.2-0.1,0.4-0.4,0.6c-0.4,0.3-1.1,0.6-1.9,0.6l-6.3,0.6l-0.8,0.1l-0.1,0l-0.3-1.8l-0.1-0.6l6.3-0.6l0.4,0
								l0.6-0.1c0.6-0.1,1.1,0,1.5,0.1C184.5,115.4,184.9,115.6,184.9,116z M175.3,111.6l5.8-0.5c1.2-0.1,2.2,0.2,2.3,0.7
								c0,0,0,0,0,0l0,0.2c0,0,0,0.1,0,0.1c0,0.1-0.1,0.2-0.1,0.3c-0.3,0.4-1,0.7-1.9,0.7l-6.6,0.6l-0.1,0l-0.2-1.5l-0.1-0.6
								l0.8-0.1L175.3,111.6z"/>
						</g>
					</g>
					<path class="st14" d="M153.5,114.3c-0.1,0.5,0,1.2,0.5,1.4c0.4,0.2,0.9-0.2,1.1-0.6c0.2-0.4,0.2-0.9,0.2-1.4
						c0.2-0.9,0.7-1.8,1.5-2.3c0.4-0.3,0.9-0.4,1.2-0.8c0.3-0.3,0.5-0.9,0.2-1.3c-0.9-1.2-2.6,0.7-3.2,1.3
						C154.2,111.6,153.7,112.9,153.5,114.3z"/>
				</g>
			</g>
			<path class="st1" d="M166.9,130.8c-0.1,0.4-0.1,0.9-0.2,1.3c-0.1,0.3-0.1,0.6-0.2,1c-0.1,0.5-0.3,0.9-0.4,1.4
				c0,0.1,0,0.1-0.1,0.2c-0.1,0.2-0.1,0.4-0.2,0.6c0,0,0,0.1,0,0.1c-0.1,0.2-0.1,0.4-0.2,0.6c0,0.1-0.1,0.2-0.1,0.3
				c0,0.1-0.1,0.2-0.1,0.3c-0.1,0.2-0.2,0.4-0.2,0.5c-0.5,1-1,2.1-1.6,3.1c0,0,0,0,0,0c-0.4,0.7-0.9,1.5-1.4,2.2
				c-0.1,0.1-0.1,0.2-0.2,0.3c-0.1,0.1-0.2,0.2-0.2,0.4c-0.3,0.4-0.5,0.7-0.8,1.1c-0.1,0.1-0.2,0.3-0.3,0.4c0,0,0,0,0,0
				c-0.1,0.1-0.2,0.3-0.3,0.4c-0.3,0.3-0.5,0.7-0.8,1c-0.3,0.3-0.5,0.6-0.8,0.9c-0.6,0.7-1.3,1.4-2,2.1c-0.1,0.1-0.1,0.1-0.2,0.2
				c-0.3,0.3-0.6,0.6-0.9,0.9c-0.1,0.1-0.1,0.1-0.2,0.2c-0.5-0.5-0.9-1-1.3-1.5c-0.9-1.3-1.4-2.8-1.4-4.3v-9.4c0-0.1,0-0.2,0-0.3
				c0,0,0,0,0,0c0-0.1,0-0.2,0-0.3v-9.4c0-0.1,0-0.2,0-0.4c0-0.1,0-0.2,0-0.3v-9.4c0,1.5,0.5,2.9,1.4,4.3c0.1,0.1,0.2,0.3,0.3,0.4
				c0.1,0.1,0.2,0.2,0.3,0.3c0.1,0.2,0.3,0.4,0.5,0.5c0.4,0.4,0.8,0.8,1.2,1.2c0.1,0.1,0.2,0.1,0.3,0.2c0.8,0.7,1.7,1.3,2.8,1.9
				c0.4,0.2,0.7,0.4,1.1,0.6c0,0,0.1,0,0.1,0.1c0.2,0.1,0.4,0.2,0.6,0.3c0.2,0.1,0.5,0.2,0.7,0.3c0,0,0,0,0,0c0,0,0,0,0,0
				c1.1,0.5,2.3,0.9,3.5,1.3c0.5,0.1,1,0.3,1.4,0.4c0,0.1,0,0.1,0,0.2c0.1,0.4,0.1,0.8,0.1,1.2C167,129.1,167,129.9,166.9,130.8z"/>
			<g>
				<g>
					<g>
						<path class="st9" d="M163.5,115.7c1.1,1,1.9,2.3,2.3,3.9c0.3,1.1,0.4,2.3,0.3,3.7c0,1.2-0.2,2.4-0.5,3.7
							c-0.2,0.9-0.5,1.8-0.8,2.7c-0.4,1.1-0.8,2.2-1.3,3.3c-0.4,0.8-0.8,1.5-1.2,2.3c-0.5,0.9-1,1.8-1.6,2.7
							c-0.5,0.7-0.9,1.4-1.4,2.1c-0.6,0.8-1.3,1.7-1.9,2.5c-0.3,0.3-0.5,0.7-0.8,1c-0.3,0.3-0.5,0.6-0.8,0.9
							c-0.7,0.8-1.5,1.6-2.3,2.3c-0.6,0.6-1.3,1.2-1.9,1.7c-0.9,0.7-1.7,1.4-2.6,2.1c-0.7,0.5-1.4,1-2.2,1.5
							c-1.1,0.7-2.2,1.3-3.3,1.9c-0.9,0.4-1.7,0.8-2.6,1.1c-1.1,0.4-2.2,0.7-3.2,0.9c-1.3,0.2-2.5,0.3-3.7,0.2
							c-1.6-0.2-3-0.8-4.2-1.7c-1.1-1-1.9-2.3-2.3-3.9c-0.3-1.1-0.4-2.3-0.3-3.7c0.2-5.8,3.7-13.5,9.7-20.4
							c6-6.9,13.1-11.3,18.9-12.4c1.3-0.2,2.5-0.3,3.7-0.2C161,114.2,162.4,114.8,163.5,115.7z"/>
						
							<rect x="117.5" y="127.3" transform="matrix(0.6571 -0.7538 0.7538 0.6571 -50.4218 153.1682)" class="st9" width="51.3" height="9.4"/>
					</g>
					<g class="st1">
						<path d="M149.4,135.8l7.9,6.9c-0.3,0.3-0.5,0.7-0.8,1c-0.3,0.3-0.5,0.6-0.8,0.9l-7.9-6.9L149.4,135.8z"/>
						<path d="M152.9,131.3l7.8,6.8c-0.5,0.7-0.9,1.4-1.4,2.1l-8-7L152.9,131.3z"/>
						<path d="M156.1,126.5l7.5,6.5c-0.4,0.8-0.8,1.5-1.2,2.3l-8-6.9L156.1,126.5z"/>
						<path d="M158.1,120.4l7.5,6.6c-0.2,0.9-0.5,1.8-0.8,2.7l-8.4-7.3L158.1,120.4z"/>
						<path d="M155.5,110.6l10.3,9c0.3,1.1,0.4,2.3,0.3,3.7l-12.3-10.7L155.5,110.6z"/>
						<path d="M145,139.6l8.4,7.3c-0.6,0.6-1.3,1.2-1.9,1.7l-8.1-7.1L145,139.6z"/>
						<path d="M140.4,143.3l8.5,7.4c-0.7,0.5-1.4,1-2.2,1.5l-8-7L140.4,143.3z"/>
						<path d="M134.7,146.5l8.7,7.6c-0.9,0.4-1.7,0.8-2.6,1.1l-7.8-6.8L134.7,146.5z"/>
						<path d="M124.3,144.4l13.4,11.7c-1.3,0.2-2.5,0.3-3.7,0.2l-11.4-9.9L124.3,144.4z"/>
					</g>
					
						<ellipse transform="matrix(0.6571 -0.7538 0.7538 0.6571 -49.3111 149.4461)" class="st0" cx="139.6" cy="128.9" rx="25.7" ry="13"/>
					
						<ellipse transform="matrix(0.6571 -0.7538 0.7538 0.6571 -49.3111 149.4461)" class="st9" cx="139.6" cy="128.9" rx="17.7" ry="9"/>
				</g>
				<g>
					<g>
						<path class="st8" d="M147.8,121.1l0.1,0.1c1.4,0.9,0.9,4.1-1.3,7.1l-0.1,0.1l0.8,0.5l-2.5,3.5l-0.8-0.5l-1,1.4l0.8,0.5
							l-2.5,3.5l-0.8-0.5l-0.6,0.8l-1.3,1.7l-1.7-1l1.3-1.7l-2-1.3l-1.7-1l-1.8-1.1l-1.3,1.7l-1.7-1l1.3-1.7l0.6-0.8l-0.9-0.6
							l2.5-3.5l0.9,0.6l1-1.4l-0.9-0.6l2.5-3.5l1,0.6c2.1-2.7,4.8-4.2,6.1-3.4l0.1,0.1c0.6,0.4,0.8,1.1,0.7,2.1
							C145.9,120.9,147,120.6,147.8,121.1z M145.4,124.7l-0.1-0.1c-0.5-0.3-1.6,0.3-2.4,1.4l-0.3,0.5l-3.9,5.5l2,1.3l0.5-0.7
							l3.7-5.2C145.7,126.1,145.9,125,145.4,124.7 M135.1,129.7l1.8,1.1l3.9-5.5c0.7-1,0.9-2,0.4-2.3l-0.1-0.1
							c-0.5-0.3-1.4,0.3-2.1,1.2l-3.4,4.7L135.1,129.7"/>
					</g>
					<polygon class="st8" points="130.7,134.8 131.3,135 131.6,134 130.9,133.8 					"/>
					<polygon class="st8" points="137.9,139.2 138.6,139.5 138.4,137.8 					"/>
					<polygon class="st8" points="140.5,137.1 141.2,137.4 143.7,133.9 143.1,133.6 					"/>
					<polygon class="st8" points="144.1,132.2 144.8,132.4 147.3,128.9 146.7,128.7 					"/>
					<polygon class="st8" points="132.4,127 133.1,127.3 133.4,128.3 					"/>
					<polygon class="st8" points="136,122.1 136.7,122.3 136.8,123.4 					"/>
					<g>
						<path class="st0" d="M147.1,120.8l0.1,0.1c1.4,0.9,0.9,4.1-1.3,7.1l-0.1,0.1l0.8,0.5l-2.5,3.5l-0.8-0.5l-1,1.4l0.8,0.5
							l-2.5,3.5l-0.8-0.5l-0.6,0.8l-1.3,1.7l-1.7-1l1.3-1.7l-2-1.3l-1.7-1l-1.8-1.1l-1.3,1.7l-1.7-1l1.3-1.7l0.6-0.8l-0.9-0.6
							l2.5-3.5l0.9,0.6l1-1.4l-0.9-0.6l2.5-3.5l1,0.6c2.1-2.7,4.8-4.2,6.1-3.4l0.1,0.1c0.6,0.4,0.8,1.1,0.7,2.1
							C145.2,120.6,146.4,120.4,147.1,120.8z M144.8,124.4l-0.1-0.1c-0.5-0.3-1.6,0.3-2.4,1.4l-0.3,0.5l-3.9,5.5l2,1.3l0.5-0.7
							l3.7-5.2C145.1,125.9,145.3,124.8,144.8,124.4 M134.5,129.5l1.8,1.1l3.9-5.5c0.7-1,0.9-2,0.4-2.3l-0.1-0.1
							c-0.5-0.3-1.4,0.3-2.1,1.2l-3.4,4.7L134.5,129.5"/>
					</g>
				</g>
				<path class="st14" d="M122.7,146.9c0.4,0.4,0.9,0.8,1.4,0.5c0.4-0.2,0.5-0.8,0.3-1.2c-0.2-0.4-0.6-0.7-0.9-1.1
					c-0.6-0.7-0.9-1.7-0.7-2.6c0.1-0.5,0.2-0.9,0.2-1.4c0-0.5-0.4-1-0.8-1c-1.5-0.1-1.2,2.4-1.1,3.3
					C121.2,144.6,121.8,145.9,122.7,146.9z"/>
			</g>
		</g>
	</g>
	<g>
		<g>
			<g>
				<polygon class="st15" points="112,88.9 124.2,70.6 112,64.7 				"/>
				<polygon class="st16" points="112,88.9 112,64.7 99.5,70.2 				"/>
			</g>
			<polygon class="st17" points="99.5,70.2 112.1,75.4 124.2,70.6 112,64.7 			"/>
		</g>
		<polygon class="st18" points="99.5,64.7 111.7,71.3 124.2,64.7 111.7,58.6 		"/>
		<polygon class="st0" points="99.5,58.3 111.7,64.9 124.2,58.3 111.7,52.2 		"/>
		<g>
			<polygon class="st15" points="111.7,34.4 99.5,52.7 111.7,58.6 			"/>
			<polygon class="st17" points="111.7,34.4 111.7,58.6 124.2,53.1 			"/>
		</g>
	</g>
	<g>
		<g>
			<g>
				<path class="st19" d="M209.4,203.9l23.8,9.9c0.2,0.1,0.5,0.1,0.8,0l23-9.2c0.8-0.3,0.9-1.5,0.1-1.9L234,191.6
					c-0.3-0.1-0.6-0.1-0.9,0L209.4,202C208.6,202.4,208.6,203.6,209.4,203.9z"/>
				<polygon class="st19" points="208.8,197.3 208.8,203.1 257.7,203.7 257.7,198.1 				"/>
			</g>
			<path class="st20" d="M209.4,198.4l23.8,9.9c0.2,0.1,0.5,0.1,0.8,0l23-9.2c0.8-0.3,0.9-1.5,0.1-1.9L234,186
				c-0.3-0.1-0.6-0.1-0.9,0l-23.7,10.4C208.6,196.8,208.6,198,209.4,198.4z"/>
			<path class="st1" d="M240.4,197.3c0,1.5-3.2,2.7-7.2,2.7c-4,0-7.2-1.2-7.2-2.7c0-1.5,3.2-2.7,7.2-2.7
				C237.2,194.6,240.4,195.8,240.4,197.3z"/>
			<path class="st19" d="M211.8,197.4c0,0.3-0.6,0.5-1.2,0.5c-0.7,0-1.2-0.2-1.2-0.5c0-0.3,0.6-0.5,1.2-0.5
				C211.3,196.9,211.8,197.1,211.8,197.4z"/>
			<path class="st19" d="M257.1,198.1c0,0.3-0.6,0.5-1.2,0.5s-1.2-0.2-1.2-0.5c0-0.3,0.6-0.5,1.2-0.5S257.1,197.8,257.1,198.1z"/>
			<path class="st19" d="M234.9,207c0,0.3-0.6,0.5-1.2,0.5c-0.7,0-1.2-0.2-1.2-0.5c0-0.3,0.6-0.5,1.2-0.5
				C234.3,206.6,234.9,206.8,234.9,207z"/>
		</g>
		<g>
			<g>
				<g>
					<polygon class="st15" points="233.4,197.1 248.7,166.9 233.4,159.5 					"/>
					<polygon class="st17" points="233.4,197.1 233.4,159.5 217.6,166.5 					"/>
				</g>
				<polygon class="st21" points="217.6,166.5 233.4,173 248.7,166.9 233.4,159.5 				"/>
				<polygon class="st22" points="224.7,166.4 233.3,169.9 241.6,166.6 233.3,162.6 				"/>
			</g>
			<g>
				<g>
					<polygon class="st15" points="233.1,130.2 217.8,160.5 233.1,167.8 					"/>
					<polygon class="st17" points="233.1,130.2 233.1,167.8 248.9,160.9 					"/>
				</g>
			</g>
		</g>
	</g>
	<g>
		<g>
			<g>
				<g>
					<polygon class="st15" points="18.1,119.9 18.1,99.8 8,99.9 					"/>
					<polygon class="st17" points="18.1,119.9 8,99.9 1.5,107.8 					"/>
				</g>
				<polygon class="st21" points="1.5,107.8 11.6,107.1 18.1,99.8 8,99.9 				"/>
				<polygon class="st22" points="5.2,105.9 10.7,105.5 14.2,101.5 8.8,101.6 				"/>
			</g>
			<g>
				<g>
					<polygon class="st15" points="0,84.5 0,104.6 10.1,104.4 					"/>
					<polygon class="st17" points="0,84.5 10.1,104.4 16.6,96.5 					"/>
				</g>
			</g>
		</g>
		<g>
			<g>
				<g>
					<polygon class="st15" points="314.1,98.2 321.8,89.4 317.3,85.6 					"/>
					<polygon class="st17" points="314.1,98.2 317.3,85.6 311.4,86.6 					"/>
				</g>
				<polygon class="st21" points="311.4,86.6 316.2,90.1 321.8,89.4 317.3,85.6 				"/>
				<polygon class="st22" points="313.8,87.2 316.4,89.1 319.5,88.7 317,86.6 				"/>
			</g>
			<g>
				<g>
					<polygon class="st15" points="319.8,75.8 312,84.6 316.5,88.4 					"/>
					<polygon class="st17" points="319.8,75.8 316.5,88.4 322.4,87.4 					"/>
				</g>
			</g>
		</g>
	</g>
	<g>
		<g>
			<g>
				<polygon class="st23" points="272.1,9.4 269.7,16.4 277,15.2 279.4,8.1 				"/>
				<polygon class="st24" points="269.7,16.4 274.5,22.6 281.9,21 277,15.2 				"/>
				<polygon class="st25" points="279.4,8.1 284.6,13.9 281.9,21 277,15.2 				"/>
			</g>
			<g class="st26">
				<polygon class="st0" points="266.4,2.8 261.2,17.8 277.1,15.2 282.2,0 				"/>
				<polygon class="st27" points="261.2,17.8 271.7,31.1 287.6,27.6 277.1,15.2 				"/>
				<polygon class="st28" points="282.2,0 293.3,12.4 287.6,27.6 277.1,15.2 				"/>
			</g>
		</g>
		<g>
			<g>
				<polygon class="st23" points="251.5,48.4 250.2,52.3 254.3,51.6 255.6,47.7 				"/>
				<polygon class="st24" points="250.2,52.3 252.9,55.7 257,54.8 254.3,51.6 				"/>
				<polygon class="st25" points="255.6,47.7 258.4,50.9 257,54.8 254.3,51.6 				"/>
			</g>
			<g class="st26">
				<polygon class="st0" points="248.4,44.8 245.5,53.1 254.3,51.6 257.1,43.2 				"/>
				<polygon class="st27" points="245.5,53.1 251.3,60.4 260.1,58.5 254.3,51.6 				"/>
				<polygon class="st28" points="257.1,43.2 263.2,50.1 260.1,58.5 254.3,51.6 				"/>
			</g>
		</g>
		<g>
			<g>
				<polygon class="st23" points="316.8,5 315.9,7.6 318.6,7.1 319.5,4.5 				"/>
				<polygon class="st24" points="315.9,7.6 317.7,9.8 320.4,9.3 318.6,7.1 				"/>
				<polygon class="st25" points="319.5,4.5 321.4,6.7 320.4,9.3 318.6,7.1 				"/>
			</g>
			<g class="st26">
				<polygon class="st0" points="314.7,2.6 312.8,8.1 318.6,7.1 320.5,1.6 				"/>
				<polygon class="st27" points="312.8,8.1 316.6,13 322.5,11.7 318.6,7.1 				"/>
				<polygon class="st28" points="320.5,1.6 324.6,6.1 322.5,11.7 318.6,7.1 				"/>
			</g>
		</g>
		<line class="st29" x1="268.1" y1="26.5" x2="260.1" y2="46.4"/>
		<line class="st29" x1="284.6" y1="13.9" x2="312.8" y2="8.1"/>
	</g>
	<g>
		<path class="st1" d="M74.3,179.9c0,8.9-14.1,16-31.6,16c-17.4,0-31.6-7.2-31.6-16c0-8.9,14.1-16,31.6-16c4.8,0,9.3,0.5,13.4,1.5
			c1,0.2,2,0.5,3,0.8C68.3,169,74.3,174.1,74.3,179.9z"/>
		<g>
			<g>
				<g>
					<path class="st11" d="M74.3,168.4c0,1.8-0.6,3.6-1.7,5.3c-0.8,1.2-1.8,2.3-3.1,3.3c-1.1,0.9-2.4,1.8-3.9,2.5
						c-1,0.5-2,1-3.1,1.4c-1.3,0.5-2.7,1-4.2,1.4c-1,0.3-2,0.6-3.1,0.8c-1.3,0.3-2.5,0.5-3.9,0.7c-1,0.1-2.1,0.3-3.1,0.4
						c-1.3,0.1-2.6,0.2-3.9,0.2c-0.5,0-1.1,0-1.6,0c-0.5,0-1,0-1.5,0c-1.4,0-2.7-0.1-4-0.2c-1.1-0.1-2.1-0.2-3.1-0.4
						c-1.4-0.2-2.7-0.4-4-0.7c-1.1-0.2-2.1-0.5-3.1-0.8c-1.6-0.5-3-1-4.4-1.6c-1.1-0.5-2.1-1-3.1-1.5c-1.3-0.7-2.4-1.5-3.4-2.3
						c-1.3-1-2.3-2.1-3.1-3.3c-1.1-1.7-1.7-3.4-1.7-5.3c0-1.8,0.6-3.6,1.7-5.3c0.8-1.2,1.8-2.3,3.1-3.3c5.6-4.5,15.5-7.5,26.7-7.5
						c11.3,0,21.1,3,26.7,7.5c1.3,1,2.3,2.1,3.1,3.3C73.7,164.8,74.3,166.5,74.3,168.4z"/>
					<rect x="11.2" y="156.8" class="st11" width="63.2" height="11.5"/>
				</g>
				<path class="st3" d="M74.3,156.8c0,8.9-14.1,16-31.6,16c-17.4,0-31.6-7.2-31.6-16c0-8.9,14.1-16,31.6-16c4.8,0,9.3,0.5,13.4,1.5
					c1,0.2,2,0.5,3,0.8C68.3,145.9,74.3,151,74.3,156.8z"/>
				<ellipse class="st9" cx="42.7" cy="156.4" rx="25.1" ry="12.7"/>
				<ellipse class="st3" cx="42.7" cy="155.6" rx="16.5" ry="8.4"/>
				<ellipse class="st9" cx="42.7" cy="155.6" rx="6.6" ry="3.3"/>
				<path class="st14" d="M12.3,155.7c-0.1,0.7,0,1.5,0.6,1.7c0.5,0.2,1.1-0.2,1.4-0.8c0.2-0.5,0.2-1.1,0.3-1.7
					c0.2-1.1,0.9-2.2,1.8-2.8c0.5-0.3,1.1-0.6,1.5-1c0.4-0.4,0.6-1.1,0.3-1.6c-1.1-1.4-3.2,0.8-3.9,1.6
					C13.3,152.4,12.6,154,12.3,155.7z"/>
			</g>
			<path class="st30" d="M59.2,143.1l-15.5,12.8c-0.9-0.4-1.5-1-1.6-2l14.1-11.7C57.2,142.6,58.2,142.8,59.2,143.1z"/>
			<g>
				<polygon class="st31" points="42.8,110.2 42.8,128.5 40,125.2 39.9,109.6 				"/>
				<path class="st32" d="M43.9,155.9c-0.9,0.5-1.7,0.5-2.6,0l0-46.3c0-0.7,0.6-1.3,1.3-1.3l0,0c0.7,0,1.3,0.6,1.3,1.3V155.9z"/>
				<polygon class="st9" points="42.8,111.5 42.8,129.7 47.1,126.7 47.1,111.5 				"/>
			</g>
		</g>
	</g>
	<g>
		<path class="st1" d="M12.8,267.4l51.5,31.2c0.7,0.4,1.6,0.4,2.3,0l28.8-16.5l5.7-3.2c0.6-0.3,0.6-1.2,0-1.6l-51.3-31.6
			c-0.7-0.4-1.5-0.4-2.2,0l-7.2,4.1l-27.6,15.9C12.2,266.2,12.2,267.1,12.8,267.4z"/>
		<g>
			<path class="st2" d="M64.4,292.3l-51-31c-0.8-0.5-0.8-1.6,0-2.1l34.3-19.8c0.7-0.4,1.5-0.4,2.2,0l51.7,31.8
				c0.4,0.3,0.4,0.9,0,1.2l-34.8,19.9C66,292.8,65.1,292.8,64.4,292.3z"/>
			<path class="st2" d="M12.6,256.9l0.2,4.1c0,0,9-2.6,8.7-2.6C21.3,258.3,12.6,256.9,12.6,256.9z"/>
			<polygon class="st2" points="101.7,268.7 101.9,272 93.7,270.8 			"/>
			<path class="st3" d="M13,258l51.5,31.2c0.7,0.4,1.6,0.4,2.3,0l28.8-16.5l5.7-3.2c0.6-0.3,0.6-1.2,0-1.6l-51.3-31.6
				c-0.7-0.4-1.5-0.4-2.2,0l-7.2,4.1L13,256.4C12.4,256.8,12.4,257.7,13,258z"/>
			<path class="st4" d="M41.4,240l54.1,32.9l5.7-3.2c0.6-0.3,0.6-1.2,0-1.6l-51.3-31.6c-0.7-0.4-1.5-0.4-2.2,0L41.4,240z"/>
			<g class="st33">
				<path class="st34" d="M24.6,258.7c0,0.9,1.5,1.7,3.5,1.7c1.9,0,3.5-0.7,3.5-1.6c0-0.9-1.5-1.7-3.5-1.7
					C26.2,257,24.6,257.7,24.6,258.7z"/>
				<path class="st35" d="M21.6,256.9c0,0.9,1.5,1.7,3.5,1.7c1.9,0,3.5-0.7,3.5-1.6c0-0.9-1.5-1.7-3.5-1.7
					C23.2,255.2,21.6,256,21.6,256.9z"/>
			</g>
			<path class="st4" d="M74.3,278.2l-15.9-10c-0.4-0.3-1-0.2-1.4,0.1l0,0c-0.6,0.5-0.6,1.5,0.1,1.9l15.7,10.2
				c0.5,0.3,1.1,0.2,1.5-0.1l0.2-0.2C75.1,279.5,75,278.6,74.3,278.2z"/>
			<path class="st4" d="M69.8,281.3l-9.5-6.3c-0.5-0.3-1.2-0.3-1.6,0.1l-0.1,0.1c-0.6,0.6-0.5,1.6,0.2,2l9.6,6.2
				c0.5,0.3,1.2,0.3,1.6-0.2l0,0C70.5,282.8,70.5,281.8,69.8,281.3z"/>
		</g>
		<g>
			<path class="st33" d="M69.4,264.1c0,2.9-6.1,5.3-13.7,5.4c-7.6,0.1-13.8-2.1-13.8-5c0-2.9,6.1-5.3,13.7-5.4
				S69.4,261.3,69.4,264.1z"/>
			<g>
				
					<ellipse transform="matrix(0.1371 -0.9906 0.9906 0.1371 -186.8046 263.9837)" class="st8" cx="58.1" cy="239.2" rx="22.1" ry="19.4"/>
				
					<ellipse transform="matrix(0.1372 -0.9905 0.9905 0.1372 -187.4269 261.5555)" class="st0" cx="56.4" cy="238.4" rx="22.1" ry="17.6"/>
				
					<ellipse transform="matrix(0.1372 -0.9905 0.9905 0.1372 -187.7536 261.0555)" class="st9" cx="56" cy="238.3" rx="18.8" ry="14.9"/>
				<path class="st1" d="M41.9,236.8c1.4-10.3,9.2-17.7,17.3-16.6c2.6,0.4,4.9,1.5,6.8,3.3c-2-2-4.5-3.4-7.3-3.8
					c-8.1-1.1-15.9,6.3-17.3,16.6c-1,7,1.3,13.6,5.4,17.4C42.9,249.8,40.9,243.5,41.9,236.8z"/>
				<g>
					<g>
						<path class="st8" d="M64.5,245.4l0,0.4c-0.4,3.5-3.1,5.7-6,4.8l-0.1,0l-0.2,1.9l-3.3-1l0.2-1.9l-1.4-0.4l-0.2,1.9l-3.3-1
							l0.2-1.9l-0.8-0.2l-1.7-0.5l0.5-4.1l1.7,0.5l0.6-4.9l0.5-4.1l0.5-4.4l-1.7-0.5l0.5-4.1l1.7,0.5l0.8,0.2l0.3-2.3l3.3,1
							l-0.3,2.3l1.4,0.4l0.3-2.3l3.3,1l-0.3,2.3c2.6,1,4.3,4.3,3.9,7.5l0,0.3c-0.2,1.4-0.7,2.6-1.5,3.4
							C64.3,241.7,64.8,243.6,64.5,245.4z M61.1,244.8l0-0.4c0.2-1.3-0.6-2.5-1.6-2.8l-0.4-0.1L54,240l-0.6,4.9l0.7,0.2l4.9,1.4
							C60,246.8,61,246.1,61.1,244.8 M55.1,231.4l-0.5,4.4l5.2,1.5c0.9,0.3,1.8-0.4,1.9-1.6l0-0.3c0.1-1.1-0.5-2.3-1.4-2.5l-4.5-1.3
							L55.1,231.4"/>
					</g>
					<polygon class="st8" points="57.2,252.3 58.1,252.5 56.7,250.8 					"/>
					<polygon class="st8" points="52.5,250.9 53.4,251.1 52.3,249.9 					"/>
					<polygon class="st8" points="47.5,243.3 48.4,243.4 48.6,244.6 					"/>
					<polygon class="st8" points="49.7,225.7 50.6,225.9 51.4,227.2 					"/>
					<polygon class="st8" points="52.4,224.2 53.3,224.3 53.6,225.2 					"/>
					<path class="st8" d="M51.5,224.2"/>
					<polygon class="st8" points="57.1,225.5 58,225.7 61.3,226.7 60.4,226.5 					"/>
					<polygon class="st10" points="55.7,225.1 56.6,225.3 56.4,227.6 55.4,227.4 					"/>
					<path class="st10" d="M60.4,226.5l0.9,0.1l-0.3,2.3c0,0-0.2-0.1-0.9-0.1L60.4,226.5z"/>
					<g>
						<path class="st0" d="M63.6,245.3l0,0.4c-0.4,3.5-3.1,5.7-6,4.8l-0.1,0l-0.2,1.9l-3.3-1l0.2-1.9l-1.4-0.4l-0.2,1.9l-3.3-1
							l0.2-1.9l-0.8-0.2l-1.7-0.5l0.5-4.1l1.7,0.5l0.6-4.9l0.5-4.1l0.5-4.4l-1.7-0.5l0.5-4.1l1.7,0.5l0.8,0.2l0.3-2.3l3.3,1
							l-0.3,2.3l1.4,0.4l0.3-2.3l3.3,1l-0.3,2.3c2.6,1,4.3,4.3,3.9,7.5l0,0.3c-0.2,1.4-0.7,2.6-1.5,3.4
							C63.4,241.6,63.8,243.5,63.6,245.3z M60.2,244.7l0-0.4c0.2-1.3-0.6-2.5-1.6-2.8l-0.4-0.1l-5.2-1.5l-0.6,4.9l0.7,0.2l4.9,1.4
							C59.1,246.7,60.1,245.9,60.2,244.7 M54.1,231.3l-0.5,4.4l5.2,1.5c0.9,0.3,1.8-0.4,1.9-1.6l0-0.3c0.1-1.1-0.5-2.3-1.4-2.5
							l-4.5-1.3L54.1,231.3"/>
					</g>
				</g>
			</g>
		</g>
	</g>
	<g>
		<g>
			<g>
				<g>
					<path class="st9" d="M70.4,31.5c1,0.9,1.7,2.1,2.1,3.6c0.3,1,0.4,2.1,0.3,3.4c0,1.1-0.2,2.2-0.5,3.4c-0.2,0.8-0.4,1.6-0.7,2.5
						c-0.3,1-0.8,2-1.2,3.1c-0.3,0.7-0.7,1.4-1.1,2.1c-0.5,0.8-1,1.7-1.5,2.5c-0.4,0.6-0.9,1.3-1.3,1.9c-0.6,0.8-1.2,1.5-1.8,2.3
						c-0.2,0.3-0.5,0.6-0.8,0.9c-0.3,0.3-0.5,0.6-0.8,0.8c-0.7,0.8-1.4,1.5-2.1,2.2c-0.6,0.5-1.1,1.1-1.7,1.6
						c-0.8,0.7-1.6,1.3-2.4,1.9c-0.7,0.5-1.3,0.9-2,1.4c-1,0.6-2,1.2-3,1.7c-0.8,0.4-1.6,0.7-2.4,1c-1,0.4-2,0.6-3,0.8
						c-1.2,0.2-2.3,0.3-3.4,0.1c-1.5-0.2-2.8-0.7-3.8-1.6c-1-0.9-1.7-2.1-2.1-3.6c-0.3-1-0.4-2.1-0.3-3.4c0.2-5.4,3.4-12.4,8.9-18.7
						c5.5-6.3,12-10.4,17.3-11.4c1.2-0.2,2.3-0.3,3.4-0.1C68.1,30.1,69.4,30.6,70.4,31.5z"/>
					
						<rect x="28.1" y="42.2" transform="matrix(0.6571 -0.7538 0.7538 0.6571 -17.3081 54.8775)" class="st9" width="47.1" height="8.6"/>
				</g>
				<g class="st1">
					<path d="M57.4,49.9l7.2,6.3c-0.2,0.3-0.5,0.6-0.8,0.9c-0.3,0.3-0.5,0.6-0.8,0.8l-7.2-6.3L57.4,49.9z"/>
					<path d="M60.6,45.8l7.2,6.3c-0.4,0.6-0.9,1.3-1.3,1.9l-7.4-6.4L60.6,45.8z"/>
					<path d="M63.5,41.4l6.9,6c-0.3,0.7-0.7,1.4-1.1,2.1L62,43.2L63.5,41.4z"/>
					<path d="M65.4,35.9l6.9,6c-0.2,0.8-0.4,1.6-0.7,2.5l-7.7-6.7L65.4,35.9z"/>
					<path d="M63,26.8l9.5,8.2c0.3,1,0.4,2.1,0.3,3.4l-11.3-9.9L63,26.8z"/>
					<path d="M53.4,53.5l7.7,6.7c-0.6,0.5-1.1,1.1-1.7,1.6l-7.5-6.5L53.4,53.5z"/>
					<path d="M49.2,56.9l7.8,6.8c-0.7,0.5-1.3,0.9-2,1.4l-7.3-6.4L49.2,56.9z"/>
					<path d="M44,59.7l8,7c-0.8,0.4-1.6,0.7-2.4,1l-7.1-6.2L44,59.7z"/>
					<path d="M34.3,57.8l12.3,10.7c-1.2,0.2-2.3,0.3-3.4,0.1l-10.4-9.1L34.3,57.8z"/>
				</g>
				
					<ellipse transform="matrix(0.6571 -0.7538 0.7538 0.6571 -16.2881 51.4596)" class="st0" cx="48.4" cy="43.6" rx="23.6" ry="12"/>
				
					<ellipse transform="matrix(0.6571 -0.7538 0.7538 0.6571 -16.2881 51.4595)" class="st9" cx="48.4" cy="43.6" rx="16.3" ry="8.3"/>
			</g>
			<g>
				<g>
					<path class="st8" d="M55.9,36.4l0.1,0.1c1.3,0.8,0.8,3.8-1.2,6.5l-0.1,0.1l0.7,0.4l-2.3,3.2l-0.7-0.4l-1,1.3l0.7,0.4l-2.3,3.2
						L49.2,51l-0.5,0.8l-1.2,1.6l-1.6-1l1.2-1.6l-1.9-1.1l-1.6-1l-1.7-1l-1.2,1.6l-1.6-1l1.2-1.6l0.5-0.8l-0.9-0.5l2.3-3.2l0.9,0.5
						l1-1.3l-0.9-0.5l2.3-3.2l0.9,0.5c1.9-2.5,4.4-3.9,5.6-3.1l0.1,0.1c0.5,0.3,0.8,1,0.7,1.9C54.2,36.2,55.2,36,55.9,36.4z
						 M53.7,39.7l-0.1-0.1c-0.5-0.3-1.4,0.3-2.2,1.3l-0.3,0.4l-3.6,5l1.9,1.2l0.5-0.7l3.4-4.8C54,41.1,54.2,40,53.7,39.7 M44.3,44.4
						l1.7,1l3.6-5c0.6-0.9,0.8-1.8,0.4-2.1l-0.1-0.1c-0.4-0.3-1.3,0.2-1.9,1.1l-3.1,4.3L44.3,44.4"/>
				</g>
				<polygon class="st8" points="40.2,49 40.8,49.2 41,48.3 40.4,48.1 				"/>
				<polygon class="st8" points="46.9,53.1 47.5,53.3 47.3,51.8 				"/>
				<polygon class="st8" points="49.3,51.2 49.9,51.4 52.2,48.2 51.6,47.9 				"/>
				<polygon class="st8" points="52.6,46.6 53.2,46.8 55.5,43.6 54.9,43.4 				"/>
				<polygon class="st8" points="41.8,41.9 42.4,42.1 42.8,43.1 				"/>
				<polygon class="st8" points="45.1,37.3 45.7,37.5 45.8,38.6 				"/>
				<g>
					<path class="st0" d="M55.3,36.2l0.1,0.1c1.3,0.8,0.8,3.8-1.2,6.5l-0.1,0.1l0.7,0.4l-2.3,3.2l-0.7-0.4l-1,1.3l0.7,0.4l-2.3,3.2
						l-0.7-0.4L48,51.5l-1.2,1.6l-1.6-1l1.2-1.6l-1.9-1.1l-1.6-1l-1.7-1L40.2,49l-1.6-1l1.2-1.6l0.5-0.8l-0.9-0.5l2.3-3.2l0.9,0.5
						l1-1.3l-0.9-0.5l2.3-3.2l0.9,0.5c1.9-2.5,4.4-3.9,5.6-3.1l0.1,0.1c0.5,0.3,0.8,1,0.7,1.9C53.6,36,54.6,35.8,55.3,36.2z
						 M53.1,39.5L53,39.4c-0.5-0.3-1.4,0.3-2.2,1.3l-0.3,0.4l-3.6,5l1.9,1.2l0.5-0.7l3.4-4.8C53.4,40.9,53.6,39.8,53.1,39.5
						 M43.7,44.1l1.7,1l3.6-5c0.6-0.9,0.8-1.8,0.4-2.1L49.3,38c-0.4-0.3-1.3,0.2-1.9,1.1l-3.1,4.3L43.7,44.1"/>
				</g>
			</g>
			<path class="st14" d="M32.9,60.1c0.3,0.4,0.8,0.7,1.3,0.5c0.4-0.2,0.4-0.8,0.2-1.1c-0.2-0.4-0.5-0.7-0.8-1
				c-0.5-0.7-0.8-1.6-0.7-2.4c0.1-0.4,0.2-0.9,0.2-1.3c0-0.4-0.3-0.9-0.8-0.9c-1.4-0.1-1.1,2.2-1,3C31.5,58.1,32,59.2,32.9,60.1z"/>
		</g>
		<g>
			<g>
				<g>
					<path class="st9" d="M312,160.9c0.1,0.8,0,1.6-0.4,2.4c-0.3,0.5-0.7,1.1-1.1,1.6c-0.4,0.5-0.9,0.9-1.5,1.3
						c-0.4,0.3-0.8,0.5-1.3,0.8c-0.5,0.3-1.1,0.6-1.7,0.9c-0.4,0.2-0.8,0.4-1.3,0.5c-0.5,0.2-1.1,0.4-1.6,0.5
						c-0.4,0.1-0.9,0.2-1.3,0.3c-0.5,0.1-1.1,0.2-1.7,0.3c-0.2,0-0.5,0.1-0.7,0.1c-0.2,0-0.4,0.1-0.7,0.1c-0.6,0.1-1.2,0.1-1.7,0.1
						c-0.5,0-0.9,0-1.4,0c-0.6,0-1.2,0-1.8-0.1c-0.5,0-0.9-0.1-1.4-0.2c-0.7-0.1-1.4-0.2-2-0.4c-0.5-0.1-1-0.3-1.4-0.5
						c-0.6-0.2-1.1-0.5-1.6-0.8c-0.6-0.4-1.1-0.8-1.5-1.2c-0.6-0.6-1-1.4-1.1-2.2c-0.1-0.8,0-1.6,0.4-2.4c0.3-0.5,0.7-1.1,1.1-1.6
						c2.1-2.3,6.2-4.1,11.1-4.8c4.8-0.7,9.3,0,11.9,1.6c0.6,0.4,1.1,0.8,1.5,1.2C311.5,159.4,311.9,160.1,312,160.9z"/>
					
						<rect x="284.4" y="157.8" transform="matrix(0.9906 -0.1365 0.1365 0.9906 -19.0943 42.1944)" class="st9" width="27.4" height="5"/>
				</g>
				<g class="st1">
					<path d="M299.3,164l0.8,5.5c-0.2,0-0.5,0.1-0.7,0.1c-0.2,0-0.4,0.1-0.7,0.1l-0.8-5.5L299.3,164z"/>
					<path d="M302.3,163.4l0.8,5.5c-0.4,0.1-0.9,0.2-1.3,0.3l-0.8-5.6L302.3,163.4z"/>
					<path d="M305.2,162.6l0.7,5.2c-0.4,0.2-0.8,0.4-1.3,0.5l-0.8-5.6L305.2,162.6z"/>
					<path d="M308.2,160.9l0.7,5.3c-0.4,0.3-0.8,0.5-1.3,0.8l-0.8-5.9L308.2,160.9z"/>
					<path d="M310.6,156.1l1,7.2c-0.3,0.5-0.7,1.1-1.1,1.6l-1.2-8.6L310.6,156.1z"/>
					<path d="M296.1,164l0.8,5.9c-0.5,0-0.9,0-1.4,0l-0.8-5.7L296.1,164z"/>
					<path d="M293,163.9l0.8,5.9c-0.5,0-0.9-0.1-1.4-0.2l-0.8-5.6L293,163.9z"/>
					<path d="M289.6,163.2l0.8,6.1c-0.5-0.1-1-0.3-1.4-0.5l-0.8-5.5L289.6,163.2z"/>
					<path d="M286.1,158.7l1.3,9.4c-0.6-0.4-1.1-0.8-1.5-1.2l-1.1-8L286.1,158.7z"/>
				</g>
				
					<ellipse transform="matrix(0.9906 -0.1365 0.1365 0.9906 -18.758 42.1228)" class="st0" cx="297.7" cy="157.8" rx="13.7" ry="7"/>
				
					<ellipse transform="matrix(0.9906 -0.1365 0.1365 0.9906 -18.7581 42.1232)" class="st9" cx="297.7" cy="157.8" rx="9.5" ry="4.8"/>
			</g>
			<g>
				<g>
					<path class="st8" d="M303.8,157.5L303.8,157.5c0.3,1-1.1,2-3,2.5l-0.1,0l0.1,0.5l-2.3,0.5l-0.1-0.5l-0.9,0.2l0.1,0.5l-2.3,0.5
						l-0.1-0.5l-0.5,0.1l-1.1,0.3l-0.3-1l1.1-0.3l-0.4-1.2l-0.3-1l-0.3-1.1l-1.1,0.3l-0.3-1l1.1-0.3l0.5-0.1l-0.2-0.6l2.3-0.5
						l0.2,0.6l0.9-0.2l-0.2-0.6l2.3-0.5l0.2,0.6c1.8-0.4,3.4,0,3.6,0.8l0,0.1c0.1,0.3-0.1,0.7-0.4,1.1
						C303.1,156.8,303.6,157.1,303.8,157.5z M301.6,158.2L301.6,158.2c-0.1-0.4-0.8-0.5-1.5-0.4l-0.3,0.1l-3.5,0.8l0.4,1.2l0.5-0.1
						l3.3-0.8C301.2,158.8,301.7,158.5,301.6,158.2 M295.6,156.6l0.3,1.1l3.5-0.8c0.6-0.1,1.1-0.5,1-0.8l0-0.1
						c-0.1-0.3-0.7-0.4-1.3-0.2l-3,0.7L295.6,156.6"/>
				</g>
				<polygon class="st8" points="292.1,157 292.3,157.4 292.7,157 292.5,156.7 				"/>
				<polygon class="st8" points="293.4,161.4 293.6,161.7 294.1,161 				"/>
				<polygon class="st8" points="295.2,161.5 295.4,161.8 297.7,161.3 297.5,160.9 				"/>
				<polygon class="st8" points="298.4,160.7 298.6,161 300.8,160.5 300.7,160.2 				"/>
				<polygon class="st8" points="295.5,154.5 295.7,154.9 295.4,155.4 				"/>
				<polygon class="st8" points="298.7,153.8 298.9,154.1 298.5,154.6 				"/>
				<g>
					<path class="st0" d="M303.6,157.2L303.6,157.2c0.3,1-1.1,2-3,2.5l-0.1,0l0.1,0.5l-2.3,0.5l-0.1-0.5l-0.9,0.2l0.1,0.5l-2.3,0.5
						l-0.1-0.5l-0.5,0.1l-1.1,0.3l-0.3-1l1.1-0.3l-0.4-1.2l-0.3-1l-0.3-1.1l-1.1,0.3l-0.3-1l1.1-0.3l0.5-0.1l-0.2-0.6l2.3-0.5
						l0.2,0.6l0.9-0.2l-0.2-0.6l2.3-0.5l0.2,0.6c1.8-0.4,3.4,0,3.6,0.8l0,0.1c0.1,0.3-0.1,0.7-0.4,1.1
						C302.9,156.4,303.5,156.8,303.6,157.2z M301.4,157.8L301.4,157.8c-0.1-0.4-0.8-0.5-1.5-0.4l-0.3,0.1l-3.5,0.8l0.4,1.2l0.5-0.1
						l3.3-0.8C301,158.5,301.5,158.1,301.4,157.8 M295.5,156.2l0.3,1.1l3.5-0.8c0.6-0.1,1.1-0.5,1-0.8l0-0.1
						c-0.1-0.3-0.7-0.4-1.3-0.2l-3,0.7L295.5,156.2"/>
				</g>
			</g>
			<path class="st14" d="M284.6,159.1c0,0.3,0.1,0.6,0.4,0.7c0.2,0.1,0.5-0.2,0.5-0.4c0.1-0.2,0-0.5,0-0.7c0-0.5,0.2-1,0.6-1.3
				c0.2-0.2,0.4-0.3,0.6-0.5c0.2-0.2,0.2-0.5,0-0.7c-0.6-0.5-1.3,0.5-1.6,0.9C284.8,157.7,284.6,158.4,284.6,159.1z"/>
		</g>
		<g>
			<g>
				<g>
					<path class="st9" d="M190.8,38.3c0.3,0.3,0.6,0.8,0.7,1.3c0.1,0.4,0.1,0.8,0,1.2c0,0.4-0.1,0.8-0.2,1.2
						c-0.1,0.3-0.2,0.6-0.3,0.8c-0.1,0.3-0.3,0.7-0.5,1c-0.1,0.2-0.3,0.5-0.4,0.7c-0.2,0.3-0.4,0.6-0.6,0.9
						c-0.2,0.2-0.3,0.4-0.5,0.6c-0.2,0.3-0.4,0.5-0.7,0.8c-0.1,0.1-0.2,0.2-0.3,0.3c-0.1,0.1-0.2,0.2-0.3,0.3
						c-0.3,0.2-0.5,0.5-0.8,0.7c-0.2,0.2-0.4,0.3-0.6,0.5c-0.3,0.2-0.6,0.4-0.9,0.6c-0.2,0.2-0.5,0.3-0.7,0.4
						c-0.4,0.2-0.7,0.4-1.1,0.5c-0.3,0.1-0.6,0.2-0.9,0.3c-0.4,0.1-0.7,0.2-1.1,0.2c-0.4,0-0.8,0-1.2,0c-0.5-0.1-1-0.3-1.3-0.6
						c-0.3-0.3-0.6-0.8-0.7-1.3c-0.1-0.4-0.1-0.8,0-1.2c0.2-1.9,1.5-4.3,3.5-6.4c2.1-2.1,4.4-3.4,6.3-3.6c0.4,0,0.8,0,1.2,0
						C190,37.8,190.4,38,190.8,38.3z"/>
					
						<rect x="175.6" y="41.7" transform="matrix(0.7026 -0.7116 0.7116 0.7026 23.9784 143.7038)" class="st9" width="16.5" height="3"/>
				</g>
				<g class="st1">
					<path d="M185.9,44.5l2.4,2.4c-0.1,0.1-0.2,0.2-0.3,0.3c-0.1,0.1-0.2,0.2-0.3,0.3l-2.4-2.4L185.9,44.5z"/>
					<path d="M187.1,43.1l2.4,2.3c-0.2,0.2-0.3,0.4-0.5,0.6l-2.4-2.4L187.1,43.1z"/>
					<path d="M188.2,41.7l2.3,2.2c-0.1,0.2-0.3,0.5-0.4,0.7l-2.4-2.4L188.2,41.7z"/>
					<path d="M189,39.7l2.3,2.3c-0.1,0.3-0.2,0.6-0.3,0.8l-2.6-2.5L189,39.7z"/>
					<path d="M188.3,36.5l3.1,3.1c0.1,0.4,0.1,0.8,0,1.2l-3.7-3.7L188.3,36.5z"/>
					<path d="M184.4,45.7l2.5,2.5c-0.2,0.2-0.4,0.3-0.6,0.5l-2.5-2.4L184.4,45.7z"/>
					<path d="M182.8,46.8l2.6,2.5c-0.2,0.2-0.5,0.3-0.7,0.4l-2.4-2.4L182.8,46.8z"/>
					<path d="M180.9,47.6l2.6,2.6c-0.3,0.1-0.6,0.2-0.9,0.3l-2.4-2.3L180.9,47.6z"/>
					<path d="M177.6,46.8l4.1,4c-0.4,0-0.8,0-1.2,0l-3.5-3.4L177.6,46.8z"/>
				</g>
				<path class="st0" d="M188.6,36.2c1.7,1.6,0.4,5.6-2.8,8.8c-3.2,3.3-7.1,4.6-8.8,2.9c-1.7-1.6-0.4-5.6,2.8-8.8
					C183,35.9,187,34.6,188.6,36.2z"/>
				<path class="st9" d="M186.8,38c1.1,1.1,0.3,3.9-1.9,6.1c-2.2,2.2-4.9,3.2-6.1,2c-1.1-1.1-0.3-3.9,1.9-6.1
					C183,37.8,185.7,36.9,186.8,38z"/>
			</g>
			<g>
				<g>
					<path class="st8" d="M185.6,39.7L185.6,39.7c0.5,0.3,0.2,1.4-0.5,2.3l0,0l0.2,0.2l-0.9,1.1l-0.2-0.2l-0.4,0.4l0.2,0.2l-0.9,1.1
						l-0.2-0.2l-0.2,0.3l-0.4,0.5l-0.5-0.4l0.4-0.5l-0.6-0.4l-0.5-0.4l-0.6-0.4l-0.4,0.5l-0.5-0.4L180,43l0.2-0.3l-0.3-0.2l0.9-1.1
						l0.3,0.2l0.4-0.4l-0.3-0.2l0.9-1.1l0.3,0.2c0.7-0.8,1.6-1.3,2-1l0,0c0.2,0.1,0.2,0.4,0.2,0.7C185,39.6,185.4,39.6,185.6,39.7z
						 M184.8,40.9L184.8,40.9c-0.2-0.1-0.6,0-0.8,0.4l-0.1,0.1l-1.4,1.7l0.6,0.4l0.2-0.2l1.3-1.6C184.8,41.3,184.9,41,184.8,40.9
						 M181.4,42.3l0.6,0.4l1.4-1.7c0.2-0.3,0.3-0.6,0.2-0.7l0,0c-0.1-0.1-0.5,0.1-0.7,0.4l-1.2,1.4L181.4,42.3"/>
				</g>
				<polygon class="st8" points="179.8,43.8 180,43.9 180.1,43.6 179.9,43.5 				"/>
				<polygon class="st8" points="182.1,45.4 182.3,45.5 182.3,44.9 				"/>
				<polygon class="st8" points="183,44.8 183.2,44.9 184.1,43.8 183.8,43.7 				"/>
				<polygon class="st8" points="184.2,43.2 184.4,43.3 185.3,42.2 185.1,42.2 				"/>
				<polygon class="st8" points="180.6,41.4 180.8,41.4 180.9,41.8 				"/>
				<polygon class="st8" points="181.8,39.8 182,39.9 182,40.3 				"/>
				<g>
					<path class="st0" d="M185.4,39.7L185.4,39.7c0.5,0.3,0.2,1.4-0.5,2.3l0,0l0.2,0.2l-0.9,1.1l-0.2-0.2l-0.4,0.4l0.2,0.2l-0.9,1.1
						l-0.2-0.2l-0.2,0.3l-0.4,0.5l-0.5-0.4l0.4-0.5l-0.6-0.4l-0.5-0.4l-0.6-0.4l-0.4,0.5l-0.5-0.4l0.4-0.5l0.2-0.3l-0.3-0.2l0.9-1.1
						l0.3,0.2l0.4-0.4l-0.3-0.2l0.9-1.1l0.3,0.2c0.7-0.8,1.6-1.3,2-1l0,0c0.2,0.1,0.2,0.4,0.2,0.7C184.8,39.5,185.2,39.5,185.4,39.7
						z M184.6,40.8L184.6,40.8c-0.2-0.1-0.6,0-0.8,0.4l-0.1,0.1l-1.4,1.7l0.6,0.4l0.2-0.2l1.3-1.6C184.6,41.2,184.7,40.9,184.6,40.8
						 M181.2,42.2l0.6,0.4l1.4-1.7c0.2-0.3,0.3-0.6,0.2-0.7l0,0c-0.1-0.1-0.5,0.1-0.7,0.4l-1.2,1.4L181.2,42.2"/>
				</g>
			</g>
			<path class="st14" d="M177,47.6c0.1,0.1,0.3,0.3,0.4,0.2c0.1-0.1,0.2-0.3,0.1-0.4c-0.1-0.1-0.2-0.2-0.3-0.4
				c-0.2-0.2-0.2-0.6-0.2-0.9c0-0.2,0.1-0.3,0.1-0.5c0-0.2-0.1-0.3-0.2-0.3c-0.5,0-0.4,0.8-0.4,1C176.6,46.8,176.7,47.2,177,47.6z"
				/>
		</g>
	</g>
	<g>
		<g>
			<polygon class="st0" points="88.9,4 86.2,11.9 94.5,10.5 97.2,2.6 			"/>
			<polygon class="st27" points="86.2,11.9 91.7,18.8 100,17 94.5,10.5 			"/>
			<polygon class="st28" points="97.2,2.6 102.9,9.1 100,17 94.5,10.5 			"/>
		</g>
		<g>
			<polygon class="st0" points="324.9,127.2 320.7,128.7 324,131.8 328.3,130.3 			"/>
			<polygon class="st27" points="320.7,128.7 319.6,133.4 323.1,136.3 324,131.8 			"/>
			<polygon class="st28" points="328.3,130.3 327.5,134.9 323.1,136.3 324,131.8 			"/>
		</g>
	</g>
</g>
</svg>
