<?xml version="1.0" encoding="utf-8"?>
<!-- Generator: Adobe Illustrator 26.3.1, SVG Export Plug-In . SVG Version: 6.00 Build 0)  -->
<svg version="1.1" id="Layer_1" xmlns="http://www.w3.org/2000/svg" xmlns:xlink="http://www.w3.org/1999/xlink" x="0px" y="0px"
	 viewBox="0 0 561.7 277.3" style="enable-background:new 0 0 561.7 277.3;" xml:space="preserve">
<style type="text/css">
	.st0{fill:#F47322;}
	.st1{fill:#DE2C38;}
	.st2{fill:#F78F1E;}
	.st3{fill:#4BC2C0;}
	.st4{fill:#B93F7A;}
	.st5{fill:#422C6C;}
	.st6{fill:#0F5BA7;}
	.st7{fill:#26C4CF;}
	.st8{fill:#D1DEF0;}
	.st9{fill:#FFFFFF;}
	.st10{fill:#354680;}
	.st11{fill:none;stroke:#354680;stroke-width:4;stroke-linecap:round;stroke-linejoin:round;stroke-miterlimit:10;}
	.st12{fill:#EAF0F7;}
	.st13{font-family:'OpenSans-SemiBold';}
	.st14{font-size:25.2596px;}
	.st15{font-size:40.8759px;}
	.st16{fill:#FBAE8F;}
	.st17{fill:#F7AB95;}
	.st18{fill:#D8957E;}
	.st19{fill:#4C2315;}
	.st20{fill:#21120C;}
	.st21{fill:#6069A8;}
	.st22{fill:#202338;}
	.st23{fill:#464240;}
	.st24{fill:#EB4747;}
	.st25{fill:#325BB3;}
	.st26{fill:#EEA886;}
	.st27{fill:#A77860;}
	.st28{fill:#5E5853;}
	.st29{fill:#91887F;}
	.st30{fill:#EDDAD3;}
	.st31{fill:#6E6760;}
	.st32{fill:#807066;}
	.st33{fill:#414773;}
	.st34{fill:#2D314F;}
	.st35{fill:#2B3B57;}
	.st36{fill:#353A3D;}
	.st37{fill:#D4D8E8;}
	.st38{fill:#E55353;}
</style>
<g>
	<rect x="364.3" y="379.4" class="st0" width="59.2" height="50"/>
	<rect x="437.8" y="379.4" class="st1" width="59.2" height="50"/>
	<rect x="511.3" y="379.4" class="st2" width="59.2" height="50"/>
	<rect x="583.8" y="379.4" class="st3" width="59.2" height="50"/>
	<rect x="659.4" y="379.4" class="st4" width="59.2" height="50"/>
	<rect x="364.3" y="434.8" class="st5" width="59.2" height="50"/>
	<rect x="437.8" y="437.2" class="st6" width="59.2" height="50"/>
	<rect x="511.3" y="437.2" class="st7" width="59.2" height="50"/>
</g>
<g>
	<polygon class="st8" points="0,277.3 0,134.7 8.7,134.7 8.7,113.6 26.5,113.6 26.5,127.1 28.9,127.1 28.9,108.7 43.3,108.7 
		43.3,140.3 51,140.3 51,206.7 73.1,206.7 73.1,132.8 97.9,132.8 102.9,127.4 102.9,132.8 111.1,132.8 111.1,170.2 120.2,170.2 
		120.2,95.8 122.5,93.3 122.5,80.6 135.6,80.6 135.6,92.4 138.4,95.4 138.4,149.4 153.4,149.4 153.4,95.8 158.2,95.8 158.2,78 
		171.2,78 171.2,95.8 171.2,171.6 476.9,171.6 482.8,171.6 482.8,119.8 517.9,119.8 517.9,205.6 541,205.6 541,57 561.7,57 
		561.7,277.3 	"/>
	<path class="st9" d="M473,225.9H168.9c-2.7,0-4.9-2.2-4.9-4.9V5.1c0-2.7,2.2-4.9,4.9-4.9H473c2.7,0,4.9,2.2,4.9,4.9v215.8
		C477.9,223.7,475.7,225.9,473,225.9z"/>
	<g>
		<path class="st1" d="M254.6,67.5L254.6,67.5l-0.2,0.2l-11.5,11.9l11.5,12l0.2,0.2v0c14.6,0,28,7.1,39.9,21.2
			c5.8,6.9,9.9,13.9,12.3,18.4c0,0,0,0,0,0h0.3l0,0l0,0l1.9-4.7c0.2-0.5,3.7-9.1,10.8-19.5c-2.1-3.1-4.5-6.3-7.2-9.6
			C296.2,77.9,276.2,67.5,254.6,67.5z"/>
		<path class="st6" d="M385,195.2L373.3,183l11.7-12.2l0,0c-14.6,0-28-7.1-39.9-21.2c-5.8-6.9-9.9-13.9-12.3-18.4c0,0,0,0,0,0h-0.3
			l-1.4,3.3l-0.6,1.4c0,0,0,0,0,0c0,0,0,0,0,0.1c0,0,0,0,0,0c0,0.1-0.1,0.1-0.1,0.2c0,0,0,0,0,0c0,0.1-0.1,0.2-0.1,0.3c0,0,0,0,0,0
			c-0.1,0.1-0.1,0.3-0.2,0.4c0,0,0,0,0,0c-0.1,0.2-0.1,0.3-0.2,0.5c0,0,0,0,0,0c-0.1,0.2-0.2,0.4-0.3,0.6c0,0,0,0,0,0
			c-0.2,0.4-0.4,0.9-0.7,1.5c0,0,0,0,0,0c-0.3,0.6-0.6,1.2-0.9,1.8c0,0,0,0,0,0c-0.3,0.7-0.7,1.4-1.1,2.1c0,0,0,0,0,0
			c-0.4,0.7-0.8,1.5-1.3,2.4c0,0,0,0,0,0c-0.2,0.4-0.5,0.8-0.7,1.2c0,0,0,0,0,0.1c-0.5,0.9-1.1,1.8-1.7,2.8c0,0-0.1,0.1-0.1,0.1
			c-0.3,0.5-0.6,1-0.9,1.5c0,0.1-0.1,0.1-0.1,0.2c-0.3,0.5-0.6,1-1,1.5c0,0.1-0.1,0.1-0.1,0.2c-0.3,0.5-0.7,1.1-1.1,1.6
			c2.1,3.1,4.5,6.3,7.2,9.6C343.4,184.8,363.5,195.2,385,195.2L385,195.2z"/>
		<path class="st6" d="M266.4,183l-11.7-12.2v0l0,0c-20.8,0-37.7-17.6-37.8-39.3l-11.5,12.1l-11.8-12.1h0c0-0.1,0-0.1,0-0.2h-0.2
			c0,35.2,27.5,63.8,61.3,63.8l0,0v0L266.4,183z"/>
		<path class="st7" d="M254.4,67.8l0-0.5c-33.7,0.2-61,28.9-60.9,64c0,0.1,0,0.1,0,0.2h0l11.8,12.1l11.5-12.1l0.2-0.2l-0.2,0
			l-11.5,0.1l11.5-0.1l0.2,0c-0.1-21.8,16.7-39.6,37.5-39.8l-11.5-12L254.4,67.8z"/>
		<path class="st1" d="M446.3,131.3c0-35.2-27.5-63.8-61.3-63.8v0l11.7,12.1L385,91.8v0c20.9,0,37.8,17.7,37.8,39.5h0l0,0l11.7,12.2
			L446.3,131.3L446.3,131.3L446.3,131.3z"/>
		<path class="st2" d="M385,67.5L385,67.5c-21.5,0-41.6,10.4-58,30c-2.7,3.2-5.1,6.5-7.2,9.6c-7.1,10.4-10.6,19-10.8,19.5l-1.9,4.7
			l14.6-0.3l0,0.3l2.3,17.6l0,0c0.3-0.4,0.5-0.9,0.8-1.3c0,0,0,0,0-0.1c0.2-0.4,0.5-0.8,0.7-1.2c0,0,0,0,0,0
			c0.5-0.8,0.9-1.6,1.3-2.4c0,0,0,0,0,0c0.4-0.7,0.8-1.4,1.1-2.1c0,0,0,0,0,0c0.3-0.7,0.6-1.3,0.9-1.8c0,0,0,0,0,0
			c0.3-0.6,0.5-1.1,0.7-1.5c0,0,0,0,0,0c0.1-0.2,0.2-0.4,0.3-0.6c0,0,0,0,0,0c0.1-0.2,0.2-0.4,0.2-0.5c0,0,0,0,0,0
			c0.1-0.2,0.1-0.3,0.2-0.4c0,0,0,0,0,0c0-0.1,0.1-0.2,0.1-0.3c0,0,0,0,0,0c0-0.1,0.1-0.2,0.1-0.2c0,0,0,0,0,0c0,0,0-0.1,0-0.1
			c0,0,0,0,0,0l0.6-1.4l1.4-3.3l0,0h0.3c2.3-4.5,6.4-11.5,12.3-18.4c11.9-14,25.3-21.2,39.9-21.2v0l11.7-12.2L385,67.5z"/>
		<path class="st2" d="M434.6,143.5l-11.7-12.2c0,21.8-17,39.5-37.8,39.5v0l0,0L373.3,183l11.7,12.2l0,0v0
			c33.8,0,61.3-28.6,61.3-63.8L434.6,143.5z"/>
		<path class="st7" d="M254.6,195.2l11.7-12.2l-11.7-12.2l0,0c14.6,0,28-7.1,39.9-21.2c5.8-6.9,9.9-13.9,12.3-18.4h0.3l0,0l0,0
			l14.6-0.3l0,0.3l2.3,17.6l0,0c-0.3,0.5-0.6,1-0.9,1.5c0,0-0.1,0.1-0.1,0.1c-0.3,0.5-0.6,1-0.9,1.5c0,0.1-0.1,0.1-0.1,0.2
			c-0.3,0.5-0.6,1-1,1.5c0,0.1-0.1,0.1-0.1,0.2c-0.3,0.5-0.7,1.1-1.1,1.6c-2.1,3.1-4.5,6.3-7.2,9.6
			C296.2,184.8,276.2,195.2,254.6,195.2"/>
		<g>
			<g>
				<path class="st9" d="M211.4,162.4c-1.2,0.5-2.2-0.1-3-1.8l-1.5-3.3l6.7-3l1.4,3.2c0.7,1.6,0.4,2.8-0.7,3.2
					c-0.7,0.3-1.3,0.2-1.9-0.2C212.6,161.3,212.2,162,211.4,162.4z M210.9,160.8c0.6-0.3,0.6-0.8,0.3-1.6l-0.8-1.7l-1.7,0.7l0.8,1.7
					C209.9,160.8,210.3,161.1,210.9,160.8z M213.1,156.3l-1.6,0.7l0.7,1.5c0.3,0.7,0.8,1,1.3,0.8c0.5-0.2,0.6-0.7,0.3-1.5
					L213.1,156.3z"/>
				<path class="st9" d="M218.4,166.1l-4.6,3.3l-0.9-1.2l0.5-0.4c-0.6-0.1-1.2-0.4-1.6-0.9c-0.8-1.1-0.7-2.4,0.7-3.4l2.6-1.9
					l0.9,1.3l-2.4,1.7c-0.8,0.5-0.9,1.1-0.5,1.7c0.4,0.6,1.1,0.7,2,0.1l2.3-1.6L218.4,166.1z"/>
				<path class="st9" d="M219.4,167.1l1.1,1.1l-4.1,3.9l-1.1-1.1L219.4,167.1z M220.5,165.8c0.4-0.4,0.9-0.3,1.3,0.1s0.4,1,0,1.3
					c-0.4,0.4-1,0.4-1.4-0.1S220.1,166.1,220.5,165.8z"/>
				<path class="st9" d="M222.9,167.6l1.2,1l-5.2,5.8l-1.2-1L222.9,167.6z"/>
				<path class="st9" d="M229.4,172.4l-4.3,6.5l-1.3-0.8l0.4-0.5c-0.6,0.2-1.2,0.1-1.8-0.3c-1.3-0.8-1.7-2.4-0.7-3.9
					s2.6-1.8,3.9-0.9c0.6,0.4,0.9,0.9,1,1.5l1.5-2.3L229.4,172.4z M225.4,175.7c0.5-0.8,0.3-1.6-0.3-2.1c-0.7-0.4-1.5-0.3-2,0.5
					c-0.5,0.8-0.3,1.6,0.3,2.1C224,176.6,224.9,176.5,225.4,175.7z"/>
			</g>
		</g>
		<g>
			<g>
				<path class="st9" d="M284.4,172.6l-1.9,1.3l-0.8-1.2l5.1-3.4l0.8,1.2l-1.9,1.3l3.3,5l-1.4,0.9L284.4,172.6z"/>
				<path class="st9" d="M294.1,170l-3.3,2.5c0.5,0.5,1.3,0.5,1.9-0.1c0.5-0.4,0.7-0.7,0.7-1.3l1.2,0.2c0,0.8-0.4,1.5-1.2,2.1
					c-1.5,1.2-3.2,0.9-4.2-0.4c-1-1.3-0.8-3.1,0.5-4.1c1.3-1,2.9-0.9,4,0.6C293.9,169.7,294,169.9,294.1,170z M290.2,171.8l2.1-1.6
					c-0.5-0.5-1.2-0.5-1.8-0.1C290,170.5,289.9,171.1,290.2,171.8z"/>
				<path class="st9" d="M295.9,170.9l-0.4-1.2c0.6-0.1,1.3-0.4,1.8-0.9c0.5-0.5,0.6-0.8,0.4-1c-0.6-0.7-2.4,2.2-3.9,0.5
					c-0.7-0.8-0.5-2,0.7-3c0.6-0.5,1.3-0.9,1.9-1l0.4,1.2c-0.6,0.1-1.1,0.4-1.4,0.7c-0.5,0.5-0.6,0.8-0.4,1.1c0.6,0.7,2.5-2.2,4-0.5
					c0.7,0.8,0.5,2-0.7,3C297.3,170.4,296.5,170.8,295.9,170.9z"/>
				<path class="st9" d="M303,164.5c-0.1,0.4-0.3,0.8-0.7,1.2c-0.9,0.9-1.9,0.9-2.9,0l-1.6-1.6l-0.6,0.6l-0.9-0.9l0.6-0.6l-1-1
					l1.1-1.1l1,1l1-1l0.9,0.9l-1,1l1.6,1.6c0.3,0.3,0.7,0.4,1,0.1c0.2-0.2,0.3-0.4,0.3-0.6L303,164.5z"/>
			</g>
		</g>
		<g>
			<g>
				<path class="st9" d="M285.7,89c-0.8,1.4-2.4,1.7-4,0.7l-1.2-0.7l-1,1.7l-1.4-0.8l3.7-6.3l2.6,1.6
					C286.1,86.1,286.6,87.6,285.7,89z M284.3,88.2c0.4-0.7,0.2-1.4-0.6-1.9l-1.1-0.7l-1.3,2.2l1.1,0.7
					C283.2,89,283.9,88.9,284.3,88.2z"/>
				<path class="st9" d="M288.7,87.4l1.3,0.9l-4.6,6.3l-1.3-0.9L288.7,87.4z"/>
				<path class="st9" d="M292.2,96.1l-2.1,2.5l-1.1-1l0.5-0.5c-0.6,0.2-1.2,0-1.8-0.5c-1-0.8-1.1-1.9-0.5-2.6
					c0.6-0.8,1.6-0.9,2.9,0.2l1,0.8c0.5-0.5,0.4-1.1-0.2-1.7c-0.4-0.4-1-0.6-1.5-0.6l0.3-1.2c0.7,0,1.6,0.4,2.2,1
					C293.1,93.5,293.3,94.8,292.2,96.1z M290.1,96.1l0.4-0.4l-0.8-0.7c-0.6-0.5-0.9-0.4-1.2-0.1c-0.3,0.3-0.2,0.7,0.2,1.1
					C289.1,96.3,289.6,96.4,290.1,96.1z"/>
				<path class="st9" d="M297.3,101.1l-2.3,2.3l-1.1-1.1l2.1-2.1c0.6-0.6,0.7-1.2,0.2-1.7c-0.5-0.5-1.3-0.6-2,0.1l-2,2l-1.1-1.1l4-4
					l1.1,1.1l-0.5,0.5c0.6,0,1.3,0.2,1.8,0.8C298.4,98.6,298.5,99.9,297.3,101.1z"/>
			</g>
		</g>
		<g>
			<path class="st9" d="M209.5,116.3c-2.1-0.7-3.1-2.7-2.4-4.8c0.4-1.2,1.1-2,2.1-2.4l0.6,1.3c-0.7,0.3-1.2,0.8-1.4,1.4
				c-0.4,1.3,0.2,2.5,1.5,2.9c1.3,0.4,2.5-0.2,2.9-1.4c0.2-0.7,0.1-1.3-0.3-2l1.3-0.7c0.6,0.9,0.7,2,0.3,3.2
				C213.6,116,211.6,117,209.5,116.3z"/>
			<path class="st9" d="M212.7,109.7c-1.5-0.8-2-2.5-1.2-4s2.4-2.1,4-1.3c1.5,0.8,2,2.4,1.2,4C215.8,109.9,214.2,110.5,212.7,109.7z
				 M214.7,105.8c-0.9-0.4-1.7-0.2-2,0.5s-0.1,1.5,0.7,2c0.9,0.4,1.7,0.2,2-0.5C215.8,107,215.6,106.2,214.7,105.8z"/>
			<path class="st9" d="M215.4,95.9l6.2,4.7l-0.9,1.2l-0.5-0.4c0.2,0.6,0,1.2-0.4,1.8c-0.9,1.2-2.5,1.5-4,0.4
				c-1.4-1.1-1.6-2.7-0.7-3.9c0.4-0.5,0.9-0.9,1.5-0.9l-2.2-1.6L215.4,95.9z M218.5,100.1c-0.8-0.6-1.6-0.5-2.1,0.2
				c-0.5,0.6-0.4,1.5,0.4,2.1c0.8,0.6,1.6,0.5,2.1-0.2C219.4,101.5,219.3,100.7,218.5,100.1z"/>
			<path class="st9" d="M224.7,94.3l-3,2.9c0.6,0.4,1.3,0.3,1.9-0.3c0.4-0.4,0.6-0.8,0.6-1.3l1.3,0.1c0,0.8-0.3,1.5-1,2.2
				c-1.4,1.3-3.1,1.3-4.3,0.1c-1.2-1.2-1.1-3,0.1-4.1c1.2-1.1,2.8-1.2,4.1,0.1C224.5,94.1,224.6,94.2,224.7,94.3z M221,96.5l1.9-1.9
				c-0.6-0.4-1.3-0.4-1.8,0.1C220.7,95.2,220.6,95.9,221,96.5z"/>
		</g>
		<g>
			<g>
				<path class="st9" d="M408.8,85l2.8,1.7c2,1.2,2.6,3.3,1.4,5.2c-1.1,1.9-3.3,2.3-5.2,1.1l-2.8-1.7L408.8,85z M408.4,91.7
					c1.2,0.7,2.4,0.5,3.2-0.7c0.7-1.2,0.4-2.4-0.8-3.2l-1.3-0.8l-2.4,3.9L408.4,91.7z"/>
				<path class="st9" d="M417.2,97.3l-3.1-2.7c-0.4,0.6-0.2,1.3,0.4,1.9c0.4,0.4,0.9,0.5,1.4,0.5l0,1.3c-0.8,0.1-1.6-0.2-2.3-0.8
					c-1.4-1.3-1.5-3-0.4-4.2c1.1-1.3,2.9-1.3,4.1-0.2c1.2,1.1,1.4,2.7,0.2,4.1C417.4,97.1,417.3,97.2,417.2,97.3z M414.7,93.9l2,1.8
					c0.4-0.6,0.3-1.3-0.2-1.8C416,93.4,415.3,93.4,414.7,93.9z"/>
				<path class="st9" d="M422.1,102.5c-1.4,1.1-3,0.9-4-0.3c-0.4-0.5-0.6-1.1-0.5-1.7l-2,1.7l-1-1.2l6-4.8l0.9,1.2l-0.5,0.4
					c0.6,0,1.2,0.3,1.6,0.9C423.6,99.8,423.5,101.4,422.1,102.5z M421.1,101.3c0.8-0.6,0.8-1.4,0.3-2.1c-0.5-0.6-1.3-0.7-2.1-0.1
					c-0.8,0.6-0.8,1.4-0.3,2.1C419.5,101.8,420.3,101.9,421.1,101.3z"/>
				<path class="st9" d="M426.8,100.9l0.8,1.3l-6.6,4.1l-0.8-1.3L426.8,100.9z"/>
				<path class="st9" d="M424.1,105.8c1.5-0.7,3.2-0.1,3.9,1.5c0.7,1.6,0.2,3.2-1.3,3.9s-3.2,0.1-3.9-1.4
					C422.1,108.2,422.6,106.6,424.1,105.8z M426,109.8c0.9-0.4,1.2-1.2,0.8-1.9c-0.3-0.7-1.1-1-2-0.6c-0.9,0.4-1.2,1.2-0.8,1.9
					C424.4,109.9,425.1,110.2,426,109.8z"/>
				<path class="st9" d="M431.3,116.6l-6.4-0.6c-1.5-0.1-2.1-0.7-2.4-1.6c-0.2-0.5-0.2-1.2,0.1-1.6l1.3,0.2c-0.1,0.3-0.2,0.7-0.1,1
					c0.1,0.4,0.4,0.6,0.9,0.6l0.1,0l4.8-3.9l0.5,1.6l-3.2,2.6l4.1,0.4L431.3,116.6z"/>
			</g>
		</g>
		<g>
			<g>
				<path class="st9" d="M342,109.6l-2.5-0.1l0,0.1l-0.9,1.1l1.6,1.2l-1,1.3l-5.8-4.4l1.9-2.4c1.1-1.5,2.7-1.8,4-0.8
					c0.9,0.7,1.2,1.6,1,2.6l2.8,0.2L342,109.6z M336.4,107.2l-0.8,1.1l2,1.5l0.8-1.1c0.6-0.8,0.5-1.5-0.1-2
					C337.7,106.3,337,106.4,336.4,107.2z"/>
				<path class="st9" d="M345.5,102l-2.7,3.1c0.6,0.4,1.3,0.2,1.9-0.4c0.4-0.4,0.5-0.9,0.5-1.4l1.3,0c0.1,0.8-0.2,1.6-0.8,2.3
					c-1.2,1.4-3,1.5-4.2,0.4c-1.3-1.1-1.3-2.9-0.2-4.1c1.1-1.2,2.7-1.4,4.1-0.2C345.3,101.7,345.4,101.9,345.5,102z M342,104.4
					l1.8-2c-0.6-0.4-1.3-0.3-1.8,0.2C341.6,103.2,341.6,103.9,342,104.4z"/>
				<path class="st9" d="M342.4,97.4l1.1-1.1l5.5,5.5l-1.1,1.1L342.4,97.4z"/>
				<path class="st9" d="M352.4,95.5l-3.1,2.7c0.6,0.4,1.3,0.4,1.9-0.2c0.4-0.4,0.6-0.8,0.7-1.3l1.3,0.1c0,0.8-0.3,1.5-1.1,2.2
					c-1.4,1.2-3.1,1.1-4.3-0.1c-1.1-1.3-1-3,0.2-4.1c1.2-1.1,2.9-1,4.1,0.3C352.2,95.2,352.3,95.4,352.4,95.5z M348.7,97.5l2-1.8
					c-0.6-0.5-1.2-0.5-1.8,0C348.4,96.2,348.3,96.9,348.7,97.5z"/>
				<path class="st9" d="M356.6,91.3l1.9,2.6l-1.2,0.9l-0.4-0.6c0.1,0.6-0.2,1.1-0.9,1.6c-1,0.8-2.1,0.6-2.7-0.2
					c-0.6-0.8-0.4-1.8,0.9-2.7l1-0.7c-0.4-0.6-1-0.7-1.7-0.2c-0.5,0.3-0.8,0.9-1,1.3l-1.1-0.6c0.2-0.7,0.8-1.4,1.5-1.9
					C354.3,89.9,355.6,89.9,356.6,91.3z M356.2,93.4l-0.3-0.5l-0.9,0.6c-0.6,0.4-0.6,0.8-0.4,1.1c0.2,0.3,0.7,0.4,1.1,0
					C356.1,94.4,356.3,93.9,356.2,93.4z"/>
				<path class="st9" d="M358.8,93.1l-0.1-1.3c0.6,0,1.3-0.1,1.9-0.5c0.6-0.4,0.8-0.7,0.6-0.9c-0.5-0.8-2.8,1.7-4-0.3
					c-0.5-0.9-0.1-2,1.3-2.8c0.6-0.4,1.5-0.6,2.1-0.6l0.1,1.3c-0.6,0-1.1,0.2-1.6,0.4c-0.6,0.4-0.8,0.7-0.6,1c0.5,0.8,2.9-1.6,4,0.3
					c0.5,0.9,0.1,2-1.3,2.8C360.4,92.9,359.4,93.1,358.8,93.1z"/>
				<path class="st9" d="M368,86.4l-3.8,1.7c0.4,0.6,1.1,0.7,1.9,0.4c0.5-0.2,0.8-0.6,1-1l1.1,0.5c-0.2,0.8-0.8,1.3-1.7,1.7
					c-1.7,0.8-3.3,0.1-4-1.4c-0.7-1.5,0-3.2,1.5-3.8c1.5-0.6,3-0.1,3.8,1.5C367.9,86.1,367.9,86.3,368,86.4z M363.8,87.2l2.5-1.1
					c-0.4-0.6-1-0.8-1.7-0.5C363.9,85.9,363.6,86.5,363.8,87.2z"/>
			</g>
		</g>
		<g>
			<g>
				<path class="st9" d="M399.7,183.2c-0.9-2-0.1-4.1,2-5.1c2-0.9,4.2-0.1,5.1,1.9c0.9,2,0.1,4.1-2,5.1
					C402.7,186,400.6,185.2,399.7,183.2z M405.2,180.7c-0.6-1.3-1.8-1.7-3-1.2c-1.2,0.5-1.6,1.8-1,3.1s1.8,1.7,3,1.2
					C405.3,183.2,405.8,182,405.2,180.7z"/>
				<path class="st9" d="M413.3,176.9c1,1.5,0.6,3.1-0.7,3.9c-0.6,0.4-1.2,0.5-1.8,0.3l1.4,2.2l-1.3,0.8l-4.1-6.5l1.3-0.8l0.3,0.5
					c0.1-0.6,0.4-1.1,1-1.5C410.7,175.1,412.3,175.4,413.3,176.9z M411.9,177.7c-0.5-0.8-1.3-1-2-0.6c-0.7,0.4-0.9,1.2-0.3,2.1
					c0.5,0.8,1.3,1,2,0.6C412.3,179.4,412.4,178.6,411.9,177.7z"/>
				<path class="st9" d="M418.6,173.1l-3.2,2.6c0.6,0.4,1.3,0.4,1.9-0.1c0.4-0.4,0.7-0.8,0.7-1.3l1.2,0.2c0,0.8-0.4,1.5-1.2,2.1
					c-1.5,1.2-3.2,1-4.2-0.3c-1.1-1.3-0.9-3,0.4-4.1c1.2-1,2.9-0.9,4,0.5C418.5,172.9,418.6,173,418.6,173.1z M414.8,175l2.1-1.7
					c-0.5-0.5-1.2-0.5-1.8-0.1C414.6,173.7,414.5,174.4,414.8,175z"/>
				<path class="st9" d="M419.6,167.4l1.1,1.1c-0.1,0.1-0.2,0.1-0.3,0.2c-0.6,0.6-0.7,1.4,0.1,2.1l1.9,1.9l-1.1,1.1l-4-4l1.1-1.1
					l0.5,0.5C418.8,168.7,419,168,419.6,167.4z"/>
				<path class="st9" d="M425.2,164.8l2.5,2.1l-1,1.1l-0.5-0.5c0.2,0.6,0,1.2-0.5,1.8c-0.8,1-1.9,1.1-2.6,0.4
					c-0.8-0.6-0.8-1.6,0.2-2.9l0.8-1c-0.5-0.5-1.1-0.4-1.7,0.2c-0.4,0.4-0.6,1-0.6,1.5l-1.2-0.3c0.1-0.7,0.4-1.6,1-2.2
					C422.7,163.9,423.9,163.7,425.2,164.8z M425.3,167l-0.4-0.4l-0.7,0.8c-0.5,0.6-0.4,0.9-0.1,1.2c0.3,0.3,0.7,0.2,1.1-0.2
					C425.5,167.9,425.6,167.4,425.3,167z"/>
				<path class="st9" d="M430.6,162.4c0,0.4-0.2,0.9-0.5,1.3c-0.7,1-1.7,1.3-2.8,0.5l-1.9-1.3l-0.5,0.7l-1-0.7l0.5-0.7l-1.1-0.8
					l0.9-1.3l1.1,0.8l0.8-1.1l1,0.7l-0.8,1.1l1.9,1.3c0.4,0.3,0.8,0.2,1-0.1c0.1-0.2,0.2-0.4,0.2-0.6L430.6,162.4z"/>
				<path class="st9" d="M432.1,155.9l-2.1,3.6c0.7,0.2,1.3-0.1,1.8-0.8c0.3-0.5,0.3-0.9,0.2-1.5l1.2-0.2c0.3,0.7,0.2,1.6-0.3,2.4
					c-0.9,1.6-2.6,2.1-4.1,1.2c-1.5-0.9-1.9-2.5-1-4c0.8-1.4,2.4-1.9,4-1C431.8,155.7,431.9,155.8,432.1,155.9z M429.1,159l1.4-2.3
					c-0.7-0.3-1.3-0.1-1.7,0.6C428.4,157.8,428.6,158.5,429.1,159z"/>
			</g>
		</g>
		<g>
			<g>
				<path class="st9" d="M334.6,162.4l2.9-2.5l-3.5,0.7l-0.4-0.5l1.1-3.3l-2.8,2.4l-0.9-1l4.8-4.1l0.8,0.9l-1.5,4.3l4.4-0.8l0.8,0.9
					l-4.8,4.1L334.6,162.4z"/>
				<path class="st9" d="M338.1,162.6c1-1,2.5-1,3.6,0.1c1.1,1.1,1.1,2.6,0.1,3.6c-1,1-2.5,1-3.6-0.1
					C337.1,165.1,337.1,163.6,338.1,162.6z M340.8,165.3c0.6-0.6,0.6-1.3,0.1-1.8c-0.5-0.5-1.2-0.5-1.8,0.1
					c-0.6,0.6-0.6,1.3-0.1,1.8C339.5,165.9,340.2,165.9,340.8,165.3z"/>
				<path class="st9" d="M346.4,169.8l-1.8,2.1l-1-0.9l1.7-1.9c0.5-0.6,0.5-1.1,0-1.5c-0.5-0.4-1.1-0.4-1.7,0.2l-1.6,1.8l-1-0.9
					l3.2-3.7l1,0.9l-0.4,0.4c0.5-0.1,1.1,0.1,1.6,0.5C347.1,167.7,347.3,168.7,346.4,169.8z"/>
				<path class="st9" d="M348.7,169l1.1,0.8l-3,3.8l-1.1-0.8L348.7,169z M349.4,167.7c0.3-0.3,0.7-0.4,1.1-0.1
					c0.4,0.3,0.5,0.8,0.2,1.1c-0.3,0.4-0.8,0.4-1.2,0.1S349.2,168.1,349.4,167.7z"/>
				<path class="st9" d="M350.6,176.1c-0.3,0-0.7-0.1-1.1-0.4c-0.9-0.6-1.1-1.5-0.4-2.4l1.1-1.6l-0.6-0.4l0.6-0.9l0.6,0.4l0.7-1
					l1.1,0.8l-0.7,1l1,0.7l-0.6,0.9l-1-0.7l-1.1,1.6c-0.2,0.3-0.2,0.7,0.1,0.9c0.2,0.1,0.4,0.2,0.6,0.2L350.6,176.1z"/>
				<path class="st9" d="M352.1,174.5c0.8-1.2,2.2-1.6,3.5-0.8c1.3,0.8,1.7,2.2,0.9,3.5c-0.8,1.2-2.2,1.6-3.5,0.8
					C351.8,177.2,351.4,175.8,352.1,174.5z M355.3,176.5c0.4-0.7,0.3-1.4-0.3-1.8c-0.6-0.4-1.3-0.2-1.7,0.5
					c-0.4,0.7-0.3,1.4,0.3,1.8C354.2,177.4,354.9,177.2,355.3,176.5z"/>
				<path class="st9" d="M361.2,176.8l-0.6,1.2c-0.1-0.1-0.2-0.1-0.3-0.2c-0.7-0.3-1.3-0.2-1.7,0.6l-1.1,2l-1.2-0.6l2.2-4.3l1.2,0.6
					l-0.3,0.6C359.9,176.4,360.5,176.5,361.2,176.8z"/>
			</g>
		</g>
		<g>
			<g>
				<path class="st10" d="M230.2,119.7h8.6c6.2,0,10.5,3.9,10.5,9.9s-4.3,9.9-10.5,9.9h-8.6V119.7z M238.6,135.7
					c3.8,0,6.2-2.3,6.2-6.1s-2.5-6.1-6.2-6.1h-4v12.2H238.6z"/>
				<path class="st10" d="M266.5,133.1h-11.1c0.4,1.9,2,3,4.2,3c1.5,0,2.7-0.5,3.7-1.5l2.3,2.5c-1.4,1.6-3.4,2.4-6,2.4
					c-5.1,0-8.3-3.3-8.3-7.8c0-4.5,3.3-7.8,7.8-7.8c4.3,0,7.6,3,7.6,7.9C266.6,132.2,266.5,132.7,266.5,133.1z M255.4,130.5h7.2
					c-0.3-1.9-1.7-3.2-3.6-3.2C257.1,127.4,255.7,128.6,255.4,130.5z"/>
				<path class="st10" d="M283.7,124.3l-6.2,15.1h-4.4l-6.1-15.1h4.4l4,10.3l4.2-10.3H283.7z"/>
			</g>
		</g>
		<g>
			<g>
				<path class="st10" d="M356.7,129.5c0-6,4.5-10.4,10.6-10.4c6.1,0,10.6,4.4,10.6,10.4c0,6-4.5,10.4-10.6,10.4
					C361.1,139.9,356.7,135.5,356.7,129.5z M373.3,129.5c0-3.8-2.6-6.4-6-6.4s-6,2.6-6,6.4s2.6,6.4,6,6.4S373.3,133.3,373.3,129.5z"
					/>
				<path class="st10" d="M397.1,131.8c0,4.8-3.2,7.9-7.4,7.9c-1.9,0-3.4-0.6-4.5-1.9v7.2h-4.3v-21h4.1v1.8c1.1-1.3,2.7-2,4.7-2
					C393.8,123.9,397.1,127,397.1,131.8z M392.7,131.8c0-2.7-1.6-4.3-3.8-4.3s-3.8,1.6-3.8,4.3s1.6,4.3,3.8,4.3
					S392.7,134.5,392.7,131.8z"/>
				<path class="st10" d="M398.5,138.1l1.4-3.2c1.3,0.9,3.3,1.5,5.2,1.5c2,0,2.7-0.5,2.7-1.4c0-2.5-9,0.1-9-6.1c0-2.9,2.5-5,6.9-5
					c2,0,4.3,0.5,5.7,1.3l-1.4,3.2c-1.5-0.9-2.9-1.1-4.3-1.1c-1.9,0-2.8,0.6-2.8,1.4c0,2.6,9,0.1,9,6.2c0,2.9-2.6,4.9-7,4.9
					C402.4,139.8,399.9,139.1,398.5,138.1z"/>
			</g>
		</g>
	</g>
	<path class="st11" d="M278,57.1c-6.2-1.6-12.7-2.4-19.4-2.4c-24.5,0-46.3,11.4-60.5,29.1"/>
	<path class="st11" d="M359.7,58.7C344.3,64,331,74.1,321.7,87.2c-9.3-13.1-22.5-23.1-38-28.4"/>
	<path class="st11" d="M446,84.8c-14.1-18.3-36.3-30.2-61.3-30.2c-6.8,0-13.4,0.9-19.7,2.5"/>
	<path class="st11" d="M448.8,175.4c8.4-12.4,13.3-27.3,13.3-43.4c0-16-4.8-30.8-13.1-43.1"/>
	<path class="st11" d="M363.7,206.5c6.7,1.9,13.7,2.9,21,2.9c23.7,0,45-10.7,59.1-27.5"/>
	<path class="st11" d="M283.6,205.2c15.5-5.3,28.8-15.3,38.1-28.4c9.2,13,22.3,22.9,37.6,28.3"/>
	<path class="st11" d="M195.1,87.7c-8.8,12.5-13.9,27.8-13.9,44.2c0,42.7,34.6,77.4,77.4,77.4c7,0,13.8-0.9,20.2-2.7"/>
	<path class="st7" d="M477.9,21.5V5.4c0-2.9-2.3-5.2-5.2-5.2H169.1c-2.9,0-5.2,2.3-5.2,5.2v16.1H477.9z"/>
	<circle class="st9" cx="179.6" cy="11.1" r="7.1"/>
	<circle class="st9" cx="200.6" cy="10.9" r="7.1"/>
	<circle class="st9" cx="222.3" cy="11.1" r="7.1"/>
	<rect x="235.9" y="3.8" class="st9" width="228.8" height="13.4"/>
	<path class="st2" d="M512.5,95.5c-1.5-1.1-3-2.1-4.4-3.2c-0.3-0.3-0.6-0.2-0.9,0c-1.2,0.6-2.4,1.1-3.6,1.6
		c-0.4,0.2-0.5,0.4-0.6,0.7c-0.4,1.7-0.8,3.4-1.2,5.1c-0.1,0.3-0.2,0.6-0.6,0.6c-1.9,0.2-3.8,0.3-5.8,0.5c-0.4,0-0.6-0.1-0.7-0.5
		c-0.5-1.6-1-3.2-1.5-4.7c-0.1-0.3-0.3-0.5-0.6-0.5c-1.3-0.2-2.6-0.5-3.9-0.8c-0.4-0.1-0.7,0-1,0.3c-1.3,1.1-2.6,2.2-3.9,3.4
		c-0.3,0.3-0.6,0.4-1,0.1c-1.6-1-3.2-1.9-4.9-2.9c-0.4-0.2-0.4-0.5-0.3-0.8c0.5-1.6,1-3.2,1.5-4.7c0.1-0.4,0.1-0.6-0.2-0.9
		c-0.9-1-1.8-1.9-2.7-2.9c-0.2-0.3-0.4-0.4-0.8-0.4c-1.8,0.2-3.6,0.3-5.4,0.5c-0.3,0-0.6,0-0.7-0.4c-0.8-1.8-1.5-3.5-2.3-5.3
		c-0.2-0.3,0-0.5,0.3-0.7c1.4-1,2.7-2,4.1-2.9c0.4-0.3,0.5-0.5,0.4-1c-0.2-1.3-0.3-2.6-0.4-3.9c0-0.3-0.1-0.6-0.4-0.7
		c-1.6-0.9-3.1-1.9-4.7-2.8c-0.3-0.2-0.5-0.4-0.4-0.7c0.4-1.9,0.8-3.7,1.2-5.6c0.1-0.4,0.3-0.5,0.7-0.5c1.7,0,3.5,0,5.2,0
		c0.4,0,0.6-0.1,0.8-0.5c0.7-1.2,1.4-2.4,2.1-3.6c0.2-0.3,0.2-0.5,0-0.9c-0.7-1.7-1.4-3.4-2.2-5.1c-0.1-0.3-0.1-0.6,0.1-0.8
		c1.5-1.3,2.9-2.5,4.4-3.8c0.3-0.2,0.4-0.1,0.7,0.1c1.4,1.1,2.9,2.1,4.3,3.2c0.3,0.2,0.5,0.2,0.9,0.1c1.2-0.6,2.4-1.1,3.6-1.6
		c0.3-0.1,0.5-0.3,0.6-0.6c0.4-1.8,0.9-3.7,1.3-5.5c0.1-0.3,0.2-0.5,0.6-0.5c1.9-0.2,3.7-0.3,5.6-0.5c0.4,0,0.6,0.2,0.7,0.5
		c0.5,1.7,1.1,3.3,1.6,5c0.1,0.3,0.3,0.4,0.6,0.5c1.3,0.2,2.6,0.5,3.9,0.8c0.4,0.1,0.6,0.1,0.9-0.2c1.4-1.2,2.8-2.4,4.2-3.6
		c0.3-0.3,0.6-0.3,0.9-0.1c1.6,1,3.2,1.9,4.8,2.9c0.3,0.2,0.4,0.4,0.2,0.8c-0.6,1.6-1.1,3.3-1.6,4.9c-0.1,0.3-0.1,0.6,0.2,0.8
		c0.9,1,1.8,2,2.8,3c0.2,0.2,0.5,0.3,0.7,0.3c1.9-0.1,3.7-0.3,5.6-0.5c0.3,0,0.5,0,0.7,0.3c0.8,1.8,1.6,3.7,2.3,5.5
		c0.1,0.1-0.1,0.5-0.3,0.6c-1.4,1-2.8,2-4.2,3c-0.3,0.2-0.4,0.4-0.3,0.8c0.2,1.3,0.3,2.6,0.4,4c0,0.4,0.1,0.7,0.5,0.9
		c1.5,0.9,3,1.8,4.6,2.7c0.3,0.2,0.5,0.4,0.4,0.7c-0.4,1.9-0.9,3.8-1.3,5.6c-0.1,0.3-0.2,0.4-0.6,0.4c-1.7,0-3.4,0-5.1,0
		c-0.4,0-0.6,0.1-0.8,0.5c-0.6,1.2-1.3,2.3-2,3.4c-0.2,0.3-0.3,0.6-0.1,1c0.7,1.6,1.4,3.2,2,4.9c0.1,0.2,0.1,0.6-0.1,0.7
		C515.9,92.9,514.3,94.2,512.5,95.5z M495.4,57c-7.6-0.1-14,6.2-14.1,13.8c-0.1,7.7,6.2,14.1,13.9,14.1c7.7,0.1,14.1-6.1,14.1-13.7
		C509.4,63.4,503.3,57.1,495.4,57z"/>
	<path class="st2" d="M465.7,54.5c-0.7-0.5-1.4-1-2.1-1.5c-0.2-0.1-0.3-0.1-0.4,0c-0.6,0.3-1.1,0.5-1.7,0.8
		c-0.2,0.1-0.3,0.2-0.3,0.3c-0.2,0.8-0.4,1.6-0.5,2.4c0,0.2-0.1,0.3-0.3,0.3c-0.9,0.1-1.8,0.2-2.7,0.2c-0.2,0-0.3-0.1-0.3-0.2
		c-0.2-0.7-0.5-1.5-0.7-2.2c0-0.1-0.1-0.2-0.3-0.2c-0.6-0.1-1.2-0.2-1.8-0.4c-0.2,0-0.3,0-0.5,0.1c-0.6,0.5-1.2,1.1-1.8,1.6
		c-0.1,0.1-0.3,0.2-0.5,0.1c-0.8-0.5-1.5-0.9-2.3-1.3c-0.2-0.1-0.2-0.2-0.1-0.4c0.2-0.7,0.5-1.5,0.7-2.2c0.1-0.2,0-0.3-0.1-0.4
		c-0.4-0.4-0.8-0.9-1.3-1.4c-0.1-0.1-0.2-0.2-0.4-0.2c-0.8,0.1-1.7,0.1-2.5,0.2c-0.2,0-0.3,0-0.3-0.2c-0.4-0.8-0.7-1.7-1.1-2.5
		c-0.1-0.2,0-0.2,0.1-0.3c0.6-0.5,1.3-0.9,1.9-1.4c0.2-0.1,0.2-0.2,0.2-0.4c-0.1-0.6-0.1-1.2-0.2-1.8c0-0.2-0.1-0.3-0.2-0.3
		c-0.7-0.4-1.5-0.9-2.2-1.3c-0.1-0.1-0.2-0.2-0.2-0.3c0.2-0.9,0.4-1.7,0.6-2.6c0-0.2,0.1-0.2,0.3-0.2c0.8,0,1.6,0,2.4,0
		c0.2,0,0.3-0.1,0.4-0.2c0.3-0.6,0.6-1.1,1-1.7c0.1-0.1,0.1-0.3,0-0.4c-0.3-0.8-0.7-1.6-1-2.4c-0.1-0.2-0.1-0.3,0.1-0.4
		c0.7-0.6,1.4-1.2,2-1.8c0.1-0.1,0.2,0,0.3,0c0.7,0.5,1.3,1,2,1.5c0.1,0.1,0.2,0.1,0.4,0c0.6-0.3,1.1-0.5,1.7-0.7
		c0.2-0.1,0.2-0.1,0.3-0.3c0.2-0.9,0.4-1.7,0.6-2.6c0-0.2,0.1-0.2,0.3-0.3c0.9-0.1,1.7-0.2,2.6-0.2c0.2,0,0.3,0.1,0.3,0.3
		c0.2,0.8,0.5,1.6,0.8,2.4c0,0.2,0.1,0.2,0.3,0.2c0.6,0.1,1.2,0.2,1.8,0.4c0.2,0,0.3,0,0.4-0.1c0.6-0.6,1.3-1.1,1.9-1.7
		c0.1-0.1,0.3-0.2,0.4-0.1c0.7,0.5,1.5,0.9,2.3,1.4c0.2,0.1,0.2,0.2,0.1,0.4c-0.3,0.8-0.5,1.5-0.8,2.3c-0.1,0.2,0,0.3,0.1,0.4
		c0.4,0.5,0.9,1,1.3,1.4c0.1,0.1,0.2,0.2,0.3,0.1c0.9-0.1,1.8-0.1,2.6-0.2c0.1,0,0.2,0,0.3,0.1c0.4,0.9,0.7,1.7,1.1,2.6
		c0,0.1-0.1,0.2-0.1,0.3c-0.6,0.5-1.3,1-2,1.4c-0.1,0.1-0.2,0.2-0.2,0.4c0.1,0.6,0.2,1.2,0.2,1.9c0,0.2,0.1,0.3,0.2,0.4
		c0.7,0.4,1.4,0.9,2.1,1.3c0.1,0.1,0.2,0.2,0.2,0.3c-0.2,0.9-0.4,1.8-0.6,2.6c0,0.2-0.1,0.2-0.3,0.2c-0.8,0-1.6,0-2.4,0
		c-0.2,0-0.3,0.1-0.4,0.2c-0.3,0.5-0.6,1.1-0.9,1.6c-0.1,0.2-0.1,0.3,0,0.5c0.3,0.8,0.7,1.5,1,2.3c0,0.1,0,0.3,0,0.3
		C467.3,53.3,466.6,53.9,465.7,54.5z M457.7,36.5c-3.6,0-6.6,2.9-6.6,6.5c0,3.6,2.9,6.6,6.5,6.6c3.6,0,6.6-2.9,6.6-6.4
		C464.3,39.5,461.4,36.5,457.7,36.5z"/>
	<path class="st2" d="M450.4,201.1c-0.9-0.6-1.7-1.2-2.6-1.9c-0.2-0.1-0.3-0.1-0.5,0c-0.7,0.3-1.4,0.6-2.1,0.9
		c-0.2,0.1-0.3,0.2-0.4,0.4c-0.2,1-0.5,2-0.7,2.9c0,0.2-0.1,0.3-0.3,0.3c-1.1,0.1-2.2,0.2-3.3,0.3c-0.2,0-0.3-0.1-0.4-0.3
		c-0.3-0.9-0.6-1.8-0.9-2.7c-0.1-0.2-0.1-0.3-0.3-0.3c-0.8-0.1-1.5-0.3-2.3-0.5c-0.2-0.1-0.4,0-0.6,0.1c-0.7,0.7-1.5,1.3-2.2,2
		c-0.2,0.2-0.3,0.2-0.6,0.1c-0.9-0.6-1.9-1.1-2.8-1.7c-0.2-0.1-0.2-0.3-0.1-0.5c0.3-0.9,0.6-1.8,0.9-2.7c0.1-0.2,0-0.3-0.1-0.5
		c-0.5-0.6-1-1.1-1.5-1.7c-0.1-0.2-0.3-0.2-0.5-0.2c-1,0.1-2.1,0.2-3.1,0.3c-0.2,0-0.3,0-0.4-0.2c-0.4-1-0.9-2-1.3-3.1
		c-0.1-0.2,0-0.3,0.1-0.4c0.8-0.6,1.6-1.1,2.4-1.7c0.2-0.1,0.3-0.3,0.2-0.6c-0.1-0.7-0.2-1.5-0.2-2.3c0-0.2-0.1-0.3-0.3-0.4
		c-0.9-0.5-1.8-1.1-2.7-1.6c-0.2-0.1-0.3-0.2-0.2-0.4c0.2-1.1,0.5-2.2,0.7-3.2c0-0.2,0.2-0.3,0.4-0.3c1,0,2,0,3,0
		c0.2,0,0.3-0.1,0.4-0.3c0.4-0.7,0.8-1.4,1.2-2.1c0.1-0.2,0.1-0.3,0-0.5c-0.4-1-0.8-2-1.2-3c-0.1-0.2-0.1-0.3,0.1-0.5
		c0.8-0.7,1.7-1.5,2.5-2.2c0.2-0.1,0.3-0.1,0.4,0c0.8,0.6,1.7,1.2,2.5,1.8c0.2,0.1,0.3,0.1,0.5,0c0.7-0.3,1.4-0.6,2.1-0.9
		c0.2-0.1,0.3-0.2,0.3-0.4c0.2-1.1,0.5-2.1,0.7-3.2c0-0.2,0.1-0.3,0.3-0.3c1.1-0.1,2.2-0.2,3.2-0.3c0.3,0,0.4,0.1,0.4,0.3
		c0.3,1,0.6,1.9,0.9,2.9c0.1,0.2,0.2,0.3,0.4,0.3c0.8,0.1,1.5,0.3,2.3,0.5c0.2,0.1,0.4,0,0.5-0.1c0.8-0.7,1.6-1.4,2.4-2.1
		c0.2-0.2,0.3-0.2,0.5-0.1c0.9,0.6,1.9,1.1,2.8,1.7c0.2,0.1,0.2,0.3,0.1,0.5c-0.3,1-0.6,1.9-0.9,2.9c-0.1,0.2,0,0.3,0.1,0.5
		c0.5,0.6,1.1,1.2,1.6,1.8c0.1,0.1,0.3,0.2,0.4,0.2c1.1-0.1,2.2-0.2,3.2-0.3c0.2,0,0.3,0,0.4,0.2c0.4,1.1,0.9,2.1,1.3,3.2
		c0,0.1-0.1,0.3-0.2,0.3c-0.8,0.6-1.6,1.2-2.4,1.7c-0.2,0.1-0.2,0.2-0.2,0.4c0.1,0.8,0.2,1.5,0.2,2.3c0,0.2,0.1,0.4,0.3,0.5
		c0.9,0.5,1.8,1.1,2.6,1.6c0.2,0.1,0.3,0.2,0.2,0.4c-0.3,1.1-0.5,2.2-0.8,3.3c0,0.2-0.1,0.2-0.3,0.2c-1,0-2,0-3,0
		c-0.2,0-0.3,0.1-0.4,0.3c-0.4,0.7-0.7,1.3-1.1,2c-0.1,0.2-0.1,0.3-0.1,0.6c0.4,0.9,0.8,1.9,1.2,2.8c0,0.1,0,0.3,0,0.4
		C452.3,199.5,451.4,200.4,450.4,201.1z M440.5,178.8c-4.4,0-8.1,3.6-8.2,8c0,4.5,3.6,8.2,8,8.2c4.5,0,8.2-3.6,8.2-8
		C448.6,182.5,445,178.8,440.5,178.8z"/>
	<path class="st6" d="M353.3,260.2c-0.8-0.5-1.5-1.1-2.2-1.6c-0.2-0.1-0.3-0.1-0.5,0c-0.6,0.3-1.2,0.6-1.8,0.8
		c-0.2,0.1-0.3,0.2-0.3,0.4c-0.2,0.9-0.4,1.7-0.6,2.6c0,0.2-0.1,0.3-0.3,0.3c-1,0.1-2,0.2-2.9,0.3c-0.2,0-0.3-0.1-0.3-0.3
		c-0.3-0.8-0.5-1.6-0.8-2.4c-0.1-0.2-0.1-0.2-0.3-0.3c-0.7-0.1-1.3-0.3-2-0.4c-0.2-0.1-0.3,0-0.5,0.1c-0.7,0.6-1.3,1.1-2,1.7
		c-0.2,0.1-0.3,0.2-0.5,0.1c-0.8-0.5-1.7-1-2.5-1.5c-0.2-0.1-0.2-0.2-0.1-0.4c0.3-0.8,0.5-1.6,0.8-2.4c0.1-0.2,0-0.3-0.1-0.4
		c-0.5-0.5-0.9-1-1.4-1.5c-0.1-0.1-0.2-0.2-0.4-0.2c-0.9,0.1-1.8,0.2-2.8,0.2c-0.2,0-0.3,0-0.4-0.2c-0.4-0.9-0.8-1.8-1.2-2.7
		c-0.1-0.2,0-0.3,0.1-0.4c0.7-0.5,1.4-1,2.1-1.5c0.2-0.1,0.2-0.3,0.2-0.5c-0.1-0.7-0.2-1.3-0.2-2c0-0.2-0.1-0.3-0.2-0.4
		c-0.8-0.5-1.6-1-2.4-1.4c-0.2-0.1-0.2-0.2-0.2-0.4c0.2-0.9,0.4-1.9,0.6-2.9c0-0.2,0.2-0.2,0.3-0.2c0.9,0,1.8,0,2.7,0
		c0.2,0,0.3-0.1,0.4-0.2c0.3-0.6,0.7-1.2,1.1-1.9c0.1-0.2,0.1-0.3,0-0.4c-0.4-0.9-0.7-1.7-1.1-2.6c-0.1-0.2-0.1-0.3,0.1-0.4
		c0.7-0.6,1.5-1.3,2.2-1.9c0.1-0.1,0.2-0.1,0.3,0c0.7,0.5,1.5,1.1,2.2,1.6c0.2,0.1,0.3,0.1,0.5,0c0.6-0.3,1.2-0.6,1.9-0.8
		c0.2-0.1,0.3-0.2,0.3-0.3c0.2-0.9,0.4-1.9,0.7-2.8c0-0.2,0.1-0.3,0.3-0.3c0.9-0.1,1.9-0.2,2.8-0.3c0.2,0,0.3,0.1,0.4,0.3
		c0.3,0.9,0.5,1.7,0.8,2.6c0.1,0.2,0.1,0.2,0.3,0.3c0.7,0.1,1.3,0.3,2,0.4c0.2,0,0.3,0,0.5-0.1c0.7-0.6,1.4-1.2,2.1-1.8
		c0.2-0.1,0.3-0.2,0.5-0.1c0.8,0.5,1.6,1,2.4,1.5c0.2,0.1,0.2,0.2,0.1,0.4c-0.3,0.8-0.5,1.7-0.8,2.5c-0.1,0.2,0,0.3,0.1,0.4
		c0.5,0.5,0.9,1,1.4,1.5c0.1,0.1,0.2,0.2,0.3,0.2c1-0.1,1.9-0.1,2.9-0.2c0.2,0,0.3,0,0.3,0.2c0.4,0.9,0.8,1.9,1.2,2.8
		c0,0.1-0.1,0.2-0.1,0.3c-0.7,0.5-1.4,1-2.1,1.5c-0.2,0.1-0.2,0.2-0.2,0.4c0.1,0.7,0.2,1.3,0.2,2c0,0.2,0.1,0.3,0.3,0.4
		c0.8,0.5,1.5,0.9,2.3,1.4c0.2,0.1,0.2,0.2,0.2,0.4c-0.2,1-0.5,1.9-0.7,2.9c0,0.2-0.1,0.2-0.3,0.2c-0.9,0-1.7,0-2.6,0
		c-0.2,0-0.3,0.1-0.4,0.2c-0.3,0.6-0.7,1.2-1,1.8c-0.1,0.2-0.1,0.3,0,0.5c0.4,0.8,0.7,1.6,1,2.5c0,0.1,0,0.3,0,0.4
		C355,258.9,354.2,259.6,353.3,260.2z M344.6,240.6c-3.9,0-7.1,3.2-7.2,7c0,3.9,3.1,7.2,7.1,7.2c3.9,0,7.2-3.1,7.2-7
		C351.8,243.9,348.6,240.7,344.6,240.6z"/>
	<path class="st7" d="M250.4,269.8c-0.5-0.4-1-0.7-1.5-1.1c-0.1-0.1-0.2-0.1-0.3,0c-0.4,0.2-0.8,0.4-1.2,0.5
		c-0.1,0.1-0.2,0.1-0.2,0.2c-0.1,0.6-0.3,1.1-0.4,1.7c0,0.1-0.1,0.2-0.2,0.2c-0.6,0.1-1.3,0.1-1.9,0.2c-0.1,0-0.2-0.1-0.2-0.2
		c-0.2-0.5-0.3-1.1-0.5-1.6c0-0.1-0.1-0.2-0.2-0.2c-0.4-0.1-0.9-0.2-1.3-0.3c-0.1,0-0.2,0-0.3,0.1c-0.4,0.4-0.9,0.8-1.3,1.1
		c-0.1,0.1-0.2,0.1-0.3,0c-0.5-0.3-1.1-0.6-1.6-1c-0.1-0.1-0.1-0.2-0.1-0.3c0.2-0.5,0.3-1.1,0.5-1.6c0-0.1,0-0.2-0.1-0.3
		c-0.3-0.3-0.6-0.7-0.9-1c-0.1-0.1-0.1-0.1-0.3-0.1c-0.6,0.1-1.2,0.1-1.8,0.2c-0.1,0-0.2,0-0.2-0.1c-0.3-0.6-0.5-1.2-0.8-1.8
		c-0.1-0.1,0-0.2,0.1-0.2c0.5-0.3,0.9-0.7,1.4-1c0.1-0.1,0.2-0.2,0.1-0.3c-0.1-0.4-0.1-0.9-0.1-1.3c0-0.1,0-0.2-0.1-0.2
		c-0.5-0.3-1.1-0.6-1.6-0.9c-0.1-0.1-0.2-0.1-0.1-0.2c0.1-0.6,0.3-1.3,0.4-1.9c0-0.1,0.1-0.2,0.2-0.2c0.6,0,1.2,0,1.7,0
		c0.1,0,0.2,0,0.3-0.2c0.2-0.4,0.5-0.8,0.7-1.2c0.1-0.1,0.1-0.2,0-0.3c-0.2-0.6-0.5-1.1-0.7-1.7c0-0.1,0-0.2,0-0.3
		c0.5-0.4,1-0.8,1.5-1.3c0.1-0.1,0.1,0,0.2,0c0.5,0.4,1,0.7,1.4,1.1c0.1,0.1,0.2,0.1,0.3,0c0.4-0.2,0.8-0.4,1.2-0.5
		c0.1,0,0.2-0.1,0.2-0.2c0.1-0.6,0.3-1.2,0.4-1.9c0-0.1,0.1-0.2,0.2-0.2c0.6-0.1,1.2-0.1,1.9-0.2c0.1,0,0.2,0.1,0.2,0.2
		c0.2,0.6,0.4,1.1,0.5,1.7c0,0.1,0.1,0.2,0.2,0.2c0.4,0.1,0.9,0.2,1.3,0.3c0.1,0,0.2,0,0.3-0.1c0.5-0.4,0.9-0.8,1.4-1.2
		c0.1-0.1,0.2-0.1,0.3,0c0.5,0.3,1.1,0.7,1.6,1c0.1,0.1,0.1,0.1,0.1,0.3c-0.2,0.6-0.4,1.1-0.5,1.7c0,0.1,0,0.2,0.1,0.3
		c0.3,0.3,0.6,0.7,0.9,1c0.1,0.1,0.2,0.1,0.2,0.1c0.6,0,1.3-0.1,1.9-0.2c0.1,0,0.2,0,0.2,0.1c0.3,0.6,0.5,1.2,0.8,1.8
		c0,0,0,0.2-0.1,0.2c-0.5,0.3-0.9,0.7-1.4,1c-0.1,0.1-0.1,0.1-0.1,0.3c0.1,0.4,0.1,0.9,0.1,1.3c0,0.1,0,0.2,0.2,0.3
		c0.5,0.3,1,0.6,1.5,0.9c0.1,0.1,0.2,0.1,0.1,0.2c-0.1,0.6-0.3,1.3-0.4,1.9c0,0.1-0.1,0.1-0.2,0.1c-0.6,0-1.1,0-1.7,0
		c-0.1,0-0.2,0-0.3,0.2c-0.2,0.4-0.4,0.8-0.7,1.2c-0.1,0.1-0.1,0.2,0,0.3c0.2,0.5,0.5,1.1,0.7,1.6c0,0.1,0,0.2,0,0.2
		C251.5,268.9,251,269.4,250.4,269.8z M244.7,256.9c-2.6,0-4.7,2.1-4.7,4.6c0,2.6,2.1,4.7,4.6,4.7c2.6,0,4.7-2.1,4.7-4.6
		C249.4,259.1,247.3,256.9,244.7,256.9z"/>
	<path class="st2" d="M197.9,195.6c-0.8-0.6-1.6-1.1-2.3-1.7c-0.2-0.1-0.3-0.1-0.5,0c-0.6,0.3-1.3,0.6-1.9,0.8
		c-0.2,0.1-0.3,0.2-0.3,0.4c-0.2,0.9-0.4,1.8-0.6,2.7c0,0.2-0.1,0.3-0.3,0.3c-1,0.1-2,0.2-3,0.3c-0.2,0-0.3-0.1-0.4-0.3
		c-0.3-0.8-0.5-1.7-0.8-2.5c-0.1-0.2-0.1-0.2-0.3-0.3c-0.7-0.1-1.4-0.3-2.1-0.4c-0.2-0.1-0.4,0-0.5,0.1c-0.7,0.6-1.4,1.2-2,1.8
		c-0.2,0.1-0.3,0.2-0.5,0.1c-0.8-0.5-1.7-1-2.6-1.5c-0.2-0.1-0.2-0.2-0.1-0.4c0.3-0.8,0.5-1.7,0.8-2.5c0.1-0.2,0-0.3-0.1-0.5
		c-0.5-0.5-0.9-1-1.4-1.5c-0.1-0.1-0.2-0.2-0.4-0.2c-0.9,0.1-1.9,0.2-2.8,0.2c-0.2,0-0.3,0-0.4-0.2c-0.4-0.9-0.8-1.9-1.2-2.8
		c-0.1-0.2,0-0.3,0.1-0.4c0.7-0.5,1.4-1,2.1-1.5c0.2-0.1,0.2-0.3,0.2-0.5c-0.1-0.7-0.2-1.4-0.2-2c0-0.2-0.1-0.3-0.2-0.4
		c-0.8-0.5-1.6-1-2.5-1.5c-0.2-0.1-0.2-0.2-0.2-0.4c0.2-1,0.4-2,0.6-2.9c0-0.2,0.2-0.2,0.4-0.2c0.9,0,1.8,0,2.7,0
		c0.2,0,0.3-0.1,0.4-0.2c0.4-0.6,0.7-1.3,1.1-1.9c0.1-0.2,0.1-0.3,0-0.4c-0.4-0.9-0.7-1.8-1.1-2.7c-0.1-0.2-0.1-0.3,0.1-0.4
		c0.8-0.7,1.5-1.3,2.3-2c0.1-0.1,0.2-0.1,0.3,0c0.7,0.6,1.5,1.1,2.2,1.7c0.2,0.1,0.3,0.1,0.5,0c0.6-0.3,1.3-0.6,1.9-0.8
		c0.2-0.1,0.3-0.2,0.3-0.3c0.2-1,0.5-1.9,0.7-2.9c0-0.2,0.1-0.3,0.3-0.3c1-0.1,2-0.2,2.9-0.3c0.2,0,0.3,0.1,0.4,0.3
		c0.3,0.9,0.6,1.7,0.8,2.6c0.1,0.2,0.1,0.2,0.3,0.3c0.7,0.1,1.4,0.3,2,0.4c0.2,0.1,0.3,0,0.5-0.1c0.7-0.6,1.5-1.3,2.2-1.9
		c0.2-0.1,0.3-0.2,0.5-0.1c0.8,0.5,1.7,1,2.5,1.5c0.2,0.1,0.2,0.2,0.1,0.4c-0.3,0.9-0.6,1.7-0.9,2.6c-0.1,0.2,0,0.3,0.1,0.4
		c0.5,0.5,1,1.1,1.4,1.6c0.1,0.1,0.2,0.2,0.4,0.2c1-0.1,2-0.2,2.9-0.2c0.2,0,0.3,0,0.3,0.2c0.4,1,0.8,1.9,1.2,2.9
		c0,0.1-0.1,0.2-0.2,0.3c-0.7,0.5-1.4,1.1-2.2,1.6c-0.2,0.1-0.2,0.2-0.2,0.4c0.1,0.7,0.2,1.4,0.2,2.1c0,0.2,0.1,0.3,0.3,0.5
		c0.8,0.5,1.6,1,2.4,1.4c0.2,0.1,0.2,0.2,0.2,0.4c-0.2,1-0.5,2-0.7,2.9c0,0.2-0.1,0.2-0.3,0.2c-0.9,0-1.8,0-2.7,0
		c-0.2,0-0.3,0.1-0.4,0.3c-0.3,0.6-0.7,1.2-1,1.8c-0.1,0.2-0.1,0.3-0.1,0.5c0.4,0.8,0.7,1.7,1.1,2.5c0,0.1,0,0.3,0,0.4
		C199.6,194.3,198.8,195,197.9,195.6z M189,175.5c-4,0-7.3,3.2-7.4,7.2c0,4,3.2,7.4,7.3,7.4c4,0,7.4-3.2,7.4-7.2
		C196.3,178.8,193.1,175.5,189,175.5z"/>
	<path class="st6" d="M82.8,63.2c-0.8-0.6-1.6-1.1-2.3-1.7c-0.2-0.1-0.3-0.1-0.5,0c-0.6,0.3-1.3,0.6-1.9,0.8
		c-0.2,0.1-0.3,0.2-0.3,0.4c-0.2,0.9-0.4,1.8-0.6,2.7c0,0.2-0.1,0.3-0.3,0.3c-1,0.1-2,0.2-3,0.3c-0.2,0-0.3-0.1-0.4-0.3
		c-0.3-0.8-0.5-1.7-0.8-2.5c-0.1-0.2-0.1-0.2-0.3-0.3c-0.7-0.1-1.4-0.3-2.1-0.4c-0.2-0.1-0.4,0-0.5,0.1c-0.7,0.6-1.4,1.2-2,1.8
		c-0.2,0.1-0.3,0.2-0.5,0.1c-0.8-0.5-1.7-1-2.6-1.5c-0.2-0.1-0.2-0.2-0.1-0.4c0.3-0.8,0.5-1.7,0.8-2.5c0.1-0.2,0-0.3-0.1-0.5
		c-0.5-0.5-0.9-1-1.4-1.5c-0.1-0.1-0.2-0.2-0.4-0.2c-0.9,0.1-1.9,0.2-2.8,0.2c-0.2,0-0.3,0-0.4-0.2c-0.4-0.9-0.8-1.9-1.2-2.8
		c-0.1-0.2,0-0.3,0.1-0.4c0.7-0.5,1.4-1,2.1-1.5c0.2-0.1,0.2-0.3,0.2-0.5c-0.1-0.7-0.2-1.4-0.2-2c0-0.2-0.1-0.3-0.2-0.4
		c-0.8-0.5-1.6-1-2.5-1.5c-0.2-0.1-0.2-0.2-0.2-0.4c0.2-1,0.4-2,0.6-2.9c0-0.2,0.2-0.2,0.4-0.2c0.9,0,1.8,0,2.7,0
		c0.2,0,0.3-0.1,0.4-0.2c0.4-0.6,0.7-1.3,1.1-1.9c0.1-0.2,0.1-0.3,0-0.4c-0.4-0.9-0.7-1.8-1.1-2.7c-0.1-0.2-0.1-0.3,0.1-0.4
		c0.8-0.7,1.5-1.3,2.3-2c0.1-0.1,0.2-0.1,0.3,0c0.7,0.6,1.5,1.1,2.2,1.7c0.2,0.1,0.3,0.1,0.5,0c0.6-0.3,1.3-0.6,1.9-0.8
		c0.2-0.1,0.3-0.2,0.3-0.3c0.2-1,0.5-1.9,0.7-2.9c0-0.2,0.1-0.3,0.3-0.3c1-0.1,2-0.2,2.9-0.3c0.2,0,0.3,0.1,0.4,0.3
		c0.3,0.9,0.6,1.7,0.8,2.6c0.1,0.2,0.1,0.2,0.3,0.3c0.7,0.1,1.4,0.3,2,0.4c0.2,0.1,0.3,0,0.5-0.1c0.7-0.6,1.5-1.3,2.2-1.9
		c0.2-0.1,0.3-0.2,0.5-0.1c0.8,0.5,1.7,1,2.5,1.5c0.2,0.1,0.2,0.2,0.1,0.4c-0.3,0.9-0.6,1.7-0.9,2.6c-0.1,0.2,0,0.3,0.1,0.4
		c0.5,0.5,1,1.1,1.4,1.6c0.1,0.1,0.2,0.2,0.4,0.2c1-0.1,2-0.2,2.9-0.2c0.2,0,0.3,0,0.3,0.2c0.4,1,0.8,1.9,1.2,2.9
		c0,0.1-0.1,0.2-0.2,0.3c-0.7,0.5-1.4,1.1-2.2,1.6c-0.2,0.1-0.2,0.2-0.2,0.4c0.1,0.7,0.2,1.4,0.2,2.1c0,0.2,0.1,0.3,0.3,0.5
		c0.8,0.5,1.6,1,2.4,1.4c0.2,0.1,0.2,0.2,0.2,0.4c-0.2,1-0.5,2-0.7,2.9c0,0.2-0.1,0.2-0.3,0.2c-0.9,0-1.8,0-2.7,0
		c-0.2,0-0.3,0.1-0.4,0.3c-0.3,0.6-0.7,1.2-1,1.8c-0.1,0.2-0.1,0.3-0.1,0.5c0.4,0.8,0.7,1.7,1.1,2.5c0,0.1,0,0.3,0,0.4
		C84.6,61.8,83.7,62.6,82.8,63.2z M73.9,43.1c-4,0-7.3,3.2-7.4,7.2c0,4,3.2,7.4,7.3,7.4c4,0,7.4-3.2,7.4-7.2
		C81.2,46.4,78,43.1,73.9,43.1z"/>
	<g>
		<path class="st5" d="M136.4,21.5c0,0-11.5,11.4-42.6,10.9c0.5,21.3-3.8,66.2,42.6,84.3c11.2-5.1,46.2-12.6,43.4-84.3
			C160.2,29.7,158.1,32.5,136.4,21.5z"/>
		<path class="st12" d="M144.9,55.6c0-4.6-3.7-8.3-8.3-8.3c-4.6,0-8.3,3.7-8.3,8.3c0,3.6,2.4,6.7,5.6,7.9l-5.6,18.3h16.6l-5.6-18.3
			C142.5,62.4,144.9,59.3,144.9,55.6z"/>
	</g>
	<text transform="matrix(1 0 0 1 79.5449 120.4275)" class="st2 st13 st14">&lt;/&gt;</text>
	<text transform="matrix(1 0 0 1 257.4211 263.9717)" class="st2 st13 st15">&lt;/&gt;</text>
	<path class="st16" d="M81.5,275.2"/>
	<g>
		<g>
			<path class="st6" d="M92.6,204.8l-17.9,8.4c0,0-12.1,5.1-15.8,35.6c11.4,0.7,26.4,1.5,26.4,1.5l3.9-19.7L92.6,204.8z"/>
			<path class="st6" d="M81.5,250v26.4l51.1,0.9l2.1-36.6l17-9.7c0,0-6.8-16.7-14.8-19.7c-7.8-3.9-13.4-6-13.4-6l-30.8-0.5
				C92.6,204.8,80.7,230.9,81.5,250z"/>
		</g>
		<path class="st17" d="M133.3,154.6c0,0,5.8,33.5-6.3,38c-4.4,2.7-10,1.7-10,1.7v9.5l6.5,1.5c0,0-0.3,8.3-10.4,7.8
			c-5.6-1.5-16.9-2.6-20.4-8.3c9.4-4.3,9.4-4.3,9.4-4.3l3.6-19.1c0,0-5.8,3.7-4.9-7.3c1.1-2.1,2.9-6.7,7.3-1.2
			c2.5-5.9,3.1-8.9,6.8-11.1c0-3.9,0-3.9,0-3.9L133.3,154.6z"/>
		<path class="st18" d="M110.6,191.5c0,0,2.8,2.6,6.3,2.7c0,6.6,0,7.1,0,7.1S113.4,197.5,110.6,191.5z"/>
		<path class="st19" d="M137.4,146.4c0,0-4.1,4.6-9.2,0.9c-3.9-1.5-15.6-5.3-25.6,6.3c-2.3,2.6-3.7,6-4,9.5
			c-0.4,4.7-1.1,7.3,0.2,10.1c1,2.9,1.6,4.5-0.8,9.7c-0.1,3.9,0.5,14.3,4,17.7c2.2-8.5,3.6-19.1,3.6-19.1s-5.4,3.7-4.9-7.3
			c1.2-3.1,3.7-5.7,7.3-1.2c2.6-5.6,3.2-9.6,6.8-11.1V158l12.2,0.1c3.6,0,7.1-1,10-3C140.2,152.8,142.6,149.6,137.4,146.4z"/>
		<path class="st16" d="M81.5,275.2c0,0,0,0-13.4,1.1c-10-0.9-8.2-12.3-8.2-12.3l1.5-15.1l4.6,11.6l14.9,2.1l33.2,4.9l12.3-6
			c0,0,7.2-1.3,8.8,0.6c-2,6-3.4,11.3-3.4,11.3l-21.6-0.9L81.5,275.2"/>
		<polygon class="st16" points="61.4,248.8 80.5,250 79.5,263 64.6,261.8 		"/>
		<polygon class="st16" points="134.7,244.8 142.2,254.9 156.3,242.5 149.1,229.7 133.5,237.9 		"/>
		<path class="st20" d="M107.9,277.1l2.2-4.1l21.7,0.3l11.8-34.7c0.4-1,1.3-1.7,2.4-1.7h56.2c1.8,0,3,1.8,2.4,3.5l-14,36.9
			L107.9,277.1z"/>
	</g>
	<g>
		<g>
			<g>
				<g>
					<path class="st21" d="M246.3,81.6c0,0-2.2,3.7-3.1,4.3c-1.3,0.8-0.5,1.7,0.1,1.7c0.6,0,3.7,0.2,4.3-0.5c0.7-0.8,1-3.1,1.6-3.7
						c0.6-0.6,1.3-3-0.3-3.6C247.6,79.3,246.3,81.6,246.3,81.6z"/>
				</g>
			</g>
		</g>
		<g>
			<g>
				<g>
					<path class="st22" d="M247.3,79.9c0,0-2.5,4.4-3,5c-0.4,0.6,0.8,0.6,1.6,0.3c0.8-0.3,2.7-3.4,3-4c0.3-0.7,0.1-1.5,0.1-1.5
						L247.3,79.9z"/>
				</g>
			</g>
		</g>
		<g>
			<g>
				<g>
					<polygon class="st21" points="249.8,82.3 249.2,86.7 248.9,86.7 249,83.5 					"/>
				</g>
			</g>
		</g>
		<g>
			<g>
				<g>
					<path class="st21" d="M268.1,81.6c0,0-2.2,3.7-3.1,4.3c-1.3,0.8-0.5,1.7,0.1,1.7c0.6,0,3.7,0.2,4.3-0.5c0.7-0.8,1-3.1,1.6-3.7
						c0.6-0.6,1.3-3-0.3-3.6C269.4,79.3,268.1,81.6,268.1,81.6z"/>
				</g>
			</g>
		</g>
		<g>
			<g>
				<g>
					<path class="st22" d="M268.9,79.9c0,0-2.4,4.4-2.8,5c-0.4,0.6,0.8,0.6,1.6,0.3c0.8-0.3,2.7-3.4,3-4c0.3-0.7,0.1-1.5,0.1-1.5
						L268.9,79.9z"/>
				</g>
			</g>
		</g>
		<g>
			<g>
				<g>
					<polygon class="st21" points="271.6,82.3 271,86.7 270.7,86.7 270.8,83.5 					"/>
				</g>
			</g>
		</g>
		<g>
			<g>
				<g>
					<path class="st22" d="M277.9,47.6L258,56.7c0,0-2.2,0.7-2.5,3.2c-0.8,7.7-6.5,19.9-6.5,19.9c-1.8,0.9-1.7,0.1-1.7,0.1
						c1.2-3.7,2.6-19.1,3.1-25.3c0.1-1.3,0.2-2.2,0.2-2.5c0-0.2,0.2-0.5,0.6-0.7c2.7-2.2,14-6.8,14-6.8
						C273.5,44.3,277.9,47.6,277.9,47.6z"/>
				</g>
			</g>
		</g>
		<g>
			<g>
				<g>
					<path class="st22" d="M281.6,51.5c-0.6,5.4-8.3,4.8-8.3,4.8H264c0,0,2.4,5.4,3.4,10c1,4.9,3.4,13.5,3.4,13.5s-0.2,0.3-1.8,0.1
						c0,0-7.3-14.6-10.1-18.2c-0.6-0.8-2.3-5.1-2.6-7.6c-0.1-0.9,0-1.5,0.3-1.8c0.3-0.3,1.1-0.8,2.1-1.4c2.9-1.8,8-4.7,10.8-5.3
						c3.8-0.8,9.7-2.4,9.7-2.4S282.2,46.2,281.6,51.5z"/>
				</g>
			</g>
		</g>
		<g>
			<path class="st23" d="M275.3,10.1c0,0,1.4-2.6,0.7-5.5c-0.7-2.8-3.3-5.6-7.1-4.3c-3.8,1.3-6.9,4.3-4.6,7.7c2.3,3.4-2.1,5-1,6.6
				c1.1,1.6,0.7,3.3,0.2,3.7c-0.5,0.4-2,1.7-1.8,3.3c0.2,1.6,7.4-4.7,7.4-4.7S273.1,9.1,275.3,10.1z"/>
		</g>
		<g>
			<path class="st24" d="M263.6,43.9c0,0,0.6,2.8,15.4-0.7C279.1,43.2,274.1,41.5,263.6,43.9z"/>
		</g>
		<g>
			<g>
				<path class="st25" d="M279.2,43.9c0.2,0.4,0.5,0.9,0.7,1.3c-5.4,0.2-10.9,0.3-16.3,0.5c0.9-2.9,0.6-6.8,0.4-9.7
					c-0.2-3.6-2.2-6.1-2-9.8c-1.1,0.2-1.3,0.2-2.3,0.4c1.6-4.7,2.2-7,7.3-8.8c1.7-0.6,2.8-0.7,4.6-0.6c5.9,0.5,7.7,0.6,10.6,5.9
					c-4.6,0.7-3.8,2.4-5.2,6.9c-0.7,2.2-1.4,4.7-1,7C276.4,39.3,279.2,41.9,279.2,43.9z"/>
			</g>
		</g>
		<g>
			<g>
				<path class="st26" d="M269.8,18.9c2.4-0.5,1.9-1.8,1.9-1.8s-0.1-0.8-0.2-1.7c0-0.2,0-0.5,0-0.8c0-0.4,0-0.8,0.1-1.2
					c0.2-1.6-4.4-0.7-4.4-0.7s0.3,3.3-0.4,4.3C266.2,18,267.4,19.4,269.8,18.9z"/>
			</g>
		</g>
		<g>
			<g>
				<path class="st26" d="M274.4,17.1c0,0-4.9,5.6-6.7,7c0,0-2.1-1.9-0.8-6.8C266.9,17.2,269.3,16.1,274.4,17.1z"/>
			</g>
		</g>
		<g>
			<path class="st26" d="M274.3,3.5c0,0,2.5,4.9,0,9.5c-2.5,4.6-7.5-2-7.8-2.8c-0.3-0.8-2-5.2,1.4-6.5
				C271.2,2.4,273.6,2.2,274.3,3.5z"/>
		</g>
		<g>
			<path class="st23" d="M273.4,5.3c0,0,1.7,2.3,2,4c0,0,0.7-3.2-1.3-6.3c-2-3.1-7-0.1-7.6,1.1c-0.7,1.2-2.6,2.3,0.7,7.6
				C267.1,11.7,273.1,7.5,273.4,5.3z"/>
		</g>
		<g>
			<path class="st27" d="M269.4,13.5c0,0,0.4,1,2.2,1.9c0-0.2,0-0.5,0-0.8C271.5,14.6,270.4,14.5,269.4,13.5z"/>
		</g>
		<g>
			<path class="st26" d="M295,39.5c0,0,1.2,0.5,1.8,0.3c0.6-0.2,1.5-0.3,1.7-0.3c0.4,0,1.5-0.4,1.5,0c0,0.5-1.9,0.8-2.3,0.9
				c-0.4,0.1,1.1,1,1.3,1.4c0.1,0.4-1.6,2.8-2.6,2.1c-1-0.7-1.5-2.1-1.7-2.2s-0.7-0.5-0.7-0.5L295,39.5z"/>
		</g>
		<g>
			<path class="st26" d="M298.9,41.6c0,0,2.8,2.3,2.9,2.7c0,0.3-0.1,0.5-0.4,0.3c-0.3-0.2-2.8-2.2-2.8-2.2s2.8,3.3,2.9,3.6
				c0.1,0.1-0.2,0.4-0.4,0.4c-0.2-0.1-3.2-3.3-3.2-3.3s2.6,3.1,2.7,3.4c0,0.2-0.3,0.4-0.5,0.2c-0.2-0.2-2.8-3-2.8-3s1.8,2.4,1.7,2.6
				c-0.1,0.1-0.3,0.4-0.7-0.2c-0.4-0.6-1.6-2-1.6-2L298.9,41.6z"/>
		</g>
		<g>
			<g>
				<path class="st0" d="M265,56.3h8.3c0,0,7.7,0.6,8.3-4.8c0.6-5.4-2.5-8.4-2.5-8.4s-4.1,1.1-7.6,1.9c-1.8-0.4-3.9-0.6-6.4-0.6
					c0,0-15,5-14.6,7.6C250.5,52.1,256.8,48.8,265,56.3z"/>
			</g>
		</g>
		<g>
			<polygon class="st28" points="270.4,47 254.5,46.7 262.6,50.8 			"/>
		</g>
		<g>
			<path class="st25" d="M265.5,44.9c0,0,3.6,1.4,8,0.1l0.2-1.6l-9,0.5L265.5,44.9z"/>
		</g>
		<g>
			<polygon class="st29" points="262.6,50.8 270.4,47.8 270.4,47 261.9,50 			"/>
		</g>
		<g>
			<g>
				<path class="st30" d="M265.5,45.7c0,0.6-0.6,1-1.1,0.8l-0.9-0.4c-0.3-0.1-0.4-0.4-0.4-0.7c0.4-2.4,1.2-11.8,0-13.4
					c-0.4-0.6-0.7-1.1-0.9-1.6c-0.8,2-1.8,4.7-2.2,6.1l-7.5,10l-2.5,0.6c3.1-7.6,5.7-11.6,5.7-11.6c0.5-1.3,1.9-5.3,3.1-8.9
					c0.8-2.2,1.5-4.3,1.9-5.4c0.2-0.6,0.6-1,1.1-1.3c1.2-0.7,3.1-1.8,4.9-2.6c0,0,0,0,0,0c0.1,0,0.1-0.1,0.2-0.1c0,0,0,0,0,0
					c0,0,0,0,0,0C263.6,22.3,264.9,36.6,265.5,45.7C265.5,45.7,265.5,45.7,265.5,45.7z"/>
			</g>
			<g>
				<path class="st30" d="M277.9,17.7c1.1,0.2,3.7,2.7,5.1,5.3c1.6,3,3.2,6.3,4.5,7.5c2.3,2,8.6,9.3,8.9,9.1c0.1-0.1-1.7,2.2-2,2.3
					c-0.1,0.1-10.4-8.8-11.4-10.2c-0.9-1.3-3.4-6.7-4.2-6.6c0,0,0,0,0,0c0,0,0,0,0,0c-0.1,0.1-1,2.1-1.8,5c0,0,0,0.1,0,0.1
					c-0.6,2-0.5,4.2-0.2,6.6c0.2,1.8,1.6,4.9,2.5,6.3c0.1,0.2,0.1,0.5,0,0.8v0c-0.1,0.2-0.2,0.3-0.3,0.3l-3,1.1l-0.7,0.3
					c-0.5,0.2-1,0.1-1.4-0.2c-0.3-0.2-0.6-0.6-0.6-1c-0.7-5.2-1.5-10.4-2.2-12.4c-3-8.7,1.2-15.2,1.2-15.2S277,17.3,277.9,17.7z"/>
			</g>
		</g>
		<g>
			<polygon class="st31" points="262.6,50.8 257.8,37.9 242.6,38.2 247.1,50.1 			"/>
		</g>
		<g>
			<path class="st32" d="M253,43.6c0.5,0.9,0.3,1.9-0.3,2.3c-0.6,0.3-1.5-0.2-2-1.1c-0.5-0.9-0.3-1.9,0.3-2.3
				C251.6,42.2,252.5,42.7,253,43.6z"/>
		</g>
		<g>
			<path class="st23" d="M269,8.4c0,0-1,1.5-0.1,2.8c0.9,1.3-0.2,2.6-0.4,4c-0.2,1.4,3.8,5.1-0.6,6.9c-4.4,1.9-5.8-1.2-4.7-2.9
				c1.1-1.7,1.9-3.1,2-5.5C265.3,11.4,266.1,7.6,269,8.4z"/>
		</g>
	</g>
	<g>
		<g>
			<g>
				<path class="st26" d="M444.5,196.9c0,0-0.9-1.5,0.5-5.7c1.3-4,6-3.6,7.5-1.1c1.5,2.6,1,4.1-1.2,7
					C449.1,200,445.4,198.2,444.5,196.9z"/>
			</g>
		</g>
		<g>
			<g>
				<path class="st26" d="M455.3,267.8c0,0,0.2,1.7,0.3,1.9c0,0.3,2.6-0.2,2.6-0.2l0.2-2C458.4,267.6,455.7,267.5,455.3,267.8z"/>
			</g>
		</g>
		<g>
			<g>
				<path class="st33" d="M455.6,269.5c0,0-0.8,1-1.6,1.5c-0.8,0.4-2,0.6-2.5,1.1c-0.3,0.3-1.2,1.8,2,1.7c3.2,0,4.8,0.2,5.1-0.3
					c0.3-0.5-0.5-4-0.5-4S457.4,269.6,455.6,269.5z"/>
			</g>
		</g>
		<g>
			<g>
				<path class="st26" d="M437.8,267.8c0,0,0.2,1.7,0.3,1.9c0,0.3,2.6-0.2,2.6-0.2l0.2-2C440.8,267.6,438.1,267.5,437.8,267.8z"/>
			</g>
		</g>
		<g>
			<g>
				<path class="st33" d="M438,269.5c0,0-0.8,1-1.6,1.5c-0.8,0.4-3.6,0.8-4.1,1.3c-0.3,0.3-0.9,1.7,3.7,1.5c3.2-0.1,4.8,0.2,5.1-0.3
					c0.3-0.5-0.5-4-0.5-4S439.6,269.6,438,269.5z"/>
			</g>
		</g>
		<g>
			<g>
				<path class="st34" d="M454.5,225.6c0,0,1.3,4,1.1,7.5c-0.2,3.5,0.7,7.3,1,10.9c0.4,4.1,2,13.7,2,15.8c0.1,2.2-0.2,9.1-0.2,9.1
					l-3.2,0.1c0,0-2.6-16.8-3.3-18.5c-0.7-1.7-4.1-13.9-4.2-15.3C447.6,233.9,454.5,225.6,454.5,225.6z"/>
			</g>
		</g>
		<g>
			<g>
				<path class="st34" d="M441.4,225.2c0,0-1.9,10.7-2.1,12.8c-0.2,2.1-0.4,10.3-0.5,11.7c-0.1,1.3-0.8,17.5-1.4,19.4h3.5
					c0,0,3.6-11.7,3.6-17.3s2.4-12.1,3.9-15.7c1.5-3.7,5.1-3.7,6-10.5C454.5,225.6,442.7,223.1,441.4,225.2z"/>
			</g>
		</g>
		<g>
			<g>
				<path class="st26" d="M445.8,198c0,0,0.4,1.2,0,2c-0.4,0.8,5.1,0.3,5.1,0.3s-0.2-1.7,0.5-3.1C452,195.8,445.8,198,445.8,198z"/>
			</g>
		</g>
		<g>
			<g>
				<path class="st35" d="M454.7,226.5c0,0-2,2-13.5-0.3l0.2-1l13.1,0.5L454.7,226.5z"/>
			</g>
		</g>
		<g>
			<g>
				<path class="st26" d="M445,200.2c0,0-2,0.2-2.6,0.3c-0.6,0.1-4.5-0.7-5.3-0.8c-0.8-0.1-4.2-2.4-4.3-2.7
					c-0.1-0.3-2.1-5.2-2.2-6.3c-0.1-1.1-1.9-0.5-1.8,0.2c0.3,1.4,0.7,4.7,0.9,5.7c0.2,1,0.8,3.4,1.1,3.7c0.3,0.3,3.4,2.6,6.4,3.6
					c3,1,5.2,2.4,5.2,2.4h14.8c0,0,5.7-8.2,5.9-9.4c0.1-1.2-4-9.4-4.8-10.5c-0.8-1-2,0.3-2,0.3s2.5,7.2,2.8,8.3
					c0.3,1-2.9,5.6-3.8,5.6c-0.9,0-3.1-0.3-4.1-0.3c-1,0-2.1-0.5-2.1-0.5L445,200.2z"/>
			</g>
		</g>
		<g>
			<g>
				<path class="st1" d="M438.6,205.7c0,0,1.8,1.2,2,3.3c0.2,2.1,0.8,5.3,1.2,6.4c0.3,1.1-0.3,9.2-0.4,9.8
					c-0.1,0.6,11.4,1.9,13.2,0.6c0,0,0.5-7.5,0.7-9.7c0.2-2.1,1.2-7.3,1.5-8c0.3-0.7,4.3-6.3,4.5-7c0,0-2.1-3.3-3.6-3.3
					c0,0-2.4,2.8-3.1,2.9c-0.8,0.1-5.5-0.7-5.5-0.7c0,0-0.5,0.7-3.2-0.1c0,0-3.3,0.4-3.8,0.4c-0.6,0.1-5.1-0.6-5.1-0.6
					s-1.8,3-1.5,4.5L438.6,205.7z"/>
			</g>
		</g>
		<g>
			<g>
				<path class="st26" d="M430.7,191.4c0,0-0.4-1.9,0.1-2.5c0.3-0.3,0.9-1.1,1-1.3c0.1-0.1,0.8-0.5,0.8-0.7c0-0.2-0.7-0.4-1.3,0.1
					c-0.6,0.6-1,0.7-1.2,0.6c-0.2-0.1-0.6-2.1-0.6-2.6c0-0.5-0.2-1.8-0.5-1.7c-0.3,0.1-0.3,0.7-0.3,0.7s-0.4-1-0.6-0.8
					c-0.2,0.2-0.2,0.7-0.2,0.7s-0.5-0.6-0.6-0.2c-0.1,0.4,0,0.8,0,0.8s-0.5-0.3-0.5,0.4c0,0.6,0.1,2.5,0.5,3.2
					c0.3,0.7,1.6,2.4,1.7,3.1C429,191.9,430.7,191.4,430.7,191.4z"/>
			</g>
		</g>
		<g>
			<g>
				<path class="st26" d="M456.7,188c0,0-1.4-2.3-1.8-2.5c-0.5-0.2-1.1-0.3-1.7-0.7c-0.6-0.4-1.3-0.8-1.3-0.9c0-0.1,0.7-0.1,1.4,0.2
					c0.7,0.3,1,0.2,1.1,0c0.1-0.2-0.4-1.3-0.6-1.6c-0.2-0.3-1.8-1.8-1.5-2.1c0.3-0.2,1.3,0.6,1.4,0.8c0,0-0.8-1.7-0.5-1.8
					c0.3-0.1,0.9,0.5,0.9,0.5s-0.1-1.5,1.5,0.9c0,0-0.3-0.8,0.2-0.5c0.5,0.3,0.9,1.7,1.1,2.5c0.2,0.7,0.8,3.1,1.4,3.7
					C458.9,187.1,456.7,188,456.7,188z"/>
			</g>
		</g>
		<g>
			<g>
				<path class="st36" d="M451.3,197.2c0,0-0.7,0.1-2.3-0.5c-1.5-0.5-1.7-3.2-2-2.9c-0.7,0.7-1.3,0.2-1.6-0.2c0,0,0.8-1,0.4-1.5
					c-0.3-0.5-0.9-0.8-0.9-0.8s1.1-5.2,6-2.8C456.8,191.3,451.3,197.2,451.3,197.2z"/>
			</g>
		</g>
		<g>
			<g>
				<path class="st37" d="M445.8,199.9l0.2-0.8c0,0,3.1-0.1,4.9,0.2l0.2,0.9C451,200.3,448.8,201.3,445.8,199.9z"/>
			</g>
		</g>
		<g>
			<g>
				<path class="st26" d="M446.6,193.1c0.3-0.5,1.3-0.8,1.5,0.5c0.1,1-1.9,2.2-1.9,1.2C446.1,193.9,446.4,193.4,446.6,193.1z"/>
			</g>
		</g>
		<g>
			<g>
				<path class="st38" d="M430.7,191c0,0-1.1,0-1.7,0.5c0,0,0,0.3,0.1,0.6c0,0,1-0.5,1.7-0.5C430.8,191.5,430.8,191.1,430.7,191z"/>
			</g>
		</g>
		<g>
			<g>
				<path class="st36" d="M429.3,191.3c-0.1,0.2,0,0.5,0.3,0.6c0.2,0.1,0.5,0,0.6-0.3c0.1-0.2,0-0.5-0.3-0.6
					C429.7,190.9,429.4,191,429.3,191.3z"/>
			</g>
		</g>
	</g>
</g>
<g>
	<g>
		<path class="st10" d="M305.4,49.3l1.2-2.7c1.3,0.9,3.1,1.6,4.9,1.6c2,0,2.9-0.7,2.9-1.6c0-2.9-8.6-0.9-8.6-6.6
			c0-2.6,2-4.8,6.3-4.8c1.9,0,3.8,0.5,5.2,1.4l-1.1,2.7c-1.4-0.8-2.8-1.2-4.1-1.2c-2,0-2.8,0.8-2.8,1.8c0,2.8,8.6,0.9,8.6,6.5
			c0,2.6-2.1,4.8-6.3,4.8C309.1,51.1,306.7,50.4,305.4,49.3z"/>
		<path class="st10" d="M331,45.9h-8.6c0.3,1.5,1.5,2.4,3.3,2.4c1.2,0,2.1-0.4,2.9-1.1l1.8,2c-1.1,1.3-2.7,1.9-4.7,1.9
			c-3.9,0-6.5-2.6-6.5-6.1c0-3.5,2.6-6.1,6.1-6.1c3.4,0,5.9,2.3,5.9,6.1C331.1,45.2,331,45.6,331,45.9z M322.3,43.9h5.6
			c-0.2-1.5-1.3-2.5-2.8-2.5C323.7,41.4,322.6,42.4,322.3,43.9z"/>
		<path class="st10" d="M332.4,44.9c0-3.6,2.7-6.1,6.4-6.1c2.4,0,4.3,1.1,5.1,3l-2.6,1.4c-0.6-1.1-1.5-1.6-2.6-1.6
			c-1.7,0-3,1.2-3,3.3s1.3,3.3,3,3.3c1,0,2-0.5,2.6-1.6l2.6,1.5c-0.8,1.9-2.7,3-5.1,3C335.1,51,332.4,48.5,332.4,44.9z"/>
	</g>
</g>
</svg>
