<?xml version="1.0" encoding="utf-8"?>
<!-- Generator: Adobe Illustrator 26.3.1, SVG Export Plug-In . SVG Version: 6.00 Build 0)  -->
<svg version="1.1" id="Layer_1" xmlns="http://www.w3.org/2000/svg" xmlns:xlink="http://www.w3.org/1999/xlink" x="0px" y="0px"
	 viewBox="0 0 748.22 779.37" style="enable-background:new 0 0 748.22 779.37;" xml:space="preserve">
<g>
	<g>
		<g>
			<linearGradient id="SVGID_1_" gradientUnits="userSpaceOnUse" x1="2.153458e-05" y1="435.2348" x2="727.7046" y2="435.2348">
				<stop  offset="0" style="stop-color:#AB316D"/>
				<stop  offset="1" style="stop-color:#792D3D"/>
			</linearGradient>
			<path style="fill:url(#SVGID_1_);" d="M0,170.85v516.23c0,7.28,5.9,12.88,13.15,12.52l704.26-35.25
				c5.69-0.28,10.29-5.72,10.29-12.15V196.42L0,170.85z"/>
			
				<linearGradient id="SVGID_00000147208715734948803360000000152572337991979923_" gradientUnits="userSpaceOnUse" x1="242.3749" y1="90.6795" x2="163.6225" y2="34.2155">
				<stop  offset="0" style="stop-color:#AA80F9"/>
				<stop  offset="0.9964" style="stop-color:#6165D7"/>
			</linearGradient>
			<path style="fill:url(#SVGID_00000147208715734948803360000000152572337991979923_);" d="M717.41,171.44l-704.26-27.9
				C5.9,143.25,0,148.92,0,156.2v22.47l727.7,24.66v-19.83C727.7,177.06,723.1,171.67,717.41,171.44z"/>
			
				<linearGradient id="SVGID_00000116941841874468749330000008407092514683811472_" gradientUnits="userSpaceOnUse" x1="55.2221" y1="259.0343" x2="1507.0574" y2="1114.9509">
				<stop  offset="0" style="stop-color:#FFC444"/>
				<stop  offset="0.9964" style="stop-color:#F36F56"/>
			</linearGradient>
			<path style="fill:url(#SVGID_00000116941841874468749330000008407092514683811472_);" d="M7.43,170.85v516.23
				c0,7.28,5.9,12.88,13.15,12.52l704.26-35.25c5.69-0.28,10.29-5.72,10.29-12.15V196.42L7.43,170.85z"/>
			<path style="fill:#0E5BA9;" d="M724.84,171.44l-704.26-27.9c-7.26-0.29-13.15,5.38-13.15,12.66v22.47l727.7,24.66v-19.83
				C735.13,177.06,730.53,171.67,724.84,171.44z"/>
			<path style="fill:#FFFFFF;" d="M37.86,161.23c0,3.22-2.6,5.74-5.81,5.62c-3.21-0.12-5.82-2.82-5.82-6.05
				c0-3.23,2.61-5.74,5.82-5.62C35.26,155.3,37.86,158.01,37.86,161.23z"/>
		</g>
		<g style="opacity:0.6;">
			<path style="fill:#FFFFFF;" d="M49.75,308.37c-6.69,4.04-13.15,12.97-11.68,22.85c1.49,10.02,10.45,16.41,17.51,18.51
				c9.92,2.95,13.19-3.44,23.85-2.46c16.12,1.49,28.65,17.97,33.88,30.12c5.14,11.94,1.13,14.84,4.45,28.58
				c5.83,24.13,23.87,38.85,41.04,52.85c14.28,11.64,36.02,25.68,39.93,21.43c1.4-1.52,0.14-4.97-0.62-7.05
				c-3.01-8.26-9.9-10.11-19.29-17.79c-6.68-5.47-15.12-12.38-13.75-17.93c1.35-5.47,12.03-8.91,19.99-6.56
				c7.96,2.36,12.23,10.24,14.29,14.04c1.76,3.25,1.47,7.48,3.1,7.67c1.13,0.14,2.38-1.59,2.94-3.07c1.45-3.81-1.09-7.46-2.01-10.4
				c-2.13-6.77,2.92-14.11,7.94-21.4c8.39-12.2,13.31-12.3,26.26-26.46c8.66-9.46,12.99-14.33,13.46-21.22
				c0.81-11.81-8.96-20.66-10.6-22.14c-7.91-7.16-21.34-12.11-27.06-7.01c-5.14,4.57,0.27,13.38-5.77,20.03
				c-4.22,4.66-11.61,5.58-17.36,3.77c-8.14-2.55-12.82-10.49-13.29-17.65c-0.09-1.41-0.52-7.94,3.74-12.41
				c1.22-1.27,4.17-3.81,14.1-4.16c13.94-0.49,16.85,4.21,25.16,2.37c6.92-1.53,15.27-7.08,15.17-12.63
				c-0.12-6.49-11.72-7.27-25.04-22.05c-5.19-5.76-9.41-10.58-9.08-16.81c0.47-8.76,9.72-15.54,11.55-16.88
				c7.19-5.27,13.56-9.54,13.56-9.54c1.79-1.2,4.4-2.92,4.1-4.6c-0.2-1.1-1.6-1.88-4.1-2.64c-7.91-2.41-13.97-1.16-13.97-1.16
				c-9.42,1.94-12.42,6.59-23.97,12.76c-4.67,2.49-12.55,6.7-23.31,8.99c-12.29,2.62-16.52,0.23-22.63,4.76
				c-5.9,4.37-4.04,8.13-10.11,14.94c-6.36,7.14-14.14,9.44-26.25,13.03c-4.64,1.38-14.03,3.85-26.88,4.86
				C60.66,307.35,56.78,304.13,49.75,308.37z"/>
			<path style="fill:#FFFFFF;" d="M250.22,253.76c-12.75,3.23-23.85,6.04-26.16,13.94c-1.2,4.11-0.08,9.78,3.28,12.84
				c6.69,6.07,16.78-3.18,24.1,2.1c3.91,2.83,2.43,6.48,6.91,26.82c2.99,13.56,5.44,20.08,10.14,25.95
				c2.66,3.33,6.4,7.99,10.11,7.27c5.49-1.06,3.41-12.48,12.09-20.58c3.04-2.84,3.6-1.71,18.05-8.64
				c8.42-4.04,12.65-6.09,13.57-7.81c4.75-8.82-7.86-19.79-2.79-30.28c0.96-1.98,1.09-0.93,7.57-9.1c7.44-9.38,7.35-10.86,7.15-11.6
				c-0.83-3.11-6.36-3.46-20.71-5.48c-23.87-3.37-25.81-4.84-32.92-3.25c-4.72,1.05-5.98,2.17-16.18,4.72
				C256.47,252.67,255.58,252.41,250.22,253.76z"/>
			<path style="fill:#FFFFFF;" d="M217.9,480c-7.08,5.42-8.49,14.72-9.06,18.48c-1.41,9.32,1.23,15.37,6.18,30.63
				c6,18.53,9,27.78,9.45,33.05c0.7,8.17-0.76,9.63-6.57,41.96c-4.33,24.06-4.79,30.3-0.82,34.58c5.83,6.28,18.36,5.23,18.86,3.57
				c0.24-0.81-2.46-1.43-4.5-4.09c-4.55-5.93-1.27-16.05-0.41-18.72c3.4-10.52,9.91-15.14,20.41-25.73
				c12.39-12.47,20.44-20.59,26.35-32.49c2.94-5.91,9.19-18.94,7.26-35.65c-0.39-3.37-2.02-14.74-10.09-26.02
				c-10.49-14.66-24.67-19.12-28.82-20.35C238.06,476.8,226.54,473.37,217.9,480z"/>
			<path style="fill:#FFFFFF;" d="M337.82,420.23c-4.54,9.01-9.55,18.99-11.52,28.16c-1.76,8.21-3.44,26.82,5.57,33.92
				c8.14,6.41,17.53-2.51,28.88,4.62c5.78,3.64,8.33,9.09,11.4,15.67c6.6,14.14,3.45,22.05,6.27,40.28
				c1.33,8.57,5.53,35.77,16.02,37.43c8.74,1.38,18.23-15.54,19.82-18.37c4.21-7.5,5.83-15.25,8.9-30.41
				c4.14-20.44,2.6-23.27,6.95-29.06c5.59-7.44,12.37-8.38,13.85-15.48c1.09-5.22-1.51-9.87-3.07-12.74
				c-5.77-10.61-13.83-9.35-19.27-19.61c-3.13-5.9-3.98-12.94-2.71-13.63c1.13-0.62,4.28,3.67,5.8,5.75
				c4.68,6.38,4.1,8.71,6.94,11.92c5.74,6.49,15.42,5.29,16.15,5.19c4.44-0.62,12.42-3.35,13.39-8.78c0.75-4.18-2.89-8.6-7.26-13.92
				c-3.53-4.3-6.18-6.13-5.75-6.96c0.44-0.84,3.58,0.23,11.86,3.22c8.99,3.24,13.47,4.86,14.1,5.24c3.02,1.82,5.59,4.3,14.04,19.13
				c8.55,15.02,11.66,22.57,13.6,21.92c0.97-0.32,0.8-2.4,1.51-9.41c1.06-10.5,1.64-15.82,4.14-19.64c2.11-3.22,6.62-7.6,11.27-7.03
				c2.79,0.34,6.15,4.95,12.73,14.12c6.48,9.04,8.67,12.11,13.05,14.47c2.3,1.24,6.42,3.46,9.66,1.5c3.6-2.17,4.83-8.72,3.34-13.41
				c-1.81-5.67-6.82-6.17-6.68-9.66c0.21-4.97,10.59-8.32,11.49-8.61c6.69-2.1,8.4,0.2,11.82-2.12c5.08-3.44,7.17-12.46,5.89-19.42
				c-1.31-7.17-5.77-9.79-4.42-12.9c1.14-2.61,4.7-1.71,11.77-3.66c5.24-1.45,12.98-3.58,17.21-10.09
				c2.52-3.87,2.96-8.02,3.65-14.46c0.11-1.07,0.61-6.03,0-12.86c-0.85-9.45-2.72-10.12-1.82-12.87c1.97-6.03,11.45-4.31,29.42-9.83
				c10.26-3.16,17.66-6.95,18.39-5.45c0.91,1.88-11.08,7.17-11.88,17.08c-0.61,7.51,5.4,15.12,7.93,14.41
				c2.09-0.59,0.58-6.51,4.32-15.14c1.38-3.18,3.46-8,7.9-11.11c5.32-3.73,8.45-1.1,13.24-5.07c3.82-3.18,2.86-5.73,6.06-9.08
				c7.25-7.6,19.46-2.12,20.24-4.95c0.72-2.61-8.68-10.94-20.96-12.93c-10.93-1.77-12.61,3.35-25.05,3.28
				c-7.07-0.04-15.64-3.22-32.86-9.61c-9.74-3.61-14.82-6.07-23.68-6.75c-6.17-0.48-6.36,0.5-12.83-0.18
				c-7.34-0.78-16.45-1.75-23.59-8.43c-5.6-5.25-3.89-8.3-8.52-11.48c-7.48-5.14-17.73-1.15-26.45,2.39
				c-9.27,3.76-15.86,8.41-27.04,16.29c-13.02,9.18-17.39,13.78-24.61,12.77c-5.4-0.75-6.5-3.81-12.57-3.85
				c-4.91-0.03-6.45,1.95-16.45,6.38c-9.68,4.29-14.62,6.42-18.85,5.56c-6.55-1.33-6.8-6.19-13.92-9.26
				c-7.59-3.28-14.85-1-23.72,1.78c-10.97,3.44-21.78,6.84-27.04,16.78c-5.57,10.54-0.4,19.9-6.7,24.58
				c-5.22,3.89-10.58-1.22-15.41,2.84c-5.81,4.89-4.08,17.31-3.17,23.86c1.8,12.91,6.27,16.08,4.75,25.12
				C342.7,411.66,341.51,412.9,337.82,420.23z"/>
			<path style="fill:#FFFFFF;" d="M443.95,526.97c-2.7-0.24-7.23,11.43-6.15,22.4c0.06,0.65,0.96,9.16,3.46,9.4
				c2.33,0.22,4.74-6.81,4.99-7.54c0.41-1.2,1.63-5.13,1.15-11.56C447.28,537.87,446.49,527.2,443.95,526.97z"/>
			<path style="fill:#FFFFFF;" d="M540.4,498.6c-0.2,0.51,0.56,1.36,2.67,3.15c5.57,4.73,8.35,7.09,12.94,8.75
				c3.96,1.43,13.79,3.99,15.9,0.11c1.35-2.48-0.59-7.38-3.69-9.64c-3.31-2.4-5.79-0.24-13.7-0.58
				C546.33,500.03,540.88,497.35,540.4,498.6z"/>
			<path style="fill:#FFFFFF;" d="M568.22,477.12c-1.63,0.3-1.22,3.8-4.44,11.39c-1.5,3.54-2.32,4.49-1.85,5.69
				c1.03,2.65,7.26,3.84,10.35,0.65c2.88-2.98,1.57-8.26,1.11-10.12C572.51,481.21,570.13,476.76,568.22,477.12z"/>
			<path style="fill:#FFFFFF;" d="M601.29,506.04c1.22,1.93,3.3,4.3,8.4,6.68c1.78,0.83,14.88,6.94,18.18,2.06
				c1.34-1.99,0.68-5.24-0.36-7.2c-1.62-3.03-4.58-3.72-9.44-5.04c-14.5-3.96-17.78-5.93-18.96-4.1
				C597.77,500.5,600.62,504.99,601.29,506.04z"/>
			<path style="fill:#FFFFFF;" d="M576.71,462.87c-1.74,0.61-1.63,9.28,1.47,16.13c1.61,3.56,4.55,7.77,5.89,7.18
				c1.45-0.64,0.71-6.75-0.37-10.88C582.09,469.16,578.39,462.29,576.71,462.87z"/>
			<path style="fill:#FFFFFF;" d="M590.67,422.03c0.03-2.03,4.62-1.56,10.62-5.68c4.16-2.86,10.26-8.8,13.5-16.9
				c0.66-1.64,1.33-3.72,1.82-3.61c0.74,0.16,0.83,5.23,0,9.63c-1.53,8.13-6.47,15.43-12.76,18.92c-2.47,1.37-4.31,1.69-5.85,1.64
				C594.57,425.92,590.65,423.91,590.67,422.03z"/>
			<path style="fill:#FFFFFF;" d="M578.18,540.36c-8.06,7.79-12.46,6.5-13.65,10.83c-1.35,4.91,4.18,6.99,5.17,16.85
				c0.62,6.13-1.08,9.63,0.37,10.5c2.2,1.32,5.84-6.89,14.36-10.09c0.66-0.25,9.58-3.45,16.86,1.14c4.22,2.67,3.69,5.31,10.58,11.75
				c4.41,4.12,6.69,6.2,9.46,5.73c4.55-0.77,7.13-7.9,8.71-12.28c1.31-3.62,4.3-11.93,2.17-21.67c-0.92-4.22-1.6-3.21-14.15-22.51
				c-3.47-5.34-4.87-7.64-8.01-9.06c-6.42-2.9-13.46,0.88-14.61,1.5c-2.52,1.36-4.74,3.65-9.17,8.25
				C581.03,536.74,581.36,537.29,578.18,540.36z"/>
		</g>
	</g>
	<g>
		<path style="fill:#FFFFFF;" d="M386.08,59.46v111.75c0,3.71,3.06,6.83,6.84,6.97l230.45,8.3c3.66,0.13,6.62-2.72,6.61-6.38
			l-0.19-109.93L386.08,59.46z"/>
		
			<linearGradient id="SVGID_00000029019335447775267270000000462418489301017249_" gradientUnits="userSpaceOnUse" x1="526.3844" y1="31.9781" x2="427.4642" y2="193.6912">
			<stop  offset="0" style="stop-color:#FFC444"/>
			<stop  offset="0.9964" style="stop-color:#F36F56"/>
		</linearGradient>
		<path style="fill:url(#SVGID_00000029019335447775267270000000462418489301017249_);" d="M623.14,55.94L392.91,45.6
			c-3.77-0.17-6.83,2.7-6.83,6.4v11.44l243.71,10.65l-0.02-11.26C629.77,59.19,626.8,56.1,623.14,55.94z"/>
		<g>
			<g>
				<g>
					
						<linearGradient id="SVGID_00000000211942096817588680000017149689747046884238_" gradientUnits="userSpaceOnUse" x1="-8764.2451" y1="86.1524" x2="-8723.0391" y2="231.8476" gradientTransform="matrix(-1 1.300000e-03 1.300000e-03 1 -8287.3115 5.5248)">
						<stop  offset="0" style="stop-color:#FFC444"/>
						<stop  offset="0.9964" style="stop-color:#F36F56"/>
					</linearGradient>
					<path style="fill:url(#SVGID_00000000211942096817588680000017149689747046884238_);" d="M442.19,121.14l12.65-43.05
						c19.19,6.91,33.07,25.19,33.19,46.12L442.19,121.14z"/>
				</g>
				<g>
					<path style="fill:#EBEFF2;" d="M476.18,126.49c-0.71,9.93-5.55,18.57-12.86,24.32l-19.91-26.55L476.18,126.49z"/>
					<path style="fill:#EBEFF2;" d="M439.36,119.54c-7.67-7.55-16.93-16.67-24.28-23.94c6.52-5.84,15.33-9.21,25.02-8.81
						c2.94,0.12,5.8,0.59,8.53,1.36L439.36,119.54z"/>
					<path style="fill:#EBEFF2;" d="M437.76,122.21l-27.81,19.03c-3.89-5.85-6.16-12.8-6.16-20.18c0-9.1,3.45-17.26,9.13-23.34
						c2.04,2.01,4.3,4.25,6.78,6.7C427.21,111.83,434.77,119.27,437.76,122.21z"/>
					<path style="fill:#EBEFF2;" d="M438.57,125.45l-0.53,32.65c-10.59-0.99-19.98-6.42-26.24-14.32L438.57,125.45z"/>
					<path style="fill:#EBEFF2;" d="M441.65,126.96l19.22,25.62c-5.61,3.67-12.39,5.76-19.72,5.68L441.65,126.96z"/>
				</g>
			</g>
			<polygon style="fill:#EBEFF2;" points="612.68,105.14 494.51,100.23 494.51,89.17 612.66,94.16 			"/>
			<polygon style="fill:#EBEFF2;" points="612.71,125.01 494.53,120.26 494.52,109.19 612.7,114.03 			"/>
			<polygon style="fill:#EBEFF2;" points="612.75,144.88 494.55,140.3 494.54,129.22 612.73,133.9 			"/>
			<polygon style="fill:#EBEFF2;" points="612.78,164.76 494.56,160.33 494.55,149.26 612.76,153.78 			"/>
		</g>
		<path style="fill:#FFFFFF;" d="M401.77,54.94c0,1.65-1.36,2.92-3.03,2.85c-1.68-0.07-3.04-1.47-3.04-3.12
			c0-1.65,1.36-2.92,3.04-2.85C400.42,51.89,401.77,53.29,401.77,54.94z"/>
	</g>
	<g>
		<g>
			<path style="fill:#FFFFFF;" d="M386.08,210.99v112c0,3.72,3.23,6.67,7.2,6.59l230.66-4.77c3.49-0.07,6.3-2.95,6.29-6.42
				l-0.18-104.62L386.08,210.99z"/>
			<path style="fill:#F36523;" d="M623.72,200.4l-230.45-3.51c-3.97-0.06-7.19,2.9-7.19,6.62v11.47l243.97,2.52l-0.02-10.71
				C630.03,203.31,627.2,200.45,623.72,200.4z"/>
			<path style="fill:#FFFFFF;" d="M402.57,205.96c0,1.64-1.42,2.96-3.18,2.94c-1.76-0.02-3.18-1.37-3.18-3.02
				c0-1.65,1.43-2.96,3.18-2.94C401.14,202.97,402.57,204.32,402.57,205.96z"/>
		</g>
		<g>
			<polygon style="fill:#EBEFF2;" points="435.52,314.17 417.48,314.47 417.46,231.12 435.49,231.22 			"/>
			<polygon style="fill:#F36523;" points="435.52,314.17 417.48,314.47 417.47,274.88 435.51,274.78 			"/>
			<polygon style="fill:#EBEFF2;" points="460.33,313.76 442.53,314.05 442.5,231.27 460.28,231.37 			"/>
			<polygon style="fill:#F36523;" points="460.33,313.76 442.53,314.05 442.52,294.39 460.32,294.19 			"/>
			<polygon style="fill:#EBEFF2;" points="484.8,313.35 467.24,313.64 467.19,231.42 484.74,231.52 			"/>
			<polygon style="fill:#F36523;" points="484.8,313.35 467.24,313.64 467.24,303.39 484.79,303.14 			"/>
			<polygon style="fill:#EBEFF2;" points="508.94,312.94 491.62,313.23 491.56,231.56 508.87,231.67 			"/>
			<polygon style="fill:#F36523;" points="508.94,312.94 491.62,313.23 491.57,249.25 508.88,249.26 			"/>
			<polygon style="fill:#EBEFF2;" points="532.76,312.55 515.67,312.83 515.6,231.71 532.68,231.81 			"/>
			<polygon style="fill:#F36523;" points="532.76,312.55 515.67,312.83 515.62,256.49 532.7,256.48 			"/>
			<polygon style="fill:#EBEFF2;" points="556.27,312.15 539.41,312.44 539.32,231.85 556.17,231.95 			"/>
			<polygon style="fill:#F36523;" points="556.27,312.15 539.41,312.44 539.33,243.56 556.19,243.61 			"/>
			<polygon style="fill:#EBEFF2;" points="579.47,311.77 562.83,312.05 562.72,231.99 579.36,232.09 			"/>
			<polygon style="fill:#F36523;" points="579.47,311.77 562.83,312.05 562.76,262.86 579.4,262.82 			"/>
			<polygon style="fill:#EBEFF2;" points="602.36,311.39 585.94,311.66 585.82,232.13 602.24,232.23 			"/>
			
				<linearGradient id="SVGID_00000113313085367055622500000010275064035635290806_" gradientUnits="userSpaceOnUse" x1="600.7695" y1="276.9951" x2="584.9973" y2="326.2153">
				<stop  offset="0" style="stop-color:#FF9085"/>
				<stop  offset="1" style="stop-color:#FB6FBB"/>
			</linearGradient>
			<polygon style="fill:url(#SVGID_00000113313085367055622500000010275064035635290806_);" points="602.36,311.39 585.94,311.66 
				585.9,284.04 602.32,283.89 			"/>
		</g>
	</g>
	<g>
		
			<linearGradient id="SVGID_00000098909006735525296480000005661081574555903927_" gradientUnits="userSpaceOnUse" x1="1186.8202" y1="462.7934" x2="1191.047" y2="516.5892" gradientTransform="matrix(1 0 0 1 -626.2627 0)">
			<stop  offset="3.597000e-03" style="stop-color:#26264F"/>
			<stop  offset="1" style="stop-color:#444B8C"/>
		</linearGradient>
		<path style="fill:url(#SVGID_00000098909006735525296480000005661081574555903927_);" d="M568.8,489.62c0,0-17.01,7.73-17.29,8.97
			c-0.28,1.23,10.94-0.41,15.52-0.24c4.58,0.18,8.35-1.18,7.93-3.12c-0.41-1.94-2.02-6.82-2.02-6.82L568.8,489.62z"/>
		
			<linearGradient id="SVGID_00000098185115491594713090000016783052262609059244_" gradientUnits="userSpaceOnUse" x1="1197.7322" y1="492.7435" x2="1196.9637" y2="437.028" gradientTransform="matrix(1 0 0 1 -626.2627 0)">
			<stop  offset="0" style="stop-color:#AB316D"/>
			<stop  offset="1" style="stop-color:#792D3D"/>
		</linearGradient>
		<path style="fill:url(#SVGID_00000098185115491594713090000016783052262609059244_);" d="M568.18,483.35l1.04,7.66
			c0,0,2.69,0.96,4.5-0.17l0.77-8.4L568.18,483.35z"/>
		
			<linearGradient id="SVGID_00000127009015827721521770000013076523461989109658_" gradientUnits="userSpaceOnUse" x1="1266.6968" y1="456.5181" x2="1270.9236" y2="510.3128" gradientTransform="matrix(1 0 0 1 -626.2627 0)">
			<stop  offset="3.597000e-03" style="stop-color:#26264F"/>
			<stop  offset="1" style="stop-color:#444B8C"/>
		</linearGradient>
		<path style="fill:url(#SVGID_00000127009015827721521770000013076523461989109658_);" d="M648.31,483.53l1.98,3.18
			c0.55,0.89,0.72,1.96,0.45,2.97c-0.69,2.64-2.07,7.79-2.68,9.13c-0.82,1.83-11.83,2.92-11.83,2.92s-0.98-1.38,1.3-3.05
			c2.29-1.67,3.76-1.93,4.56-4.39c0.81-2.46,1.34-9.43,1.34-9.43L648.31,483.53z"/>
		
			<linearGradient id="SVGID_00000016783128381303261960000016734209825916523155_" gradientUnits="userSpaceOnUse" x1="1270.9354" y1="491.7337" x2="1270.167" y2="436.017" gradientTransform="matrix(1 0 0 1 -626.2627 0)">
			<stop  offset="0" style="stop-color:#AB316D"/>
			<stop  offset="1" style="stop-color:#792D3D"/>
		</linearGradient>
		<path style="fill:url(#SVGID_00000016783128381303261960000016734209825916523155_);" d="M640.07,475.46
			c0.72,0.58,4.26,11.31,4.26,11.31s1.14,1.46,3.32-0.7c2.17-2.16,0.98-0.97,0.98-0.97l-0.41-10.56L640.07,475.46z"/>
		
			<linearGradient id="SVGID_00000015351022016601598440000011766223661308600744_" gradientUnits="userSpaceOnUse" x1="558.1726" y1="402.4847" x2="599.3676" y2="402.4847">
			<stop  offset="0" style="stop-color:#311944"/>
			<stop  offset="1" style="stop-color:#6B3976"/>
		</linearGradient>
		<path style="fill:url(#SVGID_00000015351022016601598440000011766223661308600744_);" d="M558.82,329.44
			c-0.9,22.85-0.93,47.68,0.38,74.2c1.48,29.87,4.46,57.47,8.2,82.49c1.39,0.04,2.86,0.05,4.39,0.01c1.03-0.03,2.03-0.08,3-0.15
			c1.95-5.19,4.25-12.01,6.3-20.16c2.17-8.57,3.47-16.26,4.4-23.61c3.28-25.88-0.56-28.14,2.1-47.32
			c2.35-16.99,5.7-17.65,9.64-41.77c4.27-26.17,1.09-30.1-0.45-31.51C590.2,315.58,574.76,319.7,558.82,329.44z"/>
		
			<linearGradient id="SVGID_00000126297410322563103490000008461717402540825017_" gradientUnits="userSpaceOnUse" x1="561.0212" y1="402.4864" x2="599.3674" y2="402.4864">
			<stop  offset="3.597000e-03" style="stop-color:#26264F"/>
			<stop  offset="1" style="stop-color:#444B8C"/>
		</linearGradient>
		<path style="opacity:0.3;fill:url(#SVGID_00000126297410322563103490000008461717402540825017_);" d="M596.78,321.62
			c-6.27-5.76-20.61-2.27-35.75,6.52c17.42,18.82,19.32,31.04,17.23,38.96c-2.36,8.96-9.54,11.53-9.51,21.33
			c0.03,12.03,10.89,15.22,10.66,27.95c-0.15,8.42-4.92,8.33-6.05,18.73c-1.33,12.3,4.9,16.54,2.88,25.65
			c-0.87,3.92-3.35,9.03-10.41,14.31c0.51,3.74,1.03,7.44,1.58,11.07c1.39,0.04,2.86,0.05,4.39,0.01c1.03-0.03,2.03-0.08,3-0.15
			c1.95-5.19,4.25-12.01,6.3-20.16c2.17-8.57,3.47-16.26,4.4-23.61c3.28-25.88-0.56-28.14,2.1-47.32
			c2.35-16.99,5.7-17.65,9.64-41.77C601.49,326.97,598.32,323.04,596.78,321.62z"/>
		
			<linearGradient id="SVGID_00000133526219914720095640000002463303281850261897_" gradientUnits="userSpaceOnUse" x1="569.6092" y1="398.424" x2="652.5392" y2="398.424">
			<stop  offset="0" style="stop-color:#311944"/>
			<stop  offset="1" style="stop-color:#6B3976"/>
		</linearGradient>
		<path style="fill:url(#SVGID_00000133526219914720095640000002463303281850261897_);" d="M569.61,329.06
			c15,21.95,31.18,49.27,45.65,81.97c10.94,24.71,18.87,47.91,24.69,68.59c0.79,0.36,2.65,1.09,5.02,0.78
			c3.24-0.43,5.18-2.5,5.69-3.07c2.37-14.82,2.11-27.38,1.3-36.44c-0.51-5.8-1.43-15.46-5.12-27.39
			c-4.14-13.36-6.99-14.11-12.39-28.24c-5.61-14.67-4.25-18.33-9.62-36.69c-2.21-7.54-5.9-18.76-11.99-32.19
			C598.43,320.6,584.02,324.83,569.61,329.06z"/>
		
			<linearGradient id="SVGID_00000154425774433614093250000001497983431639302832_" gradientUnits="userSpaceOnUse" x1="-3204.7202" y1="190.8615" x2="-3227.4631" y2="259.0908" gradientTransform="matrix(-0.9998 0.0218 0.0218 0.9998 -2721.7512 32.1234)">
			<stop  offset="0" style="stop-color:#AB316D"/>
			<stop  offset="1" style="stop-color:#792D3D"/>
		</linearGradient>
		<path style="fill:url(#SVGID_00000154425774433614093250000001497983431639302832_);" d="M498.65,172.81c0,0-2.91-3.48-4.77-6.08
			c-1.86-2.6-10.41-9.82-10.41-9.82s-0.61,1.19,1.23,3.03c1.85,1.84,5.72,4.98,4.88,6.36c-0.84,1.38-3.28,2.64-1.45,5.17
			c1.83,2.53,4.88,0.71,6.51,2.74c1.62,2.03,3.29,4.25,3.29,4.25L498.65,172.81z"/>
		<path style="fill:#0E5BA9;" d="M499.06,169.15c-1.94,2.44-3.88,4.87-5.83,7.31c2.48,10.74,7.78,26.94,20.09,42.66
			c13.05,16.67,40.88,41.64,58.2,33.45c10.56-4.99,24.81-22.11,19.69-30.36c-4.92-7.94-26.24-4.18-40.87-7.49
			C535.99,211.48,517.37,201.04,499.06,169.15z"/>
		<path style="fill:#0E5BA9;" d="M632.82,232.52c0,0,11.35,38.64,4.32,53.5c-7.03,14.87-29.46-1.46-29.46-1.46L632.82,232.52z"/>
		
			<linearGradient id="SVGID_00000136392431223836606440000007132730944797409195_" gradientUnits="userSpaceOnUse" x1="535.0553" y1="303.3156" x2="567.0856" y2="303.3156" gradientTransform="matrix(0.9998 -0.0218 0.0218 0.9998 63.55 -28.6533)">
			<stop  offset="0" style="stop-color:#AA80F9"/>
			<stop  offset="0.9964" style="stop-color:#6165D7"/>
		</linearGradient>
		<path style="opacity:0.3;fill:url(#SVGID_00000136392431223836606440000007132730944797409195_);" d="M630.72,232.56
			c0,0,11.35,38.64,4.32,53.5c-7.03,14.87-29.46-1.46-29.46-1.46L630.72,232.56z"/>
		<path style="fill:#0E5BA9;" d="M597.52,218.23c-14.58-0.27-25.81,0.21-32.02,6.69c-6.56,6.85,0.38,14.26-0.69,31.82
			c-1.64,26.88-18.6,33.8-19.29,61.05c-0.23,9.18,1.48,16.64,2.79,21.13c3.85,4.59,10.14,11.05,19.32,16.37
			c13.36,7.74,20.98,6.17,40.03,10.94c31.16,7.8,34.14,17.84,49.45,14.93c15.47-2.94,28.8-16.3,27-23.44
			c-1.08-4.28-7.31-2.92-14.66-9.32c-9.47-8.24-6.07-16.38-13.32-25.31c-10.43-12.82-24.38-4.54-33.27-15.65
			c-8.99-11.24-6.01-33.84,1.09-46.27c4.64-8.12,6.49-17.57,10.41-26.06c0.33-0.71,0.7-1.86,0.49-3.29
			c-0.78-5.46-9.98-8.23-16.94-10.26C607.29,218.47,598.72,218.25,597.52,218.23z"/>
		
			<linearGradient id="SVGID_00000122696098224527435100000008055538325298971304_" gradientUnits="userSpaceOnUse" x1="-731.7596" y1="245.9789" x2="-719.1089" y2="266.0863" gradientTransform="matrix(0.9998 -0.0218 0.0218 0.9998 1312.8162 -55.8884)">
			<stop  offset="0" style="stop-color:#FF9085"/>
			<stop  offset="1" style="stop-color:#FB6FBB"/>
		</linearGradient>
		<path style="fill:url(#SVGID_00000122696098224527435100000008055538325298971304_);" d="M583.33,217.94l2.85-0.95
			c0,0,0.84,3.87,10.09,4.16c5.13-0.11,8.38-3.06,8.38-3.06l1.99,1.39c0,0-4.19,5.47-11.04,5.49
			C586.76,224.98,583.33,217.94,583.33,217.94z"/>
		<g>
			
				<linearGradient id="SVGID_00000052071415637944717040000007321346774613222068_" gradientUnits="userSpaceOnUse" x1="50.5149" y1="901.976" x2="35.7065" y2="925.9307" gradientTransform="matrix(0.9519 -0.3063 0.3063 0.9519 272.598 -644.202)">
				<stop  offset="0" style="stop-color:#AB316D"/>
				<stop  offset="1" style="stop-color:#792D3D"/>
			</linearGradient>
			<path style="fill:url(#SVGID_00000052071415637944717040000007321346774613222068_);" d="M585.67,205.43
				c-0.78-4.24,1.6-7.88,2.12-8.66c2.19-3.28,2.71-3.71,3.66-4.22l1.31-0.65c0,0,0.07-0.02,0.15-0.04c0.82-0.21,3.54-0.05,4.08,0.12
				c1.72,0.54,2.94,7.86,1.48,17.93c0.07,0.79,0.14,1.58,0.21,2.37c3.92-0.54,5.06-0.17,5.26,0.36c0.44,1.14-2.29,7.78-6.03,9.09
				c-4.68,1.64-11.21-2.64-11.6-4.18c-0.16-0.63-0.13-0.09,3.06-1.94c0.29-0.93,1.21-3.43,1.5-4.36
				C590.19,210.81,586.25,208.55,585.67,205.43z"/>
			
				<linearGradient id="SVGID_00000170983762444360297710000005080653331233007033_" gradientUnits="userSpaceOnUse" x1="-681.7665" y1="503.1661" x2="-695.222" y2="524.9324" gradientTransform="matrix(0.8526 -0.5224 0.5224 0.8526 909.7548 -588.023)">
				<stop  offset="0" style="stop-color:#AB316D"/>
				<stop  offset="1" style="stop-color:#792D3D"/>
			</linearGradient>
			<path style="fill:url(#SVGID_00000170983762444360297710000005080653331233007033_);" d="M591.01,202.02
				c0.86-0.99,2.12,0.13,2.01,1.5c-0.12,1.37-1.57,2.67-2.83,2.28C588.93,205.41,589.85,203.35,591.01,202.02z"/>
			<path style="fill:#27252D;" d="M729.82,157.32c-19.02-10.76-50.47,3.99-64.71,22.13c-6.62,8.43-8.79,16.57-18.59,20.35
				c-7.46,2.87-20.46,3.91-29.46-2.27c-1.14-0.78-5.74-4.09-12.32-8.03c-2.9-1.73-5.74-3.32-9.18-2.78
				c-0.87,0.14-3.78,0.58-5.04,2.95c-1.02,1.92-0.57,4.56,0.45,6.23c0.61,1,0.99,1.01,1.17,1.73c0.51,2.04-2.85,4.08-2.32,5.01
				c0.38,0.67,2.18-0.2,2.8,0.6c0.67,0.87-1.13,2.39-1.22,5.16c-1.31,1.66-1.47,4.78-0.64,8.62c1.23,5.65,3.21,9.92,5.32,12.94
				c10.19,14.53,17.48,24.92,28.2,28.58c14.2,4.85,21.97-6.35,50.7-16.97c39.34-14.54,53.63-4.22,64.99-18.09
				C754.16,206.19,749.57,168.5,729.82,157.32z"/>
		</g>
		<g style="opacity:0.3;">
			
				<linearGradient id="SVGID_00000128480864856085080670000014575758636461050497_" gradientUnits="userSpaceOnUse" x1="499.5646" y1="243.5523" x2="538.4655" y2="404.8419" gradientTransform="matrix(0.9998 -0.0218 0.0218 0.9998 63.55 -28.6533)">
				<stop  offset="0" style="stop-color:#AA80F9"/>
				<stop  offset="0.9964" style="stop-color:#6165D7"/>
			</linearGradient>
			<path style="fill:url(#SVGID_00000128480864856085080670000014575758636461050497_);" d="M646.16,358.09
				c-14.66-9.74-27.94,1.4-38.3-7.18c-8.54-7.07-1.54-16.29-10.77-28.73c-10.13-13.64-24.18-10.15-27.53-20.35
				c-3.46-10.54,10.43-17.69,10.77-32.32c0.18-7.47-3.18-17.19-16.57-28.85c0.72,4.26,1.46,9.44,1.06,16.08
				c-1.64,26.88-18.6,33.8-19.29,61.05c-0.23,9.18,1.48,16.64,2.79,21.13c3.85,4.59,10.14,11.05,19.32,16.37
				c13.36,7.74,20.98,6.17,40.03,10.94c31.17,7.8,34.14,17.84,49.45,14.93c4.46-0.85,8.74-2.56,12.53-4.74
				c-4.46-0.69-7.78-2.21-10.31-3.96C652.63,367.82,653.8,363.17,646.16,358.09z"/>
		</g>
	</g>
	<g>
		<g>
			<g>
				
					<linearGradient id="SVGID_00000109732130298845067030000017966489318442490042_" gradientUnits="userSpaceOnUse" x1="-3184.8667" y1="-1489.7234" x2="-3144.0674" y2="-1489.7234" gradientTransform="matrix(-0.6567 -0.7542 -0.7542 0.6567 -3067.2913 -1232.7002)">
					<stop  offset="0" style="stop-color:#40447E"/>
					<stop  offset="0.9964" style="stop-color:#3C3B6B"/>
				</linearGradient>
				<path style="fill:url(#SVGID_00000109732130298845067030000017966489318442490042_);" d="M146.3,192.27c2.1-2.26,5.87-12-1-14
					c-6.91-2.01-10.74-4.56-20.26-12.18c-9.51-7.62-11.95-1.08,1.48,11.3C139.96,189.77,143.31,195.48,146.3,192.27z"/>
				
					<linearGradient id="SVGID_00000065057631376606871210000000470841796653276560_" gradientUnits="userSpaceOnUse" x1="-1655.373" y1="231.3584" x2="-1327.0361" y2="572.0853" gradientTransform="matrix(-0.9952 0.098 0.098 0.9952 -1451.0541 23.6747)">
					<stop  offset="0" style="stop-color:#FFC444"/>
					<stop  offset="0.9964" style="stop-color:#F36F56"/>
				</linearGradient>
				<path style="fill:url(#SVGID_00000065057631376606871210000000470841796653276560_);" d="M155.3,178.04l-5.66,4.94
					c-1.18,1.03-2.9,1.16-4.23,0.33c-0.62-0.39-1.01-1.05-1.07-1.78c-0.05-0.73,0.24-1.44,0.8-1.92l8.27-7.08L155.3,178.04z"/>
			</g>
			<g>
				<path style="fill:#27252D;" d="M324.74,130.48c10,8.76-10.87,37.47-44.2,28.17c-40.39-11.28-91.76-6.21-126.39,21.98
					c-2.01-1.79-6.98-4.59-4.71-6.89c31.28-31.63,60.26-49.79,84.25-54.66C269.98,111.71,296.28,105.55,324.74,130.48z"/>
				<g style="opacity:0.24;">
					
						<linearGradient id="SVGID_00000182499699790148275290000005779911344863582863_" gradientUnits="userSpaceOnUse" x1="197.4258" y1="136.5306" x2="327.2525" y2="136.5306">
						<stop  offset="0" style="stop-color:#FFC444"/>
						<stop  offset="0.9964" style="stop-color:#F36F56"/>
					</linearGradient>
					<path style="opacity:0.3;fill:url(#SVGID_00000182499699790148275290000005779911344863582863_);" d="M207.56,142.51
						c-5.86,3.41-7.11-3.52-10.13-8.07c12.98-7.97,25.16-13.11,36.27-15.36c36.28-7.37,62.58-13.53,91.05,11.41
						c10,8.76-10.87,37.47-44.2,28.17c-12.06-3.37-25.09-5.24-38.37-5.51C231.49,146.42,222.76,131.01,207.56,142.51z"/>
				</g>
			</g>
		</g>
		<g>
			
				<linearGradient id="SVGID_00000116927755307557544650000015181248898837325235_" gradientUnits="userSpaceOnUse" x1="-2187.2825" y1="70.5356" x2="-2004.3589" y2="36.5498" gradientTransform="matrix(-0.9981 -0.0611 -0.0611 0.9981 -1770.4364 -43.4352)">
				<stop  offset="0" style="stop-color:#311944"/>
				<stop  offset="1" style="stop-color:#893976"/>
			</linearGradient>
			<path style="fill:url(#SVGID_00000116927755307557544650000015181248898837325235_);" d="M330.64,160.39l2.05,0.78
				c0,0,13.27-12.53,15.64-15.72c2.89-3.9-29.61-13.83-40.17-26.83c-11.09-13.66-2.33,16.21-2.33,16.21L330.64,160.39z"/>
		</g>
		<g>
			<path style="fill:#BB4079;" d="M342.68,37.45c0,0-11.78,1.62-24.7,24.52c-9.71,17.22-30.8,31.49-30.8,31.49L285,107.03l17.5,3.07
				l6.26-4.12l17.08-36.34L342.68,37.45z"/>
			<g>
				<path style="fill:#BB4079;" d="M365.52,35.99c0,0,29.04,3.58,29.67,37c0.58,30.84-10.55,42.79-37.85,68.51
					c-2.75,2.59-7.2,2.59-7.53,2.96c-1.77,2-3.57,4.08-5.39,6.26c-24.44-23.45-51.99-31.39-51.99-31.39s25.48-52.72,36.68-70.19
					C340.65,31.12,358.06,34.2,365.52,35.99z"/>
				<g style="opacity:0.3;">
					
						<linearGradient id="SVGID_00000091707455628379298060000010171248395271456151_" gradientUnits="userSpaceOnUse" x1="-2110.6846" y1="51.5169" x2="-2130.6763" y2="-26.6729" gradientTransform="matrix(-0.9981 -0.0611 -0.0611 0.9981 -1770.4364 -43.4352)">
						<stop  offset="0" style="stop-color:#FF9085"/>
						<stop  offset="1" style="stop-color:#FB6FBB"/>
					</linearGradient>
					<path style="fill:url(#SVGID_00000091707455628379298060000010171248395271456151_);" d="M317.3,113.84
						c12.26,6.56,29.64,5.82,36.03-2.3c4.81-6.11,5.59-8.39,11.45-17.99c4.71-7.72,7.01-8.96,17.3-15.46
						c3.89-2.45,8.3-6.01,12.62-11.33c0.27,1.96,0.45,4.03,0.49,6.24c0.58,30.84-10.55,42.79-37.85,68.51
						c-2.75,2.59-7.2,2.59-7.53,2.96c-1.77,2-3.57,4.08-5.39,6.26c-24.44-23.45-51.99-31.39-51.99-31.39s4.23-8.29,9.83-19.95
						C306.32,106.19,309.44,109.64,317.3,113.84z"/>
				</g>
			</g>
			
				<linearGradient id="SVGID_00000179616320083904556170000016847196665814386321_" gradientUnits="userSpaceOnUse" x1="-2116.3679" y1="26.2245" x2="-2020.342" y2="0.7552" gradientTransform="matrix(-0.9981 -0.0611 -0.0611 0.9981 -1770.4364 -43.4352)">
				<stop  offset="0" style="stop-color:#FFC444"/>
				<stop  offset="0.9964" style="stop-color:#F36F56"/>
			</linearGradient>
			<path style="fill:url(#SVGID_00000179616320083904556170000016847196665814386321_);" d="M337.33,114.83c0,0-5.5,0.25-9.41-1.32
				c-3.91-1.57-3.59-1.94-8.09-2.51c-4.37-0.56-12.99-3.15-8.11-7.59c5.43-4.94,14.73-3.55,17.41-0.28
				c2.58,3.16,7.05,5.17,7.05,5.17L337.33,114.83z"/>
			<path style="fill:#BB4079;" d="M386.42,52.65c0,0,16.13,1.88,6.72,53.82c-4.88,26.94-29.01,23.15-58.15,12.02
				c-1.97-4.13,0.57-12.87,0.57-12.87s36.2,14.93,37.14-6.85C373.74,74.35,377.01,50.07,386.42,52.65z"/>
			<path style="fill:#FFFFFF;" d="M358.76,47.04c6.9,0,13.92-5.11,14.25-5.36c0.12-0.09,0.14-0.25,0.05-0.37
				c-0.09-0.12-0.25-0.14-0.37-0.05c-0.09,0.07-9.31,6.79-16.78,4.92c-2.07-0.52-3.48-1.53-4.21-3.01c-1.38-2.81,0.18-6.42,0.2-6.46
				c0.06-0.13,0-0.29-0.13-0.35c-0.13-0.06-0.29,0-0.35,0.13c-0.07,0.16-1.67,3.87-0.19,6.9c0.8,1.62,2.33,2.73,4.55,3.28
				C356.77,46.94,357.77,47.04,358.76,47.04z"/>
			<path style="fill:#FFFFFF;" d="M348.5,143.39c0.07,0,0.14-0.03,0.19-0.09c0.1-0.11,0.09-0.27-0.02-0.37
				c-0.26-0.23-26.26-23.51-49.73-29.25c-0.14-0.04-0.28,0.05-0.32,0.19c-0.03,0.14,0.05,0.28,0.19,0.32
				c23.34,5.71,49.25,28.89,49.51,29.13C348.37,143.37,348.44,143.39,348.5,143.39z"/>
		</g>
		<g>
			
				<linearGradient id="SVGID_00000109723157849044621040000002501786519142842552_" gradientUnits="userSpaceOnUse" x1="-2001.7445" y1="172.335" x2="-2000.3511" y2="135.2205" gradientTransform="matrix(-0.9955 0.0944 0.0944 0.9955 -1645.5762 67.0442)">
				<stop  offset="0" style="stop-color:#FFC444"/>
				<stop  offset="0.9964" style="stop-color:#F36F56"/>
			</linearGradient>
			<path style="fill:url(#SVGID_00000109723157849044621040000002501786519142842552_);" d="M366.55,20.3c0,0-1.09,12.59-0.11,14.97
				c0.99,2.38-2.13,5.63-8.3,6.89c-6.17,1.25-1.29-12.55-1.29-12.55L366.55,20.3z"/>
			<path style="fill:#27252D;" d="M348.77,21.24c-6.41-3.5-6.28-19.92-2.65-21.17c2.08-0.72,3.11,4.34,9.98,7.27
				c5.35,2.28,9.16,1.1,11.11,4.25c0.92,1.48,1.27,3.66,0.97,5.5c-0.15,0.95-0.58,2.17-1.6,4.55c-0.9,2.11-0.83,2.03-1.11,2.65
				c-0.68,1.49-2.06,4.03-4.88,7.24c-0.38-0.9-0.91-2.01-1.67-3.19c-0.29-0.45-1.45-2.21-2.99-3.58
				C353.11,22.28,350.61,22.24,348.77,21.24z"/>
			
				<linearGradient id="SVGID_00000006684461065439303130000010287099256616635016_" gradientUnits="userSpaceOnUse" x1="-1998.7517" y1="142.2058" x2="-1999.4362" y2="197.3567" gradientTransform="matrix(-0.9955 0.0944 0.0944 0.9955 -1645.5762 67.0442)">
				<stop  offset="0" style="stop-color:#FFC444"/>
				<stop  offset="0.9964" style="stop-color:#F36F56"/>
			</linearGradient>
			<path style="fill:url(#SVGID_00000006684461065439303130000010287099256616635016_);" d="M364.35,28.17c0,0-2.4,5.88-8.97,6.5
				c-5.88,0.56-8.83-12.35-5.56-15.71c1.09-1.12,3.51-1.9,5.62-1.66c1.25,0.14,1.73,0.57,3.77,0.77c1.88,0.18,2.36-0.1,2.98,0.27
				c0.77,0.46,1.5,1.79,0.98,5.79c0.93-1.3,2.19-1.95,3.21-1.65c0.16,0.05,0.61,0.25,0.9,0.63
				C368.33,24.45,367.27,26.57,364.35,28.17z"/>
		</g>
		<g>
			<path style="fill:#26264F;" d="M333.46,121.81c0.26,0.04,0.51,0.23,0.58,0.48c0.01,0.04-0.09,1.35-0.09,1.39
				c0.03,0.31-0.16,0.59-0.45,0.68l-24.7,8.02l-46.15-18.07l21.93,1.68L333.46,121.81z"/>
			<path style="fill:#444B8C;" d="M333.47,121.63c0.3,0.04,0.54,0.29,0.56,0.6c0.03,0.31-0.16,0.59-0.45,0.68l-24.7,8.02
				l-46.15-18.07l21.93,1.68L333.47,121.63z"/>
			
				<linearGradient id="SVGID_00000070114453351105682780000015122863353923414436_" gradientUnits="userSpaceOnUse" x1="-2087.2214" y1="19.5836" x2="-2021.5891" y2="19.5836" gradientTransform="matrix(-0.9981 -0.0611 -0.0611 0.9981 -1770.4364 -43.4352)">
				<stop  offset="0" style="stop-color:#40447E"/>
				<stop  offset="0.9964" style="stop-color:#3C3B6B"/>
			</linearGradient>
			<path style="fill:url(#SVGID_00000070114453351105682780000015122863353923414436_);" d="M309.97,130.57l-3.68-48.15
				c-0.06-0.77-0.64-1.4-1.41-1.52l-55.27-8.65c-0.49-0.08-1,0.07-1.37,0.41c-0.37,0.33-0.58,0.82-0.55,1.32l2.07,44.87
				c0.04,0.77,0.6,1.42,1.36,1.56l57.42,10.63L309.97,130.57z"/>
			<path style="fill:#0E5BA9;" d="M308.79,132.39L305,83.18c-0.06-0.77-0.64-1.4-1.41-1.52l-55.27-8.65c-0.49-0.08-1,0.07-1.37,0.41
				c-0.37,0.33-0.58,0.82-0.55,1.32l2.07,44.88c0.04,0.77,0.6,1.42,1.35,1.56L308.79,132.39z"/>
			<path style="fill:#0E5BA9;" d="M308.79,132.39l-58.97-11.21c-0.76-0.14-1.32-0.79-1.35-1.56l-0.63-13.54
				c17.57,9.98,39.58,11.24,60.09,15.25L308.79,132.39z"/>
		</g>
		<g>
			
				<linearGradient id="SVGID_00000152234114275774540330000004827034036739860905_" gradientUnits="userSpaceOnUse" x1="-2621.8145" y1="-502.9395" x2="-2589.2161" y2="-502.9395" gradientTransform="matrix(-0.9263 -0.3767 -0.3767 0.9263 -2409.3271 -398.9269)">
				<stop  offset="0" style="stop-color:#40447E"/>
				<stop  offset="0.9964" style="stop-color:#3C3B6B"/>
			</linearGradient>
			<path style="fill:url(#SVGID_00000152234114275774540330000004827034036739860905_);" d="M208.92,122.3
				c0.81-2.8,2.59-5.89-3.77-8.15c-4.62-1.64-12.64-2.16-19.92-2.54c-10.21-0.52-12.56,5.59,2.36,9.47
				C197.36,123.63,207.77,126.28,208.92,122.3z"/>
			
				<linearGradient id="SVGID_00000010282413546480640130000014085612108955981212_" gradientUnits="userSpaceOnUse" x1="-1990.9865" y1="29.7463" x2="-1662.6362" y2="370.487" gradientTransform="matrix(-0.9981 -0.0611 -0.0611 0.9981 -1770.4364 -43.4352)">
				<stop  offset="0" style="stop-color:#FFC444"/>
				<stop  offset="0.9964" style="stop-color:#F36F56"/>
			</linearGradient>
			<path style="fill:url(#SVGID_00000010282413546480640130000014085612108955981212_);" d="M200.96,118.02
				c-0.1,1.57,0.9,2.8,2.2,2.98c3.02,0.43,2.46-1.12,2.55-2.69c0.1-1.57,1.32-2.65-2.2-2.98
				C202.2,115.2,201.06,116.45,200.96,118.02z"/>
			<path style="fill:#27252D;" d="M231.97,109.01l-2.98-0.47c0,0-5.81,0.54-21.83,4.96c-3.43,0.57-8.1,10.57,1.94,10.97
				c10.05,0.39,22.27,7.87,22.27,7.87L231.97,109.01z"/>
			<path style="fill:#27252D;" d="M336.28,155.57c0,0-1.46,12.98-31.66,11.8c-30.19-1.18-84.13-32.53-83.79-48.97
				c0.34-16.45,20.41-9.88,41.19-0.37c17.54,8.02,44.64,12.67,50.19,13.53C319.32,132.66,337.99,149.33,336.28,155.57z"/>
			<g style="opacity:0.2;">
				
					<linearGradient id="SVGID_00000023258472886800744050000001793173864708695957_" gradientUnits="userSpaceOnUse" x1="-2119.811" y1="58.6679" x2="-2009.1427" y2="35.015" gradientTransform="matrix(-0.9981 -0.0611 -0.0611 0.9981 -1770.4364 -43.4352)">
					<stop  offset="0" style="stop-color:#FFC444"/>
					<stop  offset="0.9964" style="stop-color:#F36F56"/>
				</linearGradient>
				<path style="opacity:0.3;fill:url(#SVGID_00000023258472886800744050000001793173864708695957_);" d="M296.77,139.29
					c-13.98-1.42-17.11-11.45-34.51-14.35c-11.27-1.88-15.25,1.45-20.99-2.4c-4.54-3.04-6.85-8.33-7.96-14.08
					c7.71,0.65,18.11,4.72,28.71,9.57c17.04,7.79,43.09,12.4,49.66,13.45c0.19,0.03,4.6-1.54,4.6-1.54s3.28,1.87,5.63,3.35
					C312.75,138.19,301.88,139.81,296.77,139.29z"/>
			</g>
		</g>
	</g>
	<g>
		<path style="fill:#A2A7AE;" d="M557.11,704.91c-0.86,0-1.55-0.69-1.55-1.55V503.92c0-0.86,0.7-1.55,1.55-1.55
			c0.86,0,1.55,0.69,1.55,1.55v199.44C558.66,704.22,557.96,704.91,557.11,704.91z"/>
		<path style="fill:#A2A7AE;" d="M644.24,700.81c-0.86,0-1.55-0.69-1.55-1.55V503.92c0-0.86,0.7-1.55,1.55-1.55
			c0.86,0,1.55,0.69,1.55,1.55v195.34C645.79,700.12,645.1,700.81,644.24,700.81z"/>
		<path style="fill:#FAFBFC;" d="M635.44,728.29c-0.7,0-1.34-0.48-1.51-1.2l-52.32-221.03c-0.2-0.83,0.32-1.67,1.15-1.87
			c0.83-0.2,1.67,0.32,1.87,1.15l52.32,221.03c0.2,0.83-0.32,1.67-1.15,1.87C635.68,728.28,635.56,728.29,635.44,728.29z"/>
		<path style="fill:#FAFBFC;" d="M716.38,717.43c-0.69,0-1.32-0.47-1.5-1.17l-53.61-210.17c-0.21-0.83,0.29-1.68,1.12-1.89
			c0.83-0.21,1.68,0.29,1.89,1.12l53.61,210.17c0.21,0.83-0.29,1.68-1.12,1.89C716.64,717.41,716.51,717.43,716.38,717.43z"/>
		<polygon style="fill:#D8DEE8;" points="665.85,505.89 582.4,507.68 555.66,505.89 555.66,501.95 617.84,500.69 665.85,501.95 		
			"/>
		
			<linearGradient id="SVGID_00000054977903232549915200000013673011713132280722_" gradientUnits="userSpaceOnUse" x1="-1567.2338" y1="504.711" x2="-1646.7118" y2="504.9795" gradientTransform="matrix(1 0 0 1 2222 0)">
			<stop  offset="0.494" style="stop-color:#EBEFF2"/>
			<stop  offset="1" style="stop-color:#FFFFFF"/>
		</linearGradient>
		<polygon style="fill:url(#SVGID_00000054977903232549915200000013673011713132280722_);" points="665.85,505.89 582.4,507.68 
			582.4,503.74 665.85,501.95 		"/>
		<path style="fill:#FAFBFC;" d="M594.42,554.99c-0.82,0-1.5-0.64-1.55-1.47c-0.05-0.86,0.61-1.59,1.46-1.64l78.62-4.38
			c0.84-0.05,1.59,0.61,1.64,1.46c0.05,0.86-0.61,1.59-1.46,1.64l-78.62,4.38C594.47,554.99,594.45,554.99,594.42,554.99z"/>
		<path style="fill:#FAFBFC;" d="M604.82,598.93c-0.81,0-1.49-0.63-1.55-1.45c-0.06-0.86,0.59-1.59,1.45-1.65l79.95-5.33
			c0.86-0.06,1.59,0.59,1.65,1.45c0.06,0.86-0.59,1.59-1.45,1.65l-79.95,5.33C604.89,598.93,604.85,598.93,604.82,598.93z"/>
		<path style="fill:#FAFBFC;" d="M615.16,642.62c-0.8,0-1.48-0.62-1.55-1.43c-0.07-0.85,0.57-1.6,1.43-1.67l80.53-6.13
			c0.86-0.06,1.6,0.58,1.67,1.43c0.07,0.85-0.57,1.6-1.43,1.67l-80.53,6.13C615.24,642.62,615.2,642.62,615.16,642.62z"/>
		<path style="fill:#FAFBFC;" d="M625.44,686.06c-0.79,0-1.47-0.61-1.54-1.41c-0.08-0.85,0.55-1.61,1.41-1.68l81.02-7.22
			c0.85-0.08,1.61,0.55,1.68,1.41c0.08,0.85-0.55,1.61-1.41,1.68l-81.02,7.22C625.53,686.05,625.49,686.06,625.44,686.06z"/>
	</g>
	<g>
		<g>
			
				<linearGradient id="SVGID_00000165928974372751751910000017049674260574450870_" gradientUnits="userSpaceOnUse" x1="1759.8068" y1="722.0866" x2="1778.2847" y2="722.0866" gradientTransform="matrix(1 0 0 1 -1384.9691 0)">
				<stop  offset="0" style="stop-color:#311944"/>
				<stop  offset="1" style="stop-color:#6B3976"/>
			</linearGradient>
			<path style="fill:url(#SVGID_00000165928974372751751910000017049674260574450870_);" d="M378.63,722.08l9.25-5.56h4.17
				c0,0,1.42,5.29,1.26,5.56c-1.86,3.05-10.51,5.36-15.92,5.56c-0.9,0.03-2.15,0.04-2.47-0.61
				C374.37,725.92,376.81,723.61,378.63,722.08z"/>
			
				<linearGradient id="SVGID_00000127021511769636539100000018217628971634693302_" gradientUnits="userSpaceOnUse" x1="1772.5385" y1="721.037" x2="1787.8317" y2="675.1573" gradientTransform="matrix(1 0 0 1 -1384.9691 0)">
				<stop  offset="0" style="stop-color:#FFC444"/>
				<stop  offset="0.9964" style="stop-color:#F36F56"/>
			</linearGradient>
			<path style="fill:url(#SVGID_00000127021511769636539100000018217628971634693302_);" d="M388.03,710.46
				c0.02,3.24-0.12,5.52-0.93,6.52c-0.57,0.71,4.91,2.3,4.94-0.46c0.02-1.82,0.31-4.93,0.6-5.85
				C391.1,710.61,389.57,710.54,388.03,710.46z"/>
		</g>
		<g>
			
				<linearGradient id="SVGID_00000137817109676676552450000016589017915516190877_" gradientUnits="userSpaceOnUse" x1="1697.9933" y1="721.1793" x2="1716.4713" y2="721.1793" gradientTransform="matrix(1 0 0 1 -1384.9691 0)">
				<stop  offset="0" style="stop-color:#311944"/>
				<stop  offset="1" style="stop-color:#6B3976"/>
			</linearGradient>
			<path style="fill:url(#SVGID_00000137817109676676552450000016589017915516190877_);" d="M316.81,721.17l9.25-5.56h4.17
				c0,0,1.42,5.29,1.26,5.56c-1.86,3.05-10.51,5.36-15.92,5.56c-0.9,0.03-2.15,0.04-2.47-0.61
				C312.55,725.01,315,722.71,316.81,721.17z"/>
			
				<linearGradient id="SVGID_00000119827426813577945890000000687740814635093688_" gradientUnits="userSpaceOnUse" x1="1711.7096" y1="720.8354" x2="1728.5507" y2="670.3123" gradientTransform="matrix(1 0 0 1 -1384.9691 0)">
				<stop  offset="0" style="stop-color:#FFC444"/>
				<stop  offset="0.9964" style="stop-color:#F36F56"/>
			</linearGradient>
			<path style="fill:url(#SVGID_00000119827426813577945890000000687740814635093688_);" d="M328.87,709.6
				c-1.35,2.58-2.77,5.48-3.58,6.48c-0.57,0.71,3.99,2.13,4.94-0.46c0.78-2.1,2.95-4.89,3.24-5.81
				C331.93,709.74,330.4,709.67,328.87,709.6z"/>
		</g>
		<path style="fill:#27252D;" d="M330.77,558.03c3.58,23.79,5.91,53.38,3.8,87.17c-1.56,24.96-5.22,47.13-9.51,65.93
			c2.85,0.74,5.71,1.48,8.56,2.22c3.55-0.82,8.59-2.6,12.05-6.97c4.55-5.75,2.47-11.05,5.71-20.6c3.09-9.13,6.77-9.61,10.46-17.43
			c4.81-10.21,1.87-16.46,2.22-30.11c0.59-23.1,9.49-24.89,12.36-53.57c1.5-15.01,2.24-23.64-3.17-29.16
			C365.66,547.76,348.99,549.13,330.77,558.03z"/>
		<path style="fill:#27252D;" d="M350.42,553.24c9.77,22.74,19.93,51.86,26.63,86.54c5.36,27.71,7.3,52.75,7.61,73.86
			c3.17,0,6.34,0,9.51,0c2.75-4,6.37-10.21,8.56-18.39c2.19-8.15,0.81-10.26,2.22-23.14c1.92-17.56,4.43-18.37,4.12-28.85
			c-0.36-12.04-4.02-11.99-5.39-24.09c-2.03-17.9,5.36-23.42,5.07-39.94c-0.13-7.42-1.84-18.6-10.14-32.33
			C382.54,549.01,366.48,551.12,350.42,553.24z"/>
		
			<linearGradient id="SVGID_00000173125745627275578790000002008998900002433950_" gradientUnits="userSpaceOnUse" x1="-4329.0864" y1="539.1333" x2="-4346.5205" y2="598.7277" gradientTransform="matrix(-1 0 0 1 -4118.9263 0)">
			<stop  offset="0" style="stop-color:#AB316D"/>
			<stop  offset="1" style="stop-color:#792D3D"/>
		</linearGradient>
		<path style="fill:url(#SVGID_00000173125745627275578790000002008998900002433950_);" d="M225.52,550.45l-3.73,3.3
			c0,0-8.18-0.32-11.13,0.43c-2.95,0.75-8.03,3.3-8.03,3.3s1.27,1.88,3.07,1.17c1.8-0.71,4.59-1.67,5.12-1.41
			c0.54,0.26,1.8,3.65,6.09,4.22c4.29,0.57,6.29-4.48,6.29-4.48l4.06-3.45L225.52,550.45z"/>
		<path style="fill:#26C4CD;" d="M268.24,463.45c-1.51,0.19-4.47,1.1-11.17,13.55c-8.68,16.12-10.95,28.02-14.26,37.8
			c-3.1,9.15-8.92,21.79-20.92,35.66c1.98,2.06,3.96,4.12,5.94,6.18c17-0.42,25.41-5.84,29.96-10.7c6.63-7.09,4.58-12.53,12.6-23.3
			c9.38-12.6,16.48-10.95,19.73-19.26C296.2,487.81,278.98,462.13,268.24,463.45z"/>
		<path style="fill:#26C4CD;" d="M353.35,441.34c-9.72-3.12-17.34-2.25-30.91-0.71c-19.81,2.25-32.5,8.81-43.51,14.5
			c-10.82,5.59-13.68,8.75-15.22,12.36c-3.58,8.43,0.78,17.63,3.57,23.3c7.11,14.47,13.7,13.97,28.77,31.38
			c13.25,15.32,19.88,22.98,24.25,34.24c1.93,4.98,3.82,11.42,9.99,15.22c5.98,3.68,12.77,2.88,16.64,2.38
			c16.26-2.13,17.7-12.62,28.29-11.89c8.44,0.58,10.27,7.44,24.73,9.75c6.46,1.03,8.34,0.02,9.27-0.71
			c3.52-2.79,3.11-9.47-0.24-23.06c-5.14-20.9-9.73-27.67-14.03-44.22c-4.46-17.19-1.03-15.68-4.75-25.44
			C388.95,475.15,378.68,449.45,353.35,441.34z"/>
		
			<linearGradient id="SVGID_00000109726694148705792080000007322392530037362588_" gradientUnits="userSpaceOnUse" x1="-4435.9771" y1="498.3235" x2="-4407.2651" y2="592.2189" gradientTransform="matrix(-1 0 0 1 -4118.9263 0)">
			<stop  offset="0" style="stop-color:#FFC444"/>
			<stop  offset="0.9964" style="stop-color:#F36F56"/>
		</linearGradient>
		<path style="fill:url(#SVGID_00000109726694148705792080000007322392530037362588_);" d="M351.36,527.97l-34.27-37.61
			c-0.83-1.09-2.19-1.64-3.54-1.42l-39.25,6.42c-1.68,0.27-2.46,2.25-1.41,3.59l31.91,41.05c0.86,1.1,2.26,1.63,3.63,1.36l40.7-7.53
			C351.8,533.3,353.01,530.15,351.36,527.97z"/>
		
			<linearGradient id="SVGID_00000016768256120852044880000010608673475459548299_" gradientUnits="userSpaceOnUse" x1="-4457.269" y1="501.6331" x2="-4474.7036" y2="561.2274" gradientTransform="matrix(-1 0 0 1 -4118.9263 0)">
			<stop  offset="0" style="stop-color:#AB316D"/>
			<stop  offset="1" style="stop-color:#792D3D"/>
		</linearGradient>
		<path style="fill:url(#SVGID_00000016768256120852044880000010608673475459548299_);" d="M352.8,515.86l-7.34-3.2
			c0,0-2.8-4-5.07-4.67c-2.27-0.67-10.4,0.27-10.4,0.27s0.8,3.2,2.4,3.73c1.6,0.53,6.54,0.93,7.34,2.53c0.8,1.6,3.73,2.8,4.8,2.27
			c1.07-0.53,7.87,1.73,7.87,1.73L352.8,515.86z"/>
		
			<linearGradient id="SVGID_00000158735075072287376440000004391483362970643865_" gradientUnits="userSpaceOnUse" x1="-4491.9863" y1="532.5341" x2="-4391.1821" y2="438.387" gradientTransform="matrix(-1 0 0 1 -4118.9263 0)">
			<stop  offset="0" style="stop-color:#AA80F9"/>
			<stop  offset="0.9964" style="stop-color:#6165D7"/>
		</linearGradient>
		<path style="opacity:0.3;fill:url(#SVGID_00000158735075072287376440000004391483362970643865_);" d="M350.26,565.44
			c3.38-4.13,1.56-9.08,6.18-13.31c7.53-6.89,21.16-1.79,21.87-4.28c0.85-2.98-19.57-7.3-21.87-19.02
			c-1.04-5.32,2.8-6.22,2.38-13.31c-0.4-6.65-4.55-12.13-12.84-22.82c-6.54-8.44-8.31-9.13-8.56-12.36
			c-0.73-9.72,11.55-16.49,16.64-19.97c6.23-4.26,12.74-6.46,18.82-7.47c11.34,10.45,16.46,23.29,17.32,25.54
			c3.73,9.76,0.29,8.25,4.75,25.44c4.3,16.55,8.88,23.33,14.03,44.22c3.35,13.59,3.76,20.27,0.24,23.06
			c-0.93,0.74-2.81,1.75-9.27,0.71c-14.45-2.31-16.28-9.16-24.73-9.75c-10.59-0.73-12.03,9.76-28.29,11.89
			c-3.87,0.51-10.66,1.3-16.64-2.38c-1.35-0.83-2.48-1.79-3.46-2.83C341.2,571.43,347.43,568.9,350.26,565.44z"/>
		<g>
			
				<linearGradient id="SVGID_00000103982985905335501020000015840790822521328512_" gradientUnits="userSpaceOnUse" x1="-2559.4595" y1="2071.4009" x2="-2557.1331" y2="2009.4341" gradientTransform="matrix(-0.6867 0.7269 0.7269 0.6867 -2946.9446 904.3013)">
				<stop  offset="0" style="stop-color:#AB316D"/>
				<stop  offset="1" style="stop-color:#792D3D"/>
			</linearGradient>
			<path style="fill:url(#SVGID_00000103982985905335501020000015840790822521328512_);" d="M283.85,431.04
				c2.17,5.22,10.3,18.39,27.87,11.93c4.7-1.73,5.51-1.12,5.78-0.76c1.33,1.77-8.09,13.53-21.42,17.11
				c-8.13,2.19-16.83,1.09-17.29-1.17c-0.47-2.28,5.34-2.07,6.01-6.82c0.46-3.31-6.23-7.27-9.67-9.51
				C275.7,437.49,283.29,435.37,283.85,431.04z"/>
			<g>
				
					<linearGradient id="SVGID_00000145738413148185662480000000777721838541349524_" gradientUnits="userSpaceOnUse" x1="2535.6382" y1="1697.2457" x2="2520.7859" y2="1659.5238" gradientTransform="matrix(0.8439 -0.5366 0.5366 0.8439 -2747.7559 380.9119)">
					<stop  offset="0" style="stop-color:#444B8C"/>
					<stop  offset="0.9964" style="stop-color:#26264F"/>
				</linearGradient>
				<path style="fill:url(#SVGID_00000145738413148185662480000000777721838541349524_);" d="M269.23,441.35
					c-3.01-0.99-5.45-4.4-5-7.74c0.38-2.88,2.81-4.72,4.26-5.81c4.22-3.19,11.09-4.93,15.6-2.39c2.68,1.51,3.23,7.64,3.38,8.71
					c0.18,1.21-0.43,2.02-0.71,3.18c-0.39,1.61-0.99,4.16-1.93,8.37c-0.73-0.65-1.69-1.41-2.89-2.14c-0.46-0.28-2.29-1.37-4.34-1.95
					C273.51,440.41,272.09,442.29,269.23,441.35z"/>
				
					<linearGradient id="SVGID_00000137846719563488169630000015982820040812982427_" gradientUnits="userSpaceOnUse" x1="-4164.334" y1="1460.7889" x2="-4164.9985" y2="1514.3226" gradientTransform="matrix(-0.8751 0.4839 0.4839 0.8751 -4073.696 1173.272)">
					<stop  offset="0" style="stop-color:#AB316D"/>
					<stop  offset="1" style="stop-color:#792D3D"/>
				</linearGradient>
				<path style="fill:url(#SVGID_00000137846719563488169630000015982820040812982427_);" d="M287.21,441.18
					c0,0-0.04,6.16-6.22,9.36c-5.53,2.86-13.48-7.34-11.62-11.62c0.62-1.43,2.68-3.1,4.83-3.74c1.27-0.38,1.92-0.2,3.99-0.85
					c1.91-0.61,2.27-1.05,3.02-0.97c0.94,0.1,2.18,0.97,3.24,4.72c0.4-1.53,1.38-2.61,2.49-2.76c0.18-0.02,0.69-0.02,1.13,0.19
					C289.64,436.28,289.44,438.58,287.21,441.18z"/>
			</g>
		</g>
		<path style="fill:#26C4CD;" d="M321.97,444.67c6.43-10.85,36.68-6.88,57.06,4.99c6.64,3.87,26.88,15.66,28.29,36.14
			c0.15,2.23,0.55,11.27-4.75,19.73c-8.92,14.23-30.02,20.51-52.3,14.98c0.24-2.38,0.48-4.75,0.71-7.13
			c1.9,0.07,9.45,0.11,16.17-5.47c1.35-1.12,9.34-7.76,8.08-13.79c-2.1-10.13-27.37-4.61-43.74-21.63
			C324.14,464.85,317.74,451.81,321.97,444.67z"/>
	</g>
	<g>
		<g>
			<ellipse style="fill:#B7C0CE;" cx="150.15" cy="715.33" rx="40.11" ry="16.37"/>
			<path style="fill:#EBEFF2;" d="M110.04,713.41c0,8.53,17.96,15.45,40.11,15.45c22.15,0,40.11-6.92,40.11-15.45
				c0-8.53-17.96-22.5-40.11-22.5C128,690.92,110.04,704.88,110.04,713.41z"/>
			<path style="opacity:0.3;fill:#EBEFF2;" d="M110.04,713.41c0-8.53,17.96-22.5,40.11-22.5c10.23,0,19.56,2.98,26.64,7.02
				c0.5,1.04,0.73,2.07,0.63,3.05c-0.46,4.8-8.29,7.75-12.79,8.73c-11.32,2.45-16.85-4.32-26.18-4.06
				c-5.77,0.16-13.77,3.06-23.25,15.33C111.92,718.76,110.04,716.17,110.04,713.41z"/>
			<path style="fill:#D8DEE8;" d="M147.95,701.61c1.6,0.4,3.1,0.38,4.5,0.03c1.28-0.32,2.15-1.5,2.15-2.82v-38.48h-8.92v38.43
				C145.69,700.12,146.64,701.28,147.95,701.61z"/>
			<g>
				
					<linearGradient id="SVGID_00000072245141602796343990000018278722188676778411_" gradientUnits="userSpaceOnUse" x1="-2839.8333" y1="682.7985" x2="-2856.1843" y2="661.4926" gradientTransform="matrix(-1 0 0 1 -2733.9573 0)">
					<stop  offset="0" style="stop-color:#311944"/>
					<stop  offset="1" style="stop-color:#893976"/>
				</linearGradient>
				<path style="fill:url(#SVGID_00000072245141602796343990000018278722188676778411_);" d="M197.27,649.09l-13.62-8.61
					c-0.57-3.22-6.99-36.87-33.06-47.44c-10.6-4.3-22.01-3.79-28.27-3.51c-12.5,0.56-21.42,0.96-25.7,6.92
					c-5.51,7.66,3.73,14.6,1.82,36.5c-0.78,8.93-2.76,12.9-0.29,18.81c2.96,7.09,9.82,11.02,15.16,13.23
					c6.38,3.7,17.48,8.98,32.15,10.27c24.71,2.17,43.15-8.43,49.49-12.49c2.82-0.89,4.94-3.23,5.54-6.13
					C201.08,653.7,199.81,650.69,197.27,649.09z"/>
				
					<linearGradient id="SVGID_00000118392288612131048090000006734593896684010399_" gradientUnits="userSpaceOnUse" x1="-2877.1099" y1="635.2057" x2="-2856.1001" y2="579.5134" gradientTransform="matrix(-1 0 0 1 -2733.9573 0)">
					<stop  offset="0" style="stop-color:#311944"/>
					<stop  offset="1" style="stop-color:#893976"/>
				</linearGradient>
				<path style="fill:url(#SVGID_00000118392288612131048090000006734593896684010399_);" d="M119.56,591.33
					c-9.25,0.27-14.99,0.17-18.17,4.29c-3.34,4.33,0.04,8.03,0.66,23.45c0.57,14.06-1.91,19.63,2.64,27.42c0,0,2.31,3.96,5.96,6.94
					c12.88,10.51,46.13,10.39,60.12-11.56c11.16-17.51,6.51-43.32-6.61-51.86C157.73,585.82,156.26,590.24,119.56,591.33z"/>
				
					<linearGradient id="SVGID_00000127036866078125117670000017900128496987896204_" gradientUnits="userSpaceOnUse" x1="-2888.8596" y1="645.1398" x2="-2889.1804" y2="672.3945" gradientTransform="matrix(-1 0 0 1 -2733.9573 0)">
					<stop  offset="0" style="stop-color:#311944"/>
					<stop  offset="1" style="stop-color:#893976"/>
				</linearGradient>
				<path style="fill:url(#SVGID_00000127036866078125117670000017900128496987896204_);" d="M198.26,641.36l-13.62-8.61
					c0,0-36.49-12-70.26,4.92c-3.78,1.89-6.13,5.81-6.13,10.03c0,3.24,1.95,6.17,4.94,7.42c5.89,4.02,17.39,10.66,33.24,12.4
					c25.2,2.76,43.95-8.78,49.49-12.49c2.82-0.89,4.94-3.23,5.54-6.13C202.07,645.97,200.8,642.96,198.26,641.36z"/>
			</g>
			<g>
				<path style="fill:#27252D;" d="M173.47,534.86c3.25-2.11,0.29-8.23,0.11-21.39c-0.21-16.12,4.07-19.13,0.63-25.45
					c-4.21-7.73-14.79-10.94-21.81-11.09c-1.55-0.03-1.91-0.88-14.87,2.48c-23.35,6.05-29.19-0.44-39.65,6.04
					c-10.1,6.26-5.68,13.11-15.49,20.44c-15.9,11.89-32.62-0.96-43.99,8.98c-10.75,9.41-11,33.38,0.31,46.47
					c12.82,14.83,35.93,10.38,51.42,7.43c3.26-0.62,19.72-4.08,36.86-16.73c9.48-7,15.99-14.47,20.14-19.98
					c0.97-1.09,2.49-2.42,4.49-2.63c2.4-0.26,4.34,1.21,5.27,1.86C161.79,534.68,170.28,536.93,173.47,534.86z"/>
				<path style="fill:#412B6C;" d="M160.42,526.03c4.18-3.8,19.08,3.53,28.95,13.26c11.6,11.43,10.71,20.7,20.84,34.91
					c5.03,7.06,13.66,16.57,28.95,24.89c-1.08,2.71-2.16,5.41-3.25,8.12c-7.39,0.44-21.91,0.18-35.45-8.66
					c-9.41-6.14-14.25-14.28-23.54-30.31C167.6,552.15,155.2,530.78,160.42,526.03z"/>
				
					<linearGradient id="SVGID_00000020372795919252081400000010692309596796756635_" gradientUnits="userSpaceOnUse" x1="-2993.2637" y1="743.489" x2="-2970.0137" y2="743.489" gradientTransform="matrix(-1 0 0 1 -2733.9573 0)">
					<stop  offset="0" style="stop-color:#311944"/>
					<stop  offset="1" style="stop-color:#6B3976"/>
				</linearGradient>
				<path style="fill:url(#SVGID_00000020372795919252081400000010692309596796756635_);" d="M254.54,743.48l-11.63-6.99h-5.25
					c0,0-1.79,6.66-1.59,6.99c2.34,3.83,13.23,6.75,20.03,6.99c1.13,0.04,2.7,0.05,3.11-0.77
					C259.9,748.32,256.82,745.41,254.54,743.48z"/>
				
					<linearGradient id="SVGID_00000146462800642317108770000008323537806067244438_" gradientUnits="userSpaceOnUse" x1="-2982.2988" y1="752.6517" x2="-2947.6118" y2="648.5898" gradientTransform="matrix(-1 0 0 1 -2733.9573 0)">
					<stop  offset="0" style="stop-color:#FFC444"/>
					<stop  offset="0.9964" style="stop-color:#F36F56"/>
				</linearGradient>
				<path style="fill:url(#SVGID_00000146462800642317108770000008323537806067244438_);" d="M242.7,728.86
					c-0.75,4.33,0.2,6.58,1.22,7.85c0.72,0.89,1.36,1.14,5.61,4.82c1.41,1.22,2.12,1.87,1.96,2.21c-0.19,0.39-1.43,0.18-4.11-0.47
					c-5.85-1.41-8.79-2.14-9.51-3.55c-0.65-1.27-0.08-1.85-0.11-5.32c-0.02-2.29-0.49-4.13-0.86-5.28
					C238.84,729.04,240.77,728.95,242.7,728.86z"/>
				
					<linearGradient id="SVGID_00000145770594320523300430000017436971203355548299_" gradientUnits="userSpaceOnUse" x1="-2989.563" y1="700.7985" x2="-2975.3438" y2="700.7985" gradientTransform="matrix(-1 0 0 1 -2733.9573 0)">
					<stop  offset="0" style="stop-color:#311944"/>
					<stop  offset="1" style="stop-color:#6B3976"/>
				</linearGradient>
				<path style="fill:url(#SVGID_00000145770594320523300430000017436971203355548299_);" d="M251.11,694.57
					c0,0,5.26,6.27,4.4,13.15c-0.86,6.87-10.06-3.18-11.34-6.57c-1.28-3.4-2.78-8.24-2.78-8.24S247.84,688.89,251.11,694.57z"/>
				
					<linearGradient id="SVGID_00000175324201867545976090000006085221373958681524_" gradientUnits="userSpaceOnUse" x1="-2997.804" y1="739.8414" x2="-2974.5857" y2="670.1866" gradientTransform="matrix(-1 0 0 1 -2733.9573 0)">
					<stop  offset="0" style="stop-color:#FFC444"/>
					<stop  offset="0.9964" style="stop-color:#F36F56"/>
				</linearGradient>
				<path style="fill:url(#SVGID_00000175324201867545976090000006085221373958681524_);" d="M249.11,684.76
					c0,0-1.43,7.31,1.29,11.16c1.35,1.92,3.18,3.55,2.64,5.11c-0.36,1.05-1.73,1.8-2.88,1.68c-2.22-0.23-3.45-3.63-4.31-6.02
					c-1.28-3.54-1.99-11.12-1.99-11.12L249.11,684.76z"/>
				
					<linearGradient id="SVGID_00000155115427050984519340000018087618987033475257_" gradientUnits="userSpaceOnUse" x1="-2969.1946" y1="622.4896" x2="-2951.8767" y2="722.6088" gradientTransform="matrix(-1 0 0 1 -2733.9573 0)">
					<stop  offset="0" style="stop-color:#AB316D"/>
					<stop  offset="1" style="stop-color:#792D3D"/>
				</linearGradient>
				<path style="fill:url(#SVGID_00000155115427050984519340000018087618987033475257_);" d="M244.92,690.92
					c1.62-0.59,3.23-1.18,4.85-1.77c2.52-5.76,5.6-15.22,4.57-26.72c-2.64-29.57-29.99-45.24-33.03-46.91
					c-7.45,3.74-15,9.01-15.27,15.66c-0.34,8.35,11.03,12.76,21.72,24.96C234.17,663.47,241.02,674.38,244.92,690.92z"/>
				
					<linearGradient id="SVGID_00000052811850211043778720000006524907716495073163_" gradientUnits="userSpaceOnUse" x1="-2944.738" y1="741.1451" x2="-2920.114" y2="663.2146" gradientTransform="matrix(-1 0 0 1 -2733.9573 0)">
					<stop  offset="0" style="stop-color:#AB316D"/>
					<stop  offset="1" style="stop-color:#792D3D"/>
				</linearGradient>
				<path style="fill:url(#SVGID_00000052811850211043778720000006524907716495073163_);" d="M243.18,732.25
					c5.34-20.86,3.98-37.89,2.44-47.69c-2.33-14.82-7.06-44.97-27.19-56.22c-4.4-2.46-10.68-4.65-18.34-11.48
					c-6.4-5.7-10.46-11.69-12.91-15.92c-26.92-7.9-51.75-4.7-62.71,9.74c-1.27,1.67-4.44,5.29-5.05,10.62
					c-1.38,12.04,10.45,26.53,23.72,29.56c16.87,3.85,26.66-13.48,41.6-7.71c4.18,1.61,7.73,5.61,14.81,13.6
					c9.02,10.16,14.09,19.54,16.01,23.3c5.71,11.18,10.04,19.43,10.67,30.12c0.15,2.49,0.23,7.52,3.15,12.95
					c2.24,4.17,5.27,6.94,7.53,8.66C239,731.93,241.09,732.09,243.18,732.25z"/>
				
					<linearGradient id="SVGID_00000053543063758890694100000003050898961323194271_" gradientUnits="userSpaceOnUse" x1="-2944.7358" y1="741.146" x2="-2920.1118" y2="663.2154" gradientTransform="matrix(-1 0 0 1 -2733.9573 0)">
					<stop  offset="0" style="stop-color:#AB316D"/>
					<stop  offset="1" style="stop-color:#792D3D"/>
				</linearGradient>
				<path style="opacity:0.3;fill:url(#SVGID_00000053543063758890694100000003050898961323194271_);" d="M119.4,621.31
					c0.61-5.34,3.78-8.95,5.05-10.62c10.96-14.44,35.79-17.64,62.71-9.74c2.45,4.22,6.52,10.22,12.91,15.92
					c7.66,6.83,13.94,9.02,18.34,11.48c12.29,6.87,18.84,20.78,22.61,33.95c-5.59-8.67-10.38-10.98-14.08-11.02
					c-5.3-0.06-7.67,4.47-14,3.86c-6.77-0.66-8.31-6.26-13.8-6.9c-1.64-0.19-3.66,0.06-6.09,1.35c-3.24-3.39-5.65-5.4-8.32-6.43
					c-14.95-5.76-24.73,11.56-41.6,7.71C129.85,647.84,118.02,633.35,119.4,621.31z"/>
				
					<linearGradient id="SVGID_00000120540835051480004790000007626812845300681358_" gradientUnits="userSpaceOnUse" x1="-2910.0864" y1="612.3849" x2="-2892.8086" y2="712.2729" gradientTransform="matrix(-1 0 0 1 -2733.9573 0)">
					<stop  offset="0" style="stop-color:#AB316D"/>
					<stop  offset="1" style="stop-color:#792D3D"/>
				</linearGradient>
				<path style="fill:url(#SVGID_00000120540835051480004790000007626812845300681358_);" d="M229.23,637.67
					c-3.05-0.16-7.74-0.26-13.4,0.3c-26.86,2.65-34.27,15.94-56.47,19.18c-5.25,0.77-28.63,4.18-38.76-9.34
					c-7.27-9.7-6.17-26.43,1.78-33c3.37-2.78,6.7-2.71,28.25-2.51c8.12,0.07,16.24,0.1,24.35,0.2c34.36,0.44,40.93-1.94,47.19,3.74
					C225.09,618.9,229.35,624.6,229.23,637.67z"/>
				<g>
					<g>
						<g>
							<path style="fill:#412B6C;" d="M156.68,527.42c0,0-40.1-11.69-44.26,17.66c-3.99,28.14,16.44,41.05,7.14,69.55
								c-1.08,3.3,76.33-11.83,76.33-11.83c-10.33-12.89-12.73-23.53-12.98-30.92c-0.27-8.11,2.07-11.79,0-21.37
								c0,0-2.31-10.69-10.62-19.87C171.1,529.31,169.68,527.94,156.68,527.42z"/>
						</g>
					</g>
					<path style="fill:#F4F7FA;" d="M131.06,608.63l-0.26-0.96c0.38-0.1,37.92-10.09,60.14-11.34l0.06,0.99
						C168.88,598.56,131.43,608.53,131.06,608.63z"/>
				</g>
				<g>
					
						<linearGradient id="SVGID_00000018959514360838542440000009713552415975418246_" gradientUnits="userSpaceOnUse" x1="2018.7095" y1="193.384" x2="2020.4739" y2="146.3851" gradientTransform="matrix(0.984 0.1784 -0.1784 0.984 -1803.2797 -3.2743)">
						<stop  offset="0" style="stop-color:#FFC444"/>
						<stop  offset="0.9964" style="stop-color:#F36F56"/>
					</linearGradient>
					<path style="fill:url(#SVGID_00000018959514360838542440000009713552415975418246_);" d="M147.98,509.83
						c0.37,1.72,2.24,10.92-1.53,13.29c-0.82,0.51-2.39,0.81-5.52,1.4c-2.05,0.39-3.78,0.62-4.99,0.77c0.18,1.54,0.7,4.06,2.48,6.34
						c5,6.41,15.01,4.75,16.44,4.49c5.04-0.92,10-2.47,11.19-3.43c1.82-1.45,3.26-2.54,4.1-3.64c-1.95-0.94-5.89-3.43-8.53-4.24
						c-1.97-0.61-3.83-1.04-5.51-1.35c-0.28-1.78-0.55-3.56-0.83-5.34C152.84,515.36,150.41,512.59,147.98,509.83z"/>
					
						<linearGradient id="SVGID_00000141423444861421944050000007171917278053916040_" gradientUnits="userSpaceOnUse" x1="2018.1587" y1="151.8931" x2="2017.4034" y2="212.7451" gradientTransform="matrix(0.984 0.1784 -0.1784 0.984 -1803.2797 -3.2743)">
						<stop  offset="0" style="stop-color:#FFC444"/>
						<stop  offset="0.9964" style="stop-color:#F36F56"/>
					</linearGradient>
					<path style="fill:url(#SVGID_00000141423444861421944050000007171917278053916040_);" d="M147.8,514.42
						c0,0,0.68,6.75,7.24,7.94c5.87,1.06,10.3-13.13,7.29-16.8c-1-1.22-3.48-2.39-5.62-2.33c-1.51,0.04-6.61,1.98-7.32,7.09
						c-1.02-1.07-2.28-1.38-2.9-0.93c-0.79,0.57-0.37,2.22-0.27,2.59C146.55,513.27,147.39,514.08,147.8,514.42z"/>
				</g>
			</g>
		</g>
		<g>
			<path style="fill:#B7C0CE;" d="M406.24,718.79c-0.03,0-0.05,0-0.08,0c-0.52-0.04-0.91-0.47-0.91-0.99V580.5
				c0-0.55,0.44-0.99,0.99-0.99c0.55,0,0.99,0.44,0.99,0.99v124.43l18.84-121.61c0.08-0.54,0.59-0.91,1.13-0.83
				c0.54,0.08,0.91,0.59,0.83,1.13l-20.81,134.32C407.14,718.43,406.72,718.79,406.24,718.79z"/>
			<g>
				<polygon style="opacity:0.81;fill:#F4F7FA;" points="58.56,611.52 402.48,580.21 583.88,594.22 238.54,627.29 				"/>
				<polygon style="fill:#B7C0CE;" points="238.54,627.29 58.56,611.52 58.56,619.14 238.54,634.9 583.88,601.83 583.88,594.22 				
					"/>
			</g>
			<path style="fill:#B7C0CE;" d="M236.99,779.37c-0.49,0-0.91-0.36-0.98-0.86l-19.79-146.08c-0.07-0.54,0.31-1.04,0.85-1.11
				c0.54-0.07,1.04,0.31,1.11,0.85L236,763.69V632.3c0-0.55,0.44-0.99,0.99-0.99c0.55,0,0.99,0.44,0.99,0.99v146.08
				c0,0.52-0.4,0.95-0.92,0.99C237.04,779.37,237.01,779.37,236.99,779.37z"/>
			<path style="fill:#B7C0CE;" d="M581.37,738.78c-0.49,0-0.91-0.36-0.98-0.86l-18.34-134.2c-0.07-0.54,0.31-1.04,0.85-1.12
				c0.54-0.08,1.04,0.3,1.12,0.85l16.37,119.77V598.28c0-0.55,0.44-0.99,0.99-0.99c0.55,0,0.99,0.44,0.99,0.99v139.52
				c0,0.52-0.4,0.95-0.92,0.99C581.41,738.78,581.39,738.78,581.37,738.78z"/>
			<path style="fill:#B7C0CE;" d="M60.72,752.52c-0.02,0-0.05,0-0.07,0c-0.52-0.04-0.92-0.47-0.92-0.99V619.14
				c0-0.55,0.44-0.99,0.99-0.99c0.55,0,0.99,0.44,0.99,0.99v118.85l17.5-118.99c0.08-0.54,0.59-0.92,1.12-0.84
				c0.54,0.08,0.92,0.58,0.84,1.12L61.7,751.67C61.63,752.16,61.21,752.52,60.72,752.52z"/>
		</g>
		<g>
			<g>
				<path style="fill:#412B6C;" d="M139.59,615.59c1.53-1.71,3.07-3.43,4.6-5.14c-11.95-15.68-21.43-22.47-28.14-25.71
					c-1.41-0.68-4.03-1.85-4.6-4.19c-1.46-6,12.76-10.38,19.48-22.32c6.23-11.07,5.4-27.53,0-30.04
					c-10.7-4.97-58.06,36.15-44.92,65.48C92.88,609.01,115.04,618.32,139.59,615.59z"/>
			</g>
		</g>
		<polygon style="fill:#B7C0CE;" points="173.1,608.8 173.1,606.85 257.17,602.32 257.17,604.25 197.76,610.1 		"/>
		<polygon style="fill:#EBEFF2;" points="173.1,606.85 199.18,607.18 257.17,602.32 240.96,601.33 		"/>
		<g>
			<path style="fill:#B7C0CE;" d="M184.25,600.11l23.64-73.98c0.37-1.17,1.7-2.01,3.21-2.04l103.53-1.9
				c0.88-0.02,2.41,0.63,2.95,1.19c0.54,0.56,1.27,0.66,1.07,1.38l-19.3,65.1c-0.32,1.08-1.47,1.92-2.81,2.05l-110.39,10.12
				L184.25,600.11z"/>
			<path style="fill:#EBEFF2;" d="M186.15,602.02l23.98-74.48c0.37-1.16,1.7-2.01,3.2-2.03l103.31-1.97c0.88-0.02,1.7,0.3,2.24,0.85
				c0.54,0.56,0.73,1.3,0.53,2.02l-18.05,64.66c-0.31,1.11-1.5,1.97-2.87,2.08L186.15,602.02z"/>
			<path style="opacity:0.3;fill:#EBEFF2;" d="M186.15,602.02l112.34-8.87c1.37-0.11,2.56-0.97,2.87-2.08l5.45-19.52
				c-34.24,11.97-74.92,10.66-115.25,13.69L186.15,602.02z"/>
			<path style="fill:#FFFFFF;" d="M252.17,614.48l-4.26,1.47c0,0-22.4-4.21-23.38-4.89c-0.16-0.11-0.69-1.15,0.31-1.32
				c5.29-0.91,24.59-1.58,24.59-1.58l1.77,0.1L252.17,614.48z"/>
			<path style="fill:#D8DEE8;" d="M252.48,613.17l-4.26,1.47c0,0-22.4-4.22-23.38-4.91c-0.98-0.69,24.9-2.89,24.9-2.89l1.77,0.1
				L252.48,613.17z"/>
			<path style="fill:#FFFFFF;" d="M271,561.72c0,0,10.87,46.77,11.19,49.51c0.3,2.53-26.43,5-32.83,5.22
				c-0.53,0.02-1.24-0.35-1.45-0.5c-1.77-0.2,6.52-53.56,6.52-53.56l0.61,0.02L271,561.72z"/>
			<path style="fill:#D8DEE8;" d="M271,561.72c0,0,12.36,47.25,12.68,49.98c0.32,2.73-31.45,4.82-34.23,4.73
				c-1.77-0.2,5.59-54.01,5.59-54.01L271,561.72z"/>
		</g>
		<path style="fill:#EBEFF2;" d="M146.3,606.85c0,0,7.05-3.23,11.13-2.94c4.07,0.29,9.8,3.99,10.8,6.19c1,2.2-13.78,1.96-13.78,1.96
			S136.83,611.37,146.3,606.85z"/>
		
			<linearGradient id="SVGID_00000029015333246931509960000009040142566146647731_" gradientUnits="userSpaceOnUse" x1="149.5968" y1="600.0933" x2="154.3649" y2="616.5381">
			<stop  offset="0" style="stop-color:#FFC444"/>
			<stop  offset="0.9964" style="stop-color:#F36F56"/>
		</linearGradient>
		<path style="fill:url(#SVGID_00000029015333246931509960000009040142566146647731_);" d="M142.65,603.08
			c3.94-5,13.32-1.95,13.85-1.77c2.24,0.76,5.25,2.31,5.04,3.3c-0.2,0.96-3.23,0.46-8.22,1.3c-7.3,1.23-10.54,3.94-11.83,2.56
			C140.5,607.42,141.35,604.72,142.65,603.08z"/>
	</g>
	<path style="fill:#FFFFFF;" d="M88.93,231.39c-17.92,0-32.45,14.53-32.45,32.45c0,11.61,13.63,38.63,23.22,56.21
		c3.99,7.31,14.47,7.31,18.46,0c9.59-17.58,23.22-44.59,23.22-56.21C121.38,245.91,106.85,231.39,88.93,231.39z M88.93,281.26
		c-9.62,0-17.42-7.8-17.42-17.42c0-9.62,7.8-17.42,17.42-17.42c9.62,0,17.42,7.8,17.42,17.42
		C106.36,273.46,98.56,281.26,88.93,281.26z"/>
	<path style="fill:#FFFFFF;" d="M170.14,350.83c-11.74,0-21.26,9.52-21.26,21.26c0,7.61,8.93,25.31,15.22,36.83
		c2.61,4.79,9.48,4.79,12.1,0c6.29-11.52,15.22-29.22,15.22-36.83C191.41,360.35,181.89,350.83,170.14,350.83z M170.14,383.51
		c-6.31,0-11.42-5.11-11.42-11.42s5.11-11.42,11.42-11.42c6.31,0,11.42,5.11,11.42,11.42S176.45,383.51,170.14,383.51z"/>
	<path style="fill:#FFFFFF;" d="M447.52,345.3c-13.85,0-25.07,11.23-25.07,25.07c0,8.97,10.53,29.85,17.94,43.43
		c3.08,5.65,11.18,5.65,14.26,0c7.41-13.58,17.94-34.46,17.94-43.43C472.59,356.53,461.36,345.3,447.52,345.3z M447.52,383.84
		c-7.43,0-13.46-6.03-13.46-13.46c0-7.43,6.03-13.46,13.46-13.46c7.43,0,13.46,6.03,13.46,13.46
		C460.98,377.81,454.95,383.84,447.52,383.84z"/>
	<path style="fill:#FFFFFF;" d="M358.07,340.72c-8.64,0-15.64,7-15.64,15.64c0,5.6,6.57,18.62,11.19,27.09
		c1.92,3.52,6.97,3.52,8.9,0c4.62-8.47,11.19-21.49,11.19-27.09C373.71,347.72,366.71,340.72,358.07,340.72z M358.07,364.75
		c-4.64,0-8.4-3.76-8.4-8.4c0-4.64,3.76-8.4,8.4-8.4c4.64,0,8.4,3.76,8.4,8.4C366.47,360.99,362.71,364.75,358.07,364.75z"/>
	<g>
		<path style="fill:#FFFFFF;" d="M100.41,338.53c-3.57,0-5.55-0.1-5.63-0.11c-0.55-0.03-0.97-0.5-0.94-1.04
			c0.03-0.55,0.51-0.96,1.04-0.94c0.02,0,2.14,0.11,5.88,0.11c0,0,0,0,0,0c0.55,0,0.99,0.44,0.99,0.99c0,0.55-0.44,0.99-0.99,0.99
			C100.65,338.53,100.53,338.53,100.41,338.53z"/>
		<path style="fill:#FFFFFF;" d="M112.35,338.19c-0.52,0-0.96-0.41-0.99-0.94c-0.03-0.55,0.39-1.01,0.94-1.04
			c3.79-0.21,7.67-0.51,11.53-0.89c0.55-0.06,1.03,0.34,1.08,0.89c0.05,0.54-0.34,1.03-0.89,1.08c-3.89,0.39-7.8,0.69-11.62,0.9
			C112.39,338.19,112.37,338.19,112.35,338.19z M135.45,335.89c-0.48,0-0.91-0.36-0.98-0.85c-0.08-0.54,0.3-1.04,0.84-1.12
			c3.81-0.55,7.65-1.18,11.41-1.89c0.54-0.1,1.06,0.25,1.16,0.79c0.1,0.54-0.25,1.06-0.79,1.16c-3.79,0.71-7.65,1.35-11.49,1.9
			C135.54,335.89,135.5,335.89,135.45,335.89z M158.25,331.59c-0.45,0-0.86-0.31-0.96-0.76c-0.13-0.53,0.2-1.07,0.74-1.19
			c3.77-0.89,7.53-1.87,11.18-2.91c0.53-0.15,1.07,0.15,1.22,0.68c0.15,0.53-0.15,1.07-0.68,1.22c-3.68,1.05-7.48,2.04-11.27,2.94
			C158.4,331.58,158.32,331.59,158.25,331.59z M180.55,325.2c-0.41,0-0.8-0.26-0.94-0.67c-0.18-0.52,0.1-1.08,0.62-1.26
			c3.66-1.25,7.31-2.6,10.83-4.01c0.51-0.2,1.08,0.04,1.29,0.55c0.2,0.51-0.04,1.08-0.55,1.29c-3.55,1.42-7.23,2.79-10.92,4.05
			C180.76,325.19,180.65,325.2,180.55,325.2z M202.06,316.56c-0.37,0-0.73-0.21-0.9-0.57c-0.23-0.5-0.02-1.09,0.48-1.32
			c3.5-1.64,6.96-3.38,10.3-5.19c0.48-0.26,1.08-0.08,1.34,0.4c0.26,0.48,0.08,1.08-0.4,1.34c-3.37,1.83-6.87,3.59-10.4,5.25
			C202.34,316.53,202.2,316.56,202.06,316.56z M222.42,305.5c-0.33,0-0.65-0.16-0.84-0.46c-0.29-0.46-0.15-1.08,0.31-1.37
			c3.27-2.05,6.48-4.22,9.55-6.44c0.44-0.32,1.06-0.22,1.38,0.22c0.32,0.44,0.22,1.06-0.22,1.38c-3.11,2.25-6.36,4.44-9.66,6.51
			C222.78,305.45,222.6,305.5,222.42,305.5z M241.17,291.91c-0.28,0-0.56-0.12-0.76-0.36c-0.35-0.42-0.29-1.04,0.13-1.4
			c2.94-2.46,5.83-5.05,8.56-7.69c0.39-0.38,1.02-0.37,1.4,0.02c0.38,0.39,0.37,1.02-0.03,1.4c-2.77,2.68-5.69,5.29-8.67,7.79
			C241.62,291.83,241.39,291.91,241.17,291.91z M257.82,275.83c-0.24,0-0.47-0.08-0.66-0.25c-0.41-0.36-0.44-0.99-0.08-1.4
			c2.55-2.85,5.02-5.83,7.35-8.85c0.33-0.43,0.96-0.51,1.39-0.18c0.43,0.33,0.51,0.96,0.18,1.39c-2.36,3.06-4.86,6.08-7.44,8.96
			C258.36,275.72,258.09,275.83,257.82,275.83z M271.93,257.5c-0.19,0-0.38-0.05-0.54-0.16c-0.46-0.3-0.58-0.92-0.28-1.37
			c2.09-3.18,4.1-6.48,5.98-9.83c0.27-0.48,0.87-0.65,1.35-0.38c0.48,0.27,0.65,0.87,0.38,1.35c-1.9,3.39-3.93,6.73-6.05,9.95
			C272.57,257.34,272.25,257.5,271.93,257.5z M283.24,237.32c-0.14,0-0.29-0.03-0.42-0.1c-0.49-0.23-0.71-0.82-0.47-1.32
			c1.62-3.43,3.15-6.98,4.56-10.56c0.2-0.51,0.77-0.76,1.28-0.56c0.51,0.2,0.76,0.78,0.56,1.28c-1.43,3.63-2.98,7.22-4.61,10.69
			C283.97,237.11,283.61,237.32,283.24,237.32z M291.72,215.79c-0.1,0-0.2-0.02-0.3-0.05c-0.52-0.17-0.81-0.73-0.64-1.25
			c1.16-3.6,2.24-7.32,3.2-11.07c0.14-0.53,0.67-0.85,1.21-0.71c0.53,0.14,0.85,0.68,0.71,1.21c-0.98,3.79-2.07,7.55-3.24,11.18
			C292.53,215.53,292.14,215.79,291.72,215.79z"/>
		<path style="fill:#FFFFFF;" d="M297.53,193.32c-0.06,0-0.13-0.01-0.19-0.02c-0.54-0.11-0.88-0.63-0.78-1.17
			c0.38-1.92,0.75-3.88,1.08-5.82c0.09-0.54,0.6-0.9,1.14-0.81c0.54,0.09,0.9,0.61,0.81,1.14c-0.34,1.96-0.7,3.94-1.09,5.87
			C298.41,193,298,193.32,297.53,193.32z"/>
	</g>
	<path style="fill:#FFFFFF;" d="M66.72,497.75c-0.03,0-0.06,0-0.09,0c-0.54-0.05-0.95-0.53-0.9-1.07c0.02-0.19,0.44-4.82,2.52-11.87
		c0.16-0.53,0.71-0.82,1.23-0.67c0.52,0.15,0.83,0.71,0.67,1.23c-2.01,6.84-2.44,11.44-2.44,11.48
		C67.66,497.37,67.23,497.75,66.72,497.75z M73.3,474.91c-0.13,0-0.27-0.03-0.4-0.09c-0.5-0.22-0.73-0.81-0.5-1.31
		c1.63-3.67,3.51-7.25,5.58-10.64c0.28-0.47,0.89-0.61,1.36-0.33c0.47,0.29,0.61,0.9,0.33,1.36c-2.03,3.32-3.87,6.82-5.46,10.41
		C74.05,474.69,73.68,474.91,73.3,474.91z M85.7,454.69c-0.22,0-0.44-0.07-0.63-0.22c-0.42-0.35-0.49-0.97-0.14-1.39
		c2.53-3.1,5.29-6.04,8.22-8.76c0.4-0.37,1.03-0.35,1.4,0.05c0.37,0.4,0.35,1.03-0.05,1.4c-2.86,2.66-5.56,5.54-8.03,8.56
		C86.27,454.56,85.98,454.69,85.7,454.69z M103.05,438.56c-0.31,0-0.62-0.15-0.81-0.42c-0.31-0.45-0.21-1.07,0.24-1.38
		c3.22-2.27,6.66-4.37,10.23-6.25c0.48-0.26,1.08-0.07,1.34,0.41c0.25,0.48,0.07,1.08-0.41,1.34c-3.5,1.84-6.87,3.9-10.02,6.12
		C103.44,438.5,103.24,438.56,103.05,438.56z M123.98,427.48c-0.4,0-0.77-0.24-0.92-0.63c-0.2-0.51,0.06-1.08,0.57-1.28
		c3.63-1.4,7.46-2.65,11.38-3.7c0.53-0.14,1.07,0.17,1.21,0.7c0.14,0.53-0.17,1.07-0.7,1.21c-3.85,1.04-7.61,2.26-11.18,3.64
		C124.22,427.46,124.09,427.48,123.98,427.48z M146.84,421.26c-0.47,0-0.89-0.34-0.98-0.82c-0.09-0.54,0.27-1.05,0.81-1.15
		c3.82-0.66,7.8-1.19,11.84-1.56c0.55-0.05,1.03,0.35,1.08,0.89c0.05,0.54-0.35,1.03-0.89,1.08c-3.99,0.37-7.92,0.89-11.68,1.54
		C146.96,421.25,146.9,421.26,146.84,421.26z"/>
	<path style="fill:#FFFFFF;" d="M411.68,532.16c-0.18,0-0.36-0.05-0.53-0.15c-0.46-0.29-0.6-0.9-0.31-1.37
		c2.13-3.4,4.13-6.8,5.94-10.12c0.26-0.48,0.86-0.66,1.34-0.39c0.48,0.26,0.66,0.86,0.39,1.34c-1.83,3.35-3.85,6.79-6,10.22
		C412.33,531.99,412.01,532.16,411.68,532.16z M422.97,511.36c-0.14,0-0.28-0.03-0.41-0.09c-0.5-0.23-0.72-0.81-0.49-1.31
		c1.67-3.68,3.15-7.36,4.4-10.94c0.18-0.52,0.75-0.79,1.26-0.61c0.52,0.18,0.79,0.75,0.61,1.26c-1.27,3.63-2.77,7.37-4.47,11.11
		C423.71,511.14,423.35,511.36,422.97,511.36z M430.73,488.93c-0.07,0-0.15-0.01-0.22-0.03c-0.53-0.12-0.87-0.65-0.74-1.19
		c0.9-3.93,1.54-7.83,1.9-11.59c0.05-0.54,0.53-0.95,1.08-0.89c0.54,0.05,0.94,0.53,0.89,1.08c-0.36,3.85-1.01,7.84-1.94,11.85
		C431.59,488.62,431.18,488.93,430.73,488.93z M432.85,465.34c-0.52,0-0.95-0.4-0.99-0.93c-0.25-3.93-0.83-7.82-1.73-11.55
		c-0.13-0.53,0.2-1.07,0.73-1.2c0.53-0.13,1.07,0.2,1.2,0.73c0.93,3.84,1.53,7.85,1.78,11.89c0.03,0.55-0.38,1.02-0.93,1.05
		C432.9,465.34,432.87,465.34,432.85,465.34z M427.29,442.39c-0.38,0-0.74-0.22-0.91-0.59c-1.55-3.51-3.46-6.95-5.65-10.24
		c-0.3-0.45-0.18-1.07,0.27-1.37c0.45-0.3,1.07-0.18,1.37,0.27c2.26,3.38,4.21,6.93,5.81,10.54c0.22,0.5,0,1.09-0.5,1.31
		C427.56,442.36,427.42,442.39,427.29,442.39z M414.21,422.67c-0.27,0-0.54-0.11-0.73-0.32c-2.57-2.8-5.43-5.53-8.51-8.11
		c-0.42-0.35-0.47-0.98-0.12-1.4c0.35-0.42,0.98-0.47,1.4-0.12c3.14,2.64,6.07,5.43,8.69,8.29c0.37,0.4,0.34,1.03-0.06,1.4
		C414.69,422.59,414.45,422.67,414.21,422.67z M396.08,407.36c-0.19,0-0.38-0.05-0.55-0.17c-3.2-2.13-6.62-4.16-10.14-6.04
		c-0.48-0.26-0.67-0.86-0.41-1.34c0.26-0.48,0.86-0.67,1.34-0.41c3.58,1.91,7.05,3.97,10.31,6.14c0.46,0.3,0.58,0.92,0.28,1.37
		C396.71,407.2,396.4,407.36,396.08,407.36z M375.09,396.16c-0.13,0-0.26-0.02-0.38-0.08c-6.22-2.61-10.5-3.84-11-3.95
		c-0.48-0.07-0.85-0.48-0.85-0.98c0-0.55,0.44-0.99,0.99-0.99c0.47,0,5.34,1.45,11.62,4.09c0.5,0.21,0.74,0.79,0.53,1.3
		C375.85,395.93,375.48,396.16,375.09,396.16z"/>
	<path style="fill:#FFFFFF;" d="M471.17,427.01c-0.53,0-0.96-0.41-0.99-0.94c-0.03-0.55,0.4-1.01,0.94-1.04
		c3.97-0.19,7.91-0.62,11.69-1.3c0.54-0.1,1.05,0.26,1.15,0.8c0.1,0.54-0.26,1.05-0.8,1.15c-3.86,0.69-7.88,1.14-11.94,1.33
		C471.2,427.01,471.18,427.01,471.17,427.01z M459.28,426.84c-0.02,0-0.05,0-0.07,0c-7.21-0.53-11.74-1.65-11.93-1.7
		c-0.53-0.13-0.85-0.67-0.72-1.2c0.13-0.53,0.67-0.85,1.2-0.72c0.05,0.01,4.58,1.12,11.6,1.64c0.55,0.04,0.96,0.52,0.91,1.06
		C460.23,426.45,459.8,426.84,459.28,426.84z M494.5,422.78c-0.41,0-0.8-0.26-0.94-0.68c-0.17-0.52,0.11-1.08,0.63-1.25
		c3.75-1.25,7.38-2.79,10.78-4.58c0.49-0.25,1.08-0.07,1.34,0.42c0.25,0.48,0.07,1.08-0.42,1.34c-3.5,1.84-7.22,3.42-11.07,4.7
		C494.71,422.76,494.6,422.78,494.5,422.78z M515.43,411.75c-0.3,0-0.59-0.13-0.79-0.39c-0.33-0.43-0.25-1.06,0.18-1.39
		c3.07-2.35,5.98-5,8.66-7.87c0.37-0.4,1-0.42,1.4-0.05c0.4,0.37,0.42,1,0.05,1.4c-2.75,2.95-5.74,5.68-8.9,8.09
		C515.85,411.69,515.64,411.75,515.43,411.75z M531.58,394.48c-0.19,0-0.38-0.05-0.55-0.17c-0.45-0.31-0.57-0.92-0.27-1.38
		c2.13-3.15,4.11-6.56,5.88-10.15c0.24-0.49,0.83-0.69,1.33-0.45c0.49,0.24,0.69,0.84,0.45,1.33c-1.81,3.67-3.84,7.16-6.02,10.38
		C532.21,394.33,531.9,394.48,531.58,394.48z M542.15,373.28c-0.11,0-0.22-0.02-0.33-0.06c-0.52-0.18-0.78-0.75-0.6-1.27
		c1.28-3.57,2.43-7.36,3.43-11.27c0.13-0.53,0.67-0.85,1.2-0.72c0.53,0.13,0.85,0.67,0.72,1.2c-1.01,3.97-2.18,7.82-3.48,11.45
		C542.94,373.03,542.56,373.28,542.15,373.28z"/>
</g>
</svg>
