<?xml version="1.0" encoding="utf-8"?>
<!-- Generator: Adobe Illustrator 26.3.1, SVG Export Plug-In . SVG Version: 6.00 Build 0)  -->
<svg version="1.1" id="Layer_1" xmlns="http://www.w3.org/2000/svg" xmlns:xlink="http://www.w3.org/1999/xlink" x="0px" y="0px"
	 viewBox="0 0 692.19 713.18" style="enable-background:new 0 0 692.19 713.18;" xml:space="preserve">
<g>
	<path style="fill:#26C4CD;" d="M652.22,526.31c-1.97,0-3.56-1.59-3.56-3.56v-10.68c0-1.97,1.59-3.56,3.56-3.56s3.56,1.59,3.56,3.56
		v10.68C655.78,524.71,654.19,526.31,652.22,526.31z M652.22,499.61c-1.97,0-3.56-1.59-3.56-3.56v-10.68c0-1.97,1.59-3.56,3.56-3.56
		s3.56,1.59,3.56,3.56v10.68C655.78,498.01,654.19,499.61,652.22,499.61z M652.22,472.91c-1.97,0-3.56-1.59-3.56-3.56v-10.68
		c0-1.97,1.59-3.56,3.56-3.56s3.56,1.59,3.56,3.56v10.68C655.78,471.31,654.19,472.91,652.22,472.91z M652.22,446.21
		c-1.97,0-3.56-1.59-3.56-3.56v-10.68c0-1.97,1.59-3.56,3.56-3.56s3.56,1.59,3.56,3.56v10.68
		C655.78,444.61,654.19,446.21,652.22,446.21z M652.22,419.51c-1.97,0-3.56-1.59-3.56-3.56v-10.68c0-1.97,1.59-3.56,3.56-3.56
		s3.56,1.59,3.56,3.56v10.68C655.78,417.91,654.19,419.51,652.22,419.51z M652.22,392.81c-1.97,0-3.56-1.59-3.56-3.56v-10.68
		c0-1.97,1.59-3.56,3.56-3.56s3.56,1.59,3.56,3.56v10.68C655.78,391.21,654.19,392.81,652.22,392.81z M652.22,366.11
		c-1.97,0-3.56-1.59-3.56-3.56v-10.68c0-1.97,1.59-3.56,3.56-3.56s3.56,1.59,3.56,3.56v10.68
		C655.78,364.51,654.19,366.11,652.22,366.11z M652.22,339.41c-1.97,0-3.56-1.59-3.56-3.56v-10.68c0-1.97,1.59-3.56,3.56-3.56
		s3.56,1.59,3.56,3.56v10.68C655.78,337.81,654.19,339.41,652.22,339.41z M652.22,312.71c-1.97,0-3.56-1.59-3.56-3.56v-10.68
		c0-1.97,1.59-3.56,3.56-3.56s3.56,1.59,3.56,3.56v10.68C655.78,311.12,654.19,312.71,652.22,312.71z M652.22,286.01
		c-1.97,0-3.56-1.59-3.56-3.56v-10.68c0-1.97,1.59-3.56,3.56-3.56s3.56,1.59,3.56,3.56v10.68
		C655.78,284.42,654.19,286.01,652.22,286.01z"/>
	<g>
		<g>
			<g>
				<g>
					<path style="fill:#BFC8D6;" d="M364.12,260.55l-20.54-1.2c-0.6-13.65-3.08-26.87-7.2-39.4l17.97-9.03
						c4.91-2.47,6.91-8.58,4.47-13.66l-6.51-13.56c-2.45-5.12-8.46-7.3-13.42-4.87l-17.74,8.7c-7.31-11.67-16.23-22.32-26.5-31.65
						l10.88-16.35c3.12-4.69,1.83-11.19-2.9-14.53l-12.64-8.93c-4.78-3.38-11.23-2.3-14.41,2.41l-10.89,16.18
						c-12.35-6.68-25.82-11.77-40.16-14.93l1.2-19.89c0.35-5.87-4.17-11.13-10.13-11.77l-15.94-1.69
						c-6.03-0.64-11.23,3.65-11.58,9.58l-1.21,20.11c-15,0.35-29.59,2.84-43.43,7.22l-9.58-18.82c-2.81-5.53-9.65-8.02-15.29-5.55
						l-15.07,6.62c-5.7,2.5-8,9.06-5.12,14.63l9.94,19.26c-12.61,7.83-24.05,17.42-33.91,28.48L55.1,155.4
						c-5.48-3.55-12.85-2.32-16.46,2.76L29,171.71c-3.64,5.11-2.08,12.12,3.46,15.64l20,12.69c-6.53,12.87-11.26,26.8-13.83,41.51
						l-24.82-1.45c-6.68-0.39-12.42,4.35-12.79,10.58l-1,16.58c-0.37,6.23,4.76,11.55,11.44,11.86l25.5,1.21
						c1.28,14.59,4.7,28.62,9.97,41.76l-23.26,11.41c-5.93,2.91-8.32,9.71-5.31,15.18l7.95,14.48c2.98,5.43,10.16,7.43,16.03,4.48
						l23.54-11.82c8.44,11.3,18.45,21.38,29.7,29.94l-14.45,21.46c-3.52,5.23-2.02,11.99,3.34,15.08l14.18,8.17
						c5.3,3.05,12.4,1.3,15.86-3.89l14.35-21.56c12.57,5.3,25.99,8.99,40,10.83l-1.5,24.91c-0.36,5.93,4.29,10.74,10.36,10.74
						l16.04,0c5.99,0,11.12-4.75,11.48-10.62l1.48-24.64c13.79-1.51,27.03-4.82,39.45-9.65l10.85,21.02
						c2.59,5.02,8.88,6.77,14.03,3.92l13.63-7.54c5.1-2.82,7.16-9.14,4.62-14.13l-10.51-20.66c10.98-7.67,20.9-16.71,29.47-26.85
						l18.89,11.99c4.64,2.94,10.86,1.41,13.92-3.42l8.09-12.79c3.03-4.79,1.78-11.08-2.8-14.05l-18.25-11.82
						c5.84-11.7,10.19-24.26,12.79-37.46l21.11,1.01c5.44,0.26,10.11-4.07,10.45-9.67l0.89-14.89
						C373.68,265.66,369.56,260.87,364.12,260.55z M190.47,373.12c-60.91-1.4-108.94-51.62-105.3-112.14
						c3.64-60.51,57.37-105.28,118.06-100.15c58.63,4.96,101.94,54.93,98.52,111.77C298.34,329.45,249.32,374.47,190.47,373.12z"/>
					<polygon style="fill:#BFC8D6;" points="138.67,99.35 124.07,97.96 118.24,110.78 					"/>
					<polygon style="fill:#BFC8D6;" points="283.37,114.12 300.23,115.3 299.48,127.74 					"/>
					<polygon style="fill:#BFC8D6;" points="344.05,178 360.82,179.69 356.05,188.86 					"/>
					<polygon style="fill:#BFC8D6;" points="365.57,260.81 382.47,263.18 376.42,271.08 					"/>
					<polygon style="fill:#BFC8D6;" points="330.31,375.64 346.65,378.99 349.48,365.66 					"/>
					<polygon style="fill:#BFC8D6;" points="263.61,432.55 278.25,436.13 280.08,425.28 					"/>
					<polygon style="fill:#BFC8D6;" points="188.05,454.34 174.91,451.19 187.36,434.89 					"/>
					<polygon style="fill:#BFC8D6;" points="116.94,435.72 101.66,431.6 114.47,417.85 					"/>
					<polygon style="fill:#BFC8D6;" points="46.66,153.39 62.77,154.86 55.67,166.25 					"/>
					<polygon style="fill:#BFC8D6;" points="6.93,278.08 21.6,281.15 21.15,268.97 					"/>
					<polygon style="fill:#BFC8D6;" points="33.39,368.6 47.71,371.82 49.46,362.31 					"/>
				</g>
				<path style="fill:#D8DEE8;" d="M380.64,262.88l-20.71-1.21c-0.6-13.76-3.1-27.09-7.26-39.72l18.12-9.1
					c4.95-2.49,6.96-8.65,4.5-13.77l-6.56-13.67c-2.48-5.16-8.53-7.36-13.53-4.91l-17.88,8.77c-7.37-11.76-16.37-22.5-26.72-31.9
					l10.97-16.49c3.15-4.73,1.84-11.28-2.92-14.65l-12.74-9.01c-4.82-3.41-11.33-2.32-14.53,2.43l-10.98,16.31
					c-12.45-6.74-26.03-11.87-40.49-15.06l1.2-20.05c0.36-5.92-4.21-11.22-10.22-11.86l-16.07-1.7c-6.08-0.64-11.32,3.68-11.68,9.66
					l-1.22,20.27c-15.12,0.35-29.83,2.86-43.79,7.27l-9.66-18.97c-2.84-5.58-9.73-8.09-15.42-5.59l-15.19,6.67
					c-5.75,2.52-8.06,9.13-5.17,14.75l10.02,19.42c-12.72,7.89-24.25,17.56-34.19,28.71l-19.48-12.62
					c-5.52-3.58-12.96-2.34-16.6,2.78l-9.72,13.66c-3.67,5.15-2.1,12.22,3.49,15.77l20.17,12.8c-6.59,12.97-11.35,27.02-13.95,41.85
					l-25.03-1.46c-6.74-0.39-12.52,4.38-12.9,10.67l-1,16.71c-0.38,6.28,4.8,11.64,11.54,11.96l25.71,1.22
					c1.29,14.71,4.74,28.85,10.06,42.1l-23.45,11.51c-5.98,2.93-8.38,9.79-5.36,15.3l8.02,14.6c3.01,5.47,10.25,7.49,16.16,4.51
					l23.73-11.92c8.51,11.39,18.6,21.55,29.95,30.19l-14.57,21.63c-3.55,5.27-2.04,12.09,3.37,15.2l14.3,8.24
					c5.35,3.08,12.5,1.31,15.99-3.93l14.47-21.74c12.67,5.34,26.21,9.07,40.33,10.92l-1.51,25.11c-0.36,5.98,4.33,10.83,10.45,10.83
					l16.18,0c6.04,0,11.22-4.79,11.57-10.71l1.49-24.84c13.91-1.53,27.25-4.86,39.78-9.73l10.94,21.2
					c2.61,5.06,8.95,6.83,14.15,3.95l13.74-7.6c5.14-2.84,7.22-9.22,4.66-14.25l-10.6-20.83c11.08-7.73,21.07-16.84,29.72-27.07
					l19.04,12.08c4.68,2.97,10.95,1.42,14.03-3.45l8.16-12.89c3.06-4.83,1.8-11.17-2.83-14.16l-18.4-11.92
					c5.89-11.79,10.27-24.46,12.9-37.77l21.28,1.01c5.49,0.26,10.2-4.1,10.53-9.75l0.9-15.01
					C390.28,268.03,386.12,263.2,380.64,262.88z M205.55,376.37c-61.42-1.41-109.84-52.04-106.18-113.05
					c3.67-61.01,57.85-106.13,119.04-100.96c59.11,5,102.79,55.38,99.34,112.68C314.31,332.35,264.88,377.73,205.55,376.37z"/>
			</g>
		</g>
		<g>
			<g>
				<g>
					<path style="fill:#BFC8D6;" d="M560.28,414.35l-10.93-2.72c1.06-7.4,1.06-14.76,0.11-21.92l10.58-3.04
						c2.89-0.83,4.58-3.92,3.78-6.9l-2.13-7.95c-0.8-3-3.81-4.78-6.72-3.97l-10.42,2.89c-2.75-7.01-6.47-13.64-11.06-19.69l7.5-7.7
						c2.15-2.21,2.11-5.83-0.09-8.11l-5.9-6.08c-2.23-2.3-5.81-2.37-7.99-0.16l-7.49,7.6c-5.97-4.84-12.7-8.94-20.09-12.09
						l2.65-10.58c0.78-3.12-1.12-6.41-4.26-7.35l-8.4-2.52c-3.18-0.95-6.41,0.83-7.2,3.98l-2.68,10.69
						c-8.1-1.33-16.2-1.46-24.08-0.5l-3.25-11.09c-0.96-3.26-4.38-5.29-7.66-4.53l-8.77,2.04c-3.32,0.77-5.22,4.07-4.23,7.35
						l3.4,11.36c-7.57,2.94-14.69,6.94-21.11,11.89l-9.13-8.68c-2.59-2.46-6.68-2.55-9.13-0.18l-6.55,6.32
						c-2.47,2.38-2.34,6.31,0.28,8.76l9.48,8.85c-4.81,6.26-8.76,13.28-11.63,20.93l-13.2-3.29c-3.55-0.88-7.12,1.08-7.95,4.4
						l-2.21,8.82c-0.83,3.31,1.39,6.69,4.96,7.54l13.59,3.23c-0.78,7.98-0.36,15.86,1.15,23.47l-13.66,3.79
						c-3.48,0.97-5.45,4.38-4.39,7.63l2.81,8.59c1.05,3.22,4.72,5.02,8.17,4.03l13.85-3.98c3.4,6.93,7.76,13.36,12.95,19.1
						l-9.94,10.08c-2.42,2.46-2.3,6.24,0.27,8.45l6.8,5.82c2.54,2.18,6.54,1.95,8.92-0.49l9.89-10.15
						c6.23,4.12,13.07,7.46,20.42,9.86l-3.32,13.24c-0.79,3.15,1.22,6.21,4.49,6.82l8.63,1.62c3.22,0.61,6.46-1.43,7.24-4.55
						l3.28-13.1c7.57,0.58,15.02,0.14,22.19-1.21l3.71,12.4c0.89,2.96,4.09,4.54,7.15,3.52l8.09-2.68c3.03-1,4.78-4.19,3.91-7.13
						l-3.57-12.17c6.68-3.01,12.92-6.88,18.56-11.46l8.95,8.35c2.2,2.05,5.7,1.85,7.83-0.43l5.64-6.06
						c2.12-2.27,2.08-5.78-0.09-7.84l-8.62-8.2c4.32-5.7,7.93-12.02,10.66-18.85l11.25,2.67c2.9,0.69,5.85-1.17,6.6-4.14l1.98-7.92
						C564.9,418.06,563.17,415.07,560.28,414.35z M455.52,457.36c-32.62-6.9-53.37-38.76-45.31-70.94
						c8.07-32.18,41.48-50.83,73.6-41.94c31.03,8.58,49.28,39.83,41.7,70.06C517.94,444.76,487.03,464.02,455.52,457.36z"/>
					<polygon style="fill:#BFC8D6;" points="455.3,304.89 447.59,302.67 443.16,308.98 					"/>
					<polygon style="fill:#BFC8D6;" points="531.63,327.44 540.58,329.78 538.92,336.4 					"/>
					<polygon style="fill:#BFC8D6;" points="557.81,367.93 566.66,370.53 563.17,374.98 					"/>
					<polygon style="fill:#BFC8D6;" points="561.02,414.63 569.88,417.61 565.83,421.25 					"/>
					<polygon style="fill:#BFC8D6;" points="530.47,472.83 538.92,476.28 541.79,469.39 					"/>
					<polygon style="fill:#BFC8D6;" points="488.85,496.7 496.36,500.11 498.45,494.45 					"/>
					<polygon style="fill:#BFC8D6;" points="446.02,500.79 439.27,497.77 447.61,490.26 					"/>
					<polygon style="fill:#BFC8D6;" points="409.65,483.6 401.86,479.84 410.13,473.74 					"/>
					<polygon style="fill:#BFC8D6;" points="400.36,324.66 408.88,327.08 403.91,332.49 					"/>
					<polygon style="fill:#BFC8D6;" points="366.41,387.71 373.99,390.84 374.98,384.25 					"/>
					<polygon style="fill:#BFC8D6;" points="371.5,439.06 378.87,442.24 380.78,437.3 					"/>
				</g>
				<path style="fill:#D8DEE8;" d="M568.92,417.27l-11.02-2.74c1.06-7.46,1.07-14.88,0.11-22.09l10.66-3.06
					c2.91-0.84,4.62-3.95,3.81-6.95l-2.15-8.02c-0.81-3.02-3.84-4.82-6.78-4l-10.5,2.91c-2.78-7.07-6.53-13.76-11.15-19.86
					l7.57-7.76c2.17-2.23,2.13-5.88-0.09-8.17l-5.94-6.13c-2.25-2.32-5.86-2.39-8.06-0.16l-7.55,7.66
					c-6.02-4.88-12.8-9.01-20.26-12.19l2.67-10.66c0.79-3.15-1.13-6.46-4.3-7.41l-8.47-2.54c-3.21-0.96-6.46,0.84-7.26,4.02
					l-2.7,10.78c-8.17-1.34-16.33-1.47-24.28-0.51l-3.28-11.18c-0.96-3.28-4.42-5.33-7.73-4.56l-8.84,2.05
					c-3.34,0.78-5.26,4.1-4.27,7.41l3.43,11.46c-7.64,2.96-14.81,7-21.29,11.99l-9.2-8.75c-2.61-2.48-6.73-2.57-9.21-0.18
					l-6.61,6.37c-2.49,2.4-2.36,6.36,0.29,8.83l9.56,8.92c-4.85,6.31-8.83,13.38-11.73,21.1l-13.31-3.31
					c-3.58-0.89-7.18,1.09-8.01,4.43l-2.23,8.89c-0.84,3.34,1.41,6.74,5,7.6l13.7,3.25c-0.79,8.04-0.36,15.99,1.16,23.66
					l-13.77,3.82c-3.51,0.97-5.5,4.42-4.43,7.69l2.84,8.66c1.06,3.25,4.75,5.06,8.24,4.06l13.97-4.01
					c3.43,6.98,7.83,13.47,13.06,19.26l-10.02,10.16c-2.44,2.48-2.32,6.29,0.28,8.52l6.86,5.87c2.56,2.2,6.59,1.97,8.99-0.5
					l9.98-10.23c6.28,4.15,13.18,7.52,20.59,9.94l-3.35,13.35c-0.8,3.18,1.23,6.26,4.53,6.88l8.7,1.64c3.25,0.61,6.52-1.44,7.3-4.59
					l3.31-13.21c7.63,0.58,15.15,0.14,22.37-1.21l3.74,12.5c0.89,2.99,4.12,4.57,7.21,3.55l8.16-2.7c3.05-1.01,4.81-4.23,3.94-7.19
					l-3.6-12.27c6.74-3.04,13.03-6.93,18.72-11.56l9.02,8.42c2.21,2.07,5.75,1.87,7.89-0.44l5.69-6.11c2.13-2.29,2.09-5.82-0.09-7.9
					l-8.69-8.27c4.36-5.75,7.99-12.12,10.75-19.01l11.34,2.69c2.92,0.69,5.9-1.18,6.65-4.18l2-7.98
					C573.58,421.01,571.84,417.99,568.92,417.27z M463.3,460.63c-32.89-6.96-53.82-39.08-45.69-71.52
					c8.13-32.44,41.82-51.24,74.21-42.28c31.29,8.66,49.69,40.16,42.05,70.63C526.24,447.93,495.07,467.35,463.3,460.63z"/>
			</g>
		</g>
	</g>
	<g>
		<g>
			<path style="fill:#1074C6;" d="M637.4,590.48l-589-5.13v15.18c0,4.12,2.57,7.62,6.05,8.25L221,638.67
				c1.98,0.35,3.98,0.45,5.98,0.28L631,604.87c3.61-0.3,6.4-3.82,6.4-8.05V590.48z"/>
			<linearGradient id="SVGID_1_" gradientUnits="userSpaceOnUse" x1="241.9398" y1="430.7676" x2="197.0362" y2="449.6271">
				<stop  offset="0" style="stop-color:#40447E"/>
				<stop  offset="0.9964" style="stop-color:#3C3B6B"/>
			</linearGradient>
			<path style="fill:url(#SVGID_1_);" d="M447.79,565.88L54.88,593.65c-7.03,0.5-12.75-4.78-12.75-11.79V300.97
				c0-7.01,5.72-12.69,12.75-12.69h392.91c5.79,0,10.48,5.14,10.48,11.48v253.91C458.27,560,453.58,565.47,447.79,565.88z"/>
			<path style="fill:#0E5BA8;" d="M454.06,565.88L61.15,593.65c-7.03,0.5-12.75-4.78-12.75-11.79V300.97
				c0-7.01,5.72-12.69,12.75-12.69h392.91c5.79,0,10.48,5.14,10.48,11.48v253.91C464.53,560,459.85,565.47,454.06,565.88z"/>
			<path style="fill:#F68D1E;" d="M441.82,547.98L75.86,572.1c-5.72,0.38-10.37-3.96-10.37-9.68V316.5
				c0-5.72,4.65-10.38,10.37-10.41l365.95-1.51c4.78-0.02,8.64,4.19,8.64,9.4v223.98C450.46,543.18,446.59,547.66,441.82,547.98z"/>
			<path style="fill:#0E5BA8;" d="M444.25,564.62L48.4,593.85L221,624.82c1.98,0.35,3.98,0.45,5.98,0.28l410.42-34.62l-186.85-25.67
				C448.46,564.53,446.35,564.47,444.25,564.62z"/>
			<g>
				<ellipse style="fill:#FFFFFF;" cx="288.48" cy="435.39" rx="63.39" ry="64.2"/>
				
					<linearGradient id="SVGID_00000072246716579794506920000005201312390360319621_" gradientUnits="userSpaceOnUse" x1="254.5542" y1="433.8734" x2="322.4109" y2="433.8734">
					<stop  offset="0" style="stop-color:#FF9085"/>
					<stop  offset="1" style="stop-color:#FB6FBB"/>
				</linearGradient>
				<path style="fill:url(#SVGID_00000072246716579794506920000005201312390360319621_);" d="M286.25,469.98
					c-2.75,0-5.3-1.46-6.73-3.85l-23.85-40.2c-2.23-3.76-1.03-8.65,2.69-10.91c3.71-2.26,8.53-1.04,10.77,2.72l16.55,27.91
					l21.88-43.54c1.97-3.91,6.69-5.47,10.55-3.48c3.86,1.99,5.4,6.78,3.43,10.69l-28.31,56.32c-1.29,2.57-3.87,4.24-6.72,4.34
					C286.43,469.98,286.34,469.98,286.25,469.98z"/>
			</g>
			<polygon style="fill:#0F3B60;" points="106.16,594.58 435.72,569.89 537.72,583.78 210.99,610.18 			"/>
			<path style="opacity:0.48;fill:#FFFFFF;" d="M359.39,488.84c-30.29-16.3-54.11,4.35-77.09-16.02
				c-13.93-12.35-7.09-21.56-24.24-40.02c-18.99-20.45-31.36-13.57-50.44-31.97c-24.13-23.27-12.06-41.37-32.85-58.07
				c-25.22-20.27-52.41-1.51-76.42-20.94c-10.35-8.38-16.03-20.57-19-33.53H55.86c-4.12,0-7.46,3.34-7.46,7.45v291.16
				c0,4.12,3.34,7.21,7.46,6.92l400.44-28.42c1.97-0.14,3.71-1.29,4.83-2.95c-29.31-1.07-47.32-10.9-58.83-21.05
				C379.77,521.51,383.68,501.91,359.39,488.84z"/>
		</g>
		<g>
			<g>
				<g>
					
						<linearGradient id="SVGID_00000087378058983460914210000010182870009515243687_" gradientUnits="userSpaceOnUse" x1="619.8016" y1="655.7635" x2="505.6353" y2="558.3745">
						<stop  offset="0" style="stop-color:#444B8C"/>
						<stop  offset="0.9964" style="stop-color:#26264F"/>
					</linearGradient>
					<path style="fill:url(#SVGID_00000087378058983460914210000010182870009515243687_);" d="M604.74,457.52v219.3
						c0,3.28-3.59,4.24-7.66,4.64l-140.79,15.74l-2.15,0.21c-4.42,0.43-8.04-2.02-8.04-5.45V462.8c0-3.43,3.62-6.35,8.04-6.48
						l2.92-0.09l141.29,0.46C602.42,456.55,604.74,454.24,604.74,457.52z"/>
					<path style="fill:#0E5BA8;" d="M609.08,457.27V676.5c0,3.28-3.32,6.28-7.39,6.68l-143.13,13.9c-4.42,0.43-8.04-2.02-8.04-5.45
						V462.54c0-3.43,3.62-6.34,8.04-6.48l143.13-4.52C605.76,451.41,609.08,453.99,609.08,457.27z"/>
					<path style="fill:#F68D1E;" d="M604.5,469.59v203.15c0,3.06-3.11,5.86-6.91,6.23L463,691.87c-4.11,0.39-7.48-1.89-7.48-5.09
						V475.06c0-3.19,3.37-5.92,7.48-6.06l134.58-4.73C601.39,464.13,604.5,466.53,604.5,469.59z"/>
				</g>
			</g>
			<g>
				<path style="fill:#FFFFFF;" d="M583.05,558.79c0,27.45-22.12,51.17-49.48,53c-27.46,1.84-49.79-19.06-49.79-46.67
					c0-27.62,22.33-51.36,49.79-53.02C560.94,510.44,583.05,531.35,583.05,558.79z"/>
				
					<linearGradient id="SVGID_00000031895208083209689250000004842458863645843638_" gradientUnits="userSpaceOnUse" x1="506.9646" y1="560.1996" x2="560.0933" y2="560.1996">
					<stop  offset="0" style="stop-color:#FF9085"/>
					<stop  offset="1" style="stop-color:#FB6FBB"/>
				</linearGradient>
				<path style="fill:url(#SVGID_00000031895208083209689250000004842458863645843638_);" d="M531.82,588.92
					c-2.15,0.14-4.15-0.86-5.27-2.65l-18.71-30.04c-1.75-2.82-0.81-6.67,2.11-8.61c2.92-1.94,6.7-1.23,8.45,1.58l12.98,20.86
					l17.12-34.87c1.54-3.13,5.23-4.56,8.24-3.21c3.01,1.36,4.21,4.99,2.68,8.12l-22.13,45.1c-1.01,2.06-3.03,3.49-5.26,3.71
					C531.97,588.91,531.9,588.92,531.82,588.92z"/>
			</g>
			<g style="opacity:0.48;">
				<path style="fill:#FFFFFF;" d="M562.82,583.42c-13.02-26.13-43.45-19.89-54.89-48.39c-6.82-17,1.67-25.06-3.44-45.8
					c-3.46-14.04-11.01-25.22-19.57-34l-26.35,0.83c-4.41,0.14-8.04,3.06-8.04,6.48v229.09c0,3.43,3.62,5.88,8.04,5.45l115.18-11.19
					c-8.53-11.85-12.18-23-13.5-32.67C556.17,623.23,574.38,606.63,562.82,583.42z"/>
			</g>
		</g>
		<g>
			<g>
				<g>
					
						<linearGradient id="SVGID_00000119075931969711164860000006801229103681688992_" gradientUnits="userSpaceOnUse" x1="698.8157" y1="679.8055" x2="627.7119" y2="619.1507">
						<stop  offset="0" style="stop-color:#444B8C"/>
						<stop  offset="0.9964" style="stop-color:#26264F"/>
					</linearGradient>
					<path style="fill:url(#SVGID_00000119075931969711164860000006801229103681688992_);" d="M682.7,549.22v151.34
						c0,2.26-1.93,2.89-4.13,3.12l-75.55,9.35l-1.15,0.12c-2.36,0.25-4.3-1.48-4.3-3.83V551.9c0-2.35,1.94-4.34,4.3-4.41l1.56-0.05
						l75.83,1.16C681.45,548.54,682.7,546.96,682.7,549.22z"/>
					<path style="fill:#0E5BA8;" d="M685.04,549.08V700.4c0,2.26-1.79,4.3-3.98,4.53l-76.82,8.06c-2.36,0.25-4.29-1.48-4.29-3.83
						V551.75c0-2.35,1.93-4.34,4.29-4.41l76.82-2.27C683.25,545.02,685.04,546.81,685.04,549.08z"/>
					<path style="fill:#F68D1E;" d="M682.57,557.55v140.2c0,2.11-1.67,4.02-3.72,4.23l-72.24,7.47c-2.2,0.23-4-1.38-4-3.57V560.38
						c0-2.19,1.8-4.05,4-4.12l72.24-2.43C680.89,553.77,682.57,555.44,682.57,557.55z"/>
				</g>
			</g>
			<g>
				<path style="fill:#FFFFFF;" d="M674.05,619.86c0,16.34-13.1,30.49-29.29,31.6c-16.22,1.11-29.4-11.28-29.4-27.68
					s13.17-30.55,29.4-31.61C660.95,591.12,674.05,603.52,674.05,619.86z"/>
				
					<linearGradient id="SVGID_00000098934973085230411170000000338217673799991463_" gradientUnits="userSpaceOnUse" x1="629.0354" y1="620.7552" x2="660.4456" y2="620.7552">
					<stop  offset="0" style="stop-color:#FF9085"/>
					<stop  offset="1" style="stop-color:#FB6FBB"/>
				</linearGradient>
				<path style="fill:url(#SVGID_00000098934973085230411170000000338217673799991463_);" d="M643.72,637.86
					c-1.27,0.09-2.46-0.51-3.11-1.57l-11.05-17.83c-1.04-1.67-0.48-3.96,1.25-5.12c1.72-1.16,3.96-0.74,4.99,0.93l7.67,12.38
					l10.13-20.77c0.91-1.86,3.09-2.73,4.88-1.93c1.78,0.8,2.49,2.96,1.59,4.83l-13.09,26.87c-0.6,1.23-1.79,2.08-3.11,2.21
					C643.81,637.85,643.76,637.86,643.72,637.86z"/>
			</g>
			<g style="opacity:0.48;">
				<path style="fill:#FFFFFF;" d="M660.07,639.71c-7.01-17.62-25.91-13.46-31.79-31.27c-4.8-14.54,5.88-23.06,1.7-39.89
					c-2.35-9.45-8.12-16.46-14.03-21.54l-11.71,0.35c-2.36,0.07-4.29,2.05-4.29,4.41v157.41c0,2.35,1.93,4.08,4.29,3.83l58.9-6.18
					c-4.73-7.45-6.63-14.26-7.3-19.92C653.39,666.32,666.49,655.85,660.07,639.71z"/>
			</g>
		</g>
	</g>
	<g>
		<path style="fill:#0F3B60;" d="M634.79,94.56c-23.87-10.95-50.49-8.02-72.31,5.37c-6.18-39.5-29.42-74.04-65.29-90.44
			c-58.42-26.71-128.09,4.9-155.9,70.22c-7.15,16.79-10.85,34.2-11.43,51.26c-2.93-2.14-6.08-4.02-9.43-5.59
			c-31.26-14.69-68.68,2.15-83.66,37.48c-14.95,35.27-2.5,77.12,29.06,90.73c16.91,7.29,44.1,9.56,44.1,9.56
			s270.44,0.86,278.91,1.59c33.89,2.93,68.38-17.8,84.18-53.99C692.81,165.39,675.63,113.29,634.79,94.56z"/>
		<path style="fill:#0E5BA8;" d="M645.71,97.89c-23.89-10.95-50.53-8.02-72.38,5.38c-6.19-39.52-29.44-74.07-65.34-90.48
			c-58.47-26.72-128.19,4.91-156.03,70.25c-7.16,16.8-10.86,34.22-11.44,51.28c-2.93-2.14-6.08-4.02-9.44-5.59
			c-31.29-14.69-68.73,2.15-83.73,37.5c-14.96,35.28-1.98,75.87,29.09,90.77c6.59,3.16,44.14,9.56,44.14,9.56
			s270.67,0.84,279.14,1.58c33.92,2.93,68.44-17.81,84.25-54.02C703.77,168.75,686.58,116.63,645.71,97.89z"/>
		<g style="opacity:0.3;">
			<path style="fill:#FFFFFF;" d="M472.01,196.4c-33.3-40.44-3.07-88.22-36.55-116.96c-22.73-19.52-50.96-9.65-73.41-15.83
				c-3.78,6.09-7.17,12.57-10.09,19.43c-7.16,16.8-10.86,34.22-11.44,51.28c-2.93-2.14-6.08-4.02-9.44-5.59
				c-31.29-14.69-68.73,2.15-83.73,37.5c-14.97,35.28-1.98,75.87,29.09,90.77c6.59,3.16,44.14,9.56,44.14,9.56
				s270.67,0.84,279.14,1.58c5.53,0.48,11.08,0.32,16.56-0.42c-10.52-10.58-20.96-18.25-30.59-23.97
				C537.02,214.86,500.24,230.68,472.01,196.4z"/>
		</g>
	</g>
	<path style="fill:#26C4CD;" d="M541.6,443.76c-1.97,0-3.56-1.59-3.56-3.56v-10.68c0-1.97,1.59-3.56,3.56-3.56
		c1.97,0,3.56,1.59,3.56,3.56v10.68C545.16,442.16,543.56,443.76,541.6,443.76z M541.6,417.06c-1.97,0-3.56-1.59-3.56-3.56v-10.68
		c0-1.97,1.59-3.56,3.56-3.56c1.97,0,3.56,1.59,3.56,3.56v10.68C545.16,415.46,543.56,417.06,541.6,417.06z M541.6,390.36
		c-1.97,0-3.56-1.59-3.56-3.56v-10.68c0-1.97,1.59-3.56,3.56-3.56c1.97,0,3.56,1.59,3.56,3.56v10.68
		C545.16,388.76,543.56,390.36,541.6,390.36z M541.6,363.66c-1.97,0-3.56-1.59-3.56-3.56v-10.68c0-1.97,1.59-3.56,3.56-3.56
		c1.97,0,3.56,1.59,3.56,3.56v10.68C545.16,362.06,543.56,363.66,541.6,363.66z M541.6,336.96c-1.97,0-3.56-1.59-3.56-3.56v-10.68
		c0-1.97,1.59-3.56,3.56-3.56c1.97,0,3.56,1.59,3.56,3.56v10.68C545.16,335.36,543.56,336.96,541.6,336.96z M541.6,310.26
		c-1.97,0-3.56-1.59-3.56-3.56v-10.68c0-1.97,1.59-3.56,3.56-3.56c1.97,0,3.56,1.59,3.56,3.56v10.68
		C545.16,308.66,543.56,310.26,541.6,310.26z M541.6,283.56c-1.97,0-3.56-1.59-3.56-3.56v-3.56c0-1.97,1.59-3.56,3.56-3.56
		c1.97,0,3.56,1.59,3.56,3.56V280C545.16,281.96,543.56,283.56,541.6,283.56z"/>
	<g>
		<g>
			<g>
				<path style="fill:#26C4CD;" d="M120.2,258.33c-1.97,0-3.56-1.59-3.56-3.56v-5.34c0-1.97,1.59-3.56,3.56-3.56
					c1.97,0,3.56,1.59,3.56,3.56v5.34C123.76,256.74,122.17,258.33,120.2,258.33z"/>
			</g>
			<g>
				<path style="fill:#26C4CD;" d="M120.2,236.97c-1.97,0-3.56-1.59-3.56-3.56v-10.68c0-1.97,1.59-3.56,3.56-3.56
					c1.97,0,3.56,1.59,3.56,3.56v10.68C123.76,235.38,122.17,236.97,120.2,236.97z M120.2,210.27c-1.97,0-3.56-1.59-3.56-3.56
					v-10.68c0-1.97,1.59-3.56,3.56-3.56c1.97,0,3.56,1.59,3.56,3.56v10.68C123.76,208.68,122.17,210.27,120.2,210.27z M120.2,183.57
					c-1.97,0-3.56-1.59-3.56-3.56v-10.68c0-1.97,1.59-3.56,3.56-3.56c1.97,0,3.56,1.59,3.56,3.56v10.68
					C123.76,181.98,122.17,183.57,120.2,183.57z M120.2,156.87c-1.97,0-3.56-1.59-3.56-3.56v-10.68c0-1.97,1.59-3.56,3.56-3.56
					c1.97,0,3.56,1.59,3.56,3.56v10.68C123.76,155.28,122.17,156.87,120.2,156.87z M120.2,130.17c-1.97,0-3.56-1.59-3.56-3.56
					v-10.68c0-1.97,1.59-3.56,3.56-3.56c1.97,0,3.56,1.59,3.56,3.56v10.68C123.76,128.58,122.17,130.17,120.2,130.17z"/>
			</g>
			<g>
				<path style="fill:#26C4CD;" d="M120.2,100.8c-1.97,0-3.56-1.59-3.56-3.56V91.9c0-1.97,1.59-3.56,3.56-3.56h5.34
					c1.97,0,3.56,1.59,3.56,3.56s-1.59,3.56-3.56,3.56h-1.78v1.78C123.76,99.21,122.17,100.8,120.2,100.8z"/>
			</g>
			<g>
				<path style="fill:#26C4CD;" d="M280.4,95.46h-10.68c-1.97,0-3.56-1.59-3.56-3.56s1.59-3.56,3.56-3.56h10.68
					c1.97,0,3.56,1.59,3.56,3.56S282.37,95.46,280.4,95.46z M254.59,95.46h-10.68c-1.97,0-3.56-1.59-3.56-3.56s1.59-3.56,3.56-3.56
					h10.68c1.97,0,3.56,1.59,3.56,3.56S256.56,95.46,254.59,95.46z M228.78,95.46H218.1c-1.97,0-3.56-1.59-3.56-3.56
					s1.59-3.56,3.56-3.56h10.68c1.97,0,3.56,1.59,3.56,3.56S230.75,95.46,228.78,95.46z M202.97,95.46h-10.68
					c-1.97,0-3.56-1.59-3.56-3.56s1.59-3.56,3.56-3.56h10.68c1.97,0,3.56,1.59,3.56,3.56S204.94,95.46,202.97,95.46z M177.16,95.46
					h-10.68c-1.97,0-3.56-1.59-3.56-3.56s1.59-3.56,3.56-3.56h10.68c1.97,0,3.56,1.59,3.56,3.56S179.13,95.46,177.16,95.46z
					 M151.35,95.46h-10.68c-1.97,0-3.56-1.59-3.56-3.56s1.59-3.56,3.56-3.56h10.68c1.97,0,3.56,1.59,3.56,3.56
					S153.32,95.46,151.35,95.46z"/>
			</g>
			<g>
				<path style="fill:#26C4CD;" d="M300.87,95.46h-5.34c-1.97,0-3.56-1.59-3.56-3.56s1.59-3.56,3.56-3.56h5.34
					c1.97,0,3.56,1.59,3.56,3.56S302.84,95.46,300.87,95.46z"/>
			</g>
		</g>
	</g>
	<g>
		<g>
			<path style="fill:#412A6A;" d="M34,671.12v14.1l0.02,0c0.86,8.51,36.46,24.14,88.16,24.43c76.02,0.42,101.69-16.55,102.88-25.24
				h0.03v-12.99L34,671.12z"/>
			
				<linearGradient id="SVGID_00000083805416159065337290000008708689741014761905_" gradientUnits="userSpaceOnUse" x1="288.5417" y1="688.3502" x2="52.3033" y2="649.3657" gradientTransform="matrix(1 0.0219 0 1 0 6.3595)">
				<stop  offset="0" style="stop-color:#311944"/>
				<stop  offset="1" style="stop-color:#893976"/>
			</linearGradient>
			<path style="fill:url(#SVGID_00000083805416159065337290000008708689741014761905_);" d="M225.09,671.47
				c0,8.76-43.86,15.69-97.09,15.46c-52.29-0.22-94-7.27-94-15.76s41.71-15.41,94-15.47C181.23,655.64,225.09,662.7,225.09,671.47z"
				/>
			
				<linearGradient id="SVGID_00000159470614032972865650000015475918829005765534_" gradientUnits="userSpaceOnUse" x1="129.7624" y1="674.4158" x2="129.1039" y2="640.8306" gradientTransform="matrix(1 0.0219 0 1 0 6.3595)">
				<stop  offset="0" style="stop-color:#FF9085"/>
				<stop  offset="1" style="stop-color:#FB6FBB"/>
			</linearGradient>
			<path style="fill:url(#SVGID_00000159470614032972865650000015475918829005765534_);" d="M224.35,670.4
				c0,8.7-43.53,15.58-96.36,15.38c-51.91-0.2-93.34-7.19-93.34-15.62c0-8.43,41.42-15.31,93.34-15.38
				C180.83,654.71,224.35,661.7,224.35,670.4z"/>
			<polygon style="fill:#412A6A;" points="225.09,684.41 225.09,671.41 34,671.12 34,685.22 			"/>
			
				<linearGradient id="SVGID_00000088125972332624944480000013811466671610588333_" gradientUnits="userSpaceOnUse" x1="288.5417" y1="688.3502" x2="52.3033" y2="649.3657" gradientTransform="matrix(1 0.0219 0 1 0 6.3595)">
				<stop  offset="0" style="stop-color:#311944"/>
				<stop  offset="1" style="stop-color:#893976"/>
			</linearGradient>
			<path style="fill:url(#SVGID_00000088125972332624944480000013811466671610588333_);" d="M225.09,671.47
				c0,8.76-43.86,15.69-97.09,15.46c-52.29-0.22-94-7.27-94-15.76s41.71-15.41,94-15.47C181.23,655.64,225.09,662.7,225.09,671.47z"
				/>
			<path style="fill:#5A3D99;" d="M224.35,670.4c0,8.7-43.53,15.58-96.36,15.38c-51.91-0.2-93.34-7.19-93.34-15.62
				c0-8.43,41.42-15.31,93.34-15.38C180.83,654.71,224.35,661.7,224.35,670.4z"/>
		</g>
		<g>
			<path style="fill:#412A6A;" d="M34,644.39v14.1l0.02,0c0.86,8.51,36.46,23.4,88.16,23.13c81.92-0.42,101.69-15.25,102.88-23.95
				h0.03v-12.99L34,644.39z"/>
			
				<linearGradient id="SVGID_00000078044249383769256740000010531115195484527503_" gradientUnits="userSpaceOnUse" x1="288.5417" y1="661.6266" x2="52.3033" y2="622.6421" gradientTransform="matrix(1 0.0219 0 1 0 6.3595)">
				<stop  offset="0" style="stop-color:#311944"/>
				<stop  offset="1" style="stop-color:#893976"/>
			</linearGradient>
			<path style="fill:url(#SVGID_00000078044249383769256740000010531115195484527503_);" d="M225.09,644.74
				c0,8.76-43.86,15.69-97.09,15.46c-52.29-0.22-94-7.27-94-15.76c0-8.49,41.71-15.41,94-15.47
				C181.23,628.92,225.09,635.98,225.09,644.74z"/>
			
				<linearGradient id="SVGID_00000022542115191975368520000005073700750775015305_" gradientUnits="userSpaceOnUse" x1="129.7624" y1="647.6921" x2="129.1039" y2="614.107" gradientTransform="matrix(1 0.0219 0 1 0 6.3595)">
				<stop  offset="0" style="stop-color:#FF9085"/>
				<stop  offset="1" style="stop-color:#FB6FBB"/>
			</linearGradient>
			<path style="fill:url(#SVGID_00000022542115191975368520000005073700750775015305_);" d="M224.35,643.68
				c0,8.7-43.53,15.58-96.36,15.38c-51.91-0.2-93.34-7.19-93.34-15.62c0-8.43,41.42-15.31,93.34-15.38
				C180.83,627.98,224.35,634.98,224.35,643.68z"/>
			<polygon style="fill:#412A6A;" points="225.09,657.68 225.09,644.69 34,644.39 34,658.49 			"/>
			
				<linearGradient id="SVGID_00000052098496118335976230000002662600466064763803_" gradientUnits="userSpaceOnUse" x1="288.5417" y1="661.6266" x2="52.3033" y2="622.6421" gradientTransform="matrix(1 0.0219 0 1 0 6.3595)">
				<stop  offset="0" style="stop-color:#311944"/>
				<stop  offset="1" style="stop-color:#893976"/>
			</linearGradient>
			<path style="fill:url(#SVGID_00000052098496118335976230000002662600466064763803_);" d="M225.09,644.74
				c0,8.76-43.86,15.69-97.09,15.46c-52.29-0.22-94-7.27-94-15.76c0-8.49,41.71-15.41,94-15.47
				C181.23,628.92,225.09,635.98,225.09,644.74z"/>
			<path style="fill:#5A3D99;" d="M224.35,643.68c0,8.7-43.53,15.58-96.36,15.38c-51.91-0.2-93.34-7.19-93.34-15.62
				c0-8.43,41.42-15.31,93.34-15.38C180.83,627.98,224.35,634.98,224.35,643.68z"/>
		</g>
		<g>
			<path style="fill:#412A6A;" d="M34,617.61v14.1l0.02,0c0.86,8.51,36.46,23.4,88.16,23.13c81.92-0.42,101.69-15.25,102.88-23.95
				h0.03V617.9L34,617.61z"/>
			
				<linearGradient id="SVGID_00000181051968954327081650000009769829250553605782_" gradientUnits="userSpaceOnUse" x1="288.5417" y1="634.8372" x2="52.3033" y2="595.8527" gradientTransform="matrix(1 0.0219 0 1 0 6.3595)">
				<stop  offset="0" style="stop-color:#311944"/>
				<stop  offset="1" style="stop-color:#893976"/>
			</linearGradient>
			<path style="fill:url(#SVGID_00000181051968954327081650000009769829250553605782_);" d="M225.09,617.95
				c0,8.76-43.86,15.69-97.09,15.46c-52.29-0.22-94-7.27-94-15.76c0-8.49,41.71-15.41,94-15.47
				C181.23,602.13,225.09,609.19,225.09,617.95z"/>
			
				<linearGradient id="SVGID_00000165232409695763664760000006551763741713737118_" gradientUnits="userSpaceOnUse" x1="129.7624" y1="620.9028" x2="129.1039" y2="587.3178" gradientTransform="matrix(1 0.0219 0 1 0 6.3595)">
				<stop  offset="0" style="stop-color:#FF9085"/>
				<stop  offset="1" style="stop-color:#FB6FBB"/>
			</linearGradient>
			<path style="fill:url(#SVGID_00000165232409695763664760000006551763741713737118_);" d="M224.35,616.89
				c0,8.7-43.53,15.58-96.36,15.38c-51.91-0.2-93.34-7.19-93.34-15.62c0-8.43,41.42-15.31,93.34-15.38
				C180.83,601.19,224.35,608.19,224.35,616.89z"/>
			<polygon style="fill:#412A6A;" points="225.09,630.89 225.09,617.9 34,617.61 34,631.71 			"/>
			
				<linearGradient id="SVGID_00000089554167240627246730000002741753677175415690_" gradientUnits="userSpaceOnUse" x1="288.5417" y1="634.8372" x2="52.3033" y2="595.8527" gradientTransform="matrix(1 0.0219 0 1 0 6.3595)">
				<stop  offset="0" style="stop-color:#311944"/>
				<stop  offset="1" style="stop-color:#893976"/>
			</linearGradient>
			<path style="fill:url(#SVGID_00000089554167240627246730000002741753677175415690_);" d="M225.09,617.95
				c0,8.76-43.86,15.69-97.09,15.46c-52.29-0.22-94-7.27-94-15.76c0-8.49,41.71-15.41,94-15.47
				C181.23,602.13,225.09,609.19,225.09,617.95z"/>
			<path style="fill:#5A3D99;" d="M224.35,616.89c0,8.7-43.53,15.58-96.36,15.38c-51.91-0.2-93.34-7.19-93.34-15.62
				c0-8.43,41.42-15.31,93.34-15.38C180.83,601.19,224.35,608.19,224.35,616.89z"/>
		</g>
		<g>
			<path style="fill:#412A6A;" d="M34,590.82v14.1l0.02,0c0.86,8.51,36.46,23.4,88.16,23.13c81.92-0.42,101.69-15.25,102.88-23.95
				h0.03v-12.99L34,590.82z"/>
			
				<linearGradient id="SVGID_00000069399179527951066690000012292718428615108237_" gradientUnits="userSpaceOnUse" x1="288.5417" y1="608.048" x2="52.3033" y2="569.0635" gradientTransform="matrix(1 0.0219 0 1 0 6.3595)">
				<stop  offset="0" style="stop-color:#311944"/>
				<stop  offset="1" style="stop-color:#893976"/>
			</linearGradient>
			<path style="fill:url(#SVGID_00000069399179527951066690000012292718428615108237_);" d="M225.09,591.16
				c0,8.76-43.86,15.69-97.09,15.46c-52.29-0.22-94-7.27-94-15.76s41.71-15.41,94-15.47C181.23,575.34,225.09,582.4,225.09,591.16z"
				/>
			
				<linearGradient id="SVGID_00000123405852793903327740000015946221762495087535_" gradientUnits="userSpaceOnUse" x1="129.7624" y1="594.1135" x2="129.1039" y2="560.5285" gradientTransform="matrix(1 0.0219 0 1 0 6.3595)">
				<stop  offset="0" style="stop-color:#FF9085"/>
				<stop  offset="1" style="stop-color:#FB6FBB"/>
			</linearGradient>
			<path style="fill:url(#SVGID_00000123405852793903327740000015946221762495087535_);" d="M224.35,590.1
				c0,8.7-43.53,15.58-96.36,15.38c-51.91-0.2-93.34-7.19-93.34-15.62s41.42-15.31,93.34-15.38
				C180.83,574.4,224.35,581.4,224.35,590.1z"/>
			<polygon style="fill:#412A6A;" points="225.09,604.1 225.09,591.11 34,590.82 34,604.92 			"/>
			
				<linearGradient id="SVGID_00000045619186483348469050000008186235154147581846_" gradientUnits="userSpaceOnUse" x1="288.5417" y1="608.048" x2="52.3033" y2="569.0635" gradientTransform="matrix(1 0.0219 0 1 0 6.3595)">
				<stop  offset="0" style="stop-color:#311944"/>
				<stop  offset="1" style="stop-color:#893976"/>
			</linearGradient>
			<path style="fill:url(#SVGID_00000045619186483348469050000008186235154147581846_);" d="M225.09,591.16
				c0,8.76-43.86,15.69-97.09,15.46c-52.29-0.22-94-7.27-94-15.76s41.71-15.41,94-15.47C181.23,575.34,225.09,582.4,225.09,591.16z"
				/>
			<path style="fill:#5A3D99;" d="M224.35,590.1c0,8.7-43.53,15.58-96.36,15.38c-51.91-0.2-93.34-7.19-93.34-15.62
				s41.42-15.31,93.34-15.38C180.83,574.4,224.35,581.4,224.35,590.1z"/>
		</g>
		<g>
			<path style="fill:#412A6A;" d="M34,564.03v14.1l0.02,0c0.86,8.51,36.46,23.4,88.16,23.13c81.92-0.42,101.69-15.25,102.88-23.95
				h0.03v-12.99L34,564.03z"/>
			
				<linearGradient id="SVGID_00000118369882706071915180000015876305858193452687_" gradientUnits="userSpaceOnUse" x1="288.5417" y1="581.2586" x2="52.3033" y2="542.2741" gradientTransform="matrix(1 0.0219 0 1 0 6.3595)">
				<stop  offset="0" style="stop-color:#311944"/>
				<stop  offset="1" style="stop-color:#893976"/>
			</linearGradient>
			<path style="fill:url(#SVGID_00000118369882706071915180000015876305858193452687_);" d="M225.09,564.37
				c0,8.76-43.86,15.69-97.09,15.46c-52.29-0.22-94-7.27-94-15.76c0-8.49,41.71-15.41,94-15.47
				C181.23,548.55,225.09,555.61,225.09,564.37z"/>
			
				<linearGradient id="SVGID_00000174572499575965282360000000834662326985871537_" gradientUnits="userSpaceOnUse" x1="129.7624" y1="567.3242" x2="129.1039" y2="533.7391" gradientTransform="matrix(1 0.0219 0 1 0 6.3595)">
				<stop  offset="0" style="stop-color:#FF9085"/>
				<stop  offset="1" style="stop-color:#FB6FBB"/>
			</linearGradient>
			<path style="fill:url(#SVGID_00000174572499575965282360000000834662326985871537_);" d="M224.35,563.31
				c0,8.7-43.53,15.58-96.36,15.38c-51.91-0.2-93.34-7.19-93.34-15.62c0-8.43,41.42-15.31,93.34-15.38
				C180.83,547.62,224.35,554.61,224.35,563.31z"/>
			<polygon style="fill:#412A6A;" points="225.09,577.31 225.09,564.32 34,564.03 34,578.13 			"/>
			
				<linearGradient id="SVGID_00000028313423107527581820000011376177190275466657_" gradientUnits="userSpaceOnUse" x1="288.5417" y1="581.2586" x2="52.3033" y2="542.2741" gradientTransform="matrix(1 0.0219 0 1 0 6.3595)">
				<stop  offset="0" style="stop-color:#311944"/>
				<stop  offset="1" style="stop-color:#893976"/>
			</linearGradient>
			<path style="fill:url(#SVGID_00000028313423107527581820000011376177190275466657_);" d="M225.09,564.37
				c0,8.76-43.86,15.69-97.09,15.46c-52.29-0.22-94-7.27-94-15.76c0-8.49,41.71-15.41,94-15.47
				C181.23,548.55,225.09,555.61,225.09,564.37z"/>
			<path style="fill:#5A3D99;" d="M224.35,563.31c0,8.7-43.53,15.58-96.36,15.38c-51.91-0.2-93.34-7.19-93.34-15.62
				c0-8.43,41.42-15.31,93.34-15.38C180.83,547.62,224.35,554.61,224.35,563.31z"/>
		</g>
		<g>
			<path style="fill:#412A6A;" d="M34,537.24v14.1l0.02,0c0.86,8.51,36.46,23.4,88.16,23.13c81.92-0.42,101.69-15.25,102.88-23.95
				h0.03v-12.99L34,537.24z"/>
			
				<linearGradient id="SVGID_00000127766736999371111520000014153460380112490917_" gradientUnits="userSpaceOnUse" x1="288.5417" y1="554.4693" x2="52.3033" y2="515.4848" gradientTransform="matrix(1 0.0219 0 1 0 6.3595)">
				<stop  offset="0" style="stop-color:#311944"/>
				<stop  offset="1" style="stop-color:#893976"/>
			</linearGradient>
			<path style="fill:url(#SVGID_00000127766736999371111520000014153460380112490917_);" d="M225.09,537.59
				c0,8.76-43.86,15.69-97.09,15.46c-52.29-0.22-94-7.27-94-15.76c0-8.49,41.71-15.41,94-15.47
				C181.23,521.76,225.09,528.82,225.09,537.59z"/>
			
				<linearGradient id="SVGID_00000085210295667952394330000005747031884766795678_" gradientUnits="userSpaceOnUse" x1="129.7624" y1="540.535" x2="129.1039" y2="506.9498" gradientTransform="matrix(1 0.0219 0 1 0 6.3595)">
				<stop  offset="0" style="stop-color:#FF9085"/>
				<stop  offset="1" style="stop-color:#FB6FBB"/>
			</linearGradient>
			<path style="fill:url(#SVGID_00000085210295667952394330000005747031884766795678_);" d="M224.35,536.52
				c0,8.7-43.53,15.58-96.36,15.38c-51.91-0.2-93.34-7.19-93.34-15.62c0-8.43,41.42-15.31,93.34-15.38
				C180.83,520.83,224.35,527.82,224.35,536.52z"/>
			<polygon style="fill:#412A6A;" points="225.09,550.53 225.09,537.53 34,537.24 34,551.34 			"/>
			
				<linearGradient id="SVGID_00000018942349436150896600000015300554444837459368_" gradientUnits="userSpaceOnUse" x1="288.5417" y1="554.4693" x2="52.3033" y2="515.4848" gradientTransform="matrix(1 0.0219 0 1 0 6.3595)">
				<stop  offset="0" style="stop-color:#311944"/>
				<stop  offset="1" style="stop-color:#893976"/>
			</linearGradient>
			<path style="fill:url(#SVGID_00000018942349436150896600000015300554444837459368_);" d="M225.09,537.59
				c0,8.76-43.86,15.69-97.09,15.46c-52.29-0.22-94-7.27-94-15.76c0-8.49,41.71-15.41,94-15.47
				C181.23,521.76,225.09,528.82,225.09,537.59z"/>
			<path style="fill:#5A3D99;" d="M224.35,536.52c0,8.7-43.53,15.58-96.36,15.38c-51.91-0.2-93.34-7.19-93.34-15.62
				c0-8.43,41.42-15.31,93.34-15.38C180.83,520.83,224.35,527.82,224.35,536.52z"/>
		</g>
		<g>
			<path style="fill:#412A6A;" d="M34,510.45v14.1l0.02,0c0.86,8.51,36.46,23.4,88.16,23.13c81.92-0.42,101.69-15.25,102.88-23.95
				h0.03v-12.99L34,510.45z"/>
			
				<linearGradient id="SVGID_00000093858553026811226050000008395743343646401426_" gradientUnits="userSpaceOnUse" x1="288.5417" y1="527.68" x2="52.3033" y2="488.6955" gradientTransform="matrix(1 0.0219 0 1 0 6.3595)">
				<stop  offset="0" style="stop-color:#311944"/>
				<stop  offset="1" style="stop-color:#893976"/>
			</linearGradient>
			<path style="fill:url(#SVGID_00000093858553026811226050000008395743343646401426_);" d="M225.09,510.8
				c0,8.76-43.86,15.69-97.09,15.46c-52.29-0.22-94-7.27-94-15.76c0-8.49,41.71-15.41,94-15.47
				C181.23,494.97,225.09,502.03,225.09,510.8z"/>
			
				<linearGradient id="SVGID_00000150088662003488638860000012957859418233162389_" gradientUnits="userSpaceOnUse" x1="129.7624" y1="513.7456" x2="129.1039" y2="480.1606" gradientTransform="matrix(1 0.0219 0 1 0 6.3595)">
				<stop  offset="0" style="stop-color:#FF9085"/>
				<stop  offset="1" style="stop-color:#FB6FBB"/>
			</linearGradient>
			<path style="fill:url(#SVGID_00000150088662003488638860000012957859418233162389_);" d="M224.35,509.73
				c0,8.7-43.53,15.58-96.36,15.38c-51.91-0.2-93.34-7.19-93.34-15.62c0-8.43,41.42-15.31,93.34-15.38
				C180.83,494.04,224.35,501.03,224.35,509.73z"/>
			<polygon style="fill:#412A6A;" points="225.09,523.74 225.09,510.74 34,510.45 34,524.55 			"/>
			
				<linearGradient id="SVGID_00000054249342395534748470000006075730355257646506_" gradientUnits="userSpaceOnUse" x1="288.5417" y1="527.68" x2="52.3033" y2="488.6955" gradientTransform="matrix(1 0.0219 0 1 0 6.3595)">
				<stop  offset="0" style="stop-color:#311944"/>
				<stop  offset="1" style="stop-color:#893976"/>
			</linearGradient>
			<path style="fill:url(#SVGID_00000054249342395534748470000006075730355257646506_);" d="M225.09,510.8
				c0,8.76-43.86,15.69-97.09,15.46c-52.29-0.22-94-7.27-94-15.76c0-8.49,41.71-15.41,94-15.47
				C181.23,494.97,225.09,502.03,225.09,510.8z"/>
			<path style="fill:#5A3D99;" d="M224.35,509.73c0,8.7-43.53,15.58-96.36,15.38c-51.91-0.2-93.34-7.19-93.34-15.62
				c0-8.43,41.42-15.31,93.34-15.38C180.83,494.04,224.35,501.03,224.35,509.73z"/>
		</g>
	</g>
	<g>
		
			<linearGradient id="SVGID_00000119087344227925529170000005920956773584904874_" gradientUnits="userSpaceOnUse" x1="140.1667" y1="438.8817" x2="138.3689" y2="474.3878">
			<stop  offset="0" style="stop-color:#FF9085"/>
			<stop  offset="1" style="stop-color:#FB6FBB"/>
		</linearGradient>
		<polygon style="fill:url(#SVGID_00000119087344227925529170000005920956773584904874_);" points="138.27,466.14 222.14,445.16 
			226.34,465.53 149.56,500.97 88.76,485.95 52.09,449.94 		"/>
		<polygon style="fill:#0E5BA8;" points="138.27,466.14 222.14,445.16 226.34,465.53 149.56,500.97 88.76,485.95 52.09,449.94 		"/>
		<path style="fill:#2883CE;" d="M135.64,494.34c16.67-8.94,28.98-18.04,37.34-24.92c16.44-13.54,23.98-23.75,40.63-27.78
			c2.98-0.72,19.92-4.83,25.39,2.7c6.06,8.33-5.72,25.76-7.15,27.88c-21.27,31.48-75.42,30.01-92.41,28.99
			C138.17,498.91,136.9,496.63,135.64,494.34z"/>
		<path style="fill:#0E5BA8;" d="M239,444.33c-1.6-2.2-4.19-3.39-7.11-3.97c0.97,3.37,1.06,6.53-0.15,9.29
			c-3.32,7.55-13.16,5.22-20.08,14.08c-6.79,8.7-2.09,17.09-8.09,20.67c-6.88,4.11-15.4-5.5-22.77-0.9
			c-5.01,3.13-3.45,9.05-9.29,12.28c-4.03,2.23-7.99,1.18-12.58,0.6c-5.27-0.66-12.48-0.8-21.54,1.09c0.69,1.24,1.37,2.48,2.06,3.71
			c16.99,1.02,71.14,2.49,92.41-28.99C233.28,470.09,245.05,452.67,239,444.33z"/>
		
			<linearGradient id="SVGID_00000026886113643618462480000015131091188701892259_" gradientUnits="userSpaceOnUse" x1="165.3921" y1="511.6216" x2="145.1671" y2="486.4529">
			<stop  offset="0" style="stop-color:#311944"/>
			<stop  offset="1" style="stop-color:#6B3976"/>
		</linearGradient>
		<path style="fill:url(#SVGID_00000026886113643618462480000015131091188701892259_);" d="M148.24,499.04c0,0,3.05-2.19,7.49-0.7
			c4.43,1.49,11.47,2.7,11.46,4.86c-0.01,2.17-7.05,3.52-11.92,2.63C150.61,504.99,146.95,500.95,148.24,499.04z"/>
		<path style="fill:#FFB27D;" d="M143.76,495.34l8.16,2.62c0,0,1.33,2.21-0.46,3.61c-1.79,1.4-8-1.56-8-1.56L143.76,495.34z"/>
		<path style="fill:#0E5BA8;" d="M30.38,457.74c-2.41,14.02,27.86,29.19,34.79,32.67c14.12,7.08,40.69,17.07,80.12,13.25
			c0.52-3.15,1.05-6.29,1.57-9.44c-5.21-1.78-12.93-4.69-21.89-9.09c-15.29-7.52-21.09-12.89-42.31-25.72
			c-23.47-14.19-30.31-16.01-37.31-14.26C39.38,446.66,31.5,451.22,30.38,457.74z"/>
		<path style="fill:#FFFFFF;" d="M61.92,431.07c-5.12-18.5,3.33-43.47,21.12-55.51c14.52-9.83,31.54-9.19,36.85-8.99
			c5.81,0.22,5.21,0.97,23.51,4.36c25.4,4.7,27.75,3.56,35.14,7.1c13.9,6.66,20.64,18.76,21.9,21.11
			c6.46,12.05,11.71,34.45-0.55,45.4c-6.97,6.23-16.75,6.2-22.25,5.62c-0.37-2.47-0.75-4.94-1.12-7.42
			c1.12-0.87,7.72-6.16,8.54-15.51c0.94-10.74-6.57-17.67-7.42-18.43c-2.66,5.14-5.94,12.95-7.42,22.92
			c-1.91,12.88,0.07,23.48,1.74,29.71c-6.72,3.69-17.83,8.69-32.3,10.29c-10.9,1.21-24.4,2.7-33.03-4.04
			c-12.18-9.52-13.21-34.3-1.18-60.1c-4.4,2.95-10.78,8.28-13.43,16.73c-0.4,1.28-1.08,3.78-1.35,13.48
			C90.19,455.24,67.22,450.25,61.92,431.07z"/>
		
			<linearGradient id="SVGID_00000126323349075852387030000012471357330903100595_" gradientUnits="userSpaceOnUse" x1="93.7393" y1="434.1756" x2="167.7129" y2="434.1756">
			<stop  offset="0" style="stop-color:#AA80F9"/>
			<stop  offset="0.9964" style="stop-color:#6165D7"/>
		</linearGradient>
		<path style="opacity:0.2;fill:url(#SVGID_00000126323349075852387030000012471357330903100595_);" d="M144.39,443.88
			c-6.13,0.75-7.8,7.11-13.48,6.74c-12.37-0.81-22.31-22.23-17.08-33.93c3.41-7.63,12.29-8.96,11.69-13.93
			c-0.48-3.98-6.65-7.04-11.69-7.19c-7.84-0.23-13.02,6.59-14.83,8.99c-4.24,5.6-5.16,11.74-5.26,15.7
			c3.11-6.11,8.08-10.21,11.72-12.65c-12.03,25.8-11,50.58,1.18,60.1c8.63,6.74,22.13,5.25,33.03,4.04
			c11.75-1.3,21.28-4.84,28.04-8.1C161.14,452.95,152.76,442.86,144.39,443.88z"/>
		
			<linearGradient id="SVGID_00000080927300480855541550000003413205355914122880_" gradientUnits="userSpaceOnUse" x1="94.0354" y1="464.8676" x2="165.9302" y2="464.8676">
			<stop  offset="0" style="stop-color:#AA80F9"/>
			<stop  offset="0.9964" style="stop-color:#6165D7"/>
		</linearGradient>
		<polygon style="fill:url(#SVGID_00000080927300480855541550000003413205355914122880_);" points="165.75,461.34 94.04,460.27 
			113.1,469.47 165.93,466.01 		"/>
		<path style="fill:#3C295A;" d="M91.5,462.17L91.5,462.17c0,1.34,0.84,2.54,2.1,3l22.91,8.98l0.1-6.23l-22.59-7.66
			C92.77,459.9,91.5,460.85,91.5,462.17z"/>
		<path style="fill:#FFFFFF;" d="M65.38,418.74c5.53-5.24,19.11-1.94,24.17,5.59c3.73,5.54,0.64,10.1,3.37,17.08
			c3.34,8.55,15.95,16.28,23.7,18.86c-1.21,2.61-0.86,3.29-2.07,5.9c-4.93-0.62-40.55-6.07-49.27-27.23
			C64.83,437.84,59.45,424.36,65.38,418.74z"/>
		<path style="fill:#FFB27D;" d="M149.12,361.61c0,0-6.5,7.03-11.9,7.76c-5.4,0.73-13.2-0.7-14.54,0c-1.34,0.7,6.78,3.59,13.22,5.36
			c6.44,1.77,18.14,5.3,21.37,4.52c3.23-0.77-3.53-4.92-6.21-6.02c-2.68-1.1,1.16-6.75,1.16-6.75L149.12,361.61z"/>
		<g>
			<path style="fill:#3C295A;" d="M158.77,365.63c2.35-0.65,4.5-3.29,4.47-6.02c-0.02-2.35-1.68-3.96-2.66-4.92
				c-2.87-2.79-7.85-4.53-11.46-2.7c-2.14,1.09-3.12,6.01-3.33,6.87c-0.24,0.97,0.13,1.65,0.24,2.61c0.14,1.32,0.36,3.41,0.66,6.87
				c0.6-0.48,1.39-1.05,2.36-1.58c0.37-0.2,1.84-0.99,3.43-1.36C155.65,364.65,156.54,366.25,158.77,365.63z"/>
			<path style="fill:#FFB27D;" d="M145.34,364.58c0,0-0.55,4.99,3.78,7.89c3.87,2.6,10.78-5.25,9.78-8.82
				c-0.33-1.19-1.72-2.64-3.28-3.27c-0.92-0.37-1.42-0.25-2.91-0.89c-1.37-0.58-1.6-0.96-2.17-0.94c-0.71,0.03-1.72,0.68-2.86,3.65
				c-0.15-1.25-0.79-2.18-1.6-2.36c-0.13-0.03-0.52-0.05-0.86,0.1C143.98,360.5,143.91,362.37,145.34,364.58z"/>
			<path style="fill:#3C295A;" d="M150.75,357.93c0.08,0.27-0.98,0.51-1.74,1.42c-1.48,1.76-1.32,5.37,0.42,7
				c1.03,0.97,1.85,0.53,3.84,1.75c1.23,0.76,2.07,1.63,2.56,2.22c-0.96,2.44-3.04,4.02-5.09,3.91c-2.21-0.11-3.58-2.13-4.15-2.98
				c-0.38-0.56-1.62-2.37-1.31-4.54c0.32-2.26,1.93-2.53,1.72-4.39c-0.11-0.94-0.61-1.69-0.47-3.24c0.04-0.42,0.11-0.76,0.17-0.99
				C148.42,357.83,150.64,357.54,150.75,357.93z"/>
			<path style="fill:#FFB27D;" d="M153.92,370.04c0,0-1.12-0.2-2.43-1.33c-0.06-0.06-0.15-0.09-0.19-0.06
				c-0.13,0.11,0.3,1.37,1.29,1.77c0.7,0.28,1.57,0.08,1.6-0.12C154.2,370.21,154.07,370.12,153.92,370.04z"/>
		</g>
		<g>
			
				<linearGradient id="SVGID_00000155842133280501687520000005471540912843946374_" gradientUnits="userSpaceOnUse" x1="113.462" y1="446.9317" x2="203.0348" y2="446.9317">
				<stop  offset="0" style="stop-color:#444B8C"/>
				<stop  offset="0.9964" style="stop-color:#26264F"/>
			</linearGradient>
			<path style="fill:url(#SVGID_00000155842133280501687520000005471540912843946374_);" d="M118.53,424.23l-5.05,46.02
				c-0.17,1.59,2.05,3.95,3.64,3.88l74.15-4.55c1.22-0.06,2.23-0.95,2.44-2.16l9.31-44.45c0.28-1.62-2.63-3.29-4.27-3.24
				l-77.71,2.18C119.74,421.95,118.67,422.94,118.53,424.23z"/>
			
				<linearGradient id="SVGID_00000087383062434198093530000001058481569967285182_" gradientUnits="userSpaceOnUse" x1="115.1507" y1="447.7756" x2="203.114" y2="447.7756">
				<stop  offset="0" style="stop-color:#444B8C"/>
				<stop  offset="0.9964" style="stop-color:#26264F"/>
			</linearGradient>
			<path style="fill:url(#SVGID_00000087383062434198093530000001058481569967285182_);" d="M120.22,425.57l-5.05,46.02
				c-0.17,1.59,1.11,2.96,2.71,2.88l75.09-3.55c1.22-0.06,2.23-0.95,2.44-2.16l7.67-44.65c0.28-1.62-0.99-3.09-2.64-3.04
				l-77.71,2.18C121.43,423.29,120.36,424.28,120.22,425.57z"/>
		</g>
		<path style="fill:#3C295A;" d="M164.31,460.14c-6.56-2.78-4.24-8.08-11.99-14.68c-10.21-8.71-20.63-4.93-24.27-11.69
			c-1.14-2.1-1.68-5.38,0.3-10.67l-5.63,0.16c-1.3,0.04-2.37,1.02-2.51,2.32l-5.05,46.02c-0.17,1.59,1.11,2.96,2.71,2.88l75.09-3.55
			c1.22-0.06,2.23-0.95,2.44-2.16l1.06-6.16c-2.28-1.27-5-2.42-8.18-3.07C177.27,457.3,171.86,463.34,164.31,460.14z"/>
	</g>
</g>
</svg>
