<?xml version="1.0" encoding="utf-8"?>
<!-- Generator: Adobe Illustrator 26.2.1, SVG Export Plug-In . SVG Version: 6.00 Build 0)  -->
<svg version="1.1" xmlns="http://www.w3.org/2000/svg" xmlns:xlink="http://www.w3.org/1999/xlink" x="0px" y="0px"
	 viewBox="0 0 486.17 364.58" style="enable-background:new 0 0 486.17 364.58;" xml:space="preserve">
<g id="BACKGROUND">
</g>
<g id="OBJECTS">
	<g>
		<g>
			<g>
				<g>
					<g>
						<path style="fill:#BBB1BA;" d="M286.45,362.58H130.51c-8.63,0-15.62-6.99-15.62-15.62V14.73c0-8.63,6.99-15.62,15.62-15.62
							h155.94c8.63,0,15.62,6.99,15.62,15.62v332.23C302.07,355.59,295.07,362.58,286.45,362.58z"/>
					</g>
					<g>
						<path style="fill:#F2E1D1;" d="M130.51,355.67c-4.8,0-8.71-3.91-8.71-8.71V14.73c0-4.8,3.91-8.71,8.71-8.71h155.94
							c4.8,0,8.71,3.91,8.71,8.71v332.23c0,4.8-3.91,8.71-8.71,8.71H130.51z"/>
					</g>
				</g>
				<g>
					<path style="fill:#BBB1BA;" d="M190.79,44.79h-36.22c-3.83,0-6.93-3.1-6.93-6.93l0,0c0-3.83,3.1-6.93,6.93-6.93h36.22
						c3.83,0,6.93,3.1,6.93,6.93l0,0C197.72,41.69,194.62,44.79,190.79,44.79z"/>
				</g>
				<g>
					<path style="fill:#BBB1BA;" d="M190.79,160.49h-36.22c-3.83,0-6.93-3.1-6.93-6.93l0,0c0-3.83,3.1-6.93,6.93-6.93h36.22
						c3.83,0,6.93,3.1,6.93,6.93l0,0C197.72,157.38,194.62,160.49,190.79,160.49z"/>
				</g>
				<g>
					<g>
						<g>
							<rect x="166.2" y="91.82" style="fill:#BBB1BA;" width="10.15" height="24.66"/>
						</g>
						<g>
							<rect x="182.12" y="86.62" style="fill:#BBB1BA;" width="10.15" height="29.86"/>
						</g>
						<g>
							<rect x="198.05" y="80.68" style="fill:#BBB1BA;" width="10.15" height="35.8"/>
						</g>
						<g>
							<rect x="213.97" y="74.2" style="fill:#BBB1BA;" width="10.15" height="42.28"/>
						</g>
						<g>
							<rect x="229.9" y="68.43" style="fill:#BBB1BA;" width="10.15" height="48.05"/>
						</g>
						<g>
							<rect x="245.82" y="57.86" style="fill:#BBB1BA;" width="10.15" height="58.63"/>
						</g>
					</g>
					<g>
						<rect x="153.83" y="116.48" style="fill:#BBB1BA;" width="113.75" height="2.24"/>
					</g>
				</g>
				<g>
					<g>
						<path style="fill:#BBB1BA;" d="M248.41,226.41c0,23.63-19.15,42.78-42.78,42.78c-23.62,0-42.78-19.15-42.78-42.78
							c0-15.41,8.16-28.93,20.39-36.46l19.59,38.73l42.94-17.08C247.48,216.22,248.41,221.21,248.41,226.41z"/>
					</g>
					<g>
						<path style="fill:#BBB1BA;" d="M221.4,171.2l-14.33,43.47l2.11-45.04c0.23-0.01,0.46-0.01,0.68-0.01
							C213.86,169.62,217.73,170.17,221.4,171.2z"/>
					</g>
					<g>
						<path style="fill:#BBB1BA;" d="M254.11,204.17l-42.94,17.08l14.33-43.47C238.75,181.47,249.39,191.39,254.11,204.17z"/>
					</g>
					<g>
						<path style="fill:#BBB1BA;" d="M204.69,172.74l-2.11,45.04l-19.59-38.73C189.31,175.16,196.74,172.87,204.69,172.74z"/>
					</g>
				</g>
			</g>
			<g>
				<g>
					<g>
						
							<ellipse transform="matrix(0.8269 -0.5623 0.5623 0.8269 -136.726 109.4421)" style="fill:#F29F04;" cx="109.43" cy="276.84" rx="43.59" ry="43.59"/>
					</g>
					<g>
						<path style="fill:#D97803;" d="M109.51,314.7c-3.07,0-6.16-0.37-9.22-1.14c-4.78-1.19-9.21-3.25-13.16-6.13
							c-12.5-9.12-18.16-24.71-14.43-39.73c2.44-9.81,8.56-18.08,17.22-23.29c8.66-5.21,18.83-6.73,28.64-4.29
							c13.36,3.32,23.87,13.66,27.43,26.97c1.65,6.15,1.7,12.68,0.15,18.89l0,0c-2.05,8.22-6.63,15.33-13.27,20.56
							C126.09,311.89,117.9,314.7,109.51,314.7z M109.36,240.53c-6.51,0-12.92,1.76-18.64,5.21c-8.31,5-14.17,12.93-16.51,22.34
							c-3.58,14.4,1.85,29.36,13.84,38.1c3.78,2.76,8.03,4.74,12.62,5.88c10.97,2.73,22.37,0.28,31.26-6.73
							c6.36-5.02,10.76-11.84,12.73-19.72l0,0c1.48-5.96,1.43-12.22-0.14-18.12c-3.42-12.77-13.5-22.68-26.31-25.87
							C115.27,240.89,112.3,240.53,109.36,240.53z"/>
					</g>
					<g>
						<path style="fill:#D97803;" d="M123.93,283.13c-0.86-1.86-2.58-3.43-5.16-4.7l0.07-0.26c2.3,0.22,4.24-0.26,5.82-1.44
							c1.58-1.18,2.69-2.89,3.31-5.15c0.93-3.35,0.42-6.14-1.52-8.35c-1.03-1.18-2.56-2.25-4.56-3.22l1.19-4.3
							c0.41-1.46-0.45-2.98-1.91-3.38c-1.46-0.41-2.98,0.45-3.38,1.91l-1.06,3.8c-0.39-0.12-0.78-0.24-1.19-0.36l-2.61-0.72
							l1.05-3.78c0.41-1.46-0.45-2.98-1.91-3.38c-1.46-0.41-2.98,0.45-3.38,1.91l-1.05,3.78l-3.59-1l-3.62-1.01
							c-1.46-0.41-2.98,0.45-3.38,1.91c-0.41,1.46,0.45,2.98,1.91,3.38l3.62,1.01l-7.8,28.09l-3.62-1.01
							c-1.46-0.41-2.98,0.45-3.38,1.91c-0.41,1.46,0.45,2.98,1.91,3.38l3.62,1.01l-0.01,0.03l3.59,1l-1.05,3.78
							c-0.41,1.46,0.45,2.98,1.91,3.38c1.46,0.41,2.98-0.45,3.38-1.91l1.05-3.78l3.81,1.06l-1.05,3.78
							c-0.41,1.46,0.45,2.98,1.91,3.38s2.98-0.45,3.38-1.91l1.14-4.12c2.58,0.24,4.87-0.05,6.85-0.91c2.97-1.29,4.94-3.68,5.91-7.16
							C124.87,287.21,124.79,284.99,123.93,283.13z M114.4,263.07c2.86,0.79,4.83,1.78,5.92,2.96c1.09,1.18,1.38,2.67,0.88,4.49
							c-0.56,2.01-1.56,3.27-3.01,3.77c-1.45,0.5-3.5,0.38-6.15-0.35l-6.09-1.69l2.97-10.7l2.29,0.64L114.4,263.07z M114.27,291.65
							c-1.63,0.64-3.77,0.59-6.42-0.14l-4.43-1.23l-2.29-0.64l3.4-12.26l6.41,1.78c2.81,0.78,4.76,1.84,5.87,3.2
							c1.11,1.35,1.38,3.04,0.82,5.05C117.02,289.6,115.9,291.01,114.27,291.65z"/>
					</g>
				</g>
				<g>
					<g>
						<path style="fill:#F29F04;" d="M87.06,214.96c1.84,24.01-16.14,44.95-40.14,46.79c-24.01,1.84-44.95-16.14-46.79-40.14
							c-1.84-24.01,16.14-44.95,40.14-46.79C64.28,172.99,85.23,190.96,87.06,214.96z"/>
					</g>
					<g>
						<path style="fill:#D97803;" d="M43.54,256.13c-3.91,0-7.76-0.6-11.48-1.79c-14.74-4.72-25.02-17.74-26.2-33.17
							c-0.77-10.08,2.43-19.85,9.01-27.53c6.58-7.67,15.76-12.32,25.84-13.09c13.72-1.05,26.96,5.45,34.53,16.96
							c3.5,5.32,5.6,11.5,6.09,17.88l0,0c0.65,8.45-1.47,16.64-6.12,23.69c-6.5,9.86-16.97,16.03-28.72,16.92
							C45.5,256.09,44.52,256.13,43.54,256.13z M43.6,181.99c-0.92,0-1.84,0.03-2.77,0.11c-9.67,0.74-18.47,5.2-24.78,12.56
							s-9.38,16.73-8.64,26.4c1.13,14.8,10.99,27.28,25.13,31.81c4.46,1.43,9.11,1.97,13.83,1.61c11.28-0.86,21.32-6.78,27.55-16.23
							c4.46-6.77,6.49-14.62,5.87-22.72c-0.47-6.12-2.49-12.05-5.84-17.15C67.19,188.1,55.75,181.99,43.6,181.99z"/>
					</g>
					<g>
						<path style="fill:#D97803;" d="M59.34,219.69c-1.4-1.5-3.53-2.44-6.37-2.83l-0.01-0.27c2.25-0.51,3.94-1.58,5.07-3.2
							c1.13-1.61,1.64-3.59,1.52-5.94c-0.17-3.48-1.53-5.96-4.07-7.45c-1.35-0.79-3.14-1.33-5.34-1.62l-0.22-4.45
							c-0.08-1.52-1.36-2.68-2.88-2.61c-1.52,0.08-2.68,1.36-2.61,2.88l0.2,3.94c-0.41,0.01-0.82,0.02-1.25,0.04l-2.7,0.13
							l-0.19-3.92c-0.08-1.52-1.36-2.68-2.88-2.61c-1.52,0.08-2.68,1.36-2.61,2.88l0.19,3.92l-3.72,0.18l-3.75,0.19
							c-1.52,0.08-2.68,1.36-2.61,2.88c0.08,1.52,1.36,2.68,2.88,2.61l3.75-0.19l1.44,29.12l-3.75,0.19
							c-1.52,0.08-2.68,1.36-2.61,2.88c0.08,1.52,1.36,2.68,2.88,2.61l3.75-0.19l0,0.03l3.72-0.18l0.19,3.92
							c0.08,1.52,1.36,2.68,2.88,2.61c1.52-0.08,2.68-1.36,2.61-2.88l-0.19-3.92l3.94-0.2l0.19,3.92c0.08,1.52,1.36,2.68,2.88,2.61
							s2.68-1.36,2.61-2.88l-0.21-4.27c2.52-0.58,4.6-1.58,6.21-3.02c2.41-2.16,3.53-5.05,3.35-8.65
							C61.52,223.28,60.75,221.19,59.34,219.69z M43.98,203.66c2.96-0.15,5.15,0.17,6.55,0.94c1.4,0.77,2.15,2.1,2.25,3.99
							c0.1,2.09-0.45,3.59-1.67,4.53c-1.22,0.93-3.2,1.47-5.95,1.6l-6.31,0.31l-0.55-11.09l2.37-0.12L43.98,203.66z M52.85,230.83
							c-1.35,1.12-3.39,1.75-6.14,1.89l-4.6,0.23l-2.37,0.12l-0.63-12.71l6.64-0.33c2.91-0.14,5.1,0.25,6.58,1.19
							c1.48,0.94,2.27,2.45,2.37,4.53C54.82,228.01,54.2,229.71,52.85,230.83z"/>
					</g>
				</g>
				<g>
					<g>
						<path style="fill:#4E508D;" d="M141.75,323.89H29.17c-0.54,0-1.01-0.35-1.17-0.86L1.49,237.63c-0.12-0.37-0.05-0.78,0.18-1.09
							c0.23-0.31,0.6-0.5,0.99-0.5h164.68c0.68,0,1.22,0.55,1.22,1.22c0,0.68-0.55,1.22-1.22,1.22H4.32l25.75,82.94h110.85
							l51.41-130.85c0.18-0.47,0.64-0.78,1.14-0.78h33.18c0.68,0,1.22,0.55,1.22,1.22c0,0.68-0.55,1.22-1.22,1.22H194.3
							l-51.41,130.85C142.71,323.58,142.26,323.89,141.75,323.89z"/>
					</g>
					<g>
						
							<ellipse transform="matrix(0.9745 -0.2246 0.2246 0.9745 -75.666 36.2223)" style="fill:#4E508D;" cx="121.4" cy="350.73" rx="12.96" ry="12.96"/>
					</g>
					<g>
						
							<ellipse transform="matrix(0.7382 -0.6746 0.6746 0.7382 -223.1542 126.5109)" style="fill:#4E508D;" cx="51.4" cy="350.73" rx="12.96" ry="12.96"/>
					</g>
					<g>
						<path style="fill:#4E508D;" d="M153.72,266.16H10.77c-0.68,0-1.22-0.55-1.22-1.22c0-0.68,0.55-1.22,1.22-1.22h142.95
							c0.68,0,1.22,0.55,1.22,1.22C154.94,265.61,154.39,266.16,153.72,266.16z"/>
					</g>
					<g>
						<path style="fill:#4E508D;" d="M142.65,292.78H19.51c-0.68,0-1.22-0.55-1.22-1.22c0-0.68,0.55-1.22,1.22-1.22h123.15
							c0.68,0,1.22,0.55,1.22,1.22C143.88,292.23,143.33,292.78,142.65,292.78z"/>
					</g>
				</g>
			</g>
			<g>
				<g>
					<g>
						<g>
							<rect x="313.83" y="350.08" style="fill:#F29F04;" width="87.47" height="12.07"/>
						</g>
						<g>
							<path style="fill:#D97803;" d="M401.3,362.55h-48.73c-0.22,0-0.39-0.18-0.39-0.39c0-0.22,0.18-0.39,0.39-0.39h48.73
								c0.22,0,0.39,0.18,0.39,0.39C401.7,362.38,401.52,362.55,401.3,362.55z"/>
						</g>
						<g>
							<path style="fill:#D97803;" d="M365.8,362.55c-0.22,0-0.39-0.18-0.39-0.39v-12.07c0-0.22,0.18-0.39,0.39-0.39
								c0.22,0,0.39,0.18,0.39,0.39v12.07C366.2,362.38,366.02,362.55,365.8,362.55z"/>
						</g>
						<g>
							<path style="fill:#D97803;" d="M372.94,362.55c-0.22,0-0.39-0.18-0.39-0.39v-12.07c0-0.22,0.18-0.39,0.39-0.39
								s0.39,0.18,0.39,0.39v12.07C373.33,362.38,373.15,362.55,372.94,362.55z"/>
						</g>
						<g>
							<path style="fill:#D97803;" d="M382.74,362.55c-0.22,0-0.39-0.18-0.39-0.39v-12.07c0-0.22,0.18-0.39,0.39-0.39
								s0.39,0.18,0.39,0.39v12.07C383.14,362.38,382.96,362.55,382.74,362.55z"/>
						</g>
						<g>
							<path style="fill:#D97803;" d="M391.66,362.55c-0.22,0-0.39-0.18-0.39-0.39v-12.07c0-0.22,0.18-0.39,0.39-0.39
								c0.22,0,0.39,0.18,0.39,0.39v12.07C392.05,362.38,391.88,362.55,391.66,362.55z"/>
						</g>
					</g>
					<g>
						<g>
							<rect x="305.59" y="338.01" style="fill:#F29F04;" width="87.47" height="12.07"/>
						</g>
						<g>
							<path style="fill:#D97803;" d="M393.06,350.48h-48.73c-0.22,0-0.39-0.18-0.39-0.39c0-0.22,0.18-0.39,0.39-0.39h48.73
								c0.22,0,0.39,0.18,0.39,0.39C393.46,350.3,393.28,350.48,393.06,350.48z"/>
						</g>
						<g>
							<path style="fill:#D97803;" d="M357.56,350.48c-0.22,0-0.39-0.18-0.39-0.39v-12.08c0-0.22,0.18-0.39,0.39-0.39
								c0.22,0,0.39,0.18,0.39,0.39v12.08C357.96,350.3,357.78,350.48,357.56,350.48z"/>
						</g>
						<g>
							<path style="fill:#D97803;" d="M364.7,350.48c-0.22,0-0.39-0.18-0.39-0.39v-12.08c0-0.22,0.18-0.39,0.39-0.39
								c0.22,0,0.39,0.18,0.39,0.39v12.08C365.09,350.3,364.91,350.48,364.7,350.48z"/>
						</g>
						<g>
							<path style="fill:#D97803;" d="M374.5,350.48c-0.22,0-0.39-0.18-0.39-0.39v-12.08c0-0.22,0.18-0.39,0.39-0.39
								c0.22,0,0.39,0.18,0.39,0.39v12.08C374.9,350.3,374.72,350.48,374.5,350.48z"/>
						</g>
						<g>
							<path style="fill:#D97803;" d="M383.42,350.48c-0.22,0-0.39-0.18-0.39-0.39v-12.08c0-0.22,0.18-0.39,0.39-0.39
								s0.39,0.18,0.39,0.39v12.08C383.81,350.3,383.64,350.48,383.42,350.48z"/>
						</g>
					</g>
					<g>
						<g>
							<rect x="317.07" y="325.93" style="fill:#F29F04;" width="87.47" height="12.07"/>
						</g>
						<g>
							<path style="fill:#D97803;" d="M404.55,338.4h-80.58c-0.22,0-0.39-0.18-0.39-0.39c0-0.22,0.18-0.39,0.39-0.39h80.58
								c0.22,0,0.39,0.18,0.39,0.39C404.94,338.23,404.77,338.4,404.55,338.4z"/>
						</g>
						<g>
							<path style="fill:#D97803;" d="M369.05,338.4c-0.22,0-0.39-0.18-0.39-0.39v-12.07c0-0.22,0.18-0.39,0.39-0.39
								s0.39,0.18,0.39,0.39v12.07C369.44,338.23,369.27,338.4,369.05,338.4z"/>
						</g>
						<g>
							<path style="fill:#D97803;" d="M376.18,338.4c-0.22,0-0.39-0.18-0.39-0.39v-12.07c0-0.22,0.18-0.39,0.39-0.39
								c0.22,0,0.39,0.18,0.39,0.39v12.07C376.58,338.23,376.4,338.4,376.18,338.4z"/>
						</g>
						<g>
							<path style="fill:#D97803;" d="M385.99,338.4c-0.22,0-0.39-0.18-0.39-0.39v-12.07c0-0.22,0.18-0.39,0.39-0.39
								c0.22,0,0.39,0.18,0.39,0.39v12.07C386.38,338.23,386.21,338.4,385.99,338.4z"/>
						</g>
						<g>
							<path style="fill:#D97803;" d="M394.91,338.4c-0.22,0-0.39-0.18-0.39-0.39v-12.07c0-0.22,0.18-0.39,0.39-0.39
								c0.22,0,0.39,0.18,0.39,0.39v12.07C395.3,338.23,395.12,338.4,394.91,338.4z"/>
						</g>
					</g>
					<g>
						<g>
							<rect x="308.02" y="313.86" style="fill:#F29F04;" width="87.47" height="12.07"/>
						</g>
						<g>
							<path style="fill:#D97803;" d="M395.49,326.33h-48.73c-0.22,0-0.39-0.18-0.39-0.39s0.18-0.39,0.39-0.39h48.73
								c0.22,0,0.39,0.18,0.39,0.39S395.71,326.33,395.49,326.33z"/>
						</g>
						<g>
							<path style="fill:#D97803;" d="M359.99,326.33c-0.22,0-0.39-0.18-0.39-0.39v-12.07c0-0.22,0.18-0.39,0.39-0.39
								s0.39,0.18,0.39,0.39v12.07C360.39,326.15,360.21,326.33,359.99,326.33z"/>
						</g>
						<g>
							<path style="fill:#D97803;" d="M367.12,326.33c-0.22,0-0.39-0.18-0.39-0.39v-12.07c0-0.22,0.18-0.39,0.39-0.39
								c0.22,0,0.39,0.18,0.39,0.39v12.07C367.52,326.15,367.34,326.33,367.12,326.33z"/>
						</g>
						<g>
							<path style="fill:#D97803;" d="M376.93,326.33c-0.22,0-0.39-0.18-0.39-0.39v-12.07c0-0.22,0.18-0.39,0.39-0.39
								c0.22,0,0.39,0.18,0.39,0.39v12.07C377.33,326.15,377.15,326.33,376.93,326.33z"/>
						</g>
						<g>
							<path style="fill:#D97803;" d="M385.85,326.33c-0.22,0-0.39-0.18-0.39-0.39v-12.07c0-0.22,0.18-0.39,0.39-0.39
								s0.39,0.18,0.39,0.39v12.07C386.24,326.15,386.07,326.33,385.85,326.33z"/>
						</g>
					</g>
					<g>
						<g>
							<rect x="324.07" y="301.79" style="fill:#F29F04;" width="87.47" height="12.07"/>
						</g>
						<g>
							<path style="fill:#D97803;" d="M411.54,314.25h-70.21c-0.22,0-0.39-0.18-0.39-0.39c0-0.22,0.18-0.39,0.39-0.39h70.21
								c0.22,0,0.39,0.18,0.39,0.39C411.94,314.08,411.76,314.25,411.54,314.25z"/>
						</g>
						<g>
							<path style="fill:#D97803;" d="M376.05,314.25c-0.22,0-0.39-0.18-0.39-0.39v-12.07c0-0.22,0.18-0.39,0.39-0.39
								c0.22,0,0.39,0.18,0.39,0.39v12.07C376.44,314.08,376.26,314.25,376.05,314.25z"/>
						</g>
						<g>
							<path style="fill:#D97803;" d="M383.18,314.25c-0.22,0-0.39-0.18-0.39-0.39v-12.07c0-0.22,0.18-0.39,0.39-0.39
								c0.22,0,0.39,0.18,0.39,0.39v12.07C383.57,314.08,383.4,314.25,383.18,314.25z"/>
						</g>
						<g>
							<path style="fill:#D97803;" d="M392.98,314.25c-0.22,0-0.39-0.18-0.39-0.39v-12.07c0-0.22,0.18-0.39,0.39-0.39
								s0.39,0.18,0.39,0.39v12.07C393.38,314.08,393.2,314.25,392.98,314.25z"/>
						</g>
						<g>
							<path style="fill:#D97803;" d="M401.9,314.25c-0.22,0-0.39-0.18-0.39-0.39v-12.07c0-0.22,0.18-0.39,0.39-0.39
								c0.22,0,0.39,0.18,0.39,0.39v12.07C402.29,314.08,402.12,314.25,401.9,314.25z"/>
						</g>
					</g>
					<g>
						<g>
							<rect x="317.07" y="289.71" style="fill:#F29F04;" width="87.47" height="12.07"/>
						</g>
						<g>
							<path style="fill:#D97803;" d="M404.55,302.18h-48.73c-0.22,0-0.39-0.18-0.39-0.39s0.18-0.39,0.39-0.39h48.73
								c0.22,0,0.39,0.18,0.39,0.39S404.77,302.18,404.55,302.18z"/>
						</g>
						<g>
							<path style="fill:#D97803;" d="M369.05,302.18c-0.22,0-0.39-0.18-0.39-0.39v-12.07c0-0.22,0.18-0.39,0.39-0.39
								s0.39,0.18,0.39,0.39v12.07C369.44,302,369.27,302.18,369.05,302.18z"/>
						</g>
						<g>
							<path style="fill:#D97803;" d="M376.18,302.18c-0.22,0-0.39-0.18-0.39-0.39v-12.07c0-0.22,0.18-0.39,0.39-0.39
								c0.22,0,0.39,0.18,0.39,0.39v12.07C376.58,302,376.4,302.18,376.18,302.18z"/>
						</g>
						<g>
							<path style="fill:#D97803;" d="M385.99,302.18c-0.22,0-0.39-0.18-0.39-0.39v-12.07c0-0.22,0.18-0.39,0.39-0.39
								c0.22,0,0.39,0.18,0.39,0.39v12.07C386.38,302,386.21,302.18,385.99,302.18z"/>
						</g>
						<g>
							<path style="fill:#D97803;" d="M394.91,302.18c-0.22,0-0.39-0.18-0.39-0.39v-12.07c0-0.22,0.18-0.39,0.39-0.39
								c0.22,0,0.39,0.18,0.39,0.39v12.07C395.3,302,395.12,302.18,394.91,302.18z"/>
						</g>
					</g>
				</g>
				<g>
					<g>
						<g>
							<g>
								<rect x="331.73" y="301.86" style="fill:#F29F04;" width="87.47" height="12.07"/>
							</g>
							<g>
								<path style="fill:#D97803;" d="M419.2,314.33h-48.73c-0.22,0-0.39-0.18-0.39-0.39c0-0.22,0.18-0.39,0.39-0.39h48.73
									c0.22,0,0.39,0.18,0.39,0.39C419.59,314.15,419.42,314.33,419.2,314.33z"/>
							</g>
							<g>
								<path style="fill:#D97803;" d="M383.7,314.33c-0.22,0-0.39-0.18-0.39-0.39v-12.08c0-0.22,0.18-0.39,0.39-0.39
									s0.39,0.18,0.39,0.39v12.08C384.1,314.15,383.92,314.33,383.7,314.33z"/>
							</g>
							<g>
								<path style="fill:#D97803;" d="M390.83,314.33c-0.22,0-0.39-0.18-0.39-0.39v-12.08c0-0.22,0.18-0.39,0.39-0.39
									s0.39,0.18,0.39,0.39v12.08C391.23,314.15,391.05,314.33,390.83,314.33z"/>
							</g>
							<g>
								<path style="fill:#D97803;" d="M400.64,314.33c-0.22,0-0.39-0.18-0.39-0.39v-12.08c0-0.22,0.18-0.39,0.39-0.39
									s0.39,0.18,0.39,0.39v12.08C401.04,314.15,400.86,314.33,400.64,314.33z"/>
							</g>
							<g>
								<path style="fill:#D97803;" d="M409.56,314.33c-0.22,0-0.39-0.18-0.39-0.39v-12.08c0-0.22,0.18-0.39,0.39-0.39
									c0.22,0,0.39,0.18,0.39,0.39v12.08C409.95,314.15,409.77,314.33,409.56,314.33z"/>
							</g>
						</g>
						<g>
							<g>
								<rect x="323.49" y="289.79" style="fill:#F29F04;" width="87.47" height="12.07"/>
							</g>
							<g>
								<path style="fill:#D97803;" d="M410.96,302.26h-48.73c-0.22,0-0.39-0.18-0.39-0.39c0-0.22,0.18-0.39,0.39-0.39h48.73
									c0.22,0,0.39,0.18,0.39,0.39C411.36,302.08,411.18,302.26,410.96,302.26z"/>
							</g>
							<g>
								<path style="fill:#D97803;" d="M375.46,302.26c-0.22,0-0.39-0.18-0.39-0.39v-12.07c0-0.22,0.18-0.39,0.39-0.39
									c0.22,0,0.39,0.18,0.39,0.39v12.07C375.86,302.08,375.68,302.26,375.46,302.26z"/>
							</g>
							<g>
								<path style="fill:#D97803;" d="M382.6,302.26c-0.22,0-0.39-0.18-0.39-0.39v-12.07c0-0.22,0.18-0.39,0.39-0.39
									c0.22,0,0.39,0.18,0.39,0.39v12.07C382.99,302.08,382.81,302.26,382.6,302.26z"/>
							</g>
							<g>
								<path style="fill:#D97803;" d="M392.4,302.26c-0.22,0-0.39-0.18-0.39-0.39v-12.07c0-0.22,0.18-0.39,0.39-0.39
									s0.39,0.18,0.39,0.39v12.07C392.8,302.08,392.62,302.26,392.4,302.26z"/>
							</g>
							<g>
								<path style="fill:#D97803;" d="M401.32,302.26c-0.22,0-0.39-0.18-0.39-0.39v-12.07c0-0.22,0.18-0.39,0.39-0.39
									s0.39,0.18,0.39,0.39v12.07C401.71,302.08,401.54,302.26,401.32,302.26z"/>
							</g>
						</g>
						<g>
							<g>
								<rect x="334.97" y="277.71" style="fill:#F29F04;" width="87.47" height="12.07"/>
							</g>
							<g>
								<path style="fill:#D97803;" d="M422.45,290.18h-80.59c-0.22,0-0.39-0.18-0.39-0.39c0-0.22,0.18-0.39,0.39-0.39h80.59
									c0.22,0,0.39,0.18,0.39,0.39C422.84,290,422.67,290.18,422.45,290.18z"/>
							</g>
							<g>
								<path style="fill:#D97803;" d="M386.95,290.18c-0.22,0-0.39-0.18-0.39-0.39v-12.07c0-0.22,0.18-0.39,0.39-0.39
									c0.22,0,0.39,0.18,0.39,0.39v12.07C387.34,290,387.17,290.18,386.95,290.18z"/>
							</g>
							<g>
								<path style="fill:#D97803;" d="M394.08,290.18c-0.22,0-0.39-0.18-0.39-0.39v-12.07c0-0.22,0.18-0.39,0.39-0.39
									c0.22,0,0.39,0.18,0.39,0.39v12.07C394.48,290,394.3,290.18,394.08,290.18z"/>
							</g>
							<g>
								<path style="fill:#D97803;" d="M403.89,290.18c-0.22,0-0.39-0.18-0.39-0.39v-12.07c0-0.22,0.18-0.39,0.39-0.39
									s0.39,0.18,0.39,0.39v12.07C404.28,290,404.11,290.18,403.89,290.18z"/>
							</g>
							<g>
								<path style="fill:#D97803;" d="M412.8,290.18c-0.22,0-0.39-0.18-0.39-0.39v-12.07c0-0.22,0.18-0.39,0.39-0.39
									s0.39,0.18,0.39,0.39v12.07C413.2,290,413.02,290.18,412.8,290.18z"/>
							</g>
						</g>
						<g>
							<g>
								<rect x="325.91" y="265.64" style="fill:#F29F04;" width="87.47" height="12.07"/>
							</g>
							<g>
								<path style="fill:#D97803;" d="M413.39,278.11h-48.73c-0.22,0-0.39-0.18-0.39-0.39s0.18-0.39,0.39-0.39h48.73
									c0.22,0,0.39,0.18,0.39,0.39S413.61,278.11,413.39,278.11z"/>
							</g>
							<g>
								<path style="fill:#D97803;" d="M377.89,278.11c-0.22,0-0.39-0.18-0.39-0.39v-12.07c0-0.22,0.18-0.39,0.39-0.39
									c0.22,0,0.39,0.18,0.39,0.39v12.07C378.29,277.93,378.11,278.11,377.89,278.11z"/>
							</g>
							<g>
								<path style="fill:#D97803;" d="M385.02,278.11c-0.22,0-0.39-0.18-0.39-0.39v-12.07c0-0.22,0.18-0.39,0.39-0.39
									c0.22,0,0.39,0.18,0.39,0.39v12.07C385.42,277.93,385.24,278.11,385.02,278.11z"/>
							</g>
							<g>
								<path style="fill:#D97803;" d="M394.83,278.11c-0.22,0-0.39-0.18-0.39-0.39v-12.07c0-0.22,0.18-0.39,0.39-0.39
									c0.22,0,0.39,0.18,0.39,0.39v12.07C395.23,277.93,395.05,278.11,394.83,278.11z"/>
							</g>
							<g>
								<path style="fill:#D97803;" d="M403.75,278.11c-0.22,0-0.39-0.18-0.39-0.39v-12.07c0-0.22,0.18-0.39,0.39-0.39
									c0.22,0,0.39,0.18,0.39,0.39v12.07C404.14,277.93,403.96,278.11,403.75,278.11z"/>
							</g>
						</g>
						<g>
							<g>
								<rect x="341.97" y="253.56" style="fill:#F29F04;" width="87.47" height="12.07"/>
							</g>
							<g>
								<path style="fill:#D97803;" d="M429.44,266.03h-70.21c-0.22,0-0.39-0.18-0.39-0.39c0-0.22,0.18-0.39,0.39-0.39h70.21
									c0.22,0,0.39,0.18,0.39,0.39C429.84,265.86,429.66,266.03,429.44,266.03z"/>
							</g>
							<g>
								<path style="fill:#D97803;" d="M393.94,266.03c-0.22,0-0.39-0.18-0.39-0.39v-12.07c0-0.22,0.18-0.39,0.39-0.39
									c0.22,0,0.39,0.18,0.39,0.39v12.07C394.34,265.86,394.16,266.03,393.94,266.03z"/>
							</g>
							<g>
								<path style="fill:#D97803;" d="M401.08,266.03c-0.22,0-0.39-0.18-0.39-0.39v-12.07c0-0.22,0.18-0.39,0.39-0.39
									s0.39,0.18,0.39,0.39v12.07C401.47,265.86,401.29,266.03,401.08,266.03z"/>
							</g>
							<g>
								<path style="fill:#D97803;" d="M410.88,266.03c-0.22,0-0.39-0.18-0.39-0.39v-12.07c0-0.22,0.18-0.39,0.39-0.39
									c0.22,0,0.39,0.18,0.39,0.39v12.07C411.28,265.86,411.1,266.03,410.88,266.03z"/>
							</g>
							<g>
								<path style="fill:#D97803;" d="M419.8,266.03c-0.22,0-0.39-0.18-0.39-0.39v-12.07c0-0.22,0.18-0.39,0.39-0.39
									c0.22,0,0.39,0.18,0.39,0.39v12.07C420.19,265.86,420.02,266.03,419.8,266.03z"/>
							</g>
						</g>
						<g>
							<g>
								<rect x="334.97" y="241.49" style="fill:#F29F04;" width="87.47" height="12.07"/>
							</g>
							<g>
								<path style="fill:#D97803;" d="M422.45,253.96h-48.73c-0.22,0-0.39-0.18-0.39-0.39c0-0.22,0.18-0.39,0.39-0.39h48.73
									c0.22,0,0.39,0.18,0.39,0.39C422.84,253.78,422.67,253.96,422.45,253.96z"/>
							</g>
							<g>
								<path style="fill:#D97803;" d="M386.95,253.96c-0.22,0-0.39-0.18-0.39-0.39v-12.07c0-0.22,0.18-0.39,0.39-0.39
									c0.22,0,0.39,0.18,0.39,0.39v12.07C387.34,253.78,387.17,253.96,386.95,253.96z"/>
							</g>
							<g>
								<path style="fill:#D97803;" d="M394.08,253.96c-0.22,0-0.39-0.18-0.39-0.39v-12.07c0-0.22,0.18-0.39,0.39-0.39
									c0.22,0,0.39,0.18,0.39,0.39v12.07C394.48,253.78,394.3,253.96,394.08,253.96z"/>
							</g>
							<g>
								<path style="fill:#D97803;" d="M403.89,253.96c-0.22,0-0.39-0.18-0.39-0.39v-12.07c0-0.22,0.18-0.39,0.39-0.39
									s0.39,0.18,0.39,0.39v12.07C404.28,253.78,404.11,253.96,403.89,253.96z"/>
							</g>
							<g>
								<path style="fill:#D97803;" d="M412.8,253.96c-0.22,0-0.39-0.18-0.39-0.39v-12.07c0-0.22,0.18-0.39,0.39-0.39
									s0.39,0.18,0.39,0.39v12.07C413.2,253.78,413.02,253.96,412.8,253.96z"/>
							</g>
						</g>
						<g>
							<g>
								<rect x="328.48" y="229.42" style="fill:#F29F04;" width="87.47" height="12.07"/>
							</g>
							<g>
								<path style="fill:#D97803;" d="M415.95,241.88h-62.66c-0.22,0-0.39-0.18-0.39-0.39c0-0.22,0.18-0.39,0.39-0.39h62.66
									c0.22,0,0.39,0.18,0.39,0.39C416.35,241.71,416.17,241.88,415.95,241.88z"/>
							</g>
							<g>
								<path style="fill:#D97803;" d="M380.45,241.88c-0.22,0-0.39-0.18-0.39-0.39v-12.07c0-0.22,0.18-0.39,0.39-0.39
									c0.22,0,0.39,0.18,0.39,0.39v12.07C380.85,241.71,380.67,241.88,380.45,241.88z"/>
							</g>
							<g>
								<path style="fill:#D97803;" d="M387.59,241.88c-0.22,0-0.39-0.18-0.39-0.39v-12.07c0-0.22,0.18-0.39,0.39-0.39
									c0.22,0,0.39,0.18,0.39,0.39v12.07C387.98,241.71,387.8,241.88,387.59,241.88z"/>
							</g>
							<g>
								<path style="fill:#D97803;" d="M397.39,241.88c-0.22,0-0.39-0.18-0.39-0.39v-12.07c0-0.22,0.18-0.39,0.39-0.39
									c0.22,0,0.39,0.18,0.39,0.39v12.07C397.79,241.71,397.61,241.88,397.39,241.88z"/>
							</g>
							<g>
								<path style="fill:#D97803;" d="M406.31,241.88c-0.22,0-0.39-0.18-0.39-0.39v-12.07c0-0.22,0.18-0.39,0.39-0.39
									c0.22,0,0.39,0.18,0.39,0.39v12.07C406.7,241.71,406.53,241.88,406.31,241.88z"/>
							</g>
						</g>
						<g>
							<g>
								<rect x="339.15" y="217.34" style="fill:#F29F04;" width="87.47" height="12.07"/>
							</g>
							<g>
								<path style="fill:#D97803;" d="M426.62,229.81h-48.73c-0.22,0-0.39-0.18-0.39-0.39c0-0.22,0.18-0.39,0.39-0.39h48.73
									c0.22,0,0.39,0.18,0.39,0.39C427.02,229.63,426.84,229.81,426.62,229.81z"/>
							</g>
							<g>
								<path style="fill:#D97803;" d="M391.12,229.81c-0.22,0-0.39-0.18-0.39-0.39v-12.08c0-0.22,0.18-0.39,0.39-0.39
									c0.22,0,0.39,0.18,0.39,0.39v12.08C391.52,229.63,391.34,229.81,391.12,229.81z"/>
							</g>
							<g>
								<path style="fill:#D97803;" d="M398.25,229.81c-0.22,0-0.39-0.18-0.39-0.39v-12.08c0-0.22,0.18-0.39,0.39-0.39
									s0.39,0.18,0.39,0.39v12.08C398.65,229.63,398.47,229.81,398.25,229.81z"/>
							</g>
							<g>
								<path style="fill:#D97803;" d="M408.06,229.81c-0.22,0-0.39-0.18-0.39-0.39v-12.08c0-0.22,0.18-0.39,0.39-0.39
									c0.22,0,0.39,0.18,0.39,0.39v12.08C408.46,229.63,408.28,229.81,408.06,229.81z"/>
							</g>
							<g>
								<path style="fill:#D97803;" d="M416.98,229.81c-0.22,0-0.39-0.18-0.39-0.39v-12.08c0-0.22,0.18-0.39,0.39-0.39
									c0.22,0,0.39,0.18,0.39,0.39v12.08C417.37,229.63,417.19,229.81,416.98,229.81z"/>
							</g>
						</g>
						<g>
							<g>
								<rect x="330.91" y="205.27" style="fill:#F29F04;" width="87.47" height="12.07"/>
							</g>
							<g>
								<path style="fill:#D97803;" d="M418.38,217.74h-68.06c-0.22,0-0.39-0.18-0.39-0.39c0-0.22,0.18-0.39,0.39-0.39h68.06
									c0.22,0,0.39,0.18,0.39,0.39C418.78,217.56,418.6,217.74,418.38,217.74z"/>
							</g>
							<g>
								<path style="fill:#D97803;" d="M382.88,217.74c-0.22,0-0.39-0.18-0.39-0.39v-12.07c0-0.22,0.18-0.39,0.39-0.39
									c0.22,0,0.39,0.18,0.39,0.39v12.07C383.28,217.56,383.1,217.74,382.88,217.74z"/>
							</g>
							<g>
								<path style="fill:#D97803;" d="M390.02,217.74c-0.22,0-0.39-0.18-0.39-0.39v-12.07c0-0.22,0.18-0.39,0.39-0.39
									c0.22,0,0.39,0.18,0.39,0.39v12.07C390.41,217.56,390.23,217.74,390.02,217.74z"/>
							</g>
							<g>
								<path style="fill:#D97803;" d="M399.82,217.74c-0.22,0-0.39-0.18-0.39-0.39v-12.07c0-0.22,0.18-0.39,0.39-0.39
									c0.22,0,0.39,0.18,0.39,0.39v12.07C400.22,217.56,400.04,217.74,399.82,217.74z"/>
							</g>
							<g>
								<path style="fill:#D97803;" d="M408.74,217.74c-0.22,0-0.39-0.18-0.39-0.39v-12.07c0-0.22,0.18-0.39,0.39-0.39
									c0.22,0,0.39,0.18,0.39,0.39v12.07C409.13,217.56,408.96,217.74,408.74,217.74z"/>
							</g>
						</g>
					</g>
					<g>
						<g>
							<path style="fill:#F2E1D1;" d="M299.74,157.21c0,0,1.15-9.47,14.65-10.86c5.53-0.57,6.56,9.68,6.56,9.68L299.74,157.21z"/>
						</g>
						<g>
							<path style="fill:#8580A4;" d="M342.35,262.57l14.03,34.72l-47.36,16.65c0,0,1.1-11.43,6.22-14.72
								c12.1-7.78,7.09-12.01,5.01-25.94C318.18,259.34,342.35,262.57,342.35,262.57z"/>
						</g>
						<g>
							<path style="fill:#8580A4;" d="M287.3,270.56l-7.95,36.59l-48.51-12.9c0,0,7.35-8.83,13.43-8.67
								c14.38,0.38,12.62-5.94,18.75-18.62C269.14,254.28,287.3,270.56,287.3,270.56z"/>
						</g>
						<g>
							<path style="fill:#4E508D;" d="M250.96,277.01c0.69-1.04,42.29-87.09,42.29-87.09s4.74-20.19,17.53-23.64
								c6.15-1.66,15.21,0,15.21,0l8.99,28c0,0-29.43,59.42-45.14,95.48C268.89,300.6,250.96,277.01,250.96,277.01z"/>
						</g>
						<g>
							<path style="fill:#8580A4;" d="M309.15,146.33c0,0,24.71-9.55,24.97-10.56c2.38-9.29,5.31-47.9,21.71-53.35
								c6.45-2.14,4.3,27.3,4.3,27.3l1.04,45.11l-40.26,6.75L309.15,146.33z"/>
						</g>
						<g>
							<path style="fill:#4E508D;" d="M315.41,291.89c0,0-26.01-88.33-27.45-95.74c-3.31-17.01,12.55-34.91,21.88-34.91
								c9.33,0,97.9-2.48,101.22,0c8.71,6.49,11.76,35.91,1.73,43.4c-11.4,8.52-83.21-3.31-83.21-3.31s25.7,59.42,24.22,79.85
								C342.35,293.27,315.41,291.89,315.41,291.89z"/>
						</g>
						<g>
							<rect x="293.25" y="153.55" style="fill:#4E508D;" width="65.99" height="7.32"/>
						</g>
						<g>
							<path style="fill:#4E508D;" d="M280.49,102.81l19.57,55.31l-6.9,2.44l-22.02-62.21h0C274.96,97.01,279.14,99,280.49,102.81z"
								/>
						</g>
						<g>
							<path style="fill:#8580A4;" d="M420.11,179.89l-71.06-20.05c0,0-12.07-57.97-0.23-71.89c2.86-3.38,5.08-5.4,11.23-6.8
								c7.66-1.76,17.13-2,26.53-0.78c3.46,0.45,6.93,1.1,10.28,1.95C406.83,88.5,420.11,179.89,420.11,179.89z"/>
						</g>
						<g>
							<g>
								<path style="fill:#F2E1D1;" d="M350.2,43.51c0,0-2.85,25.16,5.65,27.99c8.51,2.83,21.4-8.75,21.4-8.75l1.41-20.83
									L350.2,43.51z"/>
							</g>
							<g>
								<path style="fill:#F2E1D1;" d="M361.96,67.21l1.11,17.12c0,0,14.56,2.14,17.76-2.45c0.73-1.04-5.72-19.61-5.72-19.61
									L361.96,67.21z"/>
							</g>
							<g>
								<path style="fill:#4E508D;" d="M345.4,39.21c-0.64,1.98-1.04,6.16,3.33,7.26c4.37,1.1,15.28-4.27,16.11-2.15
									c1.29,3.29,4.2,7.3,7.07,8.05c1.75,4.99,1.71,5.22,1.71,5.22s-1.05,8.92,3.44,13.23c2.82,2.72,15.31-3.64,15.27-10.49
									c-0.05-6.56-2.94-10.57-5.76-13.89c-2.82-3.32-2.8-6.63-4.04-8.98c-1.24-2.36-5.41-5.89-9.3-4.73
									c-4.76,1.42-5.47-4.1-11.19-0.87C356.71,34.87,347.35,33.17,345.4,39.21z"/>
							</g>
							<g>
								<path style="fill:#4E508D;" d="M362.37,71.44c2.7-0.46,7.88-5,7.88-5l-7.77,8.77C362.48,75.21,362.5,72.74,362.37,71.44z"/>
							</g>
							<g>
								<path style="fill:#4E508D;" d="M352.88,53.98c0.11,0.68-0.22,1.31-0.73,1.39c-0.51,0.08-1.02-0.41-1.13-1.09
									c-0.11-0.68,0.22-1.31,0.73-1.39C352.26,52.81,352.77,53.3,352.88,53.98z"/>
							</g>
							<g>
								<path style="fill:#4E508D;" d="M361.45,53.35c0.11,0.68-0.22,1.31-0.73,1.39s-1.02-0.41-1.13-1.09
									c-0.11-0.68,0.22-1.31,0.73-1.39C360.84,52.18,361.34,52.67,361.45,53.35z"/>
							</g>
							<g>
								<path style="fill:#4E508D;" d="M356.6,60.63c-0.55,0-1.36-0.06-1.98-0.36c-1.07-0.51,0.01-4.23,0.53-5.8
									c0.05-0.15,0.21-0.24,0.37-0.19c0.16,0.05,0.24,0.22,0.19,0.37c-0.81,2.48-1.21,4.9-0.84,5.08
									c0.87,0.41,2.26,0.28,2.27,0.28c0.18-0.01,0.31,0.1,0.33,0.26c0.02,0.16-0.1,0.31-0.26,0.33
									C357.18,60.61,356.94,60.63,356.6,60.63z"/>
							</g>
							<g>
								<g>
									<path style="fill:#F2E1D1;" d="M370.94,53.62c0.13-0.04,0.78-2.78,3.47-2.7c2.39,0.07,3.06,3.9,2.41,4.86
										c-2.02,2.95-4.44,3.15-4.44,3.15L370.94,53.62z"/>
								</g>
								<g>
									<path style="fill:#4E508D;" d="M375.56,55.07c-0.16,0-0.29-0.13-0.3-0.29c-0.01-0.51-0.15-0.84-0.41-0.99
										c-0.55-0.32-1.59,0.11-1.94,0.31c-0.14,0.08-0.32,0.03-0.4-0.12c-0.08-0.14-0.03-0.32,0.12-0.4
										c0.16-0.09,1.59-0.84,2.52-0.3c0.46,0.26,0.69,0.77,0.71,1.49C375.86,54.93,375.73,55.07,375.56,55.07
										C375.56,55.07,375.56,55.07,375.56,55.07z"/>
								</g>
								<g>
									<path style="fill:#4E508D;" d="M373.82,55.95c-0.13,0-0.26-0.09-0.29-0.23c-0.04-0.17,0.04-0.33,0.23-0.67
										c0.23-0.41,0.57-1.04,0.63-1.67c0.02-0.16,0.15-0.28,0.33-0.26c0.16,0.02,0.28,0.16,0.26,0.33
										c-0.08,0.74-0.46,1.43-0.7,1.89c-0.06,0.12-0.14,0.26-0.17,0.32c0,0.13-0.09,0.25-0.23,0.28
										C373.87,55.95,373.85,55.95,373.82,55.95z"/>
								</g>
							</g>
							<g>
								<path style="fill:#4E508D;" d="M356.6,64.2c-0.79,0-1.38-0.17-1.4-0.18c-0.16-0.05-0.25-0.21-0.2-0.37
									c0.05-0.16,0.21-0.24,0.37-0.2c0.14,0.04,3.37,0.97,4.41-2.08c0.05-0.15,0.23-0.24,0.38-0.18c0.16,0.05,0.24,0.22,0.18,0.38
									C359.59,63.77,357.85,64.2,356.6,64.2z"/>
							</g>
						</g>
						<g>
							<path style="fill:#F2E1D1;" d="M386.57,80.36c-3.6,3.82-13.31,13.21-21.03,12.25c-7.5-0.94-6.39-8.23-5.5-11.47
								C367.7,79.38,377.17,79.15,386.57,80.36z"/>
						</g>
						<g>
							<path style="fill:#4E508D;" d="M366.98,96.3c-3.56,0-5.88-0.98-5.93-1c-0.15-0.07-0.22-0.24-0.15-0.39
								c0.07-0.15,0.24-0.22,0.39-0.15c0.11,0.05,11.02,4.61,21.81-6.67c0.11-0.12,0.3-0.12,0.42-0.01c0.12,0.11,0.12,0.3,0.01,0.42
								C377.45,94.86,371.31,96.3,366.98,96.3z"/>
						</g>
						<g>
							<path style="fill:#F2E1D1;" d="M322.15,153.55c-1.66-5.73,15.46-10.3,21.99-9.27c6.53,1.04,4.11,9.85,4.11,9.85
								S334.97,153.55,322.15,153.55z"/>
						</g>
						<g>
							<path style="fill:#4E508D;" d="M345.01,138.27c-0.02,0-0.03,0-0.05,0c-0.16-0.03-0.27-0.18-0.24-0.34
								c0.5-2.82-0.22-4.5-1.06-6.44c-0.57-1.32-1.21-2.82-1.5-4.85c-0.61-4.32,1.64-6.92,3.81-9.43c0.35-0.4,0.69-0.8,1.01-1.19
								c2.23-2.72,1.42-10.72,1.41-10.8c-0.02-0.16,0.1-0.31,0.26-0.33c0.18-0.02,0.31,0.1,0.33,0.26
								c0.04,0.34,0.84,8.32-1.54,11.24c-0.33,0.4-0.68,0.8-1.02,1.21c-2.09,2.41-4.25,4.91-3.68,8.96c0.27,1.95,0.88,3.34,1.46,4.7
								c0.84,1.94,1.63,3.78,1.1,6.78C345.27,138.17,345.15,138.27,345.01,138.27z"/>
						</g>
						<g>
							<path style="fill:#4E508D;" d="M388.85,112.57c0,0,2.47,9.06,1.14,20.31c-0.82,6.96-24.27,8.61-24.27,8.61
								s27.59,8.87,32.74,2.65C403.71,137.78,388.85,112.57,388.85,112.57z"/>
						</g>
						<g>
							<path style="fill:#8580A4;" d="M344.14,142.89c0,0,43.69-2.51,51.47-2.4c4.28,0.06-11.12-31.26-12.76-35.85
								c-3.51-9.82,6.41-21.38,9.8-22.35c9.82-2.83,20.14,15.65,25.8,31.79c5.66,16.15,6.33,36.29,6.33,36.29s2.52,12.51-7.97,13.51
								c-10.49,1-74.92-4.02-74.92-4.02S341.48,145.38,344.14,142.89z"/>
						</g>
						<g>
							<path style="fill:#4E508D;" d="M410.28,164.47c-15.8,0-51.61-2.46-53.41-2.59c-0.16-0.01-0.29-0.15-0.28-0.32
								c0.01-0.16,0.16-0.29,0.32-0.27c0.53,0.04,52.88,3.64,59.83,2.28c0.16-0.03,0.32,0.07,0.35,0.23
								c0.03,0.16-0.07,0.32-0.23,0.35C415.71,164.38,413.38,164.47,410.28,164.47z"/>
						</g>
						<g>
							<path style="fill:#4E508D;" d="M346,143.72c-0.15,0-0.28-0.11-0.29-0.26c-0.02-0.16,0.1-0.31,0.26-0.33
								c0.28-0.03,28.24-3.24,47.87-3.49c0.51-0.01,0.99-0.24,1.26-0.62c0.25-0.34,0.31-0.74,0.19-1.15
								c-3.33-10.99-6.36-19.91-9-26.51c-0.26-0.66-0.64-1.05-1.07-1.11c-0.36-0.05-0.77,0.16-1.06,0.56
								c-0.35,0.47-0.57,1.29-0.17,2.16c0.07,0.15,0,0.32-0.15,0.39c-0.15,0.07-0.32,0-0.39-0.15c-0.51-1.11-0.22-2.15,0.23-2.76
								c0.42-0.57,1.03-0.87,1.61-0.8c0.38,0.05,1.08,0.3,1.54,1.48c2.64,6.62,5.67,15.55,9.01,26.56c0.18,0.59,0.08,1.19-0.28,1.67
								c-0.39,0.53-1.04,0.85-1.74,0.86c-19.6,0.25-47.53,3.46-47.81,3.49C346.03,143.72,346.01,143.72,346,143.72z"/>
						</g>
						<g>
							<path style="fill:#F2E1D1;" d="M305.04,257.55c-0.15-0.46-14.71-46.52-16.66-58.47l0.6-0.1
								c1.94,11.9,16.49,57.92,16.64,58.38L305.04,257.55z"/>
						</g>
						<g>
							<path style="fill:#F2E1D1;" d="M318.01,284.94l-0.02-0.61c0.23-0.01,22.99-0.77,29.91-7.49c1.93-7.9-13.32-48.02-20.66-67.33
								c-2.15-5.65-3.57-9.39-3.84-10.4c-0.51-1.93,0.53-3.93,1.8-5.06c1.2-1.07,2.62-1.43,3.8-0.97
								c2.59,1.01,44.96,6.12,54.48,7.07c14.04,1.39,22.78,0.37,25.99-3.02c6.9-7.29,2.26-19.31,2.21-19.43l0.57-0.22
								c0.05,0.12,4.82,12.5-2.34,20.07c-3.35,3.54-12.26,4.61-26.5,3.21c-8.07-0.8-51.89-6.03-54.64-7.11
								c-0.96-0.38-2.14-0.06-3.17,0.86c-1.12,1-2.06,2.77-1.61,4.44c0.26,0.98,1.75,4.91,3.82,10.34
								c7.39,19.44,22.76,59.89,20.66,67.79l-0.02,0.08l-0.06,0.06C341.37,284.16,318.96,284.91,318.01,284.94z"/>
						</g>
						<g>
							<path style="fill:#F2E1D1;" d="M283.83,284.54c-12.33,0-24.81-9.58-24.95-9.69l0.38-0.48c0.16,0.12,15.64,12,28.94,9.11
								c2.02-0.44,9.26-23.06,13.36-37.21l0.59,0.17c-1.09,3.78-10.78,36.98-13.81,37.64C286.85,284.39,285.34,284.54,283.83,284.54
								z"/>
						</g>
					</g>
				</g>
			</g>
			<g>
				<g>
					
						<ellipse transform="matrix(0.5586 -0.8294 0.8294 0.5586 -69.9818 508.2911)" style="fill:#F29F04;" cx="442.57" cy="319.9" rx="43.59" ry="43.59"/>
				</g>
				<g>
					<path style="fill:#D97803;" d="M442.53,357.75c-2.47,0-4.94-0.25-7.38-0.74c-15.17-3.04-26.85-14.83-29.75-30.03
						c-3.91-20.5,9.59-40.35,30.08-44.26c13.52-2.57,27.4,2.4,36.21,13c4.07,4.89,6.85,10.8,8.05,17.09
						c1.59,8.32,0.4,16.7-3.43,24.23c-5.35,10.52-15.07,17.82-26.65,20.03C447.29,357.52,444.91,357.75,442.53,357.75z
						 M442.57,283.6c-2.26,0-4.53,0.21-6.79,0.64c-19.66,3.75-32.6,22.79-28.85,42.45c2.78,14.58,13.98,25.88,28.53,28.8
						c4.59,0.92,9.28,0.94,13.92,0.05c11.11-2.12,20.42-9.12,25.56-19.21c3.67-7.22,4.81-15.26,3.29-23.24
						c-1.15-6.03-3.82-11.7-7.72-16.39C463.53,288.32,453.24,283.6,442.57,283.6z"/>
				</g>
				<g>
					<path style="fill:#D97803;" d="M458.38,319.53c-1.56-1.33-3.78-2.03-6.65-2.1l-0.04-0.27c2.18-0.76,3.74-2.01,4.68-3.74
						c0.94-1.73,1.23-3.75,0.85-6.07c-0.56-3.43-2.19-5.75-4.88-6.94c-1.43-0.64-3.27-0.97-5.49-1.01l-0.72-4.4
						c-0.24-1.5-1.66-2.51-3.15-2.27c-1.5,0.24-2.51,1.66-2.27,3.15l0.63,3.89c-0.41,0.06-0.81,0.11-1.23,0.18l-2.67,0.44
						l-0.63-3.87c-0.24-1.5-1.66-2.51-3.15-2.27s-2.51,1.66-2.27,3.15l0.63,3.87l-3.68,0.6l-3.71,0.6c-1.5,0.24-2.51,1.66-2.27,3.15
						c0.24,1.5,1.66,2.51,3.15,2.27l3.71-0.6l4.69,28.77l-3.71,0.6c-1.5,0.24-2.51,1.66-2.27,3.15c0.24,1.5,1.66,2.51,3.15,2.27
						l3.71-0.6l0,0.03l3.68-0.6l0.63,3.87c0.24,1.5,1.66,2.51,3.15,2.27c1.5-0.24,2.51-1.66,2.27-3.15l-0.63-3.87l3.9-0.64
						l0.63,3.87c0.24,1.5,1.66,2.51,3.15,2.27s2.51-1.66,2.27-3.15l-0.69-4.22c2.44-0.86,4.4-2.09,5.83-3.7
						c2.16-2.42,2.95-5.41,2.37-8.97C460.94,322.85,459.94,320.87,458.38,319.53z M441.32,305.32c2.93-0.48,5.13-0.41,6.62,0.2
						c1.48,0.61,2.38,1.85,2.68,3.71c0.34,2.06-0.05,3.62-1.16,4.68c-1.11,1.06-3.02,1.81-5.73,2.26l-6.24,1.02l-1.79-10.96
						l2.35-0.38L441.32,305.32z M453.17,331.32c-1.21,1.27-3.18,2.12-5.89,2.56l-4.54,0.74l-2.35,0.38l-2.05-12.56l6.56-1.07
						c2.87-0.47,5.1-0.32,6.67,0.44c1.57,0.76,2.53,2.18,2.86,4.24C454.81,328.3,454.39,330.06,453.17,331.32z"/>
				</g>
				<g>
					<path style="fill:#D97803;" d="M431.21,362.39c-0.03,0-0.07,0-0.1-0.01c-16.4-4.44-28.56-17.56-31.74-34.24
						c-2.2-11.54,0.22-23.25,6.83-32.97c6.6-9.72,16.6-16.28,28.14-18.48c1.45-0.28,2.92-0.48,4.39-0.61
						c0.21-0.02,0.41,0.14,0.43,0.36c0.02,0.22-0.14,0.41-0.36,0.43c-1.44,0.13-2.89,0.33-4.31,0.6
						c-23.4,4.46-38.8,27.13-34.34,50.52c3.12,16.38,15.07,29.26,31.17,33.62c0.21,0.06,0.33,0.27,0.28,0.48
						C431.54,362.27,431.38,362.39,431.21,362.39z"/>
				</g>
			</g>
		</g>
	</g>
</g>
</svg>
