<?xml version="1.0" encoding="utf-8"?>
<!-- Generator: Adobe Illustrator 26.3.1, SVG Export Plug-In . SVG Version: 6.00 Build 0)  -->
<svg version="1.1" id="Layer_1" xmlns="http://www.w3.org/2000/svg" xmlns:xlink="http://www.w3.org/1999/xlink" x="0px" y="0px"
	 viewBox="0 0 500 372.61" style="enable-background:new 0 0 500 372.61;" xml:space="preserve">
<g>
	<g>
		<rect y="327.45" style="fill:#ECECEC;" width="500" height="0.25"/>
		<rect x="416.78" y="343.54" style="fill:#ECECEC;" width="33.12" height="0.25"/>
		<rect x="322.53" y="346.26" style="fill:#ECECEC;" width="8.69" height="0.25"/>
		<rect x="396.59" y="334.26" style="fill:#ECECEC;" width="19.19" height="0.25"/>
		<rect x="52.46" y="335.94" style="fill:#ECECEC;" width="43.19" height="0.25"/>
		<rect x="104.56" y="335.94" style="fill:#ECECEC;" width="6.33" height="0.25"/>
		<rect x="131.47" y="340.16" style="fill:#ECECEC;" width="93.68" height="0.25"/>
		<path style="fill:#ECECEC;" d="M237.01,282.85H43.92c-3.15,0-5.71-2.56-5.71-5.71V5.71c0-3.15,2.56-5.71,5.71-5.71h193.1
			c3.15,0,5.71,2.56,5.71,5.71v271.43C242.72,280.29,240.16,282.85,237.01,282.85z M43.92,0.25c-3.01,0-5.46,2.45-5.46,5.46v271.43
			c0,3.01,2.45,5.46,5.46,5.46h193.1c3.01,0,5.46-2.45,5.46-5.46V5.71c0-3.01-2.45-5.46-5.46-5.46H43.92z"/>
		<path style="fill:#ECECEC;" d="M453.31,282.85h-193.1c-3.15,0-5.71-2.56-5.71-5.71V5.71c0-3.15,2.56-5.71,5.71-5.71h193.1
			c3.15,0,5.71,2.56,5.71,5.71v271.43C459.02,280.29,456.46,282.85,453.31,282.85z M260.21,0.25c-3.01,0-5.46,2.45-5.46,5.46v271.43
			c0,3.01,2.45,5.46,5.46,5.46h193.1c3.01,0,5.46-2.45,5.46-5.46V5.71c0-3.01-2.45-5.46-5.46-5.46H260.21z"/>
	</g>
	<g>
		<path style="fill:#F0F0F0;" d="M207,72.71c0-6.26-5.07-11.33-11.33-11.33c-1.13,0-2.22,0.17-3.25,0.48
			c0.17-1.14,0.25-2.3,0.25-3.48c0-13.25-10.75-24-24-24c-1.51,0-2.99,0.15-4.42,0.41c-3.69-6.04-10.32-10.08-17.91-10.08
			c-11.49,0-20.81,9.23-20.98,20.68c-0.12,0-0.23-0.02-0.35-0.02c-10.68,0-19.33,8.66-19.33,19.33c0,10.68,8.66,19.33,19.33,19.33
			h71l-0.01-0.02C202.1,83.86,207,78.87,207,72.71z"/>
		<path style="fill:#F0F0F0;" d="M285,123.42c0-3.11-2.52-5.63-5.63-5.63c-0.56,0-1.1,0.08-1.62,0.24c0.08-0.56,0.13-1.14,0.13-1.73
			c0-6.58-5.34-11.92-11.92-11.92c-0.75,0-1.48,0.07-2.2,0.21c-1.83-3-5.13-5.01-8.9-5.01c-5.71,0-10.34,4.59-10.42,10.27
			c-0.06,0-0.12-0.01-0.17-0.01c-5.3,0-9.6,4.3-9.6,9.6c0,5.3,4.3,9.6,9.6,9.6h35.27l-0.01-0.01
			C282.56,128.95,285,126.47,285,123.42z"/>
		<path style="fill:#F0F0F0;" d="M409.5,68.6c0-1.9-1.54-3.45-3.45-3.45c-0.34,0-0.68,0.05-0.99,0.15c0.05-0.35,0.08-0.7,0.08-1.06
			c0-4.03-3.27-7.3-7.3-7.3c-0.46,0-0.91,0.04-1.35,0.13c-1.12-1.84-3.14-3.07-5.45-3.07c-3.5,0-6.33,2.81-6.39,6.29
			c-0.04,0-0.07-0.01-0.11-0.01c-3.25,0-5.88,2.63-5.88,5.88c0,3.25,2.63,5.88,5.88,5.88h21.6l0,0
			C408.01,71.99,409.5,70.47,409.5,68.6z"/>
		<g>
			
				<text transform="matrix(1 0 0 1 134.9986 58.0298)" style="fill:#ECECEC; font-family:'BebasNeue-Regular'; font-size:7px;glyph-orientation-vertical:0;writing-mode:tb;">101010000111110101010101</text>
			
				<text transform="matrix(1 0 0 1 142.4986 58.0298)" style="fill:#ECECEC; font-family:'BebasNeue-Regular'; font-size:7px;glyph-orientation-vertical:0;writing-mode:tb;">001101100110001101011111</text>
			
				<text transform="matrix(1 0 0 1 149.9986 58.0298)" style="fill:#ECECEC; font-family:'BebasNeue-Regular'; font-size:7px;glyph-orientation-vertical:0;writing-mode:tb;">111110101010101011110000</text>
			
				<text transform="matrix(1 0 0 1 157.4986 58.0298)" style="fill:#ECECEC; font-family:'BebasNeue-Regular'; font-size:7px;glyph-orientation-vertical:0;writing-mode:tb;">101010000111110101010101</text>
			
				<text transform="matrix(1 0 0 1 164.9986 58.0298)" style="fill:#ECECEC; font-family:'BebasNeue-Regular'; font-size:7px;glyph-orientation-vertical:0;writing-mode:tb;">000101011111000000110101</text>
			
				<text transform="matrix(1 0 0 1 172.4986 58.0298)" style="fill:#ECECEC; font-family:'BebasNeue-Regular'; font-size:7px;glyph-orientation-vertical:0;writing-mode:tb;">110011001101010101001100</text>
		</g>
		<g>
			<rect x="45.5" y="183.7" style="fill:#F5F5F5;" width="226.51" height="144.08"/>
			<rect x="45.5" y="183.7" style="fill:#E1E1E1;" width="226.51" height="9.76"/>
			<path style="fill:#FAFAFA;" d="M268.64,188.58c0,1.62-1.32,2.94-2.94,2.94c-1.62,0-2.94-1.32-2.94-2.94
				c0-1.62,1.32-2.94,2.94-2.94C267.33,185.64,268.64,186.96,268.64,188.58z"/>
			<path style="fill:#FAFAFA;" d="M258.87,188.58c0,1.62-1.32,2.94-2.94,2.94c-1.62,0-2.94-1.32-2.94-2.94
				c0-1.62,1.32-2.94,2.94-2.94C257.55,185.64,258.87,186.96,258.87,188.58z"/>
			<path style="fill:#FAFAFA;" d="M249.09,188.58c0,1.62-1.32,2.94-2.94,2.94s-2.94-1.32-2.94-2.94c0-1.62,1.32-2.94,2.94-2.94
				S249.09,186.96,249.09,188.58z"/>
		</g>
		<g>
			<path style="fill:#E1E1E1;" d="M86.46,210.39l-1.39-1.94c-0.51-0.71-1.33-1.14-2.17-1.14h-9.83c-0.85,0-1.61,0.43-2.04,1.14
				l-1.17,1.94c-0.43,0.71-1.19,1.14-2.04,1.14h-5.86c-1.4,0-2.47,1.14-2.38,2.55l1.9,32.81c0.08,1.41,1.28,2.55,2.68,2.55h46.47
				c1.4,0,2.47-1.14,2.38-2.55l-1.9-32.81c-0.08-1.41-1.28-2.55-2.68-2.55H88.63C87.79,211.53,86.97,211.1,86.46,210.39z"/>
			<path style="fill:#E7E7E7;" d="M113.07,214.65H70.5c-1.77,0-3.34,1.43-3.5,3.19l-2.56,28.41c-0.16,1.76,1.15,3.19,2.93,3.19
				h42.57c1.77,0,3.34-1.43,3.5-3.19l2.56-28.41C116.16,216.08,114.84,214.65,113.07,214.65z"/>
		</g>
		<g>
			<path style="fill:#E1E1E1;" d="M157.35,210.39l-1.39-1.94c-0.51-0.71-1.33-1.14-2.17-1.14h-9.83c-0.85,0-1.61,0.43-2.04,1.14
				l-1.17,1.94c-0.43,0.71-1.19,1.14-2.04,1.14h-5.86c-1.4,0-2.46,1.14-2.38,2.55l1.9,32.81c0.08,1.41,1.28,2.55,2.68,2.55h46.47
				c1.4,0,2.47-1.14,2.38-2.55l-1.9-32.81c-0.08-1.41-1.28-2.55-2.68-2.55h-19.79C158.68,211.53,157.87,211.1,157.35,210.39z"/>
			<path style="fill:#E7E7E7;" d="M183.96,214.65h-42.57c-1.77,0-3.34,1.43-3.5,3.19l-2.56,28.41c-0.16,1.76,1.15,3.19,2.93,3.19
				h42.57c1.78,0,3.34-1.43,3.5-3.19l2.56-28.41C187.05,216.08,185.74,214.65,183.96,214.65z"/>
		</g>
		<g>
			<path style="fill:#E1E1E1;" d="M228.25,210.39l-1.39-1.94c-0.51-0.71-1.33-1.14-2.17-1.14h-9.83c-0.85,0-1.61,0.43-2.04,1.14
				l-1.17,1.94c-0.43,0.71-1.19,1.14-2.04,1.14h-5.86c-1.4,0-2.46,1.14-2.38,2.55l1.9,32.81c0.08,1.41,1.28,2.55,2.68,2.55h46.47
				c1.4,0,2.47-1.14,2.38-2.55l-1.9-32.81c-0.08-1.41-1.28-2.55-2.68-2.55h-19.79C229.57,211.53,228.76,211.1,228.25,210.39z"/>
			<path style="fill:#E7E7E7;" d="M254.85,214.65h-42.57c-1.77,0-3.34,1.43-3.5,3.19l-2.56,28.41c-0.16,1.76,1.15,3.19,2.93,3.19
				h42.57c1.77,0,3.34-1.43,3.5-3.19l2.56-28.41C257.94,216.08,256.63,214.65,254.85,214.65z"/>
		</g>
		<g>
			<path style="fill:#E1E1E1;" d="M86.46,270.43l-1.39-1.94c-0.51-0.71-1.33-1.14-2.17-1.14h-9.83c-0.85,0-1.61,0.43-2.04,1.14
				l-1.17,1.94c-0.43,0.71-1.19,1.14-2.04,1.14h-5.86c-1.4,0-2.47,1.14-2.38,2.55l1.9,32.81c0.08,1.41,1.28,2.55,2.68,2.55h46.47
				c1.4,0,2.47-1.14,2.38-2.55l-1.9-32.81c-0.08-1.41-1.28-2.55-2.68-2.55H88.63C87.79,271.56,86.97,271.14,86.46,270.43z"/>
			<path style="fill:#E7E7E7;" d="M113.07,274.69H70.5c-1.77,0-3.34,1.43-3.5,3.19l-2.56,28.41c-0.16,1.76,1.15,3.19,2.93,3.19
				h42.57c1.77,0,3.34-1.43,3.5-3.19l2.56-28.41C116.16,276.12,114.84,274.69,113.07,274.69z"/>
		</g>
		<g>
			<path style="fill:#E1E1E1;" d="M157.35,270.43l-1.39-1.94c-0.51-0.71-1.33-1.14-2.17-1.14h-9.83c-0.85,0-1.61,0.43-2.04,1.14
				l-1.17,1.94c-0.43,0.71-1.19,1.14-2.04,1.14h-5.86c-1.4,0-2.46,1.14-2.38,2.55l1.9,32.81c0.08,1.41,1.28,2.55,2.68,2.55h46.47
				c1.4,0,2.47-1.14,2.38-2.55l-1.9-32.81c-0.08-1.41-1.28-2.55-2.68-2.55h-19.79C158.68,271.56,157.87,271.14,157.35,270.43z"/>
			<path style="fill:#E7E7E7;" d="M183.96,274.69h-42.57c-1.77,0-3.34,1.43-3.5,3.19l-2.56,28.41c-0.16,1.76,1.15,3.19,2.93,3.19
				h42.57c1.78,0,3.34-1.43,3.5-3.19l2.56-28.41C187.05,276.12,185.74,274.69,183.96,274.69z"/>
		</g>
		<g>
			<path style="fill:#E1E1E1;" d="M228.25,270.43l-1.39-1.94c-0.51-0.71-1.33-1.14-2.17-1.14h-9.83c-0.85,0-1.61,0.43-2.04,1.14
				l-1.17,1.94c-0.43,0.71-1.19,1.14-2.04,1.14h-5.86c-1.4,0-2.46,1.14-2.38,2.55l1.9,32.81c0.08,1.41,1.28,2.55,2.68,2.55h46.47
				c1.4,0,2.47-1.14,2.38-2.55l-1.9-32.81c-0.08-1.41-1.28-2.55-2.68-2.55h-19.79C229.57,271.56,228.76,271.14,228.25,270.43z"/>
			<path style="fill:#E7E7E7;" d="M254.85,274.69h-42.57c-1.77,0-3.34,1.43-3.5,3.19l-2.56,28.41c-0.16,1.76,1.15,3.19,2.93,3.19
				h42.57c1.77,0,3.34-1.43,3.5-3.19l2.56-28.41C257.94,276.12,256.63,274.69,254.85,274.69z"/>
		</g>
		<g>
			<path style="fill:#E7E7E7;" d="M450.02,304.21h-73c-1.47,0-2.67,1.19-2.67,2.67v17.67c0,1.47,1.19,2.67,2.67,2.67h73
				c1.47,0,2.67-1.19,2.67-2.67v-17.67C452.69,305.4,451.5,304.21,450.02,304.21z"/>
			<path style="fill:#F5F5F5;" d="M444.96,315.71c0,2.67-2.16,4.83-4.83,4.83c-2.67,0-4.83-2.16-4.83-4.83s2.16-4.83,4.83-4.83
				C442.8,310.88,444.96,313.04,444.96,315.71z"/>
			<path style="fill:#E7E7E7;" d="M442.59,315.71c0,1.36-1.1,2.46-2.46,2.46s-2.46-1.1-2.46-2.46s1.1-2.46,2.46-2.46
				S442.59,314.35,442.59,315.71z"/>
			<rect x="424.27" y="312.96" style="fill:#F5F5F5;" width="5.5" height="5.5"/>
		</g>
		<g>
			<path style="fill:#E7E7E7;" d="M450.02,280.21h-73c-1.47,0-2.67,1.19-2.67,2.67v17.67c0,1.47,1.19,2.67,2.67,2.67h73
				c1.47,0,2.67-1.19,2.67-2.67v-17.67C452.69,281.4,451.5,280.21,450.02,280.21z"/>
			<path style="fill:#F5F5F5;" d="M444.96,291.71c0,2.67-2.16,4.83-4.83,4.83c-2.67,0-4.83-2.16-4.83-4.83s2.16-4.83,4.83-4.83
				C442.8,286.88,444.96,289.04,444.96,291.71z"/>
			<path style="fill:#E7E7E7;" d="M442.59,291.71c0,1.36-1.1,2.46-2.46,2.46s-2.46-1.1-2.46-2.46s1.1-2.46,2.46-2.46
				S442.59,290.35,442.59,291.71z"/>
			<rect x="424.27" y="288.96" style="fill:#F5F5F5;" width="5.5" height="5.5"/>
		</g>
		<g>
			<path style="fill:#E7E7E7;" d="M450.02,256.21h-73c-1.47,0-2.67,1.19-2.67,2.67v17.67c0,1.47,1.19,2.67,2.67,2.67h73
				c1.47,0,2.67-1.19,2.67-2.67v-17.67C452.69,257.4,451.5,256.21,450.02,256.21z"/>
			<path style="fill:#F5F5F5;" d="M444.96,267.71c0,2.67-2.16,4.83-4.83,4.83c-2.67,0-4.83-2.16-4.83-4.83s2.16-4.83,4.83-4.83
				C442.8,262.88,444.96,265.04,444.96,267.71z"/>
			<path style="fill:#E7E7E7;" d="M442.59,267.71c0,1.36-1.1,2.46-2.46,2.46s-2.46-1.1-2.46-2.46s1.1-2.46,2.46-2.46
				S442.59,266.35,442.59,267.71z"/>
			<rect x="424.27" y="264.96" style="fill:#F5F5F5;" width="5.5" height="5.5"/>
		</g>
		<g>
			<path style="fill:#E7E7E7;" d="M450.02,232.21h-73c-1.47,0-2.67,1.19-2.67,2.67v17.67c0,1.47,1.19,2.67,2.67,2.67h73
				c1.47,0,2.67-1.19,2.67-2.67v-17.67C452.69,233.4,451.5,232.21,450.02,232.21z"/>
			<path style="fill:#F5F5F5;" d="M444.96,243.71c0,2.67-2.16,4.83-4.83,4.83c-2.67,0-4.83-2.16-4.83-4.83s2.16-4.83,4.83-4.83
				C442.8,238.88,444.96,241.04,444.96,243.71z"/>
			<path style="fill:#E7E7E7;" d="M442.59,243.71c0,1.36-1.1,2.46-2.46,2.46s-2.46-1.1-2.46-2.46s1.1-2.46,2.46-2.46
				S442.59,242.35,442.59,243.71z"/>
			<rect x="424.27" y="240.96" style="fill:#F5F5F5;" width="5.5" height="5.5"/>
		</g>
		<g>
			<path style="fill:#E7E7E7;" d="M450.02,208.21h-73c-1.47,0-2.67,1.19-2.67,2.67v17.67c0,1.47,1.19,2.67,2.67,2.67h73
				c1.47,0,2.67-1.19,2.67-2.67v-17.67C452.69,209.4,451.5,208.21,450.02,208.21z"/>
			<path style="fill:#F5F5F5;" d="M444.96,219.71c0,2.67-2.16,4.83-4.83,4.83c-2.67,0-4.83-2.16-4.83-4.83s2.16-4.83,4.83-4.83
				C442.8,214.88,444.96,217.04,444.96,219.71z"/>
			<path style="fill:#E7E7E7;" d="M442.59,219.71c0,1.36-1.1,2.46-2.46,2.46s-2.46-1.1-2.46-2.46s1.1-2.46,2.46-2.46
				S442.59,218.35,442.59,219.71z"/>
			<rect x="424.27" y="216.96" style="fill:#F5F5F5;" width="5.5" height="5.5"/>
		</g>
		<g>
			<path style="fill:#E7E7E7;" d="M450.02,184.21h-73c-1.47,0-2.67,1.19-2.67,2.67v17.67c0,1.47,1.19,2.67,2.67,2.67h73
				c1.47,0,2.67-1.19,2.67-2.67v-17.67C452.69,185.4,451.5,184.21,450.02,184.21z"/>
			<path style="fill:#F5F5F5;" d="M444.96,195.71c0,2.67-2.16,4.83-4.83,4.83c-2.67,0-4.83-2.16-4.83-4.83s2.16-4.83,4.83-4.83
				C442.8,190.88,444.96,193.04,444.96,195.71z"/>
			<path style="fill:#E7E7E7;" d="M442.59,195.71c0,1.36-1.1,2.46-2.46,2.46s-2.46-1.1-2.46-2.46s1.1-2.46,2.46-2.46
				S442.59,194.35,442.59,195.71z"/>
			<rect x="424.27" y="192.96" style="fill:#F5F5F5;" width="5.5" height="5.5"/>
		</g>
	</g>
	<ellipse id="_x3C_Path_x3E__359_" style="fill:#F5F5F5;" cx="250" cy="361.29" rx="193.89" ry="11.32"/>
	<g>
		<path style="fill:#007CFF;" d="M387.87,322.47l-1.39-1.94c-0.51-0.71-1.33-1.14-2.17-1.14h-9.83c-0.85,0-1.61,0.43-2.04,1.14
			l-1.17,1.94c-0.43,0.71-1.19,1.14-2.04,1.14h-5.86c-1.4,0-2.46,1.14-2.38,2.55l1.9,32.81c0.08,1.41,1.28,2.55,2.68,2.55h46.47
			c1.4,0,2.47-1.14,2.38-2.55l-1.9-32.81c-0.08-1.41-1.28-2.55-2.68-2.55h-19.79C389.19,323.61,388.38,323.18,387.87,322.47z"/>
		<path style="opacity:0.5;fill:#FFFFFF;" d="M387.87,322.47l-1.39-1.94c-0.51-0.71-1.33-1.14-2.17-1.14h-9.83
			c-0.85,0-1.61,0.43-2.04,1.14l-1.17,1.94c-0.43,0.71-1.19,1.14-2.04,1.14h-5.86c-1.4,0-2.46,1.14-2.38,2.55l1.9,32.81
			c0.08,1.41,1.28,2.55,2.68,2.55h46.47c1.4,0,2.47-1.14,2.38-2.55l-1.9-32.81c-0.08-1.41-1.28-2.55-2.68-2.55h-19.79
			C389.19,323.61,388.38,323.18,387.87,322.47z"/>
		<path style="fill:#007CFF;" d="M414.47,326.73H371.9c-1.77,0-3.34,1.43-3.5,3.19l-2.56,28.41c-0.16,1.76,1.15,3.19,2.93,3.19
			h42.57c1.77,0,3.34-1.43,3.5-3.19l2.56-28.41C417.56,328.16,416.25,326.73,414.47,326.73z"/>
		<path style="opacity:0.7;fill:#FFFFFF;" d="M414.47,326.73H371.9c-1.77,0-3.34,1.43-3.5,3.19l-2.56,28.41
			c-0.16,1.76,1.15,3.19,2.93,3.19h42.57c1.77,0,3.34-1.43,3.5-3.19l2.56-28.41C417.56,328.16,416.25,326.73,414.47,326.73z"/>
	</g>
	<g>
		<rect x="230.12" y="311.71" style="fill:#1A2E35;" width="60.76" height="42.43"/>
		<g>
			<path style="fill:#007CFF;" d="M291.55,347.31h-45.11c-0.91,0-1.65,0.74-1.65,1.65v10.92c0,0.91,0.74,1.65,1.65,1.65h45.11
				c0.91,0,1.65-0.74,1.65-1.65v-10.92C293.2,348.05,292.46,347.31,291.55,347.31z"/>
			<path style="fill:#0F5BA7;" d="M291.55,347.31h-45.11c-0.91,0-1.65,0.74-1.65,1.65v10.92c0,0.91,0.74,1.65,1.65,1.65h45.11
				c0.91,0,1.65-0.74,1.65-1.65v-10.92C293.2,348.05,292.46,347.31,291.55,347.31z"/>
			<path style="fill:#0F5BA7;" d="M275.06,347.31h-45.11c-0.91,0-1.65,0.74-1.65,1.65v10.92c0,0.91,0.74,1.65,1.65,1.65h45.11
				c0.91,0,1.65-0.74,1.65-1.65v-10.92C276.71,348.05,275.97,347.31,275.06,347.31z"/>
			<path style="opacity:0.3;fill:#F5F5F5;" d="M271.93,354.42c0,1.65-1.34,2.99-2.99,2.99s-2.99-1.34-2.99-2.99
				c0-1.65,1.34-2.99,2.99-2.99S271.93,352.77,271.93,354.42z"/>
			<circle style="fill:#007CFF;" cx="268.95" cy="354.42" r="1.52"/>
			<rect x="259.15" y="352.72" style="opacity:0.3;fill:#F5F5F5;" width="3.4" height="3.4"/>
		</g>
		<g>
			<path style="fill:#007CFF;" d="M291.55,332.47h-45.11c-0.91,0-1.65,0.74-1.65,1.65v10.92c0,0.91,0.74,1.65,1.65,1.65h45.11
				c0.91,0,1.65-0.74,1.65-1.65v-10.92C293.2,333.21,292.46,332.47,291.55,332.47z"/>
			<path style="fill:#0F5BA7;" d="M291.55,332.47h-45.11c-0.91,0-1.65,0.74-1.65,1.65v10.92c0,0.91,0.74,1.65,1.65,1.65h45.11
				c0.91,0,1.65-0.74,1.65-1.65v-10.92C293.2,333.21,292.46,332.47,291.55,332.47z"/>
			<path style="fill:#0F5BA7;" d="M275.06,332.47h-45.11c-0.91,0-1.65,0.74-1.65,1.65v10.92c0,0.91,0.74,1.65,1.65,1.65h45.11
				c0.91,0,1.65-0.74,1.65-1.65v-10.92C276.71,333.21,275.97,332.47,275.06,332.47z"/>
			<path style="opacity:0.3;fill:#F5F5F5;" d="M271.93,339.58c0,1.65-1.34,2.99-2.99,2.99s-2.99-1.34-2.99-2.99
				c0-1.65,1.34-2.99,2.99-2.99S271.93,337.93,271.93,339.58z"/>
			<path style="fill:#007CFF;" d="M270.46,339.58c0,0.84-0.68,1.52-1.52,1.52c-0.84,0-1.52-0.68-1.52-1.52
				c0-0.84,0.68-1.52,1.52-1.52C269.78,338.06,270.46,338.74,270.46,339.58z"/>
			<rect x="259.15" y="337.88" style="opacity:0.3;fill:#F5F5F5;" width="3.4" height="3.4"/>
		</g>
		<g>
			<path style="fill:#007CFF;" d="M291.55,317.63h-45.11c-0.91,0-1.65,0.74-1.65,1.65v10.92c0,0.91,0.74,1.65,1.65,1.65h45.11
				c0.91,0,1.65-0.74,1.65-1.65v-10.92C293.2,318.37,292.46,317.63,291.55,317.63z"/>
			<path style="fill:#0F5BA7;" d="M291.55,317.63h-45.11c-0.91,0-1.65,0.74-1.65,1.65v10.92c0,0.91,0.74,1.65,1.65,1.65h45.11
				c0.91,0,1.65-0.74,1.65-1.65v-10.92C293.2,318.37,292.46,317.63,291.55,317.63z"/>
			<path style="fill:#0F5BA7;" d="M275.06,317.63h-45.11c-0.91,0-1.65,0.74-1.65,1.65v10.92c0,0.91,0.74,1.65,1.65,1.65h45.11
				c0.91,0,1.65-0.74,1.65-1.65v-10.92C276.71,318.37,275.97,317.63,275.06,317.63z"/>
			<path style="opacity:0.3;fill:#F5F5F5;" d="M271.93,324.74c0,1.65-1.34,2.99-2.99,2.99s-2.99-1.34-2.99-2.99s1.34-2.99,2.99-2.99
				S271.93,323.09,271.93,324.74z"/>
			<path style="fill:#007CFF;" d="M270.46,324.74c0,0.84-0.68,1.52-1.52,1.52c-0.84,0-1.52-0.68-1.52-1.52
				c0-0.84,0.68-1.52,1.52-1.52C269.78,323.22,270.46,323.9,270.46,324.74z"/>
			<rect x="259.15" y="323.04" style="opacity:0.3;fill:#F5F5F5;" width="3.4" height="3.4"/>
		</g>
		<g>
			<path style="fill:#007CFF;" d="M291.55,302.79h-45.11c-0.91,0-1.65,0.74-1.65,1.65v10.92c0,0.91,0.74,1.65,1.65,1.65h45.11
				c0.91,0,1.65-0.74,1.65-1.65v-10.92C293.2,303.53,292.46,302.79,291.55,302.79z"/>
			<path style="fill:#0F5BA7;" d="M291.55,302.79h-45.11c-0.91,0-1.65,0.74-1.65,1.65v10.92c0,0.91,0.74,1.65,1.65,1.65h45.11
				c0.91,0,1.65-0.74,1.65-1.65v-10.92C293.2,303.53,292.46,302.79,291.55,302.79z"/>
			<path style="fill:#0F5BA7;" d="M275.06,302.79h-45.11c-0.91,0-1.65,0.74-1.65,1.65v10.92c0,0.91,0.74,1.65,1.65,1.65h45.11
				c0.91,0,1.65-0.74,1.65-1.65v-10.92C276.71,303.53,275.97,302.79,275.06,302.79z"/>
			<path style="opacity:0.3;fill:#F5F5F5;" d="M271.93,309.9c0,1.65-1.34,2.99-2.99,2.99s-2.99-1.34-2.99-2.99s1.34-2.99,2.99-2.99
				S271.93,308.25,271.93,309.9z"/>
			<path style="fill:#007CFF;" d="M270.46,309.9c0,0.84-0.68,1.52-1.52,1.52c-0.84,0-1.52-0.68-1.52-1.52
				c0-0.84,0.68-1.52,1.52-1.52C269.78,308.38,270.46,309.06,270.46,309.9z"/>
			<rect x="259.15" y="308.2" style="opacity:0.3;fill:#F5F5F5;" width="3.4" height="3.4"/>
		</g>
	</g>
	<g>
		<rect x="284.54" y="334.37" style="fill:#1A2E35;" width="60.76" height="19.77"/>
		<g>
			<path style="fill:#007CFF;" d="M345.96,347.31h-45.11c-0.91,0-1.65,0.74-1.65,1.65v10.92c0,0.91,0.74,1.65,1.65,1.65h45.11
				c0.91,0,1.65-0.74,1.65-1.65v-10.92C347.61,348.05,346.87,347.31,345.96,347.31z"/>
			<path style="fill:#0F5BA7;" d="M345.96,347.31h-45.11c-0.91,0-1.65,0.74-1.65,1.65v10.92c0,0.91,0.74,1.65,1.65,1.65h45.11
				c0.91,0,1.65-0.74,1.65-1.65v-10.92C347.61,348.05,346.87,347.31,345.96,347.31z"/>
			<path style="fill:#0F5BA7;" d="M329.47,347.31h-45.11c-0.91,0-1.65,0.74-1.65,1.65v10.92c0,0.91,0.74,1.65,1.65,1.65h45.11
				c0.91,0,1.65-0.74,1.65-1.65v-10.92C331.12,348.05,330.38,347.31,329.47,347.31z"/>
			<path style="opacity:0.3;fill:#F5F5F5;" d="M326.34,354.42c0,1.65-1.34,2.99-2.99,2.99c-1.65,0-2.99-1.34-2.99-2.99
				c0-1.65,1.34-2.99,2.99-2.99C325.01,351.43,326.34,352.77,326.34,354.42z"/>
			<path style="fill:#007CFF;" d="M324.88,354.42c0,0.84-0.68,1.52-1.52,1.52c-0.84,0-1.52-0.68-1.52-1.52
				c0-0.84,0.68-1.52,1.52-1.52C324.2,352.9,324.88,353.58,324.88,354.42z"/>
			<rect x="313.56" y="352.72" style="opacity:0.3;fill:#F5F5F5;" width="3.4" height="3.4"/>
		</g>
		<g>
			<path style="fill:#007CFF;" d="M345.96,332.47h-45.11c-0.91,0-1.65,0.74-1.65,1.65v10.92c0,0.91,0.74,1.65,1.65,1.65h45.11
				c0.91,0,1.65-0.74,1.65-1.65v-10.92C347.61,333.21,346.87,332.47,345.96,332.47z"/>
			<path style="fill:#0F5BA7;" d="M345.96,332.47h-45.11c-0.91,0-1.65,0.74-1.65,1.65v10.92c0,0.91,0.74,1.65,1.65,1.65h45.11
				c0.91,0,1.65-0.74,1.65-1.65v-10.92C347.61,333.21,346.87,332.47,345.96,332.47z"/>
			<path style="fill:#0F5BA7;" d="M329.47,332.47h-45.11c-0.91,0-1.65,0.74-1.65,1.65v10.92c0,0.91,0.74,1.65,1.65,1.65h45.11
				c0.91,0,1.65-0.74,1.65-1.65v-10.92C331.12,333.21,330.38,332.47,329.47,332.47z"/>
			<path style="opacity:0.3;fill:#F5F5F5;" d="M326.34,339.58c0,1.65-1.34,2.99-2.99,2.99c-1.65,0-2.99-1.34-2.99-2.99
				c0-1.65,1.34-2.99,2.99-2.99C325.01,336.59,326.34,337.93,326.34,339.58z"/>
			<path style="fill:#007CFF;" d="M324.88,339.58c0,0.84-0.68,1.52-1.52,1.52c-0.84,0-1.52-0.68-1.52-1.52
				c0-0.84,0.68-1.52,1.52-1.52C324.2,338.06,324.88,338.74,324.88,339.58z"/>
			<rect x="313.56" y="337.88" style="opacity:0.3;fill:#F5F5F5;" width="3.4" height="3.4"/>
		</g>
	</g>
	<g>
		<polygon style="fill:#FD897B;" points="169.34,344.14 163.04,345.25 160.45,336.65 158.09,328.76 165.36,326.22 167.47,335.71 		
			"/>
		<polygon style="opacity:0.2;enable-background:new    ;" points="167.51,335.9 160.48,336.83 158.1,328.85 165.37,326.26 		"/>
		<polygon style="fill:#FD897B;" points="127.23,347.05 120.83,347.05 119.78,338.03 118.83,329.79 126.43,328.53 126.86,338.33 		
			"/>
		<polygon style="opacity:0.2;enable-background:new    ;" points="126.86,338.41 119.78,338.1 118.83,329.83 126.43,328.55 		"/>
		<path style="fill:#1A2E35;" d="M135.92,359.74c-1.02-0.82-2.18-1.45-3.42-1.86l0,0c0,0-3.72-3.69-5.51-14.8l-4.87-1.27
			c-1.69-0.41-3.46,0.28-4.43,1.73c-0.14,0.2-0.24,0.41-0.31,0.64c-0.25,1.19-0.42,2.4-0.52,3.61c-0.49,3.76-0.07,12.2-0.07,12.2
			h0.88l0.35-7.66c0.13-2.6,2.12,0.45,2.69,3.25c0.57,2.8,1.78,5.78,7.48,5.92C134.84,361.63,137.6,361.37,135.92,359.74z"/>
		<path style="fill:#1A2E35;" d="M178.42,358.99c-1.02-0.82-2.18-1.45-3.42-1.86l0,0c0,0-3.72-3.69-5.51-14.8l-4.87-1.27
			c-1.69-0.41-3.46,0.28-4.43,1.73c-0.14,0.2-0.24,0.41-0.31,0.64c-0.25,1.19-0.42,2.4-0.52,3.61c-0.49,3.76-0.07,12.2-0.07,12.2
			h0.88l0.35-7.66c0.13-2.6,2.12,0.45,2.69,3.25c0.57,2.8,1.78,5.78,7.48,5.92C177.34,360.88,180.1,360.62,178.42,358.99z"/>
		<g>
			<g>
				<path style="fill:#007CFF;" d="M168.1,330.9l-10.37,1.83c-10.46-26.07-17.91-47.83-23.16-65.89c-2.83-9.74-5.19-18.41-6.89-26.1
					l0.32,28.38v63.93h-10.22c-25.61-122-7.46-149.8-7.46-149.8l30.64-5.1c1.16,4.57,2.05,12.06,2.57,17.22l1.38,10.17l11.98,61.87
					L168.1,330.9z"/>
			</g>
			<g>
				<path style="fill:#0F5BA7;" d="M168.1,330.9l-10.37,1.83c-10.46-26.07-17.91-47.83-23.16-65.89c-2.83-9.74-5.19-18.41-6.89-26.1
					l0.32,28.38v63.93h-10.22c-25.61-122-7.46-149.8-7.46-149.8l30.64-5.1c1.16,4.57,2.05,12.06,2.57,17.22l1.38,10.17l11.98,61.87
					L168.1,330.9z"/>
			</g>
		</g>
		<path style="fill:#FCC1BB;" d="M177.25,148.02l10.34-10.22c0,0,0.36-2.74,1.36-3.5c1-0.76,8.1-3.34,8.97-2.77
			c0.87,0.57,2.08,6.31,0.86,7.36c-1.21,1.05-7.67,2.39-8.33,2.28l-11.19,13.28L177.25,148.02z"/>
		<g>
			<path style="fill:#1A2E35;" d="M140.2,129.39c4.46,2.37,20.3,24.5,22.63,25.6c2.33,1.1,20.16-13.36,20.16-13.36l3.01,5.13
				c0,0-14.63,20.67-22.9,19.67c-8.27-1-24.1-18.5-24.1-18.5L140.2,129.39z"/>
			<path style="opacity:0.1;fill:#FFFFFF;enable-background:new    ;" d="M140.2,129.39c4.46,2.37,20.3,24.5,22.63,25.6
				c2.33,1.1,20.16-13.36,20.16-13.36l3.01,5.13c0,0-14.63,20.67-22.9,19.67c-8.27-1-24.1-18.5-24.1-18.5L140.2,129.39z"/>
		</g>
		<polygon style="fill:#007CFF;" points="182.01,142.18 183.25,141.01 186.5,146.51 185.33,148.76 		"/>
		<path style="opacity:0.2;enable-background:new    ;" d="M145.36,154.39c-3.7-3.53-6.36-6.46-6.36-6.46l0.28-4.4l1.39-4.27
			C140.67,139.26,146.91,145.01,145.36,154.39z"/>
		<path style="opacity:0.2;enable-background:new    ;" d="M134.57,266.84c-2.83-9.74-5.04-18.41-6.73-26.1
			c0,0,0.17-14.94,1.98-27.22C129.82,213.52,134.31,248.63,134.57,266.84z"/>
		<g>
			<path style="fill:#1A2E35;" d="M141.7,176.25c1.25-22.02,0.69-34.12,0.12-40.17c-0.63-6.45-1.62-6.69-1.62-6.69
				s-6.99-0.68-13.07-0.63c-4.71,0.16-9.4,0.65-14.03,1.48c-4.39,0.73-8.72,1.78-12.97,3.13c0.71,2.03,1.35,3.95,1.95,5.76
				c0.8,2.39,1.51,4.6,2.15,6.67c1.2,3.86,2.14,7.21,2.89,10.2c2.34,9.26,2.83,15.19,3.32,22.95c0,0-7.69,20.1-9.19,34.85l25.5,2.75
				l3.5-14.75l3.5,15.25l14.25-5L141.7,176.25z"/>
			<path style="opacity:0.1;fill:#FFFFFF;enable-background:new    ;" d="M141.7,176.25c1.25-22.02,0.69-34.12,0.12-40.17
				c-0.63-6.45-1.62-6.69-1.62-6.69s-6.99-0.68-13.07-0.63c-4.71,0.16-9.4,0.65-14.03,1.48c-4.39,0.73-8.72,1.78-12.97,3.13
				c0.71,2.03,1.35,3.95,1.95,5.76c0.8,2.39,1.51,4.6,2.15,6.67c1.2,3.86,2.14,7.21,2.89,10.2c2.34,9.26,2.83,15.19,3.32,22.95
				c0,0-7.69,20.1-9.19,34.85l25.5,2.75l3.5-14.75l3.5,15.25l14.25-5L141.7,176.25z"/>
		</g>
		<path style="opacity:0.2;enable-background:new    ;" d="M108.35,161.38c-0.34-1.68-0.74-3.47-1.23-5.39
			c-0.31-1.22-0.65-2.5-1.03-3.86c0.97-3.41,1.97-0.74,1.97-0.74S109.06,155.51,108.35,161.38z"/>
		<polygon style="fill:#DE2C38;" points="116.83,136.38 129.5,159.05 132.5,134.71 126.75,141.92 		"/>
		<g>
			<path style="fill:#007CFF;" d="M116.5,128.3c-5.66,1.33-7.38,5.88-6.75,10l4.12-1.38c0,0,7.62,2.62,13.25,7.25
				c0,0,3.12-5.75,6.12-7.62l4.25,0.5C137.5,137.05,130.88,124.92,116.5,128.3z"/>
			<path style="fill:#DE2C38;" d="M116.5,128.3c-5.66,1.33-7.38,5.88-6.75,10l4.12-1.38c0,0,7.62,2.62,13.25,7.25
				c0,0,3.12-5.75,6.12-7.62l4.25,0.5C137.5,137.05,130.88,124.92,116.5,128.3z"/>
		</g>
		<path style="fill:#FCC1BB;" d="M126.78,130.1c-0.28-0.15-0.6-0.28-0.95-0.41c-0.72-0.57-1.6-1.94-1.55-5.28
			c0.01-1.09,0.12-2.37,0.36-3.9l-9.27-1.73c0,0,3.16,6.24,0.52,10.87c-0.91,0.4-1.45,0.97-1.35,1.73
			c0.69,5.36,12.21,10.54,12.21,10.54S132.38,133.17,126.78,130.1z"/>
		<path style="opacity:0.2;enable-background:new    ;" d="M124.64,120.51c-0.24,1.53-0.35,2.82-0.36,3.9
			c-6.26,0-8.91-5.63-8.91-5.63L124.64,120.51z"/>
		<g>
			<path style="fill:#1A2E35;" d="M120.5,89.92c0,0,10.88-1.38,12.88,7.38s-4.75,13.62-4.75,13.62L120.5,89.92z"/>
			<path style="fill:#FCC1BB;" d="M119.51,94.59c8.06-0.44,10.89,3.73,11.94,12.01c1.31,10.34-0.59,17.84-10.79,16.18
				C106.81,120.51,106.13,95.32,119.51,94.59z"/>
			<path style="fill:#EB827E;" d="M126.21,106.43c0,0,1.23,2.04,2.53,3.21c0,0-0.63,1.13-2.07,1.03L126.21,106.43z"/>
			<g>
				<path style="fill:#1A2E35;" d="M121.24,106.04c0.05,0.66-0.26,1.23-0.7,1.26c-0.44,0.03-0.84-0.47-0.89-1.13
					c-0.05-0.66,0.26-1.23,0.7-1.26C120.79,104.87,121.19,105.38,121.24,106.04z"/>
				<path style="fill:#1A2E35;" d="M120.17,104.95l1.39-0.68C121.57,104.27,120.94,105.54,120.17,104.95z"/>
			</g>
			<g>
				<path style="fill:#1A2E35;" d="M129.45,105.26c0.05,0.66-0.26,1.23-0.7,1.26c-0.44,0.03-0.84-0.47-0.89-1.13
					c-0.05-0.66,0.26-1.23,0.7-1.26C129,104.09,129.4,104.6,129.45,105.26z"/>
				<path style="fill:#1A2E35;" d="M128.38,104.17l1.39-0.68C129.77,103.49,129.15,104.76,128.38,104.17z"/>
			</g>
			
				<path style="fill:none;stroke:#1A2E35;stroke-width:0.6862;stroke-linecap:round;stroke-linejoin:round;stroke-miterlimit:10;" d="
				M120.86,100.48c0,0-2.28-0.17-3.43,1.41"/>
			
				<path style="fill:none;stroke:#1A2E35;stroke-width:0.6862;stroke-linecap:round;stroke-linejoin:round;stroke-miterlimit:10;" d="
				M126.7,99.82c0,0,1.39-0.61,3.25,0.49"/>
			<path style="fill:#1A2E35;" d="M111.45,108.66c0,0,3.41-6.83,2.55-11.91c0,0,15.61-7.4,17.29,8.77c0,0,0.77-14.48-13.1-14.04
				c-13.85,0.44-12.7,20.71-5.22,26.35C112.98,117.82,109.34,112.93,111.45,108.66z"/>
			<path style="fill:#1A2E35;" d="M121.88,89.3c0,0,6.62-1.62,8.5,0.12s-11.5,14.12-18.5,15.38c0,0-2.38,7.75-0.5,11.38
				c0,0-7.88-2.75-8.25-14.75S115.38,84.92,121.88,89.3z"/>
			<path style="fill:#FCC1BB;" d="M112.86,110.28c-0.12-1.29-1.58-3.42-3.98-3.02c-2.48,0.41-3.39,5.6,2.89,6.49
				C112.66,113.89,113.12,112.99,112.86,110.28z"/>
			<path style="fill:#1A2E35;" d="M109.38,94.05c0,0-2.75-7-10.12-6.5s-8.5,12-4.62,20.5s1.25,11.25,1.25,11.25s4.12-0.5,4.12-8.12
				c0,0,0.38,2.5,0.25,4.88c0,0,2.75-3.88,0.12-11.25s5.75-4,5.75-4L109.38,94.05z"/>
			
				<path style="fill:none;stroke:#1A2E35;stroke-width:0.6862;stroke-linecap:round;stroke-linejoin:round;stroke-miterlimit:10;" d="
				M129.75,90.05c0,0-3.5,11.25-12.88,14.62"/>
			
				<path style="fill:none;stroke:#1A2E35;stroke-width:0.6862;stroke-linecap:round;stroke-linejoin:round;stroke-miterlimit:10;" d="
				M120.38,113.55c0,0,1.88,2,4.62,1.88"/>
			<path style="fill:none;stroke:#1A2E35;stroke-width:0.5;stroke-linecap:round;stroke-linejoin:round;stroke-miterlimit:10;" d="
				M125.38,107.17c0,1.07-0.8,1.94-1.78,1.94c-0.98,0-1.78-0.87-1.78-1.94s0.8-1.94,1.78-1.94
				C124.58,105.23,125.38,106.1,125.38,107.17z"/>
			<path style="fill:none;stroke:#1A2E35;stroke-width:0.5;stroke-linecap:round;stroke-linejoin:round;stroke-miterlimit:10;" d="
				M131.69,106.86c0,1.07-0.8,1.94-1.78,1.94c-0.98,0-1.78-0.87-1.78-1.94s0.8-1.94,1.78-1.94
				C130.89,104.92,131.69,105.79,131.69,106.86z"/>
			<path style="fill:none;stroke:#1A2E35;stroke-width:0.5;stroke-linecap:round;stroke-linejoin:round;stroke-miterlimit:10;" d="
				M125.38,107.17c0,0,0.94-2,2.75-0.31"/>
			<path style="fill:none;stroke:#1A2E35;stroke-width:0.5;stroke-linecap:round;stroke-linejoin:round;stroke-miterlimit:10;" d="
				M121.81,107.17c0,0-10-0.31-11.19-0.25"/>
		</g>
		<g>
			<path style="fill:#007CFF;" d="M111.73,153.87l-0.46,25.53c-0.01,0.61,0.51,1.1,1.12,1.05l16.82-1.34c0.53-0.04,0.93-0.47,0.95-1
				l0.81-25.31c0.02-0.61-0.49-1.1-1.1-1.07l-17.16,1.11C112.16,152.9,111.74,153.34,111.73,153.87z"/>
			<path style="opacity:0.6;fill:#FFFFFF;" d="M111.73,153.87l-0.46,25.53c-0.01,0.61,0.51,1.1,1.12,1.05l16.82-1.34
				c0.53-0.04,0.93-0.47,0.95-1l0.81-25.31c0.02-0.61-0.49-1.1-1.1-1.07l-17.16,1.11C112.16,152.9,111.74,153.34,111.73,153.87z"/>
			<g>
				<path style="fill:#007CFF;" d="M112.23,154.46l-0.46,25.53c-0.01,0.61,0.51,1.1,1.12,1.05l16.82-1.34
					c0.53-0.04,0.93-0.47,0.95-1l0.81-25.31c0.02-0.61-0.49-1.1-1.1-1.07l-17.16,1.11C112.66,153.48,112.24,153.92,112.23,154.46z"
					/>
				<path style="opacity:0.7;fill:#FFFFFF;" d="M112.23,154.46l-0.46,25.53c-0.01,0.61,0.51,1.1,1.12,1.05l16.82-1.34
					c0.53-0.04,0.93-0.47,0.95-1l0.81-25.31c0.02-0.61-0.49-1.1-1.1-1.07l-17.16,1.11C112.66,153.48,112.24,153.92,112.23,154.46z"
					/>
			</g>
			<path style="opacity:0.2;enable-background:new    ;" d="M123.83,166.63c0,1.38-1.12,2.5-2.5,2.5c-1.38,0-2.5-1.12-2.5-2.5
				c0-1.38,1.12-2.5,2.5-2.5c0.03,0,0.06,0,0.1,0.01c0.19,1.16,1.17,2.05,2.37,2.09C123.82,166.36,123.83,166.5,123.83,166.63z"/>
		</g>
		<path style="fill:#FCC1BB;" d="M97.13,174.64l12.3-7.75c0,0,0.94-2.6,2.08-3.13c1.14-0.53,8.63-1.52,9.35-0.77
			c0.72,0.75,0.67,6.61-0.74,7.37c-1.41,0.76-8,0.69-8.62,0.43l-13.79,10.56L97.13,174.64z"/>
		<g>
			<path style="fill:#1A2E35;" d="M100.13,133.37c0,0,8.04,11.68,6.87,21.68l-10.67,17.67l7.17-3.67l3.25,6.12
				c0,0-8.25,12.71-18.75,9.71S100.13,133.37,100.13,133.37z"/>
			<path style="opacity:0.1;fill:#FFFFFF;enable-background:new    ;" d="M100.13,133.37c0,0,8.04,11.68,6.87,21.68l-10.67,17.67
				l7.17-3.67l3.25,6.12c0,0-8.25,12.71-18.75,9.71S100.13,133.37,100.13,133.37z"/>
		</g>
		<polygon style="fill:#007CFF;" points="102.75,168.71 106.83,176.3 107.75,174.13 104.5,167.96 		"/>
	</g>
	<g>
		<path style="fill:#007CFF;" d="M196.02,137.69c-2.55,0-4.62-2.07-4.62-4.62c0-2.55,2.07-4.62,4.62-4.62
			c2.55,0,4.62,2.07,4.62,4.62C200.63,135.62,198.56,137.69,196.02,137.69z"/>
		<g>
			<g>
				<path style="fill:#007CFF;" d="M198.11,158.05h-0.09c-4.32,0-8.58-1.32-12.31-3.47l2.51-4.41c2.97,1.72,6.36,2.76,9.8,2.76
					L198.11,158.05z M210.41,154.35l-2.52-4.32c2.97-1.74,5.45-4.23,7.16-7.21l4.33,2.49C217.24,149.05,214.13,152.17,210.41,154.35
					z M176.7,145.4c-2.16-3.73-3.31-7.98-3.31-12.3l5-0.01c0,3.44,0.92,6.83,2.64,9.8L176.7,145.4z M217.65,133.01
					c-0.01-3.44-0.93-6.83-2.66-9.79l4.32-2.52c2.17,3.72,3.33,7.97,3.34,12.3L217.65,133.01z M181,123.29l-4.33-2.5
					c2.16-3.73,5.27-6.85,8.99-9.02l2.51,4.32C185.21,117.82,182.73,120.31,181,123.29z M207.78,116.05
					c-2.96-1.71-6.34-2.8-9.77-2.8l-0.05-5.2h0.05c4.3,0,8.55,1.33,12.26,3.47L207.78,116.05z"/>
			</g>
			<g style="opacity:0.6;enable-background:new    ;">
				<path style="fill:#FFFFFF;" d="M198.11,158.05h-0.09c-4.32,0-8.58-1.32-12.31-3.47l2.51-4.41c2.97,1.72,6.36,2.76,9.8,2.76
					L198.11,158.05z M210.41,154.35l-2.52-4.32c2.97-1.74,5.45-4.23,7.16-7.21l4.33,2.49C217.24,149.05,214.13,152.17,210.41,154.35
					z M176.7,145.4c-2.16-3.73-3.31-7.98-3.31-12.3l5-0.01c0,3.44,0.92,6.83,2.64,9.8L176.7,145.4z M217.65,133.01
					c-0.01-3.44-0.93-6.83-2.66-9.79l4.32-2.52c2.17,3.72,3.33,7.97,3.34,12.3L217.65,133.01z M181,123.29l-4.33-2.5
					c2.16-3.73,5.27-6.85,8.99-9.02l2.51,4.32C185.21,117.82,182.73,120.31,181,123.29z M207.78,116.05
					c-2.96-1.71-6.34-2.8-9.77-2.8l-0.05-5.2h0.05c4.3,0,8.55,1.33,12.26,3.47L207.78,116.05z"/>
			</g>
		</g>
	</g>
	<g>
		<g>
			<path style="fill:#007CFF;" d="M203.02,139.23c-3.39,0-6.16-2.76-6.16-6.16c0-3.39,2.76-6.16,6.16-6.16
				c3.39,0,6.16,2.76,6.16,6.16C209.17,136.46,206.41,139.23,203.02,139.23z"/>
			<path style="opacity:0.5;fill:#FFFFFF;" d="M203.02,139.23c-3.39,0-6.16-2.76-6.16-6.16c0-3.39,2.76-6.16,6.16-6.16
				c3.39,0,6.16,2.76,6.16,6.16C209.17,136.46,206.41,139.23,203.02,139.23z"/>
		</g>
		<g>
			<g>
				
					<ellipse transform="matrix(0.2298 -0.9732 0.9732 0.2298 28.403 302.0303)" style="fill:none;stroke:#007CFF;stroke-width:3;stroke-miterlimit:10;" cx="205.02" cy="133.07" rx="10.13" ry="10.13"/>
			</g>
			<g>
				<rect x="214" y="132.05" style="fill:#007CFF;" width="168" height="2"/>
			</g>
			<g>
				<path style="fill:#007CFF;" d="M206,124.05h-2v-12c0-0.27,0.11-0.52,0.29-0.71l61.17-61c0.19-0.19,0.44-0.29,0.71-0.29H322v2
					h-55.42L206,112.46V124.05z"/>
			</g>
			<g>
				<path style="fill:#007CFF;" d="M351,225.05h-75c-0.27,0-0.52-0.11-0.71-0.29l-71-71c-0.19-0.19-0.29-0.44-0.29-0.71v-10h2v9.59
					l70.41,70.41H351V225.05z"/>
			</g>
			<g>
				<path style="fill:#007CFF;" d="M301,161.05h-40.17c-0.26,0-0.52-0.1-0.71-0.29l-27-26.83l1.41-1.42l26.71,26.54H301V161.05z"/>
			</g>
			<g>
				<path style="fill:#007CFF;" d="M273.21,133.83l-1.42-1.41l26.91-27.08c0.19-0.19,0.44-0.29,0.71-0.29H340v2h-40.17
					L273.21,133.83z"/>
			</g>
			<g>
				<path style="fill:#007CFF;" d="M426,83.05H267.23c-0.27,0-0.52-0.11-0.71-0.3l-15.94-16.1l1.42-1.41l15.64,15.81H426V83.05z"/>
			</g>
			<g>
				<path style="fill:#007CFF;" d="M284.37,51.75l-1.41-1.41l26-26c0.19-0.19,0.44-0.29,0.71-0.29H393v2h-82.92L284.37,51.75z"/>
			</g>
			<g>
				<path style="fill:#007CFF;" d="M300.63,274.09l-40.33-40.33c-0.19-0.19-0.29-0.44-0.29-0.71v-24h2v23.59l40.04,40.04
					L300.63,274.09z"/>
			</g>
			<g>
				<path style="fill:#007CFF;" d="M291.54,224.44l-1.42-1.41l26.52-26.69c0.19-0.19,0.44-0.29,0.71-0.29H418v2H317.77
					L291.54,224.44z"/>
			</g>
			<g>
				<path style="fill:#007CFF;" d="M385,253.05h-44.83c-0.27,0-0.52-0.11-0.71-0.29l-28.17-28.17l1.41-1.41l27.87,27.87H385V253.05z
					"/>
			</g>
			<g>
				<circle style="fill:#007CFF;" cx="393" cy="25.05" r="4.58"/>
			</g>
			<g>
				<path style="fill:#007CFF;" d="M331,61.63c-5.84,0-10.58-4.75-10.58-10.58s4.75-10.58,10.58-10.58s10.58,4.75,10.58,10.58
					S336.84,61.63,331,61.63z M331,42.46c-4.73,0-8.58,3.85-8.58,8.58s3.85,8.58,8.58,8.58s8.58-3.85,8.58-8.58
					S335.73,42.46,331,42.46z"/>
			</g>
			<g>
				<circle style="fill:#007CFF;" cx="331" cy="51.05" r="4.58"/>
			</g>
			<g>
				<path style="fill:#007CFF;" d="M430.58,82.21c0,2.53-2.05,4.58-4.58,4.58s-4.58-2.05-4.58-4.58c0-2.53,2.05-4.58,4.58-4.58
					S430.58,79.68,430.58,82.21z"/>
			</g>
			<g>
				<circle style="fill:#007CFF;" cx="340" cy="106.05" r="4.58"/>
			</g>
			<g>
				<path style="fill:#007CFF;" d="M391,143.63c-5.84,0-10.58-4.75-10.58-10.58c0-5.84,4.75-10.58,10.58-10.58
					s10.58,4.75,10.58,10.58C401.58,138.88,396.84,143.63,391,143.63z M391,124.46c-4.73,0-8.58,3.85-8.58,8.58
					c0,4.73,3.85,8.58,8.58,8.58s8.58-3.85,8.58-8.58C399.58,128.31,395.73,124.46,391,124.46z"/>
			</g>
			<g>
				<circle style="fill:#007CFF;" cx="391" cy="133.05" r="4.58"/>
			</g>
			<g>
				<circle style="fill:#007CFF;" cx="301" cy="160.05" r="4.58"/>
			</g>
			<g>
				<circle style="fill:#007CFF;" cx="418" cy="197.05" r="4.58"/>
			</g>
			<g>
				<path style="fill:#007CFF;" d="M360,234.46c-5.84,0-10.58-4.75-10.58-10.58c0-5.84,4.75-10.58,10.58-10.58
					s10.58,4.75,10.58,10.58C370.58,229.72,365.84,234.46,360,234.46z M360,215.3c-4.73,0-8.58,3.85-8.58,8.58
					c0,4.73,3.85,8.58,8.58,8.58s8.58-3.85,8.58-8.58C368.58,219.15,364.73,215.3,360,215.3z"/>
			</g>
			<g>
				<path style="fill:#007CFF;" d="M364.58,223.88c0,2.53-2.05,4.58-4.58,4.58s-4.58-2.05-4.58-4.58c0-2.53,2.05-4.58,4.58-4.58
					S364.58,221.35,364.58,223.88z"/>
			</g>
			<g>
				<circle style="fill:#007CFF;" cx="385" cy="252.05" r="4.58"/>
			</g>
			<g>
				<path style="fill:#007CFF;" d="M305.92,273.38c0,2.53-2.05,4.58-4.58,4.58c-2.53,0-4.58-2.05-4.58-4.58
					c0-2.53,2.05-4.58,4.58-4.58C303.86,268.8,305.92,270.85,305.92,273.38z"/>
			</g>
		</g>
		<g>
			<g>
				<path style="fill:#007CFF;" d="M421.77,38.55h-16.7c-0.83,0-1.51-0.68-1.51-1.51V14.31c0-0.83,0.68-1.51,1.51-1.51h16.7
					c0.83,0,1.51,0.68,1.51,1.51v22.73C423.28,37.88,422.6,38.55,421.77,38.55z"/>
				<path style="opacity:0.6;fill:#FFFFFF;enable-background:new    ;" d="M421.77,38.55h-16.7c-0.83,0-1.51-0.68-1.51-1.51V14.31
					c0-0.83,0.68-1.51,1.51-1.51h16.7c0.83,0,1.51,0.68,1.51,1.51v22.73C423.28,37.88,422.6,38.55,421.77,38.55z"/>
			</g>
			<g>
				<rect x="406.5" y="16.45" style="fill:#0F5BA7;" width="13.83" height="1.39"/>
				<rect x="406.5" y="18.89" style="fill:#0F5BA7;" width="13.83" height="1.39"/>
				<rect x="406.5" y="21.33" style="fill:#0F5BA7;" width="13.83" height="1.39"/>
				<rect x="406.5" y="23.76" style="fill:#0F5BA7;" width="13.83" height="1.39"/>
				<rect x="406.5" y="26.2" style="fill:#0F5BA7;" width="13.83" height="1.39"/>
				<rect x="406.5" y="28.63" style="fill:#0F5BA7;" width="13.83" height="1.39"/>
				<rect x="406.5" y="31.07" style="fill:#0F5BA7;" width="13.83" height="1.39"/>
				<rect x="406.5" y="33.5" style="fill:#0F5BA7;" width="8.96" height="1.39"/>
			</g>
		</g>
		<g>
			<g>
				<path style="fill:#007CFF;" d="M328.85,175.09h-16.7c-0.83,0-1.51-0.68-1.51-1.51v-22.73c0-0.83,0.68-1.51,1.51-1.51h16.7
					c0.83,0,1.51,0.68,1.51,1.51v22.73C330.36,174.41,329.68,175.09,328.85,175.09z"/>
				<path style="opacity:0.6;fill:#FFFFFF;enable-background:new    ;" d="M328.85,175.09h-16.7c-0.83,0-1.51-0.68-1.51-1.51v-22.73
					c0-0.83,0.68-1.51,1.51-1.51h16.7c0.83,0,1.51,0.68,1.51,1.51v22.73C330.36,174.41,329.68,175.09,328.85,175.09z"/>
			</g>
			<g>
				<rect x="313.58" y="152.99" style="fill:#0F5BA7;" width="13.83" height="1.39"/>
				<rect x="313.58" y="155.42" style="fill:#0F5BA7;" width="13.83" height="1.39"/>
				<rect x="313.58" y="157.86" style="fill:#0F5BA7;" width="13.83" height="1.39"/>
				<rect x="313.58" y="160.3" style="fill:#0F5BA7;" width="13.83" height="1.39"/>
				<rect x="313.58" y="162.73" style="fill:#0F5BA7;" width="13.83" height="1.39"/>
				<rect x="313.58" y="165.17" style="fill:#0F5BA7;" width="13.83" height="1.39"/>
				<rect x="313.58" y="167.6" style="fill:#0F5BA7;" width="13.83" height="1.39"/>
				<rect x="313.58" y="170.04" style="fill:#0F5BA7;" width="8.96" height="1.39"/>
			</g>
		</g>
		<g>
			<g>
				<path style="fill:#007CFF;" d="M444.21,202.8h-16.7c-0.83,0-1.51-0.68-1.51-1.51v-22.73c0-0.83,0.68-1.51,1.51-1.51h16.7
					c0.83,0,1.51,0.68,1.51,1.51v22.73C445.72,202.13,445.04,202.8,444.21,202.8z"/>
				<path style="opacity:0.6;fill:#FFFFFF;enable-background:new    ;" d="M444.21,202.8h-16.7c-0.83,0-1.51-0.68-1.51-1.51v-22.73
					c0-0.83,0.68-1.51,1.51-1.51h16.7c0.83,0,1.51,0.68,1.51,1.51v22.73C445.72,202.13,445.04,202.8,444.21,202.8z"/>
			</g>
			<g>
				<rect x="428.94" y="180.71" style="fill:#0F5BA7;" width="13.83" height="1.39"/>
				<rect x="428.94" y="183.14" style="fill:#0F5BA7;" width="13.83" height="1.39"/>
				<rect x="428.94" y="185.58" style="fill:#0F5BA7;" width="13.83" height="1.39"/>
				<rect x="428.94" y="188.01" style="fill:#0F5BA7;" width="13.83" height="1.39"/>
				<rect x="428.94" y="190.45" style="fill:#0F5BA7;" width="13.83" height="1.39"/>
				<rect x="428.94" y="192.88" style="fill:#0F5BA7;" width="13.83" height="1.39"/>
				<rect x="428.94" y="195.32" style="fill:#0F5BA7;" width="13.83" height="1.39"/>
				<rect x="428.94" y="197.76" style="fill:#0F5BA7;" width="8.96" height="1.39"/>
			</g>
		</g>
		<g>
			<g>
				<path style="fill:#007CFF;" d="M452.03,87.92h-16.7c-0.83,0-1.51-0.68-1.51-1.51V63.68c0-0.83,0.68-1.51,1.51-1.51h16.7
					c0.83,0,1.51,0.68,1.51,1.51v22.73C453.54,87.25,452.86,87.92,452.03,87.92z"/>
				<path style="opacity:0.6;fill:#FFFFFF;enable-background:new    ;" d="M452.03,87.92h-16.7c-0.83,0-1.51-0.68-1.51-1.51V63.68
					c0-0.83,0.68-1.51,1.51-1.51h16.7c0.83,0,1.51,0.68,1.51,1.51v22.73C453.54,87.25,452.86,87.92,452.03,87.92z"/>
			</g>
			<g>
				<rect x="436.76" y="65.83" style="fill:#0F5BA7;" width="13.83" height="1.39"/>
				<rect x="436.76" y="68.26" style="fill:#0F5BA7;" width="13.83" height="1.39"/>
				<rect x="436.76" y="70.7" style="fill:#0F5BA7;" width="13.83" height="1.39"/>
				<rect x="436.76" y="73.13" style="fill:#0F5BA7;" width="13.83" height="1.39"/>
				<rect x="436.76" y="75.57" style="fill:#0F5BA7;" width="13.83" height="1.39"/>
				<rect x="436.76" y="78.01" style="fill:#0F5BA7;" width="13.83" height="1.39"/>
				<rect x="436.76" y="80.44" style="fill:#0F5BA7;" width="13.83" height="1.39"/>
				<rect x="436.76" y="82.88" style="fill:#0F5BA7;" width="8.96" height="1.39"/>
			</g>
		</g>
		<g>
			<g>
				<path style="fill:#007CFF;" d="M329.22,294.01h-16.7c-0.83,0-1.51-0.68-1.51-1.51v-22.73c0-0.83,0.68-1.51,1.51-1.51h16.7
					c0.83,0,1.51,0.68,1.51,1.51v22.73C330.73,293.34,330.06,294.01,329.22,294.01z"/>
				<path style="opacity:0.6;fill:#FFFFFF;enable-background:new    ;" d="M329.22,294.01h-16.7c-0.83,0-1.51-0.68-1.51-1.51v-22.73
					c0-0.83,0.68-1.51,1.51-1.51h16.7c0.83,0,1.51,0.68,1.51,1.51v22.73C330.73,293.34,330.06,294.01,329.22,294.01z"/>
			</g>
			<g>
				<rect x="313.95" y="271.91" style="fill:#007CFF;" width="13.83" height="1.39"/>
				<rect x="313.95" y="274.35" style="fill:#007CFF;" width="13.83" height="1.39"/>
				<rect x="313.95" y="276.79" style="fill:#007CFF;" width="13.83" height="1.39"/>
				<rect x="313.95" y="279.22" style="fill:#007CFF;" width="13.83" height="1.39"/>
				<rect x="313.95" y="281.66" style="fill:#007CFF;" width="13.83" height="1.39"/>
				<rect x="313.95" y="284.09" style="fill:#007CFF;" width="13.83" height="1.39"/>
				<rect x="313.95" y="286.53" style="fill:#007CFF;" width="13.83" height="1.39"/>
				<rect x="313.95" y="288.96" style="fill:#007CFF;" width="8.96" height="1.39"/>
			</g>
		</g>
		<g>
			<path style="fill:#0F5BA7;" d="M450.41,155.5h-42.92c-0.85,0-1.54-0.69-1.54-1.54v-42.92c0-0.85,0.69-1.54,1.54-1.54h42.92
				c0.85,0,1.54,0.69,1.54,1.54v42.92C451.94,154.81,451.25,155.5,450.41,155.5z"/>
			<circle style="opacity:0.5;fill:#FFFFFF;" cx="428.94" cy="132.5" r="15.5"/>
			<path style="opacity:0.7;fill:#FFFFFF;" d="M428.94,132.5h15.5c0,8.5-7,15.5-15.5,15.5c-8.5,0-15.5-7-15.5-15.5s7-15.5,15.5-15.5
				c2.72,0,5.39,0.72,7.75,2.07L428.94,132.5z"/>
			<circle style="fill:#007CFF;" cx="428.94" cy="132.5" r="12"/>
			<circle style="opacity:0.3;fill:#FFFFFF;" cx="428.94" cy="132.5" r="12"/>
			<g>
				<path style="fill:#FFFFFF;" d="M423.27,135.05c-0.28-0.28-0.42-0.69-0.42-1.22v-0.59c0-0.33,0.05-0.61,0.16-0.83
					s0.28-0.4,0.52-0.53v-0.02c-0.22-0.12-0.38-0.29-0.49-0.5s-0.16-0.48-0.16-0.81v-0.28c0-0.53,0.14-0.94,0.41-1.22
					c0.27-0.28,0.67-0.42,1.18-0.42c0.51,0,0.91,0.14,1.18,0.42c0.28,0.28,0.41,0.69,0.41,1.22v0.28c0,0.63-0.21,1.07-0.64,1.31
					v0.02c0.24,0.13,0.41,0.3,0.52,0.53s0.16,0.5,0.16,0.83v0.59c0,0.53-0.14,0.94-0.42,1.22c-0.28,0.28-0.68,0.42-1.21,0.42
					S423.55,135.33,423.27,135.05z M425.07,133.77v-0.64c0-0.5-0.2-0.75-0.59-0.75s-0.59,0.25-0.59,0.75v0.64
					c0,0.5,0.2,0.75,0.59,0.75S425.07,134.27,425.07,133.77z M425.03,130.77v-0.52c0-0.44-0.18-0.66-0.55-0.66s-0.55,0.22-0.55,0.66
					v0.52c0,0.44,0.18,0.66,0.55,0.66S425.03,131.21,425.03,130.77z"/>
				<path style="fill:#FFFFFF;" d="M427.1,135.03c-0.27-0.29-0.41-0.7-0.41-1.23v-3.49c0-0.53,0.14-0.94,0.41-1.23
					c0.27-0.29,0.67-0.44,1.18-0.44c0.51,0,0.9,0.15,1.18,0.44c0.27,0.29,0.41,0.7,0.41,1.23v3.49c0,0.53-0.14,0.94-0.41,1.23
					c-0.27,0.29-0.66,0.44-1.18,0.44C427.76,135.47,427.37,135.32,427.1,135.03z M428.82,133.86v-3.62c0-0.44-0.18-0.65-0.54-0.65
					s-0.54,0.22-0.54,0.65v3.62c0,0.44,0.18,0.65,0.54,0.65S428.82,134.3,428.82,133.86z"/>
				<path style="fill:#FFFFFF;" d="M430.76,132.15c-0.17-0.18-0.26-0.45-0.26-0.79v-1.66c0-0.34,0.09-0.6,0.26-0.79
					c0.17-0.18,0.42-0.28,0.75-0.28s0.58,0.09,0.75,0.28c0.17,0.18,0.26,0.45,0.26,0.79v1.66c0,0.34-0.09,0.6-0.26,0.79
					c-0.17,0.18-0.42,0.28-0.75,0.28S430.93,132.33,430.76,132.15z M431.85,131.41v-1.76c0-0.28-0.11-0.42-0.34-0.42
					s-0.34,0.14-0.34,0.42v1.76c0,0.28,0.11,0.42,0.34,0.42S431.85,131.69,431.85,131.41z M433.92,128.73h0.66l-2.57,6.64h-0.66
					L433.92,128.73z M433.68,135.19c-0.17-0.18-0.26-0.45-0.26-0.79v-1.66c0-0.34,0.08-0.6,0.26-0.79c0.17-0.18,0.42-0.28,0.75-0.28
					c0.33,0,0.58,0.09,0.75,0.28c0.17,0.18,0.26,0.45,0.26,0.79v1.66c0,0.34-0.09,0.6-0.26,0.79c-0.17,0.18-0.42,0.27-0.75,0.27
					C434.1,135.47,433.85,135.38,433.68,135.19z M434.77,134.45v-1.76c0-0.28-0.11-0.42-0.34-0.42s-0.34,0.14-0.34,0.42v1.76
					c0,0.28,0.11,0.42,0.34,0.42S434.77,134.73,434.77,134.45z"/>
			</g>
		</g>
		<g>
			<path style="fill:#0F5BA7;" d="M407.68,241.55h-32.66c-0.65,0-1.17-0.52-1.17-1.17v-32.66c0-0.65,0.52-1.17,1.17-1.17h32.66
				c0.65,0,1.17,0.52,1.17,1.17v32.66C408.85,241.02,408.33,241.55,407.68,241.55z"/>
			<g>
				<g>
					<rect x="398" y="235.67" style="opacity:0.5;fill:#FFFFFF;" width="4.5" height="2.29"/>
					<rect x="398" y="212.83" style="fill:#FFFFFF;" width="4.5" height="2.29"/>
					<rect x="398" y="216.63" style="fill:#FFFFFF;" width="4.5" height="2.29"/>
					<rect x="398" y="220.44" style="opacity:0.75;fill:#FFFFFF;" width="4.5" height="2.29"/>
					<rect x="398" y="224.25" style="opacity:0.5;fill:#FFFFFF;" width="4.5" height="2.29"/>
					<rect x="398" y="228.06" style="opacity:0.5;fill:#FFFFFF;" width="4.5" height="2.29"/>
					<rect x="398" y="231.87" style="opacity:0.5;fill:#FFFFFF;" width="4.5" height="2.29"/>
				</g>
				<g>
					<rect x="391.88" y="235.67" style="opacity:0.5;fill:#FFFFFF;" width="4.5" height="2.29"/>
					<rect x="391.88" y="224.25" style="fill:#FFFFFF;" width="4.5" height="2.29"/>
					<rect x="391.88" y="228.06" style="opacity:0.75;fill:#FFFFFF;" width="4.5" height="2.29"/>
					<rect x="391.88" y="231.87" style="opacity:0.5;fill:#FFFFFF;" width="4.5" height="2.29"/>
				</g>
				<g>
					<rect x="385.75" y="235.67" style="opacity:0.5;fill:#FFFFFF;" width="4.5" height="2.29"/>
					<rect x="385.75" y="220.44" style="fill:#FFFFFF;" width="4.5" height="2.29"/>
					<rect x="385.75" y="224.25" style="opacity:0.75;fill:#FFFFFF;" width="4.5" height="2.29"/>
					<rect x="385.75" y="228.06" style="opacity:0.5;fill:#FFFFFF;" width="4.5" height="2.29"/>
					<rect x="385.75" y="231.87" style="opacity:0.5;fill:#FFFFFF;" width="4.5" height="2.29"/>
				</g>
				<g>
					<rect x="379.62" y="235.67" style="opacity:0.5;fill:#FFFFFF;" width="4.5" height="2.29"/>
					<rect x="379.62" y="228.06" style="fill:#FFFFFF;" width="4.5" height="2.29"/>
					<rect x="379.62" y="231.87" style="opacity:0.75;fill:#FFFFFF;" width="4.5" height="2.29"/>
				</g>
			</g>
		</g>
		<g>
			<path style="fill:#0F5BA7;" d="M380.91,73.13h-32.66c-0.65,0-1.17-0.52-1.17-1.17V39.3c0-0.65,0.52-1.17,1.17-1.17h32.66
				c0.65,0,1.17,0.52,1.17,1.17v32.66C382.08,72.61,381.56,73.13,380.91,73.13z"/>
			<g>
				<g>
					<path style="opacity:0.9;fill:#FFFFFF;" d="M367.11,51.83v-2.19l-1.13-0.11c-0.15-0.73-0.44-1.42-0.84-2.02l0.72-0.87
						l-1.55-1.55l-0.87,0.72c-0.61-0.4-1.29-0.69-2.02-0.84l-0.11-1.13h-2.19l-0.11,1.13c-0.73,0.15-1.42,0.44-2.02,0.84l-0.87-0.72
						l-1.55,1.55l0.72,0.87c-0.4,0.61-0.69,1.29-0.84,2.02l-1.13,0.11v2.19l1.13,0.11c0.15,0.73,0.44,1.42,0.84,2.02l-0.72,0.87
						l1.55,1.55l0.87-0.72c0.61,0.4,1.29,0.69,2.02,0.84l0.11,1.13h2.19l0.11-1.13c0.73-0.15,1.42-0.44,2.02-0.84l0.87,0.72
						l1.55-1.55l-0.72-0.87c0.4-0.61,0.69-1.29,0.84-2.02L367.11,51.83z M360.22,53.7c-1.64,0-2.96-1.33-2.96-2.96
						c0-1.64,1.33-2.96,2.96-2.96c1.64,0,2.96,1.33,2.96,2.96C363.18,52.37,361.85,53.7,360.22,53.7z"/>
					<path style="opacity:0.6;fill:#FFFFFF;" d="M375.98,58.01V56.3l-0.88-0.08c-0.12-0.58-0.35-1.11-0.66-1.59l0.57-0.69
						l-1.21-1.21l-0.69,0.57c-0.47-0.31-1.01-0.54-1.58-0.66l-0.08-0.88h-1.72l-0.08,0.88c-0.58,0.12-1.11,0.35-1.58,0.66
						l-0.69-0.57l-1.21,1.21l0.57,0.69c-0.31,0.48-0.54,1.01-0.66,1.59l-0.88,0.08v1.72l0.88,0.08c0.12,0.58,0.35,1.11,0.66,1.58
						l-0.57,0.69l1.21,1.21l0.69-0.57c0.48,0.31,1.01,0.54,1.58,0.66l0.08,0.88h1.72l0.08-0.88c0.58-0.12,1.11-0.35,1.59-0.66
						l0.69,0.57l1.21-1.21l-0.57-0.69c0.31-0.47,0.54-1.01,0.66-1.58L375.98,58.01z M370.58,59.48c-1.28,0-2.32-1.04-2.32-2.32
						c0-1.28,1.04-2.32,2.32-2.32s2.32,1.04,2.32,2.32C372.91,58.44,371.87,59.48,370.58,59.48z"/>
					<path style="opacity:0.4;fill:#FFFFFF;" d="M367.11,62.88v-1.44l-0.74-0.07c-0.1-0.48-0.29-0.93-0.55-1.33l0.48-0.58
						l-1.02-1.02l-0.58,0.48c-0.4-0.26-0.85-0.45-1.33-0.55l-0.07-0.74h-1.44l-0.07,0.74c-0.48,0.1-0.93,0.29-1.33,0.55l-0.58-0.48
						l-1.02,1.02l0.48,0.58c-0.26,0.4-0.45,0.85-0.55,1.33l-0.74,0.07l0,1.44l0.74,0.07c0.1,0.48,0.29,0.93,0.55,1.33l-0.48,0.58
						l1.02,1.02l0.58-0.48c0.4,0.26,0.85,0.45,1.33,0.55l0.07,0.74h1.44l0.07-0.74c0.48-0.1,0.93-0.29,1.33-0.55l0.58,0.48
						l1.02-1.02l-0.48-0.58c0.26-0.4,0.45-0.85,0.55-1.33L367.11,62.88z M362.57,64.11c-1.08,0-1.95-0.87-1.95-1.95
						c0-1.08,0.87-1.95,1.95-1.95c1.08,0,1.95,0.87,1.95,1.95C364.52,63.24,363.65,64.11,362.57,64.11z"/>
				</g>
			</g>
		</g>
		<g>
			<g>
				<rect x="347.94" y="95.8" style="fill:#007CFF;" width="30.75" height="20"/>
				<rect x="347.94" y="95.8" style="opacity:0.6;fill:#FFFFFF;enable-background:new    ;" width="30.75" height="20"/>
			</g>
			<rect x="349.06" y="99.55" style="fill:#0F5BA7;" width="28.5" height="15.25"/>
			<g>
				<rect x="351.38" y="101.83" style="fill:#FFFFFF;" width="21.08" height="0.66"/>
				<rect x="351.38" y="103.84" style="fill:#FFFFFF;" width="10.12" height="0.66"/>
				<rect x="351.38" y="105.84" style="fill:#FFFFFF;" width="12.74" height="0.66"/>
				<rect x="351.38" y="107.85" style="fill:#FFFFFF;" width="4.49" height="0.66"/>
				<rect x="351.38" y="109.86" style="fill:#FFFFFF;" width="2.91" height="0.66"/>
			</g>
		</g>
		<g>
			<g>
				<rect x="396.94" y="248.3" style="fill:#007CFF;" width="30.75" height="20"/>
				<rect x="396.94" y="248.3" style="opacity:0.6;fill:#FFFFFF;enable-background:new    ;" width="30.75" height="20"/>
			</g>
			<rect x="398.06" y="252.05" style="fill:#0F5BA7;" width="28.5" height="15.25"/>
			<g>
				<rect x="400.38" y="254.33" style="fill:#FFFFFF;" width="21.08" height="0.66"/>
				<rect x="400.38" y="256.34" style="fill:#FFFFFF;" width="10.12" height="0.66"/>
				<rect x="400.38" y="258.34" style="fill:#FFFFFF;" width="12.74" height="0.66"/>
				<rect x="400.38" y="260.35" style="fill:#FFFFFF;" width="4.49" height="0.66"/>
				<rect x="400.38" y="262.36" style="fill:#FFFFFF;" width="2.91" height="0.66"/>
			</g>
		</g>
		<g style="opacity:0.4;">
			<g>
				<rect x="212" y="132.05" style="fill:#FFFFFF;" width="170" height="2"/>
			</g>
			<g>
				<path style="fill:#FFFFFF;" d="M206,124.05h-2v-12c0-0.27,0.11-0.52,0.29-0.71l61.17-61c0.19-0.19,0.44-0.29,0.71-0.29H322v2
					h-55.42L206,112.46V124.05z"/>
			</g>
			<g>
				<path style="fill:#FFFFFF;" d="M351,225.05h-75c-0.27,0-0.52-0.11-0.71-0.29l-71-71c-0.19-0.19-0.29-0.44-0.29-0.71v-10h2v9.59
					l70.41,70.41H351V225.05z"/>
			</g>
			<g>
				<path style="fill:#FFFFFF;" d="M301,161.05h-40.17c-0.26,0-0.52-0.1-0.71-0.29l-27-26.83l1.41-1.42l26.71,26.54H301V161.05z"/>
			</g>
			<g>
				<path style="fill:#FFFFFF;" d="M273.21,133.83l-1.42-1.41l26.91-27.08c0.19-0.19,0.44-0.29,0.71-0.29H340v2h-40.17
					L273.21,133.83z"/>
			</g>
			<g>
				<path style="fill:#FFFFFF;" d="M426,83.05H267.23c-0.27,0-0.52-0.11-0.71-0.3l-15.94-16.1l1.42-1.41l15.64,15.81H426V83.05z"/>
			</g>
			<g>
				<path style="fill:#FFFFFF;" d="M284.37,51.75l-1.41-1.41l26-26c0.19-0.19,0.44-0.29,0.71-0.29H393v2h-82.92L284.37,51.75z"/>
			</g>
			<g>
				<path style="fill:#FFFFFF;" d="M300.63,274.09l-40.33-40.33c-0.19-0.19-0.29-0.44-0.29-0.71v-24h2v23.59l40.04,40.04
					L300.63,274.09z"/>
			</g>
			<g>
				<path style="fill:#FFFFFF;" d="M291.54,224.44l-1.42-1.41l26.52-26.69c0.19-0.19,0.44-0.29,0.71-0.29H418v2H317.77
					L291.54,224.44z"/>
			</g>
			<g>
				<path style="fill:#FFFFFF;" d="M385,253.05h-44.83c-0.27,0-0.52-0.11-0.71-0.29l-28.17-28.17l1.41-1.41l27.87,27.87H385V253.05z
					"/>
			</g>
			<g>
				<circle style="fill:#FFFFFF;" cx="393" cy="25.05" r="4.58"/>
			</g>
			<g>
				<path style="fill:#FFFFFF;" d="M331,61.63c-5.84,0-10.58-4.75-10.58-10.58s4.75-10.58,10.58-10.58s10.58,4.75,10.58,10.58
					S336.84,61.63,331,61.63z M331,42.46c-4.73,0-8.58,3.85-8.58,8.58s3.85,8.58,8.58,8.58s8.58-3.85,8.58-8.58
					S335.73,42.46,331,42.46z"/>
			</g>
			<g>
				<path style="fill:#FFFFFF;" d="M430.58,82.21c0,2.53-2.05,4.58-4.58,4.58s-4.58-2.05-4.58-4.58c0-2.53,2.05-4.58,4.58-4.58
					S430.58,79.68,430.58,82.21z"/>
			</g>
			<g>
				<circle style="fill:#FFFFFF;" cx="340" cy="106.05" r="4.58"/>
			</g>
			<g>
				<path style="fill:#FFFFFF;" d="M391,143.63c-5.84,0-10.58-4.75-10.58-10.58c0-5.84,4.75-10.58,10.58-10.58
					s10.58,4.75,10.58,10.58C401.58,138.88,396.84,143.63,391,143.63z M391,124.46c-4.73,0-8.58,3.85-8.58,8.58
					c0,4.73,3.85,8.58,8.58,8.58s8.58-3.85,8.58-8.58C399.58,128.31,395.73,124.46,391,124.46z"/>
			</g>
			<g>
				<circle style="fill:#FFFFFF;" cx="301" cy="160.05" r="4.58"/>
			</g>
			<g>
				<circle style="fill:#FFFFFF;" cx="418" cy="197.05" r="4.58"/>
			</g>
			<g>
				<path style="fill:#FFFFFF;" d="M360,234.46c-5.84,0-10.58-4.75-10.58-10.58c0-5.84,4.75-10.58,10.58-10.58
					s10.58,4.75,10.58,10.58C370.58,229.72,365.84,234.46,360,234.46z M360,215.3c-4.73,0-8.58,3.85-8.58,8.58
					c0,4.73,3.85,8.58,8.58,8.58s8.58-3.85,8.58-8.58C368.58,219.15,364.73,215.3,360,215.3z"/>
			</g>
			<g>
				<circle style="fill:#FFFFFF;" cx="385" cy="252.05" r="4.58"/>
			</g>
			<g>
				<path style="fill:#FFFFFF;" d="M305.92,273.38c0,2.53-2.05,4.58-4.58,4.58c-2.53,0-4.58-2.05-4.58-4.58
					c0-2.53,2.05-4.58,4.58-4.58C303.86,268.8,305.92,270.85,305.92,273.38z"/>
			</g>
			<g>
				<g>
					<path style="fill:#FFFFFF;" d="M205.02,144.7c-6.41,0-11.63-5.22-11.63-11.63s5.22-11.63,11.63-11.63s11.63,5.22,11.63,11.63
						S211.43,144.7,205.02,144.7z M205.02,124.44c-4.76,0-8.63,3.87-8.63,8.63s3.87,8.63,8.63,8.63s8.63-3.87,8.63-8.63
						S209.78,124.44,205.02,124.44z"/>
				</g>
			</g>
		</g>
	</g>
</g>
<g>
	<rect x="-256.35" y="-292.63" style="fill:#F47322;" width="133.94" height="113.13"/>
	<rect x="-90.06" y="-292.63" style="fill:#DE2C38;" width="133.94" height="113.13"/>
	<rect x="76.24" y="-292.63" style="fill:#F78F1E;" width="133.94" height="113.13"/>
	<rect x="240.26" y="-292.63" style="fill:#4BC2C0;" width="133.94" height="113.13"/>
	<rect x="411.31" y="-292.63" style="fill:#B93F7A;" width="133.94" height="113.13"/>
	<rect x="-256.35" y="-167.29" style="fill:#422C6C;" width="133.94" height="113.13"/>
	<rect x="-90.06" y="-161.86" style="fill:#0F5BA7;" width="133.94" height="113.13"/>
	<rect x="76.24" y="-161.86" style="fill:#26C4CF;" width="133.94" height="113.13"/>
</g>
</svg>
