<?xml version="1.0" encoding="utf-8"?>
<!-- Generator: Adobe Illustrator 26.3.1, SVG Export Plug-In . SVG Version: 6.00 Build 0)  -->
<svg version="1.1" id="a" xmlns="http://www.w3.org/2000/svg" xmlns:xlink="http://www.w3.org/1999/xlink" x="0px" y="0px"
	 viewBox="0 0 235.1 115.4" style="enable-background:new 0 0 235.1 115.4;" xml:space="preserve">
<style type="text/css">
	.st0{fill:#7F534A;}
	.st1{fill:#FEC303;}
	.st2{fill:#6839B9;}
	.st3{fill:#07A9F1;}
	.st4{fill:#CDDC39;}
	.st5{fill:#FF5622;}
	.st6{fill:#8FC24B;}
	.st7{fill:#E72063;}
	.st8{fill:#211D1D;}
	.st9{fill:#FFFFFF;}
</style>
<path class="st0" d="M116.3,36.6c-0.3-0.5-7.4-10.2-20.4-21C85.4,6.9,74.4,1.8,63.3,0.4L51.7,12.6l10.9,12.1
	c19.4,4.1,39.3,29.4,39.5,29.7L116.3,36.6L116.3,36.6z"/>
<path class="st1" d="M12.6,64l12-10.8c0.7-3.2,1.7-5.9,2.6-7.9c4.2-9,11.1-15.8,19.4-19.2c3.9-1.6,7.8-2.2,11.5-2L47.6,12.5
	L59.5,0.1C52.1-0.3,44.8,1,37.5,3.9c-14,5.7-25.4,16.8-32.2,31.3C3,40.3,1.3,46.1,0.5,52.3L12.6,64L12.6,64z"/>
<path class="st2" d="M112,47.5c-0.6,0.9-1.2,1.7-1.8,2.6l15.5-0.3l0.1,19.6c1.9-2.5,3.8-5.1,5.7-7.8c13.8-18.2,26.4-31.4,39.7-34.9
	l11.7-13.6l-9.3-11.2c-9.4,0.9-18.7,4.4-27.9,10.7c-13.4,9.1-24.5,22.7-33.6,34.7L112,47.5L112,47.5z"/>
<path class="st3" d="M186.8,12.9l-10.9,12.8c4-0.4,8,0.2,12.2,1.7c7,2.6,13.2,7.4,17.9,14c3.1,4.4,4.8,8.7,5.2,13.2l10.4,8.9
	L235,52.4c-0.7-8.6-3.9-16.9-9.4-24.8C218,16.9,207.9,9.1,196.2,4.8c-6.3-2.3-12.6-3.4-18.9-3.3L186.8,12.9L186.8,12.9z"/>
<path class="st4" d="M134.8,61.7l18,16.9c9.3,9.3,17.3,11.9,24.1,11.8l-10.9,12.3l10.8,11.6c-14.4,0.2-28.2-6.1-40.7-18.6l-15-15.2
	L134.8,61.7L134.8,61.7z"/>
<path class="st5" d="M64.3,102.6l-9.5-11.3c-5.6-0.4-10.2-2.4-14.4-4.3c-0.2-0.1-0.3-0.1-0.5-0.2c-0.9-0.4-1.8-0.9-2.6-1.6
	C25.9,76,23.4,65.9,23.9,57.8L12.5,68.1l-12.4-12c-1,16.7,5.3,35.7,25.5,50.2l0,0c0.8,0.6,1.6,1,2.5,1.4h0c0.8,0.3,1.6,0.7,2.6,1.1
	c4.9,2.2,12.5,5.6,22.4,6.3L64.3,102.6L64.3,102.6z"/>
<path class="st6" d="M221.4,67.5l-10.4-8.9c-0.3,3.1-1.2,6.3-2.8,9.7c-4.1,9-11.6,16.1-21,19.8c-1.8,0.7-3.8,1.4-5.9,1.8L170,102.7
	l10.6,11.5c5.2-0.5,10.4-1.8,15.6-3.9c15.1-6.1,27.1-17.5,33.9-32.1c3.4-7.4,5.1-14.8,5.1-22.1L221.4,67.5L221.4,67.5z"/>
<path class="st7" d="M122.8,72.9l-0.1-20.1l-14.8,0.3C92.2,74.2,77.5,86.8,64.3,90.3c-1.9,0.5-3.8,0.8-5.5,1l9.5,11.4l-11.4,12.7
	c4.2,0,8.8-0.5,13.6-1.9c17.4-4.7,34.6-18,52.4-40.6L122.8,72.9L122.8,72.9z"/>
<g>
	<path class="st8" d="M43.2,49.7h5.7c1.4,0,2.6,0.3,3.7,0.8s1.9,1.3,2.5,2.3s0.9,2.1,0.9,3.4s-0.3,2.4-0.9,3.4
		c-0.6,1-1.4,1.7-2.5,2.3s-2.3,0.8-3.7,0.8h-5.7V49.7z M48.7,60.7c1,0,1.8-0.2,2.5-0.5c0.7-0.4,1.3-0.9,1.7-1.6
		c0.4-0.7,0.6-1.5,0.6-2.3c0-0.9-0.2-1.7-0.6-2.3c-0.4-0.7-0.9-1.2-1.7-1.6c-0.7-0.4-1.6-0.5-2.5-0.5h-3.2v8.9H48.7z"/>
	<path class="st8" d="M67.5,58.5h-7.8c0.1,0.7,0.5,1.3,1.1,1.7c0.6,0.4,1.3,0.6,2.1,0.6c1.1,0,2-0.4,2.7-1.1l1.2,1.4
		c-0.4,0.5-1,0.9-1.7,1.2c-0.7,0.3-1.4,0.4-2.3,0.4c-1.1,0-2-0.2-2.9-0.6c-0.8-0.4-1.5-1-1.9-1.8c-0.5-0.8-0.7-1.6-0.7-2.6
		c0-1,0.2-1.8,0.7-2.6c0.4-0.8,1-1.4,1.8-1.8c0.8-0.4,1.7-0.6,2.6-0.6c1,0,1.8,0.2,2.6,0.6c0.8,0.4,1.4,1,1.8,1.8
		c0.4,0.8,0.6,1.7,0.6,2.7C67.6,58,67.6,58.2,67.5,58.5z M60.7,55.2c-0.5,0.4-0.8,1-0.9,1.8h5.6c-0.1-0.7-0.4-1.3-0.9-1.7
		c-0.5-0.4-1.1-0.7-1.9-0.7C61.8,54.6,61.2,54.8,60.7,55.2z"/>
	<path class="st8" d="M78.9,52.8l-4.2,9.9h-2.4L68,52.8h2.4l3.1,7.3l3.2-7.3H78.9z"/>
</g>
<g>
	<path class="st8" d="M160.7,63c-1.1-0.6-1.9-1.4-2.5-2.4c-0.6-1-0.9-2.2-0.9-3.4c0-1.3,0.3-2.4,0.9-3.4c0.6-1,1.4-1.8,2.5-2.4
		c1.1-0.6,2.3-0.9,3.6-0.9s2.5,0.3,3.6,0.9c1.1,0.6,1.9,1.4,2.5,2.4c0.6,1,0.9,2.2,0.9,3.4s-0.3,2.4-0.9,3.4c-0.6,1-1.4,1.8-2.5,2.4
		c-1.1,0.6-2.3,0.9-3.6,0.9S161.8,63.6,160.7,63z M166.6,61.2c0.7-0.4,1.2-0.9,1.6-1.6c0.4-0.7,0.6-1.5,0.6-2.3s-0.2-1.6-0.6-2.3
		c-0.4-0.7-0.9-1.2-1.6-1.6s-1.5-0.6-2.3-0.6s-1.6,0.2-2.3,0.6s-1.2,0.9-1.6,1.6s-0.6,1.5-0.6,2.3s0.2,1.6,0.6,2.3
		c0.4,0.7,0.9,1.2,1.6,1.6s1.5,0.6,2.3,0.6S166,61.6,166.6,61.2z"/>
	<path class="st8" d="M181.7,54.3c0.8,0.4,1.4,1,1.8,1.8s0.6,1.6,0.6,2.7s-0.2,1.9-0.6,2.7s-1,1.4-1.8,1.8c-0.8,0.4-1.6,0.6-2.6,0.6
		c-1.3,0-2.4-0.4-3.2-1.3v4.8h-2.3V53.8h2.2v1.3c0.4-0.5,0.9-0.8,1.4-1.1c0.6-0.2,1.2-0.4,1.9-0.4C180.1,53.7,181,53.9,181.7,54.3z
		 M181,61c0.5-0.6,0.8-1.3,0.8-2.2s-0.3-1.7-0.8-2.2c-0.6-0.6-1.3-0.9-2.1-0.9c-0.6,0-1.1,0.1-1.5,0.4c-0.4,0.3-0.8,0.6-1.1,1.1
		c-0.3,0.5-0.4,1-0.4,1.6c0,0.6,0.1,1.2,0.4,1.6c0.3,0.5,0.6,0.8,1.1,1.1c0.4,0.3,0.9,0.4,1.5,0.4C179.7,61.9,180.4,61.6,181,61z"/>
	<path class="st8" d="M187.1,63.5c-0.8-0.2-1.4-0.5-1.8-0.8l0.9-1.8c0.4,0.3,1,0.5,1.6,0.7c0.6,0.2,1.2,0.3,1.8,0.3
		c1.4,0,2.1-0.4,2.1-1.1c0-0.3-0.2-0.6-0.5-0.7c-0.4-0.1-0.9-0.3-1.7-0.4c-0.8-0.1-1.5-0.3-2-0.4c-0.5-0.2-1-0.4-1.3-0.8
		c-0.4-0.4-0.6-1-0.6-1.7c0-0.9,0.4-1.7,1.2-2.3s1.8-0.8,3.2-0.8c0.7,0,1.4,0.1,2,0.2c0.7,0.2,1.2,0.4,1.7,0.6l-0.9,1.8
		c-0.8-0.5-1.8-0.7-2.8-0.7c-0.7,0-1.2,0.1-1.5,0.3c-0.4,0.2-0.5,0.5-0.5,0.8c0,0.4,0.2,0.6,0.6,0.8c0.4,0.2,1,0.3,1.8,0.4
		c0.8,0.1,1.4,0.3,1.9,0.4s0.9,0.4,1.3,0.8c0.4,0.4,0.5,0.9,0.5,1.6c0,0.9-0.4,1.7-1.2,2.2c-0.8,0.6-1.9,0.8-3.3,0.8
		C188.6,63.9,187.8,63.7,187.1,63.5z"/>
</g>
<g>
	<path class="st9" d="M20.2,38.9c-0.4,0.3-0.9,0.4-1.4,0.4s-1-0.1-1.5-0.4c-0.5-0.3-0.9-0.6-1.1-1.1c-0.3-0.4-0.4-0.9-0.4-1.4
		c0-0.5,0.1-1,0.4-1.5c0.2-0.4,0.5-0.7,0.8-1c0.3-0.3,0.7-0.4,1.1-0.5l0.2,0.9c-0.6,0.1-1,0.5-1.3,1c-0.2,0.3-0.3,0.7-0.3,1
		c0,0.3,0.1,0.7,0.3,1c0.2,0.3,0.4,0.5,0.8,0.7c0.3,0.2,0.7,0.3,1,0.3c0.3,0,0.7-0.1,1-0.3s0.5-0.4,0.7-0.8c0.3-0.5,0.3-1.1,0.1-1.6
		l0.9-0.3c0.1,0.4,0.2,0.8,0.1,1.2c0,0.4-0.2,0.8-0.4,1.2C21,38.2,20.6,38.6,20.2,38.9z"/>
	<path class="st9" d="M23,34.1c-0.5,0.2-1,0.3-1.5,0.3c-0.5,0-1-0.2-1.4-0.6c-0.4-0.3-0.8-0.7-1-1.2c-0.2-0.5-0.3-1-0.2-1.5
		c0.1-0.5,0.3-1,0.6-1.5c0.3-0.5,0.7-0.8,1.2-1c0.5-0.2,1-0.3,1.5-0.3c0.5,0,1,0.2,1.4,0.6c0.4,0.3,0.8,0.7,1,1.2
		c0.2,0.5,0.3,1,0.2,1.5c-0.1,0.5-0.3,1-0.6,1.5C23.9,33.6,23.5,33.9,23,34.1z M23.9,31.6c0-0.3,0-0.7-0.1-1
		c-0.1-0.3-0.4-0.6-0.7-0.8c-0.3-0.2-0.6-0.4-1-0.4s-0.7,0-1,0.2c-0.3,0.1-0.6,0.4-0.8,0.7c-0.2,0.3-0.4,0.6-0.4,1s0,0.7,0.2,1
		c0.1,0.3,0.4,0.6,0.7,0.8c0.3,0.2,0.6,0.4,1,0.4c0.3,0,0.7,0,1-0.1c0.3-0.1,0.6-0.4,0.8-0.7S23.9,31.9,23.9,31.6z"/>
	<path class="st9" d="M22.6,26l1.7-1.8c0.4-0.4,0.9-0.7,1.4-0.9c0.5-0.2,1-0.2,1.5-0.1s0.9,0.4,1.3,0.8c0.4,0.4,0.7,0.8,0.8,1.3
		c0.1,0.5,0.1,1-0.1,1.5c-0.2,0.5-0.4,1-0.9,1.4l-1.7,1.8L22.6,26z M27.6,27.6c0.3-0.3,0.5-0.6,0.6-0.9c0.1-0.3,0.1-0.7,0-1
		c-0.1-0.3-0.3-0.6-0.5-0.9c-0.3-0.3-0.6-0.4-0.9-0.5c-0.3-0.1-0.7-0.1-1,0s-0.6,0.3-0.9,0.6l-1,1l2.7,2.7L27.6,27.6z"/>
	<path class="st9" d="M33.9,22.1l0.5,0.7l-3.3,2.6l-3.5-4.4l3.2-2.6l0.5,0.7L29,21.1l0.9,1.1l2.1-1.7l0.5,0.7l-2.1,1.7l1,1.2
		L33.9,22.1z"/>
</g>
<g>
	<path class="st9" d="M81.4,16.7c0.3,0.3,0.4,0.6,0.5,1c0,0.4,0,0.7-0.2,1.1c-0.2,0.4-0.4,0.6-0.7,0.8c-0.3,0.2-0.6,0.3-1,0.3
		c-0.4,0-0.8-0.1-1.3-0.3L77.6,19l-0.7,1.5L75.9,20l2.3-5.1l2.1,1C80.8,16.1,81.2,16.4,81.4,16.7z M80.1,18.9
		c0.3-0.1,0.5-0.3,0.7-0.6c0.1-0.3,0.2-0.6,0-0.9c-0.1-0.3-0.4-0.5-0.8-0.7l-1.1-0.5l-0.9,2l1.1,0.5C79.4,18.9,79.8,18.9,80.1,18.9z
		"/>
	<path class="st9" d="M83.9,17.7l0.9,0.5l-2.5,4l2.5,1.5l-0.5,0.8L81,22.5L83.9,17.7z"/>
	<path class="st9" d="M88.6,26.1l-2.2-1.7l-1.2,0.7l-0.8-0.7l5.4-2.9l0.8,0.6l-1.4,6l-0.9-0.7L88.6,26.1z M88.8,25.3l0.7-2.6
		L87.2,24L88.8,25.3z"/>
	<path class="st9" d="M97,28.1l-3.9,4l-0.6-0.6l0.5-4.9l-2.7,2.7l-0.7-0.7l3.9-4l0.6,0.6L93.6,30l2.7-2.7L97,28.1z"/>
</g>
<g>
	<path class="st9" d="M132.8,79.2l3.3-1.8l-3.6-0.2l-0.2-0.4l1.8-3l-3.2,1.7l-0.5-0.9l4.9-2.6l0.4,0.8l-2.2,3.7l4.3,0.2l0.4,0.8
		l-4.9,2.6L132.8,79.2z"/>
	<path class="st9" d="M135.2,82.5c-0.1-0.5,0-1,0.2-1.5s0.5-0.9,1-1.2c0.4-0.3,0.9-0.5,1.4-0.6c0.5,0,1,0,1.5,0.3
		c0.5,0.2,0.9,0.6,1.2,1c0.3,0.5,0.5,0.9,0.6,1.5s0,1-0.2,1.5c-0.2,0.5-0.5,0.9-1,1.2c-0.4,0.3-0.9,0.5-1.4,0.6c-0.5,0-1,0-1.5-0.3
		c-0.5-0.2-0.9-0.6-1.2-1C135.5,83.5,135.3,83,135.2,82.5z M137.4,84.1c0.3,0.1,0.6,0.2,1,0.2c0.3,0,0.7-0.2,1-0.4
		c0.3-0.2,0.5-0.5,0.7-0.8c0.1-0.3,0.2-0.6,0.2-1c0-0.3-0.2-0.7-0.4-1c-0.2-0.3-0.5-0.5-0.8-0.7c-0.3-0.1-0.6-0.2-1-0.2
		c-0.3,0-0.7,0.2-1,0.4c-0.3,0.2-0.5,0.5-0.7,0.8c-0.1,0.3-0.2,0.6-0.2,1c0,0.3,0.2,0.7,0.4,1C136.8,83.7,137.1,83.9,137.4,84.1z"/>
	<path class="st9" d="M146.2,87.2l-4,3.9l-0.6-0.6l0.6-4.9l-2.7,2.7l-0.7-0.7l4-3.9l0.6,0.6l-0.6,4.9l2.7-2.7L146.2,87.2z"/>
	<path class="st9" d="M147.3,88l0.8,0.7l-3.6,4.3l-0.8-0.7L147.3,88z"/>
	<path class="st9" d="M149.5,90.9l-1.5-1.1l0.5-0.7l3.9,2.7l-0.5,0.7l-1.5-1.1l-2.7,3.9l-0.9-0.6L149.5,90.9z"/>
	<path class="st9" d="M151.3,97.2c-0.3-0.4-0.5-0.9-0.5-1.4c0-0.5,0.1-1,0.3-1.5c0.2-0.5,0.6-0.9,1-1.1c0.4-0.3,0.9-0.4,1.4-0.4
		c0.5,0,1,0.1,1.5,0.4c0.5,0.3,0.9,0.6,1.2,1c0.3,0.4,0.5,0.9,0.5,1.4c0,0.5-0.1,1-0.3,1.5c-0.2,0.5-0.6,0.9-1,1.1
		c-0.4,0.3-0.9,0.4-1.4,0.4c-0.5,0-1-0.1-1.5-0.4C152,98,151.6,97.7,151.3,97.2z M153.9,97.7c0.3,0,0.7-0.1,0.9-0.3
		c0.3-0.2,0.5-0.5,0.7-0.8c0.2-0.3,0.2-0.7,0.2-1c0-0.3-0.1-0.7-0.3-0.9c-0.2-0.3-0.5-0.5-0.8-0.7c-0.3-0.2-0.7-0.2-1-0.2
		c-0.3,0-0.7,0.1-0.9,0.3c-0.3,0.2-0.5,0.5-0.7,0.8c-0.2,0.3-0.2,0.7-0.2,1c0,0.3,0.1,0.7,0.3,0.9c0.2,0.3,0.4,0.5,0.8,0.7
		C153.3,97.6,153.6,97.7,153.9,97.7z"/>
	<path class="st9" d="M160.2,101.3l-0.6-1.9c0,0-0.1,0-0.2-0.1l-1.2-0.4l-0.5,1.5l-1-0.3l1.8-5.3l2.2,0.7c0.5,0.2,0.8,0.4,1.1,0.6
		c0.3,0.3,0.5,0.6,0.6,0.9c0.1,0.3,0.1,0.7-0.1,1.1c-0.1,0.4-0.4,0.7-0.6,0.9c-0.3,0.2-0.6,0.3-1.1,0.4l0.6,2.2L160.2,101.3z
		 M161.3,97c-0.2-0.3-0.5-0.5-0.9-0.6l-1.2-0.4l-0.7,2.1l1.2,0.4c0.4,0.1,0.8,0.2,1.1,0.1c0.3-0.1,0.5-0.3,0.6-0.7
		C161.5,97.6,161.5,97.3,161.3,97z"/>
</g>
<g>
	<path class="st9" d="M189.9,103.2c-0.5-0.1-1-0.3-1.3-0.7c-0.4-0.3-0.7-0.8-0.8-1.3c-0.2-0.5-0.2-1-0.1-1.5
		c0.1-0.5,0.4-0.9,0.7-1.3c0.4-0.4,0.8-0.6,1.4-0.8c0.5-0.2,1.1-0.2,1.6-0.1c0.5,0.1,1,0.3,1.3,0.7s0.7,0.8,0.8,1.3
		c0.2,0.5,0.2,1,0.1,1.5c-0.1,0.5-0.4,0.9-0.7,1.3c-0.4,0.4-0.8,0.6-1.4,0.8C191,103.2,190.5,103.3,189.9,103.2z M192.1,101.6
		c0.2-0.2,0.4-0.5,0.5-0.9c0.1-0.3,0.1-0.7-0.1-1s-0.3-0.7-0.5-0.9c-0.3-0.2-0.5-0.4-0.9-0.5s-0.7-0.1-1,0.1s-0.7,0.3-0.9,0.5
		c-0.2,0.2-0.4,0.5-0.5,0.9c-0.1,0.3-0.1,0.7,0.1,1c0.1,0.4,0.3,0.7,0.5,0.9c0.3,0.2,0.5,0.4,0.9,0.5c0.3,0.1,0.7,0,1-0.1
		S191.9,101.9,192.1,101.6z"/>
	<path class="st9" d="M196.9,95.1c0.4,0,0.7,0.1,1,0.3c0.3,0.2,0.5,0.5,0.7,0.8c0.2,0.4,0.2,0.7,0.2,1.1c0,0.4-0.2,0.7-0.5,1
		s-0.6,0.5-1.1,0.7l-1.2,0.5l0.7,1.5l-0.9,0.4l-2.3-5.1l2.1-1C196.1,95.2,196.5,95.1,196.9,95.1z M197.7,97.6c0.1-0.3,0.1-0.6,0-0.9
		c-0.1-0.3-0.4-0.5-0.7-0.6s-0.6,0-1.1,0.2l-1.1,0.5l0.9,2l1.1-0.5C197.3,98.1,197.5,97.8,197.7,97.6z"/>
	<path class="st9" d="M204.5,95.9l0.5,0.7l-3.6,2.2l-2.9-4.8l3.5-2.1l0.5,0.7l-2.6,1.6l0.8,1.2l2.3-1.4l0.4,0.7l-2.3,1.4l0.8,1.3
		L204.5,95.9z"/>
	<path class="st9" d="M209.2,93.5l-1.9-0.6c0,0-0.1,0.1-0.2,0.1l-1,0.8l1,1.3l-0.8,0.6l-3.5-4.4l1.8-1.4c0.4-0.3,0.8-0.5,1.1-0.6
		c0.4-0.1,0.7-0.1,1.1,0s0.6,0.3,0.9,0.7c0.3,0.3,0.4,0.7,0.4,1c0,0.4-0.1,0.7-0.3,1.1l2.2,0.6L209.2,93.5z M206.1,90.2
		c-0.3,0-0.6,0.1-1,0.4l-1,0.8l1.4,1.8l1-0.8c0.4-0.3,0.6-0.6,0.6-0.9c0.1-0.3,0-0.6-0.2-0.9C206.7,90.4,206.4,90.2,206.1,90.2z"/>
	<path class="st9" d="M212.7,88.2l-1.9,2l0.6,1.3l-0.7,0.8l-2.3-5.7l0.7-0.7l5.8,2l-0.8,0.8L212.7,88.2z M211.9,87.9l-2.5-0.9l1,2.4
		L211.9,87.9z"/>
	<path class="st9" d="M212.2,83.4l-1.1,1.5l-0.7-0.5l2.8-3.8l0.7,0.5l-1.1,1.5l3.8,2.8l-0.6,0.8L212.2,83.4z"/>
	<path class="st9" d="M219.7,78.9l0.8,0.4l-2.1,3.6l-4.8-2.8l2.1-3.5l0.8,0.4l-1.5,2.6l1.3,0.7l1.4-2.3l0.7,0.4l-1.4,2.3l1.3,0.8
		L219.7,78.9z"/>
</g>
<g>
	<path class="st9" d="M20.9,85.6c-0.1,0.3-0.3,0.5-0.5,0.8c-0.4,0.3-0.8,0.4-1.2,0.2c-0.4-0.1-0.9-0.5-1.3-1.1l-1.7-2.2l4.5-3.4
		l1.6,2.1c0.4,0.5,0.6,1,0.6,1.5c0,0.4-0.2,0.8-0.5,1.1c-0.2,0.2-0.5,0.3-0.7,0.3c-0.2,0-0.5,0-0.7-0.1C21,85,21,85.3,20.9,85.6z
		 M19.9,85.4c0.4-0.3,0.4-0.8-0.1-1.5l-1-1.3l-1.3,1l1,1.3C19,85.6,19.4,85.8,19.9,85.4z M20.6,81.2l-1.2,0.9l0.9,1.2
		c0.2,0.3,0.4,0.5,0.7,0.5c0.2,0.1,0.4,0,0.6-0.1c0.2-0.2,0.3-0.3,0.3-0.6c0-0.2-0.1-0.5-0.4-0.8L20.6,81.2z"/>
	<path class="st9" d="M21.1,88.5c0-0.6,0.3-1.2,0.9-1.8l2.2-2.2l0.7,0.7l-2.2,2.2c-0.8,0.8-0.8,1.5-0.2,2.2c0.7,0.7,1.4,0.6,2.2-0.2
		l2.2-2.2l0.7,0.7l-2.2,2.2c-0.6,0.6-1.2,0.9-1.8,0.9c-0.6,0-1.2-0.3-1.7-0.8S21.1,89.1,21.1,88.5z"/>
	<path class="st9" d="M28.6,88.7l0.8,0.7l-3.6,4.3L25.1,93L28.6,88.7z"/>
	<path class="st9" d="M30.5,90.2l0.9,0.6l-2.7,3.9l2.4,1.7l-0.5,0.7l-3.3-2.3L30.5,90.2z"/>
	<path class="st9" d="M34.2,92.8l2.2,1.1c0.5,0.3,1,0.6,1.3,1c0.3,0.4,0.5,0.9,0.5,1.4c0,0.5-0.1,1-0.3,1.5c-0.2,0.5-0.6,0.9-1,1.1
		c-0.4,0.3-0.9,0.4-1.4,0.4c-0.5,0-1-0.1-1.6-0.4l-2.2-1.1L34.2,92.8z M34.2,98.1c0.4,0.2,0.7,0.3,1.1,0.3c0.3,0,0.7-0.1,0.9-0.3
		c0.3-0.2,0.5-0.4,0.7-0.8s0.3-0.7,0.2-1c0-0.3-0.1-0.6-0.3-0.9s-0.5-0.5-0.9-0.7L34.7,94L33,97.5L34.2,98.1z"/>
</g>
<g>
	<path class="st9" d="M90.3,88l-1.6,1l-0.5-0.7l4-2.5l0.5,0.7l-1.6,1l2.5,4L92.8,92L90.3,88z"/>
	<path class="st9" d="M98.9,86.5l0.5,0.7l-3.3,2.6l-3.5-4.4l3.2-2.5l0.5,0.7L94,85.4l0.9,1.1l2.1-1.7l0.5,0.7l-2.1,1.7l1,1.2
		L98.9,86.5z"/>
	<path class="st9" d="M100.9,85.6c-0.4,0.2-0.7,0.3-1,0.3l-0.3-0.8c0.3,0,0.6-0.1,0.9-0.3c0.3-0.2,0.6-0.4,0.8-0.6
		c0.3-0.3,0.5-0.6,0.5-0.8c0-0.2,0-0.4-0.2-0.6c-0.1-0.1-0.2-0.2-0.4-0.2c-0.2,0-0.3,0.1-0.5,0.1c-0.2,0.1-0.4,0.2-0.6,0.4
		c-0.4,0.2-0.7,0.4-0.9,0.5c-0.3,0.1-0.5,0.2-0.8,0.2c-0.3,0-0.6-0.2-0.8-0.4c-0.2-0.2-0.4-0.5-0.4-0.8c-0.1-0.3,0-0.6,0.1-1
		c0.1-0.3,0.4-0.7,0.7-1c0.2-0.2,0.5-0.5,0.8-0.6s0.6-0.3,0.9-0.4l0.3,0.8c-0.3,0.1-0.5,0.2-0.8,0.3c-0.2,0.1-0.4,0.3-0.6,0.5
		c-0.3,0.3-0.5,0.6-0.5,0.8c0,0.2,0,0.4,0.2,0.6c0.1,0.1,0.2,0.2,0.4,0.2c0.2,0,0.3-0.1,0.5-0.1c0.2-0.1,0.4-0.2,0.6-0.4
		c0.4-0.2,0.7-0.4,0.9-0.5c0.3-0.1,0.5-0.2,0.8-0.2c0.3,0,0.6,0.1,0.8,0.4c0.2,0.2,0.4,0.5,0.4,0.8c0.1,0.3,0,0.6-0.1,1
		c-0.1,0.3-0.4,0.7-0.7,1C101.6,85.2,101.3,85.4,100.9,85.6z"/>
	<path class="st9" d="M101.3,78.4l-1.1,1.5l-0.7-0.5l2.9-3.8l0.7,0.5l-1.1,1.5l3.7,2.9l-0.6,0.8L101.3,78.4z"/>
</g>
<g>
	<path class="st9" d="M136.9,39.1l-2-0.2c0,0-0.1,0.1-0.1,0.2l-0.8,0.9l1.2,1.1l-0.7,0.8l-4.2-3.8l1.5-1.7c0.3-0.4,0.7-0.6,1-0.8
		c0.4-0.2,0.7-0.2,1.1-0.2c0.3,0.1,0.7,0.2,1,0.5c0.3,0.3,0.5,0.6,0.6,1s0.1,0.7-0.1,1.1l2.2,0.3L136.9,39.1z M133.4,36.4
		c-0.3,0-0.6,0.2-0.9,0.6l-0.8,0.9l1.7,1.5l0.8-0.9c0.3-0.3,0.5-0.7,0.5-1c0-0.3-0.1-0.6-0.4-0.8C134,36.4,133.7,36.3,133.4,36.4z"
		/>
	<path class="st9" d="M140.8,34l0.6,0.6l-3,2.9l-3.9-4l2.9-2.9l0.6,0.6l-2.2,2.1l1,1l1.9-1.9l0.6,0.6l-1.9,1.9l1.1,1.1L140.8,34z"/>
	<path class="st9" d="M138.5,29.7l0.8-0.7l3.1,3.5l2.2-1.9l0.6,0.7l-3,2.6L138.5,29.7z"/>
	<path class="st9" d="M148.5,27.5l0.5,0.7l-3.3,2.6l-3.5-4.4l3.2-2.6l0.5,0.7l-2.4,1.9l0.9,1.1l2.1-1.7l0.5,0.7l-2.1,1.7l1,1.2
		L148.5,27.5z"/>
	<path class="st9" d="M152.1,24.3l-2.3,1.6l0.3,1.4l-0.9,0.6l-1.2-6l0.8-0.6l5.3,3.1l-0.9,0.6L152.1,24.3z M151.3,23.9l-2.3-1.4
		l0.6,2.6L151.3,23.9z"/>
	<path class="st9" d="M155.1,23.7c-0.4,0.1-0.8,0.2-1.1,0.1l-0.1-0.9c0.3,0,0.6,0,1-0.1c0.3-0.1,0.7-0.2,0.9-0.4
		c0.3-0.2,0.6-0.5,0.7-0.7c0.1-0.2,0.1-0.4,0-0.6c-0.1-0.1-0.2-0.2-0.4-0.2c-0.2,0-0.3,0-0.5,0s-0.4,0.1-0.7,0.2
		c-0.4,0.1-0.8,0.3-1,0.3c-0.3,0.1-0.6,0-0.8,0s-0.5-0.3-0.7-0.6c-0.2-0.3-0.3-0.5-0.3-0.8c0-0.3,0.1-0.6,0.3-0.9
		c0.2-0.3,0.5-0.6,0.9-0.9c0.3-0.2,0.6-0.3,0.9-0.4c0.3-0.1,0.6-0.2,0.9-0.2l0.2,0.9c-0.3,0-0.6,0.1-0.8,0.1s-0.5,0.2-0.7,0.3
		c-0.3,0.2-0.6,0.4-0.7,0.7c-0.1,0.2-0.1,0.4,0.1,0.6c0.1,0.1,0.2,0.2,0.4,0.2s0.3,0,0.5,0s0.4-0.1,0.7-0.2c0.4-0.1,0.7-0.2,1-0.3
		c0.3-0.1,0.6,0,0.8,0c0.3,0.1,0.5,0.3,0.7,0.6c0.2,0.3,0.3,0.5,0.2,0.8c0,0.3-0.1,0.6-0.3,0.9c-0.2,0.3-0.5,0.6-0.9,0.9
		C155.9,23.4,155.5,23.6,155.1,23.7z"/>
	<path class="st9" d="M162.1,18.5l0.4,0.7l-3.6,2.2l-2.9-4.8l3.5-2.1l0.4,0.7l-2.6,1.6l0.7,1.3l2.3-1.4l0.4,0.7l-2.3,1.4l0.8,1.3
		L162.1,18.5z"/>
</g>
<g>
	<path class="st9" d="M201.4,17.3l2,1.5c0.5,0.4,0.8,0.8,1.1,1.2c0.2,0.5,0.3,0.9,0.3,1.4c0,0.5-0.2,1-0.6,1.4
		c-0.3,0.4-0.7,0.8-1.2,1c-0.5,0.2-0.9,0.2-1.5,0.1c-0.5-0.1-1-0.3-1.5-0.7l-2-1.5L201.4,17.3z M200.5,22.5c0.3,0.2,0.7,0.4,1,0.5
		c0.3,0.1,0.7,0,1-0.1c0.3-0.1,0.6-0.4,0.8-0.7c0.2-0.3,0.4-0.6,0.4-1c0-0.3,0-0.7-0.2-1c-0.2-0.3-0.4-0.6-0.7-0.8l-1.1-0.8
		l-2.3,3.1L200.5,22.5z"/>
	<path class="st9" d="M207,27.9l-0.6,0.7l-3.1-2.8l3.7-4.2l3.1,2.7l-0.6,0.7l-2.3-2l-1,1.1l2,1.8l-0.6,0.6l-2-1.8l-1,1.2L207,27.9z"
		/>
	<path class="st9" d="M213.5,28.2c0.1,0.4,0.1,0.7,0.1,1.1s-0.3,0.7-0.6,0.9c-0.3,0.3-0.6,0.4-1,0.5c-0.4,0.1-0.7,0-1.1-0.1
		c-0.4-0.2-0.7-0.4-1-0.8l-0.9-0.9l-1.2,1.1l-0.7-0.8l4.1-3.8l1.6,1.7C213.1,27.5,213.4,27.9,213.5,28.2z M211.4,29.8
		c0.3,0,0.6-0.1,0.8-0.3c0.3-0.2,0.4-0.5,0.4-0.8c0-0.3-0.2-0.6-0.5-1l-0.8-0.9l-1.6,1.5l0.8,0.9C210.8,29.5,211.1,29.7,211.4,29.8z
		"/>
	<path class="st9" d="M215.3,30l0.6,0.8l-3.8,2.8L214,36l-0.7,0.5l-2.4-3.2L215.3,30z"/>
	<path class="st9" d="M214.4,37.8c0-0.5,0.1-1,0.3-1.5c0.2-0.4,0.6-0.8,1.1-1.1c0.5-0.3,1-0.4,1.5-0.4c0.5,0,1,0.1,1.4,0.4
		c0.4,0.3,0.8,0.7,1.1,1.1c0.3,0.5,0.4,1,0.5,1.5c0,0.5-0.1,1-0.3,1.5c-0.2,0.4-0.6,0.8-1.1,1.1c-0.5,0.3-1,0.4-1.5,0.4
		c-0.5,0-1-0.1-1.4-0.4c-0.4-0.3-0.8-0.7-1.1-1.1C214.6,38.8,214.4,38.3,214.4,37.8z M216.4,39.6c0.3,0.2,0.6,0.3,1,0.3
		s0.7-0.1,1-0.3c0.3-0.2,0.6-0.4,0.7-0.7c0.2-0.3,0.3-0.6,0.3-1c0-0.3-0.1-0.7-0.3-1s-0.4-0.6-0.7-0.7c-0.3-0.2-0.6-0.3-1-0.3
		c-0.3,0-0.7,0.1-1,0.3c-0.3,0.2-0.6,0.4-0.7,0.7c-0.2,0.3-0.3,0.6-0.3,1c0,0.3,0.1,0.7,0.3,1C215.8,39.2,216.1,39.4,216.4,39.6z"/>
	<path class="st9" d="M219.4,44l-1.8,0.8l-0.4-1L219,43l2.5-3.4l0.4,1l-1.9,2.6l3.2,0.5l0.4,0.9L219.4,44z"/>
</g>
</svg>
