<?xml version="1.0" encoding="utf-8"?>
<!-- Generator: Adobe Illustrator 26.3.1, SVG Export Plug-In . SVG Version: 6.00 Build 0)  -->
<svg version="1.1" id="Layer_1" xmlns="http://www.w3.org/2000/svg" xmlns:xlink="http://www.w3.org/1999/xlink" x="0px" y="0px"
	 viewBox="0 0 344.8 258" style="enable-background:new 0 0 344.8 258;" xml:space="preserve">
<style type="text/css">
	.st0{fill:#F47322;}
	.st1{fill:#DE2C38;}
	.st2{fill:#F78F1E;}
	.st3{fill:#4BC2C0;}
	.st4{fill:#B93F7A;}
	.st5{fill:#422C6C;}
	.st6{fill:#0F5BA7;}
	.st7{fill:#26C4CF;}
	.st8{opacity:0.1;fill:url(#SVGID_1_);enable-background:new    ;}
	.st9{opacity:0.1;enable-background:new    ;}
	.st10{fill:url(#SVGID_00000142167614554655231560000007290576324940669093_);}
	.st11{opacity:0.2;}
	.st12{fill-opacity:0;}
	.st13{opacity:9.090000e-02;enable-background:new    ;}
	.st14{opacity:0.1818;enable-background:new    ;}
	.st15{opacity:0.2727;enable-background:new    ;}
	.st16{opacity:0.3636;enable-background:new    ;}
	.st17{opacity:0.4545;enable-background:new    ;}
	.st18{opacity:0.5455;enable-background:new    ;}
	.st19{opacity:0.6364;enable-background:new    ;}
	.st20{opacity:0.7273;enable-background:new    ;}
	.st21{opacity:0.8182;enable-background:new    ;}
	.st22{opacity:0.9091;enable-background:new    ;}
	.st23{fill:#0D4675;}
	.st24{fill:#FFFFFF;}
	.st25{fill:#1C89D3;}
	.st26{fill:#168487;}
	.st27{fill:#0C6CBC;}
	.st28{fill:url(#SVGID_00000176749134643353511430000013353579897104580741_);}
	.st29{fill:url(#SVGID_00000100369427381076380100000014094866993490072713_);}
	.st30{fill:url(#SVGID_00000039843113554311275750000016381993711519319739_);}
	.st31{fill:url(#SVGID_00000138544360934471134240000017892426061258185913_);}
	.st32{fill:#E6E7E8;}
	.st33{fill:url(#SVGID_00000079461289530467312020000008153854575929936004_);}
	.st34{fill:#2AF6FF;}
	.st35{fill:#0B4677;}
	.st36{opacity:0.8182;fill:url(#SVGID_00000125580828067503614460000007450604856259292046_);enable-background:new    ;}
	.st37{fill:url(#SVGID_00000170270318611300972970000006838202498875740589_);}
	.st38{fill:url(#SVGID_00000058591121816380742500000012342300706969796258_);}
	.st39{fill:url(#SVGID_00000168834348543154112320000010937669941889401790_);}
	.st40{fill:url(#SVGID_00000138534462264111288520000003977873701882099609_);}
	.st41{fill:url(#SVGID_00000092417646067228806320000015548087629091275393_);}
	.st42{fill:url(#SVGID_00000121977421860608919370000017248742480748820873_);}
	.st43{fill:url(#SVGID_00000031208057103471342550000016535822625602977172_);}
	.st44{fill:url(#SVGID_00000072274702893935164450000012424882777877228454_);}
	.st45{fill:url(#SVGID_00000059298784942227083470000001469561549000108431_);}
	.st46{fill:url(#SVGID_00000062903344543314766500000010722822614361693589_);}
	.st47{fill:#25054D;}
	.st48{fill:url(#SVGID_00000128452149412586978830000008308290399363126695_);}
	.st49{fill:url(#SVGID_00000068656313154789729530000010115904273466794686_);}
	.st50{fill:url(#SVGID_00000020368540100503143490000016950260897380010656_);}
	.st51{fill:url(#SVGID_00000019641166563711842540000006576401792567931273_);}
	.st52{fill:url(#SVGID_00000155849134624161472930000013889355072322040492_);}
	.st53{fill:url(#SVGID_00000101786254091975973660000014231592704134085027_);}
	.st54{fill:url(#SVGID_00000031170026125897261700000000595770569288126860_);}
	.st55{fill:url(#SVGID_00000125588770359028392220000017073376027401209489_);}
	.st56{fill:url(#SVGID_00000013154437470249318340000004562996411742993065_);}
	.st57{fill:url(#SVGID_00000052089311719345396780000014890144308745819279_);}
	.st58{fill:url(#SVGID_00000091697068303203436070000016755153647377087919_);}
	.st59{fill:url(#SVGID_00000174585267186488581770000000381057234994593165_);}
	.st60{fill:url(#SVGID_00000119081532351439200450000001099120117849493933_);}
	.st61{fill:url(#SVGID_00000023994140846428380540000006973304051779026859_);}
	.st62{fill:url(#SVGID_00000062878377980285249080000007241840444088804480_);}
	.st63{fill:url(#SVGID_00000067929858002490723670000014044619444811679898_);}
	.st64{fill:url(#SVGID_00000106866411299408880320000016162521473220233622_);}
	.st65{fill:url(#SVGID_00000130630718515128495960000005015625355259389859_);}
	.st66{fill:#0E4777;}
	.st67{opacity:0.6;fill:url(#SVGID_00000079454531655734276510000009136823113467552398_);enable-background:new    ;}
	.st68{fill:url(#SVGID_00000122695142724034003430000003705651748455745177_);}
	.st69{fill:url(#SVGID_00000022520312845215649480000018262729912331646339_);}
	.st70{fill:url(#SVGID_00000029765757522104129750000011910410991733770899_);}
	.st71{fill:#BCBEC0;}
	.st72{fill:url(#SVGID_00000176752625273063017320000000807566791353795723_);}
	.st73{fill:url(#SVGID_00000041287089725727082230000008160778422629517982_);}
	.st74{fill:url(#SVGID_00000178200788045801826260000011462993719984943543_);}
	.st75{fill:url(#SVGID_00000075161935850906773980000018192221039040262588_);}
	.st76{fill:url(#SVGID_00000065043881414655316590000014464698677037110456_);}
	.st77{fill:#088487;}
	.st78{fill:#39DEE2;}
	.st79{fill:none;}
	.st80{fill:url(#SVGID_00000072266142609139889700000006476983350290224267_);}
</style>
<g>
	<rect x="-5.4" y="-163.1" class="st0" width="67.9" height="57.3"/>
	<rect x="78.9" y="-163.1" class="st1" width="67.9" height="57.3"/>
	<rect x="163.2" y="-163.1" class="st2" width="67.9" height="57.3"/>
	<rect x="246.4" y="-163.1" class="st3" width="67.9" height="57.3"/>
	<rect x="333.1" y="-163.1" class="st4" width="67.9" height="57.3"/>
	<rect x="-5.4" y="-99.6" class="st5" width="67.9" height="57.3"/>
	<rect x="78.9" y="-96.8" class="st6" width="67.9" height="57.3"/>
	<rect x="163.2" y="-96.8" class="st7" width="67.9" height="57.3"/>
</g>
<g>
	
		<radialGradient id="SVGID_1_" cx="314.861" cy="63.9868" r="31.1638" gradientTransform="matrix(1 0 0 -1 0 257.8898)" gradientUnits="userSpaceOnUse">
		<stop  offset="0" style="stop-color:#FFFFFF"/>
		<stop  offset="1" style="stop-color:#000000"/>
	</radialGradient>
	<path class="st8" d="M272.9,86v2.2c30.6,17.3,49.9,42.2,49.9,69.8s-19.3,52.5-49.9,69.8v2.2c31.8-17.6,51.9-43.4,51.9-72
		S304.7,103.7,272.9,86z"/>
	<path class="st9" d="M17.7,157c0-25.4,16.2-49.1,45.7-66.6c25.4-15.1,58.9-24.3,94.5-26l-0.1-1.7c-35.8,1.7-69.7,11-95.3,26.2
		c-30,17.8-46.5,42-46.5,68.1H17.7z"/>
	<path class="st9" d="M171.7,252.8c-37.7,0-74-8.3-102.2-23.3c-0.3-0.1-0.5-0.4-0.5-0.8c0-0.3,0.2-0.6,0.4-0.8l70.9-39.1v0.3
		c0-0.3,0.2-0.6,0.4-0.8l30.5-16.5l0.9,1.5l-30.1,16.3v-0.3c0,0.3-0.2,0.6-0.4,0.8l-69.9,38.6c27.8,14.4,63.2,22.4,99.9,22.4
		c21.6,0,42.3-2.6,61.7-7.8c0.4-0.1,12.2-4.1,12.7-4.2l0.5,1.7c-0.4,0.1-12.1,4.1-12.5,4.2C214.4,250.2,193.4,252.8,171.7,252.8z"/>
	<path class="st9" d="M163.8,169.8L63.6,224.2c-18.4-11-31.6-24.4-39-39l-1.7,0.5c7.6,15.2,21.2,29,40.3,40.3
		c0.1,0.1,0.3,0.1,0.5,0.1c0.1,0,0.3,0,0.4-0.1l100.6-54.7L163.8,169.8z"/>
	<path class="st7" d="M256.9,234.3l-0.7-1.6c7.8-3.1,15.1-6.8,21.9-10.8c7.3-4.4,13.9-9.1,19.6-14.3l1.2,1.3
		c-5.8,5.2-12.5,10.1-19.9,14.5C272.2,227.5,264.8,231.1,256.9,234.3z"/>
	
		<linearGradient id="SVGID_00000170995272510330195780000005406648391881934729_" gradientUnits="userSpaceOnUse" x1="195.7896" y1="191.6883" x2="238.5406" y2="183.618" gradientTransform="matrix(1 0 0 -1 0 257.8898)">
		<stop  offset="3.030000e-02" style="stop-color:#7C1DC9"/>
		<stop  offset="0.2138" style="stop-color:#6E41D2"/>
		<stop  offset="0.6184" style="stop-color:#4C9BE8"/>
		<stop  offset="1" style="stop-color:#2AF6FF"/>
	</linearGradient>
	<path style="fill:url(#SVGID_00000170995272510330195780000005406648391881934729_);" d="M277.4,87.9C255,74.5,226.8,65.8,196,62.6
		l0.2-1.7c31.1,3.2,59.5,12,82.2,25.5L277.4,87.9z"/>
	<path class="st7" d="M17.7,154.1c0-25.4,16.2-49.1,45.7-66.6c25.4-15.1,58.9-24.3,94.5-26l-0.1-1.7C122,61.5,88.1,70.8,62.5,86
		c-30,17.8-46.5,42-46.5,68.1H17.7z"/>
	<path class="st6" d="M43.5,167.3c0-25.4,16.2-49.1,45.7-66.6c25.4-15.1,58.9-24.3,94.5-26l-0.1-1.7c-35.8,1.7-69.7,11-95.3,26.2
		c-30,17.8-46.5,42-46.5,68.1H43.5z"/>
	<path class="st6" d="M290.2,163.7c0-25.4-16.2-49.1-45.7-66.6c-25.4-15.1-58.9-24.3-94.5-26l0.1-1.7c35.8,1.7,69.7,11,95.3,26.2
		c30,17.8,46.5,42,46.5,68.1H290.2z"/>
	<g>
		<g class="st11">
			<path class="st12" d="M266,105.2c-1.5,0-3-0.3-4-1l-42.9-24.8c-1.5-0.8-2.3-2.2-2.3-3.7c0-1.6,1-3.2,2.8-4.2l24.4-14.1
				c1.4-0.8,3.1-1.2,4.9-1.2c1.5,0,2.9,0.3,4.1,1L295.8,82c1.5,0.8,2.3,2.2,2.3,3.7c0,1.6-1,3.2-2.8,4.2L271,103.9
				C269.6,104.7,267.8,105.2,266,105.2z"/>
			<path class="st13" d="M244,57.6c1.4-0.8,3.1-1.2,4.9-1.2c0.7,0,1.4,0.1,2,0.2c0.7,0.2,1.5,0.5,2,0.8l42.8,24.7
				c1.5,0.8,2.2,2.2,2.1,3.7c0,0.4-0.1,0.8-0.3,1.2c-0.4,1-1.4,2.1-2.6,2.8l-24,13.9c-0.3,0.2-0.7,0.4-1,0.5
				c-1.2,0.5-2.5,0.8-3.9,0.8c-1.5,0-2.9-0.3-4-0.9l-42.9-24.8c-1.5-0.8-2.2-2.2-2.1-3.7c0-0.3,0.1-0.7,0.2-1c0.4-1.1,1.4-2.3,2.7-3
				L244,57.6z"/>
			<path class="st14" d="M244.1,57.8c1.4-0.8,3.1-1.2,4.9-1.2c0.7,0,1.4,0.1,2,0.3c0.6,0.2,1.5,0.5,2,0.8l42.6,24.6
				c1.5,0.8,2.1,2.2,2,3.6c0,0.4-0.2,0.8-0.3,1.2c-0.4,0.9-1.6,2.1-2.6,2.7l-23.7,13.7c-0.3,0.2-0.7,0.4-1,0.5
				c-1.1,0.5-2.5,0.8-3.8,0.8c-1.5,0-2.9-0.3-3.9-0.9L219.3,79c-1.5-0.8-2.1-2.2-2-3.6c0.1-0.3,0.1-0.7,0.3-1c0.4-1,1.6-2.2,2.7-2.9
				L244.1,57.8z"/>
			<path class="st15" d="M244.2,58c1.4-0.8,3.2-1.2,4.9-1.2c0.7,0,1.4,0.2,2,0.3c0.5,0.1,1.5,0.6,2,0.8l42.4,24.5
				c1.5,0.8,2.1,2.2,1.8,3.6c-0.1,0.4-0.2,0.7-0.4,1.1c-0.4,0.8-1.7,2.1-2.7,2.6l-23.3,13.5c-0.2,0.1-0.7,0.4-1,0.5
				c-1.1,0.5-2.4,0.8-3.7,0.8c-1.5,0-2.8-0.3-3.9-0.9l-42.9-24.8c-1.5-0.8-2.1-2.2-1.8-3.6c0.1-0.3,0.2-0.6,0.3-0.9
				c0.3-0.9,1.8-2.2,2.8-2.8L244.2,58z"/>
			<path class="st16" d="M244.3,58.2c1.4-0.8,3.2-1.2,4.9-1.1c0.7,0,1.4,0.2,2,0.3c0.5,0.1,1.6,0.6,1.9,0.9l42.3,24.4
				c1.5,0.8,2,2.2,1.6,3.5c-0.1,0.3-0.3,0.7-0.5,1c-0.3,0.7-1.9,2-2.7,2.5l-23,13.3c-0.2,0.1-0.7,0.4-1,0.5
				c-1.1,0.5-2.4,0.8-3.6,0.8c-1.4,0-2.8-0.3-3.8-0.9l-42.9-24.8c-1.5-0.8-2-2.2-1.6-3.5c0.1-0.3,0.2-0.6,0.4-0.9
				c0.3-0.7,2-2.1,2.8-2.7L244.3,58.2z"/>
			<path class="st17" d="M244.4,58.4c1.4-0.8,3.2-1.2,4.9-1.1c0.7,0,1.4,0.2,1.9,0.4c0.4,0.1,1.6,0.7,1.9,0.9l42.1,24.3
				c1.4,0.8,1.9,2.1,1.5,3.5c-0.1,0.3-0.3,0.6-0.5,1c-0.3,0.6-2,2-2.7,2.4l-22.6,13.1c-0.2,0.1-0.8,0.4-0.9,0.5
				c-1.1,0.5-2.3,0.8-3.6,0.8c-1.4,0-2.8-0.2-3.8-0.8l-42.9-24.8c-1.5-0.8-1.9-2.2-1.4-3.5c0.1-0.3,0.3-0.6,0.4-0.8
				c0.3-0.6,2.1-2.1,2.9-2.5L244.4,58.4z"/>
			<path class="st18" d="M244.6,58.5c1.4-0.8,3.2-1.2,4.8-1c0.7,0,1.3,0.2,1.9,0.4c0.3,0.1,1.6,0.8,1.9,0.9l41.9,24.2
				c1.4,0.8,1.8,2.1,1.3,3.4c-0.1,0.3-0.3,0.6-0.6,0.9c-0.2,0.5-2.2,1.9-2.8,2.3l-22.3,12.9c-0.1,0.1-0.8,0.4-0.9,0.5
				c-1.1,0.5-2.3,0.8-3.5,0.8c-1.4,0.1-2.7-0.2-3.7-0.8l-42.9-24.8c-1.4-0.8-1.8-2.2-1.2-3.5c0.1-0.3,0.3-0.5,0.5-0.8
				c0.2-0.6,2.3-2.1,2.9-2.4L244.6,58.5z"/>
			<path class="st19" d="M244.7,58.7c1.4-0.8,3.2-1.1,4.8-1c0.7,0.1,1.3,0.3,1.9,0.5c0.3,0.1,1.6,0.8,1.9,0.9L295,83.2
				c1.4,0.8,1.8,2.1,1.1,3.4c-0.2,0.3-0.4,0.6-0.6,0.9c-0.1,0.4-2.3,1.9-2.8,2.2l-22,12.7c-0.1,0.1-0.8,0.4-0.9,0.5
				c-1,0.5-2.2,0.8-3.5,0.9c-1.4,0.1-2.7-0.2-3.6-0.8l-42.9-24.8c-1.4-0.8-1.8-2.2-1-3.4c0.1-0.3,0.3-0.5,0.6-0.8
				c0.1-0.4,2.5-2,3-2.3L244.7,58.7z"/>
			<path class="st20" d="M244.8,58.9c1.4-0.8,3.2-1.1,4.8-1c0.7,0.1,1.3,0.3,1.9,0.5c0.2,0.1,1.7,0.9,1.9,1l41.6,24
				c1.4,0.8,1.7,2.1,0.9,3.3c-0.2,0.3-0.4,0.6-0.7,0.8c-0.1,0.3-2.5,1.8-2.8,2l-21.6,12.5c-0.1,0.1-0.8,0.4-0.9,0.5
				c-1,0.5-2.2,0.8-3.4,0.9c-1.3,0.1-2.6-0.2-3.6-0.7L220,77.9c-1.4-0.8-1.7-2.2-0.9-3.4c0.2-0.2,0.4-0.5,0.6-0.7
				c0.1-0.3,2.6-2,3-2.2L244.8,58.9z"/>
			<path class="st21" d="M244.9,59.1c1.4-0.8,3.2-1.1,4.8-0.9c0.7,0.1,1.3,0.3,1.9,0.5c0.1,0,1.7,0.9,1.8,1l41.5,23.9
				c1.4,0.8,1.6,2.1,0.8,3.3c-0.2,0.3-0.4,0.5-0.8,0.8c-0.1,0.2-2.6,1.8-2.9,1.9l-21.3,12.3c-0.1,0-0.8,0.5-0.9,0.5
				c-1,0.5-2.1,0.8-3.3,0.9c-1.3,0.1-2.6-0.2-3.5-0.7l-42.9-24.8c-1.4-0.8-1.6-2.2-0.7-3.3c0.2-0.2,0.4-0.4,0.7-0.7
				c0.1-0.2,2.8-1.9,3.1-2.1L244.9,59.1z"/>
			<path class="st22" d="M245,59.3c1.4-0.8,3.2-1.1,4.8-0.9c0.7,0.1,1.3,0.3,1.9,0.6c0.1,0,1.8,1,1.8,1l41.3,23.8
				c1.4,0.8,1.6,2.1,0.6,3.2c-0.2,0.2-0.5,0.5-0.8,0.7c0,0.1-2.8,1.7-2.9,1.8l-20.9,12.1c0,0-0.8,0.5-0.9,0.5
				c-1,0.5-2.1,0.8-3.3,0.9c-1.3,0.1-2.6-0.1-3.5-0.7l-42.9-24.8c-1.4-0.8-1.6-2.2-0.5-3.3c0.2-0.2,0.4-0.4,0.7-0.6
				c0-0.1,3-1.9,3.1-1.9L245,59.3z"/>
			<path d="M263.2,102.1l-42.9-24.8c-1.7-1-1.5-2.7,0.5-3.8l24.4-14.1c2-1.1,4.9-1.2,6.6-0.3L294.6,84c1.7,1,1.5,2.7-0.5,3.8
				l-24.4,14.1C267.8,103,264.9,103.1,263.2,102.1z"/>
		</g>
		<path class="st23" d="M263.2,102.1l-42.9-24.8c-0.8-0.4-1.1-1-1.1-1.6c0,0,0-2.1,0-2.1c0-0.7,0.6,0.6,1.6-0.1l24.4-14.1
			c2-1.1,4.9-1.2,6.6-0.3L294.6,84c0.6,0.3,1-1.1,1.1-0.6c0,0.2,0,2.1,0,2.2c0,0.8-0.5,1.6-1.6,2.2l-24.4,14.1
			C267.8,102.9,264.9,103.1,263.2,102.1z"/>
		<path class="st23" d="M263.2,100l-42.9-24.8c-1.7-1-1.5-2.7,0.5-3.8l24.4-14.1c2-1.1,4.9-1.2,6.6-0.3l42.9,24.8
			c1.7,1,1.5,2.7-0.5,3.8l-24.4,14.1C267.8,100.9,264.9,101,263.2,100z"/>
		<path class="st6" d="M266,99.8c-1,0-1.8-0.2-2.4-0.6l-42.9-24.8c-0.3-0.2-0.7-0.5-0.7-0.9c0-0.5,0.4-1,1.2-1.4l24.4-14.1
			c0.9-0.5,2.1-0.8,3.3-0.8c1,0,1.8,0.2,2.4,0.5l42.9,24.8c0.3,0.2,0.7,0.5,0.7,0.9c0,0.5-0.5,1-1.2,1.4L269.3,99
			C268.5,99.5,267.2,99.8,266,99.8z"/>
		<path class="st24" d="M294.1,85.3l-24.4,14.1c-2,1.1-4.9,1.2-6.6,0.3l-42.9-24.8c-0.7-0.4-1.1-0.9-1.1-1.5
			c-0.1,0.7,0.3,1.4,1.1,1.9l42.9,24.8c1.7,1,4.6,0.9,6.6-0.3l24.4-14.1c1.1-0.7,1.7-1.5,1.6-2.3C295.7,84.1,295.1,84.8,294.1,85.3z
			"/>
		<path class="st23" d="M270.8,90.9l-34.9-20.1c-0.7-0.4-0.6-1.1,0.2-1.6l13.1-7.5c0.8-0.5,2-0.5,2.7-0.1l34.9,20.1
			c0.7,0.4,0.6,1.1-0.2,1.6l-13.1,7.6C272.7,91.2,271.5,91.3,270.8,90.9z"/>
		<path class="st6" d="M250,63.1l2.2,1.3c0.3,0.2,0.7,0.2,1,0c0.3-0.2,0.3-0.4,0-0.6l-2.2-1.3c-0.3-0.2-0.7-0.2-1,0
			C249.7,62.7,249.7,62.9,250,63.1z M253.8,65.3l1.1,0.6c0.3,0.2,0.7,0.2,1,0c0.3-0.2,0.3-0.4,0-0.6l-1.1-0.6c-0.3-0.2-0.7-0.2-1,0
			C253.5,64.9,253.5,65.2,253.8,65.3z M256.5,66.8l1.1,0.6c0.3,0.2,0.7,0.2,1,0c0.3-0.2,0.3-0.4,0-0.6l-1.1-0.6
			c-0.3-0.2-0.7-0.2-1,0C256.2,66.4,256.2,66.7,256.5,66.8z M259.1,68.4l1.1,0.6c0.3,0.2,0.7,0.2,1,0c0.3-0.2,0.3-0.4,0-0.6
			l-1.1-0.6c-0.3-0.2-0.7-0.2-1,0C258.8,67.9,258.8,68.2,259.1,68.4z M261.8,69.9l1.1,0.6c0.3,0.2,0.7,0.2,1,0
			c0.3-0.2,0.3-0.4,0-0.6l-1.1-0.6c-0.3-0.2-0.7-0.2-1,0C261.5,69.5,261.5,69.7,261.8,69.9z M264.4,71.4l1.1,0.6
			c0.3,0.2,0.7,0.2,1,0c0.3-0.2,0.3-0.4,0-0.6l-1.1-0.6c-0.3-0.2-0.7-0.2-1,0C264.1,71,264.1,71.3,264.4,71.4z M267.1,73l1.1,0.6
			c0.3,0.2,0.7,0.2,1,0c0.3-0.2,0.3-0.4,0-0.6l-1.1-0.6c-0.3-0.2-0.7-0.2-1,0C266.8,72.5,266.8,72.8,267.1,73z M269.7,74.5l1.1,0.6
			c0.3,0.2,0.7,0.2,1,0c0.3-0.2,0.3-0.4,0-0.6l-1.1-0.6c-0.3-0.2-0.7-0.2-1,0C269.4,74.1,269.4,74.3,269.7,74.5z M272.4,76l1.1,0.6
			c0.3,0.2,0.7,0.2,1,0c0.3-0.2,0.3-0.4,0-0.6l-1.1-0.6c-0.3-0.2-0.7-0.2-1,0C272.1,75.6,272.1,75.8,272.4,76z M275,77.6l1.1,0.6
			c0.3,0.2,0.7,0.2,1,0c0.3-0.2,0.3-0.4,0-0.6L276,77c-0.3-0.2-0.7-0.2-1,0C274.7,77.1,274.7,77.4,275,77.6z M277.6,79.1l1.1,0.6
			c0.3,0.2,0.7,0.2,1,0c0.3-0.2,0.3-0.4,0-0.6l-1.1-0.6c-0.3-0.2-0.7-0.2-1,0C277.4,78.7,277.4,78.9,277.6,79.1z M280.3,80.6
			l1.1,0.6c0.3,0.2,0.7,0.2,1,0c0.3-0.2,0.3-0.4,0-0.6l-1.1-0.6c-0.3-0.2-0.7-0.2-1,0C280,80.2,280,80.4,280.3,80.6z M283,82.2
			l1.1,0.6c0.3,0.2,0.7,0.2,1,0c0.3-0.2,0.3-0.4,0-0.6l-1.1-0.6c-0.3-0.2-0.7-0.2-1,0C282.7,81.7,282.7,82,283,82.2z M247.6,64.6
			l0.9,0.5c0.3,0.2,0.9,0.2,1.2,0l0.9-0.5c0.3-0.2,0.3-0.5,0-0.7l-0.9-0.5c-0.3-0.2-0.9-0.2-1.2,0l-0.9,0.5
			C247.3,64.1,247.3,64.4,247.6,64.6z M252.3,66.6l0.9-0.5c0.3-0.2,0.3-0.5,0-0.7l-0.9-0.5c-0.3-0.2-0.9-0.2-1.2,0l-0.9,0.5
			c-0.3,0.2-0.3,0.5,0,0.7l0.9,0.5C251.5,66.8,252,66.8,252.3,66.6z M252.9,67.6l0.9,0.5c0.3,0.2,0.9,0.2,1.2,0l0.9-0.5
			c0.3-0.2,0.3-0.5,0-0.7l-0.9-0.5c-0.3-0.2-0.9-0.2-1.2,0l-0.9,0.5C252.6,67.1,252.6,67.4,252.9,67.6z M255.6,69.2l0.9,0.5
			c0.3,0.2,0.9,0.2,1.2,0l0.9-0.5c0.3-0.2,0.3-0.5,0-0.7l-0.9-0.5c-0.3-0.2-0.9-0.2-1.2,0l-0.9,0.5C255.2,68.7,255.2,69,255.6,69.2z
			 M261.2,70l-0.9-0.5c-0.3-0.2-0.9-0.2-1.2,0l-0.9,0.5c-0.3,0.2-0.3,0.5,0,0.7l0.9,0.5c0.3,0.2,0.9,0.2,1.2,0l0.9-0.5
			C261.5,70.5,261.5,70.2,261.2,70z M263.8,71.5l-0.9-0.5c-0.3-0.2-0.9-0.2-1.2,0l-0.9,0.5c-0.3,0.2-0.3,0.5,0,0.7l0.9,0.5
			c0.3,0.2,0.9,0.2,1.2,0l0.9-0.5C264.2,72,264.2,71.7,263.8,71.5z M266.5,73.1l-0.9-0.5c-0.3-0.2-0.9-0.2-1.2,0l-0.9,0.5
			c-0.3,0.2-0.3,0.5,0,0.7l0.9,0.5c0.3,0.2,0.9,0.2,1.2,0l0.9-0.5C266.8,73.6,266.8,73.3,266.5,73.1z M269.1,74.6l-0.9-0.5
			c-0.3-0.2-0.9-0.2-1.2,0l-0.9,0.5c-0.3,0.2-0.3,0.5,0,0.7l0.9,0.5c0.3,0.2,0.9,0.2,1.2,0l0.9-0.5
			C269.5,75.1,269.5,74.8,269.1,74.6z M271.8,76.1l-0.9-0.5c-0.3-0.2-0.9-0.2-1.2,0l-0.9,0.5c-0.3,0.2-0.3,0.5,0,0.7l0.9,0.5
			c0.3,0.2,0.9,0.2,1.2,0l0.9-0.5C272.1,76.6,272.1,76.3,271.8,76.1z M274.4,77.7l-0.9-0.5c-0.3-0.2-0.9-0.2-1.2,0l-0.9,0.5
			c-0.3,0.2-0.3,0.5,0,0.7l0.9,0.5c0.3,0.2,0.9,0.2,1.2,0l0.9-0.5C274.8,78.1,274.8,77.8,274.4,77.7z M274.1,79.8l0.9,0.5
			c0.3,0.2,0.9,0.2,1.2,0l0.9-0.5c0.3-0.2,0.3-0.5,0-0.7l-0.9-0.5c-0.3-0.2-0.9-0.2-1.2,0l-0.9,0.5
			C273.8,79.4,273.8,79.7,274.1,79.8z M279.7,80.7l-0.9-0.5c-0.3-0.2-0.9-0.2-1.2,0l-0.9,0.5c-0.3,0.2-0.3,0.5,0,0.7l0.9,0.5
			c0.3,0.2,0.9,0.2,1.2,0l0.9-0.5C280.1,81.2,280,80.9,279.7,80.7z M283.6,82.9l-2.1-1.2c-0.3-0.2-0.9-0.2-1.2,0l-0.9,0.5
			c-0.3,0.2-0.3,0.5,0,0.7l2.1,1.2c0.3,0.2,0.9,0.2,1.2,0l0.9-0.5C283.9,83.4,283.9,83.1,283.6,82.9z M245.2,66l2.1,1.2
			c0.3,0.2,0.9,0.2,1.2,0l0.9-0.5c0.3-0.2,0.3-0.5,0-0.7l-2.1-1.2c-0.3-0.2-0.9-0.2-1.2,0l-0.9,0.5C244.8,65.5,244.8,65.8,245.2,66z
			 M249,68.2l0.9,0.5c0.3,0.2,0.9,0.2,1.2,0l0.9-0.5c0.3-0.2,0.3-0.5,0-0.7l-0.9-0.5c-0.3-0.2-0.9-0.2-1.2,0l-0.9,0.5
			C248.7,67.7,248.7,68,249,68.2z M252.6,70.2c0.3,0.2,0.9,0.2,1.2,0l0.9-0.5c0.3-0.2,0.3-0.5,0-0.7l-0.9-0.5
			c-0.3-0.2-0.9-0.2-1.2,0l-0.9,0.5c-0.3,0.2-0.3,0.5,0,0.7L252.6,70.2z M255.2,71.8c0.3,0.2,0.9,0.2,1.2,0l0.9-0.5
			c0.3-0.2,0.3-0.5,0-0.7l-0.9-0.5c-0.3-0.2-0.9-0.2-1.2,0l-0.9,0.5c-0.3,0.2-0.3,0.5,0,0.7L255.2,71.8z M257.8,71.6l-0.9,0.5
			c-0.3,0.2-0.3,0.5,0,0.7l0.9,0.5c0.3,0.2,0.9,0.2,1.2,0l0.9-0.5c0.3-0.2,0.3-0.5,0-0.7l-0.9-0.5C258.7,71.4,258.1,71.4,257.8,71.6
			z M260.5,73.1l-1,0.6c-0.3,0.2-0.3,0.4,0,0.6l1,0.6c0.3,0.2,0.8,0.2,1,0l1-0.6c0.3-0.2,0.3-0.4,0-0.6l-1-0.6
			C261.3,72.9,260.8,72.9,260.5,73.1z M263.2,74.6l-1,0.6c-0.3,0.2-0.3,0.4,0,0.6l1,0.6c0.3,0.2,0.8,0.2,1,0l1-0.6
			c0.3-0.2,0.3-0.4,0-0.6l-1-0.6C264,74.4,263.5,74.4,263.2,74.6z M265.8,76.1l-1,0.6c-0.3,0.2-0.3,0.4,0,0.6l1,0.6
			c0.3,0.2,0.8,0.2,1,0l1-0.6c0.3-0.2,0.3-0.4,0-0.6l-1-0.6C266.6,76,266.1,76,265.8,76.1z M268.5,77.7l-1,0.6
			c-0.3,0.2-0.3,0.4,0,0.6l1,0.6c0.3,0.2,0.8,0.2,1,0l1-0.6c0.3-0.2,0.3-0.4,0-0.6l-1-0.6C269.2,77.5,268.8,77.5,268.5,77.7z
			 M271.1,79.2l-1,0.6c-0.3,0.2-0.3,0.4,0,0.6l1,0.6c0.3,0.2,0.8,0.2,1,0l1-0.6c0.3-0.2,0.3-0.4,0-0.6l-1-0.6
			C271.9,79,271.4,79,271.1,79.2z M274.8,82.5l1-0.6c0.3-0.2,0.3-0.4,0-0.6l-1-0.6c-0.3-0.2-0.8-0.2-1,0l-1,0.6
			c-0.3,0.2-0.3,0.4,0,0.6l1,0.6C274.1,82.7,274.5,82.7,274.8,82.5z M277.5,84l1-0.6c0.3-0.2,0.3-0.4,0-0.6l-1-0.6
			c-0.3-0.2-0.8-0.2-1,0l-1,0.6c-0.3,0.2-0.3,0.4,0,0.6l1,0.6C276.7,84.2,277.2,84.2,277.5,84z M281.2,84.4l-1-0.6
			c-0.3-0.2-0.8-0.2-1,0l-1,0.6c-0.3,0.2-0.3,0.4,0,0.6l1,0.6c0.3,0.2,0.8,0.2,1,0l1-0.6C281.5,84.8,281.5,84.6,281.2,84.4z
			 M242.6,67.4l3.3,1.9c0.3,0.2,0.8,0.2,1.1,0l1-0.6c0.3-0.2,0.3-0.4,0-0.6l-3.3-1.9c-0.3-0.2-0.8-0.2-1.1,0l-1,0.6
			C242.4,66.9,242.4,67.2,242.6,67.4z M247.6,70.2l1,0.6c0.3,0.2,0.8,0.2,1.1,0l1-0.6c0.3-0.2,0.3-0.4,0-0.6l-1-0.6
			c-0.3-0.2-0.8-0.2-1.1,0l-1,0.6C247.3,69.8,247.3,70.1,247.6,70.2z M250.2,71.8l1,0.6c0.3,0.2,0.8,0.2,1.1,0l1-0.6
			c0.3-0.2,0.3-0.4,0-0.6l-1-0.6c-0.3-0.2-0.8-0.2-1.1,0l-1,0.6C249.9,71.3,249.9,71.6,250.2,71.8z M252.9,73.3l1,0.6
			c0.3,0.2,0.8,0.2,1.1,0l1-0.6c0.3-0.2,0.3-0.4,0-0.6l-1-0.6c-0.3-0.2-0.8-0.2-1.1,0l-1,0.6C252.6,72.8,252.6,73.1,252.9,73.3z
			 M257.6,75.4l1-0.6c0.3-0.2,0.3-0.4,0-0.6l-1-0.6c-0.3-0.2-0.8-0.2-1,0l-1,0.6c-0.3,0.2-0.3,0.4,0,0.6l1,0.6
			C256.9,75.6,257.3,75.6,257.6,75.4z M260.3,76.9l1-0.6c0.3-0.2,0.3-0.4,0-0.6l-1-0.6c-0.3-0.2-0.8-0.2-1,0l-1,0.6
			c-0.3,0.2-0.3,0.4,0,0.6l1,0.6C259.5,77.1,260,77.1,260.3,76.9z M262.9,78.5l1-0.6c0.3-0.2,0.3-0.4,0-0.6l-1-0.6
			c-0.3-0.2-0.8-0.2-1,0l-1,0.6c-0.3,0.2-0.3,0.4,0,0.6l1,0.6C262.1,78.6,262.6,78.6,262.9,78.5z M265.6,80l1-0.6
			c0.3-0.2,0.3-0.4,0-0.6l-1-0.6c-0.3-0.2-0.8-0.2-1,0l-1,0.6c-0.3,0.2-0.3,0.4,0,0.6l1,0.6C264.8,80.2,265.3,80.2,265.6,80z
			 M268.2,81.5l1-0.6c0.3-0.2,0.3-0.4,0-0.6l-1-0.6c-0.3-0.2-0.8-0.2-1,0l-1,0.6c-0.3,0.2-0.3,0.4,0,0.6l1,0.6
			C267.5,81.7,267.9,81.7,268.2,81.5z M270.9,83l1-0.6c0.3-0.2,0.3-0.4,0-0.6l-1-0.6c-0.3-0.2-0.8-0.2-1,0l-1,0.6
			c-0.3,0.2-0.3,0.4,0,0.6l1,0.6C270.1,83.2,270.6,83.2,270.9,83z M271.4,84l1,0.6c0.3,0.2,0.8,0.2,1,0l1-0.6c0.3-0.2,0.3-0.4,0-0.6
			l-1-0.6c-0.3-0.2-0.8-0.2-1,0l-1,0.6C271.1,83.5,271.1,83.8,271.4,84z M278.8,85.8l-2.6-1.5c-0.3-0.2-0.8-0.2-1,0l-1,0.6
			c-0.3,0.2-0.3,0.4,0,0.6l2.6,1.5c0.3,0.2,0.8,0.2,1,0l1-0.6C279,86.3,279,86,278.8,85.8z M240.2,68.8l4.7,2.7
			c0.3,0.2,0.9,0.2,1.2,0l0.9-0.5c0.3-0.2,0.3-0.5,0-0.7l-4.7-2.7c-0.3-0.2-0.9-0.2-1.2,0l-0.9,0.5
			C239.9,68.3,239.9,68.7,240.2,68.8z M246.7,72.6l0.9,0.5c0.3,0.2,0.9,0.2,1.2,0l0.9-0.5c0.3-0.2,0.3-0.5,0-0.7l-0.9-0.5
			c-0.3-0.2-0.9-0.2-1.2,0l-0.9,0.5C246.3,72.1,246.3,72.4,246.7,72.6z M249.3,74.1l0.9,0.5c0.3,0.2,0.9,0.2,1.2,0l0.9-0.5
			c0.3-0.2,0.3-0.5,0-0.7l-0.9-0.5c-0.3-0.2-0.9-0.2-1.2,0l-0.9,0.5C249,73.6,249,73.9,249.3,74.1z M252,75.7l0.9,0.5
			c0.3,0.2,0.9,0.2,1.2,0l0.9-0.5c0.3-0.2,0.3-0.5,0-0.7l-0.9-0.5c-0.3-0.2-0.9-0.2-1.2,0L252,75C251.6,75.2,251.6,75.5,252,75.7z
			 M254.6,77.2l0.9,0.5c0.3,0.2,0.9,0.2,1.2,0l0.9-0.5c0.3-0.2,0.3-0.5,0-0.7l-0.9-0.5c-0.3-0.2-0.9-0.2-1.2,0l-0.9,0.5
			C254.3,76.7,254.3,77,254.6,77.2z M257.3,78.7l0.9,0.5c0.3,0.2,0.9,0.2,1.2,0l0.9-0.5c0.3-0.2,0.3-0.5,0-0.7l-0.9-0.5
			c-0.3-0.2-0.9-0.2-1.2,0l-0.9,0.5C256.9,78.2,256.9,78.5,257.3,78.7z M259.9,80.2l0.9,0.5c0.3,0.2,0.9,0.2,1.2,0l0.9-0.5
			c0.3-0.2,0.3-0.5,0-0.7L262,79c-0.3-0.2-0.9-0.2-1.2,0l-0.9,0.5C259.6,79.7,259.6,80,259.9,80.2z M262.6,81.8l0.9,0.5
			c0.3,0.2,0.9,0.2,1.2,0l0.9-0.5c0.3-0.2,0.3-0.5,0-0.7l-0.9-0.5c-0.3-0.2-0.9-0.2-1.2,0l-0.9,0.5
			C262.2,81.3,262.2,81.6,262.6,81.8z M265.2,83.3l0.9,0.5c0.3,0.2,0.9,0.2,1.2,0l0.9-0.5c0.3-0.2,0.3-0.5,0-0.7l-0.9-0.5
			c-0.3-0.2-0.9-0.2-1.2,0l-0.9,0.5C264.9,82.8,264.9,83.1,265.2,83.3z M267.9,84.8l0.9,0.5c0.3,0.2,0.9,0.2,1.2,0l0.9-0.5
			c0.3-0.2,0.3-0.5,0-0.7l-0.9-0.5c-0.3-0.2-0.9-0.2-1.2,0l-0.9,0.5C267.5,84.3,267.5,84.6,267.9,84.8z M270.5,86.3l0.9,0.5
			c0.3,0.2,0.9,0.2,1.2,0l0.9-0.5c0.3-0.2,0.3-0.5,0-0.7l-0.9-0.5c-0.3-0.2-0.9-0.2-1.2,0l-0.9,0.5
			C270.2,85.8,270.2,86.2,270.5,86.3z M276.2,87.2l-0.9-0.5c-0.3-0.2-0.9-0.2-1.2,0l-0.9,0.5c-0.3,0.2-0.3,0.5,0,0.7l0.9,0.5
			c0.3,0.2,0.9,0.2,1.2,0l0.9-0.5C276.5,87.7,276.5,87.4,276.2,87.2z M241.9,70.3l-2.1-1.2c-0.3-0.2-0.9-0.2-1.2,0l-0.9,0.5
			c-0.3,0.2-0.3,0.5,0,0.7l2.1,1.2c0.3,0.2,0.9,0.2,1.2,0l0.9-0.5C242.2,70.8,242.2,70.5,241.9,70.3z M244.5,71.8l-0.9-0.5
			c-0.3-0.2-0.9-0.2-1.2,0l-0.9,0.5c-0.3,0.2-0.3,0.5,0,0.7l0.9,0.5c0.3,0.2,0.9,0.2,1.2,0l0.9-0.5C244.9,72.3,244.9,72,244.5,71.8z
			 M247.2,73.3l-0.9-0.5c-0.3-0.2-0.9-0.2-1.2,0l-0.9,0.5c-0.3,0.2-0.3,0.5,0,0.7l0.9,0.5c0.3,0.2,0.9,0.2,1.2,0l0.9-0.5
			C247.5,73.8,247.5,73.5,247.2,73.3z M265.7,84L249,74.3c-0.3-0.2-0.9-0.2-1.2,0l-0.9,0.5c-0.3,0.2-0.3,0.5,0,0.7l16.8,9.7
			c0.3,0.2,0.9,0.2,1.2,0l0.9-0.5C266.1,84.5,266.1,84.2,265.7,84z M268.4,85.6l-0.9-0.5c-0.3-0.2-0.9-0.2-1.2,0l-0.9,0.5
			c-0.3,0.2-0.3,0.5,0,0.7l0.9,0.5c0.3,0.2,0.9,0.2,1.2,0l0.9-0.5C268.7,86.1,268.7,85.8,268.4,85.6z M271,87.1l-0.9-0.5
			c-0.3-0.2-0.9-0.2-1.2,0l-0.9,0.5c-0.3,0.2-0.3,0.5,0,0.7l0.9,0.5c0.3,0.2,0.9,0.2,1.2,0l0.9-0.5C271.4,87.6,271.4,87.3,271,87.1z
			 M273.7,88.6l-0.9-0.5c-0.3-0.2-0.9-0.2-1.2,0l-0.9,0.5c-0.3,0.2-0.3,0.5,0,0.7l0.9,0.5c0.3,0.2,0.9,0.2,1.2,0l0.9-0.5
			C274.1,89.1,274.1,88.8,273.7,88.6z"/>
		<g>
			<path class="st25" d="M293.9,81.5l-41.4-23.9c-1.6-0.9-2.9-3.4-2.9-5.5V19.7c0-2.1,1.3-3.1,2.9-2.2l41.4,23.9
				c1.6,0.9,2.9,3.4,2.9,5.5v32.4C296.8,81.5,295.5,82.4,293.9,81.5z"/>
			<path class="st7" d="M294.3,79.9l-40.9-23.6c-1.3-0.8-2.1-2.5-2.1-4.1V19.5c0-0.4,0.4-0.6,0.8-0.4c0,0,0.1,0,0.1,0l40.9,23.6
				c1.5,0.9,2.1,2.5,2.1,4.1v32.5C295.2,79.8,294.7,80.1,294.3,79.9C294.4,79.9,294.3,79.9,294.3,79.9z"/>
			<path class="st26" d="M293.1,42.8l-40.9-23.6c0,0-0.1,0-0.1,0c-0.3-0.2-0.8,0-0.8,0.4v32.6c0,1.7,0.8,3.3,2.1,4.1l40.9,23.6
				c0,0,0,0,0.1,0c0.4,0.2,0.8-0.1,0.8-0.5V46.9C295.2,45.2,294.6,43.7,293.1,42.8z M294.9,79.4c0,0.1-0.1,0.2-0.2,0.2
				c0,0-0.1,0-0.1,0l-41-23.7c-1.2-0.7-1.9-2.2-1.9-3.8V19.5c0-0.1,0.1-0.2,0.2-0.2c0,0,0.1,0,0.1,0l41,23.7
				c1.6,0.9,1.9,2.6,1.9,3.8L294.9,79.4L294.9,79.4z"/>
			<path class="st27" d="M294.8,40.9L253.4,17c-0.6-0.4-1.2-0.4-1.7-0.2c-0.1,0-0.9,0.5-0.9,0.5l0,0c0.5-0.2,1.1-0.2,1.8,0.2
				l41.4,23.9c1.6,0.9,2.9,3.4,2.9,5.5v32.4c0,1.3-0.5,2.2-1.3,2.5c0.1,0,0.1,0,0.2-0.1c0,0,0.9-0.5,1-0.5c0.5-0.4,0.9-1.2,0.9-2.3
				V46.5C297.6,44.3,296.4,41.8,294.8,40.9z"/>
		</g>
		<g>
			<g>
				
					<linearGradient id="SVGID_00000115499362934164593430000004116740322296644520_" gradientUnits="userSpaceOnUse" x1="4493.7485" y1="164.7813" x2="4491.4731" y2="168.7237" gradientTransform="matrix(-1 0 0 -1 4779.0786 257.8898)">
					<stop  offset="0.2879" style="stop-color:#838091"/>
					<stop  offset="0.4656" style="stop-color:#A5A2B1"/>
					<stop  offset="0.5859" style="stop-color:#B7B4C2"/>
					<stop  offset="0.8081" style="stop-color:#9B98A7"/>
				</linearGradient>
				<path style="fill:url(#SVGID_00000115499362934164593430000004116740322296644520_);" d="M284.9,92.2c0,0.5,0.2,0.8,0.4,1
					c0,0,0.5,0.3,0.5,0.3c0.3,0.2,0.1-0.2,0.5-0.4c0.8-0.5,1.5-1.7,1.5-2.6c0-0.5,0.4-0.5,0.2-0.6c0,0-0.5-0.3-0.5-0.3
					c-0.3-0.2-0.6-0.1-1,0.1C285.6,90.1,284.9,91.2,284.9,92.2z"/>
				
					<linearGradient id="SVGID_00000037654922287265484680000002702783756943397020_" gradientUnits="userSpaceOnUse" x1="4491.4351" y1="165.0943" x2="4493.4458" y2="168.5605" gradientTransform="matrix(-1 0 0 -1 4779.0786 257.8898)">
					<stop  offset="3.540000e-02" style="stop-color:#9D9EB3"/>
					<stop  offset="0.5808" style="stop-color:#D4D1D8"/>
					<stop  offset="1" style="stop-color:#EEEBF2"/>
				</linearGradient>
				<path style="fill:url(#SVGID_00000037654922287265484680000002702783756943397020_);" d="M285.4,92.5c0,1,0.7,1.3,1.5,0.9
					c0.8-0.5,1.5-1.7,1.5-2.6c0-1-0.7-1.3-1.5-0.9S285.4,91.5,285.4,92.5z"/>
				
					<linearGradient id="SVGID_00000183247689026148067050000013186328690659107221_" gradientUnits="userSpaceOnUse" x1="4492.7637" y1="164.5855" x2="4490.8105" y2="167.9694" gradientTransform="matrix(-1 0 0 -1 4779.0786 257.8898)">
					<stop  offset="0.1667" style="stop-color:#838091"/>
					<stop  offset="0.4167" style="stop-color:#A5A2B1"/>
					<stop  offset="0.5859" style="stop-color:#B7B4C2"/>
					<stop  offset="0.9091" style="stop-color:#9B98A7"/>
				</linearGradient>
				<path style="fill:url(#SVGID_00000183247689026148067050000013186328690659107221_);" d="M285.8,92.4c0,0.4,0.1,0.7,0.4,0.8
					c0,0,0.7,0.4,0.7,0.4c0.2,0.1,0.1-0.2,0.4-0.4c0.7-0.4,1.3-1.4,1.3-2.2c0-0.4,0.4-0.4,0.1-0.5c0,0-0.8-0.4-0.8-0.4
					c-0.2-0.1-0.5-0.1-0.9,0.1C286.4,90.6,285.8,91.6,285.8,92.4z"/>
				
					<linearGradient id="SVGID_00000025439018100535851680000012949131088568316570_" gradientUnits="userSpaceOnUse" x1="4490.623" y1="164.758" x2="4492.3491" y2="167.7332" gradientTransform="matrix(-1 0 0 -1 4779.0786 257.8898)">
					<stop  offset="3.540000e-02" style="stop-color:#9D9EB3"/>
					<stop  offset="0.5808" style="stop-color:#D4D1D8"/>
					<stop  offset="1" style="stop-color:#EEEBF2"/>
				</linearGradient>
				<path style="fill:url(#SVGID_00000025439018100535851680000012949131088568316570_);" d="M286.6,92.8c0,0.8,0.6,1.2,1.3,0.7
					c0.7-0.4,1.3-1.4,1.3-2.2s-0.6-1.2-1.3-0.7S286.6,92,286.6,92.8z"/>
				<path class="st32" d="M286.9,89.8c0.4-0.2,0.8-0.3,1-0.1c-0.2-0.1-0.6,0-0.9,0.2c-0.8,0.5-1.5,1.7-1.5,2.6c0,0.5,0.2,0.8,0.5,1
					c-0.4-0.1-0.6-0.5-0.6-1C285.4,91.5,286,90.3,286.9,89.8z"/>
				
					<radialGradient id="SVGID_00000102525884814272907460000006003865924901136541_" cx="4491.8564" cy="166.2842" r="1.4057" gradientTransform="matrix(-1 0 0 -1 4779.0786 257.8898)" gradientUnits="userSpaceOnUse">
					<stop  offset="0" style="stop-color:#FFFFFF"/>
					<stop  offset="1" style="stop-color:#000000"/>
				</radialGradient>
				<path style="fill:url(#SVGID_00000102525884814272907460000006003865924901136541_);" d="M287.8,90.6c0.3-0.2,0.7-0.2,0.9-0.1
					c-0.2-0.1-0.5,0-0.8,0.2c-0.7,0.4-1.3,1.4-1.3,2.2c0,0.4,0.2,0.7,0.4,0.8c-0.3-0.1-0.5-0.4-0.5-0.9
					C286.5,92,287.1,91,287.8,90.6z"/>
				<path class="st34" d="M287.2,92.6c0,0.5,0.3,0.7,0.8,0.4c0.4-0.2,0.8-0.8,0.8-1.3s-0.3-0.7-0.8-0.4
					C287.5,91.6,287.2,92.2,287.2,92.6z"/>
			</g>
		</g>
	</g>
	<g>
		<g>
			<g class="st11">
				<path class="st12" d="M73.9,94.2c1.2,0,2.4-0.3,3.3-0.8l22.7-13.2c1.2-0.7,1.9-1.8,1.9-3c0-1.3-0.8-2.6-2.3-3.4l-19.9-7.7
					c-1.1-0.7-2.5-1-4-1c-1.2,0-2.4,0.3-3.3,0.8l-15.3,8.9c-1.2,0.7-1.9,1.8-1.9,3c0,1.3,0.8,2.6,2.3,3.4l12.5,11.9
					C71.1,93.9,72.5,94.2,73.9,94.2z"/>
				<path class="st13" d="M72.4,66.1L57.3,75c0,0-0.2,0.1-0.2,0.1c-1.2,0.7-1.7,1.8-1.7,3c0.1,1.2,1,2.6,2.3,3.3L70,93.1
					c1.2,0.7,2.7,1,4.1,0.9c1.1,0,2.4-0.4,3.2-0.8l22.5-13.1c1.2-0.7,1.8-1.7,1.8-2.8c0-1.3-0.8-2.4-2.2-3.2l-19.8-7.6
					c-0.4-0.2-0.9-0.4-1.4-0.6c-0.8-0.3-1.7-0.4-2.6-0.4C74.4,65.3,73.3,65.6,72.4,66.1z"/>
				<path class="st14" d="M72.5,66.2l-15.2,8.9c0,0-0.2,0.1-0.2,0.1c-1.2,0.7-1.6,1.8-1.4,3c0.1,1.1,1.1,2.5,2.3,3.2l12.1,11.5
					c1.2,0.7,2.8,1,4.2,0.9c1,0,2.4-0.5,3.2-0.9l22.3-12.9c1.1-0.6,1.7-1.6,1.7-2.7c0-1.2-0.8-2.3-2.1-3.1l-19.7-7.6
					c-0.3-0.2-1-0.5-1.4-0.6c-0.8-0.3-1.7-0.4-2.5-0.5C74.5,65.5,73.4,65.8,72.5,66.2z"/>
				<path class="st15" d="M72.6,66.4l-15.2,8.9c0,0-0.2,0.1-0.2,0.1c-1.2,0.7-1.6,1.9-1.2,3c0,1,1.3,2.5,2.3,3.1l11.8,11.3
					c1.2,0.7,2.9,1,4.3,0.8c0.9,0,2.4-0.6,3.1-1l22-12.8c1.1-0.6,1.6-1.5,1.6-2.6c0-1.1-0.7-2.2-2-2.9l-19.6-7.5
					c-0.3-0.2-1-0.5-1.4-0.6c-0.8-0.3-1.6-0.5-2.5-0.5C74.6,65.7,73.5,65.9,72.6,66.4z"/>
				<path class="st16" d="M72.7,66.6l-15.2,8.9c0,0-0.2,0.1-0.2,0.1c-1.2,0.7-1.5,1.9-1,3c0,0.8,1.4,2.5,2.3,3l11.6,11.1
					c1.3,0.8,3.1,1,4.5,0.7c0.8,0,2.5-0.7,3-1.1l21.8-12.7c1-0.6,1.6-1.5,1.5-2.4c0-1.1-0.7-2.1-1.9-2.8L79.7,67
					c-0.3-0.2-1.1-0.5-1.4-0.6c-0.8-0.3-1.6-0.5-2.5-0.5C74.7,65.8,73.5,66.1,72.7,66.6z"/>
				<path class="st17" d="M72.8,66.7l-15.2,8.9c0,0-0.1,0.1-0.2,0.1c-1.2,0.7-1.5,1.9-0.8,3c0,0.7,1.6,2.5,2.3,2.9l11.4,10.9
					c1.3,0.8,3.2,1,4.6,0.7c0.7,0,2.5-0.8,3-1.1l21.5-12.5c1-0.6,1.5-1.4,1.4-2.3c0-1-0.7-1.9-1.8-2.6l-19.3-7.4
					c-0.2-0.1-1.1-0.5-1.4-0.6c-0.8-0.3-1.6-0.5-2.4-0.5C74.8,66,73.6,66.2,72.8,66.7z"/>
				<path class="st18" d="M72.9,66.8l-15.2,8.9c0,0-0.1,0.1-0.2,0.1c-1.2,0.8-1.4,1.9-0.5,3c0,0.6,1.7,2.4,2.4,2.8l11.2,10.7
					c1.4,0.8,3.3,1,4.7,0.6c0.6,0,2.5-0.9,2.9-1.2l21.3-12.4c0.9-0.5,1.4-1.3,1.3-2.2c0-0.9-0.6-1.8-1.7-2.4l-19.2-7.4
					c-0.2-0.1-1.2-0.5-1.4-0.6c-0.8-0.3-1.6-0.5-2.4-0.6C74.8,66.2,73.7,66.4,72.9,66.8z"/>
				<path class="st19" d="M72.9,67l-15.2,8.9c0,0-0.1,0.1-0.2,0.1c-1.2,0.8-1.3,2-0.3,3c0,0.5,1.9,2.4,2.4,2.7l10.9,10.4
					c1.4,0.8,3.4,1,4.8,0.5c0.4,0,2.5-1.1,2.8-1.2l21.1-12.2c0.9-0.5,1.3-1.2,1.3-2c0-0.8-0.6-1.7-1.7-2.3l-19.1-7.3
					c-0.2-0.1-1.2-0.5-1.4-0.6c-0.7-0.3-1.6-0.5-2.4-0.6C74.9,66.3,73.8,66.5,72.9,67z"/>
				<path class="st20" d="M73,67.2l-15.2,8.9c0,0-0.1,0.1-0.2,0.1c-1.2,0.8-1.2,2-0.1,3c0,0.4,2,2.4,2.4,2.6L70.6,92
					c1.5,0.8,3.6,1,5,0.4c0.3,0,2.5-1.2,2.8-1.3L99.2,79c0.8-0.5,1.2-1.2,1.2-1.9c0-0.8-0.6-1.5-1.6-2.1l-19-7.3
					c-0.1-0.1-1.2-0.5-1.4-0.6c-0.7-0.3-1.5-0.6-2.4-0.6C75,66.5,73.8,66.7,73,67.2z"/>
				<path class="st21" d="M73.1,67.3l-15.2,8.9c0,0-0.1,0.1-0.2,0.1c-1.2,0.8-1.1,2,0.1,3c0,0.2,2.2,2.4,2.4,2.5l10.5,10
					c1.5,0.9,3.7,1,5.1,0.4c0.2,0,2.6-1.3,2.7-1.4l20.6-12c0.8-0.4,1.1-1.1,1.1-1.7c-0.1-0.7-0.6-1.4-1.5-1.9l-18.8-7.2
					c-0.1,0-1.3-0.5-1.4-0.5c-0.7-0.3-1.5-0.6-2.3-0.7C75.1,66.7,73.9,66.8,73.1,67.3z"/>
				<path class="st22" d="M73.2,67.4l-15.3,9c-0.1,0-0.1,0.1-0.2,0.1c-1.2,0.8-1,2.1,0.3,3c0,0.1,2.3,2.4,2.4,2.4l10.3,9.8
					c1.5,0.9,3.8,1,5.2,0.3c0.1,0,2.6-1.4,2.7-1.4l20.4-11.8c0.7-0.4,1.1-1,1-1.6c-0.1-0.6-0.5-1.3-1.4-1.8L80,68.2
					c0,0-1.3-0.5-1.4-0.5c-0.7-0.3-1.5-0.6-2.3-0.7C75.1,66.8,74,67,73.2,67.4z"/>
				<path d="M76.2,91.8L99,78.6c1.4-0.8,1.2-2.2-0.4-3.1l-20-7.7c-1.6-0.9-4-1-5.3-0.2L58,76.6c-1.4,0.8-1.2,2.2,0.4,3.1l12.5,11.9
					C72.5,92.5,74.9,92.6,76.2,91.8z"/>
			</g>
			<path class="st35" d="M76.2,92.7L99,79.5c0.6-0.3,0.9-0.8,0.9-1.3c0,0,0-2.7,0-2.7c0-0.6-0.4,0.4-1.3-0.1l-19.9-6.7
				c-1.6-0.9-4-1-5.3-0.2l-15.3,8c-0.5,0.3-0.8-0.9-0.9-0.5c0,0.1,0,2.7,0,2.8c0,0.6,0.4,1.3,1.3,1.8l12.5,11.9
				C72.5,93.4,74.9,93.5,76.2,92.7z"/>
			<path class="st6" d="M76.2,90.1L99,76.9c1.4-0.8,1.2-2.2-0.4-3.1l-20-7.7c-1.6-0.9-4-1-5.3-0.2L58,74.8c-1.4,0.8-1.2,2.2,0.4,3.1
				l12.5,11.9C72.5,90.8,74.9,90.9,76.2,90.1z"/>
			
				<linearGradient id="SVGID_00000016778706636435560590000007991439259127033787_" gradientUnits="userSpaceOnUse" x1="6005.7808" y1="180.6713" x2="6009.7983" y2="187.4074" gradientTransform="matrix(-1 0 0 -1 6081.021 257.8898)">
				<stop  offset="0" style="stop-color:#FFFFFF;stop-opacity:0"/>
				<stop  offset="1" style="stop-color:#000000"/>
			</linearGradient>
			
				<path style="opacity:0.8182;fill:url(#SVGID_00000016778706636435560590000007991439259127033787_);enable-background:new    ;" d="
				M58,74.8l15.3-8.9c1.4-0.8,3.8-0.7,5.3,0.2L88.7,70c-0.1,0.1-0.2,0.2-0.3,0.2L65.6,83.4c-0.3,0.2-0.7,0.3-1.1,0.4l-6.2-5.9
				C56.8,77,56.7,75.6,58,74.8z"/>
			<path class="st24" d="M58.4,77.6l12.5,11.9c1.6,0.9,4,1,5.3,0.2L99,76.6c0.6-0.3,0.9-0.8,0.9-1.2c0.1,0.6-0.2,1.1-0.9,1.5
				L76.2,90.1c-1.4,0.8-3.8,0.7-5.3-0.2L58.4,77.9c-0.9-0.5-1.4-1.2-1.3-1.9C57.2,76.6,57.6,77.2,58.4,77.6z"/>
		</g>
		<g>
			<path class="st25" d="M46.5,90.1l55.8-32.3c2.8-1.7,5.2-6.1,5.2-9.9V5.3c0-3.8-2.3-5.6-5.2-3.9L46.5,33.7
				c-2.8,1.7-5.2,6.1-5.2,9.9v42.7C41.4,90,43.7,91.8,46.5,90.1z"/>
			<path class="st7" d="M45.9,87.2l55-31.8c2.3-1.5,3.7-4.4,3.7-7.4V5c0-0.7-0.8-1.2-1.4-0.8c-0.1,0-0.1,0.1-0.2,0.1L48,36.2
				c-2.7,1.6-3.7,4.4-3.7,7.4v42.8c0,0.8,0.8,1.2,1.5,0.9C45.8,87.2,45.8,87.2,45.9,87.2z"/>
			<path class="st24" d="M44.3,43.5v42.8c0,0.8,0.8,1.2,1.5,0.9c0,0,0.1-0.1,0.1-0.1l55-31.8c2.3-1.5,3.7-4.4,3.7-7.4V5
				c0-0.7-0.8-1.2-1.4-0.8c-0.1,0-0.1,0.1-0.2,0.1L48,36.2C45.2,37.8,44.3,40.5,44.3,43.5z M44.8,43.5c0-2.2,0.6-5.2,3.4-6.9
				l55.3-31.9c0.1,0,0.1-0.1,0.2-0.1c0.2,0,0.3,0.1,0.3,0.3v43c0,2.8-1.3,5.5-3.4,6.9L45.5,86.7c-0.1,0-0.1,0.1-0.2,0.1
				c-0.2,0-0.4-0.2-0.4-0.4V43.5z"/>
			<path class="st27" d="M45.1,32.9l55.8-32.3c1.1-0.6,2.2-0.8,3-0.4c0.1,0,1.6,0.8,1.7,0.9l0,0c-0.9-0.4-2-0.4-3.2,0.4L46.5,33.7
				c-2.8,1.7-5.2,6.1-5.2,9.9v42.7c0,2.4,0.9,3.9,2.3,4.4c-0.1,0-0.2,0-0.5-0.2c-0.1,0-1.6-0.9-1.7-1c-1-0.7-1.6-2.1-1.6-4.1V42.8
				C39.9,39,42.2,34.5,45.1,32.9z"/>
		</g>
		<g>
			<g>
				
					<linearGradient id="SVGID_00000065793226994383499710000007449861628233469837_" gradientUnits="userSpaceOnUse" x1="-1105.4406" y1="170.4855" x2="-1107.8854" y2="174.7213" gradientTransform="matrix(1 0 0 -1 1171.4633 257.8898)">
					<stop  offset="0.2879" style="stop-color:#838091"/>
					<stop  offset="0.4656" style="stop-color:#A5A2B1"/>
					<stop  offset="0.5859" style="stop-color:#B7B4C2"/>
					<stop  offset="0.8081" style="stop-color:#9B98A7"/>
				</linearGradient>
				<path style="fill:url(#SVGID_00000065793226994383499710000007449861628233469837_);" d="M66.5,86.4c0,0.5-0.2,0.9-0.4,1
					l-0.5,0.3c-0.3,0.2-0.1-0.2-0.6-0.5c-0.9-0.5-1.6-1.8-1.6-2.8c0-0.5-0.5-0.5-0.2-0.7c0,0,0.6-0.3,0.6-0.3
					c0.3-0.2,0.7-0.1,1.1,0.1C65.7,84.1,66.5,85.4,66.5,86.4z"/>
				
					<linearGradient id="SVGID_00000165232757560481019230000004670823272280274064_" gradientUnits="userSpaceOnUse" x1="-1107.9281" y1="170.8209" x2="-1105.7676" y2="174.5449" gradientTransform="matrix(1 0 0 -1 1171.4633 257.8898)">
					<stop  offset="3.540000e-02" style="stop-color:#9D9EB3"/>
					<stop  offset="0.5808" style="stop-color:#D4D1D8"/>
					<stop  offset="1" style="stop-color:#EEEBF2"/>
				</linearGradient>
				<path style="fill:url(#SVGID_00000165232757560481019230000004670823272280274064_);" d="M65.9,86.7c0,1-0.7,1.4-1.6,0.9
					c-0.9-0.5-1.6-1.8-1.6-2.8c0-1,0.7-1.4,1.6-0.9C65.2,84.4,65.9,85.7,65.9,86.7z"/>
				
					<linearGradient id="SVGID_00000012448853438696896180000010890947363521463201_" gradientUnits="userSpaceOnUse" x1="-1106.5072" y1="170.2702" x2="-1108.6057" y2="173.9059" gradientTransform="matrix(1 0 0 -1 1171.4633 257.8898)">
					<stop  offset="0.1667" style="stop-color:#838091"/>
					<stop  offset="0.4167" style="stop-color:#A5A2B1"/>
					<stop  offset="0.5859" style="stop-color:#B7B4C2"/>
					<stop  offset="0.9091" style="stop-color:#9B98A7"/>
				</linearGradient>
				<path style="fill:url(#SVGID_00000012448853438696896180000010890947363521463201_);" d="M65.5,86.7c0,0.4-0.2,0.7-0.4,0.9
					c0,0-0.8,0.5-0.8,0.5c-0.3,0.1-0.1-0.2-0.5-0.4c-0.8-0.4-1.4-1.5-1.4-2.4c0-0.4-0.4-0.4-0.2-0.6c0,0,0.8-0.5,0.8-0.5
					c0.2-0.1,0.6-0.1,1,0.1C64.9,84.7,65.5,85.8,65.5,86.7z"/>
				
					<linearGradient id="SVGID_00000104681483074422681430000006610083499518061459_" gradientUnits="userSpaceOnUse" x1="-1108.811" y1="170.4656" x2="-1106.9567" y2="173.662" gradientTransform="matrix(1 0 0 -1 1171.4633 257.8898)">
					<stop  offset="3.540000e-02" style="stop-color:#9D9EB3"/>
					<stop  offset="0.5808" style="stop-color:#D4D1D8"/>
					<stop  offset="1" style="stop-color:#EEEBF2"/>
				</linearGradient>
				<path style="fill:url(#SVGID_00000104681483074422681430000006610083499518061459_);" d="M64.7,87.1c0,0.9-0.6,1.2-1.4,0.8
					c-0.8-0.4-1.4-1.5-1.4-2.4c0-0.9,0.6-1.2,1.4-0.8C64.1,85.2,64.7,86.2,64.7,87.1z"/>
				<path class="st32" d="M64.4,83.9c-0.4-0.2-0.8-0.3-1.1-0.1c0.3-0.1,0.6,0,1,0.2c0.9,0.5,1.6,1.8,1.6,2.8c0,0.5-0.2,0.9-0.5,1.1
					c0.4-0.1,0.7-0.5,0.7-1.1C66,85.7,65.2,84.4,64.4,83.9z"/>
				
					<radialGradient id="SVGID_00000008143083502987032160000011279886122224997253_" cx="-1107.4755" cy="172.0993" r="1.5104" gradientTransform="matrix(1 0 0 -1 1171.4633 257.8898)" gradientUnits="userSpaceOnUse">
					<stop  offset="0" style="stop-color:#FFFFFF"/>
					<stop  offset="1" style="stop-color:#000000"/>
				</radialGradient>
				<path style="fill:url(#SVGID_00000008143083502987032160000011279886122224997253_);" d="M63.4,84.7c-0.4-0.2-0.7-0.2-1-0.1
					c0.2-0.1,0.5,0,0.8,0.2c0.8,0.4,1.4,1.5,1.4,2.4c0,0.5-0.2,0.8-0.4,0.9c0.3-0.1,0.6-0.4,0.6-1C64.8,86.2,64.1,85.1,63.4,84.7z"
					/>
				<path class="st34" d="M64,86.9c0,0.5-0.4,0.7-0.8,0.5c-0.4-0.3-0.8-0.9-0.8-1.4c0-0.5,0.4-0.7,0.8-0.5
					C63.7,85.8,64,86.4,64,86.9z"/>
			</g>
		</g>
	</g>
	<g>
		<g class="st11">
			<path class="st12" d="M258.3,244.5c-1.6,0-3.1-0.4-4.2-1l-17-10.4c-1.5-0.9-2.4-2.3-2.4-3.8c0-1.7,1.1-3.3,2.9-4.4l25.3-14.6
				c1.5-0.8,3.3-1.3,5.1-1.3c1.6,0,3.1,0.4,4.2,1l17,10.4c1.5,0.9,2.4,2.3,2.4,3.8c0,1.7-1.1,3.3-2.9,4.4l-25.3,14.6
				C262,244.1,260.2,244.5,258.3,244.5z"/>
			<path class="st13" d="M262.2,211c1.4-0.8,3.3-1.3,5.1-1.3c0.8,0,1.6,0.1,2.2,0.3c0.6,0.2,1.4,0.5,1.9,0.8l16.3,10
				c0,0,0.6,0.3,0.6,0.4c1.5,0.9,2.2,2.3,2.1,3.8c-0.1,1.6-1.2,3.1-2.9,4.1l-22.5,13c0,0-1.8,1-1.8,1c-1.4,0.8-3.2,1.2-4.9,1.2
				c-1.5,0-2.9-0.3-4.1-1l-16.8-10.3c0,0-0.2-0.1-0.2-0.1c-1.5-0.9-2.2-2.3-2.1-3.8c0.1-1.6,1.2-3.1,2.9-4.1L262.2,211z"/>
			<path class="st14" d="M261.5,211.6c1.4-0.8,3.3-1.3,5.1-1.2c0.8,0,1.5,0.1,2.2,0.3c0.6,0.1,1.4,0.5,1.9,0.8l16.2,9.9
				c0,0,0.5,0.3,0.6,0.4c1.5,0.9,2,2.3,1.8,3.8c-0.1,1.4-1.4,3-2.9,3.9L264.7,242c-0.1,0-1.7,1-1.8,1c-1.4,0.8-3,1.1-4.8,1.1
				c-1.5,0-2.8-0.3-3.9-0.9l-16.8-10.3c0,0-0.2-0.1-0.2-0.1c-1.5-0.9-2-2.3-1.8-3.8c0.2-1.4,1.3-3,2.9-3.9L261.5,211.6z"/>
			<path class="st15" d="M260.8,212.2c1.4-0.8,3.2-1.2,5-1.2c0.8,0,1.5,0.2,2.2,0.4c0.5,0.1,1.4,0.6,1.9,0.8l16.1,9.9
				c0,0,0.5,0.3,0.6,0.4c1.4,0.9,1.7,2.3,1.5,3.8c-0.2,1.2-1.5,2.9-2.9,3.6L264.5,242c-0.1,0.1-1.6,0.9-1.7,0.9
				c-1.3,0.7-3,1.1-4.6,1.1c-1.4,0-2.7-0.3-3.7-0.9l-16.9-10.3c0,0-0.2-0.1-0.2-0.1c-1.5-0.9-2.1-2.4-1.6-3.8c0-1.2,1.5-2.8,2.8-3.6
				L260.8,212.2z"/>
			<path class="st16" d="M260.1,212.9c1.4-0.8,3.2-1.2,5-1.2c0.8,0,1.5,0.2,2.2,0.4c0.4,0.1,1.5,0.6,1.8,0.8l16,9.8
				c0.1,0,0.5,0.3,0.6,0.4c1.4,0.9,1.8,2.4,1.2,3.8c0,1.1-1.7,2.7-2.9,3.4l-19.9,11.7c-0.1,0.1-1.5,0.8-1.6,0.9
				c-1.3,0.7-2.8,1-4.4,1c-1.4,0-2.6-0.3-3.6-0.9l-16.9-10.3c0,0-0.2-0.1-0.2-0.1c-1.5-0.9-2-2.4-1.3-3.8c0-1.1,1.6-2.7,2.8-3.4
				L260.1,212.9z"/>
			<path class="st17" d="M259.4,213.5c1.4-0.8,3.2-1.2,5-1.1c0.8,0,1.5,0.2,2.2,0.4c0.4,0.1,1.5,0.7,1.8,0.9l15.9,9.7
				c0.1,0.1,0.5,0.3,0.5,0.4c1.4,0.9,1.7,2.4,0.9,3.7c0,0.9-1.9,2.6-2.9,3.2l-19,11.2c-0.2,0.1-1.4,0.8-1.6,0.8
				c-1.2,0.6-2.7,0.9-4.2,0.9c-1.3,0-2.5-0.3-3.4-0.9l-16.9-10.3c0,0-0.2-0.1-0.2-0.1c-1.5-0.9-1.9-2.5-1-3.8c0-0.9,1.8-2.5,2.8-3.1
				L259.4,213.5z"/>
			<path class="st18" d="M258.8,214.2c1.4-0.8,3.2-1.2,5-1.1c0.8,0.1,1.5,0.2,2.1,0.5c0.3,0.1,1.5,0.7,1.8,0.9l15.8,9.7
				c0.1,0.1,0.5,0.3,0.5,0.4c1.3,1,1.5,2.4,0.5,3.7c0,0.8-2,2.4-2.9,2.9l-18.2,10.7c-0.2,0.1-1.3,0.7-1.5,0.8
				c-1.2,0.6-2.6,0.9-4,0.8c-1.2,0-2.4-0.3-3.3-0.8l-16.9-10.3c-0.1,0-0.2-0.1-0.2-0.1c-1.5-1-1.8-2.5-0.7-3.8
				c0-0.8,1.9-2.4,2.8-2.9L258.8,214.2z"/>
			<path class="st19" d="M258.1,214.8c1.4-0.8,3.2-1.2,4.9-1.1c0.8,0.1,1.5,0.3,2.1,0.5c0.2,0.1,1.5,0.8,1.8,0.9l15.8,9.6
				c0.1,0.1,0.5,0.3,0.5,0.4c1.3,1,1.4,2.4,0.2,3.7c0,0.6-2.2,2.3-2.9,2.7l-17.3,10.3c-0.2,0.1-1.2,0.6-1.5,0.7
				c-1.2,0.5-2.5,0.8-3.9,0.7c-1.2,0-2.3-0.3-3.1-0.8l-16.9-10.3c-0.1,0-0.2-0.1-0.2-0.1c-1.5-1-1.6-2.6-0.4-3.8
				c0-0.6,2.1-2.2,2.7-2.6L258.1,214.8z"/>
			<path class="st20" d="M257.4,215.5c1.4-0.8,3.2-1.2,4.9-1c0.8,0.1,1.5,0.3,2.1,0.5c0.2,0.1,1.6,0.8,1.7,0.9l15.6,9.6
				c0.1,0.1,0.4,0.3,0.5,0.4c1.3,1,1.2,2.5-0.1,3.7c0,0.5-2.3,2.1-2.8,2.4l-16.4,9.8c-0.3,0.2-1.1,0.6-1.4,0.7
				c-1.1,0.5-2.4,0.7-3.7,0.7c-1.1,0-2.2-0.3-3-0.8L237.9,232c-0.1,0-0.2-0.1-0.2-0.1c-1.5-1-1.5-2.6-0.1-3.8c0-0.5,2.2-2.1,2.7-2.4
				L257.4,215.5z"/>
			<path class="st21" d="M256.7,216.1c1.4-0.8,3.2-1.1,4.9-1c0.8,0.1,1.5,0.3,2.1,0.6c0.1,0.1,1.6,0.9,1.7,1l15.5,9.5
				c0.2,0.1,0.4,0.3,0.5,0.4c1.2,1,1.1,2.5-0.4,3.6c0,0.3-2.5,2-2.8,2.2l-15.5,9.4c-0.3,0.2-1,0.5-1.3,0.6c-1.1,0.4-2.3,0.6-3.5,0.6
				c-1.1-0.1-2.1-0.3-2.8-0.7l-17-10.4c-0.1,0-0.2-0.1-0.2-0.1c-1.5-1-1.4-2.6,0.2-3.8c0-0.3,2.4-1.9,2.7-2.1L256.7,216.1z"/>
			<path class="st22" d="M256,216.8c1.4-0.8,3.2-1.1,4.8-0.9c0.8,0.1,1.4,0.4,2.1,0.6c0.1,0,1.6,0.9,1.7,1l15.5,9.4
				c0.2,0.1,0.4,0.2,0.5,0.4c1.2,1,0.9,2.5-0.7,3.6c0,0.2-2.7,1.9-2.8,2l-14.7,8.9c-0.3,0.2-0.9,0.5-1.3,0.6c-1,0.4-2.2,0.6-3.3,0.5
				c-1-0.1-1.9-0.3-2.7-0.7l-17-10.4c-0.1,0-0.2-0.1-0.2-0.1c-1.5-1-1.3-2.7,0.4-3.8c0-0.2,2.5-1.8,2.7-1.9L256,216.8z"/>
			<path d="M255.2,241.9l-17-10.4c-1.8-1-1.5-2.8,0.5-4l16.6-10.2c2-1.2,5.1-1.3,6.9-0.3l17,10.4c1.8,1,1.5,2.8-0.5,4l-16.6,10.2
				C260,242.8,257,242.9,255.2,241.9z"/>
		</g>
		<g>
			<path class="st35" d="M279.9,219.9h-0.4c-0.2-0.3-0.5-0.5-0.9-0.8l-16.6-9.6c-2-1.1-5.4-1-7.6,0.3l-15.3,8.8
				c-0.6,0.4-1.1,0.7-1.4,1.2h-0.5V230h0c0.1,0.7,0.5,1.3,1.3,1.8l16.6,9.6c2,1.1,5.4,1,7.7-0.3l15.3-8.8c1.1-0.6,1.7-1.4,1.8-2.1h0
				L279.9,219.9L279.9,219.9z"/>
			<path class="st27" d="M255.1,231.5l-16.6-9.6c-2-1.1-1.7-3.1,0.6-4.4l15.3-8.8c2.3-1.3,5.7-1.4,7.7-0.3l16.6,9.6
				c2,1.1,1.7,3.1-0.5,4.4l-15.3,8.8C260.5,232.5,257,232.6,255.1,231.5z"/>
			
				<linearGradient id="SVGID_00000076570581858098099740000010472394974069096881_" gradientUnits="userSpaceOnUse" x1="238.81" y1="40.5598" x2="278.33" y2="40.5598" gradientTransform="matrix(1 0 0 -1 0 257.8898)">
				<stop  offset="0" style="stop-color:#25054D"/>
				<stop  offset="0.5" style="stop-color:#45108A"/>
				<stop  offset="1" style="stop-color:#25054D"/>
			</linearGradient>
			<path style="fill:url(#SVGID_00000076570581858098099740000010472394974069096881_);" d="M278.3,214.2h-0.4
				c-0.2-0.3-0.5-0.5-0.8-0.7l-15.3-8.9c-1.8-1.1-5-0.9-7.1,0.3l-14.2,8.2c-0.6,0.3-1,0.7-1.3,1.1h-0.5v5.4h0
				c0.1,0.6,0.4,1.2,1.2,1.6l15.3,8.9c1.8,1.1,5,0.9,7.1-0.3l14.2-8.2c1-0.6,1.6-1.3,1.7-2h0L278.3,214.2L278.3,214.2z"/>
			<path class="st25" d="M278.3,213.3h-0.4c-0.2-0.3-0.5-0.5-0.8-0.7l-15.3-8.9c-1.8-1.1-5-0.9-7.1,0.3l-14.2,8.2
				c-0.6,0.3-1,0.7-1.3,1.1h-0.5v5.4h0c0.1,0.6,0.4,1.2,1.2,1.6l15.3,8.9c1.8,1.1,5,0.9,7.1-0.3l14.2-8.2c1-0.6,1.6-1.3,1.7-2h0
				L278.3,213.3L278.3,213.3z"/>
		</g>
		<g>
			<path class="st35" d="M279.9,210.7h-0.4c-0.2-0.3-0.5-0.5-0.9-0.8l-16.6-9.6c-2-1.1-5.4-1-7.6,0.3l-15.3,8.8
				c-0.6,0.4-1.1,0.7-1.4,1.2h-0.5v5.8h0c0.1,0.7,0.5,1.3,1.3,1.8l16.6,9.6c2,1.1,5.4,1,7.7-0.3l15.3-8.8c1.1-0.6,1.7-1.4,1.8-2.1h0
				L279.9,210.7L279.9,210.7z"/>
			<path class="st27" d="M255.1,222.3l-16.6-9.6c-2-1.1-1.7-3.1,0.6-4.4l15.3-8.8c2.3-1.3,5.7-1.4,7.7-0.3l16.6,9.6
				c2,1.1,1.7,3.1-0.5,4.4l-15.3,8.8C260.5,223.3,257,223.5,255.1,222.3z"/>
			
				<linearGradient id="SVGID_00000121992707994604061080000000461895641111783570_" gradientUnits="userSpaceOnUse" x1="238.81" y1="49.7098" x2="278.33" y2="49.7098" gradientTransform="matrix(1 0 0 -1 0 257.8898)">
				<stop  offset="0" style="stop-color:#25054D"/>
				<stop  offset="0.5" style="stop-color:#45108A"/>
				<stop  offset="1" style="stop-color:#25054D"/>
			</linearGradient>
			<path style="fill:url(#SVGID_00000121992707994604061080000000461895641111783570_);" d="M278.3,205.1h-0.4
				c-0.2-0.3-0.5-0.5-0.8-0.7l-15.3-8.9c-1.8-1.1-5-0.9-7.1,0.3l-14.2,8.2c-0.6,0.3-1,0.7-1.3,1.1h-0.5v5.4h0
				c0.1,0.6,0.4,1.2,1.2,1.6l15.3,8.9c1.8,1.1,5,0.9,7.1-0.3l14.2-8.2c1-0.6,1.6-1.3,1.7-2h0L278.3,205.1L278.3,205.1z"/>
			<path class="st25" d="M278.3,204.1h-0.4c-0.2-0.3-0.5-0.5-0.8-0.7l-15.3-8.9c-1.8-1.1-5-0.9-7.1,0.3l-14.2,8.2
				c-0.6,0.3-1,0.7-1.3,1.1h-0.5v5.4h0c0.1,0.6,0.4,1.2,1.2,1.6l15.3,8.9c1.8,1.1,5,0.9,7.1-0.3l14.2-8.2c1-0.6,1.6-1.3,1.7-2h0
				L278.3,204.1L278.3,204.1z"/>
		</g>
		<g>
			<path class="st35" d="M279.9,201.6h-0.4c-0.2-0.3-0.5-0.5-0.9-0.8l-16.6-9.6c-2-1.1-5.4-1-7.6,0.3l-15.3,8.8
				c-0.6,0.4-1.1,0.7-1.4,1.2h-0.5v5.8h0c0.1,0.7,0.5,1.3,1.3,1.8l16.6,9.6c2,1.1,5.4,1,7.7-0.3l15.3-8.8c1.1-0.6,1.7-1.4,1.8-2.1h0
				L279.9,201.6L279.9,201.6z"/>
			<path class="st27" d="M255.1,213.2l-16.6-9.6c-2-1.1-1.7-3.1,0.6-4.4l15.3-8.8c2.3-1.3,5.7-1.4,7.7-0.3l16.6,9.6
				c2,1.1,1.7,3.1-0.5,4.4l-15.3,8.8C260.5,214.2,257,214.3,255.1,213.2z"/>
			
				<linearGradient id="SVGID_00000017486766691345870170000014382906100844066432_" gradientUnits="userSpaceOnUse" x1="238.81" y1="58.8598" x2="278.33" y2="58.8598" gradientTransform="matrix(1 0 0 -1 0 257.8898)">
				<stop  offset="0" style="stop-color:#25054D"/>
				<stop  offset="0.5" style="stop-color:#45108A"/>
				<stop  offset="1" style="stop-color:#25054D"/>
			</linearGradient>
			<path style="fill:url(#SVGID_00000017486766691345870170000014382906100844066432_);" d="M278.3,195.9h-0.4
				c-0.2-0.3-0.5-0.5-0.8-0.7l-15.3-8.9c-1.8-1.1-5-0.9-7.1,0.3l-14.2,8.2c-0.6,0.3-1,0.7-1.3,1.1h-0.5v5.4h0
				c0.1,0.6,0.4,1.2,1.2,1.6l15.3,8.9c1.8,1.1,5,0.9,7.1-0.3l14.2-8.2c1-0.6,1.6-1.3,1.7-2h0L278.3,195.9L278.3,195.9z"/>
			<path class="st25" d="M278.3,195h-0.4c-0.2-0.3-0.5-0.5-0.8-0.7l-15.3-8.9c-1.8-1.1-5-0.9-7.1,0.3l-14.2,8.2
				c-0.6,0.3-1,0.7-1.3,1.1h-0.5v5.4h0c0.1,0.6,0.4,1.2,1.2,1.6l15.3,8.9c1.8,1.1,5,0.9,7.1-0.3l14.2-8.2c1-0.6,1.6-1.3,1.7-2h0
				L278.3,195L278.3,195z"/>
		</g>
		<g>
			<path class="st35" d="M279.9,192.4h-0.4c-0.2-0.3-0.5-0.5-0.9-0.8l-16.6-9.6c-2-1.1-5.4-1-7.6,0.3l-15.3,8.8
				c-0.6,0.4-1.1,0.7-1.4,1.2h-0.5v5.8h0c0.1,0.7,0.5,1.3,1.3,1.8l16.6,9.6c2,1.1,5.4,1,7.7-0.3l15.3-8.8c1.1-0.6,1.7-1.4,1.8-2.1h0
				L279.9,192.4L279.9,192.4z"/>
			<path class="st27" d="M255.1,204l-16.6-9.6c-2-1.1-1.7-3.1,0.6-4.4l15.3-8.8c2.3-1.3,5.7-1.4,7.7-0.3l16.6,9.6
				c2,1.1,1.7,3.1-0.5,4.4l-15.3,8.8C260.5,205,257,205.2,255.1,204z"/>
			
				<linearGradient id="SVGID_00000020366272321749091940000015169706180522055870_" gradientUnits="userSpaceOnUse" x1="238.81" y1="68.0098" x2="278.33" y2="68.0098" gradientTransform="matrix(1 0 0 -1 0 257.8898)">
				<stop  offset="0" style="stop-color:#25054D"/>
				<stop  offset="0.5" style="stop-color:#45108A"/>
				<stop  offset="1" style="stop-color:#25054D"/>
			</linearGradient>
			<path style="fill:url(#SVGID_00000020366272321749091940000015169706180522055870_);" d="M278.3,186.8h-0.4
				c-0.2-0.3-0.5-0.5-0.8-0.7l-15.3-8.9c-1.8-1.1-5-0.9-7.1,0.3l-14.2,8.2c-0.6,0.3-1,0.7-1.3,1.1h-0.5v5.4h0
				c0.1,0.6,0.4,1.2,1.2,1.6l15.3,8.9c1.8,1.1,5,0.9,7.1-0.3l14.2-8.2c1-0.6,1.6-1.3,1.7-2h0L278.3,186.8L278.3,186.8z"/>
			<path class="st25" d="M278.3,185.8h-0.4c-0.2-0.3-0.5-0.5-0.8-0.7l-15.3-8.9c-1.8-1.1-5-0.9-7.1,0.3l-14.2,8.2
				c-0.6,0.3-1,0.7-1.3,1.1h-0.5v5.4h0c0.1,0.6,0.4,1.2,1.2,1.6l15.3,8.9c1.8,1.1,5,0.9,7.1-0.3l14.2-8.2c1-0.6,1.6-1.3,1.7-2h0
				L278.3,185.8L278.3,185.8z"/>
		</g>
		<g>
			<path class="st35" d="M279.9,183.3h-0.4c-0.2-0.3-0.5-0.5-0.9-0.8L262,173c-2-1.1-5.4-1-7.6,0.3l-15.3,8.8
				c-0.6,0.4-1.1,0.7-1.4,1.2h-0.5v5.8h0c0.1,0.7,0.5,1.3,1.3,1.8l16.6,9.6c2,1.1,5.4,1,7.7-0.3l15.3-8.8c1.1-0.6,1.7-1.4,1.8-2.1h0
				L279.9,183.3L279.9,183.3z"/>
			<path class="st27" d="M255.1,194.9l-16.6-9.6c-2-1.1-1.7-3.1,0.6-4.4l15.3-8.8c2.3-1.3,5.7-1.4,7.7-0.3l16.6,9.6
				c2,1.1,1.7,3.1-0.5,4.4l-15.3,8.8C260.5,195.9,257,196,255.1,194.9z"/>
			
				<linearGradient id="SVGID_00000113323859080750281650000010492861731718748043_" gradientUnits="userSpaceOnUse" x1="238.81" y1="77.1598" x2="278.33" y2="77.1598" gradientTransform="matrix(1 0 0 -1 0 257.8898)">
				<stop  offset="0" style="stop-color:#25054D"/>
				<stop  offset="0.5" style="stop-color:#45108A"/>
				<stop  offset="1" style="stop-color:#25054D"/>
			</linearGradient>
			<path style="fill:url(#SVGID_00000113323859080750281650000010492861731718748043_);" d="M278.3,177.6h-0.4
				c-0.2-0.3-0.5-0.5-0.8-0.7l-15.3-8.9c-1.8-1.1-5-0.9-7.1,0.3l-14.2,8.2c-0.6,0.3-1,0.7-1.3,1.1h-0.5v5.4h0
				c0.1,0.6,0.4,1.2,1.2,1.6l15.3,8.9c1.8,1.1,5,0.9,7.1-0.3l14.2-8.2c1-0.6,1.6-1.3,1.7-2h0L278.3,177.6L278.3,177.6z"/>
			<path class="st25" d="M278.3,176.7h-0.4c-0.2-0.3-0.5-0.5-0.8-0.7l-15.3-8.9c-1.8-1.1-5-0.9-7.1,0.3l-14.2,8.2
				c-0.6,0.3-1,0.7-1.3,1.1h-0.5v5.4h0c0.1,0.6,0.4,1.2,1.2,1.6l15.3,8.9c1.8,1.1,5,0.9,7.1-0.3l14.2-8.2c1-0.6,1.6-1.3,1.7-2h0
				L278.3,176.7L278.3,176.7z"/>
		</g>
		<g>
			<path class="st35" d="M279.9,174.3h-0.4c-0.2-0.3-0.5-0.5-0.9-0.8L262,164c-2-1.1-5.4-1-7.6,0.3l-15.3,8.8
				c-0.6,0.4-1.1,0.7-1.4,1.2h-0.5v5.8h0c0.1,0.7,0.5,1.3,1.3,1.8l16.6,9.6c2,1.1,5.4,1,7.7-0.3l15.3-8.8c1.1-0.6,1.7-1.4,1.8-2.1h0
				L279.9,174.3L279.9,174.3z"/>
			<path class="st27" d="M255.1,185.9l-16.6-9.6c-2-1.1-1.7-3.1,0.6-4.4l15.3-8.8c2.3-1.3,5.7-1.4,7.7-0.3l16.6,9.6
				c2,1.1,1.7,3.1-0.5,4.4l-15.3,8.8C260.5,186.9,257,187,255.1,185.9z"/>
		</g>
		<g>
			<path class="st35" d="M267.8,171h-18.1v3.5c0,0,0,0.1,0,0.1c0,2.9,4,5.3,9,5.3c5,0,9-2.4,9-5.3c0,0,0-0.1,0-0.1l0,0V171z"/>
			<ellipse class="st27" cx="258.8" cy="171.1" rx="9" ry="5.3"/>
			<path class="st7" d="M253.1,171.1c0,1.8,2.5,3.3,5.7,3.3c3.1,0,5.7-1.5,5.7-3.3s-2.5-3.3-5.7-3.3
				C255.6,167.8,253.1,169.2,253.1,171.1z"/>
			<path class="st35" d="M258.8,170.9c2.2,0,4,0.7,5,1.7c0.4-0.5,0.7-1,0.7-1.6c0-1.8-2.5-3.3-5.7-3.3c-3.1,0-5.7,1.5-5.7,3.3
				c0,0.6,0.2,1.1,0.7,1.6C254.7,171.6,256.6,170.9,258.8,170.9z"/>
		</g>
		<g>
			<g>
				<polygon class="st35" points="248.7,233.1 248.7,241.6 252.4,239.4 252.4,230.9 				"/>
				<polygon class="st25" points="248.7,233.1 248.7,241.6 239,236.1 239,227.6 				"/>
				<polygon class="st47" points="240.8,235.7 240.8,229.9 246.9,233.2 246.9,239.1 				"/>
				<polygon class="st27" points="239,227.6 248.7,233.1 252.4,230.9 242.7,225.4 				"/>
			</g>
			<g>
				<g>
					
						<linearGradient id="SVGID_00000054263535149350283380000001387209231325333418_" gradientUnits="userSpaceOnUse" x1="-926.6325" y1="21.7855" x2="-929.0773" y2="26.0213" gradientTransform="matrix(1 0 0 -1 1171.4633 257.8898)">
						<stop  offset="0.2879" style="stop-color:#838091"/>
						<stop  offset="0.4656" style="stop-color:#A5A2B1"/>
						<stop  offset="0.5859" style="stop-color:#B7B4C2"/>
						<stop  offset="0.8081" style="stop-color:#9B98A7"/>
					</linearGradient>
					<path style="fill:url(#SVGID_00000054263535149350283380000001387209231325333418_);" d="M245.3,235.1c0,0.5-0.2,0.9-0.4,1
						l-0.5,0.3c-0.3,0.2-0.1-0.2-0.6-0.5c-0.9-0.5-1.6-1.8-1.6-2.8c0-0.5-0.5-0.5-0.2-0.7c0,0,0.6-0.3,0.6-0.3
						c0.3-0.2,0.7-0.1,1.1,0.1C244.5,232.8,245.3,234.1,245.3,235.1z"/>
					
						<linearGradient id="SVGID_00000074440386483194862230000018208162301788556732_" gradientUnits="userSpaceOnUse" x1="-929.124" y1="22.1182" x2="-926.9633" y2="25.8422" gradientTransform="matrix(1 0 0 -1 1171.4633 257.8898)">
						<stop  offset="3.540000e-02" style="stop-color:#9D9EB3"/>
						<stop  offset="0.5808" style="stop-color:#D4D1D8"/>
						<stop  offset="1" style="stop-color:#EEEBF2"/>
					</linearGradient>
					<path style="fill:url(#SVGID_00000074440386483194862230000018208162301788556732_);" d="M244.7,235.4c0,1-0.7,1.4-1.6,0.9
						s-1.6-1.8-1.6-2.8c0-1,0.7-1.4,1.6-0.9C244,233.1,244.7,234.4,244.7,235.4z"/>
					
						<linearGradient id="SVGID_00000047051289446778173990000017047050202889395086_" gradientUnits="userSpaceOnUse" x1="-927.6988" y1="21.5704" x2="-929.7973" y2="25.2061" gradientTransform="matrix(1 0 0 -1 1171.4633 257.8898)">
						<stop  offset="0.1667" style="stop-color:#838091"/>
						<stop  offset="0.4167" style="stop-color:#A5A2B1"/>
						<stop  offset="0.5859" style="stop-color:#B7B4C2"/>
						<stop  offset="0.9091" style="stop-color:#9B98A7"/>
					</linearGradient>
					<path style="fill:url(#SVGID_00000047051289446778173990000017047050202889395086_);" d="M244.3,235.4c0,0.4-0.1,0.7-0.4,0.9
						c0,0-0.8,0.5-0.8,0.5c-0.3,0.1-0.1-0.2-0.5-0.4c-0.8-0.4-1.4-1.5-1.4-2.4c0-0.4-0.4-0.4-0.2-0.6c0,0,0.8-0.5,0.8-0.5
						c0.3-0.1,0.6-0.1,1,0.1C243.7,233.4,244.3,234.5,244.3,235.4z"/>
					
						<linearGradient id="SVGID_00000078032599047702550010000002216504467448473522_" gradientUnits="userSpaceOnUse" x1="-930.0037" y1="21.761" x2="-928.1492" y2="24.9575" gradientTransform="matrix(1 0 0 -1 1171.4633 257.8898)">
						<stop  offset="3.540000e-02" style="stop-color:#9D9EB3"/>
						<stop  offset="0.5808" style="stop-color:#D4D1D8"/>
						<stop  offset="1" style="stop-color:#EEEBF2"/>
					</linearGradient>
					<path style="fill:url(#SVGID_00000078032599047702550010000002216504467448473522_);" d="M243.5,235.8c0,0.9-0.6,1.2-1.4,0.8
						c-0.8-0.4-1.4-1.5-1.4-2.4c0-0.9,0.6-1.2,1.4-0.8C242.9,233.9,243.5,234.9,243.5,235.8z"/>
					<path class="st32" d="M243.2,232.6c-0.4-0.2-0.8-0.3-1.1-0.1c0.3-0.1,0.6,0,1,0.2c0.9,0.5,1.6,1.8,1.6,2.8
						c0,0.5-0.2,0.9-0.5,1.1c0.4-0.1,0.6-0.5,0.6-1.1C244.8,234.4,244.1,233.1,243.2,232.6z"/>
					
						<radialGradient id="SVGID_00000077307521474283436670000013560057869397643451_" cx="-928.6715" cy="23.3969" r="1.5103" gradientTransform="matrix(1 0 0 -1 1171.4633 257.8898)" gradientUnits="userSpaceOnUse">
						<stop  offset="0" style="stop-color:#FFFFFF"/>
						<stop  offset="1" style="stop-color:#000000"/>
					</radialGradient>
					<path style="fill:url(#SVGID_00000077307521474283436670000013560057869397643451_);" d="M242.2,233.4c-0.4-0.2-0.7-0.2-1-0.1
						c0.2-0.1,0.5,0,0.8,0.2c0.8,0.4,1.4,1.5,1.4,2.4c0,0.5-0.2,0.8-0.4,0.9c0.3-0.1,0.6-0.4,0.6-1
						C243.6,234.9,242.9,233.8,242.2,233.4z"/>
					<path class="st34" d="M242.8,235.6c0,0.5-0.4,0.7-0.8,0.5c-0.4-0.3-0.8-0.9-0.8-1.4c0-0.5,0.4-0.7,0.8-0.5
						C242.5,234.5,242.8,235.1,242.8,235.6z"/>
				</g>
			</g>
		</g>
	</g>
	
		<linearGradient id="SVGID_00000133495937599577953450000002012182055815814316_" gradientUnits="userSpaceOnUse" x1="197.4772" y1="195.3839" x2="193.8141" y2="201.6467" gradientTransform="matrix(1 0 0 -1 0 257.8898)">
		<stop  offset="3.030000e-02" style="stop-color:#7C1DC9"/>
		<stop  offset="0.2138" style="stop-color:#6E41D2"/>
		<stop  offset="0.6184" style="stop-color:#4C9BE8"/>
		<stop  offset="1" style="stop-color:#2AF6FF"/>
	</linearGradient>
	<path style="fill:url(#SVGID_00000133495937599577953450000002012182055815814316_);" d="M196.9,62.6h-1.6l-0.2-4.3l-2.2-0.9
		l0.6-1.6l2.8,1.1c0.3,0.1,0.6,0.5,0.6,0.8L196.9,62.6z"/>
	
		<linearGradient id="SVGID_00000096023139179762364450000014168925033817276807_" gradientUnits="userSpaceOnUse" x1="155.1751" y1="196.1138" x2="159.8646" y2="201.6758" gradientTransform="matrix(1 0 0 -1 0 257.8898)">
		<stop  offset="3.030000e-02" style="stop-color:#7C1DC9"/>
		<stop  offset="0.2138" style="stop-color:#6E41D2"/>
		<stop  offset="0.6184" style="stop-color:#4C9BE8"/>
		<stop  offset="1" style="stop-color:#2AF6FF"/>
	</linearGradient>
	<path style="fill:url(#SVGID_00000096023139179762364450000014168925033817276807_);" d="M158,61.8h-1.7v-4.3
		c0-0.4,0.2-0.7,0.6-0.8l2.8-1.1l0.6,1.6L158,58L158,61.8L158,61.8z"/>
	<path class="st7" d="M235.5,241.6l-1.7-0.3v-3.8c0-0.4,0.2-0.7,0.6-0.8l7.8-2.6l0.6,1.7l-7.2,2.4L235.5,241.6L235.5,241.6z"/>
	<path class="st7" d="M321.5,153.7h-1.7c0-19.6-9.5-38.2-27.6-53.9c-0.2-0.2-0.3-0.4-0.3-0.7v-3.8l-4.6-2.5l1.4-1.1l4.7,2.8
		c0.1,0.2,0.2,0.3,0.2,0.5v3.7C311.8,114.7,321.5,133.7,321.5,153.7z"/>
	<g>
		<g>
			<g>
				<polygon class="st35" points="307.7,168.7 307.7,177.2 311.4,175 311.4,166.5 				"/>
				<polygon class="st25" points="307.7,168.7 307.7,177.2 298,171.8 298,163.2 				"/>
				<polygon class="st47" points="299.8,171.3 299.8,165.5 305.9,168.9 305.9,174.7 				"/>
				<polygon class="st27" points="298,163.2 307.7,168.7 311.4,166.5 301.7,161 				"/>
			</g>
			<g>
				<g>
					
						<linearGradient id="SVGID_00000010300655816724084410000010941274384623414678_" gradientUnits="userSpaceOnUse" x1="-867.6495" y1="86.1791" x2="-870.0942" y2="90.4149" gradientTransform="matrix(1 0 0 -1 1171.4633 257.8898)">
						<stop  offset="0.2879" style="stop-color:#838091"/>
						<stop  offset="0.4656" style="stop-color:#A5A2B1"/>
						<stop  offset="0.5859" style="stop-color:#B7B4C2"/>
						<stop  offset="0.8081" style="stop-color:#9B98A7"/>
					</linearGradient>
					<path style="fill:url(#SVGID_00000010300655816724084410000010941274384623414678_);" d="M304.2,170.7c0,0.5-0.2,0.9-0.5,1
						l-0.5,0.3c-0.3,0.2-0.1-0.2-0.5-0.5c-0.9-0.5-1.6-1.8-1.6-2.8c0-0.5-0.5-0.5-0.2-0.7c0,0,0.6-0.3,0.6-0.3
						c0.3-0.2,0.7-0.1,1.1,0.1C303.5,168.4,304.2,169.7,304.2,170.7z"/>
					
						<linearGradient id="SVGID_00000141455944910499225300000013137897150477645449_" gradientUnits="userSpaceOnUse" x1="-870.1375" y1="86.512" x2="-867.977" y2="90.236" gradientTransform="matrix(1 0 0 -1 1171.4633 257.8898)">
						<stop  offset="3.540000e-02" style="stop-color:#9D9EB3"/>
						<stop  offset="0.5808" style="stop-color:#D4D1D8"/>
						<stop  offset="1" style="stop-color:#EEEBF2"/>
					</linearGradient>
					<path style="fill:url(#SVGID_00000141455944910499225300000013137897150477645449_);" d="M303.7,171c0,1-0.7,1.4-1.6,0.9
						c-0.9-0.5-1.6-1.8-1.6-2.8c0-1,0.7-1.4,1.6-0.9C303,168.8,303.7,170,303.7,171z"/>
					
						<linearGradient id="SVGID_00000088115240332862616460000006823430839541050812_" gradientUnits="userSpaceOnUse" x1="-868.7135" y1="85.9654" x2="-870.812" y2="89.6011" gradientTransform="matrix(1 0 0 -1 1171.4633 257.8898)">
						<stop  offset="0.1667" style="stop-color:#838091"/>
						<stop  offset="0.4167" style="stop-color:#A5A2B1"/>
						<stop  offset="0.5859" style="stop-color:#B7B4C2"/>
						<stop  offset="0.9091" style="stop-color:#9B98A7"/>
					</linearGradient>
					<path style="fill:url(#SVGID_00000088115240332862616460000006823430839541050812_);" d="M303.3,171c0,0.4-0.1,0.7-0.4,0.9
						c0,0-0.8,0.5-0.8,0.5c-0.2,0.1-0.1-0.2-0.5-0.4c-0.8-0.4-1.4-1.5-1.4-2.4c0-0.4-0.4-0.4-0.2-0.6c0,0,0.8-0.5,0.8-0.5
						c0.2-0.1,0.6-0.1,1,0.1C302.7,169,303.3,170.1,303.3,171z"/>
					
						<linearGradient id="SVGID_00000012434237257553619050000015610465003816853913_" gradientUnits="userSpaceOnUse" x1="-871.0204" y1="86.1566" x2="-869.166" y2="89.3531" gradientTransform="matrix(1 0 0 -1 1171.4633 257.8898)">
						<stop  offset="3.540000e-02" style="stop-color:#9D9EB3"/>
						<stop  offset="0.5808" style="stop-color:#D4D1D8"/>
						<stop  offset="1" style="stop-color:#EEEBF2"/>
					</linearGradient>
					<path style="fill:url(#SVGID_00000012434237257553619050000015610465003816853913_);" d="M302.5,171.4c0,0.9-0.6,1.2-1.4,0.8
						c-0.8-0.4-1.4-1.5-1.4-2.4c0-0.9,0.6-1.2,1.4-0.8C301.9,169.5,302.5,170.6,302.5,171.4z"/>
					<path class="st32" d="M302.1,168.2c-0.4-0.2-0.8-0.3-1.1-0.1c0.3-0.1,0.6,0,1,0.2c0.9,0.5,1.6,1.8,1.6,2.8
						c0,0.5-0.2,0.9-0.5,1.1c0.4-0.1,0.6-0.5,0.6-1.1C303.8,170,303,168.7,302.1,168.2z"/>
					
						<radialGradient id="SVGID_00000051376824425975407180000002937194726917018797_" cx="-869.6867" cy="87.7916" r="1.5103" gradientTransform="matrix(1 0 0 -1 1171.4633 257.8898)" gradientUnits="userSpaceOnUse">
						<stop  offset="0" style="stop-color:#FFFFFF"/>
						<stop  offset="1" style="stop-color:#000000"/>
					</radialGradient>
					<path style="fill:url(#SVGID_00000051376824425975407180000002937194726917018797_);" d="M301.1,169c-0.4-0.2-0.7-0.2-1-0.1
						c0.2-0.1,0.5,0,0.8,0.2c0.8,0.4,1.4,1.5,1.4,2.4c0,0.5-0.2,0.8-0.4,0.9c0.3-0.1,0.6-0.4,0.6-1
						C302.5,170.5,301.9,169.4,301.1,169z"/>
					<path class="st34" d="M301.8,171.2c0,0.5-0.4,0.7-0.8,0.5c-0.4-0.3-0.8-0.9-0.8-1.4c0-0.5,0.4-0.7,0.8-0.5
						C301.5,170.1,301.8,170.7,301.8,171.2z"/>
				</g>
			</g>
		</g>
		<path class="st6" d="M322.7,160c-1.1-0.6-2.1-0.9-3-1c0-0.1,0-0.1,0-0.2c0-9.2-6.5-20.4-14.5-25c-6.5-3.7-11.9-2.1-13.8,3.5
			c-0.5-0.4-1-0.7-1.5-1c-5.3-3.1-9.6-0.6-9.6,5.5c0,6.1,4.3,13.5,9.6,16.5c2.6,1.5,29.7,17.2,32.9,19c4.1,2.4,7.5,0.5,7.5-4.3
			S326.8,162.4,322.7,160z"/>
		<path class="st7" d="M326,175.4c-0.5,0-1.2-0.2-2-0.6l-32.9-19c-4.4-2.6-8.2-9-8.2-14.1c0-1.5,0.3-4,2.5-4c0.8,0,1.8,0.3,2.9,0.9
			c0.4,0.2,0.8,0.5,1.2,0.8l0,0c1.5,1.2,3.7,0.5,4.4-1.3l0,0c0.8-2.4,2.4-3.6,4.6-3.6c1.5,0,3.3,0.6,5.1,1.6
			c7.1,4.1,13.1,14.4,13.1,22.6l0,0.2l0,0c0,1.5,1.1,2.7,2.6,2.8l0,0c0.5,0,1.2,0.3,1.8,0.6c3.2,1.9,6.1,6.8,6.1,10.5
			c0,0.9-0.2,1.7-0.5,2.1C326.7,175.3,326.5,175.4,326,175.4L326,175.4z"/>
		<g>
			<path class="st26" d="M326.5,174.9c-0.5,0-1.2-0.2-2-0.6l-32.9-19c-4.4-2.6-8.2-9-8.2-14.1c0-0.8,0.1-2,0.6-2.9
				c-0.9,0.8-1.1,2.4-1.1,3.4c0,5.1,3.7,11.5,8.2,14.1l32.9,19c0.7,0.4,1.4,0.6,2,0.6c0.5,0,0.6-0.2,0.8-0.3
				c0.1-0.1,0.1-0.2,0.2-0.4C326.9,174.8,326.8,174.9,326.5,174.9z"/>
		</g>
		<path class="st35" d="M344.8,164.5c0-4.8-3.4-10.5-7.5-12.9c-1.1-0.6-2.1-0.9-3-1c0-0.1,0-0.1,0-0.2c0-9.2-6.5-20.4-14.5-25
			c-4.5-2.6-8.4-2.2-11.2-0.4l-4.6,2.6c-2.6-1.4-5-1.3-6.6-0.2l-13.9,8.1c1.7-0.7,3.9-0.5,6.3,0.9c0.5,0.3,1,0.6,1.5,1
			c1.9-5.6,7.4-7.2,13.8-3.5c8,4.6,14.5,15.8,14.5,25c0,0.1,0,0.1,0,0.2c0.9,0.1,2,0.4,3,1c4.1,2.4,7.5,8.2,7.5,12.9
			c0,2-0.6,3.5-1.6,4.4l13.8-7.9l0,0C343.9,168.7,344.8,167,344.8,164.5z"/>
	</g>
	<path class="st7" d="M298.9,208.9l-1.7-0.5v-36.6c0-0.4,0.2-0.7,0.6-0.8l3.1-1.1l0.6,1.6l-2.5,0.9L298.9,208.9L298.9,208.9z"/>
	<g>
		
			<radialGradient id="SVGID_00000160890977428940593950000013786251965622827420_" cx="837.5732" cy="3340.5234" r="23.1324" gradientTransform="matrix(1.181 0 0 -0.6022 -961.854 2183.1731)" gradientUnits="userSpaceOnUse">
			<stop  offset="0.1919" style="stop-color:#5F5C5D"/>
			<stop  offset="1" style="stop-color:#FFFFFF"/>
		</radialGradient>
		
			<ellipse style="fill:url(#SVGID_00000160890977428940593950000013786251965622827420_);" cx="27.3" cy="171.5" rx="27.3" ry="13.9"/>
		<g>
			<path class="st35" d="M46.2,165.6H2v6.6c0,0,0,0.1,0,0.2c0,7.1,9.9,12.9,22.1,12.9s22.1-5.8,22.1-12.9c0-0.1,0-0.1,0-0.2h0V165.6
				z"/>
			<ellipse class="st27" cx="24.1" cy="165.6" rx="22.1" ry="12.9"/>
		</g>
		
			<linearGradient id="SVGID_00000063622515544358078060000011212308572812574373_" gradientUnits="userSpaceOnUse" x1="58.5444" y1="90.2798" x2="98.999" y2="90.2798" gradientTransform="matrix(1 0 0 -1 -54.8204 257.8898)">
			<stop  offset="0" style="stop-color:#25054D"/>
			<stop  offset="0.2172" style="stop-color:#45108A"/>
			<stop  offset="0.4192" style="stop-color:#25054D"/>
			<stop  offset="0.5555" style="stop-color:#270651"/>
			<stop  offset="0.6984" style="stop-color:#2E085E"/>
			<stop  offset="0.8438" style="stop-color:#390C73"/>
			<stop  offset="0.9646" style="stop-color:#45108A"/>
		</linearGradient>
		<path style="fill:url(#SVGID_00000063622515544358078060000011212308572812574373_);" d="M44.6,158.7H3.5v5.6h0c0,0.1,0,0.1,0,0.2
			c0,6.6,9.2,12,20.5,12s20.5-5.4,20.5-12c0-0.1,0-0.1,0-0.2h0C44.6,164.3,44.6,158.7,44.6,158.7z"/>
		<path class="st25" d="M44.6,157.8H3.5v5.6h0c0,0.1,0,0.1,0,0.2c0,6.6,9.2,12,20.5,12s20.5-5.4,20.5-12c0-0.1,0-0.1,0-0.2h0
			C44.6,163.4,44.6,157.8,44.6,157.8z"/>
		<g>
			<path class="st35" d="M46.2,153.5H2v6.6c0,0,0,0.1,0,0.2c0,7.1,9.9,12.9,22.1,12.9s22.1-5.8,22.1-12.9c0-0.1,0-0.1,0-0.2h0V153.5
				z"/>
			<ellipse class="st27" cx="24.1" cy="153.6" rx="22.1" ry="12.9"/>
		</g>
		
			<linearGradient id="SVGID_00000148624678837153050230000015933427440637093800_" gradientUnits="userSpaceOnUse" x1="58.5444" y1="102.3648" x2="98.999" y2="102.3648" gradientTransform="matrix(1 0 0 -1 -54.8204 257.8898)">
			<stop  offset="0" style="stop-color:#25054D"/>
			<stop  offset="0.2172" style="stop-color:#45108A"/>
			<stop  offset="0.4192" style="stop-color:#25054D"/>
			<stop  offset="0.5555" style="stop-color:#270651"/>
			<stop  offset="0.6984" style="stop-color:#2E085E"/>
			<stop  offset="0.8438" style="stop-color:#390C73"/>
			<stop  offset="0.9646" style="stop-color:#45108A"/>
		</linearGradient>
		<path style="fill:url(#SVGID_00000148624678837153050230000015933427440637093800_);" d="M44.6,146.6H3.5v5.6h0c0,0.1,0,0.1,0,0.2
			c0,6.6,9.2,12,20.5,12s20.5-5.4,20.5-12c0-0.1,0-0.1,0-0.2h0C44.6,152.3,44.6,146.6,44.6,146.6z"/>
		<path class="st25" d="M44.6,145.7H3.5v5.6h0c0,0.1,0,0.1,0,0.2c0,6.6,9.2,12,20.5,12s20.5-5.4,20.5-12c0-0.1,0-0.1,0-0.2h0
			C44.6,151.3,44.6,145.7,44.6,145.7z"/>
		<g>
			<path class="st35" d="M46.2,141.7H2v6.6c0,0,0,0.1,0,0.2c0,7.1,9.9,12.9,22.1,12.9s22.1-5.8,22.1-12.9c0-0.1,0-0.1,0-0.2h0V141.7
				z"/>
			<ellipse class="st27" cx="24.1" cy="141.8" rx="22.1" ry="12.9"/>
		</g>
		
			<linearGradient id="SVGID_00000113348288855407495640000005101817768186541966_" gradientUnits="userSpaceOnUse" x1="58.5444" y1="114.0998" x2="98.999" y2="114.0998" gradientTransform="matrix(1 0 0 -1 -54.8204 257.8898)">
			<stop  offset="0" style="stop-color:#25054D"/>
			<stop  offset="0.2172" style="stop-color:#45108A"/>
			<stop  offset="0.4192" style="stop-color:#25054D"/>
			<stop  offset="0.5555" style="stop-color:#270651"/>
			<stop  offset="0.6984" style="stop-color:#2E085E"/>
			<stop  offset="0.8438" style="stop-color:#390C73"/>
			<stop  offset="0.9646" style="stop-color:#45108A"/>
		</linearGradient>
		<path style="fill:url(#SVGID_00000113348288855407495640000005101817768186541966_);" d="M44.6,134.9H3.5v5.6h0c0,0.1,0,0.1,0,0.2
			c0,6.6,9.2,12,20.5,12s20.5-5.4,20.5-12c0-0.1,0-0.1,0-0.2h0C44.6,140.5,44.6,134.9,44.6,134.9z"/>
		<path class="st25" d="M44.6,133.9H3.5v5.6h0c0,0.1,0,0.1,0,0.2c0,6.6,9.2,12,20.5,12s20.5-5.4,20.5-12c0-0.1,0-0.1,0-0.2h0
			C44.6,139.5,44.6,133.9,44.6,133.9z"/>
		<g>
			<path class="st35" d="M46.2,129.9H2v6.6c0,0,0,0.1,0,0.2c0,7.1,9.9,12.9,22.1,12.9s22.1-5.8,22.1-12.9c0-0.1,0-0.1,0-0.2h0V129.9
				z"/>
			<ellipse class="st27" cx="24.1" cy="129.9" rx="22.1" ry="12.9"/>
		</g>
		
			<linearGradient id="SVGID_00000092422721650142493270000008811280586198442940_" gradientUnits="userSpaceOnUse" x1="58.5444" y1="125.9798" x2="98.999" y2="125.9798" gradientTransform="matrix(1 0 0 -1 -54.8204 257.8898)">
			<stop  offset="0" style="stop-color:#25054D"/>
			<stop  offset="0.2172" style="stop-color:#45108A"/>
			<stop  offset="0.4192" style="stop-color:#25054D"/>
			<stop  offset="0.5555" style="stop-color:#270651"/>
			<stop  offset="0.6984" style="stop-color:#2E085E"/>
			<stop  offset="0.8438" style="stop-color:#390C73"/>
			<stop  offset="0.9646" style="stop-color:#45108A"/>
		</linearGradient>
		<path style="fill:url(#SVGID_00000092422721650142493270000008811280586198442940_);" d="M44.6,123H3.5v5.6h0c0,0.1,0,0.1,0,0.2
			c0,6.6,9.2,12,20.5,12s20.5-5.4,20.5-12c0-0.1,0-0.1,0-0.2h0C44.6,128.6,44.6,123,44.6,123z"/>
		<path class="st25" d="M44.6,122.1H3.5v5.6h0c0,0.1,0,0.1,0,0.2c0,6.6,9.2,12,20.5,12s20.5-5.4,20.5-12c0-0.1,0-0.1,0-0.2h0
			C44.6,127.7,44.6,122.1,44.6,122.1z"/>
		<g>
			<path class="st35" d="M46.2,118H2v6.6c0,0,0,0.1,0,0.2c0,7.1,9.9,12.8,22.1,12.8s22.1-5.8,22.1-12.8c0-0.1,0-0.1,0-0.2h0V118z"/>
			<ellipse class="st27" cx="24.1" cy="118.1" rx="22.1" ry="12.8"/>
		</g>
		
			<radialGradient id="SVGID_00000127734306510435452600000017795540409314979499_" cx="836.2523" cy="3430.7759" r="9.4492" gradientTransform="matrix(1.181 0 0 -0.6022 -961.854 2183.1731)" gradientUnits="userSpaceOnUse">
			<stop  offset="0" style="stop-color:#5F5C5D"/>
			<stop  offset="4.739189e-02" style="stop-color:#6D6B6C;stop-opacity:0.9526"/>
			<stop  offset="0.2083" style="stop-color:#9A9898;stop-opacity:0.7917"/>
			<stop  offset="0.3703" style="stop-color:#BEBDBD;stop-opacity:0.6297"/>
			<stop  offset="0.5312" style="stop-color:#DBDADA;stop-opacity:0.4688"/>
			<stop  offset="0.6905" style="stop-color:#EFEEEF;stop-opacity:0.3095"/>
			<stop  offset="0.8476" style="stop-color:#FBFBFB;stop-opacity:0.1524"/>
			<stop  offset="1" style="stop-color:#FFFFFF;stop-opacity:0"/>
		</radialGradient>
		
			<ellipse style="fill:url(#SVGID_00000127734306510435452600000017795540409314979499_);" cx="25.8" cy="117.2" rx="11.2" ry="5.7"/>
		<g>
			<path class="st35" d="M32.9,113.8H15.2v3.4c0,0,0,0.1,0,0.1c0,2.8,4,5.1,8.8,5.1s8.8-2.3,8.8-5.1c0,0,0-0.1,0-0.1l0,0V113.8z"/>
			<path class="st27" d="M15.2,113.8c0,2.8,4,5.1,8.8,5.1s8.8-2.3,8.8-5.1s-4-5.1-8.8-5.1S15.2,111,15.2,113.8z"/>
			<ellipse class="st7" cx="24.1" cy="113.9" rx="5.6" ry="3.2"/>
			<path class="st35" d="M24.1,113.7c2.1,0,4,0.7,4.9,1.7c0.4-0.5,0.7-1,0.7-1.5c0-1.8-2.5-3.2-5.6-3.2s-5.6,1.4-5.6,3.2
				c0,0.6,0.2,1.1,0.7,1.5C20.1,114.4,22,113.7,24.1,113.7z"/>
		</g>
	</g>
	<g>
		<g>
			<path class="st27" d="M224,72.5c-17.3-9.8-34.2-26.4-48.3-47.7l-0.2-0.1c-14.1,4.9-31,2.1-48.3-8.1l-0.7-0.4l0.9,32.3
				c3.3,50,20.3,71.8,47.8,118.3l0.7,0.4c27.5-14.8,44.5-16.9,47.8-63.1l0.9-31.2L224,72.5z"/>
			<path class="st6" d="M229.8,67.4c-17.3-9.8-34.2-26.4-48.3-47.7l-0.2-0.1c-14.1,4.9-31,2.1-48.3-8.1l-0.7-0.4l-5.6,5.1l0.5,0.3
				c17.3,10.2,34.2,13,48.3,8.1l0.2,0.1c14.1,21.2,31,37.9,48.3,47.7l0.7,0.4l-0.9,31.2c-2.1,30.2-10.1,41.6-23.1,49.9
				c16.2-9.6,26.5-21,28.9-54.9l0.9-31.2L229.8,67.4z"/>
			<path class="st6" d="M230.5,67.8l-0.7-0.4c-17.3-9.8-34.2-26.4-48.3-47.7l-0.2-0.1l-5.8,5l0.2,0.1c14.1,21.2,31,37.9,48.3,47.7
				l0.7,0.4L230.5,67.8z"/>
			<path class="st6" d="M224.7,72.8l-0.9,31.2c-2.1,30.2-10.1,41.6-23.1,49.9c16.2-9.6,26.5-21,28.9-54.9l0.9-31.2L224.7,72.8z"/>
			<g>
				<path class="st66" d="M222.2,73.7c-16.9-9.6-33.4-25.8-47.2-46.6l-0.2-0.1c-13.8,4.8-30.4,2-47.2-7.9l-0.7-0.4l-5.5,5l0.5,0.3
					c16.9,10,33.4,12.7,47.2,7.9l0.2,0.1c13.8,20.8,30.4,37.1,47.2,46.6l0.6,0.4l-0.9,30.5c-2.1,29.5-9.9,40.6-22.6,48.8
					c15.8-9.3,25.9-20.6,28.3-53.7l0.9-30.5L222.2,73.7z"/>
				<path class="st66" d="M222.9,74.1l-0.6-0.4c-16.9-9.6-33.4-25.8-47.2-46.6l-0.2-0.1l-5.7,4.9l0.2,0.1
					c13.8,20.8,30.4,37.1,47.2,46.6l0.6,0.4L222.9,74.1z"/>
				<path class="st66" d="M217.2,79l-0.9,30.5c-2.1,29.5-9.9,40.6-22.6,48.8c15.8-9.3,25.9-20.6,28.3-53.7l0.9-30.5L217.2,79z"/>
			</g>
			<path class="st35" d="M213,82.5c-17.3-9.8-34.2-26.4-48.3-47.7l-0.2-0.1c-14.1,4.9-31,2.1-48.3-8.1l-0.7-0.4l0.9,32.3
				c3.3,50,20.3,71.8,47.8,118.3l0.7,0.4c27.5-14.8,44.5-16.9,47.8-63.1l0.9-31.2L213,82.5z"/>
			<path class="st6" d="M218.8,77.5c-17.3-9.8-34.2-26.4-48.3-47.7l-0.2-0.1c-14.1,4.9-31,2.1-48.3-8.1l-0.7-0.4l-5.6,5.1l0.5,0.3
				c17.3,10.2,34.2,13,48.3,8.1l0.2,0.1c14.1,21.2,31,37.9,48.3,47.7l0.7,0.4l-0.9,31.2c-2.1,30.2-10.1,41.6-23.1,49.9
				c16.2-9.6,26.5-21,28.9-54.9l0.9-31.2L218.8,77.5z"/>
			<path class="st6" d="M219.5,77.8l-0.7-0.4c-17.3-9.8-34.2-26.4-48.3-47.7l-0.2-0.1l-5.8,5l0.2,0.1c14.1,21.2,31,37.9,48.3,47.7
				l0.7,0.4L219.5,77.8z"/>
			<path class="st6" d="M213.6,82.9l-0.9,31.2c-2.1,30.2-10.1,41.6-23.1,49.9c16.2-9.6,26.5-21,28.9-54.9l0.9-31.2L213.6,82.9z"/>
			<path class="st6" d="M161.2,155.6c-21.3-35.4-32-53.2-34.6-92l-0.6-20.4c13.7,6.2,26.8,8.2,38.6,5.8c11.8,16,24.9,29.2,38.6,38.8
				l-0.6,19.7c-2.6,35.8-13.3,41.2-34.6,52c-1.1,0.6-2.2,1.1-3.4,1.7C163.4,159.4,162.3,157.5,161.2,155.6z"/>
			<path class="st25" d="M164.4,49.1c11.8,16,24.9,29.2,38.6,38.8l-0.6,19.7c-2.6,35.8-13.3,41.2-34.6,52c-1.1,0.6-2.2,1.1-3.4,1.7
				V49.1z"/>
		</g>
	</g>
	<path class="st7" d="M171.7,249.9c-37.7,0-74-8.3-102.2-23.3c-0.3-0.1-0.5-0.4-0.5-0.8c0-0.3,0.2-0.6,0.4-0.8l70.9-39.1v-20
		c0-0.3,0.2-0.6,0.4-0.8l27.9-15.4l0.9,1.5l-27.5,15.1v20c0,0.3-0.2,0.6-0.4,0.8l-69.9,38.6c27.8,14.4,63.2,22.4,99.9,22.4
		c22,0,43.2-2.8,63-8.2l0.5,1.7C215.2,247.1,193.9,249.9,171.7,249.9z"/>
	<path class="st6" d="M171.7,228.4c-37.7,0-74-8.3-102.2-23.3c-0.3-0.1-0.5-0.4-0.5-0.8c0-0.3,0.2-0.6,0.4-0.8l70.9-39.1v-20
		c0-0.3,0.2-0.6,0.4-0.8l30.5-16.5l0.9,1.5l-30.1,16.3v20c0,0.3-0.2,0.6-0.4,0.8l-69.9,38.6c27.8,14.4,63.2,22.4,99.9,22.4
		c22,0,43.2-2.8,63-8.2l0.5,1.7C215.2,225.6,193.9,228.4,171.7,228.4z"/>
	<g>
		<g class="st11">
			<path class="st12" d="M163.4,258c-1.3,0-2.5-0.3-3.4-0.8l-10.2-5.9l-10.2-5.9c-1.2-0.7-1.9-1.8-1.9-3.1c0-1.4,0.9-2.7,2.3-3.5
				l2.5-1.5c1.2-0.7,2.6-1.1,4.1-1.1c1.3,0,2.5,0.3,3.4,0.8l10.2,5.9l10.2,5.9c1.2,0.7,1.9,1.8,1.9,3.1c0,1.4-0.9,2.7-2.3,3.5
				l-2.6,1.5C166.3,257.6,164.9,258,163.4,258z"/>
			<path class="st13" d="M140,238.9l0.5-0.3c0.1,0,1.9-1.1,2-1.1c1.2-0.6,2.6-1,4.1-0.9c0.2,0,0.4,0,0.6,0c0.9,0.1,2,0.4,2.7,0.8
				l10.1,5.8l10,5.8c0.9,0.5,1.6,1.4,1.9,2.2c0.1,0.2,0.1,0.5,0.1,0.7c0.1,1.3-0.7,2.6-2.2,3.4l-0.5,0.3c-0.1,0-1.9,1.1-2,1.1
				c-1.2,0.6-2.6,1-4.1,0.9c-0.2,0-0.4,0-0.6,0c-0.9-0.1-2-0.4-2.7-0.8l-10.1-5.8l-10-5.8c-0.9-0.5-1.6-1.4-1.9-2.2
				c-0.1-0.2-0.1-0.5-0.1-0.7C137.8,241.1,138.6,239.8,140,238.9z"/>
			<path class="st14" d="M140.1,239.1l0.5-0.3c0.1-0.1,1.9-1.1,2-1.1c1.2-0.6,2.6-0.9,4-0.8c0.2,0,0.4,0,0.6,0.1
				c0.9,0.1,2,0.5,2.6,0.9l9.9,5.7l9.8,5.7c0.8,0.5,1.7,1.4,1.9,2.1c0.1,0.2,0.1,0.4,0.2,0.7c0.1,1.3-0.6,2.5-2.1,3.4l-0.5,0.3
				c-0.1,0.1-1.9,1.1-2,1.1c-1.2,0.6-2.6,0.9-4,0.8c-0.2,0-0.4,0-0.6,0c-0.9-0.1-2-0.5-2.6-0.9L150,251l-9.8-5.7
				c-0.8-0.5-1.7-1.4-1.9-2.1c-0.1-0.2-0.1-0.4-0.2-0.7C137.9,241.2,138.6,239.9,140.1,239.1z"/>
			<path class="st15" d="M140.2,239.2l0.5-0.3c0.1-0.1,1.8-1,1.9-1c1.2-0.6,2.6-0.8,3.9-0.7c0.2,0,0.4,0.1,0.6,0.1
				c0.8,0.1,2,0.6,2.6,0.9l9.7,5.6l9.6,5.6c0.7,0.4,1.7,1.4,1.9,2c0.1,0.2,0.1,0.4,0.2,0.6c0.2,1.2-0.5,2.5-1.9,3.3l-0.5,0.3
				c-0.1,0.1-1.8,1-1.9,1c-1.2,0.6-2.6,0.8-3.9,0.7c-0.2,0-0.4,0-0.6-0.1c-0.8-0.1-2-0.6-2.6-0.9l-9.7-5.6l-9.6-5.6
				c-0.7-0.4-1.7-1.4-1.9-2c-0.1-0.2-0.1-0.4-0.2-0.6C138.1,241.3,138.8,240.1,140.2,239.2z"/>
			<path class="st16" d="M140.3,239.4l0.5-0.2c0.2-0.1,1.7-0.9,1.9-1c1.2-0.5,2.6-0.7,3.8-0.6c0.2,0,0.4,0.1,0.6,0.1
				c0.7,0.1,2,0.6,2.5,0.9l9.5,5.5l9.5,5.5c0.6,0.4,1.7,1.4,1.9,1.9c0.1,0.2,0.2,0.4,0.2,0.6c0.3,1.2-0.4,2.4-1.8,3.3l-0.5,0.2
				c-0.2,0.1-1.7,1-1.9,1c-1.2,0.5-2.6,0.7-3.8,0.6c-0.2,0-0.4-0.1-0.6-0.1c-0.7-0.1-2-0.6-2.5-0.9l-9.5-5.5l-9.5-5.5
				c-0.6-0.4-1.7-1.4-1.9-1.9c-0.1-0.2-0.2-0.4-0.2-0.6C138.2,241.5,138.8,240.2,140.3,239.4z"/>
			<path class="st17" d="M140.4,239.6l0.5-0.2c0.2-0.1,1.6-0.9,1.9-0.9c1.2-0.5,2.5-0.6,3.8-0.5c0.2,0,0.4,0.1,0.5,0.1
				c0.6,0.1,2,0.7,2.4,0.9l9.3,5.4l9.3,5.4c0.5,0.3,1.8,1.4,2,1.8c0.1,0.2,0.2,0.4,0.3,0.6c0.4,1.1-0.2,2.4-1.7,3.2l-0.5,0.2
				c-0.2,0.1-1.6,0.9-1.9,0.9c-1.2,0.5-2.5,0.6-3.8,0.5c-0.2,0-0.4-0.1-0.5-0.1c-0.6-0.1-2-0.7-2.4-0.9l-9.3-5.4l-9.3-5.4
				c-0.5-0.3-1.8-1.4-2-1.8c-0.1-0.2-0.2-0.4-0.3-0.6C138.4,241.6,138.9,240.4,140.4,239.6z"/>
			<path class="st18" d="M140.5,239.7l0.5-0.2c0.3-0.2,1.5-0.8,1.9-0.9c1.2-0.4,2.5-0.6,3.7-0.4c0.2,0,0.3,0.1,0.5,0.1
				c0.5,0.1,2,0.8,2.3,1l9.1,5.3l9.1,5.2c0.4,0.3,1.9,1.3,2,1.7c0.1,0.2,0.2,0.4,0.3,0.5c0.4,1.1-0.1,2.3-1.5,3.1l-0.5,0.2
				c-0.3,0.2-1.5,0.8-1.9,0.9c-1.2,0.4-2.5,0.6-3.7,0.4c-0.2,0-0.3-0.1-0.5-0.1c-0.5-0.1-2-0.8-2.3-1l-9.1-5.3l-9.1-5.2
				c-0.4-0.3-1.9-1.3-2-1.7c-0.1-0.2-0.2-0.4-0.3-0.5C138.5,241.8,139,240.5,140.5,239.7z"/>
			<path class="st19" d="M140.6,239.9l0.5-0.2c0.3-0.2,1.4-0.8,1.8-0.8c1.2-0.4,2.5-0.5,3.6-0.2c0.2,0,0.3,0.1,0.5,0.1
				c0.4,0.1,2,0.9,2.3,1l9,5.2l8.9,5.1c0.4,0.2,1.9,1.3,2,1.6c0.1,0.2,0.2,0.3,0.3,0.5c0.5,1,0,2.2-1.4,3.1l-0.5,0.2
				c-0.3,0.2-1.4,0.8-1.8,0.8c-1.2,0.4-2.5,0.5-3.6,0.2c-0.2,0-0.3-0.1-0.5-0.1c-0.4-0.1-2-0.9-2.3-1l-9-5.2l-8.9-5.1
				c-0.4-0.2-1.9-1.3-2-1.6c-0.1-0.2-0.2-0.3-0.3-0.5C138.6,241.9,139.1,240.7,140.6,239.9z"/>
			<path class="st20" d="M140.7,240l0.5-0.2c0.4-0.2,1.4-0.7,1.8-0.8c1.2-0.4,2.5-0.4,3.6-0.1c0.2,0,0.3,0.1,0.5,0.1
				c0.3,0.1,2,0.9,2.2,1.1l8.8,5.1l8.7,5c0.3,0.2,2,1.3,2,1.5c0.1,0.1,0.3,0.3,0.4,0.5c0.6,1,0.2,2.2-1.3,3l-0.5,0.2
				c-0.4,0.2-1.4,0.7-1.8,0.8c-1.2,0.4-2.5,0.4-3.6,0.1c-0.2,0-0.3-0.1-0.5-0.1c-0.3-0.1-2-0.9-2.2-1.1l-8.8-5.1l-8.7-5
				c-0.3-0.2-2-1.3-2-1.5c-0.1-0.1-0.3-0.3-0.4-0.5C138.8,242.1,139.2,240.9,140.7,240z"/>
			<path class="st21" d="M140.8,240.2l0.5-0.2c0.4-0.2,1.3-0.6,1.8-0.7c1.2-0.3,2.5-0.3,3.5,0c0.2,0.1,0.3,0.1,0.4,0.2
				c0.2,0.1,2,1,2.1,1.1l8.6,5l8.5,4.9c0.2,0.1,2,1.2,2.1,1.4c0.2,0.1,0.3,0.3,0.4,0.4c0.7,0.9,0.3,2.1-1.1,3l-0.5,0.2
				c-0.4,0.2-1.3,0.6-1.8,0.7c-1.2,0.3-2.5,0.3-3.5,0c-0.2,0-0.3-0.1-0.4-0.2c-0.2-0.1-2-1-2.1-1.1l-8.6-5l-8.5-4.9
				c-0.2-0.1-2-1.2-2.1-1.4c-0.2-0.1-0.3-0.3-0.4-0.4C138.9,242.2,139.3,241,140.8,240.2z"/>
			<path class="st22" d="M140.8,240.3l0.5-0.2c0.5-0.3,1.2-0.6,1.8-0.7c1.2-0.3,2.4-0.2,3.4,0.1c0.1,0.1,0.3,0.1,0.4,0.2
				c0.1,0,2,1.1,2.1,1.1l8.4,4.9l8.3,4.8c0.1,0.1,2.1,1.2,2.1,1.3c0.2,0.1,0.3,0.2,0.4,0.4c0.8,0.9,0.4,2.1-1,2.9l-0.5,0.2
				c-0.5,0.3-1.2,0.6-1.8,0.7c-1.2,0.3-2.4,0.2-3.4-0.1c-0.1-0.1-0.3-0.1-0.4-0.2c-0.1,0-2-1.1-2.1-1.1l-8.4-4.9l-8.3-4.8
				c-0.1-0.1-2.1-1.2-2.1-1.3c-0.2-0.1-0.3-0.2-0.4-0.4C139.1,242.3,139.4,241.1,140.8,240.3z"/>
			<path d="M161,255.5l-10.2-5.9l-10.2-5.9c-1.4-0.8-1.2-2.2,0.4-3.2l0.5-0.1c1.6-0.9,4.1-1.1,5.5-0.2l10.2,5.9l10.2,5.9
				c1.4,0.8,1.2,2.2-0.4,3.2l-0.5,0.1C164.9,256.2,162.4,256.3,161,255.5z"/>
		</g>
		<path class="st27" d="M163.7,255.1l-19.1-11c-2.1-1.2-3.9-4.6-3.9-7.4v-53.9c0-1.5-1.2-1.8-0.5-2.3c0,0,1.7-0.8,1.7-0.8
			c0.8-0.3,1.6-0.4,2.6,0.1l19.1,11c2.1,1.2,3.9,4.6,3.9,7.4v53.9c0,1.5-0.5,2.6-1.3,3.1c-0.1,0-2.1,1-2.1,1
			C163.5,256.5,164.7,255.6,163.7,255.1z"/>
		
			<radialGradient id="SVGID_00000108301230091167931410000012528181684399035568_" cx="-1059.2571" cy="61.9893" r="27.5778" gradientTransform="matrix(1 0 0 -1 1224.6067 257.8898)" gradientUnits="userSpaceOnUse">
			<stop  offset="0" style="stop-color:#AF8AFC"/>
			<stop  offset="1" style="stop-color:#10054D"/>
		</radialGradient>
		<path style="opacity:0.6;fill:url(#SVGID_00000108301230091167931410000012528181684399035568_);enable-background:new    ;" d="
			M162.2,252.7l-19.1-11c-2.1-1.2-3.9-4.6-3.9-7.4v-50.9c0-2.9,1.8-4.2,3.9-2.9l19.1,11c2.1,1.2,3.9,4.6,3.9,7.4v50.9
			C166.1,252.6,164.4,254,162.2,252.7z"/>
		<path class="st24" d="M161.9,256l-19.1-11c-2.1-1.2-3.9-4.6-3.9-7.4v-53.9c0-2.9,1.8-4.2,3.9-2.9l19.1,11c2.1,1.2,3.9,4.6,3.9,7.4
			V253C165.8,255.9,164.1,257.2,161.9,256z"/>
		<path class="st25" d="M139.4,237.8v-54c0-2.5,1.5-3.7,3.4-2.6l19,11c1.9,1.1,3.4,4,3.4,6.5v54c0,2.5-1.5,3.7-3.4,2.6l-19-11
			C141,243.3,139.4,240.3,139.4,237.8z"/>
		<path class="st26" d="M140.2,235.1v-50.7c0-2.1,1.3-3.1,2.9-2.2l18.6,10.7c1.6,0.9,2.9,3.4,2.9,5.5v50.7c0,2.1-1.3,3.1-2.9,2.2
			l-18.6-10.7C141.5,239.6,140.2,237.2,140.2,235.1z"/>
		<path class="st7" d="M143.3,182.8c-1.5-0.9-2.7-0.2-2.7,1.5v51.2c0,1.7,1.2,3.8,2.7,4.6l18.2,10.5c1.5,0.9,2.7,0.2,2.7-1.5v-51.2
			c0-1.7-1.2-3.8-2.7-4.6L143.3,182.8z"/>
		
			<linearGradient id="SVGID_00000136369602297637784000000010832955604321196692_" gradientUnits="userSpaceOnUse" x1="-682.6699" y1="-11475.8701" x2="-678.3225" y2="-11475.8701" gradientTransform="matrix(-0.5 1.4434 0.866 -0.5 9764.7646 -4546.8965)">
			<stop  offset="0" style="stop-color:#311B61"/>
			<stop  offset="0.2031" style="stop-color:#290F52"/>
			<stop  offset="0.4949" style="stop-color:#200041"/>
			<stop  offset="1" style="stop-color:#0F001F"/>
		</linearGradient>
		<path style="fill:url(#SVGID_00000136369602297637784000000010832955604321196692_);" d="M166.3,210.9v-3.4c0-0.4,0.3-0.9,0.6-1.1
			l0,0c0.3-0.2,0.6,0,0.6,0.4v3.4c0,0.4-0.3,0.9-0.6,1.1l0,0C166.6,211.5,166.3,211.3,166.3,210.9z"/>
		
			<linearGradient id="SVGID_00000026121774737750533140000000005197468823792275_" gradientUnits="userSpaceOnUse" x1="-1056.5823" y1="49.0317" x2="-1059.582" y2="49.1607" gradientTransform="matrix(1 0 0 -1 1224.6067 257.8898)">
			<stop  offset="0" style="stop-color:#3D065F"/>
			<stop  offset="1" style="stop-color:#5F27BD"/>
		</linearGradient>
		<path style="fill:url(#SVGID_00000026121774737750533140000000005197468823792275_);" d="M166.7,211.3c-0.2,0-0.2-0.2-0.2-0.4
			v-3.4c0-0.4,0.2-0.9,0.5-1c0.1,0,0.1-0.1,0.2-0.1c0.2,0,0.2,0.2,0.2,0.4v3.4c0,0.4-0.2,0.9-0.5,1
			C166.8,211.2,166.7,211.3,166.7,211.3z"/>
		
			<radialGradient id="SVGID_00000137129157351014461140000015096564799713690256_" cx="-1058.0907" cy="50.3107" r="1.7617" gradientTransform="matrix(1 0 0 -1 1224.6067 257.8898)" gradientUnits="userSpaceOnUse">
			<stop  offset="0" style="stop-color:#711F56"/>
			<stop  offset="0.1614" style="stop-color:#6C1E52"/>
			<stop  offset="0.3626" style="stop-color:#5C1946"/>
			<stop  offset="0.5849" style="stop-color:#431233"/>
			<stop  offset="0.8208" style="stop-color:#200918"/>
			<stop  offset="1" style="stop-color:#000000"/>
		</radialGradient>
		<path style="fill:url(#SVGID_00000137129157351014461140000015096564799713690256_);" d="M166.6,211v-3.4c0-0.4,0.2-0.9,0.5-1
			c0.1,0,0.1-0.1,0.1-0.1c0-0.1-0.1-0.1-0.2-0.1c-0.1,0-0.1,0-0.2,0.1c-0.3,0.2-0.5,0.6-0.5,1v3.4c0,0.2,0.1,0.4,0.2,0.4h0
			C166.6,211.2,166.6,211.1,166.6,211z"/>
		<path class="st71" d="M161.4,193.3l-18.2-10.5c-1.5-0.9-2.7-0.2-2.7,1.5v51.2c0,1.7,1.2,3.8,2.7,4.6l18.2,10.5
			c1.5,0.9,2.7,0.2,2.7-1.5v-51.2C164.1,196.2,162.9,194.2,161.4,193.3z M163.9,249.2c0,0.5-0.1,1-0.4,1.3c-0.2,0.3-0.5,0.4-0.9,0.4
			l0,0c-0.3,0-0.7-0.1-1.1-0.3L143.4,240c-1.4-0.8-2.6-2.8-2.6-4.4v-51.2c0-1,0.5-1.7,1.2-1.7c0.3,0,0.7,0.1,1.1,0.3l18.2,10.5
			c1.4,0.8,2.6,2.8,2.6,4.4V249.2z"/>
		<g>
			<g>
				
					<linearGradient id="SVGID_00000118356068774826590570000011293510607457919128_" gradientUnits="userSpaceOnUse" x1="-928.697" y1="8.8621" x2="-930.9727" y2="12.8046" gradientTransform="matrix(1 0 0 -1 1081.4167 257.8898)">
					<stop  offset="0.2879" style="stop-color:#838091"/>
					<stop  offset="0.4656" style="stop-color:#A5A2B1"/>
					<stop  offset="0.5859" style="stop-color:#B7B4C2"/>
					<stop  offset="0.8081" style="stop-color:#9B98A7"/>
				</linearGradient>
				<path style="fill:url(#SVGID_00000118356068774826590570000011293510607457919128_);" d="M153.1,248.1c0,0.5-0.2,0.8-0.4,1
					c0,0-0.5,0.3-0.5,0.3c-0.3,0.1-0.1-0.2-0.5-0.4c-0.8-0.5-1.5-1.6-1.5-2.6c0-0.5-0.4-0.5-0.2-0.6c0,0,0.5-0.3,0.5-0.3
					c0.3-0.1,0.6-0.1,1.1,0.1C152.5,246,153.1,247.1,153.1,248.1z"/>
				
					<linearGradient id="SVGID_00000170957472070998941820000013062428707932842148_" gradientUnits="userSpaceOnUse" x1="-931.0085" y1="9.1775" x2="-928.9975" y2="12.6437" gradientTransform="matrix(1 0 0 -1 1081.4167 257.8898)">
					<stop  offset="3.540000e-02" style="stop-color:#9D9EB3"/>
					<stop  offset="0.5808" style="stop-color:#D4D1D8"/>
					<stop  offset="1" style="stop-color:#EEEBF2"/>
				</linearGradient>
				<path style="fill:url(#SVGID_00000170957472070998941820000013062428707932842148_);" d="M152.6,248.4c0,1-0.7,1.3-1.5,0.9
					s-1.5-1.6-1.5-2.6c0-1,0.7-1.3,1.5-0.9C151.9,246.3,152.6,247.4,152.6,248.4z"/>
				
					<linearGradient id="SVGID_00000009586288050807670310000007418246779070797223_" gradientUnits="userSpaceOnUse" x1="-929.6801" y1="8.6674" x2="-931.6334" y2="12.0513" gradientTransform="matrix(1 0 0 -1 1081.4167 257.8898)">
					<stop  offset="0.1667" style="stop-color:#838091"/>
					<stop  offset="0.4167" style="stop-color:#A5A2B1"/>
					<stop  offset="0.5859" style="stop-color:#B7B4C2"/>
					<stop  offset="0.9091" style="stop-color:#9B98A7"/>
				</linearGradient>
				<path style="fill:url(#SVGID_00000009586288050807670310000007418246779070797223_);" d="M152.2,248.3c0,0.4-0.1,0.7-0.4,0.8
					c0,0-0.7,0.4-0.7,0.4c-0.2,0.1-0.1-0.2-0.4-0.4c-0.7-0.4-1.3-1.4-1.3-2.2c0-0.4-0.4-0.4-0.1-0.5c0,0,0.8-0.4,0.8-0.4
					c0.2-0.1,0.6-0.1,0.9,0.1C151.7,246.5,152.2,247.5,152.2,248.3z"/>
				
					<linearGradient id="SVGID_00000034071901269204466890000013441646693364863874_" gradientUnits="userSpaceOnUse" x1="-931.8206" y1="8.8412" x2="-930.0945" y2="11.8163" gradientTransform="matrix(1 0 0 -1 1081.4167 257.8898)">
					<stop  offset="3.540000e-02" style="stop-color:#9D9EB3"/>
					<stop  offset="0.5808" style="stop-color:#D4D1D8"/>
					<stop  offset="1" style="stop-color:#EEEBF2"/>
				</linearGradient>
				<path style="fill:url(#SVGID_00000034071901269204466890000013441646693364863874_);" d="M151.5,248.8c0,0.8-0.6,1.1-1.3,0.7
					c-0.7-0.4-1.3-1.4-1.3-2.2c0-0.8,0.6-1.1,1.3-0.7S151.5,247.9,151.5,248.8z"/>
				<path class="st32" d="M151.2,245.8c-0.4-0.2-0.8-0.3-1-0.1c0.2-0.1,0.6,0,0.9,0.2c0.8,0.5,1.5,1.6,1.5,2.6c0,0.5-0.2,0.8-0.5,1
					c0.4-0.1,0.6-0.5,0.6-1C152.7,247.4,152,246.2,151.2,245.8z"/>
				
					<radialGradient id="SVGID_00000078006645958477388460000009210247897154520207_" cx="-930.5862" cy="10.367" r="1.4058" gradientTransform="matrix(1 0 0 -1 1081.4167 257.8898)" gradientUnits="userSpaceOnUse">
					<stop  offset="0" style="stop-color:#FFFFFF"/>
					<stop  offset="1" style="stop-color:#000000"/>
				</radialGradient>
				<path style="fill:url(#SVGID_00000078006645958477388460000009210247897154520207_);" d="M150.2,246.5c-0.3-0.2-0.7-0.2-0.9-0.1
					c0.2-0.1,0.5,0,0.8,0.1c0.7,0.4,1.3,1.4,1.3,2.2c0,0.4-0.2,0.7-0.4,0.9c0.3-0.1,0.5-0.4,0.5-0.9
					C151.5,247.9,151,246.9,150.2,246.5z"/>
				<path class="st7" d="M150.9,248.6c0,0.5-0.3,0.7-0.8,0.4c-0.4-0.2-0.8-0.8-0.8-1.3c0-0.5,0.3-0.7,0.8-0.4
					C150.5,247.5,150.9,248.1,150.9,248.6z"/>
			</g>
		</g>
	</g>
	<g>
		<polygon class="st77" points="273.4,37.3 277.9,39.9 277.9,38.6 273.4,36 		"/>
		<polygon class="st77" points="275.3,48.2 270.8,45.6 270.8,47 275.3,49.5 		"/>
		<polygon class="st77" points="275,41.1 275,39.8 270.1,37 270.1,38.3 		"/>
		<polygon class="st77" points="269.8,42.2 269.8,43.6 272.3,45 272.3,43.7 		"/>
		<polygon class="st77" points="266,44.2 266,42.9 261.8,40.5 261.8,41.9 		"/>
		<polygon class="st77" points="277.2,46.5 273.7,44.5 273.7,45.8 277.2,47.8 		"/>
		<polygon class="st77" points="272.1,40.9 272.1,42.2 274.2,43.4 274.2,42.1 		"/>
		<polygon class="st77" points="279.2,39.3 279.2,40.7 280.4,41.3 280.4,40 		"/>
		<polygon class="st77" points="270.8,41.5 270.8,40.1 266.5,37.7 266.5,39 		"/>
		<polygon class="st77" points="276.4,40.6 276.4,41.9 282.7,45.5 282.7,44.2 		"/>
		<polygon class="st77" points="268.5,42.8 268.5,41.5 263.1,38.5 263.1,39.8 		"/>
		<polygon class="st77" points="264.4,30.9 264.4,32.2 268.6,34.6 268.6,33.3 		"/>
		<polygon class="st77" points="272.1,35.2 270,34 270,35.3 272.1,36.6 		"/>
		<polygon class="st77" points="269.5,44.9 267.3,43.6 267.3,45 269.5,46.2 		"/>
		<polygon class="st77" points="281.5,50.3 287.2,53.6 287.2,52.3 281.5,49 		"/>
		<polygon class="st77" points="260.5,39.8 258.5,38.6 258.5,40 260.5,41.1 		"/>
		<polygon class="st77" points="254.3,25.3 254.3,26.6 263.4,31.8 263.4,30.4 		"/>
		<polygon class="st77" points="282.8,48.3 284.9,49.5 284.9,48.2 282.8,47 		"/>
		<polygon class="st77" points="284,46.3 293.9,52 293.9,50.6 284,44.9 		"/>
		<polygon class="st77" points="275.5,44.2 281.5,47.6 281.5,46.2 275.5,42.8 		"/>
		<polygon class="st77" points="281.7,40.8 281.7,42.1 286.5,44.8 286.5,43.5 		"/>
		<polygon class="st77" points="261.8,37.7 258.5,35.9 258.5,37.2 261.8,39 		"/>
		<polygon class="st77" points="280.2,48.2 278.5,47.3 278.5,48.6 280.2,49.6 		"/>
		<polygon class="st77" points="265.2,36.9 258.5,33.1 258.5,34.4 265.2,38.3 		"/>
		<polygon class="st77" points="276.5,52.9 281.9,56 281.9,54.7 276.5,51.6 		"/>
		<polygon class="st77" points="268.7,36.2 258.5,30.4 258.5,31.7 268.7,37.5 		"/>
	</g>
	<g>
		<polygon class="st77" points="275.3,59.2 270.8,56.6 270.8,57.9 275.3,60.5 		"/>
		<polygon class="st77" points="275,52.1 275,50.8 270.1,47.9 270.1,49.3 		"/>
		<polygon class="st77" points="269.8,53.2 269.8,54.5 272.3,56 272.3,54.7 		"/>
		<polygon class="st77" points="266,55.2 266,53.8 261.8,51.5 261.8,52.8 		"/>
		<polygon class="st77" points="277.2,57.5 273.7,55.4 273.7,56.8 277.2,58.8 		"/>
		<polygon class="st77" points="272.1,51.8 272.1,53.2 274.2,54.4 274.2,53 		"/>
		<polygon class="st77" points="270.8,52.4 270.8,51.1 266.5,48.7 266.5,50 		"/>
		<polygon class="st77" points="268.5,53.8 268.5,52.4 263.1,49.4 263.1,50.8 		"/>
		<polygon class="st77" points="269.5,55.8 267.3,54.6 267.3,55.9 269.5,57.2 		"/>
		<polygon class="st77" points="281.5,61.3 287.2,64.6 287.2,63.3 281.5,60 		"/>
		<polygon class="st77" points="260.5,50.8 258.5,49.6 258.5,50.9 260.5,52.1 		"/>
		<polygon class="st77" points="282.8,59.3 284.9,60.5 284.9,59.2 282.8,58 		"/>
		<polygon class="st77" points="275.5,55.1 281.5,58.5 281.5,57.2 275.5,53.8 		"/>
		<polygon class="st77" points="261.8,48.7 258.5,46.8 258.5,48.2 261.8,50 		"/>
		<polygon class="st77" points="280.2,59.2 278.5,58.2 278.5,59.6 280.2,60.5 		"/>
		<polygon class="st77" points="265.2,47.9 258.5,44.1 258.5,45.4 265.2,49.2 		"/>
		<polygon class="st77" points="269.1,58.3 269.1,59.6 271.2,60.8 271.2,59.5 		"/>
		<polygon class="st77" points="267.8,58.8 267.8,57.5 263.5,55.1 263.5,56.4 		"/>
		<polygon class="st77" points="279.8,65.7 281.9,66.9 281.9,65.6 279.8,64.4 		"/>
		<polygon class="st77" points="272.5,61.5 278.5,65 278.5,63.6 272.5,60.2 		"/>
		<polygon class="st77" points="262.1,54.3 255.4,50.5 255.4,51.8 262.1,55.7 		"/>
		<polygon class="st77" points="268.7,47.2 258.5,41.3 258.5,42.6 268.7,48.5 		"/>
	</g>
	<g>
		<path class="st78" d="M143.3,203l8.1,4.7c0.5,0.3,0.9,1,0.9,1.6v5.5c0,0.6-0.4,0.8-0.9,0.5l-5.1-2.9l-2.6,1.4v-2.9l-0.5-0.3
			c-0.5-0.3-0.9-1-0.9-1.6v-5.5C142.4,203,142.8,202.8,143.3,203z"/>
		<path class="st24" d="M145.7,207.7c0.3,0.5,0.3,0.9,0,1.1c-0.3,0.1-0.7-0.1-1-0.6c-0.3-0.5-0.3-0.9,0-1.1
			C145,207,145.4,207.2,145.7,207.7z"/>
		<path class="st24" d="M147.9,208.9c0.3,0.5,0.3,0.9,0,1.1c-0.3,0.1-0.7-0.1-1-0.6c-0.3-0.5-0.3-0.9,0-1.1
			C147.2,208.2,147.6,208.5,147.9,208.9z"/>
		<path class="st24" d="M150.1,210.2c0.3,0.5,0.3,0.9,0,1.1s-0.7-0.1-1-0.6c-0.3-0.5-0.3-0.9,0-1.1S149.9,209.8,150.1,210.2z"/>
		<path class="st78" d="M143.3,224.4l10.8,6.3c0.5,0.3,0.9,1,0.9,1.6v5.5c0,0.6-0.4,0.8-0.9,0.5l-7.8-4.5l-2.6,1.4v-2.9l-0.5-0.3
			c-0.5-0.3-0.9-1-0.9-1.6v-5.5C142.4,224.4,142.8,224.1,143.3,224.4z"/>
		<path class="st78" d="M160.8,201.3l-17.3-10c-0.6-0.4-1.1-0.1-1.1,0.6v6.8c0,0.7,0.5,1.6,1.1,1.9l13.5,7.8l3.1,5.4v-3.6l0.6,0.4
			c0.6,0.4,1.1,0.1,1.1-0.6v-6.8C161.9,202.5,161.4,201.6,160.8,201.3z"/>
		<g>
			<polygon class="st24" points="152,202.4 145,198.4 145,199.2 152,203.1 			"/>
			<polygon class="st24" points="151.6,198.5 145,194.8 145,195.6 151.6,199.2 			"/>
			<polygon class="st24" points="149,198.8 145,196.6 145,197.4 149,199.6 			"/>
			<polygon class="st24" points="149.8,199.2 149.8,200 155.2,203.2 155.2,202.4 			"/>
			<polygon class="st24" points="152.7,202.8 152.7,203.6 153.7,204.1 153.7,203.4 			"/>
			<polygon class="st24" points="152.4,199.7 159.3,203.7 159.3,202.9 152.4,198.9 			"/>
			<polygon class="st24" points="156,203.6 159.3,205.5 159.3,204.8 156,202.9 			"/>
			<polygon class="st24" points="154.5,204.6 159.3,207.4 159.3,206.6 154.5,203.8 			"/>
		</g>
		<path class="st78" d="M160.8,223l-13.8-8c-0.6-0.4-1.1-0.1-1.1,0.6v6.8c0,0.7,0.5,1.6,1.1,1.9l10,5.9l3.1,5.4V232l0.6,0.4
			c0.6,0.4,1.1,0.1,1.1-0.6V225C161.9,224.2,161.4,223.4,160.8,223z"/>
		<g>
			<polygon class="st24" points="152,224.1 148.5,222.2 148.5,222.9 152,224.9 			"/>
			<polygon class="st24" points="151.6,220.3 148.5,218.5 148.5,219.3 151.6,221 			"/>
			<polygon class="st24" points="149.6,221 148.5,220.4 148.5,221.1 149.6,221.7 			"/>
			<polygon class="st24" points="150.4,221.4 150.4,222.2 155.2,224.9 155.2,224.2 			"/>
			<polygon class="st24" points="152.7,224.6 152.7,225.3 153.7,225.9 153.7,225.1 			"/>
			<polygon class="st24" points="152.4,221.5 159.3,225.5 159.3,224.7 152.4,220.7 			"/>
			<polygon class="st24" points="156,225.4 159.3,227.3 159.3,226.5 156,224.6 			"/>
			<polygon class="st24" points="154.5,226.3 159.3,229.1 159.3,228.4 154.5,225.6 			"/>
		</g>
		<g>
			<polygon class="st24" points="147.4,229.2 144.2,227.5 144.2,228.2 147.4,230 			"/>
			<polygon class="st24" points="145.4,229.9 144.2,229.3 144.2,230.1 145.4,230.7 			"/>
			<polygon class="st24" points="146.1,230.4 146.1,231.1 151,233.9 151,233.1 			"/>
			<polygon class="st24" points="148.1,230.4 152.9,233.2 152.9,232.4 148.1,229.6 			"/>
			<polygon class="st24" points="151.7,234.3 152.9,235 152.9,234.2 151.7,233.6 			"/>
		</g>
	</g>
	<path class="st24" d="M85,26.7l-12,6.9c-0.8,0.4-1.4,1.5-1.4,2.4v7.4c0,0.9,0.6,1.2,1.4,0.8l12-6.9c0.8-0.4,1.4-1.5,1.4-2.4v-7.4
		C86.4,26.6,85.8,26.3,85,26.7z M85.7,35.3c0,0.4-0.3,0.9-0.7,1.1l-12,6.9c-0.4,0.2-0.7,0-0.7-0.4v-7.4c0-0.4,0.3-0.9,0.7-1.1
		l12-6.9c0.4-0.2,0.7,0,0.7,0.4V35.3z M81.3,31c-1,0.6-1.9,1.7-2.3,3c-0.5-0.7-1.3-0.8-2.3-0.2c-1.5,0.9-2.7,3-2.7,4.7
		s1.2,2.4,2.7,1.5c1-0.6,1.9-1.7,2.3-3c0.5,0.7,1.3,0.8,2.3,0.2c1.5-0.9,2.7-3,2.7-4.7C84.1,30.9,82.8,30.2,81.3,31z"/>
	<path class="st77" d="M93.5,36.1L56.3,57.8c-0.6,0.3-1,1.1-1,1.8v4.8c0,0.7,0.5,0.9,1,0.6l37.2-21.7c0.6-0.3,1-1.1,1-1.8v-4.8
		C94.6,36,94.1,35.7,93.5,36.1z M94,41.8c0,0.3-0.2,0.7-0.5,0.8L56.3,64.4c-0.3,0.2-0.5,0-0.5-0.3v-4.8c0-0.3,0.2-0.7,0.5-0.8
		l37.2-21.7c0.3-0.2,0.5,0,0.5,0.3V41.8z"/>
	<path class="st77" d="M93.5,44.8L56.3,66.5c-0.6,0.3-1,1.1-1,1.8v4.8c0,0.7,0.5,0.9,1,0.6L93.5,52c0.6-0.3,1-1.1,1-1.8v-4.8
		C94.6,44.7,94.1,44.5,93.5,44.8z M94,50.5c0,0.3-0.2,0.7-0.5,0.8L56.3,73.1c-0.3,0.2-0.5,0-0.5-0.3V68c0-0.3,0.2-0.7,0.5-0.8
		l37.2-21.7c0.3-0.2,0.5,0,0.5,0.3V50.5z"/>
	<polygon class="st24" points="64,39.3 69.2,36.3 69.2,35.2 64,38.2 	"/>
	<path class="st24" d="M71.1,39.1l-7.4,4.3c-0.4,0.2-0.7,0-0.7-0.4v-5.8l13.3-7.7v1.6l0.7-0.4v-3.3c0-0.9-0.6-1.2-1.4-0.8l-12,6.9
		c-0.8,0.4-1.4,1.5-1.4,2.4v7.4c0,0.9,0.6,1.2,1.4,0.8l7.4-4.3L71.1,39.1L71.1,39.1z"/>
	<g>
		<path class="st24" d="M63,64.2l0.3,0.4l0.2,0.7l0.1-0.8l0.3-0.9l0.7,0.1l-0.3,0.9l-0.5,0.9l0.7-0.6l0.7-0.4v1l-0.6,0.4l-0.7,0.2
			l0.6,0.3l0.3,0.4l-0.8,0.9l-0.3-0.4l-0.2-0.8l-0.1,0.9L63,68.3l-0.8-0.1l0.3-0.9l0.5-0.8l-0.6,0.6l-0.7,0.4v-1l0.7-0.4l0.6-0.1
			l-0.6-0.3l-0.3-0.5L63,64.2z"/>
		<path class="st24" d="M67.4,61.6l0.3,0.5l0.2,0.7L68,62l0.3-0.9l0.8,0.1l-0.3,0.9L68.2,63l0.7-0.6l0.7-0.4v1l-0.6,0.4l-0.7,0.2
			l0.6,0.3l0.3,0.4l-0.8,0.9l-0.3-0.4L67.9,64l-0.1,0.9l-0.3,0.9l-0.8-0.1l0.3-0.9l0.5-0.8l-0.6,0.6l-0.7,0.4v-1l0.7-0.4l0.6-0.1
			L67,63.1l-0.3-0.5L67.4,61.6z"/>
		<path class="st24" d="M71.8,59.1l0.3,0.5l0.2,0.7l0.1-0.8l0.3-0.9l0.8,0.1l-0.3,0.9l-0.5,0.9l0.7-0.6l0.7-0.4v1l-0.6,0.4l-0.7,0.2
			l0.6,0.3l0.3,0.4l-0.8,1l-0.3-0.5l-0.2-0.8l-0.1,0.9l-0.3,0.9l-0.8-0.1l0.3-0.9l0.5-0.8L71.3,62l-0.7,0.4v-1l0.7-0.4l0.6-0.1
			l-0.6-0.3L71.1,60L71.8,59.1z"/>
		<path class="st24" d="M76.2,56.5l0.3,0.5l0.2,0.7l0.1-0.8l0.3-0.9l0.8,0.1L77.6,57l-0.5,0.9l0.7-0.6l0.7-0.4v1l-0.6,0.4l-0.7,0.2
			l0.6,0.3l0.3,0.4l-0.8,1l-0.3-0.5l-0.2-0.8l-0.1,0.9l-0.3,0.9l-0.8-0.1l0.3-0.9l0.5-0.8l-0.6,0.6L75,59.8v-1l0.7-0.4l0.6-0.1
			L75.8,58l-0.3-0.5L76.2,56.5z"/>
		<path class="st24" d="M80.7,54l0.3,0.5l0.2,0.7l0.1-0.8l0.3-0.9l0.8,0.1L82,54.4l-0.5,0.9l0.7-0.6l0.7-0.4v1l-0.6,0.4l-0.7,0.2
			l0.6,0.3l0.3,0.4l-0.8,1l-0.3-0.5l-0.2-0.8L81,57.2l-0.3,0.9L79.9,58l0.3-0.9l0.5-0.8l-0.6,0.6l-0.7,0.4v-1l0.7-0.4l0.6-0.1
			l-0.6-0.3l-0.3-0.5L80.7,54z"/>
		<path class="st24" d="M85.1,51.4l0.3,0.5l0.2,0.7l0.1-0.8l0.3-0.9l0.8,0.1l-0.3,0.9l-0.5,0.9l0.7-0.6l0.7-0.4v1l-0.6,0.4L86,53.3
			l0.6,0.3l0.3,0.4L86,55l-0.3-0.5l-0.2-0.8l-0.1,0.9l-0.3,0.9l-0.8-0.1l0.3-0.9l0.5-0.8l-0.6,0.6l-0.7,0.4v-1l0.7-0.4l0.6-0.1
			l-0.6-0.3l-0.3-0.5L85.1,51.4z"/>
	</g>
	<g>
		<path class="st24" d="M63,55.5l0.3,0.5l0.2,0.7l0.1-0.8l0.3-0.9l0.7,0.1l-0.3,0.9l-0.5,0.9l0.7-0.6l0.7-0.4v1l-0.6,0.4l-0.7,0.2
			l0.6,0.3l0.3,0.4l-0.8,1l-0.3-0.5l-0.2-0.8l-0.1,0.9L63,59.6l-0.8-0.1l0.3-0.9l0.5-0.8l-0.6,0.6l-0.7,0.4v-1l0.7-0.4l0.6-0.1
			l-0.6-0.3l-0.3-0.5L63,55.5z"/>
		<path class="st24" d="M67.4,52.9l0.3,0.5l0.2,0.7l0.1-0.8l0.3-0.9l0.8,0.1l-0.3,0.9l-0.5,0.9l0.7-0.6l0.7-0.4v1l-0.6,0.4l-0.7,0.2
			l0.6,0.3l0.3,0.4l-0.8,1L68.1,56l-0.2-0.8l-0.1,0.9L67.4,57l-0.8-0.1L67,56l0.5-0.8l-0.6,0.6l-0.7,0.4v-1l0.7-0.4l0.6-0.1L67,54.4
			l-0.3-0.5L67.4,52.9z"/>
		<path class="st24" d="M71.8,50.4l0.3,0.5l0.2,0.7l0.1-0.8l0.3-0.9l0.8,0.1l-0.3,0.9l-0.5,0.9l0.7-0.6l0.7-0.4v1l-0.6,0.4l-0.7,0.2
			l0.6,0.3l0.3,0.4l-0.8,1l-0.3-0.5l-0.2-0.8l-0.1,0.9l-0.3,0.9l-0.8-0.1l0.3-0.9l0.5-0.8l-0.6,0.6l-0.7,0.4v-1l0.7-0.4l0.6-0.1
			l-0.6-0.3l-0.3-0.5L71.8,50.4z"/>
		<path class="st24" d="M76.2,47.8l0.3,0.5l0.2,0.7l0.1-0.8l0.3-0.9l0.8,0.1l-0.3,0.9l-0.5,0.9l0.7-0.6l0.7-0.4v1l-0.6,0.4l-0.7,0.2
			l0.6,0.3l0.3,0.4l-0.8,1l-0.3-0.5l-0.2-0.8L76.6,51l-0.3,0.9l-0.8-0.1l0.3-0.9l0.5-0.8l-0.6,0.6L75,51.1v-1l0.7-0.4l0.6-0.1
			l-0.6-0.3l-0.3-0.5L76.2,47.8z"/>
		<path class="st24" d="M80.7,45.3l0.3,0.5l0.2,0.7l0.1-0.8l0.3-0.9l0.8,0.1L82,45.7l-0.5,0.9l0.7-0.6l0.7-0.4v1L82.2,47l-0.7,0.2
			l0.6,0.3l0.3,0.4l-0.8,1l-0.3-0.5l-0.2-0.8L81,48.5l-0.3,0.9l-0.8-0.1l0.3-0.9l0.5-0.8l-0.6,0.6l-0.7,0.4v-1l0.7-0.4l0.6-0.1
			l-0.6-0.3l-0.3-0.5L80.7,45.3z"/>
		<path class="st24" d="M85.1,42.7l0.3,0.5l0.2,0.7l0.1-0.8l0.3-0.9l0.8,0.1l-0.3,0.9L85.9,44l0.7-0.6l0.7-0.4v1l-0.6,0.4L86,44.6
			l0.6,0.3l0.3,0.4l-0.8,1l-0.3-0.5L85.5,45l-0.1,0.9l-0.3,0.9l-0.8-0.1l0.3-0.9l0.5-0.8l-0.6,0.6L83.9,46v-1l0.7-0.4l0.6-0.1
			l-0.6-0.3l-0.3-0.5L85.1,42.7z"/>
	</g>
	<path class="st24" d="M308.9,150.4l-0.1-0.1v-3c0-1.9-1.3-4.2-3-5.1l-2.1-1.2c-1.6-0.9-3-0.2-3,1.7v3l-0.1-0.1
		c-0.8-0.4-1.4-0.1-1.4,0.8v7c0,0.9,0.6,2,1.4,2.4l8.2,4.8c0.8,0.4,1.4,0.1,1.4-0.8v-7C310.3,151.9,309.6,150.9,308.9,150.4z
		 M305.3,153.9v2.3l-1-0.6v-2.3c-0.4-0.5-0.7-1.1-0.7-1.7c0-0.8,0.5-1.1,1.2-0.7c0.7,0.4,1.2,1.3,1.2,2.1
		C306,153.6,305.7,153.9,305.3,153.9z M307,149.4l-4.6-2.6v-2.4c0-1.1,0.8-1.5,1.7-1l1.2,0.7c0.9,0.5,1.7,1.9,1.7,2.9L307,149.4
		L307,149.4z"/>
	<path class="st7" d="M150.2,247.2c-28.9-2.5-56.2-9.9-78.5-21.4l36.1-19.9v-2l-38.3,21.1c-0.3,0.2-0.4,0.4-0.4,0.8s0.2,0.6,0.5,0.8
		c22.8,12.1,50.9,19.9,80.7,22.4V247.2z"/>
	<path class="st7" d="M163.8,146.7L134.8,162c-0.3,0.1-0.5,0.4-0.5,0.8v19.9l-70.6,38.5c-18.4-11-31.6-24.4-39-39l-1.7,0.5
		c7.6,15.2,21.3,29,40.3,40.3c0.1,0.1,0.3,0.1,0.5,0.1c0.1,0,0.3,0,0.4-0.1l71.5-39c0.3-0.1,0.5-0.4,0.5-0.8v-19.9l28.6-15.1
		L163.8,146.7z"/>
	<g>
		<g>
			<line class="st79" x1="164.7" y1="144.9" x2="166" y2="147.1"/>
			<line class="st79" x1="152.3" y1="152.2" x2="153.3" y2="153.9"/>
			<line class="st79" x1="139.9" y1="159.5" x2="140.5" y2="160.6"/>
			<line class="st79" x1="127.5" y1="166.8" x2="127.8" y2="167.4"/>
			
				<linearGradient id="SVGID_00000018936946977600925760000008228971019838654353_" gradientUnits="userSpaceOnUse" x1="-1462.8528" y1="83.7998" x2="-1462.8528" y2="83.7998" gradientTransform="matrix(1 0 0 -1 1577.9128 257.8898)">
				<stop  offset="0" style="stop-color:#1BB0D4"/>
				<stop  offset="0.2201" style="stop-color:#1587A3"/>
				<stop  offset="0.7606" style="stop-color:#06272F"/>
				<stop  offset="1" style="stop-color:#000000"/>
			</linearGradient>
			<path style="fill:url(#SVGID_00000018936946977600925760000008228971019838654353_);" d="M115.1,174.1"/>
		</g>
	</g>
	<path class="st7" d="M62.7,85.9c-0.1,0.1-0.2,0.1-0.2,0.1c-8.2,4.9-15.4,10.2-21.5,16h2.6c5.7-5.2,12.3-10,19.8-14.5
		c0.1-0.1,0.2-0.1,0.4-0.2L62.7,85.9z"/>
</g>
</svg>
