<svg id="OBJECTS" xmlns="http://www.w3.org/2000/svg" xmlns:xlink="http://www.w3.org/1999/xlink" viewBox="0 0 1457.82 1205.55"><defs><clipPath id="clip-path"><circle cx="620.99" cy="272.54" r="96.25" fill="#fff"/></clipPath></defs><rect x="268.33" y="1.25" width="915" height="891.71" rx="30.8" fill="#e5e5ff"/><path d="M1152.53,894.21H299.14a32.09,32.09,0,0,1-32.06-32.06V32.05A32.09,32.09,0,0,1,299.14,0h853.39a32.09,32.09,0,0,1,32,32.05v830.1A32.09,32.09,0,0,1,1152.53,894.21ZM299.14,2.5a29.59,29.59,0,0,0-29.56,29.55v830.1a29.59,29.59,0,0,0,29.56,29.56h853.39a29.59,29.59,0,0,0,29.55-29.56V32.05A29.59,29.59,0,0,0,1152.53,2.5Z" fill="#cbcbff"/><rect x="883.33" y="105.14" width="195" height="14.23" fill="#9192ff"/><rect x="822.08" y="166.39" width="310.69" height="14.23" fill="#b7b7ff"/><rect x="822.08" y="208.47" width="279.83" height="14.23" fill="#b7b7ff"/><rect x="822.08" y="250.56" width="247.7" height="14.23" fill="#cbcbff"/><rect x="822.08" y="292.64" width="310.69" height="14.23" fill="#cbcbff"/><rect x="822.08" y="334.72" width="229.34" height="14.23" fill="#cbcbff"/><rect x="334.29" y="565.56" width="298.19" height="14.23" fill="#b7b7ff"/><rect x="335.15" y="604.31" width="771.01" height="14.23" fill="#cbcbff"/><rect x="334.76" y="105.14" width="359.09" height="380.03" fill="#fff"/><rect x="367.23" y="356.18" width="24.97" height="87.4" fill="#b7b7ff"/><rect x="412.09" y="368.5" width="24.97" height="75.08" fill="#e0e0ff"/><rect x="456.96" y="320.88" width="24.97" height="122.69" fill="#b7b7ff"/><rect x="501.82" y="329.67" width="24.97" height="113.91" fill="#e0e0ff"/><rect x="546.68" y="290.35" width="24.97" height="153.23" fill="#b7b7ff"/><rect x="591.55" y="269.11" width="24.97" height="174.47" fill="#e0e0ff"/><rect x="636.41" y="250.17" width="24.97" height="193.41" fill="#b7b7ff"/><polygon points="420.22 308.26 373.07 289.4 373.97 287.15 419.78 305.47 466.46 266.84 510 267.86 641.25 186.81 642.52 188.87 510.66 270.3 467.31 269.29 420.22 308.26" fill="#b7b7ff"/><rect x="362.68" y="180.43" width="51.22" height="21.29" fill="#b7b7ff"/><rect x="430.83" y="192.64" width="47.92" height="2.5" fill="#b7b7ff"/><circle cx="1044.94" cy="455.23" r="55.92" fill="#fff"/><path d="M885.58,511.15a55.9,55.9,0,1,1,55.92-55.92A55.92,55.92,0,0,1,885.58,511.15Z" fill="#fff"/><path d="M885.58,455.23,876.93,400a56,56,0,0,1,50.28,18Z" fill="#b7b7ff"/><rect x="340.85" y="671.79" width="767.38" height="147.5" fill="#fff"/><path d="M1110.46,821.49H341.22V672.12h769.24ZM343.1,819.62h765.49V674H343.1Z" fill="#b7b7ff"/><rect x="342.16" y="790.12" width="767.36" height="1.88" fill="#b7b7ff"/><rect x="342.16" y="760.62" width="767.36" height="1.88" fill="#b7b7ff"/><rect x="342.16" y="731.12" width="767.36" height="1.88" fill="#b7b7ff"/><rect x="342.16" y="701.62" width="767.36" height="1.88" fill="#b7b7ff"/><rect x="980.69" y="673.06" width="1.87" height="147.5" fill="#b7b7ff"/><rect x="852.8" y="673.06" width="1.87" height="147.5" fill="#b7b7ff"/><rect x="724.91" y="673.06" width="1.87" height="147.5" fill="#b7b7ff"/><rect x="597.01" y="673.06" width="1.87" height="147.5" fill="#b7b7ff"/><rect x="469.12" y="673.06" width="1.87" height="147.5" fill="#b7b7ff"/><path d="M363.24,797.2c11.15-15.54,13.56-35.56,23.53-51.92,4.86-8,11.3-15.9,20.2-19.47,15.35-6.16,19.27,13.65,19.6,24.66.48,16.18-2.21,33.74,11.16,45.89,4.46,4.06,10.37,6.46,16.39,4.87,7.22-1.92,11.71-8.54,15.29-14.61,10.23-17.4,16.73-37.34,23.84-56.16,3.59-9.51,8.16-21.68,17.56-27,13.41-7.59,14.87,9.21,14.84,18.06,0,9.7.07,19.4.15,29.1,0,4.67-.92,14.39,4.56,17,3.23,1.53,5.78-1.39,7.59-3.74,1.58-2,2.67-4.42,4.24-6.45s2.79-3.07,5.46-3.29c2.45-.2,3.62-.23,5.28,2a13.36,13.36,0,0,1,1.75,4.5c1.93,7.28,0,15.52,4.07,22.24,2.3,3.75,7.23,7.48,11.87,6.75,9.37-1.48,11.75-16.75,12.88-24.09,1.5-9.81,2.91-19.57,5.61-29.16s6.26-21.17,13.59-28.39c2.8-2.75,6.64-5.49,10.78-5,6,.67,7.92,7.48,9.4,12.37a118.07,118.07,0,0,1,5.31,34.09c0,8-2.32,17.93,3,24.83a12.14,12.14,0,0,0,12.3,4.66c6.76-1.68,8.39-8.24,9.77-14.19a25.21,25.21,0,0,1,.92-3.54c1.32-3.35,1.84-3.74,5.46-3.89,4-.16,4.14.77,4.78,4.07s.31,6.69,1.31,10c1.27,4.16,4.19,8,9,6.56,4.45-1.33,6.82-6.08,8.29-10.1,4.22-11.54,3.83-24.32,4.46-36.4.42-8,1.06-16.6,4.75-23.86,2.41-4.73,9.51-12.38,15-7.39,7.14,6.49,6.45,22.3,6.61,31,.35,18.73-2.79,37.53-.17,56.2,1,7,3,17.4,10.7,20,10.73,3.66,18.63-8,21.48-16.56,2.27-6.8,2.79-13.91,4.4-20.84.85-3.65,2.15-10.31,7.12-8.23,4.29,1.8,6.07,7.87,9.84,10.61,12.18,8.87,19.64-8.42,21.08-17.78,2.09-13.68-.07-28.75,5.05-41.84,1.3-3.31,3.33-6.82,6.37-8.82,7.45-4.9,14.78,1.88,17,8.81,1.7,5.26,1.38,11.16,1.48,16.62.11,5.93.27,11.85.38,17.77.18,9.79-.7,19.78-.07,29.53.44,6.78,3,13,8.86,16.78,14.7,9.61,31.89-5.38,41.27-15.89,10.66-12,17.83-26.15,23.35-41.05,2.79-7.54,5.58-15.23,9.94-22,2.4-3.73,9.05-12.67,14.52-10.2,3.55,1.61,4.74,8,5.5,11.36a117.94,117.94,0,0,1,2.37,17.05c.89,10.88.95,21.78,1.15,32.68.17,9.23.95,23.16,11.21,26.89,16,5.84,23.67-17.11,28.1-27.7,3.68-8.78,8.15-20.69,16.7-25.91,7.26-4.43,12.32,2.41,15,8.5a48.29,48.29,0,0,1,4,18.69c.06,4.45-.29,10,4.58,12.17,10.63,4.68,20.32-12.9,24.45-19.83,3.77-6.32,6.63-13,9.78-19.58,4-8.32,17-24.25,22.36-8.29,2,6,1.33,12.53.93,18.75-.46,7.06-1,14.14-.74,21.22.26,8.17,1.74,26,14.08,24.12,7.47-1.15,15.17-9.39,20.77-14.06a272.92,272.92,0,0,0,23.3-21.94c1.1-1.17-.66-2.94-1.77-1.77a274.63,274.63,0,0,1-23.3,22,169.69,169.69,0,0,1-13.61,10.58c-6.18,4.16-12.22,2.27-14.69-4.1-4.83-12.51-1.89-28-1.24-41,.39-7.74-.58-25.45-12.44-23.3-7.1,1.29-12,8.94-15,14.85-3.37,6.7-6.12,13.6-9.91,20.09s-8.08,14.11-14.34,18.44c-4.72,3.26-10.25,1.71-10.78-4.62-.24-2.9.07-5.78-.27-8.68-1-8.4-4.18-22.26-13.26-25.66-12.61-4.71-21.8,16.5-25.39,24.81-3.67,8.5-6.52,19.39-13.31,26-4.79,4.68-12.56,6.3-17.46.9-3.58-4-4.48-10.2-5-15.28-2-19.77,1-40.18-4.64-59.55-1.62-5.59-4.72-12.49-11.63-10-11.6,4.1-16.87,19.16-20.82,29.54-6.32,16.58-13.31,32.46-25.62,45.65-7.09,7.61-17.38,17-28.49,16.79-14.58-.3-16.4-14.85-16-26,.41-10.91,0-21.84-.26-32.75-.19-8.78,1-19.25-3.34-27.29-2.77-5.12-8.63-9.2-14.67-8.13-5.14.91-8.95,5.75-11,10.2-5.58,12-4.1,26.4-5.36,39.2-.72,7.31-2,19.86-10.58,22.4-10.77,3.21-11.11-13-20.17-13.29-9.6-.32-9.68,22.74-11.34,28.81-2.05,7.48-6,16.42-14.47,18-5.28,1-8.79-2.31-10.84-6.85-4.66-10.31-4.09-23.3-3.8-34.35.22-8.25,1-16.48,1.1-24.73.16-8.9,1.93-47.12-15-43-11.74,2.84-14.75,18-15.79,28-1.39,13.39-.22,27.1-4,40.17-1,3.4-2.31,7.32-5.15,9.63s-6.5.35-8-2.75c-1-2.1-.94-4.74-1.14-7-.33-3.8-.81-9.46-5-11.06-4.91-1.85-8.92,3.16-10.4,7.19-1.83,5-1.23,11.54-6.29,14.84s-11.05.19-13.5-4.72c-2.56-5.11-1.63-11.33-1.39-16.83a102.62,102.62,0,0,0-.63-16.72c-1.08-9.41-2.84-19.74-6.71-28.45-5.34-12-17.24-8.83-24.31-.19-12,14.66-15,36.95-17.65,55-.83,5.8-1.94,11.83-4.53,17.13-1.33,2.72-3.24,5.94-6.48,6.49-5.41.91-9.89-5.33-11.08-9.76-1.93-7.22-.11-32.81-15.13-25-4.66,2.44-5.11,8.26-9.08,11.18-6.22,4.58-6.6-5.54-6.65-9.45-.06-5.88-.1-11.75-.15-17.62-.07-7.89.53-16.08-.43-23.93-.61-5-2.14-10.85-7.31-12.92-14-5.59-24.45,17-28.2,26.48-8,20.09-14.35,41.56-25.56,60.15-6.15,10.2-16.64,17.84-27.18,8.29-7.53-6.82-10.31-16.85-10.5-26.67-.26-12.77,3.56-38.57-11.74-45.21-13.33-5.78-27.47,12.61-33.11,22.07-9.63,16.17-12.12,35.9-23.07,51.16-.94,1.31,1.23,2.56,2.16,1.26Z" fill="#9192ff"/><rect x="906.69" y="1054.93" width="215.15" height="150.62" rx="13.12" fill="#e0e0ff"/><rect x="911.44" y="1120.19" width="205.66" height="2.38" fill="#b7b7ff"/><path d="M1014.26,1142A17.29,17.29,0,0,1,997,1124.76v-4.57h34.55v4.57A17.29,17.29,0,0,1,1014.26,1142Zm-14.88-19.45v2.18a14.89,14.89,0,1,0,29.77,0v-2.18Z" fill="#b7b7ff"/><path d="M1055,1062.63h-2.38v-30.9a7.55,7.55,0,0,0-7.55-7.54H983.5a7.55,7.55,0,0,0-7.55,7.54v30.9h-2.38v-30.9a9.93,9.93,0,0,1,9.93-9.92H1045a9.94,9.94,0,0,1,9.93,9.92Z" fill="#b7b7ff"/><rect x="969.02" y="1054.93" width="11.61" height="12.51" fill="#b7b7ff"/><rect x="1047.93" y="1054.93" width="11.61" height="12.51" fill="#b7b7ff"/><rect x="356.66" y="1077.73" width="153.35" height="127.83" fill="#e0e0ff"/><rect x="345.36" y="1068.68" width="175.94" height="26.85" fill="#b7b7ff"/><path d="M510,1205.56H356.66V1095.13S418.76,1188.48,510,1205.56Z" fill="#b7b7ff" opacity="0.6"/><path d="M1361.49,113.15A95.09,95.09,0,0,0,1308.15,287l-3.65,43.8,35.69-29.86a95.08,95.08,0,1,0,21.3-187.74Z" fill="#fff"/><path d="M1303,333.63l3.84-46.06a96.59,96.59,0,1,1,33.67,14.67Zm58.49-219.23a93.83,93.83,0,0,0-52.64,171.51l.6.41L1306,327.87l33.87-28.34.61.14a93.83,93.83,0,1,0,21-185.27Z" fill="#5254cf"/><rect x="1349.4" y="228.24" width="28.27" height="29.34" fill="#fff"/><path d="M1378.92,258.82h-30.77V227h30.77Zm-28.27-2.5h25.77V229.49h-25.77Z" fill="#5254cf"/><path d="M1386.48,208a22.94,22.94,0,0,0-45.88-.28,22.68,22.68,0,0,0,3.05,11.69,40.54,40.54,0,0,1,5.75,20.19v5.21h28.27v-5.42a39.64,39.64,0,0,1,5.71-19.9A22.73,22.73,0,0,0,1386.48,208Z" fill="#fff"/><path d="M1378.92,246h-30.77v-6.46a39,39,0,0,0-5.58-19.56,24.1,24.1,0,0,1-3.22-12.34,24.5,24.5,0,0,1,23.05-23.86,24.18,24.18,0,0,1,22.06,36.28,38.16,38.16,0,0,0-5.54,19.27Zm-28.27-2.5h25.77v-4.17a40.58,40.58,0,0,1,5.88-20.53,21.68,21.68,0,0,0-19.79-32.52,22,22,0,0,0-20.66,21.39,21.6,21.6,0,0,0,2.88,11.06,41.4,41.4,0,0,1,5.92,20.81Z" fill="#5254cf"/><path d="M1358.31,205.27c-1.78,2.53-4.76,3.51-6.66,2.17s-2-4.46-.22-7,4.75-3.51,6.65-2.18S1360.08,202.74,1358.31,205.27Z" fill="#fff"/><path d="M1353.61,209.29a4.59,4.59,0,0,1-2.68-.82,5,5,0,0,1-2-4,8.23,8.23,0,0,1,5.41-7.71,4.75,4.75,0,0,1,6.5,4.56,7.92,7.92,0,0,1-1.49,4.71h0a7.91,7.91,0,0,1-3.92,3A5.52,5.52,0,0,1,1353.61,209.29Zm2.5-10.36a3.1,3.1,0,0,0-1,.17,5.72,5.72,0,0,0-3.69,5.26,2.28,2.28,0,0,0,3.23,2.26,5.34,5.34,0,0,0,2.64-2.07h0a5.35,5.35,0,0,0,1-3.19,2.5,2.5,0,0,0-1-2.06A2.15,2.15,0,0,0,1356.11,198.93Z" fill="#5254cf"/><rect x="1324.6" y="165.32" width="2.5" height="18.18" transform="translate(364.82 1104.31) rotate(-51.55)" fill="#5254cf"/><rect x="1360.54" y="143.95" width="2.5" height="24.41" transform="translate(-4.3 43.66) rotate(-1.83)" fill="#5254cf"/><rect x="1387.89" y="169.69" width="20.58" height="2.5" transform="translate(276.75 1023.3) rotate(-44.21)" fill="#5254cf"/><path d="M168.44,233.25a83.58,83.58,0,1,0-61.68,80.68l29,24.28-3-36.46A83.48,83.48,0,0,0,168.44,233.25Z" fill="#fff"/><path d="M137.27,341.09,106.46,315.3A84.93,84.93,0,1,1,134,302.36Zm-30.21-28.54,27.22,22.78-2.85-34.19.59-.42a82.14,82.14,0,1,0-25.59,12Z" fill="#5254cf"/><polygon points="83.74 259.33 60.04 235.63 61.81 233.86 82.92 254.98 107.4 199.22 109.69 200.23 83.74 259.33" fill="#5254cf"/><path d="M539.52,342.82,517.1,356,278.74,495.62c-7.34,4.3-15.92,3.29-19.32-2.28v0c-3.41-5.57-.39-13.67,6.79-18.23L498.87,327.14l22.39-14.23Z" fill="#5254cf"/><path d="M539.52,342.82,517.1,356a70.58,70.58,0,0,1-11.46-14.27,71.79,71.79,0,0,1-6.77-14.54l22.39-14.23Z" fill="#1b1b43" opacity="0.6"/><path d="M508,350.31A7.5,7.5,0,1,1,510.52,340,7.5,7.5,0,0,1,508,350.31Z" fill="#fff"/><circle cx="620.99" cy="272.54" r="118.66" fill="#5254cf"/><circle cx="620.99" cy="272.54" r="96.25" fill="#fff"/><g clip-path="url(#clip-path)"><rect x="551.69" y="305.08" width="30.17" height="185.17" fill="#b7b7ff"/><rect x="605.91" y="280.65" width="30.17" height="210.84" fill="#e0e0ff"/><rect x="660.12" y="254.43" width="30.17" height="233.73" fill="#b7b7ff"/><rect x="515.47" y="241.1" width="145.14" height="3.75" transform="translate(-46.07 190.7) rotate(-17.74)" fill="#b7b7ff"/><path d="M648,237l-3.05-2.18L654,222l-13.18-4.52,1.21-3.54,14.56,5a2.55,2.55,0,0,1,1.71,1.74,2.63,2.63,0,0,1-.51,2.48Zm7.41-14.5.12,0Zm-.53-1.63a.35.35,0,0,0-.05.08Z" fill="#b7b7ff"/></g><path d="M383.56,1155.83l-50.75.78c.15-6.78.4-13.53.7-19.71.67-15.39,1.55-27.29,1.55-27.29l43.27-.3s-.2,4.29,0,10.75C378.61,1129.61,379.73,1143.86,383.56,1155.83Z" fill="#ffbc96"/><path d="M400.32,1177c-8.3-2.57-13.5-11-16.75-21.17l-50.77.79c-.38,15.94-.24,32,1.29,41a8.1,8.1,0,0,0,8,6.77h74.37c6.06,0,11.29-5.07,10.66-11.1C426.35,1186.07,417.84,1182.42,400.32,1177Z" fill="#1b1b43"/><path d="M378.33,1120.06l-44.82,16.84c.67-15.39,1.55-27.29,1.55-27.29l43.27-.3S378.13,1113.6,378.33,1120.06Z" fill="#d28572"/><path d="M355.86,1203.73c-1.59-7.54-4.74-12.77-9.38-15.57a17.75,17.75,0,0,0-12.8-1.82l-.69-2.4a20,20,0,0,1,14.75,2.06c5.27,3.16,8.83,9,10.57,17.22Z" fill="#656590"/><path d="M161.31,1101.21a182.92,182.92,0,0,0-8.25,24.87,109,109,0,0,0-3.33,20.47c-14.22-5.12-34.57-12.47-47.77-17.24,6.12-15,12.67-29.81,16.2-37.55l.1-.21c1.52-3.4,2.45-5.39,2.45-5.39Z" fill="#ffbc96"/><path d="M157.9,1172.28c-6.85-5.34-8.71-15.11-8.17-25.73-14.22-5.12-34.58-12.47-47.76-17.23-6,14.78-11.54,29.83-13.3,38.8a8.11,8.11,0,0,0,5.06,9.16l69.56,26.32c5.67,2.14,12.35-.75,13.9-6.61C179,1190,172.37,1183.55,157.9,1172.28Z" fill="#1b1b43"/><path d="M161.31,1101.21a182.92,182.92,0,0,0-8.25,24.87l-36.28-30.52,1.38-3.8.1-.21c1.52-3.4,2.45-5.39,2.45-5.39Z" fill="#d28572"/><path d="M104.86,1181.13l-2.22-1.15c9.31-17.86-7.1-26.7-7.8-27.07L96,1150.7C96.19,1150.8,115.31,1161.09,104.86,1181.13Z" fill="#656590"/><path d="M399.58,1118.06,320,1124.31,303.33,840.13,278.68,746.7,246.43,624.53l-1.67-6.38L237,588.71l-1.15-4.4,15.23-1.38,82.27-7.37,5,22.5v0l49.27,222.83a121.39,121.39,0,0,1,2.8,22.07Z" fill="#5254cf"/><path d="M285,683.48l-6.33,63.22L268.43,849.05a143.38,143.38,0,0,1-7.82,34.53l-84.78,234.48-71.25-27.5,66.25-240c17.08-98.8,14.25-174.63,18.65-222.73.28-3,.58-5.87.9-8.65,1.78-14.72,4.53-26.4,9.2-34.87l37.4,4.4,26.35,3.1L269.06,616l1.15,4.9Z" fill="#5254cf"/><path d="M338.31,598.06l.86,9.58s-111.67,30-149.69,20.19c.28-3,.58-5.87.9-8.65,1.78-14.72,4.53-26.4,9.2-34.87l37.4,4.4-1.15-4.4,15.23-1.38,82.27-7.37Z" fill="#1b1b43" opacity="0.6"/><polygon points="302.12 841.49 264.79 694.03 234.2 684.25 234.96 681.86 266.87 692.08 267.04 692.75 304.54 840.87 302.12 841.49" fill="#1b1b43"/><path d="M359.4,848l-.88-2.33c19.62-7.36,30.28-14.19,30.38-14.26l1.36,2.1C389.82,833.76,379.29,840.51,359.4,848Z" fill="#1b1b43"/><path d="M263.83,873.05a273.75,273.75,0,0,1-37.7-6.91l.65-2.42a270.59,270.59,0,0,0,37.3,6.84Z" fill="#1b1b43"/><rect x="145.83" y="1044.85" width="2.5" height="77.25" transform="matrix(0.35, -0.94, 0.94, 0.35, -920.56, 847.48)" fill="#1b1b43"/><rect x="318.86" y="1099.62" width="79.57" height="2.5" transform="translate(-76.48 27.93) rotate(-4.03)" fill="#1b1b43"/><path d="M230.21,403.47l-33.82,13.61a39.81,39.81,0,0,0-21.79,21.43l-28.38,67.93a33.85,33.85,0,0,0,9.36,38.88h0a33.84,33.84,0,0,0,33.55,5.93l24-8.82Z" fill="#ffb147"/><path d="M464.08,341.75c-6.32,3.13-13.61,16.42-10.84,21.21,2.27,3.92,7.54-1.39,9.29-3.21,3.19-3.34,11.45-12.27,6.89-17.34C468,340.79,466.07,340.77,464.08,341.75Z" fill="#ffbc96"/><path d="M448.79,346.56c-5.25,4.71-8.69,19.47-4.74,23.34,3.24,3.16,6.9-3.37,8.08-5.59,2.18-4.08,7.73-14.9,2-18.56C452.27,344.59,450.44,345.07,448.79,346.56Z" fill="#ffbc96"/><path d="M438.63,354c-5.3,4.54-9,18.51-5.2,22.06,3.14,2.91,6.9-3.31,8.13-5.43,2.25-3.89,8-14.19,2.36-17.51C442.12,352.05,440.3,352.54,438.63,354Z" fill="#ffbc96"/><path d="M429,357.43c-5.3,4.55-9,18.52-5.2,22.07,3.14,2.91,6.9-3.32,8.12-5.43,2.25-3.89,8-14.19,2.36-17.51C432.45,355.5,430.62,356,429,357.43Z" fill="#ffbc96"/><path d="M230.21,403.87,195,464.39s9.17,100,2.5,112.29-21.67,21.93-12.5,29,81.67,19.29,160,.87c21.67-6.14,6.67-17.54,1.67-22.8S335,446,335,446L290,404.92,256.67,396Z" fill="#ffb147"/><path d="M289.27,404.93c-6.25,10.94-79.81,22.18-59.06-1.46L251.46,399Z" fill="#1b1b43" opacity="0.2"/><path d="M384.58,476.18l-29-43.05A46.26,46.26,0,0,0,325.25,412L290,404.93l20.83,78.13s32.5,45.62,61.88,56.25c26.36,9.53,61.33-6.13,80.61-109.17l-43.72-6Z" fill="#ffb147"/><path d="M477.29,368.89c-4.42-.57-19.58,22.29-19.58,22.29l-24.51,8.35a35.32,35.32,0,0,0-20.46,18.13l-3.14,6.52,43.72,6c.72-3.85,1.42-7.78,2.1-11.88C470.42,404.72,487.08,370.14,477.29,368.89Z" fill="#ffbc96"/><path d="M296,308.34l8.86,12.27a3.84,3.84,0,0,1-1.94,5.88l-9.47,3.65-6.67-14.82Z" fill="#d28572"/><path d="M238.68,375.71A373.73,373.73,0,0,0,240,330.56l40.4,2.92a122,122,0,0,0-.23,13.83,186.43,186.43,0,0,0,2.25,22.07c.63,4,1.35,7.88,2.13,11.63Z" fill="#ffbc96"/><path d="M282.43,369.38A46.85,46.85,0,0,1,258.76,347l21.42.31A186.43,186.43,0,0,0,282.43,369.38Z" fill="#d28572"/><path d="M238.68,375.69l-8.47,27.78c19.49,4.69,39.45,4.89,59.79,1.46L284.56,381Z" fill="#fff5e8"/><path d="M295,287.64l4.18,55.9c.38,2.38-1.08,4.58-3.15,6.51a18.25,18.25,0,0,1-13.24,4.61l-28.62-1.19-20.42-22.91,15.83-48.75,28.75-.42Z" fill="#ffbc96"/><path d="M248,320.87s7.5,23.44-8.44,35.31c-17.19-5.62-49.06-57.81-9.37-74.37,0,0,10.93-27.82,40.62-17.5,26.21,9.1,33.13,25,33.13,25s-18.44,13.75-40,.93C264,290.24,266.14,318.06,248,320.87Z" fill="#1b1b43"/><path d="M258.6,311.29c4.66,5.78,4.2,13.9-1,18.12s-13.26,3-17.93-2.81-4.2-13.89,1-18.12S253.93,305.51,258.6,311.29Z" fill="#ffbc96"/><path d="M252.84,324.74c-.1-.4-2.6-9.93-9.31-8.48l-.4-1.83c6.79-1.47,10.52,5.81,11.53,9.86Z" fill="#1b1b43"/><circle cx="280.42" cy="322.64" r="8.33" transform="translate(-98.02 521.43) rotate(-76.72)" fill="#fe5b52" opacity="0.4"/><path d="M194.08,610.79c-7.58-1.81-11.87-4.62-13.11-8.61-2-6.49,4.68-13.92,10.59-20.48.93-1,1.82-2,2.63-3a14.44,14.44,0,0,0,3.26-6.48c5.49-26-3.6-106.91-3.69-107.73l2.48-.28c.38,3.34,9.23,82.14,3.66,108.53a17,17,0,0,1-3.82,7.6c-.82,1-1.73,2-2.66,3-5.2,5.76-11.66,12.94-10.06,18.07.94,3,4.74,5.36,11.3,6.92Z" fill="#1b1b43"/><path d="M339.22,608.89l-.11-2.5c8.54-.38,13.76-2.42,15.11-5.9s-1.12-8.73-6.77-14.33a10.9,10.9,0,0,1-2.91-5.35c-4.5-20.21-9.28-87-9.33-87.67l2.49-.17c.05.67,4.82,67.27,9.28,87.3a8.36,8.36,0,0,0,2.23,4.12c6.48,6.42,9.09,12.46,7.34,17S349,608.45,339.22,608.89Z" fill="#1b1b43"/><polygon points="380.08 487.35 377.83 486.26 408.88 422.81 453.49 428.9 453.15 431.38 410.33 425.54 380.08 487.35" fill="#1b1b43"/><path d="M1132.08,331.39c-14.79-9-18.12-34.58-4.37-42.29s22.5-.84,22.5-.84,46.12-16.82,63.54,26.05c13.12,32.29,2.71,49.16,14.17,65.41,13,18.52,33.95,35.21,6.66,67.71l-63.75-15.62-16.66-78.55Z" fill="#1b1b43"/><path d="M1352.71,1051.29l-46.88,20.63s6.74,17.4,12.5,37.65l48.2-15.4Z" fill="#ffbc96"/><path d="M1366.53,1094.17l-48.2,15.4c6.6,23.19,11.93,50.11,4.4,58.89-9.8,11.42-18.34,20.86-20.39,28.8a5.58,5.58,0,0,0,7.89,6.43l62.28-31.41a21.75,21.75,0,0,0,10.13-28.15Z" fill="#1b1b43"/><rect x="1321.73" y="1117.85" width="51.53" height="2.5" transform="translate(-272.7 453.45) rotate(-17.37)" fill="#656590"/><path d="M1313.59,1181l-.52-2.45c11.94-2.53,18.88-6.92,20.65-13,2.9-10-9-21.82-9.18-21.94l1.75-1.79c.53.52,13.15,12.94,9.83,24.42C1334.08,1173.23,1326.5,1178.21,1313.59,1181Z" fill="#656590"/><path d="M1171.67,1096.81l-54.17,5a278,278,0,0,1-.26,38.52l52.1-.76Z" fill="#ffbc96"/><path d="M1117.24,1140.33c-1.47,17.09-5.35,34.23-14.74,38.14-20,8.34-35.83,14.17-34.17,25.84h76.89a21.77,21.77,0,0,0,21.73-20.58l2.39-44.16Z" fill="#1b1b43"/><rect x="1141.25" y="1128.89" width="2.5" height="50.01" transform="translate(-30.25 2277.02) rotate(-89.05)" fill="#656590"/><path d="M1101.23,1187.94a54.48,54.48,0,0,1-11.61-1.48l.55-2.44c11,2.45,18.41,1.7,21.53-2.17,4.14-5.16-.08-14.42-.13-14.52l2.27-1c.2.44,4.92,10.78-.2,17.13C1111.22,1186.43,1107.06,1187.94,1101.23,1187.94Z" fill="#656590"/><path d="M1171,1109.63c-.65.22-1.25.37-1.8.5-10.83,2.5-46.65,0-46.65,0a37.61,37.61,0,0,1-4.65-1.32c-33.5-12.2-31.23-70.78-26.2-122,4.62-47-15-286.68-1.45-368.13l84.8-18.55.5,14.27,1,29.16,1.8,51.57s3.2,49.9,7.58,112.43c6.55,93.75,15.75,215.92,20.75,240.92C1214.63,1088.25,1184.51,1105.68,1171,1109.63Z" fill="#5254cf"/><path d="M1362.81,1057.71a39.54,39.54,0,0,1-6.18,5.77c-11.4,8.78-26.77,12-40.27,15.65a50.68,50.68,0,0,1-7.38,1.43c-12.57,1.55-26.3-1.33-32.17-12-30.1-54.85-64-163.73-90.9-261-19.65-71-35.53-135.9-43.43-169-3.47-14.62-5.4-23-5.4-23l38.43-1.16,65.32-2c1.78,8.8,3.8,18.08,6.08,27.7,22.3,95.17,66.22,226,83.42,276.08,10.33,30,26,56.72,32.83,88.12C1366.81,1021,1375.31,1043.28,1362.81,1057.71Z" fill="#5254cf"/><path d="M1246.91,640.13a296.82,296.82,0,0,1-70.38,3.43,238.79,238.79,0,0,1-34-5c-34.22-7.55-52.27-19.9-52.27-19.9l84.8-18.55.5,14.27,65.32-2C1242.61,621.23,1244.63,630.51,1246.91,640.13Z" fill="#1b1b43" opacity="0.6"/><polygon points="1184.7 807.89 1158.55 715.26 1131.65 705.48 1132.51 703.13 1160.61 713.35 1160.79 713.97 1187.11 807.22 1184.7 807.89" fill="#1b1b43"/><path d="M1345.25,1069.1l-2.17-1.25c12.62-21.91-12.68-89.42-44.7-174.9-31.09-83-69.79-186.3-83.78-278.46l2.47-.37c14,91.9,52.6,195.06,83.65,278C1333,978.16,1358.45,1046.17,1345.25,1069.1Z" fill="#1b1b43"/><path d="M1108.38,540c-3,21.12-7.55,48.72-7.55,48.72h-49.37l12-66.07,3-16.43s42.5,10,44.37,10C1111.56,516.18,1110.26,526.83,1108.38,540Z" fill="#ffbc96"/><path d="M1108.38,540l-2.25,5-42.65-22.32,3-16.43s42.5,10,44.37,10C1111.56,516.18,1110.26,526.83,1108.38,540Z" fill="#d28572"/><path d="M1097.71,524.93s8.12,47.5-7.5,93.75c0,0,77.5,23.75,150.62-6.25L1224,505.56l5.62-54.38-111.87,1.25-38.13,12.5Z" fill="#1b1b43"/><path d="M1261.19,445.09a46.78,46.78,0,0,0-30.63-29.33l-21-6.35c-8.46,12.32-23.56,28-45.59,28-25.91,0-42.16-14.87-51.11-27l-14.52,3.53A42.42,42.42,0,0,0,1067,445.63L1050.83,516l46.88,9,1.25-53.75,121.87-5.62,3.13,40s35.21-15.42,58.54.41Z" fill="#1b1b43"/><path d="M1314.58,440.56c-6.75,13.19-15.82,70.42-20,115-1.37,14.65-5.55,26.2-11.32,34.62-8.5,12.45-20.55,18.1-32.25,16.85a31.74,31.74,0,0,1-13.1-4.4c-20.13-11.92-17.55-62.87-15.3-85.8.7-6.9,1.35-11.27,1.35-11.27,11.87-6.55,30.62-7.5,30.62-7.5.25-2.58.55-5.18.85-7.85,2.55-23,6.43-49.15,9.78-66.53,3.75-19.37,11.25-12.17,11.25-12.17,3.75-6.9,9.37-.95,9.37-.95,5-10.95,11.25-.63,11.25-.63,7.8-11.25,12.08,5.63,12.08,5.63s24.22-20,28.35-14.18C1339.58,404.31,1324.16,421.81,1314.58,440.56Z" fill="#ffbc96"/><rect x="1017.71" y="576.07" width="105" height="12.61" fill="#fff"/><path d="M1062.67,588.79H954.37A13.34,13.34,0,0,1,942.25,581l-42.18-91.57a4.6,4.6,0,0,1,4.17-6.52h101.59a12.64,12.64,0,0,1,11.48,7.36Z" fill="#5254cf"/><path d="M1098.33,588.68a53.1,53.1,0,0,1-5.5,13.48c-5.8,9.8-15.1,16.52-29.42,18.32a72.52,72.52,0,0,1-16.53.08c-49.62-4.93-64-32.08-64-32.08s-5.53-11.52,6.2-8.87c0,0,2.2-7.33,11.25.32,0,0-1.08-9.07,7.82-.77,0,0-1.25-9.23,8.43-1.25s17.2,10.3,28.92,10.77S1098.33,588.68,1098.33,588.68Z" fill="#ffbc96"/><rect x="1094.89" y="471.13" width="2.5" height="53.84" transform="translate(-27.06 64.46) rotate(-3.33)" fill="#5254cf"/><path d="M1158.56,456.81a70.85,70.85,0,0,1-15.5-1.7c-14.92-3.36-23.5-10.38-23.86-10.68l1.6-1.92c.33.28,34.11,27.39,82.72-1.78l1.29,2.15C1187,453.57,1171.17,456.81,1158.56,456.81Z" fill="#5254cf"/><rect x="1221.77" y="480.94" width="2.5" height="24.66" transform="translate(-33.97 94.44) rotate(-4.36)" fill="#5254cf"/><path d="M1185,517.85a15.67,15.67,0,0,1-15.63-14l-2-17.82,34.38-2.26-1,19.15a15.78,15.78,0,0,1-15.47,14.9Zm-14.86-29.47,1.71,15.22a13.24,13.24,0,0,0,26.37-.78l.87-16.34Z" fill="#5254cf"/><rect x="1218.17" y="528.31" width="63.45" height="2.5" transform="matrix(0.14, -0.99, 0.99, 0.14, 548.73, 1691.91)" fill="#d28572"/><rect x="1297.08" y="409.85" width="1.88" height="10.48" transform="translate(-53.32 238.89) rotate(-10.3)" fill="#d28572"/><rect x="1285.83" y="410.16" width="1.88" height="10.48" transform="translate(-53.55 236.88) rotate(-10.3)" fill="#d28572"/><rect x="1276.46" y="410.78" width="1.88" height="10.48" transform="translate(-53.82 235.22) rotate(-10.3)" fill="#d28572"/><rect x="1308.54" y="408.36" width="1.88" height="16.68" transform="translate(-63.04 484.25) rotate(-20.47)" fill="#d28572"/><path d="M1254.55,498l-32.1,18.7c.7-6.9,1.35-11.27,1.35-11.27C1235.67,498.92,1254.55,498,1254.55,498Z" fill="#d28572"/><path d="M1283.26,590.18c-8.5,12.45-20.55,18.1-32.25,16.85a16.21,16.21,0,0,1-.18-2.53,19.38,19.38,0,0,1,32.43-14.32Z" fill="#fe5b52" opacity="0.4"/><path d="M1092.83,602.16c-5.8,9.8-15.1,16.52-29.42,18.32-.05-.6-.08-1.2-.08-1.8a19.38,19.38,0,0,1,29.5-16.52Z" fill="#fe5b52" opacity="0.4"/><path d="M1020.55,592.21c-4.95-1-11.13-8.62-13.2-12.62l1.67-.87c2.13,4.13,8,10.88,11.89,11.64Z" fill="#d28572"/><path d="M1008.81,593.5c-4.2-4.31-8.06-9.67-9.62-13.36l1.73-.73c1.48,3.49,5.19,8.63,9.23,12.78Z" fill="#d28572"/><path d="M997.24,593.19c-4.19-4.31-8-9.68-9.61-13.36l1.73-.73c1.47,3.49,5.18,8.63,9.23,12.78Z" fill="#d28572"/><path d="M1209.56,409.4c-8.48,12.33-23.58,28-45.6,28-25.9,0-42.15-14.87-51.1-27l26.72-6.53c.65-4.8,1.2-9.48,1.65-13.9.35-3.47.65-6.8.93-10,.45-5.18.75-9.85,1-13.85.32-5.47.47-9.63.55-11.92,0-1.33,0-2,0-2l37.5-15s-1.25,48.75,10,66.65Z" fill="#ffbc96"/><path d="M1173.54,370.35s-10,11.73-32.31,19.63c.35-3.47.65-6.8.93-10,.45-5.18.75-9.85,1-13.85Z" fill="#d28572"/><path d="M1133.75,306.81s-19.17,52.08-5.42,61.66c12.23,8.53,28.34,9.59,44.17,5.42l10.42-35.42-6.25-34.58Z" fill="#ffbc96"/><path d="M1177.5,338.89s-13.54,5.19-19.17-13.75c-4.58-15.42-24.58-18.33-24.58-18.33l8.12-7.5,38.55-1.05,14.16,17.3-4.79,22.5Z" fill="#1b1b43"/><ellipse cx="1184.17" cy="343.47" rx="15.83" ry="12.5" transform="translate(294.63 1197.25) rotate(-60)" fill="#ffbc96"/><path d="M1179.74,350.25l-1.88,0c0-.11.25-11.78,11.82-13.11l.22,1.87C1180,340.12,1179.74,349.84,1179.74,350.25Z" fill="#1b1b43"/><circle cx="1131.2" cy="332.07" r="2.14" fill="#1b1b43"/><path d="M1147.9,335a2.59,2.59,0,1,1-2.58-2.59A2.57,2.57,0,0,1,1147.9,335Z" fill="#1b1b43"/><path d="M1135.87,327.2h-6.38a1.63,1.63,0,0,1-1.63-1.63h0a1.63,1.63,0,0,1,1.63-1.63h6.38a1.63,1.63,0,0,1,1.63,1.63h0A1.63,1.63,0,0,1,1135.87,327.2Z" fill="#1b1b43"/><path d="M1151.9,331.67l-7.06-3a1.62,1.62,0,0,1-.87-2.13h0a1.64,1.64,0,0,1,2.14-.87l7.05,3a1.62,1.62,0,0,1,.87,2.13h0A1.62,1.62,0,0,1,1151.9,331.67Z" fill="#1b1b43"/><path d="M1130.21,348.29a.94.94,0,0,1-.87-.58c-1.25-3-1.28-5.38-.1-6.94a5.68,5.68,0,0,1,4.55-1.88l2.38-4.62a.94.94,0,0,1,1.26-.41,1,1,0,0,1,.41,1.27l-2.95,5.72-.64-.07s-2.49-.25-3.52,1.12c-.74,1-.62,2.75.34,5.1a.93.93,0,0,1-.51,1.22A.84.84,0,0,1,1130.21,348.29Z" fill="#1b1b43"/><path d="M1130.65,356.43c3.63,5.12,8.22,2.93,11.36.31A65.87,65.87,0,0,1,1130.65,356.43Z" fill="#1b1b43"/><path d="M1142,356.74a24.24,24.24,0,0,0,3.49-3.64c0-.05,0-.12-.08-.11a101.26,101.26,0,0,1-16.57-.23.08.08,0,0,0-.07.12,16.84,16.84,0,0,0,1.87,3.55A65.87,65.87,0,0,0,1142,356.74Z" fill="#fff"/><path d="M1164,346.52a6.54,6.54,0,1,1-6.53-6.54A6.53,6.53,0,0,1,1164,346.52Z" fill="#fe5b52" opacity="0.4"/></svg>