<?xml version="1.0" encoding="utf-8"?>
<!-- Generator: Adobe Illustrator 26.3.1, SVG Export Plug-In . SVG Version: 6.00 Build 0)  -->
<svg version="1.1" id="Layer_1" xmlns="http://www.w3.org/2000/svg" xmlns:xlink="http://www.w3.org/1999/xlink" x="0px" y="0px"
	 viewBox="0 0 832.76 666.49" style="enable-background:new 0 0 832.76 666.49;" xml:space="preserve">
<g>
	<g style="opacity:0.5;">
		<path style="fill:#EED5D5;" d="M382.05,576.95c-24.39,0.07-48.77,0.64-73.12,3.29c-9.18,1-18.17,3.2-27.37,4.08
			c-18.38,1.77-36.42,5.07-54.87,6.6c-14.85,1.23-29.76,1.95-44.57,3.51c-13.88,1.46-29.25,1.12-43.03-1.29
			c-10.2-1.78-20.44-2.79-30.47-5.66c-11.22-3.21-23.4-5.5-35.09-5.42c-16.67,0.12-32.9,0.13-48.84,5.79
			c-5.6,1.99-12.45,5.26-16.7,9.43c-9.73,9.55-11.05,33.38-1.33,43.28c16.37,16.67,51.3,23.21,74.24,23.52
			c25.14,0.34,49.56-1.49,74.74-2.56c23.39-1,46.73-2.42,70.16-2.37c47.86,0.1,95.73,0,143.5-3.13
			c44.88-2.94,89.88-1.93,134.87-1.93c46.13,0,91.95,0.35,137.74,6.35c19.95,2.61,40.28,3.53,60.34,5.36
			c17.96,1.64,35.22-0.03,53.11-1.55c15.02-1.27,29.94-5.05,43.59-11.43c10.8-5.05,30.06-20.75,33.37-32.8
			c9.29-33.8-130.88-32.99-152.4-32.92c-24.08,0.09-48.34,0.86-72.4-0.04c-10.12-0.38-20.09-2.31-29.97-4.43
			c-9.84-2.11-19.75-1.58-29.72-2.46c-41.6-3.7-83.29-3.16-125.03-3.16C409.23,577.02,395.64,576.91,382.05,576.95z"/>
	</g>
	<g id="XMLID_263_">
		<g>
			<polygon style="fill:#E1CFB5;" points="715.98,433.04 716.18,439.09 705.5,442.97 699.35,438.31 699.35,431.27 705.29,430.94 
				705.47,429.39 707.42,428.14 			"/>
		</g>
	</g>
	<g>
		<g>
			<g>
				<g>
					<g>
						<polygon style="fill:#353A85;" points="497.7,480.81 499.99,533.99 493.27,624.42 483.21,625.14 470.99,543.01 454.09,473.51 
													"/>
					</g>
					<g>
						<polygon style="fill:#292949;" points="483.75,631.89 498.85,631.89 499.48,626.9 494.06,623.16 483.19,623.94 						"/>
					</g>
				</g>
				<g>
					<g>
						<polygon style="fill:#353A85;" points="426.5,464.99 424.29,505.19 430.84,624.72 440.91,625.23 456.01,546.83 469.32,460.86 
													"/>
					</g>
					<g>
						<polygon style="fill:#292949;" points="440.5,632.28 425.8,632.89 424.31,628.65 430.03,623.48 440.92,624.03 						"/>
					</g>
				</g>
				<g>
					<g>
						<g>
							<path style="fill:#EE4421;" d="M485.06,343.56l-31.43-3.37c0,0-17.48,1.87-29.35,43.39c-6.6,23.1-8.61,59.49-9.09,87.24
								c0.74,3.96,5.05,21.29,23.29,18.35c31.31-5.05,47.98-10.1,61.61-7.58c11.62,2.53,10.63-13.47,9.36-25.67l-4.63-37.76
								L485.06,343.56z"/>
						</g>
					</g>
				</g>
				<g>
					<g>
						<path style="fill:#C17E72;" d="M478.99,304.44c-7.92-1.75-16.07-3.31-24-1.74c-1.74,0.34-3.6,0.95-4.54,2.45
							c-0.36,0.58-0.56,1.25-0.74,1.91c-2,7.44-4.54,18.46,0.36,25.32c0.93,1.31,2.19,2.34,3.54,3.19c1.8,1.13,3.8,1.89,5.86,2.3
							c-0.43,1.85-1.02,3.66-1.77,5.4c1.81,2.73,10.27,3.06,11.84,0.44c0.09-2.27,0.18-4.54,0.26-6.8c1.03-0.42,2.02-0.92,2.96-1.54
							c3.62-2.38,6-5.99,7.38-10.04c1.51-4.4,3.63-8.59,5-13.07c0.5-1.63,0.9-3.5,0.04-4.98c-0.92-1.57-2.89-2.11-4.67-2.5
							C479.99,304.67,479.49,304.55,478.99,304.44z"/>
					</g>
					<g>
						<path style="fill:#292949;" d="M482.46,325.1c3.81-3.91,8.26-9.37,8.6-14.33c0.28-4.1-0.28-9.7-2.58-13.25
							c-2.15-3.32-7.65-5.14-10.93-7.06c-3.08-1.81-6.17-3.62-9.25-5.44c-0.64-0.38-1.3-0.76-2.03-0.89
							c-0.87-0.15-1.75,0.07-2.6,0.29c-7.29,1.88-14.58,3.77-21.87,5.65c-1.4,0.36-3,0.89-3.51,2.24c-0.31,0.82-0.13,1.74,0.06,2.6
							c0.83,3.78,2.42,7.65,2.81,11.49c0.6,3.03,0.49,5.74,2.7,7.95c2.08,2.08,4.85,3.22,6.52,5.77c1.2,1.84,1.67,4.06,2.61,6.04
							c4.27,9,21.55,6.6,27.53,0.86C481.12,326.44,481.78,325.79,482.46,325.1z"/>
					</g>
				</g>
			</g>
			<g>
				<g>
					<polygon style="fill:#EE4421;" points="478.39,346.25 499.99,322.91 494.91,259.66 504.4,255.49 524.37,319.14 517.31,338.72 
						488.35,377.65 					"/>
				</g>
			</g>
			<g>
				<path style="fill:#C17E72;" d="M502.37,256.39c0,0,0-5.7,0-5.79c0-2.11-5.32-7.05-6.67-8.82c-0.77-1.01-4.31,4.5-4.36,5.41
					c-0.07,1.55,2.17,4.88,2.78,6.5l-1.89,2.7l2.68,3.28L502.37,256.39z"/>
			</g>
			<g>
				<g>
					<polygon style="fill:#EE4421;" points="439.75,351.11 415.3,330.77 412.13,267.4 402.18,264.5 390.64,330.2 400.18,348.7 
						433.96,383.54 					"/>
				</g>
			</g>
			<g>
				<path style="fill:#C17E72;" d="M404.31,265.12c0,0-0.74-5.65-0.75-5.74c-0.27-2.1,4.36-7.68,5.47-9.61
					c0.63-1.1,4.86,3.9,5.02,4.8c0.27,1.53-1.51,5.12-1.92,6.8l2.23,2.43l-2.23,3.6L404.31,265.12z"/>
			</g>
		</g>
	</g>
	<g>
		<g>
			<path style="fill:#EFBFA5;" d="M55.87,311.67c-3.95-1.93-7.67-4.34-11.06-7.15c-1.1-0.91-2.27-2.2-1.89-3.58
				c0.44-1.58,2.52-1.92,4.16-1.77c3.08,0.27,6.1,1.17,8.83,2.63c0.67-0.21-0.19-1.3,0.11-1.94c0.14-0.29,0.5-0.4,0.82-0.42
				c4.42-0.24,6.14,5.77,7.65,8.67c-3.09,1.62-6.29,1.69-9.04,4.15L55.87,311.67z"/>
		</g>
		<g>
			<g>
				<g>
					<path style="fill:#EFBFA5;" d="M245.45,383.25c0,0,5.64,0.83,5.73,0.84c2.09,0.31,11.23-4.3,13.17-5.38
						c1.11-0.62-7.31-4.86-8.2-5.04c-1.53-0.3-5.15,1.44-6.83,1.81l-2.4-2.26l-3.63,2.17L245.45,383.25z"/>
				</g>
				<g>
					<g>
						<polygon style="fill:#292949;" points="105.13,619.14 104.33,625.34 115.92,633.12 122.92,627.73 117.52,620.73 
							105.92,612.95 						"/>
					</g>
					<g>
						<g>
							<polygon style="fill:#292949;" points="104.73,617.06 113.68,538.05 102.92,449.6 105.34,430.78 153.39,428.96 
								155.12,459.58 147.06,538.17 116.71,621.1 							"/>
						</g>
					</g>
					<g>
						<g>
							<polygon style="fill:#27A7D8;" points="161.04,343.25 182.64,355.94 199.77,379.95 245.41,373.34 246.84,385.91 195,403.19 
								168.43,393.25 							"/>
						</g>
					</g>
					<g>
						<g>
							<polygon style="fill:#292949;" points="188.65,437.81 188.77,517.54 172.72,620.18 161.17,620.07 154.82,525.15 
								139.96,430.14 							"/>
						</g>
						<g>
							<polygon style="fill:#292949;" points="161.19,624.94 173.62,631.31 179.93,625.13 173.74,618.82 161.25,618.7 							"/>
						</g>
					</g>
					<g>
						<g>
							<g>
								<path style="fill:#27A7D8;" d="M97.95,464.93c0.11-3.46,0.3-6.34,0.33-7.37c0.25-9.27,1.07-18.52,2.23-27.72
									c1.04-8.25,2.35-28.72,3.76-36.92c1.17-6.77,5.23-23.66,8.16-29.94c7.3-15.61,5.04-17.05,37.09-21.69
									c14.05-2.03,17.37,6.72,28.85,16.79c1.13,0.99,1.07,6.9,1.33,8.47c0.46,2.76,0.96,5.51,1.53,8.25
									c0.45,2.15,0.94,4.3,1.49,6.43l0,0c0,0,9.64,43.87,16.02,53.19c6.38,9.32,19.55,22.34-2.49,30.3
									c-3.9,1.26-7.83,2.46-11.9,3.11c0,0-18.02-2-27.28-1.93c-8.53,0.06-17.1,0.93-25.49,2.37c-5.61,0.94-11.34,2.3-16.35,4.92
									c-4.79,2.5-8.24,6.18-13.1,8.77c-0.46,0.25-0.96,0.5-1.49,0.43C97.84,482,97.71,472.2,97.95,464.93z"/>
							</g>
						</g>
					</g>
					<g>
						<g>
							<path style="fill:#EFBFA5;" d="M146.65,345.34c-1.31,1.24-4.88,2.63-9.14,2.31c-0.86-0.06-1.6-0.65-1.85-1.47
								c-0.68-2.32-1.2-4.69-1.57-7.08c-3.16-0.13-6.92-0.62-8.34-3.45c-0.45-0.89-0.58-1.9-0.7-2.89
								c-0.52-4.09-1.04-8.18-1.57-12.27c-0.18-1.41-0.36-2.87,0.02-4.25c0.66-2.41,2.88-4.06,5.11-5.19
								c5.69-2.89,12.64-3.6,18.51-1.1c1.56,0.67,3.07,1.58,4.09,2.94c1.57,2.1,1.74,4.89,1.84,7.51c0.1,2.42,0.2,4.83,0.3,7.25
								c0.11,2.78,0.04,6-2.14,7.73c-1.16,0.92-2.76,1.24-3.71,2.37C145.81,339.73,147.05,342.77,146.65,345.34z"/>
						</g>
						<g>
							<path style="fill:#292949;" d="M169.45,295.96c0.29-1.15,0.64-2.28,1.08-3.38c0.96-2.37,2.36-4.59,2.95-7.08
								c0.59-2.49,0.15-5.48-1.94-6.97c-1.35-0.96-3.1-1.11-4.75-1.09c-5.44,0.06-10.86,1.62-15.51,4.45
								c-4.43,2.7-8.11,6.04-13.5,5.72c-5.06-0.3-8.13,1.4-12.36,4.55c-4.58,3.41-11.34,5.96-15.2,9.98
								c-1.61,1.68-2.64,3.84-3.28,6.08c-2.2,7.75,0.52,16.67,6.66,21.88c1.38,1.17,2.9,2.16,4.46,3.07
								c3.23,1.88,7.13,4.24,10.76,4.19c-0.84-3.01-6.45-11.58-4.91-14.73c2.44-5,11.08-6.17,15.88-6.6
								c5.24-0.47,10.7,1.67,15.8,0.91c3.67-0.54,7.63-3.64,10.05-6.37C168.67,307.22,168.38,300.16,169.45,295.96z"/>
						</g>
					</g>
					<g>
						<g>
							<polygon style="fill:#27A7D8;" points="121.49,348.17 96.28,354.64 65.91,307.45 53.1,310.91 74.46,378.85 123.62,384.77 
															"/>
						</g>
					</g>
				</g>
			</g>
		</g>
	</g>
	<g>
		<g id="XMLID_264_">
			<g id="XMLID_266_">
				<g id="XMLID_280_">
					<g id="XMLID_282_">
						<g>
							<path style="fill:#292949;" d="M735.11,610.01c1.11-1.22,2.4-1.89,3.86-1.66c1.4,0.22,2.67,1.17,3.24,2.44
								c0.39,0.87,0.48,1.83,0.56,2.78c0.4,4.9,0.37,16.53-6.16,18.2c-2.74,0.7-5.01-1.24-5.74-3.71
								C729.77,624.37,731.4,614.09,735.11,610.01z"/>
						</g>
					</g>
					<g id="XMLID_281_">
						<g>
							<path style="fill:#F4C7B3;" d="M732.79,536.13l0.34,29.87c-0.4,13.27,1.67,26.61,1.28,39.88c-0.09,3.05-0.89,6.27-0.12,9.29
								c0.75,2.96,3.16,3.48,5.62,1.98c3.31-2.01,2.77-6.69,3.32-10.11c1.51-9.4,3.29-18.75,4.87-28.13
								c0.77-4.6-0.82-11.05-0.47-15.71c0,0,4.83-25.03,4.83-25.03L732.79,536.13z"/>
						</g>
					</g>
				</g>
				<g id="XMLID_279_">
					<g>
						<polygon style="fill:#292949;" points="766.92,487.86 753.92,545.62 751.16,600.16 730.54,599.69 724.94,447.14 764.9,447.86 
													"/>
					</g>
				</g>
				<g id="XMLID_274_">
					<g id="XMLID_276_">
						<g id="XMLID_278_">
							<g>
								<path style="fill:#292949;" d="M705.62,608.93c1.16-1.16,2.47-1.75,3.92-1.43c1.39,0.3,2.61,1.33,3.13,2.64
									c0.36,0.89,0.4,1.86,0.44,2.82c0.19,4.93-0.34,16.56-6.91,17.85c-2.76,0.54-4.94-1.54-5.56-4.05
									C699.69,622.98,701.76,612.79,705.62,608.93z"/>
							</g>
						</g>
						<g id="XMLID_277_">
							<g>
								<path style="fill:#F4C7B3;" d="M716.49,540.32l-1.75,29.82c-0.14,8.29-1.25,16.51-2.11,24.74
									c-0.8,7.65,0.44,15.61-3.55,22.57c-1.25,2.18-3.79,3.63-5.56,0.98c-1.36-2.04-0.55-5.45-0.82-7.76
									c-1.07-9.46-2.4-18.88-3.53-28.33c-0.56-4.63,1.34-11,1.21-15.67c0,0-3.64-25.23-3.64-25.23L716.49,540.32z"/>
							</g>
						</g>
					</g>
					<g id="XMLID_275_">
						<g>
							<polygon style="fill:#292949;" points="690.4,484.33 688.72,540.39 697.52,597.09 718.49,597.71 717.56,536.36 
								728.66,485.48 732.39,452.17 699.11,448.25 							"/>
						</g>
					</g>
				</g>
				<g id="XMLID_273_">
					<g>
						<g>
							<polygon style="fill:#493481;" points="716.72,333.51 752.57,332.66 773.35,371.31 765.97,407.52 764.65,450.85 
								713.52,451.54 696.69,448.81 701.16,402.52 698.6,340.68 							"/>
						</g>
					</g>
				</g>
				<g id="XMLID_267_">
					<g id="XMLID_271_">
						<g>
							<path style="fill:#F4C7B3;" d="M721.42,300.06c7.06-15.04,27.05-6.96,29.8,7.4c1.8,9.37-6.48,20.39-16.16,21.98
								c-0.08,0.35-1.11,3.4-1.15,3.69c-0.16,1.46-0.5,2.87-0.87,4.3c-0.14,0.53-8.2-1.93-9.09-2.21c-0.31-0.1-0.66-0.22-0.81-0.51
								c-0.28-0.55,1.39-4.74,1.52-5.3c0.14-0.67,0.29-1.34,0.43-2.01c-4.39-2.76-6.8-7.9-7.09-12.9
								C717.71,309.48,719.3,304.58,721.42,300.06z"/>
						</g>
					</g>
					<g id="XMLID_268_">
						<g id="XMLID_270_">
							<g>
								<path style="fill:#292949;" d="M736.4,287.4c0.98,1.24,1.25,2.85,1.41,4.39c0.09,0.92,0.16,1.86-0.13,2.73
									c-1.15,3.46-4.65,2.9-7.49,3.75c-3.51,1.05-6.68,3.33-8.88,6.12c-3.45,4.36-2.77,10.53-2.14,15.82
									c0.22,1.86,0.78,4.66-0.81,6.13c-1.61,1.49-4.9,0.88-6.52-0.15c-1.49-0.94-2.62-2.52-4.31-2.99
									c-1.79-0.5-4.34,0.03-5.01-1.73c-0.19-0.49-0.15-1.06-0.4-1.52c-0.85-1.55-3.54-0.13-4.85-1.3
									c-0.81-0.72-0.66-2.05-0.25-3.07c0.41-1.02,1.02-2.04,0.93-3.13c-0.08-0.94-0.66-1.74-0.98-2.62
									c-0.63-1.74-0.12-3.87,1.24-5.13c2.53-2.36,6.82-1.39,9.49-3.58c1.39-1.14,2.07-2.92,2.73-4.61
									c0.65-1.69,1.41-3.46,2.88-4.49c1.81-1.28,4.17-0.77,5.99-2.32c1.07-0.91,1.85-2.16,3.02-2.93
									c1.54-1.01,4.42-1.61,6.24-2.01C731.47,284.11,734.53,285.05,736.4,287.4z"/>
							</g>
						</g>
						<g id="XMLID_269_">
							<g>
								<path style="fill:#292949;" d="M746.75,313.73c-0.46,5.15-3.61,10.43-1.73,15.22c1.9,4.83,7.77,6.29,12.82,7.08
									c0.83,0.13,11.45,2.21,11.52,2.01c1.19-3.49,2.41-7.06,4.62-10c2.21-2.94,5.62-5.21,9.23-5.05
									c-1.01-0.29-1.4-1.61-1.17-2.67c0.23-1.05,0.89-1.96,1.32-2.95c1.06-2.44,0.61-5.46-1.1-7.43
									c-3.41-3.94-10.44-3.22-13.25-7.62c-1.74-2.73-1.11-6.36-1.84-9.54c-1.4-6.16-7.77-8.11-12.34-11.31
									c-4.83-3.39-9.49-5.46-15.52-5.11c-7.47,0.43-13.74,7.32-11.66,14.66c2.66,9.41,17.26,10.2,19,19.65
									C746.83,311.67,746.85,312.7,746.75,313.73z"/>
							</g>
						</g>
					</g>
				</g>
			</g>
			<g id="XMLID_265_">
				<g>
					<polygon style="fill:#F9F9F9;" points="741.97,333.31 730.84,349.03 725.62,348.6 716.9,332.66 					"/>
				</g>
			</g>
		</g>
		<g>
			<g>
				<path style="fill:#493481;" d="M716.9,332.66l-20.21,1.1c0,0-22.69,11.16-24.19,10.32c-1.5-0.84-26.02-49.92-26.02-49.92
					l-12.01,3.9l15.01,56.15l14.51,15l41.03-6.83L716.9,332.66z"/>
			</g>
		</g>
		<g>
			<path style="fill:#F4C7B3;" d="M636.36,297.36c0,0-3.17-4.73-3.22-4.81c-1.18-1.76,0.49-8.82,0.63-11.04
				c0.08-1.27,6.09,1.33,6.63,2.07c0.93,1.25,0.92,5.26,1.31,6.95l3.07,1.19l-0.4,4.21L636.36,297.36z"/>
		</g>
	</g>
	<g>
		<g>
			<polygon style="fill:#043D63;" points="211.8,151.99 148.63,123.45 148.63,47.48 211.8,76.02 			"/>
		</g>
		<g>
			<polygon style="fill:#074A82;" points="211.8,151.99 274.96,123.45 274.96,47.48 211.8,76.02 			"/>
		</g>
		<g>
			<polygon style="fill:#085E99;" points="148.63,47.48 211.8,76.02 274.96,47.48 211.8,21.57 			"/>
		</g>
	</g>
	<g>
		<g>
			<polygon style="fill:#156DB5;" points="716.21,109.59 663.13,85.61 663.13,21.77 716.21,45.75 			"/>
		</g>
		<g>
			<g>
				<polygon style="fill:#0E5BA9;" points="716.21,109.59 769.29,85.61 769.29,21.77 716.21,45.75 				"/>
			</g>
		</g>
		<g>
			<polygon style="fill:#1F86CC;" points="663.13,21.77 716.21,45.75 769.29,21.77 716.21,0 			"/>
		</g>
	</g>
	<g>
		<path style="fill:#D67086;" d="M395.09,170.19l-7.44-3.37l1.31-2.9l7.44,3.37L395.09,170.19z M381.85,164.19l-8.7-3.94l1.31-2.9
			l8.7,3.94L381.85,164.19z M367.36,157.63l-8.7-3.94l1.31-2.9l8.7,3.94L367.36,157.63z M352.87,151.07l-8.7-3.94l1.31-2.9l8.7,3.94
			L352.87,151.07z M338.37,144.5l-8.7-3.94l1.31-2.9l8.7,3.94L338.37,144.5z M323.88,137.94l-8.7-3.94l1.31-2.9l8.7,3.94
			L323.88,137.94z M309.39,131.38l-8.7-3.94l1.31-2.9l8.7,3.94L309.39,131.38z M294.9,124.81l-8.7-3.94l1.31-2.9l8.7,3.94
			L294.9,124.81z M280.4,118.25l-8.7-3.94l1.31-2.9l8.7,3.94L280.4,118.25z M265.91,111.69l-8.7-3.94l1.31-2.9l8.7,3.94
			L265.91,111.69z M251.42,105.12l-8.7-3.94l1.31-2.9l8.7,3.94L251.42,105.12z"/>
	</g>
	<g>
		<path style="fill:#D67086;" d="M83.83,170.44l-1.89-2.56l3.93-2.91l1.89,2.56L83.83,170.44z M92.87,163.74l-1.89-2.56l7.67-5.68
			l1.89,2.56L92.87,163.74z M105.66,154.27l-1.89-2.56l7.67-5.68l1.89,2.56L105.66,154.27z M118.44,144.8l-1.89-2.56l7.67-5.68
			l1.89,2.56L118.44,144.8z M131.22,135.32l-1.89-2.56l7.67-5.68l1.89,2.56L131.22,135.32z M144,125.85l-1.89-2.56l7.67-5.68
			l1.89,2.56L144,125.85z M156.78,116.38l-1.89-2.56l7.67-5.68l1.89,2.56L156.78,116.38z M169.57,106.9l-1.89-2.56l7.67-5.68
			l1.89,2.56L169.57,106.9z"/>
	</g>
	<g>
		<g>
			<polygon style="fill:#156DB5;" points="61.52,264.03 8.45,240.05 8.45,176.21 61.52,200.19 			"/>
		</g>
		<g>
			<g>
				<polygon style="fill:#0E5BA9;" points="61.52,264.03 114.6,240.05 114.6,176.21 61.52,200.19 				"/>
			</g>
		</g>
		<g>
			<polygon style="fill:#1F86CC;" points="8.45,176.21 61.52,200.19 114.6,176.21 61.52,154.44 			"/>
		</g>
	</g>
	<g>
		<path style="fill:#D67086;" d="M392.58,185.09l-1.17-2.96l0.27-0.11l1.17,2.96L392.58,185.09z M398.76,182.63l-1.17-2.96
			l8.87-3.52l1.17,2.96L398.76,182.63z M413.55,176.76l-1.17-2.96l8.87-3.52l1.17,2.96L413.55,176.76z M428.33,170.88l-1.17-2.96
			l8.87-3.52l1.17,2.96L428.33,170.88z M443.12,165.01l-1.17-2.96l8.87-3.52l1.17,2.96L443.12,165.01z M457.9,159.14l-1.17-2.96
			l8.87-3.52l1.17,2.96L457.9,159.14z M472.69,153.26l-1.17-2.96l8.87-3.52l1.17,2.96L472.69,153.26z M487.47,147.39l-1.17-2.96
			l8.87-3.52l1.17,2.96L487.47,147.39z M502.26,141.51l-1.17-2.96l8.87-3.52l1.17,2.96L502.26,141.51z M517.04,135.64l-1.17-2.96
			l8.87-3.52l1.17,2.96L517.04,135.64z M531.83,129.76l-1.17-2.96l8.87-3.52l1.17,2.96L531.83,129.76z M546.61,123.89l-1.17-2.96
			l8.87-3.52l1.17,2.96L546.61,123.89z M561.4,118.01l-1.17-2.96l8.87-3.52l1.17,2.96L561.4,118.01z M576.19,112.14l-1.17-2.96
			l8.87-3.52l1.17,2.96L576.19,112.14z M590.97,106.27l-1.17-2.96l8.87-3.52l1.17,2.96L590.97,106.27z M605.76,100.39l-1.17-2.96
			l8.87-3.52l1.17,2.96L605.76,100.39z M620.54,94.52l-1.17-2.96l8.87-3.52l1.17,2.96L620.54,94.52z M635.33,88.64l-1.17-2.96
			l8.87-3.52l1.17,2.96L635.33,88.64z M650.11,82.77l-1.17-2.96l8.87-3.52l1.17,2.96L650.11,82.77z M664.9,76.89l-1.17-2.96
			l8.87-3.52l1.17,2.96L664.9,76.89z M679.68,71.02l-1.17-2.96l8.87-3.52l1.17,2.96L679.68,71.02z"/>
	</g>
	<g>
		<g>
			<polygon style="fill:#156DB5;" points="445.8,272.63 338.19,224.01 338.19,94.59 445.8,143.21 			"/>
		</g>
		<g>
			<g>
				<polygon style="fill:#0E5BA9;" points="445.8,272.63 553.41,224.01 553.41,94.59 445.8,143.21 				"/>
			</g>
		</g>
		<g>
			<polygon style="fill:#1F86CC;" points="338.19,94.59 445.8,143.21 553.41,94.59 445.8,50.44 			"/>
		</g>
	</g>
	<g>
		<path style="fill:#D67086;" d="M623.83,240.98l-8.71-3.9l1.3-2.9l8.71,3.9L623.83,240.98z M609.31,234.48l-8.71-3.9l1.3-2.9
			l8.71,3.9L609.31,234.48z M594.79,227.97l-8.71-3.9l1.3-2.9l8.71,3.9L594.79,227.97z M580.26,221.47l-8.71-3.9l1.3-2.9l8.71,3.9
			L580.26,221.47z M565.74,214.97l-8.71-3.9l1.3-2.9l8.71,3.9L565.74,214.97z M551.22,208.47l-8.71-3.9l1.3-2.9l8.71,3.9
			L551.22,208.47z M536.7,201.97l-8.71-3.9l1.3-2.9l8.71,3.9L536.7,201.97z M522.18,195.47l-8.71-3.9l1.3-2.9l8.71,3.9
			L522.18,195.47z M507.66,188.96l-8.71-3.9l1.3-2.9l8.71,3.9L507.66,188.96z"/>
	</g>
	<g>
		<path style="fill:#D67086;" d="M304.76,242.08l-1.73-2.67l8.01-5.19l1.73,2.67L304.76,242.08z M318.1,233.42l-1.73-2.67l8.01-5.19
			l1.73,2.67L318.1,233.42z M331.45,224.77l-1.73-2.67l8.01-5.19l1.73,2.67L331.45,224.77z M344.8,216.11l-1.73-2.67l8.01-5.19
			l1.73,2.67L344.8,216.11z M358.15,207.45l-1.73-2.67l8.01-5.19l1.73,2.67L358.15,207.45z M371.5,198.8l-1.73-2.67l8.01-5.19
			l1.73,2.67L371.5,198.8z M384.85,190.14l-1.73-2.67l8.01-5.19l1.73,2.67L384.85,190.14z"/>
	</g>
	<g>
		<g>
			<polygon style="fill:#156DB5;" points="267.96,378.66 194.37,345.41 194.37,256.9 267.96,290.15 			"/>
		</g>
		<g>
			<g>
				<polygon style="fill:#0E5BA9;" points="267.96,378.66 341.55,345.41 341.55,256.9 267.96,290.15 				"/>
			</g>
		</g>
		<g>
			<polygon style="fill:#1F86CC;" points="194.37,256.9 267.96,290.15 341.55,256.9 267.96,226.71 			"/>
		</g>
	</g>
	<g>
		<g>
			<polygon style="fill:#043D63;" points="664.95,302.06 591.36,268.8 591.36,180.29 664.95,213.55 			"/>
		</g>
		<g>
			<polygon style="fill:#074A82;" points="664.95,302.06 738.55,268.8 738.55,180.29 664.95,213.55 			"/>
		</g>
		<g>
			<polygon style="fill:#085E99;" points="591.36,180.29 664.95,213.55 738.55,180.29 664.95,150.1 			"/>
		</g>
	</g>
	<g>
		<path style="fill:#F4C7B3;" d="M730.45,436.86c-2.18,2.21-5.18,4.12-8.25,3.73c-1.23-0.16-2.45-0.37-3.66-0.65
			c-0.95-0.22-1.92-0.48-2.68-1.11c-0.76-0.63-1.24-1.7-0.92-2.66c0.45-1.34,2.08-1.7,3.27-2.43c1.49-0.9,2.4-2.53,3.57-3.84
			c2.66-2.99,6.26-3.27,9.66-4.87c0.16-0.07,2,2.05,2.16,2.24c1.23,1.38,1.34,1.68,0.65,3.43
			C733.39,432.87,732.14,435.15,730.45,436.86z"/>
	</g>
	<g id="XMLID_272_">
		<g>
			<g>
				<polygon style="fill:#493481;" points="753.76,335.32 782.86,379.65 778.49,404.34 733.42,435.56 724.94,428.14 755.07,390.05 
					753.9,365.98 				"/>
			</g>
		</g>
	</g>
</g>
</svg>
