<?xml version="1.0" encoding="utf-8"?>
<!-- Generator: Adobe Illustrator 26.1.0, SVG Export Plug-In . SVG Version: 6.00 Build 0)  -->
<svg version="1.1" id="Layer_1" xmlns="http://www.w3.org/2000/svg" xmlns:xlink="http://www.w3.org/1999/xlink" x="0px" y="0px"
	 viewBox="0 0 298.29 263.63" style="enable-background:new 0 0 298.29 263.63;" xml:space="preserve">
<g>
	<g>
		<g>
			<rect x="6.36" y="34.94" style="fill:#06529C;" width="51.41" height="51.41"/>
		</g>
		<g>
			<polygon style="fill:#0F66AD;" points="6.36,34.94 20.81,18.7 72.21,18.7 57.76,34.94 			"/>
		</g>
		<g>
			<polygon style="fill:#004A86;" points="57.76,34.94 57.76,86.34 72.21,70.1 72.21,18.7 			"/>
		</g>
	</g>
	<g>
		<path style="fill:#5BB5DC;" d="M110.72,53.68h-4.02V52.3h4.02V53.68z M103.94,53.68h-4.13V52.3h4.13V53.68z M97.06,53.68h-4.13
			V52.3h4.13V53.68z M90.17,53.68h-4.13V52.3h4.13V53.68z M83.29,53.68h-4.13V52.3h4.13V53.68z M76.4,53.68h-4.13V52.3h4.13V53.68z
			 M69.52,53.68h-4.13V52.3h4.13V53.68z"/>
	</g>
	<g>
		<g>
			<g>
				<rect x="108.16" y="22.4" style="fill:#427CCC;" width="70.88" height="70.88"/>
			</g>
			<g>
				<polygon style="fill:#619BD5;" points="108.16,22.4 128.09,0 198.97,0 179.04,22.4 				"/>
			</g>
			<g>
				<polygon style="fill:#2F72B8;" points="179.04,22.4 179.04,93.28 198.97,70.88 198.97,0 				"/>
			</g>
		</g>
		<g id="XMLID_573_">
			<path style="fill:#FFFFFF;" d="M157.52,52.66V42.11c0-2.21-0.71-4.34-2.05-6.14c-1.33-1.79-3.15-3.09-5.26-3.76
				c-1.43-0.46-2.87-0.46-4.26-0.46h-4.05c-1.88,0-3.54,0.36-5.06,1.09c-1.94,0.94-3.63,2.62-4.63,4.63
				c-0.73,1.45-1.09,3.05-1.09,4.74v10.44h-3.68v23.36c0,3.16,2.56,5.72,5.72,5.72h21.51c3.16,0,5.72-2.56,5.72-5.72V52.66H157.52z
				 M134.32,42.11c0-0.84,0.09-1.42,0.37-2.28c0.21-0.67,0.73-1.63,1.19-2.19c0.6-0.74,1.17-1.22,2.01-1.72
				c0.77-0.45,1.53-0.72,2.55-0.89c0.04-0.01,0.18-0.03,0.53-0.05c0.14-0.01,0.3-0.01,0.49-0.01h5.67c0.86,0,1.44,0.09,2.3,0.37
				c0.67,0.21,1.63,0.74,2.19,1.19c0.74,0.6,1.22,1.17,1.72,2.01c0.45,0.77,0.72,1.53,0.89,2.55c0.01,0.04,0.03,0.18,0.05,0.53
				c0.01,0.14,0.01,0.3,0.01,0.49v10.56h-19.97V42.11z M144.99,67.63v5.63c0,0.42-0.49,0.76-1.09,0.76h-0.02
				c-0.6,0-1.09-0.34-1.09-0.76v-5.63c-1.86-0.49-3.23-2.18-3.23-4.19c0-2.39,1.94-4.33,4.33-4.33s4.33,1.94,4.33,4.33
				C148.23,65.45,146.85,67.14,144.99,67.63z"/>
		</g>
	</g>
	<g>
		<path style="fill:#5BB5DC;" d="M234.34,49.31h-4.02v-1.38h4.02V49.31z M227.56,49.31h-4.13v-1.38h4.13V49.31z M220.68,49.31h-4.13
			v-1.38h4.13V49.31z M213.79,49.31h-4.13v-1.38h4.13V49.31z M206.91,49.31h-4.13v-1.38h4.13V49.31z M200.02,49.31h-4.13v-1.38h4.13
			V49.31z M193.14,49.31h-4.13v-1.38h4.13V49.31z"/>
	</g>
	<g>
		<g>
			<rect x="233.4" y="33.36" style="fill:#06529C;" width="44.6" height="44.6"/>
		</g>
		<g>
			<polygon style="fill:#0F66AD;" points="233.4,33.36 245.93,19.27 290.54,19.27 278,33.36 			"/>
		</g>
		<g>
			<polygon style="fill:#004A86;" points="278,33.36 278,77.97 290.54,63.87 290.54,19.27 			"/>
		</g>
	</g>
	<g>
		<g>
			<g id="XMLID_551_">
				<g id="XMLID_553_">
					<polygon style="fill:#061929;" points="28.86,258.74 28.61,261.36 23.31,263.63 21.04,260.84 23.81,258.4 29.11,256.13 					
						"/>
				</g>
				<g id="XMLID_552_">
					<polygon style="fill:#06529C;" points="33.28,205.71 29.2,257.92 24.1,258.61 19.87,214.12 16.38,200 					"/>
				</g>
			</g>
			<g id="XMLID_548_">
				<g id="XMLID_550_">
					<polygon style="fill:#06529C;" points="45.49,192.01 48.55,254.05 43.89,254.93 34.19,207.98 28.85,194.39 					"/>
				</g>
				<g id="XMLID_549_">
					<polygon style="fill:#061929;" points="44.31,256.98 49.84,258.67 51.86,255.56 48.84,253.39 43.81,254.34 					"/>
				</g>
			</g>
			<g id="XMLID_547_">
				<path style="fill:#BCBEC0;" d="M38.9,125.01c-3.77-3.12-12.86-1.33-17.64-1.33c0.46,0-4.53,26.69-4.69,29.02
					c-0.58,8.49-3.21,17.07-6.84,24.85c-1.53,3.28-3.35,6.44-4.44,9.89c-1.8,5.71-1.8,12.45-1.29,18.36
					c5.13,1.41,9.94,4.05,15.22,4.74c4.34,0.56,8.73-0.24,13.09-0.62c5.16-0.46,10.35-0.33,15.51-0.73
					c5.16-0.4,10.38-1.35,14.95-3.78c-2.04-3.95-3.62-8.13-4.93-12.38c-1.3-4.22-2.97-8.91-3.45-13.31
					c-0.43-3.97-0.5-8.02-1.08-12.05c-0.67-4.69-1.48-9.36-2.6-13.96c-1.28-5.26-2.98-10.43-5.06-15.43
					c-1.58-3.81-3.47-10.05-6.45-12.98C39.12,125.19,39.01,125.1,38.9,125.01z"/>
			</g>
			<g id="XMLID_543_">
				<g id="XMLID_546_">
					<path style="fill:#33435A;" d="M30.9,110.58c2.39,0.43,5.33,2.48,5.91,4.99c0.28,1.21-0.12,2.33,0.23,3.62
						c0.68,2.54-2.4,6.28,0.65,8.05c1.56,0.91,3.52,0.61,5.3,0.29c0.22-0.04,0.44-0.08,0.61-0.22c0.28-0.23,0.33-0.65,0.22-0.99
						c-0.11-0.34-0.33-0.64-0.53-0.94c-2.09-3.14-1.58-7.65-2.4-11.23c-0.81-3.57-2.73-7.13-6.27-8.6
						c-1.76,1.14-3.05,3.01-3.49,5.06L30.9,110.58z"/>
				</g>
				<g id="XMLID_545_">
					<path style="fill:#F7C1A3;" d="M33.89,125.96c2.3-0.98,3.82-3.32,4.32-5.77c0.5-2.45,0.1-5-0.57-7.4
						c-2.25-8.01-12.3-5.71-14.64,1.13C20.96,119.89,27.21,128.82,33.89,125.96z"/>
				</g>
				<g id="XMLID_544_">
					<path style="fill:#33435A;" d="M22.19,130.37c1.13-0.7,2.23-1.44,2.89-2.74c1.06-2.12,0.61-5.41,0.74-7.7
						c0.13-2.42,0.35-5.06,2.01-6.82c1.08-1.15,2.42-1.47,3.92-1.62c1.03-0.11,1.1,0.28,1.93-0.35c0.63-0.48,1.1-1.8,1.19-2.55
						c0.15-1.27-0.46-2.55-1.37-3.45c-1.4-1.39-2.97-2.01-4.89-1.89c-6.74,0.43-11.45,4.85-12.79,11.58
						c-0.64,3.24,0.33,6.7-0.38,9.82c-0.44,1.93-1.54,3.28-1.85,5.32c-0.82,5.3-3.12,12.17-2.45,17.52c0.03,0.2,0.07,0.42,0.23,0.53
						c0.33,0.24,0.75-0.12,0.99-0.45c1.39-1.92,2.78-3.84,4.16-5.77c0.54-0.75,1.1-1.52,1.41-2.4c0.79-2.18,0.06-4.85,1.41-6.73
						C20.09,131.64,21.15,131.02,22.19,130.37z"/>
				</g>
			</g>
			<g id="XMLID_539_">
				<g id="XMLID_541_">
					<g id="XMLID_542_">
						<path style="fill:#F7C1A3;" d="M11.59,181.67c-0.19,1.35,0.88,4.79,2.15,5.54c2.91,1.73,1.86-2.62,1.83-4.2
							c0.56,0.16,1.09,0.33,1.66,0.37c0.52,0.04-1.02-4.6-1.53-5.04c-1.23-1.04-2.1-0.51-3.59-0.34
							C11.96,179.23,11.77,180.45,11.59,181.67z"/>
					</g>
				</g>
				<g id="XMLID_540_">
					<polygon style="fill:#BCBEC0;" points="15.26,132.66 0,159.3 10.85,182.57 14.53,177.71 10.66,156.88 25.07,148.07 
						23.49,130.96 					"/>
				</g>
			</g>
			<polygon style="fill:#BCBEC0;" points="40.96,127.54 54.5,149.17 61.92,138.85 68.93,140.03 65.61,156.77 56.4,163.6 
				40.96,154.34 			"/>
		</g>
		<g>
			<polygon style="fill:#427CCC;" points="140.46,130.36 134.49,132.4 124.83,146.88 112.46,138.61 108.53,143.27 114.76,152.53 
				126,160.55 140.46,145.42 			"/>
			<polygon style="fill:#F7C1A3;" points="168.05,98.25 168.51,91.75 163.26,87.68 161.05,90.57 163.43,94.8 162.58,97.01 
				164.91,100.5 			"/>
			<g>
				<g>
					<g>
						<polygon style="fill:#33435A;" points="126.42,172.02 126,208.77 129.91,256.08 135.24,256.08 141.61,212.43 148.9,168.71 
													"/>
						<polygon style="fill:#061929;" points="135.21,258.33 129.45,261.21 126.57,258.33 129.45,255.45 135.21,255.45 						"/>
					</g>
					<g>
						<polygon style="fill:#33435A;" points="162.94,172.02 163.04,193.28 159.45,256.08 154.12,256.08 145.21,214.41 
							140.46,168.71 						"/>
						<polygon style="fill:#061929;" points="154.15,258.33 159.91,261.21 162.79,258.33 159.91,255.45 154.15,255.45 						"/>
					</g>
				</g>
				<path style="fill:#427CCC;" d="M168.47,184.82c0.11,3.37,0.04,7.89-1.38,8.05c-0.27,0.03-0.52-0.09-0.76-0.2
					c-2.47-1.2-4.23-2.9-6.67-4.06c-2.55-1.21-5.45-1.85-8.29-2.29c-4.23-0.68-8.52-1.08-12.78-1.12
					c-3.66-0.03-7.46,1.64-10.92,2.55c-1.33,0.35-2.41,1.32-3.52,2.08c-1.63,1.12-2.35,1.57-2.13-0.73
					c0.36-3.74,0.74-7.49,1.2-11.22c0.92-7.45,2.17-14.88,4.29-22.09c0.81-2.75,1.74-5.47,2.67-8.19c1.14-3.31,2.27-6.61,3.41-9.92
					c1.41-4.11,3.79-7,7.96-8.44c3.6-1.24,8.08-1.58,11.59,0.16c3.9,1.93,5.75,8.52,7.64,12.04c1.66,3.08,3.75,11.5,4.37,14.82
					c0.75,4,1.44,7.98,1.98,11.96c0.6,4.4,1.03,8.79,1.15,13.15C168.32,181.86,168.42,183.21,168.47,184.82z"/>
				<g>
					<path style="fill:#F7C1A3;" d="M144.86,130.14c0.08,0.07,0.18,0.13,0.29,0.17c0.22,0.07,0.47,0.05,0.7,0.02
						c0.95-0.11,1.9-0.23,2.86-0.34c-0.31-2.92,1.39-3.57,3.05-5.45c1.68-1.9,1.17-4.46,1.07-6.79c-0.03-0.65-0.06-1.32-0.33-1.9
						c-0.48-1.03-1.6-1.6-2.69-1.94c-2.77-0.86-5.94-0.65-8.39,0.92c-0.65,0.42-1.26,0.94-1.61,1.63c-0.54,1.06-0.4,2.33-0.25,3.51
						c0.23,1.82,0.77,3.6,1.8,5.13c0.96,1.43,2.78,2.11,2.99,3.82C144.41,129.37,144.54,129.86,144.86,130.14z"/>
					<g>
						<path style="fill:#33435A;" d="M139.65,117.86c0.16,0.73,0.5,1.47,0.33,2.2c-1.16-0.39-1.92-1.59-2.34-2.79
							c-0.19-0.55-0.32-1.13-0.28-1.71c0.05-0.58,0.3-1.16,0.76-1.49c0.64-0.46,1.79-0.28,1.97,0.55
							C140.27,115.45,139.4,116.76,139.65,117.86z"/>
						<path style="fill:#33435A;" d="M133.47,111.42c0.03-0.88,0.36-1.66,1.15-2.19c0.68-0.46,1.46-0.84,1.87-1.56
							c0.32-0.56,0.37-1.26,0.68-1.83c0.57-1.02,1.81-1.32,2.89-1.67c2.7-0.87,4.16-1.87,7.02-0.76c2.03,0.79,4.66,0.9,6.55,2.05
							c0.79,0.48,1.46,1.25,2.01,2.12c1.91,2.98,2.37,7.18,1.12,10.29c-0.28,0.7-0.63,1.34-1.01,1.95c-0.76,1.23-1.56,2.74-2.9,3.34
							c-0.08-0.58-0.51-0.9-0.65-1.46c-0.1-0.41-0.06-0.84-0.04-1.26c0.08-1.64,0.58-4.22-1.05-5.03c-2.07-1.03-5.94-0.1-7.93,0.77
							c-1.76,0.77-4.73,1.77-6.61,0.95C134.83,116.35,133.41,113.3,133.47,111.42z"/>
					</g>
				</g>
			</g>
			<polygon style="fill:#427CCC;" points="151.53,129.04 169.8,123.66 163.04,100.82 168.61,96.82 182.06,123.26 178.34,132.42 
				160.89,141.43 			"/>
		</g>
		<g>
			<polygon style="fill:#F3F3F3;" points="268.02,126.29 262.69,126.51 246.79,141.6 223.18,138.44 221.61,144.22 244.81,152.53 
				251.82,152.53 264.25,144.9 			"/>
			<polygon style="fill:#F7C1A3;" points="223.22,142.02 220.09,144.39 217.57,144.57 217.4,143.73 218.74,142.89 213.87,142.74 
				213.01,140.56 218.38,138.18 223.74,138.72 			"/>
			<g>
				<path style="fill:#061929;" d="M256.99,249.66l-4.43,3.14l-1.48,2.4c0,0,1.66,0.74,2.58,0.92c0.92,0.18,8.12-0.92,8.12-0.92
					v-4.24L256.99,249.66z"/>
				<path style="fill:#061929;" d="M291.4,251l-1.63,2.97c0,0-1.02,3.76-0.14,3.5c0.89-0.26,5.83-1.12,6.03-1.75
					c0.2-0.63,2.34-3.18,2.59-3.64c0.25-0.46-0.82-3.52-0.82-3.52L291.4,251z"/>
				<path style="fill:#394760;" d="M261.11,181.03l14.3,42.69L291.4,251l6.2-1.8L287,218.08c0,0-1.28-31.25-3.37-40.44
					L261.11,181.03z"/>
				<polygon style="fill:#394760;" points="249.79,187.47 255.33,250.95 261.97,250.95 264,218.47 267.82,189.72 253.3,172.71 				
					"/>
				<path style="fill:#F3F3F3;" d="M249.58,146.85c0.69-3.27,0.96-6.79,2.58-9.84c1.62-3.05,4.68-5.36,7.04-7.96
					c1-1.1,2.07-2.24,3.56-2.77c1.02-0.36,2.15-0.39,3.24-0.42c3.33-0.08,6.66-0.17,10-0.25c1.21-0.03,2.48-0.05,3.59,0.39
					c1.66,0.66,2.6,2.19,3.42,3.61c2.09,3.64,2.48,7.68,2.67,11.8c-0.01,0.04,2.6,51.71,0.53,50.74c-2.57-1.21-5.52-1.85-8.41-2.3
					c-4.07-0.65-8.23-1.07-12.38-1.17l-7.31,0.49h-4.41c-2.65,0.26-2.43,1.05-5.15,0.89C246.82,189.95,248.79,150.6,249.58,146.85z"
					/>
				<g>
					<path style="fill:#F7C1A3;" d="M268.72,127.54c1.65-0.07,3.31-0.14,4.96-0.22c0.09-1.32,0.07-2.64-0.05-3.96
						c1.4-0.41,3.02-1.04,3.34-2.46c0.1-0.45,0.05-0.91-0.01-1.37c-0.22-1.88-0.44-3.76-0.66-5.65c-0.08-0.65-0.16-1.32-0.48-1.89
						c-0.56-1-1.73-1.49-2.85-1.75c-2.86-0.66-6.04-0.21-8.38,1.56c-0.62,0.47-1.2,1.05-1.5,1.77c-0.47,1.11-0.23,2.38,0.01,3.56
						c0.22,1.09,0.44,2.18,0.67,3.27c0.26,1.25,0.65,2.68,1.81,3.21c0.62,0.28,1.37,0.25,1.92,0.65
						C268.48,124.94,268.26,126.44,268.72,127.54z"/>
					<path style="fill:#33435A;" d="M259.56,103.61c0.37-0.07,0.74-0.14,1.12-0.31c1.2-0.52,2.04-1.57,3.31-2.06
						c2.57-0.99,5.8-0.85,8.33,0.22c2.42,1.02,5.72,1.41,7.89,2.78c0.9,0.57,1.6,1.42,2.13,2.35c1.84,3.22,1.61,7.5-0.56,10.5
						c-0.49,0.67-1.06,1.28-1.65,1.86c-1.23,1.2-2.71,2.68-4.34,3.06c0.04-1.43,1.6-5.88,0.56-7.12c-1.37-1.64-4.07-1.6-6-1.42
						c-2.3,0.22-4.19-0.52-6.49-0.41c-1.17,0.06-2.49,0.29-3.39-0.46c-1.04-0.87-3.23-3.63-3.75-4.85
						c-0.45-1.06-0.15-2.37,0.64-3.21C258.05,103.84,258.79,103.75,259.56,103.61z"/>
				</g>
			</g>
			<path style="fill:#06529C;" d="M269.17,127.5c-0.17,1.21-0.54,2.58-0.54,2.58s-9.21,26.54-10.09,28.66
				c-0.2,0.47-0.29,0.98-0.29,1.49l2.12,6.21l4.2-5.19l5.7-29.74l1.38-1.19l0.49-3.02L269.17,127.5z"/>
		</g>
		<g>
			<path style="fill:#115E98;" d="M110.58,174.86l-42.11-3.59c-3.38-0.29-5.88-3.26-5.6-6.64l0,0c0.29-3.38,3.26-5.88,6.64-5.6
				l42.11,3.59c3.38,0.29,5.88,3.26,5.6,6.64v0C116.93,172.65,113.95,175.15,110.58,174.86z"/>
			<g>
				<path style="fill:#06529C;" d="M67.03,140.32l-32.49-3.81c-9.46-1.11-18.12,5.72-19.23,15.19l-1.87,15.95
					c-1.11,9.46,5.72,18.12,15.19,19.23l32.49,3.81c9.46,1.11,18.12-5.72,19.23-15.19l1.87-15.95
					C83.33,150.09,76.5,141.43,67.03,140.32z M72.02,158.35l-1.87,15.95c-0.45,3.8-4.03,6.63-7.83,6.19l-32.49-3.81
					c-3.8-0.45-6.63-4.03-6.19-7.83l1.87-15.95c0.45-3.8,4.03-6.63,7.83-6.19l32.49,3.81C69.64,150.97,72.47,154.55,72.02,158.35z"
					/>
				<path style="fill:#06529C;" d="M148.15,143.59h-32.71c-9.53,0-17.33,7.8-17.33,17.33v16.06c0,9.53,7.8,17.33,17.33,17.33h32.71
					c9.53,0,17.33-7.8,17.33-17.33v-16.06C165.47,151.39,157.68,143.59,148.15,143.59z M155.2,176.98c0,3.83-3.23,7.06-7.06,7.06
					h-32.71c-3.83,0-7.06-3.23-7.06-7.06v-16.06c0-3.83,3.23-7.06,7.06-7.06h32.71c3.83,0,7.06,3.23,7.06,7.06V176.98z"/>
				<path style="fill:#06529C;" d="M252.48,171.63l-0.95-16.03c-0.57-9.51-8.81-16.83-18.33-16.27l-32.65,1.94
					c-9.51,0.57-16.83,8.81-16.27,18.33l0.95,16.03c0.57,9.51,8.81,16.83,18.33,16.27l32.65-1.94
					C245.72,189.39,253.04,181.14,252.48,171.63z M235.6,179.7l-32.65,1.94c-3.82,0.23-7.24-2.81-7.46-6.63l-0.95-16.03
					c-0.23-3.82,2.81-7.24,6.63-7.46l32.65-1.94c3.82-0.23,7.24,2.81,7.46,6.63l0.95,16.03C242.45,176.06,239.42,179.48,235.6,179.7
					z"/>
			</g>
			<path style="fill:#1665A8;" d="M194.26,173.09H152c-3.39,0-6.14-2.75-6.14-6.14v0c0-3.39,2.75-6.14,6.14-6.14h42.26
				c3.39,0,6.14,2.75,6.14,6.14v0C200.4,170.34,197.65,173.09,194.26,173.09z"/>
		</g>
		<g>
			<polygon style="fill:#F3F3F3;" points="273.73,140.3 271.3,155.04 244.87,161.89 244.87,168.95 276.49,165.6 281.96,156.78 
				281.43,133.93 			"/>
			<polygon style="fill:#F7C1A3;" points="244.87,167.58 241.84,168.95 235.65,167.54 236.7,164.19 241.51,163.9 242.48,162.28 
				244.82,162.9 			"/>
		</g>
		<polygon style="fill:#F7C1A3;" points="110.65,138.81 104.55,141.1 103.04,147.57 106.58,148.37 109.44,144.45 111.8,144.3 
			114.01,140.73 		"/>
		<polygon style="fill:#F7C1A3;" points="61.92,138.85 67.58,138.35 71.21,142.87 68.73,144.84 65,142.84 63.09,143.61 60,141.64 		
			"/>
	</g>
</g>
</svg>
