<?xml version="1.0" encoding="utf-8"?>
<!-- Generator: Adobe Illustrator 26.1.0, SVG Export Plug-In . SVG Version: 6.00 Build 0)  -->
<svg version="1.1" id="Layer_1" xmlns="http://www.w3.org/2000/svg" xmlns:xlink="http://www.w3.org/1999/xlink" x="0px" y="0px"
	 viewBox="0 0 484.29 562.83" style="enable-background:new 0 0 484.29 562.83;" xml:space="preserve">
<g>
	<g>
		<g id="Axonometric_Cube_206_">
			<polygon id="Cube_face_-_left_298_" style="fill:#C3BEB1;" points="362.7,549.16 114.93,406.12 114.93,391.29 362.7,534.34 			
				"/>
			<polygon id="Cube_face_-_right_300_" style="fill:#ECE5D9;" points="484.29,478.96 362.7,549.16 362.7,534.34 484.29,464.13 			
				"/>
			<polygon id="Cube_face_-_top_303_" style="fill:#FFF9ED;" points="362.7,534.34 114.93,391.29 236.53,321.09 484.29,464.13 			
				"/>
		</g>
		<polygon style="fill:#C3BEB1;" points="114.93,391.29 137.63,404.4 178.53,404.4 291.94,469.87 352.61,482.67 159.68,365.46 		"/>
		<g>
			<g>
				<polygon style="fill:#ECE5D9;" points="330.06,430.83 383.56,399.63 406.11,451.46 352.61,482.67 				"/>
				<polygon style="fill:#FFF9ED;" points="190.49,350.25 243.99,319.05 383.56,399.63 330.06,430.83 				"/>
			</g>
			<g>
				<polygon style="fill:#ECE5D9;" points="232.44,324.45 285.92,293.37 285.98,343.45 232.5,374.52 				"/>
				<path style="fill:#ECE5D9;" d="M218.87,300.98l53.48-31.08c4.53,7.83,9.06,15.65,13.58,23.47l-53.48,31.08
					C227.93,316.63,223.4,308.81,218.87,300.98L218.87,300.98z"/>
				<polygon style="fill:#FFFDF5;" points="200.22,290.21 253.7,259.14 272.34,269.9 218.87,300.98 				"/>
			</g>
			<g>
				<polygon id="Cube_face_-_right_344_" style="fill:#B9B4A8;" points="272.14,269.95 218.51,300.91 218.51,173.98 272.14,143.02 
									"/>
				<g id="Axonometric_Cube_9_">
					<path style="fill:#C3BEB1;" d="M352.61,482.67l-22.55-51.84l-97.56-56.32l-0.06-50.06c-4.51-7.82-9.04-15.64-13.58-23.47
						l-0.35-0.2V183.71l81.19,46.87v-26.48l-105.28-60.79v26.48c0.03,0.02,0.03,117.22,0.03,117.22l-20.68,27.22
						c-2.32,3.07-3.58,6.82-3.57,10.67l0.11,52.42l20.08,11.59C190.38,389,352.61,482.67,352.61,482.67z"/>
					<polygon id="Cube_face_-_right_109_" style="fill:#AAA7A3;" points="353.19,199.7 299.7,230.59 299.7,204.11 353.19,173.23 
											"/>
					<polygon id="Cube_face_-_top_109_" style="fill:#FFF9ED;" points="299.7,204.11 194.42,143.32 247.9,112.44 353.19,173.23 
											"/>
				</g>
			</g>
		</g>
		<g>
			<path style="fill:#23366D;" d="M299.48,406.25c-6.61-3.82-9.88-8.83-9.8-13.84l0-51.4l66.91,0.36l0,51.4
				c-0.08,4.88-3.34,9.75-9.8,13.48C333.73,413.79,312.55,413.8,299.48,406.25z"/>
			<g style="enable-background:new    ;">
				<path style="fill:#334689;" d="M220.15,333.97l-0.03,7.79c-0.01,4.65,3.06,9.32,9.22,12.87l71.77,41.44
					c12.25,7.07,32.04,7.07,44.18,0.02l78.34-45.53c6.05-3.51,9.07-8.11,9.08-12.72l0.03-7.79L220.15,333.97z"/>
				<path style="fill:#5365B9;" d="M423.52,317.17l-71.77-41.44c-12.25-7.07-32.01-7.05-44.18,0.02l-78.34,45.53
					c-12.14,7.05-12.1,18.5,0.14,25.57l71.77,41.44c12.25,7.07,32.04,7.07,44.18,0.02l78.34-45.53
					C435.83,335.71,435.77,324.24,423.52,317.17z"/>
			</g>
			<g>
				<path style="fill:#334689;" d="M368.15,312.81c-22.29-12.44-58.44-12.44-80.73,0c-22.29,12.44-22.29,32.62,0,45.07
					c22.29,12.44,58.44,12.44,80.73,0C390.44,345.43,390.44,325.26,368.15,312.81z"/>
				<g>
					<path style="fill:#B8DFFB;" d="M275.21,335.96c1.15,8.26,6.61,15.45,16.32,21.4c4.6,2.82,17.5,9.41,37.99,9.62
						c21.02,0.22,33.64-6.36,38.39-8.83c13.58-7.8,16.64-16.62,17.41-21.77c-11.95,22.46-41.81,27.33-59.8,27.05
						C306.89,363.14,289.92,354.7,275.21,335.96z"/>
					
						<ellipse transform="matrix(3.209418e-03 -1 1 3.209418e-03 -1.1297 659.5496)" style="fill:#DBF7FE;" cx="330.27" cy="330.34" rx="33.84" ry="55.07"/>
					<g style="enable-background:new    ;">
						<path style="fill:#B8DFFB;" d="M368.53,306.51c-20.53-12.27-54.29-12.61-75.41-0.76c-10.73,6.02-16.14,14.04-16.16,22.07
							l-0.01,4.59c0.02-8.04,5.42-16.05,16.16-22.07c21.12-11.85,54.88-11.51,75.41,0.76c10.1,6.03,15.11,13.83,15.09,21.61
							l0.01-4.59C383.64,320.34,378.62,312.55,368.53,306.51z"/>
						<path style="fill:#B8DFFB;" d="M368.84,351.01c-21.9,12.29-56.92,11.94-78.21-0.79c-10.47-6.26-15.67-14.35-15.65-22.41
							l-0.01,5.11c-0.02,8.06,5.18,16.15,15.65,22.41c21.29,12.73,56.31,13.08,78.21,0.79c11.13-6.25,16.73-14.56,16.76-22.89
							l0.01-5.11C385.58,336.46,379.97,344.77,368.84,351.01z"/>
					</g>
					<path style="fill:#DBF7FE;" d="M369.95,305.71c-21.29-12.73-56.31-13.08-78.21-0.79c-21.9,12.29-22.4,32.57-1.11,45.3
						c21.29,12.73,56.31,13.08,78.21,0.79C390.74,338.72,391.24,318.44,369.95,305.71z M367.46,350.19
						c-21.12,11.85-54.88,11.51-75.41-0.76c-20.53-12.27-20.05-31.83,1.07-43.68c21.12-11.85,54.88-11.51,75.41,0.76
						C389.06,318.78,388.58,338.34,367.46,350.19z"/>
				</g>
				<g>
					<path style="fill:#88B329;" d="M347.77,340.45c-2.02-1.17-5.29-1.17-7.31,0c-2.02,1.17-2.02,3.06,0,4.22
						c2.02,1.17,5.29,1.17,7.31,0C349.79,343.5,349.79,341.61,347.77,340.45z"/>
					<path style="fill:#88B329;" d="M365.1,336.66c-0.96-0.55-2.51-0.55-3.47,0c-0.96,0.55-0.96,1.45,0,2
						c0.96,0.55,2.51,0.55,3.47,0C366.06,338.11,366.06,337.22,365.1,336.66z"/>
					<path style="fill:#88B329;" d="M328.76,349.12c-0.96-0.55-2.51-0.55-3.47,0c-0.96,0.55-0.96,1.45,0,2
						c0.96,0.55,2.51,0.55,3.47,0C329.72,350.57,329.72,349.67,328.76,349.12z"/>
					<path style="fill:#88B329;" d="M358.3,317.31c-3.19-1.84-7.45-2.63-11.62-2.45c-0.22-0.72-0.8-1.41-1.76-1.96
						c-2.48-1.43-6.51-1.43-8.99,0c-0.17,0.1-0.3,0.21-0.44,0.31c-3.41-1.81-8.7-1.78-12.01,0.13c-3.39,1.96-3.39,5.14,0,7.1
						c2.68,1.55,6.67,1.85,9.91,0.95c-1.15,2.8,0.12,5.86,3.9,8.04c5.8,3.35,15.2,3.35,21,0C364.1,326.09,364.1,320.66,358.3,317.31
						z"/>
					<path style="fill:#88B329;" d="M322.21,330.52c-5.8-3.35-15.2-3.35-21,0c-0.41,0.24-0.73,0.51-1.09,0.77
						c-0.25-0.37-0.63-0.71-1.15-1.01c-2.02-1.17-5.29-1.17-7.31,0c-2.02,1.17-2.02,3.06,0,4.22c1.47,0.85,3.6,1.06,5.43,0.68
						c-0.76,2.64,0.59,5.44,4.12,7.47c5.8,3.35,15.2,3.35,21,0C328.01,339.3,328.01,333.87,322.21,330.52z"/>
					<path style="fill:#88B329;" d="M301.63,322.81c2.62,1.51,6.87,1.51,9.49,0c2.62-1.51,2.62-3.97,0-5.48
						c-2.62-1.51-6.87-1.51-9.49,0C299.01,318.84,299.01,321.3,301.63,322.81z"/>
				</g>
			</g>
		</g>
		<g>
			<g>
				<g>
					<path style="fill:#334689;" d="M302.73,252.68c-5.29-3.05-13.83-3.04-19.08,0.01c-2.61,1.52-3.91,3.51-3.91,5.5
						c0-0.02-0.09,30.67-0.09,30.67c-0.01,2.01,1.32,4.02,3.98,5.56c5.29,3.05,13.83,3.04,19.07,0c2.61-1.52,3.92-3.51,3.93-5.5
						l0.09-30.68c0,0.28-0.09,0.55-0.14,0.83C306.99,256.79,305.75,254.43,302.73,252.68z M279.98,259.68
						c-0.07-0.21-0.06-0.43-0.1-0.64c0.04,0.22,0.04,0.44,0.11,0.65L279.98,259.68z"/>
					<path style="fill:#334689;" d="M381.05,258.34c0.43-2.28-0.81-4.64-3.84-6.39c-5.29-3.05-13.81-3.05-19.07,0
						c-2.62,1.52-3.93,3.52-3.93,5.51c0-0.01-0.09,30.67-0.09,30.67c-0.01,2.01,1.32,4.02,3.98,5.56
						c5.29,3.05,13.83,3.04,19.08-0.01c2.61-1.52,3.92-3.5,3.92-5.48l0.09-30.68C381.19,257.78,381.1,258.06,381.05,258.34z
						 M355.2,260.4c-0.13-0.19-0.19-0.39-0.3-0.58C355.01,260.01,355.07,260.21,355.2,260.4L355.2,260.4z"/>
					<path style="fill:#334689;" d="M340.34,273.89c-5.29-3.05-13.83-3.04-19.08,0.01c-2.61,1.52-3.91,3.51-3.91,5.5
						c0-0.02-0.09,30.67-0.09,30.67c-0.01,2.01,1.32,4.02,3.98,5.56c5.29,3.05,13.83,3.04,19.07,0c2.61-1.52,3.92-3.51,3.93-5.5
						l0.09-30.68c0,0.28-0.09,0.55-0.14,0.83C344.6,278,343.36,275.64,340.34,273.89z"/>
				</g>
				<g>
					<g style="enable-background:new    ;">
						<path style="fill:#334689;" d="M275.8,251.22l-0.01,8.84c-0.02,8,5.26,16.01,15.84,22.12c21.02,12.14,54.97,12.14,75.85,0
							c10.37-6.03,15.57-13.92,15.59-21.82l0.01-8.84L275.8,251.22z"/>
						<path style="fill:#5365B9;" d="M367.24,230.26c-21.02-12.14-54.97-12.14-75.85,0c-20.88,12.14-20.77,31.8,0.25,43.94
							c21.02,12.14,54.97,12.14,75.85,0C388.37,262.06,388.26,242.4,367.24,230.26z"/>
					</g>
				</g>
			</g>
			<g style="enable-background:new    ;">
				<linearGradient id="SVGID_1_" gradientUnits="userSpaceOnUse" x1="287.3311" y1="191.1082" x2="369.5867" y2="191.1082">
					<stop  offset="0" style="stop-color:#C3BEB1"/>
					<stop  offset="0.0832" style="stop-color:#CAC4B8"/>
					<stop  offset="0.3777" style="stop-color:#DDD7CA"/>
					<stop  offset="0.6801" style="stop-color:#E8E1D5"/>
					<stop  offset="1" style="stop-color:#ECE5D9"/>
				</linearGradient>
				<path style="fill:url(#SVGID_1_);" d="M369.56,110.85l-82.23-0.23l0.03,137.05c-0.02,6.13,4.03,12.28,12.14,16.96
					c16.1,9.29,42.16,9.29,58.15,0c7.94-4.62,11.92-10.67,11.94-16.72L369.56,110.85z"/>
				<g>
					<path style="fill:#FFF9ED;" d="M357.43,93.9c16.1,9.29,16.18,24.39,0.19,33.68c-15.99,9.29-42.05,9.29-58.15,0
						c-16.12-9.31-16.18-24.39-0.19-33.68C315.27,84.6,341.31,84.59,357.43,93.9z"/>
				</g>
			</g>
			<g style="enable-background:new    ;">
				<g>
					<g>
						<path style="fill:#334689;" d="M352.56,14.04l-48.22-0.14l0.02,93.86c-0.01,3.6,2.36,7.2,7.12,9.95
							c9.44,5.45,24.72,5.45,34.1,0c4.66-2.71,6.99-6.26,7-9.81L352.56,14.04z"/>
					</g>
				</g>
				<g>
					<path style="fill:#5365B9;" d="M345.45,4.09c9.44,5.45,9.49,14.3,0.11,19.75c-9.38,5.45-24.66,5.45-34.1,0
						c-9.45-5.46-9.49-14.3-0.11-19.75C320.72-1.36,336-1.37,345.45,4.09z"/>
				</g>
				<g>
					<path style="fill:#334689;" d="M341.4,6.44c7.19,4.15,7.23,10.9,0.08,15.05c-7.15,4.15-18.79,4.15-25.98,0
						c-7.2-4.16-7.23-10.9-0.08-15.05C322.56,2.29,334.2,2.28,341.4,6.44z"/>
				</g>
				<path style="fill:#748DE8;" d="M341.4,9.98c-7.2-4.16-18.84-4.15-25.98,0c-2.78,1.62-4.46,3.62-5.07,5.72
					c0.61,2.12,2.32,4.16,5.15,5.8c7.19,4.15,18.84,4.15,25.98,0c2.78-1.61,4.46-3.62,5.06-5.72
					C345.94,13.65,344.23,11.62,341.4,9.98z"/>
			</g>
		</g>
		<g>
			<g id="Axonometric_Cylinder_70_">
				<path style="fill:#FFF9ED;" d="M198.7,329.4c-6.21-3.59-11.83-3.89-15.87-1.47l-7.51,4.34l31.74,54.3l7.51-4.34
					c3.94-2.36,6.37-7.31,6.37-14.31C220.94,353.73,210.98,336.49,198.7,329.4z"/>
				<path id="Cylinder_face_172_" style="fill:#C3BEB1;" d="M213.43,372.25c0,14.18-9.96,19.93-22.24,12.84
					c-12.28-7.09-22.24-24.33-22.24-38.52c0-14.18,9.96-19.93,22.24-12.84C203.47,340.82,213.43,358.07,213.43,372.25z"/>
			</g>
			<g id="Axonometric_Cylinder_69_">
				<path style="fill:#FFF9ED;" d="M187.71,340.39c-5.09-2.94-9.69-3.18-13-1.21l-15.14,8.74l25.99,44.47l15.14-8.74
					c3.23-1.93,5.22-5.98,5.22-11.72C205.92,360.32,197.76,346.2,187.71,340.39z"/>
				<path id="Cylinder_face_171_" style="fill:#334689;" d="M190.78,380.68c0,11.61-8.15,16.32-18.21,10.51
					c-10.06-5.81-18.21-19.93-18.21-31.54c0-11.61,8.15-16.32,18.21-10.51C182.62,354.94,190.78,369.06,190.78,380.68z"/>
			</g>
		</g>
	</g>
	<g>
		<g id="Axonometric_Cube_246_">
			<polygon id="Cube_face_-_left_619_" style="fill:#C3BEB1;" points="116.27,554.7 0,487.57 0,495.7 116.27,562.83 			"/>
			<polygon id="Cube_face_-_right_623_" style="fill:#ECE5D9;" points="216.58,504.91 116.27,562.83 116.27,554.7 216.58,496.78 			
				"/>
			<polygon id="Cube_face_-_top_619_" style="fill:#FFF9ED;" points="116.27,554.7 0,487.57 100.31,429.65 216.58,496.78 			"/>
			<polygon style="fill:#D083C8;" points="77.55,506.82 133.57,474.47 174.59,498.15 118.56,530.5 			"/>
		</g>
		<g id="Axonometric_Cube">
			<polygon id="Cube_face_-_top_38_" style="fill:#FFF9ED;" points="61.7,264.02 52.33,258.61 61.7,253.2 71.08,258.61 			"/>
			<polygon id="Cube_face_-_left_39_" style="fill:#C3BEB1;" points="61.7,470.17 52.33,464.76 52.33,258.61 61.7,264.02 			"/>
			<polygon id="Cube_face_-_right_38_" style="fill:#ECE5D9;" points="71.08,464.76 61.7,470.17 61.7,264.02 71.08,258.61 			"/>
		</g>
		<g id="Axonometric_Cube_7_">
			<polygon id="Cube_face_-_top_41_" style="fill:#FFF9ED;" points="61.7,255.9 49.07,248.61 61.7,241.31 74.34,248.61 			"/>
			<polygon id="Cube_face_-_left_42_" style="fill:#C3BEB1;" points="61.7,271.88 49.07,264.59 49.07,248.61 61.7,255.9 			"/>
			<polygon id="Cube_face_-_right_41_" style="fill:#ECE5D9;" points="74.34,264.59 61.7,271.88 61.7,255.9 74.34,248.61 			"/>
		</g>
		<g id="Axonometric_Cube_6_">
			<polygon id="Cube_face_-_top_40_" style="fill:#ECE5D9;" points="116.98,287.49 121.9,284.65 121.9,290.33 116.98,293.17 			"/>
			<polygon id="Cube_face_-_left_41_" style="fill:#FFF9ED;" points="65.88,257.99 70.8,255.15 121.9,284.65 116.98,287.49 			"/>
			<polygon id="Cube_face_-_right_40_" style="fill:#C3BEB1;" points="65.88,263.67 65.88,257.99 116.98,287.49 116.98,293.17 			
				"/>
		</g>
		<path style="fill:#B8DFFB;" d="M178.33,374.03c-0.02-0.18-0.04-0.37-0.08-0.58c-0.43-2.64-1.57-5.11-3.15-7.27
			c-7.2-9.81-32.15-44-35.18-51.63l-0.03-11.34l-25.2-0.19l0.01,11.46c-3.15,7.79-29.44,43.28-35.94,51.99
			c-1.19,1.6-2.11,3.41-2.52,5.36c-0.13,0.62-0.22,1.21-0.28,1.8c-1.92,13.04,8.33,21.7,15.19,25.93
			c12.8,7.88,43.36,15.06,70.9,0.73C169.32,396.15,180.21,387.54,178.33,374.03z"/>
		<g>
			<path style="fill:#A061EE;" d="M146.68,331c10.75,6.21,10.75,16.27,0,22.48c-10.75,6.21-28.19,6.21-38.94,0
				c-10.75-6.21-10.75-16.27,0-22.48C118.5,324.79,135.93,324.79,146.68,331z"/>
			<path style="fill:#854ACD;" d="M177.47,375.65c-0.04-0.53-0.09-1.03-0.16-1.53c-0.02-0.17-0.04-0.36-0.07-0.56
				c-0.42-2.55-1.49-4.94-2.99-7.05c-1.51-2.13-3.77-5.32-6.07-8.49c-4.37-6.02-9.65-13.31-14.54-20.24
				c3.46,6.86-1.23,14.79-14.08,18.72c-8.03,2.45-16.69,2.45-24.72-0.01c-12.89-3.94-17.56-11.93-14.01-18.8
				c-4.92,6.87-10.21,14.08-14.59,20.05c-2.65,3.6-5.06,6.89-6.53,8.94c-1.09,1.53-1.93,3.22-2.4,5.04
				c-0.03,0.13-0.06,0.24-0.08,0.35c-0.11,0.56-0.2,1.11-0.26,1.71c-1.86,12.64,8.42,21.03,14.72,24.91
				c6.9,4.25,19.93,8.79,35.81,8.79c12.29,0,23.76-2.72,34.05-8.08C167.96,395.75,178.28,387.91,177.47,375.65z"/>
			<path style="fill:#7241B5;" d="M155.18,369.02c-15.06-8.59-39.83-8.82-55.33-0.53c-15.49,8.29-15.85,21.97-0.79,30.56
				c15.06,8.59,39.83,8.82,55.33,0.53S170.24,377.6,155.18,369.02z"/>
			<path style="opacity:0.7;fill:#DBF7FE;" d="M137.21,315.74c-0.03-0.04-0.04-0.09-0.04-0.14l-0.23-34.39
				c-1.24,0.58-2.52,1.06-3.83,1.38l0.2,34.98l4.57,90.27c7.98-1.05,16.2-3.38,24.17-7.53c6.39-3.65,15.58-10.77,16.41-21.64
				L137.21,315.74z"/>
		</g>
		<path style="fill:#C3BEB1;" d="M127.55,307.03c-5.78,0-10.82-1.61-13.48-4.3c-1.41-1.43-2.12-3.11-2.09-4.99c0,0,0-11.38,0-11.39
			c0.01-0.55,0.46-0.99,1-0.99c0.56,0,1,0.45,1,1c0,0.03,0,0.13,0,0.15c0.06,4.67,6.87,7.11,13.56,7.11
			c6.22,0,12.94-2.16,13.01-6.89c0.01-0.55,0.46-0.99,1-0.99c0.56,0,1,0.45,1,1v11.39C142.49,304.26,134.72,307.03,127.55,307.03
			L127.55,307.03z"/>
		<path style="fill:#FFF9ED;" d="M138.17,280.26c-5.99-3.46-15.7-3.46-21.69,0c-5.99,3.46-5.99,9.06,0,12.52
			c5.99,3.46,15.7,3.46,21.69,0C144.16,289.32,144.16,283.71,138.17,280.26z"/>
		<g>
			<path style="fill:#B8DFFB;" d="M114.68,285.82c-0.03,9.44,25.09,9.77,25.22,0.29l0-7.57c2.01-2.77,1.11-7.56-2.74-9.86
				c-5.15-3.08-13.61-3.16-18.9-0.19c-3.54,1.99-4.7,6.3-3.58,8.89L114.68,285.82z"/>
			<path style="fill:#DBF7FE;" d="M136.51,265c-4.79-2.88-12.71-2.96-17.71-0.18c-4.99,2.78-5.15,7.37-0.37,10.26
				c4.79,2.88,12.71,2.96,17.71,0.18C141.13,272.47,141.3,267.88,136.51,265z M134.71,274.4c-4.17,2.32-10.79,2.26-14.79-0.15
				c-4-2.41-3.86-6.24,0.31-8.56c4.17-2.32,10.79-2.26,14.78,0.15C139.02,268.24,138.88,272.07,134.71,274.4z"/>
			<path style="fill:#B8DFFB;" d="M137.86,264.89c-4.16-2.46-10.07-3.25-15.44-2.04c-10.56,2.38-13.49,11.51-5.32,16.57
				c3.91,2.42,10.11,3.24,15.44,2.04C143.28,279.04,146.11,270.21,137.86,264.89z M136.14,275.26c-4.99,2.78-12.92,2.7-17.71-0.18
				c-4.79-2.88-4.62-7.47,0.37-10.26c4.99-2.78,12.92-2.7,17.71,0.18C141.3,267.88,141.13,272.47,136.14,275.26z"/>
			<path style="opacity:0.7;fill:#DBF7FE;" d="M139.22,274.97c-0.16-0.09-0.37,0.01-1.68,0.66c-1.85,0.92-3.16,1.31-3.65,1.46
				c-1.72,0.52-3.19,0.75-4.44,0.92c-1.07,0.15-2.17,0.09-3.23,0.38c-0.18,0.05-0.49,0.06-0.59,0.22c-0.03,0.05-0.04,0.14-0.01,0.19
				c0.29,0.49,3.95,1.32,7.86,0.29c3.57-0.94,5.83-3.08,5.82-3.89C139.31,275.13,139.28,275,139.22,274.97z"/>
		</g>
		<path style="fill:#B8DFFB;" d="M134.71,274.4c-4.17,2.32-10.79,2.26-14.79-0.15c-4-2.41-3.86-6.24,0.31-8.56
			c4.17-2.32,10.79-2.26,14.78,0.15C139.02,268.24,138.88,272.07,134.71,274.4z"/>
		<path style="opacity:0.7;fill:#DBF7FE;" d="M136.94,281.2c-1.24,0.58-2.52,1.06-3.83,1.38l0.06,9.77
			c1.45-0.38,2.76-0.92,3.83-1.62L136.94,281.2z"/>
	</g>
</g>
</svg>
