<?xml version="1.0" encoding="utf-8"?>
<!-- Generator: Adobe Illustrator 26.3.1, SVG Export Plug-In . SVG Version: 6.00 Build 0)  -->
<svg version="1.1" id="Layer_1" xmlns="http://www.w3.org/2000/svg" xmlns:xlink="http://www.w3.org/1999/xlink" x="0px" y="0px"
	 viewBox="0 0 430.6 330.5" style="enable-background:new 0 0 430.6 330.5;" xml:space="preserve">
<style type="text/css">
	.st0{fill:none;stroke:#1A2E35;stroke-linecap:round;stroke-linejoin:round;stroke-miterlimit:10;}
	.st1{fill:#E5E7E7;}
	.st2{fill:#000A5D;}
	.st3{fill:#0B5CA3;}
	.st4{fill:#F78D1F;}
	.st5{fill:#FFFFFB;}
	.st6{fill:none;}
	.st7{fill:#FFFFFF;stroke:#1A2E35;stroke-linecap:round;stroke-linejoin:round;stroke-miterlimit:10;}
	.st8{fill:#0B5CA3;stroke:#1A2E35;stroke-linecap:round;stroke-linejoin:round;stroke-miterlimit:10;}
	.st9{fill:#1A2E35;}
	
		.st10{opacity:0.3;clip-path:url(#SVGID_00000088094361376876518540000014767025949276062863_);fill:#FFFFFF;stroke:#1A2E35;stroke-linecap:round;stroke-linejoin:round;stroke-miterlimit:10;enable-background:new    ;}
	
		.st11{clip-path:url(#SVGID_00000175314830531446249740000017072060773594814093_);fill:none;stroke:#1A2E35;stroke-linecap:round;stroke-linejoin:round;stroke-miterlimit:10;}
	
		.st12{clip-path:url(#SVGID_00000154391012635354260050000016755180077415095425_);fill:none;stroke:#1A2E35;stroke-linecap:round;stroke-linejoin:round;stroke-miterlimit:10;}
	.st13{fill:#1A2E35;stroke:#1A2E35;stroke-linecap:round;stroke-linejoin:round;stroke-miterlimit:10;}
	.st14{fill:#FFB27D;}
	.st15{fill:#ED975D;}
	.st16{fill:#2C3A64;}
	.st17{fill:#2B478B;}
	.st18{fill:#233862;}
	.st19{fill:#B51521;enable-background:new    ;}
	.st20{fill:#DF2B30;enable-background:new    ;}
</style>
<g>
	<g>
		<polygon class="st0" points="176.2,32.3 108.8,111.2 108.8,203.1 176.2,274.4 277.3,274.4 350.1,203.9 350.1,102 277.3,32.3 		"/>
		<polygon class="st0" points="112,107.5 277.3,274.4 229.4,5.8 176.2,274.4 350.1,104.3 86.1,156.4 350.1,203.9 176.2,32.3 
			229.4,305 277.3,32.3 108.8,203.1 368.9,155.4 		"/>
	</g>
	<g>
		<path class="st1" d="M182.1,86.4c-1.7,4.8-6.8,15.6-18.8,21.2c-2,0.9-3.2,2.9-3.2,5c0.2,19.2,0.4,54.8,18.1,83.2
			c9.5,15.3,15.5,26.9,46,43.9c1.6,0.9,3.6,0.9,5.2,0.1c14.8-7.6,40.9-23.3,53.9-60.6c0-0.1,0.1-0.3,0.1-0.4
			c6.6-24.4,8.6-30.7,11.4-65.9c0.2-2.2-1-4.4-3-5.4c-6.4-3.2-18.4-10.9-20.4-21.1c-0.4-2.1-1.9-3.8-4-4.4C253,78.1,219,71,185.4,83
			C183.9,83.6,182.6,84.8,182.1,86.4z"/>
		<path class="st2" d="M189.5,91.3c0,0-3.7,16.3-19.3,21.9c0.3,15.9-0.7,49.8,15.5,76.5c8.3,13.8,13.5,24.2,41.3,39.9
			c12-6.3,36.4-19.7,48.1-54.8c5.9-22.4,7.5-27.5,10-61.7c-3.3-1.2-20.8-10.2-20.4-22.8C254.8,87.4,221.6,78.4,189.5,91.3z"/>
		<path class="st3" d="M191.1,94.1c0,0-3.6,16-18.5,21.5c0.3,15.6-0.6,48.8,14.8,74.9c7.9,13.5,12.9,23.7,39.6,39.1
			c11.5-6.1,34.8-19.3,46.1-53.6c5.6-22,7.2-26.9,9.6-60.4c-3.2-1.1-19.9-10-19.5-22.3C253.7,90.3,221.9,81.5,191.1,94.1z"/>
	</g>
	<g>
		<g>
			<rect x="165" y="24.3" class="st4" width="26.8" height="26.8"/>
			<rect x="214.3" y="0" class="st4" width="26.8" height="26.8"/>
			<rect x="263.6" y="24.3" class="st4" width="26.8" height="26.8"/>
			<rect x="334.4" y="94.7" class="st4" width="26.8" height="26.8"/>
			<rect x="359.6" y="146.1" class="st4" width="26.8" height="26.8"/>
			<rect x="334.4" y="195.5" class="st4" width="26.8" height="26.8"/>
			<rect x="264.6" y="266.6" class="st4" width="26.8" height="26.8"/>
			<rect x="214.3" y="289.4" class="st4" width="26.8" height="26.8"/>
			<rect x="163.9" y="266.6" class="st4" width="26.8" height="26.8"/>
			<rect x="93.1" y="195.5" class="st4" width="26.8" height="26.8"/>
			<rect x="69.6" y="146.1" class="st4" width="26.8" height="26.8"/>
			<rect x="93.1" y="94.7" class="st4" width="26.8" height="26.8"/>
		</g>
	</g>
	<polygon class="st5" points="210.3,139.5 199.2,155.1 228.5,175.5 256,137.4 240.5,126.9 224,150 	"/>
	<line class="st6" x1="90.4" y1="95.4" x2="109.7" y2="95.4"/>
	<g>
		<g>
			<g>
				<g>
					<path class="st7" d="M337.4,128.6c0,0-8.7-7.5-9.8-7.8c-1.2-0.3-8.4,0.9-9.2,1.2s0.9,7.2,0.9,7.2s-1.5,0.9-0.9,2.9
						c0.6,2,4.6,0.3,4.6,0.3s2.9,2.9,5.8,3.2c2.9,0.3,7.8-0.3,7.8-0.3L337.4,128.6z"/>
					<path class="st0" d="M319.1,129.2c0,0,2.6,1.2,6.9-3.5"/>
					<path class="st0" d="M320,124.2c0,0,0.4,3.6,3.6,3.6"/>
				</g>
				<path class="st7" d="M343.7,128l-7.8-2.3c0,0-0.9-0.6-0.9,2.3c0,2.9-1.5,4.9,0,8.4l8.4,2L343.7,128z"/>
				<path class="st8" d="M371.8,128.8c0,0-27.5-2.5-28.1-0.8c-0.6,1.7-4.3,8.1-2.9,11.3c1.5,3.2,30.1,8.7,30.1,8.7L371.8,128.8z"/>
			</g>
			<g>
				<path class="st8" d="M381.9,313.7c0,0-21.4,8.1-21.4,9.8c0,1.7,4.6,2,14.5,1.2c9.8-0.9,16.2-0.6,18.8-1.7c2.6-1.2,1.2-7.5,1.2-9
					S381.9,313.7,381.9,313.7z"/>
				<path class="st0" d="M360.5,323.5c0,0,5.3-0.6,12.5-0.6s16.4-1.4,16.4-1.4"/>
			</g>
			<g>
				<path class="st8" d="M395.8,318c0,0-15.9,9.2-14.2,11.8c1.7,2.6,28.3-2.9,28.9-11C411.1,310.8,395.8,318,395.8,318z"/>
				<path class="st0" d="M382,328.8c0,0,4.7,1.4,12.3-1.4s11.7-4.9,11.7-4.9"/>
			</g>
			<g>
				<g>
					<g>
						<path id="XMLID_2_" class="st9" d="M368.6,153.7c0,0-1.7,24-0.3,44.6c1.5,20.5,1.7,41,4.9,54.3c3.2,13.3,6.4,50.9,6.4,53.2
							c0,2.3-2.9,2.9-2,5.2s2,4,2,4s3.8,1.2,7.2,1.7c3.5,0.6,6.9,0.6,6.9,0.6l-0.3,2.3c0,0,5.8,0.3,9.8,1.7c4,1.5,7.8,1.7,7.8,1.7
							s4.6-5.5,4.6-8.7s-0.6-8.7,0-13s1.5-44.3,1.5-55.3c0-11,1.2-54.6,1.5-60.4c0.3-5.8,1.2-20,0.9-26.1s-14.2,1.5-30.9-3.5
							C371.8,151.4,368.6,153.7,368.6,153.7z"/>
					</g>
					<g>
						<defs>
							<path id="SVGID_1_" d="M368.6,153.7c0,0-1.7,24-0.3,44.6c1.5,20.5,1.7,41,4.9,54.3c3.2,13.3,6.4,50.9,6.4,53.2
								c0,2.3-2.9,2.9-2,5.2s2,4,2,4s3.8,1.2,7.2,1.7c3.5,0.6,6.9,0.6,6.9,0.6l-0.3,2.3c0,0,5.8,0.3,9.8,1.7c4,1.5,7.8,1.7,7.8,1.7
								s4.6-5.5,4.6-8.7s-0.6-8.7,0-13s1.5-44.3,1.5-55.3c0-11,1.2-54.6,1.5-60.4c0.3-5.8,1.2-20,0.9-26.1s-14.2,1.5-30.9-3.5
								C371.8,151.4,368.6,153.7,368.6,153.7z"/>
						</defs>
						<clipPath id="SVGID_00000127003940648410449290000012718692523170914471_">
							<use xlink:href="#SVGID_1_"  style="overflow:visible;"/>
						</clipPath>
						
							<path style="opacity:0.3;clip-path:url(#SVGID_00000127003940648410449290000012718692523170914471_);fill:#FFFFFF;stroke:#1A2E35;stroke-linecap:round;stroke-linejoin:round;stroke-miterlimit:10;enable-background:new    ;" d="
							M368.6,153.7c0,0-1.7,24-0.3,44.6c1.5,20.5,1.7,41,4.9,54.3c3.2,13.3,6.4,50.9,6.4,53.2c0,2.3-2.9,2.9-2,5.2s2,4,2,4
							s3.8,1.2,7.2,1.7c3.5,0.6,6.9,0.6,6.9,0.6l-0.3,2.3c0,0,5.8,0.3,9.8,1.7c4,1.5,7.8,1.7,7.8,1.7s4.6-5.5,4.6-8.7s-0.6-8.7,0-13
							s1.5-44.3,1.5-55.3c0-11,1.2-54.6,1.5-60.4c0.3-5.8,1.2-20,0.9-26.1s-14.2,1.5-30.9-3.5C371.8,151.4,368.6,153.7,368.6,153.7z
							"/>
					</g>
					<g>
						<defs>
							<path id="SVGID_00000170270167543006423350000013549433430155420561_" d="M368.6,153.7c0,0-1.7,24-0.3,44.6
								c1.5,20.5,1.7,41,4.9,54.3c3.2,13.3,6.4,50.9,6.4,53.2c0,2.3-2.9,2.9-2,5.2s2,4,2,4s3.8,1.2,7.2,1.7c3.5,0.6,6.9,0.6,6.9,0.6
								l-0.3,2.3c0,0,5.8,0.3,9.8,1.7c4,1.5,7.8,1.7,7.8,1.7s4.6-5.5,4.6-8.7s-0.6-8.7,0-13s1.5-44.3,1.5-55.3
								c0-11,1.2-54.6,1.5-60.4c0.3-5.8,1.2-20,0.9-26.1s-14.2,1.5-30.9-3.5C371.8,151.4,368.6,153.7,368.6,153.7z"/>
						</defs>
						<clipPath id="SVGID_00000168094037444313670140000014213096607518991289_">
							<use xlink:href="#SVGID_00000170270167543006423350000013549433430155420561_"  style="overflow:visible;"/>
						</clipPath>
						
							<path style="clip-path:url(#SVGID_00000168094037444313670140000014213096607518991289_);fill:none;stroke:#1A2E35;stroke-linecap:round;stroke-linejoin:round;stroke-miterlimit:10;" d="
							M414.5,187.3c0.3,10.2,0.8,25.1,0.6,31.1c-0.3,9.4-3.1,64.4-2.2,73.8c0.9,9.4-1.3,17.3-0.9,20.4c0.3,3.1,0.3,6.3-0.3,7.8"/>
					</g>
					<g>
						<defs>
							<path id="SVGID_00000039095594721662858460000000587456117047047615_" d="M368.6,153.7c0,0-1.7,24-0.3,44.6
								c1.5,20.5,1.7,41,4.9,54.3c3.2,13.3,6.4,50.9,6.4,53.2c0,2.3-2.9,2.9-2,5.2s2,4,2,4s3.8,1.2,7.2,1.7c3.5,0.6,6.9,0.6,6.9,0.6
								l-0.3,2.3c0,0,5.8,0.3,9.8,1.7c4,1.5,7.8,1.7,7.8,1.7s4.6-5.5,4.6-8.7s-0.6-8.7,0-13s1.5-44.3,1.5-55.3
								c0-11,1.2-54.6,1.5-60.4c0.3-5.8,1.2-20,0.9-26.1s-14.2,1.5-30.9-3.5C371.8,151.4,368.6,153.7,368.6,153.7z"/>
						</defs>
						<clipPath id="SVGID_00000167381345088560808070000004654153470713345964_">
							<use xlink:href="#SVGID_00000039095594721662858460000000587456117047047615_"  style="overflow:visible;"/>
						</clipPath>
						
							<path style="clip-path:url(#SVGID_00000167381345088560808070000004654153470713345964_);fill:none;stroke:#1A2E35;stroke-linecap:round;stroke-linejoin:round;stroke-miterlimit:10;" d="
							M414.1,176.9c0,0,0.1,1.7,0.2,4.4"/>
					</g>
					<g>
						<path id="XMLID_00000102512814206360571850000005407777690987480751_" class="st0" d="M368.6,153.7c0,0-1.7,24-0.3,44.6
							c1.5,20.5,1.7,41,4.9,54.3c3.2,13.3,6.4,50.9,6.4,53.2c0,2.3-2.9,2.9-2,5.2s2,4,2,4s3.8,1.2,7.2,1.7c3.5,0.6,6.9,0.6,6.9,0.6
							l-0.3,2.3c0,0,5.8,0.3,9.8,1.7c4,1.5,7.8,1.7,7.8,1.7s4.6-5.5,4.6-8.7s-0.6-8.7,0-13s1.5-44.3,1.5-55.3
							c0-11,1.2-54.6,1.5-60.4c0.3-5.8,1.2-20,0.9-26.1s-14.2,1.5-30.9-3.5C371.8,151.4,368.6,153.7,368.6,153.7z"/>
					</g>
				</g>
				<g>
					<polyline class="st0" points="379.3,180.7 379.3,194.7 381.8,197.9 					"/>
					<polyline class="st0" points="383.8,181.1 383.8,195.1 384,195.3 					"/>
					<path class="st0" d="M387.3,213.9c1.2,7.8,3,21,4.4,38.5c2.3,29.2,4.6,52.1,4.6,54.4s-3.2,8.4-2.6,10.7"/>
					<path class="st0" d="M384.7,198.9c0,0,1.5,8.2,1.9,10.7"/>
				</g>
			</g>
			<path class="st7" d="M419.5,168.8c-0.3-6.1-14.2,1.5-30.9-3.5c-16.8-4.9-20-2.6-20-2.6s-0.3,2.6-0.5,7.1
				c2.1,1.8,6.6,4.4,16.2,5.9c15.1,2.4,24.1,4.6,35.3-5.4C419.5,169.9,419.5,169.3,419.5,168.8z"/>
			<path class="st8" d="M392.7,90.1c0,0-12.3,2.3-15.7,7.2s-8.4,58.4-9.5,63.7c-1.2,5.2,6.4,7.2,10.7,9.2s17.6,5.2,26.9,4.3
				c9.2-0.9,15.9-2.6,17.1-6.6s3.5-60.2,2.9-65.7c-0.6-5.5-17.3-19.4-20.5-20.2C401.3,81.1,392.7,90.1,392.7,90.1z"/>
			<path class="st0" d="M390.2,97.2c0,0-2.6,7.1-4.2,18.1s-6.8,54.3-6.8,54.3l1.3,1.6"/>
			<polygon class="st7" points="385.1,88.7 383.9,96.8 389.2,92.3 			"/>
			<polygon class="st7" points="389.6,86 388.8,86.4 385.1,88.7 390.2,97.2 398.2,85.4 			"/>
			<g>
				<g>
					<path class="st7" d="M373.3,52.3c0,0-3.1,1.9-2.7,4.4c0.4,2.5,1.5,12.5,0.9,13.6c-0.6,1.1-2.7,3.1-1.3,4.3
						c1.5,1.2,3.1,1.8,3.1,1.8s2.2,8.2,3.7,9.4s4.6,1.7,5.6,2c1,0.2,6,2.7,6,2.7l2,7l15.5-13.9l-5.6-10c0,0,6.6-8.5,3.9-20
						c-2.7-11.5-11.5-13.4-22.8-12.7S368.2,47.4,373.3,52.3z"/>
					<path class="st0" d="M392.3,64.6c0,0-2.2-0.9-2.9,0.1c-0.7,1-1.4,3.1-1.4,3.1s3.3-0.5,2,1.5c-1.2,2-1.2,2-1.2,2"/>
				</g>
				<path class="st13" d="M381.6,40.6c-11.2,0.7-15.7,9.1-10.7,14c0,0,8.1-5.5,7.3-0.7s-2.7,5.4,1.7,6.4c4.4,1,3.7-0.8,4,1.5
					c0.3,2.3-2,4.9,0.6,4.8c2.6-0.1,1.9-5.2,4.1-5.9c2.2-0.7,6.9,0.8,5.9,7.2c-1,6.4-4.4,7.1-4.4,7.1s1,1.5,10.6-1.2l-0.3-0.5
					c0,0,6.6-8.5,3.9-20C401.7,41.8,392.8,39.9,381.6,40.6z"/>
			</g>
			<polygon class="st7" points="391.6,93.6 397.2,102.2 409.5,81.5 405.2,76.4 			"/>
			<path class="st13" d="M348.5,118.3l16.2,33.9c0.3,0.6,0.9,1,1.5,1l28.2,1.5c1.3,0.1,2.2-1.2,1.7-2.4l-13.5-32.8
				c-0.2-0.6-0.8-1-1.5-1.1l-30.8-2.5C348.9,115.7,347.9,117.1,348.5,118.3z"/>
			<polygon class="st0" points="377,170.2 376.1,173.4 384.2,175.7 383.9,172.3 			"/>
			<g>
				<g>
					<path class="st7" d="M382.9,145.3c0,0-3-5-4.9-7.8c-1.9-2.8-5-6.5-6.2-8.7c-1.2-2.2-2.6-0.2-2.1,1.6c0.5,1.9,2.8,5.6,2.8,6.3
						s-0.2,0.7-1.9,0s-8.8-3.1-10.2-4c-1.4-0.8-3.1-1.2-3.4,0c-0.2,1.2,1.2,1.5,2.2,2.3c1,0.8,2.6,2.4,2.6,2.4s-2.6-1.2-3-0.9
						c-0.5,0.2-0.2,1.4,1,2.2c1.3,0.8,1.8,2.1,1.8,2.1s1.8,1.8,4.8,3.8c3,2.1,7.2,4.2,11.8,5.2c4.5,1,5.6,1.3,5.6,1.3l0.3-4.2
						L382.9,145.3z"/>
					<line class="st0" x1="361.8" y1="137.5" x2="368.7" y2="141.7"/>
					<line class="st0" x1="361.3" y1="140.4" x2="367.4" y2="143.5"/>
				</g>
				<polygon class="st7" points="392.3,144.5 383,143.6 382.6,153.2 392.8,153 				"/>
				<path class="st8" d="M417.1,100.8c0,0-2.9,4-4.6,11.3c-1.7,7.2-4.3,28.3-4.3,28.3l-16.5,2.9l-0.4,11.6c0,0,32.2,4,34.5,2
					s6.1-29.8,4.3-41.9c-1.7-12.1-8.1-15-8.1-15"/>
				<path class="st0" d="M408.2,140.4c0,0,3.8-1.2,11,4.3"/>
				<path class="st0" d="M408.5,139.3c0,0,6.9-3.5,14.2-1.5"/>
			</g>
		</g>
	</g>
	<g>
		<path class="st13" d="M106.7,99.1l16.2,33.9c0.3,0.6,0.9,1,1.5,1l28.2,1.5c1.3,0.1,2.2-1.2,1.7-2.4l-13.5-32.8
			c-0.2-0.6-0.8-1-1.5-1.1l-30.8-2.5C107.1,96.4,106.1,97.8,106.7,99.1z"/>
		<path class="st14" d="M57.5,74.5c0,0,7.6,9.1,17.4,5.3c0,0,2.1-5.1,2.1-8.8c0-0.5,0-0.9,0-1.3c0.1-4.2,0.2-6.6,0.2-6.6s0,0,0,0
			c-0.4-0.2-14.9-6.1-14.9-5.6C62.6,68.8,57.5,74.5,57.5,74.5z"/>
		<path class="st15" d="M63.8,60.2c1.4,2.6,6.2,7.6,13.2,9.5c0.1-4.2,0.2-6.6,0.2-6.6s0,0,0,0C76.8,63,63.4,59.4,63.8,60.2z"/>
		<path class="st14" d="M80.3,62.7c0,0-16.2,3.8-18.4-6.3C59.6,46.2,56,39.9,66.3,37c10.3-2.9,13.1,0.6,14.7,3.8
			C82.5,44,84.4,61.4,80.3,62.7z"/>
		<path class="st13" d="M62.4,59.1c-0.2,0.1-3.7,1.2-10.3-12c-1-2.1-1.7-6.5,0.7-10.5c2.4-4,11-7.1,18.1-8.4
			c7.1-1.4,8.8,2.7,10.5,6.7c1.8,4.2,6.8,7.7,6.8,7.7c-6.1,3.4-13.5-1.5-16.1-0.7c-2.6,0.8-3.5,4.8-3.7,6.1
			c-0.2,1.3-0.5,2.4-3.7,1.2c-3.2-1.2-1.5,4.6-0.9,5.7C63.8,55,64.2,57.9,62.4,59.1z"/>
		<g>
			<path class="st16" d="M20.6,312h-9.8c-2.1,0-4.3-2.1-4.9-5.8c-0.6-3.8-4.8-5.8-5.7-8.9c-0.9-3.1,3.8-7.4,3.8-7.4l0.8-1l0.8-1.1
				l7.8,1.8c0,0,0.2,1.9,0.3,4.2c0.1,1.7,0.1,3.7,0,5.4c-0.2,4.1,1.2,8.6,4.8,9.4C22.1,309.3,20.6,312,20.6,312z"/>
			<path class="st16" d="M89,312h-26c-0.2,0-0.4-0.1-0.6-0.2c-1.7-0.9-1.2-7.5-1-9.6c0-0.4,0.1-0.6,0.1-0.6s9.2-7.3,10.4-1.7
				c0,0.2,0.1,0.3,0.1,0.5v0c1.6,5.2,8.7,7.6,12.8,8.3C88,309.2,88.8,311.1,89,312z"/>
			<path class="st17" d="M83.7,161.8c0,0-1.4,17.3-3,38.2c-2.2,28.3-4.9,63.1-5.2,69.7c-0.5,11.4-2.3,29.8-2.3,29.8s-4.3,4.4-13,2.5
				c0,0-7.8-26.1-10-53.8c0-0.5-0.1-0.9-0.1-1.4c-2.1-28.2-5.3-87.4-5.3-87.4L83.7,161.8z"/>
			<path class="st18" d="M83.7,161.8c0,0-1.4,17.3-3,38.2l-30.5,48.2c0-0.5-0.1-0.9-0.1-1.4c-2.1-28.2-5.3-87.4-5.3-87.4L83.7,161.8
				z"/>
			<path class="st17" d="M77.4,163.9c0,0-25.1,62.8-41.5,92.4C19.3,285.8,14.2,294,14.2,294s-9.4-3.8-10.3-6.4c0,0,6.3-57,17.3-70.9
				c6.2-7.9,13.6-31.4,13.9-39.7c0.3-8.2,2.2-24.6,2.2-24.6L77.4,163.9z"/>
		</g>
		<g>
			<path class="st14" d="M20.2,152.4l-0.3,4c0,0,2.7,7.2-4.8,10.9c0,0-3.2,1.3-3.3-1.2c-0.1-2.5,0.3-1.6,0-5.1
				c-0.3-3.5,1.1-6.8,3.4-7.9l1.9-2.2L20.2,152.4z"/>
			<path class="st19" d="M17.3,155.4c2.8,0.9,3.2,0.7,3.2,0.7s13.5-24.6,14.9-26.8c1.4-2.3,28.7-27.6,28.7-27.6l-7-26.2
				c0,0-31.1,40.2-34.4,46c-5.5,9.5-8.8,31.7-8.8,31.7S15.1,154.7,17.3,155.4z"/>
		</g>
		<path class="st20" d="M38.2,163.3c6.9,4.1,13.3,7.1,20.9,8.6c8.9,1.9,19.8,1.1,23.4,1.6c0.4,0,0.7-0.1,1.1-0.3
			c0.3-0.2,1.7-11.2,3.1-25.1c0-0.3,0.1-0.7,0.1-1c0-0.2,0-0.5,0-0.7l0-0.2c0.1-1.4,0.3-2.9,0.4-4.4c0.3-3.7,0.6-7.5,0.9-11.3
			c0-0.4,0.1-0.7,0.1-1.1c0.4-6.1,0.7-12.2,0.8-17.5c0-0.1,0-0.3,0-0.4c0.1-4.5,0-8.5-0.3-11.7c-0.1-0.7-0.1-1.3-0.2-1.9
			c-1.1-8.1-5-13.7-8.6-18l-3.6-4.1c-3.4,0.3-6.4,0.4-9.8-1.7c-3.6-2.3-6-4.5-6.7-4.1C54.2,73.3,48.1,81.4,45,92.4
			c-1.6,5.9-2.9,12.6-3.6,19.6c-0.3,2.7-0.5,5.4-0.7,8.2c-0.8,14.9-3.1,27.6-4.5,35c-0.4,2.1-0.7,3.8-0.9,5
			C35.2,161.3,37.3,162.8,38.2,163.3z"/>
		<path class="st19" d="M64.1,93.7c0,0,3.1,33.9,22.7,53.5c0-0.2,0-0.5,0-0.7l0-0.2c0.1-1.4,0.3-2.9,0.4-4.4
			c0.3-3.7,0.6-7.5,0.9-11.3c0-0.4,0.1-0.7,0.1-1.1c0.4-6.1,0.7-12.2,0.8-17.5c0-0.1,0-0.3,0-0.4c0-3.2-0.1-6.1-0.3-8.7
			C82.5,97.8,74.3,94.3,64.1,93.7z"/>
		<path class="st14" d="M139.2,115.3c0-1.6,4.2-5.2,4.4-4.8c0.2,0.3-0.2,2-0.5,2.7c1.7-1.2,2.1-5.2,5-7c0.8-0.5,3.7,7.4,1,10.2
			c-2.7,2.9-4,2.5-8.5,5.2l-3.3,0.2l-1.6-5.1C135.7,116.7,137.4,116.1,139.2,115.3z"/>
		<path class="st20" d="M140.9,119.4c0.2-3.1-3.9-4.9-3.9-4.9s-31.1,3.2-33.7,2.4c-2.7-0.8-22.6-29.5-22.6-29.5s-8.8-9.9-15.9-7.7
			c-6.2,1.9-8.7,6.8-9.5,11.4c-1,5.5,1.6,11.1,6.3,14c10.7,6.6,29.5,24.7,34.5,26.2c11.3,3.3,43.4-7.5,43.4-7.5
			S140.7,121.9,140.9,119.4z"/>
	</g>
</g>
</svg>
