<?xml version="1.0" encoding="utf-8"?>
<!-- Generator: Adobe Illustrator 26.2.1, SVG Export Plug-In . SVG Version: 6.00 Build 0)  -->
<svg version="1.1" id="Layer_1" xmlns="http://www.w3.org/2000/svg" xmlns:xlink="http://www.w3.org/1999/xlink" x="0px" y="0px"
	 viewBox="0 0 590.57 364.85" style="enable-background:new 0 0 590.57 364.85;" xml:space="preserve">
<g>
	<g>
		<path style="opacity:0.5;fill:#9EC8FF;" d="M489.74,49.08c0.19-1.66,0.28-3.34,0.28-5.05c0-0.9-0.03-1.79-0.08-2.68l-8.34-2.7
			c-0.51-3.51-1.52-6.87-2.95-9.99l5.53-6.8c-1.28-2.25-2.74-4.38-4.38-6.37l-8.34,2.72c-2.43-2.48-5.21-4.62-8.25-6.34l0.47-8.76
			c-2.33-1.06-4.76-1.93-7.28-2.58l-5.15,7.11c-2.01-0.34-4.07-0.52-6.17-0.52c-1.43,0-2.85,0.08-4.24,0.24L436.08,0
			c-2.55,0.52-5.03,1.26-7.41,2.19l0.01,8.77c-3.14,1.56-6.03,3.55-8.58,5.9l-8.18-3.16c-1.74,1.9-3.32,3.95-4.71,6.13l5.16,7.09
			c-1.6,3.05-2.78,6.34-3.48,9.82l-8.47,2.25c-0.19,1.66-0.28,3.34-0.28,5.05c0,0.9,0.03,1.79,0.08,2.68l8.34,2.7
			c0.51,3.51,1.52,6.87,2.95,9.99l-5.53,6.8c1.28,2.25,2.74,4.38,4.38,6.37l8.34-2.72c2.43,2.48,5.21,4.62,8.25,6.34l-0.47,8.76
			c2.33,1.06,4.76,1.93,7.28,2.58l5.15-7.11c2.01,0.34,4.07,0.52,6.17,0.52c1.43,0,2.85-0.08,4.24-0.24l4.77,7.37
			c2.55-0.52,5.03-1.26,7.41-2.19l-0.01-8.77c3.14-1.56,6.03-3.55,8.58-5.9l8.18,3.16c1.74-1.9,3.32-3.95,4.71-6.13l-5.16-7.09
			c1.6-3.05,2.78-6.34,3.48-9.82L489.74,49.08z M445.08,61.66c-9.73,0-17.63-7.89-17.63-17.63c0-9.73,7.89-17.63,17.63-17.63
			c9.73,0,17.63,7.89,17.63,17.63C462.71,53.77,454.82,61.66,445.08,61.66z"/>
		<g>
			<path style="fill:#FFFFFF;" d="M469.12,64.39c-0.2,0-0.41-0.07-0.58-0.21c-0.39-0.32-0.44-0.89-0.12-1.28
				c4.39-5.28,6.81-11.98,6.81-18.86c0-3.3-0.54-6.53-1.6-9.62c-0.16-0.47,0.09-0.99,0.56-1.15c0.47-0.16,0.99,0.09,1.15,0.56
				c1.13,3.28,1.7,6.71,1.7,10.21c0,7.31-2.57,14.42-7.23,20.02C469.64,64.28,469.38,64.39,469.12,64.39z"/>
		</g>
		<g>
			<path style="fill:#FFFFFF;" d="M466.57,22.79c-0.22,0-0.45-0.08-0.62-0.25c-2.95-2.78-6.37-4.89-10.16-6.26
				c-0.47-0.17-0.71-0.69-0.54-1.16c0.17-0.47,0.69-0.71,1.16-0.54c4.03,1.46,7.65,3.7,10.79,6.65c0.37,0.34,0.38,0.92,0.04,1.28
				C467.05,22.69,466.81,22.79,466.57,22.79z"/>
		</g>
		<g>
			<path style="fill:#FFFFFF;" d="M438.24,15.44c-0.41,0-0.78-0.27-0.88-0.69c-0.12-0.49,0.17-0.98,0.66-1.1
				c2.5-0.63,5.09-0.95,7.69-0.95c0.5,0,0.91,0.41,0.91,0.91c0,0.5-0.41,0.91-0.91,0.91c-2.45,0-4.89,0.3-7.25,0.9
				C438.39,15.43,438.32,15.44,438.24,15.44z"/>
		</g>
	</g>
	<rect x="137.04" y="0.13" style="opacity:0.5;fill:#9EC8FF;" width="280.86" height="168.7"/>
	<rect x="150.72" y="4.25" style="fill:#FFFFFF;" width="264.24" height="154.87"/>
	<g>
		<path style="fill:#303C60;" d="M376.04,84.28c12.59-11.99,34.11-11.71,33.66,6.54s1.05,19.97,6.24,29.54
			c17.98,33.22-21.43,31.27-37.87,32.36c-16.44,1.09-15.07-29.88-12.17-47.04S372.36,87.79,376.04,84.28z"/>
		<path style="fill:#4476BD;" d="M381.91,188.94c-4.04,33.9-11.37,58.96-12.19,75.04c-0.82,16.07-4.09,79.35-4.09,79.35
			s8.99-0.63,9.81-1.99s16.89-37.05,16.07-59.11c-0.82-22.07,16.05-55.62,16.05-55.62l-4.07-32.92L381.91,188.94z"/>
		<path style="fill:#3E6BAB;" d="M385.79,203.69l-6.31,2.64c-1.72,10.75-3.62,20.42-5.29,28.99c10.05,6.5,15.24,28.14,17.46,41.37
			c1.13-14.8,8.12-32.69,12.45-42.59L385.79,203.69z"/>
		<path style="fill:#4476BD;" d="M414.94,185.52c0,0,13.61,17.36,13.18,37.05c-0.65,29.98-3.92,38.53,1.77,69.96
			c2.22,12.28-4.9,52.43-4.9,52.43s-6.09,0.48-9.36-1.15c0.27-2.95-3.93-50.95-12.12-73.01c-3.97-10.68-9.54-40.61-12.54-57.77
			c-3-17.16-3.54-20.7-2.45-20.7S414.94,185.52,414.94,185.52z"/>
		<path style="fill:#F09959;" d="M337.42,137.31c0,0,0.61-8.98-0.36-11.76c-0.97-2.77-9.32-5.2-9.32-5.2s-0.36,12.83,0.48,14.41
			s5.81,6.05,5.81,6.05L337.42,137.31z"/>
		<path style="fill:#A2DFF2;" d="M384.4,130.77c-19.13,20.59-25.37,29.25-26.82,29.25c-4.54-8.01-19.62-24.97-19.62-24.97
			l-6.43,4.13c0,0,14.86,38.82,24.3,39.23c9.44,0.4,28.64-13.39,28.88-14.97C384.95,161.86,384.4,130.77,384.4,130.77z"/>
		<path style="fill:#96CFE0;" d="M364.45,176.4c9.36-3.81,20.08-11.78,20.26-12.96c0.24-1.58-0.31-32.67-0.31-32.67
			c-4.17,4.49-7.81,8.47-10.97,11.95C370,155.48,370.22,169.38,364.45,176.4z"/>
		<path style="fill:#A2DFF2;" d="M403.83,117.22c0,0,18.3,9.18,22.3,25.42s-7.83,36.31-9.28,47.02
			c-1.45,10.71-34.87,12.59-34.87,1.13c0-10.99-8.37-34.31-7.9-40.26c1.11-13.94,21.49-31.02,21.49-31.02L403.83,117.22z"/>
		<path style="fill:#F09959;" d="M398.51,96.17l7.86,24.23c0,0-8.39,6.48-22.75,22.05c0.56-10.37,9.24-21.67,9.24-21.67l-5.94-22.88
			L398.51,96.17z"/>
		<path style="fill:#E38540;" d="M402.18,107.48l-3.67-11.3l-11.6,1.74l5.94,22.88c0,0-0.58,0.92-1.44,2.38
			C397.02,119.02,400.46,113.84,402.18,107.48z"/>
		<path style="fill:#F09959;" d="M394.18,101.64c-2.12,7.71-10.33,11.96-16.16,10.35c-5.83-1.6-7.08-8.45-4.96-16.16
			c2.12-7.71,8.57-12.66,14.4-11.06C393.29,86.38,396.3,93.93,394.18,101.64z"/>
		<path style="fill:#A2DFF2;" d="M380.52,179.91c2.54,16.12-6.9,50.62-6.9,50.62s5.63,1.28,22.52-0.35
			c16.89-1.63,24.34-18.49,26.88-18.96c2.54-0.47,3.85,15.69,5.1,16.96c1.25,1.28,1.44-20.4-1.83-28.93
			c-5.81-15.11-4.67-21.52-2.5-30.67C427.65,152.3,380.52,179.91,380.52,179.91z"/>
		<path style="fill:#4476BD;" d="M366.05,335.39c1.52,6.18-1.48,11.08-5.5,14.66c-3.27,2.91-13.32,4.14-12.83,5.59
			c0.48,1.45,12.35,1.91,16.35,1.31c4-0.61,5.09-2.54,10.06-2.54c3.26,0,3.87-2.65,2.41-5.93c-1.45-3.28-1.96-5.09-0.65-8.03
			C377.19,337.52,366.05,335.39,366.05,335.39z"/>
		<path style="fill:#4476BD;" d="M425.34,335.39c-0.24,6.42-0.99,11.2,0.59,14.17c6.08,5.09,11.13,10.86,9.2,11.26
			c-9.2,1.9-12.71-3.61-17.92-5.18c-6.39-1.92,0.61-9.95-1.9-20.25c-1.39-5.73,9.65-4.35,9.65-4.35L425.34,335.39z"/>
		<path style="fill:#96CFE0;" d="M427.66,204.51c-0.37-2.01-0.82-3.82-1.37-5.26c-5.81-15.11-4.67-21.52-2.5-30.67
			c0.17-0.72,0.24-1.36,0.22-1.91c0.49-1.63,0.95-3.29,1.35-4.95l-1.97-17.81l-14.22-16.89c-10.66,15.62-3.47,35.05-5.06,45.77
			c-1.6,10.72-19.46,24.38-19.46,24.38l0.58,3.8c0.8,5.22,5.63,8.84,10.86,8.11c7.36-1.02,17.02-3.07,21.31-7.06
			C421.55,198.16,425.23,201.15,427.66,204.51z"/>
		<path style="fill:#F09959;" d="M388.81,196.55c0,0-7.88,2.21-8.83,2.7c-0.94,0.49-1.46,3.1-1.46,3.1s-4.51,3.92-2.78,5.31
			c1.73,1.39,4.82,4.9,8.9,3.27c2.51-1,4.45-10.21,6.09-10.28C392.37,200.57,388.81,196.55,388.81,196.55z"/>
		<path style="fill:#A2DFF2;" d="M411.14,124.96c8.44,0.24,16.09,15.44,18.76,28.62c2.67,13.19,5.47,31.93,5.47,31.93
			s-13.98,11.04-27.8,14.26c-12.05,2.81-18.21,3.91-18.21,3.91l-2.45-6.88l28.84-16.94c0,0-10.6-19.98-11.66-35.05
			C403.04,129.75,404.73,124.78,411.14,124.96z"/>
		
			<rect x="310.07" y="119.32" transform="matrix(0.9805 -0.1967 0.1967 0.9805 -18.5444 65.5736)" style="fill:#F5DC95;" width="21.45" height="13.63"/>
		<path style="fill:#F09959;" d="M332.36,136.22c0.29-5.53-2.45-13.06-4.02-13.05c-1.57,0.01,0.48,4.94-0.36,8.21
			C327.52,133.15,332.36,136.22,332.36,136.22z"/>
		<path style="fill:#303C60;" d="M374.61,87.19c0.47,15.13,18.14,13.97,22.99,13.04c4.84-0.93-5.9,31.93,3.33,33.83
			c6.77,1.39,5.25-9.2,12.77-8.5c3.33,0.31,6.68,5.46,6.68,5.46s-0.5-3.17-3.04-5.46c-2.54-2.29-9.21-16.33-10.96-26.38
			c-1.75-10.05-13.62-16.55-17.13-16.75s-12.11,3.79-12.11,3.79L374.61,87.19z"/>
		<g>
			<path style="fill:#303C60;" d="M400.77,137.48c-0.24,0-0.48-0.03-0.73-0.08c-2.95-0.63-4.38-3.73-4.51-9.77
				c-0.1-5.17,0.75-11.81,1.66-18.84c0.37-2.84,0.74-5.78,1.06-8.62c0.03-0.24,0.24-0.42,0.49-0.39c0.24,0.03,0.42,0.25,0.39,0.49
				c-0.31,2.85-0.69,5.79-1.06,8.64c-1.75,13.6-3.41,26.44,2.16,27.62c0.17,0.04,0.35,0.05,0.52,0.05c3.19,0,6.07-6.23,7.75-12.29
				c0.06-0.24,0.31-0.37,0.54-0.31c0.24,0.07,0.37,0.31,0.31,0.54C408.23,128.54,405.26,137.48,400.77,137.48z"/>
		</g>
		<g>
			<path style="fill:#303C60;" d="M399.59,141c-1.01,0-1.88-0.39-2.61-1.16c-6.03-6.37-0.07-38.33,0.19-39.69
				c0.05-0.24,0.28-0.4,0.52-0.35c0.24,0.05,0.4,0.28,0.35,0.52c-0.06,0.33-6.13,32.87-0.42,38.92c0.66,0.7,1.45,0.98,2.41,0.86
				c3.13-0.41,4.94-4.66,6.53-8.4c1.55-3.63,3-7.07,5.59-6.98c0.24,0.01,0.44,0.21,0.43,0.46c-0.01,0.24-0.21,0.44-0.46,0.43
				c-0.02,0-0.04,0-0.06,0c-1.94,0-3.27,3.13-4.68,6.44c-1.69,3.96-3.6,8.46-7.23,8.94C399.95,140.99,399.76,141,399.59,141z"/>
		</g>
		<path style="fill:#F09959;" d="M398.25,103.14c-1.25,1.61-3.2,2.18-4.36,1.27c-1.16-0.9-1.09-2.93,0.15-4.54
			c1.25-1.61,3.2-2.18,4.36-1.27C399.56,99.5,399.5,101.53,398.25,103.14z"/>
	</g>
	<g>
		<path style="fill:#303C60;" d="M260.9,159.18c4.32,8.63,0.74,18.57-7.74,22.08c-8.54,3.53-17.89,1.53-22.2-7.1
			c-4.32-8.63-1.11-18.98,7.16-23.11C246.38,146.91,256.58,150.55,260.9,159.18z"/>
		<g>
			<path style="fill:#303C60;" d="M237.64,182.3c-0.95,0-2.83-0.34-5.22-2.45c-1.96-1.74-3.36-4.4-3.96-7.5
				c-0.75-3.91-0.26-8.41,1.45-13.37c0.08-0.23,0.33-0.35,0.56-0.27c0.23,0.08,0.35,0.33,0.27,0.56c-1.66,4.81-2.14,9.16-1.42,12.91
				c0.56,2.91,1.86,5.4,3.68,7.01c3.03,2.69,5.06,2.2,5.08,2.19c0.23-0.06,0.48,0.08,0.54,0.31c0.06,0.23-0.07,0.47-0.3,0.54
				C238.29,182.23,238.05,182.3,237.64,182.3z"/>
		</g>
		<g>
			<path style="fill:#A8CEFF;" d="M250.83,192.76c4.91,1.1,11.11,14.75,14.15,23.49c3.06,8.82,8.26,19.76,11.65,23.16
				c3.4,3.4,25.74,11.28,25.74,11.28s-55.19,0.11-54.06,0C249.44,250.58,250.83,192.76,250.83,192.76z"/>
			<path style="fill:#93BBF0;" d="M280.13,246.31c-3.02-0.43-13.92,0.97-9.28-0.97c4.64-1.94,3.99-4.42,3.99-4.42
				s-6.58,5.5-7.77,0.69c-1.02-4.15-1.42-18.8-5.3-33.49c-3.21-7.28-7.41-14.57-10.94-15.36c0,0-0.12,5.17-0.33,12.42
				c1.36,16.04,3.66,39.61,4.24,45.55c7.32,0.01,19.56,0,29.8-0.01l6.81-0.32C291.36,250.4,283.16,246.74,280.13,246.31z"/>
			<path style="fill:#A8CEFF;" d="M232.78,189.74c0,0-15.62,8.73-19.27,10.59c-3.64,1.86,10.2,56.35,13.28,58.69
				c3.08,2.34,30.19,0.4,33.27-2.54s-2.37-11.97,0.3-30.05c2.67-18.08-8.15-33.69-9.54-33.65c-1.39,0.04-10.46-3.02-10.46-3.02
				H232.78z"/>
			<path style="fill:#93BBF0;" d="M226.79,259.01c3.08,2.34,22.48,2.39,30.74-0.18c0.93-0.29,5.16-1.98,5.26-3.56
				c-1-0.19-4.95,0.29-6.56-0.08c-5.58-1.28-8.66-8.2-8.66-8.2s-3.08-1.11-9.96-4.02c-6.88-2.91-4.05-11.74-4.21-15.62
				c-0.16-3.88-6.8-16.59-19.26-26.22l-1.14,0.51C212.11,210.49,223.94,256.85,226.79,259.01z"/>
			<g>
				<path style="fill:#75A1DE;" d="M334.13,216.26h-37.62l-17.13,36.46h41.44l15.51-33.01C337.08,218.1,335.91,216.26,334.13,216.26
					z"/>
				<g>
					<path style="fill:#3E6BAB;" d="M281.62,253.24h-22.64c-1.4,0-2.54-1.14-2.54-2.54s1.14-2.54,2.54-2.54H280l14.21-30.58
						c0.59-1.27,2.1-1.83,3.38-1.23c1.27,0.59,1.83,2.1,1.23,3.38l-14.89,32.05C283.51,252.66,282.61,253.24,281.62,253.24z"/>
				</g>
			</g>
			<path style="fill:#F09959;" d="M242.36,245.45c9.82,1.83,12.24,4.09,17.59,4.95c6.07,0.98,5.35,2.32,0.84,2.32
				c-4.51,0-15.83,0.18-19.72-0.69C237.18,251.17,242.36,245.45,242.36,245.45z"/>
			<path style="fill:#A8CEFF;" d="M212.28,201.35c-7.53,24.06-18.2,51.37-16.5,51.37c1.7,0,44.92,1.75,46.62,0.29
				s1.21-7.04,0.97-7.77c-0.24-0.73-24.57-5.05-24.57-5.05s3.2-6.24,4.42-18.44C224.44,209.55,213.71,196.78,212.28,201.35z"/>
		</g>
		<path style="fill:#F09959;" d="M238.5,168.83l-6.06,22.16c0,0,10.24,15.99,13.06,14.57s-1.57-13-1.57-14.57s4.39-17.8,4.39-17.8
			L238.5,168.83z"/>
		<path style="fill:#E38540;" d="M244.13,192.11c-0.13-0.52-0.21-0.92-0.21-1.13c0-1.57,4.39-17.8,4.39-17.8l-9.82-4.35l-2.01,7.33
			C238.24,183.73,241.41,188.78,244.13,192.11z"/>
		<path style="fill:#F09959;" d="M261.18,168.46c1.15,6.42,0.39,14.96-5.31,17.13c-5.71,2.17-12.58-1.98-15.35-9.27
			c-2.77-7.29-0.39-14.96,5.31-17.13C251.54,157.02,259.8,160.78,261.18,168.46z"/>
		<path style="fill:#F09959;" d="M241.88,172.08c0.8,2.25,0.1,4.54-1.55,5.13c-1.66,0.59-3.65-0.75-4.45-3
			c-0.8-2.25-0.11-4.54,1.55-5.13C239.09,168.49,241.08,169.83,241.88,172.08z"/>
		<path style="fill:#303C60;" d="M261.25,160.39c-1.94,15.08-20.26,13.13-20.26,13.13s-3.78-4.97-5.48-2.36
			c-1.7,2.6,2.36-15.28,12.87-15.85C251.84,155.13,261.25,160.39,261.25,160.39z"/>
		<ellipse style="fill:#303C60;" cx="232.71" cy="154.02" rx="9.92" ry="9.31"/>
	</g>
	<g>
		<g>
			<polygon style="fill:#2E5B9A;" points="212.95,362.26 215.22,362.26 229.87,294.39 224.88,294.39 			"/>
			<polygon style="fill:#2E5B9A;" points="283.48,362.26 281.21,362.26 264.17,291.99 269.16,291.99 			"/>
			<g>
				<path style="fill:#2E5B9A;" d="M238.84,296.93c-9.09,0-14.84-1.63-18.52-5.21c-4.55-4.44-5.5-11.31-5.51-20.26
					c-0.01-7.05-0.18-11.64-0.56-15.35c-0.14-1.4,0.87-2.65,2.27-2.79c1.4-0.14,2.65,0.87,2.79,2.27c0.4,3.89,0.58,8.63,0.59,15.86
					c0.01,9.07,1.17,13.89,3.97,16.63c2.88,2.81,8.09,3.96,16.89,3.74c8.49-0.21,14.34-1.4,19.04-2.35
					c6.18-1.26,10.64-2.16,15.94,0.37c1.27,0.61,1.8,2.12,1.2,3.39s-2.12,1.8-3.39,1.2c-3.76-1.8-6.95-1.15-12.73,0.03
					c-4.89,0.99-10.98,2.23-19.93,2.45C240.18,296.93,239.5,296.93,238.84,296.93z"/>
			</g>
		</g>
		<path style="fill:#2E5B9A;" d="M218.19,253.01l13.91,0.58l-3.7,38.41c0,0-10.37-6.62-10.21-13.74
			C218.35,271.13,218.19,253.01,218.19,253.01z"/>
		<path style="fill:#F09959;" d="M286.86,256.59c11.76-1.78,15.76-1.22,22.96,12.17c7.2,13.4,16.78,37.52,22.29,40.63
			c8.3,4.69,11.05,16.19,14.45,15.68c3.41-0.52,5.6,0.99,1.89,4.07c-3.71,3.08-9.69,5.7-11.74,5.16c-2.05-0.55-3.63-9.39-8.98-12.26
			c-5.35-2.87-3.74-5.23-3.39-7.77c0.35-2.54-15.61-14.24-27.64-28.79c-7.35-8.89-11.14-14.76-11.7-20.07
			C284.44,260.09,286.86,256.59,286.86,256.59z"/>
		<path style="fill:#E38540;" d="M316.02,305.17c-2.73-6.93-5.47-18.37-8.05-28.85c-3.66-14.91-7.5-18.45-9.93-20.04
			c-2.94-0.74-6.42-0.4-11.18,0.32c0,0-2.42,3.5-1.85,8.82c0.56,5.32,4.35,11.18,11.7,20.07
			C303.04,293.14,310.46,300.01,316.02,305.17L316.02,305.17z"/>
		<path style="fill:#2E5B9A;" d="M290.44,268.38c0,0-3.13,23.61-6.04,26.01c-2.08,1.72-3.56,1.83-5.02-5.21
			c-1.46-7.04,2.27-33.33,2.27-33.33L290.44,268.38z"/>
		<polygon style="fill:#F09959;" points="287.95,281.16 258.98,286.02 275.33,262.58 287.78,260.04 295.24,261.76 		"/>
		<path style="fill:#2E5B9A;" d="M324.34,314.26c-0.94,3.78-0.83,6.58,0.81,7.98c1.63,1.4,7.8,11.82,7.8,11.82l1.92-0.29l-4.45-9.53
			L324.34,314.26z"/>
		<path style="fill:#2E5B9A;" d="M336.71,334.3c2.05,0.55,8.03-2.08,11.74-5.16c3.71-3.08,1.51-4.59-1.89-4.07
			c-0.19,0.03-0.38,0.02-0.57-0.03c-1.7,3.8-7.3,6.65-9.1,2.64c-1.79-3.98-9.46-11.9-12.55-13.59c0.01,0.06,0.01,0.12,0,0.18
			c-0.35,2.54-1.96,4.9,3.39,7.77C333.08,324.91,334.66,333.75,336.71,334.3z"/>
		<path style="fill:#E38540;" d="M227.74,257.53c-10.28,18.44-3.26,30.16,9.23,31.36c12.49,1.19,32.21-1.09,43.7-10.64
			c11.49-9.55,20.93-19.65,19.61-21.16C298.97,255.59,227.74,257.53,227.74,257.53z"/>
		<path style="fill:#F09959;" d="M286.02,271.29c2.1-6.31,4.53-11.16,9.23-11.24c4.94-0.09,7.98,2.48,8.19,10.56
			c0.25,9.62,0.59,41.48,0.15,55.64c-0.34,10.72,2.79,14.16,2.52,25.34c-0.2,8.42,8.78,4.17,5.31,8.53c-2.38,3-9.48,2.02-13.84,1.47
			c-3.88-0.49,2.01-12.14-3.37-15.25c-4.61-2.67-4.7-7.01-1.79-10.29c2.91-3.28,0.32-12.99-1.62-19.79
			c-1.94-6.8-4.96-14.15-6.93-30.23C283.3,281.44,284.73,275.15,286.02,271.29z"/>
		<path style="fill:#2E5B9A;" d="M308.34,356.68c-1.49,0.45-3.32,0.95-4.92,1.01c-3.24,0.11-4.21-3.45-4.42-8.29
			c-0.19-4.22-3.26-10.88-6.4-13.57c-0.06,0.08-0.12,0.15-0.18,0.22c-2.91,3.28-2.82,7.62,1.79,10.29
			c5.38,3.11-0.52,14.75,3.37,15.25c4.36,0.55,11.46,1.54,13.84-1.47C313.66,357.28,310.87,357.05,308.34,356.68z"/>
		<path style="fill:#2E5B9A;" d="M293.14,334.84c0,0-4.72,4.93-4.29,6.98c0.43,2.05,1.89,7.23,2.13,11.22
			c0.24,3.99,0.46,8.58,0.46,8.58s1.7,0,1.83-0.48c0.14-0.48,1.08-16.23,1.08-16.23L293.14,334.84z"/>
		<path style="fill:#75A1DE;" d="M222.79,255.85c0,0-6.1,25.87,1.61,33.04c7.7,7.17,39.68,0.72,47.21,0.29
			c5.1-0.29,10.04,5.93,10.04,5.93s-3.56-14.43-1.13-26.09c2.43-11.65,6.35-12.44,6.35-12.44l-5.21-0.73H222.79z"/>
		<path style="fill:#A8CEFF;" d="M221.41,249.09c2.61,5.53-2.81,15.08-0.91,17.83c1.9,2.75,12.76,0.39,19.87-5.34
			c7.12-5.73,20.58-6.99,20.58-6.99L221.41,249.09z"/>
		<path style="fill:#2E5B9A;" d="M232.43,296.22c21.53,0.81,44.19,0.43,44.19-2.78c0-3.21-0.97-5.47-17.64-4.18
			c-16.67,1.3-28,3.08-33.02,1.94S232.43,296.22,232.43,296.22z"/>
	</g>
	<path style="fill:#2E5B9A;" d="M461.85,258.58h-303c-1.39,0-2.51-1.13-2.51-2.51v-0.84c0-1.39,1.13-2.51,2.51-2.51h303
		c1.39,0,2.51,1.13,2.51,2.51v0.84C464.37,257.45,463.24,258.58,461.85,258.58z"/>
	<g>
		<path style="fill:#F09959;" d="M502.33,174.17c2.09,7.35-3.01,14.93-8.62,16.52c-5.61,1.59-9.62-3.4-11.7-10.76
			c-2.09-7.35,0.77-14.6,6.38-16.2C494,162.15,500.24,166.82,502.33,174.17z"/>
		<path style="fill:#F09959;" d="M470.87,316.66c0,0,14.38,22.34,16.32,23.31c1.94,0.97,6.8,1.21,4.98,4.86
			c-1.82,3.64-2.55,17.97-4.25,18.7c-1.7,0.73-16.27,2.43-14.08,0c2.19-2.43,3.53-1.21,4.63-5.58c1.1-4.37,2.65-12.63,0.59-14.32
			c-2.06-1.7-14.69-17-14.69-17L470.87,316.66z"/>
		<path style="fill:#F09959;" d="M398.48,326.25c0,0-17.48,28.81-20.72,31.4c-3.24,2.59-13.92,6.47-5.18,7.12
			c8.74,0.65,12.95-2.91,18.45-4.53c5.5-1.62,12.3-2.59,9.71-6.8s-1.51-13.4,4.07-19.22C410.4,328.39,398.48,326.25,398.48,326.25z"
			/>
		<path style="fill:#6791C9;" d="M487.7,259.43c0,0-43.28-1.13-60.44,12.95c-10.04,15.22-34.32,60.11-36.2,65.06
			c1.3,1.3,8.58,3.63,11.82,3.31c9.55-11.39,22.17-21.23,27.19-30.17c6.19-11.01,8.09-16.51,18.13-17.48
			c10.04-0.97,32.7-4.21,39.5-4.21S487.7,259.43,487.7,259.43z"/>
		<polygon style="fill:#2E5B9A;" points="525.44,364.85 523.17,364.85 506.9,296.98 511.89,296.98 		"/>
		<polygon style="fill:#2E5B9A;" points="457.48,364.85 459.75,364.85 478.42,294.58 473.42,294.58 		"/>
		<path style="fill:#75A1DE;" d="M512.35,256.47l-25.16,4.34c0,0-33.44,0.31-48.72,3.15c-13.9,2.59-15.95,18.39,0,40.14
			c9.06,12.36,16.73,22.22,32.4,33.33c3.99-2.93,5.51-4.03,6.61-11.08c-1.13-1.55-4.07-11.29-4.98-13.19
			c-8.67-18.12-20.24-24.71-20.4-26.49c1.94-3.16,51.45,16.45,61.3,4.92C522.79,280.59,512.35,256.47,512.35,256.47z"/>
		<path style="fill:#F37168;" d="M513.4,199.51c-6.63-0.93-13.38,0.33-19.69,4.9c-5.52,5.62-11.76,14.89-11.37,30.19
			c0.49,19.42-3.01,20.67,0.64,26.01c15.19,6.27,41.17,33.22,35.05,4.33c-4.43-20.92,9.72-36.52-1.7-59.72
			C515.4,203.33,514.24,201.5,513.4,199.51z"/>
		<path style="fill:#D54A41;" d="M482.33,241.9c-0.3,10.13-1.73,13.11-0.63,16.28c6.19,0.63,17.52,3.11,20.35,7.07
			c3.24,4.53,6.47,5.18,4.96,1.83c-1.51-3.35-5.5-8.09,0.65-24.39c6.15-16.3,9.07-27.3,3.02-38.63L482.33,241.9z"/>
		<path style="fill:#F09959;" d="M513.4,199.51c-4.08-9.66-5.08-20.51-5.08-20.51l-10.68,3.16c0,0,6.07,13.6,0.24,18.45
			c-1.24,1.03-2.68,2.29-4.16,3.8C500.02,199.84,506.77,198.58,513.4,199.51z"/>
		<path style="fill:#E38540;" d="M508.64,181.57c-0.63-0.56-1.42-1.27-2.26-2l-8.71,2.57c-0.01,0.02-0.01,0.03-0.02,0.05
			c0.21,0.48,2.43,5.66,2.72,10.64c2.6-1.58,5.44-4.14,8.69-8.63C508.88,183.2,508.74,182.31,508.64,181.57z"/>
		<path style="fill:#F09959;" d="M505.89,202.54c-11,3.85-9.78,15.44-19.91,32.54c-5.24,8.85-10.11,8.72-10.11,8.72
			s-12.29,0.1-27.16-1.72c-9.31-1.14-9.9,1.63-3.43,3.95c13.06,4.67,26.61,9.69,37.53,8.48c10.93-1.21,29.61-29.09,30.58-36.35
			C514.73,208.12,511.43,200.61,505.89,202.54z"/>
		<g>
			<path style="fill:#2E5B9A;" d="M500.22,299.52c-0.68,0-1.38-0.01-2.1-0.03c-8.94-0.22-15.03-1.46-19.93-2.45
				c-5.79-1.18-8.97-1.82-12.73-0.03c-1.27,0.61-2.78,0.07-3.39-1.2c-0.61-1.27-0.07-2.78,1.2-3.39c5.29-2.53,9.76-1.62,15.94-0.37
				c4.7,0.95,10.54,2.14,19.04,2.35c9.57,0.24,15.42-1.2,18.41-4.51c2.67-2.96,3.46-7.9,2.47-15.53c-0.33-2.59-0.66-4.74-0.96-6.63
				c-0.82-5.32-1.37-8.84-0.7-14.26c0.63-5.05,2.3-11.8,6.19-24.88c0.4-1.35,1.82-2.11,3.16-1.71c1.35,0.4,2.11,1.82,1.71,3.16
				c-7.27,24.47-6.9,26.86-5.34,36.91c0.3,1.93,0.64,4.11,0.98,6.76c1.19,9.22,0,15.44-3.74,19.59
				C516.58,297.58,510.3,299.52,500.22,299.52z"/>
		</g>
		<path style="fill:#D54A41;" d="M399.67,350.53c-11.6,5.67-17.84,8.92-21.56,8.61c-0.88-0.07-1.61-0.16-2.22-0.26
			c-4.14,2.45-10.74,5.33-3.31,5.88c8.74,0.65,12.95-2.91,18.45-4.53c5.5-1.62,12.3-2.59,9.71-6.8
			C400.25,352.64,399.89,351.65,399.67,350.53z"/>
		<path style="fill:#D54A41;" d="M488.45,340.44c-0.28,9.18-1.55,18.29-7.16,20c-1.49,0.46-2.85,0.52-4.05,0.36
			c-0.88,1.09-1.96,1.1-3.41,2.71c-2.19,2.43,12.38,0.73,14.08,0c1.7-0.73,2.43-15.05,4.25-18.7
			C493.66,341.83,490.65,341.13,488.45,340.44z"/>
		<g>
			<path style="fill:#75A1DE;" d="M443.77,253.24h-36.85c-0.99,0-1.89-0.57-2.31-1.47l-14.89-32.05c-0.59-1.27-0.04-2.79,1.23-3.38
				c1.27-0.59,2.79-0.04,3.38,1.23l14.21,30.58h35.23c1.4,0,2.54,1.14,2.54,2.54S445.18,253.24,443.77,253.24z"/>
		</g>
		<path style="fill:#F09959;" d="M451.48,242.4c-7.45-0.11-14.83-4.55-18.5-3.9c-3.67,0.65-15.65,8.96-14.14,9.28
			c1.51,0.32,11.01-4.6,11.33-4.67c0.32-0.07,2.37,3.41,7.45,4.69c5.07,1.28,0.04-3.8,15.76,0.95
			C463.6,251.83,451.48,242.4,451.48,242.4z"/>
		<path style="fill:#F2E5DE;" d="M512.3,190.69l1.1,8.82c0,0-9.64,0.57-14.43,3.27c-4.79,2.7-11.87,10.49-11.87,10.49l5.78-9.95
			l0.83-6.37L512.3,190.69z"/>
		<path style="fill:#F2E5DE;" d="M508.2,201.48c-7.16-1.34-10.47,5.07-15.11,15.54c-4.64,10.47-12.56,23.18-14.14,24.82
			c-1.58,1.64-26.55,0-26.55,0s-0.76,7.23,0,8.09c0.76,0.86,5.07,0.76,5.07,0.76s1.73,1.38,3.35,2.47
			c1.62,1.09,15.32,3.14,21.69,2.82c6.37-0.32,12.19-0.86,13.06-1.83c0.86-0.97,18.24-27.73,19.32-37.34
			C515.97,207.2,511.85,202.17,508.2,201.48z"/>
		<path style="fill:#303C60;" d="M487.1,157.45c-13.54,0.65-11.41,21.01-11.41,21.01s3.52,1.09,10.88-0.13
			c-0.57-2.19-0.32-7.77-0.32-7.77s0.86,4.53,1.94,7.28c1.56,0.71,3.32,0.08,6.31-0.64c1.54,6.47,5.88,9.2,8.86,10.14
			c3.29,1.03,6.77,2.27,10.65,0.32c3.89-1.94,1.75-21.8-0.31-25.79c-3.1-5.99-8.24-11.36-17.15-8.53
			C492.08,154.77,487.1,157.45,487.1,157.45z"/>
		<path style="fill:#303C60;" d="M510.63,181.64l5.53,8.08c0,0-6.13,15.32,11.7,22.27c13.97,5.44,12.32,15.02,6.01,24.65
			c-6.31,9.63,3.78,18.05,3.78,18.05s1.54-10.67,15.11-12.69c18.51-2.75,23.75-27.59,9.92-40.02
			c-11.44-10.28-14.92-1.77-22.66-10.99c-7.74-9.23-22.36-2.99-22.36-2.99l-5.36-7.81L510.63,181.64z"/>
		<g>
			<path style="fill:#303C60;" d="M569.06,226.96c-0.07,0-0.14-0.02-0.21-0.05c-0.21-0.12-0.29-0.39-0.18-0.6
				c4.66-8.52,0.86-18.85-1.06-21.65c-0.2-0.3-0.39-0.59-0.6-0.91c-1.88-2.94-4.22-6.59-16.71-8.84c-2.99-0.54-5.42-2.32-7.98-4.2
				c-5.32-3.91-11.36-8.34-24.47-2.3c-0.22,0.1-0.48,0.01-0.59-0.22c-0.1-0.22-0.01-0.48,0.22-0.59c13.59-6.25,19.85-1.66,25.37,2.4
				c2.48,1.82,4.83,3.54,7.62,4.05c12.86,2.32,15.32,6.15,17.29,9.23c0.2,0.31,0.39,0.61,0.58,0.89c1.15,1.69,2.58,5.18,3.16,9.18
				c0.51,3.47,0.56,8.61-2.06,13.4C569.37,226.88,569.22,226.96,569.06,226.96z"/>
		</g>
		<g>
			<path style="fill:#303C60;" d="M507.68,189.87c-0.88,0-1.84-0.08-2.87-0.23c-4.72-0.71-11.05-3.39-11.54-18.47
				c-0.01-0.24,0.18-0.45,0.43-0.46c0.25-0.01,0.45,0.18,0.46,0.43c0.21,6.24,1.45,10.86,3.68,13.73c1.7,2.18,3.96,3.42,7.11,3.89
				c4.41,0.66,7.33-0.16,8.68-2.43c0.13-0.21,0.4-0.28,0.61-0.15c0.21,0.13,0.28,0.4,0.15,0.61
				C513.16,188.84,510.91,189.87,507.68,189.87z"/>
		</g>
	</g>
	<g>
		<path style="fill:#96CFE0;" d="M85.24,200.57c-15.71,8.98-37.56,46.33-32.95,52.42c4.61,6.09,29.38-9.93,29.38-9.93L85.24,200.57z
			"/>
		<path style="fill:#303C60;" d="M114.59,157.26c-6-0.16-3.77-4.62-10.67-2.84c-3.63,0.94-0.95,2.43-5.66,1.94
			c-4.71-0.49-7.03-0.97-7.62,2.1c-0.59,3.08-0.88,4.05-3.15,4.53c-2.27,0.49-3.29,4.53,0,7.28c3.29,2.75,1.69,3.88,0.96,6.15
			c-0.73,2.27,1.75,2.43,3.1,4.53c1.35,2.1-1.24,2.5,0.7,4.33c1.94,1.82,4.67,1.66,4.67,1.66l8.18-15.68L114.59,157.26z"/>
		<path style="fill:#2E5B9A;" d="M236.81,345.45c0,0,8.74,0.24,15.54-2.43c6.8-2.67,11.41-6.8,10.2-1.94
			c-1.21,4.86-6.8,13.19-11.65,14c-4.86,0.81-6.56,6.15-9.23,6.15c-2.67,0-6.56-6.15-13.35-9.23
			C222.12,349.2,236.81,345.45,236.81,345.45z"/>
		<path style="fill:#2E5B9A;" d="M167.93,344.63c0,0,3.68,5.07,10.07,8.6c6.61,3.64,14.23,5.4,9.5,7.04
			c-4.73,1.65-11.64,2.93-18.38,0.97c-4.73-1.37-10.27-1.66-11.74-3.89c-1.46-2.23,1.72-7.84,0.4-16.23
			C156.73,334.4,167.93,344.63,167.93,344.63z"/>
		<path style="fill:#3E6BAB;" d="M127,263.15c0,0,50.63,18.96,54.71,24.26c4.08,5.3,57.3,53.58,57.3,57.14
			c0,3.56-9.06,10.04-9.06,10.04s-45.65-28-56.98-42.25c-11.33-14.24-38.99-21.11-53.69-22.43C104.58,288.59,127,263.15,127,263.15z
			"/>
		<path style="fill:#4476BD;" d="M128.94,263.15c0,0,34.64-1.3,42.09,0c7.45,1.29,23.78,1.28,13.1,31.43
			c-8.37,23.63-11.14,53.55-11.14,53.55l-16.65,4.09c0,0,0.66-53.8,8.6-68.12c-5.79,0.95-16.4,2.81-31.12,7.02
			c-27.3,7.81-42.27,3.9-42.27,3.9l-4.06-14.24L128.94,263.15z"/>
		<polygon style="fill:#A86B48;" points="100.02,173.71 91.55,198.72 102.25,205.76 108.31,184.15 		"/>
		<path style="fill:#7A4E34;" d="M103.2,202.35l5.1-18.2l-8.29-10.44l-3.1,9.15C97.99,191.12,100.57,197.96,103.2,202.35z"/>
		<path style="fill:#A86B48;" d="M121.61,177.95c0.27,7.61-3.46,14.19-9.4,14.77c-5.94,0.59-11.36-5.08-12.1-12.65
			c-0.75-7.57,3.46-14.19,9.4-14.77C115.44,164.71,121.17,165.94,121.61,177.95z"/>
		<path style="fill:#A2DFF2;" d="M87.49,197.99c-25.98,17.55-9.82,45.9-4.12,66.62c4.86,17.65,4.7,28.31,5.43,28.31
			c0.73,0,18.6-2.67,28.79-11.9c10.2-9.23,17.09-18.16,17.09-18.16s-13.06-2.33-17.33-19.23c-2.17-8.58-1.18-13.24-6.12-26.84
			C106.29,203.21,87.49,197.99,87.49,197.99z"/>
		<path style="fill:#A2DFF2;" d="M87.49,197.99l2.78-6.81c0,0,8.82,5.83,12.34,8.58c3.52,2.75,5.69,3.4,5.69,3.4
			s1.27,9.76,0.45,8.87C98.34,200.88,87.49,197.99,87.49,197.99z"/>
		<g>
			<polygon style="fill:#2E5B9A;" points="75.97,364.85 78.24,364.85 94.51,296.98 89.52,296.98 			"/>
			<polygon style="fill:#2E5B9A;" points="143.93,364.85 141.66,364.85 122.99,294.58 127.98,294.58 			"/>
			<g>
				<path style="fill:#2E5B9A;" d="M101.24,299.52c-9.09,0-14.84-1.63-18.52-5.21c-4.55-4.44-5.5-11.31-5.51-20.26
					c-0.03-18.82-1.07-22.72-6.37-34.21c-0.59-1.28-0.03-2.79,1.24-3.37c1.28-0.59,2.79-0.03,3.37,1.24
					c5.6,12.15,6.81,16.62,6.84,36.33c0.01,9.07,1.17,13.89,3.97,16.63c2.88,2.81,8.09,3.96,16.89,3.74
					c8.49-0.21,14.34-1.4,19.04-2.35c6.18-1.26,10.64-2.16,15.94,0.37c1.27,0.61,1.8,2.12,1.2,3.39c-0.61,1.27-2.12,1.8-3.39,1.2
					c-3.76-1.8-6.95-1.15-12.73,0.03c-4.89,0.99-10.98,2.23-19.93,2.45C102.59,299.52,101.91,299.52,101.24,299.52z"/>
			</g>
		</g>
		<g>
			<path style="fill:#3E6BAB;" d="M213.51,252.94h-36.85c-1.4,0-2.54-1.14-2.54-2.54c0-1.4,1.14-2.54,2.54-2.54h35.23l14.21-30.58
				c0.59-1.27,2.1-1.83,3.38-1.23c1.27,0.59,1.83,2.1,1.23,3.38l-14.89,32.05C215.39,252.37,214.49,252.94,213.51,252.94z"/>
		</g>
		<path style="fill:#96CFE0;" d="M88.45,223.54c0,0,6.47,19.75,14.49,27.92c8.01,8.17,24.14,10.92,29.19,10.6
			c-4.03-1.62-11.69-6.22-14.77-18.42c-2.17-8.58-1.18-13.24-6.12-26.84c-3.67-10.09-14.97-15.57-20.55-17.72
			c6.97,5,15.68,13.25,18.36,19.52C112,225.56,88.45,223.54,88.45,223.54z"/>
		<path style="fill:#A86B48;" d="M177.82,240.87c0,0,11.17-5.1,12.38-4.61c1.21,0.49,13.6,7.96,13.6,9.2
			c0,1.24-10.93-4.62-10.93-4.62s1.21,3.24,0.49,4.79c-0.73,1.55-9.13,1.55-16.7,1.07C169.08,246.21,177.82,240.87,177.82,240.87z"
			/>
		<path style="fill:#A2DFF2;" d="M88.81,208.28c-10.3,21.1,25.02,42.49,45.97,44.39c20.95,1.9,45.85-4.95,45.85-4.95l-2.81-6.85
			c0,0-41.98-5.48-43.04-6.25C133.72,233.86,92.58,200.55,88.81,208.28z"/>
		<path style="fill:#A86B48;" d="M102.19,174.42c0.95,2.51,0.25,5.1-1.56,5.8c-1.82,0.69-4.06-0.78-5.02-3.29
			c-0.95-2.51-0.25-5.1,1.56-5.8C98.99,170.44,101.24,171.92,102.19,174.42z"/>
		<path style="fill:#303C60;" d="M121.62,158.36c2.84-1.19,6.05-2.46,5.06,2.37c-0.43,2.1,0,1.51,0.76,3.45
			c0.76,1.94-1.9,3.47-2.77,4.55c-0.86,1.08,1.26,2.25-0.47,3.55c-1.73,1.29-4-0.48-5.61,0c-4.8,1.43-4.21-2.34-6.91-3.13
			c-2.7-0.79-4.02-0.66-4.53,1.06c-0.51,1.73,1.89,7.41-0.16,6.87c-2.05-0.54-2.51,4.05-3.06,6.64c-0.55,2.59-1.96-1.79-1.87-4.75
			c0.14-4.54-0.99-6.45-2.66-7.72c-1.67-1.27-2.39-12.83,5.71-13.26c8.09-0.43,8.15-1.21,11.6-1.94
			C120.15,155.31,120.32,158.9,121.62,158.36z"/>
	</g>
	<g>
		<g>
			<path style="fill:#F5DC95;" d="M306.13,48.54c0-16.62-13.37-30.12-29.94-30.33c-16.65-0.21-30.46,13.19-30.73,29.84
				c-0.13,8.13,2.94,15.53,8.02,21.05c2.34,2.54,3.64,5.87,3.64,9.33v13.6c0,8.8,7.2,15.99,15.99,15.99h5.33
				c8.8,0,15.99-7.2,15.99-15.99v-13.6c0-3.49,1.34-6.82,3.7-9.39C303.1,63.64,306.13,56.45,306.13,48.54z"/>
			<path style="opacity:0.5;fill:#FFFFFF;" d="M301.89,50.58c0-14.3-11.5-25.91-25.75-26.09c-14.32-0.18-26.21,11.35-26.43,25.67
				c-0.11,6.99,2.53,13.36,6.9,18.11c2.02,2.19,3.14,5.05,3.14,8.02v11.7c0,7.57,6.19,13.76,13.76,13.76h4.59
				c7.57,0,13.76-6.19,13.76-13.76v-11.7c0-3,1.16-5.87,3.18-8.08C299.29,63.57,301.89,57.38,301.89,50.58z"/>
			<g>
				<path style="fill:#94BDF2;" d="M280.28,83.88h-9.99c-0.47,0-0.86-0.36-0.9-0.83c-0.02-0.19-1.88-19.48-10.5-24.88
					c-0.43-0.27-0.55-0.83-0.29-1.25c0.27-0.43,0.83-0.55,1.25-0.29c8.41,5.27,10.8,21.52,11.26,25.43h8.21
					c-0.03-1.34,0.04-3.93,0.82-7.28c1.03-4.48,3.57-11.24,9.77-17.99c0.34-0.37,0.91-0.39,1.28-0.05c0.37,0.34,0.39,0.91,0.05,1.28
					c-11.34,12.34-10.08,24.72-10.06,24.85c0.03,0.26-0.05,0.51-0.22,0.71C280.78,83.77,280.53,83.88,280.28,83.88z"/>
			</g>
			<g>
				<path style="fill:#94BDF2;" d="M287.75,59.42c-3.37,0-7.97-2.4-12.81-4.99c-6.25,3.33-12.1,6.32-15.36,4.34
					c-1.54-0.93-2.27-2.75-2.25-5.57c0.02-2.65,0.78-4.44,2.26-5.32c3.28-1.94,9.13,1.15,15.35,4.5c6.35-3.38,12.32-6.54,15.59-4.55
					c1.47,0.89,2.19,2.71,2.16,5.39c-0.04,2.79-0.84,4.67-2.39,5.59C289.56,59.23,288.71,59.42,287.75,59.42z M276.87,53.4
					c4.99,2.65,10.2,5.19,12.51,3.83c0.96-0.57,1.47-1.93,1.49-4.04c0.03-2-0.41-3.28-1.28-3.82
					C287.36,48.02,281.95,50.7,276.87,53.4z M262.05,49.08c-0.6,0-1.12,0.11-1.53,0.35c-0.89,0.53-1.35,1.8-1.37,3.77
					c-0.02,2.09,0.44,3.44,1.37,4c2.24,1.36,7.47-1.17,12.5-3.82C268.95,51.23,264.69,49.08,262.05,49.08z"/>
			</g>
			<path style="fill:#94BDF2;" d="M279.3,112.33h-6.41c-1.88,0-3.43-1.54-3.43-3.43v-1.14c0-1.88,1.54-3.43,3.43-3.43h6.41
				c1.88,0,3.43,1.54,3.43,3.43v1.14C282.73,110.79,281.19,112.33,279.3,112.33z"/>
			<path style="fill:#94BDF2;" d="M256.25,82.25v9.62c0,9.21,7.54,16.75,16.75,16.75h5.58c9.21,0,16.75-7.54,16.75-16.75v-9.62
				H256.25z"/>
			<path style="fill:#9EC8FF;" d="M295.38,85.27H256.7c-1.08,0-1.97-0.89-1.97-1.97v-0.66c0-1.08,0.89-1.97,1.97-1.97h38.67
				c1.08,0,1.97,0.89,1.97,1.97v0.66C297.35,84.39,296.46,85.27,295.38,85.27z"/>
			<path style="fill:#9EC8FF;" d="M295.31,88.72l-37.97,4.69c-1.19,0.15-2.28-0.71-2.43-1.9l-0.03-0.24
				c-0.15-1.19,0.71-2.28,1.9-2.43l37.97-4.69c1.19-0.15,2.28,0.71,2.43,1.9l0.03,0.24C297.35,87.48,296.5,88.58,295.31,88.72z"/>
			<path style="fill:#9EC8FF;" d="M295.31,95.37l-37.97,4.69c-1.19,0.15-2.28-0.71-2.43-1.9l-0.03-0.24
				c-0.15-1.19,0.71-2.28,1.9-2.43l37.97-4.69c1.19-0.15,2.28,0.71,2.43,1.9l0.03,0.24C297.35,94.13,296.5,95.22,295.31,95.37z"/>
			<path style="fill:#9EC8FF;" d="M292.96,102.48l-31.63,3.91c-1.09,0.13-2.1-0.65-2.23-1.74l-0.07-0.6
				c-0.13-1.09,0.65-2.1,1.74-2.23l31.63-3.91c1.09-0.13,2.1,0.65,2.23,1.74l0.07,0.6C294.84,101.34,294.05,102.35,292.96,102.48z"
				/>
		</g>
		<g>
			<path style="fill:#9EC8FF;" d="M566.77,111.1h20.38c0,11.18-9.2,20.38-20.38,20.38c-11.18,0-20.38-9.2-20.38-20.38
				c0-11.18,9.2-20.38,20.38-20.38V111.1z"/>
			<g>
				<path style="fill:#F39892;" d="M590.57,108.25c0-11.26-9.13-20.38-20.38-20.38v20.38H590.57z"/>
				<path style="fill:#F39892;" d="M549.8,108.25c0,11.26,9.13,20.38,20.38,20.38C559.01,128.63,549.8,119.43,549.8,108.25z"/>
				<path style="fill:#F39892;" d="M570.19,87.86c-11.26,0-20.38,9.13-20.38,20.38C549.8,97.07,559.01,87.86,570.19,87.86z"/>
				<path style="fill:#F39892;" d="M570.19,128.63c11.26,0,20.38-9.13,20.38-20.38C590.57,119.43,581.37,128.63,570.19,128.63z"/>
			</g>
		</g>
		<g>
			<rect x="167.83" y="97.62" style="fill:#9EC8FF;" width="4.45" height="12.88"/>
			<rect x="224.9" y="101.81" style="fill:#9EC8FF;" width="4.45" height="8.69"/>
			<rect x="186.7" y="80.36" style="fill:#9EC8FF;" width="4.45" height="30.14"/>
			<rect x="196.14" y="96.95" style="fill:#9EC8FF;" width="4.45" height="13.55"/>
			<rect x="205.57" y="93.12" style="fill:#9EC8FF;" width="4.45" height="17.38"/>
			<rect x="177.27" y="89.11" style="fill:#9EC8FF;" width="4.45" height="21.39"/>
			<rect x="215.03" y="84.16" style="fill:#9EC8FF;" width="4.45" height="26.34"/>
		</g>
		<g>
			<defs>
				<path id="SVGID_1_" d="M25.83,33.04C11.57,33.04,0,44.6,0,58.87S11.57,84.7,25.83,84.7s25.83-11.57,25.83-25.83
					S40.1,33.04,25.83,33.04z M25.83,72.56c-7.56,0-13.68-6.13-13.68-13.68c0-7.56,6.13-13.68,13.68-13.68
					c7.56,0,13.68,6.13,13.68,13.68C39.52,66.43,33.39,72.56,25.83,72.56z"/>
			</defs>
			<clipPath id="SVGID_00000152254797028025364460000011025032513296863106_">
				<use xlink:href="#SVGID_1_"  style="overflow:visible;"/>
			</clipPath>
			<path style="clip-path:url(#SVGID_00000152254797028025364460000011025032513296863106_);fill:#A2DFF2;" d="M49.18,73.15
				L25.83,58.87l-4.22,27.04C32.58,87.64,43.45,82.5,49.18,73.15z"/>
			<path style="clip-path:url(#SVGID_00000152254797028025364460000011025032513296863106_);fill:#9CD499;" d="M49.2,73.12
				c0.06-0.1,0.15-0.24,0.14-0.24c4.93-8.26,5.13-18.52,0.61-26.94c-8.26,4.33-3.34,1.7-24.12,12.93
				C49.22,73.17,45.59,70.97,49.2,73.12z"/>
			<path style="clip-path:url(#SVGID_00000152254797028025364460000011025032513296863106_);fill:#9EC8FF;" d="M0.17,49.41
				l25.67,9.46l24.08-13.02C38.65,25.03,8.33,27.52,0.17,49.41z"/>
			<path style="clip-path:url(#SVGID_00000152254797028025364460000011025032513296863106_);fill:#F39892;" d="M21.61,85.91
				l4.22-27.04L0.17,49.41C-5.94,65.78,4.9,83.28,21.61,85.91z"/>
			<path style="clip-path:url(#SVGID_00000152254797028025364460000011025032513296863106_);fill:#FFFFFF;" d="M-1.51,53.89
				c0.48,0,0.92,0.12,1.3,0.34c0.22-1.23,0.53-2.44,0.93-3.64l13.94,5.14c0,0,0-0.01,0-0.01c-0.03-0.64,0.21-1.23,0.61-1.7
				l-1.4-0.51L1.35,48.88c1.03-2.5,2.39-4.77,4.03-6.78c-0.59-0.22-1.07-0.63-1.39-1.17c-1.77,2.17-3.24,4.62-4.34,7.32l-0.02-0.01
				l-0.32,0.85L-1,49.95l0.02,0.01c-0.44,1.31-0.78,2.64-1.02,3.99C-1.84,53.91-1.68,53.89-1.51,53.89z"/>
			<path style="clip-path:url(#SVGID_00000152254797028025364460000011025032513296863106_);fill:#E7F3FE;" d="M51.12,46.23
				l0.02-0.01l-0.43-0.8c-0.01-0.02-0.02-0.03-0.03-0.05l-0.35-0.66l-0.01,0.01c-2.72-4.73-6.61-8.51-11.28-10.94
				c-4.58-2.38-9.78-3.45-15.04-3.08c-6.19,0.43-11.84,2.75-16.32,6.51c0.53,0.32,0.93,0.82,1.15,1.41c4.2-3.52,9.48-5.7,15.29-6.1
				c10.13-0.7,19.45,4.25,24.55,12.99l-7.11,3.84c-1.47,0.79-3.52,1.9-6.96,3.76c-2.2,1.19-4.97,2.69-8.52,4.61l-0.22,0.12
				l-0.72-0.44l-0.04,0.25l-5.01-1.85c0,0.64-0.25,1.23-0.67,1.69l5.39,1.99l-3.97,25.39C13.37,83.41,6.88,78.8,2.97,72.11
				c-2.34-4-3.55-8.45-3.6-12.93c-0.28,0.1-0.58,0.16-0.88,0.16c-0.33,0-0.64-0.06-0.93-0.17c0.05,4.8,1.35,9.57,3.85,13.86
				c4.19,7.17,11.14,12.09,19.17,13.62l0,0.02l0.89,0.14c0,0,0.9,0.14,0.9,0.14l0-0.02c1.16,0.15,2.33,0.22,3.49,0.22
				c4.08,0,8.13-0.89,11.89-2.64c4.82-2.24,8.86-5.75,11.75-10.16l0.02,0.01l0.18-0.29c0,0,0.29-0.47,0.29-0.47
				c0.04-0.07,0.1-0.16,0.13-0.21l0.02-0.03c0-0.01,0.01-0.02,0.01-0.02l0.29-0.47l-0.01-0.01C55.06,64.68,55.32,54.61,51.12,46.23z
				 M22.65,85.14l3.87-24.78l10.07,6.16c4.06,2.48,6.38,3.91,7.85,4.8l3.48,2.13C42.37,81.85,32.62,86.37,22.65,85.14z M48.88,71.87
				c0,0-0.17-0.1-0.17-0.1c-0.95-0.57-1.37-0.81-3.27-1.97L27.65,58.92l14.77-7.98c2.17-1.17,3.06-1.63,5.26-2.78
				c0.54-0.28,1.15-0.6,1.89-0.99C53.41,54.96,53.16,64.29,48.88,71.87z"/>
		</g>
		<g>
			<path style="fill:#9EC8FF;" d="M168.86,63.88h-61.92c-4.51,0-8.17-3.66-8.17-8.17V36.68c0-4.51,3.66-8.17,8.17-8.17h61.92
				c4.51,0,8.17,3.66,8.17,8.17v19.03C177.03,60.22,173.38,63.88,168.86,63.88z"/>
			<path style="fill:#FFFFFF;" d="M168.29,62.22h-60.78c-3.65,0-6.6-2.95-6.6-6.6V44.4c0-3.65,2.95-6.6,6.6-6.6h60.78
				c3.64,0,6.6,2.95,6.6,6.6v11.22C174.89,59.26,171.94,62.22,168.29,62.22z"/>
			<g>
				<path style="fill:#FFFFFF;" d="M103.88,33.87h-0.7c-0.65,0-1.18-0.53-1.18-1.18v-0.39c0-0.65,0.53-1.18,1.18-1.18h0.7
					c0.65,0,1.18,0.53,1.18,1.18v0.39C105.07,33.34,104.54,33.87,103.88,33.87z"/>
				<path style="fill:#FFFFFF;" d="M109.46,33.87h-0.7c-0.65,0-1.18-0.53-1.18-1.18v-0.39c0-0.65,0.53-1.18,1.18-1.18h0.7
					c0.65,0,1.18,0.53,1.18,1.18v0.39C110.64,33.34,110.11,33.87,109.46,33.87z"/>
				<path style="fill:#FFFFFF;" d="M115.03,33.87h-0.7c-0.65,0-1.18-0.53-1.18-1.18v-0.39c0-0.65,0.53-1.18,1.18-1.18h0.7
					c0.65,0,1.18,0.53,1.18,1.18v0.39C116.22,33.34,115.69,33.87,115.03,33.87z"/>
			</g>
			<path style="fill:#9EC8FF;" d="M171.88,43.15h-39.13c-0.64,0-1.17-0.53-1.17-1.17c0-0.64,0.53-1.17,1.17-1.17h39.13
				c0.64,0,1.17,0.53,1.17,1.17C173.05,42.62,172.53,43.15,171.88,43.15z"/>
			<path style="fill:#9EC8FF;" d="M142.45,61.21h-39.13c-0.64,0-1.17-0.53-1.17-1.17c0-0.64,0.53-1.17,1.17-1.17h39.13
				c0.64,0,1.17,0.53,1.17,1.17C143.62,60.69,143.1,61.21,142.45,61.21z"/>
			<path style="fill:#9EC8FF;" d="M149.06,61.21h-2.84c-0.55,0-1-0.45-1-1v-0.33c0-0.55,0.45-1,1-1h2.84c0.55,0,1,0.45,1,1v0.33
				C150.06,60.76,149.61,61.21,149.06,61.21z"/>
			<path style="fill:#9EC8FF;" d="M155.16,61.21h-2.84c-0.55,0-1-0.45-1-1v-0.33c0-0.55,0.45-1,1-1h2.84c0.55,0,1,0.45,1,1v0.33
				C156.16,60.76,155.71,61.21,155.16,61.21z"/>
			<path style="fill:#9EC8FF;" d="M172.26,48.25h-64.8c-0.44,0-0.79-0.36-0.79-0.79c0-0.44,0.36-0.79,0.79-0.79h64.8
				c0.44,0,0.79,0.36,0.79,0.79C173.05,47.89,172.7,48.25,172.26,48.25z"/>
			<path style="fill:#9EC8FF;" d="M172.26,51.68h-64.8c-0.44,0-0.79-0.36-0.79-0.79c0-0.44,0.36-0.79,0.79-0.79h64.8
				c0.44,0,0.79,0.36,0.79,0.79C173.05,51.32,172.7,51.68,172.26,51.68z"/>
		</g>
		<g>
			<path style="fill:#FFB8B3;" d="M367.75,41.35h-33.42V21.88h25.13c3.24,3.24,5.05,5.05,8.29,8.29V41.35z"/>
			<polygon style="fill:#F39892;" points="358.86,21.88 358.86,32.27 367.75,32.27 367.75,30.28 359.41,21.93 			"/>
			<polygon style="fill:#FFB8B3;" points="359.47,21.88 359.47,30.28 367.75,30.28 			"/>
			<path style="fill:#FFFFFF;" d="M353,29.19h-14.89c-0.32,0-0.59-0.27-0.59-0.59c0-0.32,0.27-0.59,0.59-0.59H353
				c0.32,0,0.59,0.27,0.59,0.59C353.59,28.92,353.32,29.19,353,29.19z"/>
			<path style="fill:#FFFFFF;" d="M353,32.21h-14.89c-0.32,0-0.59-0.27-0.59-0.59c0-0.32,0.27-0.59,0.59-0.59H353
				c0.32,0,0.59,0.27,0.59,0.59C353.59,31.94,353.32,32.21,353,32.21z"/>
			<path style="fill:#FFFFFF;" d="M353,35.38h-14.89c-0.32,0-0.59-0.27-0.59-0.59c0-0.32,0.27-0.59,0.59-0.59H353
				c0.32,0,0.59,0.27,0.59,0.59C353.59,35.12,353.32,35.38,353,35.38z"/>
		</g>
		<circle style="fill:#3E6BAB;" cx="350.05" cy="23.38" r="1"/>
		
			<rect x="200.59" y="20.58" transform="matrix(0.9818 0.1897 -0.1897 0.9818 10.1688 -39.46)" style="fill:#FAE8B6;" width="21.24" height="25.61"/>
		<path style="fill:#9EC8FF;" d="M219.65,33.7l-11.06-2.14c-0.29-0.06-0.49-0.34-0.43-0.64c0.06-0.29,0.34-0.49,0.64-0.43
			l11.06,2.14c0.29,0.06,0.49,0.34,0.43,0.64C220.23,33.56,219.94,33.76,219.65,33.7z"/>
		<path style="fill:#9EC8FF;" d="M219.12,36.46l-11.06-2.14c-0.29-0.06-0.49-0.34-0.43-0.64c0.06-0.29,0.34-0.49,0.64-0.43
			l11.06,2.14c0.29,0.06,0.49,0.34,0.43,0.64C219.7,36.33,219.41,36.52,219.12,36.46z"/>
		<path style="fill:#9EC8FF;" d="M218.57,39.3l-11.06-2.14c-0.29-0.06-0.49-0.34-0.43-0.64c0.06-0.29,0.34-0.49,0.64-0.43
			l11.06,2.14c0.29,0.06,0.49,0.34,0.43,0.64S218.86,39.36,218.57,39.3z"/>
		<path style="fill:#3E6BAB;" d="M212.17,22.17c-0.1,0.49-0.57,0.81-1.06,0.72c-0.49-0.1-0.81-0.57-0.72-1.06
			c0.1-0.49,0.57-0.81,1.06-0.72C211.94,21.2,212.26,21.68,212.17,22.17z"/>
		<path style="fill:#9EC8FF;" d="M383.18,68.61l-32.27-3.4l2.13-20.23l25.59,2.7c2.34,2.89,3.64,4.5,5.98,7.39L383.18,68.61z"/>
		<polygon style="fill:#FFFFFF;" points="378.17,49.12 354.14,46.59 352.35,63.65 382.21,66.8 383.26,56.81 377.42,56.19 		"/>
		<path style="fill:#9EC8FF;" d="M374.91,55.32l-15.56-1.64c-0.36-0.04-0.62-0.36-0.58-0.72c0.04-0.36,0.36-0.62,0.72-0.58
			l15.56,1.64c0.36,0.04,0.62,0.36,0.58,0.72C375.59,55.09,375.27,55.36,374.91,55.32z"/>
		<path style="fill:#9EC8FF;" d="M374.55,58.75l-15.56-1.64c-0.36-0.04-0.62-0.36-0.58-0.72c0.04-0.36,0.36-0.62,0.72-0.58
			l15.56,1.64c0.36,0.04,0.62,0.36,0.58,0.72C375.23,58.52,374.91,58.78,374.55,58.75z"/>
		<path style="fill:#9EC8FF;" d="M374.17,62.33l-15.56-1.64c-0.36-0.04-0.62-0.36-0.58-0.72c0.04-0.36,0.36-0.62,0.72-0.58
			l15.56,1.64c0.36,0.04,0.62,0.36,0.58,0.72C374.85,62.1,374.53,62.36,374.17,62.33z"/>
		<circle style="fill:#3E6BAB;" cx="365.11" cy="49.65" r="1"/>
		<g>
			<path style="fill:#9CD499;" d="M543.53,33.87c0,6.15-4.99,11.14-11.14,11.14c-6.15,0-11.14-4.99-11.14-11.14
				c0-6.15,4.99-11.14,11.14-11.14C538.54,22.73,543.53,27.72,543.53,33.87z"/>
			<g>
				<path style="fill:#FFFFFF;" d="M531.28,37.68c-0.01,0-0.01,0-0.02,0c-0.15-0.01-0.29-0.07-0.39-0.18l-3.03-3.44
					c-0.2-0.23-0.18-0.57,0.05-0.77c0.23-0.2,0.57-0.18,0.77,0.05l2.65,3.01l6.05-5.93c0.21-0.21,0.56-0.21,0.77,0.01
					c0.21,0.22,0.21,0.56-0.01,0.77l-6.47,6.33C531.56,37.63,531.42,37.68,531.28,37.68z"/>
			</g>
		</g>
		<g>
			<path style="fill:#9EC8FF;" d="M39.78,137.3h45.41c6.82,0,12.41-5.58,12.41-12.41v-4.12c0-6.82-5.58-12.41-12.41-12.41H39.78
				c-6.82,0-12.41,5.58-12.41,12.41v4.12C27.37,131.72,32.95,137.3,39.78,137.3z"/>
			<path style="fill:#9EC8FF;" d="M89.11,132.93v15.97l-18.4-18.4C70.72,130.5,88.74,132.93,89.11,132.93z"/>
			<path style="fill:#FFFFFF;" d="M40.95,134.43h43.07c5.47,0,9.95-4.48,9.95-9.95v-3.31c0-5.47-4.48-9.95-9.95-9.95H40.95
				c-5.47,0-9.95,4.48-9.95,9.95v3.31C31,129.96,35.48,134.43,40.95,134.43z"/>
			<path style="fill:#9EC8FF;" d="M59.68,116.97h28.44c0.69,0,1.25-0.56,1.25-1.25c0-0.69-0.56-1.25-1.25-1.25H59.68
				c-0.69,0-1.25,0.56-1.25,1.25C58.43,116.41,58.99,116.97,59.68,116.97z"/>
			<path style="fill:#9EC8FF;" d="M35.83,121.74h52.93c0.33,0,0.6-0.27,0.6-0.6v-0.2c0-0.33-0.27-0.6-0.6-0.6H35.83
				c-0.33,0-0.6,0.27-0.6,0.6v0.2C35.23,121.47,35.5,121.74,35.83,121.74z"/>
			<path style="fill:#9EC8FF;" d="M35.83,124.45h52.93c0.33,0,0.6-0.27,0.6-0.6v-0.2c0-0.33-0.27-0.6-0.6-0.6H35.83
				c-0.33,0-0.6,0.27-0.6,0.6v0.2C35.23,124.18,35.5,124.45,35.83,124.45z"/>
		</g>
		<g>
			<path style="fill:#9EC8FF;" d="M506.47,117.08h1.36c1.27,0,2.29-1.03,2.29-2.29v-0.76c0-1.27-1.03-2.29-2.29-2.29h-1.36
				c-1.27,0-2.29,1.03-2.29,2.29v0.76C504.18,116.06,505.21,117.08,506.47,117.08z"/>
			<path style="fill:#9EC8FF;" d="M495.67,117.08h1.36c1.27,0,2.29-1.03,2.29-2.29v-0.76c0-1.27-1.03-2.29-2.29-2.29h-1.36
				c-1.27,0-2.29,1.03-2.29,2.29v0.76C493.38,116.06,494.4,117.08,495.67,117.08z"/>
			<path style="fill:#9EC8FF;" d="M484.87,117.08h1.36c1.27,0,2.29-1.03,2.29-2.29v-0.76c0-1.27-1.03-2.29-2.29-2.29h-1.36
				c-1.27,0-2.29,1.03-2.29,2.29v0.76C482.57,116.06,483.6,117.08,484.87,117.08z"/>
		</g>
	</g>
</g>
</svg>
