<?xml version="1.0" encoding="utf-8"?>
<!-- Generator: Adobe Illustrator 26.3.1, SVG Export Plug-In . SVG Version: 6.00 Build 0)  -->
<svg version="1.1" xmlns="http://www.w3.org/2000/svg" xmlns:xlink="http://www.w3.org/1999/xlink" x="0px" y="0px"
	 viewBox="0 0 2591.27 2612.31" style="enable-background:new 0 0 2591.27 2612.31;" xml:space="preserve">
<g id="Background">
</g>
<g id="Illustration">
	<g>
		<g>
			<linearGradient id="SVGID_1_" gradientUnits="userSpaceOnUse" x1="1226.1182" y1="697.0597" x2="1442.9705" y2="6262.8706">
				<stop  offset="0" style="stop-color:#444B8C"/>
				<stop  offset="0.9964" style="stop-color:#26264F"/>
			</linearGradient>
			<path style="fill:url(#SVGID_1_);" d="M2411.99,663.27c-0.02-0.73-0.04-1.45-0.06-2.18c-0.41-46.15-5.17-90.43-13.95-132.35
				c-22.66-114.31-72.13-204.41-145.33-272.47c-35.31-33.9-75.91-61.94-121.15-82.94c-0.29-0.14-0.56-0.29-0.85-0.43l-0.01,0.04
				c-52.59-24.29-111.51-39.16-175.78-42.63c-267.85-14.47-436.78,166.06-610.74,337.73C1172.04,290.53,969.13,77.27,690.3,62.2
				c-91.91-4.97-177.7,2.49-255.06,34.1h-0.03C192.93,177.07,37.38,398.77,37.38,652.25c0,81.28,13.48,157.67,38.71,226.91
				c39.16,107.56,106.4,198.51,194.93,263.15c38.73,28.31,81.48,49.66,127.65,70.73h0.08c78.22,28.09,166.75,43.77,261.34,39.9
				c228.77-9.38,381.45-118,525.43-245.74v0.01v-0.06c52.68-49.8,104.52-102.7,155.85-154
				c167.32,167.12,352.54,356.31,588.87,346.63c83.05-3.4,157.39-25.41,221.49-61.19l98.19-63.9
				c62.71-58.3,109.26-135.22,135.99-224.9C2402.97,792.55,2413.44,729.87,2411.99,663.27z M544.03,931.75
				C444.27,883.99,378.2,781.92,378.2,654.21c0-133.92,87.72-248.73,211.63-288.12c0.08-0.02,0.17-0.05,0.25-0.07
				c32.56-10.36,67.55-15.44,104.05-14.31c195.75,6.05,338.92,187.15,461.01,308.6l-139.59,138.93l2.07,0.41
				c-97.09,86.62-206.72,159.1-335.06,161.39C632.28,961.92,585.32,951.54,544.03,931.75z M1926.77,938.86
				c-163.68,2.92-289.96-162.18-405.58-274.2l153.58-156.06l-0.39-2.6c79.74-68.3,166.46-118.88,261.77-115.94
				c34.95,1.08,67.47,9.54,96.49,24.09c68.59,37.79,118.35,108.75,133.9,191.53c3.25,18.37,5.01,37.58,5.16,57.48
				c-0.11,21.89-2.19,42.9-6.04,62.87C2141.44,844.31,2046.45,936.73,1926.77,938.86z"/>
			<g>
				<g>
					<g>
						<path style="fill:#025BA6;" d="M2446.23,605.36c-0.32-47.2-5.23-92.46-14.33-135.27c-22.76-107.34-72.05-199.85-142.24-268.54
							c-35.69-34.92-76.89-63.77-122.87-85.32c-0.02,0-0.04-0.03-0.06-0.03c-52.24-24.47-110.8-39.56-174.63-43.35
							c-194.19-11.52-336.51,81.16-466.51,198.42c-47.72,43.04-93.73,89.35-140.09,135.02C1214.64,228.54,1013.18,17.61,736.37,1.22
							c-91.23-5.4-176.38,7.29-253.16,35.39h-0.03C242.74,110.35,88.38,333.25,88.38,585.75c0,80.96,13.37,155.77,38.41,224.87
							c3.65,10.1,7.57,19.39,11.69,29.17c39.91,94.27,102.19,173.87,181.74,232.61c38.44,28.4,80.86,49.34,126.68,70.41h0.08
							c77.64,28.09,164.81,44.91,258.69,41.55c227.1-8.11,383.41-114.86,520.91-241.4c0.1-0.08,0.2-0.28,0.27-0.38
							c53.53-49.28,104.32-101.7,155.22-152.48c166.16,167.42,350.46,356.94,585.2,348.57c82.51-2.94,156.53-24.47,220.23-59.79
							c161.54-89.6,258.76-269.92,258.76-468.18C2446.28,608.93,2446.28,607.14,2446.23,605.36z M728.7,894.04
							c-49.92,0.62-96.53-9.97-137.51-29.91C492.17,816.02,426.6,713.99,426.6,586.76c0-133.41,87.07-247.34,210.05-285.94
							c0.08-0.02,0.16-0.05,0.25-0.07c32.32-10.15,67.05-15.03,103.29-13.72c194.32,7.03,336.46,188.25,457.68,309.86
							c0.88,0.9,1.73,1.75,2.6,2.63c-43.71,43.99-89.85,91.62-139.15,135.51C964.94,820.83,856.1,892.45,728.7,894.04z
							 M2202.29,663.71c-22.71,119.7-117.87,213.38-238.1,214.88c-162.58,2.03-288.02-163.2-402.84-275.42c-1.04-1-2.05-2-3.09-3
							c48.7-51.92,100.24-107.36,155.23-154.31c79.19-67.65,165.33-117.62,260.02-114.19c35.07,1.27,67.7,10.03,96.76,24.99
							c67.29,34.54,115.75,102.48,131.62,188.3c0.02,0.16,0.06,0.3,0.08,0.44c3.53,19.19,5.44,39.31,5.55,60.19
							c0.02,0.75,0.02,1.52,0.02,2.26C2207.55,626.96,2205.74,645.65,2202.29,663.71z"/>
					</g>
				</g>
				<path style="fill:#4DC1C1;" d="M636.89,1045.12l-189.91,96.14l-0.08-0.05l-126.68-70.06
					c-87.85-64.87-154.57-154.54-193.43-261.81c-25.03-69.1-38.41-142.62-38.41-223.58c0-252.49,154.36-475.4,394.8-549.14h0.03
					l-26.17,181.87l179.6,83.61C513.67,340.69,426.6,453.98,426.6,587.4c0,127.23,65.57,228.94,164.59,277.06L636.89,1045.12z"/>
				<path style="fill:#4DC1C1;" d="M2446.28,610.7c0,198.26-97.22,378.57-258.76,468.17l-140.63-72.95l35.78-161.42
					c61.36-35.1,105.15-99.62,119.63-180.8c3.32-18.53,5.11-37.94,5.23-58.12c0.02-0.79,0.02-1.61,0.02-2.4
					c0-19.73-1.91-39.08-5.57-57.78c-0.02-0.14-0.06-0.28-0.08-0.44c-15.96-81.03-64.7-150.6-131.62-188.3
					c-7.5-4.25-15.24-8.09-23.2-11.49l137.82-63.12l-19.63-161.75l1.46-4.09c0.02,0,0.04,0.03,0.06,0.03
					c46.48,23.46,87.54,51.83,122.87,85.32c71.33,67.56,119.74,156.4,142.24,268.54c8.4,41.72,13.25,86.76,14.33,135.27
					C2446.28,607.14,2446.28,608.92,2446.28,610.7z"/>
				<polygon style="fill:#4DC1C1;" points="1059.27,734.6 1227.02,769.01 1226.58,942.74 1713.89,448.45 1690.91,295.23 
					1525.6,271.28 				"/>
			</g>
			
				<linearGradient id="SVGID_00000182511572008364638420000011206720026378190500_" gradientUnits="userSpaceOnUse" x1="1291.1127" y1="441.4592" x2="1351.4525" y2="1990.1661">
				<stop  offset="0" style="stop-color:#AA80F9"/>
				<stop  offset="0.9964" style="stop-color:#6165D7"/>
			</linearGradient>
			<path style="opacity:0.3;fill:url(#SVGID_00000182511572008364638420000011206720026378190500_);" d="M1201.29,593.5
				c0,0-5.08-89.32,17.42-135.49c22.42-46,54-149.43,21.68-198.13c92.02,86.62,145.12,146.43,145.12,146.43L1201.29,593.5z"/>
			
				<linearGradient id="SVGID_00000134241971969075035510000017388281315058977700_" gradientUnits="userSpaceOnUse" x1="1492.2909" y1="813.1074" x2="1559.8317" y2="2546.6362">
				<stop  offset="0" style="stop-color:#AA80F9"/>
				<stop  offset="0.9964" style="stop-color:#6165D7"/>
			</linearGradient>
			<path style="opacity:0.3;fill:url(#SVGID_00000134241971969075035510000017388281315058977700_);" d="M1563.1,604.88
				c0,0,61.81,78.36,22.08,141.02c-40,63.09-31.02,88.99-4.33,123.28c26.56,34.14-2.54,106.84-2.54,106.84L1380.7,791.43
				L1563.1,604.88z"/>
		</g>
		<g>
			<g>
				
					<linearGradient id="SVGID_00000019648890591916323320000006779329525418941059_" gradientUnits="userSpaceOnUse" x1="666.0206" y1="1622.2333" x2="753.1455" y2="2045.0463">
					<stop  offset="0" style="stop-color:#AA80F9"/>
					<stop  offset="0.9964" style="stop-color:#6165D7"/>
				</linearGradient>
				
					<ellipse style="fill:url(#SVGID_00000019648890591916323320000006779329525418941059_);" cx="763.31" cy="2094.4" rx="224.75" ry="91.73"/>
				
					<linearGradient id="SVGID_00000108308535249926378640000000731795195284788871_" gradientUnits="userSpaceOnUse" x1="538.5635" y1="2063.8989" x2="988.0649" y2="2063.8989">
					<stop  offset="0" style="stop-color:#AA80F9"/>
					<stop  offset="0.9964" style="stop-color:#6165D7"/>
				</linearGradient>
				<path style="fill:url(#SVGID_00000108308535249926378640000000731795195284788871_);" d="M538.56,2083.64
					c0,47.82,100.62,86.59,224.75,86.59c124.13,0,224.75-38.77,224.75-86.59c0-47.82-100.62-126.07-224.75-126.07
					C639.19,1957.57,538.56,2035.82,538.56,2083.64z"/>
				
					<linearGradient id="SVGID_00000105395811016172796560000013698596642516152738_" gradientUnits="userSpaceOnUse" x1="-1523.4191" y1="2041.85" x2="-1145.7206" y2="2041.85" gradientTransform="matrix(-1 0 0 1 -607.157 0)">
					<stop  offset="0" style="stop-color:#AA80F9"/>
					<stop  offset="0.9964" style="stop-color:#6165D7"/>
				</linearGradient>
				<path style="opacity:0.3;fill:url(#SVGID_00000105395811016172796560000013698596642516152738_);" d="M538.56,2083.64
					c0-47.82,100.62-126.07,224.75-126.07c57.31,0,109.59,16.7,149.29,39.36c2.78,5.82,4.07,11.61,3.55,17.11
					c-2.58,26.91-46.46,43.45-71.65,48.9c-63.43,13.74-94.41-24.19-146.71-22.75c-32.33,0.89-77.14,17.14-130.29,85.93
					C549.11,2113.57,538.56,2099.08,538.56,2083.64z"/>
				<path style="fill:#FFFFFF;" d="M751,2001.01c8.98,2.23,17.36,2.15,25.24,0.14c7.15-1.81,12.06-8.43,12.06-15.81l0-253.43h-49.98
					v253.13C738.33,1992.65,743.62,1999.17,751,2001.01z"/>
				
					<linearGradient id="SVGID_00000134964494982386343680000017700946858492853913_" gradientUnits="userSpaceOnUse" x1="-1395.4597" y1="1867.2925" x2="-1345.4828" y2="1867.2925" gradientTransform="matrix(-1 0 0 1 -607.157 0)">
					<stop  offset="0" style="stop-color:#AA80F9"/>
					<stop  offset="0.9964" style="stop-color:#6165D7"/>
				</linearGradient>
				<path style="opacity:0.65;fill:url(#SVGID_00000134964494982386343680000017700946858492853913_);" d="M751,2001.01
					c8.98,2.23,17.36,2.15,25.24,0.14c7.15-1.81,12.06-8.43,12.06-15.81l0-253.43h-49.98v253.13
					C738.33,1992.65,743.62,1999.17,751,2001.01z"/>
				<g>
					<g>
						<path style="fill:#402968;" d="M1027.38,1625.26L951.04,1577c-3.18-18.03-39.16-206.64-185.27-265.87
							c-59.41-24.08-123.36-21.23-158.45-19.66c-70.05,3.13-120.01,5.36-144.04,38.77c-30.86,42.9,20.9,81.81,10.18,204.54
							c-4.37,50.05-15.48,72.28-1.64,105.43c16.58,39.72,55.04,61.73,84.94,74.12c35.74,20.76,97.98,50.33,180.17,57.54
							c138.45,12.13,241.81-47.26,277.36-69.98c15.81-4.98,27.68-18.13,31.04-34.35
							C1048.74,1651.08,1041.59,1634.24,1027.38,1625.26z"/>
					</g>
				</g>
				<path style="opacity:0.26;fill:#FFFFFF;" d="M992.28,1659.63c-2.82-16.97-50.12-2.9-94.86-36.14
					c-66.88-49.68-32.17-133.84-90.35-214.57c-53.39-74.09-160.88-111.8-194.25-83.57c-44.42,37.58,64.29,178.1,0,268.78
					c-31.23,44.05-78.81,41.93-79.05,67.76c-0.39,40.82,118.03,87.89,230.38,85.83C884.94,1745.5,996.76,1686.56,992.28,1659.63z"/>
			</g>
			<g>
				<path style="fill:#FFFFFF;" d="M1351.93,714.96l-10.42-19.6c0,0-9.58-1.98-13.93-8.83c-4.35-6.85-4.35-6.85-4.35-6.85
					s-2.17-7.19,5.71-15c1.78-1.76,2.71-4.23,2.34-6.71c-1.08-7.45-3.28-22.7-3.71-26.6c-0.29-2.58,0.77-5.66,1.9-8.11
					c0.78-1.67,3.19-1.5,3.67,0.28l8.35,30.73c0,0,6.69-1.69,8.99,3.94c0,0,5.79,3.45,6.65,9.47c0.87,6.02-0.01,20.55-0.01,20.55
					l9.17,20.68L1351.93,714.96z"/>
				<path style="fill:#F42155;" d="M1338.23,711.71c5.71,13.26,37.58,90.48,0.81,162.16c-41.01,79.93-151.37,121.76-261.78,85.69
					c-0.87,14.29-9.95,195.05,78.83,238.21c95.33,46.34,274.78-79.81,304.08-238.21c25.07-135.54-71.61-245.27-87.27-262.5
					C1361.34,701.94,1349.79,706.82,1338.23,711.71z"/>
				
					<linearGradient id="SVGID_00000128465158452768339570000004509709068588714674_" gradientUnits="userSpaceOnUse" x1="536.6379" y1="2234.6621" x2="610.0053" y2="2234.6621" gradientTransform="matrix(-0.996 0.0897 0.0897 0.996 1389.2815 -112.4738)">
					<stop  offset="0" style="stop-color:#444B8C"/>
					<stop  offset="0.9964" style="stop-color:#26264F"/>
				</linearGradient>
				<path style="fill:url(#SVGID_00000128465158452768339570000004509709068588714674_);" d="M986.64,2150.53
					c-3.81,3.5-4.05,11.67-4.2,17.02c-0.07,2.39-0.11,3.58,0.21,4.4c2.31,6,14.21,5.92,32.92,6.68c29.57,1.21,38.46,2.99,40.5-1.52
					c1.91-4.23-3.72-10.62-4.35-11.33c-3.4-3.78-7.37-5-15.01-7.01c-14.15-3.72-23.67-5.65-26.55-6.23
					C992.15,2148.9,989.14,2148.23,986.64,2150.53z"/>
				
					<linearGradient id="SVGID_00000042727886741976575950000006918164726367692944_" gradientUnits="userSpaceOnUse" x1="99.932" y1="2185.8442" x2="132.1209" y2="2119.2207" gradientTransform="matrix(-0.9976 0.0694 0.0694 0.9976 961.3191 -23.1663)">
					<stop  offset="0" style="stop-color:#FFC444"/>
					<stop  offset="0.9964" style="stop-color:#F36F56"/>
				</linearGradient>
				<path style="fill:url(#SVGID_00000042727886741976575950000006918164726367692944_);" d="M1007.38,2121.04l1.15,33.66
					c-0.92,1.57-11.14,5.9-18.83,1.31l-5.8-33.34L1007.38,2121.04z"/>
				
					<linearGradient id="SVGID_00000128455569738398660770000000071102706170132880_" gradientUnits="userSpaceOnUse" x1="159.1998" y1="2271.1113" x2="237.1473" y2="2271.1113" gradientTransform="matrix(-0.977 0.2133 0.2133 0.977 979.2521 -103.9661)">
					<stop  offset="0" style="stop-color:#444B8C"/>
					<stop  offset="0.9964" style="stop-color:#26264F"/>
				</linearGradient>
				<path style="fill:url(#SVGID_00000128455569738398660770000000071102706170132880_);" d="M1235.76,2145.88
					c-5.08,5.05-6.7,14.75-2.78,19.79c3.85,4.95,10.21,1.73,27.69,3.19c18.72,1.56,23.38,6.25,36.31,3.42
					c5.22-1.15,14.5-4.11,14.52-7.8c0.02-2.59-4.54-4.17-19.72-10.18c-21.55-8.52-21.43-8.92-26.05-9.94
					C1254.13,2141.79,1242.48,2139.22,1235.76,2145.88z"/>
				
					<linearGradient id="SVGID_00000075157993331125267800000002091727874246493319_" gradientUnits="userSpaceOnUse" x1="5.2452" y1="2234.5103" x2="38.1155" y2="2166.4761" gradientTransform="matrix(-0.9894 0.1453 0.1453 0.9894 941.5225 -53.2101)">
					<stop  offset="0" style="stop-color:#FFC444"/>
					<stop  offset="0.9964" style="stop-color:#F36F56"/>
				</linearGradient>
				<path style="fill:url(#SVGID_00000075157993331125267800000002091727874246493319_);" d="M1249.41,2115.94l7.73,31.78
					c-0.8,1.64-10.66,6.73-18.67,2.74l-12.34-31.11L1249.41,2115.94z"/>
				<path style="fill:#263238;" d="M1202.44,1426.39c-4.27,105.2-3.41,223.78,6.95,353.12c10.23,127.83,27.95,243.79,48.57,346.02
					c-12.17,2.59-24.34,5.17-36.51,7.76c-28.92-30.01-64.94-76.74-80.09-140.87c-9.41-39.8-4.5-59.73-9.22-108.32
					c-7.52-77.37-28.89-118.83-49.9-182.02c-18.88-56.78-40.35-139.77-48.37-249.61
					C1090.05,1443.78,1146.25,1435.09,1202.44,1426.39z"/>
				
					<linearGradient id="SVGID_00000155841480443102241850000000651673587873751212_" gradientUnits="userSpaceOnUse" x1="1629.6605" y1="1939.4729" x2="1421.7595" y2="1470.8143" gradientTransform="matrix(0.9986 0.0533 -0.0533 0.9986 -267.6164 9.7454)">
					<stop  offset="0" style="stop-color:#311944"/>
					<stop  offset="1" style="stop-color:#893976"/>
				</linearGradient>
				<path style="opacity:0.3;fill:url(#SVGID_00000155841480443102241850000000651673587873751212_);" d="M1185.63,1918.03
					c-13.4-53.07-39.22-67.1-40.14-117.2c-0.65-35.43,12.08-38.33,11.24-72.25c-1.28-51.44-31.42-78.42-46.56-110.78
					c-15.99-34.18-22.12-89.07,20.98-180.38c-32.43,5.02-64.86,10.04-97.29,15.05c8.02,109.83,29.49,192.83,48.37,249.61
					c21.01,63.19,42.39,104.65,49.9,182.02c4.72,48.59-0.19,68.52,9.22,108.32c15.16,64.13,51.17,110.86,80.09,140.87
					c3.1-0.66,6.19-1.32,9.29-1.97c-31.27-37.32-42.3-70.65-45.11-97.7C1181.06,1989.62,1199.14,1971.54,1185.63,1918.03z"/>
				<path style="fill:#263238;" d="M1080.8,1419.82c-14.48,133.31-27.8,269.18-39.77,407.54c-8.99,103.82-17,206.38-24.08,307.63
					c-12.34,0.86-24.67,1.72-37.01,2.58c-10.66-22.68-24.59-57.23-33.06-101.01c-10.29-53.17-5.59-84.17-8.43-138.86
					c-3.18-61.34-11.83-75.13-24.29-152.96c-25.29-157.96-37.94-236.93,2.17-283.5C929.35,1446.1,969.64,1408.59,1080.8,1419.82z"/>
				
					<linearGradient id="SVGID_00000130618320625227362530000001448886465160313746_" gradientUnits="userSpaceOnUse" x1="1012.987" y1="1715.6288" x2="1379.972" y2="867.6698">
					<stop  offset="0" style="stop-color:#FFC444"/>
					<stop  offset="0.9964" style="stop-color:#F36F56"/>
				</linearGradient>
				<path style="opacity:0.3;fill:url(#SVGID_00000130618320625227362530000001448886465160313746_);" d="M1444.46,812.76
					c-0.59,16.32-3.92,29.79-8.38,40.83c-16.13,39.99-54.53,69.17-46.56,113.99c3.98,22.4,16.26,30.26,11.24,46.56
					c-7.12,23.11-36.33,22.02-67.43,48.16c-27.59,23.19-29.14,44.67-43.35,64.22c-19.24,26.47-62.68,50.68-167.98,43
					c9.35,11.88,20.57,21.67,34.09,28.24c95.33,46.34,274.78-79.81,304.08-238.21C1470.26,904.99,1460.6,854.61,1444.46,812.76z"/>
				<path style="fill:#F42155;" d="M761.31,1005.28c66.64-22.59,168.32-47.63,292.67-42.51c72.04,2.97,133.97,15.33,183.04,29.08
					c6.64,37.11,13.27,74.22,19.9,111.32c1.53,37.21,2.02,87.61-2.16,147.16c-4.18,59.54-8.27,60.44-17.85,144.5
					c-15.61,137.04-9.08,172.85-36.62,189.31c-17.91,10.71-24.39-2.22-115.81-11.28c-61.3-6.08-92.58-8.9-123.62,1.61
					c-42.27,14.3-56.41,38.32-73.85,30.5c-16.72-7.49-18.85-36.36-20.87-86.7c-3.12-77.64-2.92-130.42-3.21-149.31
					c-1.32-86.67-23.27-152.85-51.38-237.61C793.97,1078.33,775.45,1035.43,761.31,1005.28z"/>
				<g>
					<path style="fill:#FFFFFF;" d="M1077.49,950.79c-5.47-11.44,2.17-26.85,10.9-39.48c-7-15-35.64-19.4-42.65-34.4
						c-0.98,21.79-4.33,38.94-7.26,50.64c-3.36,13.41-5.44,16.81-8.02,19.53c-3.87,4.08-9.59,7.38-41.22,13.45
						c-17.21,3.3-19.39,3.07-19.86,4.74c-2.27,8.13,42.55,38.62,90.76,34.42c29.51-2.57,57.04-17.86,55.88-26.72
						C1114.86,964.05,1085.36,967.23,1077.49,950.79z"/>
					<g>
						<path style="fill:#26264F;" d="M1099.64,888.42c7.4-8.81,8.68-24.82,1.26-35.37c-6.39-9.08-17.11-10.9-23.52-11.99
							c-18.59-3.16-42.62,3.39-51.75,20.17c-5.41,9.94,3.98,31.71,5.43,35.61c1.64,4.41,4.94,6.07,7.9,9.5
							c4.1,4.75,10.5,12.3,20.95,24.91c1.05-3.5,2.6-7.82,4.93-12.47c0.9-1.79,4.5-8.77,9.68-14.44
							C1084.9,892.96,1092.62,896.77,1099.64,888.42z"/>
						<path style="fill:#FFFFFF;" d="M1044.63,920.29c0,0,11.22,20.84,35.8,20.55c22-0.26,27.84-49.25,14.39-60.44
							c-4.49-3.73-13.77-5.68-21.49-3.95c-4.56,1.02-6.18,2.81-13.67,4.33c-6.9,1.4-8.79,0.55-10.94,2.17
							c-2.69,2.03-4.85,7.23-1.33,21.84c-3.96-4.46-8.89-6.35-12.54-4.86c-0.58,0.24-2.14,1.18-3.07,2.69
							C1028.42,908.05,1033.17,915.5,1044.63,920.29z"/>
						<path style="fill:#26264F;" d="M1047.89,879.95c1.02,0.84-2.43,4.62-2.97,10.19c-1.05,10.81,9.23,24.41,20.36,26.11
							c6.58,1,8.61-2.89,19.61-3.46c6.81-0.35,12.4,0.81,15.91,1.77c2.8,12.07-1.06,23.75-9.3,28.82
							c-8.87,5.46-19.61,1.29-24.09-0.46c-3-1.17-12.62-4.89-17.26-14.14c-4.83-9.64,0.7-15.01-5.08-21.66
							c-2.92-3.36-6.89-4.96-10.51-11.35c-0.98-1.74-1.62-3.26-2-4.28C1038.53,885.8,1046.42,878.72,1047.89,879.95z"/>
						<path style="fill:#FFFFFF;" d="M1092.61,918.54c0,0-4.87,2.22-13.03,1.32c-0.4-0.04-0.84,0.05-0.9,0.25
							c-0.23,0.77,4.83,4.53,9.74,3.43c3.49-0.78,6.33-3.89,5.91-4.74C1094.16,918.44,1093.38,918.45,1092.61,918.54z"/>
					</g>
				</g>
				
					<linearGradient id="SVGID_00000166671399926177050340000015373955915336829085_" gradientUnits="userSpaceOnUse" x1="951.3837" y1="1531.8461" x2="1269.2689" y2="797.3378">
					<stop  offset="0" style="stop-color:#FFC444"/>
					<stop  offset="0.9964" style="stop-color:#F36F56"/>
				</linearGradient>
				<path style="opacity:0.3;fill:url(#SVGID_00000166671399926177050340000015373955915336829085_);" d="M1164.76,1539.14
					c-44.96-19.19-44.7-58.89-86.69-75.46c-59.92-23.64-126.13,31.29-136.47,16.05c-10.76-15.85,68.32-64.45,57.8-112.38
					c-8.36-38.09-63.56-31.34-93.12-83.48c-28.04-49.46-0.86-95.19-25.69-112.38c-8.91-6.17-24.61-8.6-54.4,4.51
					c20.77,64.86,35.66,122.06,36.74,192.96c0.29,18.89,0.1,71.67,3.21,149.31c2.02,50.33,4.15,79.2,20.87,86.7
					c17.44,7.81,31.58-16.2,73.85-30.5c31.04-10.5,62.32-7.68,123.62-1.61c91.41,9.06,97.89,21.99,115.81,11.28
					c11.67-6.97,17.21-17.46,20.93-37.6C1202.89,1548.51,1183.45,1547.11,1164.76,1539.14z"/>
				<path style="fill:#FFFFFF;" d="M822.79,1369.02l22.06-1.23c0,0,24.17-20.23,35.17-18.96c11,1.26,27.46,8.89,29.46,10.5
					c2.01,1.6-6.02,10.57-14.05,9.7c-8.03-0.87-25.94,3.46-29.14,10.53c-3.2,7.07-17.11,11.34-19.47,7.19l-29.66,5.89
					L822.79,1369.02z"/>
				<path style="fill:#F42155;" d="M829.47,1361.31c1.54,18.1-2.4,30.39-8.98,38.82c-29.16,37.36-128.25,22.08-187.14-27.96
					c-43.59-37.04-66.68-94.56-65.82-146.1c1.66-100.56,94.86-199.11,233.5-233.15c20.52,61.34,62.46,117.52,82.98,178.86
					c-85.47,1.3-158.81,70.9-151.11,116.9C738.62,1322.95,778.58,1353.77,829.47,1361.31z"/>
			</g>
			<g>
				<path style="fill:#B7C0CE;" d="M1525,2282.93c-1.85,0-3.42-1.41-3.59-3.28l-65.45-707.37c-0.18-1.99,1.28-3.74,3.26-3.93
					c1.98-0.16,3.75,1.28,3.93,3.26l58.25,629.48v-644.81c0-1.99,1.62-3.61,3.61-3.61s3.61,1.62,3.61,3.61v723.03
					c0,1.93-1.52,3.52-3.45,3.61C1525.11,2282.93,1525.06,2282.93,1525,2282.93z"/>
				<g>
					<polygon style="fill:#D8DEE8;" points="2254.88,1633.67 1536.81,1555 157.28,1617.7 879.79,1704.22 					"/>
					<polygon style="fill:#B7C0CE;" points="879.79,1704.22 2254.88,1633.67 2254.88,1667.75 879.79,1738.3 157.28,1651.78 
						157.28,1617.7 					"/>
				</g>
				<path style="fill:#B7C0CE;" d="M884.67,2529.64c-0.05,0-0.1,0-0.14,0c-1.94-0.08-3.47-1.67-3.47-3.61v-796.03
					c0-1.99,1.62-3.61,3.61-3.61c1.99,0,3.61,1.62,3.61,3.61v703.52l55.03-703.8c0.16-1.99,1.88-3.47,3.88-3.32
					c1.99,0.16,3.47,1.89,3.32,3.88l-62.25,796.03C888.12,2528.2,886.55,2529.64,884.67,2529.64z"/>
				<path style="fill:#B7C0CE;" d="M165.17,2388.23c-0.05,0-0.1,0-0.14,0c-1.94-0.08-3.47-1.67-3.47-3.61V1649.9
					c0-1.99,1.62-3.61,3.61-3.61c1.99,0,3.61,1.62,3.61,3.61v642.6l50.48-642.88c0.16-1.99,1.93-3.48,3.88-3.32
					c1.99,0.16,3.47,1.89,3.32,3.88l-57.69,734.73C168.62,2386.79,167.04,2388.23,165.17,2388.23z"/>
				<path style="fill:#B7C0CE;" d="M2248.07,2388.23c-1.87,0-3.44-1.43-3.6-3.31l-61.26-734.73c-0.17-1.99,1.31-3.73,3.3-3.9
					c1.99-0.16,3.73,1.31,3.9,3.3l54.05,648.25v-630.1c0-1.99,1.62-3.61,3.61-3.61c1.99,0,3.61,1.62,3.61,3.61v716.88
					c0,1.94-1.53,3.53-3.46,3.61C2248.18,2388.23,2248.12,2388.23,2248.07,2388.23z"/>
			</g>
			<g>
				<g>
					<g>
						<path style="fill:#BFC8D6;" d="M1964.02,1647.29l-493.38-3.67v10.86c0,2.95,2.15,5.46,5.07,5.9l139.51,21.39
							c1.66,0.25,3.33,0.32,5.01,0.2l338.43-24.39c3.02-0.22,5.36-2.73,5.36-5.76V1647.29z"/>
						<g>
							<path style="fill:#BFC8D6;" d="M1784.97,1629.33l-309.23,19.87c-5.53,0.36-10.03-3.42-10.03-8.44v-201.03
								c0-5.02,4.5-9.08,10.03-9.08h309.23c4.56,0,8.24,3.68,8.24,8.21v181.73C1793.22,1625.12,1789.53,1629.04,1784.97,1629.33z"/>
							<path style="fill:#D8DEE8;" d="M1789.9,1629.33l-309.23,19.87c-5.53,0.36-10.03-3.42-10.03-8.44v-201.03
								c0-5.02,4.5-9.08,10.03-9.08h309.23c4.56,0,8.24,3.68,8.24,8.21v181.73C1798.15,1625.12,1794.46,1629.04,1789.9,1629.33z"/>
							<path style="fill:#EFF2F6;" d="M1780.27,1616.52l-288.02,17.26c-4.5,0.27-8.16-2.83-8.16-6.93v-176
								c0-4.1,3.66-7.43,8.16-7.45l288.02-1.08c3.76-0.01,6.8,3,6.8,6.73v160.31C1787.07,1613.09,1784.03,1616.29,1780.27,1616.52z"
								/>
							<path style="fill:#FFFFFF;" d="M1646.21,1436.15c0,1.87-1.59,3.39-3.56,3.39c-1.97,0.01-3.56-1.51-3.56-3.38
								s1.6-3.39,3.56-3.39C1644.61,1432.77,1646.21,1434.28,1646.21,1436.15z"/>
							<path style="opacity:0.48;fill:#FFFFFF;" d="M1716.65,1574.29c-23.96-11.67-42.8,3.12-60.98-11.47
								c-11.02-8.85-5.61-15.44-19.18-28.66c-15.02-14.64-24.8-9.72-39.9-22.9c-19.09-16.66-9.54-29.63-25.99-41.59
								c-19.95-14.51-41.46-1.08-60.45-15c-8.19-6-12.68-14.73-15.03-24.01h-18.58c-3.26,0-5.9,2.39-5.9,5.34v208.53
								c0,2.95,2.64,5.17,5.9,4.96l316.77-20.36c1.55-0.1,2.93-0.92,3.82-2.11c-23.19-0.77-37.43-7.8-46.54-15.08
								C1732.77,1597.69,1735.86,1583.65,1716.65,1574.29z"/>
						</g>
						<path style="fill:#FFFFFF;" d="M1802.23,1628.78l-331.59,20.92l144.58,22.17c1.66,0.25,3.33,0.32,5.01,0.2l343.8-24.78
							l-156.52-18.37C1805.75,1628.71,1803.98,1628.67,1802.23,1628.78z"/>
						<polygon style="opacity:0.47;fill:#D8DEE8;" points="1519.02,1649.87 1795.08,1632.2 1880.52,1642.15 1606.84,1661.04 						
							"/>
					</g>
				</g>
				
					<linearGradient id="SVGID_00000039115448540184147260000015928639088012094610_" gradientUnits="userSpaceOnUse" x1="2457.0278" y1="2179.6069" x2="2473.2449" y2="2386.0039" gradientTransform="matrix(1 0 0 1 -626.2627 0)">
					<stop  offset="3.597000e-03" style="stop-color:#26264F"/>
					<stop  offset="1" style="stop-color:#444B8C"/>
				</linearGradient>
				<path style="fill:url(#SVGID_00000039115448540184147260000015928639088012094610_);" d="M1865.03,2282.33
					c0,0-72.53,5.04-73.59,9.78c-1.07,4.74,49.23,23.04,66.8,23.72c17.57,0.68,32.03-4.51,30.44-11.95
					c-1.59-7.44-7.74-26.17-7.74-26.17L1865.03,2282.33z"/>
				
					<linearGradient id="SVGID_00000025439388726707683980000015004549499004780436_" gradientUnits="userSpaceOnUse" x1="1516.6975" y1="2012.4764" x2="1513.2926" y2="1765.6106" gradientTransform="matrix(0.9853 0.171 -0.171 0.9853 718.5848 51.3792)">
					<stop  offset="0" style="stop-color:#FFC444"/>
					<stop  offset="0.9964" style="stop-color:#F36F56"/>
				</linearGradient>
				<path style="fill:url(#SVGID_00000025439388726707683980000015004549499004780436_);" d="M1861.61,2250.11l-1.29,34.23
					c0,0,11.03,6.23,19.79,2.65l9.74-36.1L1861.61,2250.11z"/>
				
					<linearGradient id="SVGID_00000031185146142563464140000005363687742054313394_" gradientUnits="userSpaceOnUse" x1="2254.1929" y1="2165.8042" x2="2270.4099" y2="2372.2014" gradientTransform="matrix(1 0 0 1 -626.2627 0)">
					<stop  offset="3.597000e-03" style="stop-color:#26264F"/>
					<stop  offset="1" style="stop-color:#444B8C"/>
				</linearGradient>
				<path style="fill:url(#SVGID_00000031185146142563464140000005363687742054313394_);" d="M1662.2,2268.53
					c0,0-72.53,5.04-73.59,9.78c-1.07,4.74,49.23,23.04,66.8,23.72c17.57,0.68,32.03-4.51,30.44-11.95
					c-1.59-7.44-7.74-26.17-7.74-26.17L1662.2,2268.53z"/>
				
					<linearGradient id="SVGID_00000083779767444414350160000007181002236315106445_" gradientUnits="userSpaceOnUse" x1="1314.4949" y1="2033.5599" x2="1311.0901" y2="1786.696" gradientTransform="matrix(0.9853 0.171 -0.171 0.9853 718.5848 51.3792)">
					<stop  offset="0" style="stop-color:#FFC444"/>
					<stop  offset="0.9964" style="stop-color:#F36F56"/>
				</linearGradient>
				<path style="fill:url(#SVGID_00000083779767444414350160000007181002236315106445_);" d="M1658.77,2236.31l-1.29,34.23
					c0,0,11.03,6.23,19.79,2.65l9.74-36.1L1658.77,2236.31z"/>
				<path style="fill:#263238;" d="M1853.9,2254.95c13.55,1.5,27.1,3.01,40.66,4.52c18.3-20.29,45.63-55.66,60.23-105.4
					c28.15-95.9-12.62-165,13.55-182.2c37.04-24.34,117.33,115.81,246.2,112.2c52.88-1.48,121.89-27.37,148.42-83.77
					c4.01-8.51,23.67-53.08,4.52-94.86c-19.78-43.14-117.89-61.91-313.3-97.7c-83.88-15.36-126.24-23.02-143.26-14.9
					C1790.3,1850.41,1840.59,2175.98,1853.9,2254.95z"/>
				<path style="fill:#263238;" d="M1646.98,2255.52c14.02,2.44,28.04,4.88,42.05,7.32c17.03-25.08,42.8-64.37,71.61-114.23
					c60.07-103.93,58.97-125.04,86.73-138.42c58.75-28.31,103.15,48.18,248.45,69.27c47.53,6.9,153.05,22.22,195.75-34.63
					c17.31-23.05,27.25-61.9,13.55-94.86c-24.56-59.1-105.45-52-371.93-103.9c-103.92-20.24-118.09-23.85-143.26-14.9
					C1649.36,1881.16,1646.63,2187.25,1646.98,2255.52z"/>
				<path style="fill:#FF6A0F;" d="M1938.11,1441.63c13.83-33.83,43.53-53.29,58.93-63.38c7.71-5.05,14.83-8.84,22.05-11.79
					c55.76-22.77,111.44-21.2,121.37-20.46c24.08,1.8,83.56,6.26,127.63,44.44c21.33,18.48,38.38,44.29,63.24,189.73
					c34.67,202.84,6.53,182.05,33.88,264.26c14.47,43.51,37.02,93.42,13.17,125.3c-7.7,10.3-18.71,13.25-41.14,23.35
					c-83.79,37.7-158.92,31.21-204.57,26.68c-50.24-4.98-75.63-7.82-88.95-25.57c-21.28-28.35,0.63-64.39,4.45-126.75
					c2.74-44.77-7.44-80.25-27.8-151.21C1973.05,1551.29,1911.6,1506.44,1938.11,1441.63z"/>
				
					<linearGradient id="SVGID_00000180338590160275669370000003708982954717880209_" gradientUnits="userSpaceOnUse" x1="1648.6075" y1="1634.7526" x2="1641.8643" y2="1665.5372">
					<stop  offset="0" style="stop-color:#FFC444"/>
					<stop  offset="0.9964" style="stop-color:#F36F56"/>
				</linearGradient>
				<path style="fill:url(#SVGID_00000180338590160275669370000003708982954717880209_);" d="M1702,1643.62l-53.54-10.3
					c-3.85-0.74-7.79-0.78-11.66-0.11l-46.31,7.96c0,0,30.11,12.11,55.71,8.32c25.6-3.8,53.56,10.6,53.56,10.6L1702,1643.62z"/>
				<g>
					<g>
						
							<linearGradient id="SVGID_00000018915451814924537890000006576890099651144586_" gradientUnits="userSpaceOnUse" x1="5297.7817" y1="675.7907" x2="5482.2695" y2="907.9001" gradientTransform="matrix(0.9663 0.2576 -0.2576 0.9663 -2904.5735 -798.2438)">
							<stop  offset="0" style="stop-color:#FFC444"/>
							<stop  offset="0.9964" style="stop-color:#F36F56"/>
						</linearGradient>
						<path style="fill:url(#SVGID_00000018915451814924537890000006576890099651144586_);" d="M2056.55,1308.52
							c-9-13.6,4.47-39.78,9.81-50.13c0.18-0.36,0.42-0.83,0.92-1.75c8.19-15.11,10.29-17.17,14.2-19.79l5.43-3.35
							c0,0,0.31-0.12,0.65-0.24c3.49-1.24,15.37-1.6,17.77-1.09c7.69,1.64,15.87,32.96,13.54,77.24c0.32,1.69,0.63,3.39,0.92,5.11
							c1.21,6.99,2.17,13.85,2.92,20.55c0.71,6.41,9.8,6.26,16.24,5.85c26.13-1.67,38.91,0.56,40.03,4.45
							c2.08,7.29-28.91,31.13-67.17,36.49c-51.36,0.38-93.13-5.09-88.64-13.17c1.99-3.59,41.79-13.99,52.98-24.29
							c10.25-9.44,9.41-19.18,10.25-26.15C2081.08,1318.52,2063.41,1318.89,2056.55,1308.52z"/>
						<path style="fill:#263238;" d="M2070.96,1220.91c-4.22,9.31,6.02,28.01,9.8,30.73c0.42,0.3,2.82,2.19,4.97,5.43
							c0.29,0.44,0.55,0.96,0.78,1.62c3.01,8.65-10.74,18.82-8.09,22.69c1.92,2.81,11.27-0.94,12.38,1.48
							c1.05,2.29-6.72,7.01-5.53,9.74c0.9,2.06,5.68,0.18,8.69,3.34c2.33,2.44,2.6,5.91,2.65,7.64c0.37,12.29-27.5,56.68-33.3,76.71
							c-6.16,21.24,4.86,41.46,44.87,97.33c56.92,79.47,85.37,119.2,101.2,130.56c77.33,55.51,168.25,48.71,205.54,42.91
							c44.79-6.96,137.34-21.33,167.14-92.61c34.26-81.93-33.19-194.03-102.39-213.07c-31.65-8.7-48.5,4.52-89.59-9.78
							c-45.39-15.8-39.89-43.73-81.92-60.22c-56.05-22-92.21,17.33-130.4-11.31c-20.78-15.59-17.35-32.69-42.91-45.17
							C2109.63,1206.61,2076.5,1208.71,2070.96,1220.91z"/>
						
							<linearGradient id="SVGID_00000028293205597116698720000016647538530814788746_" gradientUnits="userSpaceOnUse" x1="5306.6128" y1="664.1096" x2="5512.5933" y2="923.2592" gradientTransform="matrix(0.9663 0.2576 -0.2576 0.9663 -2904.5735 -798.2438)">
							<stop  offset="0" style="stop-color:#FFC444"/>
							<stop  offset="0.9964" style="stop-color:#F36F56"/>
						</linearGradient>
						<path style="fill:url(#SVGID_00000028293205597116698720000016647538530814788746_);" d="M2083.36,1278.16
							c3.36-4.62,9.27-0.28,9.31,5.7c0.04,5.98-5.76,12.19-11.38,11.01C2075.67,1293.69,2078.84,1284.37,2083.36,1278.16z"/>
					</g>
				</g>
				
					<linearGradient id="SVGID_00000062165972475276047200000008039431740152963216_" gradientUnits="userSpaceOnUse" x1="1921.3951" y1="1630.6759" x2="2217.1384" y2="1913.0773">
					<stop  offset="0" style="stop-color:#FF9085"/>
					<stop  offset="1" style="stop-color:#FB6FBB"/>
				</linearGradient>
				<path style="opacity:0.3;fill:url(#SVGID_00000062165972475276047200000008039431740152963216_);" d="M2176.03,1960.85
					c-14.78-29.43,21.44-68.54-2.22-113.41c-20.09-38.1-56.6-29.57-73.38-64.49c-20.27-42.18,23.81-73.7,22.24-137.87
					c-1.89-76.71-67.89-153.49-106.73-146.76c-25.13,4.36-28.36,41.85-46.04,82.9c15.65,34.31,33.93,77.29,50.49,135.02
					c20.36,70.96,30.54,106.43,27.8,151.21c-3.82,62.36-25.72,98.4-4.45,126.75c13.32,17.75,38.71,20.6,88.95,25.57
					c45.65,4.52,120.78,11.02,204.57-26.68c10.61-4.77,18.55-8.35,25.02-11.87C2231.36,2000.88,2187.76,1984.19,2176.03,1960.85z"/>
				<path style="fill:#FF6A0F;" d="M1688.37,1659.24c1.52-6.83,3.04-13.66,4.55-20.5c102.87,18.44,147.85-2.26,169.58-26.45
					c19.94-22.2,11.44-33.67,43.36-118.41c30.4-80.71,64.9-101.45,82.27-108.96c9.71-4.19,16.41-6.97,24.46-5
					c37.06,9.06,49.31,105.63,38.91,177.89c-5.86,40.71-17.35,120.54-82.83,158.43c-1.2,0.7-3.11,1.8-5.63,3.15
					c-8.25,4.41-41.01,20.17-105.55,8.53C1781.4,1714.2,1707.16,1670.58,1688.37,1659.24z"/>
			</g>
			<g>
				
					<linearGradient id="SVGID_00000000221337996186408980000016224322378982246061_" gradientUnits="userSpaceOnUse" x1="1945.0681" y1="1358.6729" x2="2032.193" y2="1781.4858">
					<stop  offset="0" style="stop-color:#AA80F9"/>
					<stop  offset="0.9964" style="stop-color:#6165D7"/>
				</linearGradient>
				
					<ellipse style="fill:url(#SVGID_00000000221337996186408980000016224322378982246061_);" cx="2164.67" cy="2424.38" rx="224.75" ry="91.73"/>
				
					<linearGradient id="SVGID_00000168828811548985604360000013673002846146022839_" gradientUnits="userSpaceOnUse" x1="1939.9165" y1="2393.8813" x2="2389.418" y2="2393.8813">
					<stop  offset="0" style="stop-color:#AA80F9"/>
					<stop  offset="0.9964" style="stop-color:#6165D7"/>
				</linearGradient>
				<path style="fill:url(#SVGID_00000168828811548985604360000013673002846146022839_);" d="M2389.42,2413.62
					c0,47.82-100.62,86.59-224.75,86.59c-124.13,0-224.75-38.77-224.75-86.59c0-47.82,100.62-126.07,224.75-126.07
					C2288.79,2287.55,2389.42,2365.8,2389.42,2413.62z"/>
				
					<linearGradient id="SVGID_00000011002168788412043860000002850597879869936542_" gradientUnits="userSpaceOnUse" x1="2086.0486" y1="2371.8323" x2="2463.7471" y2="2371.8323" gradientTransform="matrix(1 0 0 1 -74.3293 0)">
					<stop  offset="0" style="stop-color:#AA80F9"/>
					<stop  offset="0.9964" style="stop-color:#6165D7"/>
				</linearGradient>
				<path style="opacity:0.3;fill:url(#SVGID_00000011002168788412043860000002850597879869936542_);" d="M2389.42,2413.62
					c0-47.82-100.62-126.07-224.75-126.07c-57.31,0-109.59,16.7-149.29,39.36c-2.78,5.82-4.07,11.61-3.55,17.11
					c2.58,26.91,46.46,43.45,71.65,48.9c63.43,13.74,94.41-24.19,146.71-22.75c32.33,0.89,77.14,17.14,130.29,85.93
					C2378.87,2443.56,2389.42,2429.07,2389.42,2413.62z"/>
				<path style="fill:#FFFFFF;" d="M2176.98,2330.99c-8.98,2.24-17.36,2.15-25.24,0.14c-7.15-1.82-12.06-8.43-12.06-15.81l0-253.43
					h49.98v253.13C2189.66,2322.63,2184.36,2329.15,2176.98,2330.99z"/>
				
					<linearGradient id="SVGID_00000048485915043835953240000004849965635014807449_" gradientUnits="userSpaceOnUse" x1="2214.0078" y1="2197.2749" x2="2263.9849" y2="2197.2749" gradientTransform="matrix(1 0 0 1 -74.3293 0)">
					<stop  offset="0" style="stop-color:#AA80F9"/>
					<stop  offset="0.9964" style="stop-color:#6165D7"/>
				</linearGradient>
				<path style="opacity:0.65;fill:url(#SVGID_00000048485915043835953240000004849965635014807449_);" d="M2176.98,2330.99
					c-8.98,2.24-17.36,2.15-25.24,0.14c-7.15-1.82-12.06-8.43-12.06-15.81l0-253.43h49.98v253.13
					C2189.66,2322.63,2184.36,2329.15,2176.98,2330.99z"/>
				<g>
					<g>
						<path style="fill:#402968;" d="M1900.6,1955.24l76.35-48.26c3.18-18.03,39.16-206.64,185.27-265.87
							c59.42-24.08,123.36-21.23,158.45-19.66c70.05,3.13,120.01,5.36,144.04,38.77c30.86,42.9-20.9,81.81-10.18,204.54
							c4.37,50.05,15.48,72.28,1.64,105.43c-16.58,39.72-55.04,61.73-84.94,74.12c-35.74,20.76-97.98,50.33-180.17,57.54
							c-138.45,12.13-241.82-47.26-277.36-69.98c-15.81-4.98-27.68-18.13-31.04-34.35
							C1879.24,1981.07,1886.39,1964.22,1900.6,1955.24z"/>
					</g>
				</g>
				<path style="opacity:0.26;fill:#FFFFFF;" d="M1935.7,1989.61c2.82-16.97,50.12-2.9,94.86-36.14
					c66.88-49.68,32.17-133.84,90.35-214.57c53.39-74.09,160.88-111.8,194.25-83.57c44.42,37.58-64.29,178.1,0,268.78
					c31.23,44.05,78.81,41.93,79.05,67.76c0.39,40.82-118.03,87.89-230.38,85.83C2043.04,2075.48,1931.22,2016.55,1935.7,1989.61z"
					/>
			</g>
		</g>
		<g>
			
				<linearGradient id="SVGID_00000164485587076426356000000014796257130889247157_" gradientUnits="userSpaceOnUse" x1="1519.5654" y1="2471.4976" x2="1559.7275" y2="2507.2219" gradientTransform="matrix(-0.9902 -0.14 -0.14 0.9902 2497.2354 123.2484)">
				<stop  offset="0" style="stop-color:#444B8C"/>
				<stop  offset="0.9964" style="stop-color:#26264F"/>
			</linearGradient>
			<path style="fill:url(#SVGID_00000164485587076426356000000014796257130889247157_);" d="M635.26,2375.96
				c-1.14-6.3-21.48-12-31.54-3.56c-5,4.19-8.44,12.68-5.55,16.51c1.05,1.39-3.26,3.85,0.87,3.9
				C612.74,2392.96,636.4,2382.21,635.26,2375.96z"/>
			
				<linearGradient id="SVGID_00000021102625852357113020000017263270134332948361_" gradientUnits="userSpaceOnUse" x1="1258.2657" y1="2829.7373" x2="1258.2657" y2="2759.7708" gradientTransform="matrix(-0.9988 0.0498 0.0498 0.9988 1720.1488 -501.5929)">
				<stop  offset="0" style="stop-color:#FFC444"/>
				<stop  offset="0.9964" style="stop-color:#F36F56"/>
			</linearGradient>
			<path style="fill:url(#SVGID_00000021102625852357113020000017263270134332948361_);" d="M613.03,2375.99l-21.09,1.05
				c7.31-13.29-1.48-49.42-1.48-49.42l22.78,0.67c0,0-0.56,10.49-1.95,26.07C610.81,2359.7,611.68,2367.73,613.03,2375.99z"/>
			
				<linearGradient id="SVGID_00000000220582249128784730000005647808163441787052_" gradientUnits="userSpaceOnUse" x1="1523.6031" y1="2466.9592" x2="1563.7651" y2="2502.6833" gradientTransform="matrix(-0.9902 -0.14 -0.14 0.9902 2497.2354 123.2484)">
				<stop  offset="0" style="stop-color:#444B8C"/>
				<stop  offset="0.9964" style="stop-color:#26264F"/>
			</linearGradient>
			<path style="fill:url(#SVGID_00000000220582249128784730000005647808163441787052_);" d="M615.8,2375.67c0,0-25.18-5.8-27.9-0.81
				c-2.72,4.99-4.84,18.37,11.13,17.93C615.01,2392.37,617.22,2379.91,615.8,2375.67z"/>
			
				<linearGradient id="SVGID_00000150798155001875143370000002539001422516827820_" gradientUnits="userSpaceOnUse" x1="1693.4298" y1="2382.0276" x2="1733.5938" y2="2417.7537" gradientTransform="matrix(-1 0 0 1 2465.7488 0)">
				<stop  offset="0" style="stop-color:#444B8C"/>
				<stop  offset="0.9964" style="stop-color:#26264F"/>
			</linearGradient>
			<path style="fill:url(#SVGID_00000150798155001875143370000002539001422516827820_);" d="M763.68,2401.6
				c-2.01-6.07-22.94-8.87-31.73,0.89c-4.36,4.84-6.58,13.73-3.18,17.12c1.24,1.23-2.69,4.27,1.41,3.74
				C743.76,2421.59,765.68,2407.64,763.68,2401.6z"/>
			
				<linearGradient id="SVGID_00000018205363521035998510000018380681575930314375_" gradientUnits="userSpaceOnUse" x1="1491.317" y1="2667.1929" x2="1491.317" y2="2597.2246" gradientTransform="matrix(-0.9813 0.1926 0.1926 0.9813 1681.6942 -484.5408)">
				<stop  offset="0" style="stop-color:#FFC444"/>
				<stop  offset="0.9964" style="stop-color:#F36F56"/>
			</linearGradient>
			<path style="fill:url(#SVGID_00000018205363521035998510000018380681575930314375_);" d="M738.95,2407.45l-20.72,4.07
				c5.33-14.2-8.55-48.7-8.55-48.7l22.64-2.61c0,0,0.95,10.46,1.81,26.08C734.41,2391.65,736.43,2399.48,738.95,2407.45z"/>
			
				<linearGradient id="SVGID_00000153693091240800404450000001821937765567583154_" gradientUnits="userSpaceOnUse" x1="1697.4678" y1="2377.4895" x2="1737.6312" y2="2413.2151" gradientTransform="matrix(-1 0 0 1 2465.7488 0)">
				<stop  offset="0" style="stop-color:#444B8C"/>
				<stop  offset="0.9964" style="stop-color:#26264F"/>
			</linearGradient>
			<path style="fill:url(#SVGID_00000153693091240800404450000001821937765567583154_);" d="M744.38,2404.04
				c0,0-25.74-2.22-27.74,3.11c-2,5.32-2.22,18.86,13.54,16.2C745.93,2420.69,746.37,2408.04,744.38,2404.04z"/>
			<g>
				<path style="fill:#26264F;" d="M634.26,1773.31l88.94-208.33c4.44-10.41-1.52-22.32-12.52-24.99l-162.91-39.56
					c-8.8-2.14-17.85,2.48-21.28,10.87l-81.8,200.23c-4.07,9.97,1.3,21.29,11.6,24.44l155.78,47.66
					C621.01,1786.38,630.59,1781.92,634.26,1773.31z"/>
				<path style="fill:#EFF2F6;" d="M630.24,1763.29l83.07-194.6c4.15-9.72-1.42-20.85-11.7-23.34l-152.17-36.96
					c-8.22-2-16.67,2.32-19.87,10.15l-76.41,187.03c-3.81,9.31,1.21,19.88,10.83,22.83l145.51,44.52
					C617.86,1775.49,626.81,1771.34,630.24,1763.29z"/>
			</g>
			
				<linearGradient id="SVGID_00000128446810213834337560000014203244878073681081_" gradientUnits="userSpaceOnUse" x1="-822.3571" y1="1631.083" x2="-846.9062" y2="1743.1547" gradientTransform="matrix(-1 0 0 1 -143.3306 0)">
				<stop  offset="0" style="stop-color:#FFC444"/>
				<stop  offset="0.9964" style="stop-color:#F36F56"/>
			</linearGradient>
			<path style="fill:url(#SVGID_00000128446810213834337560000014203244878073681081_);" d="M681.53,1706.09l2.67-24.55l14.14-26.96
				c1.93-3.67,2.93-7.76,2.93-11.9v-26.77l-17.08,39.49c0,0-11.21-10.14-15.48-12.28c-4.27-2.13-3.74,6.4-0.53,9.61
				c3.2,3.2-1.6,29.35,1.6,32.02l-1.07,16.01L681.53,1706.09z"/>
			<path style="fill:#005BA9;" d="M545.97,1549.72c-13.28-32.48-41.79-51.15-56.57-60.84c-34.98-22.92-57.37-18.73-137.69-30.95
				c-107.04-16.29-119.86-31.72-155.83-19.21c-47.26,16.43-71.94,59.33-83.25,78.98c-57.03,99.1,9.65,149.47-7.47,346.89
				c-6.99,80.62-24.92,150.69,18.14,192.12c9.07,8.72,19.21,13.29,39.49,22.41c80.44,36.2,152.57,29.96,196.39,25.62
				c48.23-4.77,72.6-7.51,85.39-24.55c20.43-27.22-0.6-61.81-4.27-121.68c-2.63-42.98,7.14-77.04,26.68-145.16
				C512.43,1655,571.42,1611.94,545.97,1549.72z"/>
			<g>
				<g>
					
						<linearGradient id="SVGID_00000070108932796785828260000008589543472162476465_" gradientUnits="userSpaceOnUse" x1="2841.5212" y1="1441.8003" x2="3018.6279" y2="1664.623" gradientTransform="matrix(-0.9663 0.2576 0.2576 0.9663 2761.2429 -798.2438)">
						<stop  offset="0" style="stop-color:#FFC444"/>
						<stop  offset="0.9964" style="stop-color:#F36F56"/>
					</linearGradient>
					<path style="fill:url(#SVGID_00000070108932796785828260000008589543472162476465_);" d="M366.8,1399.51
						c4.87-17.36-3.65-33.44-5.52-36.91c-7.86-14.5-9.88-16.49-13.63-19l-5.21-3.22c0,0-0.3-0.12-0.62-0.23
						c-3.35-1.19-14.75-1.54-17.06-1.04c-7.38,1.58-15.24,31.65-13,74.16c-0.31,1.62-0.6,3.25-0.89,4.9
						c-1.16,6.71-2.09,13.29-2.8,19.73c-0.68,6.15-9.41,6.01-15.59,5.62c-25.08-1.6-37.36,0.53-38.42,4.27
						c-2,7,27.75,29.89,64.49,35.03c49.3,0.37,89.41-4.88,85.1-12.65c-1.91-3.45-40.11-13.43-50.86-23.32
						c-9.84-9.06-9.04-18.41-9.84-25.11C345.92,1420.2,363.21,1412.3,366.8,1399.51z"/>
					<path style="fill:#26264F;" d="M357.73,1328.32c-0.04,13.17-6.25,27.24-9.41,29.5c-0.41,0.29-2.71,2.11-4.77,5.21
						c-0.28,0.42-0.53,0.92-0.75,1.56c-2.89,8.3,10.31,18.07,7.76,21.78c-1.85,2.7-10.82-0.91-11.88,1.42
						c-1,2.19,6.45,6.73,5.31,9.35c-0.86,1.98-5.45,0.17-8.34,3.2c-1.44,1.51-1.02,2.71-2.55,7.33c-0.86,2.61-2.07,5.47-3.01,7.06
						c-4.55,7.73-17.44,10.56-19.92,7.46c-0.69-0.86-0.1-1.59-0.8-4.48c0,0-0.65-2.68-2.52-5.78c-2.67-4.43-9.1-7.6-15.6-12.28
						c-12.03-8.66-15.3-16.05-16.28-18.54c-0.35-0.89-0.57-1.56-0.72-2.04c-3.13-9.71-3.14-23.97,1.22-32.74
						c7.31-14.69,23.8-7.72,37.3-22.27c15.58-16.79,6.3-39.75,14.75-42.28C336.84,1278.99,357.81,1303.96,357.73,1328.32z"/>
					
						<linearGradient id="SVGID_00000029761139410342345880000006575998249183909029_" gradientUnits="userSpaceOnUse" x1="2849.9978" y1="1430.5847" x2="3047.7397" y2="1679.3691" gradientTransform="matrix(-0.9663 0.2576 0.2576 0.9663 2761.2429 -798.2438)">
						<stop  offset="0" style="stop-color:#FFC444"/>
						<stop  offset="0.9964" style="stop-color:#F36F56"/>
					</linearGradient>
					<path style="fill:url(#SVGID_00000029761139410342345880000006575998249183909029_);" d="M345.83,1383.27
						c-3.23-4.44-8.9-0.27-8.93,5.47c-0.03,5.74,5.53,11.71,10.92,10.57C353.21,1398.18,350.17,1389.24,345.83,1383.27z"/>
				</g>
				<path style="fill:#26264F;" d="M343.21,1373.67l7.49,9.74c0,0,8.07,11.94,12.79,5.4c3.85-5.34,4.85-5.22,5.08-5
					c0.04,0.04,0.06,0.11,0.07,0.1c0.07-0.02-0.56-2.66-1.13-4.98c1.99,2.86,4.74,7.5,6.4,13.75c1.62,6.07,3.35,12.56-0.07,18.8
					c-0.2,0.36-3.97,7-11.01,8.61c0,0-2.77,0.63-14.47-1.42c0,0,12.79-9.28,12.98-11.48c0.53-5.99-7.78-9.23-13.96-21.52
					C345.01,1380.92,343.83,1376.63,343.21,1373.67z"/>
			</g>
			
				<linearGradient id="SVGID_00000038381244487278135470000005078843359312427419_" gradientUnits="userSpaceOnUse" x1="-705.3448" y1="1731.2053" x2="-421.4301" y2="2002.3116" gradientTransform="matrix(-1 0 0 1 -143.3306 0)">
				<stop  offset="3.597120e-03" style="stop-color:#E38DDD"/>
				<stop  offset="1" style="stop-color:#9571F6"/>
			</linearGradient>
			<path style="opacity:0.3;fill:url(#SVGID_00000038381244487278135470000005078843359312427419_);" d="M317.56,2048.17
				c14.19-28.25-20.58-65.8,2.14-108.87c19.29-36.58,54.33-28.38,70.44-61.91c19.46-40.49-22.86-70.75-21.35-132.35
				c1.81-73.64,65.17-147.35,102.47-140.89c24.13,4.18,27.23,40.18,44.2,79.58c-15.02,32.94-32.57,74.2-48.47,129.62
				c-19.55,68.12-29.32,102.18-26.68,145.16c3.67,59.87,24.7,94.46,4.27,121.68c-12.79,17.04-37.16,19.77-85.39,24.55
				c-43.83,4.34-115.95,10.58-196.39-25.62c-10.18-4.58-17.8-8.01-24.02-11.4C264.45,2086.6,306.31,2070.58,317.56,2048.17z"/>
			<path style="fill:#005BA9;" d="M686.33,1701.29c-7.83-3.38-15.65-6.76-23.48-10.14c-13.23,13.53-30.1,26.69-44.3,22.41
				c-21.16-6.37-15.87-45.29-41.63-113.67c-29.19-77.48-62.3-97.4-78.98-104.6c-9.32-4.02-15.75-6.69-23.48-4.8
				c-35.58,8.7-47.34,101.41-37.36,170.78c5.62,39.08,16.65,115.72,79.52,152.1c8.93,5.17,58.09,33.61,106.73,11.21
				C664.91,1805.42,690.6,1756.32,686.33,1701.29z"/>
			
				<linearGradient id="SVGID_00000026160632921158673970000014697285373555185582_" gradientUnits="userSpaceOnUse" x1="-405.1905" y1="1941.337" x2="-637.9243" y2="2107.5757" gradientTransform="matrix(-1 0 0 1 -143.3306 0)">
				<stop  offset="0" style="stop-color:#444B8C"/>
				<stop  offset="0.9964" style="stop-color:#26264F"/>
			</linearGradient>
			<path style="fill:url(#SVGID_00000026160632921158673970000014697285373555185582_);" d="M626.81,2330.51
				c-13.01,1.44-26.02,2.89-39.03,4.34c-17.57-19.48-43.8-53.44-57.82-101.19c-26.86-91.47,15.19-151.51-13.01-174.91
				c-32.51-26.98-96.74,45.92-238.52,66.5c-45.63,6.62-146.93,21.33-187.92-33.25c-16.62-22.13-26.16-59.42-13.01-91.07
				c23.58-56.74,101.23-49.92,357.05-99.74c98.55-19.19,114.12-25.48,137.53-14.3C687.87,1942.15,639.58,2254.7,626.81,2330.51z"/>
			
				<linearGradient id="SVGID_00000126296724371705274110000006197355607760864701_" gradientUnits="userSpaceOnUse" x1="-907.1404" y1="2144.8972" x2="-330.7887" y2="2144.8972" gradientTransform="matrix(-1 0 0 1 -143.3306 0)">
				<stop  offset="0" style="stop-color:#444B8C"/>
				<stop  offset="0.9964" style="stop-color:#26264F"/>
			</linearGradient>
			<path style="fill:url(#SVGID_00000126296724371705274110000006197355607760864701_);" d="M742.93,2367.31
				c-13.01,1.44-26.02,2.89-39.03,4.34c-17.57-19.48-43.8-53.44-57.82-101.19c-26.86-91.47,15.19-151.51-13.01-174.91
				c-32.51-26.98-96.74,45.92-238.52,66.5c-45.63,6.62-146.93,21.33-187.92-33.25c-16.62-22.13-26.16-59.42-13.01-91.07
				c23.58-56.74,101.23-49.92,357.05-99.74c98.55-19.19,114.12-25.48,137.53-14.3C803.99,1978.95,755.71,2291.5,742.93,2367.31z"/>
		</g>
		<g>
			
				<linearGradient id="SVGID_00000144337354871110314310000012476532304323493797_" gradientUnits="userSpaceOnUse" x1="134.2958" y1="1731.8011" x2="221.4209" y2="2154.615">
				<stop  offset="0" style="stop-color:#AA80F9"/>
				<stop  offset="0.9964" style="stop-color:#6165D7"/>
			</linearGradient>
			
				<ellipse style="fill:url(#SVGID_00000144337354871110314310000012476532304323493797_);" cx="297.59" cy="2524.26" rx="215.76" ry="88.06"/>
			
				<linearGradient id="SVGID_00000011753008740245551200000005760729171016636560_" gradientUnits="userSpaceOnUse" x1="81.8275" y1="2494.9795" x2="513.3506" y2="2494.9795">
				<stop  offset="0" style="stop-color:#AA80F9"/>
				<stop  offset="0.9964" style="stop-color:#6165D7"/>
			</linearGradient>
			<path style="fill:url(#SVGID_00000011753008740245551200000005760729171016636560_);" d="M81.83,2513.93
				c0,45.91,96.6,83.12,215.76,83.12c119.16,0,215.76-37.22,215.76-83.12c0-45.91-96.6-121.02-215.76-121.02
				C178.43,2392.91,81.83,2468.02,81.83,2513.93z"/>
			
				<linearGradient id="SVGID_00000142171197139066180480000014022959525121215617_" gradientUnits="userSpaceOnUse" x1="-1051.5764" y1="2473.8123" x2="-688.9844" y2="2473.8123" gradientTransform="matrix(-1 0 0 1 -607.157 0)">
				<stop  offset="0" style="stop-color:#AA80F9"/>
				<stop  offset="0.9964" style="stop-color:#6165D7"/>
			</linearGradient>
			<path style="opacity:0.3;fill:url(#SVGID_00000142171197139066180480000014022959525121215617_);" d="M81.83,2513.93
				c0-45.91,96.6-121.02,215.76-121.02c55.02,0,105.2,16.03,143.32,37.79c2.67,5.59,3.91,11.15,3.4,16.42
				c-2.47,25.83-44.6,41.71-68.78,46.95c-60.89,13.19-90.63-23.22-140.84-21.84c-31.04,0.86-74.06,16.45-125.08,82.49
				C91.95,2542.67,81.83,2528.76,81.83,2513.93z"/>
			<path style="fill:#FFFFFF;" d="M285.77,2434.6c8.62,2.15,16.66,2.06,24.23,0.14c6.86-1.74,11.58-8.09,11.58-15.18l0-243.29H273.6
				v243C273.6,2426.58,278.69,2432.84,285.77,2434.6z"/>
			
				<linearGradient id="SVGID_00000127740363669304730960000002362560385441813390_" gradientUnits="userSpaceOnUse" x1="-928.735" y1="2306.2363" x2="-880.757" y2="2306.2363" gradientTransform="matrix(-1 0 0 1 -607.157 0)">
				<stop  offset="0" style="stop-color:#AA80F9"/>
				<stop  offset="0.9964" style="stop-color:#6165D7"/>
			</linearGradient>
			<path style="opacity:0.65;fill:url(#SVGID_00000127740363669304730960000002362560385441813390_);" d="M285.77,2434.6
				c8.62,2.15,16.66,2.06,24.23,0.14c6.86-1.74,11.58-8.09,11.58-15.18l0-243.29H273.6v243
				C273.6,2426.58,278.69,2432.84,285.77,2434.6z"/>
			<g>
				<g>
					<path style="fill:#402968;" d="M551.1,2073.88l-73.29-46.33c-3.05-17.31-37.6-198.37-177.86-255.23
						c-57.04-23.12-118.42-20.38-152.11-18.87c-67.25,3-115.21,5.15-138.28,37.22c-29.62,41.19,20.06,78.54,9.77,196.36
						c-4.2,48.05-14.86,69.39-1.58,101.21c15.92,38.13,52.84,59.26,81.54,71.16c34.31,19.93,94.06,48.32,172.96,55.23
						c132.92,11.65,232.14-45.37,266.27-67.18c15.17-4.78,26.58-17.4,29.8-32.98C571.6,2098.68,564.73,2082.5,551.1,2073.88z"/>
				</g>
			</g>
			<path style="opacity:0.26;fill:#FFFFFF;" d="M517.4,2106.88c-2.71-16.29-48.12-2.79-91.07-34.69
				c-64.21-47.69-30.88-128.49-86.73-205.99c-51.26-71.13-154.44-107.33-186.48-80.23c-42.64,36.07,61.72,170.98,0,258.03
				c-29.98,42.29-75.66,40.25-75.89,65.05c-0.37,39.19,113.31,84.37,221.17,82.4C414.35,2189.32,521.7,2132.74,517.4,2106.88z"/>
		</g>
		<g>
			<path style="fill:#26264F;" d="M926.15,1583.77c-1.29,0.02-2.38,0.7-2.55,1.72c-0.03,0.15,1.33,5.73,1.34,5.89
				c0.07,1.27,1.18,2.55,2.69,3.11l126.61,46.32l225.32-50.57l-110.83-4.76L926.15,1583.77z"/>
			<path style="fill:#444B8C;" d="M925.98,1583.01c-1.49,0.02-2.49,0.94-2.42,2.21c0.07,1.27,1.18,2.56,2.7,3.12l126.86,46.46
				l225.72-50.83l-111.04-4.74L925.98,1583.01z"/>
			
				<linearGradient id="SVGID_00000108279612453037198160000005329648964132955284_" gradientUnits="userSpaceOnUse" x1="950.71" y1="1575.7794" x2="1268.1139" y2="1575.7794" gradientTransform="matrix(0.9981 -0.0611 0.0611 0.9981 -3.9608 14.6864)">
				<stop  offset="0" style="stop-color:#40447E"/>
				<stop  offset="0.9964" style="stop-color:#3C3B6B"/>
			</linearGradient>
			<path style="fill:url(#SVGID_00000108279612453037198160000005329648964132955284_);" d="M1047.55,1632.74l-5.04-208.64
				c-0.09-3.57,2.66-6.2,6.64-6.33l292.59-10.18c2.67-0.09,5.4,0.9,7.45,2.71c2.04,1.8,3.18,4.22,3.1,6.59l-6.75,199.58
				c-0.11,3.24-2.91,5.65-6.75,5.83l-283.99,13.15L1047.55,1632.74z"/>
			<path style="fill:#26264F;" d="M1054.24,1640.8l-4.51-212.47c-0.08-3.56,2.68-6.18,6.65-6.31l292.45-10.09
				c2.66-0.09,5.39,0.9,7.44,2.7c2.04,1.8,3.17,4.22,3.09,6.58l-7.16,199.18c-0.12,3.22-2.89,5.62-6.72,5.81L1054.24,1640.8z"/>
			<path style="fill:#1F1F44;" d="M1054.24,1640.8l291.23-14.61c3.82-0.19,6.6-2.59,6.72-5.81l2.07-57.54
				c-88.45,33.3-199.51,26.76-300.98,32.59L1054.24,1640.8z"/>
		</g>
		<g>
			<g>
				<path style="fill:#F68837;" d="M969.57,746.09c23.64-29.6,37.25-64.35,37.25-101.53c0-108.09-115.09-195.72-257.07-195.72
					s-257.07,87.63-257.07,195.72s115.09,195.72,257.07,195.72c53.21,0,102.64-12.31,143.66-33.39c27.11,4.62,69.19,12.4,91.4,16.53
					c6.54,1.22,11.9-5.18,9.55-11.4L969.57,746.09z"/>
				<g style="opacity:0.3;">
					
						<linearGradient id="SVGID_00000159465768819948568500000007566696311288594336_" gradientUnits="userSpaceOnUse" x1="1040.4993" y1="509.312" x2="1486.6608" y2="1096.8972" gradientTransform="matrix(1 0 0 1 -479.9574 0)">
						<stop  offset="0" style="stop-color:#FF9085"/>
						<stop  offset="1" style="stop-color:#FB6FBB"/>
					</linearGradient>
					<path style="fill:url(#SVGID_00000159465768819948568500000007566696311288594336_);" d="M890.42,685.98
						c-57.64-24.23-121.03,26.91-160.66-8.76c-39.95-35.96,3.21-107.07-35.05-157.74c-18.24-24.16-48.89-35.59-83.95-39.59
						c-71.03,34.83-118.08,95.56-118.08,164.67c0,108.09,115.09,195.72,257.07,195.72c53.21,0,102.64-12.31,143.66-33.39
						c21.39,3.65,52.09,9.26,75.01,13.49C951.51,732.74,920.42,698.59,890.42,685.98z"/>
				</g>
			</g>
			<g>
				<path style="opacity:0.8;fill:#FFFFFF;" d="M654.96,513.24c-4.26,1.73-8.35,3.75-12.25,6.05c-0.24-0.34-0.49-0.68-0.77-1.01
					c-5.41-6.35-15.31-6.81-22.12-1.01c-6.81,5.79-7.95,15.63-2.54,21.98c0.28,0.33,0.58,0.64,0.89,0.94
					c-2.92,3.51-5.58,7.22-7.94,11.1c-0.4-0.17-0.8-0.33-1.23-0.47c-8.09-2.6-17.23,1.92-20.42,10.11
					c-3.19,8.19,0.77,16.94,8.86,19.55c0.41,0.13,0.83,0.24,1.25,0.33c-0.84,4.33-1.35,8.73-1.51,13.18
					c-0.44,0.06-0.88,0.12-1.33,0.22c-8.6,1.84-14.54,10.14-13.26,18.53c1.28,8.4,9.29,13.71,17.89,11.87
					c0.45-0.1,0.88-0.22,1.31-0.35c1.46,4.1,3.23,8.02,5.3,11.73c-0.36,0.26-0.73,0.53-1.07,0.83c-6.81,5.79-7.95,15.63-2.54,21.98
					c5.41,6.35,15.31,6.81,22.12,1.01c0.36-0.3,0.69-0.62,1.01-0.95c3.36,2.65,6.94,5.03,10.72,7.11c-0.2,0.41-0.39,0.82-0.56,1.25
					c-3.19,8.19,0.77,16.94,8.86,19.55c8.09,2.6,17.23-1.92,20.42-10.11c0.16-0.42,0.3-0.84,0.42-1.26
					c4.33,0.54,8.76,0.74,13.26,0.59c0.03,0.43,0.06,0.87,0.13,1.3c1.28,8.4,9.29,13.71,17.89,11.87
					c8.6-1.84,14.54-10.14,13.26-18.53c-0.07-0.44-0.16-0.86-0.26-1.27c4.26-1.73,8.35-3.75,12.25-6.05
					c0.24,0.34,0.49,0.68,0.77,1.01c5.41,6.35,15.31,6.81,22.12,1.02c6.81-5.79,7.95-15.63,2.54-21.98
					c-0.28-0.33-0.58-0.64-0.89-0.94c2.92-3.51,5.58-7.22,7.94-11.1c0.4,0.17,0.8,0.33,1.23,0.47c8.09,2.6,17.23-1.92,20.42-10.11
					c3.19-8.19-0.77-16.94-8.86-19.55c-0.41-0.13-0.83-0.24-1.25-0.33c0.84-4.33,1.35-8.73,1.51-13.18
					c0.44-0.06,0.88-0.12,1.33-0.22c8.6-1.84,14.54-10.14,13.26-18.53c-1.28-8.4-9.29-13.71-17.89-11.87
					c-0.45,0.1-0.88,0.22-1.31,0.35c-1.46-4.1-3.23-8.02-5.3-11.73c0.36-0.26,0.73-0.53,1.07-0.83c6.81-5.79,7.95-15.63,2.54-21.98
					c-5.41-6.35-15.31-6.81-22.12-1.01c-0.36,0.3-0.69,0.62-1.01,0.95c-3.36-2.65-6.94-5.03-10.72-7.11
					c0.2-0.41,0.39-0.82,0.56-1.25c3.19-8.19-0.77-16.94-8.86-19.55c-8.09-2.6-17.23,1.92-20.42,10.11
					c-0.16,0.42-0.3,0.84-0.42,1.26c-4.33-0.54-8.76-0.74-13.26-0.59c-0.03-0.43-0.06-0.87-0.13-1.3
					c-1.28-8.4-9.29-13.71-17.89-11.87c-8.6,1.84-14.54,10.14-13.26,18.53C654.77,512.4,654.86,512.82,654.96,513.24z
					 M674.45,536.12c31.22-6.68,60.3,12.62,64.94,43.1c4.64,30.48-16.91,60.61-48.14,67.28c-31.22,6.68-60.3-12.62-64.94-43.1
					C621.68,572.92,643.23,542.79,674.45,536.12z"/>
				<path style="opacity:0.8;fill:#FFFFFF;" d="M805.24,643.7c-3.13,1.27-6.13,2.75-8.99,4.44c-0.18-0.25-0.36-0.5-0.56-0.74
					c-3.97-4.66-11.24-4.99-16.23-0.74c-5,4.25-5.83,11.47-1.86,16.14c0.21,0.24,0.43,0.47,0.65,0.69c-2.14,2.58-4.09,5.3-5.83,8.15
					c-0.29-0.12-0.59-0.24-0.9-0.34c-5.94-1.91-12.65,1.41-14.99,7.42c-2.34,6.01,0.57,12.43,6.5,14.35c0.3,0.1,0.61,0.17,0.92,0.24
					c-0.62,3.18-0.99,6.41-1.11,9.67c-0.32,0.04-0.65,0.09-0.98,0.16c-6.31,1.35-10.67,7.44-9.73,13.6
					c0.94,6.16,6.82,10.06,13.13,8.71c0.33-0.07,0.65-0.16,0.96-0.25c1.07,3.01,2.37,5.89,3.89,8.61c-0.27,0.19-0.53,0.39-0.79,0.61
					c-5,4.25-5.83,11.47-1.86,16.14c3.97,4.66,11.24,4.99,16.23,0.74c0.26-0.22,0.5-0.46,0.74-0.69c2.47,1.95,5.1,3.69,7.87,5.22
					c-0.15,0.3-0.29,0.6-0.41,0.92c-2.34,6.01,0.57,12.43,6.5,14.35c5.94,1.91,12.65-1.41,14.99-7.42c0.12-0.31,0.22-0.62,0.31-0.93
					c3.18,0.4,6.43,0.54,9.73,0.44c0.02,0.32,0.05,0.64,0.1,0.96c0.94,6.16,6.82,10.06,13.13,8.71c6.31-1.35,10.67-7.44,9.73-13.6
					c-0.05-0.32-0.12-0.63-0.19-0.94c3.13-1.27,6.13-2.75,8.99-4.44c0.18,0.25,0.36,0.5,0.56,0.74c3.97,4.66,11.24,4.99,16.23,0.74
					c5-4.25,5.83-11.47,1.86-16.14c-0.21-0.24-0.43-0.47-0.65-0.69c2.14-2.58,4.09-5.3,5.83-8.15c0.29,0.12,0.59,0.24,0.9,0.34
					c5.94,1.91,12.65-1.41,14.99-7.42c2.34-6.01-0.57-12.43-6.5-14.35c-0.3-0.1-0.61-0.17-0.92-0.24c0.62-3.18,0.99-6.41,1.11-9.67
					c0.32-0.04,0.65-0.09,0.98-0.16c6.31-1.35,10.67-7.44,9.73-13.6c-0.94-6.16-6.82-10.06-13.13-8.71
					c-0.33,0.07-0.65,0.16-0.96,0.26c-1.07-3.01-2.37-5.89-3.89-8.61c0.27-0.19,0.53-0.39,0.79-0.61c5-4.25,5.83-11.47,1.86-16.14
					c-3.97-4.66-11.24-4.99-16.23-0.74c-0.26,0.22-0.5,0.46-0.74,0.69c-2.47-1.95-5.1-3.69-7.87-5.22c0.15-0.3,0.29-0.6,0.41-0.92
					c2.34-6.01-0.57-12.43-6.5-14.35c-5.94-1.91-12.65,1.41-14.99,7.42c-0.12,0.31-0.22,0.62-0.31,0.93
					c-3.18-0.4-6.43-0.54-9.73-0.44c-0.02-0.32-0.05-0.64-0.1-0.96c-0.94-6.16-6.82-10.06-13.13-8.71
					c-6.31,1.35-10.67,7.44-9.73,13.6C805.1,643.08,805.17,643.39,805.24,643.7z M819.55,660.49c22.92-4.9,44.26,9.26,47.66,31.64
					c3.4,22.37-12.41,44.48-35.33,49.38c-22.92,4.9-44.26-9.26-47.66-31.64C780.81,687.5,796.63,665.39,819.55,660.49z"/>
			</g>
		</g>
	</g>
</g>
</svg>
