<?xml version="1.0" encoding="utf-8"?>
<!-- Generator: Adobe Illustrator 26.3.1, SVG Export Plug-In . SVG Version: 6.00 Build 0)  -->
<svg version="1.1" id="Layer_1" xmlns="http://www.w3.org/2000/svg" xmlns:xlink="http://www.w3.org/1999/xlink" x="0px" y="0px"
	 viewBox="0 0 374.3 249.7" style="enable-background:new 0 0 374.3 249.7;" xml:space="preserve">
<style type="text/css">
	.st0{fill:none;stroke:#0F5BA7;stroke-width:2;stroke-miterlimit:10;}
	.st1{fill:url(#SVGID_1_);}
	.st2{fill:#0F5BA7;}
	.st3{fill:#26C4CF;}
	.st4{fill:#0D4675;}
	.st5{fill:url(#SVGID_00000163758660445988397970000004526904893438510466_);}
	.st6{fill:#FFFFFF;}
	.st7{fill:none;stroke:#FFFFFF;stroke-miterlimit:10;}
	.st8{fill:none;stroke:#96EAEA;stroke-miterlimit:10;}
	.st9{fill:#2481CE;}
	.st10{fill:#C7B1FC;}
	.st11{fill:#422C6C;}
	.st12{fill:url(#SVGID_00000155830584142142194970000010971918681316478367_);}
	.st13{fill:none;stroke:url(#SVGID_00000018208472302594473860000011938262526073079955_);stroke-width:2;stroke-miterlimit:10;}
	.st14{fill:#DE2C38;}
	.st15{fill:#A3111F;}
	.st16{fill:#FFA9A8;}
	.st17{fill:#2C4784;}
	.st18{fill:#F48989;}
	.st19{fill:#411587;}
	.st20{fill:#2C233A;}
	.st21{fill:#37137C;}
	.st22{fill:none;stroke:#5531AD;stroke-width:0.75;stroke-miterlimit:10;}
	.st23{fill:none;stroke:#F7A17B;stroke-miterlimit:10;}
	.st24{fill:#96EAEA;}
	.st25{opacity:0.8;}
	.st26{fill:none;stroke:url(#SVGID_00000178903730188504704820000009245075418143071875_);stroke-miterlimit:10;}
	.st27{fill:url(#SVGID_00000129903368226905227370000010597088348621306262_);}
	.st28{fill:url(#SVGID_00000098184365504605914700000001620426644749223067_);}
	.st29{fill:#F47322;}
	.st30{fill:#F78F1E;}
	.st31{fill:#4BC2C0;}
	.st32{fill:#B93F7A;}
</style>
<g>
	<g>
		<g>
			<line class="st0" x1="231.2" y1="232.5" x2="238.9" y2="232.5"/>
			
				<linearGradient id="SVGID_1_" gradientUnits="userSpaceOnUse" x1="217.635" y1="126.4218" x2="217.635" y2="46.6957" gradientTransform="matrix(1 0 0 -1 0 249.8898)">
				<stop  offset="0" style="stop-color:#FFFFFF;stop-opacity:0"/>
				<stop  offset="0.2444" style="stop-color:#FDFDFE;stop-opacity:0.2444"/>
				<stop  offset="0.3838" style="stop-color:#F4F8FB;stop-opacity:0.3838"/>
				<stop  offset="0.4968" style="stop-color:#E6EEF6;stop-opacity:0.4968"/>
				<stop  offset="0.5958" style="stop-color:#D3E1EF;stop-opacity:0.5958"/>
				<stop  offset="0.6855" style="stop-color:#B9CFE5;stop-opacity:0.6855"/>
				<stop  offset="0.7684" style="stop-color:#99B9DA;stop-opacity:0.7684"/>
				<stop  offset="0.8463" style="stop-color:#74A0CC;stop-opacity:0.8463"/>
				<stop  offset="0.9201" style="stop-color:#4882BC;stop-opacity:0.9201"/>
				<stop  offset="0.9883" style="stop-color:#1861AA;stop-opacity:0.9883"/>
				<stop  offset="1" style="stop-color:#0F5BA7"/>
			</linearGradient>
			<rect x="214.1" y="123.1" class="st1" width="7.1" height="76.1"/>
			<g>
				<path class="st2" d="M205.6,247.2h23.6v-39.9c0-1.1-0.9-2-2-2h-19.6c-1.1,0-2,0.9-2,2L205.6,247.2L205.6,247.2z"/>
				<path class="st3" d="M211.6,212.9h11.8c1.3,0,2.3-1,2.3-2.3l0,0c0-1.3-1-2.3-2.3-2.3h-11.8c-1.3,0-2.3,1-2.3,2.3l0,0
					C209.3,211.9,210.3,212.9,211.6,212.9z"/>
				<path class="st3" d="M211.6,218.9h11.8c1.3,0,2.3-1,2.3-2.3l0,0c0-1.3-1-2.3-2.3-2.3h-11.8c-1.3,0-2.3,1-2.3,2.3l0,0
					C209.3,217.9,210.3,218.9,211.6,218.9z"/>
				<path class="st3" d="M211.6,224.9h11.8c1.3,0,2.3-1,2.3-2.3l0,0c0-1.3-1-2.3-2.3-2.3h-11.8c-1.3,0-2.3,1-2.3,2.3l0,0
					C209.3,223.8,210.3,224.9,211.6,224.9z"/>
				<g>
					<rect x="213.1" y="243.9" class="st3" width="8.7" height="0.6"/>
					<rect x="213.1" y="242.4" class="st3" width="8.7" height="0.6"/>
				</g>
				<path class="st4" d="M211.6,202.3h12.1c1.7,0,3,1.4,3,3l0,0h-18.2l0,0C208.5,203.6,209.9,202.3,211.6,202.3z"/>
				<polygon class="st2" points="214.1,199.2 221.2,199.2 221.2,202.3 214.1,202.3 				"/>
				<path class="st4" d="M231.2,228.7v7.6c0,1.1-0.9,1.9-1.9,1.9l0,0v-11.4l0,0C230.3,226.8,231.2,227.6,231.2,228.7z"/>
				<polygon class="st2" points="233.1,230.2 233.1,234.7 231.2,234.7 231.2,230.2 				"/>
				<circle class="st3" cx="217.5" cy="237.6" r="1.8"/>
			</g>
		</g>
		<g>
			<line class="st0" x1="310" y1="232.5" x2="302.4" y2="232.5"/>
			
				<linearGradient id="SVGID_00000101781402808530967440000008825844035346710674_" gradientUnits="userSpaceOnUse" x1="23.9594" y1="126.4218" x2="23.9594" y2="46.6957" gradientTransform="matrix(-1 0 0 -1 347.5344 249.8898)">
				<stop  offset="0" style="stop-color:#FFFFFF;stop-opacity:0"/>
				<stop  offset="0.2444" style="stop-color:#FDFDFE;stop-opacity:0.2444"/>
				<stop  offset="0.3838" style="stop-color:#F4F8FB;stop-opacity:0.3838"/>
				<stop  offset="0.4968" style="stop-color:#E6EEF6;stop-opacity:0.4968"/>
				<stop  offset="0.5958" style="stop-color:#D3E1EF;stop-opacity:0.5958"/>
				<stop  offset="0.6855" style="stop-color:#B9CFE5;stop-opacity:0.6855"/>
				<stop  offset="0.7684" style="stop-color:#99B9DA;stop-opacity:0.7684"/>
				<stop  offset="0.8463" style="stop-color:#74A0CC;stop-opacity:0.8463"/>
				<stop  offset="0.9201" style="stop-color:#4882BC;stop-opacity:0.9201"/>
				<stop  offset="0.9883" style="stop-color:#1861AA;stop-opacity:0.9883"/>
				<stop  offset="1" style="stop-color:#0F5BA7"/>
			</linearGradient>
			
				<rect x="320" y="123.1" style="fill:url(#SVGID_00000101781402808530967440000008825844035346710674_);" width="7.1" height="76.1"/>
			<g>
				<path class="st2" d="M335.6,247.2h-23.6v-39.9c0-1.1,0.9-2,2-2h19.6c1.1,0,2,0.9,2,2L335.6,247.2L335.6,247.2z"/>
				<path class="st3" d="M329.6,212.9h-11.8c-1.3,0-2.3-1-2.3-2.3l0,0c0-1.3,1-2.3,2.3-2.3h11.8c1.3,0,2.3,1,2.3,2.3l0,0
					C331.9,211.9,330.9,212.9,329.6,212.9z"/>
				<path class="st3" d="M329.6,218.9h-11.8c-1.3,0-2.3-1-2.3-2.3l0,0c0-1.3,1-2.3,2.3-2.3h11.8c1.3,0,2.3,1,2.3,2.3l0,0
					C331.9,217.9,330.9,218.9,329.6,218.9z"/>
				<path class="st3" d="M329.6,224.9h-11.8c-1.3,0-2.3-1-2.3-2.3l0,0c0-1.3,1-2.3,2.3-2.3h11.8c1.3,0,2.3,1,2.3,2.3l0,0
					C331.9,223.8,330.9,224.9,329.6,224.9z"/>
				<g>
					<rect x="319.4" y="243.9" class="st3" width="8.7" height="0.6"/>
					<rect x="319.4" y="242.4" class="st3" width="8.7" height="0.6"/>
				</g>
				<path class="st4" d="M329.6,202.3h-12.1c-1.7,0-3,1.4-3,3l0,0h18.2l0,0C332.7,203.6,331.3,202.3,329.6,202.3z"/>
				<rect x="320" y="199.2" class="st2" width="7.1" height="3"/>
				<path class="st4" d="M310,228.7v7.6c0,1.1,0.9,1.9,1.9,1.9l0,0v-11.4l0,0C310.9,226.8,310,227.6,310,228.7z"/>
				<polygon class="st2" points="308.1,230.2 308.1,234.7 310,234.7 310,230.2 				"/>
				<circle class="st3" cx="323.7" cy="237.6" r="1.8"/>
			</g>
		</g>
		<g>
			<path class="st2" d="M90.3,203.7v43.5h99.2v-43.5c0-2.5-2-4.5-4.5-4.5H94.8C92.3,199.2,90.3,201.2,90.3,203.7z"/>
			<circle class="st6" cx="149.9" cy="215.9" r="2.6"/>
			<circle class="st6" cx="149.9" cy="223.7" r="2.6"/>
			<circle class="st6" cx="149.9" cy="231.5" r="2.6"/>
			<path class="st7" d="M94.4,206.2v37.5h90.9v-36.5c0-2.5-2-4.5-4.5-4.5h-83C96,202.8,94.4,204.3,94.4,206.2z"/>
			<g>
				<path class="st3" d="M103.7,221.7h27c1,0,1.8-0.8,1.8-1.8v-8.8c0-1-0.8-1.8-1.8-1.8h-26.9c-1,0-1.8,0.8-1.8,1.8v8.8
					C102,220.9,102.8,221.7,103.7,221.7z"/>
				<path class="st3" d="M103.7,237.7h27c1,0,1.8-0.8,1.8-1.8v-8.8c0-1-0.8-1.8-1.8-1.8h-26.9c-1,0-1.8,0.8-1.8,1.8v8.8
					C102,236.9,102.8,237.7,103.7,237.7z"/>
			</g>
		</g>
		<path class="st8" d="M271,125.6v-23c0-2-1.6-3.6-3.6-3.6h-66.8"/>
		<rect x="0" y="45.8" class="st2" width="109.1" height="68.9"/>
		<g>
			<rect x="42" y="105.8" class="st9" width="57.7" height="2.3"/>
			<rect x="42" y="101.3" class="st9" width="57.7" height="2.3"/>
			<rect x="42" y="96.9" class="st9" width="57.7" height="2.3"/>
			<rect x="84.1" y="92.4" class="st9" width="15.6" height="2.3"/>
			<rect x="84.1" y="88" class="st9" width="15.6" height="2.3"/>
		</g>
		<g>
			<path class="st9" d="M84.8,76.2c0-3.8,3.1-7,7-7c3.8,0,7,3.1,7,7s-3.1,7-7,7C87.9,83.2,84.8,80.1,84.8,76.2z M85,76.2
				C85,80,88,83,91.8,83c3.8,0,6.8-3.1,6.8-6.8c0-3.8-3.1-6.8-6.8-6.8C88,69.4,85,72.5,85,76.2z"/>
			<path class="st9" d="M91.8,70V71c-2.9,0-5.3,2.4-5.3,5.3h-0.9C85.6,72.8,88.4,70,91.8,70z"/>
			<g>
				<path class="st10" d="M91.9,82.1c0.1,0,0.1,0,0.1,0l0,0.8c-0.1,0-0.1,0-0.2,0L91.9,82.1z M91.4,82.8l0.1-0.8c0.1,0,0.1,0,0.1,0
					l0,0.8C91.5,82.8,91.4,82.8,91.4,82.8z M92.3,82.1c0.1,0,0.1,0,0.1,0l0.1,0.7c-0.1,0-0.1,0-0.2,0L92.3,82.1z M90.9,82.8L91,82
					c0.1,0,0.1,0,0.1,0l-0.1,0.7C91,82.8,91,82.8,90.9,82.8z M92.7,82c0.1,0,0.1,0,0.1,0l0.1,0.7c-0.1,0-0.1,0-0.2,0L92.7,82z
					 M90.4,82.7l0.2-0.7c0.1,0,0.1,0,0.1,0l-0.1,0.7C90.6,82.7,90.5,82.7,90.4,82.7z M93.1,81.9c0.1,0,0.1,0,0.1,0l0.2,0.7
					c-0.1,0-0.1,0-0.2,0L93.1,81.9z M90,82.6l0.2-0.7c0,0,0.1,0,0.1,0l-0.2,0.7C90.1,82.6,90,82.6,90,82.6z M93.5,81.8
					c0.1,0,0.1,0,0.1,0l0.2,0.7c-0.1,0-0.1,0-0.2,0.1L93.5,81.8z M89.5,82.4l0.3-0.7c0,0,0.1,0,0.1,0.1l-0.2,0.7
					C89.6,82.5,89.6,82.4,89.5,82.4z M93.9,81.7c0,0,0.1,0,0.1-0.1l0.3,0.7c-0.1,0-0.1,0-0.2,0.1L93.9,81.7z M89.1,82.2l0.3-0.7
					c0,0,0.1,0,0.1,0.1l-0.3,0.7C89.2,82.3,89.1,82.3,89.1,82.2z M94.3,81.5c0,0,0.1,0,0.1-0.1l0.3,0.7c-0.1,0-0.1,0.1-0.1,0.1
					L94.3,81.5z M88.7,82l0.4-0.7c0,0,0.1,0,0.1,0.1l-0.3,0.7C88.8,82.1,88.7,82.1,88.7,82z M94.7,81.3c0,0,0.1-0.1,0.1-0.1l0.4,0.6
					c-0.1,0-0.1,0.1-0.1,0.1L94.7,81.3z M88.3,81.8l0.4-0.6c0,0,0.1,0.1,0.1,0.1l-0.4,0.6C88.3,81.8,88.3,81.8,88.3,81.8z M95,81.1
					c0,0,0.1-0.1,0.1-0.1l0.4,0.6c0,0-0.1,0.1-0.1,0.1L95,81.1z M87.9,81.5l0.4-0.6c0,0,0.1,0.1,0.1,0.1L88,81.6
					C87.9,81.6,87.9,81.6,87.9,81.5z M95.4,80.8c0,0,0.1-0.1,0.1-0.1l0.5,0.6c0,0-0.1,0.1-0.1,0.1L95.4,80.8z M87.5,81.2l0.5-0.6
					c0,0,0.1,0.1,0.1,0.1l-0.5,0.6C87.6,81.3,87.5,81.3,87.5,81.2z M95.7,80.6C95.7,80.5,95.8,80.5,95.7,80.6l0.6,0.4
					c0,0-0.1,0.1-0.1,0.1L95.7,80.6z M87.2,80.9l0.5-0.5c0,0,0.1,0.1,0.1,0.1L87.3,81C87.2,81,87.2,80.9,87.2,80.9z M96,80.3
					C96,80.2,96.1,80.2,96,80.3l0.7,0.4c0,0-0.1,0.1-0.1,0.1L96,80.3z M86.8,80.6l0.6-0.5c0,0,0.1,0.1,0.1,0.1l-0.6,0.5
					C86.9,80.6,86.9,80.6,86.8,80.6z M96.3,80c0,0,0.1-0.1,0.1-0.1l0.6,0.5c0,0-0.1,0.1-0.1,0.1L96.3,80z M86.5,80.2l0.6-0.4
					c0,0,0.1,0.1,0.1,0.1l-0.6,0.5C86.6,80.3,86.6,80.2,86.5,80.2z M96.5,79.6c0,0,0.1-0.1,0.1-0.1l0.6,0.4c0,0-0.1,0.1-0.1,0.1
					L96.5,79.6z M86.2,79.8l0.6-0.4c0,0,0.1,0.1,0.1,0.1l-0.6,0.4C86.3,79.9,86.3,79.8,86.2,79.8z M96.8,79.3c0,0,0.1-0.1,0.1-0.1
					l0.7,0.4c0,0.1-0.1,0.1-0.1,0.1L96.8,79.3z M86,79.4l0.7-0.4c0,0,0.1,0.1,0.1,0.1l-0.7,0.4C86.1,79.5,86,79.4,86,79.4z M97,78.9
					c0,0,0-0.1,0.1-0.1l0.7,0.3c0,0.1-0.1,0.1-0.1,0.1L97,78.9z M85.8,79l0.7-0.3c0,0,0,0.1,0.1,0.1l-0.7,0.3
					C85.8,79.1,85.8,79,85.8,79z M97.2,78.5c0,0,0-0.1,0.1-0.1l0.7,0.3c0,0.1,0,0.1-0.1,0.2L97.2,78.5z M85.6,78.5l0.7-0.3
					c0,0,0,0.1,0.1,0.1l-0.7,0.3C85.7,78.6,85.6,78.6,85.6,78.5z M97.3,78.1c0,0,0-0.1,0-0.1l0.7,0.2c0,0.1,0,0.1-0.1,0.2L97.3,78.1
					z M85.5,78.1l0.7-0.2c0,0.1,0,0.1,0,0.1l-0.7,0.2C85.5,78.2,85.5,78.1,85.5,78.1z M97.4,77.7c0-0.1,0-0.1,0-0.1l0.7,0.2
					c0,0.1,0,0.1,0,0.2L97.4,77.7z M85.3,77.6l0.7-0.2c0,0.1,0,0.1,0,0.1l-0.7,0.2C85.4,77.7,85.4,77.7,85.3,77.6z M97.5,77.3
					c0-0.1,0-0.1,0-0.1l0.7,0.1c0,0.1,0,0.1,0,0.2L97.5,77.3z M85.3,77.1L86,77c0,0.1,0,0.1,0,0.1l-0.7,0.1
					C85.3,77.2,85.3,77.2,85.3,77.1z M97.6,76.9c0-0.1,0-0.1,0-0.1l0.7,0.1c0,0.1,0,0.1,0,0.2L97.6,76.9z M85.2,76.7l0.8-0.1
					c0,0.1,0,0.1,0,0.1l-0.7,0.1C85.2,76.8,85.2,76.7,85.2,76.7z M97.6,76.5c0-0.1,0-0.1,0-0.1l0.8,0c0,0.1,0,0.1,0,0.2L97.6,76.5z
					 M85.2,76.2L85.2,76.2l0.8,0v0c0,0,0,0.1,0,0.1l-0.8,0C85.2,76.3,85.2,76.3,85.2,76.2z M97.6,75.9l0.8,0c0,0.1,0,0.1,0,0.2
					l-0.8,0C97.6,76,97.6,76,97.6,75.9z M85.2,75.9c0-0.1,0-0.1,0-0.2l0.7,0.1c0,0.1,0,0.1,0,0.1L85.2,75.9z M97.6,75.5l0.7-0.1
					c0,0.1,0,0.1,0,0.2l-0.7,0.1C97.6,75.6,97.6,75.5,97.6,75.5z M85.3,75.4c0-0.1,0-0.1,0-0.2l0.7,0.1c0,0.1,0,0.1,0,0.1L85.3,75.4
					z M97.5,75.1l0.7-0.2c0,0.1,0,0.1,0,0.2l-0.7,0.1C97.5,75.2,97.5,75.1,97.5,75.1z M85.3,74.9c0-0.1,0-0.1,0-0.2l0.7,0.2
					c0,0.1,0,0.1,0,0.1L85.3,74.9z M97.4,74.7l0.7-0.2c0,0.1,0,0.1,0,0.2l-0.7,0.2C97.4,74.8,97.4,74.7,97.4,74.7z M85.4,74.5
					c0-0.1,0-0.1,0-0.2l0.7,0.2c0,0,0,0.1,0,0.1L85.4,74.5z M97.3,74.3L98,74c0,0.1,0,0.1,0.1,0.2l-0.7,0.2
					C97.3,74.4,97.3,74.3,97.3,74.3z M85.6,74c0-0.1,0-0.1,0.1-0.2l0.7,0.3c0,0,0,0.1-0.1,0.1L85.6,74z M97.1,73.9l0.7-0.3
					c0,0.1,0,0.1,0.1,0.2L97.2,74C97.2,74,97.2,73.9,97.1,73.9z M85.8,73.6c0-0.1,0-0.1,0.1-0.2l0.7,0.3c0,0,0,0.1-0.1,0.1
					L85.8,73.6z M97,73.5l0.7-0.3c0,0.1,0.1,0.1,0.1,0.1L97,73.6C97,73.6,97,73.5,97,73.5z M86,73.1c0-0.1,0.1-0.1,0.1-0.1l0.7,0.4
					c0,0-0.1,0.1-0.1,0.1L86,73.1z M96.8,73.1l0.6-0.4c0,0,0.1,0.1,0.1,0.1l-0.6,0.4C96.8,73.2,96.8,73.2,96.8,73.1z M86.2,72.7
					c0,0,0.1-0.1,0.1-0.1l0.6,0.4c0,0-0.1,0.1-0.1,0.1L86.2,72.7z M96.5,72.8l0.6-0.4c0,0,0.1,0.1,0.1,0.1l-0.6,0.4
					C96.6,72.9,96.5,72.8,96.5,72.8z M86.5,72.3c0,0,0.1-0.1,0.1-0.1l0.6,0.5c0,0-0.1,0.1-0.1,0.1L86.5,72.3z M96.2,72.5l0.6-0.5
					c0,0,0.1,0.1,0.1,0.1l-0.6,0.5C96.3,72.5,96.3,72.5,96.2,72.5z M86.8,72c0,0,0.1-0.1,0.1-0.1l0.6,0.5c0,0-0.1,0.1-0.1,0.1
					L86.8,72z M96,72.1l0.5-0.5c0,0,0.1,0.1,0.1,0.1l-0.5,0.5C96,72.2,96,72.2,96,72.1z M87.1,71.6c0,0,0.1-0.1,0.1-0.1l0.5,0.5
					c0,0-0.1,0.1-0.1,0.1L87.1,71.6z M95.7,71.8l0.5-0.6c0,0,0.1,0.1,0.1,0.1L95.8,72C95.7,71.9,95.7,71.9,95.7,71.8z M87.4,71.3
					c0,0,0.1-0.1,0.1-0.1l0.5,0.6c0,0-0.1,0.1-0.1,0.1L87.4,71.3z M95.3,71.6l0.4-0.6c0,0,0.1,0.1,0.1,0.1l-0.5,0.6
					C95.4,71.6,95.4,71.6,95.3,71.6z M87.8,71c0,0,0.1-0.1,0.1-0.1l0.4,0.6c0,0-0.1,0.1-0.1,0.1L87.8,71z M95,71.3l0.4-0.6
					c0,0,0.1,0.1,0.1,0.1l-0.4,0.6C95.1,71.4,95,71.4,95,71.3z M88.2,70.7c0,0,0.1-0.1,0.1-0.1l0.4,0.6c0,0-0.1,0.1-0.1,0.1
					L88.2,70.7z M94.6,71.1l0.4-0.7c0.1,0,0.1,0.1,0.1,0.1l-0.4,0.6C94.7,71.2,94.7,71.2,94.6,71.1z M88.6,70.5
					c0.1,0,0.1-0.1,0.1-0.1l0.3,0.7c0,0-0.1,0-0.1,0.1L88.6,70.5z M94.2,70.9l0.3-0.7c0.1,0,0.1,0.1,0.1,0.1L94.4,71
					C94.3,71,94.3,70.9,94.2,70.9z M89,70.2c0.1,0,0.1,0,0.1-0.1l0.3,0.7c0,0-0.1,0-0.1,0.1L89,70.2z M93.9,70.8l0.3-0.7
					c0.1,0,0.1,0,0.2,0.1L94,70.8C93.9,70.8,93.9,70.8,93.9,70.8z M89.5,70.1c0.1,0,0.1,0,0.2-0.1l0.2,0.7c0,0-0.1,0-0.1,0.1
					L89.5,70.1z M93.5,70.6l0.2-0.7c0.1,0,0.1,0,0.2,0.1l-0.2,0.7C93.6,70.7,93.5,70.7,93.5,70.6z M89.9,69.9c0.1,0,0.1,0,0.2,0
					l0.2,0.7c-0.1,0-0.1,0-0.1,0L89.9,69.9z M93.1,70.5l0.2-0.7c0.1,0,0.1,0,0.2,0l-0.2,0.7C93.1,70.6,93.1,70.5,93.1,70.5z
					 M90.4,69.8c0.1,0,0.1,0,0.2,0l0.1,0.7c-0.1,0-0.1,0-0.1,0L90.4,69.8z M92.6,70.4l0.1-0.7c0.1,0,0.1,0,0.2,0l-0.1,0.7
					C92.7,70.5,92.7,70.5,92.6,70.4z M90.8,69.7c0.1,0,0.1,0,0.2,0l0.1,0.7c-0.1,0-0.1,0-0.1,0L90.8,69.7z M92.2,70.4l0.1-0.8
					c0.1,0,0.1,0,0.2,0l-0.1,0.7C92.3,70.4,92.3,70.4,92.2,70.4z M91.3,69.7c0.1,0,0.1,0,0.2,0l0,0.8c-0.1,0-0.1,0-0.1,0L91.3,69.7z
					 M91.8,70.4v-0.8c0.1,0,0.1,0,0.2,0l0,0.8C91.9,70.4,91.8,70.4,91.8,70.4z"/>
			</g>
			<g>
				<path class="st9" d="M84.4,77c0.2,1.8,1,3.4,2.2,4.6l-0.4,0.4c-1.3-1.3-2.2-3-2.4-5C83.8,77,84.4,77,84.4,77z"/>
				<path class="st9" d="M99.2,77h0.6c-0.2,1.9-1.1,3.7-2.4,5L97,81.5C98.2,80.3,99,78.8,99.2,77z"/>
				<path class="st9" d="M86.1,71.4c-1.1,1.3-1.8,3-1.8,4.8c0,0.1,0,0.1,0,0.2h-0.6c0-0.1,0-0.1,0-0.2c0-2,0.7-3.8,1.9-5.2
					L86.1,71.4z"/>
				<path class="st9" d="M92.1,83.7c1.7-0.1,3.3-0.7,4.5-1.8l0.4,0.4c-1.3,1.2-3.1,1.9-5,1.9V83.7z"/>
				<path class="st9" d="M97.1,71c-1.3-1.3-3.1-2.1-5-2.2v-0.6c2.1,0.1,4.1,1,5.4,2.4L97.1,71z"/>
				<path class="st9" d="M99.2,76.4c0-0.1,0-0.1,0-0.2c0-1.8-0.7-3.5-1.8-4.8l0.4-0.4c1.2,1.4,1.9,3.2,1.9,5.2c0,0.1,0,0.1,0,0.2
					L99.2,76.4L99.2,76.4z"/>
				<path class="st9" d="M91.5,68.8c-2,0.1-3.7,0.9-5,2.2l-0.4-0.4c1.4-1.4,3.3-2.3,5.4-2.4C91.5,68.2,91.5,68.8,91.5,68.8z"/>
				<path class="st10" d="M87,81.9c1.2,1.1,2.8,1.7,4.5,1.8v0.6c-1.9-0.1-3.6-0.8-5-1.9L87,81.9z"/>
			</g>
			<circle class="st9" cx="91.8" cy="76.2" r="3.5"/>
		</g>
		<rect x="6.3" y="68.1" class="st9" width="29" height="20.1"/>
		<rect x="6.3" y="91.6" class="st9" width="29" height="16.4"/>
		<rect x="63.3" y="24.3" class="st11" width="66.5" height="42"/>
		
			<linearGradient id="SVGID_00000139973718316404579000000001512079212253665200_" gradientUnits="userSpaceOnUse" x1="271.055" y1="249.3287" x2="271.055" y2="125.4489" gradientTransform="matrix(1 0 0 -1 0 249.8898)">
			<stop  offset="0" style="stop-color:#FFFFFF;stop-opacity:0"/>
			<stop  offset="0.2444" style="stop-color:#FDFDFE;stop-opacity:0.2444"/>
			<stop  offset="0.3838" style="stop-color:#F4F8FB;stop-opacity:0.3838"/>
			<stop  offset="0.4968" style="stop-color:#E6EEF6;stop-opacity:0.4968"/>
			<stop  offset="0.5958" style="stop-color:#D3E1EF;stop-opacity:0.5958"/>
			<stop  offset="0.6855" style="stop-color:#B9CFE5;stop-opacity:0.6855"/>
			<stop  offset="0.7684" style="stop-color:#99B9DA;stop-opacity:0.7684"/>
			<stop  offset="0.8463" style="stop-color:#74A0CC;stop-opacity:0.8463"/>
			<stop  offset="0.9201" style="stop-color:#4882BC;stop-opacity:0.9201"/>
			<stop  offset="0.9883" style="stop-color:#1861AA;stop-opacity:0.9883"/>
			<stop  offset="1" style="stop-color:#0F5BA7"/>
		</linearGradient>
		
			<rect x="261.5" y="0" style="fill:url(#SVGID_00000139973718316404579000000001512079212253665200_);" width="19.1" height="118.3"/>
		<g>
			<path class="st2" d="M238.9,247.2h63.5V138c0-1.9-1.5-3.4-3.4-3.4h-56.6c-1.9,0-3.4,1.5-3.4,3.4L238.9,247.2L238.9,247.2z"/>
			<path class="st7" d="M242.4,249.7h56.5V142.1c0-1.9-1.5-3.4-3.4-3.4h-49.6c-1.9,0-3.4,1.5-3.4,3.4L242.4,249.7L242.4,249.7z"/>
			<path class="st3" d="M250.4,155.1h40.5c1,0,1.8-0.8,1.8-1.8v-8.8c0-1-0.8-1.8-1.8-1.8h-40.5c-1,0-1.8,0.8-1.8,1.8v8.8
				C248.6,154.3,249.4,155.1,250.4,155.1z"/>
			<path class="st3" d="M250.4,171.1h40.5c1,0,1.8-0.8,1.8-1.8v-8.8c0-1-0.8-1.8-1.8-1.8h-40.5c-1,0-1.8,0.8-1.8,1.8v8.8
				C248.6,170.3,249.4,171.1,250.4,171.1z"/>
			<path class="st3" d="M250.4,187.1h40.5c1,0,1.8-0.8,1.8-1.8v-8.8c0-1-0.8-1.8-1.8-1.8h-40.5c-1,0-1.8,0.8-1.8,1.8v8.8
				C248.6,186.3,249.4,187.1,250.4,187.1z"/>
			<path class="st3" d="M248.6,247.2h44v-47.1c0-2.7-2.2-4.9-4.9-4.9h-34.2c-2.7,0-4.9,2.2-4.9,4.9L248.6,247.2L248.6,247.2z"/>
			<g>
				<rect x="258.9" y="238.3" class="st6" width="23.5" height="1.8"/>
				<rect x="258.9" y="234.2" class="st6" width="23.5" height="1.8"/>
			</g>
			<path class="st4" d="M250,126.4h42c1.9,0,3.4,1.5,3.4,3.4v4.7h-48.9v-4.7C246.6,128,248.1,126.4,250,126.4z"/>
			<polygon class="st2" points="261.5,118.3 280.6,118.3 280.6,126.4 261.5,126.4 			"/>
			<circle class="st6" cx="270.6" cy="221.2" r="4.8"/>
			<rect x="265.4" y="166.2" class="st6" width="11.4" height="4.8"/>
			<rect x="265.4" y="150.2" class="st6" width="11.4" height="4.8"/>
		</g>
		
			<linearGradient id="SVGID_00000110462636546737231700000008838125725566156178_" gradientUnits="userSpaceOnUse" x1="197.95" y1="135.1598" x2="197.95" y2="135.1598" gradientTransform="matrix(1 0 0 -1 0 249.8898)">
			<stop  offset="0" style="stop-color:#C7B1FC"/>
			<stop  offset="1" style="stop-color:#7E4ECC"/>
		</linearGradient>
		
			<path style="fill:none;stroke:url(#SVGID_00000110462636546737231700000008838125725566156178_);stroke-width:2;stroke-miterlimit:10;" d="
			M197.9,114.7"/>
		<g>
			<g>
				<g>
					<g>
						<g>
							<polygon class="st10" points="69.7,239.5 83.9,240.8 84.3,242.8 65.1,247.2 64.1,240.8 							"/>
							<g>
								<g>
									<path class="st6" d="M76.1,241.4c0.2,0,0.3-0.2,0.3-0.4l0.2-1.5c0-0.2-0.1-0.5-0.4-0.5c-0.3,0-0.5,0.1-0.5,0.4l-0.2,1.5
										c0,0.2,0.1,0.5,0.4,0.5C76,241.5,76.1,241.5,76.1,241.4z"/>
								</g>
								<g>
									<path class="st6" d="M74.3,241.3c0.2,0,0.3-0.2,0.3-0.4l0.2-1.5c0-0.2-0.1-0.5-0.4-0.5c-0.2,0-0.5,0.1-0.5,0.4l-0.2,1.5
										c0,0.2,0.1,0.5,0.4,0.5C74.2,241.3,74.3,241.3,74.3,241.3z"/>
								</g>
								<g>
									<path class="st6" d="M72.6,241.2c0.2,0,0.3-0.2,0.3-0.4l0.2-1.5c0-0.2-0.1-0.5-0.4-0.5c-0.3,0-0.5,0.1-0.5,0.4l-0.2,1.5
										c0,0.2,0.1,0.5,0.4,0.5C72.4,241.2,72.5,241.2,72.6,241.2z"/>
								</g>
							</g>
						</g>
						<path class="st14" d="M18.5,123.3l2.3-3l-7.6-6.6l-2.5,3c0,0-3.6,4.7-3.3,6.6c0.4,3.5,16.7,15.4,16.7,15.4l2-8.3L18.5,123.3z"
							/>
						<path class="st15" d="M26,130.6c-0.1-0.2-0.2-0.3-0.3-0.5l-2.1-2l-3.3,7.8c2.2,1.7,3.8,2.9,3.8,2.9L26,130.6z"/>
						<g>
							<g>
								<g>
									<path class="st16" d="M34.2,84.7c0,0-2.5-0.6-2.2-3.2s2.4-2.3,3.1-0.8c0.3,0.6,0.4,1.2,0.5,1.7l0.5-0.1
										c0,0,1.2-4.4,2.9-5.5c1.8-1.1,4.5,0.3,5.7,0.3c0.8,0.1,2.9-0.7,3.4-0.4c1.4,0.6,1.3,11.4-2.5,14.1
										C41.9,93.6,35.7,88.9,34.2,84.7z"/>
								</g>
								<g>
									<path class="st17" d="M41.9,79.1C41.9,79.1,41.9,79.1,41.9,79.1C41.9,79.1,41.9,79.1,41.9,79.1L41.9,79.1z"/>
								</g>
							</g>
							<path class="st18" d="M34.4,82.5c0,0-0.6-0.8-1.1-0.6c-0.5,0.2-0.7,2.1,0.4,2.7c0,0-0.6-1.2-0.3-1.8
								C33.8,82.2,34.4,82.5,34.4,82.5z"/>
						</g>
						<polygon class="st11" points="21,240.8 26.8,240.8 35.5,193.6 41.7,136.4 23.3,136.4 						"/>
						<rect x="30.8" y="136.4" class="st19" width="13.5" height="18.6"/>
						<path class="st16" d="M34.2,84.7l3.4,10.7c0.4,1.2,1.5,2.1,2.8,2.1l0,0c1.7,0,3-1.4,2.9-3.1l-0.2-4.7L34.2,84.7z"/>
						<path class="st20" d="M32.9,73.1c-8.2,2.3-1,14.2-0.6,15.1c0.4,0.9,3.1,5.8,8.8,2.9c2.4-1.2,3.5-4.1,4.4-6.9
							c-2.5,0.3-3.3-2.9-1.8-3.5c1.5-0.6,2.5,0.8,2.5,0.8c1.4-1.8,2-4.8,2-4.8s0.8,1.1,0.8,4.5c0,0,2.8-3.6,1-7.8
							c0,0,1.8-6.7-3.7-8.1c0,0,0.5,1.9-3,2.8C40.6,68.8,33.6,68.7,32.9,73.1z"/>
						<polygon class="st11" points="63.3,185.8 69.7,239.5 64.1,240.8 50,188.6 34,136.4 53.7,136.4 						"/>
						<g>
							<polygon class="st10" points="26.8,240.8 40.2,245.1 40.2,247.2 20.5,247.2 21,240.8 							"/>
							<g>
								<g>
									<path class="st6" d="M32.5,244.1c0.2,0,0.4-0.1,0.4-0.3l0.5-1.4c0.1-0.2,0-0.5-0.3-0.6s-0.5,0-0.6,0.3l-0.5,1.4
										c-0.1,0.2,0,0.5,0.3,0.6C32.4,244.1,32.5,244.1,32.5,244.1z"/>
								</g>
								<g>
									<path class="st6" d="M30.8,243.5c0.2,0,0.4-0.1,0.4-0.3l0.5-1.4c0.1-0.2,0-0.5-0.3-0.6s-0.5,0-0.6,0.3l-0.5,1.4
										c-0.1,0.2,0,0.5,0.3,0.6C30.7,243.5,30.8,243.5,30.8,243.5z"/>
								</g>
								<g>
									<path class="st6" d="M29.1,243c0.2,0,0.4-0.1,0.4-0.3l0.5-1.4c0.1-0.2,0-0.5-0.3-0.6s-0.5,0-0.6,0.3l-0.5,1.4
										c-0.1,0.2,0,0.5,0.3,0.6C29,243,29.1,243,29.1,243z"/>
								</g>
							</g>
						</g>
						<path class="st21" d="M23.1,144.5l-0.2,9l0,0l34.3-5.6l0,0l-2.7-7.5l-25.1,2.2C29.4,142.5,25.9,143.6,23.1,144.5z"/>
						<polyline class="st22" points="42.2,146.7 44.9,154.6 49.2,155.1 52.4,152.7 50.6,146.2 						"/>
						<line class="st23" x1="25.7" y1="139.2" x2="51" y2="139.2"/>
						<polygon class="st14" points="37.6,94.4 26.7,98.7 23.3,136.4 53.7,136.4 52.4,97.9 43,94.4 						"/>
						<g>
							<polygon class="st14" points="26.7,98.7 13.2,113.7 20.8,120.3 25.8,114.3 							"/>
						</g>
						<polygon class="st15" points="26.1,108.8 18.5,123.3 20.8,120.3 25.8,114.3 26.1,109.8 						"/>
						<path class="st14" d="M83,83.8c0,0-15.2,9.6-15.8,10.1c-0.5,0.5-22.2,1.2-22.2,1.2l5.8,12.1c0,0,17.3-3,19.3-4.3
							c2-1.2,17.6-13.5,17.6-13.5L83,83.8z"/>
						<polyline class="st22" points="27.5,146.6 26.9,153.3 30.3,155.9 35,154.8 35.8,147.8 						"/>
					</g>
				</g>
			</g>
			<polygon class="st14" points="25.2,115.7 21,147.9 37.5,147.9 39.3,142.1 40.5,147.9 58.5,147.9 52.8,111.4 			"/>
			<path class="st15" d="M52.5,103.8l0.1,3.1c3.2-0.6,9.8-1.8,13.9-2.8L52.5,103.8z"/>
			<path class="st16" d="M85,83.4c0,0,0.8-4.3,1.9-4.7c0.7-0.2,1.3,0.8,1.3,0.8s3.4-4.4,4.4-3.8c0.6,0.3-2.2,4.2-2.2,4.2
				s1.2-1.5,2.1,0.1c0,0,1,0.2,1,1.2c0,0,1,0.6,0.8,1.1C93.6,84,88,87,88,87L85,83.4z"/>
			<polygon class="st16" points="85,83.4 83.7,85 86.8,88.2 88.1,87 			"/>
			<path class="st15" d="M81.2,83.6c0.1,0,5.8,7.2,5.9,7.2c0.1,0,1.6-1.4,1.6-1.4l-5.9-6.8L81.2,83.6z"/>
			<polygon class="st15" points="35.3,93.6 45.3,93.6 45.3,95.4 35.3,95.5 			"/>
		</g>
		<g>
			<circle class="st10" cx="4.3" cy="41.2" r="1.8"/>
			<circle class="st10" cx="10.4" cy="41.2" r="1.8"/>
			<circle class="st10" cx="16.6" cy="41.2" r="1.8"/>
		</g>
		<g>
			<g>
				<g>
					<rect x="6.3" y="52.2" class="st9" width="46.9" height="1.6"/>
				</g>
				<g>
					<rect x="36.7" y="52.2" class="st6" width="16.5" height="1.6"/>
				</g>
			</g>
			<g>
				<g>
					<rect x="6.3" y="56.5" class="st9" width="46.9" height="1.6"/>
				</g>
				<g>
					<rect x="45.7" y="56.5" class="st6" width="7.5" height="1.6"/>
				</g>
			</g>
			<g>
				<g>
					<rect x="6.3" y="60.8" class="st9" width="46.9" height="1.6"/>
				</g>
				<g>
					<rect x="21" y="60.8" class="st6" width="32.2" height="1.6"/>
				</g>
			</g>
		</g>
		<rect x="54.6" y="85.9" class="st9" width="15.6" height="2.3"/>
		<rect x="54.6" y="81.5" class="st9" width="15.6" height="2.3"/>
		<rect x="54.6" y="77" class="st9" width="15.6" height="2.3"/>
		<rect x="54.6" y="72.6" class="st9" width="15.6" height="2.3"/>
		<rect x="54.6" y="68.1" class="st9" width="15.6" height="2.3"/>
		<g>
			<polyline class="st8" points="147.7,164.2 142.2,164.2 142.2,151.1 			"/>
			<line class="st8" x1="166.5" y1="174.9" x2="169.4" y2="179.9"/>
			<polygon class="st8" points="150.8,169.5 147.7,164.2 150.8,158.8 157,158.8 160.1,164.2 157,169.5 			"/>
			<polygon class="st8" points="150.8,180.2 147.7,174.9 150.8,169.5 157,169.5 160.1,174.9 157,180.2 			"/>
			<polygon class="st24" points="152.4,177.4 151,174.9 152.4,172.3 155.4,172.3 156.8,174.9 155.4,177.4 			"/>
			<polygon class="st8" points="169.4,190.6 166.3,185.2 169.4,179.9 175.6,179.9 178.6,185.2 175.6,190.6 			"/>
			<polygon class="st24" points="171,187.8 169.6,185.2 171,182.7 174,182.7 175.4,185.2 174,187.8 			"/>
			<polygon class="st8" points="160.3,174.9 157.2,169.5 160.3,164.2 166.5,164.2 169.6,169.5 166.5,174.9 			"/>
			<polygon class="st8" points="141.6,185.5 138.5,180.2 141.6,174.9 147.7,174.9 150.8,180.2 147.7,185.5 			"/>
			<polygon class="st24" points="128.9,183.7 126.9,180.2 128.9,176.7 132.9,176.7 134.9,180.2 132.9,183.7 			"/>
			<line class="st8" x1="138.5" y1="180.2" x2="130.9" y2="180.2"/>
			<line class="st8" x1="178.6" y1="185.2" x2="197.9" y2="185.2"/>
		</g>
		<g>
			<g>
				<g>
					<path class="st3" d="M348.7,221.4v4.7c6.4,0,11.6,5.2,11.6,11.6h4.7C365,228.7,357.7,221.4,348.7,221.4z"/>
					<path class="st3" d="M348.7,212v4.7c11.6,0,21,9.4,21,21h4.7C374.3,223.5,362.9,212,348.7,212z"/>
				</g>
			</g>
			<circle class="st3" cx="352.2" cy="234.2" r="3.3"/>
		</g>
		<g class="st25">
			<g>
				<polygon class="st6" points="86.9,29.2 86.9,62.2 84.3,62.2 84.3,29.2 				"/>
			</g>
			<g>
				<polygon class="st6" points="92.1,47.3 92.1,62.2 89.5,62.2 89.5,47.3 				"/>
			</g>
			<g>
				<polygon class="st6" points="81.6,51.8 81.6,62.2 79.1,62.2 79.1,51.8 				"/>
			</g>
			<polygon class="st6" points="97.3,21.7 97.3,62.2 94.7,62.2 94.7,21.7 			"/>
			<polygon class="st6" points="102.5,42.3 102.5,62.2 100,62.2 100,42.3 			"/>
			<polygon class="st6" points="107.7,34.7 107.7,62.2 105.2,62.2 105.2,34.7 			"/>
			<polygon class="st6" points="112.9,56.7 112.9,62.2 110.4,62.2 110.4,56.7 			"/>
		</g>
		<g>
			<path class="st3" d="M107.2,183.1l-2.1-0.3l0,0c-0.2-0.7-0.4-1.3-0.8-1.8l0,0l1.3-1.7l-1.6-1.6l-1.7,1.3l0,0
				c-0.6-0.4-1.2-0.6-1.8-0.8l0,0c0,0-0.3-2.1-0.3-2.1h-2.2l-0.3,2.1l0,0c-0.7,0.1-1.3,0.4-1.8,0.8l0,0l-1.7-1.3l-1.6,1.6l1.3,1.7
				l0,0c-0.3,0.6-0.6,1.2-0.8,1.8l0,0l-2.1,0.3v2.2l0,0l2.1,0.3l0,0c0.2,0.7,0.4,1.3,0.8,1.8l0,0l-1.3,1.7l1.6,1.6l1.7-1.3l0,0
				c0.6,0.4,1.2,0.6,1.8,0.8l0,0l0.3,2.1h2.2l0.3-2.1l0,0c0.7-0.1,1.3-0.4,1.8-0.8l0,0l1.7,1.3l1.6-1.6l-1.3-1.7l0,0
				c0.3-0.6,0.6-1.2,0.8-1.8l0,0l2.1-0.3L107.2,183.1L107.2,183.1z M100.6,187c-2.7,1.2-5.3-1.4-4.2-4.2c0.3-0.6,0.8-1.2,1.5-1.5
				c2.7-1.2,5.3,1.4,4.2,4.2C101.8,186.1,101.2,186.7,100.6,187z"/>
			<path class="st3" d="M107.2,158l-2.1-0.3l0,0c-0.2-0.7-0.4-1.3-0.8-1.8l0,0l1.3-1.7l-1.6-1.6l-1.7,1.3l0,0
				c-0.6-0.4-1.2-0.6-1.8-0.8l0,0c0,0-0.3-2.1-0.3-2.1h-2.2l-0.3,2.1l0,0c-0.7,0.1-1.3,0.4-1.8,0.8l0,0l-1.7-1.3l-1.6,1.6l1.3,1.7
				l0,0c-0.3,0.6-0.6,1.2-0.8,1.8l0,0l-2.1,0.3v2.2l0,0l2.1,0.3l0,0c0.2,0.7,0.4,1.3,0.8,1.8l0,0l-1.3,1.7l1.6,1.6l1.7-1.3l0,0
				c0.6,0.4,1.2,0.6,1.8,0.8l0,0l0.3,2.1h2.2l0.3-2.1l0,0c0.7-0.1,1.3-0.4,1.8-0.8l0,0l1.7,1.3l1.6-1.6l-1.3-1.7l0,0
				c0.3-0.6,0.6-1.2,0.8-1.8l0,0l2.1-0.3V158z M100.6,161.8c-2.7,1.2-5.3-1.4-4.2-4.2c0.3-0.6,0.8-1.2,1.5-1.5
				c2.7-1.2,5.3,1.4,4.2,4.2C101.8,161,101.2,161.6,100.6,161.8z"/>
			
				<linearGradient id="SVGID_00000091709020451577805500000011279912405703854256_" gradientUnits="userSpaceOnUse" x1="81.97" y1="64.7648" x2="117.65" y2="64.7648" gradientTransform="matrix(1 0 0 -1 0 249.8898)">
				<stop  offset="0" style="stop-color:#C7B1FC"/>
				<stop  offset="1" style="stop-color:#7E4ECC"/>
			</linearGradient>
			
				<polyline style="fill:none;stroke:url(#SVGID_00000091709020451577805500000011279912405703854256_);stroke-miterlimit:10;" points="
				82,171.6 117.2,171.6 117.2,199.1 			"/>
			
				<linearGradient id="SVGID_00000077306638128649548300000013644209283472119468_" gradientUnits="userSpaceOnUse" x1="80.77" y1="78.2598" x2="83.1743" y2="78.2598" gradientTransform="matrix(1 0 0 -1 0 249.8898)">
				<stop  offset="0" style="stop-color:#C7B1FC"/>
				<stop  offset="1" style="stop-color:#7E4ECC"/>
			</linearGradient>
			<circle style="fill:url(#SVGID_00000077306638128649548300000013644209283472119468_);" cx="82" cy="171.6" r="1.2"/>
			<path class="st3" d="M92.4,170.2l-2.8-0.3l0,0c-0.2-0.9-0.5-1.7-1-2.4c0,0,0,0,0,0l1.7-2.2l-2-2l-2.2,1.7c0,0,0,0,0,0
				c-0.7-0.4-1.5-0.8-2.4-1l0,0c0,0-0.3-2.8-0.3-2.8h-2.9l-0.3,2.8l0,0c-0.9,0.2-1.7,0.5-2.4,1c0,0,0,0,0,0l-2.2-1.7l-2,2l1.7,2.2
				c0,0,0,0,0,0c-0.4,0.7-0.8,1.5-1,2.4l0,0l-2.8,0.3v2.9l0,0l2.8,0.3l0,0c0.2,0.9,0.5,1.7,1,2.4c0,0,0,0,0,0l-1.7,2.2l2,2l2.2-1.7
				c0,0,0,0,0,0c0.7,0.4,1.5,0.8,2.4,1l0,0l0.3,2.8h2.9l0.3-2.8l0,0c0.9-0.2,1.7-0.5,2.4-1c0,0,0,0,0,0l2.2,1.7l2-2l-1.7-2.2
				c0,0,0,0,0,0c0.4-0.7,0.8-1.5,1-2.4l0,0l2.8-0.3V170.2z M83.7,175.3c-3.6,1.5-7-1.9-5.4-5.4c0.4-0.9,1.1-1.6,1.9-1.9
				c3.6-1.5,7,1.9,5.4,5.4C85.3,174.2,84.6,174.9,83.7,175.3z"/>
			<path class="st4" d="M121.4,196.2h-8.4c-1.7,0-3,1.4-3,3l0,0h14.5l0,0C124.4,197.6,123.1,196.2,121.4,196.2z"/>
			<rect x="113.6" y="193.2" class="st2" width="7.1" height="3"/>
			
				<linearGradient id="SVGID_00000152234594818837622710000005789383895962185376_" gradientUnits="userSpaceOnUse" x1="230.3794" y1="135.1244" x2="230.3794" y2="52.5935" gradientTransform="matrix(-1 0 0 -1 347.5344 249.8898)">
				<stop  offset="0" style="stop-color:#FFFFFF;stop-opacity:0"/>
				<stop  offset="0.2444" style="stop-color:#FDFDFE;stop-opacity:0.2444"/>
				<stop  offset="0.3838" style="stop-color:#F4F8FB;stop-opacity:0.3838"/>
				<stop  offset="0.4968" style="stop-color:#E6EEF6;stop-opacity:0.4968"/>
				<stop  offset="0.5958" style="stop-color:#D3E1EF;stop-opacity:0.5958"/>
				<stop  offset="0.6855" style="stop-color:#B9CFE5;stop-opacity:0.6855"/>
				<stop  offset="0.7684" style="stop-color:#99B9DA;stop-opacity:0.7684"/>
				<stop  offset="0.8463" style="stop-color:#74A0CC;stop-opacity:0.8463"/>
				<stop  offset="0.9201" style="stop-color:#4882BC;stop-opacity:0.9201"/>
				<stop  offset="0.9883" style="stop-color:#1861AA;stop-opacity:0.9883"/>
				<stop  offset="1" style="stop-color:#0F5BA7"/>
			</linearGradient>
			
				<rect x="113.6" y="114.4" style="fill:url(#SVGID_00000152234594818837622710000005789383895962185376_);" width="7.1" height="78.8"/>
		</g>
		<g>
			<circle class="st6" cx="117.2" cy="215.5" r="1.9"/>
			<circle class="st6" cx="110.5" cy="215.5" r="1.9"/>
			<circle class="st6" cx="123.8" cy="215.5" r="1.9"/>
		</g>
		<g>
			<circle class="st6" cx="117.2" cy="231.5" r="1.9"/>
			<circle class="st6" cx="110.5" cy="231.5" r="1.9"/>
			<circle class="st6" cx="123.8" cy="231.5" r="1.9"/>
		</g>
		<g>
			<rect x="27.3" y="-145.2" class="st29" width="59.2" height="50"/>
			<rect x="100.8" y="-145.2" class="st14" width="59.2" height="50"/>
			<rect x="174.3" y="-145.2" class="st30" width="59.2" height="50"/>
			<rect x="246.8" y="-145.2" class="st31" width="59.2" height="50"/>
			<rect x="322.4" y="-145.2" class="st32" width="59.2" height="50"/>
			<rect x="27.3" y="-89.8" class="st11" width="59.2" height="50"/>
			<rect x="100.8" y="-87.4" class="st2" width="59.2" height="50"/>
			<rect x="174.3" y="-87.4" class="st3" width="59.2" height="50"/>
		</g>
		<g>
			<g>
				<polygon class="st11" points="198.9,232.5 149.9,232.5 149.9,230.5 196.9,230.5 196.9,114.7 198.9,114.7 				"/>
			</g>
			<g>
				<rect x="149.9" y="222.7" class="st11" width="48" height="2"/>
			</g>
			<g>
				<rect x="149.9" y="214.9" class="st11" width="48" height="2"/>
			</g>
		</g>
		<g>
			<path class="st24" d="M151.2,90.9c0-25.8,20.9-46.7,46.7-46.7s46.7,21,46.7,46.7s-20.9,46.7-46.7,46.7S151.2,116.7,151.2,90.9z
				 M152.4,90.9c0,25.2,20.5,45.6,45.6,45.6c25.1,0,45.6-20.5,45.6-45.6c0-25.2-20.5-45.6-45.6-45.6
				C172.8,45.3,152.4,65.8,152.4,90.9z"/>
			<path class="st24" d="M197.9,49.3v6.4c-19.4,0-35.2,15.8-35.2,35.2h-6.4C156.4,68,175,49.3,197.9,49.3z"/>
			<g>
				<path class="st24" d="M198.4,130c0.3,0,0.6,0,0.9,0l0.2,5c-0.4,0-0.7,0-1.1,0L198.4,130z M195.3,134.9l0.3-5c0.3,0,0.6,0,0.9,0
					l-0.2,5C196,135,195.6,135,195.3,134.9z M201.2,129.9c0.3,0,0.6-0.1,0.9-0.1l0.5,5c-0.4,0-0.7,0.1-1.1,0.1L201.2,129.9z
					 M192.1,134.6l0.7-5c0.3,0,0.6,0.1,0.9,0.1l-0.5,5C192.8,134.7,192.5,134.7,192.1,134.6z M204,129.6c0.3-0.1,0.6-0.1,0.9-0.2
					l0.9,4.9c-0.4,0.1-0.7,0.1-1.1,0.2L204,129.6z M189,134.1l1-4.9c0.3,0.1,0.6,0.1,0.9,0.2l-0.9,4.9
					C189.7,134.2,189.3,134.2,189,134.1z M206.8,129c0.3-0.1,0.6-0.1,0.9-0.2l1.2,4.8c-0.3,0.1-0.7,0.2-1,0.2L206.8,129z
					 M185.9,133.4l1.4-4.8c0.3,0.1,0.6,0.2,0.9,0.2l-1.2,4.8C186.6,133.5,186.2,133.4,185.9,133.4z M209.5,128.3
					c0.3-0.1,0.6-0.2,0.9-0.3l1.6,4.7c-0.3,0.1-0.7,0.2-1,0.3L209.5,128.3z M182.8,132.4l1.7-4.7c0.3,0.1,0.6,0.2,0.9,0.3l-1.6,4.7
					C183.5,132.6,183.2,132.5,182.8,132.4z M212.2,127.3c0.3-0.1,0.6-0.2,0.9-0.3l1.9,4.6c-0.3,0.1-0.6,0.3-1,0.4L212.2,127.3z
					 M179.9,131.2l2.1-4.6c0.3,0.1,0.6,0.2,0.9,0.4l-1.9,4.6C180.5,131.4,180.2,131.3,179.9,131.2z M214.8,126.2
					c0.3-0.1,0.6-0.3,0.9-0.4l2.3,4.5c-0.3,0.2-0.6,0.3-0.9,0.5L214.8,126.2z M177,129.7l2.4-4.4c0.3,0.2,0.6,0.3,0.8,0.4l-2.3,4.4
					C177.6,130.1,177.3,129.9,177,129.7z M217.3,124.9c0.3-0.2,0.5-0.3,0.8-0.5l2.6,4.3c-0.3,0.2-0.6,0.4-0.9,0.5L217.3,124.9z
					 M174.3,128.1l2.7-4.2c0.3,0.2,0.5,0.3,0.8,0.5l-2.6,4.3C174.9,128.5,174.6,128.3,174.3,128.1z M219.7,123.4
					c0.3-0.2,0.5-0.3,0.8-0.5l2.9,4.1c-0.3,0.2-0.6,0.4-0.9,0.6L219.7,123.4z M171.6,126.3l3-4c0.2,0.2,0.5,0.4,0.8,0.6l-2.9,4.1
					C172.2,126.7,171.9,126.5,171.6,126.3z M221.9,121.8c0.2-0.2,0.5-0.4,0.7-0.6l3.2,3.9c-0.3,0.2-0.6,0.4-0.8,0.7L221.9,121.8z
					 M169.2,124.3l3.3-3.8c0.2,0.2,0.5,0.4,0.7,0.6L170,125C169.7,124.8,169.4,124.6,169.2,124.3z M224.1,120
					c0.2-0.2,0.5-0.4,0.7-0.6l3.4,3.6c-0.3,0.2-0.5,0.5-0.8,0.7L224.1,120z M166.8,122.2l3.5-3.6c0.2,0.2,0.4,0.4,0.7,0.7l-3.4,3.6
					C167.3,122.7,167.1,122.4,166.8,122.2z M226.1,118c0.2-0.2,0.4-0.5,0.6-0.7l3.7,3.4c-0.2,0.3-0.5,0.5-0.7,0.8L226.1,118z
					 M164.7,119.8l3.8-3.3c0.2,0.2,0.4,0.5,0.6,0.7l-3.7,3.4C165.1,120.4,164.9,120.1,164.7,119.8z M228,115.9
					c0.2-0.2,0.4-0.5,0.6-0.7l3.9,3.1c-0.2,0.3-0.4,0.6-0.7,0.8L228,115.9z M162.7,117.4l4-3c0.2,0.2,0.4,0.5,0.6,0.8l-3.9,3.1
					C163.1,117.9,162.9,117.6,162.7,117.4z M229.8,113.7c0.2-0.3,0.4-0.5,0.5-0.8l4.1,2.8c-0.2,0.3-0.4,0.6-0.6,0.9L229.8,113.7z
					 M160.9,114.8l4.2-2.7c0.2,0.3,0.3,0.5,0.5,0.8l-4.1,2.8C161.2,115.3,161,115,160.9,114.8z M231.3,111.3
					c0.2-0.3,0.3-0.5,0.5-0.8l4.3,2.5c-0.2,0.3-0.4,0.6-0.5,0.9L231.3,111.3z M159.2,112l4.4-2.4c0.1,0.3,0.3,0.6,0.5,0.8l-4.3,2.5
					C159.6,112.6,159.4,112.3,159.2,112z M232.7,108.8c0.1-0.3,0.3-0.6,0.4-0.8l4.5,2.2c-0.2,0.3-0.3,0.6-0.5,1L232.7,108.8z
					 M157.8,109.2l4.6-2.1c0.1,0.3,0.3,0.6,0.4,0.8l-4.5,2.2C158.1,109.8,157.9,109.5,157.8,109.2z M233.9,106.3
					c0.1-0.3,0.2-0.6,0.4-0.9l4.6,1.9c-0.1,0.3-0.3,0.7-0.4,1L233.9,106.3z M156.6,106.2l4.7-1.7c0.1,0.3,0.2,0.6,0.3,0.9l-4.6,1.9
					C156.8,106.9,156.7,106.6,156.6,106.2z M234.9,103.7c0.1-0.3,0.2-0.6,0.3-0.9l4.8,1.5c-0.1,0.3-0.2,0.7-0.3,1L234.9,103.7z
					 M155.6,103.2l4.8-1.4c0.1,0.3,0.2,0.6,0.3,0.9l-4.8,1.5C155.8,103.9,155.7,103.6,155.6,103.2z M235.8,100.9
					c0.1-0.3,0.2-0.6,0.2-0.9l4.9,1.2c-0.1,0.3-0.2,0.7-0.3,1L235.8,100.9z M154.8,100.1l4.9-1c0.1,0.3,0.1,0.6,0.2,0.9l-4.9,1.2
					C155,100.8,154.9,100.5,154.8,100.1z M236.4,98.2c0.1-0.3,0.1-0.6,0.2-0.9l4.9,0.8c-0.1,0.3-0.1,0.7-0.2,1.1L236.4,98.2z
					 M154.3,97l5-0.7c0,0.3,0.1,0.6,0.1,0.9l-4.9,0.8C154.4,97.7,154.3,97.3,154.3,97z M236.8,95.4c0-0.3,0.1-0.6,0.1-0.9l5,0.4
					c0,0.3-0.1,0.7-0.1,1.1L236.8,95.4z M153.9,93.8l5-0.3c0,0.3,0.1,0.6,0.1,0.9l-5,0.4C154,94.5,154,94.2,153.9,93.8z M237,92.6
					c0-0.3,0-0.6,0-0.9l5,0.1c0,0.4,0,0.7,0,1.1L237,92.6z M153.9,90.9v-0.3l5,0.1v0.3c0,0.2,0,0.4,0,0.7l-5,0.1
					C153.9,91.4,153.9,91.2,153.9,90.9z M237,88.8l5-0.3c0,0.3,0,0.7,0,1.1l-5,0.2C237,89.4,237,89.1,237,88.8z M153.9,88.5
					c0-0.3,0-0.7,0.1-1.1l5,0.4c0,0.3-0.1,0.6-0.1,0.9L153.9,88.5z M236.8,86l5-0.6c0,0.3,0.1,0.7,0.1,1.1l-5,0.5
					C236.8,86.6,236.8,86.3,236.8,86z M154.2,85.3c0-0.3,0.1-0.7,0.1-1.1l4.9,0.8c-0.1,0.3-0.1,0.6-0.1,0.9L154.2,85.3z M236.3,83.2
					l4.9-1c0.1,0.3,0.1,0.7,0.2,1l-4.9,0.9C236.4,83.8,236.4,83.5,236.3,83.2z M154.7,82.2c0.1-0.3,0.1-0.7,0.2-1l4.9,1.1
					c-0.1,0.3-0.1,0.6-0.2,0.9L154.7,82.2z M235.6,80.5l4.8-1.3c0.1,0.3,0.2,0.7,0.3,1l-4.9,1.2C235.8,81.1,235.7,80.8,235.6,80.5z
					 M155.5,79.1c0.1-0.3,0.2-0.7,0.3-1l4.8,1.5c-0.1,0.3-0.2,0.6-0.3,0.9L155.5,79.1z M234.8,77.8l4.7-1.7c0.1,0.3,0.2,0.7,0.3,1
					l-4.7,1.6C235,78.4,234.9,78.1,234.8,77.8z M156.4,76.1c0.1-0.3,0.2-0.7,0.4-1l4.7,1.8c-0.1,0.3-0.2,0.6-0.3,0.9L156.4,76.1z
					 M233.7,75.2l4.6-2c0.1,0.3,0.3,0.7,0.4,1l-4.6,1.9C234,75.7,233.9,75.5,233.7,75.2z M157.6,73.1c0.1-0.3,0.3-0.7,0.4-1l4.5,2.2
					c-0.1,0.3-0.3,0.6-0.4,0.8L157.6,73.1z M232.5,72.6l4.4-2.3c0.2,0.3,0.3,0.6,0.5,0.9l-4.5,2.2C232.8,73.2,232.7,72.9,232.5,72.6
					z M159,70.2c0.2-0.3,0.3-0.6,0.5-0.9l4.4,2.5c-0.1,0.3-0.3,0.5-0.4,0.8L159,70.2z M231.1,70.2l4.2-2.7c0.2,0.3,0.4,0.6,0.6,0.9
					l-4.3,2.6C231.4,70.7,231.3,70.5,231.1,70.2z M160.6,67.5c0.2-0.3,0.4-0.6,0.6-0.9l4.2,2.8c-0.2,0.3-0.4,0.5-0.5,0.8L160.6,67.5
					z M229.5,67.9l4-3c0.2,0.3,0.4,0.6,0.6,0.9l-4.1,2.8C229.9,68.4,229.7,68.1,229.5,67.9z M162.4,64.8c0.2-0.3,0.4-0.6,0.6-0.8
					L167,67c-0.2,0.2-0.4,0.5-0.6,0.8L162.4,64.8z M227.8,65.7l3.8-3.2c0.2,0.3,0.4,0.5,0.7,0.8l-3.9,3.2
					C228.2,66.1,228,65.9,227.8,65.7z M164.4,62.3c0.2-0.3,0.5-0.5,0.7-0.8l3.7,3.3c-0.2,0.2-0.4,0.5-0.6,0.7L164.4,62.3z
					 M225.9,63.6l3.6-3.5c0.2,0.2,0.5,0.5,0.7,0.8l-3.6,3.4C226.3,64,226.1,63.8,225.9,63.6z M166.6,60c0.2-0.2,0.5-0.5,0.8-0.8
					l3.5,3.6c-0.2,0.2-0.4,0.4-0.7,0.7L166.6,60z M223.8,61.6l3.3-3.8c0.3,0.2,0.5,0.5,0.8,0.7l-3.4,3.7
					C224.3,62,224,61.8,223.8,61.6z M168.9,57.8c0.3-0.2,0.5-0.5,0.8-0.7l3.2,3.8c-0.2,0.2-0.5,0.4-0.7,0.6L168.9,57.8z M221.6,59.8
					l3-4c0.3,0.2,0.6,0.4,0.8,0.7l-3.1,3.9C222.1,60.2,221.9,60,221.6,59.8z M171.3,55.8c0.3-0.2,0.6-0.4,0.9-0.6l2.9,4.1
					c-0.2,0.2-0.5,0.4-0.8,0.6L171.3,55.8z M219.3,58.2l2.7-4.2c0.3,0.2,0.6,0.4,0.9,0.6l-2.8,4.1C219.8,58.5,219.6,58.4,219.3,58.2
					z M173.9,54c0.3-0.2,0.6-0.4,0.9-0.6l2.6,4.2c-0.3,0.2-0.5,0.3-0.8,0.5L173.9,54z M216.9,56.7l2.4-4.4c0.3,0.2,0.6,0.3,0.9,0.5
					l-2.5,4.3C217.4,57,217.2,56.9,216.9,56.7z M176.6,52.3c0.3-0.2,0.6-0.3,0.9-0.5l2.3,4.4c-0.3,0.2-0.6,0.3-0.8,0.4L176.6,52.3z
					 M214.4,55.4l2.1-4.5c0.3,0.2,0.6,0.3,1,0.5l-2.2,4.5C214.9,55.7,214.7,55.6,214.4,55.4z M179.5,50.9c0.3-0.2,0.6-0.3,1-0.4
					l2,4.6c-0.3,0.1-0.6,0.2-0.9,0.4L179.5,50.9z M211.8,54.3l1.8-4.7c0.3,0.1,0.7,0.3,1,0.4l-1.9,4.6
					C212.4,54.6,212.1,54.5,211.8,54.3z M182.4,49.7c0.3-0.1,0.7-0.2,1-0.4l1.7,4.7c-0.3,0.1-0.6,0.2-0.9,0.3L182.4,49.7z
					 M209.1,53.4l1.4-4.8c0.3,0.1,0.7,0.2,1,0.3l-1.5,4.8C209.7,53.6,209.4,53.5,209.1,53.4z M185.4,48.6c0.3-0.1,0.7-0.2,1-0.3
					l1.3,4.8c-0.3,0.1-0.6,0.2-0.9,0.3L185.4,48.6z M206.4,52.7l1.1-4.9c0.4,0.1,0.7,0.2,1,0.2l-1.2,4.9
					C207,52.9,206.7,52.8,206.4,52.7z M188.5,47.8c0.3-0.1,0.7-0.2,1-0.2l0.9,4.9c-0.3,0.1-0.6,0.1-0.9,0.2L188.5,47.8z M203.6,52.2
					l0.7-5c0.4,0,0.7,0.1,1.1,0.2l-0.8,4.9C204.2,52.3,203.9,52.3,203.6,52.2z M191.6,47.3c0.4,0,0.7-0.1,1.1-0.1l0.6,5
					c-0.3,0-0.6,0.1-0.9,0.1L191.6,47.3z M200.8,51.9l0.4-5c0.4,0,0.7,0,1.1,0.1l-0.5,5C201.4,52,201.1,51.9,200.8,51.9z
					 M194.8,46.9c0.4,0,0.7,0,1.1-0.1l0.2,5c-0.3,0-0.6,0-0.9,0.1L194.8,46.9z M197.9,51.8v-5c0.4,0,0.7,0,1.1,0l-0.1,5
					C198.6,51.8,198.3,51.8,197.9,51.8z"/>
			</g>
			<g>
				<g>
					<path class="st24" d="M218.1,68.6c-5.1-4.6-11.7-7.4-19-7.7v-2.3c7.9,0.3,15.1,3.4,20.6,8.4L218.1,68.6z"/>
					<path class="st24" d="M196.8,58.6v2.3c-7.3,0.3-13.9,3.1-19,7.7l-1.7-1.7C181.7,62,188.9,58.8,196.8,58.6z"/>
					<path class="st24" d="M176.2,70.2c-4.8,5-7.9,11.7-8.3,19h-2.4c0.4-8,3.8-15.2,9-20.7L176.2,70.2z"/>
				</g>
			</g>
			<g>
				<path class="st24" d="M227.9,89.2c-0.4-7.3-3.5-14-8.3-19l1.7-1.7c5.2,5.4,8.6,12.7,9,20.7L227.9,89.2L227.9,89.2z"/>
				<path class="st24" d="M220.3,111c4.7-5.2,7.6-12.1,7.7-19.6h2.4c-0.1,8.2-3.3,15.6-8.4,21.3L220.3,111z"/>
				<path class="st24" d="M167.9,91.4c0.1,7.5,3,14.4,7.7,19.6l-1.7,1.7c-5.1-5.6-8.3-13.1-8.4-21.3H167.9z"/>
				<path class="st24" d="M177.2,112.6c5.1,4.9,12,8,19.6,8.3v2.3c-8.2-0.3-15.7-3.7-21.3-9L177.2,112.6z"/>
				<path class="st24" d="M199.1,120.9c7.6-0.3,14.5-3.4,19.6-8.3l1.7,1.7c-5.6,5.3-13.1,8.7-21.3,9V120.9z"/>
			</g>
			<g>
				<path class="st24" d="M148.4,95.9c1.2,11.9,6.6,22.5,14.6,30.5l-2.8,2.8c-8.8-8.7-14.6-20.3-15.8-33.3H148.4z"/>
				<path class="st24" d="M247.5,95.9h4c-1.2,13-7,24.7-15.8,33.3l-2.8-2.8C240.9,118.4,246.3,107.8,247.5,95.9z"/>
				<path class="st24" d="M160,58.7c-7.4,8.7-11.9,19.9-11.9,32.2c0,0.4,0,0.9,0,1.3h-4c0-0.4,0-0.9,0-1.3c0-13.4,4.9-25.6,13-35
					L160,58.7z"/>
				<path class="st24" d="M199.8,140.7c11.6-0.4,22.1-4.8,30.4-11.8l2.8,2.8c-9,7.7-20.6,12.6-33.2,13L199.8,140.7L199.8,140.7z"/>
				<path class="st24" d="M233.4,56c-8.6-8.8-20.5-14.4-33.6-14.8v-4c14.2,0.5,27.1,6.5,36.4,16L233.4,56z"/>
				<path class="st24" d="M247.7,92.2c0-0.4,0-0.9,0-1.3c0-12.3-4.5-23.5-11.9-32.2l2.8-2.8c8.1,9.4,13,21.7,13,35
					c0,0.4,0,0.9,0,1.3L247.7,92.2L247.7,92.2z"/>
				<path class="st24" d="M196.1,41.2c-13.1,0.5-25,6.1-33.6,14.8l-2.8-2.8c9.4-9.5,22.2-15.5,36.4-16V41.2z"/>
				<path class="st24" d="M165.8,128.9c8.2,7,18.8,11.4,30.4,11.8v4c-12.7-0.4-24.2-5.2-33.2-13L165.8,128.9z"/>
			</g>
		</g>
		<g>
			<g>
				<g>
					<path class="st2" d="M179.1,84.7h4.5V67.6c0-7.9,6.5-14.4,14.4-14.4c7.9,0,14.4,6.5,14.4,14.4v17h4.5v-17
						c0-10.4-8.5-18.9-18.9-18.9s-18.9,8.5-18.9,18.9V84.7z"/>
				</g>
				<g>
					<path class="st2" d="M198,69.6c15.9,0,28.7,6,28.7,6s0,38.8-28.7,56.3c-28.7-17.5-28.7-56.3-28.7-56.3S182.2,69.6,198,69.6z"/>
					<path class="st4" d="M169.4,75.6c0,0,12.8-6,28.7-6v62.3C169.4,114.3,169.4,75.6,169.4,75.6z"/>
					<g>
						<path class="st6" d="M197.9,129.3c-26.3-16-26.6-51.8-26.6-52.1V77l0.2-0.1c0.1-0.1,12.1-5.4,26.6-5.4
							c14.5,0,26.4,5.3,26.6,5.4l0.2,0.1v0.2c0,0.4-0.3,36.1-26.6,52.1l-0.1,0.1L197.9,129.3z M198,72.1c-13.5,0-24.7,4.6-26.2,5.2
							c0.1,2.8,1.3,36.1,26.2,51.4c24.9-15.3,26.1-48.6,26.2-51.4C222.7,76.7,211.5,72.1,198,72.1z"/>
					</g>
				</g>
			</g>
			<g>
				<circle class="st3" cx="197.9" cy="90.9" r="4.3"/>
				<polygon class="st3" points="195.2,106.4 200.8,106.4 199.7,92.8 196.3,92.8 				"/>
			</g>
		</g>
		<g>
			<rect x="116.3" y="114.4" class="st11" width="58" height="36.7"/>
			<rect x="151.1" y="119.5" class="st10" width="18.2" height="6.2"/>
			<rect x="151.1" y="129.1" class="st10" width="18.2" height="17.1"/>
			<g>
				<rect x="120.7" y="144.1" class="st10" width="27.1" height="2.1"/>
				<rect x="120.7" y="139.9" class="st10" width="27.1" height="2.1"/>
				<rect x="120.7" y="135.9" class="st10" width="27.1" height="2.1"/>
				<rect x="120.7" y="131.8" class="st10" width="27.1" height="2.1"/>
				<rect x="120.7" y="127.7" class="st10" width="27.1" height="2.1"/>
				<rect x="120.7" y="123.6" class="st10" width="27.1" height="2.1"/>
				<rect x="120.7" y="119.5" class="st10" width="27.1" height="2.1"/>
			</g>
		</g>
	</g>
</g>
</svg>
