<?xml version="1.0" encoding="utf-8"?>
<!-- Generator: Adobe Illustrator 26.2.1, SVG Export Plug-In . SVG Version: 6.00 Build 0)  -->
<svg version="1.1" id="Isolation_Mode" xmlns="http://www.w3.org/2000/svg" xmlns:xlink="http://www.w3.org/1999/xlink" x="0px"
	 y="0px" viewBox="0 0 731.44 669.17" style="enable-background:new 0 0 731.44 669.17;" xml:space="preserve">
<g>
	<g>
		<g>
			<polygon style="fill:#8CB4F4;" points="302.79,657.9 345.5,657.37 445.24,241.77 402.53,242.3 			"/>
			<path style="fill:#8CB4F4;" d="M232.24,667.15h191.51l0,0c0-11.21-9.08-20.29-20.29-20.29H252.53
				C241.32,646.86,232.24,655.95,232.24,667.15L232.24,667.15z"/>
		</g>
		<polygon style="fill:#1D3F77;" points="674.64,474.73 656.25,382.5 656.25,382.5 656.21,382.31 594.99,75.41 0,75.5 79.65,474.81 
			192.66,474.8 192.66,474.8 193.73,474.8 320.21,474.78 320.59,474.78 320.59,474.78 446.52,474.76 447.38,474.76 447.38,474.76 
			573.04,474.74 573.04,474.74 574.18,474.74 574.18,474.74 		"/>
		<g>
			<polygon style="fill:#2A4E96;" points="684.83,466.83 89.84,466.92 10.19,75.5 605.18,75.41 			"/>
			<g>
				<g>
					<polygon style="fill:#C0D8FB;" points="203.99,466.9 202.86,466.9 123.42,76.53 124.56,76.53 					"/>
				</g>
				<g>
					<polygon style="fill:#C0D8FB;" points="330.79,466.88 329.65,466.88 250.21,76.51 251.35,76.51 					"/>
				</g>
				<g>
					<polygon style="fill:#C0D8FB;" points="457.58,466.87 456.44,466.87 377,76.5 378.14,76.5 					"/>
				</g>
				<g>
					<polygon style="fill:#C0D8FB;" points="584.37,466.85 583.23,466.85 503.79,76.48 504.93,76.48 					"/>
				</g>
				<g>
					<polygon style="fill:#C0D8FB;" points="624.09,168.3 29.09,168.39 28.88,167.32 623.87,167.23 					"/>
				</g>
				<g>
					<polygon style="fill:#C0D8FB;" points="645.26,272.37 50.27,272.45 50.05,271.38 645.04,271.3 					"/>
				</g>
				<g>
					<polygon style="fill:#C0D8FB;" points="666.44,376.43 71.44,376.52 71.23,375.45 666.22,375.36 					"/>
				</g>
			</g>
			<g>
				<polygon style="fill:#C0D8FB;" points="144.91,179.34 130.32,167.84 140.23,156.33 154.82,167.84 				"/>
				<polygon style="fill:#C0D8FB;" points="166.2,283.94 151.61,272.44 161.51,260.93 176.1,272.44 				"/>
				<polygon style="fill:#C0D8FB;" points="272.27,179.33 257.68,167.82 267.59,156.31 282.18,167.82 				"/>
				<polygon style="fill:#C0D8FB;" points="293.56,283.93 278.97,272.42 288.87,260.91 303.46,272.42 				"/>
				<polygon style="fill:#C0D8FB;" points="399.06,179.31 384.47,167.8 394.38,156.3 408.97,167.8 				"/>
				<polygon style="fill:#C0D8FB;" points="524.71,179.29 510.13,167.79 520.03,156.28 534.62,167.78 				"/>
				<polygon style="fill:#C0D8FB;" points="187.26,387.47 172.67,375.97 182.58,364.46 197.17,375.97 				"/>
				<polygon style="fill:#C0D8FB;" points="314.62,387.45 300.03,375.95 309.94,364.44 324.53,375.95 				"/>
				<polygon style="fill:#C0D8FB;" points="441.41,387.44 426.82,375.93 436.73,364.43 451.32,375.93 				"/>
				<polygon style="fill:#C0D8FB;" points="567.07,387.42 552.48,375.91 562.38,364.41 576.97,375.91 				"/>
				<polygon style="fill:#C0D8FB;" points="546,283.89 531.41,272.39 541.32,260.88 555.91,272.38 				"/>
				<polygon style="fill:#C0D8FB;" points="420.35,283.91 405.76,272.4 415.66,260.9 430.25,272.4 				"/>
			</g>
		</g>
	</g>
	<g>
		<g>
			
				<rect x="483.76" y="189.85" transform="matrix(0.9699 -0.2435 0.2435 0.9699 -36.2389 124.9778)" style="fill:#ADC8FE;" width="7.25" height="38.43"/>
			<path style="fill:#ADC8FE;" d="M485.17,177.45c0,0.03,0,0,0,0.03c0.35,2.88-0.48,5.97-3.2,6.99c-3.63,1.36-6.09-1-7.01-4.66
				c0-0.02-0.23-0.93-0.24-0.95c-0.31-1.28-3.27-0.23-3.7,1.01c-0.77,2.23-0.79,4.76,0.15,7.2c1.72,4.46,6.38,7.21,11.12,6.56
				c6.29-0.86,10.26-6.93,8.76-12.91c-0.42-1.67-1.22-3.15-2.28-4.35C487.73,175.2,484.96,175.9,485.17,177.45z"/>
			<path style="fill:#ADC8FE;" d="M488.73,241.44c0-0.03,0,0,0-0.03c-0.35-2.88,0.48-5.97,3.2-6.99c3.63-1.36,6.09,1,7.01,4.66
				c0,0.02,0.23,0.93,0.24,0.95c0.31,1.28,3.27,0.23,3.7-1.01c0.77-2.23,0.79-4.76-0.15-7.2c-1.72-4.46-6.38-7.21-11.12-6.56
				c-6.29,0.86-10.26,6.93-8.76,12.91c0.42,1.67,1.22,3.15,2.28,4.35C486.17,243.69,488.95,242.99,488.73,241.44z"/>
		</g>
		<g>
			<path style="fill:#FFB27D;" d="M472,96c0,0-7.12-14.79-12.9-19.38c-5.78-4.59-21.21-3.47-21.8-2.3
				c-1.83,3.64,12.38,9.3,14.02,12.64c1.64,3.34-5.17,3,0.06,8.8c4.42,4.9,14.99,9.57,14.99,9.57L472,96z"/>
			<path style="fill:#77A4E5;" d="M465.84,94.31c3.75-5.83,4.86-6.13,4.86-6.13s61.93,24.7,67.84,26.76
				c5.91,2.06,94.27,7.26,94.27,7.26l26.66,58.61c0,0-117.75-26.85-132.62-32.37c-24.58-9.12-64-44.85-64-44.85
				S462.9,98.89,465.84,94.31z"/>
			<path style="fill:#FFB27D;" d="M456.58,91.7c-0.07-0.07,2.28-3.18-0.74-6.75c-2.22-2.63-2.71,2.38-6.5,1.12
				c-3.15-1.04-11.6-2.3-6.13,2.11c5.03,4.06,10,9.51,11.86,10.78C456.92,100.23,456.58,91.7,456.58,91.7z"/>
			<path style="fill:#163560;" d="M619.7,642.32c0,0-1.35,21.74-5.39,26.85h-62.12c0.39-2.17,2.15-7.52,9.92-8.88
				c9.82-1.71,26.25-8.6,32.19-21.58C600.55,625.07,619.7,642.32,619.7,642.32z"/>
			<path style="fill:#163560;" d="M729.93,639.29c0,0,4.1,27.06-1.22,27.55c-0.71,0.06-25.59,0.02-32.35,1.03
				c-11.05,1.65-29.48,0.21-29.48,0.21c-2.31,0.1-3.82-2.4-2.64-4.39c1.29-2.18,3.75-4.51,8.44-5.41
				c9.78-1.88,26.09-9.07,31.8-22.14C710.49,622.38,729.93,639.29,729.93,639.29z"/>
			<path style="fill:#E58638;" d="M729.93,639.29c0,0-5.75,2.2-14.87,2.97c-6.13,0.52-10.96-0.25-13.64-0.87
				c-1.5-0.35-2.32-0.65-2.32-0.65s-1.05-13.21-9.56-41.06c-0.64-2.1-1.33-4.3-2.06-6.58c-0.96-2.98-1.99-6.11-3.12-9.38
				c-0.74-2.14-1.5-4.33-2.31-6.59c-7.07-19.9-17.08-44.66-31.18-74.55c-4.66-9.9-9.02-19.35-13.06-28.35
				c-34.79-77.37-47.32-121.23-47.32-121.23l1.52-0.91l61.71-36.75l10.37-6.17h0.01l16.33-9.73c0,0,0.23,6.98,0.85,18.3
				c0,0.16,0.01,0.31,0.02,0.48c2.06,37.99,8.39,123.49,24.58,160.19c9.86,22.31,15.75,58.78,19.23,91.34
				c0.24,2.29,0.48,4.58,0.7,6.82c0.34,3.4,0.65,6.74,0.93,10c0.21,2.31,0.4,4.59,0.57,6.81
				C729.42,619.7,729.93,639.29,729.93,639.29z"/>
			<path style="fill:#F99746;" d="M667.21,309.28c0,0-1.03,3.73-2.69,10.18c-3.7,14.28-10.54,41.89-16.38,71.75
				c-5.65,28.94-10.37,59.99-10.33,83.03c0.01,4.9,0.23,9.44,0.7,13.52c2.84,24.57-0.34,60.74-4.48,92.06
				c-0.31,2.32-0.63,4.61-0.94,6.88c-0.48,3.44-0.97,6.81-1.46,10.07c-0.35,2.33-0.69,4.61-1.04,6.82
				c-3.66,23.4-7.03,40.13-7.03,40.13s-1.46,0.33-4.03,0.74c-3.67,0.62-9.6,1.41-16.74,1.73c-4.15,0.18-8.7-1.29-11.53-2.41
				c-1.69-0.68-2.76-1.22-2.76-1.22s1.44-12.72,0.49-40.59c-0.04-1.09-0.08-2.2-0.13-3.33l-0.14-3.48c-0.13-3.07-0.29-6.29-0.5-9.67
				c-0.12-2.21-0.27-4.48-0.41-6.83c-1.45-21.86-4.14-49.71-8.99-84.12c-10.47-74.27-12.82-138.69-13.3-169.4
				c-0.19-12.27-0.1-19.15-0.1-19.15l3.32,0.11l4.13,0.13l66.76,2.16l24.47,0.8h0.01L667.21,309.28z"/>
			<path style="fill:#FFB27D;" d="M634.61,107.93l-16.54,12.25l-23.91-5.03c0.33-2.18,1.91-11.21,3.35-19.4
				c0.09-0.48,0.17-0.96,0.25-1.44c1.23-6.96,2.29-12.95,2.29-12.95l22.33-11.13l8.33-4.15c-0.02,0.15-0.65,7.73-0.73,8.83
				C628.42,94.58,634.61,107.93,634.61,107.93z"/>
			<path style="fill:#77A4E5;" d="M595.84,101.75c0.52-0.22,32.52-9.66,36-8.52c3.48,1.15,5.53,7.87,5.53,7.87l-49.4,14.07
				C587.97,115.18,589.15,104.56,595.84,101.75z"/>
			<path style="fill:#ADC8FE;" d="M681.99,316.43c-5.41,24.74-118.49-52.89-116.98-67.99c0.17-1.66,0.33-3.33,0.5-4.99
				c2.09-21.02,4.09-41.59,4.23-55.02c0.11-11.64,1.71-23.55,3.85-34.37c1.96-9.99,4.38-19.05,6.48-26.11
				c1.48-4.97,4.24-9.35,7.9-12.79c2.6-2.45,5.65-4.41,9.02-5.75c0.91-0.39,1.85-0.71,2.8-0.98c13.62-3.95,32.46-8.84,37.57-7.35
				c13.84,4.07,24.12,28.43,31.4,59.48C682.38,218.7,685.53,300.31,681.99,316.43z"/>
			<path style="fill:#FCA56B;" d="M628.3,75.27c-4.9,9.38-23.17,17.5-30.79,20.48c0.09-0.48,0.17-0.96,0.25-1.44
				c1.23-6.96,2.29-12.95,2.29-12.95l22.33-11.13C627.32,70.16,630.33,71.41,628.3,75.27z"/>
			<path style="fill:#FFB27D;" d="M589.21,80.06c0,0,40.28,12.57,47.72-12.64c7.44-25.21,17.65-40.56-7.76-49.65
				c-25.41-9.09-33.26-0.95-37.79,6.86C586.85,32.44,578.92,76.14,589.21,80.06z"/>
			<path style="fill:#CE6719;" d="M592.96,22.2c0,0,2.57,29.33,8.63,28.06c6.07-1.27,11.57-2.22,10.68,6.62s-9.3,19.05,9.39,20.62
				c18.69,1.56,45.57-46.65,40.43-55.77C647.29-4.61,571.55-9.93,592.96,22.2z"/>
			<path style="fill:#77A4E5;" d="M568.42,305.98c11.2,4.05-0.19-11.13,0-14.29c0.87-13.91-4.59-31.49-2.91-48.23l68.39-40.88
				C633.9,202.58,650.13,305.33,568.42,305.98z"/>
			<path style="fill:#F99746;" d="M681.99,316.43c-29.2,54.11-33.84,74.77-33.84,74.77c-25.41-2.9-68.95-52.85-82.76-66.19
				c0,0-1.88-61.47-0.37-76.57l21.11-0.61c0,0,38.15,9.67,48.04-3.45c9.89-13.12,5.61-77.53,5.61-77.53l28.99-6.27
				C682.38,218.7,689.83,301.91,681.99,316.43z"/>
			<path style="fill:#FFB27D;" d="M508.76,212.74c0,0-13.9-9.4-16.53-10.22c-2.64-0.82-11.28-1.71-11.68-1.03
				c-0.4,0.68-1.58,2.77-0.08,3.47c1.51,0.71,3.39,0.46,2.83,0.95c-0.56,0.49-6.25-2.21-7.56,0.69c-1.31,2.9-2.46,12.82,4.2,15.83
				c6.67,3.01,23.12,0.29,24.31,0.63C514.31,226,508.76,212.74,508.76,212.74z"/>
			<path style="fill:#ADC8FE;" d="M508.63,210.2c0,0,67.83,11.53,73.84,8.61c9.59-4.67-3.72-73.49-3.72-73.49
				s-0.57-15.6,17.65-19.28c15.83-3.2,31.11,8.66,31.11,8.66s13.89,12.43,12.12,26.22c-3.93,30.56-10.05,92.72-30.49,102.25
				c-26.36,12.29-102.65-34.08-102.65-34.08s-2.54-3.11-2.18-8.89C504.61,215.1,508.63,210.2,508.63,210.2z"/>
			<path style="fill:#F99746;" d="M645.39,165.64l-5.62,1.21c0,0-11.88-51.42-51.8-51.67c2.6-2.45,5.65-4.41,9.02-5.75
				C611.62,113.36,637.02,125.86,645.39,165.64z"/>
		</g>
	</g>
	<g>
		<path style="fill:#FFFFFF;" d="M634.03,579.82c-0.31,2.32-0.63,4.61-0.94,6.88c-13.69,1.93-27.04,1.13-36.98-0.07
			c-2.97-0.36-5.63-0.77-7.9-1.15c-0.12-2.21-0.27-4.48-0.41-6.83C597.33,580.32,615.63,582.79,634.03,579.82z"/>
	</g>
	<path style="fill:#FFFFFF;" d="M588.71,595.15l0.14,3.48l0.13,3.33c2.28,0.37,4.94,0.77,7.93,1.15c9.13,1.11,21.16,1.88,33.67,0.48
		c0.35-2.21,0.69-4.49,1.04-6.82C614.41,598.98,597.71,596.71,588.71,595.15z"/>
	<g style="opacity:0.5;">
		<path style="fill:#FFFFFF;" d="M725.81,576.59c-12.76,4.32-25.65,6.06-35.41,6.79c-2.19,0.17-4.21,0.27-6.05,0.35
			c-0.74-2.14-1.5-4.33-2.31-6.59c9.72-0.29,26.72-1.53,43.06-7.36C725.35,572.06,725.59,574.34,725.81,576.59z"/>
	</g>
	<g style="opacity:0.5;">
		<path style="fill:#FFFFFF;" d="M727.31,593.39c-11.93,3.74-23.79,5.31-32.91,5.99c-1.73,0.13-3.36,0.23-4.87,0.3
			c-0.64-2.1-1.33-4.3-2.06-6.58c9.4-0.36,24.45-1.63,39.27-6.52C726.95,588.89,727.14,591.17,727.31,593.39z"/>
	</g>
</g>
</svg>
