<?xml version="1.0" encoding="utf-8"?>
<!-- Generator: Adobe Illustrator 26.1.0, SVG Export Plug-In . SVG Version: 6.00 Build 0)  -->
<svg version="1.1" id="Layer_1" xmlns="http://www.w3.org/2000/svg" xmlns:xlink="http://www.w3.org/1999/xlink" x="0px" y="0px"
	 viewBox="0 0 383.7 353.21" style="enable-background:new 0 0 383.7 353.21;" xml:space="preserve">
<g>
	<g>
		<g>
			<g>
				<g>
					<path style="fill:#BFC8D6;" d="M19.53,146.79c-0.01,0-0.02,0-0.03,0l-3.57-0.2c-0.33-0.02-0.58-0.3-0.56-0.63
						c0.02-0.33,0.31-0.58,0.63-0.56l3.57,0.2c0.33,0.02,0.58,0.3,0.56,0.63C20.11,146.54,19.84,146.79,19.53,146.79z"/>
				</g>
				<g>
					<path style="fill:#BFC8D6;" d="M330.87,164.6c-0.01,0-0.02,0-0.03,0l-7.08-0.4c-0.33-0.02-0.58-0.3-0.56-0.63
						c0.02-0.33,0.32-0.58,0.63-0.56l7.08,0.4c0.33,0.02,0.58,0.3,0.56,0.63C331.44,164.35,331.18,164.6,330.87,164.6z
						 M316.72,163.79c-0.01,0-0.02,0-0.03,0l-7.08-0.4c-0.33-0.02-0.58-0.3-0.56-0.63c0.02-0.33,0.32-0.58,0.63-0.56l7.08,0.4
						c0.33,0.02,0.58,0.3,0.56,0.63C317.29,163.54,317.03,163.79,316.72,163.79z M302.56,162.98c-0.01,0-0.02,0-0.03,0l-7.08-0.4
						c-0.33-0.02-0.58-0.3-0.56-0.63c0.02-0.33,0.32-0.58,0.63-0.56l7.08,0.4c0.33,0.02,0.58,0.3,0.56,0.63
						C303.14,162.73,302.88,162.98,302.56,162.98z M288.41,162.17c-0.01,0-0.02,0-0.03,0l-7.08-0.4c-0.33-0.02-0.58-0.3-0.56-0.63
						c0.02-0.33,0.32-0.58,0.63-0.56l7.08,0.4c0.33,0.02,0.58,0.3,0.56,0.63C288.99,161.92,288.73,162.17,288.41,162.17z
						 M274.26,161.36c-0.01,0-0.02,0-0.03,0l-7.08-0.4c-0.33-0.02-0.58-0.3-0.56-0.63c0.02-0.33,0.32-0.58,0.63-0.56l7.08,0.4
						c0.33,0.02,0.58,0.3,0.56,0.63C274.84,161.11,274.57,161.36,274.26,161.36z M260.11,160.55c-0.01,0-0.02,0-0.03,0l-7.08-0.4
						c-0.33-0.02-0.58-0.3-0.56-0.63c0.02-0.33,0.32-0.58,0.63-0.56l7.08,0.4c0.33,0.02,0.58,0.3,0.56,0.63
						C260.68,160.3,260.42,160.55,260.11,160.55z M245.96,159.74c-0.01,0-0.02,0-0.03,0l-7.08-0.4c-0.33-0.02-0.58-0.3-0.56-0.63
						c0.02-0.33,0.32-0.58,0.63-0.56l7.08,0.4c0.33,0.02,0.58,0.3,0.56,0.63C246.53,159.49,246.27,159.74,245.96,159.74z
						 M231.81,158.93c-0.01,0-0.02,0-0.03,0l-7.08-0.4c-0.33-0.02-0.58-0.3-0.56-0.63c0.02-0.33,0.32-0.58,0.63-0.56l7.08,0.4
						c0.33,0.02,0.58,0.3,0.56,0.63C232.38,158.68,232.12,158.93,231.81,158.93z M217.65,158.12c-0.01,0-0.02,0-0.03,0l-7.08-0.4
						c-0.33-0.02-0.58-0.3-0.56-0.63c0.02-0.33,0.32-0.58,0.63-0.56l7.08,0.4c0.33,0.02,0.58,0.3,0.56,0.63
						C218.23,157.87,217.97,158.12,217.65,158.12z M203.5,157.31c-0.01,0-0.02,0-0.03,0l-7.08-0.4c-0.33-0.02-0.58-0.3-0.56-0.63
						c0.02-0.33,0.32-0.58,0.63-0.56l7.08,0.4c0.33,0.02,0.58,0.3,0.56,0.63C204.08,157.07,203.82,157.31,203.5,157.31z
						 M189.35,156.5c-0.01,0-0.02,0-0.03,0l-7.08-0.4c-0.33-0.02-0.58-0.3-0.56-0.63c0.02-0.33,0.3-0.58,0.63-0.56l7.08,0.4
						c0.33,0.02,0.58,0.3,0.56,0.63C189.93,156.26,189.66,156.5,189.35,156.5z M175.2,155.69c-0.01,0-0.02,0-0.03,0l-7.08-0.4
						c-0.33-0.02-0.58-0.3-0.56-0.63c0.02-0.33,0.3-0.58,0.63-0.56l7.08,0.4c0.33,0.02,0.58,0.3,0.56,0.63
						C175.77,155.45,175.51,155.69,175.2,155.69z M161.05,154.88c-0.01,0-0.02,0-0.03,0l-7.08-0.4c-0.33-0.02-0.58-0.3-0.56-0.63
						c0.02-0.33,0.3-0.58,0.63-0.56l7.08,0.4c0.33,0.02,0.58,0.3,0.56,0.63C161.62,154.64,161.36,154.88,161.05,154.88z
						 M146.9,154.07c-0.01,0-0.02,0-0.03,0l-7.08-0.4c-0.33-0.02-0.58-0.3-0.56-0.63c0.02-0.33,0.3-0.58,0.63-0.56l7.08,0.4
						c0.33,0.02,0.58,0.3,0.56,0.63C147.47,153.83,147.21,154.07,146.9,154.07z M132.74,153.26c-0.01,0-0.02,0-0.03,0l-7.08-0.4
						c-0.33-0.02-0.58-0.3-0.56-0.63c0.02-0.33,0.3-0.58,0.63-0.56l7.08,0.4c0.33,0.02,0.58,0.3,0.56,0.63
						C133.32,153.02,133.06,153.26,132.74,153.26z M118.59,152.45c-0.01,0-0.02,0-0.03,0l-7.08-0.4c-0.33-0.02-0.58-0.3-0.56-0.63
						c0.02-0.33,0.3-0.58,0.63-0.56l7.08,0.4c0.33,0.02,0.58,0.3,0.56,0.63C119.17,152.21,118.91,152.45,118.59,152.45z
						 M104.44,151.64c-0.01,0-0.02,0-0.03,0l-7.08-0.4c-0.33-0.02-0.58-0.3-0.56-0.63c0.02-0.33,0.31-0.58,0.63-0.56l7.08,0.4
						c0.33,0.02,0.58,0.3,0.56,0.63C105.02,151.4,104.75,151.64,104.44,151.64z M90.29,150.83c-0.01,0-0.02,0-0.03,0l-7.08-0.4
						c-0.33-0.02-0.58-0.3-0.56-0.63c0.02-0.33,0.31-0.58,0.63-0.56l7.08,0.4c0.33,0.02,0.58,0.3,0.56,0.63
						C90.86,150.59,90.6,150.83,90.29,150.83z M76.14,150.02c-0.01,0-0.02,0-0.03,0l-7.08-0.4c-0.33-0.02-0.58-0.3-0.56-0.63
						c0.02-0.33,0.31-0.58,0.63-0.56l7.08,0.4c0.33,0.02,0.58,0.3,0.56,0.63C76.71,149.78,76.45,150.02,76.14,150.02z M61.99,149.22
						c-0.01,0-0.02,0-0.03,0l-7.08-0.4c-0.33-0.02-0.58-0.3-0.56-0.63c0.02-0.33,0.31-0.58,0.63-0.56l7.08,0.4
						c0.33,0.02,0.58,0.3,0.56,0.63C62.56,148.97,62.3,149.22,61.99,149.22z M47.83,148.41c-0.01,0-0.02,0-0.03,0l-7.08-0.4
						c-0.33-0.02-0.58-0.3-0.56-0.63c0.02-0.33,0.31-0.58,0.63-0.56l7.08,0.4c0.33,0.02,0.58,0.3,0.56,0.63
						C48.41,148.16,48.15,148.41,47.83,148.41z M33.68,147.6c-0.01,0-0.02,0-0.03,0l-7.08-0.4c-0.33-0.02-0.58-0.3-0.56-0.63
						c0.02-0.33,0.31-0.58,0.63-0.56l7.08,0.4c0.33,0.02,0.58,0.3,0.56,0.63C34.26,147.35,34,147.6,33.68,147.6z"/>
				</g>
				<g>
					<path style="fill:#BFC8D6;" d="M341.51,165.2c-0.01,0-0.02,0-0.03,0l-3.57-0.2c-0.33-0.02-0.58-0.3-0.56-0.63
						c0.02-0.33,0.32-0.58,0.63-0.56l3.57,0.2c0.33,0.02,0.58,0.3,0.56,0.63C342.08,164.96,341.82,165.2,341.51,165.2z"/>
				</g>
			</g>
			<g>
				<g>
					<path style="fill:#BFC8D6;" d="M86.04,42.19c-0.03,0-0.07,0-0.1-0.01l-3.52-0.59c-0.32-0.05-0.54-0.36-0.49-0.69
						c0.05-0.32,0.36-0.54,0.69-0.49l3.52,0.59c0.32,0.05,0.54,0.36,0.49,0.69C86.57,41.98,86.32,42.19,86.04,42.19z"/>
				</g>
				<g>
					<path style="fill:#BFC8D6;" d="M301.76,78.25c-0.03,0-0.07,0-0.1-0.01l-7.19-1.2c-0.32-0.05-0.54-0.36-0.49-0.69
						c0.05-0.32,0.36-0.54,0.69-0.49l7.19,1.2c0.32,0.05,0.54,0.36,0.49,0.69C302.29,78.04,302.04,78.25,301.76,78.25z
						 M287.37,75.84c-0.03,0-0.07,0-0.1-0.01l-7.19-1.2c-0.32-0.05-0.54-0.36-0.49-0.69c0.05-0.32,0.36-0.54,0.69-0.49l7.19,1.2
						c0.32,0.05,0.54,0.36,0.49,0.69C287.91,75.64,287.66,75.84,287.37,75.84z M272.99,73.44c-0.03,0-0.07,0-0.1-0.01l-7.19-1.2
						c-0.32-0.05-0.54-0.36-0.49-0.69c0.05-0.32,0.36-0.54,0.69-0.49l7.19,1.2c0.32,0.05,0.54,0.36,0.49,0.69
						C273.53,73.23,273.28,73.44,272.99,73.44z M258.61,71.04c-0.03,0-0.07,0-0.1-0.01l-7.19-1.2c-0.32-0.05-0.54-0.36-0.49-0.69
						c0.05-0.32,0.36-0.54,0.69-0.49l7.19,1.2c0.32,0.05,0.54,0.36,0.49,0.69C259.15,70.83,258.9,71.04,258.61,71.04z M244.23,68.63
						c-0.03,0-0.07,0-0.1-0.01l-7.19-1.2c-0.32-0.05-0.54-0.36-0.49-0.69c0.05-0.32,0.36-0.54,0.69-0.49l7.19,1.2
						c0.32,0.05,0.54,0.36,0.49,0.69C244.77,68.43,244.52,68.63,244.23,68.63z M229.85,66.23c-0.03,0-0.07,0-0.1-0.01l-7.19-1.2
						c-0.32-0.05-0.54-0.36-0.49-0.69c0.05-0.32,0.36-0.54,0.69-0.49l7.19,1.2c0.32,0.05,0.54,0.36,0.49,0.69
						C230.39,66.02,230.14,66.23,229.85,66.23z M215.47,63.83c-0.03,0-0.07,0-0.1-0.01l-7.19-1.2c-0.32-0.05-0.54-0.36-0.49-0.69
						c0.05-0.32,0.36-0.54,0.69-0.49l7.19,1.2c0.32,0.05,0.54,0.36,0.49,0.69C216.01,63.62,215.75,63.83,215.47,63.83z
						 M201.09,61.42c-0.03,0-0.07,0-0.1-0.01l-7.19-1.2c-0.32-0.05-0.54-0.36-0.49-0.69c0.05-0.32,0.36-0.54,0.69-0.49l7.19,1.2
						c0.32,0.05,0.54,0.36,0.49,0.69C201.62,61.22,201.37,61.42,201.09,61.42z M186.71,59.02c-0.03,0-0.07,0-0.1-0.01l-7.19-1.2
						c-0.32-0.05-0.54-0.36-0.49-0.69c0.05-0.32,0.36-0.54,0.69-0.49l7.19,1.2c0.32,0.05,0.54,0.36,0.49,0.69
						C187.24,58.81,186.99,59.02,186.71,59.02z M172.32,56.61c-0.03,0-0.07,0-0.1-0.01l-7.19-1.2c-0.32-0.05-0.54-0.36-0.49-0.69
						c0.05-0.32,0.36-0.54,0.69-0.49l7.19,1.2c0.32,0.05,0.54,0.36,0.49,0.69C172.86,56.41,172.61,56.61,172.32,56.61z
						 M157.94,54.21c-0.03,0-0.07,0-0.1-0.01l-7.19-1.2c-0.32-0.05-0.54-0.36-0.49-0.69c0.05-0.32,0.36-0.54,0.69-0.49l7.19,1.2
						c0.32,0.05,0.54,0.36,0.49,0.69C158.48,54,158.23,54.21,157.94,54.21z M143.56,51.81c-0.03,0-0.07,0-0.1-0.01l-7.19-1.2
						c-0.32-0.05-0.54-0.36-0.49-0.69c0.05-0.32,0.36-0.54,0.69-0.49l7.19,1.2c0.32,0.05,0.54,0.36,0.49,0.69
						C144.1,51.6,143.85,51.81,143.56,51.81z M129.18,49.4c-0.03,0-0.07,0-0.1-0.01l-7.19-1.2c-0.32-0.05-0.54-0.36-0.49-0.69
						c0.05-0.32,0.36-0.54,0.69-0.49l7.19,1.2c0.32,0.05,0.54,0.36,0.49,0.69C129.72,49.2,129.47,49.4,129.18,49.4z M114.8,47
						c-0.03,0-0.07,0-0.1-0.01l-7.19-1.2c-0.32-0.05-0.54-0.36-0.49-0.69c0.05-0.32,0.36-0.54,0.69-0.49l7.19,1.2
						c0.32,0.05,0.54,0.36,0.49,0.69C115.34,46.79,115.08,47,114.8,47z M100.42,44.59c-0.03,0-0.07,0-0.1-0.01l-7.19-1.2
						c-0.32-0.05-0.54-0.36-0.49-0.69c0.05-0.32,0.36-0.54,0.69-0.49l7.19,1.2c0.32,0.05,0.54,0.36,0.49,0.69
						C100.96,44.39,100.7,44.59,100.42,44.59z"/>
				</g>
				<g>
					<path style="fill:#BFC8D6;" d="M311.79,83.54c-0.04,0-0.08,0-0.11-0.01c-0.32-0.06-0.53-0.38-0.47-0.7l0.56-2.91l-2.92-0.49
						c-0.32-0.05-0.54-0.36-0.49-0.69c0.05-0.32,0.36-0.54,0.69-0.49l3.52,0.59c0.16,0.03,0.3,0.12,0.39,0.25
						c0.09,0.13,0.13,0.3,0.1,0.45l-0.68,3.51C312.32,83.35,312.07,83.54,311.79,83.54z"/>
				</g>
				<g>
					<path style="fill:#BFC8D6;" d="M278.28,256.21c-0.04,0-0.08,0-0.11-0.01c-0.32-0.06-0.53-0.37-0.47-0.7l1.4-7.19
						c0.06-0.32,0.37-0.53,0.7-0.47c0.32,0.06,0.53,0.37,0.47,0.7l-1.4,7.19C278.81,256.02,278.56,256.21,278.28,256.21z
						 M281.07,241.82c-0.04,0-0.08,0-0.11-0.01c-0.32-0.06-0.53-0.37-0.47-0.7l1.4-7.19c0.06-0.32,0.38-0.53,0.7-0.47
						c0.32,0.06,0.53,0.37,0.47,0.7l-1.4,7.19C281.6,241.63,281.35,241.82,281.07,241.82z M283.87,227.43c-0.04,0-0.08,0-0.11-0.01
						c-0.32-0.06-0.53-0.37-0.47-0.7l1.4-7.19c0.06-0.32,0.38-0.53,0.7-0.47c0.32,0.06,0.53,0.37,0.47,0.7l-1.4,7.19
						C284.4,227.24,284.15,227.43,283.87,227.43z M286.66,213.05c-0.04,0-0.08,0-0.11-0.01c-0.32-0.06-0.53-0.37-0.47-0.7l1.4-7.19
						c0.06-0.32,0.38-0.53,0.7-0.47c0.32,0.06,0.53,0.37,0.47,0.7l-1.4,7.19C287.19,212.85,286.94,213.05,286.66,213.05z
						 M289.45,198.66c-0.04,0-0.08,0-0.11-0.01c-0.32-0.06-0.53-0.37-0.47-0.7l1.4-7.19c0.06-0.32,0.38-0.53,0.7-0.47
						c0.32,0.06,0.53,0.37,0.47,0.7l-1.4,7.19C289.98,198.46,289.73,198.66,289.45,198.66z M292.24,184.27c-0.04,0-0.08,0-0.11-0.01
						c-0.32-0.06-0.53-0.37-0.47-0.7l1.4-7.19c0.06-0.32,0.38-0.53,0.7-0.47c0.32,0.06,0.53,0.37,0.47,0.7l-1.4,7.19
						C292.77,184.07,292.52,184.27,292.24,184.27z M295.04,169.88c-0.04,0-0.08,0-0.11-0.01c-0.32-0.06-0.53-0.37-0.47-0.7l1.4-7.19
						c0.06-0.32,0.38-0.53,0.7-0.47c0.32,0.06,0.53,0.37,0.47,0.7l-1.4,7.19C295.56,169.68,295.32,169.88,295.04,169.88z
						 M297.83,155.49c-0.04,0-0.08,0-0.11-0.01c-0.32-0.06-0.53-0.37-0.47-0.7l1.4-7.19c0.06-0.32,0.38-0.53,0.7-0.47
						c0.32,0.06,0.53,0.37,0.47,0.7l-1.4,7.19C298.36,155.29,298.11,155.49,297.83,155.49z M300.62,141.1c-0.04,0-0.08,0-0.11-0.01
						c-0.32-0.06-0.53-0.37-0.47-0.7l1.4-7.19c0.06-0.32,0.38-0.53,0.7-0.47c0.32,0.06,0.53,0.37,0.47,0.7l-1.4,7.19
						C301.15,140.9,300.9,141.1,300.62,141.1z M303.41,126.71c-0.04,0-0.08,0-0.11-0.01c-0.32-0.06-0.53-0.37-0.47-0.7l1.4-7.19
						c0.06-0.32,0.38-0.53,0.7-0.47c0.32,0.06,0.53,0.37,0.47,0.7l-1.4,7.19C303.94,126.51,303.69,126.71,303.41,126.71z
						 M306.2,112.32c-0.04,0-0.08,0-0.11-0.01c-0.32-0.06-0.53-0.37-0.47-0.7l1.4-7.19c0.06-0.32,0.38-0.53,0.7-0.47
						c0.32,0.06,0.53,0.37,0.47,0.7l-1.4,7.19C306.73,112.12,306.48,112.32,306.2,112.32z M309,97.93c-0.04,0-0.08,0-0.11-0.01
						c-0.32-0.06-0.53-0.37-0.47-0.7l1.4-7.19c0.06-0.32,0.38-0.53,0.7-0.47c0.32,0.06,0.53,0.37,0.47,0.7l-1.4,7.19
						C309.52,97.74,309.28,97.93,309,97.93z"/>
				</g>
				<g>
					<path style="fill:#BFC8D6;" d="M276.21,266.91c-0.03,0-0.07,0-0.1-0.01l-3.52-0.62c-0.32-0.06-0.54-0.37-0.48-0.69
						c0.06-0.32,0.36-0.54,0.69-0.48l2.94,0.52l0.57-2.93c0.06-0.32,0.37-0.53,0.7-0.47c0.32,0.06,0.53,0.37,0.47,0.7l-0.68,3.51
						C276.73,266.71,276.49,266.91,276.21,266.91z"/>
				</g>
				<g>
					<path style="fill:#BFC8D6;" d="M265.76,265.08c-0.03,0-0.07,0-0.1-0.01l-6.93-1.21c-0.32-0.06-0.54-0.37-0.48-0.69
						c0.06-0.32,0.36-0.54,0.69-0.48l6.93,1.21c0.32,0.06,0.54,0.37,0.48,0.69C266.3,264.88,266.05,265.08,265.76,265.08z
						 M251.91,262.66c-0.03,0-0.07,0-0.1-0.01l-6.93-1.21c-0.32-0.06-0.54-0.37-0.48-0.69c0.06-0.32,0.36-0.54,0.69-0.48l6.93,1.21
						c0.32,0.06,0.54,0.37,0.48,0.69C252.45,262.45,252.19,262.66,251.91,262.66z M238.06,260.23c-0.03,0-0.07,0-0.1-0.01
						l-6.93-1.21c-0.32-0.06-0.54-0.37-0.48-0.69c0.06-0.32,0.36-0.54,0.69-0.48l6.93,1.21c0.32,0.06,0.54,0.37,0.48,0.69
						C238.59,260.03,238.34,260.23,238.06,260.23z M224.21,257.81c-0.03,0-0.07,0-0.1-0.01l-6.93-1.21
						c-0.32-0.06-0.54-0.37-0.48-0.69c0.06-0.32,0.36-0.54,0.69-0.48l6.93,1.21c0.32,0.06,0.54,0.37,0.48,0.69
						C224.74,257.6,224.49,257.81,224.21,257.81z M210.35,255.38c-0.03,0-0.07,0-0.1-0.01l-6.93-1.21
						c-0.32-0.06-0.54-0.37-0.48-0.69c0.06-0.32,0.36-0.54,0.69-0.48l6.93,1.21c0.32,0.06,0.54,0.37,0.48,0.69
						C210.89,255.18,210.64,255.38,210.35,255.38z M196.5,252.95c-0.03,0-0.07,0-0.1-0.01l-6.93-1.21
						c-0.32-0.06-0.54-0.37-0.48-0.69c0.06-0.32,0.36-0.54,0.69-0.48l6.93,1.21c0.32,0.06,0.54,0.37,0.48,0.69
						C197.04,252.75,196.78,252.95,196.5,252.95z M182.65,250.53c-0.03,0-0.07,0-0.1-0.01l-6.93-1.21
						c-0.32-0.06-0.54-0.37-0.48-0.69c0.06-0.32,0.36-0.54,0.69-0.48l6.93,1.21c0.32,0.06,0.54,0.37,0.48,0.69
						C183.18,250.33,182.93,250.53,182.65,250.53z M168.8,248.1c-0.03,0-0.07,0-0.1-0.01l-6.93-1.21c-0.32-0.06-0.54-0.37-0.48-0.69
						c0.06-0.32,0.37-0.54,0.69-0.48l6.93,1.21c0.32,0.06,0.54,0.37,0.48,0.69C169.33,247.9,169.08,248.1,168.8,248.1z
						 M154.94,245.68c-0.03,0-0.07,0-0.1-0.01l-6.93-1.21c-0.32-0.06-0.54-0.37-0.48-0.69c0.06-0.32,0.37-0.54,0.69-0.48l6.93,1.21
						c0.32,0.06,0.54,0.37,0.48,0.69C155.48,245.47,155.23,245.68,154.94,245.68z M141.09,243.25c-0.03,0-0.07,0-0.1-0.01
						l-6.93-1.21c-0.32-0.06-0.54-0.37-0.48-0.69c0.06-0.32,0.37-0.54,0.69-0.48l6.93,1.21c0.32,0.06,0.54,0.37,0.48,0.69
						C141.63,243.05,141.37,243.25,141.09,243.25z M127.24,240.83c-0.03,0-0.07,0-0.1-0.01l-6.93-1.21
						c-0.32-0.06-0.54-0.37-0.48-0.69c0.06-0.32,0.37-0.54,0.69-0.48l6.93,1.21c0.32,0.06,0.54,0.37,0.48,0.69
						C127.77,240.62,127.52,240.83,127.24,240.83z M113.39,238.4c-0.03,0-0.07,0-0.1-0.01l-6.93-1.21
						c-0.32-0.06-0.54-0.37-0.48-0.69c0.06-0.32,0.37-0.54,0.69-0.48l6.93,1.21c0.32,0.06,0.54,0.37,0.48,0.69
						C113.92,238.2,113.67,238.4,113.39,238.4z M99.53,235.97c-0.03,0-0.07,0-0.1-0.01l-6.93-1.21c-0.32-0.06-0.54-0.37-0.48-0.69
						c0.06-0.32,0.37-0.54,0.69-0.48l6.93,1.21c0.32,0.06,0.54,0.37,0.48,0.69C100.07,235.77,99.82,235.97,99.53,235.97z"/>
				</g>
				<g>
					<path style="fill:#BFC8D6;" d="M85.68,233.55c-0.03,0-0.07,0-0.1-0.01l-3.52-0.62c-0.19-0.03-0.36-0.16-0.44-0.34
						c-0.08-0.18-0.07-0.39,0.03-0.55l1.84-3.06c0.17-0.28,0.53-0.37,0.82-0.2c0.28,0.17,0.37,0.53,0.2,0.82l-1.39,2.32l2.66,0.47
						c0.32,0.06,0.54,0.37,0.48,0.69C86.22,233.35,85.96,233.55,85.68,233.55z"/>
				</g>
				<g>
					<path style="fill:#BFC8D6;" d="M87.77,223.59c-0.1,0-0.21-0.03-0.31-0.08c-0.28-0.17-0.37-0.53-0.2-0.82l3.77-6.28
						c0.17-0.28,0.53-0.37,0.82-0.2c0.28,0.17,0.37,0.53,0.2,0.82l-3.77,6.28C88.17,223.49,87.97,223.59,87.77,223.59z
						 M95.31,211.04c-0.1,0-0.21-0.03-0.31-0.09c-0.28-0.17-0.37-0.53-0.2-0.82l3.77-6.28c0.17-0.28,0.53-0.37,0.82-0.2
						c0.28,0.17,0.37,0.53,0.2,0.82l-3.77,6.28C95.71,210.93,95.51,211.04,95.31,211.04z M102.85,198.48c-0.1,0-0.21-0.03-0.31-0.08
						c-0.28-0.17-0.37-0.53-0.2-0.82l3.77-6.28c0.17-0.28,0.53-0.37,0.82-0.2c0.28,0.17,0.37,0.53,0.2,0.82l-3.77,6.28
						C103.25,198.38,103.05,198.48,102.85,198.48z M110.38,185.92c-0.1,0-0.21-0.03-0.31-0.09c-0.28-0.17-0.37-0.53-0.2-0.82
						l3.77-6.28c0.17-0.28,0.53-0.37,0.82-0.2c0.28,0.17,0.37,0.53,0.2,0.82l-3.77,6.28C110.78,185.82,110.59,185.92,110.38,185.92z
						 M117.92,173.37c-0.1,0-0.21-0.03-0.31-0.09c-0.28-0.17-0.37-0.53-0.2-0.82l3.77-6.28c0.17-0.28,0.53-0.37,0.82-0.2
						c0.28,0.17,0.37,0.53,0.2,0.82l-3.77,6.28C118.32,173.27,118.12,173.37,117.92,173.37z M125.46,160.81
						c-0.1,0-0.21-0.03-0.31-0.08c-0.28-0.17-0.37-0.53-0.2-0.82l3.77-6.28c0.17-0.28,0.53-0.37,0.82-0.2
						c0.28,0.17,0.37,0.53,0.2,0.82l-3.77,6.28C125.86,160.71,125.66,160.81,125.46,160.81z M133,148.26c-0.1,0-0.21-0.03-0.31-0.08
						c-0.28-0.17-0.37-0.53-0.2-0.82l3.77-6.28c0.17-0.28,0.53-0.37,0.82-0.2c0.28,0.17,0.37,0.53,0.2,0.82l-3.77,6.28
						C133.4,148.15,133.2,148.26,133,148.26z M140.54,135.7c-0.1,0-0.21-0.03-0.31-0.09c-0.28-0.17-0.37-0.53-0.2-0.82l3.77-6.28
						c0.17-0.28,0.54-0.37,0.82-0.2c0.28,0.17,0.37,0.53,0.2,0.82l-3.77,6.28C140.94,135.6,140.74,135.7,140.54,135.7z
						 M148.08,123.14c-0.1,0-0.21-0.03-0.31-0.08c-0.28-0.17-0.37-0.53-0.2-0.82l3.77-6.28c0.17-0.28,0.53-0.37,0.82-0.2
						c0.28,0.17,0.37,0.53,0.2,0.82l-3.77,6.28C148.47,123.04,148.28,123.14,148.08,123.14z M155.61,110.59
						c-0.1,0-0.21-0.03-0.31-0.08c-0.28-0.17-0.37-0.53-0.2-0.82l3.77-6.28c0.17-0.28,0.53-0.37,0.82-0.2
						c0.28,0.17,0.37,0.53,0.2,0.82l-3.77,6.28C156.01,110.49,155.82,110.59,155.61,110.59z M163.15,98.03
						c-0.1,0-0.21-0.03-0.31-0.08c-0.28-0.17-0.37-0.53-0.2-0.82l3.77-6.28c0.17-0.28,0.53-0.37,0.82-0.2
						c0.28,0.17,0.37,0.53,0.2,0.82l-3.77,6.28C163.55,97.93,163.35,98.03,163.15,98.03z M170.69,85.48c-0.1,0-0.21-0.03-0.31-0.08
						c-0.28-0.17-0.37-0.53-0.2-0.82l3.77-6.28c0.17-0.28,0.53-0.37,0.82-0.2c0.28,0.17,0.37,0.53,0.2,0.82l-3.77,6.28
						C171.09,85.37,170.89,85.48,170.69,85.48z M178.23,72.92c-0.1,0-0.21-0.03-0.31-0.08c-0.28-0.17-0.37-0.53-0.2-0.82l3.77-6.28
						c0.17-0.28,0.53-0.37,0.82-0.2c0.28,0.17,0.37,0.53,0.2,0.82l-3.77,6.28C178.63,72.82,178.43,72.92,178.23,72.92z
						 M185.77,60.36c-0.1,0-0.21-0.03-0.31-0.09c-0.28-0.17-0.37-0.53-0.2-0.82l3.77-6.28c0.17-0.28,0.53-0.37,0.82-0.2
						c0.28,0.17,0.37,0.53,0.2,0.82l-3.77,6.28C186.17,60.26,185.97,60.36,185.77,60.36z M193.31,47.81c-0.1,0-0.21-0.03-0.31-0.08
						c-0.28-0.17-0.37-0.53-0.2-0.82l3.77-6.28c0.17-0.28,0.53-0.37,0.82-0.2c0.28,0.17,0.37,0.53,0.2,0.82l-3.77,6.28
						C193.7,47.7,193.51,47.81,193.31,47.81z M200.84,35.25c-0.1,0-0.21-0.03-0.31-0.09c-0.28-0.17-0.37-0.53-0.2-0.82l3.77-6.28
						c0.17-0.28,0.53-0.37,0.82-0.2c0.28,0.17,0.37,0.53,0.2,0.82l-3.77,6.28C201.24,35.15,201.05,35.25,200.84,35.25z"/>
				</g>
				<g>
					<path style="fill:#BFC8D6;" d="M208.38,22.7c-0.1,0-0.21-0.03-0.31-0.09c-0.28-0.17-0.37-0.53-0.2-0.82l1.84-3.06
						c0.17-0.28,0.53-0.37,0.82-0.2c0.28,0.17,0.37,0.53,0.2,0.82l-1.84,3.06C208.78,22.59,208.58,22.7,208.38,22.7z"/>
				</g>
			</g>
			<g>
				<g>
					<path style="fill:#BFC8D6;" d="M18.74,149.5c-0.19,0-0.37-0.09-0.49-0.25l-2.06-2.91c-0.14-0.19-0.15-0.45-0.02-0.65l1.86-3.05
						c0.17-0.28,0.54-0.37,0.82-0.2c0.28,0.17,0.37,0.54,0.2,0.82l-1.66,2.71l1.84,2.59c0.19,0.27,0.13,0.64-0.14,0.83
						C18.98,149.46,18.86,149.5,18.74,149.5z"/>
				</g>
				<g>
					<path style="fill:#BFC8D6;" d="M22.21,137.51c-0.11,0-0.21-0.03-0.31-0.09c-0.28-0.17-0.37-0.54-0.2-0.82l3.67-6.02
						c0.17-0.28,0.54-0.37,0.82-0.2c0.28,0.17,0.37,0.54,0.2,0.82l-3.67,6.02C22.61,137.41,22.41,137.51,22.21,137.51z
						 M29.56,125.47c-0.11,0-0.21-0.03-0.31-0.09c-0.28-0.17-0.37-0.54-0.2-0.82l3.67-6.02c0.17-0.28,0.54-0.37,0.82-0.2
						c0.28,0.17,0.37,0.54,0.2,0.82l-3.67,6.02C29.96,125.37,29.76,125.47,29.56,125.47z M36.91,113.42c-0.11,0-0.21-0.03-0.31-0.09
						c-0.28-0.17-0.37-0.54-0.2-0.82l3.67-6.02c0.17-0.28,0.54-0.37,0.82-0.2c0.28,0.17,0.37,0.54,0.2,0.82l-3.67,6.02
						C37.31,113.32,37.11,113.42,36.91,113.42z M44.26,101.38c-0.11,0-0.21-0.03-0.31-0.09c-0.28-0.17-0.37-0.54-0.2-0.82l3.67-6.02
						c0.17-0.28,0.54-0.37,0.82-0.2c0.28,0.17,0.37,0.54,0.2,0.82l-3.67,6.02C44.66,101.28,44.46,101.38,44.26,101.38z M51.61,89.33
						c-0.11,0-0.21-0.03-0.31-0.09c-0.28-0.17-0.37-0.54-0.2-0.82l3.67-6.02c0.17-0.28,0.54-0.37,0.82-0.2
						c0.28,0.17,0.37,0.54,0.2,0.82l-3.67,6.02C52.01,89.23,51.81,89.33,51.61,89.33z M58.96,77.29c-0.11,0-0.21-0.03-0.31-0.09
						c-0.28-0.17-0.37-0.54-0.2-0.82l3.67-6.02c0.17-0.28,0.54-0.37,0.82-0.2c0.28,0.17,0.37,0.54,0.2,0.82L59.47,77
						C59.36,77.19,59.16,77.29,58.96,77.29z M66.31,65.24c-0.11,0-0.21-0.03-0.31-0.09c-0.28-0.17-0.37-0.54-0.2-0.82l3.67-6.02
						c0.17-0.28,0.54-0.37,0.82-0.2c0.28,0.17,0.37,0.54,0.2,0.82l-3.67,6.02C66.7,65.14,66.51,65.24,66.31,65.24z M73.66,53.2
						c-0.11,0-0.21-0.03-0.31-0.09c-0.28-0.17-0.37-0.54-0.2-0.82l3.67-6.02c0.17-0.28,0.54-0.37,0.82-0.2
						c0.28,0.17,0.37,0.54,0.2,0.82l-3.67,6.02C74.05,53.1,73.86,53.2,73.66,53.2z"/>
				</g>
				<g>
					<path style="fill:#BFC8D6;" d="M81.01,41.15c-0.11,0-0.21-0.03-0.31-0.09c-0.28-0.17-0.37-0.54-0.2-0.82l1.86-3.05
						c0.09-0.15,0.24-0.25,0.41-0.28l3.52-0.6c0.32-0.06,0.63,0.16,0.69,0.49c0.06,0.32-0.16,0.63-0.49,0.69l-3.25,0.55l-1.72,2.82
						C81.4,41.05,81.21,41.15,81.01,41.15z"/>
				</g>
				<g>
					<path style="fill:#BFC8D6;" d="M336.19,152.23c-0.25,0-0.48-0.16-0.57-0.41l-2.17-6.66c-0.1-0.31,0.07-0.65,0.38-0.75
						c0.31-0.1,0.65,0.07,0.75,0.38l2.17,6.66c0.1,0.31-0.07,0.65-0.38,0.75C336.31,152.23,336.25,152.23,336.19,152.23z
						 M331.85,138.91c-0.25,0-0.48-0.16-0.57-0.41l-2.17-6.66c-0.1-0.31,0.07-0.65,0.38-0.75c0.31-0.1,0.65,0.07,0.75,0.38
						l2.17,6.66c0.1,0.31-0.07,0.65-0.38,0.75C331.97,138.9,331.91,138.91,331.85,138.91z M327.5,125.59
						c-0.25,0-0.48-0.16-0.57-0.41l-2.17-6.66c-0.1-0.31,0.07-0.65,0.38-0.75c0.31-0.1,0.65,0.07,0.75,0.38l2.17,6.66
						c0.1,0.31-0.07,0.65-0.38,0.75C327.63,125.58,327.57,125.59,327.5,125.59z M323.16,112.27c-0.25,0-0.48-0.16-0.57-0.41
						l-2.17-6.66c-0.1-0.31,0.07-0.65,0.38-0.75c0.31-0.1,0.65,0.07,0.75,0.38l2.17,6.66c0.1,0.31-0.07,0.65-0.38,0.75
						C323.29,112.26,323.22,112.27,323.16,112.27z M318.82,98.95c-0.25,0-0.48-0.16-0.57-0.41l-2.17-6.66
						c-0.1-0.31,0.07-0.65,0.38-0.75c0.31-0.1,0.65,0.07,0.75,0.38l2.17,6.66c0.1,0.31-0.07,0.65-0.38,0.75
						C318.94,98.94,318.88,98.95,318.82,98.95z M314.48,85.62c-0.25,0-0.48-0.16-0.57-0.41l-1.94-5.96l-0.26-0.16
						c-0.28-0.17-0.37-0.54-0.19-0.82c0.17-0.28,0.54-0.37,0.82-0.19l0.44,0.27c0.12,0.07,0.21,0.19,0.25,0.32l2.01,6.17
						c0.1,0.31-0.07,0.65-0.38,0.75C314.6,85.61,314.54,85.62,314.48,85.62z M306.06,75.51c-0.11,0-0.21-0.03-0.31-0.09l-5.96-3.68
						c-0.28-0.17-0.37-0.54-0.19-0.82c0.17-0.28,0.54-0.37,0.82-0.19l5.96,3.68c0.28,0.17,0.37,0.54,0.19,0.82
						C306.46,75.41,306.26,75.51,306.06,75.51z M294.14,68.15c-0.11,0-0.21-0.03-0.31-0.09l-5.96-3.68
						c-0.28-0.17-0.37-0.54-0.19-0.82c0.17-0.28,0.54-0.37,0.82-0.19l5.96,3.68c0.28,0.17,0.37,0.54,0.19,0.82
						C294.53,68.05,294.34,68.15,294.14,68.15z M282.21,60.8c-0.11,0-0.21-0.03-0.31-0.09l-5.96-3.68
						c-0.28-0.17-0.37-0.54-0.19-0.82c0.17-0.28,0.54-0.37,0.82-0.19l5.96,3.68c0.28,0.17,0.37,0.54,0.19,0.82
						C282.6,60.7,282.41,60.8,282.21,60.8z M270.28,53.44c-0.11,0-0.21-0.03-0.31-0.09l-5.96-3.68c-0.28-0.17-0.37-0.54-0.19-0.82
						c0.17-0.28,0.54-0.37,0.82-0.19l5.96,3.68c0.28,0.17,0.37,0.54,0.19,0.82C270.68,53.34,270.48,53.44,270.28,53.44z
						 M258.36,46.09c-0.11,0-0.21-0.03-0.31-0.09l-5.96-3.68c-0.28-0.17-0.37-0.54-0.19-0.82c0.17-0.28,0.54-0.37,0.82-0.19
						l5.96,3.68c0.28,0.17,0.37,0.54,0.19,0.82C258.75,45.99,258.56,46.09,258.36,46.09z M246.43,38.73c-0.11,0-0.21-0.03-0.31-0.09
						l-5.96-3.68c-0.28-0.17-0.37-0.54-0.19-0.82c0.17-0.28,0.54-0.37,0.82-0.19l5.96,3.68c0.28,0.17,0.37,0.54,0.19,0.82
						C246.83,38.63,246.63,38.73,246.43,38.73z M93.29,36.33c-0.29,0-0.54-0.21-0.59-0.5c-0.06-0.32,0.16-0.63,0.49-0.69l6.91-1.17
						c0.32-0.05,0.63,0.16,0.69,0.49c0.06,0.32-0.16,0.63-0.49,0.69l-6.91,1.17C93.36,36.33,93.33,36.33,93.29,36.33z M107.11,33.98
						c-0.29,0-0.54-0.21-0.59-0.5c-0.06-0.32,0.16-0.63,0.49-0.69l6.91-1.17c0.32-0.06,0.63,0.16,0.69,0.49
						c0.06,0.32-0.16,0.63-0.49,0.69l-6.91,1.17C107.17,33.98,107.14,33.98,107.11,33.98z M120.92,31.63c-0.29,0-0.54-0.21-0.59-0.5
						c-0.06-0.32,0.16-0.63,0.49-0.69l6.91-1.17c0.32-0.06,0.63,0.16,0.69,0.49c0.06,0.32-0.16,0.63-0.49,0.69l-6.91,1.17
						C120.99,31.63,120.95,31.63,120.92,31.63z M234.5,31.38c-0.11,0-0.21-0.03-0.31-0.09l-5.96-3.68
						c-0.28-0.17-0.37-0.54-0.19-0.82c0.17-0.28,0.54-0.37,0.82-0.19l5.96,3.68c0.28,0.17,0.37,0.54,0.19,0.82
						C234.9,31.28,234.7,31.38,234.5,31.38z M134.74,29.28c-0.29,0-0.54-0.21-0.59-0.5c-0.06-0.32,0.16-0.63,0.49-0.69l6.91-1.17
						c0.32-0.06,0.63,0.16,0.69,0.49c0.06,0.32-0.16,0.63-0.49,0.69l-6.91,1.17C134.8,29.28,134.77,29.28,134.74,29.28z
						 M148.55,26.93c-0.29,0-0.54-0.21-0.59-0.5c-0.06-0.32,0.16-0.63,0.49-0.69l6.91-1.17c0.32-0.05,0.63,0.16,0.69,0.49
						c0.06,0.32-0.16,0.63-0.49,0.69l-6.91,1.17C148.62,26.93,148.58,26.93,148.55,26.93z M162.36,24.58c-0.28,0-0.54-0.21-0.59-0.5
						c-0.06-0.32,0.16-0.63,0.49-0.69l6.91-1.17c0.32-0.06,0.63,0.16,0.69,0.49s-0.16,0.63-0.49,0.69l-6.91,1.17
						C162.43,24.58,162.4,24.58,162.36,24.58z M222.58,24.02c-0.11,0-0.21-0.03-0.31-0.09l-5.96-3.68
						c-0.28-0.17-0.37-0.54-0.19-0.82c0.17-0.28,0.54-0.37,0.82-0.19l5.96,3.68c0.28,0.17,0.37,0.54,0.19,0.82
						C222.97,23.92,222.78,24.02,222.58,24.02z M176.18,22.24c-0.28,0-0.54-0.21-0.59-0.5c-0.06-0.32,0.16-0.63,0.49-0.69l6.91-1.17
						c0.33-0.05,0.63,0.16,0.69,0.49c0.06,0.32-0.16,0.63-0.49,0.69l-6.91,1.17C176.24,22.23,176.21,22.24,176.18,22.24z
						 M189.99,19.89c-0.28,0-0.54-0.21-0.59-0.5c-0.05-0.32,0.16-0.63,0.49-0.69l6.91-1.17c0.32-0.05,0.63,0.16,0.69,0.49
						c0.05,0.32-0.16,0.63-0.49,0.69l-6.91,1.17C190.06,19.88,190.02,19.89,189.99,19.89z M203.8,17.54c-0.28,0-0.54-0.21-0.59-0.5
						c-0.06-0.32,0.16-0.63,0.49-0.69l6.47-1.1c0.14-0.02,0.29,0,0.41,0.08l0.38,0.23c0.28,0.17,0.37,0.54,0.19,0.82
						c-0.17,0.28-0.54,0.37-0.82,0.19l-0.18-0.11l-6.25,1.06C203.87,17.53,203.84,17.54,203.8,17.54z"/>
				</g>
				<g>
					<path style="fill:#BFC8D6;" d="M337.62,165.35c-0.11,0-0.21-0.03-0.31-0.09c-0.28-0.17-0.37-0.54-0.2-0.82l1.71-2.82
						l-1.02-3.14c-0.1-0.31,0.07-0.65,0.38-0.75c0.31-0.1,0.65,0.07,0.75,0.38l1.11,3.4c0.05,0.16,0.03,0.34-0.06,0.49l-1.85,3.05
						C338.01,165.24,337.82,165.35,337.62,165.35z"/>
				</g>
				<g>
					<path style="fill:#BFC8D6;" d="M163.26,302.4c-0.25,0-0.49-0.16-0.57-0.42c-0.1-0.31,0.08-0.65,0.39-0.75l6.65-2.09
						c0.31-0.1,0.65,0.08,0.75,0.39c0.1,0.31-0.08,0.65-0.39,0.75l-6.65,2.09C163.38,302.39,163.32,302.4,163.26,302.4z
						 M176.56,298.23c-0.25,0-0.49-0.16-0.57-0.42c-0.1-0.31,0.08-0.65,0.39-0.75l6.65-2.09c0.32-0.1,0.65,0.08,0.75,0.39
						c0.1,0.31-0.08,0.65-0.39,0.75l-6.65,2.09C176.68,298.22,176.62,298.23,176.56,298.23z M189.87,294.05
						c-0.25,0-0.49-0.16-0.57-0.42c-0.1-0.31,0.08-0.65,0.39-0.75l6.65-2.09c0.31-0.1,0.65,0.08,0.75,0.39
						c0.1,0.31-0.08,0.65-0.39,0.75l-6.65,2.09C189.99,294.04,189.93,294.05,189.87,294.05z M203.18,289.88
						c-0.25,0-0.49-0.16-0.57-0.42c-0.1-0.31,0.08-0.65,0.39-0.75l6.65-2.09c0.31-0.1,0.65,0.08,0.75,0.39
						c0.1,0.31-0.08,0.65-0.39,0.75l-6.65,2.09C203.3,289.87,203.23,289.88,203.18,289.88z M216.48,285.7
						c-0.25,0-0.49-0.16-0.57-0.42c-0.1-0.31,0.08-0.65,0.39-0.75l6.65-2.09c0.31-0.1,0.65,0.08,0.75,0.39
						c0.1,0.31-0.08,0.65-0.39,0.75l-6.65,2.09C216.6,285.69,216.54,285.7,216.48,285.7z M229.79,281.53
						c-0.25,0-0.49-0.16-0.57-0.42c-0.1-0.31,0.08-0.65,0.39-0.75l6.65-2.09c0.32-0.1,0.65,0.08,0.75,0.39
						c0.1,0.31-0.08,0.65-0.39,0.75l-6.65,2.09C229.91,281.52,229.85,281.53,229.79,281.53z M243.09,277.35
						c-0.25,0-0.49-0.16-0.57-0.42c-0.1-0.31,0.08-0.65,0.39-0.75l6.65-2.09c0.31-0.1,0.65,0.08,0.75,0.39
						c0.1,0.31-0.08,0.65-0.39,0.75l-6.65,2.09C243.21,277.34,243.15,277.35,243.09,277.35z M256.4,273.17
						c-0.25,0-0.49-0.16-0.57-0.42c-0.1-0.31,0.08-0.65,0.39-0.75l6.65-2.09c0.31-0.1,0.65,0.08,0.75,0.39
						c0.1,0.31-0.08,0.65-0.39,0.75l-6.65,2.09C256.52,273.17,256.46,273.17,256.4,273.17z M269.71,269c-0.25,0-0.49-0.16-0.57-0.42
						c-0.1-0.31,0.08-0.65,0.39-0.75l6.17-1.94l0.03-0.05c0.17-0.28,0.54-0.37,0.82-0.2c0.28,0.17,0.37,0.54,0.2,0.82l-0.15,0.24
						c-0.07,0.12-0.19,0.22-0.33,0.26l-6.38,2C269.82,268.99,269.76,269,269.71,269z M279.84,260.79c-0.11,0-0.21-0.03-0.31-0.09
						c-0.28-0.17-0.37-0.54-0.2-0.82l3.61-5.97c0.17-0.28,0.54-0.37,0.82-0.2c0.28,0.17,0.37,0.54,0.2,0.82l-3.61,5.97
						C280.24,260.69,280.05,260.79,279.84,260.79z M287.07,248.86c-0.11,0-0.21-0.03-0.31-0.09c-0.28-0.17-0.37-0.54-0.2-0.82
						l3.61-5.97c0.17-0.28,0.54-0.37,0.82-0.2c0.28,0.17,0.37,0.54,0.2,0.82l-3.61,5.97C287.46,248.76,287.27,248.86,287.07,248.86z
						 M294.29,236.93c-0.11,0-0.21-0.03-0.31-0.09c-0.28-0.17-0.37-0.54-0.2-0.82l3.61-5.97c0.17-0.28,0.54-0.37,0.82-0.2
						c0.28,0.17,0.37,0.54,0.2,0.82l-3.61,5.97C294.69,236.83,294.49,236.93,294.29,236.93z M301.51,225
						c-0.11,0-0.21-0.03-0.31-0.09c-0.28-0.17-0.37-0.54-0.2-0.82l3.61-5.97c0.17-0.28,0.54-0.37,0.82-0.2
						c0.28,0.17,0.37,0.54,0.2,0.82l-3.61,5.97C301.91,224.89,301.71,225,301.51,225z M308.73,213.07c-0.11,0-0.21-0.03-0.31-0.09
						c-0.28-0.17-0.37-0.54-0.2-0.82l3.61-5.97c0.17-0.28,0.54-0.37,0.82-0.2c0.28,0.17,0.37,0.54,0.2,0.82l-3.61,5.97
						C309.13,212.96,308.93,213.07,308.73,213.07z M315.95,201.14c-0.11,0-0.21-0.03-0.31-0.09c-0.28-0.17-0.37-0.54-0.2-0.82
						l3.61-5.97c0.17-0.28,0.54-0.37,0.82-0.2c0.28,0.17,0.37,0.54,0.2,0.82l-3.61,5.97C316.35,201.03,316.15,201.14,315.95,201.14z
						 M323.17,189.21c-0.11,0-0.21-0.03-0.31-0.09c-0.28-0.17-0.37-0.54-0.2-0.82l3.61-5.97c0.17-0.28,0.54-0.37,0.82-0.2
						c0.28,0.17,0.37,0.54,0.2,0.82l-3.61,5.97C323.57,189.1,323.38,189.21,323.17,189.21z M330.4,177.28
						c-0.11,0-0.21-0.03-0.31-0.09c-0.28-0.17-0.37-0.54-0.2-0.82l3.61-5.97c0.17-0.28,0.54-0.37,0.82-0.2
						c0.28,0.17,0.37,0.54,0.2,0.82l-3.61,5.97C330.79,177.17,330.6,177.28,330.4,177.28z"/>
				</g>
				<g>
					<path style="fill:#BFC8D6;" d="M153.2,305.56c-0.15,0-0.3-0.06-0.41-0.16l-2.6-2.45c-0.24-0.23-0.25-0.6-0.03-0.84
						c0.23-0.24,0.6-0.25,0.84-0.03l2.35,2.21l3.07-0.96c0.31-0.1,0.65,0.08,0.75,0.39c0.1,0.31-0.08,0.65-0.39,0.75l-3.41,1.07
						C153.32,305.55,153.26,305.56,153.2,305.56z"/>
				</g>
				<g>
					<path style="fill:#BFC8D6;" d="M145.49,298.3c-0.15,0-0.29-0.05-0.41-0.16l-5.11-4.81c-0.24-0.23-0.25-0.6-0.03-0.84
						c0.23-0.24,0.6-0.25,0.84-0.03l5.11,4.81c0.24,0.23,0.25,0.6,0.03,0.84C145.81,298.24,145.65,298.3,145.49,298.3z
						 M135.28,288.68c-0.15,0-0.29-0.05-0.41-0.16l-5.11-4.81c-0.24-0.23-0.25-0.6-0.03-0.84c0.23-0.24,0.6-0.25,0.84-0.03
						l5.11,4.81c0.24,0.23,0.25,0.6,0.03,0.84C135.59,288.62,135.43,288.68,135.28,288.68z M125.06,279.06
						c-0.15,0-0.29-0.05-0.41-0.16l-5.11-4.81c-0.24-0.23-0.25-0.6-0.03-0.84c0.23-0.24,0.6-0.25,0.84-0.03l5.11,4.81
						c0.24,0.23,0.25,0.6,0.03,0.84C125.38,279,125.22,279.06,125.06,279.06z M114.85,269.45c-0.15,0-0.29-0.05-0.41-0.16
						l-5.11-4.81c-0.24-0.23-0.25-0.6-0.03-0.84c0.23-0.24,0.6-0.25,0.84-0.03l5.11,4.81c0.24,0.23,0.25,0.6,0.03,0.84
						C115.16,269.38,115.01,269.45,114.85,269.45z M104.63,259.83c-0.15,0-0.29-0.05-0.41-0.16l-5.11-4.81
						c-0.24-0.23-0.25-0.6-0.03-0.84c0.23-0.24,0.6-0.25,0.84-0.03l5.11,4.81c0.24,0.23,0.25,0.6,0.03,0.84
						C104.95,259.76,104.79,259.83,104.63,259.83z M94.42,250.21c-0.15,0-0.29-0.05-0.41-0.16l-5.11-4.81
						c-0.24-0.23-0.25-0.6-0.03-0.84c0.23-0.24,0.6-0.25,0.84-0.03l5.11,4.81c0.24,0.23,0.25,0.6,0.03,0.84
						C94.73,250.14,94.58,250.21,94.42,250.21z M84.2,240.59c-0.15,0-0.29-0.05-0.41-0.16l-2.84-2.67
						c-0.03-0.03-0.05-0.06-0.08-0.09l-1.8-2.54c-0.19-0.27-0.13-0.64,0.14-0.83c0.27-0.19,0.64-0.13,0.83,0.14l1.77,2.5l2.79,2.63
						c0.24,0.23,0.25,0.6,0.03,0.84C84.52,240.53,84.36,240.59,84.2,240.59z M75.51,229.65c-0.19,0-0.37-0.09-0.49-0.25l-4.05-5.73
						c-0.19-0.27-0.13-0.64,0.14-0.83c0.27-0.19,0.64-0.13,0.83,0.14l4.05,5.73c0.19,0.27,0.13,0.64-0.14,0.83
						C75.75,229.61,75.63,229.65,75.51,229.65z M67.4,218.2c-0.19,0-0.37-0.09-0.49-0.25l-4.05-5.73c-0.19-0.27-0.13-0.64,0.14-0.83
						c0.27-0.19,0.64-0.13,0.83,0.14l4.05,5.72c0.19,0.27,0.13,0.64-0.14,0.83C67.64,218.16,67.52,218.2,67.4,218.2z M59.29,206.75
						c-0.19,0-0.37-0.09-0.49-0.25l-4.05-5.73c-0.19-0.27-0.13-0.64,0.14-0.83c0.27-0.19,0.64-0.13,0.83,0.14l4.05,5.73
						c0.19,0.27,0.13,0.64-0.14,0.83C59.53,206.71,59.41,206.75,59.29,206.75z M51.18,195.3c-0.19,0-0.37-0.09-0.49-0.25l-4.05-5.73
						c-0.19-0.27-0.13-0.64,0.14-0.83c0.27-0.19,0.64-0.13,0.83,0.14l4.05,5.73c0.19,0.27,0.13,0.64-0.14,0.83
						C51.42,195.26,51.3,195.3,51.18,195.3z M43.07,183.85c-0.19,0-0.37-0.09-0.49-0.25l-4.05-5.72c-0.19-0.27-0.13-0.64,0.14-0.83
						c0.27-0.19,0.64-0.13,0.83,0.14l4.05,5.72c0.19,0.27,0.13,0.64-0.14,0.83C43.31,183.81,43.19,183.85,43.07,183.85z
						 M34.96,172.4c-0.19,0-0.37-0.09-0.49-0.25l-4.05-5.73c-0.19-0.27-0.13-0.64,0.14-0.83c0.27-0.19,0.64-0.13,0.83,0.14
						l4.05,5.73c0.19,0.27,0.13,0.64-0.14,0.83C35.2,172.36,35.08,172.4,34.96,172.4z M26.85,160.95c-0.19,0-0.37-0.09-0.49-0.25
						l-4.05-5.73c-0.19-0.27-0.13-0.64,0.14-0.83c0.27-0.19,0.64-0.13,0.83,0.14l4.05,5.73c0.19,0.27,0.13,0.64-0.14,0.83
						C27.09,160.91,26.97,160.95,26.85,160.95z"/>
				</g>
			</g>
			<g>
				<g>
					<path style="fill:#BFC8D6;" d="M211.16,23.08c-0.26,0-0.5-0.17-0.57-0.44l-0.94-3.45c-0.09-0.32,0.1-0.64,0.42-0.73
						c0.32-0.09,0.64,0.1,0.73,0.42l0.94,3.45c0.09,0.32-0.1,0.64-0.42,0.73C211.26,23.07,211.21,23.08,211.16,23.08z"/>
				</g>
				<g>
					<path style="fill:#BFC8D6;" d="M273.97,253.83c-0.26,0-0.5-0.17-0.57-0.44l-1.85-6.79c-0.09-0.32,0.1-0.64,0.42-0.73
						c0.32-0.09,0.64,0.1,0.73,0.42l1.85,6.79c0.09,0.32-0.1,0.64-0.42,0.73C274.08,253.82,274.03,253.83,273.97,253.83z
						 M270.28,240.25c-0.26,0-0.5-0.17-0.57-0.44l-1.85-6.79c-0.09-0.32,0.1-0.64,0.42-0.73c0.32-0.09,0.64,0.1,0.73,0.42l1.85,6.79
						c0.09,0.32-0.1,0.64-0.42,0.73C270.38,240.25,270.33,240.25,270.28,240.25z M266.58,226.68c-0.26,0-0.5-0.17-0.57-0.44
						l-1.85-6.79c-0.09-0.32,0.1-0.64,0.42-0.73c0.32-0.09,0.64,0.1,0.73,0.42l1.85,6.79c0.09,0.32-0.1,0.64-0.42,0.73
						C266.69,226.67,266.64,226.68,266.58,226.68z M262.89,213.11c-0.26,0-0.5-0.17-0.57-0.44l-1.85-6.79
						c-0.09-0.32,0.1-0.64,0.42-0.73c0.32-0.09,0.64,0.1,0.73,0.42l1.85,6.79c0.09,0.32-0.1,0.64-0.42,0.73
						C262.99,213.1,262.94,213.11,262.89,213.11z M259.19,199.53c-0.26,0-0.5-0.17-0.57-0.44l-1.85-6.79
						c-0.09-0.32,0.1-0.64,0.42-0.73c0.32-0.09,0.64,0.1,0.73,0.42l1.85,6.79c0.09,0.32-0.1,0.64-0.42,0.73
						C259.3,199.53,259.25,199.53,259.19,199.53z M255.5,185.96c-0.26,0-0.5-0.17-0.57-0.44l-1.85-6.79
						c-0.09-0.32,0.1-0.64,0.42-0.73c0.32-0.09,0.64,0.1,0.73,0.42l1.85,6.79c0.09,0.32-0.1,0.64-0.42,0.73
						C255.6,185.95,255.55,185.96,255.5,185.96z M251.8,172.39c-0.26,0-0.5-0.17-0.57-0.44l-1.85-6.79
						c-0.09-0.32,0.1-0.64,0.42-0.73c0.32-0.09,0.64,0.1,0.73,0.42l1.85,6.79c0.09,0.32-0.1,0.64-0.42,0.73
						C251.91,172.38,251.85,172.39,251.8,172.39z M248.11,158.81c-0.26,0-0.5-0.17-0.57-0.44l-1.85-6.79
						c-0.09-0.32,0.1-0.64,0.42-0.73c0.32-0.09,0.64,0.1,0.73,0.42l1.85,6.79c0.09,0.32-0.1,0.64-0.42,0.73
						C248.21,158.81,248.16,158.81,248.11,158.81z M244.41,145.24c-0.26,0-0.5-0.17-0.57-0.44l-1.85-6.79
						c-0.09-0.32,0.1-0.64,0.42-0.73c0.32-0.09,0.64,0.1,0.73,0.42l1.85,6.79c0.09,0.32-0.1,0.64-0.42,0.73
						C244.52,145.23,244.46,145.24,244.41,145.24z M240.72,131.67c-0.26,0-0.5-0.17-0.57-0.44l-1.85-6.79
						c-0.09-0.32,0.1-0.64,0.42-0.73c0.32-0.09,0.64,0.1,0.73,0.42l1.85,6.79c0.09,0.32-0.1,0.64-0.42,0.73
						C240.82,131.66,240.77,131.67,240.72,131.67z M237.02,118.09c-0.26,0-0.5-0.17-0.57-0.44l-1.85-6.79
						c-0.09-0.32,0.1-0.64,0.42-0.73c0.32-0.09,0.64,0.1,0.73,0.42l1.85,6.79c0.09,0.32-0.1,0.64-0.42,0.73
						C237.13,118.09,237.07,118.09,237.02,118.09z M233.33,104.52c-0.26,0-0.5-0.17-0.57-0.44l-1.85-6.79
						c-0.09-0.32,0.1-0.64,0.42-0.73c0.32-0.09,0.64,0.1,0.73,0.42l1.85,6.79c0.09,0.32-0.1,0.64-0.42,0.73
						C233.43,104.51,233.38,104.52,233.33,104.52z M229.63,90.95c-0.26,0-0.5-0.17-0.57-0.44l-1.85-6.79
						c-0.09-0.32,0.1-0.64,0.42-0.73c0.32-0.09,0.64,0.1,0.73,0.42l1.85,6.79c0.09,0.32-0.1,0.64-0.42,0.73
						C229.74,90.94,229.68,90.95,229.63,90.95z M225.94,77.37c-0.26,0-0.5-0.17-0.57-0.44l-1.85-6.79c-0.09-0.32,0.1-0.64,0.42-0.73
						c0.32-0.09,0.64,0.1,0.73,0.42l1.85,6.79c0.09,0.32-0.1,0.64-0.42,0.73C226.04,77.37,225.99,77.37,225.94,77.37z M222.24,63.8
						c-0.26,0-0.5-0.17-0.57-0.44l-1.85-6.79c-0.09-0.32,0.1-0.64,0.42-0.73c0.32-0.09,0.64,0.1,0.73,0.42l1.85,6.79
						c0.09,0.32-0.1,0.64-0.42,0.73C222.35,63.79,222.29,63.8,222.24,63.8z M218.55,50.23c-0.26,0-0.5-0.17-0.57-0.44L216.13,43
						c-0.09-0.32,0.1-0.64,0.42-0.73c0.32-0.09,0.64,0.1,0.73,0.42l1.85,6.79c0.09,0.32-0.1,0.64-0.42,0.73
						C218.65,50.22,218.6,50.23,218.55,50.23z M214.85,36.65c-0.26,0-0.5-0.17-0.57-0.44l-1.85-6.79c-0.09-0.32,0.1-0.64,0.42-0.73
						c0.32-0.09,0.64,0.1,0.73,0.42l1.85,6.79c0.09,0.32-0.1,0.64-0.42,0.73C214.96,36.65,214.9,36.65,214.85,36.65z"/>
				</g>
				<g>
					<path style="fill:#BFC8D6;" d="M276.76,264.06c-0.26,0-0.5-0.17-0.57-0.44l-0.94-3.45c-0.09-0.32,0.1-0.64,0.42-0.73
						c0.32-0.09,0.64,0.1,0.73,0.42l0.94,3.45c0.09,0.32-0.1,0.64-0.42,0.73C276.86,264.05,276.81,264.06,276.76,264.06z"/>
				</g>
			</g>
			<g>
				<g>
					<path style="fill:#BFC8D6;" d="M83.31,44.93c-0.33,0-0.48-0.27-0.48-0.6v-3.57c0-0.33,0.15-0.6,0.48-0.6s0.48,0.27,0.48,0.6
						v3.57C83.79,44.66,83.64,44.93,83.31,44.93z"/>
				</g>
				<g>
					<path style="fill:#BFC8D6;" d="M83.31,227.04c-0.33,0-0.48-0.27-0.48-0.6v-3.57c0-0.33,0.15-0.6,0.48-0.6s0.48,0.27,0.48,0.6
						v3.57C83.79,226.77,83.64,227.04,83.31,227.04z M83.31,216.33c-0.33,0-0.48-0.27-0.48-0.6v-7.14c0-0.33,0.15-0.6,0.48-0.6
						s0.48,0.27,0.48,0.6v7.14C83.79,216.06,83.64,216.33,83.31,216.33z M83.31,202.04c-0.33,0-0.48-0.27-0.48-0.6v-7.14
						c0-0.33,0.15-0.6,0.48-0.6s0.48,0.27,0.48,0.6v7.14C83.79,201.78,83.64,202.04,83.31,202.04z M83.31,187.76
						c-0.33,0-0.48-0.27-0.48-0.6v-7.14c0-0.33,0.15-0.6,0.48-0.6s0.48,0.27,0.48,0.6v7.14C83.79,187.49,83.64,187.76,83.31,187.76z
						 M83.31,173.48c-0.33,0-0.48-0.27-0.48-0.6v-7.14c0-0.33,0.15-0.6,0.48-0.6s0.48,0.27,0.48,0.6v7.14
						C83.79,173.21,83.64,173.48,83.31,173.48z M83.31,159.19c-0.33,0-0.48-0.27-0.48-0.6v-7.14c0-0.33,0.15-0.6,0.48-0.6
						s0.48,0.27,0.48,0.6v7.14C83.79,158.93,83.64,159.19,83.31,159.19z M83.31,144.91c-0.33,0-0.48-0.27-0.48-0.6v-7.14
						c0-0.33,0.15-0.6,0.48-0.6s0.48,0.27,0.48,0.6v7.14C83.79,144.64,83.64,144.91,83.31,144.91z M83.31,130.63
						c-0.33,0-0.48-0.27-0.48-0.6v-7.14c0-0.33,0.15-0.6,0.48-0.6s0.48,0.27,0.48,0.6v7.14C83.79,130.36,83.64,130.63,83.31,130.63z
						 M83.31,116.34c-0.33,0-0.48-0.27-0.48-0.6v-7.14c0-0.33,0.15-0.6,0.48-0.6s0.48,0.27,0.48,0.6v7.14
						C83.79,116.08,83.64,116.34,83.31,116.34z M83.31,102.06c-0.33,0-0.48-0.27-0.48-0.6v-7.14c0-0.33,0.15-0.6,0.48-0.6
						s0.48,0.27,0.48,0.6v7.14C83.79,101.79,83.64,102.06,83.31,102.06z M83.31,87.78c-0.33,0-0.48-0.27-0.48-0.6v-7.14
						c0-0.33,0.15-0.6,0.48-0.6s0.48,0.27,0.48,0.6v7.14C83.79,87.51,83.64,87.78,83.31,87.78z M83.31,73.49
						c-0.33,0-0.48-0.27-0.48-0.6v-7.14c0-0.33,0.15-0.6,0.48-0.6s0.48,0.27,0.48,0.6v7.14C83.79,73.23,83.64,73.49,83.31,73.49z
						 M83.31,59.21c-0.33,0-0.48-0.27-0.48-0.6v-7.14c0-0.33,0.15-0.6,0.48-0.6s0.48,0.27,0.48,0.6v7.14
						C83.79,58.94,83.64,59.21,83.31,59.21z"/>
				</g>
				<g>
					<path style="fill:#BFC8D6;" d="M83.31,234.18c-0.33,0-0.48-0.27-0.48-0.6v-3.57c0-0.33,0.15-0.6,0.48-0.6s0.48,0.27,0.48,0.6
						v3.57C83.79,233.91,83.64,234.18,83.31,234.18z"/>
				</g>
			</g>
		</g>
		<g>
			<g>
				<linearGradient id="SVGID_1_" gradientUnits="userSpaceOnUse" x1="268.3667" y1="56.8557" x2="228.2146" y2="95.4485">
					<stop  offset="0" style="stop-color:#AA80F9"/>
					<stop  offset="0.9964" style="stop-color:#6165D7"/>
				</linearGradient>
				<path style="fill:url(#SVGID_1_);" d="M188.25,237.31c-3.54,0.1-7-0.79-9.99-2.58c-9.12-5.47-22.59-14.49-34.71-26.31
					c-15.38-14.99-24.22-30.23-26.15-45.2l-0.03-0.23L117,99.14c0-12.62,8.23-22.86,23.69-29.59c12.77-5.56,29.69-8.32,47.57-7.8
					c17.67,0.51,34.02,4.16,46.12,10.23c14.39,7.22,21.93,17.37,21.93,29.4l-0.34,61.01l-0.03,0.22
					c-1.77,14.33-9.9,29.14-24.27,44.12c-11.53,12.01-24.55,21.54-33.5,27.43C195.22,236.12,191.78,237.21,188.25,237.31z"/>
				
					<linearGradient id="SVGID_00000116232329208223284170000012166010370696449157_" gradientUnits="userSpaceOnUse" x1="149.0282" y1="65.6496" x2="285.5148" y2="288.8825">
					<stop  offset="0" style="stop-color:#AA80F9"/>
					<stop  offset="0.9964" style="stop-color:#6165D7"/>
				</linearGradient>
				<path style="fill:url(#SVGID_00000116232329208223284170000012166010370696449157_);" d="M191.76,237.31
					c-3.5,0.1-6.9-0.79-9.86-2.58c-9-5.47-22.29-14.49-34.25-26.31c-15.18-14.99-23.9-30.23-25.8-45.2l-0.03-0.23l-0.37-63.86
					c0-12.62,8.12-22.86,23.37-29.59c12.6-5.56,29.3-8.32,46.94-7.8c17.44,0.51,33.57,4.16,45.51,10.23
					c14.2,7.22,21.64,17.37,21.64,29.4l-0.34,61.01l-0.03,0.22c-1.74,14.33-9.77,29.14-23.95,44.12
					c-11.37,12.01-24.23,21.54-33.05,27.43C198.63,236.12,195.24,237.21,191.76,237.31z"/>
				
					<linearGradient id="SVGID_00000075147272715952084600000004236153162430107824_" gradientUnits="userSpaceOnUse" x1="221.4017" y1="192.7495" x2="110.5547" y2="-30.1409">
					<stop  offset="0" style="stop-color:#AA80F9"/>
					<stop  offset="0.9964" style="stop-color:#6165D7"/>
				</linearGradient>
				<path style="fill:url(#SVGID_00000075147272715952084600000004236153162430107824_);" d="M125.66,99.18l0.37,63.53
					c4.18,32.42,42.28,58.66,58.87,68.63c4.75,2.86,10.83,2.69,15.55-0.42c16.25-10.69,52.26-37.6,56.1-68.77l0.34-60.85
					C256.9,56.17,125.66,52.04,125.66,99.18z"/>
				
					<linearGradient id="SVGID_00000111158128308126479830000005313778113655980420_" gradientUnits="userSpaceOnUse" x1="138.2407" y1="149.5091" x2="245.2693" y2="149.5091">
					<stop  offset="3.597000e-03" style="stop-color:#26264F"/>
					<stop  offset="1" style="stop-color:#444B8C"/>
				</linearGradient>
				<path style="fill:url(#SVGID_00000111158128308126479830000005313778113655980420_);" d="M192.7,221.55
					c-0.3,0.01-0.76-0.04-1.23-0.33c-6.83-4.14-20.07-12.8-31.6-24.12c-12.44-12.22-19.62-24.11-21.27-35.27l-0.37-62.48
					c0.02-5.99,4.76-11.13,14.06-15.23c10.38-4.58,25.13-6.99,40.4-6.63c15.11,0.36,29.43,3.4,39.35,8.32
					c8.77,4.35,13.21,9.49,13.22,15.27l-0.34,60.32c-1.54,10.8-8.27,22.45-20.1,34.69c-11.12,11.51-24.11,20.63-30.9,25.07
					C193.46,221.47,193,221.55,192.7,221.55z"/>
				
					<linearGradient id="SVGID_00000025443385716042516670000015436291662340020393_" gradientUnits="userSpaceOnUse" x1="208.9446" y1="231.4486" x2="178.0427" y2="63.0325">
					<stop  offset="0" style="stop-color:#AA80F9"/>
					<stop  offset="0.9964" style="stop-color:#6165D7"/>
				</linearGradient>
				<path style="fill:url(#SVGID_00000025443385716042516670000015436291662340020393_);" d="M191.14,217.28
					c-6.9-4.25-19.17-12.45-29.87-22.99c-11.69-11.51-18.46-22.55-20.05-32.77l-0.36-62.12c0.01-4.29,3.95-8.22,11.68-11.64
					c9.84-4.36,23.93-6.65,38.61-6.32c14.53,0.33,28.23,3.2,37.65,7.86c7.31,3.62,11.02,7.57,11.03,11.75l-0.34,60.1
					c-1.49,9.92-7.88,20.76-19.04,32.29C210.07,204.14,198.01,212.75,191.14,217.28z"/>
			</g>
			<path style="fill:#FFFFFF;" d="M186.95,170.62c-2.19,0-4.2-1.05-5.3-2.76l-17.15-26.67c-1.49-2.31-0.69-5.67,1.81-7.57
				c2.55-1.94,5.95-1.65,7.56,0.71l12.62,18.51l18.83-35.44c1.83-3.44,6.32-5.61,10.1-4.78c3.88,0.85,5.46,4.51,3.45,8.09
				l-26.17,46.65c-1.08,1.93-3.21,3.17-5.53,3.24C187.1,170.62,187.03,170.62,186.95,170.62z"/>
		</g>
		<g>
			<g>
				<g>
					<g>
						
							<linearGradient id="SVGID_00000003811462870292229790000001660261704072486051_" gradientUnits="userSpaceOnUse" x1="57.2451" y1="40.8588" x2="108.0252" y2="40.8588">
							<stop  offset="0" style="stop-color:#444B8C"/>
							<stop  offset="0.9964" style="stop-color:#26264F"/>
						</linearGradient>
						<path style="fill:url(#SVGID_00000003811462870292229790000001660261704072486051_);" d="M99.54,66.05l-34.53-0.68
							c-4.34-0.09-7.82-3.65-7.77-7.97l0.37-33.98c0.05-4.31,3.6-7.78,7.94-7.75l34.53,0.28c4.42,0.04,7.98,3.6,7.93,7.97
							l-0.38,34.39C107.6,62.67,103.97,66.14,99.54,66.05z"/>
						
							<linearGradient id="SVGID_00000072970958389438682440000014961162292047911069_" gradientUnits="userSpaceOnUse" x1="58.3329" y1="41.0663" x2="109.2095" y2="41.0663">
							<stop  offset="0" style="stop-color:#AA80F9"/>
							<stop  offset="0.9964" style="stop-color:#6165D7"/>
						</linearGradient>
						<path style="fill:url(#SVGID_00000072970958389438682440000014961162292047911069_);" d="M100.71,66.28L66.12,65.6
							c-4.35-0.09-7.83-3.66-7.79-7.98l0.37-34.01c0.05-4.32,3.61-7.79,7.96-7.76l34.6,0.28c4.43,0.04,8,3.61,7.95,7.98l-0.38,34.42
							C108.78,62.9,105.14,66.37,100.71,66.28z"/>
						<path style="opacity:0.48;fill:#FFFFFF;" d="M85.52,50.1c-4.16-5.68,0.13-9.41-4.3-15.83c-5.28-7.65-13.95-6.02-17.26-12.84
							c-0.73-1.5-1.03-3.08-1.07-4.67c-2.47,1.3-4.16,3.87-4.2,6.84l-0.37,34.01c-0.05,4.32,3.44,7.89,7.79,7.98l34.59,0.69
							c3.55,0.07,6.58-2.14,7.68-5.27C102.2,54.07,91.35,58.06,85.52,50.1z"/>
					</g>
					<g>
						
							<linearGradient id="SVGID_00000023980421844928855770000003441126516250552215_" gradientUnits="userSpaceOnUse" x1="66.2105" y1="41.3382" x2="99.5247" y2="41.3382">
							<stop  offset="0" style="stop-color:#444B8C"/>
							<stop  offset="0.9964" style="stop-color:#26264F"/>
						</linearGradient>
						<path style="fill:url(#SVGID_00000023980421844928855770000003441126516250552215_);" d="M94.16,57.97l-23.02-0.41
							c-2.75-0.05-4.96-2.32-4.93-5.07l0.25-22.85c0.03-2.75,2.29-4.96,5.04-4.93l23.02,0.23c2.79,0.03,5.03,2.3,5,5.07l-0.25,23.03
							C99.24,55.81,96.95,58.02,94.16,57.97z"/>
						
							<linearGradient id="SVGID_00000041983153383043987400000017328489204812250762_" gradientUnits="userSpaceOnUse" x1="155.2835" y1="82.7889" x2="144.9601" y2="31.6755" gradientTransform="matrix(0.9999 0.011 -0.011 0.9999 -65.0348 -13.9695)">
							<stop  offset="3.597120e-03" style="stop-color:#E38DDD"/>
							<stop  offset="1" style="stop-color:#9571F6"/>
						</linearGradient>
						<path style="fill:url(#SVGID_00000041983153383043987400000017328489204812250762_);" d="M94.83,57.31l-22.72-0.4
							c-2.72-0.05-4.9-2.27-4.87-4.97l0.25-22.39c0.03-2.7,2.26-4.86,4.98-4.83l22.73,0.23c2.75,0.03,4.96,2.25,4.93,4.97
							l-0.25,22.57C99.85,55.19,97.59,57.36,94.83,57.31z"/>
						<path style="opacity:0.48;fill:#FFFFFF;" d="M85.52,50.1c-4.16-5.68,0.13-9.41-4.3-15.83c-3.48-5.03-8.42-6.05-12.33-8.1
							c-0.86,0.87-1.39,2.05-1.41,3.36l-0.25,22.39c-0.03,2.7,2.15,4.92,4.87,4.97l22.72,0.4c1.23,0.02,2.36-0.4,3.24-1.11
							C93.44,55.24,88.73,54.47,85.52,50.1z"/>
					</g>
				</g>
			</g>
			<g>
				<g>
					<g>
						
							<linearGradient id="SVGID_00000018209467217297834380000012500506736208882614_" gradientUnits="userSpaceOnUse" x1="241.2811" y1="265.2007" x2="310.2627" y2="265.2007">
							<stop  offset="0" style="stop-color:#444B8C"/>
							<stop  offset="0.9964" style="stop-color:#26264F"/>
						</linearGradient>
						<path style="fill:url(#SVGID_00000018209467217297834380000012500506736208882614_);" d="M298.74,299.42l-46.9-0.93
							c-5.9-0.12-10.62-4.96-10.56-10.82l0.5-46.16c0.06-5.86,4.89-10.57,10.79-10.53l46.91,0.37c6.01,0.05,10.84,4.9,10.77,10.83
							l-0.51,46.72C309.68,294.83,304.75,299.54,298.74,299.42z"/>
						
							<linearGradient id="SVGID_00000159445027469383986250000005635958521615466393_" gradientUnits="userSpaceOnUse" x1="242.7587" y1="265.4825" x2="311.8716" y2="265.4825">
							<stop  offset="0" style="stop-color:#AA80F9"/>
							<stop  offset="0.9964" style="stop-color:#6165D7"/>
						</linearGradient>
						<path style="fill:url(#SVGID_00000159445027469383986250000005635958521615466393_);" d="M300.33,299.74l-46.99-0.93
							c-5.91-0.12-10.64-4.97-10.58-10.83l0.51-46.21c0.06-5.87,4.9-10.58,10.81-10.54l47,0.38c6.02,0.05,10.86,4.9,10.8,10.84
							l-0.51,46.76C311.29,295.14,306.35,299.86,300.33,299.74z"/>
						<path style="opacity:0.48;fill:#FFFFFF;" d="M279.69,277.76c-5.66-7.72,0.18-12.78-5.84-21.5
							c-7.18-10.4-18.95-8.18-23.45-17.45c-0.99-2.04-1.4-4.19-1.45-6.35c-3.35,1.77-5.65,5.26-5.7,9.3l-0.51,46.21
							c-0.06,5.87,4.67,10.72,10.58,10.83l46.99,0.93c4.82,0.1,8.94-2.91,10.43-7.16C302.35,283.14,287.62,288.56,279.69,277.76z"/>
					</g>
					<g>
						
							<linearGradient id="SVGID_00000085243023119359443350000008956230353898183593_" gradientUnits="userSpaceOnUse" x1="253.46" y1="265.8519" x2="298.7153" y2="265.8519">
							<stop  offset="0" style="stop-color:#444B8C"/>
							<stop  offset="0.9964" style="stop-color:#26264F"/>
						</linearGradient>
						<path style="fill:url(#SVGID_00000085243023119359443350000008956230353898183593_);" d="M291.43,288.45l-31.27-0.56
							c-3.74-0.07-6.74-3.15-6.7-6.89l0.34-31.04c0.04-3.74,3.1-6.74,6.85-6.7l31.28,0.31c3.79,0.04,6.83,3.12,6.79,6.89
							l-0.34,31.29C298.33,285.51,295.22,288.51,291.43,288.45z"/>
						
							<linearGradient id="SVGID_00000029044221078653428170000016925473034638469272_" gradientUnits="userSpaceOnUse" x1="353.398" y1="315.6063" x2="339.3744" y2="246.1718" gradientTransform="matrix(0.9999 0.011 -0.011 0.9999 -65.0348 -13.9695)">
							<stop  offset="3.597120e-03" style="stop-color:#E38DDD"/>
							<stop  offset="1" style="stop-color:#9571F6"/>
						</linearGradient>
						<path style="fill:url(#SVGID_00000029044221078653428170000016925473034638469272_);" d="M292.34,287.54l-30.87-0.55
							c-3.7-0.07-6.65-3.09-6.61-6.75l0.33-30.42c0.04-3.66,3.06-6.6,6.76-6.56l30.87,0.31c3.74,0.04,6.74,3.06,6.7,6.75
							l-0.34,30.65C299.15,284.67,296.08,287.61,292.34,287.54z"/>
						<path style="opacity:0.48;fill:#FFFFFF;" d="M279.69,277.76c-5.66-7.72,0.18-12.78-5.84-21.5c-4.72-6.84-11.43-8.22-16.75-11
							c-1.16,1.18-1.89,2.79-1.91,4.57l-0.33,30.42c-0.04,3.66,2.92,6.69,6.61,6.75l30.87,0.55c1.67,0.03,3.21-0.54,4.4-1.51
							C290.46,284.73,284.05,283.7,279.69,277.76z"/>
					</g>
				</g>
			</g>
			<g>
				<g>
					<g>
						
							<linearGradient id="SVGID_00000127024036974754742020000010116691777835389874_" gradientUnits="userSpaceOnUse" x1="283.3793" y1="77.8912" x2="339.0651" y2="77.8912">
							<stop  offset="0" style="stop-color:#444B8C"/>
							<stop  offset="0.9964" style="stop-color:#26264F"/>
						</linearGradient>
						<path style="fill:url(#SVGID_00000127024036974754742020000010116691777835389874_);" d="M329.76,105.52l-37.86-0.75
							c-4.76-0.09-8.57-4.01-8.52-8.74l0.41-37.27c0.05-4.73,3.95-8.54,8.71-8.5l37.87,0.3c4.85,0.04,8.75,3.95,8.7,8.74
							l-0.41,37.71C338.6,101.81,334.62,105.61,329.76,105.52z"/>
						
							<linearGradient id="SVGID_00000151512225149082818860000007337169430316439720_" gradientUnits="userSpaceOnUse" x1="284.5721" y1="78.1187" x2="340.3639" y2="78.1187">
							<stop  offset="0" style="stop-color:#AA80F9"/>
							<stop  offset="0.9964" style="stop-color:#6165D7"/>
						</linearGradient>
						<path style="fill:url(#SVGID_00000151512225149082818860000007337169430316439720_);" d="M331.05,105.77l-37.93-0.75
							c-4.77-0.09-8.59-4.01-8.54-8.75l0.41-37.3c0.05-4.74,3.96-8.54,8.73-8.51l37.94,0.31c4.86,0.04,8.77,3.96,8.71,8.75
							l-0.41,37.75C339.9,102.06,335.91,105.87,331.05,105.77z"/>
						<path style="opacity:0.48;fill:#FFFFFF;" d="M314.39,88.03c-4.57-6.23,0.15-10.32-4.71-17.35c-5.8-8.39-15.3-6.6-18.93-14.08
							c-0.8-1.64-1.13-3.38-1.17-5.12c-2.71,1.43-4.56,4.25-4.6,7.5l-0.41,37.3c-0.05,4.74,3.77,8.65,8.54,8.75l37.93,0.75
							c3.89,0.08,7.22-2.35,8.42-5.78C332.68,92.37,320.78,96.75,314.39,88.03z"/>
					</g>
					<g>
						
							<linearGradient id="SVGID_00000003063585451125845600000012015424081896012698_" gradientUnits="userSpaceOnUse" x1="293.2108" y1="78.4169" x2="329.7434" y2="78.4169">
							<stop  offset="0" style="stop-color:#444B8C"/>
							<stop  offset="0.9964" style="stop-color:#26264F"/>
						</linearGradient>
						<path style="fill:url(#SVGID_00000003063585451125845600000012015424081896012698_);" d="M323.86,96.66l-25.24-0.45
							c-3.02-0.05-5.44-2.54-5.41-5.56l0.27-25.05c0.03-3.02,2.51-5.44,5.53-5.41l25.25,0.25c3.06,0.03,5.52,2.52,5.48,5.56
							l-0.28,25.26C329.43,94.29,326.92,96.71,323.86,96.66z"/>
						
							<linearGradient id="SVGID_00000100381041111708600360000005533461874593134479_" gradientUnits="userSpaceOnUse" x1="384.9507" y1="120.1641" x2="373.63" y2="64.1127" gradientTransform="matrix(0.9999 0.011 -0.011 0.9999 -65.0348 -13.9695)">
							<stop  offset="3.597120e-03" style="stop-color:#E38DDD"/>
							<stop  offset="1" style="stop-color:#9571F6"/>
						</linearGradient>
						<path style="fill:url(#SVGID_00000100381041111708600360000005533461874593134479_);" d="M324.6,95.93l-24.92-0.44
							c-2.98-0.05-5.37-2.49-5.34-5.45l0.27-24.56c0.03-2.96,2.47-5.33,5.46-5.3l24.92,0.25c3.02,0.03,5.44,2.47,5.41,5.45
							l-0.27,24.75C330.1,93.61,327.62,95.98,324.6,95.93z"/>
						<path style="opacity:0.48;fill:#FFFFFF;" d="M314.39,88.03c-4.57-6.23,0.15-10.32-4.71-17.35c-3.81-5.52-9.23-6.64-13.52-8.88
							c-0.94,0.95-1.53,2.25-1.54,3.69l-0.27,24.56c-0.03,2.96,2.36,5.4,5.34,5.45l24.92,0.44c1.35,0.02,2.59-0.44,3.55-1.22
							C323.08,93.66,317.9,92.82,314.39,88.03z"/>
					</g>
				</g>
			</g>
			<g>
				<g>
					<g>
						
							<linearGradient id="SVGID_00000059993654044863833510000001897595797155891364_" gradientUnits="userSpaceOnUse" x1="193.596" y1="15.8412" x2="225.5269" y2="15.8412">
							<stop  offset="0" style="stop-color:#444B8C"/>
							<stop  offset="0.9964" style="stop-color:#26264F"/>
						</linearGradient>
						<path style="fill:url(#SVGID_00000059993654044863833510000001897595797155891364_);" d="M220.19,31.68l-21.71-0.43
							c-2.73-0.05-4.92-2.3-4.89-5.01l0.23-21.37c0.03-2.71,2.26-4.89,5-4.87l21.71,0.17c2.78,0.02,5.02,2.27,4.99,5.01l-0.24,21.63
							C225.26,29.56,222.98,31.74,220.19,31.68z"/>
						
							<linearGradient id="SVGID_00000178182478190140100280000000556936719000758912_" gradientUnits="userSpaceOnUse" x1="194.28" y1="15.9717" x2="226.2716" y2="15.9717">
							<stop  offset="0" style="stop-color:#AA80F9"/>
							<stop  offset="0.9964" style="stop-color:#6165D7"/>
						</linearGradient>
						<path style="fill:url(#SVGID_00000178182478190140100280000000556936719000758912_);" d="M220.93,31.83l-21.75-0.43
							c-2.74-0.05-4.93-2.3-4.9-5.02l0.23-21.39c0.03-2.72,2.27-4.9,5-4.88l21.75,0.18c2.79,0.02,5.03,2.27,5,5.02l-0.24,21.65
							C226,29.7,223.72,31.88,220.93,31.83z"/>
						<path style="opacity:0.48;fill:#FFFFFF;" d="M211.38,21.65c-2.62-3.57,0.08-5.92-2.7-9.95c-3.32-4.81-8.77-3.79-10.85-8.08
							c-0.46-0.94-0.65-1.94-0.67-2.94c-1.55,0.82-2.62,2.44-2.64,4.3l-0.23,21.39c-0.03,2.72,2.16,4.96,4.9,5.02l21.75,0.43
							c2.23,0.04,4.14-1.35,4.83-3.32C221.86,24.15,215.04,26.66,211.38,21.65z"/>
					</g>
					<g>
						
							<linearGradient id="SVGID_00000026859261097181026750000015836273138429804694_" gradientUnits="userSpaceOnUse" x1="199.2335" y1="16.1427" x2="220.1817" y2="16.1427">
							<stop  offset="0" style="stop-color:#444B8C"/>
							<stop  offset="0.9964" style="stop-color:#26264F"/>
						</linearGradient>
						<path style="fill:url(#SVGID_00000026859261097181026750000015836273138429804694_);" d="M216.81,26.6l-14.48-0.26
							c-1.73-0.03-3.12-1.46-3.1-3.19l0.16-14.37c0.02-1.73,1.44-3.12,3.17-3.1l14.48,0.14c1.75,0.02,3.16,1.45,3.14,3.19
							l-0.16,14.48C220,25.24,218.56,26.63,216.81,26.6z"/>
						
							<linearGradient id="SVGID_00000118385748372013327220000003575787979699121845_" gradientUnits="userSpaceOnUse" x1="279.3285" y1="45.3934" x2="272.8371" y2="13.2529" gradientTransform="matrix(0.9999 0.011 -0.011 0.9999 -65.0348 -13.9695)">
							<stop  offset="3.597120e-03" style="stop-color:#E38DDD"/>
							<stop  offset="1" style="stop-color:#9571F6"/>
						</linearGradient>
						<path style="fill:url(#SVGID_00000118385748372013327220000003575787979699121845_);" d="M217.23,26.18l-14.29-0.25
							c-1.71-0.03-3.08-1.43-3.06-3.13l0.15-14.08c0.02-1.7,1.42-3.06,3.13-3.04l14.29,0.14c1.73,0.02,3.12,1.42,3.1,3.13
							l-0.16,14.19C220.38,24.85,218.96,26.21,217.23,26.18z"/>
						<path style="opacity:0.48;fill:#FFFFFF;" d="M211.38,21.65c-2.62-3.57,0.08-5.92-2.7-9.95c-2.19-3.17-5.29-3.81-7.75-5.09
							c-0.54,0.55-0.88,1.29-0.89,2.11l-0.15,14.08c-0.02,1.7,1.35,3.09,3.06,3.13l14.29,0.25c0.77,0.01,1.48-0.25,2.04-0.7
							C216.36,24.88,213.39,24.4,211.38,21.65z"/>
					</g>
				</g>
			</g>
			<g>
				<g>
					<g>
						
							<linearGradient id="SVGID_00000096743222758145203830000003426839279615635329_" gradientUnits="userSpaceOnUse" x1="4.801037e-06" y1="145.2257" x2="31.9309" y2="145.2257">
							<stop  offset="0" style="stop-color:#444B8C"/>
							<stop  offset="0.9964" style="stop-color:#26264F"/>
						</linearGradient>
						<path style="fill:url(#SVGID_00000096743222758145203830000003426839279615635329_);" d="M26.6,161.07l-21.71-0.43
							c-2.73-0.05-4.92-2.3-4.89-5.01l0.23-21.37c0.03-2.71,2.26-4.89,5-4.87l21.71,0.17c2.78,0.02,5.02,2.27,4.99,5.01l-0.24,21.63
							C31.66,158.94,29.38,161.12,26.6,161.07z"/>
						
							<linearGradient id="SVGID_00000046324730514196493440000016478944619796145804_" gradientUnits="userSpaceOnUse" x1="0.684" y1="145.3562" x2="32.6756" y2="145.3562">
							<stop  offset="0" style="stop-color:#AA80F9"/>
							<stop  offset="0.9964" style="stop-color:#6165D7"/>
						</linearGradient>
						<path style="fill:url(#SVGID_00000046324730514196493440000016478944619796145804_);" d="M27.33,161.21l-21.75-0.43
							c-2.74-0.05-4.93-2.3-4.9-5.02l0.23-21.39c0.03-2.72,2.27-4.9,5-4.88l21.75,0.18c2.79,0.02,5.03,2.27,5,5.02l-0.24,21.65
							C32.41,159.09,30.12,161.27,27.33,161.21z"/>
						<path style="opacity:0.48;fill:#FFFFFF;" d="M17.78,151.04c-2.62-3.57,0.08-5.92-2.7-9.95c-3.32-4.81-8.77-3.79-10.85-8.08
							c-0.46-0.94-0.65-1.94-0.67-2.94c-1.55,0.82-2.62,2.44-2.64,4.3l-0.23,21.39c-0.03,2.72,2.16,4.96,4.9,5.02l21.75,0.43
							c2.23,0.04,4.14-1.35,4.83-3.32C28.27,153.53,21.45,156.04,17.78,151.04z"/>
					</g>
					<g>
						
							<linearGradient id="SVGID_00000171712448896859843040000001740009528046226085_" gradientUnits="userSpaceOnUse" x1="5.6375" y1="145.5272" x2="26.5857" y2="145.5272">
							<stop  offset="0" style="stop-color:#444B8C"/>
							<stop  offset="0.9964" style="stop-color:#26264F"/>
						</linearGradient>
						<path style="fill:url(#SVGID_00000171712448896859843040000001740009528046226085_);" d="M23.21,155.99l-14.48-0.26
							c-1.73-0.03-3.12-1.46-3.1-3.19l0.16-14.37c0.02-1.73,1.44-3.12,3.17-3.1l14.48,0.14c1.75,0.02,3.16,1.45,3.14,3.19
							l-0.16,14.48C26.41,154.63,24.97,156.02,23.21,155.99z"/>
						
							<linearGradient id="SVGID_00000178922264074315017370000007209852141997003663_" gradientUnits="userSpaceOnUse" x1="87.16" y1="176.9049" x2="80.6686" y2="144.7644" gradientTransform="matrix(0.9999 0.011 -0.011 0.9999 -65.0348 -13.9695)">
							<stop  offset="3.597120e-03" style="stop-color:#E38DDD"/>
							<stop  offset="1" style="stop-color:#9571F6"/>
						</linearGradient>
						<path style="fill:url(#SVGID_00000178922264074315017370000007209852141997003663_);" d="M23.64,155.57l-14.29-0.25
							c-1.71-0.03-3.08-1.43-3.06-3.13l0.15-14.08c0.02-1.7,1.42-3.06,3.13-3.04l14.29,0.14c1.73,0.02,3.12,1.42,3.1,3.13
							l-0.16,14.19C26.79,154.24,25.37,155.6,23.64,155.57z"/>
						<path style="opacity:0.48;fill:#FFFFFF;" d="M17.78,151.04c-2.62-3.57,0.08-5.92-2.7-9.95c-2.19-3.17-5.29-3.81-7.75-5.09
							c-0.54,0.55-0.88,1.29-0.89,2.11l-0.15,14.08c-0.02,1.7,1.35,3.09,3.06,3.13l14.29,0.25c0.77,0.01,1.48-0.25,2.04-0.7
							C22.76,154.27,19.8,153.79,17.78,151.04z"/>
					</g>
				</g>
			</g>
			<g>
				<g>
					<g>
						
							<linearGradient id="SVGID_00000183948996783116610750000014475414735929249172_" gradientUnits="userSpaceOnUse" x1="137.2092" y1="301.8318" x2="176.2801" y2="301.8318">
							<stop  offset="0" style="stop-color:#444B8C"/>
							<stop  offset="0.9964" style="stop-color:#26264F"/>
						</linearGradient>
						<path style="fill:url(#SVGID_00000183948996783116610750000014475414735929249172_);" d="M169.75,321.21l-26.56-0.53
							c-3.34-0.07-6.02-2.81-5.98-6.13l0.29-26.15c0.04-3.32,2.77-5.99,6.11-5.96l26.57,0.21c3.4,0.03,6.14,2.77,6.1,6.13
							l-0.29,26.46C175.95,318.61,173.16,321.28,169.75,321.21z"/>
						
							<linearGradient id="SVGID_00000071544991162671549950000017645321953215604903_" gradientUnits="userSpaceOnUse" x1="138.0461" y1="301.9914" x2="177.1913" y2="301.9914">
							<stop  offset="0" style="stop-color:#AA80F9"/>
							<stop  offset="0.9964" style="stop-color:#6165D7"/>
						</linearGradient>
						<path style="fill:url(#SVGID_00000071544991162671549950000017645321953215604903_);" d="M170.65,321.39l-26.62-0.53
							c-3.35-0.07-6.03-2.81-5.99-6.14l0.29-26.17c0.04-3.32,2.78-5.99,6.12-5.97l26.62,0.21c3.41,0.03,6.15,2.78,6.11,6.14
							l-0.29,26.49C176.86,318.79,174.06,321.46,170.65,321.39z"/>
						<path style="opacity:0.48;fill:#FFFFFF;" d="M158.97,308.94c-3.2-4.37,0.1-7.24-3.31-12.18c-4.07-5.89-10.74-4.63-13.28-9.88
							c-0.56-1.15-0.8-2.37-0.82-3.59c-1.9,1-3.2,2.98-3.23,5.27l-0.29,26.17c-0.04,3.32,2.64,6.07,5.99,6.14l26.62,0.53
							c2.73,0.05,5.07-1.65,5.91-4.06C171.8,311.99,163.45,315.06,158.97,308.94z"/>
					</g>
					<g>
						
							<linearGradient id="SVGID_00000097460162504696990860000009903364084612422553_" gradientUnits="userSpaceOnUse" x1="144.1073" y1="302.2006" x2="169.7396" y2="302.2006">
							<stop  offset="0" style="stop-color:#444B8C"/>
							<stop  offset="0.9964" style="stop-color:#26264F"/>
						</linearGradient>
						<path style="fill:url(#SVGID_00000097460162504696990860000009903364084612422553_);" d="M165.61,315l-17.71-0.32
							c-2.12-0.04-3.82-1.79-3.79-3.9l0.19-17.58c0.02-2.12,1.76-3.82,3.88-3.8l17.71,0.18c2.15,0.02,3.87,1.77,3.85,3.9
							l-0.19,17.72C169.52,313.34,167.76,315.04,165.61,315z"/>
						
							<linearGradient id="SVGID_00000048502929607002674330000011113211959415482546_" gradientUnits="userSpaceOnUse" x1="230.6451" y1="336.119" x2="222.7022" y2="296.7916" gradientTransform="matrix(0.9999 0.011 -0.011 0.9999 -65.0348 -13.9695)">
							<stop  offset="3.597120e-03" style="stop-color:#E38DDD"/>
							<stop  offset="1" style="stop-color:#9571F6"/>
						</linearGradient>
						<path style="fill:url(#SVGID_00000048502929607002674330000011113211959415482546_);" d="M166.13,314.49l-17.48-0.31
							c-2.09-0.04-3.77-1.75-3.75-3.82l0.19-17.23c0.02-2.07,1.74-3.74,3.83-3.72l17.49,0.18c2.12,0.02,3.82,1.73,3.8,3.82
							l-0.19,17.36C169.99,312.86,168.25,314.52,166.13,314.49z"/>
						<path style="opacity:0.48;fill:#FFFFFF;" d="M158.97,308.94c-3.2-4.37,0.1-7.24-3.31-12.18c-2.67-3.87-6.48-4.66-9.49-6.23
							c-0.66,0.67-1.07,1.58-1.08,2.59l-0.19,17.23c-0.02,2.07,1.65,3.79,3.75,3.82l17.48,0.31c0.95,0.02,1.82-0.31,2.49-0.86
							C165.06,312.9,161.43,312.31,158.97,308.94z"/>
					</g>
				</g>
			</g>
			<g>
				<g>
					<g>
						
							<linearGradient id="SVGID_00000097498528220313690160000002822551341076611241_" gradientUnits="userSpaceOnUse" x1="324.8283" y1="161.1404" x2="356.7592" y2="161.1404">
							<stop  offset="0" style="stop-color:#444B8C"/>
							<stop  offset="0.9964" style="stop-color:#26264F"/>
						</linearGradient>
						<path style="fill:url(#SVGID_00000097498528220313690160000002822551341076611241_);" d="M351.43,176.98l-21.71-0.43
							c-2.73-0.05-4.92-2.3-4.89-5.01l0.23-21.37c0.03-2.71,2.26-4.89,5-4.87l21.71,0.17c2.78,0.02,5.02,2.27,4.99,5.01l-0.24,21.63
							C356.49,174.85,354.21,177.04,351.43,176.98z"/>
						
							<linearGradient id="SVGID_00000183955912909370646360000012972493785700614017_" gradientUnits="userSpaceOnUse" x1="325.5123" y1="161.2708" x2="357.5039" y2="161.2708">
							<stop  offset="0" style="stop-color:#AA80F9"/>
							<stop  offset="0.9964" style="stop-color:#6165D7"/>
						</linearGradient>
						<path style="fill:url(#SVGID_00000183955912909370646360000012972493785700614017_);" d="M352.16,177.13l-21.75-0.43
							c-2.74-0.05-4.93-2.3-4.9-5.02l0.23-21.39c0.03-2.72,2.27-4.9,5-4.88l21.75,0.18c2.79,0.02,5.03,2.27,5,5.02l-0.24,21.65
							C357.24,175,354.95,177.18,352.16,177.13z"/>
						<path style="opacity:0.48;fill:#FFFFFF;" d="M342.61,166.95c-2.62-3.57,0.08-5.92-2.7-9.95c-3.32-4.81-8.77-3.79-10.85-8.08
							c-0.46-0.94-0.65-1.94-0.67-2.94c-1.55,0.82-2.62,2.44-2.64,4.3l-0.23,21.39c-0.03,2.72,2.16,4.96,4.9,5.02l21.75,0.43
							c2.23,0.04,4.14-1.35,4.83-3.32C353.1,169.44,346.28,171.96,342.61,166.95z"/>
					</g>
					<g>
						
							<linearGradient id="SVGID_00000078765674463350313220000007873664604034392203_" gradientUnits="userSpaceOnUse" x1="330.4658" y1="161.4418" x2="351.414" y2="161.4418">
							<stop  offset="0" style="stop-color:#444B8C"/>
							<stop  offset="0.9964" style="stop-color:#26264F"/>
						</linearGradient>
						<path style="fill:url(#SVGID_00000078765674463350313220000007873664604034392203_);" d="M348.04,171.9l-14.48-0.26
							c-1.73-0.03-3.12-1.46-3.1-3.19l0.16-14.37c0.02-1.73,1.44-3.12,3.17-3.1l14.48,0.14c1.75,0.02,3.16,1.45,3.14,3.19
							l-0.16,14.48C351.24,170.54,349.8,171.93,348.04,171.9z"/>
						
							<linearGradient id="SVGID_00000100352297592135366470000015326345771368628406_" gradientUnits="userSpaceOnUse" x1="412.1565" y1="189.2458" x2="405.6651" y2="157.1053" gradientTransform="matrix(0.9999 0.011 -0.011 0.9999 -65.0348 -13.9695)">
							<stop  offset="3.597120e-03" style="stop-color:#E38DDD"/>
							<stop  offset="1" style="stop-color:#9571F6"/>
						</linearGradient>
						<path style="fill:url(#SVGID_00000100352297592135366470000015326345771368628406_);" d="M348.47,171.48l-14.29-0.25
							c-1.71-0.03-3.08-1.43-3.06-3.13l0.15-14.08c0.02-1.7,1.42-3.06,3.13-3.04l14.29,0.15c1.73,0.02,3.12,1.42,3.1,3.13
							l-0.16,14.19C351.62,170.15,350.2,171.51,348.47,171.48z"/>
						<path style="opacity:0.48;fill:#FFFFFF;" d="M342.61,166.95c-2.62-3.57,0.08-5.92-2.7-9.95c-2.19-3.17-5.29-3.81-7.75-5.09
							c-0.54,0.55-0.88,1.29-0.89,2.11l-0.15,14.08c-0.02,1.7,1.35,3.09,3.06,3.13l14.29,0.25c0.77,0.01,1.48-0.25,2.04-0.7
							C347.59,170.18,344.62,169.7,342.61,166.95z"/>
					</g>
				</g>
			</g>
			<g>
				<g>
					<g>
						
							<linearGradient id="SVGID_00000048484175026833436370000000014947594063598507_" gradientUnits="userSpaceOnUse" x1="53.5226" y1="232.3375" x2="109.2084" y2="232.3375">
							<stop  offset="0" style="stop-color:#444B8C"/>
							<stop  offset="0.9964" style="stop-color:#26264F"/>
						</linearGradient>
						<path style="fill:url(#SVGID_00000048484175026833436370000000014947594063598507_);" d="M99.91,259.96l-37.86-0.75
							c-4.76-0.09-8.57-4.01-8.52-8.74l0.41-37.27c0.05-4.73,3.95-8.54,8.71-8.5l37.87,0.3c4.85,0.04,8.75,3.95,8.7,8.74
							l-0.41,37.71C108.74,256.25,104.76,260.06,99.91,259.96z"/>
						
							<linearGradient id="SVGID_00000176028963420587040780000011110847398676478644_" gradientUnits="userSpaceOnUse" x1="54.7154" y1="232.565" x2="110.5072" y2="232.565">
							<stop  offset="0" style="stop-color:#AA80F9"/>
							<stop  offset="0.9964" style="stop-color:#6165D7"/>
						</linearGradient>
						<path style="fill:url(#SVGID_00000176028963420587040780000011110847398676478644_);" d="M101.19,260.22l-37.93-0.75
							c-4.77-0.09-8.59-4.01-8.54-8.75l0.41-37.3c0.05-4.74,3.96-8.54,8.73-8.51l37.94,0.31c4.86,0.04,8.77,3.96,8.71,8.75
							l-0.41,37.75C110.04,256.51,106.05,260.31,101.19,260.22z"/>
						<path style="opacity:0.48;fill:#FFFFFF;" d="M84.53,242.47c-4.57-6.23,0.15-10.32-4.71-17.35c-5.8-8.39-15.3-6.6-18.93-14.08
							c-0.8-1.64-1.13-3.38-1.17-5.12c-2.71,1.43-4.56,4.25-4.6,7.5l-0.41,37.3c-0.05,4.74,3.77,8.65,8.54,8.75l37.93,0.75
							c3.89,0.08,7.22-2.35,8.42-5.78C102.82,246.82,90.93,251.2,84.53,242.47z"/>
					</g>
					<g>
						
							<linearGradient id="SVGID_00000181056131833264214030000009330329986388214705_" gradientUnits="userSpaceOnUse" x1="63.3541" y1="232.8632" x2="99.8867" y2="232.8632">
							<stop  offset="0" style="stop-color:#444B8C"/>
							<stop  offset="0.9964" style="stop-color:#26264F"/>
						</linearGradient>
						<path style="fill:url(#SVGID_00000181056131833264214030000009330329986388214705_);" d="M94.01,251.1l-25.24-0.45
							c-3.02-0.05-5.44-2.54-5.41-5.56l0.27-25.05c0.03-3.02,2.51-5.44,5.53-5.41l25.25,0.25c3.06,0.03,5.52,2.52,5.48,5.56
							l-0.28,25.26C99.58,248.74,97.07,251.16,94.01,251.1z"/>
						
							<linearGradient id="SVGID_00000046305672803902948050000001008323581791710337_" gradientUnits="userSpaceOnUse" x1="156.7979" y1="277.1358" x2="145.4772" y2="221.0845" gradientTransform="matrix(0.9999 0.011 -0.011 0.9999 -65.0348 -13.9695)">
							<stop  offset="3.597120e-03" style="stop-color:#E38DDD"/>
							<stop  offset="1" style="stop-color:#9571F6"/>
						</linearGradient>
						<path style="fill:url(#SVGID_00000046305672803902948050000001008323581791710337_);" d="M94.74,250.37l-24.92-0.44
							c-2.98-0.05-5.37-2.49-5.34-5.45l0.27-24.56c0.03-2.96,2.47-5.33,5.46-5.3l24.92,0.25c3.02,0.03,5.44,2.47,5.41,5.45
							l-0.27,24.75C100.24,248.06,97.76,250.43,94.74,250.37z"/>
						<path style="opacity:0.48;fill:#FFFFFF;" d="M84.53,242.47c-4.57-6.23,0.15-10.32-4.71-17.35c-3.81-5.52-9.23-6.64-13.52-8.88
							c-0.94,0.95-1.53,2.25-1.54,3.69l-0.27,24.56c-0.03,2.96,2.36,5.4,5.34,5.45l24.92,0.44c1.35,0.02,2.59-0.44,3.55-1.22
							C93.22,248.11,88.05,247.27,84.53,242.47z"/>
					</g>
				</g>
			</g>
		</g>
	</g>
	<g>
		
			<linearGradient id="SVGID_00000022523036938953707950000016508476257661693873_" gradientUnits="userSpaceOnUse" x1="-2342.1333" y1="330.3919" x2="-2339.6445" y2="375.1893" gradientTransform="matrix(1 0 0 1 2649.1306 0)">
			<stop  offset="0" style="stop-color:#444B8C"/>
			<stop  offset="0.9964" style="stop-color:#26264F"/>
		</linearGradient>
		<path style="fill:url(#SVGID_00000022523036938953707950000016508476257661693873_);" d="M313.23,346.32c0,0,0.31,2.48,0.1,3.31
			c-0.21,0.83-7.41,1.43-9.85,1.14c-2.44-0.29,1.46-2.78,3.01-3.25C308.05,347.05,313.23,346.32,313.23,346.32z"/>
		
			<linearGradient id="SVGID_00000163761734669712370910000012725525796362534822_" gradientUnits="userSpaceOnUse" x1="-2339.5234" y1="344.7581" x2="-2335.7966" y2="344.7581" gradientTransform="matrix(1 0 0 1 2649.1306 0)">
			<stop  offset="0" style="stop-color:#311944"/>
			<stop  offset="1" style="stop-color:#A03976"/>
		</linearGradient>
		<path style="fill:url(#SVGID_00000163761734669712370910000012725525796362534822_);" d="M309.61,342.19l0.76,4.97
			c0,0,1.94,0.87,2.87,0.01l0.1-5.2L309.61,342.19z"/>
		
			<linearGradient id="SVGID_00000052086861201844679050000003831914265742224041_" gradientUnits="userSpaceOnUse" x1="-2297.0881" y1="327.89" x2="-2294.5996" y2="372.6859" gradientTransform="matrix(1 0 0 1 2649.1306 0)">
			<stop  offset="0" style="stop-color:#444B8C"/>
			<stop  offset="0.9964" style="stop-color:#26264F"/>
		</linearGradient>
		<path style="fill:url(#SVGID_00000052086861201844679050000003831914265742224041_);" d="M350.2,341.97c0,0-1.53,1.13-1.12,2.49
			c0.41,1.36,3.97,6.8,6.51,8.34c2.54,1.54,1.74-1.67,1-3.68c-0.74-2-2.63-6.42-3.37-7.16C352.49,341.23,350.2,341.97,350.2,341.97z
			"/>
		
			<linearGradient id="SVGID_00000067226989146318551200000017353918987723166644_" gradientUnits="userSpaceOnUse" x1="-2301.6829" y1="342.4601" x2="-2294.2712" y2="342.4601" gradientTransform="matrix(1 0 0 1 2649.1306 0)">
			<stop  offset="0" style="stop-color:#311944"/>
			<stop  offset="1" style="stop-color:#A03976"/>
		</linearGradient>
		<path style="fill:url(#SVGID_00000067226989146318551200000017353918987723166644_);" d="M347.45,336.51c0.74,2.06,1.45,3.75,2,5
			c1.23,2.76,1.9,3.8,2.66,4.7c0.66,0.78,2.23,2.45,2.66,2.17c0.43-0.28-0.72-2.31-2.94-8.26c-0.32-0.86-1.34-3.61-1.34-3.61l0,0
			H347.45z"/>
		
			<linearGradient id="SVGID_00000170276322296624603090000017944524828152246698_" gradientUnits="userSpaceOnUse" x1="-2341.5234" y1="340.2693" x2="-2342.7678" y2="292.1549" gradientTransform="matrix(1 0 0 1 2649.1306 0)">
			<stop  offset="0" style="stop-color:#311944"/>
			<stop  offset="1" style="stop-color:#893976"/>
		</linearGradient>
		<path style="fill:url(#SVGID_00000170276322296624603090000017944524828152246698_);" d="M294.53,250.5
			c-0.53,5.17-1.03,13.2-0.28,22.95c0.99,12.7,3.52,20.73,6.71,34.27c1.95,8.27,4.57,20.45,6.94,35.68
			c0.55,0.32,2.17,1.14,4.26,0.83c1.17-0.17,2.04-0.64,2.56-0.97c6.23-19.02,4.39-30.81,1.38-38.16c-1.28-3.13-2.83-5.6-3.66-10.41
			c-1.1-6.37,0.26-9.93,2.2-24.68c1.38-10.51,1.14-12.14,0.22-13.71C311.18,250,299.95,250.12,294.53,250.5z"/>
		
			<linearGradient id="SVGID_00000056394308974551221110000006419708016344036496_" gradientUnits="userSpaceOnUse" x1="-2313.8579" y1="339.5539" x2="-2315.1023" y2="291.4395" gradientTransform="matrix(1 0 0 1 2649.1306 0)">
			<stop  offset="0" style="stop-color:#311944"/>
			<stop  offset="1" style="stop-color:#893976"/>
		</linearGradient>
		<path style="fill:url(#SVGID_00000056394308974551221110000006419708016344036496_);" d="M315.96,252.71
			c3.81,19.7,7.56,30.04,10.39,35.89c0.7,1.44,3.03,6.1,5.23,12.77c1.95,5.91,2.76,10.25,3.18,12.17
			c1.31,6.04,4.56,14.85,13.31,26.42c0.11,0.06,1.6,0.91,3.03,0.16c0.72-0.38,1.08-0.99,1.22-1.27
			c-1.14-11.05-2.46-20.34-3.59-27.51c-0.24-1.5-1.29-8.08-2.94-16.77c-0.65-3.4-1.59-8.39-2.73-13.5
			c-1.41-6.37-3.58-15.05-6.91-25.44C329.42,254.64,322.69,253.68,315.96,252.71z"/>
		
			<linearGradient id="SVGID_00000063614744881961327540000009990148298408580998_" gradientUnits="userSpaceOnUse" x1="-2296.8745" y1="219.1154" x2="-2314.2952" y2="194.4361" gradientTransform="matrix(1 0 0 1 2649.1306 0)">
			<stop  offset="0" style="stop-color:#444B8C"/>
			<stop  offset="0.9964" style="stop-color:#26264F"/>
		</linearGradient>
		<path style="fill:url(#SVGID_00000063614744881961327540000009990148298408580998_);" d="M312.71,174.8c-2.16-2-6.3-4.3-8.38-9.66
			c-0.62-1.61-2.84-7.33,0.43-11.7c1.94-2.59,5.54-4.36,8.71-3.73c2.71,0.53,3.14,2.42,7.74,6.22c1.79,1.48,4.68,3.86,7.88,5.18
			c5.5,2.27,8.8,0.13,14.32,0.38c6.78,0.3,14.65,4.08,18.45,9.58c6.73,9.76-3.02,19.67,4.36,31.11c2.42,3.75,3.61,2.91,9.33,10.16
			c5.73,7.26,8.6,10.9,8.09,15.35c-0.71,6.18-7.36,12.08-13.63,12.48c-6.12,0.39-10.01-4.42-13.13-2.32
			c-2.22,1.5-0.95,4.41-3.31,7.92c-3.04,4.52-9,5.42-9.97,5.56c-8.95,1.35-21.01-9.14-26.13-21.57
			C308.24,207.35,324.47,185.67,312.71,174.8z"/>
		
			<linearGradient id="SVGID_00000013185335991166943720000006130215047516637314_" gradientUnits="userSpaceOnUse" x1="2788.1204" y1="211.7459" x2="2694.3108" y2="266.2161" gradientTransform="matrix(-1 0 0 1 3087.1206 0)">
			<stop  offset="0" style="stop-color:#FFC444"/>
			<stop  offset="0.9964" style="stop-color:#F36F56"/>
		</linearGradient>
		<path style="fill:url(#SVGID_00000013185335991166943720000006130215047516637314_);" d="M276,181.02
			c-0.06-6.26,14.15-11.25,20.65-12.87c10.11-2.51,18.21-0.93,20.18-0.52c12.61,2.67,20.47,10.24,23.43,13.42
			c-2.42,1.58-9.1,6.39-12.41,15.51c-1.03,2.84-4.07,12.55,0.28,21.64c2.51,5.24,6.94,9.17,10.31,12.16
			c5.05,4.48,7.67,5.17,9.36,9.18c1.84,4.37-0.01,6.5,2.28,9.5c2.46,3.21,5.34,1.72,9.51,4.97c4.27,3.33,2.75,6.07,6.64,9.75
			c5.65,5.35,13.13,3.61,13.48,6.01c0.3,2.07-5.02,4.88-9.54,6.01c-8.95,2.25-16.76-1.53-19.08-2.7c-6.43-3.23-5.32-5.32-10.22-7.78
			c-8.21-4.12-13.81,0.47-32.5,0.94c-10.12,0.26-15.24,0.31-18.04-3.11c-2.56-3.13-1.21-6.56,0.32-21.35
			c0.73-7.04,1-14.12,1.53-21.17c1.52-19.96,1.57-21.71,0.22-24.47C287.54,186.28,276.06,186.63,276,181.02z"/>
		<g style="opacity:0.3;">
			
				<linearGradient id="SVGID_00000060031655943100242780000009152901995017165245_" gradientUnits="userSpaceOnUse" x1="-2315.6746" y1="166.8379" x2="-2301.2957" y2="254.7712" gradientTransform="matrix(1 0 0 1 2649.1306 0)">
				<stop  offset="0" style="stop-color:#FFC444"/>
				<stop  offset="0.9964" style="stop-color:#F36F56"/>
			</linearGradient>
			<path style="fill:url(#SVGID_00000060031655943100242780000009152901995017165245_);" d="M366.22,263.77
				c-3.89-3.68-2.37-6.42-6.64-9.75c-4.17-3.25-7.05-1.76-9.51-4.97c-2.29-2.99-0.43-5.12-2.28-9.5c-1.69-4.01-4.31-4.7-9.36-9.18
				c-3.37-2.99-7.8-6.92-10.31-12.16c-4.35-9.09-1.31-18.8-0.28-21.64c3.31-9.13,9.99-13.94,12.41-15.51
				c-0.23-0.25-0.51-0.54-0.8-0.84c-15.95,2.19-25.25,11.41-26.4,14.14c-2.66,6.31,1.55,8.63,1.66,26.82
				c0.05,8.7-0.89,12.13,1.94,15.76c3.23,4.15,6.95,2.87,11.61,8.3c3.59,4.17,3.01,6.81,6.36,8.57c3.6,1.89,5.89-0.31,9.95,0.55
				c6.78,1.45,8.23,9.27,12.72,13.55c3.39,3.24,9.66,5.5,22.03,3.07c0.29-0.42,0.42-0.82,0.37-1.2
				C379.35,267.38,371.86,269.11,366.22,263.77z"/>
		</g>
		
			<linearGradient id="SVGID_00000075872653247109252460000013658339586207419046_" gradientUnits="userSpaceOnUse" x1="-2318.6489" y1="167.3244" x2="-2304.27" y2="255.2574" gradientTransform="matrix(1 0 0 1 2649.1306 0)">
			<stop  offset="0" style="stop-color:#FFC444"/>
			<stop  offset="0.9964" style="stop-color:#F36F56"/>
		</linearGradient>
		<path style="fill:url(#SVGID_00000075872653247109252460000013658339586207419046_);" d="M317.89,199.27
			c-1.7,3.6,6.1,11.99,14.76,15.97c1.76,0.81,14.44,6.64,20.08,1.04c4.67-4.63,1.65-14.2,0.58-17.62
			c-5.28-16.78-21.49-25.32-28.29-28.4c-5.07,12.68-2.08,18.33-0.91,20.1c1.23,1.84,4.66,5.71,8.3,9.13
			c2.56,2.4,4.15,3.57,3.94,3.94c-0.27,0.47-3.27-0.41-14.93-6.09C320.08,197.55,318.47,198.04,317.89,199.27z"/>
		
			<linearGradient id="SVGID_00000078006734554576034490000002107293504382065076_" gradientUnits="userSpaceOnUse" x1="2765.0046" y1="196.9391" x2="2818.0503" y2="196.9391" gradientTransform="matrix(-1 0 0 1 3087.1206 0)">
			<stop  offset="0" style="stop-color:#FF9085"/>
			<stop  offset="1" style="stop-color:#FB6FBB"/>
		</linearGradient>
		<path style="fill:url(#SVGID_00000078006734554576034490000002107293504382065076_);" d="M269.12,178.58l5.72,28.49
			c0.18,0.91,0.89,1.63,1.8,1.83l42.65,9.15c1.53,0.33,2.94-0.91,2.82-2.47l-2.25-28.97c-0.08-1.01-0.79-1.85-1.77-2.09
			c-6.77-1.67-32.81-7.92-46.54-8.74C270.01,175.69,268.82,177.07,269.12,178.58z"/>
		
			<linearGradient id="SVGID_00000090293272544410805890000001286669455511275677_" gradientUnits="userSpaceOnUse" x1="-2630.5154" y1="1319.5483" x2="-2633.4187" y2="1327.2905" gradientTransform="matrix(0.8633 0.5047 -0.5047 0.8633 3255.3779 350.27)">
			<stop  offset="0" style="stop-color:#311944"/>
			<stop  offset="1" style="stop-color:#A03976"/>
		</linearGradient>
		<path style="fill:url(#SVGID_00000090293272544410805890000001286669455511275677_);" d="M311.66,157.78c0,0,0.8,6.43,3.18,7.91
			c2.37,1.47,6.21,3.4,6.63,3.92c0.42,0.52-14.71,2.15-22.2-1.63l0,0c2.47-0.52,3.14-0.7,3.14-0.7c0.67-0.19,1.92-0.54,3.18-1.26
			c0.85-0.49,2.23-1.44,3.49-3.23l-0.03-3.56L311.66,157.78z"/>
		
			<linearGradient id="SVGID_00000057145038860979406380000005063750574879114143_" gradientUnits="userSpaceOnUse" x1="-2631.5037" y1="1309.7483" x2="-2641.3198" y2="1321.9148" gradientTransform="matrix(0.8633 0.5047 -0.5047 0.8633 3255.3779 350.27)">
			<stop  offset="0" style="stop-color:#311944"/>
			<stop  offset="1" style="stop-color:#A03976"/>
		</linearGradient>
		<path style="fill:url(#SVGID_00000057145038860979406380000005063750574879114143_);" d="M312.02,160.06c0,0-1.55,2.12-3.97,1.24
			c-2.17-0.79-0.88-6.41,0.85-7.05c0.57-0.21,1.63-0.12,2.34,0.32c0.5,0.31,1.82,1.96,1.06,3.8c0.55-0.16,1.03-0.01,1.15,0.26
			c0.15,0.34-0.31,0.81-0.42,0.92C312.66,159.92,312.22,160.02,312.02,160.06z"/>
		
			<linearGradient id="SVGID_00000112627645248646143760000001621113987412207249_" gradientUnits="userSpaceOnUse" x1="2769.4941" y1="196.734" x2="2818.0503" y2="196.734" gradientTransform="matrix(-1 0 0 1 3087.1206 0)">
			<stop  offset="0" style="stop-color:#FF9085"/>
			<stop  offset="1" style="stop-color:#FB6FBB"/>
		</linearGradient>
		<path style="opacity:0.3;fill:url(#SVGID_00000112627645248646143760000001621113987412207249_);" d="M307.53,203.21
			c-4.58-1.29-8.38,1.92-12.03-0.62c-3.74-2.6-1.3-7.04-5.18-11.41c-4.16-4.67-9.43-2.38-13.27-6.64c-1.43-1.58-2.71-4.15-2.73-8.54
			c-0.96-0.09-1.89-0.17-2.76-0.22c-1.53-0.09-2.73,1.29-2.43,2.8l5.72,28.49c0.18,0.91,0.89,1.63,1.8,1.83l40.99,8.8
			C314.73,207.53,310.87,204.15,307.53,203.21z"/>
		
			<linearGradient id="SVGID_00000001630509381372143750000017833940762198937019_" gradientUnits="userSpaceOnUse" x1="-2380.6985" y1="202.8159" x2="-2375.3064" y2="175.3022" gradientTransform="matrix(1 0 0 1 2649.1306 0)">
			<stop  offset="0" style="stop-color:#311944"/>
			<stop  offset="1" style="stop-color:#A03976"/>
		</linearGradient>
		<path style="fill:url(#SVGID_00000001630509381372143750000017833940762198937019_);" d="M271.83,193.74c0,0-2.72-2.51-3.02-5.44
			c-0.3-2.92,1.76-5.26,3.75-5.85c1.99-0.6,3.05,0.28,1.72,3.16C272.94,188.48,270.82,190.35,271.83,193.74z"/>
	</g>
</g>
</svg>
