<?xml version="1.0" encoding="utf-8"?>
<!-- Generator: Adobe Illustrator 26.3.1, SVG Export Plug-In . SVG Version: 6.00 Build 0)  -->
<svg version="1.1" xmlns="http://www.w3.org/2000/svg" xmlns:xlink="http://www.w3.org/1999/xlink" x="0px" y="0px"
	 viewBox="0 0 658.92 399.67" style="enable-background:new 0 0 658.92 399.67;" xml:space="preserve">
<g id="Background_Simple">
</g>
<g id="Coins">
</g>
<g id="Clouds">
</g>
<g id="Square">
</g>
<g id="Character_2">
</g>
<g id="Gear">
</g>
<g id="Character_1">
	<g>
		<g style="opacity:0.2;">
			<path style="fill:none;stroke:#000000;stroke-miterlimit:10;" d="M370.42,94.93c0-5.08-2.54-9.11-10.91-12.02l-0.37-0.13V67.62
				c0.92,0.04,1.93,0.17,3.02,0.42l0.76,3.41c0.74,3.22,2.29,4.09,3.66,4.09c1.18,0,2.23-0.62,2.73-1.92
				c-0.34-4.92-4.59-8.46-10.16-8.98v-5.65h-2.48v5.62c-6.57,0.46-11.22,5.23-11.22,11.23c0,6.2,3.84,9.54,10.35,11.84l0.81,0.28
				v15.33c-1.39-0.03-2.89-0.17-4.45-0.52l-0.76-3.38c-0.74-3.28-2.11-4.09-3.6-4.09c-1.36,0-2.23,0.68-2.79,1.92
				c0.24,5.31,5.11,8.92,11.59,9.04v6.33h2.48v-6.45C366.19,105.4,370.42,100.97,370.42,94.93z M350.27,74.54
				c0-4.04,2.67-6.3,6.38-6.82v14.21C352.57,80.5,350.27,78.35,350.27,74.54z M359.07,103.17V88.85c4.56,1.75,6.51,3.61,6.51,7.26
				C365.58,100.11,363.08,102.6,359.07,103.17z"/>
			<circle style="fill:none;stroke:#000000;stroke-miterlimit:10;" cx="357.71" cy="85.79" r="37.66"/>
			<circle style="fill:none;stroke:#000000;stroke-miterlimit:10;" cx="357.71" cy="85.79" r="33.16"/>
		</g>
		<g style="opacity:0.2;">
			<path style="fill:none;stroke:#000000;stroke-miterlimit:10;" d="M600.64,261.92c0-3.76-1.88-6.73-8.06-8.88l-0.27-0.09v-11.21
				c0.68,0.03,1.43,0.12,2.23,0.31l0.56,2.52c0.55,2.38,1.69,3.02,2.7,3.02c0.87,0,1.65-0.46,2.02-1.42
				c-0.25-3.63-3.39-6.25-7.51-6.63v-4.18h-1.83v4.16c-4.86,0.34-8.29,3.86-8.29,8.3c0,4.58,2.84,7.05,7.65,8.75l0.6,0.21v11.32
				c-1.03-0.02-2.14-0.13-3.29-0.38l-0.56-2.5c-0.55-2.43-1.56-3.02-2.66-3.02c-1.01,0-1.65,0.5-2.06,1.42
				c0.18,3.92,3.78,6.59,8.56,6.68v4.68h1.83v-4.76C597.52,269.66,600.64,266.38,600.64,261.92z M585.75,246.85
				c0-2.99,1.97-4.66,4.72-5.04v10.5C587.45,251.26,585.75,249.67,585.75,246.85z M592.26,268.01v-10.58
				c3.37,1.29,4.81,2.67,4.81,5.36C597.07,265.75,595.22,267.59,592.26,268.01z"/>
			
				<ellipse transform="matrix(0.9873 -0.1588 0.1588 0.9873 -33.0189 97.1321)" style="fill:none;stroke:#000000;stroke-miterlimit:10;" cx="591.25" cy="255.17" rx="27.83" ry="27.83"/>
			<circle style="fill:none;stroke:#000000;stroke-miterlimit:10;" cx="591.25" cy="255.17" r="24.51"/>
		</g>
		<g style="opacity:0.2;">
			<path style="fill:none;stroke:#000000;stroke-miterlimit:10;" d="M489.79,84.67c0-3.76-1.88-6.73-8.06-8.88l-0.27-0.09V64.48
				c0.68,0.03,1.43,0.12,2.23,0.31l0.56,2.52c0.55,2.38,1.69,3.02,2.7,3.02c0.87,0,1.65-0.46,2.02-1.42
				c-0.25-3.63-3.39-6.25-7.51-6.63v-4.18h-1.83v4.16c-4.86,0.34-8.29,3.86-8.29,8.3c0,4.58,2.84,7.05,7.65,8.75l0.6,0.21v11.32
				c-1.03-0.02-2.14-0.13-3.29-0.38l-0.56-2.5c-0.55-2.43-1.56-3.02-2.66-3.02c-1.01,0-1.65,0.5-2.06,1.42
				c0.18,3.92,3.78,6.59,8.56,6.68v4.68h1.83v-4.76C486.67,92.41,489.79,89.13,489.79,84.67z M474.91,69.6
				c0-2.99,1.97-4.66,4.72-5.04v10.5C476.6,74.01,474.91,72.42,474.91,69.6z M481.41,90.76V80.18c3.37,1.29,4.81,2.67,4.81,5.36
				C486.22,88.5,484.37,90.33,481.41,90.76z"/>
			
				<ellipse transform="matrix(0.9726 -0.2325 0.2325 0.9726 -4.9495 113.839)" style="fill:none;stroke:#000000;stroke-miterlimit:10;" cx="480.4" cy="77.91" rx="27.83" ry="27.83"/>
			<circle style="fill:none;stroke:#000000;stroke-miterlimit:10;" cx="480.4" cy="77.91" r="24.51"/>
		</g>
		<g style="opacity:0.2;">
			<path style="fill:none;stroke:#000000;stroke-miterlimit:10;" d="M223.95,21.76c0-2.36-1.18-4.24-5.07-5.59l-0.17-0.06V9.06
				c0.43,0.02,0.9,0.08,1.4,0.19l0.35,1.58c0.35,1.5,1.07,1.9,1.7,1.9c0.55,0,1.04-0.29,1.27-0.89c-0.16-2.29-2.14-3.93-4.73-4.17
				V5.04h-1.15v2.61c-3.06,0.22-5.22,2.43-5.22,5.22c0,2.88,1.79,4.44,4.81,5.5l0.37,0.13v7.12c-0.65-0.01-1.35-0.08-2.07-0.24
				l-0.35-1.57c-0.35-1.53-0.98-1.9-1.67-1.9c-0.63,0-1.04,0.32-1.3,0.89c0.11,2.47,2.38,4.15,5.39,4.2v2.94h1.15v-3
				C221.99,26.63,223.95,24.56,223.95,21.76z M214.59,12.28c0-1.88,1.24-2.93,2.97-3.17v6.61
				C215.66,15.05,214.59,14.05,214.59,12.28z M218.68,25.59v-6.66c2.12,0.81,3.03,1.68,3.03,3.37
				C221.71,24.16,220.54,25.32,218.68,25.59z"/>
			
				<ellipse transform="matrix(0.3786 -0.9255 0.9255 0.3786 119.2842 212.6912)" style="fill:none;stroke:#000000;stroke-miterlimit:10;" cx="218.05" cy="17.51" rx="17.51" ry="17.51"/>
			
				<ellipse transform="matrix(0.987 -0.161 0.161 0.987 0.0251 35.324)" style="fill:none;stroke:#000000;stroke-miterlimit:10;" cx="218.05" cy="17.51" rx="15.42" ry="15.42"/>
		</g>
		<g style="opacity:0.2;">
			<path style="fill:none;stroke:#000000;stroke-miterlimit:10;" d="M24.25,377.48c0-2.36-1.18-4.24-5.07-5.59l-0.17-0.06v-7.05
				c0.43,0.02,0.9,0.08,1.4,0.19l0.35,1.58c0.35,1.5,1.07,1.9,1.7,1.9c0.55,0,1.04-0.29,1.27-0.89c-0.16-2.29-2.14-3.93-4.73-4.17
				v-2.63h-1.15v2.61c-3.06,0.22-5.22,2.43-5.22,5.22c0,2.88,1.79,4.44,4.81,5.5l0.37,0.13v7.12c-0.65-0.01-1.35-0.08-2.07-0.24
				l-0.35-1.57c-0.35-1.53-0.98-1.9-1.67-1.9c-0.63,0-1.04,0.32-1.3,0.89c0.11,2.47,2.38,4.15,5.39,4.2v2.94h1.15v-3
				C22.29,382.35,24.25,380.29,24.25,377.48z M14.89,368c0-1.88,1.24-2.93,2.97-3.17v6.61C15.95,370.77,14.89,369.78,14.89,368z
				 M18.98,381.31v-6.66c2.12,0.81,3.03,1.68,3.03,3.37C22,379.89,20.84,381.05,18.98,381.31z"/>
			
				<ellipse transform="matrix(0.9732 -0.2298 0.2298 0.9732 -85.2603 14.1987)" style="fill:none;stroke:#000000;stroke-miterlimit:10;" cx="18.34" cy="373.23" rx="17.51" ry="17.51"/>
			
				<ellipse transform="matrix(0.9732 -0.2298 0.2298 0.9732 -85.2603 14.1987)" style="fill:none;stroke:#000000;stroke-miterlimit:10;" cx="18.34" cy="373.23" rx="15.42" ry="15.42"/>
		</g>
		<g style="opacity:0.2;">
			<path style="fill:none;stroke:#000000;stroke-miterlimit:10;" d="M626.77,180.11c0-2.36-1.18-4.24-5.07-5.59l-0.17-0.06v-7.05
				c0.43,0.02,0.9,0.08,1.4,0.19l0.35,1.58c0.35,1.5,1.07,1.9,1.7,1.9c0.55,0,1.04-0.29,1.27-0.89c-0.16-2.29-2.14-3.93-4.73-4.17
				v-2.63h-1.15v2.61c-3.06,0.22-5.22,2.43-5.22,5.22c0,2.88,1.79,4.44,4.81,5.5l0.37,0.13v7.12c-0.65-0.01-1.35-0.08-2.07-0.24
				l-0.35-1.57c-0.35-1.53-0.98-1.9-1.67-1.9c-0.63,0-1.04,0.32-1.3,0.89c0.11,2.47,2.38,4.15,5.39,4.2v2.94h1.15v-3
				C624.81,184.98,626.77,182.91,626.77,180.11z M617.41,170.63c0-1.88,1.24-2.93,2.97-3.17v6.61
				C618.47,173.4,617.41,172.4,617.41,170.63z M621.5,183.94v-6.66c2.12,0.81,3.03,1.68,3.03,3.37
				C624.52,182.51,623.36,183.67,621.5,183.94z"/>
			
				<ellipse transform="matrix(0.7071 -0.7071 0.7071 0.7071 57.4972 490.525)" style="fill:none;stroke:#000000;stroke-miterlimit:10;" cx="620.86" cy="175.86" rx="17.51" ry="17.51"/>
			
				<ellipse transform="matrix(0.7071 -0.7071 0.7071 0.7071 57.4972 490.525)" style="fill:none;stroke:#000000;stroke-miterlimit:10;" cx="620.86" cy="175.86" rx="15.42" ry="15.42"/>
		</g>
		<g style="opacity:0.2;">
			<path style="fill:none;stroke:#000000;stroke-miterlimit:10;" d="M362.55,366.13c0-3.76-1.88-6.73-8.06-8.88l-0.27-0.09v-11.21
				c0.68,0.03,1.43,0.12,2.23,0.31l0.56,2.52c0.55,2.38,1.69,3.02,2.7,3.02c0.87,0,1.65-0.46,2.02-1.42
				c-0.25-3.63-3.39-6.25-7.51-6.63v-4.18h-1.83v4.16c-4.86,0.34-8.29,3.86-8.29,8.3c0,4.58,2.84,7.05,7.65,8.75l0.6,0.21v11.32
				c-1.03-0.02-2.14-0.13-3.29-0.38l-0.56-2.5c-0.55-2.43-1.56-3.02-2.66-3.02c-1.01,0-1.65,0.5-2.06,1.42
				c0.18,3.92,3.78,6.59,8.56,6.68v4.68h1.83v-4.76C359.43,373.87,362.55,370.59,362.55,366.13z M347.67,351.06
				c0-2.99,1.97-4.66,4.72-5.04v10.5C349.37,355.47,347.67,353.88,347.67,351.06z M354.17,372.22v-10.58
				c3.37,1.29,4.81,2.67,4.81,5.36C358.98,369.95,357.14,371.79,354.17,372.22z"/>
			
				<ellipse transform="matrix(0.9743 -0.2254 0.2254 0.9743 -71.9274 88.8719)" style="fill:none;stroke:#000000;stroke-miterlimit:10;" cx="353.17" cy="359.37" rx="27.83" ry="27.83"/>
			
				<ellipse transform="matrix(0.3396 -0.9406 0.9406 0.3396 -104.775 569.5274)" style="fill:none;stroke:#000000;stroke-miterlimit:10;" cx="353.17" cy="359.37" rx="24.51" ry="24.51"/>
		</g>
		<g style="opacity:0.2;">
			<path style="fill:none;stroke:#000000;stroke-miterlimit:10;" d="M37.22,93.31c0-3.76-1.88-6.73-8.06-8.88l-0.27-0.09V73.12
				c0.68,0.03,1.43,0.12,2.23,0.31l0.56,2.52c0.55,2.38,1.69,3.02,2.7,3.02c0.87,0,1.65-0.46,2.02-1.42
				c-0.25-3.63-3.39-6.25-7.51-6.63v-4.18h-1.83v4.16c-4.86,0.34-8.29,3.86-8.29,8.3c0,4.58,2.84,7.05,7.65,8.75l0.6,0.21v11.32
				c-1.03-0.02-2.14-0.13-3.29-0.38l-0.56-2.5c-0.55-2.43-1.56-3.02-2.66-3.02c-1.01,0-1.65,0.5-2.06,1.42
				c0.18,3.92,3.78,6.59,8.56,6.68v4.68h1.83v-4.76C34.09,101.05,37.22,97.77,37.22,93.31z M22.33,78.24c0-2.99,1.97-4.66,4.72-5.04
				v10.5C24.03,82.65,22.33,81.06,22.33,78.24z M28.83,99.4V88.82c3.37,1.29,4.81,2.67,4.81,5.36C33.64,97.14,31.8,98.98,28.83,99.4
				z"/>
			
				<ellipse transform="matrix(0.3827 -0.9239 0.9239 0.3827 -62.7885 79.1396)" style="fill:none;stroke:#000000;stroke-miterlimit:10;" cx="27.83" cy="86.55" rx="27.83" ry="27.83"/>
			
				<ellipse transform="matrix(0.3827 -0.9239 0.9239 0.3827 -62.7885 79.1396)" style="fill:none;stroke:#000000;stroke-miterlimit:10;" cx="27.83" cy="86.55" rx="24.51" ry="24.51"/>
		</g>
		<path style="fill:#3AB4CC;" d="M300.01,48.22c0,0-1.98-9.23-8.9-11.53s-8.57,2.31-10.55,4.94c-1.98,2.64-4.94-1.32-9.23,0
			c-4.28,1.32-2.64,4.94-5.27,6.26c-2.64,1.32-7.25-1.65-10.22,0.66c-2.97,2.31-3.63,4.28-3.63,4.28h62.62
			C314.84,52.83,304.96,43.6,300.01,48.22z"/>
		<path style="fill:#3AB4CC;" d="M629.22,81c0,0-3-13.99-13.49-17.48c-10.49-3.5-12.99,3.5-15.99,7.49c-3,4-7.49-2-13.99,0
			c-6.49,2-4,7.49-7.99,9.49c-4,2-10.99-2.5-15.49,1c-4.5,3.5-5.5,6.49-5.5,6.49h94.92C651.7,87.99,636.71,74,629.22,81z"/>
		<path style="fill:#3AB4CC;" d="M157.73,36.09c0,0-4.36-20.36-19.64-25.45c-15.27-5.09-18.91,5.09-23.27,10.91
			c-4.36,5.82-10.91-2.91-20.36,0C85,24.45,88.63,32.45,82.82,35.36c-5.82,2.91-16-3.64-22.55,1.45c-6.55,5.09-8,9.45-8,9.45h138.18
			C190.45,46.27,168.64,25.91,157.73,36.09z"/>
		<path style="fill:#263238;stroke:#263238;stroke-linecap:round;stroke-linejoin:round;stroke-miterlimit:10;" d="M393.4,134.15
			v265.51h265.51V134.15H393.4z M642.3,383.05H410.02V150.77H642.3V383.05z"/>
		<g>
			<path style="fill:#FFFFFF;stroke:#263238;stroke-linecap:round;stroke-linejoin:round;stroke-miterlimit:10;" d="M412.5,233.53
				c0,0,0.18-2.37,1.14-1.58c0.96,0.79,1.73,8.99,2.13,11.03c0.39,2.04,0.58,3.66,0.58,3.66l37.67-5.37l-0.26-1.45l8.89-0.72
				l1.05,0.92l6.71-1.71l1.45,3.29l-15.94,9.31l-41.52-2.54L412.5,233.53z"/>
			<g>
				<path style="fill:#FFFFFF;stroke:#263238;stroke-linecap:round;stroke-linejoin:round;stroke-miterlimit:10;" d="M458.43,224.24
					c0,0,3.42,6.84,4.34,7.24c0.92,0.39,2.24,0.66,2.24,0.66s-0.13,5.79,0.39,5.92c0.53,0.13,2.5,0.53,2.5,0.53s6.18,5.66,6.97,5
					c0.79-0.66,3.95-3.16,3.95-3.16l6.05,2.76l3.95-17.89l-2.63-2.24c0,0-5.39-5.92-8.55-8.16c-3.16-2.24-11.71-2.24-15.39,0.26
					C458.56,217.66,457.77,223.06,458.43,224.24z"/>
				<path style="fill:#263238;stroke:#263238;stroke-linecap:round;stroke-linejoin:round;stroke-miterlimit:10;" d="M466.06,219.5
					c0,0-2.11,2.5-4.87,4.21c-2.76,1.71-6.45,3.95-6.45,3.95l0.79-8.42l-2.76,1.18c0,0,0.79-7.76,7.37-11.97
					c6.58-4.21,14.34-3.55,15.39-3.29c1.05,0.26,6.45,3.55,6.97,5.13c0.53,1.58,3.03,10.79,3.29,11.58c0.26,0.79,1.05,2.11,0.66,2.5
					c-0.39,0.39-0.66,1.05-1.71,0.66c-1.05-0.39-2.63-1.97-2.63-1.97s-1.71-2.76-3.82-1.58c-2.11,1.18-2.11,4.61-2.11,4.61
					s-1.18,1.05-1.71,0.39c-0.53-0.66-3.29-3.16-3.29-3.16s-1.45,0.92-2.37,0.53C467.9,223.45,466.06,219.5,466.06,219.5z"/>
				<path style="fill:none;stroke:#263238;stroke-linecap:round;stroke-linejoin:round;stroke-miterlimit:10;" d="M465.01,230.82
					c0,0-0.13-1.71,2.37-2.24"/>
				<path style="fill:none;stroke:#263238;stroke-linecap:round;stroke-linejoin:round;stroke-miterlimit:10;" d="M466.85,231.35
					l1.45,1.32c0,0,1.58-1.05,1.97-1.58"/>
				<path style="fill:none;stroke:#263238;stroke-linecap:round;stroke-linejoin:round;stroke-miterlimit:10;" d="M482.11,223.06
					c0,0,1.84,1.97,0.79,3.82c-1.05,1.84-1.97,2.37-1.97,2.37s0.53,1.84,0.53,3.55"/>
			</g>
			<g>
				<path style="fill:#FFFFFF;stroke:#263238;stroke-linecap:round;stroke-linejoin:round;stroke-miterlimit:10;" d="M472.83,370.59
					c0,0-0.49,1.47-1.14,2.77c-0.65,1.31-5.39,3.92-7.67,5.22c-2.29,1.31-6.37,2.77-6.2,3.59s9.63,0.65,12.57,0.33
					c2.94-0.33,5.39-0.49,6.37-0.98c0.98-0.49,0.98-0.49,0.98-0.49h1.8l0.16,1.14l6.2-0.82c0,0-0.16-2.29-1.14-4.57
					c-0.98-2.29-1.8-3.59-1.8-3.59l-1.47-2.45L472.83,370.59z"/>
				<path style="fill:#263238;stroke:#263238;stroke-linecap:round;stroke-linejoin:round;stroke-miterlimit:10;" d="M477.73,381.04
					h1.8l0.16,1.14l6.2-0.82c0,0-0.16-2.29-1.14-4.57c-0.98-2.29-1.8-3.59-1.8-3.59l-0.22-0.37c-3.24,3-7.62,1.51-7.62,1.51
					s-0.16-0.98-0.82-2.12c-0.33-0.58-1.08-0.74-1.8-0.73c-0.2,0.53-0.49,1.22-0.82,1.88c-0.65,1.31-5.39,3.92-7.67,5.22
					c-2.29,1.31-6.37,2.77-6.2,3.59s9.63,0.65,12.57,0.33c2.94-0.33,5.39-0.49,6.37-0.98C477.73,381.04,477.73,381.04,477.73,381.04
					z"/>
			</g>
			<g>
				<path style="fill:#FFFFFF;stroke:#263238;stroke-linecap:round;stroke-linejoin:round;stroke-miterlimit:10;" d="M552.51,366.89
					c0,0,1.34,5.26,1.01,5.92c-0.14,0.29-0.24,2.2-1.74,3.77c-1.89,1.97-5.33,3.66-6.24,4.03c-1.63,0.65-1.63,2.45,0.98,2.45
					c2.61,0,9.07-0.11,10.28-0.49c1.54-0.48,4.19-2.94,4.52-3.59c0.33-0.65-0.33-2.61,0.82-3.26c1.14-0.65,1.14-0.65,1.14-0.65
					l1.31,0.98l3.75-5.55c0,0-1.63-1.8-3.92-3.1c-2.29-1.31-6.2-3.59-6.2-3.59L552.51,366.89z"/>
				<path style="fill:#263238;stroke:#263238;stroke-linecap:round;stroke-linejoin:round;stroke-miterlimit:10;" d="M564.43,367.38
					c-0.81-0.46-1.82-1.05-2.79-1.61c-2.05,3.71-5.12,5.59-5.12,5.59s-1.64-1.06-2.7-1.06c-0.2,0-0.37,0.07-0.5,0.18
					c0.21,1.09,0.34,2.07,0.21,2.33c-0.14,0.29-0.24,2.2-1.74,3.77c-1.89,1.97-5.33,3.66-6.24,4.03c-1.63,0.65-1.63,2.45,0.98,2.45
					c2.61,0,9.07-0.11,10.28-0.49c1.54-0.48,4.19-2.94,4.52-3.59c0.33-0.65-0.33-2.61,0.82-3.26c1.14-0.65,1.14-0.65,1.14-0.65
					l1.31,0.98l3.75-5.55C568.35,370.48,566.71,368.69,564.43,367.38z"/>
			</g>
			<path style="fill:#263238;stroke:#263238;stroke-linecap:round;stroke-linejoin:round;stroke-miterlimit:10;" d="M492.87,280.77
				l-3.59,8.98c0,0-29.83,22.08-37.83,34.49c0,0,0,3.59,0.65,5.06c0.65,1.47,15.51,42.76,15.51,42.76h14.53
				c0,0-4.9-18.93-6.37-26.93s-4.24-19.26-4.24-19.26l34.07-17.84c0,0,10.77,27.75,12.08,28.24c1.31,0.49,31.25,34.54,31.25,34.54
				l10.45-7.34c0,0-8.51-15.31-12.15-20.67c-4.27-6.28-13.55-14.85-13.55-14.85s-5.39-41.13-6.2-45.05
				c-0.82-3.92-1.14-6.15-1.14-6.15S507.23,282.89,492.87,280.77z"/>
			<path style="fill:#3AB4CC;stroke:#263238;stroke-linecap:round;stroke-linejoin:round;stroke-miterlimit:10;" d="M481.98,250.29
				c0,0,2.5,11.58,5.79,14.74c3.29,3.16,4.61,6.32,4.74,7.63c0.13,1.32-1.71,8.29-1.58,8.95c0.13,0.66,1.97,1.45,2.63,1.58
				c0.66,0.13,13.29,3.03,19.74,1.84c6.45-1.18,11.45-3.29,12.5-4.74c1.05-1.45,1.45-1.45,0.53-3.55c-0.92-2.11-2.5-5.92-2.5-5.92
				s-6.58-26.18-7.37-28.68c-0.79-2.5-7.5-10.13-13.55-12.89c-6.05-2.76-14.08-3.95-14.08-3.95l-1.71,0.79
				C487.11,226.08,481.72,243.06,481.98,250.29z"/>
			<polygon style="fill:#3AB4CC;stroke:#263238;stroke-linecap:round;stroke-linejoin:round;stroke-miterlimit:10;" points="
				487.77,223.85 480.4,242.13 486.46,246.74 491.59,225.29 			"/>
			<path style="fill:#FFFFFF;stroke:#263238;stroke-linecap:round;stroke-linejoin:round;stroke-miterlimit:10;" d="M459.02,241.54
				c0,0-42.6,4.59-43.48,4.2c-0.88-0.38-1.25-3.62-1.68-5.4c-0.43-1.78-0.73-5.54-1.36-6.82c-0.63-1.28-0.99-3.58-1.53-2.46
				c-0.55,1.12-0.26,3.95-0.06,4.5c0.19,0.56,0.18,9.71,0.29,11.85c0.12,2.14,1.13,3.81,2.84,3.94c1.71,0.13,48.87,1.68,48.87,1.68
				L459.02,241.54z"/>
			<polygon style="fill:#263238;stroke:#263238;stroke-linecap:round;stroke-linejoin:round;stroke-miterlimit:10;" points="
				481.98,242.53 477.64,283.85 482.9,290.03 486.85,282.79 484.88,243.19 			"/>
			<g>
				<path style="fill:none;stroke:#263238;stroke-linecap:round;stroke-linejoin:round;stroke-miterlimit:10;" d="M496.19,250.56
					c0,0,13.16,8.16,18.68,8.68"/>
				<path style="fill:none;stroke:#263238;stroke-linecap:round;stroke-linejoin:round;stroke-miterlimit:10;" d="M497.64,253.58
					c0,0,6.97,6.84,9.21,7.63"/>
			</g>
			<path style="fill:#3AB4CC;stroke:#263238;stroke-linecap:round;stroke-linejoin:round;stroke-miterlimit:10;" d="M504.61,233.45
				c0,0-9.87-3.29-14.74-2.11c-4.87,1.18-27.11,10.92-27.11,10.92l5.13,10.92l43.03-2.5"/>
			<path style="fill:#3AB4CC;stroke:#263238;stroke-linecap:round;stroke-linejoin:round;stroke-miterlimit:10;" d="M457.04,240.62
				c0,0,5.2,15.33,5.6,15.33c0.39,0,8.68-0.53,8.68-1.58s-5.92-14.21-7.63-14.34C461.98,239.9,457.04,240.62,457.04,240.62z"/>
			
				<line style="fill:none;stroke:#FFFFFF;stroke-linecap:round;stroke-linejoin:round;stroke-miterlimit:10;" x1="505.6" y1="308.03" x2="496.78" y2="297.58"/>
			
				<line style="fill:none;stroke:#FFFFFF;stroke-linecap:round;stroke-linejoin:round;stroke-miterlimit:10;" x1="498.25" y1="302.48" x2="492.05" y2="296.28"/>
		</g>
		<path style="fill:#263238;stroke:#263238;stroke-linecap:round;stroke-linejoin:round;stroke-miterlimit:10;" d="M349.99,242.97
			v-30.4l-27.26-2.86c-1.67-13.54-5.2-26.51-10.32-38.63l22.16-16.09l-15.2-26.33l-25.05,11.16c-8.08-10.66-17.6-20.18-28.26-28.26
			l11.16-25.05l-26.33-15.2l-16.09,22.16c-12.13-5.13-25.09-8.65-38.63-10.32l-2.86-27.26h-30.4l-2.86,27.26
			c-13.54,1.67-26.51,5.2-38.63,10.32L105.31,71.3L78.98,86.5l11.16,25.05c-10.66,8.08-20.18,17.6-28.26,28.26l-25.05-11.16
			l-15.2,26.33l22.16,16.09c-5.13,12.13-8.65,25.09-10.32,38.63L6.2,212.56v30.4l27.26,2.86c1.67,13.54,5.2,26.51,10.32,38.63
			l-22.16,16.09l15.2,26.33l25.05-11.16c8.08,10.66,17.6,20.18,28.26,28.26l-11.16,25.05l26.33,15.2l16.09-22.16
			c12.13,5.13,25.09,8.65,38.63,10.32l2.86,27.26h30.4l2.86-27.26c13.54-1.67,26.51-5.2,38.63-10.32l16.09,22.16l26.33-15.2
			l-11.16-25.05c10.66-8.08,20.18-17.6,28.26-28.26l25.05,11.16l15.2-26.33l-22.16-16.09c5.13-12.13,8.65-25.09,10.32-38.63
			L349.99,242.97z M178.09,343.23c-63.77,0-115.46-51.69-115.46-115.46c0-63.77,51.69-115.46,115.46-115.46
			c63.77,0,115.46,51.69,115.46,115.46C293.56,291.53,241.86,343.23,178.09,343.23z"/>
		<g>
			<g>
				<g>
					<path style="fill:#FFFFFF;stroke:#263238;stroke-linecap:round;stroke-linejoin:round;stroke-miterlimit:10;" d="
						M155.41,198.87l-15.61-14.43c0,0-4.75-6.42-5.06-7.43c-0.31-1.01-1.95,0.04-2.48,0.65c-0.53,0.62-4.7,6.11-3.68,7.41
						c1.02,1.3,3.08,2.64,4.49,3.1c1.42,0.47,3.91,1.54,3.91,1.54l12.49,18.69L155.41,198.87z"/>
					<path style="fill:#FFFFFF;stroke:#263238;stroke-linecap:round;stroke-linejoin:round;stroke-miterlimit:10;" d="
						M135.68,177.16c0,0-1.34-2.5-2.24-2.27c-0.9,0.22-2.41,1.49-2.3,1.94s2.36,3.79,2.92,4.06c0.56,0.26,1.94-0.69,2.29-1.1
						C136.69,179.38,135.68,177.16,135.68,177.16z"/>
					<path style="fill:#FFFFFF;stroke:#263238;stroke-linecap:round;stroke-linejoin:round;stroke-miterlimit:10;" d="
						M131.14,176.82c0,0-2.33,1.56-2.05,2.15c0.28,0.59,2.65,3.54,3.34,3.57c0.69,0.02,1.63-1.66,1.63-1.66L131.14,176.82z"/>
					<path style="fill:#FFFFFF;stroke:#263238;stroke-linecap:round;stroke-linejoin:round;stroke-miterlimit:10;" d="
						M129.08,178.97c0,0-1.99,1.99-1.65,2.42c0.34,0.43,2.41,2.49,3.79,2.54c1.38,0.05,1.19-1.39,1.19-1.39L129.08,178.97z"/>
					<path style="fill:#FFFFFF;stroke:#263238;stroke-linecap:round;stroke-linejoin:round;stroke-miterlimit:10;" d="M127.44,181.4
						c0,0-1.25,1.63-0.81,2.36c0.44,0.73,3.35,1.81,3.88,1.69c0.53-0.12,1.26-1.47,1.26-1.47S127.71,181.99,127.44,181.4z"/>
					<path style="fill:#FFFFFF;stroke:#263238;stroke-linecap:round;stroke-linejoin:round;stroke-miterlimit:10;" d="
						M141.92,186.46c0,0-2.84-5.53-3.52-6.86c-0.68-1.33-1.4-3.23-2.31-3.15c-0.91,0.07-3.54,1.77-4.27,2.75
						c-0.73,0.98-1.92,1.87-0.97,2.37c0.96,0.5,1.49,0,2.04-0.39c0.54-0.39,2.29-1.56,2.29-1.56s-0.69,4.42,0.68,5.81
						c1.37,1.39,3.71,1.44,3.71,1.44"/>
				</g>
				<path style="fill:#025BA6;stroke:#263238;stroke-linecap:round;stroke-linejoin:round;stroke-miterlimit:10;" d="M164.59,199.45
					l-3.44,2.66l-3.55-1.99l-5.08,10.46c0,0,3.32,3.42,4.48,3.84c1.16,0.41,11.05-1.27,11.05-1.27L164.59,199.45z"/>
				<path style="fill:#025BA6;stroke:#263238;stroke-linecap:round;stroke-linejoin:round;stroke-miterlimit:10;" d="M159.92,200.94
					l-6.43,11.19l-5.01-2.88c0,0,6.49-12.08,7.51-11.91C157.01,197.52,159.92,200.94,159.92,200.94z"/>
			</g>
			<g>
				<path style="fill:#FFFFFF;stroke:#263238;stroke-linecap:round;stroke-linejoin:round;stroke-miterlimit:10;" d="M233.34,303.64
					l1.49,1.96c0,0,0.91,5.97,0.24,8.6c-0.67,2.63-2.61,7.14-1.39,7.12c1.22-0.02,4.31-2.52,6.61-5.12c1.59-1.8,2.86-3.83,3.1-5.47
					c0.12-0.79,0.45-5.68,0.45-5.68l2.27,0.57c0,0,0.91-2.03,1.1-3.05c0.26-1.37,0.66-3.02,0.66-3.02s-2.78-1.42-4.47-2.18
					c-1.69-0.76-4.09-1.02-4.09-1.02l-3.63-0.91L233.34,303.64z"/>
				<path style="fill:#263238;stroke:#263238;stroke-linecap:round;stroke-linejoin:round;stroke-miterlimit:10;" d="M243.39,310.73
					c0.12-0.79,0.45-5.68,0.45-5.68l2.27,0.57c0,0,0.91-2.03,1.1-3.05c0.26-1.37,0.66-3.02,0.66-3.02s-2.78-1.42-4.47-2.18
					c-0.78-0.35-1.71-0.59-2.49-0.76c-0.22,2.73-1.66,8.5-1.66,8.5s-1.81-0.31-2.85-0.37c-1.04-0.07-1.57,0.86-1.57,0.86
					s0.91,5.97,0.24,8.6c-0.67,2.63-2.61,7.14-1.39,7.12c1.22-0.02,4.31-2.52,6.61-5.12C241.87,314.4,243.14,312.37,243.39,310.73z"
					/>
			</g>
			<path style="fill:#263238;stroke:#263238;stroke-linecap:round;stroke-linejoin:round;stroke-miterlimit:10;" d="M175.28,262.89
				c0,0,7.53,17.16,9.54,18.29c2.01,1.13,47.15,26.28,47.15,26.28l5.75-12.32c0,0-24.5-17.23-29.7-20.89
				c-5.2-3.66-9.93-6.71-9.93-6.71l-4.28-19.34L175.28,262.89z"/>
			<g>
				<path style="fill:#FFFFFF;stroke:#263238;stroke-linecap:round;stroke-linejoin:round;stroke-miterlimit:10;" d="M144.06,320.68
					l-0.99,3.91c0,0-9.79-0.14-11.38-1.2c-4.38-2.93-5.94,0.01-5.94,0.01s1.21,2.87,4.18,5.42c1.79,1.53,7.5,4.06,11.78,5.84
					l-0.75,1.21c0,0,4.94,2.44,8.57,3.34c0,0,1.06,0.22,1.84-1.18c0,0,1.17-1.57,1.85-3.76c0.69-2.19,1.33-10.37,1.33-10.37
					L144.06,320.68z"/>
				<path style="fill:#263238;stroke:#263238;stroke-linecap:round;stroke-linejoin:round;stroke-miterlimit:10;" d="M131.69,323.4
					c-4.38-2.93-5.94,0.01-5.94,0.01s1.21,2.87,4.18,5.42c1.79,1.53,7.5,4.06,11.78,5.84l-0.75,1.21c0,0,4.94,2.44,8.57,3.34
					c0,0,1.06,0.22,1.84-1.18c0,0,1.17-1.57,1.85-3.76c0.25-0.81,0.5-2.43,0.71-4.16c-6.19-0.41-11.86-2.79-11.86-2.79l0.97-2.75
					C143.07,324.59,133.28,324.46,131.69,323.4z"/>
			</g>
			<path style="fill:#263238;stroke:#263238;stroke-linecap:round;stroke-linejoin:round;stroke-miterlimit:10;" d="M165.66,233.4
				l1.41,11.74c0,0-8.5,10.87-12.44,15.23c-3.94,4.37-10.05,11.04-10.11,12.97c-0.06,1.93-4.35,46.79-4.35,46.79l14.15,5.96
				c0,0,5.48-25.87,6.41-30.43c0.93-4.56,3.35-18.28,3.35-18.28s30.4-26.25,32.59-28.34c2.19-2.09,4.07-8.23,3.56-12.03
				c-0.51-3.81-0.74-7.24-0.74-7.24L165.66,233.4z"/>
			<path style="fill:#025BA6;stroke:#263238;stroke-linecap:round;stroke-linejoin:round;stroke-miterlimit:10;" d="M168.86,177.28
				c0,0-6.81,7.95-7.05,14.51c-0.25,6.56,2.78,30.99,2.97,33.49c0.19,2.5-0.09,6.93,0.88,8.11c0.97,1.18,20.65,0.16,25.63-0.48
				c4.98-0.64,8.21-1.27,8.19-3.15c-0.02-1.89-0.85-14.15-0.85-14.15s1.99-29.47,0.48-34.39c-1.51-4.92-11.48-11.69-11.48-11.69
				S171.49,173.93,168.86,177.28z"/>
			<g>
				<g>
					<path style="fill:#FFFFFF;stroke:#263238;stroke-linecap:round;stroke-linejoin:round;stroke-miterlimit:10;" d="
						M205.35,210.59l-15.33,19.09c0,0-5.84,3.44-5.78,4.11c0.05,0.67-0.37,3.96-0.37,3.96s0.11,1.48,0.67,1.71s2.52-0.74,2.52-0.74
						s3.48,1.22,4.01,1.04c0.53-0.18,3.32-0.93,3.69-1.37s2.49-8.06,2.6-8.47c0.1-0.41,19.37-16.01,19.37-16.01L205.35,210.59z"/>
					<g>
						<path style="fill:#025BA6;stroke:#263238;stroke-linecap:round;stroke-linejoin:round;stroke-miterlimit:10;" d="
							M185.52,175.11c0,0,10.31,0.01,12.11,2.32s20.55,16.71,24.34,20.08c3.79,3.37,4.46,5.08,3.86,6.07c-0.6,1-5.56,6.94-5.56,6.94
							l-13.91-4.48l0.15-3.27l-25.42-7.79"/>
						<polyline style="fill:none;stroke:#263238;stroke-linecap:round;stroke-linejoin:round;stroke-miterlimit:10;" points="
							214.01,199.89 206.51,202.77 215.39,203.06 						"/>
						<path style="fill:#025BA6;stroke:#263238;stroke-linecap:round;stroke-linejoin:round;stroke-miterlimit:10;" d="
							M205.97,204.58l-2.26,5.87c0,0,14.07,6.64,14.39,5.53c0.32-1.11,3.92-3.65,4.05-5.42
							C222.29,208.78,210.02,202.64,205.97,204.58z"/>
					</g>
				</g>
				
					<line style="fill:none;stroke:#263238;stroke-linecap:round;stroke-linejoin:round;stroke-miterlimit:10;" x1="190.69" y1="198.17" x2="181.18" y2="197.96"/>
			</g>
			<path style="fill:#263238;stroke:#263238;stroke-linecap:round;stroke-linejoin:round;stroke-miterlimit:10;" d="M168.68,178.3
				c0,0,1.47,5.93,2.7,7.21c1.23,1.29,4.72-0.74,6.76-2.03c2.04-1.29,22.54-14.33,24.14-14.83c1.6-0.5,21.08-0.75,21.08-0.75
				l4.89-3.52c0,0-6.21-5.43-6.58-5.4c-0.38,0.03-20.55,4.36-21.63,5.07c-1.08,0.71-25.08,18.93-25.95,19.12
				c-0.87,0.19-0.87,0.19-0.87,0.19l-1.29-0.4l2.62-3.47l-3.62-2.87L168.68,178.3z"/>
			<polygon style="fill:#FFFFFF;stroke:#263238;stroke-linecap:round;stroke-linejoin:round;stroke-miterlimit:10;" points="
				172.57,171.59 166.73,175.81 165.01,181.23 167.75,177.62 170.74,178.9 173.16,174.31 			"/>
			<g>
				<path style="fill:#FFFFFF;stroke:#263238;stroke-linecap:round;stroke-linejoin:round;stroke-miterlimit:10;" d="M169.79,137.32
					c0,0-4.68,6.15-4.78,8.17c-0.1,2.02,0.27,3.5-0.02,4.66c-0.29,1.15-4.02,4.97-3.34,5.67c0.68,0.7,0.45,0.97,1.36,1.28
					c0.9,0.31-0.7,10.5,1.36,11.09c2.06,0.6,6.37-0.62,6.37-0.62l2.41,6.73l13.63-5.96c0,0-1.85-4.39-1.67-5.28s5.8-4.73,7.13-8.61
					c1.34-3.88,1.08-12.04-3.75-15.94S173.43,132.39,169.79,137.32z"/>
				<path style="fill:#263238;stroke:#263238;stroke-linecap:round;stroke-linejoin:round;stroke-miterlimit:10;" d="M178.14,163.98
					c0.24-1.78-0.25-11.31,0.88-13.03c1.12-1.72,4.67-3,4.91,0c0.23,3-4.2,5.86-4.2,5.86s4.63,6.18,5.39,6.25
					c0.18-0.89,5.8-4.73,7.13-8.61c1.34-3.88,1.08-12.04-3.75-15.94s-15.07-6.13-18.71-1.19c0,0-0.36,0.47-0.87,1.19l0.22,0.12
					c0,0,3.38-0.26,4.38,1.3c1,1.56,0.81,2.33-0.25,3.29c-1.06,0.96-2.21,2.31-1.24,3.49c0.97,1.18,3.77,3.23,3.81,3.73
					s-1.32,8.91-2.15,9.6c-0.83,0.69-2.17,1.18-4.02,0.06c-1.85-1.12-4.5-4.43-6.65-3.01c0.9,0.31-0.7,10.5,1.36,11.09
					c2.06,0.6,6.37-0.62,6.37-0.62S177.9,165.76,178.14,163.98z"/>
				<path style="fill:#263238;stroke:#263238;stroke-linecap:round;stroke-linejoin:round;stroke-miterlimit:10;" d="M189.71,139.55
					c0,0-0.26-1.74,2.07-2.55c2.33-0.81,5.12-0.52,6.4,3.03s-0.83,7.11-2.38,6.6c-1.55-0.51-3-4.67-3.75-6.13
					C191.31,139.05,189.71,139.55,189.71,139.55z"/>
				<path style="fill:none;stroke:#263238;stroke-linecap:round;stroke-linejoin:round;stroke-miterlimit:10;" d="M166.07,147.8
					c0,0,1.97-2.17,3.27,0"/>
				<path style="fill:#263238;" d="M167.67,150.64c0.05,0.59-0.14,1.08-0.42,1.1c-0.28,0.02-0.54-0.44-0.58-1.02
					c-0.05-0.59,0.14-1.08,0.42-1.1C167.37,149.59,167.63,150.05,167.67,150.64z"/>
			</g>
			<path style="fill:#025BA6;stroke:#263238;stroke-linecap:round;stroke-linejoin:round;stroke-miterlimit:10;" d="M186.98,165.94
				c-0.37,0.15-17.55,8.91-17.55,8.91l2.81,7.08l16.97-11.63L186.98,165.94z"/>
		</g>
	</g>
</g>
<g id="Floor">
</g>
</svg>
