<?xml version="1.0" encoding="utf-8"?>
<!-- Generator: Adobe Illustrator 26.2.1, SVG Export Plug-In . SVG Version: 6.00 Build 0)  -->
<svg version="1.1" id="Layer_1" xmlns="http://www.w3.org/2000/svg" xmlns:xlink="http://www.w3.org/1999/xlink" x="0px" y="0px"
	 viewBox="0 0 376.36 465.27" style="enable-background:new 0 0 376.36 465.27;" xml:space="preserve">
<g>
	<g>
		<g>
			
				<linearGradient id="SVGID_1_" gradientUnits="userSpaceOnUse" x1="491.3115" y1="236.1028" x2="634.5228" y2="236.1028" gradientTransform="matrix(-1 0 0 1 867.6725 0)">
				<stop  offset="0" style="stop-color:#301A61"/>
				<stop  offset="1" style="stop-color:#240973"/>
			</linearGradient>
			<path style="fill:url(#SVGID_1_);" d="M241.54,53.17l108.96-42.24v-4h12.43v0.02c7.08-0.17,13.44,5.48,13.44,13.12v432.04
				c0,7.65-6.36,13.3-13.44,13.12v0.02h-12.43v-4l-108.96-42.24c-5.06-1.96-8.39-6.82-8.39-12.25V65.42
				C233.15,60,236.48,55.13,241.54,53.17z"/>
			
				<radialGradient id="SVGID_00000029029551602386971580000016947219909956875951_" cx="431.4528" cy="-26.4468" r="464.5557" gradientTransform="matrix(-1 0 0 1 867.6725 0)" gradientUnits="userSpaceOnUse">
				<stop  offset="0" style="stop-color:#A5BDFA"/>
				<stop  offset="1" style="stop-color:#002BFF;stop-opacity:0"/>
			</radialGradient>
			<path style="fill:url(#SVGID_00000029029551602386971580000016947219909956875951_);" d="M241.54,53.17l108.96-42.24v-4h12.43
				v0.02c7.08-0.17,13.44,5.48,13.44,13.12v432.04c0,7.65-6.36,13.3-13.44,13.12v0.02h-12.43v-4l-108.96-42.24
				c-5.06-1.96-8.39-6.82-8.39-12.25V65.42C233.15,60,236.48,55.13,241.54,53.17z"/>
			
				<linearGradient id="SVGID_00000042706068762281194840000015695497992785986748_" gradientUnits="userSpaceOnUse" x1="519.4314" y1="138.8845" x2="663.3147" y2="446.7528" gradientTransform="matrix(-1 0 0 1 867.6725 0)">
				<stop  offset="0" style="stop-color:#7796FF"/>
				<stop  offset="1" style="stop-color:#415FC5"/>
			</linearGradient>
			<path style="fill:url(#SVGID_00000042706068762281194840000015695497992785986748_);" d="M228.99,419.03l116.94,45.34
				c8.61,3.34,17.88-3.01,17.88-12.25V20.08c0-9.23-9.27-15.58-17.88-12.25L228.99,53.17c-5.06,1.96-8.39,6.82-8.39,12.25v341.37
				C220.6,412.21,223.93,417.07,228.99,419.03z"/>
			
				<linearGradient id="SVGID_00000021798223644046802160000015098150400866001553_" gradientUnits="userSpaceOnUse" x1="218.0122" y1="82.7917" x2="449.9927" y2="497.7053">
				<stop  offset="0" style="stop-color:#FFE465"/>
				<stop  offset="0.1734" style="stop-color:#FFCE5E"/>
				<stop  offset="0.7359" style="stop-color:#FF8B47"/>
				<stop  offset="1" style="stop-color:#FF713E"/>
			</linearGradient>
			<path style="fill:url(#SVGID_00000021798223644046802160000015098150400866001553_);" d="M350.74,450.21
				c1.05-0.04,2.6-0.92,2.6-2.7V24.7c0-1.78-1.55-2.67-2.6-2.7c-0.32-0.01-0.63,0.04-0.96,0.16L232.8,63.44
				c-1.04,0.37-1.73,1.34-1.73,2.43v340.46c0,1.09,0.69,2.06,1.73,2.43l116.98,41.29C350.11,450.17,350.42,450.22,350.74,450.21z"/>
			
				<linearGradient id="SVGID_00000016048316087012199710000002490830909205442214_" gradientUnits="userSpaceOnUse" x1="514.3354" y1="169.0412" x2="636.5994" y2="169.0412" gradientTransform="matrix(-1 0 0 1 867.6725 0)">
				<stop  offset="0" style="stop-color:#FFDC6D"/>
				<stop  offset="0.4473" style="stop-color:#FFC273"/>
				<stop  offset="1" style="stop-color:#FF9C7C"/>
			</linearGradient>
			<path style="fill:url(#SVGID_00000016048316087012199710000002490830909205442214_);" d="M353.34,282.94V24.7
				c0-1.78-1.55-2.67-2.6-2.7c-0.32-0.01-0.63,0.04-0.96,0.16l-42.24,14.91c-31.22,41.2,27.32,95.78,22.71,160.04
				c-2.41,33.59-30.16,93.29-99.18,84.55v29.43C298.53,326.51,340.23,303.12,353.34,282.94z"/>
			<path style="opacity:0.56;fill:#FFFFFC;" d="M231.07,376.67v29.67c0,1.09,0.69,2.06,1.73,2.43l116.98,41.29
				c0.33,0.12,0.64,0.17,0.96,0.16c1.05-0.04,2.6-0.92,2.6-2.7v-55.15L231.07,376.67z"/>
			<g>
				<g>
					<defs>
						<path id="SVGID_00000049207014131456785660000006919919411041216433_" d="M228.99,419.03l116.94,45.34
							c8.61,3.34,17.88-3.01,17.88-12.25V20.08c0-9.23-9.27-15.58-17.88-12.25L228.99,53.17c-5.06,1.96-8.39,6.82-8.39,12.25v341.37
							C220.6,412.21,223.93,417.07,228.99,419.03z"/>
					</defs>
					<clipPath id="SVGID_00000103246348582013686610000009433599270084708246_">
						<use xlink:href="#SVGID_00000049207014131456785660000006919919411041216433_"  style="overflow:visible;"/>
					</clipPath>
					<g style="opacity:0.33;clip-path:url(#SVGID_00000103246348582013686610000009433599270084708246_);">
						<g>
							<path style="fill:#606060;" d="M198.24,188.64l125.93,3.9c8.45,0.26,15.81-8.16,15.81-18.14v-57.55
								c0-9.98-7.36-16.96-15.81-15.04l-125.93,28.56c-6.76,1.53-11.9,9.01-11.9,17.29v26.01
								C186.34,181.96,191.48,188.43,198.24,188.64z"/>
						</g>
					</g>
					
						<ellipse style="opacity:0.33;clip-path:url(#SVGID_00000103246348582013686610000009433599270084708246_);fill:#606060;" cx="271.74" cy="37.78" rx="23.2" ry="32.58"/>
					
						<ellipse style="opacity:0.33;clip-path:url(#SVGID_00000103246348582013686610000009433599270084708246_);fill:#606060;" cx="243.79" cy="304.11" rx="26.4" ry="33.41"/>
					
						<ellipse style="opacity:0.33;clip-path:url(#SVGID_00000103246348582013686610000009433599270084708246_);fill:#606060;" cx="326.98" cy="376.83" rx="21.8" ry="30.89"/>
					
						<ellipse style="opacity:0.33;clip-path:url(#SVGID_00000103246348582013686610000009433599270084708246_);fill:#606060;" cx="316.81" cy="255.51" rx="23.26" ry="36.22"/>
				</g>
			</g>
			
				<linearGradient id="SVGID_00000018238390609213780790000000283516934949379987_" gradientUnits="userSpaceOnUse" x1="274.351" y1="399.976" x2="281.6915" y2="415.6824">
				<stop  offset="0" style="stop-color:#4D70DC"/>
				<stop  offset="1" style="stop-color:#213E9F"/>
			</linearGradient>
			<path style="fill:url(#SVGID_00000018238390609213780790000000283516934949379987_);" d="M280.52,404.19
				c0,6.54-1.88,11.83-4.2,11.83c-2.32,0-4.2-5.3-4.2-11.83c0-6.54,1.88-11.83,4.2-11.83C278.64,392.36,280.52,397.66,280.52,404.19
				z"/>
		</g>
		<g>
			<g>
				
					<linearGradient id="SVGID_00000084525951830210068360000016600431429580576149_" gradientUnits="userSpaceOnUse" x1="537.4221" y1="123.3693" x2="722.7748" y2="123.3693" gradientTransform="matrix(-1 0 0 1 867.6725 0)">
					<stop  offset="0" style="stop-color:#301A61"/>
					<stop  offset="1" style="stop-color:#240973"/>
				</linearGradient>
				<path style="fill:url(#SVGID_00000084525951830210068360000016600431429580576149_);" d="M159.8,177.49l152.06,1.05
					c9.85,0.07,18.39-10.31,18.39-22.36V86.72c0-12.05-8.54-20.47-18.39-18.14L159.8,104.5c-8.46,2-14.9,11.45-14.9,21.86v32.7
					C144.9,169.45,151.34,177.43,159.8,177.49z"/>
			</g>
			<g>
				
					<radialGradient id="SVGID_00000132052289589740799760000017286210469441538199_" cx="517.2532" cy="34.6639" r="154.8185" gradientTransform="matrix(-1 0 0 1 867.6725 0)" gradientUnits="userSpaceOnUse">
					<stop  offset="0" style="stop-color:#A5BDFA"/>
					<stop  offset="1" style="stop-color:#002BFF;stop-opacity:0"/>
				</radialGradient>
				<path style="fill:url(#SVGID_00000132052289589740799760000017286210469441538199_);" d="M159.8,177.49l152.06,1.05
					c9.85,0.07,18.39-10.31,18.39-22.36V86.72c0-12.05-8.54-20.47-18.39-18.14L159.8,104.5c-8.46,2-14.9,11.45-14.9,21.86v32.7
					C144.9,169.45,151.34,177.43,159.8,177.49z"/>
			</g>
			<g>
				
					<radialGradient id="SVGID_00000177453752934134877660000001089017455158111873_" cx="572.9261" cy="90.9513" r="300.5063" gradientTransform="matrix(-1 0 0 1 867.6725 0)" gradientUnits="userSpaceOnUse">
					<stop  offset="0" style="stop-color:#FFFFFF"/>
					<stop  offset="0.2369" style="stop-color:#DEEDFF"/>
					<stop  offset="0.5724" style="stop-color:#B6D7FF"/>
					<stop  offset="0.8385" style="stop-color:#9DC9FF"/>
					<stop  offset="1" style="stop-color:#94C4FF"/>
				</radialGradient>
				<path style="fill:url(#SVGID_00000177453752934134877660000001089017455158111873_);" d="M151.89,177.45l151.95,1.05
					c9.84,0.07,18.38-10.31,18.38-22.35V86.72c0-12.04-8.54-20.46-18.38-18.13l-151.95,35.9c-8.45,2-14.89,11.45-14.89,21.85v32.68
					C137,169.42,143.44,177.39,151.89,177.45z"/>
			</g>
			<g>
				
					<linearGradient id="SVGID_00000168096974040096120990000001104917818160933274_" gradientUnits="userSpaceOnUse" x1="588.6248" y1="163.2013" x2="588.6248" y2="47.4012" gradientTransform="matrix(-0.9792 0.0963 0 1 861.5184 -37.9114)">
					<stop  offset="0" style="stop-color:#301A61"/>
					<stop  offset="1" style="stop-color:#240973"/>
				</linearGradient>
				<path style="fill:url(#SVGID_00000168096974040096120990000001104917818160933274_);" d="M282.65,103.93l-3.22,10.32
					c-0.3,0.95-0.89,1.66-1.57,1.89l-7.2,2.38c-1.63,0.54-2.28,3.61-1.09,5.14l5.22,6.73c0.49,0.63,0.71,1.62,0.59,2.61l-1.33,10.65
					c-0.31,2.45,1.44,4.2,2.93,2.92l6.56-5.67c0.62-0.54,1.37-0.6,2-0.16l6.83,4.79c1.61,1.13,3.53-0.96,3.19-3.49l-1.46-10.91
					c-0.14-1.01,0.11-2.09,0.65-2.86l5.87-8.45c1.38-1.98,0.62-5.1-1.25-5.19l-7.94-0.37c-0.72-0.03-1.35-0.59-1.66-1.48l-3.33-9.47
					C285.67,101.14,283.4,101.52,282.65,103.93z"/>
				<g>
					
						<linearGradient id="SVGID_00000114068076158413058690000012638341281568288660_" gradientUnits="userSpaceOnUse" x1="230.8695" y1="155.9146" x2="250.2495" y2="112.3096">
						<stop  offset="0" style="stop-color:#FF7E00"/>
						<stop  offset="1" style="stop-color:#FFE500"/>
					</linearGradient>
					<path style="fill:url(#SVGID_00000114068076158413058690000012638341281568288660_);" d="M234.44,150.37
						c-0.49,0-0.97-0.23-1.34-0.65c-0.63-0.71-0.93-1.85-0.79-3.05l1.08-9.6c0.08-0.75-0.06-1.5-0.38-1.95l-4.25-6.13
						c-0.74-1.06-0.72-2.62-0.37-3.69c0.31-0.95,0.86-1.61,1.55-1.85l5.86-2.06c0.36-0.13,0.71-0.63,0.9-1.28l2.62-9.25
						c0.39-1.37,1.29-2.25,2.29-2.25c0.87,0,1.59,0.65,1.93,1.73l2.69,8.56c0.17,0.54,0.49,0.91,0.81,0.93l6.4,0.43
						c0.71,0.05,1.32,0.5,1.71,1.26c0.65,1.27,0.55,3.09-0.24,4.33l-4.73,7.52c-0.36,0.57-0.53,1.4-0.43,2.17l1.18,9.81
						c0.15,1.26-0.19,2.53-0.9,3.33c-0.43,0.48-0.97,0.75-1.51,0.75l0,0c-0.4,0-0.79-0.14-1.14-0.42l-5.53-4.35
						c-0.12-0.09-0.23-0.14-0.35-0.14c-0.19,0-0.37,0.13-0.48,0.23l-5.33,5.07C235.32,150.18,234.89,150.37,234.44,150.37z"/>
					<path style="fill:#FFFFFF;" d="M241.61,109.21c0.55,0,1.07,0.42,1.35,1.31l2.69,8.56c0.25,0.8,0.76,1.31,1.34,1.35l6.4,0.43
						c1.51,0.1,2.12,2.91,1.01,4.67l-4.73,7.52c-0.43,0.69-0.63,1.66-0.52,2.57l1.18,9.81c0.22,1.83-0.74,3.4-1.81,3.4
						c-0.25,0-0.51-0.09-0.77-0.29l-5.53-4.35c-0.23-0.18-0.48-0.27-0.73-0.27c-0.31,0-0.62,0.13-0.89,0.4l-5.33,5.07
						c-0.28,0.27-0.57,0.38-0.85,0.38c-0.93,0-1.73-1.33-1.54-3.03l1.08-9.6c0.1-0.9-0.08-1.79-0.48-2.36l-4.25-6.13
						c-0.97-1.4-0.44-4.16,0.89-4.63l5.86-2.06c0.55-0.19,1.04-0.83,1.28-1.68l2.62-9.25C240.24,109.83,240.94,109.21,241.61,109.21
						 M241.61,108c-1.28,0-2.41,1.06-2.87,2.69l-2.62,9.25c-0.18,0.62-0.46,0.85-0.52,0.87l-5.86,2.06
						c-0.88,0.31-1.56,1.1-1.93,2.24c-0.48,1.48-0.3,3.14,0.45,4.22l4.25,6.13c0.19,0.28,0.35,0.86,0.27,1.54l-1.08,9.6
						c-0.15,1.37,0.2,2.69,0.94,3.52c0.49,0.55,1.13,0.86,1.79,0.86c0.42,0,1.06-0.12,1.68-0.72l5.33-5.07
						c0.02-0.02,0.04-0.03,0.05-0.04l5.51,4.34c0.45,0.36,0.98,0.55,1.51,0.55c0.72,0,1.42-0.34,1.96-0.96
						c0.83-0.93,1.22-2.35,1.04-3.8l-1.18-9.81c-0.08-0.63,0.06-1.33,0.34-1.78l4.73-7.52c0.9-1.43,1.01-3.46,0.26-4.93
						c-0.48-0.95-1.29-1.53-2.21-1.59l-6.4-0.43c0-0.01-0.16-0.15-0.27-0.51l-2.69-8.56C243.69,108.8,242.75,108,241.61,108
						L241.61,108z"/>
				</g>
				<g>
					
						<linearGradient id="SVGID_00000066506199845886821100000003278425566585027762_" gradientUnits="userSpaceOnUse" x1="198.532" y1="150.593" x2="218.8029" y2="114.5107">
						<stop  offset="0" style="stop-color:#FF7E00"/>
						<stop  offset="1" style="stop-color:#FFE500"/>
					</linearGradient>
					<path style="fill:url(#SVGID_00000066506199845886821100000003278425566585027762_);" d="M200.35,152.65
						c-0.42,0-0.81-0.19-1.14-0.55c-0.58-0.65-0.86-1.73-0.74-2.89l0.9-8.74c0.07-0.68-0.05-1.36-0.31-1.77l-3.53-5.62
						c-0.65-1.04-0.6-2.52-0.26-3.53c0.27-0.8,0.73-1.35,1.3-1.57l4.87-1.81c0.21-0.08,0.52-0.46,0.69-1.1l2.17-8.39
						c0.33-1.28,1.09-2.08,1.99-2.08c0.78,0,1.42,0.61,1.71,1.64l2.23,7.82c0.15,0.53,0.41,0.79,0.58,0.81l5.27,0.46
						c0.59,0.05,1.09,0.43,1.43,1.07c0.6,1.15,0.54,2.9-0.13,4.07l-3.89,6.78c-0.29,0.51-0.43,1.26-0.35,1.96l0.97,8.91
						c0.13,1.21-0.19,2.41-0.83,3.13c-0.36,0.41-0.8,0.62-1.25,0.62l0,0c-0.37,0-0.72-0.14-1.03-0.41l-4.56-3.99
						c-0.08-0.07-0.15-0.1-0.21-0.1c-0.09,0-0.19,0.06-0.3,0.17l-4.42,4.58C201.06,152.56,200.63,152.65,200.35,152.65z"/>
					<path style="fill:#FFFFFF;" d="M206.27,115.2c0.46,0,0.9,0.39,1.13,1.21l2.23,7.82c0.21,0.73,0.63,1.2,1.11,1.24l5.27,0.46
						c1.24,0.11,1.74,2.66,0.83,4.25l-3.89,6.78c-0.36,0.62-0.52,1.5-0.43,2.32l0.97,8.91c0.18,1.66-0.61,3.08-1.48,3.08
						c-0.21,0-0.43-0.08-0.64-0.27l-4.56-3.99c-0.19-0.17-0.4-0.25-0.61-0.25c-0.25,0-0.51,0.12-0.73,0.36l-4.41,4.58
						c-0.23,0.24-0.47,0.35-0.7,0.35c-0.77,0-1.44-1.22-1.28-2.77l0.9-8.74c0.08-0.82-0.07-1.63-0.4-2.16l-3.54-5.62
						c-0.81-1.28-0.37-3.8,0.74-4.21l4.87-1.81c0.46-0.17,0.86-0.74,1.06-1.52l2.17-8.39C205.14,115.77,205.72,115.2,206.27,115.2
						 M206.27,114c-0.93,0-2.09,0.66-2.57,2.53l-2.17,8.39c-0.12,0.47-0.31,0.68-0.35,0.71l-4.83,1.79
						c-0.74,0.28-1.33,0.96-1.66,1.94c-0.39,1.14-0.44,2.84,0.32,4.05l3.54,5.62c0.16,0.25,0.28,0.77,0.22,1.39l-0.9,8.74
						c-0.14,1.33,0.2,2.58,0.89,3.35c0.44,0.48,1,0.75,1.59,0.75c0.4,0,1-0.12,1.57-0.72l4.28-4.45l4.37,3.82
						c0.42,0.37,0.92,0.56,1.43,0.56c0.62,0,1.23-0.29,1.7-0.82c0.75-0.84,1.13-2.22,0.98-3.6l-0.97-8.91
						c-0.06-0.57,0.05-1.19,0.28-1.59l3.89-6.78c0.78-1.36,0.84-3.31,0.14-4.65c-0.43-0.83-1.11-1.33-1.91-1.4l-5.16-0.45
						c-0.04-0.06-0.11-0.18-0.17-0.38l-2.23-7.82C208.19,114.77,207.33,114,206.27,114L206.27,114z"/>
				</g>
				<g>
					
						<linearGradient id="SVGID_00000079485051113664685600000016733131425792197506_" gradientUnits="userSpaceOnUse" x1="168.6357" y1="156.6129" x2="190.5853" y2="111.4943">
						<stop  offset="0" style="stop-color:#FF7E00"/>
						<stop  offset="1" style="stop-color:#FFE500"/>
					</linearGradient>
					<path style="fill:url(#SVGID_00000079485051113664685600000016733131425792197506_);" d="M171.83,154.56
						c-0.37,0-0.71-0.17-0.99-0.48c-0.53-0.58-0.8-1.63-0.69-2.74l0.76-8.02c0.06-0.62-0.04-1.25-0.26-1.63l-2.98-5.2
						c-0.58-1.02-0.5-2.47-0.18-3.38c0.24-0.69,0.62-1.15,1.11-1.34l4.11-1.61c0.13-0.05,0.38-0.35,0.53-0.96l1.82-7.67
						c0.28-1.19,0.96-1.94,1.76-1.94c0.71,0,1.29,0.59,1.54,1.57l1.87,7.19c0.13,0.52,0.35,0.7,0.41,0.7l4.42,0.48
						c0.5,0.05,0.93,0.38,1.22,0.93c0.56,1.06,0.54,2.72-0.06,3.84l-3.26,6.17c-0.24,0.46-0.36,1.14-0.29,1.78l0.81,8.17
						c0.12,1.17-0.18,2.3-0.77,2.95c-0.31,0.34-0.68,0.52-1.07,0.52l0,0c-0.24,0-0.6-0.07-0.96-0.41l-3.83-3.68
						c-0.05-0.05-0.09-0.06-0.1-0.06c-0.01,0-0.07,0.02-0.16,0.12l-3.72,4.18C172.49,154.47,172.1,154.56,171.83,154.56z"/>
					<path style="fill:#FFFFFF;" d="M176.81,120.2c0.39,0,0.76,0.36,0.96,1.12l1.87,7.19c0.17,0.67,0.52,1.11,0.93,1.15l4.42,0.48
						c1.04,0.11,1.45,2.45,0.69,3.89l-3.26,6.17c-0.3,0.57-0.44,1.37-0.36,2.12l0.81,8.16c0.15,1.52-0.51,2.81-1.24,2.81
						c-0.18,0-0.36-0.08-0.54-0.25l-3.83-3.68c-0.16-0.15-0.34-0.23-0.51-0.23c-0.21,0-0.42,0.11-0.61,0.32l-3.72,4.18
						c-0.19,0.22-0.39,0.31-0.59,0.31c-0.65,0-1.22-1.13-1.08-2.55l0.76-8.02c0.07-0.75-0.06-1.5-0.34-1.98l-2.98-5.2
						c-0.68-1.19-0.31-3.49,0.62-3.86l4.11-1.61c0.39-0.15,0.72-0.67,0.89-1.38l1.82-7.67C175.87,120.71,176.35,120.2,176.81,120.2
						 M176.81,119c-0.86,0-1.92,0.63-2.34,2.4l-1.82,7.67c-0.08,0.32-0.18,0.5-0.23,0.57l-4.03,1.59c-0.65,0.26-1.15,0.84-1.46,1.7
						c-0.38,1.08-0.46,2.7,0.23,3.88l2.98,5.2c0.13,0.22,0.23,0.7,0.18,1.27l-0.76,8.02c-0.12,1.29,0.19,2.48,0.85,3.2
						c0.4,0.44,0.91,0.67,1.44,0.67c0.39,0,0.96-0.12,1.49-0.72l3.44-3.87l3.49,3.35c0.5,0.48,1.02,0.58,1.37,0.58
						c0.56,0,1.1-0.26,1.52-0.72c0.7-0.77,1.05-2.08,0.92-3.41l-0.81-8.16c-0.05-0.52,0.04-1.08,0.23-1.44l3.26-6.17
						c0.68-1.29,0.71-3.18,0.06-4.41c-0.39-0.73-0.98-1.17-1.68-1.25l-4.21-0.46c-0.03-0.06-0.07-0.15-0.1-0.28l-1.87-7.19
						C178.45,119.14,177.18,119,176.81,119L176.81,119z"/>
				</g>
				<g>
					
						<linearGradient id="SVGID_00000175307224840638030510000014621091074153310612_" gradientUnits="userSpaceOnUse" x1="146.9551" y1="153.5937" x2="163.4267" y2="116.2579">
						<stop  offset="0" style="stop-color:#FF7E00"/>
						<stop  offset="1" style="stop-color:#FFE500"/>
					</linearGradient>
					<path style="fill:url(#SVGID_00000175307224840638030510000014621091074153310612_);" d="M147.63,156.18
						c-0.23,0-0.56-0.07-0.88-0.42c-0.49-0.54-0.74-1.53-0.65-2.6l0.65-7.41c0.05-0.57-0.03-1.15-0.22-1.5l-2.55-4.83
						c-0.5-0.95-0.44-2.35-0.12-3.24c0.21-0.59,0.54-1,0.96-1.17l3.51-1.45c0.08-0.03,0.28-0.29,0.4-0.84l1.56-7.06
						c0.25-1.14,0.84-1.82,1.58-1.82c0.25,0,1.08,0.11,1.41,1.51l1.59,6.65c0.11,0.44,0.27,0.6,0.3,0.62l3.73,0.48
						c0.3,0.04,0.73,0.21,1.06,0.82c0.52,0.97,0.52,2.57,0,3.64l-2.77,5.66c-0.21,0.42-0.3,1.05-0.25,1.64l0.69,7.53
						c0.1,1.11-0.18,2.2-0.71,2.79c-0.34,0.38-0.7,0.46-0.94,0.46l0,0c-0.23,0-0.57-0.07-0.9-0.42l-3.26-3.42
						c0.01-0.01,0.01-0.02,0.01-0.02c-0.01,0-0.03,0.02-0.07,0.06l-3.17,3.84C148.25,156.09,147.88,156.18,147.63,156.18z"/>
					<path style="fill:#FFFFFF;" d="M151.87,124.44c0.33,0,0.66,0.34,0.82,1.05l1.59,6.66c0.15,0.62,0.45,1.03,0.79,1.07l3.76,0.49
						c0.88,0.11,1.24,2.27,0.59,3.59l-2.77,5.66c-0.26,0.52-0.37,1.26-0.31,1.96l0.69,7.53c0.13,1.4-0.43,2.58-1.05,2.58
						c-0.15,0-0.31-0.07-0.46-0.23l-3.26-3.42c-0.14-0.14-0.29-0.22-0.44-0.22c-0.18,0-0.36,0.1-0.52,0.29l-3.17,3.84
						c-0.16,0.2-0.33,0.29-0.5,0.29c-0.56,0-1.04-1.05-0.93-2.37l0.65-7.41c0.06-0.69-0.05-1.38-0.29-1.84l-2.55-4.83
						c-0.58-1.1-0.26-3.24,0.53-3.57l3.51-1.45c0.33-0.14,0.62-0.61,0.76-1.27l1.56-7.06C151.07,124.9,151.48,124.44,151.87,124.44
						 M151.87,123.23c-0.8,0-1.8,0.6-2.17,2.29l-1.56,7.06c-0.05,0.24-0.12,0.39-0.16,0.46l-3.39,1.4c-0.4,0.17-0.95,0.56-1.29,1.52
						c-0.36,0.98-0.46,2.57,0.15,3.73l2.55,4.83c0.11,0.2,0.2,0.65,0.15,1.17l-0.65,7.41c-0.11,1.25,0.19,2.39,0.8,3.06
						c0.36,0.4,0.84,0.62,1.33,0.62c0.53,0,1.04-0.26,1.43-0.73l2.79-3.37l2.8,2.94c0.48,0.5,0.99,0.6,1.33,0.6
						c0.51,0,1-0.23,1.39-0.65c0.65-0.72,0.99-1.96,0.87-3.25l-0.69-7.53c-0.04-0.48,0.03-0.99,0.19-1.31l2.77-5.66
						c0.61-1.25,0.61-3.05-0.01-4.19c-0.35-0.65-0.89-1.05-1.51-1.13l-3.47-0.45c-0.02-0.05-0.04-0.11-0.06-0.19l-1.59-6.66
						C153.43,123.37,152.22,123.23,151.87,123.23L151.87,123.23z"/>
				</g>
			</g>
		</g>
		<g>
			
				<linearGradient id="SVGID_00000000218770959271133460000013475455895951121592_" gradientUnits="userSpaceOnUse" x1="279.3933" y1="246.1573" x2="325.9104" y2="246.1573">
				<stop  offset="0" style="stop-color:#301A61"/>
				<stop  offset="1" style="stop-color:#240973"/>
			</linearGradient>
			
				<ellipse style="fill:url(#SVGID_00000000218770959271133460000013475455895951121592_);" cx="302.65" cy="246.16" rx="23.26" ry="36.22"/>
			
				<linearGradient id="SVGID_00000061432189681579712630000016571796495248940683_" gradientUnits="userSpaceOnUse" x1="299.0554" y1="246.1573" x2="302.6518" y2="246.1573">
				<stop  offset="0" style="stop-color:#301A61"/>
				<stop  offset="1" style="stop-color:#240973"/>
			</linearGradient>
			
				<rect x="299.06" y="209.93" style="fill:url(#SVGID_00000061432189681579712630000016571796495248940683_);" width="3.6" height="72.45"/>
			
				<radialGradient id="SVGID_00000114036869335960533960000003006104865020542124_" cx="297.7047" cy="246.1573" r="30.4398" gradientUnits="userSpaceOnUse">
				<stop  offset="0" style="stop-color:#FFFFFF"/>
				<stop  offset="0.2369" style="stop-color:#DEEDFF"/>
				<stop  offset="0.5724" style="stop-color:#B6D7FF"/>
				<stop  offset="0.8385" style="stop-color:#9DC9FF"/>
				<stop  offset="1" style="stop-color:#94C4FF"/>
			</radialGradient>
			
				<ellipse style="fill:url(#SVGID_00000114036869335960533960000003006104865020542124_);" cx="297.7" cy="246.16" rx="23.26" ry="36.22"/>
			
				<linearGradient id="SVGID_00000019644298133200734800000016882435344112358029_" gradientUnits="userSpaceOnUse" x1="272.9151" y1="201.054" x2="311.6609" y2="271.5499">
				<stop  offset="0" style="stop-color:#7796FF"/>
				<stop  offset="1" style="stop-color:#415FC5"/>
			</linearGradient>
			
				<ellipse style="fill:url(#SVGID_00000019644298133200734800000016882435344112358029_);" cx="297.7" cy="246.16" rx="21.68" ry="33.76"/>
			<g>
				<defs>
					<ellipse id="SVGID_00000160156259181673758760000001522253554095929753_" cx="297.7" cy="246.16" rx="21.68" ry="33.76"/>
				</defs>
				<clipPath id="SVGID_00000112628586655857072680000013967735427179175323_">
					<use xlink:href="#SVGID_00000160156259181673758760000001522253554095929753_"  style="overflow:visible;"/>
				</clipPath>
				<g style="clip-path:url(#SVGID_00000112628586655857072680000013967735427179175323_);">
					<path style="fill:#FFFFFF;" d="M305.84,234.27c0,7-3.64,12.68-8.14,12.68s-8.14-5.68-8.14-12.68c0-7,3.64-12.68,8.14-12.68
						S305.84,227.26,305.84,234.27z"/>
					<path style="fill:#FFFFFF;" d="M311.06,279.92h-26.71v-15.16c0-7.38,5.98-13.35,13.35-13.35l0,0c7.38,0,13.35,5.98,13.35,13.35
						V279.92z"/>
				</g>
			</g>
		</g>
		<g>
			<g>
				
					<linearGradient id="SVGID_00000109026152203333546240000006512193025394367932_" gradientUnits="userSpaceOnUse" x1="231.4601" y1="296.1932" x2="237.2389" y2="296.1932">
					<stop  offset="0" style="stop-color:#301A61"/>
					<stop  offset="1" style="stop-color:#240973"/>
				</linearGradient>
				
					<rect x="231.46" y="263.12" style="fill:url(#SVGID_00000109026152203333546240000006512193025394367932_);" width="5.78" height="66.14"/>
				
					<linearGradient id="SVGID_00000124857120892875984620000008918728474662033854_" gradientUnits="userSpaceOnUse" x1="212.999" y1="296.1949" x2="260.3169" y2="296.1949">
					<stop  offset="0" style="stop-color:#301A61"/>
					<stop  offset="1" style="stop-color:#240973"/>
				</linearGradient>
				
					<ellipse style="fill:url(#SVGID_00000124857120892875984620000008918728474662033854_);" cx="236.66" cy="296.2" rx="23.66" ry="33.07"/>
				
					<linearGradient id="SVGID_00000160162032115908264210000010275949781086238132_" gradientUnits="userSpaceOnUse" x1="207.8767" y1="296.1949" x2="255.1946" y2="296.1949">
					<stop  offset="0" style="stop-color:#7796FF"/>
					<stop  offset="1" style="stop-color:#415FC5"/>
				</linearGradient>
				
					<ellipse style="fill:url(#SVGID_00000160162032115908264210000010275949781086238132_);" cx="231.54" cy="296.2" rx="23.66" ry="33.07"/>
				
					<radialGradient id="SVGID_00000026876813847587942800000018131816788447607200_" cx="89.7764" cy="247.0614" r="97.1739" gradientTransform="matrix(0.7154 0 0 1 146.9256 0)" gradientUnits="userSpaceOnUse">
					<stop  offset="0" style="stop-color:#FFFFFF"/>
					<stop  offset="0.2369" style="stop-color:#DEEDFF"/>
					<stop  offset="0.5724" style="stop-color:#B6D7FF"/>
					<stop  offset="0.8385" style="stop-color:#9DC9FF"/>
					<stop  offset="1" style="stop-color:#94C4FF"/>
				</radialGradient>
				
					<ellipse style="fill:url(#SVGID_00000026876813847587942800000018131816788447607200_);" cx="231.54" cy="296.2" rx="21.69" ry="30.32"/>
			</g>
			<g>
				<path style="fill:#FFFFFC;" d="M239.4,311.09h-12.38v-24h14.76c2.9,0,4.89,3.53,4.46,7.89l-0.82,8.22
					C244.99,307.56,242.29,311.09,239.4,311.09z"/>
				<path style="fill:#FFFFFC;" d="M227.02,287.09l1.74-5.13v-3.93c0-1.48,1.05-2.54,2.05-2.04c1.16,0.58,2.39,1.95,2.39,5.15
					c0,6.08,2.7,6.69,2.7,6.69L227.02,287.09z"/>
				
					<linearGradient id="SVGID_00000138542497500519707780000013017694592515248031_" gradientUnits="userSpaceOnUse" x1="213.8888" y1="299.0926" x2="225.1944" y2="299.0926">
					<stop  offset="0" style="stop-color:#7796FF"/>
					<stop  offset="1" style="stop-color:#415FC5"/>
				</linearGradient>
				
					<rect x="213.89" y="287.09" style="fill:url(#SVGID_00000138542497500519707780000013017694592515248031_);" width="11.31" height="24"/>
				<ellipse style="fill:#FFFFFF;" cx="221.38" cy="306.1" rx="2.13" ry="2.98"/>
				<path style="fill:#FFFFFC;" d="M247.49,293.71h-5.08c-0.94,0-1.7-0.76-1.7-1.7v-3.22c0-0.94,0.76-1.7,1.7-1.7h5.08
					c0.94,0,1.7,0.76,1.7,1.7v3.22C249.18,292.95,248.42,293.71,247.49,293.71z"/>
				<path style="fill:#FFFFFC;" d="M246.29,299.5h-5.08c-0.94,0-1.7-0.76-1.7-1.7v-3.22c0-0.94,0.76-1.7,1.7-1.7h5.08
					c0.94,0,1.7,0.76,1.7,1.7v3.22C247.99,298.74,247.23,299.5,246.29,299.5z"/>
				<path style="fill:#FFFFFC;" d="M245.1,305.3h-5.08c-0.94,0-1.7-0.76-1.7-1.7v-3.22c0-0.94,0.76-1.7,1.7-1.7h5.08
					c0.94,0,1.7,0.76,1.7,1.7v3.22C246.8,304.54,246.04,305.3,245.1,305.3z"/>
				<path style="fill:#FFFFFC;" d="M243.91,311.09h-5.08c-0.94,0-1.7-0.76-1.7-1.7v-3.22c0-0.94,0.76-1.7,1.7-1.7h5.08
					c0.94,0,1.7,0.76,1.7,1.7v3.22C245.61,310.33,244.85,311.09,243.91,311.09z"/>
			</g>
		</g>
		<g>
			
				<linearGradient id="SVGID_00000157287647043987030290000007570741022222865797_" gradientUnits="userSpaceOnUse" x1="174.1443" y1="368.5388" x2="238.2988" y2="368.5388" gradientTransform="matrix(0.65 0 0 1 185.3383 0)">
				<stop  offset="0" style="stop-color:#301A61"/>
				<stop  offset="1" style="stop-color:#240973"/>
			</linearGradient>
			
				<ellipse style="fill:url(#SVGID_00000157287647043987030290000007570741022222865797_);" cx="319.38" cy="368.54" rx="20.85" ry="29.54"/>
			
				<linearGradient id="SVGID_00000057120029826546469810000014421248443004359296_" gradientUnits="userSpaceOnUse" x1="314.0105" y1="368.5264" x2="319.6136" y2="368.5264">
				<stop  offset="0" style="stop-color:#301A61"/>
				<stop  offset="1" style="stop-color:#240973"/>
			</linearGradient>
			
				<rect x="314.01" y="339" style="fill:url(#SVGID_00000057120029826546469810000014421248443004359296_);" width="5.6" height="59.06"/>
			
				<radialGradient id="SVGID_00000183931893931286402650000012468820299422401943_" cx="221.1352" cy="368.5388" r="29.5408" gradientTransform="matrix(0.7058 0 0 1 157.9333 0)" gradientUnits="userSpaceOnUse">
				<stop  offset="0" style="stop-color:#FFFFFF"/>
				<stop  offset="0.2369" style="stop-color:#DEEDFF"/>
				<stop  offset="0.5724" style="stop-color:#B6D7FF"/>
				<stop  offset="0.8385" style="stop-color:#9DC9FF"/>
				<stop  offset="1" style="stop-color:#94C4FF"/>
			</radialGradient>
			
				<ellipse style="fill:url(#SVGID_00000183931893931286402650000012468820299422401943_);" cx="314.01" cy="368.54" rx="20.85" ry="29.54"/>
			
				<linearGradient id="SVGID_00000082336507039802279800000009875466489469616304_" gradientUnits="userSpaceOnUse" x1="293.563" y1="331.3357" x2="325.5222" y2="389.4837">
				<stop  offset="0" style="stop-color:#7796FF"/>
				<stop  offset="1" style="stop-color:#415FC5"/>
			</linearGradient>
			
				<ellipse style="fill:url(#SVGID_00000082336507039802279800000009875466489469616304_);" cx="314.01" cy="368.54" rx="19.43" ry="27.53"/>
			<path style="fill:#FDFDFD;" d="M320.51,352.8c-2.42,0-5.03,1.79-6.5,4.88c-1.47-3.09-4.08-4.88-6.5-4.88
				c-4.33,0-7.94,4.45-7.36,12.03c0.94,12.34,13.19,23.9,13.86,24.53c0.67-0.63,12.92-12.19,13.86-24.53
				C328.45,357.26,324.84,352.8,320.51,352.8z"/>
		</g>
		<g>
			
				<linearGradient id="SVGID_00000083050525459870232560000011656367171606686884_" gradientUnits="userSpaceOnUse" x1="239.5936" y1="32.576" x2="285.9872" y2="32.576">
				<stop  offset="0" style="stop-color:#301A61"/>
				<stop  offset="1" style="stop-color:#240973"/>
			</linearGradient>
			
				<ellipse style="fill:url(#SVGID_00000083050525459870232560000011656367171606686884_);" cx="262.79" cy="32.58" rx="23.2" ry="32.58"/>
			
				<linearGradient id="SVGID_00000054258465213815484350000002741496688628711834_" gradientUnits="userSpaceOnUse" x1="257.8433" y1="32.5518" x2="263.4275" y2="32.5518">
				<stop  offset="0" style="stop-color:#301A61"/>
				<stop  offset="1" style="stop-color:#240973"/>
			</linearGradient>
			
				<rect x="257.84" y="0" style="fill:url(#SVGID_00000054258465213815484350000002741496688628711834_);" width="5.58" height="65.1"/>
			
				<linearGradient id="SVGID_00000042695171645369963200000008148480004346865302_" gradientUnits="userSpaceOnUse" x1="234.6464" y1="32.576" x2="281.04" y2="32.576">
				<stop  offset="0" style="stop-color:#7796FF"/>
				<stop  offset="1" style="stop-color:#415FC5"/>
			</linearGradient>
			
				<ellipse style="fill:url(#SVGID_00000042695171645369963200000008148480004346865302_);" cx="257.84" cy="32.58" rx="23.2" ry="32.58"/>
			
				<radialGradient id="SVGID_00000176017533202948531490000013608041611438261658_" cx="96.5397" cy="-36.5933" r="100.1578" gradientTransform="matrix(0.6404 0 0 0.8993 170.3224 31.4082)" gradientUnits="userSpaceOnUse">
				<stop  offset="0" style="stop-color:#FFFFFF"/>
				<stop  offset="0.2369" style="stop-color:#DEEDFF"/>
				<stop  offset="0.5724" style="stop-color:#B6D7FF"/>
				<stop  offset="0.8385" style="stop-color:#9DC9FF"/>
				<stop  offset="1" style="stop-color:#94C4FF"/>
			</radialGradient>
			
				<ellipse style="fill:url(#SVGID_00000176017533202948531490000013608041611438261658_);" cx="257.84" cy="32.58" rx="21.26" ry="29.85"/>
			<g>
				<polygon style="fill:#FFFFFC;" points="269.02,21.77 246.67,21.77 257.84,28.09 				"/>
				
					<linearGradient id="SVGID_00000093163067908171244360000010267568977982873768_" gradientUnits="userSpaceOnUse" x1="243.9434" y1="33.5749" x2="271.7432" y2="33.5749">
					<stop  offset="0" style="stop-color:#7796FF"/>
					<stop  offset="1" style="stop-color:#415FC5"/>
				</linearGradient>
				<path style="fill:url(#SVGID_00000093163067908171244360000010267568977982873768_);" d="M258.04,30.77
					c-0.06,0.04-0.13,0.05-0.2,0.05c-0.07,0-0.13-0.02-0.2-0.05l-13.7-7.75v18.62c0,1.37,0.79,2.48,1.76,2.48h24.27
					c0.97,0,1.76-1.11,1.76-2.48V23.02L258.04,30.77z"/>
			</g>
		</g>
	</g>
	<g>
		<g>
			<g>
				
					<rect x="152.36" y="168.18" transform="matrix(-0.866 0.5 -0.5 -0.866 398.0407 241.6338)" style="fill:#FFB9A1;" width="28.58" height="11.94"/>
				<path style="fill:#FFB9A1;" d="M184.25,172.83c-5.57,2.5-8.51,0.34-9.35-0.51c-4.03-4.13-3.97-9.81,1.44-14.23
					c1.51-1.24,2.86-2.62,8.84-6.49c3.85-2.5,10.81,10.38,10.81,10.38c0.65,0.86-0.32,2.42-3.39,5.18
					C189.54,169.91,184.25,172.83,184.25,172.83z"/>
				<g>
					<path style="fill:#FFB9A1;" d="M181.51,154.35c-3.38,0.41-4.13,2.73-3.14,5.69c0.02,0.06,0.48,1.33,0.49,1.35
						c1.13,3.73-4.53,4.95-5.04,1.09c0,0-0.14-1.76-0.14-1.76c-0.36-4.95,2.66-9.25,8-8.34
						C182.89,152.6,182.72,154.34,181.51,154.35L181.51,154.35z"/>
				</g>
				<g>
					<path style="fill:#FFB9A1;" d="M181.93,153.57c2.01-1.32,4.91-3.05,6.98-4.31c2.34-1.39,4.68-2.76,7.04-4.11
						c0.57-0.32,1.29-0.13,1.61,0.44c0.31,0.54,0.14,1.22-0.36,1.57c-2.24,1.51-4.47,3.04-6.68,4.59c-1.93,1.36-4.71,3.32-6.55,4.73
						C182.02,157.89,179.93,154.94,181.93,153.57L181.93,153.57z"/>
				</g>
				<path style="fill:#FFB9A1;" d="M187.02,155.47c0,1.69,1.37,3.06,3.06,3.06c1.69,0,3.06-1.37,3.06-3.06
					c0-1.69-1.37-3.06-3.06-3.06C188.39,152.41,187.02,153.78,187.02,155.47z"/>
				<path style="fill:#FFB9A1;" d="M188.79,158.81c0,1.69,1.37,3.06,3.06,3.06c1.69,0,3.06-1.37,3.06-3.06s-1.37-3.06-3.06-3.06
					C190.16,155.75,188.79,157.12,188.79,158.81z"/>
				<path style="fill:#FFB9A1;" d="M190.45,162.59c0,1.69,1.37,3.06,3.06,3.06s3.06-1.37,3.06-3.06c0-1.69-1.37-3.06-3.06-3.06
					S190.45,160.9,190.45,162.59z"/>
			</g>
			
				<linearGradient id="SVGID_00000129914637866604570480000010522306039102757049_" gradientUnits="userSpaceOnUse" x1="689.8221" y1="173.3199" x2="773.9705" y2="173.3199" gradientTransform="matrix(-1 0 0 1 867.6725 0)">
				<stop  offset="0" style="stop-color:#7796FF"/>
				<stop  offset="1" style="stop-color:#415FC5"/>
			</linearGradient>
			<path style="fill:url(#SVGID_00000129914637866604570480000010522306039102757049_);" d="M112.37,138.57l22.53,42.43l35.74-18.36
				l7.21,14.31c0,0-34.47,31.12-43.12,31.12S93.7,174.03,93.7,174.03L112.37,138.57z"/>
			
				<linearGradient id="SVGID_00000080173534725106826280000016815458077491315622_" gradientUnits="userSpaceOnUse" x1="689.822" y1="173.4864" x2="773.9705" y2="173.4864" gradientTransform="matrix(-1 0 0 1 867.6725 0)">
				<stop  offset="0" style="stop-color:#4D70DC"/>
				<stop  offset="1" style="stop-color:#213E9F"/>
			</linearGradient>
			<path style="fill:url(#SVGID_00000080173534725106826280000016815458077491315622_);" d="M109.73,143.59
				c4.87,20.04,10.13,39.98,15.8,59.8c-12.78-9.32-31.83-29.35-31.83-29.35L109.73,143.59z"/>
		</g>
		<g>
			<path style="fill:#FFBE97;" d="M97.31,414.26c0.45,5.96,0.89,11.92,1.33,17.87c3.78-0.04,7.55-0.09,11.33-0.13
				c-0.12-6.22-0.24-12.44-0.36-18.66C105.52,413.64,101.42,413.95,97.31,414.26z"/>
			
				<linearGradient id="SVGID_00000060733579271949194540000007346063657278269344_" gradientUnits="userSpaceOnUse" x1="814.8792" y1="381.2518" x2="717.1418" y2="214.0124" gradientTransform="matrix(-1 0 0 1 867.6725 0)">
				<stop  offset="0" style="stop-color:#FF9724"/>
				<stop  offset="1" style="stop-color:#FFDB49"/>
			</linearGradient>
			<path style="fill:url(#SVGID_00000060733579271949194540000007346063657278269344_);" d="M52.06,229.77
				c7.31,14.01,30.11,105.46,30.11,105.46s10.38,73.36,14.41,97.95c5.03,0.11,10.61-0.96,15.7-0.98
				c3.6-29.99,0.44-107.18,0.1-114.32c-0.74-15.48-6.92-81.04-6.92-81.04S66.65,228.78,52.06,229.77z"/>
			
				<linearGradient id="SVGID_00000033370397209721125760000003326600399797463202_" gradientUnits="userSpaceOnUse" x1="814.8792" y1="381.2518" x2="717.1418" y2="214.0124" gradientTransform="matrix(-1 0 0 1 867.6725 0)">
				<stop  offset="0" style="stop-color:#F3841F"/>
				<stop  offset="1" style="stop-color:#EBC140"/>
			</linearGradient>
			<path style="fill:url(#SVGID_00000033370397209721125760000003326600399797463202_);" d="M52.06,229.77
				c7.31,14.01,30.11,105.46,30.11,105.46s10.38,73.36,14.41,97.95c5.03,0.11,10.61-0.96,15.7-0.98
				c3.6-29.99,0.44-107.18,0.1-114.32c-0.74-15.48-6.92-81.04-6.92-81.04S66.65,228.78,52.06,229.77z"/>
			
				<linearGradient id="SVGID_00000050648287909507813030000004283758091341078679_" gradientUnits="userSpaceOnUse" x1="836.6216" y1="368.5453" x2="738.8846" y2="201.3065" gradientTransform="matrix(-1 0 0 1 867.6725 0)">
				<stop  offset="0" style="stop-color:#F3841F"/>
				<stop  offset="1" style="stop-color:#EBC140"/>
			</linearGradient>
			<path style="fill:url(#SVGID_00000050648287909507813030000004283758091341078679_);" d="M90.47,234
				c-1.68,0.88-2.86,2.58-2.69,5.12c2.25,32.22,2.08,64.51,1.15,96.78c-0.37,12.8-1.06,25.61-1.17,38.43
				c-3.06-21.13-5.6-39.1-5.6-39.1s-22.8-91.45-30.11-105.46C60.72,229.19,77.92,231.79,90.47,234z"/>
			<path style="fill:#250A20;" d="M96.61,437.28c0.03-1.23-0.11-2.98-0.04-4.09c0.07-1.11,0.54-1.5,1.54-1.61
				c1.47-0.15,3.5-0.01,4.95-0.11c2.24-0.16,3.5-1.06,4.75-2.78c0.41-0.56,0.34-1.04,0.84-1.65c1.75-2.17,5.13-3.73,8.12-2.03
				c2.99,1.69,5.34,4.13,9.25,5.07c3.91,0.94,9.22,1.92,10.1,6.61C122.97,436.89,109.79,437.1,96.61,437.28z"/>
			<path style="fill:#D4894D;" d="M136.18,440.55c-13.17,0.2-26.34,0.4-39.51,0.6c-0.02-1.28-0.04-2.57-0.06-3.85
				c13.17-0.2,26.34-0.4,39.51-0.6C136.15,437.98,136.17,439.26,136.18,440.55z"/>
		</g>
		<g>
			<path style="fill:#FFBE97;" d="M40.84,416.86c-0.26,5.97-0.51,11.94-0.76,17.91c3.76,0.4,7.51,0.79,11.27,1.19
				c0.61-6.2,1.22-12.39,1.84-18.59C49.06,417.21,44.95,417.03,40.84,416.86z"/>
			
				<linearGradient id="SVGID_00000097489334639202538180000009643526993002232465_" gradientUnits="userSpaceOnUse" x1="836.0287" y1="368.8918" x2="738.2915" y2="201.6526" gradientTransform="matrix(-1 0 0 1 867.6725 0)">
				<stop  offset="0" style="stop-color:#FF9724"/>
				<stop  offset="1" style="stop-color:#FFDB49"/>
			</linearGradient>
			<path style="fill:url(#SVGID_00000097489334639202538180000009643526993002232465_);" d="M46.77,335.6l-1.46-64.97l0.82-29.52
				l50.24-7.89l-7.51,44.23l-8.82,59.76c0,0-24.23,72.87-27.17,98.36c-5.25,1.54-9.48,0.58-14.34,0.47
				C37.32,403.93,46.77,335.6,46.77,335.6z"/>
			
				<linearGradient id="SVGID_00000016036555123181250610000001700014410182388368_" gradientUnits="userSpaceOnUse" x1="841.8193" y1="367.5752" x2="747.2834" y2="205.8138" gradientTransform="matrix(-1 0 0 1 867.6725 0)">
				<stop  offset="0" style="stop-color:#F3841F"/>
				<stop  offset="1" style="stop-color:#EBC140"/>
			</linearGradient>
			<path style="fill:url(#SVGID_00000016036555123181250610000001700014410182388368_);" d="M59.12,336.26
				c0,0-14.59,77.2-19.52,99.12c-0.05,0.23-0.1,0.47-0.15,0.7c-0.31-0.01-0.61-0.03-0.92-0.04c-1.21-32.12,8.25-100.45,8.25-100.45
				l-1.46-64.97l0.82-29.52l19.94-3.13C63.6,246.33,59.12,336.26,59.12,336.26z"/>
			
				<linearGradient id="SVGID_00000164493208707177028950000013061027317636324275_" gradientUnits="userSpaceOnUse" x1="792.7621" y1="394.1772" x2="695.0244" y2="226.9372" gradientTransform="matrix(-1 0 0 1 867.6725 0)">
				<stop  offset="0" style="stop-color:#FF9724"/>
				<stop  offset="1" style="stop-color:#FFDB49"/>
			</linearGradient>
			<path style="fill:url(#SVGID_00000164493208707177028950000013061027317636324275_);" d="M53.36,430.17
				c0.42-1.66,0.85-3.31,1.27-4.97c-0.82,3.95-1.43,7.47-1.77,10.37c-0.3,0.09-0.59,0.14-0.88,0.21
				C52.43,433.91,52.89,432.03,53.36,430.17z"/>
			<g>
				<path style="fill:#250A20;" d="M46.91,427.67c-1.46-0.08-2.92-0.14-4.39-0.18c-2.57-0.06-4.89,1.36-6.22,3.56
					c-0.38,0.62-0.83,1.24-1.41,1.83c-6.25,6.38-5.96,9.17-5.96,9.17h25.54c0.03-4.14,0.12-7.02,0.01-9.53
					c-1.59-0.73-3.03-1.81-4.12-3.15C49.51,428.34,48.24,427.74,46.91,427.67z"/>
				<polyline style="fill:#D4894D;" points="28.94,445.9 28.94,442.05 54.52,442.05 54.52,445.9 				"/>
			</g>
		</g>
		<g>
			<g>
				
					<linearGradient id="SVGID_00000043437673121899734680000009540791763920720263_" gradientUnits="userSpaceOnUse" x1="744.8915" y1="149.5621" x2="811.7628" y2="204.7814" gradientTransform="matrix(-1 0 0 1 867.6725 0)">
					<stop  offset="0" style="stop-color:#7796FF"/>
					<stop  offset="1" style="stop-color:#415FC5"/>
				</linearGradient>
				<path style="fill:url(#SVGID_00000043437673121899734680000009540791763920720263_);" d="M69.59,128.7l13.48,7.43l6.43-6.12
					c0,0,17.61,2.68,22.87,8.56c5.16,19.62-5.79,71.81-5.79,71.81l-1.32,30.73H46.13l-7.18-95.27c-0.16-3.43,1.88-6.57,5.08-7.82
					L69.59,128.7z"/>
			</g>
		</g>
		<g>
			<g>
				<g>
					
						<linearGradient id="SVGID_00000070816662252439163460000006799098284463654303_" gradientUnits="userSpaceOnUse" x1="749.2397" y1="144.297" x2="816.1109" y2="199.5163" gradientTransform="matrix(-1 0 0 1 867.6725 0)">
						<stop  offset="0" style="stop-color:#4D70DC"/>
						<stop  offset="1" style="stop-color:#213E9F"/>
					</linearGradient>
					<path style="fill:url(#SVGID_00000070816662252439163460000006799098284463654303_);" d="M53.16,154.36
						c1.42,4.41,2.46,7.79,2.46,7.79l9.87,78.96H46.13l-6.4-84.93C44.17,155.36,48.7,154.86,53.16,154.36z"/>
				</g>
			</g>
		</g>
		<g>
			
				<linearGradient id="SVGID_00000177453799601536369910000017785533820513312902_" gradientUnits="userSpaceOnUse" x1="774.0939" y1="114.823" x2="794.7131" y2="155.6033" gradientTransform="matrix(-1 0 0 1 867.6725 0)">
				<stop  offset="0" style="stop-color:#4D70DC"/>
				<stop  offset="1" style="stop-color:#213E9F"/>
			</linearGradient>
			<path style="fill:url(#SVGID_00000177453799601536369910000017785533820513312902_);" d="M68.63,126.77c0,0,6.85-3.18,7.14-3.27
				c0.42-0.14,14.2,2.55,14.2,2.55l6.26,6.47l4.26,15.18l-11.4-5.23l-7.65,11.79l-20.18-22.07L68.63,126.77z"/>
			<g>
				<polygon style="fill:#FFB9A1;" points="69.74,108.97 69.57,131.11 88.35,140.76 89.51,132.74 88.34,115.47 				"/>
				<path style="fill:#F9A992;" d="M69.7,113.89l0.04-4.93l18.6,6.5l1.17,17.27l-0.13,0.9C82.82,127.06,76.13,120.59,69.7,113.89z"
					/>
				
					<linearGradient id="SVGID_00000150805329783694854130000000076468366444069289_" gradientUnits="userSpaceOnUse" x1="767.34" y1="93.9689" x2="780.2181" y2="93.9689" gradientTransform="matrix(-1 0 0 1 867.6725 0)">
					<stop  offset="0" style="stop-color:#301A61"/>
					<stop  offset="1" style="stop-color:#240973"/>
				</linearGradient>
				<path style="fill:url(#SVGID_00000150805329783694854130000000076468366444069289_);" d="M89.69,106.61
					c0,0,10.07-3.76,10.62-13.17c0.48-8.3-6.07-12.12-6.07-12.12l-6.78,1.66L89.69,106.61z"/>
				<path style="fill:#FFB9A1;" d="M92.36,80.62c2.36-0.14,4.38,1.67,4.52,4.03l1.5,26.2l0,0c0.3,5.15-3.64,9.57-8.8,9.86L84.55,121
					c-1.44,0.08-5.34-0.78-8.32-3.25c-5.21-4.33-6.5-8.78-6.5-8.78l-1.1-19.21c-0.25-4.28,3.03-7.95,7.31-8.2L92.36,80.62z"/>
				
					<polyline style="fill:none;stroke:#D0816C;stroke-width:0.9215;stroke-linecap:round;stroke-linejoin:round;stroke-miterlimit:10;" points="
					90.81,102.4 92.26,105.58 91.5,106.61 				"/>
				<path style="fill:#FFFFFF;" d="M93.45,109.77c0,0-2.09,0.02-9.2,0.59c0,0,1.2,2.56,5.1,2.87
					C93.26,113.53,93.45,109.77,93.45,109.77z"/>
				
					<linearGradient id="SVGID_00000145779145251483093470000005448689267917740672_" gradientUnits="userSpaceOnUse" x1="765.0267" y1="88.6804" x2="804.728" y2="88.6804" gradientTransform="matrix(-1 0 0 1 867.6725 0)">
					<stop  offset="0" style="stop-color:#301A61"/>
					<stop  offset="1" style="stop-color:#240973"/>
				</linearGradient>
				<path style="fill:url(#SVGID_00000145779145251483093470000005448689267917740672_);" d="M102.64,83.11
					c0.18-4.74-2.3-9.73-11.82-10.38c-5.77-0.39-20.61,0.99-22.48,7.6c-2.79-1.24-5.04,4.85-5.25,6.74
					c-0.96,9.09,3.23,12.91,3.23,12.91s2.32-0.75,3.79-0.19c0.57,1.58,0.71,4.89,0.71,4.89l2.03-0.06c2.24-1.31,3.44-4.91,3.16-7.94
					c0,0,6.31-1.27,2.43-8.22C88.43,89.09,102.36,90.27,102.64,83.11z"/>
				
					<radialGradient id="SVGID_00000065063864859554998840000011597799470977094846_" cx="758.3917" cy="60.2656" r="41.9473" gradientTransform="matrix(-1 0 0 1 867.6725 0)" gradientUnits="userSpaceOnUse">
					<stop  offset="0" style="stop-color:#00F0F9"/>
					<stop  offset="1" style="stop-color:#008AFF;stop-opacity:0"/>
				</radialGradient>
				<path style="fill:url(#SVGID_00000065063864859554998840000011597799470977094846_);" d="M102.64,83.11
					c0.18-4.74-2.3-9.73-11.82-10.38c-5.77-0.39-20.61,0.99-22.48,7.6c-2.79-1.24-5.04,4.85-5.25,6.74
					c-0.96,9.09,3.23,12.91,3.23,12.91s2.32-0.75,3.79-0.19c0.57,1.58,0.71,4.89,0.71,4.89l2.03-0.06c2.24-1.31,3.44-4.91,3.16-7.94
					c0,0,6.31-1.27,2.43-8.22C88.43,89.09,102.36,90.27,102.64,83.11z"/>
				
					<linearGradient id="SVGID_00000124854785788645523890000001132956713050760360_" gradientUnits="userSpaceOnUse" x1="797.5676" y1="78.7126" x2="800.5255" y2="78.7126" gradientTransform="matrix(-1 0 0 1 867.6725 0)">
					<stop  offset="0" style="stop-color:#301A61"/>
					<stop  offset="1" style="stop-color:#240973"/>
				</linearGradient>
				<path style="fill:url(#SVGID_00000124854785788645523890000001132956713050760360_);" d="M70.1,80.25c0,0-2.67-1.78-0.1-5.66
					c0,0-4.66,2.39-2.07,8.25L70.1,80.25z"/>
				<path style="fill:#250A20;" d="M82.53,100.82c0.04,0.71,0.49,1.26,1.01,1.23c0.51-0.03,0.9-0.63,0.86-1.34
					c-0.04-0.71-0.49-1.26-1.01-1.23C82.88,99.51,82.49,100.11,82.53,100.82z"/>
				<path style="fill:#250A20;" d="M92.96,99.57c0.04,0.71,0.49,1.26,1.01,1.23c0.51-0.03,0.9-0.63,0.86-1.34
					c-0.04-0.71-0.49-1.26-1.01-1.23C93.31,98.26,92.92,98.86,92.96,99.57z"/>
				<path style="fill:#FFB9A1;" d="M65.85,105.31c1.15,2.59,3.47,4.07,5.19,3.31c1.72-0.76,2.18-3.48,1.04-6.07
					c-1.15-2.59-3.47-4.07-5.19-3.31C65.16,100.01,64.7,102.72,65.85,105.31z"/>
				<g>
					<path style="fill:#401411;" d="M85.73,96.54c-2.09,0.04-3.74,0.59-5.46,1.79c-0.1,0.07-0.24,0.05-0.31-0.05
						c0.6-2.21,3.92-3.23,5.87-2.09C86.01,96.28,85.92,96.56,85.73,96.54L85.73,96.54z"/>
				</g>
				<g>
					<path style="fill:#401411;" d="M91.2,95.76c1.08-1.45,3.66-1.3,4.52,0.31c0.08,0.13-0.06,0.29-0.2,0.24
						c-1.55-0.5-2.58-0.58-4.16-0.29C91.21,96.05,91.1,95.87,91.2,95.76L91.2,95.76z"/>
				</g>
			</g>
		</g>
		<g>
			<g>
				<path style="fill:#FFB9A1;" d="M55.81,222.37c1.3,0.51,1.78,1.61,1.91,2.85l1.41,4.05l-0.23,3.06c0.05,0.49-0.13,1.03-0.49,1.48
					l0,0c-1.08,1.34-3.02,1.24-3.24-0.18l0.1-4.49l-2.15-4L55.81,222.37z"/>
				<path style="fill:#FFB9A1;" d="M42.59,213.38l8.72,7.7c0.29,0.26,0.52,0.59,0.66,0.95l4.24,9.18c0.09,0.24,0.22,0.47,0.39,0.67
					l2.25,0.99c1.1,1.34,1.34,2.01-0.95,3.83c-2.13,1.69-5.41,5.24-8.23,5.14c-1.87-0.07-6.33,0.48-7.66-0.85
					c-0.37-0.37-0.84-0.64-1.06-1.12l-7.23-19.84c-0.47-1.03-0.17-2.25,0.74-2.93l5.1-3.84C40.46,212.58,41.73,212.63,42.59,213.38z
					"/>
				<path style="fill:#F9A992;" d="M56.75,231.96l2.1,0.92c1.1,1.34,1.34,2.01-0.95,3.83c-2.13,1.69-5.41,5.24-8.23,5.14
					c-1.87-0.07-6.33,0.48-7.66-0.85c-0.16-0.16-0.34-0.31-0.52-0.46C46.81,238.2,52.09,235.33,56.75,231.96z"/>
				<path style="fill:#FFB9A1;" d="M46.09,216.48l9.72,5.89l1.75,3.18c0.64,1.16,0.01,2.6-1.27,2.93l-5.6,1.42L46.09,216.48z"/>
			</g>
			
				<linearGradient id="SVGID_00000013169841135364702390000004044081345590954416_" gradientUnits="userSpaceOnUse" x1="764.3039" y1="202.7081" x2="828.5439" y2="255.7547" gradientTransform="matrix(-0.9715 -0.237 -0.237 0.9715 900.5082 132.043)">
				<stop  offset="0" style="stop-color:#7796FF"/>
				<stop  offset="1" style="stop-color:#415FC5"/>
			</linearGradient>
			<path style="fill:url(#SVGID_00000013169841135364702390000004044081345590954416_);" d="M42.99,138.43
				c0,0-26.18,17.47-40.51,33.6c-3.22,3.62-3.29,9.07-0.29,12.88l33.36,40.78l13.15-7.84l-21.49-36.69l26.31-11.64
				c0,0,12.42-6.57,12.55-18.63C66.21,138.83,42.99,138.43,42.99,138.43z"/>
		</g>
	</g>
</g>
</svg>
