<?xml version="1.0" encoding="utf-8"?>
<!-- Generator: Adobe Illustrator 26.1.0, SVG Export Plug-In . SVG Version: 6.00 Build 0)  -->
<svg version="1.1" id="Layer_1" xmlns="http://www.w3.org/2000/svg" xmlns:xlink="http://www.w3.org/1999/xlink" x="0px" y="0px"
	 viewBox="0 0 168.05 51.57" style="enable-background:new 0 0 168.05 51.57;" xml:space="preserve">
<g>
	<path style="fill:#ED1C24;" d="M113.76,14.9c0.03-0.55,0.07-0.96,0.07-1.37c0-4.14,0.02-8.28-0.01-12.41
		c-0.01-0.82,0.2-1.14,1.08-1.12c3.13,0.05,6.27,0.04,9.41,0c0.83-0.01,1.02,0.29,1.02,1.07c-0.02,16.1-0.02,32.19,0,48.29
		c0,0.85-0.24,1.11-1.09,1.1c-2.88-0.05-5.75-0.05-8.63,0c-0.85,0.01-1.16-0.27-1.18-1.09c-0.01-0.51-0.17-1.01-0.28-1.64
		c-0.95,0.66-1.78,1.31-2.67,1.84c-5.51,3.26-12.93,2.26-17.42-2.32c-3.43-3.5-4.93-7.81-5.23-12.61
		c-0.35-5.64,0.98-10.78,5.02-14.88c5.23-5.31,11.63-6.77,18.81-5.14C112.98,14.71,113.31,14.79,113.76,14.9z M113.76,30.43
		c0.03,0,0.05,0,0.08,0c0-1.49-0.05-2.97,0.02-4.46c0.04-0.84-0.31-1.26-1.06-1.48c-1.88-0.56-3.78-0.77-5.74-0.47
		c-2.02,0.31-3.67,1.24-4.8,2.94c-2.2,3.32-2.44,6.92-1.02,10.55c1.31,3.34,4.87,4.81,8.34,3.66c2.65-0.88,3.92-2.88,4.16-5.52
		C113.88,33.93,113.76,32.18,113.76,30.43z"/>
	<path style="fill:#ED1C24;" d="M156.78,27.24c0.08-1.65-0.65-2.85-2.01-3.61c-0.74-0.42-1.61-0.74-2.45-0.84
		c-3.77-0.48-7.33,0.19-10.6,2.2c-1.17,0.72-1.17,0.71-1.91-0.4c-1.13-1.69-2.27-3.38-3.41-5.07c-0.73-1.08-0.72-1.06,0.32-1.78
		c5.18-3.55,11-4.47,17.1-4.14c3.14,0.17,6.14,0.91,8.7,2.88c2.63,2.02,4.16,4.76,4.88,7.93c0.38,1.66,0.58,3.39,0.6,5.09
		c0.07,6.59,0.01,13.18,0.05,19.78c0.01,0.94-0.27,1.22-1.2,1.2c-2.84-0.06-5.69-0.05-8.53,0c-0.86,0.02-1.25-0.23-1.24-1.12
		c0.01-0.43-0.12-0.86-0.17-1.13c-1.75,0.87-3.37,1.92-5.14,2.49c-3.85,1.25-7.73,1.11-11.43-0.63c-4.21-1.97-6.35-6.35-5.71-11.4
		c0.62-4.87,3.41-8.02,7.82-9.9c3.35-1.42,6.88-1.66,10.46-1.56C154.15,27.27,155.41,27.24,156.78,27.24z M156.85,36.8
		c0-0.23-0.03-0.46,0.01-0.68c0.15-0.93-0.29-1.28-1.17-1.28c-1.26,0-2.53-0.16-3.77-0.02c-1.36,0.15-2.75,0.42-4.02,0.9
		c-1.49,0.57-2.17,1.86-2.16,3.46c0,1.41,0.4,2.67,1.77,3.29C151,44.05,157.15,42.53,156.85,36.8z"/>
	<path style="fill:#ED1C24;" d="M29.52,17.43c-3.16,2.37-5.44,5.4-6.81,9.19c-4.08-1.86-7.57-1.27-10.06,2.58
		c-1.65,2.55-1.23,5.9,0.74,8.22c2.19,2.56,5.13,3.05,9.3,1.49c1.38,3.7,3.6,6.8,6.8,9.16c-4.51,4.01-15.4,5.79-23.36-1.33
		C-1.7,39.71-2.1,27.14,5.35,19.56C12.99,11.8,24.32,13.06,29.52,17.43z"/>
	<path style="fill:#ED1C24;" d="M82.33,24.97c-1.38-0.17-2.62-0.43-3.86-0.46c-5.25-0.11-8.38,2.97-8.4,8.21
		c-0.02,5.36,0,10.72-0.01,16.09c0,1.84,0.18,1.63-1.68,1.64c-2.94,0.01-5.88-0.02-8.82,0.02c-0.78,0.01-1.07-0.2-1.07-1.03
		c0.02-11.24,0.02-22.48,0-33.72c0-0.83,0.3-1.03,1.07-1.02c3,0.03,6.01,0.04,9.01,0c0.79-0.01,1.11,0.24,1.11,1.03
		c0,0.76,0.11,1.53,0.19,2.56c0.47-0.38,0.77-0.58,1.02-0.83c3.41-3.44,7.57-3.86,12.04-3c1.22,0.24,1.26,0.42,1.02,1.68
		c-0.45,2.41-0.87,4.83-1.31,7.24C82.56,23.9,82.44,24.43,82.33,24.97z"/>
	<path style="fill:#ED1C24;" d="M40.6,39.84c-3.89-0.01-7.1-3.24-7.07-7.13c0.03-3.86,3.21-7.01,7.07-7.02
		c3.92-0.01,7.12,3.17,7.12,7.07C47.71,36.67,44.51,39.84,40.6,39.84z"/>
</g>
</svg>
