<?xml version="1.0" encoding="utf-8"?>
<!-- Generator: Adobe Illustrator 26.3.1, SVG Export Plug-In . SVG Version: 6.00 Build 0)  -->
<svg version="1.1" id="Layer_1" xmlns="http://www.w3.org/2000/svg" xmlns:xlink="http://www.w3.org/1999/xlink" x="0px" y="0px"
	 viewBox="0 0 646.8 864.1" style="enable-background:new 0 0 646.8 864.1;" xml:space="preserve">
<style type="text/css">
	.st0{fill:#0E5BA8;}
	.st1{fill:#233162;}
	.st2{fill:none;stroke:#233162;stroke-width:10;stroke-miterlimit:10;}
	.st3{fill:#D7E4ED;}
	.st4{fill:#E7EEF5;}
	.st5{fill:none;stroke:#FFFFFF;stroke-miterlimit:10;}
	.st6{fill:#DDE3E8;}
	.st7{fill:#C3CFDB;}
	.st8{fill:#C9D6E2;}
	.st9{fill:#197BCC;}
	.st10{fill:none;stroke:#DA2B4E;stroke-width:4;stroke-miterlimit:10;}
	.st11{fill:none;stroke:#0E5BA8;stroke-width:2;stroke-miterlimit:10;}
	.st12{fill:#4CC2C1;}
	.st13{fill:#0053CC;}
	.st14{opacity:0.2;}
	.st15{fill:#0F264C;}
	.st16{fill:#0050AF;}
	.st17{fill:#4EA4F9;}
	.st18{fill:#0D6AB7;}
	.st19{fill:#197BDD;}
	.st20{opacity:0.6;fill:#0D6AB7;}
	.st21{fill:#2B97EF;}
	.st22{opacity:0.2;fill:#FFFFFF;}
	.st23{fill:#64B9FF;}
	.st24{fill:none;stroke:#233162;stroke-width:9;stroke-miterlimit:10;}
	.st25{fill:none;stroke:#EADA6F;stroke-width:12;stroke-miterlimit:10;}
	.st26{fill:url(#SVGID_1_);}
	.st27{fill:#375A64;}
	.st28{fill:url(#SVGID_00000018233829745079782040000012195542191356579487_);}
	.st29{fill:url(#SVGID_00000032638513680362105370000006878839371086069379_);}
	.st30{fill:#1A2E35;}
	.st31{fill:#F7901E;}
	.st32{fill:url(#SVGID_00000106860850080019702450000015821758873115198114_);}
	.st33{fill:url(#SVGID_00000162314524432680993820000011630770322951881100_);}
	.st34{fill:url(#SVGID_00000118387824822515108690000009460047600315800707_);}
	.st35{fill:url(#SVGID_00000124161279035214085440000008984156889525880499_);}
	.st36{fill:url(#SVGID_00000094585252286243716490000018417129982233508514_);}
	.st37{fill:#FFC19D;}
	.st38{fill:#FF9C6A;}
	.st39{fill:#F5F5F5;}
	.st40{fill:#E1E1E1;}
	.st41{opacity:0.3;}
	.st42{fill:#FFFFFF;}
</style>
<g>
	<path class="st0" d="M362.2,199.2c0,0-101.9-118.7-185.4-26c-28.3,0-104.2-3.8-114.1,83.5c-17.6,5.4-65.1,13.8-43.7,90.4
		c-10.7,15.3-41.4,97.3,9.2,129.4l2.3,7.7h111.1l-10.7,139.4l2.3,16.1l-4.6,73.5h11.5l1.5,19.1h-12.3l-13.8,18.7v113h246.6
		l-10.7-48.3l6.5-1.5c6-1.4,10.9-5.8,13.2-11.5l9.9-26c3-7.9-3.1-16.4-11.6-16l-29.5,1.4l-5.4-31.4h-28.3l1.5-14.6h28.3v-31.4h-18.4
		l-11.1-11.1v-21.8h14.9l42.9-333.2L376.7,213L362.2,199.2z"/>
	<path class="st1" d="M204.6,693.9h-66.4c-14.2,0-25.7-11.5-25.7-25.7v-2c0-14.2,11.5-25.7,25.7-25.7h66.4
		c14.2,0,25.7,11.5,25.7,25.7v2C230.4,682.4,218.8,693.9,204.6,693.9z"/>
	<path class="st1" d="M200.2,623.8h-66.4c-14.2,0-25.7-11.5-25.7-25.7v-2c0-14.2,11.5-25.7,25.7-25.7h66.4
		c14.2,0,25.7,11.5,25.7,25.7v2C225.9,612.3,214.4,623.8,200.2,623.8z"/>
	<path class="st2" d="M82.6,528.1c0,0-40.6-10.4-49.8,35.3c-2.3,22.7-4.6,89.5,84.3,107.8"/>
	<path class="st2" d="M62.2,528.4c0,0-10.3,70.9,50.3,70.8"/>
	<path class="st3" d="M415.7,582.2l-40.1-118.7l37.9-49V278.1l-49.8-36.8l-26.1-26v148.6c0,0,1.5,20.7-7.7,41.4
		c0,0-36-35.2-76.6-19.2c-10.7,5.4-52.8,26.8-42.9,76.6c3.1,10.7,26,65.9,85.8,49c8.4-2.3,8.4-2.3,8.4-2.3l-0.8,94.2
		c0,0-4.6,70.5,97.3,99.6c13,6,32.7,17.2,54.3,27.4L415.7,582.2z M274.9,503.9c-30.1,0-54.6-24.4-54.6-54.5
		c0-30.1,24.4-54.5,54.6-54.5c30.1,0,54.6,24.4,54.6,54.5C329.5,479.4,305,503.9,274.9,503.9z"/>
	<path class="st4" d="M632.6,550c-29.1,13.8-28.3,28.3-31,49.8c17.2,13,10.3,23.7-0.4,36.8c2.3,28.3-6.1,26.8-22.2,52.1
		c-0.8,36-6.1,39.8-16.8,51.3c-22.2,24.7-67.4,9.2-106.6-9.4v0l-39.8-148.4l-40.1-118.7l37.9-49V278.1l-49.8-36.8l-26.1-26h26.8v-36
		c48.3-5.4,80.4,13.8,107.2,26.8c81.9,47.5,85,104.2,88.8,143.2c10.4,59.5,2.3,76.6,2.3,76.6s42.9,52.8,69.7,84.2
		C655.5,534.7,647.1,545.5,632.6,550z"/>
	<line class="st5" x1="467.1" y1="789.8" x2="455.5" y2="730.6"/>
	<path class="st6" d="M395.9,179.2v52.2c0,0,59.7-1.5,65.1,60.5c3.8,62,3.8,96.5,3.8,96.5s1.5,27.5-26,54.7
		c-14.6,14.2-36.3,26.5-10.9,52.5c26.2,25.3,47.6,41.4,47.6,41.4h27.6l-27.6,17.6L454.1,534l41,212.7l-23.3-8.7l-67.1-214.7
		l-22.9-57.6l26.3-38.9l13.8-114.9L399.6,271L354,251.8l-8.4-31.1l18.9-10.7v-30.6L395.9,179.2z"/>
	<g>
		<path class="st7" d="M332.5,243.7l49,29.9c0,0,14.6,6.9,13.8,46.7c-1.5,39.8,0,84.5,0,84.5s1.5,25.3-24.5,31.1
			c-25.1-1.5-32.9-0.1-38.3,17.2c20.7-1.9,20.7-1.9,20.7-1.9s13.8-3.1,4.6,16.1c-7.7,11.5-7.7,36.8,12.3,46.7
			c11.5,18.4,12.3,28.3,12.3,28.3s15.3,31.4,19.1,72c12.3,48.3,20.3,100.4,31.6,117.6c26,12.6,33.6,15.9,33.6,15.9l-28.4-132
			l-9.2-46c0,0-9.2-37.5-26-53.6c-10-13.8-26-36.8-3.4-60.5c18-13,31-15.5,30.2-51c-0.8-35.5,2.3-94.5,2.3-94.5s8.5-29.1-32.5-45.2
			c-19.6-8.4-36.4-13.8-41-13.8c0.8-20.7,0.8-31.4,0.8-31.4l-26.8,5.4V243.7z"/>
		<rect x="304.5" y="534.5" class="st7" width="89.9" height="15.4"/>
	</g>
	<g>
		<g>
			<path class="st8" d="M613,563.4h-30.5c0,0,17.6-28.9,62.7-35.3c1.6,6.4,3.6,15.8-15,23.1C621.5,556.2,617,558.2,613,563.4z"/>
			<path class="st8" d="M555.3,633.2l56.7-17c0,0,2,6.5-10.8,20.4L555.3,633.2z"/>
			<path class="st8" d="M591.6,671.2l-27.5,4.2c0,0-17.4,5.8-5.1,21.8c19.7,17.7,18.1,15.3,18.1,15.3l1.8-23.8L591.6,671.2z"/>
		</g>
		<path class="st0" d="M544.2,414.5c0,0-2.3,11-31.5,11.7c-5.2,0.1-10.4,1.1-15.2,3.2c-9.9,4.3-13.6,10-17.6,13.2
			c14.3,8.2,41.4,26.3,41.4,26.3s14.8,8.6,19.9-3.2c-3.6-11.8-12.3-21-8.2-30.2C537.1,426.2,543.2,424.7,544.2,414.5z"/>
	</g>
	<g>
		<path class="st9" d="M117.2,239.7c1.8,0.8,3.1,1.3,4.4,2c4.7,2.8,9.4,5.5,14,8.4c1.4,0.9,2.6,1,4,0.1c1.6-0.9,3.3-1.9,5-2.3
			c4.6-0.8,6.2-3.7,6.9-8c0.9-5.1,2.3-10,3.6-15c0.9-3.4,2.6-4.7,6.1-4.7c6.8-0.1,13.7-0.1,20.5,0c3.5,0,5.3,1.3,6.1,4.7
			c1.6,6.2,3,12.5,4.8,18.7c0.3,1.2,1.5,2.3,2.6,3c1.2,0.8,2.9,0.8,4,1.7c4.2,3,7.7,1.9,11.5-0.9c3-2.3,6.5-4,9.7-5.9
			c3.6-2.1,5.7-1.9,8.7,1c4.6,4.6,9.3,9.2,13.9,13.9c2.9,2.9,3.1,5,1,8.6c-2.7,4.6-5.6,9.1-8.2,13.8c-0.5,1-0.6,2.6-0.2,3.6
			c0.9,2.7,2.3,5.2,3.2,7.8c0.6,1.7,1.6,2.4,3.3,2.8c6.2,1.4,12.3,3,18.4,4.6c3.4,0.9,4.7,2.6,4.7,6.1c0.1,6.8,0.1,13.7,0,20.5
			c0,3.6-1.3,5.3-4.9,6.2c-6.1,1.6-12.3,3-18.4,4.7c-1.2,0.3-2.3,1.5-3,2.5c-0.8,1.3-0.9,3.1-1.8,4.3c-2.8,3.8-1.8,7,0.7,10.4
			c2.4,3.3,4.3,6.9,6.4,10.5c1.8,3.2,1.6,5.3-0.9,7.9c-4.8,4.9-9.6,9.7-14.5,14.5c-2.5,2.5-4.8,2.7-7.9,0.9c-4.5-2.6-8.9-5.2-13.3-8
			c-1.6-1-2.9-1.2-4.5-0.3c-1.4,0.8-2.9,1.8-4.5,2.1c-4.5,0.8-6.2,3.7-7,7.9c-0.9,5.1-2.3,10-3.6,15c-0.9,3.4-2.6,4.7-6.1,4.7
			c-6.8,0.1-13.7,0.1-20.5,0c-3.6,0-5.3-1.3-6.2-4.9c-1.6-6.1-3-12.3-4.7-18.4c-0.3-1.2-1.4-2.4-2.5-3c-2.6-1.4-5.3-2.5-8-3.4
			c-1.1-0.4-2.7-0.3-3.6,0.2c-4.3,2.4-8.5,5.1-12.8,7.6c-3.9,2.3-5.9,2.1-9.1-1.1c-4.5-4.5-9-8.9-13.4-13.4
			c-3.1-3.1-3.4-5.1-1.2-8.8c2.6-4.4,5.3-8.6,7.7-13.1c0.5-1,0.5-2.5,0.2-3.7c-0.4-1.6-1.7-3-1.9-4.5c-0.8-4.8-3.9-6.5-8.4-7.2
			c-5-0.8-9.9-2.3-14.7-3.6c-3.4-0.9-4.6-2.6-4.7-6.1c-0.1-6.8-0.1-13.7,0-20.5c0-3.5,1.3-5.2,4.7-6.1c6.1-1.6,12.3-3.1,18.4-4.6
			c0.5-0.1,1-0.1,1.4-0.3c2-0.8,5.4-10.8,4.4-12.6c-2.9-4.9-5.9-9.9-8.8-14.8c-2.3-3.8-2-6,1.1-9.1c4.5-4.6,9-9.2,13.7-13.6
			C114,241.4,115.7,240.7,117.2,239.7z M210.1,313.6c-0.5-21.3-18-38.4-38.7-38.1c-21.2,0.3-38.8,18.1-38.2,38.9
			c0.5,21.3,18,38.4,38.7,38.1C193.1,352.2,210.6,334.4,210.1,313.6z"/>
		<circle class="st10" cx="171.6" cy="314" r="48.4"/>
	</g>
	<g>
		<path class="st9" d="M49.1,382.8c0.7,0.3,1.3,0.5,1.8,0.8c1.9,1.1,3.9,2.3,5.8,3.5c0.6,0.4,1.1,0.4,1.6,0.1
			c0.7-0.4,1.3-0.8,2.1-0.9c1.9-0.3,2.5-1.5,2.9-3.3c0.4-2.1,1-4.1,1.5-6.2c0.4-1.4,1.1-1.9,2.5-1.9c2.8,0,5.6,0,8.4,0
			c1.4,0,2.2,0.5,2.5,1.9c0.7,2.6,1.2,5.1,2,7.7c0.1,0.5,0.6,0.9,1.1,1.2c0.5,0.3,1.2,0.3,1.7,0.7c1.7,1.3,3.2,0.8,4.7-0.4
			c1.2-0.9,2.7-1.6,4-2.4c1.5-0.9,2.4-0.8,3.6,0.4c1.9,1.9,3.8,3.8,5.7,5.7c1.2,1.2,1.3,2.1,0.4,3.6c-1.1,1.9-2.3,3.8-3.4,5.7
			c-0.2,0.4-0.2,1.1-0.1,1.5c0.4,1.1,0.9,2.1,1.3,3.2c0.2,0.7,0.6,1,1.4,1.1c2.5,0.6,5.1,1.2,7.6,1.9c1.4,0.4,1.9,1.1,2,2.5
			c0,2.8,0,5.6,0,8.4c0,1.5-0.5,2.2-2,2.6c-2.5,0.7-5.1,1.2-7.6,1.9c-0.5,0.1-0.9,0.6-1.2,1c-0.3,0.5-0.4,1.3-0.7,1.8
			c-1.2,1.6-0.7,2.9,0.3,4.3c1,1.4,1.8,2.9,2.6,4.3c0.8,1.3,0.7,2.2-0.4,3.3c-2,2-4,4-6,6c-1,1-2,1.1-3.3,0.4
			c-1.8-1.1-3.7-2.1-5.5-3.3c-0.7-0.4-1.2-0.5-1.9-0.1c-0.6,0.3-1.2,0.7-1.9,0.8c-1.9,0.3-2.6,1.5-2.9,3.3c-0.4,2.1-1,4.1-1.5,6.2
			c-0.4,1.4-1.1,1.9-2.5,2c-2.8,0-5.6,0-8.4,0c-1.5,0-2.2-0.5-2.6-2c-0.7-2.5-1.2-5.1-1.9-7.6c-0.1-0.5-0.6-1-1-1.2
			c-1.1-0.6-2.2-1-3.3-1.4c-0.4-0.1-1.1-0.1-1.5,0.1c-1.8,1-3.5,2.1-5.3,3.1c-1.6,1-2.4,0.9-3.7-0.4c-1.9-1.8-3.7-3.7-5.5-5.5
			c-1.3-1.3-1.4-2.1-0.5-3.6c1.1-1.8,2.2-3.6,3.2-5.4c0.2-0.4,0.2-1,0.1-1.5c-0.2-0.6-0.7-1.2-0.8-1.9c-0.3-2-1.6-2.7-3.4-3
			c-2-0.3-4.1-0.9-6.1-1.5c-1.4-0.4-1.9-1.1-1.9-2.5c0-2.8,0-5.6,0-8.4c0-1.4,0.5-2.1,1.9-2.5c2.5-0.7,5-1.3,7.6-1.9
			c0.2,0,0.4,0,0.6-0.1c0.8-0.3,2.2-4.4,1.8-5.2c-1.2-2-2.4-4.1-3.6-6.1c-0.9-1.6-0.8-2.5,0.4-3.8c1.9-1.9,3.7-3.8,5.6-5.6
			C47.7,383.5,48.4,383.2,49.1,382.8z M87.3,413.2c-0.2-8.7-7.4-15.8-15.9-15.7c-8.7,0.1-15.9,7.5-15.7,16
			c0.2,8.7,7.4,15.8,15.9,15.7C80.3,429.1,87.5,421.8,87.3,413.2z"/>
		<circle class="st11" cx="71.4" cy="413.4" r="19.9"/>
	</g>
	<circle class="st12" cx="181.6" cy="526.6" r="32.4"/>
	<path class="st1" d="M174.4,538l-43.2,50.4c-9.3,10.8-25.5,12-36.3,2.8l-1.5-1.3c-10.8-9.3-12-25.5-2.8-36.3l43.2-50.4
		c9.3-10.8,25.5-12,36.3-2.8l1.5,1.3C182.5,510.9,183.7,527.2,174.4,538z"/>
	<circle class="st1" cx="84.3" cy="527.3" r="9.4"/>
	<g>
		<g>
			
				<rect x="423.5" y="850.6" transform="matrix(-1 -4.489399e-11 4.489399e-11 -1 964.0123 1714.5704)" class="st13" width="116.9" height="13.3"/>
			<g class="st14">
				<rect x="534.5" y="852.5" class="st15" width="2.9" height="9.5"/>
				<rect x="529.4" y="852.5" class="st15" width="2.9" height="9.5"/>
				<rect x="524.2" y="852.5" class="st15" width="2.9" height="9.5"/>
				<rect x="519.1" y="852.5" class="st15" width="2.9" height="9.5"/>
				<rect x="513.9" y="852.5" class="st15" width="2.9" height="9.5"/>
				<rect x="508.8" y="852.5" class="st15" width="2.9" height="9.5"/>
				<rect x="503.6" y="852.5" class="st15" width="2.9" height="9.5"/>
				<rect x="498.5" y="852.5" class="st15" width="2.9" height="9.5"/>
				<rect x="493.4" y="852.5" class="st15" width="2.9" height="9.5"/>
				<rect x="488.2" y="852.5" class="st15" width="2.9" height="9.5"/>
				<rect x="483.1" y="852.5" class="st15" width="2.9" height="9.5"/>
				<rect x="477.9" y="852.5" class="st15" width="2.9" height="9.5"/>
				<rect x="472.8" y="852.5" class="st15" width="2.9" height="9.5"/>
				<rect x="467.7" y="852.5" class="st15" width="2.9" height="9.5"/>
				<rect x="462.5" y="852.5" class="st15" width="2.9" height="9.5"/>
				<rect x="457.4" y="852.5" class="st15" width="2.9" height="9.5"/>
				<rect x="452.2" y="852.5" class="st15" width="2.9" height="9.5"/>
				<rect x="447.1" y="852.5" class="st15" width="2.9" height="9.5"/>
				<rect x="441.9" y="852.5" class="st15" width="2.9" height="9.5"/>
				<rect x="436.8" y="852.5" class="st15" width="2.9" height="9.5"/>
				<rect x="431.7" y="852.5" class="st15" width="2.9" height="9.5"/>
				<rect x="426.5" y="852.5" class="st15" width="2.9" height="9.5"/>
			</g>
			<rect x="405.3" y="850.6" class="st16" width="18.2" height="13.3"/>
			
				<rect x="423.5" y="614.9" transform="matrix(-1 -4.489177e-11 4.489177e-11 -1 970.0966 1465.4746)" class="st17" width="123" height="235.8"/>
			
				<rect x="407.3" y="612.8" transform="matrix(-1 -4.490154e-11 4.490154e-11 -1 945.7704 1227.7061)" class="st18" width="131.2" height="2"/>
			<g>
				<rect x="550.4" y="724.7" class="st19" width="1" height="9.9"/>
				<rect x="550.4" y="738" class="st19" width="1" height="25.8"/>
			</g>
			<rect x="399.2" y="614.9" class="st19" width="24.3" height="235.8"/>
		</g>
		<g>
			<path class="st20" d="M429.7,700.6h110.8c1.8,0,3.3-1.5,3.3-3.3v-16.9c0-1.8-1.5-3.3-3.3-3.3H429.7c-1.8,0-3.3,1.5-3.3,3.3v16.9
				C426.4,699.2,427.9,700.6,429.7,700.6z"/>
			<path class="st19" d="M436.3,685.8l4.7-9.8v25.8h-4.9h-1.3h-8.4v-12.9h4.9C433.4,688.9,435.3,687.7,436.3,685.8z"/>
			
				<rect x="426.4" y="617.7" transform="matrix(-1 -4.489576e-11 4.489576e-11 -1 970.0966 1261.2032)" class="st21" width="117.3" height="25.8"/>
			
				<rect x="426.4" y="821.8" transform="matrix(-1 -4.489576e-11 4.489576e-11 -1 970.0966 1669.4563)" class="st21" width="117.3" height="25.8"/>
			
				<rect x="426.4" y="792.7" transform="matrix(-1 -4.489576e-11 4.489576e-11 -1 970.0966 1611.1345)" class="st21" width="117.3" height="25.8"/>
			
				<rect x="426.4" y="763.5" transform="matrix(-1 -4.489576e-11 4.489576e-11 -1 970.0966 1552.8126)" class="st21" width="117.3" height="25.8"/>
			
				<rect x="426.4" y="734.3" transform="matrix(-1 -4.489576e-11 4.489576e-11 -1 970.0966 1494.4907)" class="st21" width="117.3" height="25.8"/>
			
				<rect x="426.4" y="705.2" transform="matrix(-1 -4.489576e-11 4.489576e-11 -1 970.0966 1436.1689)" class="st21" width="117.3" height="25.8"/>
			
				<rect x="441" y="676" transform="matrix(-1 -4.489576e-11 4.489576e-11 -1 999.2974 1377.847)" class="st21" width="117.3" height="25.8"/>
			
				<rect x="426.4" y="646.8" transform="matrix(-1 -4.489576e-11 4.489576e-11 -1 970.0966 1319.5251)" class="st21" width="117.3" height="25.8"/>
		</g>
		<path class="st19" d="M433.7,639.8h44.6c2.1,0,3.8-1.7,3.8-3.8v-10.9c0-2.1-1.7-3.8-3.8-3.8h-44.6c-2.1,0-3.8,1.7-3.8,3.8v10.9
			C429.9,638.1,431.6,639.8,433.7,639.8z"/>
		<path class="st22" d="M454.4,631.4v-1.5c0-0.9-0.7-1.6-1.6-1.6h-14.5c-0.9,0-1.6,0.7-1.6,1.6v1.5c0,0.9,0.7,1.6,1.6,1.6h14.5
			C453.7,633,454.4,632.2,454.4,631.4z"/>
		<path class="st19" d="M433.7,669h44.6c2.1,0,3.8-1.7,3.8-3.8v-10.9c0-2.1-1.7-3.8-3.8-3.8h-44.6c-2.1,0-3.8,1.7-3.8,3.8v10.9
			C429.9,667.3,431.6,669,433.7,669z"/>
		<path class="st22" d="M454.4,660.5V659c0-0.9-0.7-1.6-1.6-1.6h-14.5c-0.9,0-1.6,0.7-1.6,1.6v1.5c0,0.9,0.7,1.6,1.6,1.6h14.5
			C453.7,662.1,454.4,661.4,454.4,660.5z"/>
		<path class="st19" d="M448.3,698.1h44.6c2.1,0,3.8-1.7,3.8-3.8v-10.9c0-2.1-1.7-3.8-3.8-3.8h-44.6c-2.1,0-3.8,1.7-3.8,3.8v10.9
			C444.5,696.5,446.2,698.1,448.3,698.1z"/>
		<path class="st22" d="M469,689.7v-1.5c0-0.9-0.7-1.6-1.6-1.6H453c-0.9,0-1.6,0.7-1.6,1.6v1.5c0,0.9,0.7,1.6,1.6,1.6h14.5
			C468.3,691.3,469,690.6,469,689.7z"/>
		<path class="st19" d="M433.7,727.3h44.6c2.1,0,3.8-1.7,3.8-3.8v-10.9c0-2.1-1.7-3.8-3.8-3.8h-44.6c-2.1,0-3.8,1.7-3.8,3.8v10.9
			C429.9,725.6,431.6,727.3,433.7,727.3z"/>
		<path class="st22" d="M454.4,718.8v-1.5c0-0.9-0.7-1.6-1.6-1.6h-14.5c-0.9,0-1.6,0.7-1.6,1.6v1.5c0,0.9,0.7,1.6,1.6,1.6h14.5
			C453.7,720.4,454.4,719.7,454.4,718.8z"/>
		<path class="st19" d="M433.7,756.5h44.6c2.1,0,3.8-1.7,3.8-3.8v-10.9c0-2.1-1.7-3.8-3.8-3.8h-44.6c-2.1,0-3.8,1.7-3.8,3.8v10.9
			C429.9,754.8,431.6,756.5,433.7,756.5z"/>
		<path class="st22" d="M454.4,748v-1.5c0-0.9-0.7-1.6-1.6-1.6h-14.5c-0.9,0-1.6,0.7-1.6,1.6v1.5c0,0.9,0.7,1.6,1.6,1.6h14.5
			C453.7,749.6,454.4,748.9,454.4,748z"/>
		<path class="st19" d="M433.7,785.6h44.6c2.1,0,3.8-1.7,3.8-3.8v-10.9c0-2.1-1.7-3.8-3.8-3.8h-44.6c-2.1,0-3.8,1.7-3.8,3.8v10.9
			C429.9,783.9,431.6,785.6,433.7,785.6z"/>
		<path class="st22" d="M454.4,777.2v-1.5c0-0.9-0.7-1.6-1.6-1.6h-14.5c-0.9,0-1.6,0.7-1.6,1.6v1.5c0,0.9,0.7,1.6,1.6,1.6h14.5
			C453.7,778.8,454.4,778,454.4,777.2z"/>
		<path class="st19" d="M433.7,814.8h44.6c2.1,0,3.8-1.7,3.8-3.8v-10.9c0-2.1-1.7-3.8-3.8-3.8h-44.6c-2.1,0-3.8,1.7-3.8,3.8V811
			C429.9,813.1,431.6,814.8,433.7,814.8z"/>
		<path class="st22" d="M454.4,806.3v-1.5c0-0.9-0.7-1.6-1.6-1.6h-14.5c-0.9,0-1.6,0.7-1.6,1.6v1.5c0,0.9,0.7,1.6,1.6,1.6h14.5
			C453.7,807.9,454.4,807.2,454.4,806.3z"/>
		<path class="st19" d="M433.7,844h44.6c2.1,0,3.8-1.7,3.8-3.8v-10.9c0-2.1-1.7-3.8-3.8-3.8h-44.6c-2.1,0-3.8,1.7-3.8,3.8v10.9
			C429.9,842.3,431.6,844,433.7,844z"/>
		<path class="st22" d="M454.4,835.5V834c0-0.9-0.7-1.6-1.6-1.6h-14.5c-0.9,0-1.6,0.7-1.6,1.6v1.5c0,0.9,0.7,1.6,1.6,1.6h14.5
			C453.7,837.1,454.4,836.4,454.4,835.5z"/>
		<g>
			<circle class="st19" cx="491.1" cy="630.6" r="3"/>
			<circle class="st19" cx="499.6" cy="630.6" r="3"/>
			<circle class="st23" cx="508.2" cy="630.6" r="3"/>
			<path class="st19" d="M513.7,630.6c0,1.6,1.3,3,3,3c1.6,0,3-1.3,3-3c0-1.6-1.3-3-3-3C515,627.6,513.7,629,513.7,630.6z"/>
		</g>
		<g>
			<circle class="st19" cx="491.1" cy="659.8" r="3"/>
			<circle class="st19" cx="499.6" cy="659.8" r="3"/>
			<circle class="st19" cx="508.2" cy="659.8" r="3"/>
			<path class="st23" d="M513.7,659.8c0,1.6,1.3,3,3,3c1.6,0,3-1.3,3-3c0-1.6-1.3-3-3-3C515,656.8,513.7,658.1,513.7,659.8z"/>
		</g>
		<g>
			<circle class="st23" cx="505.7" cy="688.9" r="3"/>
			<circle class="st19" cx="514.2" cy="688.9" r="3"/>
			<circle class="st23" cx="522.8" cy="688.9" r="3"/>
			<circle class="st19" cx="531.3" cy="688.9" r="3"/>
		</g>
		<g>
			<circle class="st23" cx="491.1" cy="718.1" r="3"/>
			<circle class="st23" cx="499.6" cy="718.1" r="3"/>
			<circle class="st19" cx="508.2" cy="718.1" r="3"/>
			<path class="st19" d="M513.7,718.1c0,1.6,1.3,3,3,3c1.6,0,3-1.3,3-3c0-1.6-1.3-3-3-3C515,715.1,513.7,716.4,513.7,718.1z"/>
		</g>
		<g>
			<circle class="st19" cx="491.1" cy="747.2" r="3"/>
			<circle class="st23" cx="499.6" cy="747.2" r="3"/>
			<circle class="st19" cx="508.2" cy="747.2" r="3"/>
			<path class="st19" d="M513.7,747.2c0,1.6,1.3,3,3,3c1.6,0,3-1.3,3-3c0-1.6-1.3-3-3-3C515,744.3,513.7,745.6,513.7,747.2z"/>
		</g>
		<g>
			<circle class="st19" cx="491.1" cy="776.4" r="3"/>
			<circle class="st19" cx="499.6" cy="776.4" r="3"/>
			<circle class="st23" cx="508.2" cy="776.4" r="3"/>
			<path class="st23" d="M513.7,776.4c0,1.6,1.3,3,3,3c1.6,0,3-1.3,3-3c0-1.6-1.3-3-3-3C515,773.4,513.7,774.8,513.7,776.4z"/>
		</g>
		<g>
			<path class="st23" d="M488.1,805.6c0,1.6,1.3,3,3,3s3-1.3,3-3c0-1.6-1.3-3-3-3S488.1,803.9,488.1,805.6z"/>
			<path class="st19" d="M496.7,805.6c0,1.6,1.3,3,3,3c1.6,0,3-1.3,3-3c0-1.6-1.3-3-3-3C498,802.6,496.7,803.9,496.7,805.6z"/>
			<path class="st19" d="M505.2,805.6c0,1.6,1.3,3,3,3c1.6,0,3-1.3,3-3c0-1.6-1.3-3-3-3C506.5,802.6,505.2,803.9,505.2,805.6z"/>
			<path class="st19" d="M513.7,805.6c0,1.6,1.3,3,3,3c1.6,0,3-1.3,3-3c0-1.6-1.3-3-3-3C515,802.6,513.7,803.9,513.7,805.6z"/>
		</g>
		<g>
			<circle class="st19" cx="491.1" cy="834.7" r="3"/>
			<circle class="st19" cx="499.6" cy="834.7" r="3"/>
			<circle class="st23" cx="508.2" cy="834.7" r="3"/>
			<path class="st19" d="M513.7,834.7c0,1.6,1.3,3,3,3c1.6,0,3-1.3,3-3c0-1.6-1.3-3-3-3C515,831.7,513.7,833.1,513.7,834.7z"/>
		</g>
		<path class="st22" d="M525.6,630.6c0,3.6,2.9,6.5,6.5,6.5s6.5-2.9,6.5-6.5s-2.9-6.5-6.5-6.5S525.6,627,525.6,630.6z"/>
		<path class="st22" d="M525.6,659.8c0,3.6,2.9,6.5,6.5,6.5s6.5-2.9,6.5-6.5s-2.9-6.5-6.5-6.5S525.6,656.2,525.6,659.8z"/>
		<path class="st22" d="M540.2,688.9c0,3.6,2.9,6.5,6.5,6.5c3.6,0,6.5-2.9,6.5-6.5c0-3.6-2.9-6.5-6.5-6.5
			C543.1,682.5,540.2,685.4,540.2,688.9z"/>
		<path class="st22" d="M525.6,718.1c0,3.6,2.9,6.5,6.5,6.5s6.5-2.9,6.5-6.5c0-3.6-2.9-6.5-6.5-6.5S525.6,714.5,525.6,718.1z"/>
		<path class="st22" d="M525.6,747.2c0,3.6,2.9,6.5,6.5,6.5s6.5-2.9,6.5-6.5c0-3.6-2.9-6.5-6.5-6.5S525.6,743.7,525.6,747.2z"/>
		<path class="st22" d="M525.6,776.4c0,3.6,2.9,6.5,6.5,6.5s6.5-2.9,6.5-6.5s-2.9-6.5-6.5-6.5S525.6,772.8,525.6,776.4z"/>
		<path class="st22" d="M525.6,805.6c0,3.6,2.9,6.5,6.5,6.5s6.5-2.9,6.5-6.5c0-3.6-2.9-6.5-6.5-6.5S525.6,802,525.6,805.6z"/>
		<path class="st22" d="M525.6,834.7c0,3.6,2.9,6.5,6.5,6.5s6.5-2.9,6.5-6.5c0-3.6-2.9-6.5-6.5-6.5S525.6,831.2,525.6,834.7z"/>
	</g>
	<g>
		<g>
			<path class="st24" d="M274.3,528.4v88.7c0,17.3,5.8,34.1,16.7,47.5c8.9,11,20.3,23.3,31.5,30.6c22.1,15.3,32,29.3,84.1,30.3"/>
			<ellipse class="st1" cx="407.6" cy="724.9" rx="8" ry="10.5"/>
		</g>
		<g>
			<ellipse class="st1" cx="406.5" cy="763.3" rx="8" ry="10.5"/>
			<path class="st24" d="M337.7,483.9c0,0,61,21.4,49.8,83.2c0,73.5,0,181.3,0,181.3s-1.7,17.9,19.1,14.8"/>
		</g>
		<g>
			<path class="st1" d="M300.6,478l19.4,17.1c0,0,18.9,4.6,25.5-8.2c0,0,4.6-20.5-14.8-24.1c-11-3.9-33.3-13.9-35.4,1.4
				C294.6,469.5,296.7,474.6,300.6,478z"/>
			<path class="st1" d="M313.6,442.3l24.5-8.4c0,0,13.4-14.1,5.6-26.2c0,0-15.6-14.2-28.2,0.9c-8.8,7.6-28.5,22-16.3,31.5
				C303.2,443.2,308.7,444,313.6,442.3z"/>
			<path class="st1" d="M285.8,411.4l7-24.9c0,0-4.1-19-18.4-19.5c0,0-20.5,4.8-15.2,23.8c1.2,11.6,1.9,36,16.6,31.3
				C280.7,420.5,284.4,416.4,285.8,411.4z"/>
			<path class="st1" d="M250.4,419.2l-19.4-17.1c0,0-18.9-4.6-25.5,8.2c0,0-4.6,20.5,14.8,24.1c11,3.9,33.3,13.9,35.4-1.4
				C256.4,427.8,254.3,422.7,250.4,419.2z"/>
			<path class="st1" d="M238,456.8l-24.8,7.6c0,0-13.8,13.7-6.4,26c0,0,15.1,14.7,28.2-0.1c9.1-7.3,29.2-21.1,17.3-30.9
				C248.4,456.2,242.9,455.3,238,456.8z"/>
			<path class="st1" d="M262.5,484.5l-6.7,25c0,0,4.3,19,18.7,19.2c0,0,20.4-5,15-24c-1.4-11.6-2.3-36-17-31.1
				C267.5,475.4,263.9,479.5,262.5,484.5z"/>
			<rect x="266.9" y="522.2" class="st1" width="14.6" height="12.3"/>
		</g>
		<circle class="st25" cx="274.9" cy="449.1" r="14.4"/>
	</g>
	<g>
		<g>
			<g>
				
					<linearGradient id="SVGID_1_" gradientUnits="userSpaceOnUse" x1="-728.9922" y1="1164.3733" x2="-807.1846" y2="1261.6521" gradientTransform="matrix(-0.7257 0.688 0.688 0.7257 -1235.0037 293.2747)">
					<stop  offset="0" style="stop-color:#FEBBBA"/>
					<stop  offset="1" style="stop-color:#FF928E"/>
				</linearGradient>
				<path class="st26" d="M153.6,656.2l-0.7-6.2c14.5-2.3,24.7-11,29-13.5c4.5,5.8,7.6,11.1,10.9,18
					C174.8,662.4,153.6,656.2,153.6,656.2z"/>
				<path class="st27" d="M322.7,845.8c0,0,2.7,4.2,3.4,16.1c0.1,1.1-0.8,2-1.9,2h-21c-0.8,0-1.4-0.8-1.2-1.6
					c1.2-3.6,4.9-12.5,13.2-17.6L322.7,845.8z"/>
				
					<linearGradient id="SVGID_00000064332907017804382990000011391782030027801496_" gradientUnits="userSpaceOnUse" x1="-4051.6736" y1="843.1227" x2="-4041.8826" y2="843.1227" gradientTransform="matrix(-1 0 0 1 -3728.0181 0)">
					<stop  offset="0" style="stop-color:#FEBBBA"/>
					<stop  offset="1" style="stop-color:#FF928E"/>
				</linearGradient>
				<path style="fill:url(#SVGID_00000064332907017804382990000011391782030027801496_);" d="M323.7,837.8l-1.2,10
					c-0.1,0.9-0.8,1.5-1.6,1.6c-1.1,0.1-2.8,0.2-4.4,0c-1.5-0.2-2.5-1.6-2.5-3v-9.6L323.7,837.8z"/>
				<path class="st27" d="M270.8,844.7c0,0,4,6.2,3.9,14.8c0,2-1.7,3.6-3.7,3.6h-32.6c-1.5,0-2.1-2-0.9-2.8
					c6.2-4.3,18.3-12.4,27.1-15.6H270.8z"/>
				
					<linearGradient id="SVGID_00000046339859576373800450000009964489393623579809_" gradientUnits="userSpaceOnUse" x1="-4002.207" y1="838.7752" x2="-3992.47" y2="838.7752" gradientTransform="matrix(-1 0 0 1 -3728.0181 0)">
					<stop  offset="0" style="stop-color:#FEBBBA"/>
					<stop  offset="1" style="stop-color:#FF928E"/>
				</linearGradient>
				<path style="fill:url(#SVGID_00000046339859576373800450000009964489393623579809_);" d="M274.2,834l-2.5,12.3
					c-0.3,1.4-1.6,2.3-3,2c-0.8-0.2-1.8-0.5-2.9-1.2c-1-0.6-1.5-1.8-1.3-3l2.6-14.9L274.2,834z"/>
				<path class="st30" d="M319,663.1c0,0,8.8,7.8,10.5,17.1c1.7,9.3-4.7,161.1-4.7,161.1s-8.8,1.5-13.3-1.3c0,0-5.4-98.5-9.5-121.2
					c0,0-21.4,102-27.4,120.4c0,0-8.5,1-11.2-0.6c0,0,5.6-132.2,12.7-155.7L319,663.1z"/>
				<path class="st27" d="M302.2,715.6c0.4,0,0.8-0.3,0.9-0.7l3.6-14l7.8-5c0.4-0.3,0.6-0.9,0.3-1.3c-0.3-0.4-0.9-0.6-1.3-0.3
					l-8.1,5.2c-0.2,0.1-0.3,0.3-0.4,0.6l-3.7,14.3c-0.1,0.5,0.2,1,0.7,1.2C302.1,715.6,302.1,715.6,302.2,715.6z"/>
				<path class="st31" d="M232.2,575.5c37-3.1,46.7,4.6,46.7,4.6l-17.8,28.1c0,0-36.4-0.7-62.5-20.8c4.9-5.3,8.3-11.1,10.4-15.6
					C215.8,574.5,223.5,576.2,232.2,575.5z"/>
				
					<linearGradient id="SVGID_00000049214617167480972290000008292897692491097768_" gradientUnits="userSpaceOnUse" x1="-3937.0598" y1="553.6622" x2="-3900.8721" y2="553.6622" gradientTransform="matrix(-1 0 0 1 -3728.0181 0)">
					<stop  offset="0" style="stop-color:#FEBBBA"/>
					<stop  offset="1" style="stop-color:#FF928E"/>
				</linearGradient>
				<path style="fill:url(#SVGID_00000049214617167480972290000008292897692491097768_);" d="M174.1,521.1c0-1.2,1.7-1.5,2.2-0.4
					l4.7,10.1c0.9,1.9,1.2,4.1,0.8,6.3l-1.7,5.9c-0.5,2.9,0.3,5.8,2.1,8.1c4.3,5.4,13.6,15.3,26.8,20.8c-2.2,4.5-5.6,10.3-10.4,15.6
					c-9.6-7.4-17.8-17.4-22.2-30.9c-2.1-0.7-3.6-2.7-3.5-4.9L174.1,521.1z"/>
				<path class="st31" d="M220,591.8c13-14.1,37.9-20.4,52.3-23c6.3-1.1,12.5,2.4,14.7,8.4c6.5,17.4,24.1,62.7,27.5,70.4
					c2.8,6.4,5.7,12.6,7.6,16.5c1.1,2.3,0.1,5.1-2.2,6.2c-12.1,5.8-33.9,12.4-42.7,15c-1.9,0.6-3.9-0.9-3.9-2.9
					c0-1.7-0.5-3.4-1.3-4.9l-33.4-55.7c-20.8,23.1-33.6,32.4-47.6,33.8c-4.6-4.7-12.1-14.6-9.7-19.3C199.1,627,220,591.8,220,591.8z
					"/>
				
					<linearGradient id="SVGID_00000134952464831801838080000003764504427281100948_" gradientUnits="userSpaceOnUse" x1="-716.2349" y1="1178.8802" x2="-794.4243" y2="1276.1553" gradientTransform="matrix(-0.7257 0.688 0.688 0.7257 -1235.0037 293.2747)">
					<stop  offset="0" style="stop-color:#FEBBBA"/>
					<stop  offset="1" style="stop-color:#FF928E"/>
				</linearGradient>
				<path style="fill:url(#SVGID_00000134952464831801838080000003764504427281100948_);" d="M158.8,655.3l-14.7,15.1l-21.5,5.5
					c0.8-3.2,14.7-11.4,14.7-11.4s10.2-13.1,13.5-16.2c2.7-2.5,6,1.7,7,3.2c0.2,0.3,0.3,0.5,0.3,0.5L158.8,655.3z"/>
				
					<linearGradient id="SVGID_00000141430173084748645840000016840564061707755677_" gradientUnits="userSpaceOnUse" x1="-3943.085" y1="502.7621" x2="-4018.8137" y2="641.9063" gradientTransform="matrix(-1 0 0 1 -3728.0181 0)">
					<stop  offset="0" style="stop-color:#FEBBBA"/>
					<stop  offset="1" style="stop-color:#FF928E"/>
				</linearGradient>
				<path style="fill:url(#SVGID_00000141430173084748645840000016840564061707755677_);" d="M252.4,542.9l11.1,27.1
					c0,0-12.8,8.8-23,8l-5.5-24.4L252.4,542.9z"/>
				<g>
					
						<linearGradient id="SVGID_00000071554995123521409470000010735370701272502168_" gradientUnits="userSpaceOnUse" x1="-3817.356" y1="1100.3916" x2="-3850.824" y2="1144.667" gradientTransform="matrix(-0.817 -0.5767 -0.5767 0.817 -2245.2505 -2572.0916)">
						<stop  offset="0" style="stop-color:#FEBBBA"/>
						<stop  offset="1" style="stop-color:#FF928E"/>
					</linearGradient>
					<path style="fill:url(#SVGID_00000071554995123521409470000010735370701272502168_);" d="M233.7,524.5c-0.3,0.4-8,28.5-8,28.5
						l16.1,4.1l11.3-25.6C253.1,531.5,237.9,518.4,233.7,524.5z"/>
					<path class="st30" d="M247,535.4l-4.9,13.9c-0.1,0.2-0.1,0.3-0.3,0.5c-0.7,0.9-3.2,4-6.2,1.3c-2.7-2.5-5.3-4.8-7.6-5.2
						c-1-0.2-2.1,0.5-2.3,1.5c-0.7,2.6-2.2,8.3-2.7,13.6c-0.1,1.1,0.6,2,1.7,2.2c3.2,0.6,9.8,1.7,15.4,1.3c0.8-0.1,1.4-0.5,1.7-1.2
						c1.5-3.4,6.3-13.6,8-16.2c1.6-2.5,5.7-2.4,7.4-2.3c0.6,0,1.1-0.1,1.5-0.5c1.5-1.3,4.3-4.6,0.3-8.6c-0.8-0.8-0.8-2.2,0-3
						c1.7-1.6,3.5-4.4,0.7-8c-2.9-3.6-6.7-3-9-2.2c-0.9,0.3-2-0.1-2.5-0.9c-0.3-0.5-0.8-0.9-1.7-0.8c-1.2,0.1-2.2-0.9-2.2-2.1
						c0-2.3-0.8-5.2-4.8-6.4c-7.1-2.2-11.5,4.6-11.9,9.7c-0.4,5.1,7.3,7,11.9,6.7c3.5-0.3,6.1,3.2,7.1,4.9
						C247.2,534.1,247.3,534.8,247,535.4z"/>
					
						<linearGradient id="SVGID_00000072252657236326971700000014415352172433884054_" gradientUnits="userSpaceOnUse" x1="-3866.3733" y1="1135.4541" x2="-3839.5293" y2="1107.9128" gradientTransform="matrix(-0.817 -0.5767 -0.5767 0.817 -2245.2505 -2572.0916)">
						<stop  offset="0" style="stop-color:#FEBBBA"/>
						<stop  offset="1" style="stop-color:#FF928E"/>
					</linearGradient>
					<path style="fill:url(#SVGID_00000072252657236326971700000014415352172433884054_);" d="M248,552c0,0,1.1-8.8,4.8-9.3
						c3.7-0.4,7.2,2.6,3.6,7.5C251.9,556.5,248,552,248,552z"/>
				</g>
			</g>
		</g>
	</g>
	<g>
		<g>
			<g>
				<g>
					<path class="st30" d="M394.3,27.1l-14.2,10.5c1.5,4.2,2.9,8.4,4.4,12.7C390.9,44.4,394.6,35.8,394.3,27.1z"/>
				</g>
				<g>
					<g>
						<g>
							<g>
								<g>
									<path class="st30" d="M361.4,1.9c3.8-2.1,8.3-2.3,12.5-1.5c4.2,0.8,8.1,2.7,11.8,4.9c2.1,1.2,4.1,2.5,5.6,4.4
										c2.7,3.4,5.4,9.1,5.7,13.4c0.2,3.5-1.1,12.4-2.6,15.6c-1.4,2.9-7.8,5.2-11,5.9l-29.1-33.8C355.4,7.1,358,3.8,361.4,1.9z"/>
								</g>
							</g>
						</g>
					</g>
					<g>
						<g>
							<g>
								<g>
									<path class="st30" d="M356.4,6.5l7-1.2c-3.8,9.1-4.8,29.8-7,39.4c-2.6-3.7-8.5-15.1-8.2-19.6
										C348.4,20.6,348.1,5.7,356.4,6.5z"/>
								</g>
							</g>
						</g>
					</g>
					<g>
						<g>
							<g>
								<path class="st37" d="M389.4,21.6c-0.4-5.3-3.8-9.6-9-11l-16-4.1c-6.9-0.7-11.6,7.8-12,14.7c-0.5,7.7-0.8,15.9,0.1,21.7
									c1.8,11.6,10.7,13.1,10.7,13.1c0,0,0,5.5,0,8.9l5.4,22.2l17.9-19.3l3-46.1C389.4,21.5,389.4,21.9,389.4,21.6z"/>
							</g>
						</g>
					</g>
					<g>
						<g>
							<g>
								<g>
									<g>
										<g>
											<g>
												<g>
													<g>
														<g>
															<g>
																<g>
																	<g>
																		<g>
																			<g>
																				<g>
																					<g>
																						<g>
																							<path class="st30" d="M355.9,30.1c0,0.8,0.6,1.5,1.4,1.5c0.8,0,1.5-0.6,1.5-1.3c0-0.8-0.6-1.5-1.4-1.5
																								C356.6,28.7,355.9,29.3,355.9,30.1z"/>
																						</g>
																					</g>
																				</g>
																			</g>
																		</g>
																	</g>
																</g>
															</g>
														</g>
													</g>
												</g>
											</g>
										</g>
									</g>
								</g>
							</g>
						</g>
					</g>
					<g>
						<g>
							<g>
								<g>
									<g>
										<g>
											<g>
												<g>
													<g>
														<g>
															<g>
																<g>
																	<g>
																		<g>
																			<g>
																				<g>
																					<g>
																						<g>
																							<g>
																								<path class="st30" d="M354.1,25.8c0.2,0.2,1.3-0.6,2.9-0.6c1.6,0,2.8,0.8,2.9,0.6c0.1-0.1-0.1-0.4-0.6-0.8
																									c-0.5-0.4-1.4-0.7-2.4-0.7c-1,0-1.8,0.4-2.3,0.7C354.2,25.4,354,25.7,354.1,25.8z"/>
																							</g>
																						</g>
																					</g>
																				</g>
																			</g>
																		</g>
																	</g>
																</g>
															</g>
														</g>
													</g>
												</g>
											</g>
										</g>
									</g>
								</g>
							</g>
						</g>
					</g>
					<g>
						<g>
							<g>
								<g>
									<g>
										<g>
											<g>
												<g>
													<g>
														<g>
															<g>
																<g>
																	<g>
																		<g>
																			<g>
																				<g>
																					<g>
																						<g>
																							<path class="st30" d="M369.8,30.1c0,0.8,0.6,1.5,1.4,1.5c0.8,0,1.5-0.6,1.5-1.3c0-0.8-0.6-1.5-1.4-1.5
																								C370.6,28.7,369.9,29.3,369.8,30.1z"/>
																						</g>
																					</g>
																				</g>
																			</g>
																		</g>
																	</g>
																</g>
															</g>
														</g>
													</g>
												</g>
											</g>
										</g>
									</g>
								</g>
							</g>
						</g>
					</g>
					<g>
						<g>
							<g>
								<g>
									<g>
										<g>
											<g>
												<g>
													<g>
														<g>
															<g>
																<g>
																	<g>
																		<g>
																			<g>
																				<g>
																					<g>
																						<g>
																							<g>
																								<path class="st30" d="M369.3,25.8c0.2,0.2,1.3-0.6,2.9-0.6c1.6,0,2.8,0.8,2.9,0.6c0.1-0.1-0.1-0.4-0.6-0.8
																									c-0.5-0.4-1.4-0.7-2.4-0.7c-1,0-1.8,0.4-2.3,0.7C369.4,25.4,369.2,25.7,369.3,25.8z"/>
																							</g>
																						</g>
																					</g>
																				</g>
																			</g>
																		</g>
																	</g>
																</g>
															</g>
														</g>
													</g>
												</g>
											</g>
										</g>
									</g>
								</g>
							</g>
						</g>
					</g>
					<g>
						<g>
							<g>
								<g>
									<g>
										<g>
											<g>
												<g>
													<g>
														<g>
															<g>
																<g>
																	<g>
																		<g>
																			<g>
																				<g>
																					<g>
																						<g>
																							<g>
																								<path class="st30" d="M364.3,38.4c0-0.1-1-0.3-2.6-0.5c-0.4,0-0.8-0.1-0.9-0.4c-0.1-0.3,0.1-0.7,0.3-1.2
																									c0.4-1,0.8-2,1.2-3.1c1.7-4.4,2.9-8.1,2.7-8.1c-0.2-0.1-1.7,3.5-3.4,7.9c-0.4,1.1-0.8,2.1-1.2,3.1
																									c-0.2,0.5-0.4,1-0.2,1.6c0.1,0.3,0.4,0.5,0.7,0.6c0.3,0.1,0.5,0.1,0.7,0.1
																									C363.3,38.5,364.3,38.5,364.3,38.4z"/>
																							</g>
																						</g>
																					</g>
																				</g>
																			</g>
																		</g>
																	</g>
																</g>
															</g>
														</g>
													</g>
												</g>
											</g>
										</g>
									</g>
								</g>
							</g>
						</g>
					</g>
					<g>
						<g>
							<g>
								<g>
									<g>
										<g>
											<g>
												<path class="st38" d="M378.6,51.9c0,0-3.8,8-15.4,6.9l0-2.7C363.2,56,370.8,56.6,378.6,51.9z"/>
											</g>
										</g>
									</g>
								</g>
							</g>
						</g>
					</g>
					<g>
						<g>
							<g>
								<g>
									<g>
										<g>
											<g>
												<g>
													<g>
														<g>
															<g>
																<g>
																	<g>
																		<g>
																			<g>
																				<path class="st30" d="M369.8,20c0.2,0.4,1.8,0.2,3.6,0.5c1.9,0.2,3.4,0.7,3.6,0.4c0.1-0.2-0.2-0.6-0.8-1
																					c-0.6-0.4-1.6-0.8-2.7-1c-1.1-0.1-2.2,0.1-2.8,0.3C370.1,19.5,369.8,19.8,369.8,20z"/>
																			</g>
																		</g>
																	</g>
																</g>
															</g>
														</g>
													</g>
												</g>
											</g>
										</g>
									</g>
								</g>
							</g>
						</g>
					</g>
					<g>
						<g>
							<g>
								<g>
									<g>
										<g>
											<g>
												<g>
													<g>
														<g>
															<g>
																<g>
																	<g>
																		<g>
																			<g>
																				<path class="st30" d="M354.7,20.9c0.3,0.4,1.4,0,2.7,0c1.3-0.1,2.4,0.2,2.7-0.1c0.1-0.2-0.1-0.5-0.6-0.9
																					c-0.5-0.3-1.3-0.6-2.2-0.6c-0.9,0-1.7,0.4-2.2,0.7C354.7,20.4,354.5,20.8,354.7,20.9z"/>
																			</g>
																		</g>
																	</g>
																</g>
															</g>
														</g>
													</g>
												</g>
											</g>
										</g>
									</g>
								</g>
							</g>
						</g>
					</g>
					<g>
						<g>
							<g>
								<g>
									<g>
										<g>
											<g>
												<path class="st30" d="M355.5,10.7c0.7-1.7,2.6-2.8,4.5-2.9c1.9-0.1,3.7,0.6,5.4,1.6c6.9,4,10.5,13.6,17.3,17.8
													c1.7,1,3.9,0.1,5.3,1.4c1.4,1.3,2.4,3.5,1.6,5.3c0.9-1.3,1.8-2.5,2.4-4c0.5-1.5,0.6-3.2-0.2-4.5c-0.6-1-1.6-1.8-1.9-3
													c-0.3-1,0.1-2.1,0.1-3.1c0-1.1-0.5-2-1.1-3c-2.7-4.7-6.4-9-11.1-11.7c-3.1-1.7-6.6-2.8-10.2-2.6
													c-3.5,0.1-7.1,1.4-9.7,3.8C356.4,7.3,354.8,8.8,355.5,10.7"/>
											</g>
										</g>
									</g>
								</g>
							</g>
						</g>
					</g>
					<g>
						<g>
							<g>
								<g>
									<g>
										<g>
											<g>
												<g>
													<g>
														<g>
															<g>
																<g>
																	<g>
																		<g>
																			<g>
																				<g>
																					<g>
																						<g>
																							<g>
																								<g>
																									<g>
																										<path class="st37" d="M387.8,30c0.1-0.3,6.2-2.5,6.3,3.9c0.1,6.2-6.2,5-6.2,4.8
																											C387.8,38.6,387.8,30,387.8,30z"/>
																									</g>
																								</g>
																							</g>
																						</g>
																					</g>
																				</g>
																			</g>
																		</g>
																	</g>
																</g>
															</g>
														</g>
													</g>
												</g>
											</g>
										</g>
									</g>
								</g>
							</g>
						</g>
						<g>
							<g>
								<g>
									<g>
										<g>
											<g>
												<g>
													<g>
														<g>
															<g>
																<g>
																	<g>
																		<g>
																			<g>
																				<g>
																					<g>
																						<g>
																							<g>
																								<g>
																									<g>
																										<g>
																											<path class="st38" d="M389.7,36.4c0,0,0.1,0.1,0.3,0.2c0.2,0.1,0.5,0.1,0.8,0c0.7-0.2,1.2-1.3,1.2-2.4
																												c0-0.6-0.1-1.1-0.3-1.6c-0.2-0.5-0.5-0.8-0.8-0.8c-0.3-0.1-0.6,0.1-0.6,0.3c-0.1,0.2,0,0.3-0.1,0.3
																												c0,0-0.1-0.1-0.1-0.4c0-0.1,0.1-0.3,0.2-0.4c0.1-0.1,0.4-0.2,0.6-0.2c0.5,0,0.9,0.5,1.1,1
																												c0.3,0.5,0.4,1.1,0.4,1.7c0,1.3-0.7,2.4-1.6,2.7c-0.4,0.1-0.8,0-1-0.2C389.7,36.5,389.7,36.4,389.7,36.4
																												z"/>
																										</g>
																									</g>
																								</g>
																							</g>
																						</g>
																					</g>
																				</g>
																			</g>
																		</g>
																	</g>
																</g>
															</g>
														</g>
													</g>
												</g>
											</g>
										</g>
									</g>
								</g>
							</g>
						</g>
					</g>
					<g>
						<g>
							<g>
								<g>
									<g>
										<g>
											<g>
												<g>
													<path class="st27" d="M390.3,26.8c0,0-0.1-0.1-0.4-0.2c-0.2-0.2-0.6-0.4-1-0.7c-0.9-0.6-2.1-1.6-3.4-3.1
														c-1.3-1.4-2.7-3.3-4.1-5.4c-1.5-2.1-3.1-4.4-5.2-6.4c-1.1-1-2.2-1.9-3.3-2.6c-1.2-0.7-2.4-1.2-3.6-1.6
														c-2.4-0.8-4.7-0.9-6.6-0.8c-1.9,0.1-3.4,0.5-4.4,0.9c-0.5,0.2-0.9,0.3-1.2,0.4c-0.3,0.1-0.4,0.2-0.4,0.1
														c0,0,0.1-0.1,0.4-0.2c0.3-0.1,0.6-0.3,1.1-0.5c1-0.4,2.5-0.8,4.5-1c1.9-0.2,4.3,0,6.7,0.8c1.2,0.4,2.5,0.9,3.7,1.6
														c1.2,0.7,2.3,1.6,3.4,2.7c2.1,2.1,3.7,4.4,5.2,6.5c1.5,2.1,2.8,3.9,4.1,5.4c1.3,1.4,2.4,2.5,3.3,3.1
														c0.4,0.3,0.8,0.5,1,0.7C390.2,26.7,390.3,26.8,390.3,26.8z"/>
												</g>
											</g>
										</g>
									</g>
								</g>
							</g>
						</g>
					</g>
				</g>
				<g>
					<g>
						<g>
							<g>
								<path class="st30" d="M388.7,28.6c0.1,1.7,0.2,3.5-0.6,5c-0.8,1.5-2.8,2.5-4.3,1.7c-1.2-0.7-1.6-2.2-1.8-3.6
									c-0.6-4-0.9-8-1.5-12L388.7,28.6z"/>
							</g>
						</g>
					</g>
				</g>
				<g>
					<g>
						<g>
							<g>
								<g>
									<path class="st27" d="M357.1,7.7c0,0,0.6-0.1,1.6-0.1c1,0,2.5,0.1,4.1,0.8c0.8,0.3,1.7,0.8,2.6,1.3c0.9,0.6,1.8,1.3,2.7,2
										c1.8,1.5,3.6,3.4,5.2,5.6c0.8,1.1,1.5,2.3,2.3,3.3c0.8,1.1,1.6,2,2.5,2.8c1.8,1.6,3.7,2.7,5.3,3.5c1.6,0.8,2.9,1.4,3.9,1.8
										c0.4,0.2,0.8,0.3,1.1,0.5c0.2,0.1,0.4,0.1,0.4,0.1c0,0-0.1-0.1-0.4-0.2c-0.3-0.1-0.6-0.3-1-0.5c-0.9-0.4-2.2-1.1-3.8-1.9
										c-1.6-0.9-3.4-2-5.2-3.6c-0.9-0.8-1.7-1.7-2.4-2.8c-0.7-1-1.4-2.2-2.3-3.3c-1.6-2.3-3.5-4.1-5.3-5.7
										c-0.9-0.8-1.8-1.5-2.7-2c-0.9-0.6-1.8-1-2.7-1.3c-1.7-0.6-3.2-0.7-4.2-0.7c-0.5,0-0.9,0.1-1.2,0.2
										C357.2,7.7,357.1,7.7,357.1,7.7z"/>
								</g>
							</g>
						</g>
					</g>
				</g>
				<g>
					<g>
						<g>
							<g>
								<g>
									<path class="st27" d="M388.9,24.7c0,0,0.2,0.1,0.6,0.4c0.4,0.3,1,0.6,1.6,0.9c0.2,0.1,0.3,0.2,0.5,0.3
										c0.2,0.1,0.4,0.2,0.7,0.2c0.1,0,0.3,0,0.4-0.1c0.1-0.1,0.2-0.2,0.2-0.4c0-0.3-0.2-0.6-0.3-0.8c-0.6-0.9-1.2-1.9-1.8-2.9
										l-0.2,0.2c0.6,0.4,1.3,0.8,2,1c0.7,0.2,1.5,0.3,2.2,0.3c0.2,0,0.4,0,0.6-0.1c0.2-0.1,0.4-0.2,0.5-0.4
										c0.1-0.2,0-0.5-0.1-0.6c-0.1-0.2-0.2-0.3-0.4-0.4c-0.9-0.9-1.6-1.8-2.1-2.7c-1-1.7-1.3-2.9-1.4-2.9c0,0,0,0.3,0.2,0.8
										c0.2,0.5,0.5,1.3,0.9,2.2c0.5,0.9,1.2,1.9,2.1,2.8c0.2,0.2,0.5,0.5,0.4,0.7c-0.1,0.2-0.4,0.3-0.8,0.3c-0.7,0-1.4,0-2.1-0.3
										c-0.7-0.2-1.3-0.5-1.9-0.9l-0.7-0.5l0.5,0.8c0.7,1,1.3,2,1.9,2.9c0.1,0.2,0.3,0.4,0.3,0.6c0,0.2-0.2,0.3-0.4,0.3
										c-0.4,0-0.8-0.3-1.1-0.5c-0.6-0.3-1.2-0.6-1.6-0.8C389.1,24.8,388.9,24.7,388.9,24.7z"/>
								</g>
							</g>
						</g>
					</g>
				</g>
			</g>
			<g>
				<g>
					<g>
						<path class="st38" d="M370.4,41.4c-0.2-1-1.2-1.7-2.2-1.6c-0.7,0.1-1.4,0.6-1.7,1.2c-0.3,0.6-0.3,1.4-0.1,2.1l0,0.2
							c0.7,0.7,1.8,1,2.7,0.6C370.1,43.4,370.6,42.3,370.4,41.4z"/>
					</g>
				</g>
			</g>
			<g>
				<g>
					<g>
						<g>
							<g>
								<g>
									<g>
										<g>
											<g>
												<g>
													<g>
														<path class="st30" d="M365.4,43.2c0-0.2,1.6-0.2,2.8-1.5c1.2-1.3,1.1-3.1,1.4-3.1c0.1,0,0.3,0.4,0.3,1.1
															c0,0.7-0.3,1.7-1,2.6c-0.7,0.8-1.7,1.1-2.4,1.1C365.7,43.6,365.3,43.3,365.4,43.2z"/>
													</g>
												</g>
											</g>
										</g>
									</g>
								</g>
							</g>
						</g>
					</g>
				</g>
			</g>
		</g>
		<g>
			<g>
				<g>
					<g>
						<g>
							<g>
								<path class="st39" d="M340.7,167.3c1.5-7.5,6.1-32.9,6.1-38c0-0.8-1.3-3.5-1.6-4.3c-1.4-4.6-6.1-21.4-5-30.3
									c0.9-7.1,6.8-16.2,8.6-21c0.8-2.3,7.6-4.6,9.8-5.6l4.8-6.7c0,0-1,3.1,3.2,5.9c2.3,1.5,5,2.2,7.7,2c6-0.3,10.8-3.1,14.1-6.9
									l0.8,0.6c15.4,5,15.3,5,18.2,6.2c3.8,1.6-8.3,40.7-8.3,40.7s-7.1,26.4-3.3,34.6c2.2,4.6,9.5,12.2,11.3,16.5
									c0,0,3.2,4.5,3.3,5.6c0.1,1.1-19,9.4-34,10.2C348.6,178.6,340.7,167.3,340.7,167.3z"/>
							</g>
						</g>
					</g>
				</g>
			</g>
		</g>
		<g>
			<g>
				<g>
					<g>
						<g>
							<g>
								<g>
									<g>
										<g>
											<g>
												<path class="st27" d="M279.7,235.6l-9.1,19.5c0,0-22.6-3-24.6,0.5l37,19.3l15.4-29.9L279.7,235.6z"/>
											</g>
										</g>
									</g>
								</g>
							</g>
						</g>
					</g>
				</g>
				<g>
					<g>
						<g>
							<g>
								<g>
									<g>
										<g>
											<g>
												<g>
													<path class="st40" d="M282.7,259.4c0.6,0.6,0.7,1.6,0.2,2.3c-0.5,0.6-1.6,0.7-2.3,0.2c-0.6-0.6-0.8-1.8-0.2-2.4
														c0.6-0.6,1.9-0.6,2.4,0.1"/>
												</g>
											</g>
										</g>
									</g>
								</g>
							</g>
						</g>
					</g>
				</g>
				<g>
					<g>
						<g>
							<g>
								<g>
									<g>
										<g>
											<g>
												<path class="st30" d="M283,274.9l1.2-2.4l-36.3-18c0,0-1.6,0.1-2.2,1.2L283,274.9z"/>
											</g>
										</g>
									</g>
								</g>
							</g>
						</g>
					</g>
				</g>
				<g>
					<g>
						<g>
							<g>
								<g>
									<g>
										<g>
											<g>
												<g>
													<path class="st30" d="M270.3,255.1c-0.1,0.2,0.8,0.7,1.4,1.8c0.6,1,0.7,2.1,0.9,2.1c0.2,0.1,0.5-1.2-0.3-2.4
														C271.5,255.3,270.3,254.9,270.3,255.1z"/>
												</g>
											</g>
										</g>
									</g>
								</g>
							</g>
						</g>
					</g>
				</g>
				<g>
					<g>
						<g>
							<g>
								<g>
									<g>
										<g>
											<g>
												<g>
													<path class="st30" d="M265.5,254.8c-0.1,0.2,0.5,0.9,0.7,2c0.3,1.1,0,2,0.2,2.1c0.2,0.1,0.8-0.9,0.5-2.2
														C266.7,255.2,265.6,254.6,265.5,254.8z"/>
												</g>
											</g>
										</g>
									</g>
								</g>
							</g>
						</g>
					</g>
				</g>
				<g>
					<g>
						<g>
							<g>
								<g>
									<g>
										<g>
											<g>
												<g>
													<path class="st30" d="M260.9,258.3c0.1,0.1,0.9-0.7,0.9-1.9c0-1.2-0.6-2.1-0.8-2c-0.2,0.1,0.1,0.9,0.1,1.9
														C261.1,257.4,260.7,258.2,260.9,258.3z"/>
												</g>
											</g>
										</g>
									</g>
								</g>
							</g>
						</g>
					</g>
				</g>
				<g>
					<g>
						<g>
							<g>
								<g>
									<g>
										<g>
											<g>
												<g>
													<path class="st30" d="M272.9,250.9c0,0.2,1,0.4,2,1c1,0.6,1.6,1.3,1.8,1.2c0.2-0.1-0.3-1.2-1.5-1.8
														C274,250.5,272.8,250.7,272.9,250.9z"/>
												</g>
											</g>
										</g>
									</g>
								</g>
							</g>
						</g>
					</g>
				</g>
				<g>
					<g>
						<g>
							<g>
								<g>
									<g>
										<g>
											<g>
												<path class="st30" d="M274.3,246.4c0,0.1,0.6,0.6,1.9,0.9c0.6,0.2,1.4,0.3,2.3,0.4c0.4,0,0.9,0,1.4,0
													c0.2,0,0.5,0,0.8-0.2c0.3-0.1,0.7-0.5,0.6-0.9c0-0.4-0.3-0.7-0.6-0.8c-0.3-0.1-0.5-0.2-0.8-0.3
													c-0.5-0.1-0.9-0.2-1.4-0.2c-0.9,0-1.7,0.1-2.3,0.3c-1.3,0.4-1.9,0.9-1.9,1c0.1,0.1,0.8-0.3,2-0.5
													c0.6-0.1,1.3-0.2,2.2-0.1c0.4,0,0.8,0.1,1.2,0.2c0.5,0.1,0.8,0.3,0.8,0.5c0,0.1,0,0.1-0.1,0.2c-0.1,0.1-0.4,0.1-0.6,0.1
													c-0.4,0-0.9,0.1-1.3,0.1c-0.8,0-1.6-0.1-2.2-0.2C275.1,246.6,274.3,246.3,274.3,246.4z"/>
											</g>
										</g>
									</g>
								</g>
							</g>
						</g>
					</g>
				</g>
			</g>
			<g>
				<g>
					<g>
						<g>
							<g>
								<g>
									<g>
										<g>
											<g>
												<path class="st27" d="M314.9,267l1.1,21.5c0,0-21.4,7.9-21.6,11.9l41.7-0.3l-0.4-33.6L314.9,267z"/>
											</g>
										</g>
									</g>
								</g>
							</g>
						</g>
					</g>
				</g>
				<g>
					<g>
						<g>
							<g>
								<g>
									<g>
										<g>
											<g>
												<g>
													<path class="st40" d="M328.7,286.6c0.8,0.2,1.4,1.1,1.2,1.9c-0.2,0.8-1.1,1.4-1.9,1.2c-0.8-0.2-1.6-1.3-1.3-2.1
														c0.3-0.8,1.4-1.4,2.1-1.1"/>
												</g>
											</g>
										</g>
									</g>
								</g>
							</g>
						</g>
					</g>
				</g>
				<g>
					<g>
						<g>
							<g>
								<g>
									<g>
										<g>
											<g>
												<path class="st30" d="M336.2,300.2l0-2.7l-40.5,1.1c0,0-1.3,0.8-1.4,2.1L336.2,300.2z"/>
											</g>
										</g>
									</g>
								</g>
							</g>
						</g>
					</g>
				</g>
				<g>
					<g>
						<g>
							<g>
								<g>
									<g>
										<g>
											<g>
												<g>
													<path class="st30" d="M315.7,288.7c0,0.2,1,0.3,2.1,0.9c1,0.6,1.6,1.5,1.8,1.4c0.2,0-0.1-1.3-1.4-2
														C316.9,288.2,315.6,288.5,315.7,288.7z"/>
												</g>
											</g>
										</g>
									</g>
								</g>
							</g>
						</g>
					</g>
				</g>
				<g>
					<g>
						<g>
							<g>
								<g>
									<g>
										<g>
											<g>
												<g>
													<path class="st30" d="M311.3,290.6c0,0.2,0.9,0.5,1.6,1.4c0.7,0.8,0.9,1.8,1.1,1.8c0.2,0,0.3-1.2-0.6-2.2
														C312.5,290.5,311.3,290.4,311.3,290.6z"/>
												</g>
											</g>
										</g>
									</g>
								</g>
							</g>
						</g>
					</g>
				</g>
				<g>
					<g>
						<g>
							<g>
								<g>
									<g>
										<g>
											<g>
												<g>
													<path class="st30" d="M308.9,295.9c0.2,0,0.5-1-0.1-2.1c-0.5-1.1-1.5-1.5-1.6-1.4c-0.1,0.2,0.5,0.8,1,1.7
														C308.6,295,308.7,295.9,308.9,295.9z"/>
												</g>
											</g>
										</g>
									</g>
								</g>
							</g>
						</g>
					</g>
				</g>
				<g>
					<g>
						<g>
							<g>
								<g>
									<g>
										<g>
											<g>
												<g>
													<path class="st30" d="M316,283.7c0.1,0.2,1-0.1,2.2-0.1c1.2,0,2.1,0.4,2.2,0.2c0.1-0.2-0.8-0.9-2.2-0.9
														C316.8,282.9,315.9,283.6,316,283.7z"/>
												</g>
											</g>
										</g>
									</g>
								</g>
							</g>
						</g>
					</g>
				</g>
				<g>
					<g>
						<g>
							<g>
								<g>
									<g>
										<g>
											<g>
												<path class="st30" d="M315.1,279.1c0,0.1,0.8,0.2,2.1,0c0.6-0.1,1.4-0.3,2.2-0.7c0.4-0.2,0.8-0.4,1.2-0.7
													c0.2-0.1,0.4-0.3,0.6-0.5c0.2-0.2,0.3-0.8,0.1-1.1c-0.2-0.3-0.6-0.5-0.9-0.5c-0.3,0-0.6,0.1-0.8,0.1
													c-0.5,0.1-0.9,0.3-1.3,0.5c-0.8,0.4-1.4,0.9-1.9,1.3c-1,0.9-1.3,1.7-1.2,1.7c0.1,0.1,0.6-0.6,1.5-1.3
													c0.5-0.4,1.1-0.8,1.9-1.1c0.4-0.2,0.8-0.3,1.2-0.4c0.4-0.1,0.8-0.1,0.9,0.1c0,0.1,0,0.1,0,0.2c-0.1,0.1-0.3,0.2-0.5,0.4
													c-0.4,0.2-0.7,0.5-1.1,0.7c-0.7,0.4-1.4,0.6-2,0.8C315.9,278.9,315.1,279,315.1,279.1z"/>
											</g>
										</g>
									</g>
								</g>
							</g>
						</g>
					</g>
				</g>
			</g>
			<g>
				<g>
					<g>
						<g>
							<g>
								<g>
									<g>
										<g>
											<g>
												<g>
													<path class="st30" d="M410.2,163.8c0,0-85.4-10.1-90.3-10.1c-11.6,0-17,8.5-18.7,15.3c-1.3,5-27,77.7-27,77.7l19,9.8
														l27.9-49.6l14.2-24.7l73.3,11.3L410.2,163.8z"/>
												</g>
											</g>
										</g>
									</g>
								</g>
								<g>
									<g>
										<g>
											<g>
												<g>
													<path class="st30" d="M331.9,179.8c0,0-11.4,0-17.6,9.2c-3.6,5.4-2.4,15-2.4,22.3c-0.1,9.9,2.3,70.1,2.3,70.1l23.4,0.4
														l4.9-62.8l-0.3-11.6l46.8-3.8c0,0,4.3-14.2-6.2-25.4C381.4,176.8,331.9,179.8,331.9,179.8z"/>
												</g>
											</g>
										</g>
									</g>
								</g>
							</g>
						</g>
						<g>
							<g>
								<g>
									<g>
										<path class="st30" d="M410.2,164.9c0,0,7.3,16.8-2.5,31.2c-6.5,9.5-19,7.3-19,7.3l-16.6-20.7l13.2-20.6L410.2,164.9z"/>
									</g>
								</g>
							</g>
						</g>
					</g>
				</g>
			</g>
			<g>
				<g>
					<path class="st27" d="M314.1,281.4c0,0,0.1,0,0.4,0c0.3,0,0.7,0,1.2,0c1.1,0,2.7,0,4.7,0c4.1,0,9.9,0.1,17.1,0.2l-0.2,0.2
						c0.9-12.6,2.1-29.6,3.5-48.2c0.4-6.1,0.9-11.9,1.3-17.5l0,0c-0.1-3-0.1-5.9-0.2-8.7l0-0.3l0.2,0c13.3-1.1,24.6-2,32.6-2.8
						c4-0.4,7.2-0.7,9.3-0.9c1.1-0.1,1.9-0.2,2.5-0.3c0.5-0.1,0.8-0.2,0.8-0.2c0,0-0.3,0.1-0.8,0.2c-0.6,0.1-1.4,0.2-2.5,0.4
						c-2.2,0.3-5.3,0.7-9.3,1.1c-8,0.8-19.3,1.8-32.6,3l0.2-0.3c0.1,2.8,0.1,5.7,0.2,8.7l0,0l0,0c-0.4,5.6-0.8,11.5-1.3,17.5
						c-1.4,18.6-2.7,35.6-3.6,48.2l0,0.2l-0.2,0c-7.2-0.2-13-0.3-17.1-0.4c-2-0.1-3.6-0.1-4.7-0.1c-0.5,0-0.9,0-1.2-0.1
						C314.3,281.4,314.1,281.4,314.1,281.4z"/>
				</g>
			</g>
			<g>
				<g>
					<g>
						<path class="st27" d="M388.7,203.5c0,0-0.1-0.1-0.3-0.2c-0.2-0.1-0.5-0.3-0.9-0.4c-0.8-0.4-2.1-0.9-3.6-1.6
							c-3.2-1.4-7.7-3.4-13.3-5.9c-5.6-2.5-12.3-5.4-19.7-8.7c-3.7-1.6-7.6-3.4-11.7-5.1c-1-0.4-2-0.9-3.1-1.3
							c-1.1-0.4-2.2-0.6-3.3-0.8c-2.3-0.4-4.6-0.4-7-0.1c-2.3,0.3-4.6,0.9-6.7,1.9c-1,0.5-2,1.1-2.9,1.9c-0.9,0.8-1.6,1.7-2.1,2.7
							c-1.1,1.9-1.8,4.1-2,6.3c-0.1,1.1,0,2.1,0,3.2c0,1,0,2.1,0,3.1c0.1,8.1,0.2,15.4,0.2,21.6c0.1,6.1,0.2,11.1,0.2,14.5
							c0,1.7,0.1,3,0.1,4c0,0.4,0,0.8,0,1c0,0.2,0,0.4,0,0.4c0,0,0-0.1,0-0.4c0-0.3,0-0.6,0-1c0-0.9,0-2.3,0-4c0-3.5,0-8.4-0.1-14.5
							c0-6.1-0.1-13.5-0.1-21.6c0-1,0-2,0-3.1c0-1-0.1-2.1,0-3.1c0.2-2.1,0.8-4.2,1.9-6.1c0.6-0.9,1.2-1.8,2-2.5
							c0.8-0.8,1.8-1.3,2.8-1.8c2-1,4.3-1.6,6.6-1.9c2.3-0.3,4.6-0.3,6.8,0.1c1.1,0.2,2.2,0.4,3.2,0.8c1,0.4,2.1,0.9,3.1,1.3
							c4,1.8,7.9,3.5,11.7,5.1c7.4,3.2,14.1,6.2,19.8,8.6c5.6,2.4,10.2,4.4,13.3,5.8c1.6,0.7,2.8,1.2,3.6,1.6c0.4,0.2,0.7,0.3,1,0.4
							C388.6,203.5,388.7,203.5,388.7,203.5z"/>
					</g>
				</g>
			</g>
		</g>
		<g>
			<g>
				<g>
					<g>
						<g>
							<path class="st30" d="M346.5,119.5c0,0,0-0.5-0.2-1.4c-0.2-0.9-0.3-2.1-0.5-3.7c-0.2-1.6-0.3-3.4-0.3-5.5
								c0-2.1,0.1-4.4,0.4-6.8c0.3-2.4,0.7-4.6,1.2-6.7c0.5-2,1.1-3.8,1.6-5.3c0.5-1.5,1-2.7,1.4-3.5c0.3-0.8,0.5-1.3,0.5-1.3
								c0,0-0.3,0.4-0.7,1.2c-0.4,0.8-0.9,2-1.5,3.4c-0.6,1.5-1.2,3.3-1.7,5.3c-0.5,2-1,4.3-1.3,6.7c-0.3,2.4-0.4,4.7-0.3,6.8
								c0.1,2.1,0.2,4,0.4,5.6c0.2,1.6,0.5,2.8,0.7,3.7C346.3,119,346.4,119.5,346.5,119.5z"/>
						</g>
					</g>
				</g>
				<g>
					<g>
						<g>
							<path class="st31" d="M363.5,61.5l0-3.4l-4,6.6l-8.2,3c-2.6,3-11,36.6-9.3,42.2l2.9,32.9l-8.4,12.6l15,1.6
								c0,0,3.2-3.2,2.4-11.6c-2-21.3,0.1-45.7,0.4-51.1C354.7,86.1,363.5,61.5,363.5,61.5z"/>
						</g>
					</g>
				</g>
				<g>
					<g>
						<g>
							<g>
								<g>
									<g>
										<path class="st31" d="M359.4,64.6c0,0-13.5,4.4-15.3,7c-4.8,6.9-33.9,54.4-19.6,68.5c9.3,9.3,22.5-10.3,22.5-10.3
											L359.4,64.6z"/>
									</g>
								</g>
							</g>
						</g>
					</g>
				</g>
				<g>
					<g>
						<g>
							<path class="st30" d="M326.2,121.3c0,0,0.4-0.1,1.2-0.2c0.9-0.2,2-0.4,3.4-0.7c2.9-0.6,6.9-1.5,11.5-2.1L342,118
								c0.4,1.1,0.9,2.3,1.4,3.5c1.2,3,2.3,5.8,3.3,8.3l0-0.2c-2.1,2.6-3.8,4.7-5.1,6.4c-0.6,0.7-1,1.3-1.4,1.8
								c-0.3,0.4-0.5,0.7-0.5,0.7c0,0,0.2-0.2,0.6-0.6c0.4-0.5,0.9-1,1.5-1.7c1.3-1.6,3.1-3.7,5.2-6.2l0.1-0.1l0-0.1
								c-1-2.5-2.1-5.3-3.2-8.3c-0.5-1.2-0.9-2.4-1.4-3.5l-0.1-0.2l-0.2,0c-4.6,0.7-8.6,1.6-11.5,2.3c-1.4,0.3-2.6,0.6-3.3,0.9
								C326.6,121.1,326.2,121.2,326.2,121.3z"/>
						</g>
					</g>
				</g>
				<g>
					<g>
						<g>
							<path class="st30" d="M340.1,117.5c0,0,0-0.5-0.1-1.5c-0.1-1-0.3-2.4-0.5-4.1c-0.4-3.5-0.9-8.3-0.4-13.6
								c0.5-5.3,2.2-9.9,3.7-13c0.8-1.6,1.5-2.8,1.9-3.6c0.5-0.8,0.8-1.3,0.7-1.3c0,0-0.1,0.1-0.2,0.3c-0.2,0.2-0.4,0.5-0.6,0.9
								c-0.5,0.8-1.3,2-2.1,3.6c-1.6,3.1-3.5,7.7-3.9,13.1c-0.5,5.4,0.1,10.2,0.6,13.7c0.2,1.7,0.5,3.1,0.7,4.1
								C340,117,340.1,117.5,340.1,117.5z"/>
						</g>
					</g>
				</g>
				<g>
					<g>
						<g>
							<path class="st30" d="M352.3,111.8c0,0,0-0.2,0-0.5c0-0.4-0.1-0.9-0.1-1.6c-0.1-1.4-0.3-3.3-0.5-5.7
								c-0.2-2.4-0.5-5.3-0.8-8.4c-0.2-1.6-0.3-3.3-0.5-5c-0.1-0.9-0.2-1.7-0.1-2.6c0-0.9,0.2-1.7,0.7-2.5c0.5-0.8,1.5-1.4,2.4-1.4
								l0.9,0.1l-0.7-0.5c-1.2-0.8-2.4-1.6-3.6-2.4l0.1,0.3c2.8-4.8,5.2-8.9,7-11.9c0.8-1.4,1.5-2.6,2-3.5c0.2-0.4,0.4-0.7,0.5-0.9
								c0.1-0.2,0.2-0.3,0.2-0.3c0,0-0.1,0.1-0.2,0.3c-0.2,0.2-0.3,0.5-0.6,0.9c-0.5,0.8-1.2,2-2.1,3.4c-1.8,3-4.3,7.1-7.1,11.8
								l-0.1,0.2l0.2,0.1c1.1,0.8,2.3,1.6,3.6,2.4l0.1-0.4c-1.2-0.1-2.2,0.7-2.8,1.6c-0.5,0.8-0.7,1.8-0.8,2.7
								c0,0.9,0.1,1.8,0.1,2.7c0.2,1.7,0.4,3.4,0.5,5c0.3,3.2,0.7,6,0.9,8.4c0.3,2.4,0.5,4.3,0.7,5.7c0.1,0.6,0.1,1.1,0.2,1.5
								C352.3,111.7,352.3,111.8,352.3,111.8z"/>
						</g>
					</g>
				</g>
			</g>
			<g>
				<g>
					<g>
						<g>
							<path class="st31" d="M386.9,58.8l4,4.3l15,4.8c0,0-0.6,16.2-3.6,32.9c-3.3,18.5-5.1,37.4-5.2,37.7
								c-0.7-1.4,7.5,10,12.1,21.2c3.6,8.8,5.6,27.1,5.6,27.1l-37.8,11.6l-6.4-68.5l1.7-31.7L386.9,58.8z"/>
						</g>
					</g>
				</g>
				<g>
					<g>
						<g>
							<path class="st30" d="M372.4,115.1c0,0,0.1-0.2,0.3-0.6c0.2-0.4,0.4-1,0.7-1.7c0.6-1.4,1.6-3.5,2.7-6.1
								c2.4-5.1,5.9-12,10.3-19.4c0.3-0.6,0.7-1.1,1-1.7l0.1-0.2l-0.3-0.1c-1.5-0.6-2.9-1.2-4.3-1.8l0.1,0.4c1.4-1.2,3.1-2,4.7-2.4
								l0.2,0l0-0.2c0.2-2.8,0.8-5.3,1.3-7.5c0.5-2.2,1-4.2,1.2-5.9c0.3-1.7,0.4-3,0.4-3.9c0-0.5,0-0.8,0-1c0-0.2,0-0.4,0-0.4
								c0,0,0,0.5-0.1,1.4c-0.1,0.9-0.2,2.2-0.5,3.9c-0.3,1.6-0.8,3.6-1.3,5.8c-0.5,2.2-1.2,4.8-1.4,7.6l0.2-0.2
								c-1.7,0.4-3.4,1.2-4.9,2.4l-0.3,0.2l0.4,0.1c1.4,0.6,2.8,1.2,4.3,1.8l-0.1-0.3c-0.3,0.6-0.7,1.1-1,1.7
								c-4.4,7.4-7.9,14.3-10.2,19.5c-1.2,2.6-2,4.7-2.6,6.1c-0.3,0.7-0.5,1.3-0.7,1.7C372.4,114.9,372.4,115.1,372.4,115.1z"/>
						</g>
					</g>
				</g>
				<g>
					<g>
						<g>
							<path class="st30" d="M403.4,162.1c0,0,0.1,0.2,0.3,0.5c0.3,0.3,0.6,0.7,1,1.3c0.9,1.1,2.2,2.6,3.7,4.5l0.1-0.3
								c-4.7,0.9-11,2.1-18,3.4l0.2,0.1c-0.1-0.1-0.2-0.3-0.3-0.4c-1.8-2.5-3.5-4.8-5-7l-0.2,0.3c5.2-0.7,9.7-1.3,12.9-1.7
								c1.6-0.2,2.8-0.4,3.8-0.5c0.4-0.1,0.7-0.1,1-0.2C403.3,162.1,403.4,162.1,403.4,162.1c0,0-0.1,0-0.3,0c-0.3,0-0.6,0.1-1,0.1
								c-0.9,0.1-2.2,0.2-3.7,0.4c-3.3,0.4-7.8,0.9-13,1.5l-0.4,0l0.2,0.3c1.5,2.2,3.2,4.5,5,7c0.1,0.1,0.2,0.3,0.3,0.4l0.1,0.1
								l0.1,0c7-1.4,13.3-2.6,17.9-3.5l0.3-0.1l-0.2-0.2c-1.6-1.9-2.9-3.4-3.9-4.5c-0.4-0.5-0.8-0.9-1.1-1.2
								C403.6,162.2,403.4,162.1,403.4,162.1z"/>
						</g>
					</g>
				</g>
				<g class="st41">
					<g>
						<polygon points="406.3,168.7 407.5,171 390.6,174.6 386.4,165.8 390.6,171.7 						"/>
					</g>
				</g>
			</g>
		</g>
		<g>
			<g>
				<g>
					<g>
						<g>
							<g>
								<path class="st40" d="M280.7,114.1l9.2,45.3h63.9H370c0.9,0,1.6-0.7,1.6-1.6l0,0c0-0.9-0.7-1.6-1.6-1.6h-16.1l-8.5-42.1
									c-0.2-0.8-0.9-1.4-1.7-1.4l-61.2-0.7C281.3,112,280.5,113,280.7,114.1z"/>
							</g>
						</g>
					</g>
				</g>
				<g>
					<g>
						<g>
							<g>
								<g>
									<path class="st30" d="M280.7,114.1c0,0,0,0,0-0.1c0-0.1,0-0.2,0-0.4c0-0.4,0.2-0.9,0.8-1.3c0.2-0.1,0.3-0.2,0.5-0.2
										c0.2,0,0.4,0,0.6,0c0.4,0,0.9,0,1.4,0c1,0,2.2,0,3.6,0c5.4,0.1,13.3,0.1,23.1,0.2c4.9,0,10.3,0.1,16.1,0.2
										c2.9,0,5.9,0.1,9,0.1c1.6,0,3.1,0,4.7,0c0.8,0,1.6,0,2.4,0c0.2,0,0.4,0,0.6,0c0.2,0,0.4,0.1,0.6,0.2
										c0.4,0.2,0.7,0.5,0.9,0.9c0.1,0.2,0.1,0.4,0.2,0.6l0.1,0.6c0.1,0.4,0.2,0.8,0.2,1.2c0.2,0.8,0.3,1.6,0.5,2.5
										c0.3,1.7,0.7,3.3,1,5c0.7,3.4,1.4,6.9,2.1,10.4c1.4,7.1,2.9,14.5,4.5,22.1l-0.1-0.1c3,0,6.1,0,9.3,0c1.6,0,3.2,0,4.8,0h1.2
										h0.6c0.2,0,0.4,0,0.6,0c0.4,0.1,0.8,0.3,1,0.7c0.2,0.4,0.3,0.8,0.3,1.2c-0.1,0.5-0.4,1-0.9,1.2c-0.2,0.1-0.5,0.2-0.8,0.2
										l-0.7,0c-1,0-2,0-2.9,0c-1.9,0-3.9,0-5.8,0c-3.8,0-7.6,0-11.4,0c-7.5,0-14.7,0-21.7,0c-13.9,0-26.6,0-37.6,0h-0.1l0-0.1
										c-2.8-13.9-5.1-25.2-6.7-33.1c-0.8-3.9-1.4-7-1.8-9c-0.2-1-0.4-1.8-0.5-2.4C280.8,114.4,280.7,114.1,280.7,114.1
										s0.1,0.3,0.2,0.8c0.1,0.5,0.3,1.3,0.5,2.4c0.4,2.1,1.1,5.1,1.9,9c1.6,7.8,3.9,19.2,6.8,33.1l-0.1-0.1c11,0,23.7,0,37.6,0
										c6.9,0,14.2,0,21.7,0c3.7,0,7.5,0,11.4,0c1.9,0,3.9,0,5.8,0c1,0,1.9,0,2.9,0l0.7,0c0.2,0,0.5-0.1,0.7-0.2
										c0.4-0.2,0.7-0.6,0.8-1.1c0.1-0.4,0-0.8-0.2-1.1c-0.2-0.3-0.5-0.5-0.9-0.6c-0.2,0-0.4,0-0.6,0h-0.6l-1.2,0
										c-1.6,0-3.2,0-4.8,0c-3.2,0-6.3,0-9.3,0h-0.1l0-0.1c-1.5-7.6-3-15-4.5-22.1c-0.7-3.5-1.4-7-2.1-10.4c-0.3-1.7-0.7-3.4-1-5
										c-0.2-0.8-0.3-1.7-0.5-2.5c-0.1-0.4-0.2-0.8-0.2-1.2l-0.1-0.6c0-0.2-0.1-0.4-0.2-0.6c-0.2-0.4-0.4-0.7-0.8-0.8
										c-0.2-0.1-0.4-0.1-0.6-0.2c-0.2,0-0.4,0-0.6,0c-0.8,0-1.6,0-2.4,0c-1.6,0-3.2,0-4.7-0.1c-3.1,0-6.1-0.1-9-0.1
										c-5.8-0.1-11.2-0.1-16.1-0.2c-9.8-0.1-17.7-0.2-23.1-0.3c-1.4,0-2.6,0-3.6,0c-0.5,0-1,0-1.4,0c-0.2,0-0.4,0-0.6,0
										c-0.2,0-0.4,0.1-0.5,0.2c-0.6,0.4-0.8,0.9-0.8,1.3C280.7,113.9,280.7,114.1,280.7,114.1z"/>
								</g>
							</g>
						</g>
					</g>
				</g>
			</g>
			<g>
				<g>
					<g>
						<g>
							<circle class="st42" cx="315" cy="134.8" r="2.6"/>
						</g>
					</g>
				</g>
			</g>
			<g>
				<g>
					<g>
						<g>
							<g>
								<path class="st30" d="M280.8,114.5c0,0,0.1,0,0.3,0c0.2,0,0.5,0,0.8,0c0.7,0,1.8,0,3.1,0c2.7,0,6.6,0,11.4,0.1
									c9.7,0.1,23,0.2,37.8,0.3c1.8,0,3.7,0,5.5,0c0.4,0,0.9,0,1.3,0c0.2,0,0.5,0,0.7,0c0.2,0,0.5,0.1,0.6,0.3
									c0.4,0.3,0.7,0.7,0.8,1.1c0.1,0.4,0.2,0.9,0.3,1.3c0.7,3.4,1.3,6.7,2,9.8c1.2,6.3,2.4,11.9,3.3,16.7
									c0.9,4.7,1.7,8.6,2.2,11.2c0.3,1.3,0.5,2.3,0.6,3.1c0.1,0.3,0.1,0.6,0.1,0.8c0,0.2,0,0.3,0,0.3s0-0.1-0.1-0.3
									c0-0.2-0.1-0.4-0.2-0.8c-0.1-0.7-0.4-1.7-0.6-3c-0.5-2.7-1.3-6.5-2.3-11.2c-1-4.7-2.1-10.4-3.3-16.6c-0.6-3.1-1.3-6.4-2-9.8
									c-0.1-0.4-0.2-0.9-0.3-1.3c-0.1-0.4-0.4-0.8-0.7-1c-0.2-0.1-0.4-0.2-0.6-0.2c-0.2,0-0.4,0-0.6,0c-0.4,0-0.9,0-1.3,0
									c-1.8,0-3.6,0-5.5,0c-14.7-0.1-28.1-0.2-37.8-0.3c-4.8-0.1-8.7-0.1-11.4-0.1c-1.3,0-2.4,0-3.1,0c-0.4,0-0.6,0-0.8,0
									C280.9,114.5,280.8,114.5,280.8,114.5z"/>
							</g>
						</g>
					</g>
				</g>
			</g>
		</g>
		<g>
			<g>
				<g>
					<g>
						<g>
							<g>
								<g>
									<path class="st37" d="M363.4,134.5C363.4,134.5,363.5,134.5,363.4,134.5C363.5,134.5,363.4,134.5,363.4,134.5z"/>
								</g>
							</g>
						</g>
					</g>
					<g>
						<g>
							<g>
								<g>
									<path class="st37" d="M363.6,134.6C363.6,134.6,363.6,134.6,363.6,134.6C363.6,134.6,363.6,134.6,363.6,134.6z"/>
								</g>
							</g>
						</g>
					</g>
					<g>
						<g>
							<g>
								<g>
									<path class="st37" d="M363.5,134.5c0.1,0,0.1,0.1,0.1,0.1C363.5,134.6,363.5,134.5,363.5,134.5z"/>
								</g>
							</g>
						</g>
					</g>
					<g>
						<g>
							<g>
								<g>
									<path class="st37" d="M363.4,134.5C363.4,134.5,363.4,134.5,363.4,134.5C363.4,134.5,363.4,134.5,363.4,134.5z"/>
								</g>
							</g>
						</g>
					</g>
					<g>
						<path class="st37" d="M347.6,145.8c1.5-2.2,11.7-7.1,11.7-7.1l-2.5-0.9l-3,0.9c0,0-0.3,1.1-1.5,2.5c-1.2,1.4-2.8-0.4-2.8-0.4
							l1.9-5.6l6-2.7c0,0,5.2,1.4,6,1.9l2,2.3c0.9,0.9,3.4,4.3,4.2,4.5c0.2,0.1,7.3-2.3,7.3-2.3l2.9,13l-10.8,0.9l-6.6,1
							c0,0-3.7,1-5.4,1.2c-2.2,0.2-3.5-0.7-3.4-1.8c0.1-1.2,1.7-1.1,1.7-1.1s2.8-0.7,4.3-1.3c1.5-0.7,2.6-2.3,2.6-2.3l-2.3,0
							c0,0-5.2,2.8-7.2,3.5c-1.9,0.8-2.1-1.1-2.2-1.6c-0.1-0.6,6.1-5.4,6.1-5.4s-5.7,2.6-6.7,3.3c-1,0.7-2.5,0.8-2.7,0.2
							C347,148.1,346.1,148,347.6,145.8z"/>
					</g>
					<g>
						<g>
							<g>
								<g>
									<path class="st37" d="M363.7,134.6C363.7,134.6,363.7,134.7,363.7,134.6C363.7,134.7,363.7,134.6,363.7,134.6z"/>
								</g>
							</g>
						</g>
					</g>
					<g>
						<g>
							<g>
								<g>
									<path class="st37" d="M363.7,134.7C363.7,134.7,363.7,134.7,363.7,134.7L363.7,134.7z"/>
								</g>
							</g>
						</g>
					</g>
					<g>
						<g>
							<g>
								<g>
									<path class="st37" d="M363.7,134.7C363.7,134.7,363.7,134.7,363.7,134.7C363.7,134.7,363.7,134.7,363.7,134.7z"/>
								</g>
							</g>
						</g>
					</g>
				</g>
				<g>
					<g>
						<g>
							<g>
								<g>
									<path class="st38" d="M373.7,149.4c0,0,0-0.1,0.1-0.4c0-0.1,0-0.3,0-0.4c0-0.2,0-0.4,0-0.6c-0.1-0.9-0.5-2-1.2-3.1
										c-0.7-1.1-1.5-2-2-2.7c-0.6-0.6-1-1-1-1c0,0,0.3,0.4,0.9,1.1c0.5,0.7,1.3,1.6,2,2.7c0.7,1.1,1.1,2.2,1.2,3.1
										C373.7,148.9,373.6,149.4,373.7,149.4z"/>
								</g>
							</g>
						</g>
					</g>
				</g>
				<g>
					<g>
						<g>
							<g>
								<g>
									<path class="st38" d="M359.6,138.6c0,0.1,0.7,0.2,1.6,0c0.9-0.2,1.5-0.7,1.5-0.7c0-0.1-0.7,0.3-1.5,0.5
										C360.3,138.6,359.6,138.5,359.6,138.6z"/>
								</g>
							</g>
						</g>
					</g>
				</g>
				<g>
					<g>
						<g>
							<g>
								<g>
									<path class="st38" d="M357.2,144.7c0,0.1,1.1-0.2,2.5-0.6c1.4-0.4,2.5-0.7,2.5-0.8c0-0.1-1.1,0.2-2.5,0.6
										C358.3,144.3,357.2,144.6,357.2,144.7z"/>
								</g>
							</g>
						</g>
					</g>
				</g>
				<g>
					<g>
						<g>
							<g>
								<g>
									<path class="st38" d="M361.9,148.5c0,0.1,0.6-0.1,1.3-0.3c0.7-0.2,1.3-0.3,1.3-0.4c0-0.1-0.6,0-1.3,0.2
										C362.5,148.2,361.9,148.4,361.9,148.5z"/>
								</g>
							</g>
						</g>
					</g>
				</g>
				<g>
					<g>
						<g>
							<g>
								<g>
									<path class="st38" d="M358,145.2c0,0.1,0.5,0.3,0.8,0.9c0.4,0.6,0.3,1.2,0.4,1.2c0,0,0.1-0.1,0.1-0.4
										c0-0.2-0.1-0.6-0.3-0.9c-0.2-0.3-0.5-0.6-0.7-0.7C358.1,145.2,358,145.2,358,145.2z"/>
								</g>
							</g>
						</g>
					</g>
				</g>
				<g>
					<g>
						<g>
							<g>
								<g>
									<path class="st38" d="M356.2,141.4c0,0.1,0.4,0.3,0.6,0.8c0.2,0.5,0.2,1,0.2,1c0.1,0,0.2-0.5,0-1.1
										C356.7,141.6,356.2,141.4,356.2,141.4z"/>
								</g>
							</g>
						</g>
					</g>
				</g>
				<g>
					<g>
						<g>
							<g>
								<g>
									<path class="st38" d="M357.7,135.2c0,0,0.1-0.1,0.2-0.3c0.1-0.2,0.2-0.5,0.1-0.8c0-0.3-0.2-0.6-0.3-0.8
										c-0.1-0.2-0.3-0.2-0.3-0.2c0,0,0.3,0.4,0.4,1C357.8,134.8,357.6,135.2,357.7,135.2z"/>
								</g>
							</g>
						</g>
					</g>
				</g>
			</g>
			<g>
				<g>
					<g>
						<g>
							<g>
								<g>
									<g>
										<path class="st31" d="M406,68c0,0,6.9,2.6,9,10.6c0,0,1.6,5,2.8,10.5c2.9,13.5,8.1,36.4,8.3,43.2
											c0.5,12.1-8.3,15.6-13.3,16.6c-4.9,1.1-35.5,4.8-35.5,4.8l-5.3-15.1l31.2-13.6c0,0-5.9-20.4-7.3-26.8"/>
									</g>
								</g>
								<g>
									<g>
										<path class="st30" d="M395.8,98.2c0,0,0.1,0.2,0.1,0.5c0.1,0.3,0.2,0.8,0.4,1.4c0.3,1.2,0.8,3,1.4,5.3
											c1.3,4.6,3.2,11.3,5.6,19.6l0,0.2l-0.2,0.1c-8.6,3.8-19.3,8.4-31.1,13.6l0.1-0.3c1.7,4.8,3.5,9.9,5.4,15.1l-0.3-0.2
											c7.9-1,16.4-2.1,25.1-3.3c3.5-0.5,7-0.9,10.4-1.6c3.3-0.7,6.5-2.2,8.9-4.5c2.4-2.3,3.7-5.5,4-8.6c0-0.4,0.1-0.8,0.1-1.2
											l0-1.2c0-0.8,0-1.6-0.1-2.4c-0.2-1.6-0.4-3.1-0.6-4.6c-1-6.1-2.2-11.8-3.3-17.2c-1.1-5.4-2.2-10.4-3.2-14.9
											c-0.5-2.3-1-4.4-1.4-6.5c-0.5-2-1-4-1.5-5.7c-0.5-1.8-1-3.4-1.5-4.9c-0.5-1.5-1.3-2.7-2.1-3.8c-1.6-2.1-3.2-3.3-4.4-4
											c-0.6-0.4-1-0.6-1.4-0.8C406.1,68,406,68,406,68c0,0,0.2,0,0.5,0.2c0.3,0.1,0.8,0.4,1.4,0.7c1.2,0.7,2.9,1.9,4.5,4
											c0.8,1,1.6,2.3,2.1,3.8c0.5,1.5,1,3.2,1.6,4.9c0.5,1.8,1,3.7,1.5,5.7c0.5,2.1,0.9,4.2,1.4,6.5c1,4.6,2.1,9.6,3.2,14.9
											c1.1,5.4,2.3,11.1,3.4,17.2c0.3,1.5,0.5,3.1,0.6,4.7c0.1,0.8,0.1,1.6,0.1,2.4l0,1.2c0,0.4-0.1,0.8-0.1,1.2
											c-0.3,3.2-1.7,6.6-4.1,9c-2.4,2.4-5.7,3.9-9.1,4.7c-3.4,0.7-6.9,1.1-10.4,1.6c-8.7,1.2-17.2,2.3-25.1,3.2l-0.2,0l-0.1-0.2
											c-1.8-5.2-3.6-10.3-5.3-15.1l-0.1-0.2l0.2-0.1c11.9-5.2,22.5-9.8,31.2-13.5L403,125c-2.4-8.3-4.2-15-5.4-19.6
											c-0.6-2.3-1-4.1-1.3-5.3c-0.1-0.6-0.2-1.1-0.3-1.4C395.8,98.4,395.8,98.2,395.8,98.2z"/>
									</g>
								</g>
							</g>
						</g>
					</g>
				</g>
			</g>
			<g>
				<g>
					<path class="st30" d="M394.5,92.5c0,0-0.1-0.3-0.2-1c-0.1-0.6-0.1-1.6-0.1-2.7c0-2.3,0.4-5.5,1.5-8.8c1.1-3.3,2.8-6.1,4.2-7.9
						c0.7-0.9,1.3-1.6,1.7-2.1c0.4-0.5,0.7-0.7,0.7-0.7c0.1,0.1-0.9,1.1-2.2,3c-1.3,1.9-2.8,4.6-4,7.8c-1.1,3.3-1.6,6.4-1.7,8.6
						C394.5,91,394.6,92.4,394.5,92.5z"/>
				</g>
			</g>
		</g>
	</g>
</g>
</svg>
