<?xml version="1.0" encoding="utf-8"?>
<!-- Generator: Adobe Illustrator 26.3.1, SVG Export Plug-In . SVG Version: 6.00 Build 0)  -->
<svg version="1.1" id="Layer_1" xmlns="http://www.w3.org/2000/svg" xmlns:xlink="http://www.w3.org/1999/xlink" x="0px" y="0px"
	 viewBox="0 0 347.3 344.4" style="enable-background:new 0 0 347.3 344.4;" xml:space="preserve">
<style type="text/css">
	.st0{fill:#0F5BA9;}
	.st1{fill:#FFFFFF;}
	.st2{fill:#F4F7FA;}
	.st3{fill:#9D3060;}
	.st4{fill:#C281E8;}
	.st5{fill:#D8DEE8;}
	.st6{fill:url(#SVGID_1_);}
	.st7{fill:#A67FF7;}
	.st8{fill:url(#SVGID_00000046327848310198228590000013223385859674191520_);}
	.st9{clip-path:url(#SVGID_00000078020444882224305360000005321868460228098453_);}
	.st10{fill:url(#SVGID_00000147203642380725475690000002844803495342883973_);}
	.st11{fill:url(#SVGID_00000044856646583702783230000015200140256698161046_);}
	.st12{fill:url(#SVGID_00000120525987774298749420000004812638704082206106_);}
	.st13{clip-path:url(#SVGID_00000100383228308977671400000015397865449545868961_);}
	.st14{fill:#FFC244;}
	.st15{fill:url(#SVGID_00000147207500671053926880000004290698799977510302_);}
	.st16{fill:url(#SVGID_00000013156557666450085040000005967687090029648292_);}
	.st17{fill:url(#SVGID_00000041254581548897165310000006307875114918739873_);}
	.st18{fill:url(#SVGID_00000112614815967486312110000008483028083334356638_);}
	.st19{fill:url(#SVGID_00000139285533898373335100000011080799704200761767_);}
	.st20{fill:url(#SVGID_00000021827114281006867370000016675383430962008508_);}
	.st21{opacity:0.3;fill:url(#SVGID_00000038380187645061901100000010367792559553622456_);enable-background:new    ;}
	.st22{fill:url(#SVGID_00000177483213045375502940000002725452643457236616_);}
	.st23{fill:url(#SVGID_00000138532969343227400060000002990601280476483507_);}
	.st24{fill:#26C5CB;}
	.st25{fill:url(#SVGID_00000065771151138460848780000005538678684285089176_);}
	.st26{fill:url(#SVGID_00000088822540660460690580000009412015324879125153_);}
	.st27{fill:url(#SVGID_00000059311610357122625890000000136034174043082655_);}
	.st28{fill:url(#SVGID_00000021827563036230571630000015304553911746874296_);}
	.st29{fill:url(#SVGID_00000036233084115936385320000007409357412481778306_);}
	.st30{opacity:0.3;fill:url(#SVGID_00000106861760897091756810000000864692777546867863_);enable-background:new    ;}
	.st31{fill:url(#SVGID_00000087398796637386143720000008258486466113811862_);}
	.st32{fill:url(#SVGID_00000027590158281264441550000002926227389613840308_);}
	.st33{fill:url(#SVGID_00000152228955913801006050000009845675335903983765_);}
	.st34{fill:url(#SVGID_00000150088091069235140530000001230451329073684659_);}
	.st35{fill:url(#SVGID_00000137112960283394617240000015236682350285847940_);}
	.st36{fill:url(#SVGID_00000090292399763586057230000006999986103630947219_);}
	.st37{fill:url(#SVGID_00000060027924056505047520000002462220339310101147_);}
	.st38{fill:#34E8E8;}
	.st39{fill:url(#SVGID_00000004516832662175007570000010526472301834714554_);}
	.st40{fill:url(#SVGID_00000135655401522990042740000001655060427351658142_);}
	.st41{fill:#B7C0CE;}
	.st42{opacity:0.81;fill:#F4F7FA;enable-background:new    ;}
	.st43{fill:#BFC8D6;}
	.st44{fill:#BA4076;}
	.st45{opacity:0.48;fill:#FFFFFF;enable-background:new    ;}
	.st46{opacity:0.47;fill:#D8DEE8;enable-background:new    ;}
	.st47{fill:url(#SVGID_00000008149000322367242810000008594559306392066441_);}
	.st48{fill:url(#SVGID_00000034771211449478305140000009925213142873620100_);}
	.st49{fill:url(#SVGID_00000162328690187089906520000008182092337480512918_);}
	.st50{fill:url(#SVGID_00000124871458815415255790000009029035802344008620_);}
	.st51{fill:url(#SVGID_00000134935168097856255350000016224412330103979951_);}
	.st52{fill:url(#SVGID_00000011018505655541510280000006379888033089826729_);}
	.st53{fill:#F27420;}
	.st54{fill:url(#SVGID_00000111167340769632010120000006605706833439756199_);}
	.st55{fill:url(#SVGID_00000057143340536965643990000017373276321892745122_);}
	.st56{fill:#26264F;}
	.st57{fill:url(#SVGID_00000182523837570209351570000010250027203732897686_);}
	.st58{opacity:0.3;fill:url(#SVGID_00000123424125854888627490000013259892087474150797_);enable-background:new    ;}
	.st59{fill:url(#SVGID_00000179625294952803131040000000770013258422720647_);}
	.st60{fill:url(#SVGID_00000091006311595666672200000017133721208002096524_);}
	.st61{fill:url(#SVGID_00000009570731598754854580000002642442622847011989_);}
	.st62{fill:url(#SVGID_00000054988647942883969880000017701436507175699092_);}
	.st63{fill:url(#SVGID_00000000218233889585334980000007994558264692921992_);}
	.st64{fill:url(#SVGID_00000065050913357078995300000003092357660234047113_);}
	.st65{fill:url(#SVGID_00000158707700691453213260000014595068847616745658_);}
	.st66{fill:#4F3483;}
	.st67{fill:url(#SVGID_00000023995162116860539840000002620744703549908390_);}
	.st68{fill:url(#SVGID_00000129899319713122123070000003501238930162416277_);}
	.st69{opacity:0.3;fill:url(#SVGID_00000090284458595715815620000005437735994042992276_);enable-background:new    ;}
	.st70{fill:url(#SVGID_00000137118156535885793510000008311510374320350082_);}
	.st71{fill:url(#SVGID_00000143605273274274512990000009753693215549239427_);}
	.st72{fill:#412B6C;}
	.st73{opacity:0.3;fill:url(#SVGID_00000116213881995327975040000000501156339752168624_);enable-background:new    ;}
	.st74{opacity:0.65;fill:url(#SVGID_00000173136242164433035840000009320540812047142814_);enable-background:new    ;}
	.st75{fill:url(#SVGID_00000111154108665097290270000014468985088382670493_);}
	.st76{opacity:0.26;fill:#FFFFFF;enable-background:new    ;}
	.st77{opacity:0.3;fill:url(#SVGID_00000034070774614106625280000003735854732814576018_);enable-background:new    ;}
	.st78{opacity:0.65;fill:url(#SVGID_00000101808398583648207820000017478207415908138942_);enable-background:new    ;}
	.st79{fill:url(#SVGID_00000173864972203150479910000008547208879947158150_);}
</style>
<g>
	<g>
		<path class="st0" d="M328.2,193.2V20.1c0-3.5-2.9-6.6-6.5-6.7L24.2,1.4c-4.5-0.2-8.2,2.9-8.2,7v191.3L328.2,193.2z"/>
		<g>
			<path class="st1" d="M25.2,35v149.5c0,3.7,3.5,6.7,7.7,6.6l282.3-8c3.4-0.1,6.1-2.9,6.1-6.2V43.4L25.2,35z"/>
			<path class="st2" d="M321.3,43.4V28.1c0-3.3-2.7-6-6-6.1L32.7,11.4c-4.1-0.1-7.5,2.7-7.5,6.4V35L321.3,43.4z"/>
			<g>
				<path class="st3" d="M45.9,23.3c0,1.3-1.2,2.3-2.6,2.2s-2.6-1.1-2.6-2.4c0-1.3,1.2-2.3,2.6-2.2C44.7,21,45.9,22,45.9,23.3z"/>
				<path class="st3" d="M57.1,23.7c0,1.3-1.2,2.3-2.6,2.2c-1.4,0-2.6-1.1-2.6-2.4c0-1.3,1.2-2.3,2.6-2.2
					C56,21.4,57.1,22.4,57.1,23.7z"/>
				<path class="st3" d="M68.3,24.1c0,1.3-1.1,2.3-2.6,2.2c-1.4,0-2.6-1.1-2.6-2.4c0-1.3,1.1-2.3,2.6-2.2
					C67.1,21.7,68.3,22.8,68.3,24.1z"/>
			</g>
			<g>
				<g>
					<g>
						<path class="st2" d="M300.3,108.5l-67.3-0.2c-1.8,0-3.3-1.4-3.3-3.1V57.7c0-1.7,1.5-3.1,3.3-3l67.3,1.7c1.7,0,3.1,1.4,3.1,3.1
							v46C303.4,107.2,302,108.6,300.3,108.5z"/>
						<polygon class="st1" points="229.4,90.3 229.4,91.7 303.7,92.5 303.7,91.1 						"/>
					</g>
					<g>
						<path class="st4" d="M256.8,98.8l-18.5-0.1c-0.1,0-0.2-0.1-0.2-0.2v-2.3c0-0.1,0.1-0.2,0.2-0.2l18.5,0.2
							c0.1,0,0.2,0.1,0.2,0.2v2.3C257,98.8,256.9,98.8,256.8,98.8z"/>
						<path class="st5" d="M279.2,104.1l-40.9-0.2c-0.1,0-0.2-0.1-0.2-0.2v-2.3c0-0.1,0.1-0.2,0.2-0.2l40.9,0.3
							c0.1,0,0.2,0.1,0.2,0.2v2.3C279.4,104,279.3,104.1,279.2,104.1z"/>
					</g>
					<g>
						<g>
							
								<linearGradient id="SVGID_1_" gradientUnits="userSpaceOnUse" x1="230.1281" y1="249.5535" x2="285.7074" y2="249.5535" gradientTransform="matrix(1.0061 -1.510000e-02 0 -1 7.2765 326.9196)">
								<stop  offset="0" style="stop-color:#FF9085"/>
								<stop  offset="1" style="stop-color:#FB6FBB"/>
							</linearGradient>
							<path class="st6" d="M239.8,83.8c-0.2,0-0.4-0.1-0.5-0.2c-0.4-0.3-0.6-0.9-0.3-1.3c5.1-7.9,10.7-12.2,16.8-12.7
								c3.9-0.3,6.8,1,9.6,2.3c2.5,1.1,5.1,2.3,8.4,2.4c6.2,0.2,12.7-3.4,19.2-10.8c0.4-0.4,1-0.4,1.4-0.1c0.4,0.4,0.4,1,0.1,1.4
								c-6.9,7.8-13.9,11.6-20.8,11.4c-3.8-0.1-6.5-1.4-9.2-2.6c-2.7-1.2-5.3-2.4-8.6-2.1c-5.4,0.5-10.6,4.4-15.3,11.8
								C240.4,83.6,240.1,83.8,239.8,83.8z"/>
							<g>
								<path class="st1" d="M277.3,75.3c0,1.4-1.2,2.6-2.7,2.6c-1.5,0-2.7-1.2-2.7-2.7s1.2-2.6,2.7-2.6
									C276.1,72.6,277.3,73.8,277.3,75.3z"/>
								<path class="st7" d="M274.7,78.4C274.7,78.4,274.6,78.4,274.7,78.4c-1.8,0-3.2-1.4-3.2-3.2c0-0.8,0.3-1.6,0.9-2.2
									c0.6-0.6,1.4-0.9,2.3-0.9c1.8,0,3.2,1.4,3.2,3.2c0,0.8-0.3,1.6-0.9,2.2C276.3,78,275.5,78.4,274.7,78.4z M274.6,73.1
									c-0.6,0-1.1,0.2-1.5,0.6c-0.4,0.4-0.6,0.9-0.6,1.5c0,1.2,1,2.2,2.2,2.2c0.6,0,1.2-0.2,1.6-0.6c0.4-0.4,0.6-0.9,0.6-1.5
									C276.8,74.1,275.8,73.1,274.6,73.1C274.6,73.1,274.6,73.1,274.6,73.1z"/>
							</g>
						</g>
						<g>
							<polygon class="st5" points="262.3,63.8 238.6,63.3 238.6,59.4 262.3,60 							"/>
						</g>
						<polygon class="st4" points="287.9,81.3 278.5,81.2 278.5,78.3 287.9,78.4 						"/>
					</g>
				</g>
				<g>
					<g>
						<path class="st2" d="M124.3,171.6l-77.4,1.6c-2.1,0-3.8-1.4-3.8-3.3V119c0-1.8,1.7-3.3,3.8-3.3l77.4,0.1
							c1.9,0,3.5,1.4,3.5,3.2v49.3C127.9,170.1,126.3,171.6,124.3,171.6z"/>
						<polygon class="st1" points="128,152.1 42.8,153.2 42.8,154.7 128,153.5 						"/>
					</g>
					<g>
						<polygon class="st5" points="121.1,137.5 52.6,138 52.6,121.7 121.1,121.6 						"/>
						<polygon class="st5" points="121.1,146.2 52.6,146.9 52.6,141.2 121.1,140.6 						"/>
					</g>
					<g>
						<path class="st5" d="M74.3,161.6L52.7,162c-0.1,0-0.2-0.1-0.2-0.2v-2.5c0-0.1,0.1-0.2,0.2-0.2l21.6-0.3c0.1,0,0.2,0.1,0.2,0.2
							v2.5C74.5,161.5,74.4,161.6,74.3,161.6z"/>
						<path class="st5" d="M94.5,166.8l-41.8,0.8c-0.1,0-0.2-0.1-0.2-0.2v-2.5c0-0.1,0.1-0.2,0.2-0.2l41.8-0.7
							c0.1,0,0.2,0.1,0.2,0.2v2.4C94.7,166.7,94.6,166.8,94.5,166.8z"/>
					</g>
				</g>
				<g>
					<g>
						<path class="st2" d="M215.7,108.2l-72.1-0.3c-1.9,0-3.5-1.5-3.5-3.2V55.6c0-1.8,1.6-3.2,3.5-3.1l72.1,1.8
							c1.8,0,3.3,1.5,3.3,3.2v47.6C219,106.8,217.5,108.2,215.7,108.2z"/>
						<polygon class="st1" points="219.4,90.2 140,89.4 140,90.8 219.4,91.6 						"/>
						<polygon class="st1" points="187.7,53.2 187.7,90.9 189.2,90.9 189.2,53.3 						"/>
					</g>
					<g>
						<path class="st4" d="M177.8,98.2l-28-0.2c-0.1,0-0.2-0.1-0.2-0.2v-2.4c0-0.1,0.1-0.2,0.2-0.2l28,0.2c0.1,0,0.2,0.1,0.2,0.2V98
							C178,98.2,177.9,98.3,177.8,98.2z"/>
						<path class="st5" d="M185.2,103.6l-35.5-0.2c-0.1,0-0.2-0.1-0.2-0.2v-2.4c0-0.1,0.1-0.2,0.2-0.2l35.5,0.2
							c0.1,0,0.2,0.1,0.2,0.2v2.4C185.5,103.5,185.4,103.6,185.2,103.6z"/>
					</g>
					<g>
						<polygon class="st5" points="214.9,66.8 193.2,66.4 193.2,58.4 214.9,58.9 						"/>
						<polygon class="st5" points="214.9,86 193.2,85.8 193.2,69.8 214.9,70.2 						"/>
					</g>
					<g>
						<path class="st1" d="M163.6,66.2c3.4,0.1,6.1,2.7,6.1,5.8c0,0.9-0.2,1.7-0.6,2.4l7.1,3.2c0.9-1.7,1.3-3.5,1.3-5.5
							c0-7.1-6.2-13.1-13.9-13.2c0,0,0,0-0.1,0L163.6,66.2C163.6,66.2,163.6,66.2,163.6,66.2z"/>
						
							<linearGradient id="SVGID_00000061448872513900458070000005199495810887500683_" gradientUnits="userSpaceOnUse" x1="141.391" y1="252.6504" x2="167.8695" y2="252.6504" gradientTransform="matrix(1.0061 -1.510000e-02 0 -1 7.2765 326.9196)">
							<stop  offset="0" style="stop-color:#FF9085"/>
							<stop  offset="1" style="stop-color:#FB6FBB"/>
						</linearGradient>
						<path style="fill:url(#SVGID_00000061448872513900458070000005199495810887500683_);" d="M169.1,74.5c-1,1.9-3.1,3.2-5.5,3.1
							c-3.4-0.1-6.1-2.6-6.1-5.8c0-3.1,2.7-5.6,6.1-5.6v-7.3c-7.7-0.1-14,5.6-14,12.8c0,7.2,6.3,13.2,14.1,13.3
							c5.6,0.1,10.4-2.9,12.6-7.3L169.1,74.5z"/>
					</g>
				</g>
				<g>
					<g>
						<path class="st2" d="M127.9,104.7c0,1.8-1.6,3.2-3.5,3.2l-77.4-0.3c-2.1,0-3.8-1.5-3.8-3.4V53.3c0-1.8,1.7-3.3,3.8-3.2
							l77.4,1.9c1.9,0,3.5,1.5,3.5,3.3V104.7z"/>
						<polygon class="st1" points="128,89.3 42.8,88.4 42.8,89.8 128,90.7 						"/>
						<polygon class="st1" points="83.9,50.7 83.9,89.8 85.5,89.8 85.5,50.7 						"/>
					</g>
					<g>
						<polygon class="st5" points="76.6,74.2 52.6,73.8 52.6,55.2 76.6,55.7 						"/>
						<polygon class="st5" points="76.6,84.3 52.6,84 52.6,77.4 76.6,77.8 						"/>
					</g>
					<g>
						<path class="st4" d="M64.5,97.4l-11.8-0.1c-0.1,0-0.2-0.1-0.2-0.2v-2.5c0-0.1,0.1-0.2,0.2-0.2l11.8,0.1c0.1,0,0.2,0.1,0.2,0.2
							v2.5C64.7,97.3,64.6,97.4,64.5,97.4z"/>
						<path class="st5" d="M99.7,103.2l-47.1-0.2c-0.1,0-0.2-0.1-0.2-0.2v-2.5c0-0.1,0.1-0.2,0.2-0.2l47.1,0.3
							c0.1,0,0.2,0.1,0.2,0.2v2.4C100,103.1,99.9,103.2,99.7,103.2z"/>
					</g>
					<g>
						<polygon class="st1" points="99,84.1 92.2,84.1 92.2,56.1 99,56.2 						"/>
						<polygon class="st1" points="110.2,84.3 103.5,84.2 103.5,56.3 110.2,56.5 						"/>
						<polygon class="st1" points="121.3,84.4 114.7,84.3 114.7,56.6 121.3,56.7 						"/>
						<g>
							<g>
								<defs>
									<path id="SVGID_00000003098120770729757170000004639324345245341841_" d="M89.6,72.1c0,4.3,0,8.6,0,12.9
										c11.3,0.1,22.6,0.3,33.8,0.4c0-5.5,0-11,0-16.5c-8.9-4.2-14-3.8-16.9-2.7c-3.3,1.3-5.2,4.1-10.8,5.3
										C93.1,72.1,91,72.1,89.6,72.1z"/>
								</defs>
								<clipPath id="SVGID_00000010300329843304709080000003560955281317036930_">
									<use xlink:href="#SVGID_00000003098120770729757170000004639324345245341841_"  style="overflow:visible;"/>
								</clipPath>
								<g style="clip-path:url(#SVGID_00000010300329843304709080000003560955281317036930_);">
									
										<linearGradient id="SVGID_00000078037829963688797690000015852518243396519337_" gradientUnits="userSpaceOnUse" x1="77.9615" y1="257.4825" x2="106.3907" y2="232.2657" gradientTransform="matrix(1.0061 -1.510000e-02 0 -1 7.2765 326.9196)">
										<stop  offset="0" style="stop-color:#FF9085"/>
										<stop  offset="1" style="stop-color:#FB6FBB"/>
									</linearGradient>
									<polygon style="fill:url(#SVGID_00000078037829963688797690000015852518243396519337_);" points="99,84.1 92.2,84.1 
										92.2,69.5 99,69.6 									"/>
									
										<linearGradient id="SVGID_00000047021821097956863230000007069215343748044673_" gradientUnits="userSpaceOnUse" x1="85.1734" y1="264.1244" x2="113.1902" y2="239.2733" gradientTransform="matrix(1.0061 -1.510000e-02 0 -1 7.2765 326.9196)">
										<stop  offset="0" style="stop-color:#FF9085"/>
										<stop  offset="1" style="stop-color:#FB6FBB"/>
									</linearGradient>
									<polygon style="fill:url(#SVGID_00000047021821097956863230000007069215343748044673_);" points="110.2,84.3 103.5,84.2 
										103.5,62.8 110.2,62.9 									"/>
									
										<linearGradient id="SVGID_00000046323013574514887460000004730072863119385483_" gradientUnits="userSpaceOnUse" x1="89.812" y1="268.2713" x2="117.7507" y2="243.4895" gradientTransform="matrix(1.0061 -1.510000e-02 0 -1 7.2765 326.9196)">
										<stop  offset="0" style="stop-color:#FF9085"/>
										<stop  offset="1" style="stop-color:#FB6FBB"/>
									</linearGradient>
									<polygon style="fill:url(#SVGID_00000046323013574514887460000004730072863119385483_);" points="121.3,84.4 114.7,84.3 
										114.7,65.5 121.3,65.6 									"/>
								</g>
							</g>
						</g>
					</g>
				</g>
				<g>
					<g>
						<path class="st2" d="M300.3,168l-67.3,1.4c-1.8,0-3.3-1.3-3.3-3.1v-47.4c0-1.7,1.5-3.1,3.3-3.1l67.3,0c1.7,0,3.1,1.4,3.1,3
							v46.1C303.4,166.6,302,168,300.3,168z"/>
						<polygon class="st1" points="229.4,150.8 229.4,152.1 303.7,151.1 303.7,149.8 						"/>
					</g>
					<g>
						<path class="st4" d="M250.9,158.7l-12.6,0.2c-0.1,0-0.2-0.1-0.2-0.2v-2.3c0-0.1,0.1-0.2,0.2-0.2l12.6-0.2
							c0.1,0,0.2,0.1,0.2,0.2v2.3C251.1,158.6,251,158.7,250.9,158.7z"/>
						<path class="st5" d="M264.1,163.6l-25.8,0.5c-0.1,0-0.2-0.1-0.2-0.2v-2.3c0-0.1,0.1-0.2,0.2-0.2l25.8-0.4
							c0.1,0,0.2,0.1,0.2,0.2v2.3C264.4,163.5,264.2,163.6,264.1,163.6z"/>
					</g>
					<g>
						<polygon class="st1" points="240.6,145.8 236.8,145.8 236.8,122 240.6,122 						"/>
						<polygon class="st1" points="246.4,145.7 242.5,145.7 242.5,121.9 246.4,121.9 						"/>
						<polygon class="st1" points="252.2,145.6 248.3,145.7 248.3,121.9 252.2,121.9 						"/>
						<polygon class="st1" points="257.9,145.6 254,145.6 254,121.9 257.9,121.9 						"/>
						<polygon class="st1" points="263.6,145.5 259.7,145.5 259.7,121.9 263.6,121.9 						"/>
						<polygon class="st1" points="269.2,145.4 265.4,145.5 265.4,121.9 269.2,121.9 						"/>
						<polygon class="st1" points="274.9,145.4 271.1,145.4 271.1,121.9 274.9,121.9 						"/>
						<polygon class="st1" points="280.5,145.3 276.7,145.4 276.7,121.9 280.5,121.9 						"/>
						<polygon class="st1" points="286.1,145.2 282.3,145.3 282.3,121.9 286.1,121.9 						"/>
						<polygon class="st1" points="291.6,145.2 287.9,145.2 287.9,121.9 291.6,121.9 						"/>
						<polygon class="st1" points="297.2,145.1 293.4,145.2 293.4,121.9 297.2,121.8 						"/>
						<g>
							<g>
								<defs>
									<path id="SVGID_00000102515425673862884140000008951194268253056152_" d="M233.7,137.8c3.3-2.1,6-2.5,7.9-2.5
										c2.4,0.1,3.1,0.9,5.7,0.6c2.6-0.3,2.8-1.2,5.7-1.6c0.5-0.1,2.8-0.4,5.6,0.2c3.4,0.7,3.5,1.9,5.5,1.8c1.9-0.1,2-1,5.8-2.6
										c1.8-0.7,3.4-1.4,5.6-1.6c2.4-0.2,2.6,0.5,5.6,0.5c2.4,0,4.3-0.4,5.5-0.7c3.2-0.7,3.7-4.4,5.9-4.7c1.3-0.2,3.3-0.2,5.8,0.6
										c0,5.2,0,13.4,0,18.5c-21.2,0.2-42.7,0.5-64.7,0.8C233.7,144.1,233.7,140.9,233.7,137.8z"/>
								</defs>
								<clipPath id="SVGID_00000018197060535136834030000012311933165988828334_">
									<use xlink:href="#SVGID_00000102515425673862884140000008951194268253056152_"  style="overflow:visible;"/>
								</clipPath>
								<g style="clip-path:url(#SVGID_00000018197060535136834030000012311933165988828334_);">
									<polygon class="st14" points="240.6,145.8 236.8,145.8 236.8,133.4 240.6,133.4 									"/>
									<polygon class="st14" points="246.4,145.7 242.5,145.7 242.5,127.5 246.4,127.5 									"/>
									<polygon class="st14" points="252.2,145.6 248.3,145.7 248.3,129.5 252.2,129.5 									"/>
									<polygon class="st14" points="257.9,145.6 254,145.6 254,129.3 257.9,129.3 									"/>
									<polygon class="st14" points="263.6,145.5 259.7,145.5 259.7,127.4 263.6,127.4 									"/>
									<polygon class="st14" points="269.2,145.4 265.4,145.5 265.4,129.5 269.2,129.4 									"/>
									<polygon class="st14" points="274.9,145.4 271.1,145.4 271.1,128.1 274.9,128.1 									"/>
									<polygon class="st14" points="280.5,145.3 276.7,145.4 276.7,129.8 280.5,129.8 									"/>
									<polygon class="st14" points="286.1,145.2 282.3,145.3 282.3,129.4 286.1,129.4 									"/>
									<polygon class="st14" points="291.6,145.2 287.9,145.2 287.9,127.3 291.6,127.3 									"/>
									<polygon class="st14" points="297.2,145.1 293.4,145.2 293.4,125.1 297.2,125.1 									"/>
								</g>
							</g>
						</g>
					</g>
				</g>
				<g>
					<g>
						<path class="st2" d="M215.7,169.8l-72.1,1.5c-1.9,0-3.5-1.4-3.5-3.2V119c0-1.8,1.6-3.2,3.5-3.2l72.1,0c1.8,0,3.3,1.4,3.3,3.1
							v47.6C219,168.3,217.5,169.7,215.7,169.8z"/>
						<polygon class="st1" points="219.4,150.9 140,151.9 140,153.4 219.4,152.3 						"/>
					</g>
					<g>
						<path class="st4" d="M173.6,160l-23.8,0.4c-0.1,0-0.2-0.1-0.2-0.2v-2.4c0-0.1,0.1-0.2,0.2-0.2l23.8-0.4c0.1,0,0.2,0.1,0.2,0.2
							v2.4C173.8,159.9,173.7,160,173.6,160z"/>
						<path class="st5" d="M192.8,165l-43,0.8c-0.1,0-0.2-0.1-0.2-0.2v-2.4c0-0.1,0.1-0.2,0.2-0.2l43-0.8c0.1,0,0.2,0.1,0.2,0.2v2.4
							C193,164.9,192.9,165,192.8,165z"/>
					</g>
					<g>
						
							<linearGradient id="SVGID_00000154396038373082800530000014688253265457352599_" gradientUnits="userSpaceOnUse" x1="138.539" y1="192.7381" x2="203.1013" y2="192.7381" gradientTransform="matrix(1.0061 -1.510000e-02 0 -1 7.2765 326.9196)">
							<stop  offset="0" style="stop-color:#FF9085"/>
							<stop  offset="1" style="stop-color:#FB6FBB"/>
						</linearGradient>
						<path style="fill:url(#SVGID_00000154396038373082800530000014688253265457352599_);" d="M147.6,138.6c-0.2,0-0.3,0-0.5-0.1
							c-0.5-0.3-0.6-0.9-0.4-1.3c2.7-5,5.8-7.7,9.1-8c2.1-0.2,3.6,0.5,5,1.2c1.5,0.7,2.9,1.4,4.9,1.2c1.6-0.2,2.3-0.7,3.3-1.4
							c1.1-0.8,2.2-1.6,4.5-2.2c2.5-0.6,4-0.3,5.8,0.1c1.2,0.3,2.7,0.6,4.8,0.5c3,0,4.6-0.6,6.6-1.4c1.5-0.6,3.2-1.2,5.8-1.8
							c4.5-0.9,9.3-0.9,14.2-0.1c0.5,0.1,0.9,0.6,0.8,1.1c-0.1,0.5-0.6,0.9-1.1,0.8c-4.7-0.8-9.3-0.8-13.5,0
							c-2.4,0.5-4.1,1.1-5.5,1.7c-2.1,0.8-4,1.5-7.3,1.5c-2.3,0-3.8-0.3-5.2-0.6c-1.6-0.3-2.8-0.6-4.9-0.1c-1.9,0.5-2.9,1.2-3.8,1.9
							c-1.1,0.8-2.2,1.6-4.2,1.8c-2.6,0.3-4.4-0.6-6-1.4c-1.3-0.6-2.5-1.2-4-1.1c-2.6,0.3-5.2,2.6-7.6,7
							C148.3,138.4,148,138.6,147.6,138.6z"/>
						<g>
							<polygon class="st5" points="210.9,145.1 186.3,145.4 186.3,135.6 210.9,135.4 							"/>
						</g>
						<path class="st5" d="M162.5,123.9l-12.8,0c-0.1,0-0.2-0.1-0.2-0.2v-2.4c0-0.1,0.1-0.2,0.2-0.2l12.8,0c0.1,0,0.2,0.1,0.2,0.2
							v2.4C162.8,123.8,162.7,123.9,162.5,123.9z"/>
					</g>
				</g>
			</g>
		</g>
		<path class="st0" d="M16,199.7v38.2c0,4,3.7,7.1,8.2,6.9l297.4-12.6c3.6-0.1,6.5-3.2,6.5-6.7v-33.4L16,199.7z"/>
	</g>
	<g>
		
			<linearGradient id="SVGID_00000177445029994931351980000010611120066024434595_" gradientUnits="userSpaceOnUse" x1="134.4904" y1="262.6822" x2="53.8422" y2="236.7998" gradientTransform="matrix(1 0 0 -1 0 343.8898)">
			<stop  offset="0" style="stop-color:#FCB148"/>
			<stop  offset="5.210000e-02" style="stop-color:#FDBA46"/>
			<stop  offset="0.1424" style="stop-color:#FFC244"/>
			<stop  offset="0.3183" style="stop-color:#FFC444"/>
			<stop  offset="0.4849" style="stop-color:#FDB946"/>
			<stop  offset="0.7754" style="stop-color:#F99C4D"/>
			<stop  offset="0.8658" style="stop-color:#F8924F"/>
			<stop  offset="1" style="stop-color:#F8924F"/>
		</linearGradient>
		<path style="fill:url(#SVGID_00000177445029994931351980000010611120066024434595_);" d="M227.3,78.3c0,37.4-29.3,66.9-66.7,65.7
			C121.8,142.8,89,109.2,89,69s32.7-69.4,71.6-65.4C198.1,7.5,227.3,40.9,227.3,78.3z"/>
		
			<linearGradient id="SVGID_00000175285809389017136060000003966253509064174982_" gradientUnits="userSpaceOnUse" x1="199.732" y1="342.9556" x2="127.7342" y2="184.1151" gradientTransform="matrix(1 0 0 -1 0 343.8898)">
			<stop  offset="0" style="stop-color:#FFDB44"/>
			<stop  offset="1" style="stop-color:#FEEF06"/>
		</linearGradient>
		<path style="fill:url(#SVGID_00000175285809389017136060000003966253509064174982_);" d="M237.4,75.1c0,37.4-29.3,66.9-66.6,65.7
			c-38.9-1.2-71.6-34.8-71.6-75s32.7-69.4,71.6-65.4C208.2,4.3,237.4,37.7,237.4,75.1z"/>
		
			<linearGradient id="SVGID_00000136404958791436820300000000742489512866004144_" gradientUnits="userSpaceOnUse" x1="186.4845" y1="175.2373" x2="172.5924" y2="251.1295" gradientTransform="matrix(1 0 0 -1 0 343.8898)">
			<stop  offset="0" style="stop-color:#FCB148"/>
			<stop  offset="5.210000e-02" style="stop-color:#FDBA46"/>
			<stop  offset="0.1424" style="stop-color:#FFC244"/>
			<stop  offset="0.3183" style="stop-color:#FFC444"/>
			<stop  offset="0.4849" style="stop-color:#FDB946"/>
			<stop  offset="0.7754" style="stop-color:#F99C4D"/>
			<stop  offset="0.8658" style="stop-color:#F8924F"/>
			<stop  offset="1" style="stop-color:#F8924F"/>
		</linearGradient>
		<path style="fill:url(#SVGID_00000136404958791436820300000000742489512866004144_);" d="M234.5,74.9c0,35.8-28,63.8-63.7,62.7
			c-37.1-1.2-68.3-33.3-68.3-71.6s31.2-66.2,68.3-62.4C206.5,7.2,234.5,39.1,234.5,74.9z"/>
		
			<linearGradient id="SVGID_00000070084930593657616400000005869342386055875727_" gradientUnits="userSpaceOnUse" x1="157.0325" y1="298.0773" x2="214.2838" y2="176.5438" gradientTransform="matrix(1 0 0 -1 0 343.8898)">
			<stop  offset="0" style="stop-color:#FCB148"/>
			<stop  offset="5.210000e-02" style="stop-color:#FDBA46"/>
			<stop  offset="0.1424" style="stop-color:#FFC244"/>
			<stop  offset="0.3183" style="stop-color:#FFC444"/>
			<stop  offset="0.4849" style="stop-color:#FDB946"/>
			<stop  offset="0.7754" style="stop-color:#F99C4D"/>
			<stop  offset="0.8658" style="stop-color:#F8924F"/>
			<stop  offset="1" style="stop-color:#F8924F"/>
		</linearGradient>
		<path style="fill:url(#SVGID_00000070084930593657616400000005869342386055875727_);" d="M232.4,74.7c0,34.6-27.1,61.7-61.6,60.6
			c-35.8-1.2-65.8-32.2-65.8-69.2s30-63.9,65.8-60.3C205.3,9.4,232.4,40.1,232.4,74.7z"/>
		
			<linearGradient id="SVGID_00000067922223528740831780000000224668893537773443_" gradientUnits="userSpaceOnUse" x1="146.58" y1="274.3148" x2="198.86" y2="274.3148" gradientTransform="matrix(1 0 0 -1 0 343.8898)">
			<stop  offset="0" style="stop-color:#FFDB44"/>
			<stop  offset="1" style="stop-color:#FEEF06"/>
		</linearGradient>
		<path style="fill:url(#SVGID_00000067922223528740831780000000224668893537773443_);" d="M196,73.9c-1.9-2.3-4.9-3.9-8.9-4.9
			c1.9-0.7,3.4-1.5,4.7-2.5c1.3-1,2.4-2,3.2-3.2c0.8-1.2,1.4-2.4,1.8-3.7c0.4-1.3,0.6-2.7,0.6-4.1c0-2.6-0.4-5-1.3-7.2s-2.2-4-4-5.6
			s-4.3-2.8-7.3-3.7c-1-0.3-2.1-0.6-3.2-0.8V27.8l-8-0.4v10l-6.7-0.3v-10l-8.2-0.4v10.1l-8.9-0.3l-3.3-0.1v5.6l3.3,0.1v56.3
			l-3.3,0.1v5.6l3.3-0.1l8.9-0.3v9l8.2-0.4v-8.9l6.7-0.3v8.8l8-0.4v-9.2c1.5-0.3,2.9-0.7,4.1-1.2c2.9-1.1,5.3-2.6,7.2-4.4
			c1.9-1.8,3.4-3.9,4.4-6.2c1-2.3,1.5-4.9,1.5-7.6C198.8,79.1,197.9,76.2,196,73.9z M183.3,57c0,1.6-0.2,2.9-0.7,3.9
			c-0.5,1-1.1,1.8-2.1,2.4c-0.9,0.6-2,1-3.3,1.2c-1.3,0.2-2.8,0.3-4.4,0.3l-7.8,0V48.5l8.7,0.2c1.6,0,3.1,0.2,4.3,0.5
			c1.2,0.3,2.2,0.8,2.9,1.4s1.3,1.5,1.7,2.5C183.1,54.2,183.3,55.5,183.3,57z M184.6,85.7c-0.2,1-0.7,1.9-1.4,2.7s-1.6,1.5-2.8,2
			c-1.2,0.5-2.8,0.8-4.7,0.9l-10.4,0.3V75.1l10.4-0.1c1.8,0,3.4,0.2,4.6,0.5c1.2,0.3,2.2,0.8,2.9,1.5c0.7,0.6,1.2,1.4,1.5,2.4
			c0.3,0.9,0.4,2,0.4,3.2C184.9,83.7,184.8,84.7,184.6,85.7z"/>
		
			<linearGradient id="SVGID_00000163757213639617440410000011009041385170217917_" gradientUnits="userSpaceOnUse" x1="140.1885" y1="290.2119" x2="197.3243" y2="168.9236" gradientTransform="matrix(1 0 0 -1 0 343.8898)">
			<stop  offset="0" style="stop-color:#FCB148"/>
			<stop  offset="5.210000e-02" style="stop-color:#FDBA46"/>
			<stop  offset="0.1424" style="stop-color:#FFC244"/>
			<stop  offset="0.3183" style="stop-color:#FFC444"/>
			<stop  offset="0.4849" style="stop-color:#FDB946"/>
			<stop  offset="0.7754" style="stop-color:#F99C4D"/>
			<stop  offset="0.8658" style="stop-color:#F8924F"/>
			<stop  offset="1" style="stop-color:#F8924F"/>
		</linearGradient>
		<path style="opacity:0.3;fill:url(#SVGID_00000163757213639617440410000011009041385170217917_);enable-background:new    ;" d="
			M159.6,83.2c2.1-20.6,21-29.3,18.5-48.2c-1.5-11.7-10.4-21.5-20.2-29.1c-29.9,3.1-53,27.9-53,60.3c0,37,30,67.9,65.9,69.2
			c3.5,0.1,6.9-0.1,10.2-0.5C166.7,120.6,157.9,100.8,159.6,83.2z"/>
	</g>
	<g>
		<g>
			
				<linearGradient id="SVGID_00000128469259631788884750000010720259166744615063_" gradientUnits="userSpaceOnUse" x1="-2262.2297" y1="1196.0018" x2="-2330.0198" y2="1114.6539" gradientTransform="matrix(0.9128 -0.4084 -0.4084 -0.9128 2729.3037 241.4905)">
				<stop  offset="0" style="stop-color:#311944"/>
				<stop  offset="1" style="stop-color:#A03976"/>
			</linearGradient>
			<polygon style="fill:url(#SVGID_00000128469259631788884750000010720259166744615063_);" points="142.6,160.8 182.2,81.4 
				182.6,81.4 144,161.8 			"/>
			
				<linearGradient id="SVGID_00000124119340153563540190000008228948023090827711_" gradientUnits="userSpaceOnUse" x1="-2310.4177" y1="1144.7865" x2="-2344.4956" y2="1113.6403" gradientTransform="matrix(0.9128 -0.4084 -0.4084 -0.9128 2729.3037 241.4905)">
				<stop  offset="0" style="stop-color:#FFC444"/>
				<stop  offset="0.9964" style="stop-color:#F36F56"/>
			</linearGradient>
			<path style="fill:url(#SVGID_00000124119340153563540190000008228948023090827711_);" d="M144.7,155.9l1.2-3.8l0-3.5
				c0-0.6,0.1-1.2,0.4-1.7l0.5-0.9c0.3-0.5,0.7-0.9,1.2-1.1l2.4-1.1c0,0-0.1,1-0.7,1.4c-0.6,0.4-1.3,2.7-1.3,2.7l0.6,2l1.8-3.2
				l1.4-4.6l0.8,1.9c0.3,0.6,0.3,1.4,0.1,2l-1.1,3.8c-0.3,0.9-0.9,1.7-1.7,2.3l-0.5,0.4c-1.1,0.7-1.9,1.9-2.1,3.2l-0.6,3.2
				L144.7,155.9z"/>
		</g>
		<g>
			<path class="st24" d="M144.7,153c-13.1,5.2-21.5,3.2-25.4,1.7c-4.9-1.9-9.6-5.2-9.6-5.2c-6.7-4.8-9.3-9.5-15.8-10.6
				c-0.5-0.1-2-0.3-3.6-0.1c-9.5,0.8-20,13.4-18.6,21.7c2.3,14.4,42.5,29.3,64.6,13.2c7.1-5.2,10.7-12.3,12.5-17.2
				C147.4,155.3,146.1,154.2,144.7,153z"/>
			
				<linearGradient id="SVGID_00000011030359989524220180000004834020389617633703_" gradientUnits="userSpaceOnUse" x1="-1007.7987" y1="-58.9936" x2="-997.4131" y2="-58.9936" gradientTransform="matrix(-0.996 8.970000e-02 -8.970000e-02 -0.996 -940.0566 336.1499)">
				<stop  offset="0" style="stop-color:#444B8C"/>
				<stop  offset="0.9964" style="stop-color:#26264F"/>
			</linearGradient>
			<path style="fill:url(#SVGID_00000011030359989524220180000004834020389617633703_);" d="M59.3,303c-0.5,0.5-0.6,1.6-0.6,2.4
				c0,0.3,0,0.5,0,0.6c0.3,0.9,2,0.8,4.7,1c4.2,0.2,5.4,0.4,5.7-0.2c0.3-0.6-0.5-1.5-0.6-1.6c-0.5-0.5-1-0.7-2.1-1
				c-2-0.5-3.3-0.8-3.8-0.9C60.1,302.7,59.7,302.6,59.3,303z"/>
			
				<linearGradient id="SVGID_00000045593117296054186880000018416611571118348965_" gradientUnits="userSpaceOnUse" x1="-1471.3815" y1="-4.0986" x2="-1466.8276" y2="5.3269" gradientTransform="matrix(-0.9976 6.940000e-02 -6.940000e-02 -0.9976 -1405.0643 402.9549)">
				<stop  offset="0" style="stop-color:#FFC444"/>
				<stop  offset="0.9964" style="stop-color:#F36F56"/>
			</linearGradient>
			<path style="fill:url(#SVGID_00000045593117296054186880000018416611571118348965_);" d="M62.2,298.8l0.2,4.8
				c-0.1,0.2-1.6,0.8-2.7,0.2l-0.8-4.7L62.2,298.8z"/>
			
				<linearGradient id="SVGID_00000166663649206314083250000004711294907907673480_" gradientUnits="userSpaceOnUse" x1="-1224.5078" y1="-100.55" x2="-1213.4755" y2="-100.55" gradientTransform="matrix(-0.977 0.2133 -0.2133 -0.977 -1113.0065 465.6817)">
				<stop  offset="0" style="stop-color:#444B8C"/>
				<stop  offset="0.9964" style="stop-color:#26264F"/>
			</linearGradient>
			<path style="fill:url(#SVGID_00000166663649206314083250000004711294907907673480_);" d="M94.5,302.3c-0.7,0.7-0.9,2.1-0.4,2.8
				c0.5,0.7,1.4,0.2,3.9,0.5c2.7,0.2,3.3,0.9,5.1,0.5c0.7-0.2,2.1-0.6,2.1-1.1c0-0.4-0.6-0.6-2.8-1.4c-3.1-1.2-3-1.3-3.7-1.4
				C97.1,301.7,95.5,301.4,94.5,302.3z"/>
			
				<linearGradient id="SVGID_00000107555785949649875030000000965757111584716708_" gradientUnits="userSpaceOnUse" x1="-1388.6888" y1="-53.2078" x2="-1384.0386" y2="-43.5828" gradientTransform="matrix(-0.9894 0.1453 -0.1453 -0.9894 -1283.5913 453.2168)">
				<stop  offset="0" style="stop-color:#FFC444"/>
				<stop  offset="0.9964" style="stop-color:#F36F56"/>
			</linearGradient>
			<path style="fill:url(#SVGID_00000107555785949649875030000000965757111584716708_);" d="M96.5,298.1l1.1,4.5
				c-0.1,0.2-1.5,1-2.6,0.4l-1.8-4.4L96.5,298.1z"/>
			
				<linearGradient id="SVGID_00000173876653955278914990000016324978807082055571_" gradientUnits="userSpaceOnUse" x1="455.765" y1="157.45" x2="426.3525" y2="223.7528" gradientTransform="matrix(0.9986 5.330000e-02 5.330000e-02 -0.9986 -361.397 417.5552)">
				<stop  offset="0" style="stop-color:#311944"/>
				<stop  offset="1" style="stop-color:#893976"/>
			</linearGradient>
			<path style="fill:url(#SVGID_00000173876653955278914990000016324978807082055571_);" d="M89.8,200.5c-0.6,14.9-0.5,31.7,1,50
				c1.4,18.1,3.9,34.5,6.9,49c-1.7,0.4-3.4,0.7-5.2,1.1c-4.1-4.2-9.2-10.9-11.3-19.9c-1.3-5.6-0.6-8.5-1.3-15.3
				c-1.1-10.9-4.1-16.8-7.1-25.8c-2.7-8-5.7-19.8-6.8-35.3C73.9,203,81.9,201.8,89.8,200.5z"/>
			
				<linearGradient id="SVGID_00000017508505047078851490000011229427628739052431_" gradientUnits="userSpaceOnUse" x1="451.2003" y1="155.4253" x2="421.7878" y2="221.728" gradientTransform="matrix(0.9986 5.330000e-02 5.330000e-02 -0.9986 -361.397 417.5552)">
				<stop  offset="0" style="stop-color:#311944"/>
				<stop  offset="1" style="stop-color:#893976"/>
			</linearGradient>
			<path style="opacity:0.3;fill:url(#SVGID_00000017508505047078851490000011229427628739052431_);enable-background:new    ;" d="
				M87.4,270.1c-1.9-7.5-5.6-9.5-5.7-16.6c-0.1-5,1.7-5.4,1.6-10.2c-0.2-7.3-4.4-11.1-6.6-15.7c-2.3-4.8-3.1-12.6,3-25.5
				c-4.6,0.7-9.2,1.4-13.8,2.1c1.1,15.5,4.2,27.3,6.8,35.3c3,8.9,6,14.8,7.1,25.7c0.7,6.9,0,9.7,1.3,15.3
				c2.1,9.1,7.2,15.7,11.3,19.9c0.4-0.1,0.9-0.2,1.3-0.3c-4.4-5.3-6-10-6.4-13.8C86.8,280.2,89.4,277.6,87.4,270.1z"/>
			
				<linearGradient id="SVGID_00000077284862110230100590000012777466083047431311_" gradientUnits="userSpaceOnUse" x1="93.8782" y1="11.4393" x2="64.465" y2="77.7438" gradientTransform="matrix(0.9976 -6.940000e-02 -6.940000e-02 -0.9976 -7.2933 306.219)">
				<stop  offset="0" style="stop-color:#311944"/>
				<stop  offset="1" style="stop-color:#893976"/>
			</linearGradient>
			<path style="fill:url(#SVGID_00000077284862110230100590000012777466083047431311_);" d="M72.6,199.6
				c-2.1,18.9-3.9,38.1-5.6,57.7c-1.3,14.7-2.4,29.2-3.4,43.5c-1.8,0.1-3.5,0.2-5.2,0.4c-1.5-3.2-3.5-8.1-4.7-14.3
				c-1.5-7.5-0.8-11.9-1.2-19.6c-0.5-8.7-1.7-10.6-3.4-21.6c-3.6-22.4-5.4-33.5,0.3-40.1C51.2,203.3,56.9,198,72.6,199.6z"/>
			<path class="st24" d="M27.4,140.9c9.4-3.2,23.8-6.7,41.4-6c10.2,0.4,18.9,2.2,25.9,4.1c0.9,5.2,1.9,10.5,2.8,15.8
				c0.2,5.3,0.3,12.4-0.3,20.8c-0.6,8.4-1.2,8.6-2.5,20.4c-2.2,19.4-1.3,24.4-5.2,26.8c-2.5,1.5-3.4-0.3-16.4-1.6
				c-8.7-0.9-13.1-1.3-17.5,0.2c-6,2-8,5.4-10.5,4.3c-2.4-1.1-2.7-5.1-3-12.3c-0.4-11-0.4-18.4-0.5-21.1
				c-0.2-12.3-3.3-21.6-7.3-33.6C32,151.3,29.4,145.2,27.4,140.9z"/>
			<g>
				
					<linearGradient id="SVGID_00000122705655238140114540000000961308546629874343_" gradientUnits="userSpaceOnUse" x1="722.8867" y1="1010.5137" x2="724.0444" y2="1041.3513" gradientTransform="matrix(0.8944 0.4471 0.4471 -0.8944 -1036.911 727.1422)">
					<stop  offset="0" style="stop-color:#FFC444"/>
					<stop  offset="0.9964" style="stop-color:#F36F56"/>
				</linearGradient>
				<path style="fill:url(#SVGID_00000122705655238140114540000000961308546629874343_);" d="M67.7,122.8c-0.1,3.1-0.6,5.5-1,7.2
					c-0.5,1.9-0.8,2.4-1.1,2.8c-0.6,0.6-1.4,1-5.8,1.9c-2.4,0.5-2.7,0.4-2.8,0.7c-0.3,1.1,6,5.5,12.8,4.9c4.2-0.4,8.1-2.5,7.9-3.8
					c-0.2-1.3-4.3-0.8-5.4-3.1c-0.8-1.6,0.3-3.8,1.5-5.6C72.7,125.5,68.7,124.9,67.7,122.8z"/>
				<g>
					
						<linearGradient id="SVGID_00000031187614616422406300000014250753487685490312_" gradientUnits="userSpaceOnUse" x1="-1971.3934" y1="464.2507" x2="-1979.2427" y2="484.1865" gradientTransform="matrix(-0.9988 -4.960000e-02 4.960000e-02 -0.9988 -1929.0673 504.1588)">
						<stop  offset="0" style="stop-color:#311944"/>
						<stop  offset="1" style="stop-color:#6B3976"/>
					</linearGradient>
					<path style="fill:url(#SVGID_00000031187614616422406300000014250753487685490312_);" d="M75.3,124.4c1.1-1.2,1.2-3.5,0.2-5
						c-0.9-1.3-2.4-1.5-3.3-1.7c-2.6-0.4-6,0.5-7.3,2.8c-0.8,1.4,0.6,4.5,0.8,5c0.2,0.6,0.7,0.9,1.1,1.3c0.6,0.7,1.5,1.7,3,3.5
						c0.2-0.5,0.4-1.1,0.7-1.8c0.1-0.2,0.6-1.2,1.4-2C73.2,125.1,74.3,125.6,75.3,124.4z"/>
					
						<linearGradient id="SVGID_00000073713167383586342710000005177583058778254236_" gradientUnits="userSpaceOnUse" x1="-232.0364" y1="429.3087" x2="-232.3974" y2="400.2247" gradientTransform="matrix(0.9999 -1.160000e-02 -1.160000e-02 -0.9999 307.5699 550.7971)">
						<stop  offset="0" style="stop-color:#FFC444"/>
						<stop  offset="0.9964" style="stop-color:#F36F56"/>
					</linearGradient>
					<path style="fill:url(#SVGID_00000073713167383586342710000005177583058778254236_);" d="M67.5,128.9c0,0,1.6,2.9,5.1,2.9
						c3.1,0,3.9-7,2-8.6c-0.6-0.5-1.9-0.8-3-0.6c-0.7,0.1-0.9,0.4-1.9,0.6c-1,0.2-1.2,0.1-1.6,0.3c-0.4,0.3-0.7,1-0.2,3.1
						c-0.6-0.6-1.3-0.9-1.8-0.7c-0.1,0-0.3,0.2-0.4,0.4C65.2,127.2,65.9,128.2,67.5,128.9z"/>
					
						<linearGradient id="SVGID_00000001657314056314984180000012211187826569588649_" gradientUnits="userSpaceOnUse" x1="-1973.7833" y1="463.2991" x2="-1981.6407" y2="483.2555" gradientTransform="matrix(-0.9988 -4.960000e-02 4.960000e-02 -0.9988 -1929.0673 504.1588)">
						<stop  offset="0" style="stop-color:#311944"/>
						<stop  offset="1" style="stop-color:#6B3976"/>
					</linearGradient>
					<path style="fill:url(#SVGID_00000001657314056314984180000012211187826569588649_);" d="M68,123.2c0.1,0.1-0.3,0.7-0.4,1.4
						c-0.2,1.5,1.3,3.4,2.9,3.7c0.9,0.1,1.2-0.4,2.8-0.5c1-0.1,1.8,0.1,2.2,0.3c0.4,1.7-0.2,3.4-1.3,4.1c-1.2,0.8-2.8,0.2-3.4-0.1
						c-0.4-0.2-1.8-0.7-2.4-2c-0.7-1.4,0.1-2.1-0.7-3.1c-0.4-0.5-1-0.7-1.5-1.6c-0.1-0.2-0.2-0.5-0.3-0.6
						C66.6,124,67.8,123,68,123.2z"/>
					
						<linearGradient id="SVGID_00000150793493316199502910000008734960176893959838_" gradientUnits="userSpaceOnUse" x1="-1981.4877" y1="475.3191" x2="-1981.0791" y2="471.6762" gradientTransform="matrix(-0.9988 -4.960000e-02 4.960000e-02 -0.9988 -1929.0673 504.1588)">
						<stop  offset="0" style="stop-color:#FFC444"/>
						<stop  offset="1" style="stop-color:#F36F56"/>
					</linearGradient>
					<path style="fill:url(#SVGID_00000150793493316199502910000008734960176893959838_);" d="M74.3,128.7c0,0-0.7,0.3-1.8,0.2
						c-0.1,0-0.1,0-0.1,0c0,0.1,0.7,0.6,1.4,0.5c0.5-0.1,0.9-0.6,0.8-0.7C74.5,128.7,74.4,128.7,74.3,128.7z"/>
				</g>
			</g>
			
				<linearGradient id="SVGID_00000142892625519491509460000011193793218027568058_" gradientUnits="userSpaceOnUse" x1="40.8513" y1="153.5916" x2="42.9388" y2="147.2201" gradientTransform="matrix(1 0 0 -1 0 343.8898)">
				<stop  offset="0" style="stop-color:#FFC444"/>
				<stop  offset="0.9964" style="stop-color:#F36F56"/>
			</linearGradient>
			<path style="fill:url(#SVGID_00000142892625519491509460000011193793218027568058_);" d="M36.1,192.4l3.1-0.2c0,0,3.4-2.9,5-2.7
				c1.6,0.2,3.9,1.3,4.2,1.5c0.3,0.2-0.8,1.5-2,1.4c-1.1-0.1-3.7,0.5-4.1,1.5c-0.5,1-2.4,1.6-2.8,1l-4.2,0.8L36.1,192.4z"/>
			<path class="st24" d="M37.1,191.3c0.2,2.6-0.3,4.3-1.3,5.5c-4.1,5.3-18.1,3.1-26.5-4c-6.2-5.2-9.4-13.4-9.3-20.7
				c0.2-14.2,13.4-28.2,33-33c2.9,8.7,5.8,17.4,8.7,26c-12.1,0.2-19.4,9.3-18.4,15.8C24.2,185.9,29.9,190.2,37.1,191.3z"/>
			<path class="st38" d="M84.5,216.5c-6.4-2.7-6.3-8.3-12.3-10.7c-8.5-3.4-17.8,4.4-19.3,2.3c-1.5-2.2,9.7-9.1,8.2-15.9
				c-1.2-5.4-9-4.4-13.2-11.8c-4-7-0.1-13.5-3.6-15.9c-1.3-0.9-3.5-1.2-7.7,0.6c2.9,9.2,5,17.3,5.2,27.3c0,2.7,0,10.1,0.5,21.1
				c0.3,7.1,0.6,11.2,3,12.3c2.5,1.1,4.5-2.3,10.5-4.3c4.4-1.5,8.8-1.1,17.5-0.2c12.9,1.3,13.8,3.1,16.4,1.6c1.7-1,2.4-2.5,3-5.3
				C89.9,217.8,87.1,217.6,84.5,216.5z"/>
		</g>
		<g>
			
				<linearGradient id="SVGID_00000054225478853864724670000011573825434475910784_" gradientUnits="userSpaceOnUse" x1="2989.5178" y1="217.9864" x2="2991.1494" y2="194.0829" gradientTransform="matrix(1 0 0 -1 -2920.5623 343.8898)">
				<stop  offset="0" style="stop-color:#311944"/>
				<stop  offset="1" style="stop-color:#6B3976"/>
			</linearGradient>
			<path style="fill:url(#SVGID_00000054225478853864724670000011573825434475910784_);" d="M67.2,140.2c0,0,0.8,4.2,2,4.3
				c1.2,0.1,2.1,0.2,2.1,0.2l1.4-5.1c-0.5,0.1-1,0.3-1.6,0.4C69.6,140.3,68.2,140.3,67.2,140.2z"/>
			
				<linearGradient id="SVGID_00000150783365361589258580000011473345691967006616_" gradientUnits="userSpaceOnUse" x1="2985.1074" y1="170.3645" x2="2985.1074" y2="224.0576" gradientTransform="matrix(1 0 0 -1 -2920.5623 343.8898)">
				<stop  offset="0" style="stop-color:#311944"/>
				<stop  offset="1" style="stop-color:#6B3976"/>
			</linearGradient>
			<path style="fill:url(#SVGID_00000150783365361589258580000011473345691967006616_);" d="M68.6,144.1c0,0-2.7,30.6-12.3,35.5
				c0.2,1,0,8.9,0,8.9s8.9-2.7,9.4-2.5s10.8-16.8,5.6-41.3L68.6,144.1z"/>
		</g>
	</g>
	<g>
		<g>
			<g>
				<path class="st41" d="M212.7,303c-0.2,0-0.4-0.2-0.4-0.4l-8.3-89.3c0-0.2,0.2-0.5,0.4-0.5c0.2,0,0.5,0.2,0.5,0.4l7.4,79.5v-81.4
					c0-0.2,0.2-0.5,0.5-0.5c0.2,0,0.5,0.2,0.5,0.5v91.3C213.2,302.8,213,303,212.7,303C212.8,303,212.7,303,212.7,303z"/>
				<g>
					<polygon class="st42" points="304.9,221 214.2,211.1 40.1,219 131.3,229.9 					"/>
					<polygon class="st41" points="131.3,229.9 304.9,221 304.9,225.3 131.3,234.2 40.1,223.3 40.1,219 					"/>
				</g>
				<path class="st41" d="M131.9,334.1C131.9,334.1,131.9,334.1,131.9,334.1c-0.3,0-0.5-0.2-0.5-0.5V233.2c0-0.2,0.2-0.5,0.5-0.5
					c0.2,0,0.5,0.2,0.5,0.5V322l6.9-88.8c0-0.2,0.2-0.4,0.5-0.4s0.4,0.2,0.4,0.5l-7.9,100.5C132.3,334,132.1,334.1,131.9,334.1z"/>
				<path class="st41" d="M41.1,316.3C41.1,316.3,41.1,316.3,41.1,316.3c-0.3,0-0.5-0.2-0.5-0.5v-92.8c0-0.2,0.2-0.5,0.5-0.5
					c0.2,0,0.5,0.2,0.5,0.5v81.1l6.4-81.1c0-0.2,0.2-0.4,0.5-0.4s0.4,0.2,0.4,0.5l-7.3,92.8C41.5,316.1,41.3,316.3,41.1,316.3z"/>
				<path class="st41" d="M304,316.3c-0.2,0-0.4-0.2-0.5-0.4l-7.7-92.8c0-0.2,0.2-0.5,0.4-0.5s0.5,0.2,0.5,0.4l6.8,81.8v-79.5
					c0-0.2,0.2-0.5,0.5-0.5s0.5,0.2,0.5,0.5v90.5C304.5,316.1,304.3,316.3,304,316.3C304,316.3,304,316.3,304,316.3z"/>
			</g>
			<g>
				<g>
					<g>
						<path class="st43" d="M268.1,222.8l-62.3-0.5v1.4c0,0.4,0.3,0.7,0.6,0.8l17.6,2.7c0.2,0,0.4,0,0.6,0l42.7-3.1
							c0.4,0,0.7-0.3,0.7-0.7V222.8z"/>
						<g>
							<path class="st43" d="M245.6,220.5l-39,2.5c-0.7,0-1.3-0.4-1.3-1.1v-25.4c0-0.6,0.6-1.1,1.3-1.1h39c0.6,0,1,0.5,1,1v22.9
								C246.6,219.9,246.1,220.4,245.6,220.5z"/>
							<path class="st5" d="M246.2,220.5l-39,2.5c-0.7,0-1.3-0.4-1.3-1.1v-25.4c0-0.6,0.6-1.1,1.3-1.1h39c0.6,0,1,0.5,1,1v22.9
								C247.2,219.9,246.8,220.4,246.2,220.5z"/>
							<path class="st44" d="M245,218.9l-36.4,2.2c-0.6,0-1-0.4-1-0.9V198c0-0.5,0.5-0.9,1-0.9l36.4-0.1c0.5,0,0.9,0.4,0.9,0.9V218
								C245.8,218.4,245.4,218.8,245,218.9z"/>
							<path class="st1" d="M228,196.1c0,0.2-0.2,0.4-0.4,0.4s-0.4-0.2-0.4-0.4s0.2-0.4,0.4-0.4C227.8,195.7,228,195.9,228,196.1z"
								/>
							<path class="st45" d="M236.9,213.5c-3-1.5-5.4,0.4-7.7-1.4c-1.4-1.1-0.7-1.9-2.4-3.6c-1.9-1.9-3.1-1.2-5-2.9
								c-2.4-2.1-1.2-3.7-3.3-5.2c-2.5-1.8-5.2-0.1-7.6-1.9c-1-0.8-1.6-1.9-1.9-3h-2.4c-0.4,0-0.7,0.3-0.7,0.7v26.3
								c0,0.4,0.3,0.6,0.7,0.6l40-2.6c0.2,0,0.4-0.1,0.5-0.3c-2.9-0.1-4.7-1-5.9-1.9C239,216.5,239.4,214.7,236.9,213.5z"/>
						</g>
						<path class="st1" d="M247.7,220.4l-41.9,2.6l18.2,2.8c0.2,0,0.4,0,0.6,0l43.4-3.1l-19.8-2.3
							C248.2,220.4,247.9,220.4,247.7,220.4z"/>
						<polygon class="st46" points="212,223.1 246.8,220.9 257.6,222.1 223.1,224.5 						"/>
					</g>
				</g>
				
					<linearGradient id="SVGID_00000114789739974032281880000010583091239002850730_" gradientUnits="userSpaceOnUse" x1="877.5955" y1="53.943" x2="879.6426" y2="27.8891" gradientTransform="matrix(1 0 0 -1 -626.2627 343.8898)">
					<stop  offset="3.597000e-03" style="stop-color:#26264F"/>
					<stop  offset="1" style="stop-color:#444B8C"/>
				</linearGradient>
				<path style="fill:url(#SVGID_00000114789739974032281880000010583091239002850730_);" d="M255.7,302.9c0,0-9.2,0.6-9.3,1.2
					c-0.1,0.6,6.2,2.9,8.4,3c2.2,0.1,4-0.6,3.8-1.5s-1-3.3-1-3.3L255.7,302.9z"/>
				
					<linearGradient id="SVGID_00000033357152000900542090000008077309358897788069_" gradientUnits="userSpaceOnUse" x1="-194.272" y1="248.81" x2="-194.7018" y2="279.9726" gradientTransform="matrix(0.9853 0.171 0.171 -0.9853 405.0069 582.7126)">
					<stop  offset="0" style="stop-color:#FFC444"/>
					<stop  offset="0.9964" style="stop-color:#F36F56"/>
				</linearGradient>
				<path style="fill:url(#SVGID_00000033357152000900542090000008077309358897788069_);" d="M255.2,298.9l-0.2,4.3
					c0,0,1.4,0.8,2.5,0.3l1.2-4.6L255.2,298.9z"/>
				
					<linearGradient id="SVGID_00000019647593070403015640000011169112315125446041_" gradientUnits="userSpaceOnUse" x1="851.9854" y1="55.6851" x2="854.0325" y2="29.631" gradientTransform="matrix(1 0 0 -1 -626.2627 343.8898)">
					<stop  offset="3.597000e-03" style="stop-color:#26264F"/>
					<stop  offset="1" style="stop-color:#444B8C"/>
				</linearGradient>
				<path style="fill:url(#SVGID_00000019647593070403015640000011169112315125446041_);" d="M230.1,301.2c0,0-9.2,0.6-9.3,1.2
					c-0.1,0.6,6.2,2.9,8.4,3c2.2,0.1,4-0.6,3.8-1.5s-1-3.3-1-3.3L230.1,301.2z"/>
				
					<linearGradient id="SVGID_00000148647987228859227200000017939487973582101427_" gradientUnits="userSpaceOnUse" x1="-219.7933" y1="246.1487" x2="-220.2231" y2="277.3109" gradientTransform="matrix(0.9853 0.171 0.171 -0.9853 405.0069 582.7126)">
					<stop  offset="0" style="stop-color:#FFC444"/>
					<stop  offset="0.9964" style="stop-color:#F36F56"/>
				</linearGradient>
				<path style="fill:url(#SVGID_00000148647987228859227200000017939487973582101427_);" d="M229.6,297.1l-0.2,4.3
					c0,0,1.4,0.8,2.5,0.3l1.2-4.6L229.6,297.1z"/>
				
					<linearGradient id="SVGID_00000121241008182613640870000006652634134041552570_" gradientUnits="userSpaceOnUse" x1="302.2757" y1="109.2713" x2="290.5859" y2="91.8792" gradientTransform="matrix(1 0 0 -1 0 343.8898)">
					<stop  offset="0" style="stop-color:#444B8C"/>
					<stop  offset="0.9964" style="stop-color:#26264F"/>
				</linearGradient>
				<path style="fill:url(#SVGID_00000121241008182613640870000006652634134041552570_);" d="M254.2,299.5c1.7,0.2,3.4,0.4,5.1,0.6
					c2.3-2.6,5.8-7,7.6-13.3c3.5-12.1-1.6-20.8,1.7-23c4.7-3.1,14.8,14.6,31.1,14.2c6.7-0.2,15.4-3.5,18.7-10.6
					c0.5-1.1,3-6.7,0.6-12c-2.5-5.4-14.9-7.8-39.5-12.3c-10.6-1.9-15.9-2.9-18.1-1.9C246.2,248.4,252.6,289.5,254.2,299.5z"/>
				
					<linearGradient id="SVGID_00000028295642936365181280000008834645596419634568_" gradientUnits="userSpaceOnUse" x1="228.1279" y1="70.9756" x2="312.0203" y2="70.9756" gradientTransform="matrix(1 0 0 -1 0 343.8898)">
					<stop  offset="0" style="stop-color:#444B8C"/>
					<stop  offset="0.9964" style="stop-color:#26264F"/>
				</linearGradient>
				<path style="fill:url(#SVGID_00000028295642936365181280000008834645596419634568_);" d="M228.1,299.5c1.8,0.3,3.5,0.6,5.3,0.9
					c2.1-3.2,5.4-8.1,9-14.4c7.6-13.1,7.4-15.8,10.9-17.5c7.4-3.6,13,6.1,31.4,8.7c6,0.9,19.3,2.8,24.7-4.4c2.2-2.9,3.4-7.8,1.7-12
					c-3.1-7.5-13.3-6.6-47-13.1c-13.1-2.6-14.9-3-18.1-1.9C228.4,252.3,228.1,290.9,228.1,299.5z"/>
				<path class="st53" d="M264.9,196.8c1.8-4.3,5.5-6.7,7.4-8c1-0.6,1.9-1.1,2.8-1.5c7-2.9,14.1-2.7,15.3-2.6
					c3,0.2,10.5,0.8,16.1,5.6c2.7,2.3,4.9,5.6,8,23.9c4.4,25.6,0.8,23,4.3,33.4c1.8,5.5,4.7,11.8,1.7,15.8c-1,1.3-2.4,1.7-5.2,3
					c-10.6,4.8-20.1,3.9-25.8,3.4c-6.3-0.6-9.5-1-11.2-3.2c-2.7-3.6,0.1-8.1,0.6-16c0.4-5.6-0.9-10.1-3.5-19.1
					C269.3,210.6,261.5,205,264.9,196.8z"/>
				
					<linearGradient id="SVGID_00000154413931623213095960000013040265070549243061_" gradientUnits="userSpaceOnUse" x1="228.3367" y1="122.7213" x2="227.4855" y2="118.8353" gradientTransform="matrix(1 0 0 -1 0 343.8898)">
					<stop  offset="0" style="stop-color:#FFC444"/>
					<stop  offset="0.9964" style="stop-color:#F36F56"/>
				</linearGradient>
				<path style="fill:url(#SVGID_00000154413931623213095960000013040265070549243061_);" d="M235.1,222.3l-6.8-1.3
					c-0.5-0.1-1-0.1-1.5,0l-5.9,1c0,0,3.8,1.5,7,1.1s6.8,1.3,6.8,1.3L235.1,222.3z"/>
				<g>
					<g>
						
							<linearGradient id="SVGID_00000010304689049167438610000003445225529436229040_" gradientUnits="userSpaceOnUse" x1="3638.0837" y1="596.5931" x2="3661.3723" y2="567.2935" gradientTransform="matrix(0.9663 0.2576 0.2576 -0.9663 -3391.3394 -191.9369)">
							<stop  offset="0" style="stop-color:#FFC444"/>
							<stop  offset="0.9964" style="stop-color:#F36F56"/>
						</linearGradient>
						<path style="fill:url(#SVGID_00000010304689049167438610000003445225529436229040_);" d="M279.8,180c-1.1-1.7,0.6-5,1.2-6.3
							c0-0.1,0-0.1,0.1-0.2c1-1.9,1.3-2.2,1.8-2.5l0.7-0.4c0,0,0,0,0.1,0c0.4-0.2,1.9-0.2,2.2-0.1c1,0.2,2,4.2,1.7,9.8
							c0,0.2,0.1,0.4,0.1,0.6c0.1,0.9,0.3,1.8,0.4,2.6c0.1,0.8,1.2,0.8,2,0.7c3.3-0.2,4.9,0.1,5,0.6c0.3,0.9-3.6,3.9-8.5,4.6
							c-6.5,0.1-11.8-0.6-11.2-1.7c0.2-0.4,5.3-1.8,6.7-3.1c1.3-1.2,1.2-2.4,1.3-3.3C282.9,181.2,280.7,181.3,279.8,180z"/>
						<path class="st56" d="M281.6,168.9c-0.5,1.2,0.8,3.5,1.2,3.9c0,0,0.4,0.3,0.6,0.7c0,0.1,0.1,0.1,0.1,0.2
							c0.4,1.1-1.4,2.4-1,2.9c0.2,0.4,1.4-0.1,1.6,0.2c0.1,0.3-0.9,0.9-0.7,1.2c0.1,0.3,0.7,0,1.1,0.4c0.3,0.3,0.3,0.8,0.3,1
							c0,1.6-3.5,7.1-4.2,9.7c-0.8,2.7,0.6,5.2,5.7,12.3c7.2,10,10.8,15.1,12.8,16.5c9.8,7,21.2,6.1,26,5.4
							c5.6-0.9,17.3-2.7,21.1-11.7c4.3-10.3-4.2-24.5-12.9-26.9c-4-1.1-6.1,0.6-11.3-1.2c-5.7-2-5-5.5-10.3-7.6
							c-7.1-2.8-11.6,2.2-16.5-1.4c-2.6-2-2.2-4.1-5.4-5.7C286.5,167.1,282.4,167.4,281.6,168.9z"/>
						
							<linearGradient id="SVGID_00000041274319217557049570000007436271827469864602_" gradientUnits="userSpaceOnUse" x1="3639.1946" y1="598.0642" x2="3665.1958" y2="565.3514" gradientTransform="matrix(0.9663 0.2576 0.2576 -0.9663 -3391.3394 -191.9369)">
							<stop  offset="0" style="stop-color:#FFC444"/>
							<stop  offset="0.9964" style="stop-color:#F36F56"/>
						</linearGradient>
						<path style="fill:url(#SVGID_00000041274319217557049570000007436271827469864602_);" d="M283.2,176.1c0.4-0.6,1.2,0,1.2,0.7
							c0,0.8-0.7,1.5-1.4,1.4C282.2,178.1,282.6,176.9,283.2,176.1z"/>
					</g>
				</g>
				
					<linearGradient id="SVGID_00000103233486252474886960000000678060732127301264_" gradientUnits="userSpaceOnUse" x1="262.7832" y1="123.2475" x2="300.1156" y2="87.5993" gradientTransform="matrix(1 0 0 -1 0 343.8898)">
					<stop  offset="0" style="stop-color:#FF9085"/>
					<stop  offset="1" style="stop-color:#FB6FBB"/>
				</linearGradient>
				
					<path style="opacity:0.3;fill:url(#SVGID_00000103233486252474886960000000678060732127301264_);enable-background:new    ;" d="
					M294.9,262.3c-1.9-3.7,2.7-8.6-0.3-14.3c-2.5-4.8-7.1-3.7-9.3-8.1c-2.6-5.3,3-9.3,2.8-17.4c-0.2-9.7-8.6-19.4-13.5-18.5
					c-3.2,0.6-3.6,5.3-5.8,10.5c2,4.3,4.3,9.8,6.4,17c2.6,9,3.9,13.4,3.5,19.1c-0.5,7.9-3.2,12.4-0.6,16c1.7,2.2,4.9,2.6,11.2,3.2
					c5.8,0.6,15.2,1.4,25.8-3.4c1.3-0.6,2.3-1,3.2-1.5C301.9,267.4,296.4,265.3,294.9,262.3z"/>
				<path class="st53" d="M233.4,224.3c0.2-0.9,0.4-1.7,0.6-2.6c13,2.3,18.7-0.3,21.4-3.3c2.5-2.8,1.4-4.2,5.5-14.9
					c3.8-10.2,8.2-12.8,10.4-13.8c1.2-0.5,2.1-0.9,3.1-0.6c4.7,1.1,6.2,13.3,4.9,22.5c-0.7,5.1-2.2,15.2-10.5,20
					c-0.1,0.1-0.4,0.2-0.7,0.4c-1,0.6-5.2,2.6-13.3,1.1C245.1,231.2,235.7,225.7,233.4,224.3z"/>
			</g>
			<g>
				
					<linearGradient id="SVGID_00000004512970559491926470000007628625344308748697_" gradientUnits="userSpaceOnUse" x1="-3140.3777" y1="408.7079" x2="-3135.0967" y2="404.0104" gradientTransform="matrix(0.9902 -0.14 -0.14 -0.9902 3321.9502 275.9709)">
					<stop  offset="0" style="stop-color:#444B8C"/>
					<stop  offset="0.9964" style="stop-color:#26264F"/>
				</linearGradient>
				<path style="fill:url(#SVGID_00000004512970559491926470000007628625344308748697_);" d="M156.6,313.3c0.1-0.8,2.8-1.6,4.1-0.5
					c0.7,0.5,1.1,1.7,0.7,2.2c-0.1,0.2,0.4,0.5-0.1,0.5C159.6,315.5,156.5,314.1,156.6,313.3z"/>
				
					<linearGradient id="SVGID_00000043415636290052908690000002705614886239199886_" gradientUnits="userSpaceOnUse" x1="-3596.1255" y1="-592.4091" x2="-3596.1255" y2="-583.209" gradientTransform="matrix(0.9988 4.980000e-02 4.980000e-02 -0.9988 3781.9944 -97.7939)">
					<stop  offset="0" style="stop-color:#FFC444"/>
					<stop  offset="0.9964" style="stop-color:#F36F56"/>
				</linearGradient>
				<path style="fill:url(#SVGID_00000043415636290052908690000002705614886239199886_);" d="M159.5,313.3l2.8,0.1
					c-1-1.8,0.2-6.5,0.2-6.5l-3,0.1c0,0,0.1,1.4,0.3,3.4C159.8,311.2,159.7,312.2,159.5,313.3z"/>
				
					<linearGradient id="SVGID_00000120555383750360729200000014221781373553471634_" gradientUnits="userSpaceOnUse" x1="-3139.8445" y1="409.3071" x2="-3134.5635" y2="404.6097" gradientTransform="matrix(0.9902 -0.14 -0.14 -0.9902 3321.9502 275.9709)">
					<stop  offset="0" style="stop-color:#444B8C"/>
					<stop  offset="0.9964" style="stop-color:#26264F"/>
				</linearGradient>
				<path style="fill:url(#SVGID_00000120555383750360729200000014221781373553471634_);" d="M159.2,313.3c0,0,3.3-0.8,3.7-0.1
					c0.4,0.7,0.6,2.4-1.5,2.4C159.3,315.5,159,313.8,159.2,313.3z"/>
				
					<linearGradient id="SVGID_00000170236181788201562240000010999469692980670621_" gradientUnits="userSpaceOnUse" x1="-2985.2905" y1="29.7806" x2="-2980.0095" y2="25.083" gradientTransform="matrix(1 0 0 -1 3123.8826 343.8898)">
					<stop  offset="0" style="stop-color:#444B8C"/>
					<stop  offset="0.9964" style="stop-color:#26264F"/>
				</linearGradient>
				<path style="fill:url(#SVGID_00000170236181788201562240000010999469692980670621_);" d="M139.7,316.7c0.3-0.8,3-1.2,4.2,0.1
					c0.6,0.6,0.9,1.8,0.4,2.2c-0.2,0.2,0.4,0.6-0.2,0.5C142.4,319.3,139.5,317.5,139.7,316.7z"/>
				
					<linearGradient id="SVGID_00000165915776493803290540000001590783189764037021_" gradientUnits="userSpaceOnUse" x1="-3295.7146" y1="-903.9916" x2="-3295.7146" y2="-894.7913" gradientTransform="matrix(0.9813 0.1926 0.1926 -0.9813 3552.082 66.7689)">
					<stop  offset="0" style="stop-color:#FFC444"/>
					<stop  offset="0.9964" style="stop-color:#F36F56"/>
				</linearGradient>
				<path style="fill:url(#SVGID_00000165915776493803290540000001590783189764037021_);" d="M143,317.5l2.7,0.5
					c-0.7-1.9,1.1-6.4,1.1-6.4l-3-0.3c0,0-0.1,1.4-0.2,3.4C143.6,315.4,143.3,316.4,143,317.5z"/>
				
					<linearGradient id="SVGID_00000098919555063983604810000007828679395075023520_" gradientUnits="userSpaceOnUse" x1="-2984.7573" y1="30.3801" x2="-2979.4761" y2="25.6825" gradientTransform="matrix(1 0 0 -1 3123.8826 343.8898)">
					<stop  offset="0" style="stop-color:#444B8C"/>
					<stop  offset="0.9964" style="stop-color:#26264F"/>
				</linearGradient>
				<path style="fill:url(#SVGID_00000098919555063983604810000007828679395075023520_);" d="M142.3,317c0,0,3.4-0.3,3.6,0.4
					c0.3,0.7,0.3,2.5-1.8,2.1C142.1,319.2,142,317.5,142.3,317z"/>
				<g>
					<path class="st56" d="M156.7,234.1l-11.7-27.4c-0.6-1.4,0.2-2.9,1.6-3.3l21.4-5.2c1.2-0.3,2.4,0.3,2.8,1.4l10.8,26.3
						c0.5,1.3-0.2,2.8-1.5,3.2l-20.5,6.3C158.5,235.8,157.2,235.2,156.7,234.1z"/>
					<path class="st44" d="M157.3,232.8l-10.9-25.6c-0.6-1.3,0.2-2.7,1.5-3.1l20-4.9c1.1-0.3,2.2,0.3,2.6,1.3l10.1,24.6
						c0.5,1.2-0.2,2.6-1.4,3L160,234C158.9,234.4,157.7,233.8,157.3,232.8z"/>
				</g>
				
					<linearGradient id="SVGID_00000063592372929175085290000008473359544584064671_" gradientUnits="userSpaceOnUse" x1="-5582.104" y1="128.5234" x2="-5585.332" y2="113.7869" gradientTransform="matrix(1 0 0 -1 5732.9619 343.8898)">
					<stop  offset="0" style="stop-color:#FFC444"/>
					<stop  offset="0.9964" style="stop-color:#F36F56"/>
				</linearGradient>
				<path style="fill:url(#SVGID_00000063592372929175085290000008473359544584064671_);" d="M150.5,225.2l-0.4-3.2l-1.9-3.6
					c-0.2-0.5-0.4-1-0.4-1.6v-3.5l2.2,5.2c0,0,1.5-1.3,2-1.6c0.6-0.3,0.5,0.8,0.1,1.3s0.2,3.9-0.2,4.2l0.1,2.1L150.5,225.2z"/>
				<path class="st66" d="M168.4,204.7c1.8-4.3,5.5-6.7,7.4-8c4.6-3,7.5-2.5,18.1-4.1c14.1-2.1,15.8-4.2,20.5-2.5
					c6.2,2.2,9.5,7.8,10.9,10.4c7.5,13-1.3,19.6,1,45.6c0.9,10.6,3.3,19.8-2.4,25.3c-1.2,1.1-2.5,1.8-5.2,3
					c-10.6,4.8-20.1,3.9-25.8,3.4c-6.3-0.6-9.6-1-11.2-3.2c-2.7-3.6,0.1-8.1,0.6-16c0.4-5.6-0.9-10.1-3.5-19.1
					C172.8,218.5,165,212.9,168.4,204.7z"/>
				<g>
					<g>
						
							<linearGradient id="SVGID_00000064339458949727631880000012185254007586794929_" gradientUnits="userSpaceOnUse" x1="-1985.0101" y1="-909.2933" x2="-1961.7222" y2="-938.5926" gradientTransform="matrix(0.9663 0.2576 0.2576 -0.9663 2341.6226 -191.9369)">
							<stop  offset="0" style="stop-color:#FFC444"/>
							<stop  offset="0.9964" style="stop-color:#F36F56"/>
						</linearGradient>
						<path style="fill:url(#SVGID_00000064339458949727631880000012185254007586794929_);" d="M191.9,184.9
							c-0.6-2.3,0.5-4.4,0.7-4.9c1-1.9,1.3-2.2,1.8-2.5l0.7-0.4c0,0,0,0,0.1,0c0.4-0.2,1.9-0.2,2.2-0.1c1,0.2,2,4.2,1.7,9.8
							c0,0.2,0.1,0.4,0.1,0.6c0.1,0.9,0.3,1.8,0.4,2.6c0.1,0.8,1.2,0.8,2.1,0.7c3.3-0.2,4.9,0.1,5.1,0.6c0.3,0.9-3.6,3.9-8.5,4.6
							c-6.5,0.1-11.8-0.6-11.2-1.7c0.2-0.4,5.3-1.8,6.7-3.1c1.3-1.2,1.2-2.4,1.3-3.3C194.7,187.6,192.4,186.6,191.9,184.9z"/>
						<path class="st56" d="M193.1,175.6c0,1.7,0.8,3.6,1.2,3.9c0.1,0,0.4,0.3,0.6,0.7c0,0.1,0.1,0.1,0.1,0.2c0.4,1.1-1.4,2.4-1,2.9
							c0.2,0.4,1.4-0.1,1.6,0.2c0.1,0.3-0.9,0.9-0.7,1.2c0.1,0.3,0.7,0,1.1,0.4c0.2,0.2,0.1,0.4,0.3,1c0.1,0.3,0.3,0.7,0.4,0.9
							c0.6,1,2.3,1.4,2.6,1c0.1-0.1,0-0.2,0.1-0.6c0,0,0.1-0.4,0.3-0.8c0.4-0.6,1.2-1,2.1-1.6c1.6-1.1,2-2.1,2.1-2.4
							c0.1-0.1,0.1-0.2,0.1-0.3c0.4-1.3,0.4-3.1-0.2-4.3c-1-1.9-3.1-1-4.9-2.9c-2.1-2.2-0.8-5.2-1.9-5.6
							C195.9,169.1,193.1,172.4,193.1,175.6z"/>
						
							<linearGradient id="SVGID_00000091713183433805335560000001036528121461405846_" gradientUnits="userSpaceOnUse" x1="-1983.8992" y1="-907.8215" x2="-1957.8981" y2="-940.5342" gradientTransform="matrix(0.9663 0.2576 0.2576 -0.9663 2341.6226 -191.9369)">
							<stop  offset="0" style="stop-color:#FFC444"/>
							<stop  offset="0.9964" style="stop-color:#F36F56"/>
						</linearGradient>
						<path style="fill:url(#SVGID_00000091713183433805335560000001036528121461405846_);" d="M194.7,182.8c0.4-0.6,1.2,0,1.2,0.7
							c0,0.8-0.7,1.5-1.4,1.4C193.7,184.7,194.1,183.6,194.7,182.8z"/>
					</g>
					<path class="st56" d="M195,181.5l-1,1.3c0,0-1.1,1.6-1.7,0.7c-0.5-0.7-0.6-0.7-0.7-0.7c0,0,0,0,0,0c0,0,0.1-0.4,0.1-0.6
						c-0.3,0.4-0.6,1-0.8,1.8c-0.2,0.8-0.4,1.6,0,2.5c0,0.1,0.5,0.9,1.4,1.1c0,0,0.4,0.1,1.9-0.2c0,0-1.7-1.2-1.7-1.5
						c-0.1-0.8,1-1.2,1.8-2.8C194.8,182.5,194.9,181.9,195,181.5z"/>
				</g>
				
					<linearGradient id="SVGID_00000087371248639041044040000008977370419859130020_" gradientUnits="userSpaceOnUse" x1="-5566.708" y1="115.367" x2="-5529.376" y2="79.7189" gradientTransform="matrix(1 0 0 -1 5732.9619 343.8898)">
					<stop  offset="3.597120e-03" style="stop-color:#E38DDD"/>
					<stop  offset="1" style="stop-color:#9571F6"/>
				</linearGradient>
				
					<path style="opacity:0.3;fill:url(#SVGID_00000087371248639041044040000008977370419859130020_);enable-background:new    ;" d="
					M198.4,270.2c-1.9-3.7,2.7-8.6-0.3-14.3c-2.5-4.8-7.1-3.7-9.3-8.1c-2.6-5.3,3-9.3,2.8-17.4c-0.2-9.7-8.6-19.4-13.5-18.5
					c-3.2,0.6-3.6,5.3-5.8,10.5c2,4.3,4.3,9.8,6.4,17c2.6,9,3.9,13.4,3.5,19.1c-0.5,7.9-3.2,12.4-0.6,16c1.7,2.2,4.9,2.6,11.2,3.2
					c5.8,0.6,15.2,1.4,25.8-3.4c1.3-0.6,2.3-1,3.2-1.5C205.4,275.3,199.9,273.2,198.4,270.2z"/>
				<path class="st66" d="M149.9,224.6c1-0.4,2.1-0.9,3.1-1.3c1.7,1.8,4,3.5,5.8,2.9c2.8-0.8,2.1-5.9,5.5-14.9
					c3.8-10.2,8.2-12.8,10.4-13.8c1.2-0.5,2.1-0.9,3.1-0.6c4.7,1.1,6.2,13.3,4.9,22.5c-0.7,5.1-2.2,15.2-10.5,20
					c-1.2,0.7-7.6,4.4-14,1.5C152.7,238.3,149.3,231.8,149.9,224.6z"/>
				
					<linearGradient id="SVGID_00000166644146836033334810000015139220986001971114_" gradientUnits="userSpaceOnUse" x1="-5527.2549" y1="87.7349" x2="-5557.8569" y2="65.8759" gradientTransform="matrix(1 0 0 -1 5732.9619 343.8898)">
					<stop  offset="0" style="stop-color:#444B8C"/>
					<stop  offset="0.9964" style="stop-color:#26264F"/>
				</linearGradient>
				<path style="fill:url(#SVGID_00000166644146836033334810000015139220986001971114_);" d="M157.7,307.3c1.7,0.2,3.4,0.4,5.1,0.6
					c2.3-2.6,5.8-7,7.6-13.3c3.5-12-2-19.9,1.7-23c4.3-3.5,12.7,6,31.4,8.7c6,0.9,19.3,2.8,24.7-4.4c2.2-2.9,3.4-7.8,1.7-12
					c-3.1-7.5-13.3-6.6-46.9-13.1c-13-2.5-15-3.4-18.1-1.9C149.7,256.3,156.1,297.4,157.7,307.3z"/>
				
					<linearGradient id="SVGID_00000064324800357158272160000012115826925627080323_" gradientUnits="userSpaceOnUse" x1="-5593.2485" y1="60.9678" x2="-5517.4717" y2="60.9678" gradientTransform="matrix(1 0 0 -1 5732.9619 343.8898)">
					<stop  offset="0" style="stop-color:#444B8C"/>
					<stop  offset="0.9964" style="stop-color:#26264F"/>
				</linearGradient>
				<path style="fill:url(#SVGID_00000064324800357158272160000012115826925627080323_);" d="M142.5,312.2c1.7,0.2,3.4,0.4,5.1,0.6
					c2.3-2.6,5.8-7,7.6-13.3c3.5-12-2-19.9,1.7-23c4.3-3.5,12.7,6,31.4,8.7c6,0.9,19.3,2.8,24.7-4.4c2.2-2.9,3.4-7.8,1.7-12
					c-3.1-7.5-13.3-6.6-46.9-13.1c-13-2.5-15-3.4-18.1-1.9C134.4,261.1,140.8,302.2,142.5,312.2z"/>
			</g>
			<g>
				<ellipse class="st41" cx="201" cy="332.8" rx="28.4" ry="11.6"/>
				<path class="st72" d="M229.4,331.5c0,6-12.7,10.9-28.4,10.9s-28.4-4.9-28.4-10.9c0-6,12.7-15.9,28.4-15.9
					C216.7,315.5,229.4,325.4,229.4,331.5z"/>
				
					<linearGradient id="SVGID_00000114773565819125354630000000158003753079554955_" gradientUnits="userSpaceOnUse" x1="-6015.0703" y1="17.7098" x2="-5967.3979" y2="17.7098" gradientTransform="matrix(1 0 0 -1 6196.7881 343.8898)">
					<stop  offset="0" style="stop-color:#AA80F9"/>
					<stop  offset="0.9964" style="stop-color:#6165D7"/>
				</linearGradient>
				
					<path style="opacity:0.3;fill:url(#SVGID_00000114773565819125354630000000158003753079554955_);enable-background:new    ;" d="
					M229.4,331.5c0-6-12.7-15.9-28.4-15.9c-7.2,0-13.8,2.1-18.8,5c-0.4,0.7-0.5,1.5-0.4,2.2c0.3,3.4,5.9,5.5,9,6.2
					c8,1.7,11.9-3,18.5-2.9c4.1,0.1,9.7,2.2,16.4,10.9C228.1,335.2,229.4,333.4,229.4,331.5z"/>
				<path class="st1" d="M202.6,321c-1.1,0.3-2.2,0.3-3.2,0c-0.9-0.2-1.5-1.1-1.5-2v-32h6.3v32C204.2,320,203.5,320.8,202.6,321z"/>
				
					<linearGradient id="SVGID_00000098218944208097421870000004348338569818758303_" gradientUnits="userSpaceOnUse" x1="-5998.9282" y1="39.7505" x2="-5992.6182" y2="39.7505" gradientTransform="matrix(1 0 0 -1 6196.7881 343.8898)">
					<stop  offset="0" style="stop-color:#AA80F9"/>
					<stop  offset="0.9964" style="stop-color:#6165D7"/>
				</linearGradient>
				
					<path style="opacity:0.65;fill:url(#SVGID_00000098218944208097421870000004348338569818758303_);enable-background:new    ;" d="
					M202.6,321c-1.1,0.3-2.2,0.3-3.2,0c-0.9-0.2-1.5-1.1-1.5-2v-32h6.3v32C204.2,320,203.5,320.8,202.6,321z"/>
				<g>
					
						<linearGradient id="SVGID_00000023258142456986679280000012486111810774417807_" gradientUnits="userSpaceOnUse" x1="-5964.4541" y1="46.4562" x2="-5976.0205" y2="61.5276" gradientTransform="matrix(1 0 0 -1 6196.7881 343.8898)">
						<stop  offset="0" style="stop-color:#311944"/>
						<stop  offset="1" style="stop-color:#893976"/>
					</linearGradient>
					<path style="fill:url(#SVGID_00000023258142456986679280000012486111810774417807_);" d="M167.7,273.6l9.6-6.1
						c0.4-2.3,4.9-26.1,23.4-33.6c7.5-3,15.6-2.7,20-2.5c8.8,0.4,15.1,0.7,18.2,4.9c3.9,5.4-2.6,10.3-1.3,25.8
						c0.6,6.3,1.9,9.1,0.2,13.3c-2.1,5-6.9,7.8-10.7,9.4c-4.5,2.6-12.4,6.4-22.7,7.3c-17.5,1.5-30.5-6-35-8.8
						c-2-0.6-3.5-2.3-3.9-4.3C165,276.9,165.9,274.7,167.7,273.6z"/>
				</g>
				<path class="st76" d="M172.1,277.9c0.4-2.1,6.3-0.4,12-4.6c8.4-6.3,4.1-16.9,11.4-27.1c6.7-9.4,20.3-14.1,24.5-10.6
					c5.6,4.7-8.1,22.5,0,33.9c3.9,5.6,9.9,5.3,10,8.5c0.1,5.1-14.9,11.1-29.1,10.8C185.7,288.8,171.6,281.3,172.1,277.9z"/>
			</g>
		</g>
		<g>
			<ellipse class="st41" cx="298.1" cy="314.2" rx="25.4" ry="10.4"/>
			<path class="st72" d="M323.5,313c0,5.4-11.4,9.8-25.4,9.8s-25.4-4.4-25.4-9.8c0-5.4,11.4-14.2,25.4-14.2
				C312.1,298.8,323.5,307.6,323.5,313z"/>
			
				<linearGradient id="SVGID_00000172402150727094713520000010901545636073001906_" gradientUnits="userSpaceOnUse" x1="355.2163" y1="35.6348" x2="397.8193" y2="35.6348" gradientTransform="matrix(1 0 0 -1 -74.3293 343.8898)">
				<stop  offset="0" style="stop-color:#AA80F9"/>
				<stop  offset="0.9964" style="stop-color:#6165D7"/>
			</linearGradient>
			<path style="opacity:0.3;fill:url(#SVGID_00000172402150727094713520000010901545636073001906_);enable-background:new    ;" d="
				M323.5,313c0-5.4-11.4-14.2-25.4-14.2c-6.5,0-12.4,1.9-16.8,4.4c-0.3,0.7-0.5,1.3-0.4,1.9c0.3,3,5.2,4.9,8.1,5.5
				c7.1,1.5,10.6-2.7,16.5-2.6c3.6,0.1,8.7,1.9,14.7,9.7C322.3,316.3,323.5,314.7,323.5,313z"/>
			<path class="st1" d="M299.5,303.6c-1,0.2-2,0.2-2.9,0c-0.8-0.2-1.4-1-1.4-1.8v-28.6h5.6v28.5C301,302.7,300.4,303.4,299.5,303.6z
				"/>
			
				<linearGradient id="SVGID_00000114033158795914058830000009078741704554185631_" gradientUnits="userSpaceOnUse" x1="369.6493" y1="55.3167" x2="375.2893" y2="55.3167" gradientTransform="matrix(1 0 0 -1 -74.3293 343.8898)">
				<stop  offset="0" style="stop-color:#AA80F9"/>
				<stop  offset="0.9964" style="stop-color:#6165D7"/>
			</linearGradient>
			
				<path style="opacity:0.65;fill:url(#SVGID_00000114033158795914058830000009078741704554185631_);enable-background:new    ;" d="
				M299.5,303.6c-1,0.2-2,0.2-2.9,0c-0.8-0.2-1.4-1-1.4-1.8v-28.6h5.6v28.5C301,302.7,300.4,303.4,299.5,303.6z"/>
			<g>
				
					<linearGradient id="SVGID_00000145055750000418639760000000203085090485568422_" gradientUnits="userSpaceOnUse" x1="400.4535" y1="61.3212" x2="390.1186" y2="74.7879" gradientTransform="matrix(1 0 0 -1 -74.3293 343.8898)">
					<stop  offset="0" style="stop-color:#311944"/>
					<stop  offset="1" style="stop-color:#893976"/>
				</linearGradient>
				<path style="fill:url(#SVGID_00000145055750000418639760000000203085090485568422_);" d="M268.4,261.3l8.6-5.4
					c0.4-2,4.4-23.3,20.9-30c6.7-2.7,13.9-2.4,17.9-2.2c7.9,0.4,13.5,0.6,16.2,4.4c3.5,4.8-2.4,9.2-1.1,23.1
					c0.5,5.6,1.8,8.1,0.2,11.9c-1.9,4.5-6.2,7-9.6,8.4c-4,2.3-11,5.7-20.3,6.5c-15.6,1.4-27.3-5.3-31.3-7.9c-1.8-0.6-3.1-2-3.5-3.9
					C265.9,264.2,266.8,262.3,268.4,261.3z"/>
			</g>
			<path class="st76" d="M272.3,265.1c0.3-1.9,5.6-0.3,10.7-4.1c7.5-5.6,3.6-15.1,10.2-24.2c6-8.4,18.1-12.6,21.9-9.4
				c5,4.2-7.2,20.1,0,30.3c3.5,5,8.9,4.7,8.9,7.6c0,4.6-13.3,9.9-26,9.7C284.4,274.8,271.8,268.2,272.3,265.1z"/>
		</g>
	</g>
</g>
</svg>
