<?xml version="1.0" encoding="utf-8"?>
<!-- Generator: Adobe Illustrator 26.1.0, SVG Export Plug-In . SVG Version: 6.00 Build 0)  -->
<svg version="1.1" id="Layer_1" xmlns="http://www.w3.org/2000/svg" xmlns:xlink="http://www.w3.org/1999/xlink" x="0px" y="0px"
	 viewBox="0 0 229.74 229.96" style="enable-background:new 0 0 229.74 229.96;" xml:space="preserve">
<g>
	<path style="fill:#1B57B3;" d="M39.2,18.01C56.45,5.99,74.35,0,94.12,0c21.42,0,40.48,6.89,57.4,19.89
		c0.79,0.61,1.79,1.23,2.13,2.07c0.64,1.59,0.86,3.35,1.26,5.04c-1.63-0.11-3.56,0.32-4.85-0.4c-8.25-4.63-15.89-10.66-24.58-14.09
		C96.88,1.23,69.76,5.43,44.39,23.3c3.5,0.21,7.06,0.07,10.46,0.75c2.07,0.42,5.43,1.97,5.53,3.24c0.29,3.51-2.94,3.14-5.46,3.03
		c-5.82-0.26-11.64-0.59-17.46-0.76c-3.78-0.11-5.34-1.78-5.05-5.64c0.43-5.8,0.3-11.66,0.93-17.43c0.2-1.82,2.09-3.46,3.21-5.18
		c1.02,1.75,2.69,3.42,2.9,5.26C39.84,9.96,39.36,13.44,39.2,18.01z"/>
	<path style="fill:#1B57B3;" d="M150.71,211.94c-17.24,12.03-35.14,18.01-54.92,18.01c-21.42,0-40.48-6.89-57.4-19.89
		c-0.79-0.61-1.79-1.23-2.13-2.07c-0.64-1.59-0.86-3.35-1.26-5.04c1.63,0.11,3.56-0.32,4.85,0.4c8.25,4.63,15.89,10.66,24.58,14.09
		c28.6,11.27,55.72,7.08,81.09-10.8c-3.5-0.21-7.06-0.07-10.46-0.75c-2.07-0.42-5.43-1.97-5.53-3.24c-0.29-3.51,2.94-3.14,5.46-3.03
		c5.82,0.26,11.63,0.59,17.46,0.76c3.78,0.11,5.34,1.78,5.05,5.64c-0.43,5.8-0.3,11.66-0.93,17.43c-0.2,1.82-2.09,3.46-3.21,5.18
		c-1.02-1.75-2.69-3.42-2.9-5.26C150.08,219.99,150.56,216.51,150.71,211.94z"/>
	<g>
		<g>
			<path style="fill:#2E76E6;" d="M31.99,113.09c-1.01-1.83-2.34-3.38-3.88-4.61l0.39-0.49l0.77-0.97l0.01-0.01
				c-1.76-1.41-3.77-2.44-5.91-3.06l-0.52,1.8c-1.93-0.56-3.97-0.75-6-0.51l-0.21-1.87c-2.16,0.24-4.32,0.9-6.34,2.01l0.91,1.65
				c-1.84,1.01-3.38,2.34-4.61,3.88l-1.47-1.17c-1.41,1.76-2.44,3.78-3.06,5.91l1.8,0.52c-0.56,1.93-0.75,3.97-0.51,6l-1.87,0.21
				c0.24,2.16,0.9,4.32,2.01,6.34l1.65-0.91c1.01,1.84,2.34,3.38,3.88,4.61l-0.83,1.04l-0.33,0.43l-0.01,0
				c1.76,1.41,3.78,2.44,5.91,3.06l0.52-1.8c1.93,0.56,3.98,0.74,6.01,0.5l0.21,1.87c2.16-0.24,4.31-0.9,6.34-2.01l-0.91-1.65
				c1.84-1.01,3.39-2.34,4.62-3.88l1.14,0.91l0.33,0.26c1.41-1.76,2.43-3.77,3.05-5.9l-1.8-0.52c0.56-1.93,0.74-3.98,0.51-6.01
				l1.87-0.21c-0.24-2.16-0.9-4.31-2.01-6.33L31.99,113.09z M22.57,127.75c-4.03,2.21-9.08,0.74-11.29-3.29
				c-2.21-4.02-0.74-9.07,3.29-11.29c4.02-2.21,9.07-0.74,11.28,3.28C28.06,120.49,26.59,125.54,22.57,127.75z"/>
		</g>
		<g>
			<path style="fill:none;stroke:#2E76E6;stroke-width:0.8724;stroke-linejoin:round;stroke-miterlimit:10;" d="M11.53,87.99
				c-0.64-0.59-1.38-1.03-2.16-1.31l0.09-0.25l0.18-0.49l0-0.01c-0.89-0.32-1.82-0.46-2.75-0.42l0.03,0.78
				c-0.84,0.04-1.67,0.24-2.45,0.61l-0.34-0.71c-0.83,0.38-1.59,0.94-2.24,1.65l0.58,0.53c-0.59,0.65-1.03,1.38-1.31,2.16
				l-0.74-0.27c-0.32,0.89-0.46,1.82-0.42,2.75L0.79,93c0.04,0.84,0.24,1.67,0.61,2.45l-0.71,0.34c0.38,0.83,0.94,1.59,1.65,2.24
				l0.53-0.58c0.65,0.59,1.38,1.03,2.16,1.31l-0.19,0.52l-0.08,0.21l0,0c0.89,0.32,1.82,0.46,2.75,0.42l-0.03-0.78
				c0.84-0.04,1.68-0.24,2.45-0.61l0.34,0.71c0.83-0.38,1.59-0.94,2.24-1.65l-0.58-0.53c0.59-0.65,1.03-1.38,1.31-2.16l0.57,0.21
				l0.17,0.06c0.32-0.89,0.46-1.82,0.42-2.75l-0.78,0.03c-0.04-0.84-0.24-1.68-0.61-2.45l0.71-0.34c-0.39-0.82-0.94-1.59-1.65-2.24
				L11.53,87.99z M9.76,95.07c-1.3,1.42-3.5,1.51-4.92,0.21c-1.42-1.3-1.51-3.5-0.21-4.92c1.3-1.42,3.5-1.51,4.91-0.21
				C10.96,91.46,11.06,93.66,9.76,95.07z"/>
		</g>
	</g>
	<g>
		<g>
			<path style="fill:#AAE0FF;" d="M197.98,182.31H36.78c-17.47,0-31.76-14.29-31.76-31.76v0c0-17.47,14.29-31.76,31.76-31.76h161.2
				c17.47,0,31.76,14.29,31.76,31.76v0C229.74,168.02,215.45,182.31,197.98,182.31z"/>
			
				<ellipse transform="matrix(0.7071 -0.7071 0.7071 0.7071 -32.9666 134.1666)" style="fill:#AAE0FF;" cx="145.47" cy="106.88" rx="49.66" ry="49.66"/>
			<circle style="fill:#AAE0FF;" cx="77.6" cy="109.57" r="33.48"/>
		</g>
	</g>
	<g>
		<g>
			<rect x="50.89" y="48.62" style="fill:#1B57B3;" width="10.64" height="81.9"/>
			<g>
				<rect x="21.25" y="48.63" style="fill:#408BFF;" width="29.71" height="81.9"/>
				<rect x="23.27" y="60.46" style="fill:#265399;" width="25.68" height="64.89"/>
				<path style="fill:#265399;" d="M22.28,87.8L22.28,87.8c-0.24,0-0.44-0.2-0.44-0.44v-7.2c0-0.24,0.2-0.44,0.44-0.44l0,0
					c0.24,0,0.44,0.2,0.44,0.44v7.2C22.72,87.6,22.52,87.8,22.28,87.8z"/>
				<rect x="50" y="66.81" style="fill:#265399;" width="0.96" height="5.11"/>
				<rect x="50" y="111.81" style="fill:#265399;" width="0.96" height="5.11"/>
				<g>
					<rect x="24.3" y="70.62" style="fill:#408BFF;" width="24.03" height="7.89"/>
					<rect x="24.3" y="79.81" style="fill:#408BFF;" width="24.03" height="7.89"/>
					<rect x="24.3" y="89" style="fill:#408BFF;" width="24.03" height="7.89"/>
					<rect x="24.3" y="98.18" style="fill:#408BFF;" width="24.03" height="7.89"/>
					<rect x="24.3" y="107.37" style="fill:#408BFF;" width="24.03" height="7.89"/>
					<rect x="24.3" y="116.56" style="fill:#408BFF;" width="24.03" height="7.89"/>
					<g>
						<rect x="24.3" y="61.44" style="fill:#408BFF;" width="24.03" height="7.89"/>
						<g>
							<rect x="26.25" y="63.48" style="fill:#265399;" width="19.81" height="3.92"/>
							<g>
								<rect x="27.05" y="64.56" style="fill:#408BFF;" width="14.2" height="1.8"/>
								<g>
									<path style="fill:#246AD6;" d="M42.69,65.46c0,0.26-0.2,0.48-0.46,0.48c-0.25,0-0.46-0.21-0.46-0.48s0.2-0.48,0.46-0.48
										C42.49,64.98,42.69,65.19,42.69,65.46z"/>
									<path style="fill:#408BFF;" d="M44.01,65.46c0,0.26-0.2,0.48-0.46,0.48c-0.25,0-0.46-0.21-0.46-0.48s0.2-0.48,0.46-0.48
										C43.8,64.98,44.01,65.19,44.01,65.46z"/>
									<path style="fill:#408BFF;" d="M45.32,65.46c0,0.26-0.2,0.48-0.46,0.48c-0.25,0-0.46-0.21-0.46-0.48s0.2-0.48,0.46-0.48
										C45.12,64.98,45.32,65.19,45.32,65.46z"/>
								</g>
							</g>
						</g>
					</g>
					<g>
						<rect x="26.25" y="72.77" style="fill:#265399;" width="19.81" height="3.92"/>
						<g>
							<rect x="27.05" y="73.85" style="fill:#408BFF;" width="14.2" height="1.8"/>
						</g>
					</g>
					<g>
						<rect x="26.25" y="82.06" style="fill:#265399;" width="19.81" height="3.92"/>
						<g>
							<rect x="27.05" y="83.14" style="fill:#408BFF;" width="14.2" height="1.8"/>
						</g>
					</g>
					<g>
						<rect x="26.25" y="91.35" style="fill:#265399;" width="19.81" height="3.92"/>
						<g>
							<rect x="27.05" y="92.43" style="fill:#408BFF;" width="14.2" height="1.8"/>
						</g>
					</g>
					<g>
						<rect x="26.25" y="100.4" style="fill:#265399;" width="19.81" height="3.92"/>
						<g>
							<rect x="27.05" y="101.47" style="fill:#408BFF;" width="14.2" height="1.8"/>
						</g>
						<g>
							<ellipse style="fill:#246AD6;" cx="42.23" cy="102.41" rx="0.46" ry="0.48"/>
							<path style="fill:#408BFF;" d="M44.01,102.41c0,0.26-0.2,0.48-0.46,0.48c-0.25,0-0.46-0.21-0.46-0.48
								c0-0.26,0.2-0.48,0.46-0.48C43.8,101.93,44.01,102.15,44.01,102.41z"/>
							<ellipse style="fill:#408BFF;" cx="44.87" cy="102.41" rx="0.46" ry="0.48"/>
						</g>
					</g>
					<g>
						<rect x="26.25" y="109.73" style="fill:#265399;" width="19.81" height="3.92"/>
						<g>
							<rect x="27.05" y="110.8" style="fill:#408BFF;" width="14.2" height="1.8"/>
						</g>
					</g>
					<g>
						<rect x="26.25" y="118.84" style="fill:#265399;" width="19.81" height="3.92"/>
						<g>
							<rect x="27.05" y="119.91" style="fill:#408BFF;" width="14.2" height="1.8"/>
						</g>
						<g>
							<ellipse style="fill:#246AD6;" cx="42.23" cy="120.87" rx="0.46" ry="0.48"/>
							<path style="fill:#408BFF;" d="M44.01,120.87c0,0.26-0.2,0.48-0.46,0.48c-0.25,0-0.46-0.21-0.46-0.48
								c0-0.26,0.2-0.48,0.46-0.48C43.8,120.39,44.01,120.6,44.01,120.87z"/>
							<ellipse style="fill:#408BFF;" cx="44.87" cy="120.87" rx="0.46" ry="0.48"/>
						</g>
					</g>
					<g>
						<path style="fill:#246AD6;" d="M42.69,74.82c0,0.26-0.2,0.48-0.46,0.48c-0.25,0-0.46-0.21-0.46-0.48
							c0-0.26,0.2-0.48,0.46-0.48C42.49,74.34,42.69,74.56,42.69,74.82z"/>
						<path style="fill:#408BFF;" d="M44.01,74.82c0,0.26-0.2,0.48-0.46,0.48c-0.25,0-0.46-0.21-0.46-0.48
							c0-0.26,0.2-0.48,0.46-0.48C43.8,74.34,44.01,74.56,44.01,74.82z"/>
						<path style="fill:#408BFF;" d="M45.32,74.82c0,0.26-0.2,0.48-0.46,0.48c-0.25,0-0.46-0.21-0.46-0.48
							c0-0.26,0.2-0.48,0.46-0.48C45.12,74.34,45.32,74.56,45.32,74.82z"/>
					</g>
					<g>
						<ellipse style="fill:#246AD6;" cx="42.23" cy="84.01" rx="0.46" ry="0.48"/>
						<path style="fill:#408BFF;" d="M44.01,84.01c0,0.26-0.2,0.48-0.46,0.48c-0.25,0-0.46-0.21-0.46-0.48
							c0-0.26,0.2-0.48,0.46-0.48C43.8,83.53,44.01,83.75,44.01,84.01z"/>
						<ellipse style="fill:#408BFF;" cx="44.87" cy="84.01" rx="0.46" ry="0.48"/>
					</g>
					<g>
						<path style="fill:#246AD6;" d="M42.69,93.36c0,0.26-0.2,0.48-0.46,0.48c-0.25,0-0.46-0.21-0.46-0.48
							c0-0.26,0.2-0.48,0.46-0.48C42.49,92.88,42.69,93.09,42.69,93.36z"/>
						<path style="fill:#408BFF;" d="M44.01,93.36c0,0.26-0.2,0.48-0.46,0.48c-0.25,0-0.46-0.21-0.46-0.48
							c0-0.26,0.2-0.48,0.46-0.48C43.8,92.88,44.01,93.09,44.01,93.36z"/>
						<path style="fill:#408BFF;" d="M45.32,93.36c0,0.26-0.2,0.48-0.46,0.48c-0.25,0-0.46-0.21-0.46-0.48
							c0-0.26,0.2-0.48,0.46-0.48C45.12,92.88,45.32,93.09,45.32,93.36z"/>
					</g>
					<g>
						<path style="fill:#246AD6;" d="M42.69,111.74c0,0.26-0.2,0.48-0.46,0.48c-0.25,0-0.46-0.21-0.46-0.48
							c0-0.26,0.2-0.48,0.46-0.48C42.49,111.26,42.69,111.48,42.69,111.74z"/>
						<path style="fill:#408BFF;" d="M44.01,111.74c0,0.26-0.2,0.48-0.46,0.48c-0.25,0-0.46-0.21-0.46-0.48
							c0-0.26,0.2-0.48,0.46-0.48C43.8,111.26,44.01,111.48,44.01,111.74z"/>
						<path style="fill:#408BFF;" d="M45.32,111.74c0,0.26-0.2,0.48-0.46,0.48c-0.25,0-0.46-0.21-0.46-0.48
							c0-0.26,0.2-0.48,0.46-0.48C45.12,111.26,45.32,111.48,45.32,111.74z"/>
					</g>
				</g>
			</g>
			<rect x="50.89" y="48.62" style="fill:#2D76E6;" width="0.79" height="81.9"/>
			<polygon style="fill:#0B254D;" points="51.74,130.52 51.62,130.52 51.62,59.35 21.28,59.35 21.28,59.22 51.74,59.22 			"/>
			<rect x="50" y="88.53" style="fill:#265399;" width="0.96" height="5.11"/>
			<g>
				<g>
					<g>
						<polygon style="fill:#265399;" points="35.02,51.55 24.1,51.55 23.26,50.73 35.02,50.73 						"/>
					</g>
				</g>
				<g>
					<g>
						<polygon style="fill:#265399;" points="35.02,52.78 24.1,52.78 23.26,51.97 35.02,51.97 						"/>
					</g>
				</g>
				<g>
					<g>
						<polygon style="fill:#265399;" points="35.02,54.01 24.1,54.01 23.26,53.2 35.02,53.2 						"/>
					</g>
				</g>
				<g>
					<g>
						<polygon style="fill:#265399;" points="35.02,55.24 24.1,55.24 23.26,54.43 35.02,54.43 						"/>
					</g>
				</g>
				<g>
					<g>
						<polygon style="fill:#265399;" points="35.02,56.47 24.1,56.47 23.26,55.66 35.02,55.66 						"/>
					</g>
				</g>
				<g>
					<g>
						<polygon style="fill:#265399;" points="35.02,57.7 24.1,57.7 23.26,56.89 35.02,56.89 						"/>
					</g>
				</g>
			</g>
			<g>
				<g>
					<g>
						<polygon style="fill:#265399;" points="48.77,51.55 37.85,51.55 37.01,50.73 48.77,50.73 						"/>
					</g>
				</g>
				<g>
					<g>
						<polygon style="fill:#265399;" points="48.77,52.78 37.85,52.78 37.01,51.97 48.77,51.97 						"/>
					</g>
				</g>
				<g>
					<g>
						<polygon style="fill:#265399;" points="48.77,54.01 37.85,54.01 37.01,53.2 48.77,53.2 						"/>
					</g>
				</g>
				<g>
					<g>
						<polygon style="fill:#265399;" points="48.77,55.24 37.85,55.24 37.01,54.43 48.77,54.43 						"/>
					</g>
				</g>
				<g>
					<g>
						<polygon style="fill:#265399;" points="48.77,56.47 37.85,56.47 37.01,55.66 48.77,55.66 						"/>
					</g>
				</g>
				<g>
					<g>
						<polygon style="fill:#265399;" points="48.77,57.7 37.85,57.7 37.01,56.89 48.77,56.89 						"/>
					</g>
				</g>
			</g>
			<g>
				<g>
					<path style="fill:#408BFF;" d="M60.42,65.5h-7.51v-5h7.51V65.5z M52.99,65.42h7.35v-4.84h-7.35V65.42z"/>
					<path style="fill:#408BFF;" d="M60.42,72.43h-7.51v-5h7.51V72.43z M52.99,72.35h7.35v-4.84h-7.35V72.35z"/>
				</g>
				<g>
					<path style="fill:#408BFF;" d="M60.42,79.72h-7.51v-5h7.51V79.72z M52.99,79.64h7.35V74.8h-7.35V79.64z"/>
					<path style="fill:#408BFF;" d="M60.42,86.66h-7.51v-5h7.51V86.66z M52.99,86.58h7.35v-4.84h-7.35V86.58z"/>
					<path style="fill:#408BFF;" d="M60.42,125.21h-7.51V89.32h7.51V125.21z M52.99,125.13h7.35V89.4h-7.35V125.13z"/>
				</g>
			</g>
		</g>
		<g>
			<g>
				<path style="fill:#113873;" d="M61.83,130.54H28.17c-0.41,0-0.73,0.33-0.73,0.73v8.97c0,0.4,0.33,0.73,0.73,0.73h33.65
					c0.4,0,0.73-0.33,0.73-0.73v-8.97C62.56,130.86,62.23,130.54,61.83,130.54z"/>
				<path style="fill:#1951A6;" d="M52.14,130.49c-5.88,0.01-26.49,0.03-31.72,0.04c-0.54,0-0.97,0.43-0.97,0.95v8.53
					c0,0.53,0.43,0.95,0.96,0.95c5.26,0.01,25.63,0.07,31.72,0.08c0.54,0,0.97-0.43,0.97-0.95v-8.65
					C53.11,130.92,52.68,130.49,52.14,130.49z"/>
			</g>
			<rect x="21.24" y="130.35" style="fill:#0B254D;" width="40.31" height="0.17"/>
			<path style="fill:#408BFF;" d="M29.98,133.2h-8.41c-0.38,0-0.68-0.31-0.68-0.68l0,0c0-0.38,0.31-0.68,0.68-0.68h8.41
				c0.38,0,0.68,0.31,0.68,0.68l0,0C30.67,132.89,30.36,133.2,29.98,133.2z"/>
		</g>
	</g>
	<g>
		<g>
			<rect x="94.05" y="48.62" style="fill:#1B57B3;" width="10.64" height="81.9"/>
			<g>
				<rect x="64.42" y="48.63" style="fill:#408BFF;" width="29.71" height="81.9"/>
				<rect x="66.43" y="60.46" style="fill:#265399;" width="25.68" height="64.89"/>
				<path style="fill:#265399;" d="M65.44,87.8L65.44,87.8c-0.24,0-0.44-0.2-0.44-0.44v-7.2c0-0.24,0.2-0.44,0.44-0.44l0,0
					c0.24,0,0.44,0.2,0.44,0.44v7.2C65.88,87.6,65.68,87.8,65.44,87.8z"/>
				<rect x="93.17" y="66.81" style="fill:#265399;" width="0.96" height="5.11"/>
				<rect x="93.17" y="111.81" style="fill:#265399;" width="0.96" height="5.11"/>
				<g>
					<rect x="67.47" y="70.62" style="fill:#408BFF;" width="24.03" height="7.89"/>
					<rect x="67.47" y="79.81" style="fill:#408BFF;" width="24.03" height="7.89"/>
					<rect x="67.47" y="89" style="fill:#408BFF;" width="24.03" height="7.89"/>
					<rect x="67.47" y="98.18" style="fill:#408BFF;" width="24.03" height="7.89"/>
					<rect x="67.47" y="107.37" style="fill:#408BFF;" width="24.03" height="7.89"/>
					<rect x="67.47" y="116.56" style="fill:#408BFF;" width="24.03" height="7.89"/>
					<g>
						<rect x="67.47" y="61.44" style="fill:#408BFF;" width="24.03" height="7.89"/>
						<g>
							<rect x="69.41" y="63.48" style="fill:#265399;" width="19.81" height="3.92"/>
							<g>
								<rect x="70.21" y="64.56" style="fill:#408BFF;" width="14.2" height="1.8"/>
								<g>
									<path style="fill:#246AD6;" d="M85.85,65.46c0,0.26-0.2,0.48-0.46,0.48c-0.25,0-0.46-0.21-0.46-0.48s0.2-0.48,0.46-0.48
										C85.65,64.98,85.85,65.19,85.85,65.46z"/>
									<path style="fill:#408BFF;" d="M87.17,65.46c0,0.26-0.2,0.48-0.46,0.48c-0.25,0-0.46-0.21-0.46-0.48s0.2-0.48,0.46-0.48
										C86.97,64.98,87.17,65.19,87.17,65.46z"/>
									<path style="fill:#408BFF;" d="M88.49,65.46c0,0.26-0.2,0.48-0.46,0.48c-0.25,0-0.46-0.21-0.46-0.48s0.2-0.48,0.46-0.48
										C88.28,64.98,88.49,65.19,88.49,65.46z"/>
								</g>
							</g>
						</g>
					</g>
					<g>
						<rect x="69.41" y="72.77" style="fill:#265399;" width="19.81" height="3.92"/>
						<g>
							<rect x="70.21" y="73.85" style="fill:#408BFF;" width="14.2" height="1.8"/>
						</g>
					</g>
					<g>
						<rect x="69.41" y="82.06" style="fill:#265399;" width="19.81" height="3.92"/>
						<g>
							<rect x="70.21" y="83.14" style="fill:#408BFF;" width="14.2" height="1.8"/>
						</g>
					</g>
					<g>
						<rect x="69.41" y="91.35" style="fill:#265399;" width="19.81" height="3.92"/>
						<g>
							<rect x="70.21" y="92.43" style="fill:#408BFF;" width="14.2" height="1.8"/>
						</g>
					</g>
					<g>
						<rect x="69.41" y="100.4" style="fill:#265399;" width="19.81" height="3.92"/>
						<g>
							<rect x="70.21" y="101.47" style="fill:#408BFF;" width="14.2" height="1.8"/>
						</g>
						<g>
							<path style="fill:#246AD6;" d="M85.85,102.41c0,0.26-0.2,0.48-0.46,0.48c-0.25,0-0.46-0.21-0.46-0.48
								c0-0.26,0.2-0.48,0.46-0.48C85.65,101.93,85.85,102.15,85.85,102.41z"/>
							<path style="fill:#408BFF;" d="M87.17,102.41c0,0.26-0.2,0.48-0.46,0.48c-0.25,0-0.46-0.21-0.46-0.48
								c0-0.26,0.2-0.48,0.46-0.48C86.97,101.93,87.17,102.15,87.17,102.41z"/>
							<path style="fill:#408BFF;" d="M88.49,102.41c0,0.26-0.2,0.48-0.46,0.48c-0.25,0-0.46-0.21-0.46-0.48
								c0-0.26,0.2-0.48,0.46-0.48C88.28,101.93,88.49,102.15,88.49,102.41z"/>
						</g>
					</g>
					<g>
						<rect x="69.41" y="109.73" style="fill:#265399;" width="19.81" height="3.92"/>
						<g>
							<rect x="70.21" y="110.8" style="fill:#408BFF;" width="14.2" height="1.8"/>
						</g>
					</g>
					<g>
						<rect x="69.41" y="118.84" style="fill:#265399;" width="19.81" height="3.92"/>
						<g>
							<rect x="70.21" y="119.91" style="fill:#408BFF;" width="14.2" height="1.8"/>
						</g>
						<g>
							<path style="fill:#246AD6;" d="M85.85,120.87c0,0.26-0.2,0.48-0.46,0.48c-0.25,0-0.46-0.21-0.46-0.48
								c0-0.26,0.2-0.48,0.46-0.48C85.65,120.39,85.85,120.6,85.85,120.87z"/>
							<path style="fill:#408BFF;" d="M87.17,120.87c0,0.26-0.2,0.48-0.46,0.48c-0.25,0-0.46-0.21-0.46-0.48
								c0-0.26,0.2-0.48,0.46-0.48C86.97,120.39,87.17,120.6,87.17,120.87z"/>
							<path style="fill:#408BFF;" d="M88.49,120.87c0,0.26-0.2,0.48-0.46,0.48c-0.25,0-0.46-0.21-0.46-0.48
								c0-0.26,0.2-0.48,0.46-0.48C88.28,120.39,88.49,120.6,88.49,120.87z"/>
						</g>
					</g>
					<g>
						<path style="fill:#246AD6;" d="M85.85,74.82c0,0.26-0.2,0.48-0.46,0.48c-0.25,0-0.46-0.21-0.46-0.48
							c0-0.26,0.2-0.48,0.46-0.48C85.65,74.34,85.85,74.56,85.85,74.82z"/>
						<path style="fill:#408BFF;" d="M87.17,74.82c0,0.26-0.2,0.48-0.46,0.48c-0.25,0-0.46-0.21-0.46-0.48
							c0-0.26,0.2-0.48,0.46-0.48C86.97,74.34,87.17,74.56,87.17,74.82z"/>
						<path style="fill:#408BFF;" d="M88.49,74.82c0,0.26-0.2,0.48-0.46,0.48c-0.25,0-0.46-0.21-0.46-0.48
							c0-0.26,0.2-0.48,0.46-0.48C88.28,74.34,88.49,74.56,88.49,74.82z"/>
					</g>
					<g>
						<path style="fill:#246AD6;" d="M85.85,84.01c0,0.26-0.2,0.48-0.46,0.48c-0.25,0-0.46-0.21-0.46-0.48
							c0-0.26,0.2-0.48,0.46-0.48C85.65,83.53,85.85,83.75,85.85,84.01z"/>
						<path style="fill:#408BFF;" d="M87.17,84.01c0,0.26-0.2,0.48-0.46,0.48c-0.25,0-0.46-0.21-0.46-0.48
							c0-0.26,0.2-0.48,0.46-0.48C86.97,83.53,87.17,83.75,87.17,84.01z"/>
						<path style="fill:#408BFF;" d="M88.49,84.01c0,0.26-0.2,0.48-0.46,0.48c-0.25,0-0.46-0.21-0.46-0.48
							c0-0.26,0.2-0.48,0.46-0.48C88.28,83.53,88.49,83.75,88.49,84.01z"/>
					</g>
					<g>
						<path style="fill:#246AD6;" d="M85.85,93.36c0,0.26-0.2,0.48-0.46,0.48c-0.25,0-0.46-0.21-0.46-0.48
							c0-0.26,0.2-0.48,0.46-0.48C85.65,92.88,85.85,93.09,85.85,93.36z"/>
						<path style="fill:#408BFF;" d="M87.17,93.36c0,0.26-0.2,0.48-0.46,0.48c-0.25,0-0.46-0.21-0.46-0.48
							c0-0.26,0.2-0.48,0.46-0.48C86.97,92.88,87.17,93.09,87.17,93.36z"/>
						<path style="fill:#408BFF;" d="M88.49,93.36c0,0.26-0.2,0.48-0.46,0.48c-0.25,0-0.46-0.21-0.46-0.48
							c0-0.26,0.2-0.48,0.46-0.48C88.28,92.88,88.49,93.09,88.49,93.36z"/>
					</g>
					<g>
						<path style="fill:#246AD6;" d="M85.85,111.74c0,0.26-0.2,0.48-0.46,0.48c-0.25,0-0.46-0.21-0.46-0.48
							c0-0.26,0.2-0.48,0.46-0.48C85.65,111.26,85.85,111.48,85.85,111.74z"/>
						<path style="fill:#408BFF;" d="M87.17,111.74c0,0.26-0.2,0.48-0.46,0.48c-0.25,0-0.46-0.21-0.46-0.48
							c0-0.26,0.2-0.48,0.46-0.48C86.97,111.26,87.17,111.48,87.17,111.74z"/>
						<path style="fill:#408BFF;" d="M88.49,111.74c0,0.26-0.2,0.48-0.46,0.48c-0.25,0-0.46-0.21-0.46-0.48
							c0-0.26,0.2-0.48,0.46-0.48C88.28,111.26,88.49,111.48,88.49,111.74z"/>
					</g>
				</g>
			</g>
			<rect x="94.05" y="48.62" style="fill:#2D76E6;" width="0.79" height="81.9"/>
			<polygon style="fill:#0B254D;" points="94.91,130.52 94.78,130.52 94.78,59.35 64.45,59.35 64.45,59.22 94.91,59.22 			"/>
			<rect x="93.17" y="88.53" style="fill:#265399;" width="0.96" height="5.11"/>
			<g>
				<g>
					<g>
						<polygon style="fill:#265399;" points="78.19,51.55 67.27,51.55 66.42,50.73 78.19,50.73 						"/>
					</g>
				</g>
				<g>
					<g>
						<polygon style="fill:#265399;" points="78.19,52.78 67.27,52.78 66.42,51.97 78.19,51.97 						"/>
					</g>
				</g>
				<g>
					<g>
						<polygon style="fill:#265399;" points="78.19,54.01 67.27,54.01 66.42,53.2 78.19,53.2 						"/>
					</g>
				</g>
				<g>
					<g>
						<polygon style="fill:#265399;" points="78.19,55.24 67.27,55.24 66.42,54.43 78.19,54.43 						"/>
					</g>
				</g>
				<g>
					<g>
						<polygon style="fill:#265399;" points="78.19,56.47 67.27,56.47 66.42,55.66 78.19,55.66 						"/>
					</g>
				</g>
				<g>
					<g>
						<polygon style="fill:#265399;" points="78.19,57.7 67.27,57.7 66.42,56.89 78.19,56.89 						"/>
					</g>
				</g>
			</g>
			<g>
				<g>
					<g>
						<polygon style="fill:#265399;" points="91.94,51.55 81.02,51.55 80.17,50.73 91.94,50.73 						"/>
					</g>
				</g>
				<g>
					<g>
						<polygon style="fill:#265399;" points="91.94,52.78 81.02,52.78 80.17,51.97 91.94,51.97 						"/>
					</g>
				</g>
				<g>
					<g>
						<polygon style="fill:#265399;" points="91.94,54.01 81.02,54.01 80.17,53.2 91.94,53.2 						"/>
					</g>
				</g>
				<g>
					<g>
						<polygon style="fill:#265399;" points="91.94,55.24 81.02,55.24 80.17,54.43 91.94,54.43 						"/>
					</g>
				</g>
				<g>
					<g>
						<polygon style="fill:#265399;" points="91.94,56.47 81.02,56.47 80.17,55.66 91.94,55.66 						"/>
					</g>
				</g>
				<g>
					<g>
						<polygon style="fill:#265399;" points="91.94,57.7 81.02,57.7 80.17,56.89 91.94,56.89 						"/>
					</g>
				</g>
			</g>
			<g>
				<g>
					<path style="fill:#408BFF;" d="M103.59,65.5h-7.51v-5h7.51V65.5z M96.16,65.42h7.35v-4.84h-7.35V65.42z"/>
					<path style="fill:#408BFF;" d="M103.59,72.43h-7.51v-5h7.51V72.43z M96.16,72.35h7.35v-4.84h-7.35V72.35z"/>
				</g>
				<g>
					<path style="fill:#408BFF;" d="M103.59,79.72h-7.51v-5h7.51V79.72z M96.16,79.64h7.35V74.8h-7.35V79.64z"/>
					<path style="fill:#408BFF;" d="M103.59,86.66h-7.51v-5h7.51V86.66z M96.16,86.58h7.35v-4.84h-7.35V86.58z"/>
					<path style="fill:#408BFF;" d="M103.59,125.21h-7.51V89.32h7.51V125.21z M96.16,125.13h7.35V89.4h-7.35V125.13z"/>
				</g>
			</g>
		</g>
		<g>
			<g>
				<path style="fill:#113873;" d="M104.99,130.54H71.34c-0.4,0-0.73,0.33-0.73,0.73v8.97c0,0.4,0.33,0.73,0.73,0.73h33.65
					c0.4,0,0.73-0.33,0.73-0.73v-8.97C105.72,130.86,105.4,130.54,104.99,130.54z"/>
				<path style="fill:#1951A6;" d="M95.3,130.49c-5.88,0.01-26.49,0.03-31.72,0.04c-0.54,0-0.97,0.43-0.97,0.95v8.53
					c0,0.53,0.43,0.95,0.96,0.95c5.26,0.01,25.63,0.07,31.72,0.08c0.54,0,0.97-0.43,0.97-0.95v-8.65
					C96.27,130.92,95.84,130.49,95.3,130.49z"/>
			</g>
			<rect x="64.41" y="130.35" style="fill:#0B254D;" width="40.31" height="0.17"/>
			<path style="fill:#408BFF;" d="M73.15,133.2h-8.41c-0.38,0-0.68-0.31-0.68-0.68l0,0c0-0.38,0.31-0.68,0.68-0.68h8.41
				c0.38,0,0.68,0.31,0.68,0.68l0,0C73.83,132.89,73.52,133.2,73.15,133.2z"/>
		</g>
	</g>
	<g>
		<g>
			<rect x="138.14" y="48.62" style="fill:#1B57B3;" width="10.64" height="81.9"/>
			<g>
				<rect x="108.51" y="48.63" style="fill:#408BFF;" width="29.71" height="81.9"/>
				<rect x="110.52" y="60.46" style="fill:#265399;" width="25.68" height="64.89"/>
				<path style="fill:#265399;" d="M109.53,87.8L109.53,87.8c-0.24,0-0.44-0.2-0.44-0.44v-7.2c0-0.24,0.2-0.44,0.44-0.44l0,0
					c0.24,0,0.44,0.2,0.44,0.44v7.2C109.97,87.6,109.77,87.8,109.53,87.8z"/>
				<rect x="137.26" y="66.81" style="fill:#265399;" width="0.96" height="5.11"/>
				<rect x="137.26" y="111.81" style="fill:#265399;" width="0.96" height="5.11"/>
				<g>
					<rect x="111.56" y="70.62" style="fill:#408BFF;" width="24.03" height="7.89"/>
					<rect x="111.56" y="79.81" style="fill:#408BFF;" width="24.03" height="7.89"/>
					<rect x="111.56" y="89" style="fill:#408BFF;" width="24.03" height="7.89"/>
					<rect x="111.56" y="98.18" style="fill:#408BFF;" width="24.03" height="7.89"/>
					<rect x="111.56" y="107.37" style="fill:#408BFF;" width="24.03" height="7.89"/>
					<rect x="111.56" y="116.56" style="fill:#408BFF;" width="24.03" height="7.89"/>
					<g>
						<rect x="111.56" y="61.44" style="fill:#408BFF;" width="24.03" height="7.89"/>
						<g>
							<rect x="113.5" y="63.48" style="fill:#265399;" width="19.81" height="3.92"/>
							<g>
								<rect x="114.31" y="64.56" style="fill:#408BFF;" width="14.2" height="1.8"/>
								<g>
									<path style="fill:#246AD6;" d="M129.94,65.46c0,0.26-0.2,0.48-0.46,0.48c-0.25,0-0.46-0.21-0.46-0.48s0.2-0.48,0.46-0.48
										C129.74,64.98,129.94,65.19,129.94,65.46z"/>
									<path style="fill:#408BFF;" d="M131.26,65.46c0,0.26-0.2,0.48-0.46,0.48c-0.25,0-0.46-0.21-0.46-0.48s0.2-0.48,0.46-0.48
										C131.06,64.98,131.26,65.19,131.26,65.46z"/>
									<path style="fill:#408BFF;" d="M132.58,65.46c0,0.26-0.2,0.48-0.46,0.48c-0.25,0-0.46-0.21-0.46-0.48s0.2-0.48,0.46-0.48
										C132.37,64.98,132.58,65.19,132.58,65.46z"/>
								</g>
							</g>
						</g>
					</g>
					<g>
						<rect x="113.5" y="72.77" style="fill:#265399;" width="19.81" height="3.92"/>
						<g>
							<rect x="114.31" y="73.85" style="fill:#408BFF;" width="14.2" height="1.8"/>
						</g>
					</g>
					<g>
						<rect x="113.5" y="82.06" style="fill:#265399;" width="19.81" height="3.92"/>
						<g>
							<rect x="114.31" y="83.14" style="fill:#408BFF;" width="14.2" height="1.8"/>
						</g>
					</g>
					<g>
						<rect x="113.5" y="91.35" style="fill:#265399;" width="19.81" height="3.92"/>
						<g>
							<rect x="114.31" y="92.43" style="fill:#408BFF;" width="14.2" height="1.8"/>
						</g>
					</g>
					<g>
						<rect x="113.5" y="100.4" style="fill:#265399;" width="19.81" height="3.92"/>
						<g>
							<rect x="114.31" y="101.47" style="fill:#408BFF;" width="14.2" height="1.8"/>
						</g>
						<g>
							<path style="fill:#246AD6;" d="M129.94,102.41c0,0.26-0.2,0.48-0.46,0.48c-0.25,0-0.46-0.21-0.46-0.48
								c0-0.26,0.2-0.48,0.46-0.48C129.74,101.93,129.94,102.15,129.94,102.41z"/>
							<path style="fill:#408BFF;" d="M131.26,102.41c0,0.26-0.2,0.48-0.46,0.48c-0.25,0-0.46-0.21-0.46-0.48
								c0-0.26,0.2-0.48,0.46-0.48C131.06,101.93,131.26,102.15,131.26,102.41z"/>
							<path style="fill:#408BFF;" d="M132.58,102.41c0,0.26-0.2,0.48-0.46,0.48c-0.25,0-0.46-0.21-0.46-0.48
								c0-0.26,0.2-0.48,0.46-0.48C132.37,101.93,132.58,102.15,132.58,102.41z"/>
						</g>
					</g>
					<g>
						<rect x="113.5" y="109.73" style="fill:#265399;" width="19.81" height="3.92"/>
						<g>
							<rect x="114.31" y="110.8" style="fill:#408BFF;" width="14.2" height="1.8"/>
						</g>
					</g>
					<g>
						<rect x="113.5" y="118.84" style="fill:#265399;" width="19.81" height="3.92"/>
						<g>
							<rect x="114.31" y="119.91" style="fill:#408BFF;" width="14.2" height="1.8"/>
						</g>
						<g>
							<path style="fill:#246AD6;" d="M129.94,120.87c0,0.26-0.2,0.48-0.46,0.48c-0.25,0-0.46-0.21-0.46-0.48
								c0-0.26,0.2-0.48,0.46-0.48C129.74,120.39,129.94,120.6,129.94,120.87z"/>
							<path style="fill:#408BFF;" d="M131.26,120.87c0,0.26-0.2,0.48-0.46,0.48c-0.25,0-0.46-0.21-0.46-0.48
								c0-0.26,0.2-0.48,0.46-0.48C131.06,120.39,131.26,120.6,131.26,120.87z"/>
							<path style="fill:#408BFF;" d="M132.58,120.87c0,0.26-0.2,0.48-0.46,0.48c-0.25,0-0.46-0.21-0.46-0.48
								c0-0.26,0.2-0.48,0.46-0.48C132.37,120.39,132.58,120.6,132.58,120.87z"/>
						</g>
					</g>
					<g>
						<path style="fill:#246AD6;" d="M129.94,74.82c0,0.26-0.2,0.48-0.46,0.48c-0.25,0-0.46-0.21-0.46-0.48
							c0-0.26,0.2-0.48,0.46-0.48C129.74,74.34,129.94,74.56,129.94,74.82z"/>
						<path style="fill:#408BFF;" d="M131.26,74.82c0,0.26-0.2,0.48-0.46,0.48c-0.25,0-0.46-0.21-0.46-0.48
							c0-0.26,0.2-0.48,0.46-0.48C131.06,74.34,131.26,74.56,131.26,74.82z"/>
						<path style="fill:#408BFF;" d="M132.58,74.82c0,0.26-0.2,0.48-0.46,0.48c-0.25,0-0.46-0.21-0.46-0.48
							c0-0.26,0.2-0.48,0.46-0.48C132.37,74.34,132.58,74.56,132.58,74.82z"/>
					</g>
					<g>
						<path style="fill:#246AD6;" d="M129.94,84.01c0,0.26-0.2,0.48-0.46,0.48c-0.25,0-0.46-0.21-0.46-0.48
							c0-0.26,0.2-0.48,0.46-0.48C129.74,83.53,129.94,83.75,129.94,84.01z"/>
						<path style="fill:#408BFF;" d="M131.26,84.01c0,0.26-0.2,0.48-0.46,0.48c-0.25,0-0.46-0.21-0.46-0.48
							c0-0.26,0.2-0.48,0.46-0.48C131.06,83.53,131.26,83.75,131.26,84.01z"/>
						<path style="fill:#408BFF;" d="M132.58,84.01c0,0.26-0.2,0.48-0.46,0.48c-0.25,0-0.46-0.21-0.46-0.48
							c0-0.26,0.2-0.48,0.46-0.48C132.37,83.53,132.58,83.75,132.58,84.01z"/>
					</g>
					<g>
						<path style="fill:#246AD6;" d="M129.94,93.36c0,0.26-0.2,0.48-0.46,0.48c-0.25,0-0.46-0.21-0.46-0.48
							c0-0.26,0.2-0.48,0.46-0.48C129.74,92.88,129.94,93.09,129.94,93.36z"/>
						<path style="fill:#408BFF;" d="M131.26,93.36c0,0.26-0.2,0.48-0.46,0.48c-0.25,0-0.46-0.21-0.46-0.48
							c0-0.26,0.2-0.48,0.46-0.48C131.06,92.88,131.26,93.09,131.26,93.36z"/>
						<path style="fill:#408BFF;" d="M132.58,93.36c0,0.26-0.2,0.48-0.46,0.48c-0.25,0-0.46-0.21-0.46-0.48
							c0-0.26,0.2-0.48,0.46-0.48C132.37,92.88,132.58,93.09,132.58,93.36z"/>
					</g>
					<g>
						<path style="fill:#246AD6;" d="M129.94,111.74c0,0.26-0.2,0.48-0.46,0.48c-0.25,0-0.46-0.21-0.46-0.48
							c0-0.26,0.2-0.48,0.46-0.48C129.74,111.26,129.94,111.48,129.94,111.74z"/>
						<path style="fill:#408BFF;" d="M131.26,111.74c0,0.26-0.2,0.48-0.46,0.48c-0.25,0-0.46-0.21-0.46-0.48
							c0-0.26,0.2-0.48,0.46-0.48C131.06,111.26,131.26,111.48,131.26,111.74z"/>
						<path style="fill:#408BFF;" d="M132.58,111.74c0,0.26-0.2,0.48-0.46,0.48c-0.25,0-0.46-0.21-0.46-0.48
							c0-0.26,0.2-0.48,0.46-0.48C132.37,111.26,132.58,111.48,132.58,111.74z"/>
					</g>
				</g>
			</g>
			<rect x="138.14" y="48.62" style="fill:#2D76E6;" width="0.79" height="81.9"/>
			<polygon style="fill:#0B254D;" points="139,130.52 138.87,130.52 138.87,59.35 108.54,59.35 108.54,59.22 139,59.22 			"/>
			<rect x="137.26" y="88.53" style="fill:#265399;" width="0.96" height="5.11"/>
			<g>
				<g>
					<g>
						<polygon style="fill:#265399;" points="122.28,51.55 111.36,51.55 110.51,50.73 122.28,50.73 						"/>
					</g>
				</g>
				<g>
					<g>
						<polygon style="fill:#265399;" points="122.28,52.78 111.36,52.78 110.51,51.97 122.28,51.97 						"/>
					</g>
				</g>
				<g>
					<g>
						<polygon style="fill:#265399;" points="122.28,54.01 111.36,54.01 110.51,53.2 122.28,53.2 						"/>
					</g>
				</g>
				<g>
					<g>
						<polygon style="fill:#265399;" points="122.28,55.24 111.36,55.24 110.51,54.43 122.28,54.43 						"/>
					</g>
				</g>
				<g>
					<g>
						<polygon style="fill:#265399;" points="122.28,56.47 111.36,56.47 110.51,55.66 122.28,55.66 						"/>
					</g>
				</g>
				<g>
					<g>
						<polygon style="fill:#265399;" points="122.28,57.7 111.36,57.7 110.51,56.89 122.28,56.89 						"/>
					</g>
				</g>
			</g>
			<g>
				<g>
					<g>
						<polygon style="fill:#265399;" points="136.03,51.55 125.11,51.55 124.26,50.73 136.03,50.73 						"/>
					</g>
				</g>
				<g>
					<g>
						<polygon style="fill:#265399;" points="136.03,52.78 125.11,52.78 124.26,51.97 136.03,51.97 						"/>
					</g>
				</g>
				<g>
					<g>
						<polygon style="fill:#265399;" points="136.03,54.01 125.11,54.01 124.26,53.2 136.03,53.2 						"/>
					</g>
				</g>
				<g>
					<g>
						<polygon style="fill:#265399;" points="136.03,55.24 125.11,55.24 124.26,54.43 136.03,54.43 						"/>
					</g>
				</g>
				<g>
					<g>
						<polygon style="fill:#265399;" points="136.03,56.47 125.11,56.47 124.26,55.66 136.03,55.66 						"/>
					</g>
				</g>
				<g>
					<g>
						<polygon style="fill:#265399;" points="136.03,57.7 125.11,57.7 124.26,56.89 136.03,56.89 						"/>
					</g>
				</g>
			</g>
			<g>
				<g>
					<path style="fill:#408BFF;" d="M147.68,65.5h-7.51v-5h7.51V65.5z M140.25,65.42h7.35v-4.84h-7.35V65.42z"/>
					<path style="fill:#408BFF;" d="M147.68,72.43h-7.51v-5h7.51V72.43z M140.25,72.35h7.35v-4.84h-7.35V72.35z"/>
				</g>
				<g>
					<path style="fill:#408BFF;" d="M147.68,79.72h-7.51v-5h7.51V79.72z M140.25,79.64h7.35V74.8h-7.35V79.64z"/>
					<path style="fill:#408BFF;" d="M147.68,86.66h-7.51v-5h7.51V86.66z M140.25,86.58h7.35v-4.84h-7.35V86.58z"/>
					<path style="fill:#408BFF;" d="M147.68,125.21h-7.51V89.32h7.51V125.21z M140.25,125.13h7.35V89.4h-7.35V125.13z"/>
				</g>
			</g>
		</g>
		<g>
			<g>
				<path style="fill:#113873;" d="M149.08,130.54h-33.65c-0.4,0-0.73,0.33-0.73,0.73v8.97c0,0.4,0.33,0.73,0.73,0.73h33.65
					c0.4,0,0.73-0.33,0.73-0.73v-8.97C149.81,130.86,149.49,130.54,149.08,130.54z"/>
				<path style="fill:#1951A6;" d="M139.39,130.49c-5.88,0.01-26.49,0.03-31.72,0.04c-0.54,0-0.97,0.43-0.97,0.95v8.53
					c0,0.53,0.43,0.95,0.96,0.95c5.26,0.01,25.63,0.07,31.72,0.08c0.54,0,0.97-0.43,0.97-0.95v-8.65
					C140.36,130.92,139.93,130.49,139.39,130.49z"/>
			</g>
			<rect x="108.5" y="130.35" style="fill:#0B254D;" width="40.31" height="0.17"/>
			<path style="fill:#408BFF;" d="M117.24,133.2h-8.41c-0.38,0-0.68-0.31-0.68-0.68l0,0c0-0.38,0.31-0.68,0.68-0.68h8.41
				c0.38,0,0.68,0.31,0.68,0.68l0,0C117.92,132.89,117.61,133.2,117.24,133.2z"/>
		</g>
	</g>
	<circle style="fill:#AAE0FF;" cx="145.12" cy="125.63" r="42.64"/>
	
		<ellipse transform="matrix(0.7071 -0.7071 0.7071 0.7071 -76.6847 103.9102)" style="fill:#AAE0FF;" cx="87.09" cy="144.52" rx="33.52" ry="33.52"/>
	
		<ellipse transform="matrix(0.2375 -0.9714 0.9714 0.2375 -124.1413 145.3074)" style="fill:#AAE0FF;" cx="30.49" cy="151.73" rx="29.77" ry="29.77"/>
	<g>
		<g>
			<g>
				<g>
					<g>
						<path style="fill:#007880;" d="M151.15,95.37c-0.02-0.02-0.04-0.04-0.06-0.06c-8.28,8.87-21.49,16.14-35.62,19.23
							c0,0.94-0.03,6.17-0.14,30.28c-0.14,32.16,30.46,47.88,35.21,50.29C136.58,138.6,147.52,104.42,151.15,95.37z"/>
						<path style="fill:#007880;" d="M151.15,95.37c-3.63,9.05-14.56,43.23-0.61,99.74c4.6-2.12,35.6-17.81,35.74-49.97
							c0.11-24.11,0.13-29.34,0.14-30.28C172.35,111.64,159.35,104.29,151.15,95.37z"/>
					</g>
					<path style="fill:#FFFFFF;" d="M150.52,196.25l-0.44-0.22c-9.31-4.73-15.86-10.32-19.7-14.18
						c-10.72-10.75-16.13-23.21-16.07-37.03l0.14-31.1l0.8-0.18c13.71-3,26.83-10.08,35.1-18.93l0.75-0.8l0.81,0.87
						c8.2,8.91,21.19,16.09,34.75,19.18l0.8,0.18l0,0.82c0,0.94-0.03,6.17-0.14,30.28c-0.15,33.28-32.63,49.19-36.33,50.89
						L150.52,196.25z M116.48,115.36l-0.13,29.47c-0.13,28.22,23.52,43.63,34.21,49.15c5.19-2.48,34.56-17.89,34.7-48.84
						c0.09-20.34,0.12-27.24,0.13-29.47c-13.28-3.19-25.98-10.18-34.31-18.87C142.69,105.4,129.89,112.27,116.48,115.36z"/>
				</g>
				<path style="fill:#00C0CC;" d="M151.04,189.15l-0.99-0.06c-3.32-1.73-9.82-5.55-16.03-11.72c-9.5-9.46-14.3-20.39-14.24-32.48
					l0.12-26.63l0.89-0.23c11.44-2.95,21.87-8.37,29.38-15.25l0.84-0.78l0.81,0.81l-0.78,0.91l0.82-0.88
					c7.45,6.93,17.81,12.42,29.18,15.46l0.89,0.24l-0.12,26.63c-0.05,12.09-4.94,22.97-14.53,32.35
					c-6.06,5.92-12.43,9.65-15.68,11.35L151.04,189.15z M122.28,120.12l-0.11,24.78c-0.05,11.43,4.5,21.78,13.53,30.77
					c5.66,5.63,11.57,9.22,14.9,11.01c3.14-1.64,9.22-5.23,15-10.87c9.11-8.91,13.76-19.22,13.81-30.65l0.11-24.79
					c-11.02-3.08-21.09-8.4-28.55-15.09C143.45,111.9,133.34,117.13,122.28,120.12z"/>
			</g>
		</g>
		<path style="fill:#FFFFFF;" d="M144.21,159.03c-0.15,0-0.3-0.01-0.44-0.04c-0.68-0.12-1.29-0.53-1.66-1.11l-8.62-13.47
			c-0.74-1.16-0.41-2.71,0.76-3.45c1.16-0.74,2.71-0.41,3.45,0.76l7.17,11.2l23.12-17.36c1.1-0.83,2.67-0.61,3.5,0.5
			c0.83,1.1,0.61,2.67-0.5,3.5l-25.27,18.98C145.27,158.85,144.74,159.03,144.21,159.03z"/>
	</g>
</g>
</svg>
