<?xml version="1.0" encoding="utf-8"?>
<!-- Generator: Adobe Illustrator 26.1.0, SVG Export Plug-In . SVG Version: 6.00 Build 0)  -->
<svg version="1.1" id="Layer_1" xmlns="http://www.w3.org/2000/svg" xmlns:xlink="http://www.w3.org/1999/xlink" x="0px" y="0px"
	 viewBox="0 0 331.96 94.56" style="enable-background:new 0 0 331.96 94.56;" xml:space="preserve">
<g>
	<path style="fill:#2C56DD;" d="M0,46.88c0.11-0.47,0.32-0.94,0.33-1.42c0.21-8.57,2.76-16.43,7.36-23.62
		c5.47-8.57,12.99-14.71,22.4-18.53c5.78-2.35,11.82-3.44,18.03-3.3C60.05,0.29,70.47,4.4,79.33,12.48
		C86.94,19.41,91.65,28,93.76,37.99c1.18,5.6,1.2,11.31,0.25,17c-1.64,9.84-5.95,18.37-12.92,25.44
		c-7.03,7.13-15.53,11.68-25.48,13.39c-10.35,1.78-20.23,0.36-29.58-4.41C18,85.3,11.63,79.35,6.97,71.58
		C3.55,65.87,1.4,59.74,0.63,53.13C0.41,51.32,0.21,49.5,0,47.69C0,47.42,0,47.15,0,46.88z M61.34,29.21
		c-2.73-0.02-4.94,2.1-4.97,4.78c-0.03,2.48,2.02,4.58,4.48,4.6c2.6,0.02,4.87-2.18,4.89-4.74C65.77,31.29,63.81,29.23,61.34,29.21z
		 M74.29,61.58c2.69,0,4.7-2.01,4.67-4.66c-0.03-2.46-2.19-4.62-4.67-4.63c-2.6-0.02-4.7,2.08-4.7,4.69
		C69.59,59.64,71.57,61.58,74.29,61.58z M70.74,48.06c2.62,0.03,4.71-2.05,4.71-4.69c0-2.4-2.19-4.65-4.53-4.67
		c-2.6-0.02-4.84,2.11-4.84,4.61C66.08,45.96,68.12,48.04,70.74,48.06z M59.54,44.79c0.02-2.73-1.89-4.74-4.54-4.77
		c-2.63-0.03-4.71,2-4.75,4.63c-0.04,2.57,2.1,4.75,4.67,4.74C57.46,49.38,59.53,47.32,59.54,44.79z M61.59,61.58
		c2.68,0,4.72-2.03,4.69-4.67c-0.03-2.53-2.14-4.62-4.67-4.62c-2.54,0-4.65,2.07-4.69,4.61C56.88,59.57,58.89,61.58,61.59,61.58z
		 M33.06,61.58c2.69,0,4.59-1.88,4.6-4.54c0.01-2.66-2.04-4.77-4.62-4.76c-2.58,0.02-4.73,2.2-4.68,4.77
		C28.41,59.63,30.43,61.58,33.06,61.58z M24.29,48.07c2.6,0,4.65-2.07,4.69-4.73c0.03-2.4-2.22-4.62-4.71-4.63
		c-2.44-0.01-4.64,2.2-4.65,4.68C19.61,46.08,21.59,48.07,24.29,48.07z M44.69,44.77c0.01-2.74-1.92-4.74-4.59-4.75
		c-2.61-0.01-4.6,2.01-4.66,4.73c-0.06,2.41,2.06,4.6,4.49,4.65C42.56,49.44,44.67,47.39,44.69,44.77z M52.06,30.07
		c-0.04-2.59-2.21-4.71-4.77-4.63c-2.53,0.08-4.57,2.21-4.53,4.73c0.03,2.51,2.15,4.64,4.64,4.65
		C49.93,34.83,52.1,32.62,52.06,30.07z M20.64,61.58c2.67,0,4.61-1.92,4.6-4.54c-0.01-2.56-2.06-4.72-4.51-4.75
		c-2.54-0.03-4.79,2.14-4.8,4.66C15.92,59.56,17.97,61.58,20.64,61.58z M38.59,33.78c-0.02-2.66-2.03-4.59-4.76-4.57
		c-2.46,0.01-4.65,2.12-4.63,4.46c0.02,2.67,2.14,4.81,4.77,4.82C36.34,38.5,38.6,36.19,38.59,33.78z"/>
	<path style="fill:#2C56DD;" d="M124.67,21.75c8.4,0.27,15,2.75,19.55,9.28c3.33,4.78,4.27,10.18,3.81,15.93
		c-0.39,4.89-1.98,9.27-5.1,13.08c-0.14,0.17-0.28,0.35-0.43,0.52c-1.72,1.92-1.73,1.93-0.03,3.82c0.66,0.74,1.46,1.36,2.03,2.16
		c0.23,0.33,0.22,1.16-0.03,1.45c-1.23,1.38-2.59,2.63-3.87,3.96c-0.63,0.66-1.12,0.53-1.69-0.08c-1.43-1.55-2.93-3.05-4.33-4.64
		c-0.59-0.67-1.11-0.79-1.99-0.57c-6.87,1.69-13.58,1.46-19.84-2.16c-5.65-3.27-8.85-8.33-9.97-14.66
		c-0.92-5.22-0.63-10.39,1.63-15.3c3.01-6.53,8.15-10.49,15.09-12.1C121.42,22,123.41,21.91,124.67,21.75z M134.6,55.86
		c0.31-0.41,0.54-0.63,0.68-0.9c3.3-5.92,3.56-12.09,1.09-18.28c-1.83-4.59-5.5-6.99-10.46-7.18c-5.34-0.2-9.55,1.82-11.73,6.88
		c-2.4,5.58-2.42,11.31,0.11,16.85c2.28,5,6.45,7.15,11.87,6.96c0.44-0.02,0.87-0.19,1.5-0.34c-1.23-1.37-2.25-2.57-3.33-3.69
		c-0.66-0.68-0.62-1.2,0.06-1.8c1.2-1.08,2.45-2.13,3.54-3.31c0.94-1.02,1.51-0.84,2.34,0.15C131.61,52.79,133.11,54.26,134.6,55.86
		z"/>
	<path style="fill:#2C56DD;" d="M310.24,39.5c0.51-0.58,0.9-1,1.26-1.44c3.3-4.04,10.26-5.6,14.89-3.24
		c3.82,1.95,5.35,5.44,5.46,9.45c0.19,7.11,0.07,14.22,0.12,21.33c0.01,1.15-0.46,1.48-1.54,1.44c-1.8-0.07-3.6-0.09-5.4,0.01
		c-1.24,0.06-1.66-0.37-1.65-1.61c0.05-5.76,0.06-11.52-0.01-17.29c-0.01-1.38-0.21-2.79-0.56-4.11c-0.45-1.69-1.69-2.65-3.43-3.05
		c-3.77-0.85-7.28,1.5-7.74,5.32c-0.15,1.2-0.23,2.42-0.23,3.62c-0.03,5.13-0.04,10.26,0.01,15.39c0.01,1.25-0.29,1.81-1.66,1.72
		c-1.75-0.11-3.51-0.11-5.26,0c-1.36,0.08-1.7-0.5-1.69-1.73c0.04-5.67,0.04-11.34,0-17.02c-0.01-1.29-0.16-2.6-0.42-3.86
		c-0.42-2.03-1.83-3.11-3.81-3.52c-3.53-0.73-6.99,1.7-7.46,5.27c-0.16,1.2-0.23,2.41-0.24,3.62c-0.03,5.27-0.03,10.53,0,15.8
		c0.01,1.03-0.3,1.47-1.39,1.43c-1.93-0.07-3.87-0.05-5.81-0.01c-1.07,0.03-1.56-0.33-1.56-1.47c0.02-9.86,0.02-19.72,0-29.57
		c0-1,0.27-1.51,1.37-1.48c2.02,0.05,4.05,0.05,6.08,0c1.04-0.03,1.34,0.43,1.3,1.38c-0.05,1.06-0.01,2.13,0.17,3.33
		c2.48-3.39,5.63-5.41,9.83-5.48C305.1,33.68,308.39,35.25,310.24,39.5z"/>
	<path style="fill:#2C56DD;" d="M186.17,50.78c-0.28-10.06,7.22-17.3,17.55-17.04c9.51,0.25,17,6.68,16.61,17.85
		c-0.32,9.28-7.2,16.11-17.34,16.05C193.18,67.59,185.83,60.64,186.17,50.78z M211.58,51.16c-0.22-1.8-0.28-3.11-0.55-4.38
		c-0.84-3.87-3.65-6.34-7.25-6.48c-4.07-0.16-6.94,1.78-8.11,5.7c-1.01,3.35-0.98,6.75,0.2,10.07c1.17,3.27,3.75,5.01,7.22,5.03
		c3.71,0.03,6.26-1.6,7.43-5.04C211.11,54.33,211.31,52.49,211.58,51.16z"/>
	<path style="fill:#2C56DD;" d="M173.49,62.15c-1.48,2.45-3.46,4.24-6.28,4.97c-3.04,0.78-6.08,0.85-8.98-0.44
		c-3.75-1.67-5.58-4.9-5.71-8.79c-0.25-7.37-0.12-14.76-0.17-22.14c-0.01-0.95,0.41-1.25,1.31-1.23c1.93,0.04,3.87,0.06,5.8-0.01
		c1.12-0.04,1.49,0.36,1.48,1.48c-0.04,5.85-0.05,11.7,0.01,17.55c0.01,1.33,0.12,2.73,0.53,3.98c0.87,2.66,3.56,3.99,6.52,3.43
		c3.68-0.69,5.71-2.93,5.79-6.68c0.12-5.98,0.12-11.96,0.17-17.95c0.01-1.8,0.01-1.8,1.81-1.8c1.8,0,3.6,0.03,5.4-0.01
		c0.95-0.02,1.39,0.26,1.38,1.3c-0.02,9.94-0.02,19.89,0,29.83c0,0.96-0.31,1.41-1.32,1.39c-1.98-0.04-3.96-0.05-5.94,0
		c-1.04,0.03-1.35-0.45-1.33-1.39c0.03-1.14,0.01-2.28,0.01-3.43C173.8,62.2,173.65,62.17,173.49,62.15z"/>
	<path style="fill:#2C56DD;" d="M267.89,62.21c-0.19,0.23-0.4,0.45-0.57,0.69c-2.07,3.07-4.99,4.52-8.65,4.7
		c-2.71,0.14-5.32-0.14-7.6-1.75c-2.96-2.09-4.23-5.15-4.3-8.6c-0.14-7.15-0.05-14.31-0.08-21.47c0-0.93,0.31-1.29,1.25-1.26
		c1.89,0.05,3.78,0.08,5.67-0.01c1.24-0.06,1.65,0.37,1.64,1.62c-0.05,5.54-0.04,11.07-0.01,16.61c0.01,1.26,0.1,2.52,0.27,3.76
		c0.32,2.35,1.7,3.77,4.02,4.32c4.38,1.04,8.28-1.55,8.51-6.02c0.28-5.66,0.19-11.33,0.24-17c0.03-3.28,0-3.28,3.28-3.28
		c1.17,0,2.35,0.08,3.51-0.02c1.35-0.11,1.81,0.35,1.79,1.74c-0.06,6.57-0.03,13.14-0.03,19.72c0,3.2-0.03,6.39,0.01,9.59
		c0.02,1.09-0.34,1.54-1.48,1.5c-1.93-0.07-3.87-0.05-5.81-0.01c-0.93,0.02-1.31-0.35-1.29-1.27c0.03-1.15,0.01-2.3,0.01-3.45
		C268.16,62.28,268.02,62.24,267.89,62.21z"/>
	<path style="fill:#2C56DD;" d="M232.88,40.45c0.4-0.63,0.8-1.27,1.21-1.9c1.84-2.78,4.52-4.14,7.76-4.52
		c0.76-0.09,1.21,0.16,1.21,1.01c-0.01,1.98-0.01,3.96,0,5.94c0.01,0.87-0.43,1.15-1.25,1.2c-1.12,0.06-2.25,0.13-3.33,0.4
		c-3.88,0.95-5.9,3.58-5.97,7.88c-0.08,4.95-0.06,9.9,0,14.85c0.02,1.29-0.36,1.78-1.68,1.72c-1.89-0.09-3.78-0.05-5.67-0.01
		c-0.94,0.02-1.4-0.26-1.39-1.3c0.02-9.99,0.02-19.99,0-29.98c0-0.85,0.28-1.24,1.16-1.23c2.12,0.03,4.23,0.04,6.35-0.01
		c0.97-0.02,1.24,0.42,1.22,1.31c-0.05,1.51-0.01,3.03-0.01,4.54C232.62,40.39,232.75,40.42,232.88,40.45z"/>
</g>
</svg>
