<?xml version="1.0" encoding="utf-8"?>
<!-- Generator: Adobe Illustrator 26.3.1, SVG Export Plug-In . SVG Version: 6.00 Build 0)  -->
<svg version="1.1" id="Layer_1" xmlns="http://www.w3.org/2000/svg" xmlns:xlink="http://www.w3.org/1999/xlink" x="0px" y="0px"
	 viewBox="0 0 300.8 257.6" style="enable-background:new 0 0 300.8 257.6;" xml:space="preserve">
<style type="text/css">
	.st0{fill:#FFFFFF;}
	.st1{fill:#232A33;}
	.st2{fill:#EC9F90;}
	.st3{fill:#0D5AA8;}
	.st4{fill:#FCD17D;}
	.st5{fill:#F6961D;}
	.st6{fill:#FEBD45;}
	.st7{fill:#FFD165;}
	.st8{fill:#08477C;}
	.st9{fill:#FFB0A3;}
	.st10{fill:#E52E30;}
	.st11{fill:#F8901D;}
	.st12{fill:#D90000;}
	.st13{fill:#26C4CD;}
</style>
<g id="Layer_2_00000141422465150563579250000000860661057970429083_">
</g>
<g id="Layer_3">
</g>
<g>
	<g>
		<path id="_x3C_Group_x3E__00000048481726830364120300000006196882477832654780_" class="st0" d="M221.3,251.1h-86.6
			c-10.8,0-19.5-8.7-19.5-19.5V24.5C115.2,13.7,124,5,134.7,5h86.6c10.8,0,19.5,8.7,19.5,19.5v207.1
			C240.8,242.4,232.1,251.1,221.3,251.1z"/>
		<path class="st1" d="M231.6,256.1H124.5c-7.8,0-14.2-6.4-14.2-14.2V14.2c0-7.8,6.4-14.2,14.2-14.2h107.1c7.8,0,14.2,6.4,14.2,14.2
			v227.7C245.8,249.7,239.4,256.1,231.6,256.1z M124.5,10c-2.4,0-4.3,1.9-4.3,4.3v227.7c0,2.4,1.9,4.3,4.3,4.3h107.1
			c2.4,0,4.3-1.9,4.3-4.3V14.2c0-2.4-1.9-4.3-4.3-4.3H124.5z"/>
		<path id="_x3C_Group_x3E__00000039103105701890384520000009119888499950096017_" class="st1" d="M189.4,14.7H164
			c-2.6,0-4.6-2.1-4.6-4.6V8.2c0-2.6,2.1-4.6,4.6-4.6h25.4c2.6,0,4.6,2.1,4.6,4.6V10C194,12.6,192,14.7,189.4,14.7z"/>
	</g>
	<g>
		<path class="st2" d="M227.7,179.1c0,0-9.9,2.1-11.5,3c-1.7,0.9-2.6,3.8-2.6,3.8l2.6,2.1l5.1-3.1c0,0,4.9,1.6,7.4-0.4
			S227.7,179.1,227.7,179.1z"/>
		<path class="st3" d="M255.4,144.7c-7.3-2.7-7.7,3.1-7.7,3.1s-1.3,11.6-0.2,21.1l-19.8,10.2l0.9,5.4c0,0,24.8-2.8,27.2-5.6
			c2.2-2.5,4.2-20.6,4.6-24.6l0,0C260.4,154.3,262.7,147.4,255.4,144.7z"/>
	</g>
	<g>
		<rect x="182.1" y="248.7" class="st4" width="76.5" height="8"/>
		<g>
			<rect x="190.7" y="240.8" class="st4" width="76.5" height="8"/>
			<polygon class="st5" points="190.7,240.8 267.3,248.8 190.7,248.8 			"/>
			<polygon class="st6" points="267.3,240.8 267.3,248.8 190.7,240.8 			"/>
			<rect x="197.5" y="240.8" class="st6" width="2" height="8"/>
			<rect x="208.1" y="240.8" class="st6" width="2" height="8"/>
			<rect x="219.9" y="240.8" class="st6" width="2" height="8"/>
			<rect x="231.1" y="240.8" class="st6" width="2" height="8"/>
			<rect x="244.2" y="240.8" class="st6" width="2" height="8"/>
			<rect x="256.9" y="240.8" class="st6" width="2" height="8"/>
		</g>
		<g>
			<rect x="182.3" y="248.5" class="st4" width="76.5" height="8"/>
			<polygon class="st5" points="182.3,248.5 258.9,256.5 182.3,256.5 			"/>
			<polygon class="st6" points="258.9,248.5 258.9,256.5 182.3,248.5 			"/>
			<rect x="189.1" y="248.5" class="st6" width="2" height="8"/>
			<rect x="199.7" y="248.5" class="st6" width="2" height="8"/>
			<rect x="211.5" y="248.5" class="st6" width="2" height="8"/>
			<rect x="222.7" y="248.5" class="st6" width="2" height="8"/>
			<rect x="235.8" y="248.5" class="st6" width="2" height="8"/>
			<rect x="248.5" y="248.5" class="st7" width="2" height="8"/>
		</g>
	</g>
	<g>
		
			<ellipse transform="matrix(0.914 -0.4058 0.4058 0.914 -48.7678 96.2619)" class="st6" cx="202.6" cy="163.1" rx="37.9" ry="37.9"/>
		<circle class="st5" cx="197.5" cy="163.9" r="37.9"/>
		<path class="st6" d="M209.3,194c-3.2,1.2-6.6,1.9-10.1,2c-8.6,0.3-16.8-2.7-23.1-8.5c-6.3-5.8-10-13.7-10.3-22.3
			c-0.3-8.6,2.7-16.8,8.5-23.1c5.8-6.3,13.7-10,22.3-10.3c8.6-0.3,16.8,2.7,23.1,8.5c6.3,5.8,10,13.7,10.3,22.3
			c0.3,8.6-2.7,16.8-8.5,23.1C218.2,189.4,214,192.3,209.3,194z M186.8,134.2c-4.6,1.7-8.7,4.5-12.1,8.2c-5.7,6.2-8.7,14.3-8.4,22.8
			c0.3,8.5,4,16.3,10.2,22.1c6.2,5.7,14.3,8.7,22.8,8.4c8.5-0.3,16.3-4,22.1-10.2c5.7-6.2,8.7-14.3,8.4-22.8l0.2,0l-0.2,0
			c-0.3-8.5-4-16.3-10.2-22.1c-6.2-5.7-14.3-8.7-22.8-8.4C193.3,132.3,189.9,133,186.8,134.2z"/>
		<path class="st6" d="M208.9,177.2c-7.7,2.9-14.3,0.8-18.5-5l17.5-6.6l-1.6-4.2l-18.1,6.8c-0.2-0.4-0.4-0.8-0.5-1.2
			c-0.1-0.1-0.1-0.3-0.1-0.4l18.8-7.1l-1.6-4.2l-18.3,6.9c-1.3-8.1,2.7-14.5,10.6-17.4c3.3-1.2,6.3-1.6,8.6-1.4l-0.3-4.6
			c-1.6-0.2-5.1-0.1-10.1,1.8c-10.6,4-16,13.2-14.2,23.7l-4.2,1.6l1.6,4.2l3.8-1.4c0.1,0.2,0.1,0.4,0.2,0.6c0.1,0.4,0.3,0.7,0.5,1.1
			l-4.4,1.7l1.6,4.2l4.9-1.8c5.6,8.9,15.1,11.2,24.6,7.6c4.8-1.8,8.2-4.2,9.8-5.8l-2.6-3.7C215,174.2,212,176,208.9,177.2z"/>
	</g>
	<g>
		<rect x="89.7" y="224.4" class="st4" width="76.5" height="8"/>
		<rect x="81.6" y="232.3" class="st4" width="76.5" height="8"/>
		<rect x="78.2" y="240.1" class="st4" width="76.5" height="8"/>
		<rect x="83.8" y="248" class="st4" width="76.5" height="8"/>
		<g>
			<rect x="89.7" y="224.1" class="st4" width="76.5" height="8"/>
			<polygon class="st5" points="89.7,224.1 166.2,232.1 89.7,232.1 			"/>
			<polygon class="st6" points="166.2,224.1 166.2,232.1 89.7,224.1 			"/>
			<rect x="96.4" y="224.1" class="st6" width="2" height="8"/>
			<rect x="107" y="224.1" class="st6" width="2" height="8"/>
			<rect x="118.8" y="224.1" class="st6" width="2" height="8"/>
			<rect x="130" y="224.1" class="st6" width="2" height="8"/>
			<rect x="143.1" y="224.1" class="st6" width="2" height="8"/>
			<rect x="155.9" y="224.1" class="st6" width="2" height="8"/>
		</g>
		<g>
			<rect x="81.6" y="232.3" class="st4" width="76.5" height="8"/>
			<polygon class="st5" points="81.6,232.3 158.1,240.3 81.6,240.3 			"/>
			<polygon class="st6" points="158.1,232.3 158.1,240.3 81.6,232.3 			"/>
			<rect x="88.3" y="232.3" class="st6" width="2" height="8"/>
			<rect x="98.9" y="232.3" class="st6" width="2" height="8"/>
			<rect x="110.7" y="232.3" class="st6" width="2" height="8"/>
			<rect x="122" y="232.3" class="st6" width="2" height="8"/>
			<rect x="135" y="232.3" class="st6" width="2" height="8"/>
			<rect x="147.8" y="232.3" class="st6" width="2" height="8"/>
		</g>
		<g>
			<rect x="78.2" y="240.4" class="st4" width="76.5" height="8"/>
			<polygon class="st5" points="78.2,240.4 154.8,248.4 78.2,248.4 			"/>
			<polygon class="st6" points="154.8,240.4 154.8,248.4 78.2,240.4 			"/>
			<rect x="85" y="240.4" class="st6" width="2" height="8"/>
			<rect x="95.6" y="240.4" class="st7" width="2" height="8"/>
			<rect x="107.4" y="240.4" class="st6" width="2" height="8"/>
			<rect x="118.6" y="240.4" class="st6" width="2" height="8"/>
			<rect x="131.7" y="240.4" class="st6" width="2" height="8"/>
			<rect x="144.5" y="240.4" class="st6" width="2" height="8"/>
		</g>
		<g>
			<rect x="83.8" y="248.5" class="st4" width="76.5" height="8"/>
			<polygon class="st5" points="83.8,248.5 160.3,256.5 83.8,256.5 			"/>
			<polygon class="st6" points="160.3,248.5 160.3,256.5 83.8,248.5 			"/>
			<rect x="90.5" y="248.5" class="st6" width="2" height="8"/>
			<rect x="101.1" y="248.5" class="st6" width="2" height="8"/>
			<rect x="112.9" y="248.5" class="st6" width="2" height="8"/>
			<rect x="124.1" y="248.5" class="st6" width="2" height="8"/>
			<rect x="137.2" y="248.5" class="st6" width="2" height="8"/>
			<rect x="150" y="248.5" class="st6" width="2" height="8"/>
		</g>
	</g>
	<g>
		<path class="st3" d="M257,257.6h-15.3c-0.6,0-0.9-0.7-0.5-1.1l7.5-6.8l-0.7-3.2l6-0.7l0.9,3.8L257,257.6z"/>
		<polygon class="st2" points="255,249.6 248.8,249.7 247.7,245 254.1,244.4 		"/>
		<path class="st3" d="M300.8,257.6h-15.3c-0.6,0-0.9-0.8-0.5-1.2l7.5-7.4l-0.7-3.4l6-0.8l0.9,4.1L300.8,257.6z"/>
		<polygon class="st2" points="298.8,249 292.6,249.1 291.9,245.7 297.9,244.9 		"/>
		<path class="st1" d="M279.7,169.1l0.4,0.3c0,0,7.1,12.7,6.8,23.6c-0.4,10.9,1.5,19.3,1.5,19.3l12.5,30.7c0,0-4.6,5-9.5,3.5
			l-15.1-28.7l-7.9-23.2c0,0-10.1,13.8-16.3,18.9c0,0,2.6,6.7,4.9,31c0,0-8.9,2.1-11.1,1.1l-6.8-33.3l19.9-32.8l-2.6-6.6
			L279.7,169.1z"/>
		<path class="st8" d="M285.6,177.8c0,0-15.9,6.3-27.7,3l-11.5-27.6c0,0-2.5-8.4,3.8-12.8c6.3-4.4,15.7-1.1,21.5,11
			C277.5,163.6,285.6,177.8,285.6,177.8z"/>
		<path class="st2" d="M225.5,169.1c0,0-10.1-0.5-11.9,0c-1.8,0.5-3.5,3-3.5,3l2,2.7l5.7-1.8c0,0,4.3,2.8,7.2,1.4
			C227.9,173.2,225.5,169.1,225.5,169.1z"/>
		<path class="st1" d="M242.9,125.7c0,0-3.3,0.4-4.1-3.3c-0.8-3.6,1.4-5.8,4.1-4.7c0,0-1.2-4.2,3-4c4.3,0.2,5.9,3.5,5.9,3.5
			s4.9-2.7,7.1,2.6c2.2,5.3-2.6,13.7-2.6,13.7l-3.7,2.6L242.9,125.7z"/>
		<path class="st2" d="M242.4,124l-1.3,12.6l4.6,0.7l2.2,5.5c0,0,5.5,0.4,6.7-3.3l-3.3-5.7c0,0,4.4-4.6,0.2-5l-1.8,1.2
			c0,0-2.1-0.6-0.7-3.7C250.4,123.1,242.4,124,242.4,124z"/>
		<path class="st3" d="M260.9,142.7c-6.4-4.4-8.2,1.1-8.2,1.1s-4.2,10.9-5.5,20.4l-21.8,4.9l-0.4,5.4c0,0,24.7,3.5,27.8,1.4
			c2.7-1.8,9.2-18.9,10.6-22.6l0,0C263.4,153.3,267.3,147.2,260.9,142.7z"/>
	</g>
	<path class="st2" d="M41.2,172.8v5.6l-2.2,4.2l-0.4-8.7c0,0-2.2-1.9-1.3-4.2C38.3,167.3,41.2,172.8,41.2,172.8z"/>
	<path class="st3" d="M34,128.2c-7.1,0.4-1.5,7.7-1.5,7.7s6,8.9,12.5,14.8l-7.7,19l3.8,3.2c0,0,15.5-16.8,15.6-20.2
		c0.1-3-11.9-17.9-14-20.9l0,0C42.8,131.7,39,127.9,34,128.2z"/>
	<path class="st9" d="M119,139.8c0,0,6.2-8.5,12.6-7.5l3.7,1.6c0,0-0.4,2.3-2.7,1.9c-2.3-0.4-3.9,0.4-3.9,0.4l-4,3.9L119,139.8z"/>
	<g>
		<path class="st3" d="M33,248.4l5.7,0.1c0.2,0.2,0.5-0.1,0.9-0.1l7.2,6.9c0.4,0.4,0.1,1.1-0.5,1.1H32.6L33,248.4z"/>
		<path class="st3" d="M8.4,248.4l5.7,0.1c0.2,0.2,0.5-0.1,0.9-0.1l7.2,6.9c0.4,0.4,0.1,1.1-0.5,1.1H8L8.4,248.4z"/>
		<polygon class="st1" points="38.1,164.5 42.2,248.4 32,249.2 28.7,208.7 27,185.6 23.1,206.4 16.5,248.9 7.5,248.9 10.7,204.2 
			13.1,168.1 		"/>
		<path class="st1" d="M19.2,119.5l-3.5-0.7l-2.4-12.4c0,0,1.7-7.3,5.9-6.9c4.2,0.4,9.9-3.2,12.8-1.1c2.4,1.8,2,11.9-4.2,12.6
			L19.2,119.5z"/>
		<path class="st8" d="M7.2,131.7c0,0,13-6,30.9-3V161c0,0,1.4,4.3,0.7,5.7c0,0-14,7.2-27.8,3.7c0,0-1-2.8,0.7-5.8
			C11.7,164.6,11.8,140.1,7.2,131.7z"/>
		<path class="st2" d="M19.1,112.1c0,0-1.9-1.2-2.3,0s-0.5,3.2,1.2,3.1l1.3,3.1l-1.3,10.5c0,0,4.2,3.5,8.3-0.6l0.4-7.5l4.1-1.7
			l-1.9-11.8c0,0-3.7,3.4-7.3,0l-0.7,6.8l-1.4,0.2L19.1,112.1z"/>
	</g>
	<path class="st10" d="M84.7,141.5l20.6,2.1l15.8-7.4l3.7,3.7c0,0-12.9,11-16.2,11.9c-3.3,0.9-24.2-1.5-24.2-1.5s-4.3-0.9-5.1-5.4
		C78.5,140.5,84.7,141.5,84.7,141.5z"/>
	<g>
		<g>
			
				<ellipse transform="matrix(0.9874 -0.1585 0.1585 0.9874 -21.3474 24.3845)" class="st6" cx="142.2" cy="146" rx="37.9" ry="37.9"/>
			
				<ellipse transform="matrix(0.993 -0.1178 0.1178 0.993 -16.08 17.1617)" class="st5" cx="137.2" cy="144.6" rx="37.9" ry="37.9"/>
			<path class="st6" d="M125,174.4c-16-6.8-23.7-25.2-17.3-41.4c3.2-8,9.3-14.2,17.1-17.6c7.9-3.4,16.6-3.5,24.6-0.4
				c8,3.2,14.2,9.3,17.6,17.1c3.4,7.9,3.5,16.6,0.4,24.6c-6.5,16.5-25.3,24.6-41.7,18C125.5,174.6,125.3,174.5,125,174.4z
				 M150.1,115.6c-0.2-0.1-0.5-0.2-0.8-0.3c-7.9-3.1-16.5-3-24.3,0.4c-7.8,3.4-13.8,9.6-16.9,17.4c-6.4,16,1.3,34.2,17,40.9
				c0.2,0.1,0.5,0.2,0.7,0.3c16.3,6.5,34.8-1.5,41.2-17.8c3.1-7.9,3-16.5-0.4-24.3C163.5,124.7,157.6,118.8,150.1,115.6z"/>
			<g>
				<g>
					<path class="st6" d="M126.8,166.2l2.3-5.5c-3.1-1.4-6-3.8-7.3-5.9l2.8-3.1c1.4,2.1,3.8,4.4,6.8,5.7c3.8,1.6,7.4,0.5,8.7-2.6
						c1.3-3-0.1-5.7-3.4-9.1c-4.6-4.5-7-8.5-4.9-13.2c1.9-4.5,6.6-6.5,11.9-5.2l2.3-5.5l3.4,1.4l-2.2,5.3c3.2,1.5,5.1,3.3,6.2,4.9
						l-2.9,3c-0.9-1.1-2.6-3.3-6-4.8c-4.2-1.8-6.8,0-7.7,2.2c-1.2,2.8,0.2,5.1,4.1,9c4.6,4.7,6.2,8.7,4.2,13.5
						c-1.8,4.3-6.5,7-12.5,5.6l-2.4,5.6L126.8,166.2z"/>
				</g>
			</g>
		</g>
		<g>
			<path class="st9" d="M63.1,256.6h13c0,0-0.7-2.6-3.5-3.2c-1.1-0.2-2.1-0.8-2.8-1.5c-1-1-1.6-2-1.6-2s7.3-27,10.3-36.2l-6.4-7.2
				l-3.8,3.6c0,0-2.8,25.3-6,39.6c-0.3,1.5-0.7,2.8-1,4C61,255.2,61.9,256.6,63.1,256.6z"/>
			<path class="st9" d="M90,220.6l5,30l0.7,4.1c0.2,1.1,1,1.8,2,1.8h10.2c0,0,0.2-2.7-3.1-3.3c-0.7-0.1-1.3-0.5-1.9-0.9h0
				c-2-1.5-2.9-4.4-2.9-5.7c0-1.6-1-29.9-1-29.9L90,220.6z"/>
			<path class="st1" d="M79.3,109.7c0,0,10.9,0.1,11.1,6.6c0.2,6.5-5.1,14.6-4,17.4c1.1,2.7,0.9,17.9-14,19.3
				c-14.9,1.4-17-8.7-12.6-16.2C64.1,129.2,72.2,111.3,79.3,109.7z"/>
			<path class="st10" d="M96,163.1l2.2,13.6l3.6,43.9c0,0-15.9,12.2-32.6,5.5c0,0-4.8-3.8-10.9-2.8l14.8-45.8c0,0,3.8-13.5,8.1-15.3
				C88.8,159.1,96,163.1,96,163.1z"/>
			<path class="st11" d="M75.5,149.7l5.8,12.5c0,0,8.7,3.2,14.7,0.8l1.5-12.9c0,0-2.4-3.5-5.1-7.4c-1.8-2.5-7.3-3-9.7-0.9
				L75.5,149.7z"/>
			<path class="st9" d="M113.2,154.3c0,0,8.8-5.8,14.4-2.6l2.9,2.8c0,0-1.2,2-3.2,0.8s-3.8-1-3.8-1l-5.1,2.2L113.2,154.3z"/>
			<path class="st12" d="M94.4,248.5l5.7,0.1c0.2,0.2,0.5-0.1,0.9-0.1l7.2,6.9c0.4,0.4,0.1,1.1-0.5,1.1H93.6L94.4,248.5z"/>
			<path class="st12" d="M62.3,248.5l5.7,0.1c0.2,0.2,0.5-0.1,0.9-0.1l7.2,6.9c0.4,0.4,0.1,1.1-0.5,1.1H60.8L62.3,248.5z"/>
			<path class="st2" d="M90.3,116.3c0,0,1.2,2.5,1.7,9.4c0.5,7-0.4,6.5-0.4,6.5l-3.5,1.1l-1.7,8.1l-8.7,1.2c0,0,4.8-3.1,4.9-9.3
				c0.2-6.2-3.3-3.2-2.6-7.7c0.7-4.5,2.9,0.2,2.9,0.2S88.8,124.2,90.3,116.3z"/>
			<path class="st10" d="M84,142l15,11.1l17.4-1.4l2.2,4.7c0,0-16,5.8-19.3,5.5c-3.4-0.3-22.1-9.9-22.1-9.9s-2.8-2.2-2.9-6.8
				c-0.1-4,2.8-4.8,5.2-4.8C81.1,140.4,82.7,141,84,142z"/>
		</g>
	</g>
	<path class="st3" d="M7.2,131.7c0,0-10.5,20-6.2,34.7c0,0,8.5,7.7,29.6-5.4l-2-6.6l-18.5,3.1C10.2,157.5,14.3,137.3,7.2,131.7z"/>
	<path class="st2" d="M28.7,154.4c0,0,2.9-1.7,6.1-2.3c3.3-0.6,0,1.1,0,1.1s2.9-1,6.3-1.3c3.4-0.3-4.1,6.9-4.1,6.9l-6.7,1.3
		L28.7,154.4z"/>
	<polygon class="st13" points="206.3,45.8 206.1,45.9 206.1,52.8 148.9,52.8 148.9,62.4 206.1,62.4 206.1,69.2 206.3,69.3 
		218.8,57.6 	"/>
	<polygon class="st13" points="149.6,95.7 149.8,95.5 149.8,88.7 207,88.7 207,79.1 149.8,79.1 149.8,72.3 149.6,72.1 137.1,83.9 	
		"/>
</g>
</svg>
