<?xml version="1.0" encoding="utf-8"?>
<!-- Generator: Adobe Illustrator 26.2.1, SVG Export Plug-In . SVG Version: 6.00 Build 0)  -->
<svg version="1.1" xmlns="http://www.w3.org/2000/svg" xmlns:xlink="http://www.w3.org/1999/xlink" x="0px" y="0px"
	 viewBox="0 0 383.22 427.5" style="enable-background:new 0 0 383.22 427.5;" xml:space="preserve">
<g id="Background_Complete">
</g>
<g id="App">
</g>
<g id="Character">
	<g>
		<g>
			<g>
				<path style="fill:#EBEBEB;" d="M383.16,68.35c0.8-5.8-7.39-10.57-13.54-11.07c-2.93-0.24-5.98,0.21-8.76-0.76
					c-6.02-2.1-8.42-9.88-14.3-12.35c-4.39-1.85-9.45-0.2-13.7,1.94c-4.26,2.14-8.46,4.84-13.22,5.14
					c-4.14,0.26-8.63-1.27-12.25,0.75c-2.7,1.51-4.11,4.61-6.6,6.45c-2.43,1.79-5.6,2.17-8.62,2.34c-3.02,0.16-6.14,0.19-8.89,1.45
					c-2.75,1.26-5.02,4.16-4.45,7.13L383.16,68.35z"/>
			</g>
		</g>
		<g>
			<g>
				<path style="fill:#F5F5F5;" d="M90.83,61.09c0.69-5.05-6.43-9.2-11.78-9.63c-2.55-0.21-5.2,0.18-7.62-0.66
					C66.2,48.98,64.11,42.22,59,40.06c-3.82-1.61-8.22-0.18-11.92,1.69c-3.7,1.86-7.36,4.21-11.5,4.47
					c-3.6,0.23-7.51-1.1-10.66,0.65c-2.35,1.31-3.58,4.01-5.74,5.61c-2.12,1.56-4.88,1.89-7.5,2.03c-2.63,0.14-5.34,0.17-7.73,1.26
					c-2.39,1.09-4.37,3.62-3.87,6.2L90.83,61.09z"/>
			</g>
		</g>
		<g style="opacity:0.5;">
			<g>
				<g>
					<g>
						<polygon style="fill:#E0E0E0;" points="252.17,328.05 232.49,413.53 240.81,413.51 260.54,328.86 						"/>
					</g>
				</g>
			</g>
			<g>
				<g>
					<g>
						<polygon style="fill:#E0E0E0;" points="288.09,328.05 307.84,413.53 315.75,413.53 296.64,328.05 						"/>
					</g>
				</g>
			</g>
			<g>
				<g>
					<g>
						<polygon style="fill:#E0E0E0;" points="238.88,263.85 250.09,322.7 262.83,322.7 250.86,263.85 						"/>
					</g>
				</g>
			</g>
			<g>
				<g>
					<g>
						<polygon style="fill:#E0E0E0;" points="43.64,328.05 27.58,413.53 35.76,413.53 52.53,328.05 						"/>
					</g>
				</g>
			</g>
			<g>
				<g>
					<g>
						<polygon style="fill:#E0E0E0;" points="77.41,328.05 95.77,413.06 103.84,413.06 86.12,328.05 						"/>
					</g>
				</g>
			</g>
			<g>
				<g>
					<g>
						<polygon style="fill:#E0E0E0;" points="30.35,263.85 41.56,322.7 54.3,322.7 42.33,263.85 						"/>
					</g>
				</g>
			</g>
			<g>
				<g>
					<g>
						<polygon style="fill:#EBEBEB;" points="5.13,258.5 7.42,269.2 263.21,269.2 260.23,258.5 						"/>
					</g>
				</g>
			</g>
			<g>
				<g>
					<g>
						<polygon style="fill:#EBEBEB;" points="10.02,279.28 12.72,289.98 266.78,289.98 264.47,279.28 						"/>
					</g>
				</g>
			</g>
			<g>
				<g>
					<g>
						<polygon style="fill:#EBEBEB;" points="15.07,300.79 17.58,311.49 270.85,311.49 268.46,300.79 						"/>
					</g>
				</g>
			</g>
			<g>
				<g>
					<g>
						<rect x="34.43" y="322.7" style="fill:#EBEBEB;" width="273.11" height="10.7"/>
					</g>
				</g>
			</g>
		</g>
		<g>
			<g>
				<g>
					<g>
						<g>
							<g>
								<path style="fill:#FFFFFF;" d="M214.48,0.44l-18.93-0.01c-2.54,0-4.6,2.15-4.6,4.8l0,3.43c0,2.65-2.06,4.8-4.6,4.8
									l-36.9-0.02c-2.54,0-4.6-2.15-4.6-4.8l0-3.43c0-2.65-2.06-4.8-4.6-4.8l-6.66,0l-16.57-0.01c-8.23,0-14.9,6.66-14.9,14.88
									l-0.05,238.67c0,8.22,6.66,14.88,14.89,14.88l97.43,0.06c8.23,0.01,14.9-6.66,14.9-14.88l0.05-238.67
									C229.37,7.1,222.71,0.44,214.48,0.44z"/>
							</g>
						</g>
					</g>
				</g>
			</g>
			<g>
				<path style="fill:#0E5BA8;" d="M214.47,0.24l-18.93-0.01c-2.54,0-4.6,2.15-4.6,4.8l0,3.43c0,2.65-2.06,4.8-4.6,4.8l-36.9-0.02
					c-2.54,0-4.6-2.15-4.6-4.81l0-3.43c0-2.65-2.06-4.81-4.6-4.81l-6.66,0l-16.57-0.01c-8.23,0-14.9,6.66-14.9,14.89l-0.02,118.31
					h127.22l0.02-118.24C229.36,6.92,222.69,0.25,214.47,0.24z"/>
			</g>
			<g>
				<g>
					<g>
						<g>
							<path style="fill:#E0E0E0;" d="M165.79,97.38c-3.6,0-7.09-0.7-10.37-2.09c-3.17-1.34-6.02-3.26-8.47-5.71
								c-2.45-2.45-4.37-5.3-5.71-8.47c-1.39-3.29-2.09-6.78-2.09-10.37c0-3.6,0.7-7.09,2.09-10.37c1.34-3.17,3.26-6.02,5.71-8.47
								c2.45-2.45,5.3-4.37,8.47-5.71c3.29-1.39,6.78-2.09,10.37-2.09c3.6,0,7.09,0.7,10.37,2.09c3.17,1.34,6.02,3.26,8.47,5.71
								c2.45,2.45,4.37,5.3,5.71,8.47c1.39,3.29,2.09,6.78,2.09,10.37c0,3.6-0.7,7.08-2.09,10.37c-1.34,3.17-3.26,6.02-5.71,8.47
								c-2.45,2.45-5.3,4.37-8.47,5.71C172.87,96.68,169.38,97.38,165.79,97.38z M165.79,48.34c-5.98,0-11.61,2.33-15.84,6.56
								c-4.23,4.23-6.56,9.85-6.56,15.84c0,5.98,2.33,11.61,6.56,15.84c4.23,4.23,9.85,6.56,15.84,6.56
								c5.98,0,11.61-2.33,15.84-6.56c4.23-4.23,6.56-9.85,6.56-15.84c0-5.98-2.33-11.61-6.56-15.84
								C177.39,50.67,171.77,48.34,165.79,48.34z"/>
						</g>
					</g>
					<g>
						<g>
							<g>
								<circle style="fill:#FFFFFF;" cx="170.99" cy="62.28" r="2.45"/>
							</g>
						</g>
						<g>
							<g>
								<path style="fill:#FFFFFF;" d="M158.9,67.55l2.64-3.2c0.64-0.78,1.72-1.06,2.66-0.67l5.04,2.05
									c0.89,0.36,1.21,1.46,0.64,2.24l-3.47,4.82l4.03,0.54c1.41,0.19,2.16,1.77,1.41,2.97l-2.03,3.28
									c-0.21,0.33-0.57,0.54-0.97,0.54l0,0c-0.87,0-1.42-0.95-0.99-1.7l1.66-2.9l-7.09-0.89c-1.05-0.13-1.55-1.36-0.89-2.19
									l4.51-5.61l-2.7-0.94l-2.58,3.19c-0.39,0.48-1.07,0.59-1.59,0.25l0,0C158.57,68.93,158.44,68.1,158.9,67.55z"/>
							</g>
						</g>
						<g>
							<g>
								<path style="fill:#FFFFFF;" d="M160.87,74.2l-1.12,2.67l-3.47,2.35c-0.49,0.33-0.64,0.97-0.36,1.49l0,0
									c0.32,0.58,1.06,0.76,1.61,0.4l4.31-2.83l1.23-3.03C163.07,75.24,161.58,75.56,160.87,74.2z"/>
							</g>
						</g>
						<g>
							<g>
								<path style="fill:#FFFFFF;" d="M170.66,66.25l2.13,1.34l2.03-2.46c0.4-0.49,1.12-0.57,1.62-0.18l0,0
									c0.53,0.41,0.6,1.17,0.17,1.68l-2.21,2.59c-0.66,0.77-1.77,0.97-2.65,0.47l-1.7-0.96
									C170.06,68.74,171.12,67.49,170.66,66.25z"/>
							</g>
						</g>
					</g>
					<g>
						<g>
							<path style="fill:#FFFFFF;" d="M165.79,97.38c-3.6,0-7.09-0.7-10.37-2.09c-3.17-1.34-6.02-3.26-8.47-5.71
								c-2.45-2.45-4.37-5.3-5.71-8.47c-1.39-3.29-2.09-6.78-2.09-10.37c0-3.6,0.7-7.09,2.09-10.37c1.34-3.17,3.26-6.02,5.71-8.47
								c2.45-2.45,5.3-4.37,8.47-5.71c3.29-1.39,6.78-2.09,10.37-2.09c3.6,0,7.09,0.7,10.37,2.09c3.17,1.34,6.02,3.26,8.47,5.71
								c2.45,2.45,4.37,5.3,5.71,8.47c1.39,3.29,2.09,6.78,2.09,10.37c0,1.17-0.95,2.12-2.12,2.12s-2.12-0.95-2.12-2.12
								c0-5.98-2.33-11.61-6.56-15.84c-4.23-4.23-9.85-6.56-15.84-6.56c-5.98,0-11.61,2.33-15.84,6.56
								c-4.23,4.23-6.56,9.85-6.56,15.84c0,5.98,2.33,11.61,6.56,15.84c4.23,4.23,9.85,6.56,15.84,6.56c1.17,0,2.12,0.95,2.12,2.12
								C167.91,96.43,166.96,97.38,165.79,97.38z"/>
						</g>
					</g>
				</g>
				<g>
					<path style="fill:#FFFFFF;" d="M153.26,114.05c0,2.21-1.71,3.64-4.02,3.64c-3.18,0-4.85-2.28-4.85-6.06
						c0-4.09,2.17-6.2,5.37-6.2c1.04,0,2,0.17,2.74,0.62l-0.36,0.71c-0.62-0.4-1.47-0.55-2.38-0.55c-2.71,0-4.49,1.78-4.49,5.28
						c0,0.36,0.02,0.9,0.1,1.45c0.5-1.59,2.02-2.48,3.85-2.48C151.64,110.47,153.26,111.88,153.26,114.05z M152.38,114.07
						c0-1.73-1.24-2.85-3.28-2.85c-1.98,0-3.35,1.26-3.35,2.88c0,1.42,1.19,2.83,3.45,2.83
						C151.08,116.94,152.38,115.81,152.38,114.07z"/>
					<path style="fill:#FFFFFF;" d="M154.78,111.57c0-3.78,1.95-6.13,4.73-6.13c2.78,0,4.73,2.35,4.73,6.13
						c0,3.78-1.95,6.13-4.73,6.13C156.73,117.7,154.78,115.35,154.78,111.57z M163.35,111.57c0-3.37-1.57-5.32-3.85-5.32
						c-2.28,0-3.85,1.95-3.85,5.32c0,3.37,1.57,5.32,3.85,5.32C161.78,116.89,163.35,114.93,163.35,111.57z"/>
					<path style="fill:#FFFFFF;" d="M174.11,114.12c0,2.02-1.4,3.57-4.23,3.57c-1.76,0-3.4-0.66-4.25-1.62l0.45-0.67
						c0.72,0.85,2.16,1.48,3.78,1.48c2.23,0,3.37-1.12,3.37-2.73c0-1.73-1.05-2.78-4.33-2.78h-2.45l0.64-5.85h6.4v0.79h-5.66
						l-0.47,4.26h1.73C172.76,110.59,174.11,111.98,174.11,114.12z"/>
					<path style="fill:#FFFFFF;" d="M175.76,111.57c0-3.78,1.95-6.13,4.73-6.13c2.78,0,4.73,2.35,4.73,6.13
						c0,3.78-1.95,6.13-4.73,6.13C177.71,117.7,175.76,115.35,175.76,111.57z M184.34,111.57c0-3.37-1.57-5.32-3.85-5.32
						c-2.28,0-3.85,1.95-3.85,5.32c0,3.37,1.57,5.32,3.85,5.32C182.77,116.89,184.34,114.93,184.34,111.57z"/>
				</g>
				<g>
					<path style="fill:#FFFFFF;" d="M190.12,115.56l0.12-0.2c0.25,0.26,0.71,0.46,1.2,0.46c0.73,0,1.05-0.32,1.05-0.71
						c0-1.09-2.27-0.44-2.27-1.77c0-0.51,0.39-0.97,1.29-0.97c0.4,0,0.81,0.12,1.09,0.33l-0.1,0.21c-0.3-0.21-0.67-0.31-1-0.31
						c-0.71,0-1.02,0.33-1.02,0.73c0,1.09,2.27,0.45,2.27,1.76c0,0.51-0.41,0.96-1.31,0.96
						C190.91,116.05,190.39,115.85,190.12,115.56z"/>
					<path style="fill:#FFFFFF;" d="M193.27,114.67c0-0.81,0.58-1.38,1.37-1.38c0.43,0,0.8,0.17,1.03,0.5l-0.19,0.14
						c-0.2-0.27-0.5-0.4-0.83-0.4c-0.64,0-1.11,0.46-1.11,1.14c0,0.68,0.47,1.14,1.11,1.14c0.34,0,0.64-0.13,0.83-0.4l0.19,0.14
						c-0.22,0.33-0.6,0.5-1.03,0.5C193.85,116.05,193.27,115.48,193.27,114.67z"/>
					<path style="fill:#FFFFFF;" d="M198.82,114.44v1.58h-0.26v-1.56c0-0.61-0.33-0.93-0.88-0.93c-0.64,0-1.03,0.41-1.03,1.05v1.44
						h-0.26v-3.85h0.26v1.71c0.19-0.37,0.56-0.59,1.06-0.59C198.38,113.3,198.82,113.69,198.82,114.44z"/>
					<path style="fill:#FFFFFF;" d="M199.64,115.82c0-0.12,0.1-0.22,0.22-0.22c0.12,0,0.22,0.09,0.22,0.22
						c0,0.12-0.1,0.22-0.22,0.22C199.74,116.05,199.64,115.95,199.64,115.82z"/>
				</g>
			</g>
			<g>
				<g>
					<path style="fill:#0E5BA8;" d="M156.14,202.02h-36.45c-3.51,0-6.36-2.85-6.36-6.36v-49.19c0-3.51,2.85-6.36,6.36-6.36h36.45
						c3.51,0,6.36,2.85,6.36,6.36v49.19C162.5,199.17,159.65,202.02,156.14,202.02z"/>
				</g>
				<g>
					<path style="fill:#FFFFFF;" d="M141.55,158.71c-4.13,0-7.48-3.35-7.48-7.48c0-1.27,0.32-2.47,0.88-3.52
						c-2.36,1.26-3.96,3.74-3.96,6.6c0,4.13,3.35,7.48,7.48,7.48c2.86,0,5.34-1.6,6.6-3.96
						C144.02,158.39,142.82,158.71,141.55,158.71z"/>
				</g>
				<g>
					<path style="fill:#FFFFFF;" d="M128.91,168.21v2.45h-0.37l-1.35-1.66v1.66h-0.45v-2.45h0.37l1.35,1.66v-1.66H128.91z"/>
					<path style="fill:#FFFFFF;" d="M129.46,168.22c0-0.15,0.12-0.26,0.28-0.26c0.16,0,0.28,0.11,0.28,0.25
						c0,0.15-0.12,0.27-0.28,0.27C129.57,168.49,129.46,168.37,129.46,168.22z M129.51,168.79h0.44v1.87h-0.44V168.79z"/>
					<path style="fill:#FFFFFF;" d="M132.37,168.79v1.58c0,0.68-0.35,0.99-1.01,0.99c-0.35,0-0.7-0.09-0.91-0.27l0.2-0.33
						c0.16,0.14,0.43,0.22,0.69,0.22c0.41,0,0.59-0.19,0.59-0.57v-0.1c-0.15,0.17-0.37,0.25-0.63,0.25c-0.53,0-0.94-0.36-0.94-0.9
						c0-0.54,0.41-0.9,0.94-0.9c0.26,0,0.49,0.08,0.65,0.27v-0.25H132.37z M131.94,169.67c0-0.31-0.24-0.53-0.57-0.53
						c-0.33,0-0.57,0.21-0.57,0.53c0,0.32,0.24,0.53,0.57,0.53C131.71,170.21,131.94,169.99,131.94,169.67z"/>
					<path style="fill:#FFFFFF;" d="M134.78,169.59v1.07h-0.44v-1.01c0-0.33-0.16-0.49-0.44-0.49c-0.31,0-0.52,0.19-0.52,0.56v0.94
						h-0.44v-2.59h0.44v0.94c0.14-0.15,0.36-0.24,0.62-0.24C134.45,168.77,134.78,169.03,134.78,169.59z"/>
					<path style="fill:#FFFFFF;" d="M136.45,170.56c-0.11,0.08-0.26,0.13-0.42,0.13c-0.41,0-0.64-0.22-0.64-0.63v-0.9h-0.31v-0.35
						h0.31v-0.43h0.44v0.43h0.5v0.35h-0.5v0.89c0,0.18,0.09,0.28,0.26,0.28c0.09,0,0.18-0.02,0.24-0.08L136.45,170.56z"/>
					<path style="fill:#FFFFFF;" d="M137.61,170.4l0.16-0.35c0.2,0.16,0.51,0.27,0.81,0.27c0.38,0,0.54-0.14,0.54-0.32
						c0-0.53-1.45-0.18-1.45-1.09c0-0.4,0.31-0.73,0.99-0.73c0.29,0,0.6,0.08,0.81,0.22l-0.14,0.35c-0.22-0.13-0.46-0.19-0.67-0.19
						c-0.38,0-0.53,0.15-0.53,0.33c0,0.52,1.45,0.18,1.45,1.08c0,0.39-0.32,0.73-0.99,0.73C138.19,170.7,137.81,170.58,137.61,170.4
						z"/>
					<path style="fill:#FFFFFF;" d="M139.97,168.07h0.44v2.59h-0.44V168.07z"/>
					<path style="fill:#FFFFFF;" d="M142.72,169.87h-1.46c0.05,0.27,0.28,0.45,0.6,0.45c0.21,0,0.37-0.07,0.51-0.2l0.23,0.27
						c-0.17,0.2-0.43,0.3-0.75,0.3c-0.63,0-1.03-0.4-1.03-0.96c0-0.56,0.41-0.95,0.96-0.95c0.54,0,0.94,0.38,0.94,0.96
						C142.73,169.77,142.72,169.82,142.72,169.87z M141.25,169.58h1.06c-0.04-0.27-0.24-0.45-0.53-0.45
						C141.5,169.12,141.3,169.3,141.25,169.58z"/>
					<path style="fill:#FFFFFF;" d="M145.12,169.73c0,0.58-0.4,0.96-0.95,0.96c-0.24,0-0.45-0.08-0.6-0.25v0.9h-0.44v-2.54h0.42
						v0.24c0.15-0.18,0.36-0.27,0.62-0.27C144.72,168.77,145.12,169.15,145.12,169.73z M144.68,169.73c0-0.36-0.24-0.58-0.55-0.58
						c-0.31,0-0.56,0.23-0.56,0.58c0,0.36,0.24,0.58,0.56,0.58C144.44,170.31,144.68,170.08,144.68,169.73z"/>
					<path style="fill:#FFFFFF;" d="M147.52,169.73c0,0.58-0.4,0.96-0.95,0.96c-0.24,0-0.45-0.08-0.6-0.25v0.9h-0.44v-2.54h0.42
						v0.24c0.15-0.18,0.36-0.27,0.62-0.27C147.11,168.77,147.52,169.15,147.52,169.73z M147.07,169.73c0-0.36-0.24-0.58-0.55-0.58
						s-0.56,0.23-0.56,0.58c0,0.36,0.24,0.58,0.56,0.58S147.07,170.08,147.07,169.73z"/>
				</g>
				<g>
					<path style="fill:#FFFFFF;" d="M136.31,182.78c0,1.42-1.18,2.3-3.11,2.3c-1.93,0-3.08-0.88-3.08-2.3
						c0-1.03,0.63-1.74,1.74-2.03c-0.93-0.3-1.45-0.95-1.45-1.84c0-1.31,1.1-2.11,2.79-2.11c1.69,0,2.81,0.81,2.81,2.11
						c0,0.9-0.53,1.54-1.47,1.84C135.67,181.04,136.31,181.77,136.31,182.78z M135.72,182.78c0-1.09-0.93-1.77-2.51-1.77
						c-1.58,0-2.49,0.69-2.49,1.77c0,1.1,0.91,1.79,2.49,1.79C134.78,184.57,135.72,183.88,135.72,182.78z M133.21,180.52
						c1.39,0,2.22-0.62,2.22-1.59c0-1-0.86-1.62-2.22-1.62c-1.35,0-2.19,0.62-2.19,1.61C131.01,179.9,131.82,180.52,133.21,180.52z"
						/>
					<path style="fill:#FFFFFF;" d="M143.59,181.47v3.56h-0.58v-3.51c0-1.38-0.74-2.1-1.97-2.1c-1.44,0-2.31,0.92-2.31,2.37v3.25
						h-0.58v-8.66h0.58v3.84c0.42-0.83,1.26-1.32,2.39-1.32C142.6,178.89,143.59,179.76,143.59,181.47z"/>
				</g>
				<g>
					<path style="fill:#FFFFFF;" d="M131.35,190.68c0-1.13,0.58-1.83,1.41-1.83c0.83,0,1.41,0.7,1.41,1.83
						c0,1.13-0.58,1.83-1.41,1.83C131.93,192.51,131.35,191.81,131.35,190.68z M133.91,190.68c0-1.01-0.47-1.59-1.15-1.59
						c-0.68,0-1.15,0.58-1.15,1.59c0,1.01,0.47,1.59,1.15,1.59C133.45,192.27,133.91,191.69,133.91,190.68z"/>
					<path style="fill:#FFFFFF;" d="M137.13,191.45c0,0.6-0.42,1.07-1.26,1.07c-0.53,0-1.02-0.2-1.27-0.48l0.13-0.2
						c0.22,0.25,0.64,0.44,1.13,0.44c0.67,0,1.01-0.33,1.01-0.81c0-0.52-0.31-0.83-1.29-0.83h-0.73l0.19-1.75h1.91v0.24h-1.69
						l-0.14,1.27h0.52C136.73,190.39,137.13,190.81,137.13,191.45z"/>
					<path style="fill:#FFFFFF;" d="M142.32,190.91v1.57h-0.26v-1.55c0-0.61-0.31-0.93-0.84-0.93c-0.61,0-0.98,0.41-0.98,1.05v1.43
						h-0.26v-1.55c0-0.61-0.31-0.93-0.84-0.93c-0.61,0-0.98,0.41-0.98,1.05v1.43h-0.26v-2.69h0.25v0.58c0.18-0.38,0.54-0.6,1.03-0.6
						c0.48,0,0.84,0.22,0.99,0.65c0.18-0.39,0.57-0.65,1.09-0.65C141.9,189.77,142.32,190.16,142.32,190.91z"/>
				</g>
			</g>
			<g>
				<g>
					<g>
						<path style="fill:#0E5BA8;" d="M209.66,202.02c0-0.05,0.74,0.02,2.07-0.32c1.3-0.33,3.29-1.23,4.79-3.38
							c0.73-1.07,1.29-2.45,1.42-4.02c0.07-1.58,0.01-3.33,0.02-5.19c-0.01-3.73-0.02-7.98-0.04-12.68
							c-0.01-4.7-0.02-9.84-0.03-15.37c0-2.76-0.01-5.62-0.01-8.56c-0.01-1.46,0.02-2.98-0.03-4.46c-0.07-1.47-0.6-2.93-1.45-4.17
							c-0.43-0.62-0.96-1.17-1.54-1.67c-0.6-0.47-1.26-0.88-1.96-1.19c-0.72-0.29-1.46-0.51-2.24-0.6
							c-0.77-0.08-1.58-0.06-2.39-0.06c-3.25,0-6.57,0-9.95,0.01c-6.76,0-13.75,0-20.92,0.01c-1.74,0.01-3.46,0.56-4.84,1.59
							c-1.4,1-2.42,2.47-2.95,4.07c-0.25,0.81-0.39,1.65-0.4,2.49c0,0.87,0,1.73,0,2.59c0,1.72,0,3.42,0,5.11
							c-0.01,6.76-0.01,13.28-0.02,19.49c-0.01,6.21-0.02,12.11-0.02,17.64c-0.07,2.71,1.22,5.28,3.23,6.78
							c0.99,0.76,2.14,1.28,3.31,1.53c1.17,0.26,2.38,0.16,3.55,0.18c9.38,0.04,16.97,0.06,22.25,0.08
							c2.61,0.02,4.64,0.04,6.05,0.05c0.68,0.01,1.2,0.02,1.57,0.03C209.48,202,209.66,202.02,209.66,202.02s-0.18,0.02-0.54,0.03
							c-0.37,0.01-0.9,0.01-1.57,0.03c-1.4,0.01-3.44,0.03-6.05,0.05c-5.27,0.02-12.87,0.05-22.25,0.08
							c-1.16-0.02-2.39,0.09-3.63-0.17c-1.23-0.26-2.43-0.8-3.48-1.59c-2.11-1.55-3.49-4.27-3.42-7.1
							c-0.01-5.52-0.02-11.43-0.02-17.64c0-6.21-0.01-12.73-0.02-19.49c0-1.69,0-3.39,0-5.11c0-0.86,0-1.72,0-2.59
							c0.01-0.89,0.16-1.78,0.43-2.64c0.57-1.7,1.65-3.26,3.14-4.33c1.46-1.1,3.3-1.68,5.14-1.69c7.17,0,14.16,0,20.92,0.01
							c3.38,0,6.7,0,9.95,0.01c0.81,0,1.62-0.02,2.45,0.07c0.82,0.09,1.62,0.33,2.38,0.64c0.75,0.33,1.44,0.76,2.08,1.27
							c0.61,0.53,1.17,1.11,1.63,1.77c0.9,1.32,1.45,2.86,1.52,4.41c0.05,1.54,0.01,3.01,0.02,4.49c0,2.94-0.01,5.8-0.01,8.56
							c-0.01,5.52-0.02,10.67-0.03,15.37c-0.01,4.69-0.03,8.94-0.04,12.68c-0.02,1.87,0.02,3.59-0.06,5.21
							c-0.15,1.62-0.74,3.03-1.5,4.11c-1.57,2.18-3.6,3.07-4.93,3.37c-0.68,0.16-1.21,0.22-1.56,0.22
							C209.84,202.03,209.66,202.02,209.66,202.02z"/>
					</g>
				</g>
				<g>
					<path style="fill:#0E5BA8;" d="M200.72,148.62c-1.39-0.31-2.87,0.29-3.93,1.24c-0.87,0.77-1.52,1.74-2.1,2.75
						c-0.59-1.01-1.23-1.98-2.1-2.75c-1.07-0.94-2.54-1.54-3.93-1.24c-2.19,0.48-3.4,3.08-3.03,5.29c0.37,2.21,1.9,4.04,3.56,5.56
						c1.66,1.52,3.5,2.84,5.47,3.93l0,0.04c0.01-0.01,0.02-0.01,0.03-0.02c0.01,0.01,0.02,0.01,0.03,0.02l0-0.04
						c1.97-1.09,3.81-2.41,5.47-3.93c1.65-1.51,3.19-3.35,3.56-5.56C204.12,151.69,202.91,149.1,200.72,148.62z"/>
				</g>
				<g>
					<path style="fill:#263238;" d="M186.55,166.96v2.92h-0.54v-1.25h-1.51v1.25h-0.54v-2.92h0.54v1.2h1.51v-1.2H186.55z"/>
					<path style="fill:#263238;" d="M189.14,168.58v1.3h-0.49v-0.27c-0.12,0.19-0.37,0.3-0.7,0.3c-0.51,0-0.83-0.28-0.83-0.67
						c0-0.37,0.25-0.66,0.92-0.66h0.58v-0.03c0-0.3-0.18-0.48-0.55-0.48c-0.25,0-0.51,0.08-0.67,0.22l-0.2-0.38
						c0.24-0.18,0.58-0.27,0.94-0.27C188.77,167.63,189.14,167.94,189.14,168.58z M188.62,169.18v-0.26h-0.54
						c-0.35,0-0.45,0.13-0.45,0.3c0,0.19,0.16,0.31,0.42,0.31C188.31,169.53,188.53,169.41,188.62,169.18z"/>
					<path style="fill:#263238;" d="M191.14,169.76c-0.12,0.1-0.31,0.15-0.5,0.15c-0.49,0-0.77-0.26-0.77-0.75v-1.07h-0.37v-0.42
						h0.37v-0.51h0.52v0.51h0.6v0.42h-0.6v1.06c0,0.22,0.11,0.33,0.31,0.33c0.11,0,0.21-0.03,0.29-0.09L191.14,169.76z"/>
					<path style="fill:#263238;" d="M193.57,168.93h-1.75c0.06,0.33,0.33,0.53,0.72,0.53c0.25,0,0.45-0.08,0.6-0.24l0.28,0.32
						c-0.2,0.24-0.51,0.36-0.9,0.36c-0.75,0-1.23-0.48-1.23-1.14c0-0.66,0.49-1.14,1.15-1.14c0.65,0,1.12,0.45,1.12,1.15
						C193.58,168.82,193.58,168.89,193.57,168.93z M191.82,168.59h1.26c-0.04-0.32-0.29-0.54-0.63-0.54
						C192.12,168.05,191.87,168.26,191.82,168.59z"/>
					<path style="fill:#263238;" d="M197.18,169.88l-0.6-0.85c-0.04,0-0.07,0-0.11,0h-0.66v0.85h-0.54v-2.92h1.2
						c0.77,0,1.24,0.39,1.24,1.04c0,0.44-0.22,0.77-0.62,0.92l0.67,0.96H197.18z M196.45,167.42h-0.63v1.16h0.63
						c0.47,0,0.72-0.22,0.72-0.58C197.17,167.64,196.92,167.42,196.45,167.42z"/>
					<path style="fill:#263238;" d="M200.11,168.58v1.3h-0.49v-0.27c-0.12,0.19-0.37,0.3-0.7,0.3c-0.51,0-0.83-0.28-0.83-0.67
						c0-0.37,0.25-0.66,0.92-0.66h0.58v-0.03c0-0.3-0.18-0.48-0.55-0.48c-0.25,0-0.51,0.08-0.67,0.22l-0.2-0.38
						c0.24-0.18,0.58-0.27,0.94-0.27C199.74,167.63,200.11,167.94,200.11,168.58z M199.59,169.18v-0.26h-0.54
						c-0.35,0-0.45,0.13-0.45,0.3c0,0.19,0.16,0.31,0.42,0.31C199.28,169.53,199.5,169.41,199.59,169.18z"/>
					<path style="fill:#263238;" d="M202.11,169.76c-0.12,0.1-0.31,0.15-0.5,0.15c-0.49,0-0.77-0.26-0.77-0.75v-1.07h-0.37v-0.42
						h0.37v-0.51h0.52v0.51h0.6v0.42h-0.6v1.06c0,0.22,0.11,0.33,0.31,0.33c0.11,0,0.21-0.03,0.29-0.09L202.11,169.76z"/>
					<path style="fill:#263238;" d="M204.54,168.93h-1.75c0.06,0.33,0.33,0.53,0.72,0.53c0.25,0,0.45-0.08,0.6-0.24l0.28,0.32
						c-0.2,0.24-0.51,0.36-0.9,0.36c-0.75,0-1.23-0.48-1.23-1.14c0-0.66,0.49-1.14,1.15-1.14c0.65,0,1.12,0.45,1.12,1.15
						C204.55,168.82,204.54,168.89,204.54,168.93z M202.79,168.59h1.26c-0.04-0.32-0.29-0.54-0.63-0.54
						C203.09,168.05,202.84,168.26,202.79,168.59z"/>
				</g>
				<g>
					<path style="fill:#263238;" d="M191.99,191.7c0,0.78-0.56,1.33-1.29,1.33c-0.47,0-0.87-0.24-1.07-0.64v0.62h-0.24v-3.73h0.25
						v1.7c0.21-0.39,0.6-0.62,1.06-0.62C191.43,190.37,191.99,190.91,191.99,191.7z M191.74,191.7c0-0.66-0.46-1.1-1.06-1.1
						c-0.6,0-1.05,0.45-1.05,1.1c0,0.66,0.45,1.1,1.05,1.1C191.28,192.8,191.74,192.36,191.74,191.7z"/>
					<path style="fill:#263238;" d="M195.38,191.7c0,0.79-0.56,1.33-1.29,1.33c-0.46,0-0.85-0.23-1.06-0.62v1.57h-0.25v-3.59h0.24
						v0.62c0.21-0.4,0.6-0.64,1.07-0.64C194.82,190.37,195.38,190.92,195.38,191.7z M195.13,191.7c0-0.66-0.46-1.1-1.06-1.1
						c-0.6,0-1.05,0.45-1.05,1.1c0,0.66,0.45,1.1,1.05,1.1C194.67,192.8,195.13,192.36,195.13,191.7z"/>
					<path style="fill:#263238;" d="M200.46,191.48v1.53h-0.25v-1.51c0-0.59-0.31-0.9-0.82-0.9c-0.59,0-0.96,0.4-0.96,1.02v1.4
						h-0.25v-1.51c0-0.59-0.31-0.9-0.82-0.9c-0.59,0-0.96,0.4-0.96,1.02v1.4h-0.25v-2.62h0.24v0.56c0.17-0.37,0.53-0.58,1-0.58
						c0.47,0,0.82,0.22,0.96,0.63c0.17-0.38,0.55-0.63,1.06-0.63C200.05,190.37,200.46,190.74,200.46,191.48z"/>
				</g>
				<g>
					<path style="fill:#263238;" d="M194.28,182.99c0,2.05-1.7,3.31-4.47,3.31c-2.77,0-4.43-1.26-4.43-3.31
						c0-1.48,0.91-2.5,2.5-2.92c-1.34-0.44-2.08-1.36-2.08-2.65c0-1.88,1.58-3.04,4.02-3.04c2.44,0,4.05,1.16,4.05,3.04
						c0,1.29-0.76,2.22-2.12,2.65C193.36,180.49,194.28,181.53,194.28,182.99z M193.42,182.99c0-1.56-1.34-2.55-3.61-2.55
						c-2.27,0-3.58,0.99-3.58,2.55c0,1.58,1.31,2.57,3.58,2.57C192.08,185.57,193.42,184.57,193.42,182.99z M189.81,179.74
						c2,0,3.19-0.89,3.19-2.28c0-1.44-1.24-2.34-3.19-2.34c-1.95,0-3.16,0.89-3.16,2.32C186.65,178.85,187.81,179.74,189.81,179.74z
						"/>
					<path style="fill:#263238;" d="M203.82,182.83c0,1.97-1.36,3.48-4.12,3.48c-1.71,0-3.31-0.64-4.13-1.58l0.44-0.66
						c0.71,0.82,2.1,1.44,3.68,1.44c2.17,0,3.28-1.09,3.28-2.65c0-1.68-1.02-2.71-4.22-2.71h-2.39l0.62-5.69h6.23v0.77h-5.51
						l-0.45,4.15h1.68C202.51,179.38,203.82,180.74,203.82,182.83z"/>
				</g>
			</g>
			<g>
				<path style="fill:#E0E0E0;" d="M112.7,216.67c0,0.64-0.34,0.96-0.84,0.96c-0.16,0-0.31-0.03-0.43-0.1l0.06-0.11
					c0.1,0.06,0.23,0.09,0.37,0.09c0.42,0,0.7-0.28,0.7-0.82c0-0.06,0-0.14-0.02-0.23c-0.08,0.25-0.31,0.39-0.6,0.39
					c-0.38,0-0.63-0.22-0.63-0.56c0-0.34,0.27-0.57,0.63-0.57C112.44,215.73,112.7,216.09,112.7,216.67z M112.49,216.29
					c0-0.22-0.18-0.44-0.54-0.44c-0.29,0-0.49,0.17-0.49,0.45c0,0.27,0.19,0.44,0.51,0.44
					C112.28,216.74,112.49,216.54,112.49,216.29z"/>
				<path style="fill:#E0E0E0;" d="M113,216.68c0-0.59,0.3-0.95,0.74-0.95c0.43,0,0.74,0.37,0.74,0.95c0,0.59-0.3,0.95-0.74,0.95
					C113.3,217.64,113,217.27,113,216.68z M114.33,216.68c0-0.52-0.24-0.83-0.6-0.83c-0.35,0-0.6,0.3-0.6,0.83
					c0,0.52,0.24,0.83,0.6,0.83C114.09,217.51,114.33,217.21,114.33,216.68z"/>
				<path style="fill:#E0E0E0;" d="M114.76,216.68c0-0.59,0.3-0.95,0.74-0.95c0.43,0,0.74,0.37,0.74,0.95c0,0.59-0.3,0.95-0.74,0.95
					C115.07,217.64,114.76,217.27,114.76,216.68z M116.1,216.68c0-0.52-0.24-0.83-0.6-0.83s-0.6,0.3-0.6,0.83
					c0,0.52,0.24,0.83,0.6,0.83S116.1,217.21,116.1,216.68z"/>
				<path style="fill:#E0E0E0;" d="M116.53,216.68c0-0.59,0.3-0.95,0.74-0.95c0.43,0,0.74,0.37,0.74,0.95c0,0.59-0.3,0.95-0.74,0.95
					C116.84,217.64,116.53,217.27,116.53,216.68z M117.87,216.68c0-0.52-0.24-0.83-0.6-0.83s-0.6,0.3-0.6,0.83
					c0,0.52,0.24,0.83,0.6,0.83S117.87,217.21,117.87,216.68z"/>
			</g>
			<g>
				<path style="fill:#E0E0E0;" d="M112.76,226.62c0,0.34-0.27,0.57-0.63,0.57c-0.49,0-0.75-0.35-0.75-0.94
					c0-0.64,0.34-0.96,0.83-0.96c0.16,0,0.31,0.03,0.43,0.1l-0.06,0.11c-0.1-0.06-0.23-0.09-0.37-0.09c-0.42,0-0.7,0.28-0.7,0.82
					c0,0.06,0,0.14,0.02,0.22c0.08-0.25,0.31-0.39,0.6-0.39C112.51,226.06,112.76,226.28,112.76,226.62z M112.62,226.62
					c0-0.27-0.19-0.44-0.51-0.44c-0.31,0-0.52,0.2-0.52,0.45c0,0.22,0.19,0.44,0.54,0.44C112.42,227.06,112.62,226.89,112.62,226.62
					z"/>
				<path style="fill:#E0E0E0;" d="M113,226.23c0-0.59,0.3-0.95,0.74-0.95c0.43,0,0.74,0.37,0.74,0.95c0,0.59-0.3,0.95-0.74,0.95
					C113.3,227.18,113,226.82,113,226.23z M114.33,226.23c0-0.52-0.24-0.83-0.6-0.83c-0.35,0-0.6,0.3-0.6,0.83
					c0,0.52,0.24,0.83,0.6,0.83C114.09,227.06,114.33,226.75,114.33,226.23z"/>
				<path style="fill:#E0E0E0;" d="M114.76,226.23c0-0.59,0.3-0.95,0.74-0.95c0.43,0,0.74,0.37,0.74,0.95c0,0.59-0.3,0.95-0.74,0.95
					C115.07,227.18,114.76,226.82,114.76,226.23z M116.1,226.23c0-0.52-0.24-0.83-0.6-0.83s-0.6,0.3-0.6,0.83
					c0,0.52,0.24,0.83,0.6,0.83S116.1,226.75,116.1,226.23z"/>
				<path style="fill:#E0E0E0;" d="M116.53,226.23c0-0.59,0.3-0.95,0.74-0.95c0.43,0,0.74,0.37,0.74,0.95c0,0.59-0.3,0.95-0.74,0.95
					C116.84,227.18,116.53,226.82,116.53,226.23z M117.87,226.23c0-0.52-0.24-0.83-0.6-0.83s-0.6,0.3-0.6,0.83
					c0,0.52,0.24,0.83,0.6,0.83S117.87,226.75,117.87,226.23z"/>
			</g>
			<g>
				<path style="fill:#E0E0E0;" d="M112.59,237.15c0,0.31-0.23,0.54-0.66,0.54c-0.28,0-0.53-0.1-0.66-0.25l0.07-0.1
					c0.12,0.13,0.34,0.23,0.59,0.23c0.34,0,0.52-0.16,0.52-0.42c0-0.25-0.17-0.42-0.55-0.42h-0.12v-0.1l0.56-0.71h-1v-0.12h1.18v0.1
					l-0.56,0.72C112.38,236.63,112.59,236.85,112.59,237.15z"/>
				<path style="fill:#E0E0E0;" d="M112.88,236.74c0-0.59,0.3-0.95,0.74-0.95c0.43,0,0.74,0.37,0.74,0.95c0,0.59-0.3,0.95-0.74,0.95
					C113.18,237.69,112.88,237.33,112.88,236.74z M114.21,236.74c0-0.52-0.24-0.83-0.6-0.83s-0.6,0.3-0.6,0.83
					c0,0.52,0.24,0.83,0.6,0.83S114.21,237.26,114.21,236.74z"/>
				<path style="fill:#E0E0E0;" d="M114.65,236.74c0-0.59,0.3-0.95,0.74-0.95c0.43,0,0.74,0.37,0.74,0.95c0,0.59-0.3,0.95-0.74,0.95
					C114.95,237.69,114.65,237.33,114.65,236.74z M115.98,236.74c0-0.52-0.24-0.83-0.6-0.83s-0.6,0.3-0.6,0.83
					c0,0.52,0.24,0.83,0.6,0.83S115.98,237.26,115.98,236.74z"/>
				<path style="fill:#E0E0E0;" d="M116.41,236.74c0-0.59,0.3-0.95,0.74-0.95c0.43,0,0.74,0.37,0.74,0.95c0,0.59-0.3,0.95-0.74,0.95
					C116.72,237.69,116.41,237.33,116.41,236.74z M117.75,236.74c0-0.52-0.24-0.83-0.6-0.83s-0.6,0.3-0.6,0.83
					c0,0.52,0.24,0.83,0.6,0.83S117.75,237.26,117.75,236.74z"/>
			</g>
			<g>
				<path style="fill:#E0E0E0;" d="M116.28,245.91c0-0.59,0.3-0.95,0.74-0.95c0.43,0,0.74,0.37,0.74,0.95c0,0.59-0.3,0.95-0.74,0.95
					C116.58,246.86,116.28,246.5,116.28,245.91z M117.62,245.91c0-0.52-0.24-0.83-0.6-0.83s-0.6,0.3-0.6,0.83
					c0,0.52,0.24,0.83,0.6,0.83S117.62,246.43,117.62,245.91z"/>
			</g>
			<g>
				<path style="fill:#E0E0E0;" d="M129.21,254.76l0-1.76l-0.86,1.49h-0.07l-0.86-1.48v1.76h-0.15v-2.06h0.13l0.92,1.59l0.92-1.59
					h0.12l0,2.06H129.21z"/>
			</g>
			<g>
				<path style="fill:#E0E0E0;" d="M157.62,252.7l-0.7,2.06h-0.16l-0.64-1.85l-0.64,1.85h-0.16l-0.7-2.06h0.16l0.63,1.86l0.64-1.86
					h0.14l0.64,1.86l0.63-1.86H157.62z"/>
			</g>
			<g>
				<path style="fill:#E0E0E0;" d="M169.95,252.84h-0.74v-0.14h1.63v0.14h-0.74v1.93h-0.15V252.84z"/>
			</g>
			<g>
				<path style="fill:#E0E0E0;" d="M183.51,252.84v0.88h1.1v0.14h-1.1v0.91h-0.15v-2.06h1.38v0.14H183.51z"/>
			</g>
			<g>
				<path style="fill:#E0E0E0;" d="M197.09,254.5l0.07-0.11c0.14,0.15,0.4,0.26,0.68,0.26c0.41,0,0.59-0.18,0.59-0.4
					c0-0.62-1.29-0.25-1.29-1.01c0-0.29,0.22-0.55,0.73-0.55c0.23,0,0.46,0.07,0.62,0.19l-0.06,0.12c-0.17-0.12-0.38-0.17-0.57-0.17
					c-0.4,0-0.58,0.19-0.58,0.41c0,0.62,1.29,0.25,1.29,1c0,0.29-0.23,0.54-0.74,0.54C197.54,254.78,197.24,254.66,197.09,254.5z"/>
			</g>
			<g>
				<path style="fill:#E0E0E0;" d="M211,254.5l0.07-0.11c0.14,0.15,0.4,0.26,0.68,0.26c0.41,0,0.59-0.18,0.59-0.4
					c0-0.62-1.29-0.25-1.29-1.01c0-0.29,0.22-0.55,0.73-0.55c0.23,0,0.46,0.07,0.62,0.19l-0.06,0.12c-0.17-0.12-0.38-0.17-0.57-0.17
					c-0.4,0-0.58,0.19-0.58,0.41c0,0.62,1.29,0.25,1.29,1c0,0.29-0.23,0.54-0.74,0.54C211.44,254.78,211.15,254.66,211,254.5z"/>
			</g>
			<g>
				<path style="fill:#E0E0E0;" d="M142.14,252.84h-0.74v-0.14h1.63v0.14h-0.74v1.93h-0.15V252.84z"/>
			</g>
			<g>
				<path style="fill:#0E5BA8;" d="M212.75,215.78c-5.65,2.46-10.22,7.29-12.37,13.06c-0.77,2.05-1.24,4.22-2.15,6.21
					c-0.91,1.99-2.37,3.87-4.42,4.64c-2.62,0.97-5.68-0.14-7.6-2.17c-1.92-2.03-2.85-4.81-3.3-7.56c-0.45-2.76-0.47-5.57-0.87-8.33
					c-0.34-2.39-0.98-4.79-2.37-6.76c-1.39-1.97-3.62-3.46-6.03-3.46c-3.92-0.02-6.77,3.55-9.08,6.71c-2.31,3.16-5.44,6.6-9.33,6.17
					c-5.92-0.66-8.05-9.56-13.94-10.4c-3.72-0.53-7.05,2.59-8.61,6.01c-1.56,3.42-1.98,7.26-3.51,10.7
					c-1.53,3.43-4.78,6.61-8.51,6.18v13.06h92.09V215.78z"/>
			</g>
			<g style="opacity:0.7;">
				<g>
					<path style="fill:#FFFFFF;" d="M212.72,215.93c-5.65,2.46-10.22,7.29-12.37,13.06c-0.77,2.05-1.24,4.22-2.15,6.21
						c-0.91,1.99-2.37,3.87-4.42,4.64c-2.62,0.97-5.68-0.14-7.6-2.17c-1.92-2.03-2.85-4.81-3.3-7.56c-0.45-2.76-0.47-5.56-0.87-8.33
						c-0.34-2.39-0.98-4.79-2.37-6.76c-1.39-1.97-3.62-3.46-6.03-3.46c-3.92-0.02-6.77,3.55-9.08,6.71
						c-2.31,3.16-5.44,6.6-9.33,6.17c-5.92-0.66-8.05-9.56-13.94-10.4c-3.72-0.53-7.05,2.59-8.61,6.01
						c-1.56,3.42-1.98,7.26-3.51,10.7c-1.53,3.43-4.78,6.61-8.51,6.18v13.06h92.09V215.93z"/>
				</g>
			</g>
			<g>
				<g>
					<path style="fill:#0E5BA8;" d="M212.75,215.78c0,0.01-0.11,0.07-0.33,0.18c-0.22,0.12-0.56,0.26-0.98,0.51
						c-0.86,0.45-2.09,1.19-3.54,2.33c-1.43,1.15-3.08,2.72-4.58,4.86c-1.53,2.13-2.8,4.83-3.67,8.02c-0.49,1.58-1,3.27-1.97,4.84
						c-0.94,1.54-2.4,3.04-4.39,3.55c-1.97,0.51-4.16-0.05-5.9-1.25c-1.77-1.21-3.02-3.13-3.78-5.2c-1.6-4.21-1.16-8.95-2.09-13.55
						c-0.48-2.28-1.37-4.6-3.09-6.28c-0.85-0.83-1.89-1.5-3.03-1.86c-1.14-0.37-2.39-0.35-3.55-0.01c-2.35,0.72-4.13,2.6-5.65,4.47
						c-1.51,1.9-2.85,3.98-4.66,5.6c-0.89,0.81-1.88,1.54-3,2c-1.11,0.47-2.34,0.69-3.52,0.48c-1.2-0.14-2.27-0.71-3.2-1.37
						c-0.94-0.66-1.71-1.49-2.45-2.31c-1.46-1.65-2.72-3.37-4.24-4.74c-1.49-1.35-3.41-2.25-5.29-2c-1.88,0.21-3.5,1.3-4.71,2.57
						c-1.24,1.28-2.09,2.79-2.67,4.32c-1.18,3.06-1.69,6.05-2.65,8.51c-0.9,2.5-2.34,4.38-3.77,5.56c-1.44,1.2-2.89,1.66-3.86,1.77
						c-0.49,0.05-0.86,0.05-1.11,0.02c-0.25-0.02-0.38-0.04-0.38-0.05c0-0.04,0.52,0.06,1.47-0.07c0.95-0.14,2.35-0.62,3.74-1.82
						c1.39-1.19,2.77-3.04,3.63-5.51c0.93-2.44,1.41-5.42,2.58-8.54c0.58-1.56,1.46-3.13,2.73-4.46c1.25-1.32,2.93-2.48,4.96-2.72
						c2.03-0.27,4.1,0.69,5.65,2.09c1.58,1.41,2.85,3.14,4.29,4.76c1.42,1.6,3.14,3.19,5.36,3.5c2.21,0.37,4.42-0.79,6.1-2.37
						c1.76-1.57,3.07-3.6,4.6-5.54c1.54-1.89,3.36-3.86,5.91-4.65c1.25-0.38,2.62-0.4,3.85,0.01c1.24,0.39,2.34,1.1,3.24,1.98
						c1.83,1.79,2.74,4.21,3.23,6.54c0.94,4.71,0.5,9.42,2.05,13.49c0.74,2.01,1.93,3.84,3.59,4.99c1.64,1.15,3.71,1.68,5.53,1.21
						c1.84-0.45,3.23-1.85,4.15-3.34c0.94-1.51,1.46-3.17,1.96-4.74c0.48-1.58,0.98-3.09,1.64-4.44c0.64-1.36,1.38-2.57,2.15-3.64
						c1.55-2.15,3.24-3.71,4.7-4.85c1.48-1.12,2.74-1.84,3.62-2.26c0.43-0.23,0.78-0.36,1.01-0.46
						C212.62,215.82,212.74,215.78,212.75,215.78z"/>
				</g>
			</g>
			<g>
				<g>
					<path style="fill:#263238;" d="M217.18,249.83c0,0.14-23.81,0.26-53.17,0.26c-29.37,0-53.17-0.12-53.17-0.26
						s23.8-0.26,53.17-0.26C193.37,249.57,217.18,249.69,217.18,249.83z"/>
				</g>
			</g>
			<g>
				<path style="fill:#FFFFFF;" d="M155.31,28.81l0-3.03l-1.48,2.56h-0.13l-1.48-2.55v3.02h-0.25v-3.55h0.22l1.59,2.74l1.59-2.74
					h0.21l0.01,3.55H155.31z"/>
				<path style="fill:#FFFFFF;" d="M158.85,26.17l-1.36,3c-0.21,0.49-0.48,0.64-0.83,0.64c-0.24,0-0.46-0.08-0.61-0.24l0.13-0.19
					c0.14,0.14,0.29,0.21,0.49,0.21c0.24,0,0.42-0.11,0.58-0.47l0.14-0.32l-1.19-2.63h0.27l1.06,2.37l1.06-2.37H158.85z"/>
				<path style="fill:#FFFFFF;" d="M163.24,28.81l-0.85-1.19c-0.11,0.02-0.22,0.03-0.34,0.03h-1.01v1.16h-0.26v-3.55h1.27
					c0.89,0,1.43,0.45,1.43,1.2c0,0.56-0.3,0.95-0.83,1.11l0.89,1.24H163.24z M162.05,27.42c0.76,0,1.17-0.35,1.17-0.96
					c0-0.61-0.41-0.96-1.17-0.96h-1.01v1.92H162.05z"/>
				<path style="fill:#FFFFFF;" d="M164.06,27.49c0-0.79,0.56-1.34,1.32-1.34c0.76,0,1.32,0.56,1.32,1.34s-0.56,1.34-1.32,1.34
					C164.62,28.83,164.06,28.27,164.06,27.49z M166.45,27.49c0-0.66-0.46-1.11-1.06-1.11c-0.61,0-1.06,0.45-1.06,1.11
					c0,0.66,0.46,1.11,1.06,1.11C165.99,28.6,166.45,28.15,166.45,27.49z"/>
				<path style="fill:#FFFFFF;" d="M169.81,26.17v2.64h-0.24v-0.57c-0.17,0.37-0.53,0.59-1,0.59c-0.67,0-1.1-0.38-1.1-1.12v-1.55
					h0.25v1.52c0,0.6,0.32,0.91,0.87,0.91c0.6,0,0.97-0.4,0.97-1.03v-1.41H169.81z"/>
				<path style="fill:#FFFFFF;" d="M172.19,28.64c-0.13,0.13-0.34,0.19-0.54,0.19c-0.47,0-0.72-0.27-0.72-0.72v-1.73h-0.49v-0.22
					h0.49v-0.58h0.25v0.58h0.84v0.22h-0.84v1.7c0,0.34,0.17,0.53,0.49,0.53c0.16,0,0.3-0.05,0.41-0.15L172.19,28.64z"/>
				<path style="fill:#FFFFFF;" d="M172.82,25.32c0-0.11,0.09-0.21,0.21-0.21s0.21,0.09,0.21,0.2c0,0.12-0.09,0.21-0.21,0.21
					S172.82,25.43,172.82,25.32z M172.9,26.17h0.25v2.64h-0.25V26.17z"/>
				<path style="fill:#FFFFFF;" d="M176.59,27.26v1.55h-0.25v-1.52c0-0.6-0.32-0.91-0.86-0.91c-0.62,0-1,0.4-1,1.03v1.41h-0.25
					v-2.64h0.24v0.57c0.18-0.37,0.55-0.59,1.05-0.59C176.16,26.15,176.59,26.53,176.59,27.26z"/>
				<path style="fill:#FFFFFF;" d="M179.87,27.55h-2.27c0.03,0.63,0.49,1.05,1.12,1.05c0.33,0,0.64-0.12,0.85-0.37l0.15,0.17
					c-0.23,0.28-0.6,0.43-1,0.43c-0.8,0-1.36-0.56-1.36-1.34s0.54-1.34,1.27-1.34s1.26,0.55,1.26,1.33
					C179.87,27.5,179.87,27.52,179.87,27.55z M177.6,27.35h2.03c-0.04-0.57-0.45-0.98-1.01-0.98S177.64,26.77,177.6,27.35z"/>
			</g>
			<g>
				<g>
					<g>
						<g>
							<g>
								<g>
									<g>
										<g>
											<g>
												<g>
													<path style="fill:#FFFFFF;" d="M216.15,23.6c0,0.06-2.46,0.14-5.5,0.16c-3.04,0.03-5.5-0.01-5.5-0.07
														c0-0.06,2.46-0.14,5.5-0.16C213.69,23.51,216.15,23.54,216.15,23.6z"/>
												</g>
											</g>
										</g>
									</g>
								</g>
							</g>
						</g>
					</g>
					<g>
						<g>
							<g>
								<g>
									<g>
										<g>
											<g>
												<g>
													<path style="fill:#FFFFFF;" d="M216.18,26.42c0,0.06-2.46,0.14-5.5,0.16c-3.04,0.03-5.5-0.01-5.5-0.07
														c0-0.06,2.46-0.14,5.5-0.16C213.71,26.32,216.18,26.35,216.18,26.42z"/>
												</g>
											</g>
										</g>
									</g>
								</g>
							</g>
						</g>
					</g>
					<g>
						<g>
							<g>
								<g>
									<g>
										<g>
											<g>
												<g>
													<path style="fill:#FFFFFF;" d="M216.2,29.23c0,0.06-2.46,0.14-5.5,0.16c-3.04,0.03-5.5-0.01-5.5-0.07
														c0-0.06,2.46-0.14,5.5-0.16C213.74,29.13,216.2,29.17,216.2,29.23z"/>
												</g>
											</g>
										</g>
									</g>
								</g>
							</g>
						</g>
					</g>
				</g>
				<g>
					<g>
						<g>
							<g>
								<g>
									<g>
										<g>
											<g>
												<path style="fill:#FFFFFF;" d="M116.13,32.44c0,0,0.08-0.01,0.23-0.02c0.18-0.01,0.39-0.01,0.64-0.02
													c0.6-0.01,1.38-0.03,2.35-0.06l-0.07,0.07c-0.01-0.52-0.02-1.09-0.03-1.7c0-0.32-0.03-0.61,0-0.98
													c0.06-0.36,0.39-0.69,0.79-0.72c0.38-0.01,0.71-0.02,1.12-0.01c0.42,0.05,0.78,0.46,0.77,0.91
													c0.01,0.79,0.02,1.62,0.03,2.48l-0.11-0.11c0.95-0.01,1.94-0.02,2.96-0.03l-0.11,0.11c-0.01-1.19-0.02-2.43-0.03-3.69
													c0-0.32-0.01-0.63-0.01-0.94c0-0.29-0.18-0.48-0.42-0.7c-0.44-0.43-0.87-0.86-1.29-1.28c-0.42-0.42-0.84-0.83-1.25-1.23
													c-0.2-0.2-0.41-0.4-0.61-0.6c-0.21-0.2-0.37-0.41-0.61-0.46c-0.23-0.06-0.49-0.01-0.68,0.13
													c-0.18,0.15-0.37,0.37-0.55,0.54c-0.36,0.37-0.72,0.73-1.06,1.07c-0.67,0.69-1.36,1.33-1.87,1.93
													c-0.21,0.33-0.13,0.74-0.15,1.11c0,0.37,0,0.72,0,1.04c0,0.64-0.01,1.2-0.01,1.68c0,0.43-0.01,0.78-0.01,1.08
													C116.14,32.3,116.14,32.44,116.13,32.44c-0.01,0.01-0.01-0.12-0.02-0.36c-0.01-0.29-0.02-0.64-0.03-1.06
													c-0.01-0.48-0.02-1.05-0.04-1.69c-0.01-0.33-0.01-0.69-0.02-1.06c0-0.19-0.01-0.38-0.01-0.58
													c0-0.21,0.05-0.43,0.16-0.62c0.55-0.67,1.2-1.27,1.88-1.98c0.34-0.35,0.69-0.71,1.05-1.08
													c0.19-0.19,0.35-0.37,0.57-0.57c0.24-0.18,0.56-0.25,0.86-0.17c0.32,0.07,0.52,0.33,0.71,0.51
													c0.2,0.2,0.4,0.39,0.61,0.6c0.41,0.4,0.83,0.81,1.25,1.23c0.43,0.42,0.86,0.84,1.3,1.27c0.1,0.11,0.23,0.2,0.33,0.36
													c0.1,0.15,0.15,0.32,0.16,0.5c0,0.31,0.01,0.63,0.01,0.94c0.01,1.26,0.02,2.5,0.03,3.69l0,0.11l-0.11,0
													c-1.02,0.01-2.01,0.01-2.96,0.02l-0.11,0l0-0.11c0-0.86-0.01-1.69-0.01-2.48c0.01-0.36-0.27-0.67-0.6-0.72
													c-0.34-0.02-0.74-0.01-1.07,0c-0.32,0.03-0.58,0.28-0.64,0.58c-0.03,0.3-0.01,0.65-0.01,0.95c0,0.61,0,1.18,0,1.7
													l0,0.07l-0.07,0c-0.98-0.01-1.78-0.01-2.39-0.02c-0.24,0-0.45-0.01-0.62-0.01C116.2,32.45,116.13,32.45,116.13,32.44z"
													/>
											</g>
										</g>
									</g>
								</g>
							</g>
						</g>
					</g>
				</g>
			</g>
			<g>
				<g>
					<g>
						<g>
							<g>
								<g>
									<path style="fill:#263238;" d="M214.58,0.24c0,0,0.17,0,0.51,0.01c0.34,0.03,0.85-0.01,1.51,0.11
										c1.32,0.15,3.33,0.58,5.59,1.93c2.25,1.3,4.76,3.64,6.24,7.2c0.74,1.77,1.14,3.84,1.12,6.05c0,2.2,0.01,4.54,0.01,7.02
										c0.02,19.85,0.04,48.56,0.07,84.04c0.01,35.48,0.02,77.73,0.03,124.64c0,5.86,0,11.8,0,17.81c0,1.5,0,3.01,0,4.52
										c-0.02,1.51-0.11,3.08-0.57,4.56c-0.43,1.48-1.04,2.92-1.91,4.21c-0.86,1.29-1.91,2.46-3.11,3.45
										c-2.43,1.95-5.47,3.19-8.63,3.35c-3.13,0.09-6.23,0.02-9.36,0.04c-6.26,0-12.59-0.01-18.97-0.01
										c-12.76-0.01-25.75-0.01-38.93-0.02c-6.59,0-13.23-0.01-19.91-0.01c-3.34,0-6.69,0-10.06-0.01
										c-3.38,0.17-6.9-0.72-9.73-2.69c-2.84-1.95-4.94-4.9-5.92-8.18c-0.53-1.63-0.62-3.38-0.62-5.05c0-1.68,0-3.35,0-5.02
										c0-6.68,0-13.32,0-19.92c0-13.18,0.01-26.18,0.01-38.94c0.01-25.53,0.02-50.15,0.03-73.61
										c0.01-23.46,0.03-45.75,0.04-66.61c0.01-10.43,0.01-20.5,0.02-30.19c0-1.21,0-2.41,0-3.61c0.01-0.6,0.05-1.21,0.08-1.81
										c0.11-0.59,0.15-1.2,0.31-1.78c0.55-2.34,1.63-4.53,3.14-6.33c1.52-1.79,3.43-3.21,5.54-4.14c2.1-0.95,4.41-1.28,6.64-1.25
										c4.43,0.01,8.76,0.01,12.98,0.02c2.11,0,4.19,0.01,6.25,0.01c1.03,0,2.05,0,3.06,0c1.03-0.05,2.1,0.23,2.95,0.83
										c0.85,0.59,1.5,1.45,1.83,2.41c0.38,0.96,0.29,2,0.3,2.95c0.02,0.96-0.05,1.96,0.04,2.87c0.12,0.92,0.5,1.79,1.1,2.48
										c0.59,0.69,1.39,1.19,2.26,1.4c0.86,0.22,1.8,0.1,2.71,0.13c1.82,0,3.61,0.01,5.38,0.01c7.05,0.01,13.6,0.02,19.64,0.03
										c3.02,0.01,5.91,0.01,8.66,0.02c0.68-0.01,1.38,0.03,2.03-0.02c0.65-0.07,1.27-0.3,1.81-0.64c1.09-0.68,1.83-1.8,2.08-2.99
										c0.14-0.59,0.11-1.2,0.12-1.8c0-0.6,0-1.2,0-1.78c0.01-0.58-0.03-1.17,0.08-1.74c0.1-0.57,0.29-1.11,0.56-1.6
										c0.54-0.98,1.41-1.73,2.39-2.11c0.98-0.43,2.03-0.3,2.96-0.32c3.82,0.01,7.05,0.02,9.66,0.03c2.61,0.01,4.6,0.02,5.94,0.03
										C213.89,0.22,214.58,0.24,214.58,0.24s-0.69,0.02-2.02,0.03c-1.34,0.01-3.33,0.01-5.94,0.02
										c-2.61,0.01-5.84,0.01-9.66,0.02c-0.95,0.02-1.96-0.1-2.9,0.32c-0.94,0.37-1.78,1.09-2.29,2.04
										c-0.26,0.47-0.45,1-0.54,1.54c-0.1,0.55-0.06,1.12-0.07,1.71c0,0.59,0,1.18,0,1.78c0,0.6,0.02,1.23-0.12,1.85
										c-0.26,1.24-1.02,2.41-2.16,3.13c-0.57,0.36-1.22,0.6-1.9,0.67c-0.69,0.06-1.36,0.02-2.05,0.03c-2.75,0-5.64,0-8.66,0.01
										c-6.04,0-12.59,0.01-19.64,0.01c-1.76,0-3.55,0-5.38,0c-0.46,0-0.91,0-1.37,0c-0.45,0.01-0.95-0.02-1.41-0.14
										c-0.93-0.23-1.79-0.76-2.42-1.5c-0.64-0.73-1.06-1.66-1.18-2.64c-0.1-0.99-0.03-1.93-0.05-2.91
										c-0.01-0.97,0.07-1.95-0.29-2.84c-0.31-0.9-0.93-1.7-1.71-2.25c-0.8-0.55-1.76-0.81-2.76-0.76c-1.01,0-2.03,0-3.06,0
										c-2.05,0-4.14,0-6.25,0c-4.22,0-8.55,0-12.98,0c-2.2-0.02-4.43,0.3-6.48,1.23c-2.05,0.91-3.91,2.29-5.39,4.04
										c-1.47,1.76-2.52,3.89-3.05,6.17c-0.57,2.28-0.32,4.7-0.37,7.12c0,9.68,0.01,19.76,0.01,30.19
										c0,20.86,0.01,43.15,0.01,66.61c0,23.46,0,48.08,0,73.61c0,12.76,0,25.76,0,38.94c0,6.59,0,13.23,0,19.92
										c0,1.67,0,3.35,0,5.02c0,1.67,0.09,3.32,0.6,4.91c0.95,3.16,2.97,6.02,5.72,7.9c2.75,1.9,6.09,2.76,9.43,2.6
										c3.36,0,6.72,0,10.06,0.01c6.68,0,13.32,0.01,19.91,0.01c13.18,0.01,26.17,0.02,38.93,0.03c6.38,0,12.71,0.01,18.97,0.01
										c3.12-0.02,6.26,0.05,9.33-0.04c3.05-0.15,5.99-1.35,8.34-3.24c1.16-0.96,2.18-2.09,3.01-3.34
										c0.84-1.25,1.43-2.64,1.85-4.07c0.44-1.44,0.54-2.93,0.56-4.42c0-1.51,0-3.02,0-4.52c0-6.01,0.01-11.94,0.01-17.81
										c0.03-46.91,0.06-89.15,0.08-124.64c0.04-35.48,0.08-64.19,0.1-84.04c-0.13-4.93,0.53-9.47-1.07-13.02
										c-1.45-3.53-3.93-5.86-6.15-7.17c-2.24-1.35-4.23-1.79-5.55-1.96c-0.66-0.13-1.17-0.1-1.5-0.14
										C214.75,0.26,214.58,0.24,214.58,0.24z"/>
								</g>
							</g>
						</g>
					</g>
				</g>
			</g>
		</g>
		<g>
			<g>
				<g>
					<path style="fill:#B78876;" d="M224.79,286.02c-0.51,0.05-9.06,28.5-9.06,28.5s-29.71,25.64-34.18,35.4
						c-4.48,9.77-19.94,39.88-19.94,39.88l17.91,8.95l50.57-60.23c0,0,5.59-2.44,7.62-5.7c2.03-3.26,25.64-41.28,25.64-41.28
						l-7.97-17.28L224.79,286.02z"/>
				</g>
				<g>
					<path style="fill:#B78876;" d="M288.15,288.44c0,0,24.09,18.16,26.52,21.66c0.44,0.64,0,2.58,0,2.58s-13.48,8.32-17.21,19.79
						c-3.73,11.47-19.5,50.47-19.5,50.47s16.63,10.61,17.21,9.46s39.92-57.8,43.36-62.39c3.44-4.59,8.54-11.02,9.4-16.75
						c0.86-5.73-1.15-16.63-10.32-26.38c-9.18-9.75-21.79-24.09-21.79-24.09l-33.26,6.6l-1.15,13.19L288.15,288.44"/>
				</g>
				<g>
					<path style="fill:#263238;" d="M231.02,234.89c0,0,2.16,15.82,7.64,22.89c5.47,7.07,19.85,20.07,26.92,22.13
						c7.07,2.05,20.88,11.63,20.88,11.63l2.62-2.02l-4.11-11.67l13.46,5.25l23.04-19.89c0,0-19.17-18.21-24.07-23.82
						c-5.11-5.85-12.79-12.71-12.79-12.71l-50.05,5.54l-3.93,3.65"/>
				</g>
				<g>
					<path style="fill:#263238;" d="M231.27,239.4c0,0,0.88,15.46,3.09,19.36l0,0l-12.57,27.53l34.32-3.06
						c0,0,7.31,12.74,7.48,13.08c0.17,0.34,12.45-11.06,12.45-11.06l-7.87-33.11L231.27,239.4z"/>
				</g>
				<g>
					<g>
						<path style="fill:#455A64;" d="M286.45,291.54c-0.01,0.02-0.25-0.11-0.69-0.37c-0.48-0.29-1.12-0.67-1.91-1.15
							c-1.7-1.05-4.07-2.51-6.99-4.3c-1.48-0.92-3.09-1.92-4.81-2.99c-1.74-1.06-3.55-2.28-5.55-3.36c-1-0.55-2.04-1.09-3.12-1.59
							c-1.07-0.5-2.23-0.88-3.4-1.35c-2.32-0.94-4.67-2.05-6.96-3.4c-4.59-2.68-8.52-5.99-11.55-9.45
							c-3.05-3.46-5.21-7.05-6.67-10.21c-1.47-3.16-2.23-5.89-2.65-7.78c-0.19-0.95-0.34-1.69-0.4-2.2
							c-0.07-0.51-0.1-0.77-0.08-0.78c0.02,0,0.08,0.26,0.19,0.76c0.09,0.5,0.27,1.23,0.49,2.17c0.48,1.87,1.3,4.56,2.79,7.67
							c1.48,3.11,3.66,6.64,6.69,10.05c3.02,3.41,6.91,6.67,11.46,9.32c2.26,1.34,4.59,2.45,6.89,3.38
							c1.14,0.46,2.32,0.85,3.42,1.37c1.09,0.51,2.14,1.06,3.14,1.62c2.02,1.11,3.82,2.34,5.55,3.42c1.71,1.09,3.31,2.11,4.78,3.05
							c2.88,1.85,5.22,3.37,6.9,4.44c0.78,0.51,1.4,0.92,1.86,1.23C286.25,291.37,286.46,291.53,286.45,291.54z"/>
					</g>
				</g>
				<g>
					<g>
						<path style="fill:#FFFFFF;" d="M300.19,280.98c-0.01,0.02-0.22-0.09-0.63-0.32c-0.44-0.25-1.02-0.58-1.74-1
							c-1.51-0.87-3.67-2.17-6.31-3.82c-5.29-3.29-12.48-8.03-20.16-13.65c-7.68-5.62-14.37-11.04-19.11-15.09
							c-2.37-2.02-4.26-3.69-5.55-4.86c-0.61-0.56-1.1-1.01-1.48-1.36c-0.33-0.31-0.5-0.49-0.49-0.5c0.01-0.01,0.2,0.13,0.56,0.42
							c0.39,0.33,0.9,0.75,1.54,1.28c1.38,1.16,3.3,2.76,5.65,4.73c4.79,3.97,11.52,9.34,19.18,14.95
							c7.67,5.6,14.81,10.39,20.05,13.76c2.59,1.65,4.7,2.99,6.22,3.96c0.7,0.45,1.26,0.8,1.69,1.08
							C300,280.83,300.2,280.97,300.19,280.98z"/>
					</g>
				</g>
				<g>
					<g>
						<path style="fill:#FFFFFF;" d="M303.1,278.73c-0.01,0.02-0.22-0.1-0.61-0.32c-0.43-0.26-1-0.59-1.7-1
							c-1.48-0.88-3.59-2.19-6.17-3.84c-5.17-3.31-12.21-8.05-19.74-13.63c-7.53-5.58-14.12-10.93-18.79-14.92
							c-2.34-1.99-4.2-3.63-5.47-4.79c-0.6-0.55-1.08-1-1.46-1.34c-0.33-0.31-0.5-0.48-0.48-0.49c0.01-0.01,0.2,0.13,0.55,0.41
							c0.39,0.32,0.89,0.74,1.52,1.26c1.36,1.14,3.26,2.72,5.58,4.66c4.73,3.91,11.34,9.21,18.86,14.78
							c7.52,5.57,14.52,10.35,19.63,13.74c2.53,1.65,4.59,3.01,6.08,3.98c0.68,0.45,1.23,0.81,1.65,1.09
							C302.91,278.58,303.11,278.72,303.1,278.73z"/>
					</g>
				</g>
				<g>
					<g>
						<path style="fill:#995037;" d="M323,315.47c-0.11,0.12-1.57-1.35-3.91-2.17c-2.33-0.86-4.4-0.65-4.4-0.81
							c-0.05-0.12,2.11-0.58,4.58,0.32C321.74,313.68,323.11,315.41,323,315.47z"/>
					</g>
				</g>
				<g>
					<g>
						<path style="fill:#995037;" d="M230.96,337.32c-0.08,0.12-0.79-0.2-1.6-0.72c-0.81-0.52-1.39-1.04-1.32-1.16
							c0.08-0.12,0.79,0.2,1.6,0.72C230.45,336.69,231.04,337.2,230.96,337.32z"/>
					</g>
				</g>
			</g>
			<g>
				<g>
					<path style="fill:#B78876;" d="M308.1,181.09l19.75,6.3l-5.15,13.42c0,0-22.49-0.7-26.27-1.53c-3.79-0.83-3.72-7.04-3.72-7.04
						L308.1,181.09z"/>
				</g>
				<g>
					<path style="fill:#B78876;" d="M325.89,188.4l6.41-7.15l7.28,0.08c0,0,5.28,2.12,6.31,2.1c0,0,0.01,1.12-1.34,1.76
						c0,0,2.58-0.02,3.15,0.88s-0.41,2.59-1.23,3.6c0,0,0.32,1.09,0.23,2.53c-0.09,1.44-0.9,2.38-0.9,2.38l-1.46,0.79
						c0,0,1,0.91,0.46,2.16s-2.12,2.19-2.12,2.19s1.34,0.56,0.92,1.66c-0.42,1.11-0.79,1.63-1.64,1.95
						c-0.85,0.33-8.73,1.41-10.44,0.98c-1.71-0.43-8.82-3.49-8.82-3.49L325.89,188.4z"/>
				</g>
				<g>
					<g>
						<path style="fill:#995037;" d="M346.56,190c-0.02,0.08-1.1-0.14-2.87-0.31c-0.88-0.08-1.94-0.15-3.11-0.14
							c-0.59,0-1.19,0.02-1.84,0.06c-0.64,0.03-1.43,0.01-2.06-0.51c-0.31-0.25-0.53-0.64-0.56-1.04c-0.03-0.4,0.09-0.77,0.28-1.09
							c0.37-0.64,1.05-0.98,1.64-1.13c0.61-0.16,1.18-0.18,1.7-0.23c0.51-0.04,0.99-0.08,1.46-0.11c1.78-0.13,2.89-0.17,2.89-0.1
							c0.01,0.07-1.08,0.24-2.86,0.46c-0.87,0.14-1.98,0.17-3.06,0.43c-0.54,0.15-1.05,0.43-1.33,0.92
							c-0.29,0.48-0.29,1.11,0.17,1.47c0.45,0.37,1.09,0.42,1.71,0.4c0.64-0.03,1.27-0.04,1.86-0.03c1.19,0.02,2.26,0.13,3.15,0.26
							C345.52,189.59,346.58,189.93,346.56,190z"/>
					</g>
				</g>
				<g>
					<g>
						<path style="fill:#995037;" d="M344.38,194.77c-0.02,0.07-0.83-0.1-2.16-0.21c-1.31-0.15-3.23-0.14-5.2-0.83
							c-0.5-0.16-0.97-0.24-1.46-0.48c-0.24-0.12-0.49-0.31-0.63-0.59c-0.12-0.28-0.14-0.51-0.17-0.75
							c-0.01-0.24-0.02-0.48,0.07-0.74c0.08-0.22,0.18-0.42,0.3-0.59c0.24-0.36,0.53-0.63,0.83-0.82c0.6-0.4,1.18-0.5,1.57-0.5
							c0.39,0,0.6,0.09,0.59,0.11c0.01,0.1-0.9-0.09-1.94,0.69c-0.25,0.19-0.49,0.44-0.68,0.76c-0.1,0.15-0.17,0.33-0.23,0.51
							c-0.05,0.14-0.04,0.35-0.02,0.55c0.02,0.2,0.06,0.43,0.13,0.57c0.07,0.14,0.21,0.26,0.41,0.35c0.38,0.18,0.9,0.29,1.38,0.43
							c1.92,0.67,3.77,0.72,5.11,0.96C343.61,194.4,344.4,194.71,344.38,194.77z"/>
					</g>
				</g>
				<g>
					<g>
						<path style="fill:#995037;" d="M342.84,199.47c-0.02,0.07-1.17-0.21-3.01-0.72c-0.97-0.28-2.05-0.58-3.23-0.92
							c-0.59-0.19-1.27-0.31-1.92-0.73c-0.32-0.21-0.6-0.51-0.76-0.9c-0.17-0.39-0.15-0.89,0.07-1.26c0.42-0.78,1.3-1.06,2-1.1
							c0.73-0.04,1.37,0.02,2.01,0.05c1.27,0.08,2.41,0.23,3.36,0.43c0.95,0.2,1.69,0.44,2.19,0.64c0.5,0.2,0.76,0.35,0.75,0.38
							c-0.03,0.08-1.13-0.37-3-0.66c-0.93-0.15-2.06-0.26-3.31-0.31c-0.62-0.02-1.3-0.06-1.95-0.02c-0.64,0.04-1.29,0.29-1.59,0.83
							c-0.31,0.52,0.01,1.17,0.52,1.5c0.51,0.35,1.17,0.49,1.77,0.69c1.16,0.37,2.24,0.72,3.2,1.02
							C341.74,199,342.86,199.4,342.84,199.47z"/>
					</g>
				</g>
				<g>
					<g>
						<path style="fill:#995037;" d="M340.71,202.41c0,0.06-1.02,0.12-2.64-0.14c-0.81-0.13-1.76-0.34-2.79-0.68
							c-0.5-0.17-1.13-0.38-1.53-0.95c-0.39-0.54-0.49-1.33-0.17-1.97c0.3-0.65,0.98-1.06,1.62-1.12c0.65-0.07,1.23,0.07,1.75,0.2
							c1.05,0.27,1.97,0.57,2.73,0.86c1.53,0.57,2.41,1.06,2.38,1.12c-0.03,0.07-0.96-0.3-2.5-0.77c-0.77-0.24-1.69-0.5-2.73-0.74
							c-0.51-0.12-1.05-0.23-1.57-0.16c-0.52,0.06-0.99,0.36-1.22,0.84c-0.24,0.47-0.17,1.05,0.12,1.45
							c0.28,0.41,0.78,0.61,1.27,0.79c1,0.36,1.92,0.6,2.7,0.78C339.72,202.25,340.72,202.32,340.71,202.41z"/>
					</g>
				</g>
				<g>
					<g>
						<path style="fill:#995037;" d="M344.72,185.19c0.06,0.18-2.23,0.75-5.07,0.58c-0.36-0.02-0.7-0.05-1.04-0.11
							c-0.16-0.02-0.35-0.07-0.48-0.09c-0.06-0.01-0.11-0.02-0.17-0.03c-0.03,0-0.07,0.01-0.12,0.04c-0.41,0.33-0.92,0.71-1.33,0.91
							c-0.84,0.44-1.42,0.53-1.44,0.47c-0.03-0.08,0.5-0.29,1.25-0.79c0.4-0.26,0.74-0.56,1.27-1.01c0.08-0.05,0.19-0.1,0.31-0.12
							l0.3,0.02c0.19,0.02,0.31,0.06,0.48,0.07c0.32,0.04,0.65,0.07,1,0.09c1.38,0.07,2.64,0.04,3.55,0
							C344.14,185.21,344.7,185.12,344.72,185.19z"/>
					</g>
				</g>
				<g>
					<g>
						<path style="fill:#995037;" d="M334.19,191.72c-0.06-0.05,0.13-0.38,0.26-0.96c0.12-0.58,0.24-1.45,0.31-2.37
							c0.07-0.92-0.07-1.74-0.3-2.28c-0.22-0.55-0.48-0.84-0.42-0.9c0.04-0.05,0.41,0.16,0.75,0.73c0.35,0.56,0.57,1.49,0.49,2.48
							c-0.08,0.98-0.25,1.83-0.48,2.44C334.56,191.48,334.24,191.76,334.19,191.72z"/>
					</g>
				</g>
				<g>
					<polygon style="fill:#263238;" points="322.99,185.84 319.67,200.71 322.7,200.81 327.03,187.13 					"/>
				</g>
				<g>
					
						<rect x="321.05" y="184.36" transform="matrix(0.9277 0.3734 -0.3734 0.9277 92.68 -107.6817)" style="fill:#263238;" width="6.45" height="2.02"/>
				</g>
			</g>
			<g>
				<g>
					<g>
						<g>
							<g>
								<g>
									<path style="fill:#263238;" d="M294.35,94.83c-1.09-4.39-2.16-8.82-2.48-13.33c-0.32-4.51,0.15-9.16,2.02-13.28
										c0.28-0.62,2.62-4.78,3.3-4.67c0.48,0.08-1.05,4.01-0.84,4.45c2.06,4.2,2.36,9.1,1.65,13.72
										C297.3,86.35,296.03,90.47,294.35,94.83"/>
								</g>
							</g>
							<g>
								<g>
									<g>
										<path style="fill:#B78876;" d="M303.76,136.5c-6.99-0.64-12.09-9.79-11.59-16.79l2.97-42.12
											c0.44-11.34,7.4-20.54,18.73-19.79l1.04,0.13c10.49,1.31,18.22,10.46,17.76,21.02c-0.43,9.83-1.04,20.68-1.76,25.89
											c-1.49,10.79-12.5,11.12-12.5,11.12c-0.02,0-0.24,2.51-0.5,5.7c-0.58,7.16-6.9,12.46-14.05,11.8L303.76,136.5z"/>
									</g>
								</g>
							</g>
							<g>
								<g>
									<g>
										<g>
											<path style="fill:#995037;" d="M318.39,115.96c0,0-6.86-0.45-13.55-5.92c0,0,2.45,8.29,13.35,8.67L318.39,115.96z"/>
										</g>
									</g>
								</g>
							</g>
							<g>
								<g>
									<g>
										<g>
											<g>
												<g>
													<g>
														<g>
															<g>
																<g>
																	<path style="fill:#263238;" d="M326.58,85.81c-0.07,0.82-0.83,1.43-1.68,1.37c-0.85-0.06-1.49-0.77-1.42-1.59
																		c0.07-0.82,0.83-1.43,1.68-1.37C326.02,84.28,326.65,84.99,326.58,85.81z"/>
																</g>
															</g>
														</g>
													</g>
												</g>
											</g>
										</g>
									</g>
								</g>
							</g>
							<g>
								<g>
									<g>
										<g>
											<g>
												<g>
													<g>
														<g>
															<g>
																<g>
																	<g>
																		<path style="fill:#263238;" d="M329.78,83.14c-0.22,0.18-1.28-0.83-2.94-1.04c-1.66-0.23-2.98,0.47-3.14,0.25
																			c-0.08-0.1,0.16-0.44,0.74-0.76c0.57-0.32,1.51-0.58,2.54-0.45c1.03,0.14,1.86,0.62,2.31,1.08
																			C329.76,82.67,329.89,83.06,329.78,83.14z"/>
																	</g>
																</g>
															</g>
														</g>
													</g>
												</g>
											</g>
										</g>
									</g>
								</g>
							</g>
							<g>
								<g>
									<g>
										<g>
											<g>
												<g>
													<g>
														<g>
															<g>
																<g>
																	<path style="fill:#263238;" d="M310.08,84.4c-0.07,0.82-0.83,1.43-1.68,1.37c-0.85-0.06-1.49-0.77-1.42-1.59
																		c0.07-0.82,0.83-1.43,1.68-1.37C309.52,82.87,310.15,83.58,310.08,84.4z"/>
																</g>
															</g>
														</g>
													</g>
												</g>
											</g>
										</g>
									</g>
								</g>
							</g>
							<g>
								<g>
									<g>
										<g>
											<g>
												<g>
													<g>
														<g>
															<g>
																<g>
																	<g>
																		<path style="fill:#263238;" d="M313.43,81.78c-0.22,0.18-1.28-0.83-2.94-1.04c-1.66-0.23-2.98,0.48-3.14,0.25
																			c-0.08-0.1,0.16-0.44,0.74-0.76c0.57-0.32,1.51-0.58,2.54-0.45c1.03,0.14,1.86,0.63,2.31,1.08
																			C313.41,81.31,313.54,81.7,313.43,81.78z"/>
																	</g>
																</g>
															</g>
														</g>
													</g>
												</g>
											</g>
										</g>
									</g>
								</g>
							</g>
							<g>
								<g>
									<g>
										<g>
											<g>
												<g>
													<g>
														<g>
															<g>
																<g>
																	<path style="fill:#263238;" d="M317.79,95.28c0-0.1,1.06-0.14,2.76-0.15c0.43,0.01,0.84-0.02,0.95-0.31
																		c0.14-0.29,0.02-0.77-0.13-1.29c-0.27-1.08-0.55-2.2-0.85-3.39c-1.17-4.82-1.95-8.75-1.76-8.8
																		c0.19-0.05,1.3,3.82,2.46,8.64c0.28,1.19,0.54,2.32,0.79,3.4c0.1,0.5,0.31,1.08,0.01,1.69
																		c-0.15,0.3-0.49,0.49-0.77,0.53c-0.28,0.05-0.52,0.02-0.73,0.01C318.83,95.5,317.79,95.38,317.79,95.28z"/>
																</g>
															</g>
														</g>
													</g>
												</g>
											</g>
										</g>
									</g>
								</g>
							</g>
							<g>
								<g>
									<g>
										<g>
											<g>
												<g>
													<g>
														<g>
															<g>
																<g>
																	<path style="fill:#263238;" d="M312.76,95.82c0.27,0.02,0.05,1.82,1.43,3.29c1.38,1.48,3.33,1.51,3.31,1.77
																		c0.01,0.12-0.47,0.3-1.29,0.22c-0.8-0.07-1.93-0.47-2.78-1.37c-0.84-0.9-1.12-2-1.09-2.75
																		C312.38,96.21,312.64,95.79,312.76,95.82z"/>
																</g>
															</g>
														</g>
													</g>
												</g>
											</g>
										</g>
									</g>
								</g>
							</g>
							<g>
								<g>
									<g>
										<g>
											<g>
												<g>
													<path style="fill:#263238;" d="M314.18,75.02c-0.22,0.43-1.85,0.01-3.83,0c-1.98-0.05-3.62,0.32-3.83-0.11
														c-0.09-0.21,0.24-0.6,0.93-0.96c0.68-0.36,1.74-0.65,2.93-0.63c1.19,0.02,2.23,0.34,2.91,0.72
														C313.97,74.42,314.28,74.82,314.18,75.02z"/>
												</g>
											</g>
										</g>
									</g>
								</g>
							</g>
							<g>
								<g>
									<g>
										<g>
											<g>
												<g>
													<path style="fill:#263238;" d="M329.79,77.53c-0.34,0.34-1.43-0.19-2.81-0.38c-1.37-0.24-2.57-0.06-2.79-0.49
														c-0.09-0.21,0.14-0.56,0.69-0.85c0.55-0.29,1.42-0.48,2.36-0.33c0.94,0.15,1.72,0.59,2.15,1.04
														C329.83,76.96,329.94,77.36,329.79,77.53z"/>
												</g>
											</g>
										</g>
									</g>
								</g>
							</g>
							<g>
								<g>
									<path style="fill:#B78876;" d="M295.01,85.69c-0.17-0.1-7.15-3.13-7.84,4.29c-0.69,7.42,6.9,6.58,6.93,6.37
										C294.14,96.14,295.01,85.69,295.01,85.69z"/>
								</g>
							</g>
							<g>
								<g>
									<g>
										<path style="fill:#995037;" d="M292.1,93.33c-0.03-0.03-0.14,0.08-0.37,0.16c-0.22,0.08-0.59,0.11-0.97-0.07
											c-0.76-0.36-1.3-1.67-1.21-3.01c0.04-0.68,0.25-1.31,0.53-1.82c0.28-0.52,0.66-0.87,1.06-0.9
											c0.4-0.05,0.66,0.21,0.73,0.43c0.08,0.22,0.02,0.36,0.06,0.38c0.02,0.02,0.17-0.11,0.14-0.42
											c-0.02-0.15-0.09-0.33-0.25-0.49c-0.16-0.16-0.42-0.26-0.7-0.26c-0.58-0.01-1.14,0.46-1.46,1.02
											c-0.35,0.56-0.59,1.27-0.64,2.03c-0.09,1.5,0.54,2.97,1.59,3.38c0.51,0.18,0.96,0.07,1.2-0.09
											C292.07,93.51,292.12,93.35,292.1,93.33z"/>
									</g>
								</g>
							</g>
							<g>
								<g>
									<path style="fill:#263238;" d="M328.88,66.24c1.26-0.56-2.02-4.76-4.86-6.34c-4.29-2.4-11-4.22-15.21-3.4
										c-5.07,0.99-9.39,3.11-12.26,7.41c-2.87,4.3-4.24,9.47-4.53,14.63c-0.09,1.57-0.06,3.22,0.67,4.62
										c0.9,1.73,2.8,2.93,2.52,5.19c-0.1,0.82,0.06,1.68,0.58,2.33c1.24,1.56,3.01,0.34,3.89-0.96c1.88-2.77,2.35-6.23,2.77-9.55
										c0.3-2.36,0.6-4.77,0.12-7.1c-0.26-1.27-0.74-2.49-0.93-3.77c-0.19-1.28-0.03-2.7,0.84-3.66c0.14-0.16,0.37-0.35,0.65-0.56
										c2.26-1.67,5.25-1.97,7.8-0.82c4.06,1.83,11.01,4.64,12.99,3.38c2.85-1.82,3.61-3.09,3.61-3.09L328.88,66.24z"/>
								</g>
							</g>
						</g>
					</g>
					<g>
						<g>
							<g>
								<path style="fill:#455A64;" d="M320.06,57.88c0.05-0.04,0.52,0.38,1.2,1.17c0.66,0.78,1.55,1.95,2.1,3.47
									c0.56,1.52,0.53,3.06,0.22,4.07c-0.3,1.03-0.77,1.52-0.81,1.48c-0.08-0.04,0.27-0.59,0.45-1.57
									c0.2-0.97,0.16-2.38-0.36-3.81c-0.52-1.43-1.32-2.59-1.9-3.42C320.37,58.45,320,57.93,320.06,57.88z"/>
							</g>
						</g>
						<g>
							<g>
								<path style="fill:#455A64;" d="M324.91,61.87c0.06-0.02,0.26,0.35,0.37,1.01c0.12,0.65,0.11,1.6-0.2,2.58
									c-0.31,0.98-0.85,1.76-1.32,2.23c-0.47,0.47-0.85,0.66-0.88,0.61c-0.11-0.11,1.15-1.16,1.71-2.99
									C325.19,63.47,324.76,61.9,324.91,61.87z"/>
							</g>
						</g>
					</g>
				</g>
			</g>
			<g>
				<g>
					<path style="fill:#E8505B;" d="M271.4,117.12c0.91-0.37,9.96-3.82,13.3-4.65c3.33-0.83,8.18-1.46,8.18-1.46
						s12.52,7.81,15.02,9.19c2.5,1.39,9.96,1.82,9.96,1.82s0.04,13.73-0.79,18.73c-0.83,5-3.61,21.1-9.16,39.71
						c-5.55,18.6-9.16,24.16-9.16,24.16s0.77,8.05-1.56,13.05c-2.33,5-5.1,10-5.1,10l-3.05,2.22c0,0-10-4.16-19.16,0
						c-9.16,4.16-31.65,12.77-36.65,11.66c-5-1.11-2.78-6.11-1.67-10.83c1.11-4.72,10.83-21.1,10.83-21.1l1.11-5.83l2.13-2.13
						l8.16-49.88C253.78,151.77,269.05,118.09,271.4,117.12z"/>
				</g>
				<g>
					<path style="fill:#B78876;" d="M264.78,148.97c0,0,4.01,14.19,13.64,15.75c8.46,1.37,12.74-0.99,14.77-6.41
						c2.03-5.42,3.75-29.36,3.75-29.36s0.22-8.83-2.48-10.62C291.74,116.55,264.78,148.97,264.78,148.97z"/>
				</g>
				<g>
					<path style="fill:#B78876;" d="M249.88,205.91c0,0,0.98,6.65,2.53,8.19c0,0,11.6,13.37,12.16,13.93
						c0.56,0.56,2.45,1.54,3.43,0.98c0.98-0.56,1.12-2.1,1.12-2.1s3.01,2.03,4.34,1.26c1.33-0.77,0.91-2.03,0.91-2.03
						s2.31,1.19,3.78-0.21c1.47-1.4,1.19-3.64,1.19-3.64s1.96,1.54,3.15,0.28c1.19-1.26,1.47-3.57,1.47-3.57l0,0l-1.68-3.01
						c0,0-4.76-6.58-6.23-8.4c-1.47-1.82-4.97-3.29-7.56-4.13c-2.59-0.84-8.55-7.51-8.55-7.51L249.88,205.91z"/>
				</g>
				<g>
					<path style="fill:#B78876;" d="M290.28,115.9c-5.3-2.12-11.25-1.91-16.54,0.26c-8.36,3.43-22.51,9.24-24.54,10.02
						c-2.91,1.12-33.82,11.2-37.63,23.74c0,0-1.94,3.86,0,6.94c2.79,4.43,10.97,23.74,23.96,34.72l14.33,14.33l10.22-9.66
						c0,0-12.13-21.93-15.72-30.44c-3.58-8.51-5.47-10.52-5.47-10.52s12.54-2.91,20.61-4.93c8.06-2.02,18.14-5.15,18.14-5.15
						s14.11-5.15,16.8-9.18c2.69-4.03,4.48-13.66,0-17.69C293.33,117.33,291.86,116.53,290.28,115.9z"/>
				</g>
				<g>
					<path style="fill:#263238;" d="M230.08,134.09c0,0,10.49,14.74,11.45,18.02c0.95,3.28,0.95,3.28,0.95,3.28s0.84,1.31,2.15,0.72
						c1.31-0.6,8.35-3.1,8.35-3.1s1.52-5.1-1.81-11.32c-3.32-6.22-8.43-13.13-8.43-13.13S234.86,127.11,230.08,134.09z"/>
				</g>
				<g>
					<g>
						<path style="fill:#995037;" d="M227.77,153.65c-0.05-0.12,2.67-0.86,6.04-0.37c3.38,0.46,5.78,1.92,5.71,2.02
							c-0.07,0.15-2.51-1.06-5.78-1.5C230.47,153.32,227.79,153.81,227.77,153.65z"/>
					</g>
				</g>
				<g>
					<g>
						<path style="fill:#995037;" d="M280.27,147.86c-0.05,0.08-0.8-0.57-2.29-0.87c-0.74-0.15-1.64-0.2-2.64-0.1
							c-1,0.09-2.08,0.33-3.23,0.59c-2.3,0.51-4.39,0.94-5.91,1.23c-1.52,0.29-2.47,0.43-2.48,0.36c-0.02-0.07,0.9-0.34,2.4-0.72
							c1.5-0.38,3.58-0.87,5.88-1.38c1.15-0.26,2.27-0.49,3.31-0.56c1.04-0.08,1.99,0.01,2.76,0.22
							C279.62,147.05,280.32,147.84,280.27,147.86z"/>
					</g>
				</g>
				<g>
					<g>
						<path style="fill:#995037;" d="M290.1,119.66c0.06-0.03,0.54,0.77,1.18,2.15c0.6,1.37,1.44,3.41,1.23,5.81
							c-0.11,1.18-0.46,2.26-0.83,3.19c-0.37,0.94-0.77,1.76-1.19,2.41c-0.83,1.31-1.7,1.81-1.72,1.76
							c-0.06-0.06,0.69-0.65,1.41-1.95c0.36-0.64,0.72-1.46,1.05-2.39c0.34-0.92,0.66-1.96,0.76-3.07c0.2-2.24-0.54-4.23-1.05-5.62
							C290.4,120.55,290.03,119.69,290.1,119.66z"/>
					</g>
				</g>
				<g>
					<path style="fill:#263238;" d="M224.34,140.53l6.93,10.87c0.35,0.55,1.06,0.75,1.65,0.47l24.49-11.92
						c0.69-0.34,0.93-1.2,0.52-1.85L251,127.22c-0.35-0.55-1.06-0.75-1.65-0.47l-24.49,11.92
						C224.18,139.02,223.93,139.88,224.34,140.53z"/>
				</g>
				<g>
					<polygon style="fill:#455A64;" points="232.9,149.41 227.1,140.23 249.37,128.77 255.44,138.29 					"/>
				</g>
				<g>
					<g>
						<path style="fill:#FFFFFF;" d="M247.38,131.51c0.05,0.05-0.62,0.86-1.72,2.15c-1.21,1.43-2.67,3.15-4.28,5.05
							c-1.58,1.93-3.01,3.67-4.2,5.12c-1.07,1.31-1.74,2.12-1.8,2.08c-0.06-0.04,0.51-0.93,1.51-2.3c1-1.38,2.43-3.24,4.09-5.23
							c1.66-1.99,3.23-3.73,4.41-4.96C246.56,132.18,247.33,131.46,247.38,131.51z"/>
					</g>
				</g>
				<g>
					<g>
						<path style="fill:#FFFFFF;" d="M240.08,135.71c0.12,0.08-0.38,0.98-1.12,2.01c-0.73,1.03-1.42,1.79-1.54,1.71
							c-0.12-0.08,0.38-0.98,1.12-2.01C239.28,136.39,239.97,135.63,240.08,135.71z"/>
					</g>
				</g>
			</g>
			<g>
				<g>
					<g>
						<g>
							<g>
								<g>
									<g>
										<g>
											<g>
												<path style="fill:#263238;" d="M300,388.3l-0.58,1.41c0,0,19.84,19.41,18.22,24.03l-47.15-19.81l8.94-14.67
													C285.09,385.46,290.56,388.15,300,388.3z"/>
											</g>
										</g>
									</g>
								</g>
							</g>
							<g>
								<g>
									<g>
										<g>
											<g>
												<path style="fill:#E0E0E0;" d="M270.5,393.93l2.15-3.52l44.15,20.16c0,0,1.72,1.8,0.86,3.17L270.5,393.93z"/>
											</g>
										</g>
									</g>
								</g>
							</g>
							<g>
								<g>
									<g>
										<g>
											<g>
												<g>
													<path style="fill:#E0E0E0;" d="M299.54,389.91c-0.1,0.23-1.3-0.15-2.74,0.11c-1.45,0.23-2.45,0.98-2.63,0.8
														c-0.19-0.13,0.73-1.37,2.48-1.66C298.4,388.86,299.68,389.72,299.54,389.91z"/>
												</g>
											</g>
										</g>
									</g>
								</g>
							</g>
							<g>
								<g>
									<g>
										<g>
											<g>
												<g>
													<path style="fill:#E0E0E0;" d="M303.62,394.03c-0.04,0.25-1.2,0.22-2.39,0.86c-1.21,0.61-1.85,1.58-2.07,1.47
														c-0.23-0.05,0.18-1.47,1.67-2.24C302.32,393.34,303.71,393.81,303.62,394.03z"/>
												</g>
											</g>
										</g>
									</g>
								</g>
							</g>
							<g>
								<g>
									<g>
										<g>
											<g>
												<g>
													<path style="fill:#E0E0E0;" d="M303.95,401.13c-0.23-0.04-0.07-1.32,1.05-2.34c1.11-1.02,2.41-1.06,2.43-0.83
														c0.05,0.24-0.93,0.63-1.84,1.47C304.66,400.26,304.18,401.21,303.95,401.13z"/>
												</g>
											</g>
										</g>
									</g>
								</g>
							</g>
						</g>
					</g>
				</g>
				<g>
					<g>
						<path style="fill:#E0E0E0;" d="M299.87,389.91c0.01,0.01,0.07-0.1,0.17-0.3c0.09-0.2,0.21-0.51,0.32-0.92
							c0.21-0.81,0.39-2.07,0.05-3.56c-0.09-0.37-0.2-0.76-0.36-1.14c-0.16-0.38-0.33-0.79-0.65-1.15
							c-0.16-0.18-0.35-0.34-0.59-0.46c-0.24-0.11-0.55-0.14-0.82-0.03c-0.58,0.24-0.76,0.85-0.82,1.35
							c-0.07,1.04,0.11,2.09,0.49,3.13c0.39,1.01,0.95,2.09,1.99,2.77c0.51,0.34,1.14,0.48,1.72,0.49c0.59,0.01,1.14-0.08,1.67-0.19
							c1.07-0.24,2.07-0.51,2.99-1.04c0.45-0.28,0.83-0.76,0.86-1.32c0.02-0.27-0.05-0.56-0.23-0.78c-0.17-0.22-0.41-0.36-0.64-0.43
							c-0.49-0.15-0.97-0.04-1.36,0.09c-0.4,0.14-0.75,0.3-1.1,0.46c-1.37,0.65-2.34,1.41-2.96,1.97c-0.31,0.28-0.54,0.52-0.68,0.68
							c-0.14,0.17-0.21,0.26-0.2,0.27c0.03,0.03,0.35-0.3,1-0.82c0.65-0.51,1.63-1.22,2.98-1.82c0.66-0.26,1.46-0.71,2.21-0.49
							c0.37,0.11,0.63,0.43,0.59,0.82c-0.03,0.4-0.3,0.76-0.69,0.99c-0.8,0.45-1.83,0.73-2.85,0.95c-1.02,0.21-2.16,0.35-3.06-0.25
							c-0.89-0.58-1.44-1.58-1.81-2.55c-0.36-0.97-0.54-2.01-0.49-2.93c0.04-0.45,0.21-0.9,0.55-1.03c0.34-0.15,0.72,0.06,0.98,0.36
							c0.28,0.29,0.45,0.67,0.61,1.04c0.16,0.36,0.28,0.73,0.37,1.08c0.37,1.42,0.25,2.64,0.09,3.45
							C300.02,389.47,299.83,389.9,299.87,389.91z"/>
					</g>
				</g>
				<g>
					<g>
						<path style="fill:#E0E0E0;" d="M281.37,387.45c-0.11,0.12,1.73,1.69,3.7,3.86c0.49,0.55,0.9,1.1,1.33,1.6
							c0.42,0.5,0.93,0.9,1.45,1.03c0.51,0.14,0.95,0.05,1.21-0.09c0.26-0.14,0.34-0.29,0.32-0.31c-0.02-0.06-0.54,0.42-1.43,0.1
							c-0.43-0.14-0.84-0.51-1.23-0.99c-0.38-0.49-0.81-1.08-1.31-1.63c-0.99-1.12-2.01-2.01-2.76-2.63
							C281.91,387.75,281.42,387.4,281.37,387.45z"/>
					</g>
				</g>
			</g>
			<g>
				<g>
					<g>
						<g>
							<g>
								<g>
									<g>
										<g>
											<g>
												<path style="fill:#263238;" d="M184.65,398.43l-0.91,1.21c0,0,14.27,23.81,11.54,27.87l-40.59-31.11l10.9-13.08
													C169.48,390.73,175.56,395.89,184.65,398.43z"/>
											</g>
										</g>
									</g>
								</g>
							</g>
							<g>
								<g>
									<g>
										<g>
											<g>
												<path style="fill:#E0E0E0;" d="M154.68,396.39l2.62-3.15l37.95,30.97c0,0,1.2,2.17,0.02,3.29L154.68,396.39z"/>
											</g>
										</g>
									</g>
								</g>
							</g>
							<g>
								<g>
									<g>
										<g>
											<g>
												<g>
													<path style="fill:#E0E0E0;" d="M183.79,399.86c-0.16,0.19-1.22-0.48-2.68-0.59c-1.46-0.15-2.62,0.32-2.74,0.11
														c-0.15-0.18,1.05-1.14,2.82-0.97C182.96,398.56,183.98,399.71,183.79,399.86z"/>
												</g>
											</g>
										</g>
									</g>
								</g>
							</g>
							<g>
								<g>
									<g>
										<g>
											<g>
												<g>
													<path style="fill:#E0E0E0;" d="M186.7,404.89c-0.1,0.23-1.22-0.09-2.53,0.23c-1.32,0.28-2.19,1.06-2.38,0.9
														c-0.21-0.11,0.54-1.38,2.19-1.75C185.61,403.88,186.84,404.69,186.7,404.89z"/>
												</g>
											</g>
										</g>
									</g>
								</g>
							</g>
							<g>
								<g>
									<g>
										<g>
											<g>
												<g>
													<path style="fill:#E0E0E0;" d="M185.21,411.84c-0.21-0.1,0.27-1.3,1.61-1.99c1.34-0.71,2.6-0.42,2.56-0.19
														c-0.01,0.25-1.06,0.37-2.15,0.96C186.12,411.17,185.43,411.97,185.21,411.84z"/>
												</g>
											</g>
										</g>
									</g>
								</g>
							</g>
						</g>
					</g>
				</g>
				<g>
					<g>
						<path style="fill:#E0E0E0;" d="M184.11,399.95c0.01,0.01,0.09-0.07,0.24-0.24c0.14-0.17,0.33-0.44,0.54-0.8
							c0.41-0.73,0.9-1.9,0.95-3.43c0.01-0.38,0-0.78-0.06-1.2c-0.06-0.41-0.12-0.85-0.34-1.28c-0.11-0.21-0.25-0.42-0.45-0.59
							c-0.21-0.17-0.5-0.27-0.79-0.23c-0.62,0.08-0.95,0.63-1.13,1.1c-0.33,0.99-0.42,2.05-0.32,3.16c0.12,1.08,0.39,2.26,1.22,3.19
							c0.41,0.46,0.98,0.76,1.54,0.91c0.56,0.16,1.13,0.21,1.67,0.24c1.1,0.03,2.13,0.03,3.15-0.24c0.51-0.15,0.99-0.53,1.16-1.05
							c0.09-0.26,0.09-0.56-0.02-0.81c-0.11-0.26-0.3-0.45-0.51-0.58c-0.43-0.27-0.92-0.28-1.34-0.25c-0.42,0.04-0.81,0.1-1.18,0.17
							c-1.49,0.29-2.62,0.77-3.36,1.16c-0.37,0.19-0.65,0.37-0.84,0.49c-0.18,0.13-0.27,0.2-0.27,0.21c0.02,0.03,0.42-0.2,1.18-0.54
							c0.76-0.33,1.89-0.76,3.34-1c0.71-0.08,1.6-0.32,2.26,0.09c0.33,0.2,0.5,0.58,0.36,0.95c-0.13,0.38-0.48,0.66-0.92,0.79
							c-0.89,0.23-1.96,0.24-3,0.2c-1.04-0.06-2.18-0.21-2.9-1.01c-0.72-0.79-0.99-1.9-1.11-2.92c-0.11-1.03-0.01-2.08,0.27-2.96
							c0.15-0.42,0.43-0.81,0.79-0.85c0.36-0.06,0.68,0.24,0.86,0.6c0.19,0.35,0.26,0.76,0.33,1.16c0.07,0.39,0.08,0.78,0.09,1.14
							c-0.01,1.47-0.43,2.62-0.78,3.36C184.37,399.56,184.08,399.92,184.11,399.95z"/>
					</g>
				</g>
				<g>
					<g>
						<path style="fill:#E0E0E0;" d="M166.85,392.87c-0.13,0.09,1.24,2.07,2.6,4.67c0.34,0.65,0.59,1.29,0.88,1.89
							c0.28,0.59,0.68,1.11,1.15,1.36c0.46,0.26,0.91,0.29,1.19,0.21c0.29-0.07,0.4-0.2,0.39-0.22c-0.01-0.06-0.63,0.27-1.41-0.27
							c-0.38-0.24-0.68-0.7-0.94-1.27c-0.25-0.57-0.51-1.25-0.85-1.91c-0.68-1.33-1.43-2.45-2-3.24
							C167.28,393.3,166.9,392.84,166.85,392.87z"/>
					</g>
				</g>
			</g>
		</g>
	</g>
</g>
</svg>
