<svg id="_лой_1" data-name="‘лой_1" xmlns="http://www.w3.org/2000/svg" viewBox="0 0 1877.86 1305.71"><g opacity="0.2"><path d="M907,440.61l49.48-5.44a11,11,0,0,1,10.37,5q4.27,6.69,9.16,13.09a186.52,186.52,0,0,0,19.53,21.93,10.89,10.89,0,0,1,2.65,12l-19.11,48.39a10.7,10.7,0,0,0,5.23,13.57l42.56,21.23a10.57,10.57,0,0,0,13.56-3.72l25.88-40.31a10.64,10.64,0,0,1,11.9-4.56,192.32,192.32,0,0,0,60.31,6.18,11,11,0,0,1,11,7.64l8.66,27.82a11,11,0,0,0,12.55,7.5l46.31-9.23a9.63,9.63,0,0,0,2.67-.88,10.62,10.62,0,0,0,6-10.82l-4-37-1-9a190.28,190.28,0,0,0,22.49-14.76,192.39,192.39,0,0,0,26.41-24.31,10.61,10.61,0,0,1,11.85-2.82l39,15.44a11,11,0,0,0,13.89-5.34l16.24-32.54,4.62-9.33a11.14,11.14,0,0,0-3.92-14.37l-33.66-21.65a10.6,10.6,0,0,1-4.72-11.57,191,191,0,0,0,5.25-40.48,33.12,33.12,0,0,0,.11-3.44,6.29,6.29,0,0,1,.08-1.15,10.85,10.85,0,0,1,7.68-9.27l45.15-14.15a8.76,8.76,0,0,0,1.48-.58,11,11,0,0,0,6-11.95l-9.13-46.18a11,11,0,0,0-12-8.77l-51.61,5.68a10.61,10.61,0,0,1-10.64-5.61,194.38,194.38,0,0,0-16.08-24.76q-4.84-6.34-10.11-12.17a11.21,11.21,0,0,1-2.08-11.59l18.35-46.52a10.67,10.67,0,0,0-5.16-13.48L1238,117.39a11.17,11.17,0,0,0-14.41,4l-20.49,31.88a11,11,0,0,1-12.77,4.48,191.64,191.64,0,0,0-58.17-10.61,10.91,10.91,0,0,1-10.24-7.7l-12.74-40.7A11.26,11.26,0,0,0,1096.28,91l-46,9.08a10.77,10.77,0,0,0-8.64,11.78l.21,2.16,4.69,42.94a11,11,0,0,1-6,11.06l0,0a189.85,189.85,0,0,0-28.59,18c-4.87,3.72-9.47,7.63-13.94,11.72a10.8,10.8,0,0,1-11.37,2.19l-39.55-15.67a11.17,11.17,0,0,0-14.13,5.39L912,231.71a12.19,12.19,0,0,0-1.08,3.7,11.15,11.15,0,0,0,4.95,10.43l26.94,17.22a11.14,11.14,0,0,1,5,9.71,11.91,11.91,0,0,1-.57,3,191.38,191.38,0,0,0-9.93,74.93,10.74,10.74,0,0,1-5.8,10.3,10.49,10.49,0,0,1-1.72.7l-36.57,11.43a10.94,10.94,0,0,0-7.46,12.52l.21,1.07,8.86,45A11.13,11.13,0,0,0,907,440.61ZM1223.88,301a127.06,127.06,0,0,1,6.65,22.86c3,15.56-.24,40.08-7.3,54.28-.75,1.53-1.53,3-2.31,4.49-48.66,89.71-175.48,71.49-196.08-29.95-2.67-13.26-.93-32.56,3.85-47.34a68.75,68.75,0,0,1,3.81-9.33,118.29,118.29,0,0,1,23.7-32.42C1108.45,213.74,1195.45,230.37,1223.88,301Z" fill="#91b5f8"/></g><path d="M1533.09,359.57l30.73-3.37a6.84,6.84,0,0,1,6.44,3.1q2.65,4.15,5.69,8.13a114.36,114.36,0,0,0,12.13,13.62,6.75,6.75,0,0,1,1.64,7.44l-11.86,30.05a6.63,6.63,0,0,0,3.24,8.42l26.43,13.19a6.57,6.57,0,0,0,8.42-2.31l16.08-25a6.57,6.57,0,0,1,7.38-2.83,119.46,119.46,0,0,0,37.46,3.83,6.82,6.82,0,0,1,6.8,4.74l5.37,17.28a6.87,6.87,0,0,0,7.8,4.66l28.75-5.73a5.85,5.85,0,0,0,1.67-.55,6.59,6.59,0,0,0,3.69-6.72l-2.49-22.95-.62-5.6a117.15,117.15,0,0,0,14-9.16,120.2,120.2,0,0,0,16.4-15.1,6.58,6.58,0,0,1,7.36-1.75l24.19,9.58a6.83,6.83,0,0,0,8.63-3.31L1808.46,359l2.88-5.8a6.92,6.92,0,0,0-2.43-8.91L1788,330.83a6.58,6.58,0,0,1-2.93-7.18,118.82,118.82,0,0,0,3.26-25.15c.07-.73.07-1.41.07-2.13a3.35,3.35,0,0,1,0-.71,6.74,6.74,0,0,1,4.77-5.76l28-8.79a5.23,5.23,0,0,0,.91-.36,6.86,6.86,0,0,0,3.72-7.42l-5.67-28.67a6.82,6.82,0,0,0-7.43-5.45l-32,3.53a6.61,6.61,0,0,1-6.61-3.49,120.36,120.36,0,0,0-10-15.37q-3-3.94-6.27-7.56a7,7,0,0,1-1.3-7.2l11.4-28.89a6.64,6.64,0,0,0-3.2-8.37l-26.17-13a6.94,6.94,0,0,0-8.95,2.45l-12.72,19.8a6.81,6.81,0,0,1-7.93,2.79,119.3,119.3,0,0,0-36.12-6.6,6.76,6.76,0,0,1-6.36-4.77l-7.91-25.28a7,7,0,0,0-8-4.76L1622,148.13a6.69,6.69,0,0,0-5.36,7.32l.13,1.34,2.91,26.67a6.85,6.85,0,0,1-3.72,6.86l0,0a118.09,118.09,0,0,0-17.75,11.21c-3,2.31-5.89,4.74-8.66,7.28a6.71,6.71,0,0,1-7.07,1.36L1558,200.46a7,7,0,0,0-8.78,3.34l-13,26a7.37,7.37,0,0,0-.67,2.29,6.88,6.88,0,0,0,3.07,6.48l16.73,10.7a6.81,6.81,0,0,1,2.76,7.9,118.57,118.57,0,0,0-6.16,46.53,6.69,6.69,0,0,1-3.61,6.4,6,6,0,0,1-1.07.43l-22.71,7.1a6.8,6.8,0,0,0-4.63,7.78l.13.66,5.5,28A6.91,6.91,0,0,0,1533.09,359.57Zm196.77-86.67a79.89,79.89,0,0,1,4.13,14.2c1.85,9.66-.15,24.89-4.54,33.71-.46.94-1,1.87-1.43,2.79-30.22,55.71-109,44.39-121.77-18.6-1.66-8.24-.57-20.22,2.39-29.4a41.44,41.44,0,0,1,2.37-5.79,73.43,73.43,0,0,1,14.72-20.14C1658.17,218.69,1712.2,229,1729.86,272.9Z" fill="#aec3ff"/><path d="M1353.93,171.89l21-7a4.91,4.91,0,0,1,5,1.19c1.65,1.67,3.4,3.27,5.22,4.82a82.09,82.09,0,0,0,10.55,7.68,4.83,4.83,0,0,1,2.29,5l-3.73,22.83a4.76,4.76,0,0,0,3.56,5.4l20.5,5.2a4.7,4.7,0,0,0,5.54-2.9l7.43-20A4.72,4.72,0,0,1,1436,191a85.57,85.57,0,0,0,26.79-3,4.88,4.88,0,0,1,5.48,2.28l6.39,11.27a4.92,4.92,0,0,0,6.16,2.08l19.25-8.39a4.17,4.17,0,0,0,1.08-.64,4.72,4.72,0,0,0,1.56-5.27l-5.24-15.68-1.28-3.82a84.51,84.51,0,0,0,8.37-8.54,85.62,85.62,0,0,0,9.17-13.06,4.73,4.73,0,0,1,4.89-2.34l18.38,3a4.9,4.9,0,0,0,5.54-3.64l4-15.67,1.13-4.49a5,5,0,0,0-3.06-5.87L1527.9,113a4.7,4.7,0,0,1-3.14-4.58,84.86,84.86,0,0,0-1.55-18.08c-.06-.53-.17-1-.27-1.51a2.09,2.09,0,0,1-.08-.5,4.83,4.83,0,0,1,2.46-4.76L1543.6,73.1a2.94,2.94,0,0,0,.58-.39,4.92,4.92,0,0,0,1.48-5.75l-8.34-19.21a4.9,4.9,0,0,0-6-2.68l-21.88,7.35a4.71,4.71,0,0,1-5.15-1.43,86.61,86.61,0,0,0-9.33-9.23c-1.8-1.54-3.65-3-5.54-4.34a5,5,0,0,1-2-4.84L1491,10.64a4.75,4.75,0,0,0-3.52-5.37L1467.15.16a5,5,0,0,0-5.88,3.07L1455.38,19a4.86,4.86,0,0,1-5.12,3.15,85.5,85.5,0,0,0-26.28.89,4.85,4.85,0,0,1-5.18-2.37l-9.38-16.48a5,5,0,0,0-6.32-2.11L1384,10.4a4.8,4.8,0,0,0-2.64,5.94l.3.92,6.1,18.21a4.91,4.91,0,0,1-1.56,5.37v0a83.92,83.92,0,0,0-10.71,10.55c-1.77,2.07-3.4,4.21-5,6.41a4.83,4.83,0,0,1-4.74,2l-18.66-3.07a5,5,0,0,0-5.64,3.67l-5.1,20.21a5.49,5.49,0,0,0-.12,1.7,5,5,0,0,0,3.14,4.06l13.34,4.94a5,5,0,0,1,3.09,3.74,5.2,5.2,0,0,1,0,1.37,85,85,0,0,0,2.78,33.49,4.8,4.8,0,0,1-1.55,5,5.46,5.46,0,0,1-.68.47l-14.81,8.42a4.87,4.87,0,0,0-2.06,6.15l.19.44,8.11,18.73A5,5,0,0,0,1353.93,171.89ZM1478.4,81.28a56.07,56.07,0,0,1,5,9.31c2.77,6.47,3.69,17.43,2,24.27-.18.73-.38,1.45-.58,2.17-12.65,43.58-69.48,47.65-88,5.53-2.42-5.51-3.49-14.06-2.81-20.93a29.57,29.57,0,0,1,.78-4.41A52.32,52.32,0,0,1,1402,80.89C1420,54.27,1459.37,53.26,1478.4,81.28Z" fill="#f99746"/><path d="M932.37,679.71,882.88,1268.1s-5.18,35.66,21.35,35.73c43.62.1,217.11,0,217.11,0s-32.83-7.43-32.43-24.13c.47-19.69,57.84-605.56,57.84-605.56Z" fill="#d8702a"/><path d="M1137.68,1293.39c-8.58,0-176.55.31-219-.24-18.51-.23-21.76-16.46-21.91-27a52.3,52.3,0,0,1,.56-8.76l1.29-15.29,3.28-39,2.9-34.44,3.72-44.25,3.13-37.35L946.79,669l214.38-5.56s-24.16,245.18-41.26,423.65c-1.9,19.88-3.72,39-5.4,56.75q-.81,8.52-1.57,16.65c-1.59,16.88-3,32.39-4.3,46.08-.66,7.22-1.27,13.92-1.83,20.06-2.18,24.07-3.46,39.44-3.47,42.36a24.79,24.79,0,0,0,.41,4.77C1107.27,1292.54,1134.46,1293.39,1137.68,1293.39Z" fill="#f99746"/><polygon points="411.73 359.53 532.27 843.7 548.77 910.01 604.91 1135.52 1647.9 1135.52 1440.98 359.53 411.73 359.53" fill="#f99746"/><polygon points="411.73 359.53 395.02 365.1 582.7 1152.37 604.91 1135.53 411.73 359.53" fill="#d8702a"/><polygon points="582.7 1152.37 1619.27 1152.37 1647.9 1135.53 604.91 1135.53 582.7 1152.37" fill="#ed7d2b"/><rect x="946.72" y="1293.39" width="224.43" height="10.66" transform="translate(2117.87 2597.44) rotate(180)" fill="#f99746"/><polygon points="1114.1 1152.36 1112.94 1160.52 901.87 1203.16 904.77 1168.72 906.15 1152.36 1114.1 1152.36" fill="#e27329"/><g opacity="0.5"><path d="M1137.68,1293.39c-8.58,0-176.55.31-219-.24-18.51-.23-21.76-16.46-21.91-27l210.07-39.53c-2.18,24.07-3.46,39.44-3.47,42.36a24.79,24.79,0,0,0,.41,4.77C1107.27,1292.54,1134.46,1293.39,1137.68,1293.39Z" fill="#ed7d2b"/></g><polygon points="411.73 359.53 1440.98 359.53 1607.97 983.18 566.99 983.18 411.73 359.53" fill="#ed7d2b"/><polygon points="1559.43 956.16 595.74 956.16 561.3 818.97 547.98 765.89 542.55 744.25 507.15 603.26 505.32 595.92 486.61 521.4 478.24 488.06 471.1 459.62 454.36 392.94 1404.16 392.94 1422.54 459.62 1430.38 488.06 1439.57 521.4 1500.13 741.07 1500.13 741.08 1505.26 759.69 1507.65 768.33 1549.46 919.99 1559.43 956.16" fill="#505aba"/><polygon points="958.03 983.18 605.26 1137.34 566.99 983.18 958.03 983.18" fill="#ed7d2b"/><path d="M1044.41,745.54c-78.73,0-153.41-64.06-166.47-142.79S918.32,460,997.05,460,1150.47,524,1163.52,602.75,1123.15,745.54,1044.41,745.54Zm-43.27-261c-65.16,0-109.38,53-98.58,118.17s72.61,118.17,137.77,118.17,109.38-53,98.57-118.17S1066.3,484.58,1001.14,484.58Z" fill="#e6f0ff"/><path d="M1044.47,745.86c-78.92,0-153.76-64.2-166.85-143.11S918.08,459.63,997,459.63c42.87,0,86.26,19,119.07,52.08,25.31,25.54,42.28,57.87,47.78,91,1.16,7-3.56,12.63-10.54,12.63a15.51,15.51,0,0,1-14.73-12.63c-4.53-27.31-18.5-53.93-39.34-75-27-27.25-62.75-42.89-98-42.89-65,0-109.08,52.87-98.3,117.85s72.41,117.84,137.39,117.84A15.52,15.52,0,0,1,1055,733.23C1056.17,740.21,1051.45,745.86,1044.47,745.86Z" fill="#f99746"/><path d="M1315.39,855.5l2.26,13.66c1.24,7.45-3.85,13.54-11.3,13.54H828c-7.45,0-14.55-6.09-15.79-13.54l-2.26-13.66c-1.24-7.45,3.84-13.54,11.29-13.54H1299.6C1307.05,842,1314.15,848.05,1315.39,855.5Z" fill="#e6f0ff"/><path d="M1160.84,842l6.76,40.74H828c-7.45,0-14.55-6.09-15.79-13.54l-2.26-13.66c-1.24-7.45,3.84-13.54,11.29-13.54Z" fill="#f99746"/><polygon points="1090.36 841.96 1059.54 882.7 989.23 882.7 1020.05 841.96 1090.36 841.96" fill="#f78248"/><polygon points="1160.84 841.96 1167.6 882.7 1102.43 882.7 1133.26 841.96 1160.84 841.96" fill="#f78248"/><polygon points="977.15 841.96 946.33 882.7 876.02 882.7 906.84 841.96 977.15 841.96" fill="#f78248"/><path d="M864,842,833.12,882.7H828c-7.45,0-14.55-6.09-15.79-13.54l-2.26-13.66c-1.24-7.45,3.84-13.54,11.29-13.54Z" fill="#f78248"/><path d="M967.52,583.81H940.86l-1.35-8.18h37.26l1.17,7-16.31,46H951.18Z" fill="#e6f0ff"/><path d="M987.68,602.14c-2.51-15.15,4.7-27.42,18.63-27.42s25,12.12,27.58,27.42-4.7,27.42-18.63,27.42S990.22,617.44,987.68,602.14Zm36.59,0c-1.74-10.45-8.53-19-16.71-19s-12,8.33-10.26,19c1.74,10.45,8.46,19,16.71,19S1026,612.74,1024.27,602.14Z" fill="#e6f0ff"/><path d="M1039.59,588.58c-1.22-7.35,2.83-13.56,10.33-13.56s13.44,6.14,14.67,13.56-2.83,13.56-10.33,13.56S1040.82,596,1039.59,588.58Zm18.26,0c-.71-4.24-3.71-7.73-7.12-7.73s-5.1,3.49-4.4,7.73,3.71,7.73,7.12,7.73S1058.55,592.82,1057.85,588.58Zm23.75-13h7.5l-30,53h-7.49Zm-5.47,40.07c-1.22-7.35,2.82-13.56,10.32-13.56s13.44,6.14,14.67,13.56-2.82,13.56-10.32,13.56S1077.36,623.12,1076.13,615.7Zm18.25,0c-.7-4.24-3.7-7.73-7.11-7.73s-5.1,3.49-4.4,7.73,3.71,7.72,7.11,7.72C1093.54,623.42,1095.09,619.94,1094.38,615.7Z" fill="#e6f0ff"/><path d="M1007.33,809.75h2.87l2.28,13.73h8.59l.43,2.62H1010Z" fill="#e6f0ff"/><path d="M1022.23,820a5.34,5.34,0,0,1,5.52-6.45,7.84,7.84,0,0,1,7.63,6.45,5.33,5.33,0,0,1-5.54,6.42A7.84,7.84,0,0,1,1022.23,820Zm10.32,0a4.67,4.67,0,0,0-4.44-4c-2.26,0-3.42,1.77-3,4a4.68,4.68,0,0,0,4.42,4C1031.76,823.93,1032.91,822.13,1032.55,820Z" fill="#e6f0ff"/><path d="M1046.81,826.1l-.25-1.52a4.18,4.18,0,0,1-3.7,1.77,4.82,4.82,0,0,1-5-3.85c-.45-2.73,1.46-4,4.33-4a11,11,0,0,1,3.49.52l0-.24c-.28-1.7-1.51-2.63-3.47-2.63a7.85,7.85,0,0,0-3.4.76l-1.14-2.26a9.44,9.44,0,0,1,4.52-1c3.64,0,5.73,1.92,6.28,5.21l1.21,7.31Zm-.79-5.16a8.77,8.77,0,0,0-2.9-.49c-1.78,0-2.71.72-2.5,2a2.47,2.47,0,0,0,2.68,1.82c1.87,0,3.09-1.05,2.84-2.59Z" fill="#e6f0ff"/><path d="M1051.32,819.91c-.68-4.09,1.71-6.4,4.65-6.4a6.19,6.19,0,0,1,4.57,2.17l-1.1-6.63h2.82l2.83,17.05h-2.83l-.34-2.06a4,4,0,0,1-3.82,2.31C1055.21,826.35,1052,824,1051.32,819.91Zm10,0a4.53,4.53,0,0,0-4.22-3.95c-1.94,0-3.3,1.5-2.89,4a4.5,4.5,0,0,0,4.2,3.94C1060.26,823.9,1061.68,822.32,1061.28,819.91Z" fill="#e6f0ff"/><path d="M1065.86,809.19h3l.45,2.69h-3Zm.87,4.58h2.83l2,12.33h-2.82Z" fill="#e6f0ff"/><path d="M1073.25,813.77h2.82l.32,1.91a3.65,3.65,0,0,1,3.49-2.17c2.78,0,4.7,1.87,5.17,4.74l1.31,7.85h-2.83l-1.16-7c-.32-1.91-1.46-3-3.14-3s-2.59,1.15-2.27,3.06l1.16,7h-2.83Z" fill="#e6f0ff"/><path d="M1090.12,828.41l.7-2.13a9.15,9.15,0,0,0,4.61,1.31c2.52,0,3.68-1.31,3.27-3.78l-.16-1a4.27,4.27,0,0,1-4,2.27,6.8,6.8,0,0,1-6.56-5.82c-.61-3.64,1.77-5.79,4.64-5.79a6.4,6.4,0,0,1,4.67,2.1l-.31-1.84h2.83l1.62,9.81c.35,2.07.07,3.61-.79,4.64s-2.57,1.66-4.79,1.66A12,12,0,0,1,1090.12,828.41Zm7.86-9.11a4.23,4.23,0,0,0-4.19-3.41,2.77,2.77,0,0,0-2.93,3.44,4.12,4.12,0,0,0,4.07,3.41A2.88,2.88,0,0,0,1098,819.3Z" fill="#e6f0ff"/><path d="M348.71,717.06s2.41-26.29-27-26.29c0,0,8.9,2.41,13.5,7.24,0,0-18.73-11-39.13,5.9s-7.72,59.3-13.92,67.34-30.34,9.66-27.39,35.69,76.63,58.62,71.9,80.15c0,0,28.88-42.45,8.23-61.82,0,0,10.06,9.48,11.09,20.75,0,0,2.73-22-11.27-29-12.39-6.22-22.54-29-21.46-33.07S348.71,717.06,348.71,717.06Z" fill="#2c3a64"/><path d="M319.79,843.3s21.95,90.79,43.49,108.94c13,10.91,51.45,36,51.45,36l-16,5.81s-53.41-18-65.36-32.09-44.7-84.5-44.7-84.5Z" fill="#ffb27d"/><path d="M445.82,1021.38l-5.16-12.78a36.23,36.23,0,0,0-33.59-22.66H311.93v318.11H705.5V1046.31H482.78A39.85,39.85,0,0,1,445.82,1021.38Z" fill="#6376e5"/><path d="M113.52,1002.81l.61,1.07c4.8,8.34,15.82,28.8,28,51.18,5.74,10.62,11.75,21.68,17.45,32.08,9.82,17.95,18.76,33.93,24,42.38s9.2,14.63,10.78,17l0,0a4,4,0,0,1,.51,2.49,130,130,0,0,0,.35,22.51c7.31,72.82,56.42,111.84,56.42,111.84l14.6,2.16s-20.66-76.55-26.75-119.82c-1-7.33-1.48-13.28-1.12-17.15,1.08-11.28-.92-27.83-4.71-46.84-6.74-33.77-19.11-75.22-29.85-108.4-.68-2.12-21.22-76.39-21.22-76.39-17.23,15.06-80.09,21.28-80.09,21.28S91.8,964.17,113.52,1002.81Z" fill="#2f539b"/><path d="M296.83,1304.05H235.9s-1.46-9.28,1.72-16.33c3-6.76,7.39-7,.55-17.57,3.88,4,16.32,5.63,25.13,4.45,1.08,1.75,7,13.49,10.57,16.08C277.85,1293.54,295.6,1292.52,296.83,1304.05Z" fill="#233862"/><path d="M113.52,1002.81l.61,1.07c4.8,8.34,30.77,56.32,42.91,78.7-14.06-57.85-4.28-115.7-4.28-115.7Z" fill="#233862"/><path d="M340.4,713.36c.4-1.6-34.8,15.91-36.59,17.89-16.51,18.31-11.8,42.21-2.35,42.44,6.06.15,4.88,10.22,4.88,10.22l67.49-28.55S365.71,708,340.4,713.36Z" fill="#2c3a64"/><path d="M317.72,829.66s10.27,20.52,9,37.17c0,0-12.39,19.55-44.51,24.5C282.2,891.33,309.82,829.65,317.72,829.66Z" fill="#aec3ff"/><path d="M161,942.8l.2-11.4c-22.7,2.86-78.29-27.14-78.29-27.14s-23.76,15.8-27,60.93c-1.58,22-11.63,115.16-12.74,143-.4,10.08-.54,17.28-.58,20.15v0a3.92,3.92,0,0,1-1,2.34,130.62,130.62,0,0,0-12.31,18.86C-5.31,1214,12.81,1301.6,12.81,1301.6l8-2s29.3-90.81,48.44-130.09c3.25-6.66,6.21-11.84,8.68-14.84,7.19-8.75,14.79-23.6,22.27-41.47C114.39,1079.38,161,942.8,161,942.8Z" fill="#2f539b"/><path d="M61.27,1304.05H.33s-1.46-9.28,1.73-16.33c3.05-6.76,7.82-9.83,6.68-18,3.87,4,10.18,8.45,19,7.26,1.08,1.75,7,11.12,10.57,13.71C42.29,1293.54,60,1292.52,61.27,1304.05Z" fill="#233862"/><path d="M278.09,904.42c-8.19,1.39,1.34,7.9-9.92,9.12-16,1.75-32.57,3-41.23,6.4-3.16,1.26-5.28,2.82-5.94,4.81-3.75,11.3-27.54,30.7-27.54,30.7C87.35,950.63,80.52,903.33,80.52,903.33,149.38,836.45,208,800,256.38,795.49c11.79-1.1,27.67.37,35.12,3.69,16.94,7.54,26.22,30.48,26.22,30.48S309.19,899.11,278.09,904.42Z" fill="#aec3ff"/><path d="M268.17,913.54c-16,1.75-32.57,3-41.23,6.4-25.05-49.92,21.43-92.72,21.43-92.72S264.66,893.52,268.17,913.54Z" fill="#94b0ed"/><path d="M282,818.26s-40.29-2.2-47.45,23.1S248,967.63,252.41,978.05c8.08,19,48.82,75.49,48.82,75.49l13-6.77s-26.22-82.72-32.08-90.91C273,943,294.05,829.27,282,818.26Z" fill="#ffb27d"/><path d="M314.28,1046.77a59,59,0,0,1,6.08,6.25c2.71,3.31.33,4.5,8.11,19.5,0,0-.39,2.08-2.09,1.7s-7.56-6.2-10.57-5.78c0,0-2.16,1.77-2.39,7.65-.22,5.5-.24,17.66-1.2,19.94s-8-9.57-11.39-18.15c-3-7.51-.07-32.87-.07-32.87Z" fill="#ffb27d"/><path d="M226.59,875.19c.11.59,38.13,7,61.92-5.08,0,0,19.86-62.24-8.53-59.26s-45.21,11.92-45.92,25.51S226.59,875.19,226.59,875.19Z" fill="#aec3ff"/><path d="M290.6,803.54c.41,5,1,10.94,7.65,17.73,5.05,5.2,12.34,9.26,17.47,4.13a55.44,55.44,0,0,0,7.93-9.58c4.43-7.61,9.71-15.4,9.71-15.4l-22.81-20-1.36-1.19a58.06,58.06,0,0,1-17,19.28C290.65,799.69,290.44,801.61,290.6,803.54Z" fill="#ffb27d"/><path d="M333.36,800.43s-5.28,7.77-9.71,15.39c-14.17-8.74-14.19-26.29-13.09-35.38Z" fill="#ed985f"/><path d="M334,810.44s-34.42-19.15-22.16-40.4,16.07-38,38.56-26.7,22.05,21.88,19.68,30S343.26,814.88,334,810.44Z" fill="#ffb27d"/><path d="M375.89,760.91c-1.58-9.43-6.37-10.33-9.72-9.7-12.71-21-33.47-12.82-33.47-12.82a46.83,46.83,0,0,1-27.13,16.29s4,7.43,20.45,12c5,1.41,10.73.56,16.23-1.29a91.93,91.93,0,0,1-23.35,8.8c21.68,2,42.32-17.84,44.46-20,1,3.07,2.75,9.5,1.7,14.21-1.43,6.39-7.1,18-3.64,19.46C361.42,787.93,378.25,775.06,375.89,760.91Z" fill="#2c3a64"/><path d="M421,988.23s-9.6,7.21-2.37,11.92,20.17,6,20.22,2.89C439.06,992.67,433.88,985.29,421,988.23Z" fill="#ffb27d"/><path d="M415,1209.37H618.4c8.38,0,14.84-12.82,15-21.89.33-28.5-30.25-74-99.56-53.86,0,0-19.56-52.79-88.28-46.39-40.36,3.76-62.85,44.93-65.55,81.63C378.34,1190.77,394.73,1209.37,415,1209.37Z" fill="#aec3ff"/><rect x="486.91" y="1166.33" width="39.39" height="90.49" transform="translate(1013.2 2423.15) rotate(180)" fill="#f99746"/><polygon points="555.48 1184.61 457.72 1184.61 506.6 1138.66 555.48 1184.61" fill="#f99746"/><polygon points="1426.72 761.08 1375.33 772.89 1349.8 819.03 1330.7 713.65 1426.72 761.08" fill="#233862"/><rect x="1380.45" y="760.09" width="9.39" height="54.32" transform="matrix(0.8, -0.6, 0.6, 0.8, -194.89, 991.91)" fill="#233862"/><path d="M625.83,497.06a6,6,0,0,0-1.07,6.43l0,0c1.55,4.28,6.66,9.06,12.61,13.84.76.61,1.44,1.17,2,1.68l.46.41.35.32c5.54,5.11,3.46,6.28,13.42,16.65,11.36,11.82,19.18,12,21.4,11,1.88-.92-1.94-7.19-6.18-14.24-.2-.33-.4-.68-.61-1-.57-.94-1.13-1.89-1.69-2.83-5-8.48-3.69-12.46-2.51-25.08,1-10.25,16-57.28,16-57.28l-21.77-3.75s-6.55,37.45-13.77,43.22c-3.87,3.07-8.19,3.11-11.9,5.39-.26.16-.52.32-.77.49A28.83,28.83,0,0,0,625.83,497.06Z" fill="#ffb27d"/><path d="M625.83,497.06a6,6,0,0,0-1.07,6.43l0,0c1.89,4.28,6.88,9,12.63,13.79.75.63,1.42,1.2,2,1.73l.46.41.35.32c5.54,5.11,3.46,6.28,13.42,16.65,11.36,11.82,19.18,12,21.4,11,1.88-.92-1.94-7.19-6.18-14.24a48.39,48.39,0,0,1-20.24-14.91c-6.59-8.41-11.07-19.13-15.55-25.71l-1.28-.24A28.83,28.83,0,0,0,625.83,497.06Z" fill="#233862"/><path d="M801.35,483.47c1.34,6.72,10.92,5.6,21.62,3s8.16.5,23.38-1.19,19.85-7.36,20.31-9.63c.42-2-7.11-2.72-15.18-3.65l-3.05-.36c-9.12-1.14-15.79-7-24.07-11.85-7.84-4.58-19.54-23.22-19.54-23.22l-20.88,1.66s11,16.64,15.2,23.88c2.49,4.26,2.36,9.89,2.05,14.23A26.36,26.36,0,0,0,801.35,483.47Z" fill="#ffb27d"/><path d="M823,486.45c10.7-2.61,8.16.5,23.38-1.19s19.85-7.36,20.31-9.63c.42-2-7.11-2.72-15.18-3.65l-.07.16a43,43,0,0,1-21.81,6.78c-10.34.25-21.28-2.71-28.41-2.6a26.36,26.36,0,0,0,.16,7.15C802.69,490.19,812.27,489.07,823,486.45Z" fill="#233862"/><path d="M721.31,349.93l-19.52,52.53-25.49,68.6a41.49,41.49,0,0,1-13.54-1.24c-6.1-1.76-13.1-6.37-13.1-6.37s7.08-73.66,20.28-115.94c3.39-10.85,7.18-19.63,11.36-24.57C701.77,298.75,721.31,349.93,721.31,349.93Z" fill="#94b0ed"/><path d="M701.46,266.49c-11.11-3.58-40.11-.05-71.56,5.64a21.35,21.35,0,0,1-22-9.95h0L528.72,256s-26.12,57.92-11.82,94.83c2.1,5.43,6.71,8.81,13.83,8.93h0s47.83.06,63.13.06c39.36,0,83.31-27.06,89-28.19,9.31-1.87,13,16.74,22.33,36.28s87.47,86.54,87.47,86.54,12,.12,17-1.74c5.34-2,7.29-4.61,7.29-4.61S730.31,275.8,701.46,266.49Z" fill="#aec3ff"/><path d="M599.46,29.75a28.1,28.1,0,0,0-15.12-3.94,41.5,41.5,0,0,1-7.3-.44c-30.21-4.43-48.4,39.45-49.46,52.71-2,24.34-14.84,28.05-33,43.3-36.35,30.57-25.69,66.09-5.82,79.28,11.93,7.92,32.94,0,32.94,0,.3.21,57.48-32,85.67-47.48C649.66,147.17,616.44,39.85,599.46,29.75Z" fill="#233862"/><path d="M583.78,140c.13.08-13.87,4.85-23.22.71-8.8-3.89-15.47-18.37-15.34-18.38,4-.18,8.4-3.68,11.78-26.65l1.71.61,28.67,10.31s-2.08,9.2-3.43,18C582.82,131.88,582.22,138.93,583.78,140Z" fill="#ffb27d"/><path d="M587.38,106.57s-1.15,5-2.82,14.24c-16.46-3-23.53-15.65-25.85-24.55Z" fill="#ed975d"/><path d="M591.64,115.7s-39.22-5.26-35.56-29.63,1-41.47,26.25-39.14S611,59.28,611.74,67.72,601.94,116.45,591.64,115.7Z" fill="#ffb27d"/><path d="M610.31,54.36S585.21,76,568.13,77.74,544.58,74,544.58,74a66.74,66.74,0,0,0,16.13-21.84,12,12,0,0,1,9.9-7.08C582.8,44,605.92,43.54,610.31,54.36Z" fill="#233862"/><path d="M594.62,52.42s8.4,8.12,11,14.14C608.22,72.38,609,86.28,607,91.8c0,0,13.09-25.45,5.68-37.81C604.77,40.88,594.62,52.42,594.62,52.42Z" fill="#233862"/><path d="M616.81,197.74c-1.19,79.4-.33,62.81-9,70.34-2.09,1.81-8,2.9-15.72,3.41-24.34,1.61-67.14-2.4-68.77-6.9-5.61-15.56-1.65-20.4-6.33-44.23-.49-2.54-1.1-5.28-1.81-8.27-3.9-16.37-7.7-21.94,6.15-48.24C533.89,140,547,120.7,548.12,121.4c33.16,19.68,35.83,3.14,35.83,3.14S617.39,159,616.81,197.74Z" fill="#f99746"/><path d="M701.79,402.46l-25.49,68.6a41.49,41.49,0,0,1-13.54-1.24c-6.1-1.76-13.1-6.37-13.1-6.37s7.08-73.66,20.28-115.94Z" fill="#aec3ff"/><path d="M584,124.53s34.12,5.78,38.13,20.47,17.19,103.86,17.19,103.86-9.62,9.39-17.63,1.38-25.22-83.42-25.22-83.42Z" fill="#f99746"/><path d="M592.08,271.49c-24.34,1.61-67.14-2.4-68.77-6.9-5.61-15.56-1.65-20.4-6.33-44.23l11.74-33.07s-1.94,36.82,8.92,46.51,44.45,18.69,49.73,26.78A29.64,29.64,0,0,1,592.08,271.49Z" fill="#ed7d2b"/><path d="M564.19,256s24-5.35,27.89-3.21,13.35,9.89,14.53,12.59-8.63-2.05-11.82-2.91c-2.06-.55-7.51,1.34-10.2,2.24-11.33,3.78-18.28,1.83-18.28,1.83Z" fill="#ffb27d"/><path d="M548.1,121.38s-32.25,2-43.41,17.56c-15.72,21.91-46.89,115.33-29,127.79,20.13,14,91.58,3.67,91.58,3.67s2.38-11.12-.93-16.49-57.07-14.06-59.55-16.55,31-48.38,31-55.83S548.1,121.38,548.1,121.38Z" fill="#f99746"/><path d="M593.24,259.47s5,6.49,6.69,7.27a5,5,0,0,0,2.71.58l-3.39-6.11Z" fill="#ffb27d"/><path d="M592.08,252.79l14.63,7.1a2.6,2.6,0,0,1-2.42.94,35.54,35.54,0,0,1-6.35-1.75Z" fill="#ffb27d"/><polygon points="717.02 269.49 564.19 269.49 564.19 272.86 715.66 272.86 717.02 269.49" fill="#233862"/><polygon points="599.92 272.86 715.66 272.86 750.48 186.28 634.92 186.28 599.92 272.86" fill="#233862"/><path d="M686.45,229.57c.87-3-.89-5.51-3.93-5.51a7.89,7.89,0,0,0-7.09,5.51c-.88,3.05.88,5.51,3.93,5.51A7.9,7.9,0,0,0,686.45,229.57Z" fill="#fff"/><path d="M1816.85,625.24s56.09,57.06,59,80.75-29.07,60.67-29.07,60.67Z" fill="#ed7d2b"/><path d="M1784.8,1271.64s-2.14,33.39-8.6,33.85c-.86.06-32.76,0-32.76,0l-40.73-.32s.29-9.81,12.2-11.86,31.85-10.38,39.1-26.09C1761.63,1250.67,1784.8,1271.64,1784.8,1271.64Z" fill="#0e2644"/><path d="M1875.52,1271.84s-2.15,33.38-8.61,33.85c-.86.06-32.76,0-32.76,0l-40.73-.32s.29-9.82,12.2-11.87,31.85-10.37,39.1-26.09C1852.34,1250.87,1875.52,1271.84,1875.52,1271.84Z" fill="#0e2644"/><path d="M1740.48,912.7s10.5,68.15,50,189.17,44.78,173.4,44.78,173.4l42.63-1.1s.65-132.17-17.53-193-3.48-219.25-3.48-219.25Z" fill="#163560"/><path d="M1719.84,865.34s-1.73,102.65,15.75,228.74S1747,1273.66,1747,1273.66l42.53,1.51s25.7-126,18.55-189.15,35.28-216.41,35.28-216.41Z" fill="#1c468a"/><path d="M1802.71,625.28,1780,640.09l-32.74-6.18c.46-2.64,2.65-13.6,4.64-23.52.12-.59.24-1.17.35-1.74,1.7-8.45,3.18-15.7,3.18-15.7l30.62-13.43,11.42-5c0,.18-.9,9.37-1,10.71C1794.26,609.06,1802.71,625.28,1802.71,625.28Z" fill="#ffb27d"/><path d="M1755.7,617.67c.63-.26,39.47-11.63,43.68-10.23s6.69,9.57,6.69,9.57l-63.51,14.21S1747.58,621.07,1755.7,617.67Z" fill="#ed7d2b"/><path d="M1859.64,878.31c-6.64,30-116.14,33.32-144.3,6-3.21-3.11-3.33-17.56-2.08-37,2.45-38,10.18-95.28,10.54-124.53a232.51,232.51,0,0,1,4.76-41.68,338.18,338.18,0,0,1,14-49.86S1796.07,614,1806.07,617C1854.25,631.28,1866.28,848.32,1859.64,878.31Z" fill="#f99746"/><path d="M1713.26,847.29c2.45-38,10.18-95.28,10.54-124.53a232.51,232.51,0,0,1,4.76-41.68l32.18-5.6S1796.22,811.81,1713.26,847.29Z" fill="#ed7d2b"/><path d="M1730.8,794.28s2.18,5.25-2.43,8.76-7.62,9.2-6.57,13.37,11.13,11,14.64,9.9,10.64-6.56,9.88-8.76,4.83-19.27-3.69-25.87S1730.8,794.28,1730.8,794.28Z" fill="#ffb27d"/><path d="M1766.26,625.35s-30.51,4-55.59,40.81-41.58,64.14-37,77.43S1720.12,803,1727.35,803s18.93-5.22,19.61-17.06c0,0-26.53-47.11-20.69-53.73,2.49-2.83,35.51-29.13,40.6-16C1775.3,738.07,1766.26,625.35,1766.26,625.35Z" fill="#f99746"/><path d="M1794.16,585.64c-6.75,11.37-31.8,21.15-42.25,24.75.12-.59.24-1.17.35-1.74,1.7-8.45,3.18-15.7,3.18-15.7l30.62-13.43C1792.82,579.44,1796.94,581,1794.16,585.64Z" fill="#fca56b"/><path d="M1743.91,591.06s49.25,15.49,58.42-15.33S1824,526.15,1793,515s-40.69-1.25-46.26,8.29S1731.33,586.24,1743.91,591.06Z" fill="#ffb27d"/><path d="M1748.66,520.29s3.06,35.89,10.49,34.35,14.15-2.69,13,8.13-11.42,23.28,11.44,25.25,55.88-56.95,49.62-68.13C1815.19,487.62,1722.54,480.92,1748.66,520.29Z" fill="#163560"/></svg>