<?xml version="1.0" encoding="utf-8"?>
<!-- Generator: Adobe Illustrator 26.3.1, SVG Export Plug-In . SVG Version: 6.00 Build 0)  -->
<svg version="1.1" id="Layer_1" xmlns="http://www.w3.org/2000/svg" xmlns:xlink="http://www.w3.org/1999/xlink" x="0px" y="0px"
	 viewBox="0 0 713.4 423.2" style="enable-background:new 0 0 713.4 423.2;" xml:space="preserve">
<style type="text/css">
	.st0{fill:#D3D2D1;}
	.st1{fill:#FED150;}
	.st2{fill:#F3A43D;}
	.st3{fill:#FFE984;}
	.st4{fill:#0D5BA6;}
	.st5{fill:#EF95D6;}
	.st6{fill:#1880D6;}
	.st7{fill:#FFF1D6;}
	.st8{fill:#725559;}
	.st9{fill:#29303A;}
	.st10{fill:#26C4CD;}
	.st11{fill:#C1C0BF;}
	.st12{fill:#FFE9BA;}
	.st13{fill:#F7F7FC;}
	.st14{fill:#FFD9A7;}
	.st15{fill:#D14339;}
	.st16{fill:#B1A6F3;}
	.st17{fill:#E66254;}
	.st18{fill:#9991E2;}
	.st19{fill:#442F72;}
	.st20{fill:#EFC18F;}
	.st21{fill:#FFD9A8;}
	.st22{fill:#F8901D;}
	.st23{fill:#402B6C;}
	.st24{fill:#E82F2A;}
	.st25{fill:#4A535E;}
</style>
<g id="Layer_2_00000053534764457195807240000013834792388848243590_">
</g>
<g id="Layer_3">
</g>
<g>
	<path class="st0" d="M675.6,395.9c0,15.1-151.2,27.3-337.8,27.3C151.2,423.2,0,411,0,395.9c0-15.1,151.2-27.3,337.8-27.3
		C524.4,368.6,675.6,380.8,675.6,395.9z"/>
	<g>
		<g>
			<g>
				<polygon class="st1" points="564.5,158 560.6,158 560.6,136.9 575.3,129.5 575.3,108.3 579.2,108.3 579.2,132 564.5,139.4 				
					"/>
			</g>
			<g>
				<path class="st1" d="M586.2,104.5c0,5.5-4.4,10-9.7,10c-5.4,0-9.7-4.5-9.7-10c0-5.5,4.4-10,9.7-10
					C581.9,94.4,586.2,98.9,586.2,104.5z"/>
			</g>
			<g>
				<path class="st1" d="M623.4,62.5c0,5.5-4.4,10-9.7,10s-9.7-4.5-9.7-10s4.4-10,9.7-10S623.4,57,623.4,62.5z"/>
			</g>
			<g>
				<polygon class="st1" points="597,168.8 593.1,168.8 593.1,134.5 611.7,125.7 611.7,62.5 615.6,62.5 615.6,128.3 597,137.1 				
					"/>
			</g>
			<g>
				<g>
					<polygon class="st1" points="533.1,156.9 529.2,156.9 529.2,138.4 514.4,130.9 514.4,107.2 518.3,107.2 518.3,128.4 
						533.1,135.8 					"/>
				</g>
				<g>
					<path class="st1" d="M507.4,103.4c0,5.5,4.4,10,9.7,10c5.4,0,9.7-4.5,9.7-10c0-5.6-4.4-10-9.7-10
						C511.8,93.3,507.4,97.8,507.4,103.4z"/>
				</g>
				<g>
					<path class="st1" d="M470.2,67.6c0,5.5,4.4,10,9.7,10s9.7-4.5,9.7-10c0-5.6-4.4-10-9.7-10S470.2,62,470.2,67.6z"/>
				</g>
				<g>
					<polygon class="st1" points="500.5,173.9 496.6,173.9 496.6,142.1 478,133.4 478,67.6 481.9,67.6 481.9,130.8 500.5,139.5 
											"/>
				</g>
			</g>
			<g>
				<g>
					<polygon class="st1" points="647.7,190.9 613.7,190.9 613.7,186.8 643.7,186.8 643.7,130.5 647.7,130.5 					"/>
				</g>
				<g>
					<path class="st1" d="M655.4,130.5c0,5.5-4.4,10-9.7,10c-5.4,0-9.7-4.5-9.7-10c0-5.6,4.4-10,9.7-10
						C651.1,120.5,655.4,125,655.4,130.5z"/>
				</g>
			</g>
			<g>
				<g>
					<polygon class="st1" points="483.5,194.9 449.5,194.9 449.5,134.5 453.5,134.5 453.5,190.8 483.5,190.8 					"/>
				</g>
				<g>
					<path class="st1" d="M441.8,134.5c0,5.5,4.4,10,9.7,10c5.4,0,9.7-4.5,9.7-10c0-5.5-4.4-10-9.7-10
						C446.1,124.5,441.8,129,441.8,134.5z"/>
				</g>
			</g>
			<g>
				<polygon class="st1" points="564.5,268 560.6,268 560.6,289.1 575.3,296.5 575.3,317.7 579.2,317.7 579.2,294 564.5,286.6 				
					"/>
			</g>
			<g>
				<path class="st1" d="M586.2,321.5c0-5.5-4.4-10-9.7-10c-5.4,0-9.7,4.5-9.7,10c0,5.5,4.4,10,9.7,10
					C581.9,331.6,586.2,327.1,586.2,321.5z"/>
			</g>
			<g>
				<polygon class="st1" points="597,257.2 593.1,257.2 593.1,291.6 611.7,300.3 611.7,363.5 615.6,363.5 615.6,297.7 597,288.9 
									"/>
			</g>
			<g>
				<g>
					<polygon class="st1" points="533.1,269.1 529.2,269.1 529.2,287.6 514.4,295.1 514.4,318.8 518.3,318.8 518.3,297.6 
						533.1,290.2 					"/>
				</g>
				<g>
					<path class="st1" d="M507.4,322.6c0-5.5,4.4-10,9.7-10c5.4,0,9.7,4.5,9.7,10c0,5.5-4.4,10-9.7,10
						C511.8,332.7,507.4,328.2,507.4,322.6z"/>
				</g>
				<g>
					<path class="st1" d="M470.2,358.4c0-5.5,4.4-10,9.7-10s9.7,4.5,9.7,10c0,5.5-4.4,10-9.7,10S470.2,364,470.2,358.4z"/>
				</g>
				<g>
					<polygon class="st1" points="500.5,252.1 496.6,252.1 496.6,283.9 478,292.6 478,358.4 481.9,358.4 481.9,295.2 500.5,286.5 
											"/>
				</g>
			</g>
			<g>
				<g>
					<polygon class="st1" points="647.7,235.1 613.7,235.1 613.7,239.2 643.7,239.2 643.7,295.5 647.7,295.5 					"/>
				</g>
				<g>
					<path class="st1" d="M655.4,295.5c0-5.6-4.4-10-9.7-10c-5.4,0-9.7,4.5-9.7,10c0,5.5,4.4,10,9.7,10
						C651.1,305.5,655.4,301,655.4,295.5z"/>
				</g>
			</g>
			<g>
				<g>
					<polygon class="st1" points="483.5,231.1 449.5,231.1 449.5,291.5 453.5,291.5 453.5,235.2 483.5,235.2 					"/>
				</g>
				<g>
					<path class="st1" d="M441.8,291.5c0-5.5,4.4-10,9.7-10c5.4,0,9.7,4.5,9.7,10c0,5.5-4.4,10-9.7,10
						C446.1,301.5,441.8,297,441.8,291.5z"/>
				</g>
			</g>
			<g>
				<g>
					<path class="st2" d="M622.8,216.2c0,41.9-32.9,75.8-73.5,75.8c-40.6,0-73.5-33.9-73.5-75.8c0-41.9,32.9-75.8,73.5-75.8
						C589.9,140.4,622.8,174.4,622.8,216.2z"/>
				</g>
				<g>
					<ellipse class="st1" cx="549.4" cy="216.2" rx="69.8" ry="72"/>
				</g>
				<g>
					<path class="st2" d="M604.3,216.2c0,31.3-24.6,56.7-55,56.7c-30.4,0-55-25.4-55-56.7c0-31.3,24.6-56.7,55-56.7
						C579.7,159.5,604.3,184.9,604.3,216.2z"/>
				</g>
				<g>
					<path class="st3" d="M602,218.6c0,30-23.6,54.3-52.7,54.3c-29.1,0-52.7-24.3-52.7-54.3c0-30,23.6-54.3,52.7-54.3
						C578.4,164.3,602,188.6,602,218.6z"/>
				</g>
				<g>
					<g>
						<g>
							<path class="st2" d="M529.5,187.3c3.5-0.7,10.7-1.3,17.4-1.3c8.2,0,13.2,0.8,17.6,3.5c4.2,2.3,7.1,6.5,7.1,12
								c0,5.5-3.1,10.6-9.8,13.1v0.2c6.8,1.9,11.8,7.2,11.8,15.1c0,5.5-2.5,9.9-6.2,13c-4.3,3.6-11.6,5.6-23.4,5.6
								c-6.6,0-11.6-0.5-14.6-0.9V187.3z M542.8,210.8h4.4c7.1,0,10.9-3,10.9-7.6c0-4.6-3.4-7.1-9.5-7.1c-2.9,0-4.6,0.2-5.7,0.4
								V210.8z M542.8,238c1.3,0.2,2.9,0.2,5.2,0.2c6.1,0,11.5-2.4,11.5-8.8c0-6.2-5.4-8.7-12.1-8.7h-4.6V238z"/>
						</g>
					</g>
					<g>
						<rect x="536.2" y="177.2" class="st2" width="6.3" height="15.3"/>
					</g>
					<g>
						<rect x="549.7" y="177.2" class="st2" width="6.3" height="15.3"/>
					</g>
					<g>
						<rect x="536.2" y="241" class="st2" width="6.3" height="15.3"/>
					</g>
					<g>
						<rect x="549.7" y="241" class="st2" width="6.3" height="15.3"/>
					</g>
				</g>
			</g>
		</g>
		<g>
			<path class="st1" d="M624.9,367.1c0-6.4-5-11.6-11.2-11.6c-6.2,0-11.2,5.2-11.2,11.6c0,6.4,5,11.6,11.2,11.6
				C619.9,378.7,624.9,373.5,624.9,367.1z"/>
		</g>
	</g>
	<g>
		<g>
			<rect x="366.5" y="30.6" class="st4" width="6.6" height="179.3"/>
			<rect x="384.8" y="67.9" class="st4" width="6.6" height="179.3"/>
			<rect x="402.4" y="0" class="st4" width="6.6" height="179.3"/>
			<rect x="421.2" y="92.5" class="st4" width="6.6" height="179.3"/>
		</g>
	</g>
	<g>
		<g>
			<g>
				<path class="st4" d="M216.2,97.2c-28.1-12-60.5,1-72.5,29.1c-12,28.1,1,60.5,29.1,72.5c28.1,12,60.5-1,72.5-29.1
					C257.3,141.6,244.2,109.1,216.2,97.2z M180.9,179.9c-17.6-7.5-25.8-27.9-18.3-45.5c7.5-17.6,27.9-25.8,45.5-18.3
					c17.6,7.5,25.8,27.9,18.3,45.5C218.8,179.2,198.5,187.4,180.9,179.9z"/>
				<path class="st4" d="M203.6,126.6c-11.8-5-25.5,0.4-30.5,12.2c-5,11.8,0.4,25.5,12.2,30.5c11.8,5,25.5-0.4,30.5-12.2
					C220.9,145.3,215.4,131.6,203.6,126.6z"/>
			</g>
		</g>
		<polygon class="st4" points="219.2,115.6 198.8,106.9 216.2,72.7 231.8,79.4 		"/>
		<polygon class="st4" points="189.5,185.1 169.1,176.5 156.6,212.7 172.3,219.3 		"/>
		<polygon class="st4" points="232.1,143.8 225.1,122.8 262.2,113.2 267.6,129.3 		"/>
		<polygon class="st5" points="225.9,177.6 233.3,156.8 268.4,172 262.7,188 		"/>
		<polygon class="st4" points="154,144.8 161.8,124.2 125.1,113 119.1,128.9 		"/>
		<polygon class="st4" points="169.1,116.9 189.1,107.4 170.4,73.9 155,81.2 		"/>
		<polygon class="st5" points="219.1,179.1 199,188.2 217,222 232.5,215.1 		"/>
		<polygon class="st4" points="154.6,151.9 161.2,173 123.9,181.9 118.8,165.7 		"/>
	</g>
	<g>
		<g>
			<g>
				<g>
					<path class="st6" d="M303.6,51.9c-14.6-6.2-31.6,0.5-37.8,15.2c-6.2,14.6,0.5,31.6,15.2,37.8c14.6,6.2,31.6-0.5,37.8-15.2
						C325,75.1,318.2,58.1,303.6,51.9z M285.2,95c-9.2-3.9-13.4-14.5-9.5-23.7c3.9-9.2,14.5-13.4,23.7-9.5
						c9.2,3.9,13.4,14.5,9.5,23.7C305,94.7,294.3,98.9,285.2,95z"/>
					<path class="st6" d="M297,67.2c-6.2-2.6-13.3,0.2-15.9,6.4c-2.6,6.2,0.2,13.3,6.4,15.9c6.2,2.6,13.3-0.2,15.9-6.4
						C306,77,303.2,69.9,297,67.2z"/>
				</g>
			</g>
			<polygon class="st6" points="305.1,61.5 294.5,57 303.6,39.1 311.7,42.6 			"/>
			<g>
				<polygon class="st6" points="289.7,97.7 279,93.3 272.5,112.1 280.7,115.6 				"/>
			</g>
			<g>
				<polygon class="st6" points="311.9,76.2 308.3,65.3 327.6,60.2 330.4,68.7 				"/>
			</g>
			<g>
				<polygon class="st6" points="308.6,93.8 312.5,83 330.8,90.9 327.9,99.3 				"/>
			</g>
			<g>
				<polygon class="st6" points="271.1,76.7 275.2,66 256.1,60.1 253,68.4 				"/>
			</g>
			<g>
				<polygon class="st6" points="279,62.2 289.4,57.2 279.7,39.8 271.7,43.6 				"/>
			</g>
			<g>
				<polygon class="st6" points="305.1,94.6 294.6,99.4 304,117 312.1,113.4 				"/>
			</g>
			<g>
				<polygon class="st6" points="271.5,80.4 274.9,91.4 255.5,96.1 252.8,87.6 				"/>
			</g>
		</g>
	</g>
	<g>
		<g>
			<path class="st6" d="M502.1,229.1v-5.5c-3.9-0.2-7.7-1.2-9.9-2.5l1.8-6.8c2.5,1.3,5.9,2.6,9.7,2.6c3.3,0,5.6-1.3,5.6-3.6
				c0-2.2-1.9-3.6-6.2-5.1c-6.2-2.1-10.5-5-10.5-10.7c0-5.1,3.6-9.2,9.9-10.4v-5.5h5.7v5.1c3.9,0.2,6.5,1,8.5,1.9l-1.7,6.6
				c-1.5-0.6-4.2-2-8.4-2c-3.8,0-5,1.6-5,3.3c0,1.9,2,3.2,7,5c7,2.5,9.8,5.7,9.8,10.9c0,5.2-3.7,9.6-10.4,10.8v6H502.1z"/>
		</g>
	</g>
	<g>
		<path class="st5" d="M153.5,302.9v-5.5c-3.9-0.2-7.7-1.2-9.9-2.5l1.8-6.8c2.5,1.3,5.9,2.6,9.7,2.6c3.3,0,5.6-1.3,5.6-3.6
			c0-2.2-1.9-3.6-6.2-5.1c-6.2-2.1-10.5-5-10.5-10.7c0-5.1,3.6-9.2,9.9-10.4v-5.5h5.7v5.1c3.9,0.2,6.5,1,8.5,1.9l-1.7,6.6
			c-1.5-0.6-4.2-2-8.4-2c-3.8,0-5,1.6-5,3.3c0,1.9,2,3.2,7,5c7,2.5,9.8,5.7,9.8,10.9c0,5.2-3.7,9.6-10.4,10.8v6H153.5z"/>
	</g>
	<g>
		<g>
			<path class="st7" d="M477.4,334.5c0,7.5-6.1,13.5-13.5,13.5H179.3c-7.5,0-13.5-6.1-13.5-13.5v-179c0-7.5,6.1-13.5,13.5-13.5
				h284.5c7.5,0,13.5,6.1,13.5,13.5V334.5z"/>
			<polygon class="st8" points="366.5,392.7 277.2,392.7 282.7,315.5 358.3,315.5 			"/>
			<path class="st9" d="M477.4,334.5c0,7.5-6.1,13.5-13.5,13.5H179.3c-7.5,0-13.5-6.1-13.5-13.5v-179c0-7.5,6.1-13.5,13.5-13.5
				h284.5c7.5,0,13.5,6.1,13.5,13.5V334.5z"/>
			<rect x="178" y="155.6" class="st10" width="284.9" height="146.3"/>
			<path class="st11" d="M179.3,348h284.5c7.5,0,13.5-6.1,13.5-13.5v-20.3H165.8v20.3C165.8,341.9,171.8,348,179.3,348z"/>
			<rect x="233.8" y="380.5" class="st12" width="171.9" height="12.2"/>
		</g>
		<g>
			<path class="st13" d="M262.1,194.7v73.2h-16.6v-73.2H262.1z"/>
			<path class="st13" d="M330.2,265.8c-3,1.5-9.9,3.1-18.8,3.1c-25.3,0-38.3-15.7-38.3-36.6c0-25,17.8-38.9,39.9-38.9
				c8.6,0,15.1,1.7,18,3.3l-3.4,13.1c-3.4-1.4-8-2.7-13.9-2.7c-13.1,0-23.3,7.9-23.3,24.2c0,14.7,8.7,23.9,23.4,23.9
				c5,0,10.5-1.1,13.8-2.4L330.2,265.8z"/>
			<path class="st13" d="M404.8,230.5c0,24-14.5,38.5-35.9,38.5c-21.7,0-34.4-16.4-34.4-37.2c0-21.9,14-38.3,35.6-38.3
				C392.5,193.5,404.8,210.3,404.8,230.5z M351.9,231.5c0,14.3,6.7,24.4,17.8,24.4c11.2,0,17.6-10.6,17.6-24.9
				c0-13.1-6.3-24.4-17.7-24.4C358.4,206.6,351.9,217.3,351.9,231.5z"/>
		</g>
	</g>
	<g>
		<g>
			<polygon class="st14" points="497.6,373.3 498.2,380.3 491.7,379.2 491.3,370.2 			"/>
			<path class="st15" d="M526.5,237.4c0,0,4.2,16.5-13.1,32.6L493,310.7c0,0,9.6,41.1,6.3,60.1c-1.3,7.3-9.3,4.8-10.3,2.1
				c-6.9-19-20.2-57.2-14.4-79.6c4.9-19.1,16.3-31.7,16.3-31.7L526.5,237.4z"/>
			<path class="st16" d="M491.3,376.8c0,0,3.1,3.4,6.8,0.3c0,0,5.2,10.8-2.4,12.3c-7.6,1.5-21.4-0.1-23.3-3.4
				C469.7,381.3,482.1,378.1,491.3,376.8z"/>
			<polygon class="st14" points="552.5,370.7 555.4,377.1 548.9,378.2 545.6,369.8 			"/>
			<path class="st17" d="M533.4,268l-5.9,45.1c0,0,22.5,35.6,25.7,54.6c1.2,7.3-7.2,7.6-9.1,5.4c-12.8-15.7-37.9-47.3-39.8-70.4
				c-1.6-19.7-13.6-41.1-13.6-41.1S533,241.4,533.4,268z"/>
			<path class="st16" d="M547.7,376.1c0,0,4.1,2.2,6.5-1.9c0,0,8.5,8.4,1.8,12.4c-6.7,3.9-20.3,7-23.1,4.5
				C528.8,387.4,539.4,380.3,547.7,376.1z"/>
			<path class="st18" d="M497.1,199.8c1.8-1.3,5.6-3.3,6.9,1.5c1.4,4.8-13.1,29.6-17.6,33.3c-4.5,3.8-33.9,11.7-33.9,11.7
				s-3.2-0.3-0.9-4.2l28-12.6C479.7,229.6,490.9,204.4,497.1,199.8z"/>
			<path class="st19" d="M520.5,200.4c7,5.8,12.5,19.4,13.7,63.2c0.3,9.6-46.1,8.4-44.2-1c5.3-27.7-8.6-44.1,4.5-60.7
				C494.4,201.9,506.7,188.9,520.5,200.4z"/>
			<path class="st20" d="M509.5,183.9c0,0-2.7,7.2,0,11.8c1.7,2.9-11.2,12.7-10.9,8.8c0.4-5.1,2.8-8.2,0-13.9L509.5,183.9z"/>
			<path class="st21" d="M498.2,171.8c-4.1,4.3-7.8,22.3-3.1,26c2,1.6,10-0.7,14.8-8.8c1.9-3.3,4.2-9.5,0.7-15.4
				C509,170.9,503,166.8,498.2,171.8z"/>
			<path class="st9" d="M494.9,170.4c0,0-1.3,8.8,5.3,7.2c7.6-1.8,7.9,0.2,7.3,1.8c-1.8,4.8,7,0,1.1,10.5c-3,5.3,2.2,0.6,2.7-0.3
				c0.6-0.9,6.2-8,1.9-15.9C509,165.8,500.6,165.6,494.9,170.4z"/>
			<g>
				<path class="st2" d="M490.1,254.2c0,20.7-16.7,37.4-37.4,37.4c-20.7,0-37.4-16.7-37.4-37.4c0-20.7,16.7-37.4,37.4-37.4
					C473.4,216.8,490.1,233.6,490.1,254.2z"/>
				<path class="st1" d="M488.2,254.2c0,19.6-15.9,35.5-35.5,35.5c-19.6,0-35.5-15.9-35.5-35.5c0-19.6,15.9-35.5,35.5-35.5
					C472.3,218.7,488.2,234.6,488.2,254.2z"/>
				<path class="st2" d="M480.7,254.2c0,15.4-12.5,28-28,28c-15.5,0-28-12.5-28-28c0-15.4,12.5-28,28-28
					C468.2,226.2,480.7,238.8,480.7,254.2z"/>
				<path class="st3" d="M479.5,255.4c0,14.8-12,26.8-26.8,26.8c-14.8,0-26.8-12-26.8-26.8c0-14.8,12-26.8,26.8-26.8
					C467.5,228.6,479.5,240.6,479.5,255.4z"/>
				<g>
					<g>
						<path class="st2" d="M450.5,271.6v-4c-2.9-0.1-5.6-0.9-7.2-1.8l1.3-5c1.8,1,4.3,1.9,7.1,1.9c2.4,0,4.1-0.9,4.1-2.6
							c0-1.6-1.4-2.6-4.5-3.7c-4.5-1.5-7.7-3.7-7.7-7.8c0-3.7,2.6-6.7,7.2-7.6v-4h4.2v3.7c2.8,0.1,4.8,0.7,6.2,1.4l-1.2,4.8
							c-1.1-0.5-3.1-1.4-6.1-1.4c-2.8,0-3.7,1.2-3.7,2.4c0,1.4,1.5,2.3,5.1,3.7c5.1,1.8,7.1,4.1,7.1,7.9c0,3.8-2.7,7-7.6,7.9v4.3
							H450.5z"/>
					</g>
				</g>
			</g>
			<g>
				<path class="st20" d="M479.1,253.8c0,0-13.1-1.4-10,1.2c3.2,2.6,6,4.7,12,2.2L479.1,253.8z"/>
				<path class="st18" d="M519.3,206.4c1.6-1.6,5.6-4.4,7.1,0.4c2.4,7.6-8.1,31.3-11.9,35.8c-3.8,4.4-34,15.1-34,15.1
					s-3-1.5-1.6-4.6l29.4-16.5C508.2,236.6,513.9,211.9,519.3,206.4z"/>
			</g>
			<path class="st9" d="M492.3,172.5c-0.2,2.3,1.1,8.2,7.3,6.2c6.2-2,6.2-2,7.3-1.4c1,0.6,0.8,0.9,0.7,1.6
				c-0.1,0.6,5.3-11.2-4.7-11.6C503,167.2,492.9,166.2,492.3,172.5z"/>
			<path class="st9" d="M507.2,180.6c0,0-0.5,7.6-1.9,8.7c-1.4,1.2-2.1,3.2-5.2,3.7c-3.1,0.4-7.2,1.4-7.1-1.2c0,0-1.3,7.7,4.4,7.1
				c0,0,8.4-0.9,12.1-7.6c0,0-3.1-0.4-0.4-9.6C509.4,180.6,507.3,182,507.2,180.6z"/>
		</g>
		<path class="st13" d="M433.9,219c1.3-1.4,3.4-6.7,3.4-6.7s2.4,5.2,3.8,6.5c1.4,1.3,6.7,3.4,6.7,3.4s-5.2,2.4-6.5,3.8
			c-1.3,1.4-3.4,6.7-3.4,6.7s-2.4-5.2-3.8-6.5c-1.4-1.3-6.7-3.4-6.7-3.4S432.6,220.4,433.9,219z"/>
	</g>
	<g>
		<g>
			<g>
				<path class="st2" d="M197.6,383.4v20.7h0.3c3.2,5.5,32.9,9.9,69,9.9c36.2,0,65.8-4.3,69-9.9h0.3v-20.7H197.6z"/>
				<path class="st1" d="M222.9,384.1v27.5c7,0.9,15.2,1.6,24.1,2v-29.5H222.9z"/>
				<path class="st1" d="M251.5,389v24.7c2,0.1,3.9,0.1,6,0.2V389H251.5z"/>
				<path class="st3" d="M336.3,383.4c0,5.2-31,9.4-69.3,9.4c-38.3,0-69.3-4.2-69.3-9.4c0-5.2,31-9.4,69.3-9.4
					C305.2,374.1,336.3,378.3,336.3,383.4z"/>
				<path class="st2" d="M319.4,384c0,3.9-23.5,7.1-52.5,7.1c-29,0-52.5-3.2-52.5-7.1c0-3.9,23.5-7.1,52.5-7.1
					C295.9,376.9,319.4,380.1,319.4,384z"/>
				<path class="st1" d="M314.2,384.7c0,3.5-21.2,6.4-47.3,6.4c-26.1,0-47.3-2.9-47.3-6.4c0-3.5,21.2-6.4,47.3-6.4
					C293,378.3,314.2,381.2,314.2,384.7z"/>
			</g>
			<g>
				<path class="st2" d="M217.2,358.4v20.7h0.3c3.2,5.5,32.9,9.9,69,9.9c36.1,0,65.8-4.3,69-9.9h0.3v-20.7H217.2z"/>
				<path class="st1" d="M242.4,359.1v27.5c7,0.9,15.2,1.6,24.1,2v-29.5H242.4z"/>
				<path class="st1" d="M271.1,364v24.7c2,0.1,3.9,0.1,6,0.2V364H271.1z"/>
				<path class="st3" d="M355.8,358.4c0,5.2-31,9.4-69.3,9.4c-38.3,0-69.3-4.2-69.3-9.4c0-5.2,31-9.4,69.3-9.4
					C324.8,349.1,355.8,353.2,355.8,358.4z"/>
				<path class="st2" d="M339,359c0,3.9-23.5,7.1-52.5,7.1c-29,0-52.5-3.2-52.5-7.1c0-3.9,23.5-7.1,52.5-7.1
					C315.5,351.9,339,355.1,339,359z"/>
				<path class="st1" d="M333.8,359.7c0,3.5-21.2,6.4-47.3,6.4c-26.1,0-47.3-2.9-47.3-6.4c0-3.5,21.2-6.4,47.3-6.4
					C312.6,353.3,333.8,356.2,333.8,359.7z"/>
			</g>
		</g>
		<g>
			<g>
				<path class="st2" d="M49.3,380.3V401h0.3c3.2,5.5,32.9,9.9,69,9.9c36.1,0,65.8-4.3,69-9.9h0.3v-20.7H49.3z"/>
				<path class="st1" d="M74.5,380.9v27.5c7,0.9,15.2,1.6,24.1,2v-29.5H74.5z"/>
				<path class="st1" d="M103.1,385.9v24.7c2,0.1,3.9,0.1,6,0.2v-24.9H103.1z"/>
				<path class="st3" d="M187.9,380.3c0,5.2-31,9.4-69.3,9.4c-38.3,0-69.3-4.2-69.3-9.4c0-5.2,31-9.4,69.3-9.4
					C156.8,370.9,187.9,375.1,187.9,380.3z"/>
				<path class="st2" d="M171.1,380.8c0,3.9-23.5,7.1-52.5,7.1c-29,0-52.5-3.2-52.5-7.1c0-3.9,23.5-7.1,52.5-7.1
					C147.6,373.8,171.1,376.9,171.1,380.8z"/>
				<path class="st1" d="M165.8,381.5c0,3.5-21.2,6.4-47.3,6.4c-26.1,0-47.3-2.9-47.3-6.4c0-3.5,21.2-6.4,47.3-6.4
					C144.7,375.2,165.8,378,165.8,381.5z"/>
			</g>
			<g>
				<path class="st2" d="M42.4,354.8v20.7h0.3c3.2,5.5,32.9,9.9,69,9.9c36.1,0,65.8-4.3,69-9.9h0.3v-20.7H42.4z"/>
				<path class="st1" d="M67.7,355.4v27.5c7,0.9,15.2,1.6,24.1,2v-29.5H67.7z"/>
				<path class="st1" d="M96.3,360.4v24.7c2,0.1,3.9,0.1,5.9,0.2v-24.9H96.3z"/>
				<path class="st3" d="M181.1,354.8c0,5.2-31,9.4-69.3,9.4c-38.3,0-69.3-4.2-69.3-9.4c0-5.2,31-9.4,69.3-9.4
					C150,345.4,181.1,349.6,181.1,354.8z"/>
				<path class="st2" d="M164.3,355.3c0,3.9-23.5,7.1-52.5,7.1c-29,0-52.5-3.2-52.5-7.1c0-3.9,23.5-7.1,52.5-7.1
					C140.8,348.2,164.3,351.4,164.3,355.3z"/>
				<path class="st1" d="M159,356c0,3.5-21.2,6.4-47.3,6.4c-26.1,0-47.3-2.9-47.3-6.4c0-3.5,21.1-6.4,47.3-6.4
					C137.9,349.7,159,352.5,159,356z"/>
			</g>
			<g>
				<path class="st2" d="M33.9,329.2V350h0.3c3.2,5.5,32.9,9.9,69,9.9c36.2,0,65.8-4.3,69-9.9h0.3v-20.7H33.9z"/>
				<path class="st1" d="M59.2,329.9v27.5c7,0.9,15.2,1.6,24.1,2v-29.5H59.2z"/>
				<path class="st1" d="M87.8,334.8v24.7c2,0.1,3.9,0.1,6,0.2v-24.9H87.8z"/>
				<path class="st3" d="M172.6,329.2c0,5.2-31,9.4-69.3,9.4c-38.3,0-69.3-4.2-69.3-9.4c0-5.2,31-9.4,69.3-9.4
					C141.5,319.9,172.6,324.1,172.6,329.2z"/>
				<path class="st2" d="M155.8,329.8c0,3.9-23.5,7.1-52.5,7.1c-29,0-52.5-3.2-52.5-7.1c0-3.9,23.5-7.1,52.5-7.1
					C132.2,322.7,155.8,325.9,155.8,329.8z"/>
				<path class="st1" d="M150.5,330.5c0,3.5-21.2,6.4-47.3,6.4c-26.1,0-47.3-2.9-47.3-6.4c0-3.5,21.2-6.4,47.3-6.4
					C129.4,324.1,150.5,327,150.5,330.5z"/>
			</g>
			<g>
				<path class="st2" d="M53.5,304.2V325h0.3c3.2,5.5,32.9,9.9,69,9.9s65.8-4.3,69-9.9h0.3v-20.7H53.5z"/>
				<path class="st1" d="M78.7,304.9v27.5c7,0.9,15.2,1.6,24.1,2v-29.5H78.7z"/>
				<path class="st1" d="M107.4,309.8v24.7c2,0.1,3.9,0.1,6,0.2v-24.9H107.4z"/>
				<path class="st3" d="M192.1,304.2c0,5.2-31,9.4-69.3,9.4c-38.3,0-69.3-4.2-69.3-9.4c0-5.2,31-9.4,69.3-9.4
					C161.1,294.9,192.1,299.1,192.1,304.2z"/>
				<path class="st2" d="M175.3,304.8c0,3.9-23.5,7.1-52.5,7.1c-29,0-52.5-3.2-52.5-7.1c0-3.9,23.5-7.1,52.5-7.1
					C151.8,297.7,175.3,300.9,175.3,304.8z"/>
				<path class="st1" d="M170.1,305.5c0,3.5-21.2,6.4-47.3,6.4c-26.1,0-47.3-2.9-47.3-6.4c0-3.5,21.2-6.4,47.3-6.4
					C148.9,299.1,170.1,302,170.1,305.5z"/>
			</g>
			<g>
				<path class="st2" d="M39.8,279.7v20.7h0.3c3.2,5.5,32.9,9.9,69,9.9c36.1,0,65.8-4.3,69-9.9h0.3v-20.7H39.8z"/>
				<path class="st1" d="M65,280.4v27.5c7,0.9,15.2,1.6,24.1,2v-29.5H65z"/>
				<path class="st1" d="M93.6,285.3v24.7c2,0.1,3.9,0.1,6,0.2v-24.9H93.6z"/>
				<path class="st3" d="M178.4,279.7c0,5.2-31,9.4-69.3,9.4c-38.3,0-69.3-4.2-69.3-9.4c0-5.2,31-9.4,69.3-9.4
					C147.3,270.4,178.4,274.6,178.4,279.7z"/>
				<path class="st2" d="M161.6,280.3c0,3.9-23.5,7.1-52.5,7.1s-52.5-3.2-52.5-7.1c0-3.9,23.5-7.1,52.5-7.1S161.6,276.4,161.6,280.3
					z"/>
				<path class="st1" d="M156.3,281c0,3.5-21.2,6.4-47.3,6.4c-26.1,0-47.3-2.9-47.3-6.4c0-3.5,21.2-6.4,47.3-6.4
					C135.2,274.6,156.3,277.5,156.3,281z"/>
			</g>
			<g>
				<path class="st2" d="M53.5,254.9v20.7h0.3c3.2,5.5,32.9,9.9,69,9.9s65.8-4.3,69-9.9h0.3v-20.7H53.5z"/>
				<path class="st1" d="M78.7,255.5V283c7,0.9,15.2,1.6,24.1,2v-29.5H78.7z"/>
				<path class="st1" d="M107.4,260.5v24.7c2,0.1,3.9,0.1,6,0.2v-24.9H107.4z"/>
				<path class="st3" d="M192.1,254.9c0,5.2-31,9.4-69.3,9.4s-69.3-4.2-69.3-9.4s31-9.4,69.3-9.4S192.1,249.7,192.1,254.9z"/>
				<path class="st2" d="M175.3,255.4c0,3.9-23.5,7.1-52.5,7.1c-29,0-52.5-3.2-52.5-7.1c0-3.9,23.5-7.1,52.5-7.1
					C151.8,248.3,175.3,251.5,175.3,255.4z"/>
				<path class="st1" d="M170.1,256.1c0,3.5-21.2,6.4-47.3,6.4c-26.1,0-47.3-2.9-47.3-6.4c0-3.5,21.2-6.4,47.3-6.4
					C148.9,249.8,170.1,252.6,170.1,256.1z"/>
			</g>
			<path class="st13" d="M75.4,259.6c1.2-1.2,3.1-6,3.1-6s2.2,4.7,3.4,5.8c1.2,1.2,6,3.1,6,3.1s-4.7,2.2-5.8,3.4
				c-1.2,1.2-3.1,6-3.1,6s-2.2-4.7-3.4-5.8c-1.2-1.2-6-3.1-6-3.1S74.3,260.8,75.4,259.6z"/>
		</g>
		<path class="st13" d="M172,296c1.2-1.2,3.1-6,3.1-6s2.2,4.7,3.4,5.8c1.2,1.2,6,3.1,6,3.1s-4.7,2.2-5.8,3.4c-1.2,1.2-3.1,6-3.1,6
			s-2.2-4.7-3.4-5.8c-1.2-1.2-6-3.1-6-3.1S170.8,297.2,172,296z"/>
		<path class="st13" d="M301.8,365c1.2-1.2,3.1-6,3.1-6s2.2,4.7,3.4,5.8c1.2,1.2,6,3.1,6,3.1s-4.7,2.2-5.8,3.4c-1.2,1.2-3.1,6-3.1,6
			s-2.2-4.7-3.4-5.8c-1.2-1.2-6-3.1-6-3.1S300.6,366.3,301.8,365z"/>
		<path class="st13" d="M30.6,326.7c1.2-1.2,3.1-6,3.1-6s2.2,4.7,3.4,5.8c1.2,1.2,6,3.1,6,3.1s-4.7,2.2-5.8,3.4
			c-1.2,1.2-3.1,6-3.1,6s-2.2-4.7-3.4-5.8c-1.2-1.2-6-3.1-6-3.1S29.5,327.9,30.6,326.7z"/>
		<g>
			<path class="st22" d="M145.2,179c-1.6-1.2-4.9-2.9-6.1,1.4c-1.2,4.3,11.6,26.2,15.5,29.5c3.9,3.3,30,10.4,30,10.4
				s2.8-0.3,0.8-3.7l-24.8-11.2C160.6,205.3,150.8,183,145.2,179z"/>
			<path class="st9" d="M138.6,145.2c0,0-5.6-6-13.8-0.4c0,0-9.9,5.4-8,11.7c1.8,6.2-11.7,8.3-9.1,16.1c2.6,7.8-13.7,11.7-3.5,23.6
				c3.9,4.6,14.1,3.1,17.8-2.6c3.6-5.7,9.8-6.9,11.8-16.9c2-10,5.2-22.6,6.4-25.1C141.4,149,140.6,146.2,138.6,145.2z"/>
			<polygon class="st14" points="147.5,281.4 147.1,332.9 153,332.7 162.3,275.8 			"/>
			<polygon class="st14" points="169.8,280.2 194.3,330.1 198.7,325.7 182.9,271.1 			"/>
			<path class="st9" d="M153.8,330c0,0-3.3,3.2-6.6-0.3c0,0-3.7,9.3,3,11.8c6.7,2.5,18.7,2.9,20.1-0.1
				C172.3,337.2,161.8,332.5,153.8,330z"/>
			<path class="st9" d="M197.8,323.5c0,0-0.7,4.5-5,3.9c0,0,1.3,11.8,7.8,8.9c6.5-2.8,16.3-11.6,16-15.3
				C216.4,315.6,205.5,319.6,197.8,323.5z"/>
			<path class="st23" d="M105.3,235c0,0-7.6,24.4,16.1,27.4c23.6,3,24.7,7.1,23.3,10.4c-1.4,3.3-5.1,12-5.1,12s35.5,5.7,45.8-13.3
				c0,0-1.1-29.5-37.6-41.3C147.8,230.2,128,240.6,105.3,235z"/>
			<path class="st24" d="M119.2,173.4c-6.6,5.5-12.8,20.1-13.9,61.6c-0.2,9.1,46.3,4.5,42.3-3.7c-13.3-27.3,10.5-37.7-3.7-56.5
				C143.9,174.8,132.3,162.5,119.2,173.4z"/>
			<path class="st20" d="M129,157.7c0,0,2.4,6.3,0,10.4c-1.5,2.6,9.9,11.3,9.7,7.8c-0.3-4.5-2.4-7.2,0-12.3L129,157.7z"/>
			<path class="st21" d="M138.9,146.9c3.6,3.8,6.9,19.7,2.8,23c-1.8,1.4-8.9-0.6-13.1-7.8c-1.7-2.9-3.8-8.4-0.6-13.6
				C129.4,146.1,134.7,142.5,138.9,146.9z"/>
			<path class="st9" d="M141.8,149.4c0.3,2.1,0.3,3.4-4.6,2.7c-6-0.8-5.2,3.4-4.6,4.8c1.6,4.3-5.7,1.4-3.8,6.5
				c1.9,5.1-2.7,0.9-3.3,0.1c-0.5-0.8-3.7-7.9,0.1-14.9C129.4,141.6,140.9,142.8,141.8,149.4z"/>
			<g>
				<rect x="128.6" y="239.1" class="st25" width="56.4" height="4.3"/>
				<polygon class="st9" points="150.5,243.4 190.7,243.4 196.6,217 158.5,217 				"/>
			</g>
			<g>
				<path class="st20" d="M145.6,243.8c0,0,13.2,4.3,9,5.5c-4.2,1.1-7.8,1.9-12.4-3.1L145.6,243.8z"/>
				<path class="st22" d="M127.7,180.9c-0.8-2.2-3.4-6.6-7-2.7c-5.6,6.2-5.9,33.5-4.2,39.4c1.7,5.9,26,29.3,26,29.3s3.6-0.1,3.6-3.7
					l-21-28.6C125.2,214.7,130.5,188.6,127.7,180.9z"/>
			</g>
		</g>
	</g>
	<g>
		<g>
			<path class="st4" d="M41.8,152.5v-7.9c-5.4-0.2-10.7-1.7-13.7-3.6l2.4-9.7c3.4,1.9,8.2,3.6,13.4,3.6c4.6,0,7.7-1.8,7.7-5.1
				c0-3.1-2.6-5.1-8.6-7.2c-8.6-3-14.5-7.1-14.5-15.1c0-7.3,5-13,13.6-14.7V85h7.9v7.3c5.4,0.2,9,1.4,11.7,2.7l-2.3,9.3
				c-2.1-0.9-5.8-2.8-11.6-2.8c-5.2,0-6.9,2.3-6.9,4.6c0,2.7,2.8,4.5,9.7,7.1c9.6,3.5,13.5,8,13.5,15.5c0,7.4-5.1,13.6-14.4,15.3
				v8.4H41.8z"/>
		</g>
	</g>
	<g>
		<g>
			<g>
				<g>
					<path class="st6" d="M675.6,138.6c3-0.6,9.2-1.1,14.9-1.1c7,0,11.3,0.7,15.1,2.9c3.6,1.9,6.1,5.4,6.1,10
						c0,4.5-2.6,8.8-8.4,10.9v0.2c5.8,1.6,10.1,6,10.1,12.6c0,4.6-2.1,8.2-5.3,10.8c-3.7,2.9-9.9,4.6-20,4.6
						c-5.7,0-9.9-0.4-12.5-0.8V138.6z M687,158.1h3.8c6.1,0,9.3-2.5,9.3-6.3c0-3.9-2.9-5.9-8.2-5.9c-2.5,0-3.9,0.2-4.9,0.3V158.1z
						 M687,180.7c1.1,0.2,2.5,0.2,4.5,0.2c5.2,0,9.8-2,9.8-7.3c0-5.1-4.6-7.2-10.4-7.2H687V180.7z"/>
				</g>
			</g>
			<rect x="681.4" y="130.2" class="st6" width="5.4" height="12.7"/>
			<rect x="692.9" y="130.2" class="st6" width="5.4" height="12.7"/>
			<rect x="681.4" y="183.2" class="st6" width="5.4" height="12.7"/>
			<rect x="692.9" y="183.2" class="st6" width="5.4" height="12.7"/>
		</g>
	</g>
	<g>
		<g>
			<path class="st4" d="M671.3,368.5v-7.9c-5.4-0.2-10.7-1.7-13.7-3.6l2.4-9.7c3.4,1.9,8.2,3.6,13.4,3.6c4.6,0,7.7-1.8,7.7-5.1
				c0-3.1-2.6-5.1-8.6-7.2c-8.6-3-14.5-7.1-14.5-15.1c0-7.3,5-13,13.6-14.7V301h7.9v7.3c5.4,0.2,9,1.4,11.7,2.7l-2.3,9.3
				c-2.1-0.9-5.8-2.8-11.6-2.8c-5.2,0-6.9,2.3-6.9,4.6c0,2.7,2.8,4.5,9.7,7.1c9.6,3.5,13.5,8,13.5,15.5c0,7.4-5.1,13.6-14.4,15.3
				v8.4H671.3z"/>
		</g>
	</g>
</g>
</svg>
