<?xml version="1.0" encoding="utf-8"?>
<!-- Generator: Adobe Illustrator 26.1.0, SVG Export Plug-In . SVG Version: 6.00 Build 0)  -->
<svg version="1.1" id="Layer_1" xmlns="http://www.w3.org/2000/svg" xmlns:xlink="http://www.w3.org/1999/xlink" x="0px" y="0px"
	 viewBox="0 0 333.89 310.85" style="enable-background:new 0 0 333.89 310.85;" xml:space="preserve">
<g>
	<g>
		<g>
			<path style="fill:#203F54;" d="M93.2,292.84c-1.41,0-2.75-0.68-3.58-1.85L0.81,165.61c-0.88-1.24-1.05-2.83-0.46-4.23L60.8,17.33
				c0.63-1.5,2.04-2.53,3.65-2.67L224.17,0.48c1.56-0.13,3.07,0.56,3.97,1.83l90.31,127.62c0.91,1.29,1.06,2.97,0.39,4.4
				L252.4,275.4c-0.66,1.4-2.01,2.35-3.55,2.5L93.62,292.82C93.48,292.83,93.34,292.84,93.2,292.84z M9.37,162.52l85.94,121.33
				l150.22-14.45l64.27-136.49L222.43,9.44L67.86,23.17L9.37,162.52z"/>
			<path style="fill:#203F54;" d="M248.44,277.91c-0.49,0-0.98-0.08-1.46-0.25l-117.36-41.42c-0.22-0.08-0.43-0.17-0.64-0.28
				L2.29,166.92c-1.24-0.67-2.07-1.9-2.25-3.29c-0.18-1.4,0.33-2.79,1.35-3.75l94.78-88.81c0.26-0.25,0.56-0.46,0.87-0.64
				L222.43,1.01c1.21-0.67,2.66-0.73,3.92-0.16c1.26,0.56,2.18,1.68,2.48,3.03l27.99,123.14c0.08,0.36,0.12,0.73,0.11,1.1
				l-4.1,145.54c-0.04,1.4-0.75,2.7-1.9,3.49C250.18,277.65,249.31,277.91,248.44,277.91z M132.86,228.09l111.36,39.3l3.92-138.97
				L221.57,11.51l-119.8,66.32l-89.96,84.29L132.86,228.09z"/>
			<path style="fill:#203F54;" d="M131.07,236.49c-0.48,0-0.96-0.08-1.43-0.24c-1.47-0.51-2.56-1.75-2.87-3.28L94.87,75.13
				c-0.31-1.55,0.23-3.14,1.42-4.17c1.19-1.03,2.84-1.35,4.33-0.83l153.37,53.73c1.48,0.52,2.57,1.79,2.86,3.33
				c0.29,1.54-0.27,3.12-1.46,4.14L133.93,235.44C133.12,236.13,132.11,236.49,131.07,236.49z M105,80.95l28.9,142.97l110.02-94.3
				L105,80.95z"/>
			<path style="fill:#203F54;" d="M99.17,78.64c-1.47,0-2.9-0.73-3.73-2.07L61.11,21.35c-1.28-2.06-0.65-4.76,1.41-6.04
				c2.05-1.29,4.76-0.65,6.04,1.41l34.33,55.23c1.28,2.06,0.65,4.76-1.41,6.04C100.77,78.43,99.96,78.64,99.17,78.64z"/>
			<path style="fill:#203F54;" d="M314.86,136.86c-0.1,0-0.21,0-0.32-0.01l-62.32-4.48c-2.41-0.17-4.23-2.27-4.06-4.69
				c0.17-2.42,2.24-4.22,4.69-4.06l62.32,4.48c2.41,0.17,4.23,2.27,4.06,4.69C319.07,135.1,317.14,136.86,314.86,136.86z"/>
			<path style="fill:#203F54;" d="M93.19,292.84c-0.84,0-1.69-0.24-2.44-0.75c-2.01-1.35-2.54-4.08-1.19-6.08l37.88-56.35
				c1.36-2.01,4.08-2.54,6.09-1.19c2.01,1.35,2.54,4.08,1.19,6.09L96.84,290.9C95.99,292.16,94.61,292.84,93.19,292.84z"/>
		</g>
	</g>
	<path style="fill:#203F54;" d="M93.76,292.91c-0.15,0-0.3-0.03-0.44-0.09c-0.33-0.14-0.57-0.43-0.64-0.78L65.82,161.06
		c-0.01-0.07-0.02-0.15-0.02-0.22V18.1c0-0.35,0.16-0.67,0.44-0.88c0.28-0.21,0.64-0.27,0.97-0.17l123.98,36.94
		c0.09,0.03,0.18,0.07,0.26,0.12l123.98,76.13c0.3,0.18,0.49,0.49,0.52,0.84c0.03,0.34-0.1,0.69-0.36,0.91l-92.36,82.28
		l-128.9,78.48C94.15,292.86,93.96,292.91,93.76,292.91z M67.99,160.72l26.53,129.34l127.41-77.55l91.1-81.19L190.42,56.05
		L67.99,19.57V160.72z"/>
	<path style="fill:#203F54;" d="M222.5,214.55c-0.12,0-0.24-0.02-0.35-0.06L66.54,161.87c-0.37-0.13-0.65-0.44-0.73-0.83
		s0.06-0.79,0.37-1.04L190.16,54.21c0.3-0.25,0.7-0.33,1.07-0.2c0.37,0.13,0.64,0.44,0.72,0.82l31.63,158.41
		c0.08,0.38-0.06,0.78-0.35,1.04C223.02,214.45,222.76,214.55,222.5,214.55z M69.07,160.42l151.98,51.39L190.16,57.09L69.07,160.42z
		"/>
	<circle style="fill:#56B99C;" cx="66.89" cy="19.03" r="19.03"/>
	<circle style="fill:#56B99C;" cx="222.5" cy="215.69" r="19.03"/>
	<circle style="fill:#F6604F;" cx="314.86" cy="130.23" r="19.03"/>
	<circle style="fill:#F6604F;" cx="68.94" cy="161.21" r="19.03"/>
	<circle style="fill:#F2BB54;" cx="190.87" cy="55.04" r="19.03"/>
	<circle style="fill:#F2BB54;" cx="93.2" cy="291.82" r="19.03"/>
</g>
</svg>
