<?xml version="1.0" encoding="utf-8"?>
<!-- Generator: Adobe Illustrator 26.1.0, SVG Export Plug-In . SVG Version: 6.00 Build 0)  -->
<svg version="1.1" id="Layer_1" xmlns="http://www.w3.org/2000/svg" xmlns:xlink="http://www.w3.org/1999/xlink" x="0px" y="0px"
	 viewBox="0 0 289.9 71.45" style="enable-background:new 0 0 289.9 71.45;" xml:space="preserve">
<g>
	<path style="fill:#3E1BDA;" d="M21.33,64.46c2.13-1.09,4.2-2.16,6.3-3.18c0.22-0.11,0.63,0.06,0.89,0.2
		c5,2.63,10.33,3.67,15.95,3.29c13.54-0.91,25.11-11.96,26.63-25.45c0.28-2.44,0.3-4.87-0.04-7.48
		C47.37,43.92,23.78,55.95,0.02,68.06c0-1.39,0-2.61,0-3.84c0-0.91,0.05-1.82-0.02-2.72c-0.05-0.63,0.28-0.86,0.75-1.1
		c7.04-3.58,14.07-7.17,21.1-10.75C42.34,39.2,62.83,28.76,83.31,18.31c0.27-0.14,0.54-0.27,0.9-0.44c0.04,0.28,0.09,0.48,0.09,0.68
		c0.01,1.95-0.01,3.91,0.02,5.86c0.01,0.52-0.18,0.79-0.64,1c-0.94,0.45-1.89,0.91-2.78,1.45c-2.13,1.29-3.24,3.22-3.16,5.69
		c0.11,3.26,0.12,6.5-0.55,9.7c-2.59,12.39-9.61,21.36-21.27,26.25c-11.78,4.94-23.19,3.58-33.9-3.41
		c-0.18-0.12-0.36-0.25-0.53-0.39C21.45,64.67,21.43,64.61,21.33,64.46z"/>
	<path style="fill:#3E1BDA;" d="M13.2,39.5C36.97,27.38,60.55,15.35,84.3,3.24c0,0.87,0,1.57,0,2.27c0,1.38-0.04,2.75,0.02,4.13
		c0.03,0.69-0.24,1.01-0.83,1.31c-11.21,5.69-22.4,11.41-33.6,17.12C33.6,36.37,17.3,44.68,1,52.99c-0.26,0.14-0.53,0.26-0.89,0.44
		c-0.04-0.29-0.09-0.5-0.09-0.7c-0.01-1.95,0.01-3.91-0.01-5.86c-0.01-0.48,0.13-0.76,0.58-0.96c0.7-0.31,1.38-0.69,2.07-1.03
		c2.82-1.4,4.14-3.67,3.94-6.82c-0.2-3.12,0.01-6.21,0.58-9.28C9.84,14.51,21.7,2.88,36.01,0.53c9.5-1.56,18.26,0.33,26.27,5.68
		c0.18,0.12,0.36,0.26,0.53,0.39c0.04,0.03,0.06,0.09,0.13,0.22c-0.23,0.13-0.45,0.27-0.68,0.39c-1.64,0.84-3.3,1.65-4.92,2.53
		c-0.65,0.35-1.15,0.33-1.81,0c-7.86-3.96-15.94-4.37-24.12-1.2C20.07,12.94,12.7,24.16,13.03,36.34
		C13.05,37.32,13.13,38.31,13.2,39.5z"/>
	<path style="fill:#090021;" d="M148.21,23.02c-0.24,0.03-0.45,0.07-0.66,0.07c-1.82,0.01-3.63,0.02-5.45-0.02
		c-0.28-0.01-0.72-0.23-0.81-0.46c-1.41-3.87-4.36-5.89-8.18-6.83c-3.7-0.91-7.33-0.68-10.79,0.98c-2.35,1.13-3.97,2.86-4.1,5.62
		c-0.13,2.88,1.2,4.94,3.63,6.37c1.96,1.15,4.16,1.53,6.32,2.08c3.7,0.94,7.42,1.83,11.07,2.95c2.6,0.79,4.89,2.23,6.8,4.23
		c4.09,4.28,3.87,11.23,1.44,15.31c-2.49,4.17-6.32,6.43-10.88,7.54c-5.91,1.45-11.75,1.2-17.32-1.46
		c-5.55-2.66-8.64-7.22-9.79-13.18c-0.06-0.32-0.1-0.65-0.17-1.08c0.29-0.02,0.55-0.04,0.81-0.04c1.76,0,3.52,0.02,5.28-0.02
		c0.63-0.01,0.89,0.16,1.04,0.81c0.72,3.14,2.2,5.85,5.02,7.55c1.25,0.76,2.66,1.36,4.08,1.69c3.88,0.92,7.77,0.84,11.49-0.77
		c3.56-1.53,5.33-4.75,4.76-8.53c-0.31-2.09-1.47-3.64-3.21-4.78c-2.39-1.57-5.11-2.27-7.85-2.89c-2.44-0.55-4.9-1.02-7.33-1.63
		c-3.05-0.77-5.88-2.02-8.27-4.12c-5.97-5.23-5.53-14.54,0.9-19.22c3.69-2.68,7.9-3.79,12.39-3.92c4.45-0.14,8.72,0.61,12.57,3
		c3.89,2.41,6.16,5.95,7.19,10.35C148.23,22.75,148.21,22.86,148.21,23.02z"/>
	<path style="fill:#090021;" d="M206.34,44.09c-9.56,0-19.09,0-28.71,0c-0.07,1.98,0.33,3.76,1.11,5.44c3.4,7.34,11.97,7.86,16.74,5
		c1.58-0.95,2.71-2.32,3.5-3.96c0.24-0.49,0.51-0.67,1.06-0.66c1.89,0.04,3.79,0.01,5.79,0.01c-0.43,1.76-1.15,3.29-2.13,4.68
		c-2.9,4.12-6.96,6.28-11.89,6.92c-2.67,0.35-5.33,0.23-7.94-0.44c-5.2-1.35-9.01-4.46-11.15-9.37c-2.63-6.05-2.82-12.26-0.27-18.37
		c2.89-6.92,9.07-10.77,16.6-10.72c8.63,0.06,14.6,5.58,16.62,13.6C206.33,38.76,206.55,41.35,206.34,44.09z M199.58,38.63
		c0.4-5.54-4.75-10.62-10.74-10.58c-7.53,0.04-11,5.3-11.13,10.58C184.99,38.63,192.26,38.63,199.58,38.63z"/>
	<path style="fill:#090021;" d="M266.14,60.81c-2.03,0-4,0.01-5.98-0.02c-0.15,0-0.4-0.33-0.43-0.54c-0.15-1.03-0.24-2.07-0.34-3.11
		c-0.04-0.38-0.07-0.76-0.1-1.19c-0.13,0.06-0.22,0.07-0.25,0.11c-2.07,3.26-5.15,4.85-8.86,5.38c-3.25,0.47-6.47,0.4-9.6-0.78
		c-5.57-2.1-8.36-7.96-6.32-13.24c0.73-1.9,2.05-3.3,3.71-4.41c2.94-1.96,6.27-2.94,9.68-3.59c3.43-0.66,6.89-1.13,10.35-1.61
		c0.79-0.11,1.06-0.38,0.94-1.13c-0.19-1.27-0.21-2.59-0.55-3.82c-0.77-2.81-2.71-4.46-5.55-5.02c-1.83-0.36-3.67-0.33-5.48,0.17
		c-2.94,0.81-4.68,2.74-5.28,5.72c-0.09,0.43-0.15,0.86-0.23,1.31c-2.14,0-4.24,0-6.43,0c0.05-2.05,0.65-3.89,1.66-5.57
		c2.43-4.03,6.17-6.08,10.7-6.8c2.88-0.46,5.76-0.23,8.59,0.49c4.38,1.13,7.16,3.93,8.14,8.3c0.5,2.26,0.69,4.62,0.74,6.95
		c0.11,4.78-0.04,9.57,0.07,14.36c0.05,2.38,0.44,4.76,0.68,7.13C266.05,60.18,266.09,60.45,266.14,60.81z M259.39,42.58
		c-3.38,0.53-6.66,0.93-9.88,1.6c-1.92,0.4-3.79,1.12-5.6,1.9c-1.41,0.6-2.52,1.67-3.01,3.22c-0.96,3.08,0.88,6.26,4.28,6.99
		c1.58,0.34,3.29,0.37,4.9,0.21c3.84-0.39,6.83-2.19,8.39-5.89C259.52,48.12,259.5,45.48,259.39,42.58z"/>
	<path style="fill:#090021;" d="M162.82,13.8c0,3.19,0,6.24,0,9.37c0.36,0.02,0.65,0.05,0.94,0.05c1.82,0,3.63,0.02,5.45-0.01
		c0.54-0.01,0.72,0.18,0.71,0.71c-0.03,1.24-0.03,2.48,0,3.71c0.01,0.55-0.19,0.71-0.72,0.7c-1.79-0.03-3.58-0.01-5.37-0.01
		c-0.3,0-0.59,0-0.97,0c-0.02,0.34-0.05,0.6-0.05,0.86c0,7.32,0,14.64,0.01,21.96c0,0.71,0.04,1.43,0.15,2.14
		c0.21,1.34,0.79,1.95,2.16,2.09c1.25,0.13,2.53,0.14,3.79,0.1c0.82-0.03,1.04,0.26,1,1.03c-0.06,1.21,0.01,2.42-0.04,3.63
		c-0.01,0.23-0.3,0.65-0.45,0.65c-2.72-0.06-5.45-0.06-8.15-0.32c-2.39-0.23-3.91-1.7-4.35-4.09c-0.25-1.37-0.42-2.78-0.43-4.18
		c-0.05-7.57-0.03-15.13-0.03-22.7c0-0.35,0-0.7,0-1.14c-1.98,0-3.87,0-5.83,0c0-1.73,0-3.39,0-5.13c1.92,0,3.81,0,5.83,0
		c0-0.4,0-0.72,0-1.04c0-2.53,0.02-5.06-0.01-7.59c-0.01-0.6,0.17-0.83,0.79-0.81C159.07,13.82,160.88,13.8,162.82,13.8z"/>
	<path style="fill:#090021;" d="M229.36,60.81c-1.97,0-3.86,0.01-5.76-0.02c-0.17,0-0.39-0.28-0.47-0.48
		c-0.08-0.18-0.02-0.43-0.02-0.65c0-16.12,0-32.24,0-48.35c0-0.35,0-0.7,0-1.1c2.13,0,4.15,0,6.25,0
		C229.36,27.04,229.36,43.87,229.36,60.81z"/>
	<path style="fill:#090021;" d="M216.73,10.21c0,16.87,0,33.68,0,50.55c-2.07,0-4.09,0-6.19,0c0-16.84,0-33.67,0-50.55
		C212.58,10.21,214.6,10.21,216.73,10.21z"/>
	<path style="fill:#090021;" d="M289.9,29.61c-1.37,0-2.69-0.02-4,0c-4.2,0.08-6.79,2.09-7.67,6.2c-0.39,1.84-0.55,3.76-0.57,5.65
		c-0.07,6.05-0.03,12.11-0.03,18.16c0,0.35,0,0.71,0,1.12c-2.1,0-4.12,0-6.26,0c-0.02-0.26-0.06-0.55-0.06-0.84
		c0-11.94,0-23.89-0.02-35.83c0-0.68,0.19-0.9,0.88-0.88c1.73,0.05,3.46,0.02,5.3,0.02c0,2.06,0,4.05,0,6.03
		c0.06,0.04,0.12,0.07,0.17,0.11c2.64-4.92,6.91-6.57,12.24-6.3C289.9,25.33,289.9,27.52,289.9,29.61z"/>
</g>
</svg>
