<?xml version="1.0" encoding="utf-8"?>
<!-- Generator: Adobe Illustrator 26.3.1, SVG Export Plug-In . SVG Version: 6.00 Build 0)  -->
<svg version="1.1" id="Layer_1" xmlns="http://www.w3.org/2000/svg" xmlns:xlink="http://www.w3.org/1999/xlink" x="0px" y="0px"
	 viewBox="0 0 267 232.9" style="enable-background:new 0 0 267 232.9;" xml:space="preserve">
<style type="text/css">
	.st0{fill:#0E5AA8;}
	.st1{fill:#97A6B7;}
	.st2{opacity:0.3;fill:#D8DEE8;enable-background:new    ;}
	.st3{fill:#F6961D;}
	.st4{opacity:0.6;fill:#FFFFFF;enable-background:new    ;}
	.st5{fill:url(#SVGID_1_);}
	.st6{fill:#FFFFFF;}
	.st7{fill:#E42D31;}
	.st8{fill:#493483;}
	.st9{fill:#D8DEE8;}
	.st10{fill:url(#SVGID_00000029758579529483414570000008173942419243177356_);}
	.st11{fill:url(#SVGID_00000150070403595525998400000006020067632112689312_);}
	.st12{opacity:0.3;fill:url(#SVGID_00000078724215465979350330000001091779337731990954_);enable-background:new    ;}
	.st13{fill:url(#SVGID_00000087385341344930024180000008763809375529889686_);}
	.st14{fill:url(#SVGID_00000034801363185465493200000007855521972935411890_);}
	.st15{fill:url(#SVGID_00000169556805196313320450000004929736873716077466_);}
	.st16{opacity:0.3;}
	.st17{fill:url(#SVGID_00000097476239635493026970000017300823310499852724_);}
	.st18{fill:url(#SVGID_00000032642406447968559790000010260015537098652821_);}
	.st19{fill:#F27120;}
	.st20{opacity:0.48;fill:#FFFFFF;enable-background:new    ;}
	.st21{clip-path:url(#SVGID_00000132066699168880511940000016625447620793108132_);}
	.st22{fill:url(#SVGID_00000114048954054497331130000012881227260115958426_);}
	.st23{fill:url(#SVGID_00000069396346163094271300000018160461543072278150_);}
	.st24{fill:url(#SVGID_00000008107303568819390140000007636029746580547495_);}
	.st25{fill:url(#SVGID_00000059277159116989686020000014983937522365581221_);}
	.st26{fill:url(#SVGID_00000105391083568386565030000001068076112421649832_);}
	.st27{opacity:0.3;fill:url(#SVGID_00000150814581256776663920000010878714503264045735_);enable-background:new    ;}
	.st28{fill:#F4F7FA;}
</style>
<g>
	<g>
		<path class="st0" d="M59.5,199.2l1.2,7.9l-21.5,24.7l-7.5,0.4l6.5-19.8c0,0,4-2.9-5.4-2.2L1.3,219l0.2-2l37-15.3
			C38.5,201.6,51.1,199.9,59.5,199.2z"/>
		<g>
			<g>
				<path class="st1" d="M10,207.3c-5.1,0.2-9.2-3.1-9.2-7.4L1.1,44.7c0-4.3,4.2-7.5,9.2-7.1L239,55.1c3.5,0.3,6.4,3.4,6.4,7
					L245,190.6c0,3.6-2.9,6.6-6.4,6.7L10,207.3z"/>
				<path class="st0" d="M12.1,207.4c-5.1,0.2-9.2-3.1-9.2-7.4L3.2,44.8c0-4.3,4.2-7.5,9.2-7.1L241,55.2c3.5,0.3,6.4,3.4,6.4,7
					L247,190.7c0,3.6-2.9,6.6-6.4,6.7L12.1,207.4z"/>
				<path class="st2" d="M241.1,58.2L12.5,41.3c-2.7-0.2-4.9,1.5-4.9,3.8L7.3,165.7l-0.1,34.1c0,2.3,2.2,4.1,4.9,4l228.6-9.5
					c1.9-0.1,3.4-1.7,3.4-3.6l0.1-29.4l0.3-99.4C244.5,60,243,58.3,241.1,58.2z"/>
				<path class="st3" d="M12.1,190.6c-1.1,0-1.9-0.7-1.9-1.6l0.3-143.7c0-0.9,0.9-1.6,1.9-1.5L241,60.3c0.7,0.1,1.3,0.7,1.3,1.5
					L242,181.9c0,0.7-0.6,1.4-1.3,1.4L12.1,190.6z"/>
			</g>
			<path class="st4" d="M217.4,187.6c-18.9-12.2-5.6-45.5-26.8-62.9c-21.5-17.6-52,2.6-67.2-15.5c-11.3-13.6,2-29.2-8.8-42
				c-17-20.1-61.1,5.5-81.5-14.5c-2.9-2.9-5.8-7.1-7.5-13.9l-13.2-1c-5.1-0.4-9.2,2.8-9.2,7.1L2.9,200c0,4.3,4.1,7.6,9.2,7.4
				l228.6-10c3.5-0.2,6.4-3.2,6.4-6.7v-2.3C232.3,193.1,223.2,191.3,217.4,187.6z"/>
		</g>
		<path class="st0" d="M204.4,198.6l0.4,3.5l19.5,11.9l3-2.2l-11.6-10.4c0,0-2.3-0.7,1.1-1.4l10.9-0.1l-0.8-0.6l-14.1-1.7
			C212.8,197.6,208,198.1,204.4,198.6z"/>
	</g>
	<g>
		<g>
			
				<linearGradient id="SVGID_1_" gradientUnits="userSpaceOnUse" x1="89.0915" y1="230.3793" x2="-10.4947" y2="36.0644" gradientTransform="matrix(1 0 0 -1 0 233.8898)">
				<stop  offset="0" style="stop-color:#311944"/>
				<stop  offset="1" style="stop-color:#893976"/>
			</linearGradient>
			<path class="st5" d="M96.9,7.1L24.5,2l-0.7-1.3h-0.3c-3.4-0.2-6.2,2.2-6.2,5.5v108.5c0,3.3,2.8,5.9,6.2,5.9h1l0.3-0.6l71.7-1.7
				c3.1,0,6.1-0.2,6.1-3.3V11.8C102.7,8.7,100.1,7.3,96.9,7.1z"/>
		</g>
		<g>
			<g>
				<path class="st0" d="M98.3,5.8L24.7,0.7c-3.4-0.2-6.2,2.2-6.2,5.5v108.5c0,3.3,2.8,5.9,6.2,5.9h73.5c3.1,0,5.7-2.5,5.7-5.6V11.8
					C103.9,8.7,101.4,6,98.3,5.8z"/>
			</g>
		</g>
		<polygon class="st6" points="97.7,25.1 25.4,21 25.4,9.3 97.7,13.9 		"/>
		<polygon class="st6" points="97.7,87.3 25.4,85.9 25.4,80.7 97.7,82.4 		"/>
		<polygon class="st6" points="97.7,96.3 25.4,95.2 25.4,90.1 97.7,91.3 		"/>
		<polygon class="st6" points="97.7,105.2 25.4,104.5 25.4,99.4 97.7,100.3 		"/>
		<polygon class="st6" points="97.7,69.8 25.4,67.6 25.4,25.5 97.7,29.5 		"/>
		<g>
			<path class="st7" d="M74.5,47.8c0,6.5-5.4,11.7-12.2,11.4C55.5,59,50,53.4,50,46.7c0-6.6,5.5-11.7,12.3-11.4
				C69,35.7,74.5,41.2,74.5,47.8z"/>
			<path class="st6" d="M68.4,46.6l-8.5-5.3c-0.7-0.4-1.6,0-1.6,0.8V52c0,0.8,0.9,1.3,1.6,1l8.5-4.6C69.1,48,69.1,47.1,68.4,46.6z"
				/>
		</g>
	</g>
	<g>
		<g>
			<g>
				<path class="st8" d="M233.9,141.1l-35.4-2.5c-1.7-0.1-3,1.1-3,2.7V172c0,1.6,1.3,2.9,3,2.9h35.4c1.5,0,2.7-1.2,2.7-2.7V144
					C236.6,142.5,235.4,141.2,233.9,141.1z"/>
			</g>
		</g>
		<polygon class="st6" points="233.6,168.7 198.8,168.4 198.8,165.9 233.6,166.3 		"/>
		<polygon class="st6" points="233.6,164 198.8,162.9 198.8,142.6 233.6,144.6 		"/>
		<g>
			<g>
				<path class="st8" d="M223.7,147.1l-18.7-0.8c-0.3,0-0.6,0.1-0.8,0.3s-0.4,0.5-0.4,0.8l-0.1,11.8c0,0.4,0.2,0.8,0.5,1.1
					s0.6,0.4,1,0.4c0,0,0,0,0.1,0l18.4-0.2c0.8,0,1.4-0.6,1.4-1.4l0.1-10.6C225.2,147.8,224.5,147.2,223.7,147.1z M223.8,148.9
					l-6.7,5.8c-0.4,0.4-1,0.6-1.6,0.6c-0.5,0-0.9-0.2-1.3-0.5l-8.8-6.4c-0.1-0.1-0.2-0.3-0.1-0.5c0.1-0.1,0.3-0.2,0.5-0.1l8.8,6.4
					c0.6,0.5,1.5,0.4,2.1-0.1l6.7-5.8c0.1-0.1,0.3-0.1,0.4,0C224,148.5,224,148.8,223.8,148.9z"/>
			</g>
		</g>
	</g>
	<g>
		<g>
			<path class="st9" d="M185.7,29.7l-65.3-4.5c-3-0.2-5.5,2-5.4,4.9l1,56.5c0.1,2.9,2.6,5.3,5.6,5.3h65.2c2.8,0,5-2.2,4.9-5
				L190.8,35C190.7,32.3,188.5,29.9,185.7,29.7z"/>
		</g>
		<polygon class="st6" points="185.9,71.7 121.7,69.8 121.1,32.4 185.3,36 		"/>
		<g>
			<g>
				
					<linearGradient id="SVGID_00000183213854979794711300000002155286317115719051_" gradientUnits="userSpaceOnUse" x1="62.9511" y1="193.9329" x2="65.4109" y2="193.0193" gradientTransform="matrix(1 0 0 -1 83.1186 233.8898)">
					<stop  offset="0" style="stop-color:#444B8C"/>
					<stop  offset="0.9964" style="stop-color:#26264F"/>
				</linearGradient>
				<path style="fill:url(#SVGID_00000183213854979794711300000002155286317115719051_);" d="M159.3,46.7c-0.1,0-0.3-0.1-0.3-0.3
					c-0.2-2.6-1.1-5-2.4-6.9c-1.1-1.7-2.5-2.6-3.6-2.6l0,0c-4.1,0-5,9.5-5,9.6c0,0.2-0.1,0.3-0.3,0.3s-0.3-0.1-0.3-0.3
					c0-0.4,0.9-10.1,5.5-10.1l0,0c1.3,0,2.8,1.1,4.1,2.9c1.3,2,2.2,4.5,2.5,7.2C159.5,46.5,159.4,46.7,159.3,46.7L159.3,46.7z"/>
				
					<linearGradient id="SVGID_00000054988727095281559010000002360106873803300237_" gradientUnits="userSpaceOnUse" x1="56.1415" y1="185.6167" x2="62.9933" y2="174.1267" gradientTransform="matrix(1 0 0 -1 83.1186 233.8898)">
					<stop  offset="0" style="stop-color:#AA80F9"/>
					<stop  offset="0.9964" style="stop-color:#6165D7"/>
				</linearGradient>
				<path style="fill:url(#SVGID_00000054988727095281559010000002360106873803300237_);" d="M142.1,66.1l5.4,2.7l3.3-10.1
					l-5.4-13.5l-1.5,0.4L141.6,65C141.5,65.5,141.7,65.9,142.1,66.1z"/>
				
					<linearGradient id="SVGID_00000123424231757089009010000002425220501815855549_" gradientUnits="userSpaceOnUse" x1="57.154" y1="186.2205" x2="64.0059" y2="174.7305" gradientTransform="matrix(1 0 0 -1 83.1186 233.8898)">
					<stop  offset="0" style="stop-color:#AA80F9"/>
					<stop  offset="0.9964" style="stop-color:#6165D7"/>
				</linearGradient>
				
					<path style="opacity:0.3;fill:url(#SVGID_00000123424231757089009010000002425220501815855549_);enable-background:new    ;" d="
					M150.8,58.8l-5.4-13.5l-0.9,0.2c-0.1,1.8-0.1,3.3,0,4.4c0.4,4.6,1.6,5.9,1,9.1c-0.5,2.7-1.5,3-1.5,4.8c0.1,2,1.5,3.6,3.1,4.9
					l0.4,0.2L150.8,58.8z"/>
				
					<linearGradient id="SVGID_00000095310883429507702940000012479860134625862562_" gradientUnits="userSpaceOnUse" x1="68.0244" y1="180.9559" x2="87.3149" y2="166.0927" gradientTransform="matrix(1 0 0 -1 83.1186 233.8898)">
					<stop  offset="0" style="stop-color:#AA80F9"/>
					<stop  offset="0.9964" style="stop-color:#6165D7"/>
				</linearGradient>
				<polygon style="fill:url(#SVGID_00000095310883429507702940000012479860134625862562_);" points="145.4,45.3 165.6,45.3 
					172.3,66.9 147.5,68.9 				"/>
				
					<linearGradient id="SVGID_00000097461573794083640070000007887335727086128047_" gradientUnits="userSpaceOnUse" x1="67.4673" y1="187.0667" x2="67.784" y2="186.949" gradientTransform="matrix(1 0 0 -1 83.1186 233.8898)">
					<stop  offset="0" style="stop-color:#444B8C"/>
					<stop  offset="0.9964" style="stop-color:#26264F"/>
				</linearGradient>
				<path style="fill:url(#SVGID_00000097461573794083640070000007887335727086128047_);" d="M152.4,47.2c0,0.4-0.4,0.8-0.8,0.8
					s-0.8-0.4-0.8-0.8c0-0.4,0.4-0.8,0.8-0.8S152.4,46.8,152.4,47.2z"/>
				
					<linearGradient id="SVGID_00000148619552394679464900000015147571558741229463_" gradientUnits="userSpaceOnUse" x1="71.808" y1="198.285" x2="73.7758" y2="185.7402" gradientTransform="matrix(1 0 0 -1 83.1186 233.8898)">
					<stop  offset="0" style="stop-color:#444B8C"/>
					<stop  offset="0.9964" style="stop-color:#26264F"/>
				</linearGradient>
				<path style="fill:url(#SVGID_00000148619552394679464900000015147571558741229463_);" d="M151.7,47.1c-0.1,0-0.2-0.1-0.3-0.2
					c-0.1-0.2-1.4-6,0.5-8.9c0.5-0.8,1.3-1.3,2.2-1.5c4.8-0.9,7.8,9.5,7.9,10c0,0.1,0,0.3-0.2,0.3c-0.1,0-0.3,0-0.3-0.2
					c0-0.1-3-10.4-7.3-9.6c-0.8,0.1-1.4,0.5-1.9,1.2c-1.7,2.6-0.4,8.4-0.4,8.4C152,47,151.9,47.1,151.7,47.1L151.7,47.1z"/>
				<g class="st16">
					
						<linearGradient id="SVGID_00000011716448232489930300000006312999131852898723_" gradientUnits="userSpaceOnUse" x1="68.2776" y1="181.2846" x2="87.5681" y2="166.4214" gradientTransform="matrix(1 0 0 -1 83.1186 233.8898)">
						<stop  offset="0" style="stop-color:#AA80F9"/>
						<stop  offset="0.9964" style="stop-color:#6165D7"/>
					</linearGradient>
					<path style="fill:url(#SVGID_00000011716448232489930300000006312999131852898723_);" d="M165.6,45.3h-10
						c-0.5,0.5-0.8,1.1-0.9,1.7c-0.2,3.1,6.9,4.1,7.5,8.2c0.5,3-2.5,6.5-5.2,8.1c-2.8,1.6-4.7,0.8-6.7,2.6c-0.8,0.8-1.4,1.8-1.7,2.8
						l23.6-1.9L165.6,45.3z"/>
				</g>
				
					<linearGradient id="SVGID_00000165221066395406635580000001386122682883523996_" gradientUnits="userSpaceOnUse" x1="77.7282" y1="187.1809" x2="78.0449" y2="187.0633" gradientTransform="matrix(1 0 0 -1 83.1186 233.8898)">
					<stop  offset="0" style="stop-color:#444B8C"/>
					<stop  offset="0.9964" style="stop-color:#26264F"/>
				</linearGradient>
				<path style="fill:url(#SVGID_00000165221066395406635580000001386122682883523996_);" d="M162.7,47.1c0,0.4-0.4,0.8-0.8,0.8
					s-0.8-0.4-0.8-0.8c0-0.4,0.4-0.8,0.8-0.8S162.7,46.7,162.7,47.1z"/>
			</g>
		</g>
	</g>
	<g>
		<g>
			<path class="st9" d="M23.3,123.6l56.6,0.6c2.4,0,4.4,2.1,4.4,4.6l0.6,49c0,2.5-1.9,4.6-4.3,4.6l-56.7,0.3c-2.6,0-4.8-2.1-4.8-4.8
				l-0.6-49.6C18.5,125.7,20.6,123.6,23.3,123.6z"/>
		</g>
		<polygon class="st6" points="24.2,163.7 79.9,163.1 79.5,130.5 23.8,129.6 		"/>
		<path class="st19" d="M58.3,152.6c0.9-1.4,1.5-3.2,1.7-5c0.1-1.2-0.1-2.4-0.6-3.6c-0.8-1.9-2.3-3-3.7-4c-1-0.8-2-1.6-2.7-2.6
			l-0.1-0.2c-0.4-0.6-0.9-1.3-0.9-1.9c-0.1-0.6-0.5-1-1.1-1s-1,0.5-1,1l-0.6,19.2c-0.9-0.6-1.9-1-3.1-1.1c-2.9-0.2-5.3,1.6-5.4,4
			c-0.1,2.4,2.2,4.5,5.1,4.6c2.9,0.2,5.3-1.6,5.4-4l0.4-12.6c1.6,0.7,4.1,2.4,4.7,6.2c-0.1,0.2-0.3,0.4-0.4,0.6
			c-0.4,0.4-0.4,1.1,0,1.5s1.1,0.4,1.5,0C57.8,153.4,58,153,58.3,152.6L58.3,152.6z"/>
	</g>
	<g>
		<g>
			<g>
				<path class="st9" d="M205.3,92.8L101,87.3l-0.8-1.5h-0.4c-4.1-0.3-7.5,2.7-7.5,6.6l-2.1,83.2c0,3.9,3.3,7.1,7.5,7.1h1.2l0.4-0.8
					l103.5-4.6c3.8,0,7.3-0.2,7.3-3.9l2.1-74.9C212.2,94.7,209.1,93,205.3,92.8z"/>
			</g>
			<g>
				<path class="st6" d="M204.8,180.1c3.8,0,6.8-3,6.8-6.8l2.1-74.9c0-3.7-3-7-6.8-7.2l-105.6-5.4c-4.1-0.3-7.5,2.7-7.5,6.6
					l-2.1,83.2c0,3.9,3.3,7.1,7.5,7.1L204.8,180.1z"/>
			</g>
		</g>
		<g>
			<g>
				<path class="st9" d="M203.8,171.5l-102.4,2.6c-1.6,0-2.9-1.3-2.8-3.1l2.4-75.2c0.1-1.8,1.4-3.1,3-3L206.1,97
					c1.3,0.1,2.4,1.4,2.3,3l-2.2,68.5C206.2,170.2,205.1,171.5,203.8,171.5z"/>
				<path class="st20" d="M181.7,152.3c-8.6-5.4-15.7,0.6-22.2-5.9c-3.9-4-1.8-6.7-6.6-12.6c-5.3-6.5-8.9-4.6-14.3-10.5
					c-6.8-7.4-3.1-12.8-9-18.2c-7.1-6.5-15.2-1.2-21.9-7.4c-2.9-2.7-4.4-6.5-5.2-10.5l-6.8-0.3c-1.2-0.1-2.2,0.9-2.2,2.2l-2.8,89.1
					c0,1.3,0.9,2.3,2.1,2.2l116.2-3.3c0.6,0,1.1-0.3,1.4-0.8c-8.5-0.7-13.6-4-16.8-7.2C187.3,162.6,188.6,156.7,181.7,152.3z"/>
			</g>
		</g>
		<g>
			<g>
				<defs>
					<path id="SVGID_00000083805777995938530070000013420852399437823653_" d="M119.1,173.5l66.6-1.5l80.5-24.3l-48.4-78.1
						L92.5,68.1C92.5,68.1,81.7,164.4,119.1,173.5z"/>
				</defs>
				<clipPath id="SVGID_00000065071885228869869400000018274338699391211436_">
					<use xlink:href="#SVGID_00000083805777995938530070000013420852399437823653_"  style="overflow:visible;"/>
				</clipPath>
				<g style="clip-path:url(#SVGID_00000065071885228869869400000018274338699391211436_);">
					<g>
						<path class="st6" d="M210.6,83.3l-0.4-3c0,0-3-3.1-2.9-4.7s0.2-3.9,1.2-4.1c1.2-0.3,3,2.5,3.7,4.6c0.5,1.5,0.6,2.8,0.6,3.7
							l1.1,4L210.6,83.3z"/>
						<path class="st6" d="M208.5,79.7c0,0-1.7-1.2-2-3.4c-0.3-2.2,0.5,0.1,2.2,1c1.6,0.9,1.6,0.9,1.6,0.9s1.8,0.9,1.4,1.6
							C211.3,80.4,208.5,79.7,208.5,79.7z"/>
						<path class="st7" d="M208.5,84.1c1.7-1.8,3.3-2.5,4.8-2.7c6.5-0.5,14.4,10.9,14.9,21.4c0,0.8,0.5,12.5-8.5,20
							c-13.1,11-37,5.1-41.1-4.4c-1.3-3.2-1-7.8-0.9-8.6c0.4-5.2,2.4-8.9,3.7-10.8c10.3,3.1,23.1,5.1,27,0.1
							C211.4,95.4,212.6,89.9,208.5,84.1z"/>
						<path class="st7" d="M123.6,99.1c8.8-2.5,22.1-5.1,38.2-3.7c9.4,0.8,17.4,2.8,23.7,4.8c0.7,4.8,1.4,9.6,2.1,14.4
							c0,4.8-0.1,11.2-0.9,18.8c-0.8,7.6-1.3,7.7-2.9,18.4c-2.6,17.4-1.9,22.1-5.5,24c-2.4,1.3-3.2,1.1-15-0.6
							c-7.9-1.1-11.3-1.4-15.4-0.3c-5.6,1.6-8.2,2.8-10.4,1.7c-2.1-1.1-2.3-4.8-2.4-11.2c-0.1-9.9,0.1-16.7,0.2-19.1
							c0.2-11.1-2.4-19.7-5.7-30.7C127.6,108.6,125.3,103,123.6,99.1z"/>
						<g>
							
								<linearGradient id="SVGID_00000113330534663079542760000000073438067826723213_" gradientUnits="userSpaceOnUse" x1="-3521.9492" y1="-1190.6606" x2="-3520.9048" y2="-1162.8406" gradientTransform="matrix(0.8781 0.4784 0.4784 -0.8781 3817.0913 745.0629)">
								<stop  offset="0" style="stop-color:#FFC444"/>
								<stop  offset="0.9964" style="stop-color:#F36F56"/>
							</linearGradient>
							<path style="fill:url(#SVGID_00000113330534663079542760000000073438067826723213_);" d="M161.1,84.4c-0.2,2.8-0.7,5-1.1,6.4
								c-0.5,1.7-0.8,2.1-1.1,2.4c-0.5,0.5-1.3,0.9-5.4,1.5c-2.3,0.3-2.5,0.3-2.6,0.5c-0.3,1,5.4,5.2,11.7,5
								c3.8-0.2,7.5-1.9,7.4-3.1c-0.1-1.1-4-0.9-4.9-3.1c-0.7-1.5,0.4-3.4,1.6-5C165.7,87.1,162,86.4,161.1,84.4z"/>
							<g>
								
									<linearGradient id="SVGID_00000036246822732665721320000016805441640843499965_" gradientUnits="userSpaceOnUse" x1="2202.9724" y1="7.6747" x2="2195.8821" y2="25.6829" gradientTransform="matrix(-0.9495 -0.3138 0.3138 -0.9495 2243.9041 794.6314)">
									<stop  offset="0" style="stop-color:#444B8C"/>
									<stop  offset="0.9964" style="stop-color:#26264F"/>
								</linearGradient>
								<path style="fill:url(#SVGID_00000036246822732665721320000016805441640843499965_);" d="M168.7,87c1.2-0.8,1.9-2.7,1.4-4.3
									c-0.5-1.3-1.8-1.9-2.5-2.3c-2.2-1.1-5.5-1.1-7.2,0.6c-1,1-0.6,4-0.5,4.6s0.4,0.9,0.7,1.4c0.4,0.7,0.9,1.9,1.8,3.8
									c0.3-0.4,0.6-0.9,1-1.4c0.2-0.2,0.9-0.9,1.7-1.4C166.7,87.1,167.6,87.8,168.7,87z"/>
								
									<linearGradient id="SVGID_00000047032981337751585970000003163272532233229189_" gradientUnits="userSpaceOnUse" x1="-4591.4248" y1="232.5329" x2="-4591.7505" y2="206.2917" gradientTransform="matrix(0.9669 0.2551 0.2551 -0.9669 4544.709 1481.8032)">
									<stop  offset="0" style="stop-color:#FFC444"/>
									<stop  offset="0.9964" style="stop-color:#F36F56"/>
								</linearGradient>
								<path style="fill:url(#SVGID_00000047032981337751585970000003163272532233229189_);" d="M160.7,89c0,0,0.7,3,3.8,3.8
									c2.8,0.8,5.2-5.1,3.9-6.9c-0.4-0.6-1.5-1.2-2.6-1.3c-0.6,0-0.9,0.1-1.9,0c-0.9-0.1-1.1-0.2-1.4-0.1
									c-0.4,0.2-0.9,0.7-0.9,2.6c-0.3-0.7-0.9-1.1-1.4-1c-0.1,0-0.3,0.1-0.5,0.2C159.1,86.9,159.5,88,160.7,89z"/>
								
									<linearGradient id="SVGID_00000143601809154020517010000004688602788825485992_" gradientUnits="userSpaceOnUse" x1="2200.731" y1="6.8001" x2="2193.6458" y2="24.7953" gradientTransform="matrix(-0.9495 -0.3138 0.3138 -0.9495 2243.9041 794.6314)">
									<stop  offset="0" style="stop-color:#444B8C"/>
									<stop  offset="0.9964" style="stop-color:#26264F"/>
								</linearGradient>
								<path style="fill:url(#SVGID_00000143601809154020517010000004688602788825485992_);" d="M162.5,84.2
									c0.1,0.1-0.5,0.5-0.7,1.1c-0.5,1.3,0.3,3.3,1.7,3.9c0.8,0.4,1.2,0,2.6,0.3c0.9,0.2,1.5,0.5,1.9,0.8
									c-0.1,1.6-0.9,2.9-2.1,3.2c-1.3,0.4-2.5-0.5-3-0.9c-0.3-0.3-1.4-1.1-1.7-2.4c-0.3-1.4,0.6-1.8,0.1-2.8
									c-0.3-0.5-0.7-0.9-0.9-1.8c-0.1-0.2-0.1-0.5-0.1-0.6C161.1,84.5,162.4,84,162.5,84.2z"/>
								
									<linearGradient id="SVGID_00000052797136086450298840000002940665437834625440_" gradientUnits="userSpaceOnUse" x1="2193.7961" y1="17.6453" x2="2194.1633" y2="14.373" gradientTransform="matrix(-0.9495 -0.3138 0.3138 -0.9495 2243.9041 794.6314)">
									<stop  offset="0" style="stop-color:#FFC444"/>
									<stop  offset="1" style="stop-color:#F36F56"/>
								</linearGradient>
								<path style="fill:url(#SVGID_00000052797136086450298840000002940665437834625440_);" d="M166.8,90.5c0,0-0.7,0.1-1.7-0.3
									H165c-0.1,0.1,0.5,0.7,1.1,0.8c0.5,0,0.9-0.3,0.9-0.4S166.9,90.5,166.8,90.5z"/>
							</g>
						</g>
						<path class="st6" d="M130.2,146h2.9c0,0,3.2-2.4,4.6-2.2c1.4,0.2,3.5,1.3,3.8,1.5s-0.8,1.3-1.9,1.2c-1-0.2-3.4,0.3-3.8,1.2
							c-0.4,0.9-2.3,1.3-2.6,0.8l-3.9,0.6L130.2,146z"/>
						<path class="st7" d="M131.1,145c0.1,2.3-0.4,3.9-1.3,4.9c-3.9,4.6-16.8,2-24.2-4.7c-5.5-5-8.3-12.5-8-19.1
							c0.6-12.9,13.1-24.9,31.3-28.4c2.4,8,4.8,15.9,7.3,23.9c-11.1-0.4-15.9,7.3-15.1,13.2C121.6,139.3,124.5,143.8,131.1,145z"/>
						
							<linearGradient id="SVGID_00000106135708171332733810000011154540185173545618_" gradientUnits="userSpaceOnUse" x1="-4734.583" y1="27.6295" x2="-4693.9712" y2="121.4668" gradientTransform="matrix(0.9994 3.530000e-02 3.530000e-02 -0.9994 4877.0122 362.3228)">
							<stop  offset="0" style="stop-color:#FF9085"/>
							<stop  offset="1" style="stop-color:#FB6FBB"/>
						</linearGradient>
						
							<path style="opacity:0.3;fill:url(#SVGID_00000106135708171332733810000011154540185173545618_);enable-background:new    ;" d="
							M173.9,169.8c-5.8-2.7-5.6-7.8-11-10.2c-7.7-3.4-16.5,3.2-17.8,1.2c-1.3-2.1,9.1-7.8,8-14c-0.9-4.9-8.1-4.4-11.8-11.2
							c-3.4-6.5,0.3-12.2-2.9-14.5c-1.1-0.8-3.2-1.2-7.1,0.2c2.4,8.4,4.1,15.8,4,24.9c0,2.4-0.3,9.2-0.2,19.1
							c0.1,6.4,0.2,10.2,2.4,11.2c2.2,1.1,4.9-0.1,10.4-1.7c4.1-1.2,7.4-2.4,15.4-1.2c11.8,1.7,12.6,3.4,15,2.1
							c1.5-0.8,2.3-2.1,2.9-4.7C178.8,171.2,176.3,171,173.9,169.8z"/>
					</g>
				</g>
			</g>
		</g>
		<g>
			<path class="st28" d="M175.1,161.4c0,5.7-4.7,10.2-10.6,9.9c-5.9-0.2-10.7-5.1-10.7-10.9c0-5.8,4.8-10.2,10.7-9.9
				C170.3,150.8,175.1,155.7,175.1,161.4z"/>
			<g>
				<g>
					<path class="st7" d="M158.5,163.2c0.1,0,0.3,0,0.7-0.1c0.1,0,0.3-0.1,0.4-0.1c0.2-0.1,0.4-0.1,0.5-0.2c0.2,0,0.3-0.1,0.5-0.1
						c0,0,0.1,0,0.2,0c0.1,0,0.2,0,0.3-0.1c0.1,0,0.1-0.1,0.2-0.1c0.1-0.1,0.1-0.2,0.1-0.4s0-0.4,0-0.6c0-0.2,0-0.4,0-0.6
						c0-0.2,0-0.3,0.1-0.4l0.1-0.1c0.1,0,0.1-0.1,0.2-0.1c0,0,0.1,0,0.2-0.1c0.1,0,0.2,0,0.2,0c0.8-0.2,1.5-0.3,2.2-0.3
						s1.4,0.1,2.2,0.3c0,0,0.1,0,0.2,0c0.1,0,0.2,0,0.2,0.1c0,0,0.1,0,0.2,0.1c0.1,0,0.1,0.1,0.1,0.1c0.1,0.1,0.1,0.2,0.1,0.4
						s0,0.4,0,0.6c0,0.2,0,0.4,0,0.6c0,0.2,0,0.3,0.1,0.4c0,0,0.1,0.1,0.2,0.1c0.1,0,0.2,0.1,0.3,0.1s0.2,0,0.2,0
						c0.1,0,0.3,0.1,0.5,0.1s0.3,0.1,0.5,0.2c0.2,0.1,0.3,0.1,0.4,0.1c0.4,0.1,0.6,0.2,0.7,0.1c0,0,0.1,0,0.1-0.1
						c0.1-0.1,0.2-0.2,0.3-0.4s0.2-0.3,0.3-0.5c0.1-0.3,0.1-0.7-0.1-1.2c-0.2-0.5-0.4-0.9-0.7-1.3c-0.1-0.1-0.2-0.2-0.3-0.3
						s-0.2-0.2-0.4-0.2c-0.1-0.1-0.3-0.1-0.3-0.2c-0.1,0-0.2-0.1-0.4-0.2c-0.2-0.1-0.3-0.1-0.4-0.2c-0.5-0.2-0.9-0.4-1.4-0.5
						c-0.7-0.2-1.6-0.3-2.6-0.3s-1.8,0.1-2.6,0.3c-0.4,0.1-0.9,0.3-1.4,0.5c0,0-0.2,0.1-0.4,0.2c-0.2,0.1-0.3,0.2-0.4,0.2
						c-0.1,0-0.2,0.1-0.3,0.2c-0.1,0.1-0.3,0.2-0.4,0.2c-0.1,0.1-0.2,0.2-0.3,0.3c-0.3,0.3-0.6,0.7-0.7,1.3c-0.2,0.6-0.2,1-0.1,1.2
						c0,0.1,0.1,0.3,0.3,0.5c0.1,0.2,0.2,0.3,0.3,0.4C158.4,163.1,158.5,163.1,158.5,163.2z"/>
				</g>
			</g>
		</g>
		<g>
			<path class="st8" d="M150.5,161.1c0,5.7-4.7,10.2-10.6,9.9c-5.9-0.2-10.7-5.1-10.7-10.9c0-5.8,4.8-10.2,10.7-9.9
				C145.8,150.5,150.5,155.4,150.5,161.1z"/>
			<circle class="st28" cx="135" cy="160.6" r="1.6"/>
			<circle class="st28" cx="139.7" cy="160.7" r="1.6"/>
			<circle class="st28" cx="144.4" cy="160.7" r="1.6"/>
		</g>
	</g>
</g>
</svg>
