<?xml version="1.0" encoding="utf-8"?>
<!-- Generator: Adobe Illustrator 26.3.1, SVG Export Plug-In . SVG Version: 6.00 Build 0)  -->
<svg version="1.1" id="Layer_1" xmlns="http://www.w3.org/2000/svg" xmlns:xlink="http://www.w3.org/1999/xlink" x="0px" y="0px"
	 viewBox="0 0 366.45 220.66" style="enable-background:new 0 0 366.45 220.66;" xml:space="preserve">
<g>
	<g>
		<g>
			<g>
				<g>
					<g>
						
							<rect x="242.8" y="126.37" transform="matrix(6.123234e-17 -1 1 6.123234e-17 106.581 382.0651)" style="fill:#E0E0E0;" width="3.04" height="22.75"/>
					</g>
				</g>
			</g>
			<g>
				<g>
					<g>
						<g>
							<path style="fill:#FAFAFA;" d="M236.05,136.35c0.08,0,0.14,0.64,0.14,1.42c0,0.79-0.06,1.42-0.14,1.42
								c-0.08,0-0.14-0.64-0.14-1.42C235.91,136.99,235.97,136.35,236.05,136.35z"/>
						</g>
					</g>
				</g>
			</g>
			<g>
				<g>
					<g>
						<g>
							<path style="fill:#FAFAFA;" d="M235.55,136.29c0.08,0,0.14,0.64,0.14,1.42c0,0.79-0.06,1.42-0.14,1.42
								c-0.08,0-0.14-0.64-0.14-1.42C235.41,136.92,235.47,136.29,235.55,136.29z"/>
						</g>
					</g>
				</g>
			</g>
			<g>
				<g>
					<g>
						<g>
							<path style="fill:#FAFAFA;" d="M253.94,136.35c0.08,0,0.14,0.64,0.14,1.42c0,0.79-0.06,1.42-0.14,1.42
								c-0.08,0-0.14-0.64-0.14-1.42C253.79,136.99,253.86,136.35,253.94,136.35z"/>
						</g>
					</g>
				</g>
			</g>
			<g>
				<g>
					<g>
						<g>
							<ellipse style="fill:#FAFAFA;" cx="253.44" cy="137.71" rx="0.14" ry="1.42"/>
						</g>
					</g>
				</g>
			</g>
			<g>
				<g>
					<g>
						<g>
							<path style="fill:#FAFAFA;" d="M250.47,137.83c0,0.08-2.61,0.14-5.82,0.14c-3.21,0-5.82-0.06-5.82-0.14
								c0-0.08,2.6-0.14,5.82-0.14C247.87,137.69,250.47,137.76,250.47,137.83z"/>
						</g>
					</g>
				</g>
			</g>
		</g>
		<g>
			<g>
				<g>
					<g>
						
							<rect x="241.19" y="141.57" transform="matrix(6.123234e-17 -1 1 6.123234e-17 91.2811 397.168)" style="fill:#E0E0E0;" width="6.08" height="22.75"/>
					</g>
				</g>
			</g>
			<g>
				<g>
					<g>
						<g>
							<path style="fill:#FAFAFA;" d="M255.89,154.27c0,0-0.04,0.03-0.12,0.07c-0.08,0.04-0.21,0.1-0.38,0.17
								c-0.34,0.14-0.85,0.33-1.54,0.44c-0.68,0.1-1.6,0.12-2.5-0.36c-0.44-0.24-0.87-0.6-1.19-1.08c-0.31-0.48-0.52-1.1-0.41-1.75
								c0.05-0.32,0.19-0.64,0.42-0.91c0.22-0.26,0.58-0.46,0.96-0.44c0.38,0.02,0.73,0.24,0.96,0.52c0.24,0.29,0.41,0.65,0.44,1.04
								c0.09,0.77-0.23,1.57-0.78,2.15c-0.54,0.61-1.35,0.97-2.19,1.07c-0.84,0.1-1.71-0.03-2.54-0.31
								c-0.83-0.28-1.64-0.75-2.22-1.49c-0.28-0.37-0.49-0.83-0.52-1.31c-0.04-0.48,0.11-1,0.48-1.37c0.19-0.18,0.44-0.3,0.71-0.31
								c0.27-0.01,0.53,0.07,0.74,0.21c0.44,0.27,0.72,0.74,0.84,1.23c0.21,0.99-0.18,2.03-0.9,2.68c-0.72,0.65-1.66,0.94-2.56,1.04
								c-0.91,0.09-1.82,0.02-2.65-0.26c-0.84-0.28-1.59-0.83-2.02-1.57c-0.44-0.73-0.58-1.64-0.25-2.41
								c0.16-0.38,0.51-0.72,0.93-0.79c0.41-0.08,0.83,0.04,1.15,0.28c0.64,0.51,0.75,1.38,0.54,2.05
								c-0.21,0.68-0.67,1.21-1.15,1.62c-0.97,0.82-2.12,1.18-3.12,1.21c-1.01,0.04-1.85-0.24-2.47-0.56
								c-0.62-0.32-1.03-0.69-1.29-0.96c-0.13-0.13-0.22-0.24-0.27-0.32c-0.06-0.07-0.08-0.11-0.08-0.12
								c0.03-0.04,0.46,0.66,1.69,1.29c0.61,0.3,1.44,0.55,2.41,0.5c0.96-0.05,2.07-0.41,2.99-1.21c0.45-0.4,0.88-0.9,1.07-1.52
								c0.19-0.6,0.07-1.38-0.47-1.8c-0.26-0.2-0.62-0.29-0.96-0.23c-0.34,0.06-0.6,0.31-0.74,0.65c-0.29,0.68-0.16,1.51,0.25,2.18
								c0.4,0.68,1.09,1.19,1.88,1.45c0.79,0.27,1.67,0.33,2.54,0.24c0.86-0.09,1.74-0.38,2.4-0.97c0.65-0.58,1-1.53,0.81-2.4
								c-0.1-0.43-0.35-0.82-0.71-1.05c-0.36-0.24-0.82-0.23-1.11,0.07c-0.29,0.28-0.44,0.72-0.4,1.14c0.03,0.42,0.2,0.83,0.46,1.16
								c0.52,0.68,1.3,1.13,2.08,1.4c0.79,0.27,1.63,0.4,2.42,0.31c0.79-0.09,1.53-0.42,2.03-0.98c0.51-0.54,0.81-1.27,0.73-1.96
								c-0.06-0.67-0.57-1.32-1.18-1.36c-0.3-0.02-0.59,0.13-0.79,0.36c-0.2,0.23-0.33,0.51-0.38,0.8c-0.1,0.59,0.08,1.16,0.37,1.62
								c0.3,0.45,0.69,0.8,1.11,1.04c0.85,0.47,1.74,0.46,2.41,0.38c0.68-0.09,1.19-0.26,1.54-0.38
								C255.71,154.34,255.88,154.26,255.89,154.27z"/>
						</g>
					</g>
				</g>
			</g>
		</g>
		<g>
			<g>
				<g>
					<g>
						
							<rect x="239.97" y="134.26" transform="matrix(6.123234e-17 -1 1 6.123234e-17 100.6186 389.8619)" style="fill:#EBEBEB;" width="10.54" height="20.72"/>
					</g>
				</g>
			</g>
			<g>
				<g>
					<g>
						<g>
							<path style="fill:#E0E0E0;" d="M238.32,139.71c0.08,0,0.14,2.29,0.14,5.1c0,2.82-0.06,5.1-0.14,5.1
								c-0.08,0-0.14-2.28-0.14-5.1C238.18,142,238.25,139.71,238.32,139.71z"/>
						</g>
					</g>
				</g>
			</g>
			<g>
				<g>
					<g>
						<g>
							<path style="fill:#E0E0E0;" d="M239.89,139.58c0.08,0,0.14,2.26,0.14,5.04c0,2.78-0.06,5.04-0.14,5.04
								c-0.08,0-0.14-2.26-0.14-5.04C239.75,141.84,239.82,139.58,239.89,139.58z"/>
						</g>
					</g>
				</g>
			</g>
			<g>
				<g>
					<g>
						<g>
							<path style="fill:#E0E0E0;" d="M253.26,139.24c0.08,0,0.14,2.38,0.14,5.31c0,2.93-0.06,5.31-0.14,5.31
								c-0.08,0-0.14-2.38-0.14-5.31C253.11,141.62,253.18,139.24,253.26,139.24z"/>
						</g>
					</g>
				</g>
			</g>
			<g>
				<g>
					<g>
						<g>
							<path style="fill:#E0E0E0;" d="M251.41,139.38c0.08,0,0.14,2.31,0.14,5.17c0,2.86-0.06,5.17-0.14,5.17
								c-0.08,0-0.14-2.31-0.14-5.17C251.27,141.7,251.33,139.38,251.41,139.38z"/>
						</g>
					</g>
				</g>
			</g>
		</g>
	</g>
	<rect x="111.55" y="19.29" style="fill:#E0E0E0;" width="139.65" height="92.63"/>
	<g>
		<g>
			<path style="fill:#F5F5F5;" d="M0,26.06C-0.21,12.96,10.24,2.12,23.28,1.91C36.33,1.7,47.11,12.19,47.32,25.3
				c0.21,13.11-10.23,23.94-23.28,24.15C11,49.66,0.21,39.17,0,26.06z M34.98,25.5c-0.1-6.27-5.26-11.28-11.49-11.18
				c-6.24,0.1-11.23,5.28-11.13,11.55c0.1,6.27,5.26,11.28,11.49,11.18C30.08,36.94,35.08,31.76,34.98,25.5z"/>
		</g>
		<g>
			<path style="fill:#E0E0E0;" d="M0,26.06C-0.21,12.96,10.24,2.12,23.28,1.91l0.2,12.4c-6.24,0.1-11.23,5.28-11.13,11.55
				c0.1,6.27,5.26,11.28,11.49,11.18l0.2,12.4C11,49.66,0.21,39.17,0,26.06z"/>
		</g>
		<g>
			<path style="fill:#EBEBEB;" d="M21.16,0C36.42-0.24,48.6,11.6,48.84,26.94L34.4,27.17c-0.12-7.33-5.7-11.95-12.99-11.83L21.16,0z
				"/>
		</g>
	</g>
	<g>
		<rect x="333.69" y="33.73" style="fill:#E0E0E0;" width="6.13" height="24.48"/>
		<rect x="342.7" y="39.07" style="fill:#E0E0E0;" width="6.13" height="19.14"/>
		<rect x="351.85" y="43.44" style="fill:#E0E0E0;" width="6.13" height="14.77"/>
		<rect x="360.32" y="49.44" style="fill:#E0E0E0;" width="6.13" height="8.77"/>
	</g>
	<g>
		<g>
			<path style="fill:#F5F5F5;" d="M356.59,88.65c-8.5-7.89-21.87-7.44-29.81,1.01c-7.94,8.45-7.48,21.74,1.02,29.63
				c8.5,7.89,21.87,7.44,29.81-1.01C365.54,109.83,365.09,96.54,356.59,88.65z M349.56,110.81c-3.8,4.04-10.19,4.25-14.25,0.48
				c-4.06-3.77-4.28-10.13-0.49-14.17c3.8-4.04,10.19-4.25,14.25-0.48C353.14,100.41,353.36,106.77,349.56,110.81z"/>
			<g>
				<path style="fill:#EBEBEB;" d="M326.78,89.66c7.94-8.45,21.31-8.9,29.81-1.01l-7.51,7.99c-4.06-3.77-10.46-3.56-14.25,0.48
					c-3.8,4.04-3.58,10.39,0.49,14.17l-7.51,7.99C319.3,111.39,318.84,98.1,326.78,89.66z"/>
			</g>
			<g>
				<path style="fill:#FAFAFA;" d="M355.73,85.22c10.41,9.67,11.66,25.38,1.93,35.73l-10.56-9.15c4.65-4.95,5.66-11.55,0.68-16.18
					L355.73,85.22z"/>
			</g>
		</g>
	</g>
	<g>
		<g>
			<g>
				<path style="fill:#E0E0E0;" d="M127.9,140.15H71.64c-0.97,0-1.75-0.78-1.75-1.75v-13.34c0-0.97,0.78-1.75,1.75-1.75h56.26
					c0.97,0,1.75,0.78,1.75,1.75v13.34C129.65,139.37,128.86,140.15,127.9,140.15z"/>
			</g>
		</g>
		<g>
			<g>
				<path style="fill:#F5F5F5;" d="M82.48,134.55c-1.26,1.58-3.55,1.83-5.12,0.57c-1.57-1.26-1.82-3.57-0.56-5.14
					c1.26-1.58,3.55-1.83,5.12-0.57C83.49,130.67,83.74,132.97,82.48,134.55z"/>
			</g>
		</g>
		<g>
			<g>
				<g>
					<path style="fill:#E0E0E0;" d="M81.69,131.01c0.05,0.06-0.82,1-1.96,2.12c-0.17,0.16-0.33,0.31-0.48,0.47l-0.1,0.1l-0.09-0.1
						c-0.88-0.91-1.51-1.62-1.46-1.66c0.05-0.05,0.75,0.58,1.66,1.47l-0.19,0c0.15-0.15,0.31-0.31,0.48-0.47
						C80.67,131.82,81.64,130.96,81.69,131.01z"/>
				</g>
			</g>
		</g>
		<g>
			<g>
				<g>
					<path style="fill:#FAFAFA;" d="M123.76,130.45c0,0.08-8.02,0.14-17.91,0.14c-9.89,0-17.91-0.06-17.91-0.14
						c0-0.08,8.02-0.14,17.91-0.14C115.74,130.31,123.76,130.37,123.76,130.45z"/>
				</g>
			</g>
		</g>
		<g>
			<g>
				<g>
					<path style="fill:#FAFAFA;" d="M123.92,133.5c0,0.08-8.02,0.14-17.91,0.14c-9.89,0-17.91-0.06-17.91-0.14
						c0-0.08,8.02-0.14,17.91-0.14C115.9,133.36,123.92,133.42,123.92,133.5z"/>
				</g>
			</g>
		</g>
	</g>
	<g>
		<g>
			<g>
				<g>
					<polygon style="fill:#F5F5F5;" points="312.63,135.72 311.53,220.66 360.4,220.66 360.4,136.88 					"/>
				</g>
				<g>
					<polygon style="fill:#E0E0E0;" points="338.95,136.36 338.52,220.66 360.4,220.66 360.4,136.88 					"/>
				</g>
				<g>
					<g>
						<polygon style="fill:#E0E0E0;" points="314.16,137.25 314.16,154.62 337.31,154.62 337.31,138.07 						"/>
					</g>
					<g>
						<g>
							<polygon style="fill:#F5F5F5;" points="322.14,142.03 322.14,144.59 329.22,144.59 329.22,141.79 							"/>
						</g>
						<g>
							<rect x="322.14" y="146.75" style="fill:#F5F5F5;" width="7.31" height="1.05"/>
						</g>
					</g>
				</g>
				<g>
					<g>
						<polygon style="fill:#E0E0E0;" points="314.16,198.13 314.16,215.5 337.31,215.5 337.31,198.95 						"/>
					</g>
					<g>
						<g>
							<polygon style="fill:#F5F5F5;" points="322.14,202.9 322.14,205.47 329.22,205.47 329.22,202.67 							"/>
						</g>
						<g>
							<rect x="322.14" y="207.63" style="fill:#F5F5F5;" width="7.31" height="1.05"/>
						</g>
					</g>
				</g>
				<g>
					<g>
						<polygon style="fill:#E0E0E0;" points="314.16,156.83 314.16,174.2 337.31,174.2 337.31,157.65 						"/>
					</g>
					<g>
						<g>
							<polygon style="fill:#F5F5F5;" points="322.14,161.61 322.14,164.18 329.22,164.18 329.22,161.38 							"/>
						</g>
						<g>
							<rect x="322.14" y="166.33" style="fill:#F5F5F5;" width="7.31" height="1.05"/>
						</g>
					</g>
				</g>
			</g>
			<g>
				<g>
					<g>
						<rect x="313.86" y="177.63" style="fill:#E0E0E0;" width="23.15" height="17.37"/>
					</g>
					<g>
						<polygon style="fill:#F5F5F5;" points="322,185.46 322,187.87 328.65,187.87 328.65,185.24 						"/>
					</g>
					<g>
						<rect x="322" y="189.9" style="fill:#F5F5F5;" width="6.88" height="0.99"/>
					</g>
				</g>
			</g>
		</g>
	</g>
	<g>
		<g>
			<g>
				<path style="fill:#263238;" d="M362.24,219.92c0,0.08-80.13,0.14-178.94,0.14c-98.85,0-178.96-0.06-178.96-0.14
					c0-0.08,80.11-0.14,178.96-0.14C282.11,219.78,362.24,219.84,362.24,219.92z"/>
			</g>
		</g>
	</g>
	<g>
		<g>
			<g>
				<g>
					<rect x="103.17" y="21.62" style="fill:#FAFAFA;" width="144.63" height="94.86"/>
				</g>
			</g>
			<g>
				<g>
					<g>
						<path style="fill:#263238;" d="M247.8,116.48c0-0.91-0.04-37.01-0.11-94.86l0.11,0.11c-39.69,0.01-90.02,0.02-144.62,0.03
							h-0.01l0.14-0.14c0,33.74-0.01,65.84-0.01,94.86l-0.13-0.13C188.27,116.43,246.64,116.48,247.8,116.48
							c-1.16,0-59.53,0.05-144.63,0.13l-0.13,0v-0.13c0-29.02-0.01-61.13-0.01-94.86v-0.14h0.14h0.01
							c54.6,0.01,104.93,0.02,144.62,0.03h0.11l0,0.11C247.84,79.48,247.8,115.57,247.8,116.48z"/>
					</g>
				</g>
			</g>
		</g>
		<g>
			<g>
				<g>
					<g>
						<path style="fill:#455A64;" d="M147.37,74.01l14.23,0.2c-0.11,7.58-6.5,13.76-14.23,13.76c-0.03,0-0.06,0-0.08,0L147.37,74.01
							z"/>
					</g>
				</g>
				<g>
					<g>
						<g>
							<path style="fill:#263238;" d="M170.89,93.27c0,0.01-0.1,0.02-0.3,0.02c-0.22,0.01-0.51,0.01-0.87,0.02
								c-0.78,0.01-1.86,0.02-3.18,0.04l-0.04,0l-0.03-0.03c-1.27-1.6-2.91-3.66-4.69-5.91c-1.39-1.77-2.68-3.42-3.78-4.82
								l0.07,0.04c-1.71-0.02-3.15-0.03-4.19-0.04c-0.48-0.01-0.87-0.02-1.17-0.03c-0.27-0.01-0.41-0.02-0.41-0.03
								c0-0.01,0.14-0.02,0.41-0.03c0.3-0.01,0.69-0.02,1.17-0.03c1.04-0.01,2.47-0.02,4.19-0.04l0.04,0l0.03,0.04
								c1.11,1.4,2.41,3.04,3.81,4.8c1.77,2.26,3.4,4.34,4.65,5.94l-0.07-0.03c1.31,0.02,2.39,0.03,3.18,0.04
								c0.36,0.01,0.65,0.02,0.87,0.02C170.79,93.25,170.89,93.26,170.89,93.27z"/>
						</g>
					</g>
				</g>
				<g>
					<g>
						<g>
							<path style="fill:#263238;" d="M176,94.91c0,0.06-2.06,0.11-4.6,0.11c-2.54,0-4.6-0.05-4.6-0.11c0-0.06,2.06-0.11,4.6-0.11
								C173.94,94.8,176,94.85,176,94.91z"/>
						</g>
					</g>
				</g>
				<g>
					<g>
						<g>
							<path style="fill:#263238;" d="M176,96.61c0,0.06-2.06,0.11-4.6,0.11c-2.54,0-4.6-0.05-4.6-0.11c0-0.06,2.06-0.11,4.6-0.11
								C173.94,96.5,176,96.55,176,96.61z"/>
						</g>
					</g>
				</g>
			</g>
			<g>
				<g>
					<g>
						<path style="fill:#E8505B;" d="M145.12,71.98l-0.2,13.95c-7.73-0.11-14.03-6.37-14.03-13.95c0-7.66,6.42-13.96,14.23-13.96
							c7.8,0,14.23,6.3,14.23,13.96H145.12z"/>
					</g>
				</g>
				<g>
					<g>
						<g>
							<path style="fill:#263238;" d="M139.57,67.42c0,0.01-0.08,0.03-0.25,0.06c-0.19,0.03-0.43,0.07-0.71,0.11
								c-0.65,0.09-1.52,0.21-2.56,0.36l-0.04,0.01l-0.03-0.03c-0.97-0.95-2.14-2.09-3.41-3.32c-1.64-1.61-3.11-3.07-4.17-4.14
								c-0.51-0.52-0.92-0.94-1.25-1.27c-0.29-0.3-0.45-0.48-0.44-0.49c0.01-0.01,0.19,0.14,0.5,0.43c0.33,0.32,0.77,0.73,1.29,1.22
								c1.09,1.04,2.58,2.48,4.21,4.09c1.25,1.24,2.42,2.39,3.38,3.34l-0.07-0.02c1.04-0.11,1.91-0.21,2.56-0.28
								c0.28-0.03,0.52-0.05,0.71-0.06C139.48,67.41,139.57,67.41,139.57,67.42z"/>
						</g>
					</g>
				</g>
				<g>
					<g>
						<g>
							<path style="fill:#263238;" d="M123.12,58.1c0,0.06-2.06,0.11-4.6,0.11c-2.54,0-4.6-0.05-4.6-0.11c0-0.06,2.06-0.11,4.6-0.11
								C121.06,57.99,123.12,58.04,123.12,58.1z"/>
						</g>
					</g>
				</g>
				<g>
					<g>
						<g>
							<path style="fill:#263238;" d="M123.12,59.8c0,0.06-2.06,0.11-4.6,0.11c-2.54,0-4.6-0.05-4.6-0.11c0-0.06,2.06-0.11,4.6-0.11
								C121.06,59.69,123.12,59.74,123.12,59.8z"/>
						</g>
					</g>
				</g>
			</g>
		</g>
		<g>
			<g>
				<g>
					<g>
						<g>
							<path style="fill:#E8505B;" d="M194.89,44.41l-0.06-8.67c-2.55,0.01-5.16,1.02-7.15,2.79c-2.35,2.08-3.86,5.2-3.45,8.98
								c0.04,0.41,0.11,0.83,0.2,1.26c0,0.01,0,0.02,0.01,0.03l0,0l10.45-2.35V44.41z"/>
						</g>
					</g>
					<g style="opacity:0.3;">
						<g>
							<path style="fill:#FFFFFF;" d="M194.89,44.41l-0.06-8.67c-2.55,0.01-5.16,1.02-7.15,2.79c-2.35,2.08-3.86,5.2-3.45,8.98
								c0.04,0.41,0.11,0.83,0.2,1.26c0,0.01,0,0.02,0.01,0.03l0,0l10.45-2.35V44.41z"/>
						</g>
					</g>
					<g>
						<g>
							<path style="fill:#E8505B;" d="M205.66,41.74c-1.46-3.05-4.34-5.49-8.43-5.9c-0.11-0.01-0.22-0.02-0.33-0.03
								c-0.07-0.01-0.14-0.01-0.21-0.02c-0.21-0.01-0.42-0.02-0.63-0.02c-0.01,0-0.02,0-0.03,0c0,0,0,0,0,0c-0.01,0-0.02,0-0.03,0v0
								v0l0.06,8.67l0.01,2.04l10.45,2.28l0.01,0v0c0.16-0.73,0.24-1.49,0.23-2.25C206.76,44.89,206.38,43.25,205.66,41.74z"/>
						</g>
					</g>
					<g style="opacity:0.3;">
						<g>
							<path d="M205.66,41.74c-1.46-3.05-4.34-5.49-8.43-5.9c-0.11-0.01-0.22-0.02-0.33-0.03c-0.07-0.01-0.14-0.01-0.21-0.02
								c-0.21-0.01-0.42-0.02-0.63-0.02c-0.01,0-0.02,0-0.03,0c0,0,0,0,0,0c-0.01,0-0.02,0-0.03,0v0v0l0.06,8.67l0.01,2.04
								l10.45,2.28l0.01,0v0c0.16-0.73,0.24-1.49,0.23-2.25C206.76,44.89,206.38,43.25,205.66,41.74z"/>
						</g>
					</g>
				</g>
				<g>
					<g>
						<path style="fill:#E8505B;" d="M195.45,47.53L185,49.88c1.07,4.78,5.34,8.36,10.45,8.36c5.13,0,9.42-3.61,10.47-8.43
							l-10.45-2.28"/>
					</g>
				</g>
			</g>
			<g>
				<g>
					<g>
						<path style="fill:#263238;" d="M236.12,45.97c0,0.08-5.4,0.14-12.06,0.14c-6.66,0-12.07-0.06-12.07-0.14
							c0-0.08,5.4-0.14,12.07-0.14C230.72,45.83,236.12,45.89,236.12,45.97z"/>
					</g>
				</g>
			</g>
			<g>
				<g>
					<g>
						<path style="fill:#263238;" d="M236.12,43.22c0,0.08-5.4,0.14-12.06,0.14c-6.66,0-12.07-0.06-12.07-0.14
							c0-0.08,5.4-0.14,12.07-0.14C230.72,43.08,236.12,43.14,236.12,43.22z"/>
					</g>
				</g>
			</g>
			<g>
				<g>
					<g>
						<path style="fill:#263238;" d="M236.12,40.47c0,0.08-5.4,0.14-12.06,0.14c-6.66,0-12.07-0.06-12.07-0.14
							c0-0.08,5.4-0.14,12.07-0.14C230.72,40.33,236.12,40.39,236.12,40.47z"/>
					</g>
				</g>
			</g>
			<g>
				<g>
					<g>
						<path style="fill:#263238;" d="M236.12,48.53c0,0.08-5.4,0.14-12.06,0.14c-6.66,0-12.07-0.06-12.07-0.14
							c0-0.08,5.4-0.14,12.07-0.14C230.72,48.39,236.12,48.45,236.12,48.53z"/>
					</g>
				</g>
			</g>
			<g>
				<g>
					<g>
						<path style="fill:#263238;" d="M228.65,51.31c0,0.08-3.71,0.14-8.29,0.14c-4.58,0-8.29-0.06-8.29-0.14
							c0-0.08,3.71-0.14,8.29-0.14C224.94,51.17,228.65,51.24,228.65,51.31z"/>
					</g>
				</g>
			</g>
		</g>
		<g>
			<g>
				<g>
					<g>
						<rect x="186.69" y="71.23" style="fill:#E8505B;" width="2.49" height="27.76"/>
					</g>
				</g>
			</g>
			<g>
				<g>
					<g>
						<rect x="191.49" y="80.65" style="fill:#E8505B;" width="2.49" height="18.33"/>
					</g>
				</g>
			</g>
			<g>
				<g>
					<g>
						<rect x="196.28" y="74.68" style="fill:#E8505B;" width="2.49" height="24.45"/>
					</g>
				</g>
			</g>
			<g>
				<g>
					<g>
						<rect x="201.08" y="72.3" style="fill:#E8505B;" width="2.49" height="26.69"/>
					</g>
				</g>
			</g>
			<g>
				<g>
					<g>
						<rect x="205.88" y="81.22" style="fill:#E8505B;" width="2.49" height="17.77"/>
					</g>
				</g>
			</g>
			<g>
				<g>
					<g>
						<rect x="210.68" y="84.7" style="fill:#E8505B;" width="2.49" height="14.28"/>
					</g>
				</g>
			</g>
			<g>
				<g>
					<g>
						<rect x="215.48" y="74.07" style="fill:#E8505B;" width="2.49" height="24.91"/>
					</g>
				</g>
			</g>
			<g>
				<g>
					<g>
						<rect x="220.28" y="78.57" style="fill:#E8505B;" width="2.49" height="20.42"/>
					</g>
				</g>
			</g>
			<g>
				<g>
					<g>
						<rect x="225.08" y="74.98" style="fill:#E8505B;" width="2.49" height="24.01"/>
					</g>
				</g>
			</g>
			<g>
				<g>
					<g>
						<rect x="229.87" y="82.63" style="fill:#E8505B;" width="2.49" height="16.36"/>
					</g>
				</g>
			</g>
			<g>
				<g>
					<g>
						<rect x="234.67" y="79.52" style="fill:#E8505B;" width="2.49" height="19.47"/>
					</g>
				</g>
			</g>
			<g>
				<g>
					<g>
						<g>
							<path style="fill:#263238;" d="M238.17,100.92c0,0.06-11.79,0.1-26.33,0.1c-14.55,0-26.33-0.05-26.33-0.1
								c0-0.06,11.79-0.1,26.33-0.1C226.38,100.81,238.17,100.86,238.17,100.92z"/>
						</g>
					</g>
				</g>
			</g>
			<g>
				<g>
					<g>
						<g>
							<path style="fill:#263238;" d="M190.23,103.1c0,0.06-0.83,0.1-1.84,0.1c-1.02,0-1.84-0.05-1.84-0.1c0-0.06,0.83-0.1,1.84-0.1
								C189.41,103,190.23,103.05,190.23,103.1z"/>
						</g>
					</g>
				</g>
			</g>
			<g>
				<g>
					<g>
						<g>
							<path style="fill:#263238;" d="M196.35,103.21c0,0.06-0.99,0.1-2.2,0.1c-1.22,0-2.2-0.05-2.2-0.1c0-0.06,0.99-0.1,2.2-0.1
								C195.36,103.11,196.35,103.16,196.35,103.21z"/>
						</g>
					</g>
				</g>
			</g>
			<g>
				<g>
					<g>
						<g>
							<path style="fill:#263238;" d="M201.57,103.21c0,0.06-0.99,0.1-2.2,0.1c-1.22,0-2.2-0.05-2.2-0.1c0-0.06,0.99-0.1,2.2-0.1
								C200.58,103.11,201.57,103.16,201.57,103.21z"/>
						</g>
					</g>
				</g>
			</g>
			<g>
				<g>
					<g>
						<g>
							<path style="fill:#263238;" d="M206.79,103.21c0,0.06-0.99,0.1-2.2,0.1c-1.22,0-2.2-0.05-2.2-0.1c0-0.06,0.99-0.1,2.2-0.1
								C205.8,103.11,206.79,103.16,206.79,103.21z"/>
						</g>
					</g>
				</g>
			</g>
			<g>
				<g>
					<g>
						<g>
							<path style="fill:#263238;" d="M212.01,103.21c0,0.06-0.99,0.1-2.2,0.1c-1.22,0-2.2-0.05-2.2-0.1c0-0.06,0.99-0.1,2.2-0.1
								C211.02,103.11,212.01,103.16,212.01,103.21z"/>
						</g>
					</g>
				</g>
			</g>
			<g>
				<g>
					<g>
						<g>
							<path style="fill:#263238;" d="M217.23,103.21c0,0.06-0.99,0.1-2.2,0.1c-1.22,0-2.2-0.05-2.2-0.1c0-0.06,0.99-0.1,2.2-0.1
								C216.24,103.11,217.23,103.16,217.23,103.21z"/>
						</g>
					</g>
				</g>
			</g>
			<g>
				<g>
					<g>
						<g>
							<path style="fill:#263238;" d="M222.44,103.21c0,0.06-0.99,0.1-2.2,0.1c-1.22,0-2.2-0.05-2.2-0.1c0-0.06,0.99-0.1,2.2-0.1
								C221.46,103.11,222.44,103.16,222.44,103.21z"/>
						</g>
					</g>
				</g>
			</g>
			<g>
				<g>
					<g>
						<g>
							<path style="fill:#263238;" d="M227.66,103.21c0,0.06-0.99,0.1-2.2,0.1c-1.22,0-2.2-0.05-2.2-0.1c0-0.06,0.99-0.1,2.2-0.1
								C226.68,103.11,227.66,103.16,227.66,103.21z"/>
						</g>
					</g>
				</g>
			</g>
			<g>
				<g>
					<g>
						<g>
							<path style="fill:#263238;" d="M232.88,103.21c0,0.06-0.99,0.1-2.2,0.1c-1.22,0-2.2-0.05-2.2-0.1c0-0.06,0.99-0.1,2.2-0.1
								C231.89,103.11,232.88,103.16,232.88,103.21z"/>
						</g>
					</g>
				</g>
			</g>
			<g>
				<g>
					<g>
						<g>
							<path style="fill:#263238;" d="M238.1,103.21c0,0.06-0.99,0.1-2.2,0.1c-1.22,0-2.2-0.05-2.2-0.1c0-0.06,0.99-0.1,2.2-0.1
								C237.11,103.11,238.1,103.16,238.1,103.21z"/>
						</g>
					</g>
				</g>
			</g>
			<g style="opacity:0.3;">
				<g>
					<g>
						<rect x="191.49" y="80.65" style="fill:#FFFFFF;" width="2.49" height="18.33"/>
					</g>
				</g>
			</g>
			<g style="opacity:0.3;">
				<g>
					<g>
						<rect x="201.08" y="72.3" style="fill:#FFFFFF;" width="2.49" height="26.69"/>
					</g>
				</g>
			</g>
			<g style="opacity:0.3;">
				<g>
					<g>
						<rect x="210.68" y="84.7" style="fill:#FFFFFF;" width="2.49" height="14.28"/>
					</g>
				</g>
			</g>
			<g style="opacity:0.3;">
				<g>
					<g>
						<rect x="220.28" y="78.57" style="fill:#FFFFFF;" width="2.49" height="20.42"/>
					</g>
				</g>
			</g>
			<g style="opacity:0.3;">
				<g>
					<g>
						<rect x="229.87" y="82.63" style="fill:#FFFFFF;" width="2.49" height="16.36"/>
					</g>
				</g>
			</g>
		</g>
		<g>
			<g>
				<path style="fill:#E8505B;" d="M120.74,39.45c0,1.32-1.07,2.39-2.39,2.39c-1.32,0-2.39-1.07-2.39-2.39
					c0-1.32,1.07-2.39,2.39-2.39C119.67,37.06,120.74,38.13,120.74,39.45z"/>
			</g>
		</g>
		<g>
			<g>
				<g>
					<path style="fill:#E8505B;" d="M161.88,37.56c0,0.08-8.07,0.14-18.02,0.14c-9.95,0-18.02-0.06-18.02-0.14
						c0-0.08,8.07-0.14,18.02-0.14C153.81,37.42,161.88,37.48,161.88,37.56z"/>
				</g>
			</g>
		</g>
		<g>
			<g>
				<g>
					<path style="fill:#E8505B;" d="M140.31,40.46c0,0.02-0.2,0.04-0.56,0.05c-0.36,0.02-0.88,0.03-1.52,0.04
						c-1.29,0.03-3.06,0.04-5.02,0.04c-1.96,0-3.74-0.02-5.02-0.04c-0.64-0.01-1.16-0.03-1.52-0.04c-0.36-0.02-0.56-0.04-0.56-0.05
						c0-0.02,0.2-0.04,0.56-0.05c0.36-0.02,0.88-0.03,1.52-0.04c1.29-0.03,3.06-0.04,5.02-0.04c1.96,0,3.74,0.02,5.02,0.04
						c0.64,0.01,1.16,0.03,1.52,0.04C140.11,40.42,140.31,40.44,140.31,40.46z"/>
				</g>
			</g>
		</g>
	</g>
	<g>
		<g>
			<g>
				<g>
					<rect x="24.53" y="30.21" style="fill:#FAFAFA;" width="75.69" height="86.39"/>
				</g>
			</g>
			<g>
				<g>
					<g>
						<path style="fill:#263238;" d="M100.23,116.59c0,0,0-0.14-0.01-0.41c0-0.27,0-0.67-0.01-1.2c0-1.06-0.01-2.62-0.01-4.66
							c-0.01-4.08-0.02-10.05-0.03-17.63c-0.02-15.15-0.04-36.73-0.06-62.49l0.12,0.12c-22.29,0-48.19,0.01-75.69,0.02h-0.01
							l0.14-0.14c-0.01,31.85-0.02,61.55-0.02,86.39l-0.12-0.12c22.77,0.03,41.68,0.05,54.9,0.06c6.62,0.01,11.81,0.02,15.35,0.03
							c1.77,0.01,3.13,0.01,4.05,0.01C99.75,116.59,100.23,116.59,100.23,116.59s-0.46,0.01-1.37,0.01c-0.91,0-2.26,0.01-4.02,0.01
							c-3.54,0.01-8.72,0.02-15.32,0.03c-13.24,0.01-32.17,0.04-54.98,0.06l-0.12,0l0-0.12c-0.01-24.84-0.01-54.54-0.02-86.39
							l0-0.14h0.14h0.01c27.5,0.01,53.4,0.01,75.69,0.02h0.12l0,0.12c-0.03,25.79-0.05,47.4-0.06,62.57
							c-0.01,7.57-0.03,13.53-0.03,17.6c-0.01,2.03-0.01,3.58-0.01,4.64c0,0.52-0.01,0.92-0.01,1.19
							C100.23,116.46,100.23,116.59,100.23,116.59z"/>
					</g>
				</g>
			</g>
		</g>
		<g>
			<g>
				<g>
					<g>
						<path style="fill:#E8505B;" d="M93.72,74.32c-0.02,0.05-0.84-0.42-2.43-0.92c-1.58-0.49-4.03-0.97-6.98-0.52
							c-1.47,0.23-3.05,0.68-4.6,1.48c-1.56,0.78-3.05,1.94-4.53,3.26c-1.48,1.31-2.96,2.8-4.66,4.17c-1.7,1.35-3.65,2.63-5.94,3.22
							c-1.14,0.29-2.33,0.37-3.47,0.21c-1.14-0.16-2.22-0.53-3.22-0.99c-1.99-0.94-3.7-2.17-5.39-3.2
							c-1.68-1.05-3.36-1.88-5.07-2.27c-1.69-0.41-3.34-0.5-4.82-0.37c-2.98,0.26-5.23,1.31-6.65,2.17
							c-1.43,0.87-2.1,1.53-2.14,1.48c-0.01-0.01,0.15-0.18,0.48-0.48c0.32-0.3,0.84-0.71,1.55-1.18c1.41-0.92,3.68-2.05,6.73-2.36
							c1.51-0.15,3.2-0.09,4.95,0.32c1.76,0.38,3.52,1.23,5.22,2.28c1.71,1.03,3.42,2.25,5.35,3.15c1.92,0.92,4.17,1.33,6.35,0.74
							c2.18-0.55,4.08-1.79,5.75-3.11c1.67-1.34,3.15-2.82,4.66-4.13c1.5-1.32,3.03-2.49,4.65-3.28c1.61-0.81,3.24-1.24,4.74-1.46
							c3.03-0.41,5.51,0.13,7.1,0.69c0.8,0.28,1.4,0.56,1.79,0.77C93.53,74.18,93.73,74.3,93.72,74.32z"/>
					</g>
				</g>
			</g>
			<g>
				<g>
					<g>
						<g>
							<rect x="45.37" y="85.92" style="fill:#F36523;" width="6.44" height="17.4"/>
						</g>
					</g>
					<g>
						<g>
							<rect x="72.68" y="85.92" style="fill:#F36523;" width="6.44" height="17.4"/>
						</g>
					</g>
					<g>
						<g>
							<rect x="81.78" y="75.7" style="fill:#F36523;" width="6.44" height="27.62"/>
						</g>
					</g>
					<g>
						<g>
							<rect x="37.04" y="97.85" style="fill:#F36523;" width="6.44" height="5.86"/>
						</g>
					</g>
					<g>
						<g>
							<rect x="54.47" y="93.78" style="fill:#F36523;" width="6.44" height="9.54"/>
						</g>
					</g>
					<g>
						<g>
							<rect x="63.57" y="91.59" style="fill:#F36523;" width="6.44" height="11.74"/>
						</g>
					</g>
				</g>
			</g>
			<g>
				<g>
					<g>
						<g>
							<path style="fill:#263238;" d="M52.06,105.38c0,0.14-1.56,0.26-3.48,0.26c-1.92,0-3.48-0.12-3.48-0.26
								c0-0.14,1.56-0.26,3.48-0.26C50.51,105.12,52.06,105.23,52.06,105.38z"/>
						</g>
					</g>
				</g>
				<g>
					<g>
						<g>
							<path style="fill:#263238;" d="M44.06,105.38c0,0.14-1.56,0.26-3.48,0.26c-1.92,0-3.48-0.12-3.48-0.26
								c0-0.14,1.56-0.26,3.48-0.26C42.5,105.12,44.06,105.23,44.06,105.38z"/>
						</g>
					</g>
				</g>
				<g>
					<g>
						<g>
							<path style="fill:#263238;" d="M89.48,105.38c0,0.14-1.76,0.26-3.93,0.26c-2.17,0-3.93-0.12-3.93-0.26
								c0-0.14,1.76-0.26,3.93-0.26C87.72,105.12,89.48,105.23,89.48,105.38z"/>
						</g>
					</g>
				</g>
				<g>
					<g>
						<g>
							<ellipse style="fill:#263238;" cx="75.99" cy="105.38" rx="3.93" ry="0.26"/>
						</g>
					</g>
				</g>
				<g>
					<g>
						<g>
							<path style="fill:#263238;" d="M70.01,105.38c0,0.14-1.56,0.26-3.48,0.26c-1.92,0-3.48-0.12-3.48-0.26
								c0-0.14,1.56-0.26,3.48-0.26C68.45,105.12,70.01,105.23,70.01,105.38z"/>
						</g>
					</g>
				</g>
				<g>
					<g>
						<g>
							<path style="fill:#263238;" d="M60.6,105.38c0,0.14-1.56,0.26-3.48,0.26c-1.92,0-3.48-0.12-3.48-0.26
								c0-0.14,1.56-0.26,3.48-0.26C59.05,105.12,60.6,105.23,60.6,105.38z"/>
						</g>
					</g>
				</g>
			</g>
		</g>
		<g>
			<g>
				<g>
					<rect x="36.89" y="42.8" style="fill:#E0E0E0;" width="52.59" height="21.84"/>
				</g>
			</g>
			<g>
				<g>
					<g>
						<path style="fill:#263238;" d="M47.82,49.7c0,1.35-1.1,2.45-2.45,2.45c-1.35,0-2.45-1.1-2.45-2.45c0-1.35,1.1-2.45,2.45-2.45
							C46.72,47.25,47.82,48.35,47.82,49.7z"/>
					</g>
				</g>
				<g>
					<g>
						<rect x="50.27" y="48.01" style="fill:#263238;" width="17.08" height="0.95"/>
					</g>
				</g>
				<g>
					<g>
						<rect x="50.27" y="50.17" style="fill:#FFFFFF;" width="33.23" height="0.95"/>
					</g>
				</g>
			</g>
			<g>
				<g>
					<g>
						<path style="fill:#E8505B;" d="M47.82,57.24c0,1.35-1.1,2.45-2.45,2.45c-1.35,0-2.45-1.1-2.45-2.45c0-1.35,1.1-2.45,2.45-2.45
							C46.72,54.79,47.82,55.89,47.82,57.24z"/>
					</g>
				</g>
				<g>
					<g>
						<rect x="50.27" y="55.55" style="fill:#E8505B;" width="8.72" height="0.95"/>
					</g>
				</g>
				<g>
					<g>
						<rect x="50.27" y="57.7" style="fill:#FFFFFF;" width="33.23" height="0.95"/>
					</g>
				</g>
			</g>
		</g>
	</g>
	<g>
		<g>
			<g>
				<g>
					<rect x="254.9" y="14.7" style="fill:#FAFAFA;" width="83.12" height="94.86"/>
				</g>
			</g>
			<g>
				<g>
					<g>
						<path style="fill:#263238;" d="M338.02,109.56c0,0,0-0.15-0.01-0.45c0-0.3,0-0.74-0.01-1.32c0-1.16-0.01-2.88-0.01-5.12
							c-0.01-4.48-0.02-11.03-0.03-19.35c-0.02-16.63-0.04-40.33-0.06-68.62l0.12,0.12c-24.48,0-52.92,0.01-83.11,0.02h-0.01
							l0.14-0.14c-0.01,34.97-0.02,67.59-0.02,94.86l-0.12-0.12c25.01,0.03,45.77,0.05,60.29,0.06c7.26,0.01,12.97,0.02,16.86,0.03
							c1.94,0.01,3.43,0.01,4.44,0.01C337.49,109.55,338.02,109.56,338.02,109.56s-0.51,0.01-1.51,0.01c-1,0-2.49,0.01-4.42,0.01
							c-3.88,0.01-9.57,0.02-16.83,0.03c-14.54,0.01-35.33,0.04-60.37,0.06l-0.12,0v-0.12c-0.01-27.27-0.01-59.89-0.02-94.86v-0.14
							h0.14h0.01c30.19,0.01,58.63,0.01,83.11,0.02h0.12l0,0.12c-0.03,28.32-0.05,52.05-0.06,68.7c-0.01,8.31-0.03,14.85-0.03,19.33
							c-0.01,2.23-0.01,3.94-0.01,5.09c0,0.57-0.01,1.01-0.01,1.3C338.02,109.42,338.02,109.56,338.02,109.56z"/>
					</g>
				</g>
			</g>
		</g>
		<g>
			<g>
				<g>
					<rect x="261.55" y="22.28" style="fill:#E0E0E0;" width="67.34" height="54.02"/>
				</g>
			</g>
			<g>
				<g>
					<g>
						<g>
							<rect x="266.25" y="66.7" style="fill:#263238;" width="2.21" height="0.64"/>
						</g>
					</g>
					<g>
						<g>
							<rect x="271.25" y="70.1" style="fill:#263238;" width="2.83" height="0.64"/>
						</g>
					</g>
					<g>
						<g>
							<rect x="281.09" y="70.1" style="fill:#263238;" width="2.83" height="0.64"/>
						</g>
					</g>
					<g>
						<g>
							<rect x="290.93" y="70.1" style="fill:#263238;" width="2.83" height="0.64"/>
						</g>
					</g>
					<g>
						<g>
							<rect x="300.77" y="70.1" style="fill:#263238;" width="2.83" height="0.64"/>
						</g>
					</g>
					<g>
						<g>
							<rect x="310.61" y="70.1" style="fill:#263238;" width="2.83" height="0.64"/>
						</g>
					</g>
					<g>
						<g>
							<rect x="320.44" y="70.1" style="fill:#263238;" width="2.83" height="0.64"/>
						</g>
					</g>
					<g>
						<g>
							<rect x="266.25" y="58.19" style="fill:#263238;" width="2.21" height="0.64"/>
						</g>
					</g>
					<g>
						<g>
							<rect x="266.25" y="42.18" style="fill:#263238;" width="2.21" height="0.64"/>
						</g>
					</g>
					<g>
						<g>
							<rect x="266.25" y="34.14" style="fill:#263238;" width="2.21" height="0.64"/>
						</g>
					</g>
					<g>
						<g>
							<rect x="266.36" y="50.19" style="fill:#263238;" width="2.21" height="0.64"/>
						</g>
					</g>
					<g>
						<g>
							<g>
								<path style="fill:#263238;" d="M323.19,67.33c0,0-0.08,0.01-0.24,0.01c-0.17,0-0.4,0.01-0.7,0.01
									c-0.63,0.01-1.52,0.02-2.67,0.03c-2.34,0.01-5.69,0.03-9.83,0.04c-8.32,0.01-19.78,0.03-32.45,0.04c-2.63,0-5.22,0-7.69,0
									h-0.14l0-0.14c0.02-10.85,0.04-20.39,0.05-27.24c0.02-3.41,0.03-6.14,0.04-8.04c0.01-0.93,0.02-1.66,0.02-2.17
									c0.01-0.24,0.01-0.42,0.01-0.56c0-0.13,0.01-0.19,0.01-0.19c0,0,0.01,0.06,0.01,0.19c0,0.14,0.01,0.32,0.01,0.56
									c0.01,0.51,0.01,1.23,0.02,2.17c0.01,1.9,0.02,4.64,0.04,8.04c0.01,6.85,0.03,16.4,0.05,27.24l-0.14-0.14
									c2.47,0,5.06,0,7.69,0c12.66,0.02,24.13,0.03,32.45,0.04c4.14,0.02,7.5,0.03,9.83,0.04c1.15,0.01,2.05,0.02,2.67,0.03
									c0.3,0.01,0.53,0.01,0.7,0.01C323.11,67.32,323.19,67.33,323.19,67.33z"/>
							</g>
						</g>
					</g>
					<g>
						<g>
							<g>
								<path style="fill:#263238;" d="M323.81,50.51c0,0.08-11.66,0.14-26.03,0.14c-14.38,0-26.03-0.06-26.03-0.14
									c0-0.08,11.65-0.14,26.03-0.14C312.16,50.37,323.81,50.43,323.81,50.51z"/>
							</g>
						</g>
					</g>
					<g>
						<g>
							<g>
								<path style="fill:#263238;" d="M323.81,42.5c0,0.08-11.66,0.14-26.03,0.14c-14.38,0-26.03-0.06-26.03-0.14
									c0-0.08,11.65-0.14,26.03-0.14C312.16,42.36,323.81,42.42,323.81,42.5z"/>
							</g>
						</g>
					</g>
					<g>
						<g>
							<g>
								<path style="fill:#263238;" d="M323.81,34.46c0,0.08-11.66,0.14-26.03,0.14c-14.38,0-26.03-0.06-26.03-0.14
									c0-0.08,11.65-0.14,26.03-0.14C312.16,34.32,323.81,34.38,323.81,34.46z"/>
							</g>
						</g>
					</g>
					<g>
						<g>
							<g>
								<path style="fill:#263238;" d="M323.81,58.51c0,0.08-11.66,0.14-26.03,0.14c-14.38,0-26.03-0.06-26.03-0.14
									c0-0.08,11.65-0.14,26.03-0.14C312.16,58.37,323.81,58.43,323.81,58.51z"/>
							</g>
						</g>
					</g>
					<g>
						<g>
							<g>
								<path style="fill:#26C4CD;" d="M272.29,65.61c0-1.34,0-7.1,0-7.1l4.43-6.87l3,2.3l6.17-9.58l3.64,2.56l5.06-8.83l4.11,3.35
									l6.17-11.72l6.64,13.1l5.37-6.55l6.32-1.81v31.15H272.29z"/>
							</g>
						</g>
					</g>
				</g>
				<g>
					<g>
						<g>
							<path style="fill:#E8505B;" d="M323.81,31.94c0,0-0.04,0.01-0.11,0.01c-0.09,0-0.19,0.01-0.33,0.01
								c-0.31,0-0.73,0.01-1.28,0.02c-1.14,0.01-2.78,0.02-4.85,0.04l0.06-0.03c-1.41,1.85-3.17,4.15-5.19,6.8l-0.03,0.04l-0.06,0
								c-3.78,0.01-8.21,0.02-13.02,0.02l0.12-0.07c-1.71,2.85-3.56,5.93-5.47,9.11c-1.86,3.1-3.67,6.1-5.37,8.93l-0.11,0.18
								l-0.12-0.17c-2.57-3.54-4.95-6.81-7.05-9.7l0.19-0.01c-2.68,4.17-4.89,7.6-6.44,10.02c-0.77,1.18-1.38,2.12-1.8,2.77
								c-0.2,0.31-0.36,0.55-0.48,0.72c-0.11,0.16-0.17,0.24-0.17,0.24s0.04-0.09,0.14-0.26c0.11-0.18,0.26-0.43,0.45-0.74
								c0.41-0.66,1-1.6,1.75-2.8c1.53-2.42,3.72-5.88,6.36-10.07l0.09-0.14l0.1,0.14c2.11,2.88,4.5,6.15,7.08,9.67l-0.23,0.01
								c1.7-2.83,3.5-5.84,5.37-8.94c1.91-3.18,3.77-6.26,5.48-9.11l0.04-0.07l0.08,0c4.81,0.01,9.24,0.02,13.02,0.02l-0.09,0.04
								c2.04-2.63,3.82-4.92,5.24-6.76l0.02-0.03l0.04,0c2.07,0.02,3.71,0.03,4.85,0.04c0.55,0.01,0.98,0.02,1.28,0.02
								c0.14,0,0.24,0.01,0.33,0.01C323.78,31.93,323.81,31.93,323.81,31.94z"/>
						</g>
					</g>
				</g>
				<g>
					<g>
						<path style="fill:#E8505B;" d="M283.22,49.35c0,0.27-0.22,0.48-0.5,0.48c-0.28,0-0.5-0.22-0.5-0.48c0-0.27,0.22-0.48,0.5-0.48
							C283,48.87,283.22,49.08,283.22,49.35z"/>
					</g>
				</g>
				<g>
					<g>
						<path style="fill:#E8505B;" d="M298.24,40.81c0,0.27-0.22,0.48-0.5,0.48c-0.28,0-0.5-0.22-0.5-0.48c0-0.27,0.22-0.48,0.5-0.48
							C298.02,40.33,298.24,40.55,298.24,40.81z"/>
					</g>
				</g>
				<g>
					<g>
						<path style="fill:#E8505B;" d="M309.91,38.72c0,0.27-0.22,0.48-0.5,0.48c-0.28,0-0.5-0.22-0.5-0.48c0-0.27,0.22-0.48,0.5-0.48
							C309.69,38.24,309.91,38.45,309.91,38.72z"/>
					</g>
				</g>
			</g>
		</g>
		<g>
			<g>
				<g>
					<path style="fill:#263238;" d="M325.85,84.33c0,0.08-14.21,0.14-31.73,0.14c-17.53,0-31.74-0.06-31.74-0.14
						c0-0.08,14.21-0.14,31.74-0.14C311.64,84.19,325.85,84.25,325.85,84.33z"/>
				</g>
			</g>
		</g>
		<g>
			<g>
				<g>
					<path style="fill:#263238;" d="M325.85,87.76c0,0.08-14.21,0.14-31.73,0.14c-17.53,0-31.74-0.06-31.74-0.14
						s14.21-0.14,31.74-0.14C311.64,87.62,325.85,87.69,325.85,87.76z"/>
				</g>
			</g>
		</g>
		<g>
			<g>
				<g>
					<path style="fill:#263238;" d="M325.85,91.19c0,0.08-14.21,0.14-31.73,0.14c-17.53,0-31.74-0.06-31.74-0.14
						s14.21-0.14,31.74-0.14C311.64,91.05,325.85,91.12,325.85,91.19z"/>
				</g>
			</g>
		</g>
		<g>
			<g>
				<g>
					<path style="fill:#263238;" d="M325.85,94.63c0,0.08-14.21,0.14-31.73,0.14c-17.53,0-31.74-0.06-31.74-0.14
						s14.21-0.14,31.74-0.14C311.64,94.48,325.85,94.55,325.85,94.63z"/>
				</g>
			</g>
		</g>
	</g>
	<g>
		<g>
			<g>
				<g>
					<g>
						<path style="fill:#263238;" d="M300.78,93.28c1.74-2.91,2.24-6.8,2.69-10.17c0.21-1.58,0.58-3.84-0.53-4.83
							c-1.19-1.06-1.3-2.7-2.67-3.52c-1.37-0.82-3.23-0.9-4.52,0.04"/>
					</g>
				</g>
				<g>
					<g>
						<g>
							<g>
								<g>
									<g>
										<g>
											<g>
												<g>
													<path style="fill:#FFBE9D;" d="M295.97,103.61L295.97,103.61c-2.65,0.2-4.94-1.84-5.04-4.49
														c-0.1-2.55-0.18-5.13-0.18-5.13s-3.86-0.36-4.14-4.19c-0.28-3.82-0.15-12.65-0.15-12.65l0,0
														c4.31-2.17,9.47-1.84,13.47,0.87l-0.24,13.46v7.24C299.65,101.14,298.39,103.42,295.97,103.61z"/>
												</g>
											</g>
										</g>
									</g>
								</g>
							</g>
						</g>
						<g>
							<g>
								<path style="fill:#263238;" d="M290.41,85.13c0.66-0.82,1.73-1.14,2.61-0.57c0.88,0.57,1.22,1.84,0.74,2.78
									c-0.34,0.66-1.11,1.26-1.88,1.42c-0.72,0.15-1.23,0.85-1.15,1.58c0.11,0.96,1.71,1.32,2.43,2.12
									c1.12,1.24,3.58,1.76,5.24,1.95c1.63,0.19,1.43,0.21,2.38-1.13c0.69-0.97,0.91-1.91,0.93-3.11
									c0.06-2.82,0.12-5.64,0.18-8.46c0.02-1.02,0.04-2.05-0.19-3.04c-0.23-0.99-0.75-1.95-1.6-2.51
									c-0.93-0.61-2.11-0.66-3.17-1.01c-1.32-0.43-2.45-1.31-3.69-1.94c-1.24-0.63-2.76-1.01-4-0.39
									c-0.89,0.45-1.49,1.34-2.36,1.83c-1.24,0.7-2.92,0.54-3.52,2.36c-0.21,0.63-0.19,1.32,0.02,1.94
									c0.84,2.47,3.9,3.47,6.11,2.4c0.04,0.42-0.37,1.35,0.07,2.68C289.7,84.47,289.75,85.12,290.41,85.13"/>
							</g>
						</g>
					</g>
					<g>
						<g>
							<g>
								<path style="fill:#EB996E;" d="M291.09,87.52c0.03-0.02,0.16,0.2,0.48,0.18c0.3-0.01,0.7-0.38,0.72-0.87
									c0.04-0.5-0.35-0.85-0.66-0.95c-0.31-0.12-0.54-0.06-0.55-0.1c-0.02-0.03,0.21-0.17,0.61-0.09c0.19,0.04,0.42,0.14,0.6,0.35
									c0.19,0.2,0.3,0.5,0.28,0.81c-0.02,0.64-0.57,1.1-1,1.06c-0.22-0.01-0.36-0.12-0.43-0.21
									C291.08,87.59,291.08,87.52,291.09,87.52z"/>
							</g>
						</g>
					</g>
					<g>
						<g>
							<g>
								<path style="fill:#455A64;" d="M295.08,75.99c-0.01-0.01,0.08-0.15,0.32-0.32c0.24-0.18,0.63-0.38,1.16-0.45
									c0.53-0.07,1.18-0.02,1.83,0.28c0.65,0.3,1.24,0.84,1.69,1.51c0.9,1.37,1.07,2.86,1.19,3.87c0.1,1.03,0.14,1.66,0.1,1.67
									c-0.04,0.01-0.15-0.63-0.3-1.64c-0.17-1-0.37-2.45-1.22-3.74c-0.42-0.64-0.97-1.15-1.56-1.43c-0.59-0.29-1.2-0.36-1.7-0.32
									C295.56,75.5,295.1,76.04,295.08,75.99z"/>
							</g>
						</g>
					</g>
					<g>
						<g>
							<g>
								<path style="fill:#455A64;" d="M284.3,79.9c0,0.01-0.05,0.01-0.15-0.01c-0.09-0.02-0.23-0.07-0.38-0.17
									c-0.15-0.1-0.32-0.26-0.44-0.5c-0.13-0.23-0.2-0.55-0.12-0.89c0.07-0.33,0.28-0.67,0.62-0.89c0.35-0.24,0.8-0.24,1.21-0.24
									c0.42,0.01,0.82-0.02,1.15-0.29c0.34-0.25,0.6-0.65,0.93-1.01c0.68-0.73,1.55-1.18,2.38-1.37c0.83-0.21,1.62-0.18,2.24-0.05
									c0.63,0.13,1.11,0.35,1.41,0.54c0.3,0.19,0.45,0.33,0.44,0.34c-0.03,0.06-0.65-0.48-1.88-0.68c-0.61-0.1-1.36-0.1-2.14,0.11
									c-0.78,0.2-1.61,0.63-2.24,1.31c-0.32,0.34-0.58,0.75-0.98,1.04c-0.19,0.15-0.42,0.25-0.66,0.3
									c-0.23,0.04-0.46,0.04-0.67,0.04c-0.42-0.01-0.8-0.01-1.08,0.18c-0.29,0.18-0.48,0.46-0.55,0.74
									c-0.15,0.58,0.18,1.05,0.44,1.25C284.11,79.84,284.31,79.87,284.3,79.9z"/>
							</g>
						</g>
					</g>
					<g>
						<g>
							<g>
								<path style="fill:#455A64;" d="M294.54,90.54c-0.01-0.02,0.19-0.09,0.51-0.31c0.31-0.21,0.73-0.57,1.04-1.16
									c0.31-0.58,0.45-1.41,0.18-2.24c-0.13-0.41-0.36-0.81-0.69-1.15c-0.33-0.34-0.75-0.62-1.2-0.87
									c-0.45-0.26-0.9-0.5-1.32-0.78c-0.42-0.28-0.78-0.63-1.06-1c-0.56-0.75-0.82-1.57-0.89-2.26c-0.08-0.7,0.02-1.26,0.12-1.63
									c0.05-0.19,0.11-0.33,0.15-0.42c0.04-0.09,0.07-0.14,0.08-0.14c0.07,0.01-0.35,0.82-0.16,2.16c0.09,0.66,0.37,1.44,0.9,2.13
									c0.27,0.35,0.61,0.66,1.01,0.93c0.4,0.27,0.85,0.5,1.3,0.77c0.45,0.26,0.89,0.56,1.25,0.92c0.36,0.37,0.61,0.81,0.74,1.26
									c0.28,0.91,0.11,1.81-0.25,2.41c-0.35,0.62-0.82,0.98-1.16,1.16C294.76,90.52,294.54,90.55,294.54,90.54z"/>
							</g>
						</g>
					</g>
					<g>
						<g>
							<g>
								<path style="fill:#455A64;" d="M301.17,84.93c0,0.02-0.17,0.06-0.49,0.11c-0.32,0.04-0.79,0.08-1.38,0.04
									c-1.16-0.05-2.78-0.45-4.27-1.47c-1.48-1-2.5-2.37-2.8-3.52c-0.16-0.57-0.13-1.07-0.06-1.39c0.08-0.32,0.18-0.48,0.19-0.47
									c0.06,0-0.29,0.71,0.06,1.8c0.33,1.08,1.33,2.37,2.77,3.34c1.43,0.98,3,1.4,4.12,1.5C300.45,85,301.16,84.87,301.17,84.93z"
									/>
							</g>
						</g>
					</g>
				</g>
				<g>
					<g>
						<path style="fill:#263238;" d="M301.78,82.31c1.33-1.49,3.28-2.5,5.27-2.39c1.99,0.11,3.94,1.49,4.42,3.43
							c0.37,1.46-0.08,2.98-0.27,4.47c-0.19,1.49-0.01,3.23,1.21,4.12c0.73,0.53,1.68,0.63,2.56,0.84c0.88,0.21,1.82,0.65,2.12,1.51
							c0.35,0.98-0.36,2.09-1.32,2.51c-0.95,0.41-2.05,0.29-3.06,0.04c0.46,1.1-0.11,2.47-1.13,3.07c-1.03,0.6-2.38,0.48-3.4-0.14
							c-1.02-0.62-1.71-1.68-2.08-2.81c-0.65,1.15-2.38,1.39-3.48,0.66c-1.1-0.73-1.58-2.18-1.41-3.5c0.17-1.31,0.89-2.5,1.76-3.5
							c0.44-0.5,0.92-0.98,1.23-1.57c0.31-0.59,0.42-1.34,0.08-1.91c-0.34-0.57-1.23-0.81-1.7-0.34"/>
					</g>
				</g>
			</g>
			<g>
				<g>
					<g>
						<path style="fill:#E8505B;" d="M304.08,86.32c0.02,0.02-0.44,0.25-1.15-0.01c-0.69-0.23-1.5-1.05-1.67-2.18
							c-0.09-0.55-0.01-1.11,0.18-1.55c0.19-0.45,0.47-0.8,0.73-1.04c0.54-0.49,1-0.59,1.01-0.56c0.02,0.04-0.39,0.21-0.87,0.7
							c-0.47,0.47-0.95,1.38-0.78,2.4c0.15,1.02,0.85,1.78,1.47,2.04C303.63,86.41,304.08,86.27,304.08,86.32z"/>
					</g>
				</g>
			</g>
			<g>
				<g>
					<g>
						<path style="fill:#EB996E;" d="M290.62,93.92c0,0.03-0.34,0.05-0.87-0.09c-0.53-0.13-1.23-0.45-1.87-1.01
							c-0.63-0.56-1.04-1.22-1.23-1.73c-0.2-0.51-0.22-0.85-0.19-0.86c0.05-0.01,0.14,0.31,0.38,0.77c0.23,0.47,0.64,1.07,1.24,1.6
							c0.6,0.52,1.25,0.86,1.74,1.03C290.29,93.82,290.62,93.88,290.62,93.92z"/>
					</g>
				</g>
			</g>
			<g>
				<g>
					<g>
						<path style="fill:#455A64;" d="M305.34,97.06c0,0.01-0.07,0-0.19-0.03c-0.12-0.03-0.29-0.1-0.5-0.22
							c-0.4-0.25-0.88-0.82-1.09-1.65c-0.1-0.41-0.14-0.89-0.05-1.39c0.08-0.5,0.26-1,0.51-1.51c0.48-1.01,1.24-1.97,1.8-3.08
							c0.28-0.56,0.49-1.13,0.57-1.7c0.08-0.57,0.01-1.13-0.18-1.63c-0.38-1-1.18-1.66-1.94-1.92c-0.77-0.27-1.45-0.21-1.89-0.12
							c-0.45,0.09-0.68,0.22-0.69,0.2c0-0.01,0.05-0.04,0.16-0.1c0.11-0.06,0.28-0.13,0.5-0.2c0.45-0.13,1.16-0.22,1.98,0.04
							c0.81,0.25,1.69,0.95,2.12,2.01c0.22,0.53,0.3,1.14,0.22,1.76c-0.08,0.61-0.3,1.22-0.59,1.79c-0.58,1.15-1.35,2.1-1.82,3.07
							c-0.49,0.96-0.69,1.94-0.5,2.74c0.17,0.8,0.6,1.34,0.95,1.61C305.09,96.98,305.35,97.03,305.34,97.06z"/>
					</g>
				</g>
			</g>
			<g>
				<g>
					<g>
						<path style="fill:#455A64;" d="M311.11,99.86c0,0.01-0.08,0.01-0.24,0.01c-0.16-0.01-0.39-0.03-0.68-0.12
							c-0.58-0.17-1.38-0.65-1.99-1.55c-0.63-0.9-0.93-2.23-0.86-3.65c0.05-1.43,0.47-2.94,0.74-4.53c0.13-0.79,0.21-1.58,0.16-2.33
							c-0.05-0.75-0.21-1.47-0.49-2.09c-0.28-0.62-0.68-1.16-1.17-1.52c-0.47-0.38-1.02-0.59-1.52-0.72
							c-1.02-0.24-1.89-0.11-2.46,0.01c-0.58,0.13-0.88,0.26-0.89,0.23c0-0.01,0.07-0.05,0.21-0.11c0.14-0.06,0.36-0.15,0.65-0.23
							c0.57-0.15,1.46-0.32,2.53-0.1c0.53,0.12,1.1,0.33,1.62,0.73c0.52,0.38,0.96,0.95,1.26,1.6c0.3,0.66,0.48,1.4,0.53,2.18
							c0.05,0.78-0.03,1.59-0.16,2.39c-0.27,1.61-0.69,3.1-0.76,4.5c-0.08,1.38,0.18,2.65,0.77,3.52c0.57,0.88,1.31,1.37,1.86,1.56
							C310.78,99.85,311.12,99.82,311.11,99.86z"/>
					</g>
				</g>
			</g>
		</g>
		<polygon style="fill:#FFBE9D;" points="312.26,117.28 304.12,123.63 307.54,129.24 317.35,122.02 		"/>
		<path style="fill:#FFBE9D;" d="M290.47,95.93c0,0,0.04-0.68-1.74-0.78c-1.78-0.1-1.97-0.07-1.97-0.07s-0.8-1.02-0.85-1.65
			c-0.05-0.62,0.38-1.67,0.38-1.67l1.8-0.17l-0.49-1.22l-1.27,0.09l-3.58,0.43l-1.42,6.27l-9.77,18.23
			c-1.59,2.38-0.71,5.61,1.86,6.85l0,0c2.52,1.22,5.91-1.37,6.84-4.01l5.41-20.28l1.9-1.49l2.72-0.5"/>
		<path style="fill:#FFBE9D;" d="M268.21,217.28l13.3-76.51l-0.02,0c0.03-0.11,0.06-0.22,0.08-0.33l0-0.01l0,0
			c2.26-8.97,5.75-11.85,5.75-11.85l20.35,1.28c1.73,3.11,1.95,10.57,1.95,10.57c0.24,0.91-4.3,75.05-4.3,75.05l-6.81-0.19
			l-3.69-70.14l-19.81,72.43L268.21,217.28z"/>
		<g>
			<g>
				<g>
					<g>
						<g>
							<path style="fill:#E8505B;" d="M268.05,217.97l0.03-0.69l7,0.2l-0.06,2.28l-0.43,0.01c-1.93,0.05-9.8,0.12-11.07-0.28
								C262.09,219.05,268.05,217.97,268.05,217.97z"/>
						</g>
					</g>
					<g style="opacity:0.6;">
						<g>
							<path style="fill:#FFFFFF;" d="M272.49,219.64c0.12-0.54,0.46-1.03,0.93-1.36c0.48-0.32,1.06-0.49,1.64-0.43l-0.05,1.81
								L272.49,219.64z"/>
						</g>
					</g>
				</g>
				<g style="opacity:0.6;">
					<g>
						<path style="fill:#FFFFFF;" d="M265.13,218.59c0,0-2.09,0.5-1.84,0.83c0.25,0.32,8.21,0.53,11.73,0.34l-0.01-0.15l-9.28-0.17
							C265.72,219.44,265.54,218.62,265.13,218.59z"/>
					</g>
				</g>
				<g>
					<g>
						<g>
							<path style="fill:#263238;" d="M275.12,219.61c0,0-0.04,0.01-0.12,0.01c-0.1,0-0.22,0.01-0.34,0.01
								c-0.34,0-0.77,0.01-1.27,0.02c-1.07,0.01-2.55,0-4.18-0.04c-1.63-0.04-3.11-0.11-4.18-0.17c-0.5-0.03-0.92-0.06-1.27-0.08
								c-0.13-0.01-0.24-0.02-0.34-0.03c-0.08-0.01-0.12-0.01-0.12-0.02c0,0,0.04,0,0.12,0c0.1,0,0.22,0.01,0.34,0.01
								c0.34,0.02,0.77,0.03,1.27,0.06c1.07,0.05,2.55,0.11,4.18,0.15c1.63,0.04,3.11,0.06,4.18,0.06c0.5,0,0.92,0.01,1.27,0.01
								c0.13,0,0.24,0,0.34,0C275.08,219.61,275.12,219.61,275.12,219.61z"/>
						</g>
					</g>
				</g>
				<g>
					<g>
						<g>
							<path style="fill:#263238;" d="M265.72,219.54c-0.03,0-0.04-0.28-0.22-0.57c-0.18-0.29-0.43-0.44-0.42-0.46
								c0.01-0.02,0.3,0.11,0.49,0.42C265.77,219.25,265.74,219.55,265.72,219.54z"/>
						</g>
					</g>
				</g>
				<g>
					<g>
						<g>
							<path style="fill:#263238;" d="M267.81,218.63c-0.02,0.01-0.12-0.1-0.21-0.25c-0.1-0.15-0.16-0.28-0.14-0.29
								c0.02-0.01,0.11,0.1,0.21,0.25C267.77,218.48,267.83,218.62,267.81,218.63z"/>
						</g>
					</g>
				</g>
				<g>
					<g>
						<g>
							<path style="fill:#263238;" d="M268.38,218.36c-0.02,0.02-0.12-0.06-0.24-0.16c-0.12-0.1-0.2-0.2-0.18-0.22
								c0.02-0.02,0.12,0.06,0.24,0.16C268.31,218.25,268.4,218.35,268.38,218.36z"/>
						</g>
					</g>
				</g>
				<g>
					<g>
						<g>
							<path style="fill:#263238;" d="M268.76,217.76c0,0.02-0.16,0.04-0.36,0.03c-0.2,0-0.36-0.02-0.36-0.05
								c0-0.02,0.16-0.04,0.36-0.03C268.59,217.72,268.76,217.74,268.76,217.76z"/>
						</g>
					</g>
				</g>
				<g>
					<g>
						<g>
							<path style="fill:#263238;" d="M268.89,217.33c0.01,0.02-0.17,0.09-0.41,0.1c-0.24,0.01-0.42-0.04-0.42-0.06
								c0-0.02,0.19,0,0.41-0.02C268.7,217.35,268.88,217.31,268.89,217.33z"/>
						</g>
					</g>
				</g>
				<g>
					<g>
						<g>
							<path style="fill:#263238;" d="M267.59,218.06c0,0.01-0.17,0.02-0.45-0.01c-0.14-0.02-0.3-0.05-0.47-0.11
								c-0.09-0.03-0.18-0.06-0.27-0.11c-0.04-0.03-0.09-0.07-0.11-0.13c-0.02-0.06,0.02-0.13,0.07-0.16
								c0.43-0.19,0.86,0.04,1.01,0.25c0.08,0.11,0.12,0.21,0.14,0.28c0.02,0.07,0.01,0.11,0.01,0.11c-0.02,0-0.03-0.16-0.19-0.36
								c-0.08-0.1-0.21-0.19-0.38-0.24c-0.16-0.05-0.38-0.07-0.53,0.02c-0.07,0.05-0.05,0.13,0.03,0.17
								c0.07,0.05,0.17,0.08,0.25,0.11c0.17,0.06,0.32,0.1,0.46,0.12C267.42,218.04,267.59,218.04,267.59,218.06z"/>
						</g>
					</g>
				</g>
				<g>
					<g>
						<g>
							<path style="fill:#263238;" d="M267.47,218.07c-0.01,0-0.07-0.1-0.04-0.29c0.01-0.09,0.05-0.2,0.13-0.3
								c0.08-0.09,0.19-0.22,0.38-0.2c0.1,0.02,0.15,0.13,0.13,0.2c-0.01,0.07-0.05,0.13-0.08,0.18c-0.07,0.1-0.15,0.18-0.22,0.25
								c-0.14,0.12-0.26,0.17-0.26,0.16c-0.01-0.01,0.09-0.07,0.22-0.2c0.06-0.06,0.13-0.15,0.2-0.24c0.06-0.09,0.11-0.24,0-0.27
								c-0.11-0.01-0.23,0.09-0.3,0.17c-0.07,0.09-0.12,0.18-0.13,0.27C267.45,217.96,267.49,218.07,267.47,218.07z"/>
						</g>
					</g>
				</g>
				<g>
					<g>
						<g>
							<path style="fill:#263238;" d="M275.03,217.83c0,0.01-0.2-0.02-0.52,0c-0.31,0.02-0.75,0.13-1.14,0.4
								c-0.39,0.27-0.62,0.63-0.73,0.9c-0.11,0.27-0.13,0.46-0.15,0.46c-0.01,0-0.01-0.05,0-0.13c0.01-0.08,0.04-0.2,0.09-0.35
								c0.1-0.29,0.33-0.67,0.74-0.95c0.4-0.28,0.86-0.38,1.18-0.39c0.16-0.01,0.29,0,0.38,0.02
								C274.98,217.82,275.03,217.83,275.03,217.83z"/>
						</g>
					</g>
				</g>
				<g>
					<g>
						<g>
							<path style="fill:#263238;" d="M271.63,218.98c0,0.02-0.45,0.08-1.02,0.07c-0.57-0.01-1.02-0.08-1.02-0.1
								c0-0.02,0.46,0.02,1.02,0.02C271.17,218.98,271.63,218.96,271.63,218.98z"/>
						</g>
					</g>
				</g>
				<g>
					<g>
						<g>
							<path style="fill:#263238;" d="M273,219.02c0.02,0.02-0.04,0.09-0.09,0.18c-0.05,0.1-0.08,0.18-0.1,0.18
								c-0.02,0-0.03-0.1,0.03-0.21C272.89,219.06,272.98,219,273,219.02z"/>
						</g>
					</g>
				</g>
				<g>
					<g>
						<g>
							<path style="fill:#263238;" d="M273.53,218.44c0.02,0.02-0.03,0.08-0.11,0.15c-0.07,0.07-0.15,0.11-0.16,0.09
								c-0.02-0.02,0.03-0.08,0.11-0.15C273.44,218.46,273.51,218.42,273.53,218.44z"/>
						</g>
					</g>
				</g>
				<g>
					<g>
						<g>
							<path style="fill:#263238;" d="M274.27,218.18c-0.01,0.02-0.1,0.02-0.2,0.05c-0.1,0.03-0.18,0.08-0.2,0.06
								c-0.02-0.01,0.04-0.1,0.17-0.14C274.18,218.12,274.28,218.16,274.27,218.18z"/>
						</g>
					</g>
				</g>
				<g>
					<g>
						<g>
							<path style="fill:#263238;" d="M274.8,218.07c0.01,0.02-0.03,0.05-0.09,0.07c-0.06,0.02-0.11,0.02-0.12,0
								c-0.01-0.02,0.03-0.05,0.09-0.07C274.74,218.05,274.79,218.05,274.8,218.07z"/>
						</g>
					</g>
				</g>
			</g>
		</g>
		<g>
			<g>
				<g>
					<path style="fill:#263238;" d="M302.24,98.08c0,0,2.5,0.25,5.39,2.12c6.44,4.17,17.2,12.99,16.3,17.08
						c-0.76,3.48-9.15,7.7-9.15,7.7l-5.45-6.56l3.34-1.91l-8.22-5.46L302.24,98.08z"/>
				</g>
			</g>
			<g>
				<g>
					<g>
						<path style="fill:#263238;" d="M305.91,111.36l-0.27,0.98l-0.95,4.52l-0.23,6.63c4.88,6.28,4.95,11.58,4.95,11.58l-24.65,2.88
							c0-4.87,1.78-11,1.78-11c1.43-2.42,1.36-9.66,1.09-9.92c-1.54-1.53-1.91-2.65-0.68-4.6c0,0-7.64,8.03-8.43,8.75
							c-2.7,2.48-5.3,1.78-6.5,0.71c-3.38-3.01,0.09-6.9,0.09-6.9l12.87-14.75c0.88-1.01,2.04-1.73,3.35-2.04
							c1.37-0.32,2.76-0.49,2.76-0.49l8.6,0.07c0,0,1.65,0.06,2.56,0.31c0,0,2.98,0.96,3.75,4.65
							C306.76,106.42,305.91,111.36,305.91,111.36z"/>
					</g>
				</g>
			</g>
			<g>
				<g>
					<g>
						<path style="fill:#455A64;" d="M306.18,105.45c0.02,0,0.04,0.25,0.05,0.71c0.01,0.46,0,1.13-0.05,1.95
							c-0.1,1.65-0.38,3.91-0.85,6.37c-0.16,0.84-0.33,1.65-0.51,2.4l0-0.03c-0.08,1.92-0.15,3.57-0.22,4.75
							c-0.04,0.55-0.06,1.01-0.09,1.38c-0.03,0.32-0.05,0.5-0.06,0.5c-0.02,0-0.03-0.18-0.03-0.5c0-0.37,0.01-0.83,0.01-1.38
							c0.02-1.18,0.06-2.84,0.12-4.75l0-0.01l0-0.01c0.17-0.74,0.33-1.56,0.5-2.39c0.47-2.46,0.78-4.7,0.93-6.34
							c0.07-0.82,0.11-1.48,0.14-1.94C306.14,105.7,306.16,105.45,306.18,105.45z"/>
					</g>
				</g>
			</g>
			<g>
				<g>
					<g>
						<path style="fill:#455A64;" d="M306.26,112.08c0.04-0.06,2.06,1.25,4.5,2.94c2.44,1.69,4.39,3.11,4.34,3.17
							c-0.04,0.06-2.06-1.25-4.5-2.94C308.16,113.56,306.22,112.14,306.26,112.08z"/>
					</g>
				</g>
			</g>
			<g>
				<g>
					<g>
						<path style="fill:#455A64;" d="M290.32,102.41c0.01-0.01,0.05,0.03,0.13,0.1c0.08,0.07,0.18,0.18,0.31,0.33
							c0.24,0.31,0.52,0.83,0.67,1.53c0.15,0.69,0.14,1.57-0.14,2.47c-0.3,0.89-0.75,1.81-1.38,2.69c-0.31,0.44-0.66,0.84-1.02,1.2
							c-0.36,0.36-0.74,0.66-1.08,0.97c-0.68,0.61-1.27,1.19-1.76,1.69c-0.49,0.49-0.87,0.91-1.13,1.19
							c-0.27,0.28-0.41,0.44-0.43,0.43c-0.01-0.01,0.11-0.19,0.35-0.5c0.24-0.31,0.6-0.74,1.07-1.25c0.47-0.51,1.05-1.11,1.73-1.74
							c0.34-0.32,0.71-0.62,1.06-0.97c0.35-0.35,0.68-0.74,0.98-1.17c0.61-0.85,1.07-1.75,1.36-2.6c0.28-0.85,0.31-1.69,0.19-2.36
							C291,103.04,290.26,102.44,290.32,102.41z"/>
					</g>
				</g>
			</g>
			<g>
				<g>
					<polygon style="fill:#455A64;" points="287.45,124.21 287.74,120.9 304.55,120.9 304.46,123.48 					"/>
				</g>
			</g>
			<g>
				<g>
					<g>
						<path style="fill:none;stroke:#839198;stroke-width:0.05;stroke-miterlimit:10;" d="M273.69,114.73"/>
					</g>
				</g>
			</g>
			<g>
				<g>
					<g>
						<path style="fill:#455A64;" d="M273.11,114.32c0.03,0.04-0.42,0.32-0.93,0.97c-0.51,0.64-1.03,1.73-0.98,2.98
							c0.05,1.26,0.66,2.3,1.22,2.89c0.56,0.61,1.04,0.85,1.01,0.89c-0.01,0.02-0.13-0.03-0.34-0.14c-0.21-0.11-0.5-0.31-0.81-0.61
							c-0.62-0.59-1.3-1.67-1.36-3.02c-0.05-1.35,0.54-2.48,1.11-3.12c0.28-0.32,0.55-0.55,0.76-0.68
							C272.98,114.36,273.1,114.31,273.11,114.32z"/>
					</g>
				</g>
			</g>
		</g>
		<g>
			<polygon style="fill:#E8505B;" points="305.33,215.47 307.23,219.91 298.7,219.8 298.52,215.28 			"/>
			<g>
				<path style="fill:#263238;" d="M298.64,219.04c0,0.02,0.46,0.05,1.19,0.06c0.74,0.01,1.76,0.01,2.89-0.01
					c1.07-0.02,2.05-0.04,2.88-0.06c0.74-0.02,1.19-0.04,1.19-0.06c0-0.02-0.46-0.05-1.2-0.06c-0.74-0.01-1.76-0.01-2.89,0.01
					c-1.07,0.02-2.05,0.04-2.88,0.06C299.09,219,298.64,219.01,298.64,219.04z"/>
			</g>
			<g>
				<path style="fill:#263238;" d="M302.2,215.37c-0.07,0-0.09,0.81-0.04,1.8c0.05,0.99,0.16,1.79,0.23,1.78
					c0.07,0,0.09-0.81,0.04-1.8C302.37,216.17,302.27,215.37,302.2,215.37z"/>
			</g>
			<polyline style="opacity:0.6;fill:#FFFFFF;" points="307.22,220 298.69,219.71 298.64,218.9 306.79,218.97 307.22,219.9 			"/>
		</g>
		<g>
			<g>
				<g>
					<g>
						<g>
							<path style="fill:#0E5BA9;" d="M308.87,130.79c6.42,20.26-1.86,44.85,0.13,68.46c0.19,2.32,1.14,5.09-1.03,6.41
								c-0.58,0.36-1.27,0.5-1.96,0.48c-1.73-0.06-3.18-0.96-4.73-1.57c-2.94-1.17-6.28-1.3-9.3-0.36c-2.05,0.64-4.08,1.77-6.2,1.45
								c-2.82-0.43-4.64-3.21-7.24-4.39c-2.43-1.1-5.23-0.69-7.9-0.76c-0.03,0-0.05,0-0.08,0c-3.85-0.12-6.54-3.87-5.53-7.58
								c3.88-14.19,16.73-60.3,22.42-68.72l17.01-0.72C306.03,125.38,308.04,128.21,308.87,130.79z"/>
						</g>
					</g>
				</g>
			</g>
			<g>
				<g>
					<g>
						<path style="fill:#263238;" d="M302.91,140.33c0.03,0.03-0.32,0.47-0.93,1.16c-0.6,0.69-1.45,1.64-2.51,2.57
							c-1.07,0.93-2.16,1.6-2.96,2.04c-0.81,0.44-1.33,0.66-1.35,0.62c-0.06-0.1,2.02-1.07,4.13-2.88c1.05-0.91,1.91-1.84,2.55-2.49
							C302.48,140.7,302.88,140.3,302.91,140.33z"/>
					</g>
				</g>
			</g>
			<g style="opacity:0.1;">
				<g>
					<g>
						<path d="M295.4,147.97c-5.36,13.71-6.37,29.08-2.85,43.37c0.3,1.24,0.62,2.65-0.09,3.71c-0.91,1.38-3.12,1.28-4.37,0.2
							c-1.25-1.08-1.75-2.78-2.06-4.4c-2.34-12.09,1.89-24.23,6.46-35.67"/>
					</g>
				</g>
			</g>
		</g>
	</g>
	<g>
		<g>
			<g>
				<g>
					<g>
						<g>
							<g>
								<g>
									<g>
										<rect x="166.69" y="154.8" style="fill:#263238;" width="32.24" height="1.57"/>
									</g>
								</g>
							</g>
						</g>
						<g>
							<g>
								<g>
									<g>
										<polygon style="fill:#263238;" points="161.7,156.37 155.65,133.71 180.82,133.71 186.3,156.37 										"/>
									</g>
								</g>
							</g>
						</g>
					</g>
					<g>
						<g>
							<g>
								<g>
									<polygon style="fill:#F5F5F5;" points="184.79,154.65 162.3,154.65 157.07,134.76 179.67,134.76 									"/>
								</g>
							</g>
						</g>
					</g>
				</g>
				<g>
					<g>
						<g>
							<path style="fill:#EBEBEB;" d="M157.44,136.19c7.61,0,14.99,0,22.61,0l-0.38-1.43h-22.6L157.44,136.19z"/>
						</g>
					</g>
				</g>
				<g>
					<g>
						<g>
							<g>
								<path style="fill:#FAFAFA;" d="M159.88,135.47c0,0.14,0.11,0.25,0.25,0.25c0.14,0,0.25-0.11,0.25-0.25
									c0-0.14-0.11-0.25-0.25-0.25C160,135.22,159.88,135.33,159.88,135.47z"/>
							</g>
						</g>
					</g>
					<g>
						<g>
							<g>
								<path style="fill:#FAFAFA;" d="M159.03,135.47c0,0.14,0.11,0.25,0.25,0.25c0.14,0,0.25-0.11,0.25-0.25
									c0-0.14-0.11-0.25-0.25-0.25C159.14,135.22,159.03,135.33,159.03,135.47z"/>
							</g>
						</g>
					</g>
					<g>
						<g>
							<g>
								<path style="fill:#FAFAFA;" d="M158.18,135.47c0,0.14,0.11,0.25,0.25,0.25c0.14,0,0.25-0.11,0.25-0.25
									c0-0.14-0.11-0.25-0.25-0.25C158.29,135.22,158.18,135.33,158.18,135.47z"/>
							</g>
						</g>
					</g>
				</g>
			</g>
			<g>
				<g>
					<g>
						<path style="fill:#E8505B;" d="M174.43,144.9l2.48,2.83c0.96-0.69,1.52-1.74,1.52-2.85c-0.01-1.98-1.82-3.6-4.01-3.59
							c-2.19,0.01-3.99,1.65-3.98,3.63L174.43,144.9z"/>
					</g>
				</g>
				<g>
					<g>
						<g>
							<path style="fill:#263238;" d="M174.12,145.36c0.01-0.02,0.26,0.23,0.71,0.71c0.44,0.47,1.07,1.17,1.83,2.01l0.09,0.1
								l-0.11,0.08c-1,0.75-2.67,1.07-4.17,0.41c-0.71-0.3-1.31-0.8-1.72-1.38c-0.41-0.58-0.61-1.25-0.64-1.86l0-0.13l0.12,0
								c1.18-0.01,2.17,0,2.84,0.01C173.75,145.32,174.13,145.33,174.12,145.36c-0.01,0.02-0.41,0.05-1.09,0.08
								c-0.68,0.03-1.65,0.07-2.8,0.1l0.12-0.13c0.03,0.57,0.23,1.18,0.62,1.71c0.39,0.53,0.94,1,1.61,1.28
								c1.4,0.62,2.97,0.34,3.92-0.35l-0.02,0.18c-0.72-0.84-1.31-1.55-1.72-2.05C174.34,145.68,174.11,145.38,174.12,145.36z"/>
						</g>
					</g>
				</g>
				<g>
					<g>
						<path style="fill:#263238;" d="M172.5,142.77c0,0.12,0.1,0.22,0.22,0.22c0.12,0,0.22-0.1,0.22-0.22c0-0.12-0.1-0.22-0.22-0.22
							C172.6,142.54,172.5,142.64,172.5,142.77z"/>
					</g>
				</g>
				<g>
					<g>
						<g>
							<path style="fill:#263238;" d="M168.05,141.15c0-0.08,1.2-0.15,2.67-0.15c0.12,0,0.24,0,0.36,0h0.06l0.04,0.04
								c0.92,0.93,1.6,1.68,1.55,1.73c-0.05,0.05-0.81-0.62-1.74-1.53l0.1,0.04c-0.12,0-0.23,0-0.36,0
								C169.25,141.28,168.05,141.22,168.05,141.15z"/>
						</g>
					</g>
				</g>
				<g>
					<g>
						<g>
							<path style="fill:#263238;" d="M162.99,143.98c-0.01,0.02-0.1-0.36-0.26-1.04c-0.15-0.69-0.37-1.69-0.61-2.92l-0.03-0.13
								l0.14,0c1.59-0.01,3.52-0.03,5.59-0.05c-0.03-0.03,0.26,0.22,0.14,0.12l0,0l0,0l0,0l0,0.01l0,0.02l0.01,0.03l0.01,0.07
								l0.03,0.13l0.05,0.27c0.03,0.18,0.07,0.35,0.1,0.52c0.06,0.35,0.13,0.69,0.19,1.02c0.12,0.67,0.24,1.31,0.35,1.91l0.03,0.15
								l-0.15,0c-1.68,0-3.09-0.02-4.08-0.04c-0.45-0.01-0.83-0.02-1.13-0.03C163.11,144,162.98,143.99,162.99,143.98
								c0.01-0.01,0.16-0.02,0.43-0.03c0.32-0.01,0.7-0.02,1.16-0.04c0.99-0.03,2.37-0.06,4-0.08l-0.12,0.15
								c-0.12-0.6-0.24-1.24-0.37-1.91c-0.06-0.33-0.13-0.67-0.2-1.02c-0.03-0.17-0.07-0.35-0.1-0.52l-0.05-0.27l-0.03-0.13
								l-0.01-0.07l-0.01-0.03l0-0.02l0-0.01l0,0l0,0l0,0c-0.12-0.1,0.17,0.14,0.14,0.11c-2.08,0-4,0-5.59,0l0.11-0.14
								c0.21,1.19,0.38,2.18,0.49,2.88C162.94,143.55,163,143.96,162.99,143.98z"/>
						</g>
					</g>
				</g>
				<g>
					<g>
						<g>
							<path style="fill:#263238;" d="M172.17,147.27c0,0.12,0.1,0.22,0.22,0.22c0.12,0,0.22-0.1,0.22-0.23
								c0-0.12-0.1-0.22-0.22-0.22C172.27,147.05,172.17,147.15,172.17,147.27z"/>
						</g>
					</g>
					<g>
						<g>
							<g>
								<path style="fill:#263238;" d="M168.33,147.29c0-0.08,0.91-0.14,2.03-0.15c1.12,0,2.03,0.06,2.03,0.13
									c0,0.08-0.91,0.14-2.03,0.15C169.24,147.42,168.33,147.36,168.33,147.29z"/>
							</g>
						</g>
					</g>
				</g>
				<g>
					<g>
						<g>
							<path style="fill:#263238;" d="M163.01,149.05c-0.01,0.02-0.1-0.25-0.25-0.75c-0.15-0.5-0.36-1.23-0.61-2.15l-0.04-0.13
								l0.14,0c1.52-0.03,3.55-0.05,5.77-0.06c-0.12-0.09,0.17,0.13,0.14,0.11l0,0l0,0l0,0l0,0.01l0,0.01l0.01,0.02l0.01,0.05
								l0.02,0.1l0.05,0.19l0.1,0.38c0.06,0.25,0.13,0.5,0.19,0.75c0.12,0.49,0.24,0.96,0.36,1.42l0.04,0.17l-0.17,0
								c-1.71,0-3.17-0.02-4.19-0.04c-0.46-0.01-0.86-0.02-1.18-0.03C163.14,149.08,163,149.06,163.01,149.05
								c0.01-0.01,0.17-0.02,0.45-0.04c0.33-0.01,0.73-0.03,1.21-0.04c1.02-0.03,2.45-0.06,4.11-0.08l-0.13,0.17
								c-0.12-0.45-0.24-0.93-0.37-1.41c-0.06-0.24-0.13-0.49-0.19-0.75l-0.1-0.38l-0.05-0.19l-0.02-0.1l-0.01-0.05l-0.01-0.02
								l0-0.01l0-0.01l0,0l0,0l0,0c-0.03-0.02,0.26,0.2,0.14,0.11c-2.22,0.01-4.25,0-5.77-0.01l0.1-0.13
								c0.21,0.88,0.38,1.61,0.49,2.13C162.96,148.74,163.02,149.04,163.01,149.05z"/>
						</g>
					</g>
				</g>
				<g>
					<g>
						<g>
							<path style="fill:#263238;" d="M163.43,141.21c0-0.08,0.86-0.14,1.91-0.15c1.06,0,1.91,0.06,1.91,0.13
								c0,0.08-0.86,0.14-1.91,0.15C164.29,141.35,163.43,141.29,163.43,141.21z"/>
						</g>
					</g>
				</g>
				<g>
					<g>
						<g>
							<path style="fill:#263238;" d="M163.48,141.84c0-0.08,0.86-0.14,1.92-0.15c1.06,0,1.93,0.06,1.93,0.13
								c0,0.08-0.86,0.14-1.92,0.15C164.34,141.98,163.48,141.92,163.48,141.84z"/>
						</g>
					</g>
				</g>
				<g>
					<g>
						<g>
							<path style="fill:#263238;" d="M163.59,142.45c0-0.08,0.83-0.14,1.86-0.15c1.03,0,1.86,0.06,1.86,0.13
								c0,0.08-0.83,0.14-1.86,0.15C164.42,142.58,163.59,142.52,163.59,142.45z"/>
						</g>
					</g>
				</g>
				<g>
					<g>
						<g>
							<path style="fill:#263238;" d="M163.54,147.24c0-0.08,0.82-0.14,1.82-0.15c1.01,0,1.82,0.06,1.83,0.13
								c0,0.08-0.82,0.14-1.82,0.15C164.36,147.37,163.54,147.31,163.54,147.24z"/>
						</g>
					</g>
				</g>
				<g>
					<g>
						<g>
							<path style="fill:#263238;" d="M163.77,147.93c0-0.08,0.7-0.14,1.56-0.15c0.86,0,1.56,0.06,1.56,0.13
								c0,0.08-0.7,0.14-1.56,0.15C164.47,148.07,163.77,148.01,163.77,147.93z"/>
						</g>
					</g>
				</g>
			</g>
		</g>
		<g>
			<g>
				<polygon style="fill:#263238;" points="128.52,156.29 128.52,159.26 130.46,159.26 130.46,219.43 134.46,219.43 134.46,159.26 
					155.65,159.26 155.65,219.43 159.64,219.43 159.64,159.26 251.57,159.26 251.57,219.42 255.57,219.42 255.57,159.26 
					257.3,159.26 257.3,156.29 				"/>
			</g>
		</g>
		<g>
			<g>
				<g>
					<g>
						<path style="fill:#263238;" d="M215.1,178.71c0,0.06,1.16,0.11,2.6,0.11c1.43,0,2.6-0.05,2.6-0.11c0-0.06-1.16-0.11-2.6-0.11
							C216.26,178.6,215.1,178.65,215.1,178.71z"/>
					</g>
				</g>
			</g>
		</g>
		<g>
			<g>
				<g>
					<ellipse style="fill:#455A64;" cx="177.28" cy="179.26" rx="0.14" ry="0.07"/>
				</g>
			</g>
		</g>
		<g>
			<g>
				<g>
					<g>
						<path style="fill:#B78876;" d="M202.72,125.77l-14.91-15.15l-0.32-1.64c-0.06-0.3-0.12-0.64-0.18-1.02
							c-0.07-0.44-0.06-0.9,0.02-1.34c0.1-0.53,0.26-1.23,0.46-1.59c0.25-0.44-0.15-0.97-0.57-0.79c-0.42,0.18-1.14,1.37-1.29,3.01
							c-0.16,1.64-1.55-0.53-2.07-1.32c-0.52-0.78-2.25-3.13-2.61-3.15c-0.53-0.04-0.66,0.53-0.12,1.3c0.55,0.78,2,3.19,1.59,3.45
							c0,0-0.01,0-0.02,0c-0.84-0.14-1.67,0.27-2.06,1.02c-0.38,0.72-0.8,1.75-0.45,2.22c0.65,0.89,2.38,2.52,2.38,2.52l0.5,0.43
							c0,0,12.9,18.7,15.72,19.3c1.75,0.38,28.79,2.62,28.79,2.62l2.04-7.45L202.72,125.77z"/>
					</g>
				</g>
				<g>
					<g>
						<g>
							<path style="fill:#B78876;" d="M180.06,110.47c0.46,0.44,0.92,0.88,1.38,1.33c0.16,0.15,0.32,0.3,0.52,0.38
								c0.2,0.08,0.46,0.06,0.6-0.1c0.13-0.14,0.15-0.37,0.08-0.55c-0.06-0.19-0.19-0.34-0.32-0.49c-0.45-0.54-0.89-1.07-1.34-1.61"
								/>
						</g>
					</g>
					<g>
						<g>
							<g>
								<path style="fill:#AA6550;" d="M180.99,109.42c0.03-0.02,0.29,0.23,0.68,0.67c0.22,0.25,0.45,0.51,0.68,0.77
									c0.12,0.15,0.27,0.3,0.38,0.52c0.11,0.21,0.15,0.52-0.04,0.77c-0.2,0.25-0.53,0.25-0.75,0.17c-0.24-0.09-0.4-0.24-0.54-0.38
									c-0.25-0.25-0.49-0.5-0.72-0.74c-0.41-0.42-0.64-0.7-0.62-0.73c0.03-0.03,0.31,0.2,0.75,0.59c0.25,0.22,0.5,0.45,0.76,0.69
									c0.14,0.13,0.29,0.25,0.45,0.31c0.16,0.05,0.36,0.03,0.44-0.09c0.09-0.12,0.09-0.32,0.01-0.47
									c-0.08-0.16-0.21-0.31-0.33-0.47c-0.22-0.28-0.43-0.55-0.64-0.81C181.16,109.75,180.96,109.45,180.99,109.42z"/>
							</g>
						</g>
					</g>
				</g>
				<g>
					<g>
						<g>
							<path style="fill:#B78876;" d="M181.04,109.5c0.46,0.44,0.92,0.88,1.38,1.33c0.16,0.15,0.32,0.3,0.52,0.38s0.46,0.06,0.6-0.1
								c0.13-0.14,0.15-0.37,0.08-0.55c-0.06-0.19-0.19-0.34-0.32-0.49c-0.45-0.54-0.89-1.07-1.34-1.61"/>
						</g>
					</g>
					<g>
						<g>
							<g>
								<path style="fill:#AA6550;" d="M181.97,108.46c0.03-0.02,0.29,0.23,0.68,0.67c0.22,0.25,0.45,0.51,0.68,0.77
									c0.12,0.15,0.27,0.3,0.38,0.52c0.11,0.21,0.15,0.52-0.04,0.77c-0.2,0.25-0.53,0.25-0.75,0.17c-0.24-0.09-0.4-0.24-0.54-0.38
									c-0.25-0.25-0.49-0.5-0.72-0.74c-0.41-0.42-0.64-0.7-0.62-0.73c0.03-0.03,0.31,0.2,0.75,0.59c0.25,0.22,0.5,0.45,0.76,0.69
									c0.14,0.13,0.29,0.25,0.45,0.31c0.16,0.05,0.36,0.03,0.44-0.09c0.09-0.12,0.09-0.32,0.01-0.47
									c-0.08-0.16-0.21-0.31-0.33-0.47c-0.22-0.28-0.43-0.55-0.64-0.81C182.14,108.78,181.94,108.48,181.97,108.46z"/>
							</g>
						</g>
					</g>
				</g>
				<g>
					<g>
						<g>
							<path style="fill:#B78876;" d="M182.12,108.71c0.46,0.44,0.92,0.88,1.38,1.33c0.16,0.15,0.32,0.3,0.52,0.38
								c0.2,0.08,0.46,0.06,0.6-0.1c0.13-0.14,0.15-0.37,0.08-0.55c-0.06-0.19-0.19-0.34-0.32-0.49c-0.45-0.54-0.89-1.07-1.34-1.61"
								/>
						</g>
					</g>
					<g>
						<g>
							<g>
								<path style="fill:#AA6550;" d="M183.04,107.67c0.03-0.02,0.29,0.23,0.68,0.67c0.22,0.25,0.45,0.51,0.68,0.77
									c0.12,0.15,0.27,0.3,0.38,0.52c0.11,0.21,0.15,0.52-0.04,0.77c-0.2,0.25-0.53,0.25-0.75,0.17c-0.24-0.09-0.4-0.24-0.54-0.38
									c-0.25-0.25-0.49-0.5-0.72-0.74c-0.41-0.42-0.64-0.7-0.62-0.73c0.03-0.03,0.31,0.2,0.75,0.59c0.25,0.22,0.5,0.45,0.76,0.69
									c0.14,0.13,0.29,0.25,0.45,0.31c0.16,0.05,0.36,0.03,0.44-0.09c0.09-0.12,0.09-0.32,0.01-0.47
									c-0.08-0.16-0.21-0.31-0.33-0.47c-0.22-0.28-0.43-0.55-0.64-0.81C183.22,107.99,183.01,107.69,183.04,107.67z"/>
							</g>
						</g>
					</g>
				</g>
				<g>
					<g>
						<g>
							<path style="fill:#AA6550;" d="M184.3,111.01c0-0.04,0.34-0.11,0.84,0.04l-0.16,0.14c-0.07-0.27-0.1-0.6-0.04-0.95
								c0.08-0.5,0.31-0.91,0.52-1.15c0.21-0.25,0.39-0.35,0.41-0.32c0.06,0.05-0.51,0.61-0.65,1.52c-0.05,0.31-0.04,0.61-0.01,0.86
								l0.03,0.22l-0.19-0.08C184.62,111.09,184.29,111.06,184.3,111.01z"/>
						</g>
					</g>
				</g>
			</g>
			<g>
				<g>
					<g>
						<g>
							<path style="fill:#B78876;" d="M222.26,103.06l0.06,20.76l-8.09,0.39l-0.33-4.97c0,0-3.9,0.59-4.72-2.34
								c-0.52-1.88-0.39-16.38-0.39-16.38L222.26,103.06z"/>
						</g>
					</g>
					<g>
						<g>
							<path style="fill:#263238;" d="M206.78,102.55c0.6,1.24,3.46,3.51,3.46,3.51l1.29,3.46c1.12-0.88,2.63-0.83,2.91,1.14
								c0.21,1.42-1.56,1.71-1.56,1.71c1.03,1.75,1.73,3.17,3.23,4.84c1.62,1.8,2.53,1.99,4.29,2.02h1.94c0,0,3.97-3.32,3.19-12.06
								s-8.64-6.19-10.52-8.38C211.95,95.23,204.78,98.41,206.78,102.55z"/>
						</g>
					</g>
				</g>
				<g>
					<g>
						<g>
							<path style="fill:#455A64;" d="M225.08,114.47c0,0-0.35,0.07-0.96-0.04c-0.61-0.11-1.48-0.46-2.32-1.19
								c-0.85-0.73-1.6-1.84-2.34-3.1c-0.76-1.24-1.58-2.68-2.97-3.64c-1.41-0.94-3.06-1.13-4.48-1.42
								c-1.43-0.27-2.74-0.68-3.62-1.38c-0.89-0.69-1.32-1.54-1.45-2.15c-0.13-0.61-0.04-0.96-0.04-0.96c0.02,0-0.06,0.35,0.08,0.95
								c0.14,0.59,0.58,1.43,1.46,2.1c0.88,0.68,2.16,1.08,3.59,1.34c1.42,0.29,3.09,0.47,4.53,1.43c1.42,0.98,2.25,2.44,3,3.68
								c0.74,1.26,1.47,2.37,2.31,3.09c0.82,0.74,1.67,1.09,2.27,1.21c0.3,0.07,0.54,0.07,0.7,0.08
								C224.99,114.47,225.08,114.47,225.08,114.47z"/>
						</g>
					</g>
				</g>
				<g>
					<g>
						<g>
							<path style="fill:#455A64;" d="M225.54,107.36c0,0-0.14-0.04-0.42-0.13c-0.27-0.08-0.68-0.21-1.22-0.27
								c-0.53-0.05-1.24-0.02-1.87,0.42c-0.31,0.22-0.58,0.56-0.65,0.98c-0.07,0.41,0.03,0.92,0.38,1.24
								c0.17,0.16,0.41,0.25,0.65,0.26c0.25,0.01,0.5-0.07,0.72-0.2c0.45-0.26,0.81-0.71,0.98-1.25c0.36-1.06,0.11-2.44-0.87-3.28
								c-0.47-0.42-1.09-0.71-1.75-0.78c-0.66-0.07-1.34,0.08-2.01,0.26c-0.67,0.19-1.36,0.41-2.08,0.5
								c-0.72,0.1-1.47,0.1-2.21,0.01c-0.74-0.1-1.47-0.28-2.13-0.59c-0.65-0.31-1.26-0.83-1.46-1.54
								c-0.19-0.69-0.01-1.47,0.49-1.96c0.51-0.5,1.31-0.56,1.9-0.28c0.3,0.14,0.56,0.37,0.7,0.66c0.15,0.29,0.19,0.62,0.15,0.93
								c-0.08,0.62-0.45,1.17-0.95,1.48c-0.49,0.32-1.06,0.44-1.6,0.44c-0.54,0.01-1.05-0.09-1.52-0.23
								c-0.94-0.29-1.68-0.82-2.23-1.37c-0.55-0.55-0.91-1.13-1.14-1.62c-0.24-0.49-0.33-0.91-0.4-1.19
								c-0.05-0.28-0.07-0.43-0.07-0.43s0.03,0.15,0.09,0.43c0.08,0.27,0.18,0.69,0.42,1.17c0.24,0.49,0.59,1.06,1.14,1.6
								c0.54,0.54,1.28,1.06,2.21,1.34c0.46,0.14,0.96,0.24,1.49,0.22c0.52-0.01,1.08-0.13,1.55-0.44c0.47-0.3,0.82-0.83,0.9-1.42
								c0.09-0.59-0.21-1.24-0.8-1.49c-0.56-0.26-1.31-0.2-1.78,0.26c-0.47,0.45-0.65,1.2-0.46,1.85c0.18,0.67,0.76,1.16,1.4,1.47
								c0.65,0.31,1.37,0.48,2.1,0.58c0.73,0.09,1.47,0.09,2.18,0c0.71-0.09,1.39-0.31,2.07-0.5c0.67-0.19,1.37-0.34,2.05-0.26
								c0.68,0.07,1.32,0.37,1.8,0.81c1,0.87,1.26,2.3,0.88,3.39c-0.18,0.56-0.55,1.02-1.02,1.29c-0.24,0.13-0.5,0.22-0.77,0.2
								c-0.26-0.01-0.52-0.11-0.7-0.28c-0.38-0.35-0.47-0.88-0.39-1.31c0.08-0.45,0.37-0.8,0.69-1.02c0.66-0.45,1.38-0.47,1.92-0.41
								c0.54,0.06,0.95,0.21,1.22,0.29C225.4,107.3,225.54,107.36,225.54,107.36z"/>
						</g>
					</g>
				</g>
			</g>
			<g>
				<g>
					<g>
						<g>
							<g>
								<g>
									<g>
										<g>
											<g>
												<path style="fill:#E8505B;" d="M215.25,214.36l-2.65-3.39l6.33-5l3.92,4.92l-0.37,0.33c-1.67,1.48-8.59,7.38-10.04,7.95
													C210.83,219.82,215.25,214.36,215.25,214.36z"/>
											</g>
										</g>
									</g>
								</g>
							</g>
						</g>
						<g style="opacity:0.4;">
							<g>
								<g>
									<g>
										<g>
											<path style="fill:#FFFFFF;" d="M213.17,217.12c0,0-1.45,2.03-0.97,2.16c0.48,0.12,7.7-5.58,10.66-8.38l-0.12-0.13
												l-8.36,6.73C214.37,217.5,213.55,216.85,213.17,217.12z"/>
										</g>
									</g>
								</g>
							</g>
						</g>
						<g>
							<g>
								<g>
									<g>
										<g>
											<g>
												<path style="fill:#263238;" d="M222.83,210.68c0,0-0.03,0.04-0.1,0.1c-0.09,0.08-0.19,0.17-0.3,0.27
													c-0.3,0.26-0.67,0.58-1.11,0.96c-0.94,0.8-2.26,1.89-3.74,3.07c-1.48,1.17-2.85,2.21-3.84,2.94
													c-0.47,0.34-0.86,0.63-1.19,0.86c-0.12,0.08-0.23,0.16-0.33,0.23c-0.08,0.05-0.12,0.08-0.12,0.07
													c0,0,0.03-0.03,0.11-0.09c0.09-0.07,0.2-0.15,0.32-0.24c0.32-0.24,0.71-0.54,1.17-0.89c0.99-0.75,2.34-1.79,3.82-2.96
													c1.48-1.17,2.8-2.25,3.76-3.04c0.45-0.37,0.82-0.68,1.13-0.93c0.11-0.09,0.22-0.18,0.31-0.25
													C222.79,210.71,222.83,210.68,222.83,210.68z"/>
											</g>
										</g>
									</g>
								</g>
							</g>
						</g>
						<g>
							<g>
								<g>
									<g>
										<g>
											<g>
												<path style="fill:#263238;" d="M214.45,217.59c-0.02,0.02-0.26-0.24-0.65-0.38c-0.39-0.15-0.74-0.1-0.74-0.13
													c-0.01-0.02,0.35-0.12,0.77,0.04C214.25,217.27,214.47,217.58,214.45,217.59z"/>
											</g>
										</g>
									</g>
								</g>
							</g>
						</g>
						<g>
							<g>
								<g>
									<g>
										<g>
											<g>
												<path style="fill:#263238;" d="M215.57,215.17c-0.01,0.03-0.18-0.01-0.39-0.08c-0.21-0.07-0.37-0.15-0.36-0.18
													c0.01-0.03,0.18,0.01,0.39,0.08C215.41,215.07,215.57,215.14,215.57,215.17z"/>
											</g>
										</g>
									</g>
								</g>
							</g>
						</g>
						<g>
							<g>
								<g>
									<g>
										<g>
											<g>
												<path style="fill:#263238;" d="M215.86,214.49c0,0.03-0.15,0.04-0.34,0.03c-0.19-0.01-0.34-0.04-0.33-0.07
													c0-0.03,0.15-0.04,0.34-0.03C215.72,214.44,215.87,214.47,215.86,214.49z"/>
											</g>
										</g>
									</g>
								</g>
							</g>
						</g>
						<g>
							<g>
								<g>
									<g>
										<g>
											<g>
												<path style="fill:#263238;" d="M215.72,213.64c0.02,0.02-0.12,0.16-0.3,0.3c-0.18,0.15-0.34,0.25-0.36,0.23
													c-0.02-0.02,0.12-0.16,0.3-0.3C215.54,213.72,215.7,213.62,215.72,213.64z"/>
											</g>
										</g>
									</g>
								</g>
							</g>
						</g>
						<g>
							<g>
								<g>
									<g>
										<g>
											<g>
												<path style="fill:#263238;" d="M215.49,213.13c0.02,0.01-0.08,0.21-0.28,0.4c-0.2,0.19-0.41,0.27-0.42,0.25
													c-0.01-0.02,0.16-0.14,0.35-0.32C215.34,213.28,215.47,213.12,215.49,213.13z"/>
											</g>
										</g>
									</g>
								</g>
							</g>
						</g>
						<g>
							<g>
								<g>
									<g>
										<g>
											<g>
												<path style="fill:#263238;" d="M214.92,214.79c0.01,0.01-0.13,0.15-0.41,0.32c-0.14,0.08-0.31,0.17-0.51,0.25
													c-0.1,0.03-0.2,0.08-0.33,0.09c-0.06,0-0.14,0-0.2-0.05c-0.06-0.05-0.09-0.14-0.07-0.21c0.23-0.51,0.79-0.6,1.09-0.51
													c0.16,0.04,0.28,0.11,0.35,0.17c0.07,0.06,0.1,0.1,0.1,0.1c-0.01,0.02-0.15-0.14-0.46-0.2
													c-0.15-0.03-0.34-0.03-0.53,0.05c-0.18,0.07-0.39,0.22-0.46,0.42c-0.03,0.1,0.06,0.15,0.16,0.14
													c0.1-0.01,0.21-0.05,0.31-0.08c0.2-0.07,0.37-0.15,0.5-0.22C214.75,214.9,214.91,214.78,214.92,214.79z"/>
											</g>
										</g>
									</g>
								</g>
							</g>
						</g>
						<g>
							<g>
								<g>
									<g>
										<g>
											<g>
												<path style="fill:#263238;" d="M214.83,214.89c0,0.01-0.14-0.05-0.27-0.25c-0.06-0.1-0.11-0.23-0.12-0.38
													c0-0.15-0.01-0.34,0.17-0.47c0.1-0.06,0.23,0.01,0.27,0.09c0.05,0.08,0.07,0.16,0.07,0.24c0.02,0.15,0.02,0.29,0,0.4
													c-0.03,0.23-0.09,0.35-0.1,0.35c-0.01,0,0.02-0.14,0.03-0.35c0-0.11,0-0.24-0.02-0.38c-0.01-0.13-0.1-0.31-0.21-0.25
													c-0.11,0.07-0.13,0.25-0.13,0.38c0.01,0.14,0.05,0.26,0.09,0.35C214.72,214.8,214.84,214.88,214.83,214.89z"/>
											</g>
										</g>
									</g>
								</g>
							</g>
						</g>
						<g>
							<g>
								<g>
									<g>
										<g>
											<g>
												<path style="fill:#263238;" d="M221.33,209.05c0.01,0.02-0.19,0.13-0.45,0.39c-0.26,0.26-0.56,0.68-0.69,1.23
													c-0.13,0.54-0.04,1.06,0.07,1.4c0.12,0.35,0.25,0.54,0.24,0.55c0,0-0.04-0.04-0.1-0.13c-0.06-0.09-0.13-0.22-0.2-0.4
													c-0.14-0.35-0.24-0.88-0.1-1.45c0.13-0.57,0.46-1,0.73-1.25c0.14-0.13,0.26-0.21,0.35-0.27
													C221.28,209.07,221.33,209.05,221.33,209.05z"/>
											</g>
										</g>
									</g>
								</g>
							</g>
						</g>
						<g>
							<g>
								<g>
									<g>
										<g>
											<g>
												<path style="fill:#263238;" d="M218.6,206.94c0.02-0.02,0.51,0.55,1.08,1.26c0.58,0.71,1.03,1.3,1.01,1.32
													c-0.02,0.02-0.51-0.55-1.08-1.26C219.03,207.55,218.58,206.96,218.6,206.94z"/>
											</g>
										</g>
									</g>
								</g>
							</g>
						</g>
						<g>
							<g>
								<g>
									<g>
										<g>
											<g>
												<path style="fill:#263238;" d="M219.24,212.67c0.02,0.02-0.34,0.41-0.85,0.82c-0.51,0.41-0.97,0.68-0.98,0.66
													c-0.02-0.02,0.42-0.32,0.92-0.73C218.83,213.01,219.22,212.65,219.24,212.67z"/>
											</g>
										</g>
									</g>
								</g>
							</g>
						</g>
						<g>
							<g>
								<g>
									<g>
										<g>
											<g>
												<path style="fill:#263238;" d="M220.48,211.69c0.03,0,0.04,0.11,0.07,0.24c0.03,0.13,0.08,0.23,0.05,0.25
													c-0.02,0.02-0.11-0.07-0.15-0.22C220.41,211.81,220.45,211.69,220.48,211.69z"/>
											</g>
										</g>
									</g>
								</g>
							</g>
						</g>
						<g>
							<g>
								<g>
									<g>
										<g>
											<g>
												<path style="fill:#263238;" d="M220.48,210.74c0.03,0,0.04,0.1,0.03,0.22c-0.01,0.12-0.05,0.21-0.07,0.21
													c-0.03,0-0.04-0.1-0.03-0.22C220.42,210.83,220.46,210.74,220.48,210.74z"/>
											</g>
										</g>
									</g>
								</g>
							</g>
						</g>
						<g>
							<g>
								<g>
									<g>
										<g>
											<g>
												<path style="fill:#263238;" d="M220.94,209.95c0.01,0.02-0.07,0.09-0.14,0.2c-0.07,0.1-0.09,0.21-0.12,0.21
													c-0.03,0-0.04-0.13,0.04-0.26C220.81,209.96,220.93,209.92,220.94,209.95z"/>
											</g>
										</g>
									</g>
								</g>
							</g>
						</g>
						<g>
							<g>
								<g>
									<g>
										<g>
											<g>
												<path style="fill:#263238;" d="M221.32,209.45c0.02,0.01,0.01,0.07-0.02,0.14c-0.04,0.06-0.08,0.1-0.11,0.09
													c-0.02-0.01-0.01-0.07,0.02-0.14C221.25,209.47,221.3,209.43,221.32,209.45z"/>
											</g>
										</g>
									</g>
								</g>
							</g>
						</g>
					</g>
				</g>
				<g style="opacity:0.3;">
					<g>
						<g>
							<polygon points="221.19,208.89 214.79,213.78 214.2,213.01 220.92,208.45 							"/>
						</g>
					</g>
				</g>
			</g>
			<g>
				<g>
					<g>
						<g>
							<g>
								<g>
									<g>
										<g>
											<g>
												<path style="fill:#E8505B;" d="M186.16,217.77l0.01-4.3l8.06-0.03l0.05,6.3l-0.5,0.03c-2.22,0.13-11.32,0.51-12.8,0.07
													C179.32,219.34,186.16,217.77,186.16,217.77z"/>
											</g>
										</g>
									</g>
								</g>
							</g>
						</g>
						<g style="opacity:0.4;">
							<g>
								<g>
									<g>
										<g>
											<path style="fill:#FFFFFF;" d="M182.82,218.66c0,0-2.4,0.7-2.1,1.1c0.3,0.39,9.5,0.35,13.56-0.02l-0.01-0.18l-10.73,0.14
												C183.54,219.69,183.29,218.67,182.82,218.66z"/>
										</g>
									</g>
								</g>
							</g>
						</g>
						<g>
							<g>
								<g>
									<g>
										<g>
											<g>
												<path style="fill:#263238;" d="M194.4,219.55c0,0-0.05,0.01-0.14,0.02c-0.12,0.01-0.25,0.02-0.4,0.03
													c-0.4,0.02-0.89,0.04-1.46,0.07c-1.24,0.05-2.95,0.1-4.84,0.11c-1.89,0.01-3.6-0.02-4.84-0.06
													c-0.58-0.02-1.07-0.04-1.47-0.05c-0.15-0.01-0.28-0.02-0.4-0.02c-0.09-0.01-0.14-0.01-0.14-0.01
													c0,0,0.05-0.01,0.14-0.01c0.12,0,0.25,0,0.4,0c0.4,0.01,0.89,0.01,1.47,0.02c1.24,0.02,2.95,0.04,4.84,0.03
													c1.89-0.01,3.6-0.04,4.83-0.08c0.58-0.02,1.07-0.03,1.47-0.04c0.15,0,0.28-0.01,0.4-0.01
													C194.35,219.54,194.4,219.55,194.4,219.55z"/>
											</g>
										</g>
									</g>
								</g>
							</g>
						</g>
						<g>
							<g>
								<g>
									<g>
										<g>
											<g>
												<path style="fill:#263238;" d="M183.54,219.82c-0.03,0-0.05-0.35-0.28-0.7c-0.22-0.36-0.52-0.53-0.5-0.56
													c0.01-0.02,0.35,0.13,0.58,0.51C183.58,219.45,183.56,219.82,183.54,219.82z"/>
											</g>
										</g>
									</g>
								</g>
							</g>
						</g>
						<g>
							<g>
								<g>
									<g>
										<g>
											<g>
												<path style="fill:#263238;" d="M185.91,218.6c-0.02,0.01-0.14-0.12-0.26-0.31c-0.12-0.18-0.2-0.35-0.17-0.36
													c0.02-0.01,0.14,0.12,0.26,0.31C185.86,218.42,185.93,218.59,185.91,218.6z"/>
											</g>
										</g>
									</g>
								</g>
							</g>
						</g>
						<g>
							<g>
								<g>
									<g>
										<g>
											<g>
												<path style="fill:#263238;" d="M186.56,218.25c-0.02,0.02-0.15-0.06-0.28-0.19c-0.14-0.12-0.24-0.24-0.22-0.26
													c0.02-0.02,0.15,0.06,0.29,0.19C186.48,218.12,186.58,218.23,186.56,218.25z"/>
											</g>
										</g>
									</g>
								</g>
							</g>
						</g>
						<g>
							<g>
								<g>
									<g>
										<g>
											<g>
												<path style="fill:#263238;" d="M186.97,217.49c0,0.03-0.19,0.05-0.42,0.06c-0.23,0-0.42-0.02-0.42-0.04
													c0-0.03,0.19-0.05,0.42-0.06C186.78,217.44,186.97,217.46,186.97,217.49z"/>
											</g>
										</g>
									</g>
								</g>
							</g>
						</g>
						<g>
							<g>
								<g>
									<g>
										<g>
											<g>
												<path style="fill:#263238;" d="M187.11,216.95c0.01,0.02-0.2,0.12-0.47,0.14c-0.27,0.02-0.49-0.04-0.48-0.06
													c0-0.03,0.22-0.01,0.48-0.03C186.89,216.97,187.1,216.93,187.11,216.95z"/>
											</g>
										</g>
									</g>
								</g>
							</g>
						</g>
						<g>
							<g>
								<g>
									<g>
										<g>
											<g>
												<path style="fill:#263238;" d="M185.64,217.9c0,0.01-0.2,0.04-0.52,0c-0.16-0.02-0.35-0.06-0.55-0.12
													c-0.1-0.04-0.21-0.06-0.32-0.13c-0.05-0.03-0.11-0.08-0.13-0.16c-0.02-0.08,0.02-0.16,0.08-0.21
													c0.49-0.26,0.99,0.02,1.18,0.27c0.1,0.13,0.15,0.26,0.17,0.34c0.02,0.09,0.02,0.14,0.01,0.14
													c-0.02,0.01-0.04-0.2-0.24-0.44c-0.1-0.12-0.25-0.23-0.44-0.29c-0.18-0.05-0.44-0.07-0.62,0.04
													c-0.08,0.06-0.05,0.16,0.04,0.21c0.09,0.05,0.2,0.09,0.29,0.12c0.2,0.07,0.38,0.11,0.53,0.14
													C185.44,217.88,185.64,217.88,185.64,217.9z"/>
											</g>
										</g>
									</g>
								</g>
							</g>
						</g>
						<g>
							<g>
								<g>
									<g>
										<g>
											<g>
												<path style="fill:#263238;" d="M185.5,217.92c-0.01,0.01-0.08-0.13-0.06-0.36c0.01-0.11,0.05-0.25,0.14-0.38
													c0.09-0.12,0.21-0.27,0.43-0.27c0.12,0.01,0.18,0.15,0.16,0.24c-0.01,0.09-0.05,0.17-0.09,0.23
													c-0.08,0.13-0.16,0.23-0.24,0.31c-0.16,0.16-0.29,0.22-0.3,0.21c-0.01-0.01,0.1-0.09,0.24-0.26
													c0.07-0.08,0.15-0.19,0.22-0.31c0.07-0.11,0.12-0.31-0.01-0.33c-0.13-0.01-0.26,0.12-0.34,0.22
													c-0.08,0.11-0.13,0.23-0.15,0.34C185.47,217.79,185.52,217.92,185.5,217.92z"/>
											</g>
										</g>
									</g>
								</g>
							</g>
						</g>
						<g>
							<g>
								<g>
									<g>
										<g>
											<g>
												<path style="fill:#263238;" d="M194.22,217.34c0,0.02-0.23-0.02-0.6,0.02c-0.36,0.04-0.86,0.19-1.3,0.54
													c-0.43,0.35-0.69,0.81-0.81,1.15c-0.12,0.35-0.13,0.58-0.15,0.58c-0.01,0-0.01-0.06,0-0.16
													c0.01-0.1,0.03-0.25,0.09-0.44c0.1-0.36,0.36-0.84,0.81-1.21c0.45-0.36,0.98-0.51,1.35-0.53
													c0.19-0.01,0.34-0.01,0.44,0.01C194.17,217.32,194.22,217.34,194.22,217.34z"/>
											</g>
										</g>
									</g>
								</g>
							</g>
						</g>
						<g>
							<g>
								<g>
									<g>
										<g>
											<g>
												<path style="fill:#263238;" d="M193.37,213.99c0.03,0,0.06,0.74,0.08,1.66c0.02,0.91,0.01,1.66-0.02,1.66
													c-0.03,0-0.06-0.74-0.08-1.66C193.34,214.74,193.35,213.99,193.37,213.99z"/>
											</g>
										</g>
									</g>
								</g>
							</g>
						</g>
						<g>
							<g>
								<g>
									<g>
										<g>
											<g>
												<path style="fill:#263238;" d="M190.34,218.9c0,0.03-0.52,0.11-1.18,0.12c-0.66,0.01-1.18-0.06-1.18-0.09
													c0-0.03,0.53,0,1.18-0.01C189.81,218.92,190.34,218.87,190.34,218.9z"/>
											</g>
										</g>
									</g>
								</g>
							</g>
						</g>
						<g>
							<g>
								<g>
									<g>
										<g>
											<g>
												<path style="fill:#263238;" d="M191.92,218.89c0.02,0.02-0.04,0.11-0.1,0.23c-0.05,0.12-0.08,0.23-0.11,0.23
													c-0.03,0-0.04-0.13,0.02-0.27C191.8,218.94,191.91,218.87,191.92,218.89z"/>
											</g>
										</g>
									</g>
								</g>
							</g>
						</g>
						<g>
							<g>
								<g>
									<g>
										<g>
											<g>
												<path style="fill:#263238;" d="M192.51,218.15c0.02,0.02-0.03,0.1-0.12,0.19c-0.08,0.08-0.17,0.14-0.19,0.12
													c-0.02-0.02,0.03-0.1,0.12-0.19C192.41,218.18,192.5,218.13,192.51,218.15z"/>
											</g>
										</g>
									</g>
								</g>
							</g>
						</g>
						<g>
							<g>
								<g>
									<g>
										<g>
											<g>
												<path style="fill:#263238;" d="M193.37,217.81c-0.01,0.03-0.11,0.03-0.23,0.07c-0.12,0.04-0.2,0.11-0.22,0.09
													c-0.02-0.01,0.05-0.13,0.19-0.18C193.25,217.73,193.37,217.78,193.37,217.81z"/>
											</g>
										</g>
									</g>
								</g>
							</g>
						</g>
						<g>
							<g>
								<g>
									<g>
										<g>
											<g>
												<path style="fill:#263238;" d="M193.97,217.64c0.01,0.03-0.04,0.07-0.1,0.09c-0.07,0.03-0.13,0.03-0.14,0
													c-0.01-0.03,0.04-0.07,0.1-0.09C193.9,217.62,193.96,217.62,193.97,217.64z"/>
											</g>
										</g>
									</g>
								</g>
							</g>
						</g>
					</g>
				</g>
				<g style="opacity:0.3;">
					<g>
						<g>
							<polygon points="194.28,217.02 186.16,217.03 186.17,216.06 194.25,216 							"/>
						</g>
					</g>
				</g>
			</g>
			<g>
				<g>
					<g>
						<g>
							<path style="fill:#B78876;" d="M206.06,143.5l-3.23,9.72c-0.87,2.62-3.17,3.07-5.93,3.07h-17.95v-4.03l16.4-2.34l3.91-9.99
								L206.06,143.5z"/>
						</g>
					</g>
				</g>
				<g>
					<g>
						<g>
							<g>
								<path style="fill:#B78876;" d="M176.97,151.43l-1.42-0.67c0,0-1.53-2.97-1.89-2.85c-0.35,0.12-0.46,0.99,0.16,2.36
									l-1.89-0.54c0,0-4.1,1.9-3.92,2.15c0.18,0.26,0.52,0.86,1.41,0.4c0.89-0.46,2.06-0.99,2.06-0.99l2.21,0.63l-2.85,0.36
									l-2.68,2.44c0,0,0.88,0.66,1.64-0.04l6.96,1.5l2.18,0.12v-4.03L176.97,151.43z"/>
							</g>
						</g>
					</g>
					<g>
						<g>
							<g>
								<g>
									<path style="fill:#AA6550;" d="M169.8,154.67c0.03,0.02,0.16-0.19,0.41-0.46c0.13-0.13,0.3-0.27,0.51-0.39
										c0.2-0.11,0.47-0.16,0.75-0.2c1.16-0.14,2.1-0.3,2.09-0.36c-0.01-0.06-0.95,0-2.12,0.14c-0.29,0.04-0.59,0.09-0.83,0.24
										c-0.23,0.14-0.4,0.31-0.52,0.47C169.86,154.43,169.78,154.66,169.8,154.67z"/>
								</g>
							</g>
						</g>
					</g>
					<g>
						<g>
							<g>
								<g>
									<path style="fill:#AA6550;" d="M170.89,154.95c0.03,0,0.05-0.14,0.24-0.19c0.2-0.04,0.52-0.07,0.85-0.11
										c0.67-0.07,1.22-0.06,1.22-0.12c0.01-0.06-0.55-0.16-1.25-0.09c-0.35,0.04-0.65,0.09-0.88,0.18
										c-0.12,0.05-0.2,0.15-0.21,0.22C170.85,154.92,170.88,154.96,170.89,154.95z"/>
								</g>
							</g>
						</g>
					</g>
				</g>
			</g>
			<g>
				<g>
					<g>
						<g>
							<g>
								<g>
									<g>
										<g>
											<g>
												<g>
													<path style="fill:#0E5BA9;" d="M207.58,141.38l-1.38,4.68l-8.76-3.97c0.31-0.98,1.76-5.34,4.54-12.26
														c1.55-3.86,4.98-6.64,9.08-7.32c2.87-0.48,5.99-0.85,8.39-0.82c4.91,0.05,12.15,3.13,13.12,7.94
														c0.74,3.68,0.03,10.17,0.03,18.06l-0.64,15.07l-25.18,0.85L207.58,141.38z"/>
												</g>
											</g>
										</g>
									</g>
								</g>
							</g>
						</g>
					</g>
					<g style="opacity:0.3;">
						<g>
							<g>
								<g>
									<path d="M232.57,144.19c-3.06,0.63-6.21-0.01-9.33-0.19c-1.89-0.11-3.99-0.32-5.49,0.85c-1.19,0.92-1.67,2.47-2.01,3.94
										c-1.31,5.58-1.54,9.32-1.84,15.05l15.16,0.92L232.57,144.19z"/>
								</g>
							</g>
						</g>
					</g>
				</g>
				<g>
					<g>
						<g>
							<g>
								<path style="fill:#263238;" d="M206.93,125.02c0,0.02,0.25,0.04,0.67,0.2c0.41,0.17,0.98,0.53,1.45,1.17
									c0.48,0.64,0.8,1.56,0.87,2.62c0.07,1.06-0.08,2.23-0.26,3.45c-0.39,2.44-0.98,4.61-1.41,6.17
									c-0.21,0.76-0.38,1.38-0.51,1.85c-0.12,0.44-0.18,0.68-0.16,0.69c0.01,0,0.1-0.23,0.24-0.66c0.14-0.43,0.34-1.06,0.58-1.84
									c0.46-1.56,1.08-3.72,1.47-6.18c0.18-1.23,0.34-2.41,0.25-3.5c-0.07-1.09-0.43-2.05-0.94-2.7
									c-0.51-0.66-1.11-1.01-1.54-1.16c-0.22-0.07-0.4-0.11-0.52-0.12C207,125.02,206.93,125.02,206.93,125.02z"/>
							</g>
						</g>
					</g>
				</g>
				<g>
					<g>
						<g>
							<g>
								<path style="fill:#263238;" d="M197.71,140.9c-0.01,0.03,0.46,0.3,1.23,0.71c0.78,0.41,1.87,0.94,3.09,1.5
									c1.22,0.55,2.35,1.01,3.17,1.33c0.82,0.31,1.34,0.48,1.35,0.46c0.01-0.03-0.49-0.25-1.29-0.6c-0.8-0.35-1.92-0.83-3.14-1.38
									c-1.22-0.55-2.32-1.06-3.11-1.44C198.22,141.1,197.72,140.87,197.71,140.9z"/>
							</g>
						</g>
					</g>
				</g>
			</g>
			<g>
				<g>
					<g>
						<g>
							<path style="fill:#263238;" d="M193.69,164.75c-4.29,2.34-5.92,7.68-3.66,12.02l21.92,37.63l10.11-6.11l-17.02-33.98
								l12.34-8.05"/>
						</g>
					</g>
				</g>
				<g>
					<g>
						<g>
							<g>
								<path style="fill:#263238;" d="M220.38,162.89l-30.09,1.07c-4.88,0.17-8.73,4.22-8.66,9.11l1.25,42.97l12.65-0.03
									l-0.42-40.63l25.26-0.66V162.89z"/>
							</g>
						</g>
					</g>
					<g>
						<g>
							<g>
								<path style="fill:#455A64;" d="M195.12,176.84c0.01,0,0.02,0.14,0.04,0.4c0.01,0.29,0.03,0.67,0.05,1.14
									c0.04,0.99,0.08,2.42,0.11,4.2c0.08,3.54,0.13,8.44,0.15,13.85c0.03,5.39,0.05,10.28,0.07,13.85
									c0.01,1.75,0.02,3.17,0.02,4.2c0,0.47,0,0.85,0,1.14c0,0.26-0.01,0.4-0.02,0.4s-0.02-0.14-0.04-0.4
									c-0.01-0.29-0.03-0.67-0.05-1.14c-0.04-0.99-0.08-2.42-0.11-4.2c-0.08-3.54-0.13-8.44-0.15-13.85
									c-0.03-5.39-0.05-10.27-0.07-13.84c-0.01-1.75-0.02-3.17-0.02-4.2c0-0.47,0-0.85,0-1.14
									C195.1,176.98,195.11,176.84,195.12,176.84z"/>
							</g>
						</g>
					</g>
				</g>
			</g>
		</g>
		<g>
			<g>
				<g>
					<path style="fill:#455A64;" d="M233.41,135.62h-9.1c-3.66,0-6.63,2.97-6.63,6.63v31.76h-18.19c-2.54,0-4.59,2.06-4.59,4.59
						h41.52c0-0.01,0-0.02,0-0.03c2.02-0.09,3.63-1.74,3.63-3.78v-32.54C240.05,138.59,237.08,135.62,233.41,135.62z"/>
				</g>
			</g>
			<g>
				<g>
					<g>
						<path style="fill:#263238;" d="M220.32,136.66c0.08,0,0.14,9.33,0.14,20.84c0,11.51-0.06,20.84-0.14,20.84
							c-0.08,0-0.14-9.33-0.14-20.84C220.18,146,220.25,136.66,220.32,136.66z"/>
					</g>
				</g>
			</g>
			<g>
				<g>
					<path style="fill:#455A64;" d="M219.17,211.94v-33.32h-2.96v33.32c-1.81,3.56-6.05,5.97-11.23,7.94h26.38
						C226.01,217.7,221.17,216.03,219.17,211.94z"/>
				</g>
			</g>
		</g>
	</g>
</g>
</svg>
