<?xml version="1.0" encoding="utf-8"?>
<!-- Generator: Adobe Illustrator 26.3.1, SVG Export Plug-In . SVG Version: 6.00 Build 0)  -->
<svg version="1.1" id="Layer_1" xmlns="http://www.w3.org/2000/svg" xmlns:xlink="http://www.w3.org/1999/xlink" x="0px" y="0px"
	 viewBox="0 0 651.8 601.5" style="enable-background:new 0 0 651.8 601.5;" xml:space="preserve">
<style type="text/css">
	.st0{fill:#97A6B7;}
	.st1{fill:url(#SVGID_1_);}
	.st2{fill:#D8DEE8;}
	.st3{fill:url(#SVGID_00000101784661801892542830000011197525735237730729_);}
	.st4{fill:url(#SVGID_00000027578303256030015480000001373719012353988757_);}
	.st5{fill:url(#SVGID_00000115489202863480082830000014631894370819056526_);}
	.st6{fill:url(#SVGID_00000136388821581719779690000010381730123758557064_);}
	.st7{fill:url(#SVGID_00000096038768464981908730000003330179255237247915_);}
	.st8{fill:url(#SVGID_00000182518678708188866720000002772169938126674824_);}
	.st9{fill:#F8931F;}
	.st10{fill:#483682;}
	.st11{fill:url(#SVGID_00000075853805367775454550000005144212480178224559_);}
	.st12{fill:#BB4079;}
	.st13{opacity:0.1;}
	.st14{fill:url(#SVGID_00000107590496563292668720000009662381306779983499_);}
	.st15{opacity:0.3;}
	.st16{fill:url(#SVGID_00000059283282727178099120000005441451827784296335_);}
	.st17{fill:url(#SVGID_00000101064532782125869320000017699768494388820898_);}
	.st18{fill:#0E5BA9;}
	.st19{fill:url(#SVGID_00000169544164044680550650000007528105980441223045_);}
	.st20{fill:url(#SVGID_00000098941627987582712160000007416456697913496506_);}
	.st21{fill:url(#SVGID_00000066480896776607490100000003197010052540655778_);}
	.st22{fill:url(#SVGID_00000124141926429562825070000010562701878582635162_);}
	.st23{fill:#20252B;}
	.st24{opacity:0.3;fill:url(#SVGID_00000011736985724405841150000004872443487118837915_);enable-background:new    ;}
	.st25{opacity:0.3;fill:url(#SVGID_00000119107715425798272910000005896479432010038416_);enable-background:new    ;}
	.st26{opacity:0.3;fill:url(#SVGID_00000089573510555735296970000015671285276965951901_);enable-background:new    ;}
	.st27{fill:#FFFFFF;}
	.st28{fill:url(#SVGID_00000076602226464471960180000003151279763663626929_);}
	.st29{fill:url(#SVGID_00000101791146580946393220000013966295707473396891_);}
	.st30{fill:url(#SVGID_00000171692453477397897610000002786075671257985973_);}
	.st31{fill:url(#SVGID_00000110471430447695022820000002368363273920380558_);}
	.st32{fill:url(#SVGID_00000119832091267530418500000000558055936045472153_);}
	.st33{fill:#EC3128;}
	.st34{opacity:0.3;fill:url(#SVGID_00000107581619182783862470000014607855843707448743_);enable-background:new    ;}
	.st35{fill:url(#SVGID_00000134944944120265386330000012654960810739159476_);}
	.st36{opacity:0.51;fill:url(#SVGID_00000154387130939842453100000009915404471210573497_);enable-background:new    ;}
	.st37{fill:#EF4524;}
	.st38{opacity:0.51;fill:url(#SVGID_00000050629034752196593760000007544094920691803017_);enable-background:new    ;}
	.st39{opacity:0.74;fill:#FFFFFF;enable-background:new    ;}
	.st40{opacity:0.51;fill:url(#SVGID_00000155111168050016134680000001612797987337096869_);enable-background:new    ;}
	.st41{opacity:0.74;}
</style>
<g>
	<g>
		<path class="st0" d="M587.3,347.9L587.3,347.9L582,25.4c-0.1-6.6-5.7-12.1-12.3-12.3L15.1,0C6.7-0.2-0.1,5.8,0,13.2l5.9,356.5
			l1.2,71.2c0.1,7.5,7.1,13.2,15.6,12.7l553.7-32.6c6.7-0.4,12-6.1,11.9-12.7L587.3,347.9z"/>
		<path class="st0" d="M398.7,495.4c-10-3.1-17.6-11.5-19.9-21.9l-15.7-71.7l-124.2,6.5l-14.1,75.2c-2,10.5,6.8,20.9,16.7,24.6
			l52.4,19.5c9.7,3.6,20.2,5,30.5,3.9l109.8-11.2c3.2-0.3,5.7-2.9,6.1-6.1c0.3-3.2,2.5-6.9-0.6-7.9L398.7,495.4z"/>
		
			<linearGradient id="SVGID_1_" gradientUnits="userSpaceOnUse" x1="343.979" y1="175.4095" x2="345.869" y2="104.534" gradientTransform="matrix(0.9999 -1.660000e-02 -1.660000e-02 -0.9999 -9.0264 609.0169)">
			<stop  offset="0.494" style="stop-color:#EBEFF2"/>
			<stop  offset="1" style="stop-color:#FFFFFF"/>
		</linearGradient>
		<path class="st1" d="M399.9,491c-10-3.1-17.6-11.4-19.9-21.6l-15.7-70.8L243,405l-14,74.2c-2,10.4,3.9,20.7,13.8,24.4l52.3,19.2
			c9.7,3.6,20.1,4.9,30.5,3.8l109.7-11.1c3.2-0.3,5.7-2.9,6.1-6.1c0.3-3.2-1.7-6.2-4.7-7.1L399.9,491z"/>
		<path class="st2" d="M596.1,347.9l-5.4-322.5c-0.1-6.6-5.7-12.1-12.3-12.3L23.9,0C15.4-0.2,8.6,5.7,8.7,13.2l5.9,356.5
			L596.1,347.9z"/>
		<g>
			
				<linearGradient id="SVGID_00000139263011853252446650000006317238443648704901_" gradientUnits="userSpaceOnUse" x1="26.1786" y1="416.1581" x2="582.6515" y2="416.1581" gradientTransform="matrix(1 0 0 -1 0 601.8898)">
				<stop  offset="0.494" style="stop-color:#EBEFF2"/>
				<stop  offset="1" style="stop-color:#FFFFFF"/>
			</linearGradient>
			<path style="fill:url(#SVGID_00000139263011853252446650000006317238443648704901_);" d="M578.5,69.1l-0.5-28.5
				c-0.1-6.1-5.2-11.1-11.4-11.3L40,18.5c-7.7-0.2-13.9,5.3-13.8,12.1l0.5,31.9L31.3,341c0.1,7,6.6,12.4,14.5,12l525.6-23.7
				c6.3-0.3,11.3-5.6,11.2-11.8L578.5,69.1z"/>
		</g>
		
			<linearGradient id="SVGID_00000131330582511243805860000013963028897104352655_" gradientUnits="userSpaceOnUse" x1="380.8931" y1="-48.6519" x2="303.3035" y2="216.8507" gradientTransform="matrix(1 0 0 -1 0 601.8898)">
			<stop  offset="0.494" style="stop-color:#EBEFF2"/>
			<stop  offset="1" style="stop-color:#FFFFFF"/>
		</linearGradient>
		<path style="fill:url(#SVGID_00000131330582511243805860000013963028897104352655_);" d="M14.7,369.7l1.2,71.2
			c0.1,7.5,7.1,13.2,15.6,12.7l553.7-32.6c6.7-0.4,12-6.1,11.9-12.7l-1-62.3L14.7,369.7z"/>
	</g>
	<g>
		<g>
			<g>
				<g>
					
						<linearGradient id="SVGID_00000147903713099082227620000006408144307522666372_" gradientUnits="userSpaceOnUse" x1="234.1427" y1="548.5399" x2="259.7853" y2="316.7312" gradientTransform="matrix(1 0 0 -1 0 601.8898)">
						<stop  offset="0" style="stop-color:#311944"/>
						<stop  offset="1" style="stop-color:#893976"/>
					</linearGradient>
					<path style="fill:url(#SVGID_00000147903713099082227620000006408144307522666372_);" d="M255.4,162.4l8.3-0.1
						c0,0,20-25.3,33.5-26.6l1.2-71.2c-51.7,0.2-97.3,29.3-118.1,72.3L255.4,162.4z"/>
					
						<linearGradient id="SVGID_00000035524904318386188720000004666794439247896713_" gradientUnits="userSpaceOnUse" x1="328.3658" y1="365.6003" x2="428.4087" y2="163.5334" gradientTransform="matrix(1 0 0 -1 0 601.8898)">
						<stop  offset="0" style="stop-color:#311944"/>
						<stop  offset="1" style="stop-color:#893976"/>
					</linearGradient>
					<path style="fill:url(#SVGID_00000035524904318386188720000004666794439247896713_);" d="M355,193.9
						c-4.2,23.4-25.5,41.8-51.6,42.6c-6.4,0.2-13.9-3.6-13.9-3.6s-6.9,0.4-8-0.1l-40.7,63.1c18.9,8.5,40.3,12.7,62.7,11.5
						c65.1-3.7,116.2-52.7,121.9-111.7L355,193.9z"/>
					
						<linearGradient id="SVGID_00000156572627616091568850000001178556354157258647_" gradientUnits="userSpaceOnUse" x1="170.8234" y1="450.3799" x2="317.481" y2="261.8203" gradientTransform="matrix(1 0 0 -1 0 601.8898)">
						<stop  offset="0" style="stop-color:#311944"/>
						<stop  offset="1" style="stop-color:#893976"/>
					</linearGradient>
					<path style="fill:url(#SVGID_00000156572627616091568850000001178556354157258647_);" d="M228,289.2l8.1,0.3l33-63.5
						c-12.3-9.1-20.2-23.3-20.2-39.3c0-3.9,0.5-7.7,1.3-11.3l-67.1-25.3l-8.2,0.1c-4,11.9-6.2,24.5-6.2,37.5
						C168.7,230.8,192.4,268.1,228,289.2z"/>
				</g>
				<g>
					
						<linearGradient id="SVGID_00000039102288089370208460000014208443996764244413_" gradientUnits="userSpaceOnUse" x1="457.5553" y1="581.653" x2="359.8771" y2="445.4412" gradientTransform="matrix(1 0 0 -1 0 601.8898)">
						<stop  offset="0" style="stop-color:#311944"/>
						<stop  offset="1" style="stop-color:#893976"/>
					</linearGradient>
					<path style="fill:url(#SVGID_00000039102288089370208460000014208443996764244413_);" d="M311.4,136
						c23.8,3.5,42,21.9,44.2,44.7l114.9,3.3c0,0,0-0.1,0-0.1c0,0,0,0,0-0.1c0-0.1,17.3-2.8,17.3-2.8c0-0.8-157-165.8-157-165.8
						l-17.4,2.9C313.5,18.1,312.1,96.7,311.4,136z"/>
				</g>
			</g>
			<g>
				<g>
					<path class="st9" d="M263.6,162.4c8.3-14.6,23.8-24.8,41.8-26.7l1.2-71.2c-51.7,0.2-97.3,29.3-118.1,72.3L263.6,162.4z"/>
					<path class="st10" d="M363.3,193.9c-4.2,23.4-25.5,41.8-51.6,42.6c-7.8,0.2-15.2-1.1-22-3.7l-40.7,63.1
						c18.9,8.5,40.3,12.7,62.7,11.5c65.1-3.7,116.2-52.7,121.9-111.7L363.3,193.9z"/>
					
						<linearGradient id="SVGID_00000134215468444088297670000006457539372539364995_" gradientUnits="userSpaceOnUse" x1="179.0733" y1="450.3417" x2="320.5397" y2="268.4564" gradientTransform="matrix(1 0 0 -1 0 601.8898)">
						<stop  offset="0" style="stop-color:#AA80F9"/>
						<stop  offset="0.9964" style="stop-color:#6165D7"/>
					</linearGradient>
					<path style="fill:url(#SVGID_00000134215468444088297670000006457539372539364995_);" d="M236.2,289.2l41.1-63.2
						c-12.3-9.1-20.2-23.3-20.2-39.3c0-3.9,0.5-7.7,1.3-11.3L183.2,150c-4,11.9-6.2,24.5-6.2,37.5
						C176.9,230.8,200.7,268.1,236.2,289.2z"/>
				</g>
				<g>
					<g>
						<path class="st12" d="M328.7,133c23.8,3.5,42,21.9,44.2,44.7l114.9,3.3c0-0.1,0-0.1,0-0.1c0-84.3-67.2-156.4-157-165.7
							L328.7,133z"/>
					</g>
				</g>
			</g>
			<g class="st13">
				
					<linearGradient id="SVGID_00000036969929724666389780000016079007645209371316_" gradientUnits="userSpaceOnUse" x1="288.842" y1="340.3599" x2="386.7519" y2="142.6011" gradientTransform="matrix(1 0 0 -1 0 601.8898)">
					<stop  offset="3.597120e-03" style="stop-color:#E38DDD"/>
					<stop  offset="1" style="stop-color:#9571F6"/>
				</linearGradient>
				<path style="fill:url(#SVGID_00000036969929724666389780000016079007645209371316_);" d="M295.9,234.7c-2.1-0.6-4.2-1.2-6.2-2
					l-40.7,63.1c18.9,8.5,40.3,12.7,62.7,11.5c18.1-1,35.1-5.6,50.3-12.8c-15.4-2.3-29.1-8.2-40.1-17.9
					C309.4,265.4,301.2,250,295.9,234.7z"/>
			</g>
			<g class="st15">
				
					<linearGradient id="SVGID_00000142160830920391184550000017645970423178098098_" gradientUnits="userSpaceOnUse" x1="230.6446" y1="546.8521" x2="255.9977" y2="317.662" gradientTransform="matrix(1 0 0 -1 0 601.8898)">
					<stop  offset="0" style="stop-color:#FFC444"/>
					<stop  offset="0.9964" style="stop-color:#F36F56"/>
				</linearGradient>
				<path style="fill:url(#SVGID_00000142160830920391184550000017645970423178098098_);" d="M282.3,92.7
					c-4.8-8.9-11.8-15.7-19.5-20.8c-32.7,11.3-59.6,34.7-74.2,64.9l75,25.5c5.2-9.1,13.2-16.5,22.9-21.3
					C288.4,122.1,290.6,108.2,282.3,92.7z"/>
			</g>
		</g>
	</g>
	<g>
		<g>
			
				<linearGradient id="SVGID_00000148651192623757298720000015057847470823760537_" gradientUnits="userSpaceOnUse" x1="4843.5894" y1="525.0541" x2="4857.0908" y2="483.8451" gradientTransform="matrix(-0.9129 0.4081 -0.4081 -0.9129 5007.23 -1318.2983)">
				<stop  offset="0" style="stop-color:#FFC444"/>
				<stop  offset="0.9964" style="stop-color:#F36F56"/>
			</linearGradient>
			<path style="fill:url(#SVGID_00000148651192623757298720000015057847470823760537_);" d="M374.8,207.8l0.4-6.5c0,0,2.3-1.7,2.7-4
				c0.3-2.4,0.3-2.4,0.3-2.4s-0.3-2.2-3.3-3.3c-0.7-0.3-1.2-0.8-1.4-1.5c-0.6-2.1-1.8-6.4-2.2-7.6c-0.2-0.7-0.9-1.4-1.5-1.9
				c-0.4-0.4-1,0-1,0.5l1.4,9.2c0,0-2,0.4-1.9,2.1c0,0-1.1,1.6-0.6,3.3c0.5,1.7,2.5,5.5,2.5,5.5l0,6.6L374.8,207.8z"/>
			<path class="st18" d="M489,271.2c-1.7-7-6.5-12.9-13-16.2c-6.5-3.3-14-3.6-20.7-0.8c-20.8,8.6-43.2,6.4-58.2-5.6
				c-18.4-14.8-19.1-39.2-19.1-43.4c-3.7,0.1-7.3,0.1-11,0.2c-2.1,6.5-14.8,47.3,8,80.5c26.7,38.8,89.7,51.1,109.6,27.3
				C493.7,302.6,492.7,286,489,271.2z"/>
			
				<linearGradient id="SVGID_00000177483911349545771370000006661218948805559731_" gradientUnits="userSpaceOnUse" x1="-3417.4097" y1="-337.0107" x2="-3395.9451" y2="-337.0107" gradientTransform="matrix(0.996 8.970000e-02 8.970000e-02 -0.996 3943.0803 566.9487)">
				<stop  offset="0" style="stop-color:#444B8C"/>
				<stop  offset="0.9964" style="stop-color:#26264F"/>
			</linearGradient>
			<path style="fill:url(#SVGID_00000177483911349545771370000006661218948805559731_);" d="M529.2,592.9c1.1,1,1.2,3.4,1.2,5
				c0,0.7,0,1-0.1,1.3c-0.7,1.8-4.2,1.7-9.6,2c-8.7,0.3-11.2,0.9-11.9-0.5c-0.6-1.2,1.1-3.1,1.3-3.3c1-1.1,2.2-1.5,4.4-2
				c4.1-1.1,6.9-1.7,7.8-1.8C527.6,592.4,528.5,592.2,529.2,592.9z"/>
			
				<linearGradient id="SVGID_00000167387645382019190330000001643614827671790990_" gradientUnits="userSpaceOnUse" x1="-3879.8003" y1="-226.8282" x2="-3870.385" y2="-207.3407" gradientTransform="matrix(0.9976 6.940000e-02 6.940000e-02 -0.9976 4407.6118 639.9099)">
				<stop  offset="0" style="stop-color:#FFC444"/>
				<stop  offset="0.9964" style="stop-color:#F36F56"/>
			</linearGradient>
			<path style="fill:url(#SVGID_00000167387645382019190330000001643614827671790990_);" d="M523.1,584.3l-0.3,9.8
				c0.3,0.5,3.3,1.7,5.5,0.4l1.7-9.8L523.1,584.3z"/>
			
				<linearGradient id="SVGID_00000113320893744925790600000001782104513901264525_" gradientUnits="userSpaceOnUse" x1="-3615.9131" y1="-721.2739" x2="-3593.1074" y2="-721.2739" gradientTransform="matrix(0.977 0.2133 0.2133 -0.977 4121.7373 658.9933)">
				<stop  offset="0" style="stop-color:#444B8C"/>
				<stop  offset="0.9964" style="stop-color:#26264F"/>
			</linearGradient>
			<path style="fill:url(#SVGID_00000113320893744925790600000001782104513901264525_);" d="M456.3,591.5c1.5,1.5,2,4.3,0.8,5.8
				c-1.1,1.5-3,0.5-8.1,0.9c-5.5,0.5-6.8,1.8-10.6,1c-1.5-0.3-4.2-1.2-4.2-2.3c0-0.8,1.3-1.2,5.8-3c6.3-2.5,6.3-2.6,7.6-2.9
				C450.9,590.3,454.4,589.6,456.3,591.5z"/>
			
				<linearGradient id="SVGID_00000041979688437745395110000014309572288575876792_" gradientUnits="userSpaceOnUse" x1="-3809.3269" y1="-486.681" x2="-3799.7124" y2="-466.781" gradientTransform="matrix(0.9894 0.1453 0.1453 -0.9894 4288.5918 667.1533)">
				<stop  offset="0" style="stop-color:#FFC444"/>
				<stop  offset="0.9964" style="stop-color:#F36F56"/>
			</linearGradient>
			<path style="fill:url(#SVGID_00000041979688437745395110000014309572288575876792_);" d="M452.3,582.8l-2.3,9.3
				c0.2,0.5,3.1,2,5.5,0.8l3.6-9.1L452.3,582.8z"/>
			<path class="st23" d="M466.1,381.1c1.2,30.8,1,65.5-2,103.3c-3,37.4-8.2,71.3-14.2,101.2c3.6,0.8,7.1,1.5,10.7,2.3
				c8.5-8.8,19-22.5,23.4-41.2c2.8-11.6,1.3-17.5,2.7-31.7c2.2-22.6,8.5-34.8,14.6-53.2c5.5-16.6,11.8-40.9,14.1-73
				C498.9,386.2,482.5,383.6,466.1,381.1z"/>
			
				<linearGradient id="SVGID_00000004522077839866813230000011801622008849445290_" gradientUnits="userSpaceOnUse" x1="3508.573" y1="288.1892" x2="3447.7615" y2="425.2729" gradientTransform="matrix(-0.9986 5.330000e-02 -5.330000e-02 -0.9986 3969.2993 659.3926)">
				<stop  offset="0" style="stop-color:#444B8C"/>
				<stop  offset="0.9964" style="stop-color:#3E4177"/>
			</linearGradient>
			<path style="opacity:0.3;fill:url(#SVGID_00000004522077839866813230000011801622008849445290_);enable-background:new    ;" d="
				M471,524.9c3.9-15.5,11.5-19.6,11.7-34.3c0.2-10.4-3.5-11.2-3.3-21.1c0.4-15,9.2-22.9,13.6-32.4c4.7-10,6.5-26-6.1-52.8
				c9.5,1.5,19,2.9,28.5,4.4c-2.3,32.1-8.6,56.4-14.1,73c-6.1,18.5-12.4,30.6-14.6,53.2c-1.4,14.2,0,20-2.7,31.7
				c-4.4,18.8-15,32.4-23.4,41.2c-0.9-0.2-1.8-0.4-2.7-0.6c9.1-10.9,12.4-20.7,13.2-28.6C472.3,545.8,467,540.5,471,524.9z"/>
			<path class="st23" d="M501.6,379.1c4.2,39,8.1,78.7,11.6,119.2c2.6,30.4,5,60.4,7,90c3.6,0.2,7.2,0.5,10.8,0.8
				c3.1-6.6,7.2-16.7,9.7-29.5c3-15.5,1.6-24.6,2.5-40.6c0.9-17.9,3.5-22,7.1-44.7c7.4-46.2,11.1-69.3-0.6-82.9
				C545.9,386.8,534.2,375.9,501.6,379.1z"/>
			
				<linearGradient id="SVGID_00000007387999068940658880000006633940461106132659_" gradientUnits="userSpaceOnUse" x1="4752.9355" y1="204.7126" x2="4860.2837" y2="452.7527" gradientTransform="matrix(-0.9129 0.4081 -0.4081 -0.9129 5007.23 -1318.2983)">
				<stop  offset="0" style="stop-color:#444B8C"/>
				<stop  offset="0.9964" style="stop-color:#3E4177"/>
			</linearGradient>
			<path style="opacity:0.3;fill:url(#SVGID_00000007387999068940658880000006633940461106132659_);enable-background:new    ;" d="
				M361.7,244.9c2.1,4.3,4.6,7.5,7.1,9.9c9.1,8.8,22.8,12,26,24.9c1.6,6.5-0.7,10,2.6,13.8c4.7,5.3,12.3,1.5,23.8,4.8
				c10.1,2.9,13.1,8.5,19.2,12c8.3,4.8,22.8,6,50-8.6c-1.1,4.3-2.9,8.2-5.7,11.6c-19.9,23.8-82.9,11.5-109.6-27.3
				C365.8,272.6,362.4,258,361.7,244.9z"/>
			<path class="st18" d="M595.1,257.9c-19.5-6.6-49.2-13.9-85.6-12.4c-21.1,0.9-39.2,4.5-53.5,8.5c-1.9,10.9-3.9,21.7-5.8,32.6
				c-0.5,10.9-0.6,25.6,0.6,43c1.2,17.4,2.4,17.7,5.2,42.3c4.6,40.1,2.7,50.6,10.7,55.4c5.2,3.1,7.1-0.6,33.9-3.3
				c17.9-1.8,27.1-2.6,36.2,0.5c12.4,4.2,16.5,11.2,21.6,8.9c4.9-2.2,5.5-10.6,6.1-25.4c0.9-22.7,0.9-38.1,0.9-43.7
				c0.4-25.4,6.8-44.7,15-69.5C585.5,279.3,591,266.7,595.1,257.9z"/>
			<path class="st18" d="M575.2,362c-0.5,5.3,0.7,8.9,2.6,11.4c8.5,10.9,37.5,6.5,54.7-8.2c12.8-10.8,19.5-27.7,19.2-42.7
				c-0.5-29.4-27.8-58.2-68.3-68.2c-6,17.9-12,35.9-18,53.8c25,0.4,40.2,19.2,37.9,32.7C601.7,350.8,590,359.8,575.2,362z"/>
			
				<linearGradient id="SVGID_00000151503800722955477890000005754980286034401194_" gradientUnits="userSpaceOnUse" x1="3068.8103" y1="189.9676" x2="3161.7925" y2="404.813" gradientTransform="matrix(-1 0 0 -1 3608.3032 601.8898)">
				<stop  offset="0" style="stop-color:#444B8C"/>
				<stop  offset="0.9964" style="stop-color:#3E4177"/>
			</linearGradient>
			<path style="opacity:0.3;fill:url(#SVGID_00000151503800722955477890000005754980286034401194_);enable-background:new    ;" d="
				M477.1,414c13.1-5.6,13.1-17.2,25.4-22.1c17.5-6.9,36.9,9.1,39.9,4.7c3.2-4.6-20-18.9-16.9-32.9c2.5-11.1,18.6-9.2,27.2-24.4
				c8.2-14.5,0.2-27.8,7.5-32.9c2.6-1.8,7.2-2.5,15.9,1.3c-6.1,19-10.4,35.7-10.8,56.4c-0.1,5.5,0,21-0.9,43.7
				c-0.6,14.7-1.2,23.2-6.1,25.4c-5.1,2.3-9.2-4.7-21.6-8.9c-9.1-3.1-18.2-2.2-36.2-0.5c-26.7,2.6-28.6,6.4-33.9,3.3
				c-3.4-2-5-5.1-6.1-11C465.9,416.8,471.6,416.4,477.1,414z"/>
			<path class="st27" d="M534.8,245.8c0,5.5-8.2,24.2-22.3,51.4c-3.9,7.5-8.6,15.8-13.5,24.8c-2.5-5.7-4.5-11.4-6.2-16.8v0
				c-7.5-29.7-3.1-54.2-2.1-57.8c0.1-0.3,1.2-0.6,1.2-0.6C508.6,241.3,530.3,244.4,534.8,245.8z"/>
			<g>
				
					<linearGradient id="SVGID_00000114053215270449344220000011727921775306647991_" gradientUnits="userSpaceOnUse" x1="3398.0386" y1="2347.1875" x2="3400.4324" y2="2410.9458" gradientTransform="matrix(-0.8944 0.4471 -0.4471 -0.8944 4613.3896 849.5233)">
					<stop  offset="0" style="stop-color:#FFC444"/>
					<stop  offset="0.9964" style="stop-color:#F36F56"/>
				</linearGradient>
				<path style="fill:url(#SVGID_00000114053215270449344220000011727921775306647991_);" d="M511.9,220.4
					c0.3,6.4,1.3,11.4,2.1,14.8c1,3.9,1.6,4.9,2.3,5.7c1.1,1.2,2.8,2.2,12.1,3.9c5,1,5.7,0.9,5.8,1.4c0.7,2.4-12.5,11.3-26.5,10.1
					c-8.6-0.8-16.7-5.2-16.3-7.8c0.3-2.6,9-1.7,11.3-6.5c1.6-3.4-0.6-7.9-3.2-11.6C501.5,226,509.9,224.7,511.9,220.4z"/>
				<g>
					
						<linearGradient id="SVGID_00000060737802232818871580000015560032858024357275_" gradientUnits="userSpaceOnUse" x1="-89.6686" y1="378.9466" x2="-65.7081" y2="378.9466" gradientTransform="matrix(1 0 0 -1 583.9743 601.8898)">
						<stop  offset="0" style="stop-color:#444B8C"/>
						<stop  offset="0.9964" style="stop-color:#3E4177"/>
					</linearGradient>
					<path style="fill:url(#SVGID_00000060737802232818871580000015560032858024357275_);" d="M496.1,223.7
						c-2.2-2.6-2.5-7.3-0.4-10.4c1.9-2.7,5-3.2,6.9-3.5c5.4-0.9,12.5,1,15.1,5.9c1.6,2.9-1.2,9.3-1.6,10.4c-0.5,1.3-1.5,1.8-2.3,2.8
						c-1.2,1.4-3.1,3.6-6.1,7.3c-0.3-1-0.8-2.3-1.4-3.6c-0.3-0.5-1.3-2.6-2.8-4.2C500.4,225,498.2,226.2,496.1,223.7z"/>
					
						<linearGradient id="SVGID_00000036940082128963803920000006269851830343397556_" gradientUnits="userSpaceOnUse" x1="2801.5706" y1="556.5536" x2="2800.8242" y2="496.4214" gradientTransform="matrix(-0.9999 -1.160000e-02 1.160000e-02 -0.9999 3300.698 812.3145)">
						<stop  offset="0" style="stop-color:#FFC444"/>
						<stop  offset="0.9964" style="stop-color:#F36F56"/>
					</linearGradient>
					<path style="fill:url(#SVGID_00000036940082128963803920000006269851830343397556_);" d="M512.2,233c0,0-3.3,6.1-10.5,6
						c-6.4-0.1-8.1-14.4-4.2-17.7c1.3-1.1,4-1.7,6.3-1.2c1.3,0.3,1.8,0.8,4,1.3c2,0.4,2.6,0.2,3.2,0.6c0.8,0.6,1.4,2.1,0.4,6.4
						c1.2-1.3,2.6-1.9,3.7-1.4c0.2,0.1,0.6,0.4,0.9,0.8C517,229.5,515.6,231.6,512.2,233z"/>
					
						<linearGradient id="SVGID_00000035524221338089655410000002440929880195938187_" gradientUnits="userSpaceOnUse" x1="-88.4495" y1="370.9921" x2="-68.2142" y2="370.9921" gradientTransform="matrix(1 0 0 -1 583.9743 601.8898)">
						<stop  offset="0" style="stop-color:#444B8C"/>
						<stop  offset="0.9964" style="stop-color:#3E4177"/>
					</linearGradient>
					<path style="fill:url(#SVGID_00000035524221338089655410000002440929880195938187_);" d="M511.3,221.2c-0.3,0.2,0.7,1.4,0.9,3
						c0.3,3.2-2.7,7.1-6,7.6c-1.9,0.3-2.5-0.8-5.7-1c-2-0.1-3.6,0.2-4.6,0.5c-0.8,3.5,0.3,6.9,2.7,8.4c2.6,1.6,5.7,0.4,7-0.1
						c0.9-0.3,3.7-1.4,5-4.1c1.4-2.8-0.2-4.4,1.5-6.3c0.8-1,2-1.4,3.1-3.3c0.3-0.5,0.5-0.9,0.6-1.2
						C514,222.9,511.7,220.9,511.3,221.2z"/>
					
						<linearGradient id="SVGID_00000170246835856572730330000004666209583262625156_" gradientUnits="userSpaceOnUse" x1="-4399.0142" y1="765.8194" x2="-4398.1694" y2="758.2875" gradientTransform="matrix(0.9988 -4.960000e-02 -4.960000e-02 -0.9988 4931.3032 777.1984)">
						<stop  offset="0" style="stop-color:#FFC444"/>
						<stop  offset="1" style="stop-color:#F36F56"/>
					</linearGradient>
					<path style="fill:url(#SVGID_00000170246835856572730330000004666209583262625156_);" d="M498.2,232.5c0,0,1.4,0.6,3.8,0.4
						c0.1,0,0.2,0,0.3,0.1c0.1,0.2-1.4,1.3-2.9,1c-1-0.2-1.9-1.1-1.7-1.4C497.7,232.5,498,232.5,498.2,232.5z"/>
				</g>
			</g>
			<path class="st33" d="M502.9,255.6l1.5,9h6.3l5.2-8.5C515.9,256.1,503.9,256.5,502.9,255.6z"/>
			<g>
				<path class="st33" d="M512.5,297.2c-1.2,2.3-2.4,4.6-3.7,7c-2.9,5.6-6.4,11.5-9.8,17.7c-2.5-5.7-4.5-11.4-6.2-16.8v0l11.2-40
					l0.3-0.6c0-0.1,0.1-0.1,0.1-0.2c0.8-1.8,6.2,0,6.2,0L512.5,297.2z"/>
				
					<linearGradient id="SVGID_00000021811293917049520790000016702449331959040184_" gradientUnits="userSpaceOnUse" x1="-91.1543" y1="308.3248" x2="-75.2143" y2="308.3248" gradientTransform="matrix(1 0 0 -1 583.9743 601.8898)">
					<stop  offset="0" style="stop-color:#FF9085"/>
					<stop  offset="1" style="stop-color:#FB6FBB"/>
				</linearGradient>
				
					<path style="opacity:0.3;fill:url(#SVGID_00000021811293917049520790000016702449331959040184_);enable-background:new    ;" d="
					M508.8,304.3c-2.9,5.6-6.4,11.5-9.8,17.7c-2.5-5.7-4.5-11.4-6.2-16.8v0l11.2-40c1.1,0.2,3.6,1.4,3.3,6.9
					c-0.4,7-7.9,19.5-3.7,24.4C505.4,298.4,507.3,301.3,508.8,304.3z"/>
			</g>
			
				<linearGradient id="SVGID_00000129908434579001291220000016881560628605464499_" gradientUnits="userSpaceOnUse" x1="3042.5161" y1="241.7172" x2="3046.832" y2="228.5439" gradientTransform="matrix(-1 0 0 -1 3608.3032 601.8898)">
				<stop  offset="0" style="stop-color:#FFC444"/>
				<stop  offset="0.9964" style="stop-color:#F36F56"/>
			</linearGradient>
			<path style="fill:url(#SVGID_00000129908434579001291220000016881560628605464499_);" d="M575.1,364.5l-5.3-0.1
				c0,0-7.1-5.9-10.3-5.5c-3.2,0.4-8,2.6-8.6,3.1c-0.6,0.5,1.8,3.1,4.1,2.8c2.3-0.3,7.6,1,8.5,3.1c0.9,2.1,5,3.3,5.7,2.1l7.3,1.5
				L575.1,364.5z"/>
		</g>
	</g>
	<g>
		<g>
			
				<linearGradient id="SVGID_00000053517834846510187150000017026280585024646827_" gradientUnits="userSpaceOnUse" x1="29.98" y1="531.7112" x2="238.31" y2="531.7112" gradientTransform="matrix(1 0 0 -1 0 601.8898)">
				<stop  offset="0" style="stop-color:#FFC444"/>
				<stop  offset="0.9964" style="stop-color:#F36F56"/>
			</linearGradient>
			
				<path style="opacity:0.51;fill:url(#SVGID_00000053517834846510187150000017026280585024646827_);enable-background:new    ;" d="
				M232.1,10L36.3,4.4C32.6,4.3,30,7.3,30,11v116.4c0,3.7,2.7,6.8,6.4,6.8l195.9,1.7c3.5,0,6-2.9,6-6.5V16.8
				C238.3,13.1,235.6,10.1,232.1,10z"/>
			<path class="st37" d="M232.1,10L36.3,4.4C32.6,4.3,30,7.3,30,11v10l208.3,5.4v-9.6C238.3,13.1,235.6,10.1,232.1,10z"/>
			<path class="st27" d="M44.7,13.4c0,1.9-1.6,3.5-3.5,3.4c-1.9,0-3.5-1.7-3.5-3.6s1.6-3.5,3.5-3.4C43.1,9.9,44.7,11.5,44.7,13.4z"
				/>
		</g>
		<g>
			<polygon class="st27" points="68.2,119.9 52.6,119.6 52.6,32 68.2,32.5 			"/>
			<polygon class="st12" points="68.2,119.9 52.6,119.6 52.6,78.1 68.2,78.4 			"/>
			<polygon class="st27" points="89.7,120.2 74.2,120 74.2,32.6 89.7,33 			"/>
			<polygon class="st12" points="89.7,120.2 74.2,120 74.2,99.2 89.7,99.5 			"/>
			<polygon class="st27" points="111.1,120.6 95.7,120.3 95.7,33.2 111.1,33.6 			"/>
			<polygon class="st12" points="111.1,120.6 95.7,120.3 95.7,109.5 111.1,109.8 			"/>
			<polygon class="st27" points="132.5,120.9 117.1,120.7 117.1,33.8 132.5,34.2 			"/>
			<polygon class="st12" points="132.5,120.9 117.1,120.7 117.1,52.6 132.5,53 			"/>
			<polygon class="st27" points="153.7,121.3 138.4,121.1 138.4,34.3 153.7,34.7 			"/>
			<polygon class="st12" points="153.7,121.3 138.4,121.1 138.4,60.8 153.7,61.2 			"/>
			<polygon class="st27" points="174.8,121.7 159.6,121.4 159.6,34.9 174.8,35.3 			"/>
			<polygon class="st12" points="174.8,121.7 159.6,121.4 159.6,47.5 174.8,47.8 			"/>
			<polygon class="st27" points="195.8,122 180.7,121.8 180.7,35.5 195.8,35.8 			"/>
			<polygon class="st12" points="195.8,122 180.7,121.8 180.7,68.7 195.8,69.1 			"/>
			<polygon class="st27" points="216.7,122.3 201.7,122.1 201.7,36 216.7,36.4 			"/>
			<polygon class="st12" points="216.7,122.3 201.7,122.1 201.7,92.2 216.7,92.5 			"/>
		</g>
	</g>
	<g>
		<g>
			
				<linearGradient id="SVGID_00000127758810175910963340000002621810959132157361_" gradientUnits="userSpaceOnUse" x1="23.29" y1="345.0942" x2="234.14" y2="345.0942" gradientTransform="matrix(1 0 0 -1 0 601.8898)">
				<stop  offset="3.597120e-03" style="stop-color:#E38DDD"/>
				<stop  offset="1" style="stop-color:#9571F6"/>
			</linearGradient>
			
				<path style="opacity:0.51;fill:url(#SVGID_00000127758810175910963340000002621810959132157361_);enable-background:new    ;" d="
				M227.7,191.9l-197.2-0.1c-3.7,0-7.2,3-7.2,6.8v116.6c0,3.7,3.4,6.7,7.1,6.6l197.2-3.8c3.5-0.1,6.6-3,6.6-6.7V198.5
				C234.1,194.9,231.2,191.9,227.7,191.9z"/>
			<path class="st18" d="M227.7,191.9l-197.2-0.1c-3.7,0-7.2,3-7.2,6.8v10l210.9-0.4v-9.7C234.1,194.9,231.2,191.9,227.7,191.9z"/>
			<path class="st27" d="M39.3,200.6c0,1.9-1.6,3.5-3.5,3.5c-1.9,0-3.5-1.6-3.5-3.5c0-1.9,1.6-3.5,3.5-3.5
				C37.7,197,39.3,198.6,39.3,200.6z"/>
		</g>
		<g>
			<polygon class="st39" points="214.9,224.4 214.9,299.1 45,301.9 45,225.2 			"/>
			<path class="st27" d="M214.9,271.9v27.2l-0.4,0l-0.7,0L45,301.9v-32.2c5,24,10.1,29.6,14.1,29.7c6.6,0.2,10-14,19.8-14.8
				c9.8-0.8,13,12.6,20.3,11.7c13.8-1.6,17.5-51.7,28.7-52.5c8.8-0.6,14.8,30.5,22.5,28.9c5.7-1.1,7-18.6,11.3-18.6
				c3.9,0,4,14.4,9.1,15.5c7.4,1.6,14.7-27.5,24.9-28c5.1-0.3,11.4,6.6,18.8,29.8C214.5,271.5,214.9,271.7,214.9,271.9z"/>
		</g>
	</g>
	<g>
		<g>
			
				<linearGradient id="SVGID_00000069369619254613368290000016605149025511571082_" gradientUnits="userSpaceOnUse" x1="389.76" y1="525.5258" x2="576.34" y2="525.5258" gradientTransform="matrix(1 0 0 -1 0 601.8898)">
				<stop  offset="3.597120e-03" style="stop-color:#E38DDD"/>
				<stop  offset="1" style="stop-color:#9571F6"/>
			</linearGradient>
			
				<path style="opacity:0.51;fill:url(#SVGID_00000069369619254613368290000016605149025511571082_);enable-background:new    ;" d="
				M570.5,19.4L396,14.6c-3.3-0.1-6.2,2.7-6.2,6.2v109.6c0,3.5,2.8,6.4,6.1,6.4l174.6,1.4c3.1,0,5.9-2.7,5.9-6.1V25.7
				C576.3,22.3,573.6,19.5,570.5,19.4z"/>
			<path class="st18" d="M570.5,19.4L396,14.6c-3.3-0.1-6.2,2.7-6.2,6.2v9.4l186.6,4.7v-9.1C576.3,22.3,573.6,19.5,570.5,19.4z"/>
			<path class="st27" d="M403.5,23c0,1.8-1.4,3.3-3.1,3.2c-1.7,0-3.1-1.6-3.1-3.4s1.4-3.3,3.1-3.2C402.1,19.7,403.5,21.2,403.5,23z"
				/>
		</g>
		<g class="st41">
			<polygon class="st27" points="558.8,49.7 558.8,120 409,118.4 409,46.3 			"/>
		</g>
		<g>
			<path class="st27" d="M423.5,108.4c0,2.2-1.6,3.9-3.7,3.9s-3.7-1.8-3.7-4c0-2.2,1.6-3.9,3.7-3.9
				C421.9,104.5,423.5,106.3,423.5,108.4z"/>
			<path class="st27" d="M448.2,86.4c0,2.2-1.6,3.9-3.6,3.8c-2,0-3.6-1.8-3.6-4c0-2.2,1.6-3.9,3.6-3.8
				C446.6,82.5,448.2,84.2,448.2,86.4z"/>
			<path class="st27" d="M472.7,101c0,2.1-1.6,3.9-3.6,3.8c-2,0-3.6-1.8-3.6-3.9s1.6-3.9,3.6-3.8C471.1,97.1,472.7,98.8,472.7,101z"
				/>
			<path class="st27" d="M497.1,71c0,2.1-1.6,3.8-3.6,3.8c-2,0-3.6-1.8-3.6-3.9s1.6-3.8,3.6-3.8C495.5,67.1,497.1,68.9,497.1,71z"/>
			<path class="st27" d="M521.2,92.6c0,2.1-1.6,3.8-3.5,3.8c-2,0-3.5-1.8-3.5-3.9c0-2.1,1.6-3.8,3.5-3.8
				C519.6,88.7,521.2,90.5,521.2,92.6z"/>
			<path class="st27" d="M548.7,63.8l1.3-5.7c0.1-0.3,0-0.6-0.2-0.8c-0.2-0.2-0.5-0.3-0.8-0.2l-5.1,1.5c-0.3,0.1-0.5,0.3-0.5,0.6
				c-0.1,0.3,0,0.6,0.2,0.8l3.9,4.1c0.2,0.2,0.5,0.3,0.8,0.2C548.4,64.4,548.6,64.1,548.7,63.8z"/>
			<g>
				<polygon class="st27" points="420.5,109.2 419.2,107.6 444.5,85.1 468.9,99.6 493.4,69.6 517.6,91.2 547.9,58.5 549.2,59.9 
					517.7,93.9 493.6,72.4 469.4,102.2 444.7,87.6 				"/>
			</g>
		</g>
	</g>
</g>
</svg>
