<?xml version="1.0" encoding="utf-8"?>
<!-- Generator: Adobe Illustrator 26.3.1, SVG Export Plug-In . SVG Version: 6.00 Build 0)  -->
<svg version="1.1" id="Layer_1" xmlns="http://www.w3.org/2000/svg" xmlns:xlink="http://www.w3.org/1999/xlink" x="0px" y="0px"
	 viewBox="0 0 479.49 370.37" style="enable-background:new 0 0 479.49 370.37;" xml:space="preserve">
<g>
	<ellipse style="fill:#EAEAEA;" cx="239.74" cy="333.42" rx="239.74" ry="36.96"/>
	<g>
		<circle style="fill:#5E270E;" cx="379.17" cy="339.7" r="3.21"/>
		<circle style="fill:#5E270E;" cx="395.68" cy="339.7" r="3.21"/>
		<circle style="fill:#5E270E;" cx="415.94" cy="339.7" r="3.21"/>
		<circle style="fill:#5E270E;" cx="432.28" cy="339.7" r="3.21"/>
		<path style="fill:#244081;" d="M375.96,289.27l1.57,43.75c0,0,6.32,2.38,9.93,0c-0.14-14.3,3.44-43.06,3.44-43.06L375.96,289.27z"
			/>
		<path style="fill:#FFB881;" d="M327.38,331.6l-3.12,3.38c0,0-0.77,7.91,11.74,2.3c-0.64-1.66-1.02-3.2-1.02-3.2L327.38,331.6z"/>
		<path style="fill:#19224E;" d="M324.92,334.26c0,0-7.56,4.42-12.79,6.08c-1.91,1.53-3.45,3.41,1.91,3.62
			c5.23-0.17,22.47,0,22.47,0l-0.51-6.68L324.92,334.26z"/>
		<path style="fill:#FFB881;" d="M378.51,333.34l-1.65,2.11c0,0,1.66,3.48,9.32,1.04c-0.77-1.12-1.15-3.14-1.15-3.14H378.51z"/>
		<path style="fill:#19224E;" d="M376.85,335.45l-8.3,2.5c0,0-2.77,2.33,3.37,3.55c7.22-0.13,16.92,0,16.92,0l-1.39-4.14l-1.29-0.87
			L376.85,335.45z"/>
		<path style="fill:#C0E0F9;stroke:#264591;stroke-miterlimit:10;" d="M397.59,195.31l-93.29-11.6c-2.68-0.33-4.68-2.62-4.67-5.31
			l0.67-119.06c0.02-3.17,2.79-5.63,5.94-5.26l92.62,10.75c2.69,0.31,4.71,2.59,4.71,5.29v119.9
			C403.57,193.23,400.77,195.7,397.59,195.31z"/>
		<path style="fill:#FBFDFF;" d="M392.94,78.45l-79.66-8.5c-1.36-0.14-2.34-1.36-2.19-2.72l0,0c0.14-1.36,1.36-2.34,2.72-2.19
			l79.66,8.5c1.36,0.14,2.34,1.36,2.19,2.72l0,0C395.51,77.61,394.29,78.59,392.94,78.45z"/>
		<path style="fill:#FBFDFF;" d="M392.94,86.62l-79.66-8.5c-1.36-0.14-2.34-1.36-2.19-2.72l0,0c0.14-1.36,1.36-2.34,2.72-2.19
			l79.66,8.5c1.36,0.14,2.34,1.36,2.19,2.72l0,0C395.51,85.78,394.29,86.76,392.94,86.62z"/>
		<path style="fill:#FBFDFF;" d="M392.04,95l-79.66-8.5c-1.36-0.14-2.34-1.36-2.19-2.72v0c0.14-1.36,1.36-2.34,2.72-2.19l79.66,8.5
			c1.36,0.14,2.34,1.36,2.19,2.72l0,0C394.61,94.16,393.4,95.15,392.04,95z"/>
		<path style="fill:#0F5BA7;" d="M343.28,98.05l5.87,24.77c0,0,11.36,0.38,13.66,8.17c10.85-2.55,23.74-6.28,23.74-6.28
			S378,95.62,343.28,98.05z"/>
		<path style="fill:#9EB3D7;" d="M343.28,98.05c0,0-13.28,1.28-22.72,14.94c21.83,14.43,22.09,15.19,22.09,15.19
			s1.15-4.21,6.51-5.36C343.64,99.58,343.28,98.05,343.28,98.05z"/>
		<path style="fill:#FFFFFF;" d="M386.55,124.7c-13.75,3.75-21.3,5.67-23.23,6.15c0.33,1.15,0.51,2.37,0.51,3.64
			c0,6.8-5.09,12.32-11.36,12.32s-11.36-5.52-11.36-12.32c0-2.19,0.53-4.24,1.45-6.02c0.03-0.1,0.05-0.2,0.08-0.3l-22.09-15.19
			c0,0-14.17,19.15,1.79,41.36c7.15,7.79,15.32,17.49,33.83,18.38c16.98-2.94,27.19-10.6,32.04-24.64
			C388.98,141.32,390,130.67,386.55,124.7z"/>
		<g>
			<path style="fill:#9CB4D9;" d="M384.26,184.34c0,0-7.79,3.32-12.96-2.3c0,0-18.49,4.25-27.06-7.25
				c-0.64-0.85-0.97-1.89-1.03-2.96c-0.28-5.76-0.52-13.57,19.02-15.26c0.52-0.05,1.05-0.05,1.57-0.02
				c7.69,0.49,20.41,1.72,20.68,12.97c0.05,1.94-0.7,3.82-2,5.26c-1.61,1.78-2.06,1.83-4.96,3.53
				C379.4,181.03,381.7,184.85,384.26,184.34z"/>
			<circle style="fill:#FCFFFF;" cx="351.06" cy="169.28" r="2.55"/>
			<circle style="fill:#FCFFFF;" cx="359.11" cy="169.28" r="2.55"/>
			<circle style="fill:#FCFFFF;" cx="368.34" cy="169.28" r="2.55"/>
			<circle style="fill:#FCFFFF;" cx="376.13" cy="169.28" r="2.55"/>
		</g>
		<g>
			<path style="fill:#9CB4D9;" d="M98.42,129.58c0,0,10.62,4.06,17.27-3.74c0,0,25.03,4.78,35.94-11.09
				c0.81-1.18,1.21-2.59,1.23-4.02c0.08-7.74,0.02-18.23-26.28-19.52c-0.7-0.03-1.41-0.01-2.11,0.06
				c-10.29,1.05-27.3,3.33-27.09,18.44c0.04,2.6,1.13,5.09,2.94,6.95c2.25,2.31,2.86,2.35,6.84,4.49
				C104.76,124.88,101.87,130.13,98.42,129.58z"/>
			<circle style="fill:#FCFFFF;" cx="142.2" cy="107.69" r="3.43"/>
			<circle style="fill:#FCFFFF;" cx="131.41" cy="108.1" r="3.43"/>
			<circle style="fill:#FCFFFF;" cx="119.01" cy="108.56" r="3.43"/>
			<circle style="fill:#FCFFFF;" cx="108.56" cy="108.96" r="3.43"/>
		</g>
		<path style="fill:#274083;" d="M384.17,265.96c0,0-31.4,2.38-38.72,3.58c-6.98,1.7-11.4,3.06-13.28,16.17
			c-0.85,14.13-3.06,34.72-3.06,34.72l-2.38,10.38c0,0,2.38,3.91,9.02,3.4c2.04-5.96,11.57-35.23,11.57-35.23l4.6-13.79l39.15,6.64
			c0,0,27.89,5.04,37.26-12.37L384.17,265.96z"/>
		<path style="fill:#0F5BA7;" d="M319.62,276.95l-182.9-22.74c-5.25-0.65-9.18-5.13-9.15-10.42l1.31-233.41
			c0.04-6.22,5.47-11.03,11.64-10.31l181.58,21.07c5.27,0.61,9.24,5.07,9.24,10.37v235.08
			C331.35,272.87,325.85,277.73,319.62,276.95z"/>
		<path style="fill:#C0E0F9;" d="M316.58,272.29l-176.74-21.97c-5.07-0.63-8.87-4.96-8.84-10.07l1.27-225.55
			c0.03-6.01,5.28-10.66,11.25-9.96L318.99,25.1c5.09,0.59,8.93,4.9,8.93,10.02v227.16C327.91,268.34,322.6,273.04,316.58,272.29z"
			/>
		<g>
			<g>
				<path style="fill:#D4EAF9;" d="M285.95,120.85l-117.13-10.07c-4.83-0.42-8.53-4.45-8.53-9.3V33.21c0-5.58,4.87-9.92,10.42-9.27
					l117.13,13.65c4.71,0.55,8.25,4.53,8.25,9.27v64.69C296.09,117.02,291.4,121.32,285.95,120.85z"/>
				<g>
					<rect x="173.87" y="86.9" style="fill:#FBFDFF;" width="9.7" height="19.57"/>
					<rect x="188.42" y="83.15" style="fill:#FBFDFF;" width="9.7" height="24.17"/>
					<rect x="202.03" y="75.32" style="fill:#0F5BA7;" width="9.7" height="33.45"/>
					<rect x="231.65" y="66.47" style="fill:#0F5BA7;" width="9.7" height="45.49"/>
					<rect x="259.74" y="64.43" style="fill:#0F5BA7;" width="9.7" height="51.45"/>
					<rect x="216.67" y="83.15" style="fill:#FBFDFF;" width="9.7" height="27.32"/>
					<rect x="245.27" y="84" style="fill:#FBFDFF;" width="9.7" height="30.21"/>
					<rect x="274.38" y="72.38" style="fill:#FBFDFF;" width="9.7" height="44.73"/>
				</g>
				<g>
					<polyline style="fill:none;stroke:#243E7E;stroke-miterlimit:10;" points="178.72,76 207.74,64.43 221.52,72.38 235.49,54.05 
						250.81,69.54 264.59,51.49 279.23,62.22 					"/>
					<circle style="fill:#FBFDFF;" cx="178.3" cy="76.13" r="3.74"/>
					<circle style="fill:#FBFDFF;" cx="206.89" cy="64.43" r="3.74"/>
					<circle style="fill:#FBFDFF;" cx="221.52" cy="71.58" r="3.74"/>
					<circle style="fill:#FBFDFF;" cx="236.5" cy="54.05" r="3.74"/>
					<circle style="fill:#FBFDFF;" cx="250.12" cy="69.37" r="3.74"/>
					<circle style="fill:#FBFDFF;" cx="264.59" cy="52.17" r="3.74"/>
					<circle style="fill:#FBFDFF;" cx="279.23" cy="61.54" r="3.74"/>
				</g>
			</g>
			<g>
				<path style="fill:#FBFDFF;" d="M293.78,143.61l-135.59-14.46c-2.04-0.22-3.52-2.05-3.3-4.09v0c0.22-2.04,2.05-3.52,4.09-3.3
					l135.59,14.46c2.04,0.22,3.52,2.05,3.3,4.09v0C297.65,142.35,295.82,143.83,293.78,143.61z"/>
				<path style="fill:#FBFDFF;" d="M293.73,154.08l-135.59-14.46c-2.04-0.22-3.52-2.05-3.3-4.09v0c0.22-2.04,2.05-3.52,4.09-3.3
					l135.59,14.46c2.04,0.22,3.52,2.05,3.3,4.09l0,0C297.61,152.82,295.77,154.3,293.73,154.08z"/>
				<path style="fill:#FBFDFF;" d="M223.44,159.33l-65.31-6.97c-2.04-0.22-3.52-2.05-3.3-4.09v0c0.22-2.04,2.05-3.52,4.09-3.3
					l65.31,6.97c2.04,0.22,3.52,2.05,3.3,4.09h0C227.32,158.07,225.49,159.54,223.44,159.33z"/>
			</g>
		</g>
		<g>
			<path style="fill:#0F5BA7;" d="M206.89,173.37l19.44,24.51l8.82-24.51C235.15,173.37,216.15,169.03,206.89,173.37z"/>
			<path style="fill:#0F5BA7;" d="M243.06,168l-7.91,27.15l48.93,9.55C284.08,204.71,293.36,181.54,243.06,168z"/>
			<path style="fill:#C2D4E5;" d="M172.87,182.97c0,0-12.02,25.74,9.18,34.75c0-9.57,0-9.57,0-9.57L172.87,182.97z"/>
			<path style="fill:#0F5BA7;" d="M198.12,169.34l22.22,27.17l-38.3,11.64C182.04,208.15,148.32,183.7,198.12,169.34z"/>
			<polygon style="fill:#FDFFFD;" points="182.04,208.15 182.04,217.72 221.52,206.26 220.34,196.51 			"/>
			<polygon style="fill:#C2D4E5;" points="206.89,173.37 226.38,207.77 226.33,196.51 			"/>
			<polygon style="fill:#FFFFFE;" points="226.33,196.51 235.15,173.37 236.15,191.71 226.38,211.92 			"/>
			<polygon style="fill:#FBFDFF;" points="235.15,195.15 235.15,203.31 284.08,215.51 284.08,204.71 			"/>
			<path style="fill:#FFFFFC;" d="M191.18,218.03v11.83c0,0,24.37,21.86,63.79,13.19c14.9-4.32,23.14-11.62,24.26-13.72l-1.95-11.62
				L191.18,218.03z"/>
			<path style="fill:#9FB2D9;" d="M191.18,218.03l37.79-11.48l48.3,11.17c0,0-7.84,21.07-52.01,16.98
				C210.13,231.36,203.14,227.4,191.18,218.03z"/>
		</g>
		<g>
			<g>
				<path style="fill:#422C6C;" d="M374.48,337.95h0.13c0.76,0,1.36-0.66,1.35-1.46l-2.04-93.76l-6.02-0.74l5.13,94.51
					C373.07,337.31,373.71,337.95,374.48,337.95z"/>
			</g>
			<g>
				<path style="fill:#422C6C;" d="M223.77,337.95h-0.13c-0.76,0-1.36-0.66-1.35-1.46l2.04-93.76l6.02-0.74l-5.13,94.51
					C225.18,337.31,224.54,337.95,223.77,337.95z"/>
			</g>
			<path style="fill:#422C6C;" d="M379.89,244.45H219.37c-3.12,0-5.66-2.53-5.66-5.66v0c0-3.12,2.53-5.66,5.66-5.66h160.52
				c3.12,0,5.66,2.53,5.66,5.66v0C385.55,241.91,383.02,244.45,379.89,244.45z"/>
		</g>
		<g>
			<polygon style="fill:#456EB5;" points="330.81,189.32 286.89,189.32 302.38,226.98 346.68,226.3 			"/>
			<polygon style="fill:#AFC5E7;" points="329.03,191.71 290.68,191.71 304.21,224.6 342.89,224 			"/>
			<rect x="296.09" y="195.15" style="fill:#FEFDFF;" width="31.83" height="2.72"/>
			<rect x="297.55" y="199.11" style="fill:#FEFDFF;" width="31.83" height="2.72"/>
			<polygon style="fill:#5AA472;" points="313.41,221.97 309.07,221.97 306.06,214.09 310.4,214.09 			"/>
			<polygon style="fill:#F39B17;" points="321.26,221.74 316.92,221.74 311.24,207.77 315.58,207.77 			"/>
			<polygon style="fill:#4F86BC;" points="328.92,221.08 324.58,221.08 319.57,209.94 323.91,209.94 			"/>
			<polygon style="fill:#F5252E;" points="337.27,221.08 332.93,221.08 325.43,204.71 329.77,204.71 			"/>
			<path style="fill:#1B214E;" d="M327.16,232.74h-19.02c-3.18,0-5.76-2.58-5.76-5.76l0,0h24.78V232.74z"/>
		</g>
		<g>
			<path style="fill:#F6B98D;" d="M403.34,154.34c0,0-0.7,7.41-0.7,9.19c-1.28,1.53-3.74,9.83,0.26,13.79
				c1.05,4.09,1.43,4.04,6.77,5.49c0.38,0.64,0.64,1.53,0.64,1.53l13.28-0.77v-7.28l-8.55-21.96H403.34z"/>
			<path style="fill:#081122;" d="M400.65,144.5c3.56,1.06,10.66,2.7,16.62,1.12c7.17-0.56,10.16,1.32,11.27,3.71
				c0.54,1.17,1.35,2.19,2.32,3.04c3.71,3.25,7.14,8.47,1.4,18.48c-3.13,5.45-9.38,8.55-15.5,7.12c-1.82-0.43-3.58-1.24-5.12-2.56
				l2.55-8.17c0,0,2.72-5.04-1.7-6.18c-2.38,0.9-4.09,4.31-4.09,4.31s0.17-9.7-6.47-11.57c-2.01-1.74-3.17-4.43-3.5-7.48
				C398.33,145.1,399.49,144.15,400.65,144.5z"/>
			<path style="fill:#4A70BC;" d="M405.57,189.32l2.94-4.98l20.3-0.64l1.15,5.62C429.96,189.32,410.3,188.17,405.57,189.32z"/>
			<path style="fill:#FFB881;" d="M333.45,225.96c0,0-12.26-4.85-17.74,2.3c3.06,1.28,2.68,1.53,6.77,0
				c2.43,2.3,2.94,5.92,10.47,4.87C333.19,229.52,333.45,225.96,333.45,225.96z"/>
			<polygon style="fill:#159DA0;" points="368.34,221.18 357.7,220.09 357.7,223.4 367.28,222.39 			"/>
			<path style="fill:#FFB881;" d="M357.7,220.09c0,0-7.4-2.04-12.43,2.13c-1.19,0.6-0.68,1.62,2.38,0c2.72-0.17,2.81,0.34,2.81,0.34
				l0.26,0.84l0.47,0.95l6.51-0.95V220.09z"/>
			<polygon style="fill:#159DA0;" points="376.85,229.86 371.3,232.66 389.93,233.32 400.71,214.09 			"/>
			<path style="fill:#26C4CF;" d="M405.57,189.32c0,0-8.68,0.51-17.87,9.83c-9.06,10.34-20.43,23.23-20.43,23.23l-33.83,3.57
				l-0.51,7.17h40.47c0,0,15.96-7.04,23.11-16.49c-6.89,17.11-17.87,42.51-10.72,52.85c4.47,4.85,19.28,14.43,48.38,9.06
				c1.53-12,8.94-53.49,7.66-66.77c-1.28-11.62-0.13-21.19-11.87-22.47C420.77,188.93,409.21,188.05,405.57,189.32z"/>
		</g>
		<path style="fill:#422C6C;" d="M450.41,212.85H431.6c-4.62,0-8.55,3.36-9.27,7.92l-3.87,24.53c-0.82,5.21,3.21,9.93,8.49,9.93
			h5.65l-2.64,29.11H368.6c-2.63,0-4.77,2.13-4.77,4.77v0c0,2.63,2.13,4.77,4.77,4.77h34.89v13.96h-2.21v21.96h-22.13l-0.17,4.26
			h7.15h32v3.9l1.7,5.63c0,0,3.4,1.7,3.74-2.04c0.34-3.74,0.17-8,0.17-8h8.85v-2.89h-9.87l-1.53-37.62h20.94
			c2.54,0,4.6-2.06,4.6-4.6v0c0-2.54-2.06-4.6-4.6-4.6h-4.77l2.72-29.11h7.44c4.24,0,7.84-3.09,8.49-7.28l3.67-23.77
			C460.57,217.99,456.17,212.85,450.41,212.85z M410.13,330.13v-22.64h-1.7v-14.13h7.51l1.68,36.77H410.13z"/>
	</g>
	<g>
		<g>
			<g>
				<g>
					<path style="fill:#B0D4FF;" d="M74.54,327.62h-0.1c-0.57,0-1.03-0.47-1.02-1.04l1.55-66.97l4.55-0.53l-3.88,67.5
						C75.61,327.16,75.12,327.62,74.54,327.62z"/>
				</g>
				<g>
					<path style="fill:#95C0F4;" d="M48.02,327.62h-0.1c-0.57,0-1.03-0.47-1.02-1.04l1.55-66.97l4.55-0.53l-3.88,67.5
						C49.08,327.16,48.6,327.62,48.02,327.62z"/>
				</g>
				<g>
					<path style="fill:#B0D4FF;" d="M121.2,327.62h0.1c0.57,0,1.03-0.47,1.02-1.04l-1.55-66.97l-4.55-0.53l3.88,67.5
						C120.14,327.16,120.62,327.62,121.2,327.62z"/>
				</g>
				<path style="fill:#B0D4FF;" d="M45,255.45v-45.89c0-8.07,6.55-14.62,14.62-14.62h33.06c8.07,0,14.62,6.55,14.62,14.62v47.64
					L45,255.45z"/>
				<path style="fill:#95C0F4;" d="M113.23,262.7H52.25c-4,0-7.24-3.24-7.24-7.24v0h68.23V262.7z"/>
				<path style="fill:#B0D4FF;" d="M120.5,262.7H72.96c-2,0-3.62-1.62-3.62-3.62v0c0-2,1.62-3.62,3.62-3.62h47.54
					c2,0,3.62,1.62,3.62,3.62v0C124.13,261.08,122.5,262.7,120.5,262.7z"/>
			</g>
			<g>
				<path style="fill:#233862;" d="M119,244.02c-4.74,8.24-10.69,11.43-10.69,11.43H83.53C83.53,255.44,122.62,237.73,119,244.02z"
					/>
				<g>
					<path style="fill:#FFB27D;" d="M99.97,307.8c-0.65,0.74-0.73,1.57-0.41,2.45c0,0,0,0.01,0.01,0.01
						c0.59,1.63,2.54,3.46,4.81,5.28c0.29,0.23,0.55,0.45,0.77,0.64c0.06,0.05,0.12,0.1,0.17,0.16c0.05,0.04,0.09,0.08,0.13,0.12
						c2.12,1.95,1.32,2.4,5.12,6.35c4.33,4.51,7.32,4.59,8.17,4.18c0.72-0.35-0.74-2.74-2.36-5.43c-0.08-0.13-0.16-0.26-0.24-0.39
						c-0.22-0.36-0.43-0.72-0.64-1.08c-1.89-3.23-1.41-4.75-0.96-9.57c0.36-3.91,6.09-21.85,6.09-21.85l-8.3-1.43
						c0,0-2.5,14.29-5.26,16.49c-1.47,1.17-3.12,1.19-4.54,2.06c-0.1,0.06-0.2,0.12-0.29,0.19
						C101.44,306.51,100.62,307.06,99.97,307.8z"/>
					<path style="fill:#233862;" d="M99.97,307.8c-0.65,0.74-0.73,1.57-0.41,2.45c0,0,0,0.01,0.01,0.01
						c0.72,1.63,2.63,3.45,4.82,5.26c0.29,0.24,0.54,0.46,0.76,0.66c0.06,0.05,0.12,0.1,0.17,0.16c0.05,0.04,0.09,0.08,0.13,0.12
						c2.12,1.95,1.32,2.4,5.12,6.35c4.33,4.51,7.32,4.59,8.17,4.18c0.72-0.35-0.74-2.74-2.36-5.43c-0.84-0.31-4.76-1.9-7.72-5.69
						c-2.61-3.33-4.35-7.61-6.13-10.09c-0.1,0.06-0.2,0.12-0.29,0.19C101.44,306.51,100.62,307.06,99.97,307.8z"/>
					<path style="fill:#FFB27D;" d="M166.93,302.61c0.51,2.56,4.17,2.14,8.25,1.14c4.08-1,3.11,0.19,8.92-0.45
						c5.81-0.64,7.57-2.81,7.75-3.67c0.16-0.77-2.71-1.04-5.79-1.39c-0.39-0.04-0.78-0.09-1.17-0.14c-3.48-0.44-6.02-2.68-9.18-4.52
						c-2.99-1.75-7.45-8.86-7.45-8.86l-7.97,0.63c0,0,4.18,6.35,5.8,9.11c0.95,1.62,0.9,3.77,0.78,5.43
						C166.81,300.79,166.75,301.71,166.93,302.61z"/>
					<path style="fill:#233862;" d="M175.18,303.75c4.08-1,3.11,0.19,8.92-0.45c5.81-0.64,7.57-2.81,7.75-3.67
						c0.16-0.77-2.71-1.04-5.79-1.39l-0.03,0.06c0,0-3.48,2.47-8.32,2.59c-3.94,0.1-8.12-1.03-10.84-0.99
						c-0.06,0.9-0.12,1.82,0.06,2.73C167.44,305.18,171.1,304.75,175.18,303.75z"/>
					<path style="fill:#233862;" d="M136.4,251.67l-7.45,20.04l-9.72,26.17c0,0-2.64,0.25-5.17-0.47c-2.33-0.67-5-2.43-5-2.43
						s2.7-28.1,7.74-44.23c1.29-4.14,2.74-7.49,4.33-9.37C128.94,232.14,136.4,251.67,136.4,251.67z"/>
					<path style="fill:#2B478B;" d="M128.82,219.84c-4.88-1.57-18.8,0.45-32.78,3.18l-2.93-4.83l-30.2-2.36
						c0,0-9.96,22.1-4.51,36.18c0.8,2.07,2.4,3.4,5.11,3.44c0,0,0.44,0,0.44,0c0,0,17.97-0.01,23.81-0.01
						c15.02,0,31.78-10.32,33.95-10.76c3.55-0.71,4.97,6.39,8.52,13.84c3.55,7.45,33.37,33.01,33.37,33.01s4.58,0.05,6.48-0.66
						c2.04-0.76,2.78-1.76,2.78-1.76S139.83,223.39,128.82,219.84z"/>
					<path style="fill:#233862;" d="M91.93,130.26c-3.87-2.03-9.75-2.31-10.71-2.43c-11.44-1.54-18.33,15.09-18.73,20.13
						c-0.75,9.29-5.66,10.7-12.57,16.52c-13.86,11.66-9.8,25.21-2.22,30.25c4.55,3.02,12.57,0,12.57,0
						c0.11,0.08,21.93-12.19,32.68-18.12C109.06,174.32,101.79,135.44,91.93,130.26z"/>
					<path style="fill:#FFB27D;" d="M83.93,171.57c0.05,0.03-5.29,1.85-8.86,0.27c-3.36-1.48-5.9-7.01-5.85-7.01
						c1.53-0.07,3.2-1.41,4.5-10.17l0.65,0.23l10.94,3.94c0,0-0.79,3.51-1.3,6.85C83.56,168.48,83.33,171.17,83.93,171.57z"/>
					<path style="fill:#ED975D;" d="M85.3,158.83c0,0-0.79,3.51-1.3,6.85c-6.28-1.13-8.75-7.39-9.63-10.79L85.3,158.83z"/>
					<path style="fill:#FFB27D;" d="M86.93,162.31c0,0-14.96-2.01-13.57-11.31c1.39-9.3,0.4-15.82,10.01-14.93
						c9.61,0.89,10.93,4.72,11.22,7.93C94.88,147.22,90.86,162.59,86.93,162.31z"/>
					<path style="fill:#233862;" d="M94.05,138.91c0,0-9.58,8.25-16.09,8.92c-6.52,0.67-8.98-1.43-8.98-1.43s3.84-3.19,6.15-8.33
						c0.68-1.52,2.12-2.56,3.78-2.7C83.55,134.96,92.37,134.78,94.05,138.91z"/>
					<path style="fill:#233862;" d="M88.06,138.17c0,0,3.2,3.1,4.21,5.4c0.97,2.22,1.27,7.52,0.49,9.63c0,0,4.99-9.71,2.17-14.42
						C91.93,133.77,88.06,138.17,88.06,138.17z"/>
					<path style="fill:#FFFFFF;" d="M96.53,193.61c-0.45,30.29-0.12,23.96-3.44,26.83c-0.8,0.69-3.04,1.1-6,1.3
						c-9.29,0.62-25.61-0.91-26.24-2.63c-2.14-5.94-0.63-7.78-2.42-16.88c-0.19-0.97-0.42-2.01-0.69-3.15
						c-1.49-6.25-2.94-8.37,2.35-18.4c4.79-9.09,9.78-16.46,10.22-16.2c12.65,7.51,13.67,1.2,13.67,1.2S96.75,178.83,96.53,193.61z"
						/>
					<path style="fill:#2B478B;" d="M128.95,271.71l-9.72,26.17c0,0-2.64,0.25-5.17-0.47c-2.33-0.67-5-2.43-5-2.43
						s2.7-28.1,7.74-44.23L128.95,271.71z"/>
					<path style="fill:#FFFFFF;" d="M83.99,165.68c0,0,13.02,2.21,14.54,7.81c1.53,5.6,10.52,38.55,10.52,38.55
						s-6.62,1.19-9.67-1.87c-3.06-3.06-10.64-28.36-10.64-28.36L83.99,165.68z"/>
					<path style="fill:#EBF3FF;" d="M87.09,221.74c-9.29,0.62-25.61-0.91-26.24-2.63c-2.14-5.94-0.63-7.78-2.42-16.88l4.48-12.61
						c0,0-0.74,14.05,3.4,17.74c4.14,3.69,16.96,7.13,18.97,10.22C86.27,219.06,86.91,220.55,87.09,221.74z"/>
					<path style="fill:#FFB27D;" d="M76.45,215.83c0,0,9.16-2.04,10.64-1.23c1.48,0.81,5.09,3.77,5.54,4.8
						c0.45,1.03-3.29-0.78-4.51-1.11c-0.79-0.21-2.86,0.51-3.89,0.85c-4.32,1.44-6.97,0.7-6.97,0.7L76.45,215.83z"/>
					<path style="fill:#FFFFFF;" d="M70.32,164.48c0,0-12.3,0.76-16.56,6.7c-6,8.36-17.89,44-11.07,48.75
						c7.68,5.35,34.94,1.4,34.94,1.4s0.91-4.24-0.36-6.29c-1.26-2.05-21.77-5.36-22.72-6.31c-0.95-0.95,11.83-18.46,11.83-21.3
						C66.38,184.58,70.32,164.48,70.32,164.48z"/>
					<path style="fill:#FFB27D;" d="M87.54,217.16c0,0,1.92,2.48,2.55,2.77c0.63,0.3,1.04,0.22,1.04,0.22l-1.29-2.33L87.54,217.16z"
						/>
					<path style="fill:#FFB27D;" d="M87.09,214.61l5.58,2.71c0,0-0.24,0.39-0.92,0.36c-0.69-0.03-2.42-0.67-2.42-0.67L87.09,214.61z
						"/>
				</g>
				<g>
					<g>
						<polygon style="fill:#F99746;" points="90.09,223.72 134.24,223.72 147.52,190.69 103.44,190.69 						"/>
						<polygon style="fill:#ED7D2B;" points="134.76,222.44 76.45,222.44 76.45,223.72 134.24,223.72 						"/>
					</g>
					<path style="fill:#FFFFFF;" d="M123.09,207.21c0.33-1.16-0.34-2.1-1.5-2.1c-1.16,0-2.37,0.94-2.71,2.1
						c-0.33,1.16,0.34,2.1,1.5,2.1C121.55,209.31,122.76,208.37,123.09,207.21z"/>
				</g>
			</g>
		</g>
		<g>
			<g>
				<path style="fill:#78ACEA;" d="M177.35,328.84h0.13c0.76,0,1.36-0.66,1.35-1.46l-2.04-93.76l-6.02-0.74l5.13,94.51
					C175.94,328.2,176.58,328.84,177.35,328.84z"/>
			</g>
			<g>
				<path style="fill:#78ACEA;" d="M76.67,328.84h-0.13c-0.76,0-1.36-0.66-1.35-1.46l2.04-93.76l6.02-0.74l-5.13,94.51
					C78.08,328.2,77.44,328.84,76.67,328.84z"/>
			</g>
			<path style="fill:#78ACEA;" d="M182.76,235.34H72.27c-3.12,0-5.66-2.53-5.66-5.66v0c0-3.12,2.53-5.66,5.66-5.66h110.49
				c3.12,0,5.66,2.53,5.66,5.66v0C188.42,232.81,185.88,235.34,182.76,235.34z"/>
		</g>
	</g>
</g>
<g>
	<rect x="30.54" y="-548.51" style="fill:#F47322;" width="110.9" height="93.67"/>
	<rect x="168.23" y="-548.51" style="fill:#DE2C38;" width="110.9" height="93.67"/>
	<rect x="305.91" y="-548.51" style="fill:#F78F1E;" width="110.9" height="93.67"/>
	<rect x="441.72" y="-548.51" style="fill:#4BC2C0;" width="110.9" height="93.67"/>
	<rect x="583.34" y="-548.51" style="fill:#B93F7A;" width="110.9" height="93.67"/>
	<rect x="30.54" y="-444.73" style="fill:#422C6C;" width="110.9" height="93.67"/>
	<rect x="168.23" y="-440.24" style="fill:#0F5BA7;" width="110.9" height="93.67"/>
	<rect x="305.91" y="-440.24" style="fill:#26C4CF;" width="110.9" height="93.67"/>
</g>
</svg>
