<?xml version="1.0" encoding="utf-8"?>
<!-- Generator: Adobe Illustrator 26.3.1, SVG Export Plug-In . SVG Version: 6.00 Build 0)  -->
<svg version="1.1" id="Layer_1" xmlns="http://www.w3.org/2000/svg" xmlns:xlink="http://www.w3.org/1999/xlink" x="0px" y="0px"
	 viewBox="0 0 284.6 280.4" style="enable-background:new 0 0 284.6 280.4;" xml:space="preserve">
<style type="text/css">
	.st0{enable-background:new    ;}
	.st1{fill:#3FC0CE;}
	.st2{fill:#0F5DA8;}
	.st3{fill:#1478C9;}
	.st4{fill:#2A94DB;}
	.st5{opacity:0.5;fill:#34E8E8;enable-background:new    ;}
	.st6{opacity:0.4;fill:#26C4CD;enable-background:new    ;}
	.st7{fill:#26C4CD;enable-background:new    ;}
	.st8{fill:#26C4CD;}
	.st9{fill:#34E8E8;}
	.st10{fill:url(#XMLID_00000052102424781894877270000005161934623684004489_);}
	.st11{fill:url(#XMLID_00000145739582561421987310000011304696667620759732_);}
	.st12{opacity:0.7;fill:#0F5DA8;}
	.st13{opacity:0.7;fill:url(#XMLID_00000166667170334135937070000008253749222621510587_);enable-background:new    ;}
	.st14{opacity:0.7;fill:url(#XMLID_00000120540236317316131100000015561648913703532471_);enable-background:new    ;}
	.st15{opacity:0.7;fill:#0F5DA8;enable-background:new    ;}
</style>
<g>
	<g id="_x36__1_" class="st0">
		<g>
			<g id="XMLID_00000013879465823879454600000011003228816718938021_">
				<path id="XMLID_00000115505279064595281100000017280925051732469131_" class="st1" d="M120.3,176.6L0,106l2.7-1.5
					c1.4-0.8,33.3-18.4,35.8-19.6l1.6,3.2c-1.8,0.9-20.9,11.4-32.9,18l114.9,67.4L120.3,176.6z"/>
			</g>
			<g id="XMLID_00000057144174478329606450000012012188260928652719_">
				<path id="XMLID_00000051376103451762460750000018267024183367727544_" class="st1" d="M163.3,178.4l-1.8-3.1l115.9-67.9
					c-8-4.4-30.7-16.9-32.9-18.1l1.8-3.1c2.5,1.4,35.3,19.4,35.6,19.6l2.8,1.5L163.3,178.4z"/>
			</g>
			<g id="XMLID_00000159453323421476946100000012838323862476996488_">
				
					<rect id="XMLID_00000124871156481740972790000017370916113602396345_" x="21.7" y="218.6" transform="matrix(0.8629 -0.5054 0.5054 0.8629 -99.8723 72.6594)" class="st1" width="124.5" height="3.6"/>
			</g>
			<g id="XMLID_00000013886397480916504290000003274349111636416940_">
				
					<rect id="XMLID_00000021110004117055839850000005681125629027330964_" x="197.1" y="166.7" transform="matrix(0.5045 -0.8634 0.8634 0.5045 -94.1371 282.3589)" class="st1" width="3.6" height="113"/>
			</g>
		</g>
	</g>
	<g id="_x35__2_">
		<g id="_x32__5_">
			<g id="XMLID_544_">
				<g id="XMLID_553_">
					<path id="XMLID_555_" class="st2" d="M57.1,86.4L57,63.8L9.5,62.9L9.6,85c-0.2,0.5,0,1,0.7,1.4l21.6,12.7
						c1.1,0.7,3.1,0.6,4.4-0.1L56,87.9C56.8,87.5,57.1,86.9,57.1,86.4z"/>
					<path id="XMLID_554_" class="st3" d="M31.7,76.4L10.2,63.7c-1.1-0.7-1-1.8,0.3-2.5L30.3,50c1.3-0.7,3.3-0.8,4.4-0.1l21.6,12.7
						c1.1,0.7,1,1.8-0.3,2.5L36.1,76.3C34.8,77,32.8,77.1,31.7,76.4z"/>
				</g>
				<g id="XMLID_548_">
					<path id="XMLID_552_" class="st2" d="M57.1,58v-9.7l-16-0.4l-6.3-3.7c-1.1-0.7-3.1-0.6-4.4,0.1l-5.7,3.2L9.5,47.2V57
						c0,0.4,0.3,0.8,0.7,1.1l21.6,12.7c1.1,0.7,3.1,0.6,4.4-0.1L56,59.5C56.8,59.1,57.1,58.5,57.1,58z"/>
					<path id="XMLID_551_" class="st4" d="M31.8,61L10.3,48.3c-1.1-0.7-1-1.8,0.3-2.5l19.8-11.2c1.3-0.7,3.3-0.8,4.4-0.1l21.6,12.7
						c1.1,0.7,1,1.8-0.3,2.5L36.2,60.9C34.9,61.6,32.9,61.7,31.8,61z"/>
					<path id="XMLID_550_" class="st3" d="M32.5,55.7l-13.2-7.8c-0.7-0.4-0.6-1.1,0.2-1.6l12.1-6.8c0.8-0.5,2-0.5,2.7-0.1l13.2,7.8
						c0.7,0.4,0.6,1.1-0.2,1.6l-12.1,6.8C34.4,56,33.2,56.1,32.5,55.7z"/>
					<path id="XMLID_549_" class="st2" d="M19.3,47.9l2.2,1.3l10.1-5.7c0.8-0.5,2-0.5,2.7-0.1l11,6.5l2-1.1c0.8-0.5,0.9-1.1,0.2-1.6
						l-13.2-7.8c-0.7-0.4-1.9-0.4-2.7,0.1l-12.1,6.8C18.7,46.8,18.6,47.5,19.3,47.9z"/>
				</g>
				<path id="XMLID_547_" class="st5" d="M31.8,47.5L10.3,34.8c-1.1-0.7-1-1.8,0.3-2.5l19.8-11.2c1.3-0.7,3.3-0.8,4.4-0.1l21.6,12.7
					c1.1,0.7,1,1.8-0.3,2.5L36.2,47.4C34.9,48.1,32.9,48.2,31.8,47.5z"/>
				<path id="XMLID_546_" class="st6" d="M56,36.2L36.2,47.4c-1.3,0.7-3.3,0.8-4.4,0.1L10.3,34.8c-0.5-0.3-0.7-0.7-0.7-1l0,13.6
					c0,0.4,0.3,0.8,0.7,1.1l21.6,12.7c1.1,0.7,3.1,0.6,4.4-0.1L56,49.9c0.8-0.4,1.1-1,1.1-1.5l0-13.6C57.1,35.3,56.7,35.8,56,36.2z"
					/>
				<path id="XMLID_545_" class="st6" d="M56,36.2L36.2,47.4c-1.3,0.7-3.3,0.8-4.4,0.1L10.3,34.8c-0.5-0.3-0.7-0.7-0.7-1l0,13.6
					c0,0.4,0.3,0.8,0.7,1.1l21.6,12.7c1.1,0.7,3.1,0.6,4.4-0.1L56,49.9c0.8-0.4,1.1-1,1.1-1.5l0-13.6C57.1,35.3,56.7,35.8,56,36.2z"
					/>
			</g>
		</g>
		<g id="XMLID_598_">
			<g id="XMLID_603_">
				<polygon id="XMLID_793_" class="st7" points="48.1,91.8 55.3,87.7 62.4,91.9 55.3,96 				"/>
				<polygon id="XMLID_792_" class="st2" points="55.3,109.2 55.3,96 62.4,91.9 62.4,105.1 				"/>
				<polygon id="XMLID_604_" class="st3" points="48.1,91.8 48.1,105 55.3,109.2 55.3,96 				"/>
			</g>
			<g id="XMLID_599_">
				<polygon id="XMLID_602_" class="st7" points="48.1,84.4 55.3,80.3 62.4,84.5 55.3,88.6 				"/>
				<polygon id="XMLID_601_" class="st3" points="55.3,92.5 55.3,88.6 62.4,84.5 62.4,88.4 				"/>
				<polygon id="XMLID_600_" class="st3" points="48.1,84.4 48.1,88.3 55.3,92.5 55.3,88.6 				"/>
			</g>
		</g>
	</g>
	<g id="_x34__1_">
		<g id="_x32__7_">
			<g id="XMLID_710_">
				<g id="XMLID_719_">
					<path id="XMLID_721_" class="st2" d="M272,86.5l-0.1-22.7L224,62.8l0.1,22.3c-0.2,0.5,0,1.1,0.7,1.4l21.7,12.8
						c1.1,0.7,3.1,0.6,4.4-0.1l20-11.2C271.7,87.6,272.1,87,272,86.5z"/>
					<path id="XMLID_720_" class="st3" d="M246.4,76.4l-21.7-12.8c-1.1-0.7-1-1.8,0.3-2.5l20-11.2c1.3-0.7,3.3-0.8,4.4-0.1
						l21.7,12.8c1.1,0.7,1,1.8-0.3,2.5l-20,11.2C249.5,77,247.6,77.1,246.4,76.4z"/>
				</g>
				<g id="XMLID_714_">
					<path id="XMLID_718_" class="st2" d="M272,57.9v-9.8l-16.1-0.4l-6.4-3.8c-1.1-0.7-3.1-0.6-4.4,0.1l-5.8,3.3L224.1,47v9.8
						c0,0.4,0.3,0.8,0.8,1.1l21.7,12.8c1.1,0.7,3.1,0.6,4.4-0.1l20-11.2C271.7,58.9,272.1,58.4,272,57.9z"/>
					<path id="XMLID_717_" class="st4" d="M246.6,60.9l-21.7-12.8c-1.1-0.7-1-1.8,0.3-2.5l20-11.2c1.3-0.7,3.3-0.8,4.4-0.1L271.3,47
						c1.1,0.7,1,1.8-0.3,2.5l-20,11.2C249.7,61.5,247.7,61.6,246.6,60.9z"/>
					<path id="XMLID_716_" class="st3" d="M247.2,55.5l-13.3-7.9c-0.7-0.4-0.6-1.1,0.2-1.6l12.2-6.9c0.8-0.5,2-0.5,2.7-0.1l13.3,7.9
						c0.7,0.4,0.6,1.1-0.2,1.6L250,55.4C249.1,55.9,247.9,55.9,247.2,55.5z"/>
					<path id="XMLID_715_" class="st2" d="M233.9,47.6l2.2,1.3l10.2-5.8c0.8-0.5,2-0.5,2.7-0.1l11.1,6.6l2-1.1
						c0.8-0.5,0.9-1.2,0.2-1.6l-13.3-7.9c-0.7-0.4-1.9-0.4-2.7,0.1l-12.2,6.9C233.3,46.5,233.2,47.2,233.9,47.6z"/>
				</g>
				<path id="XMLID_713_" class="st5" d="M246.6,47.3l-21.7-12.8c-1.1-0.7-1-1.8,0.3-2.6l20-11.2c1.3-0.7,3.3-0.8,4.4-0.1l21.7,12.8
					c1.1,0.7,1,1.8-0.3,2.5l-20,11.2C249.7,47.9,247.7,47.9,246.6,47.3z"/>
				<path id="XMLID_712_" class="st6" d="M270.9,35.9l-20,11.2c-1.3,0.7-3.3,0.8-4.4,0.1l-21.7-12.8c-0.5-0.3-0.7-0.7-0.8-1l0,13.7
					c0,0.4,0.3,0.8,0.8,1.1l21.7,12.8c1.1,0.7,3.1,0.6,4.4-0.1l20-11.2c0.8-0.4,1.1-1,1.1-1.5l0-13.7C272,35,271.7,35.5,270.9,35.9z
					"/>
				<path id="XMLID_711_" class="st6" d="M270.9,35.9l-20,11.2c-1.3,0.7-3.3,0.8-4.4,0.1l-21.7-12.8c-0.5-0.3-0.7-0.7-0.8-1l0,13.7
					c0,0.4,0.3,0.8,0.8,1.1l21.7,12.8c1.1,0.7,3.1,0.6,4.4-0.1l20-11.2c0.8-0.4,1.1-1,1.1-1.5l0-13.7C272,35,271.7,35.5,270.9,35.9z
					"/>
			</g>
		</g>
		<g id="XMLID_701_">
			<g id="XMLID_706_">
				<polygon id="XMLID_709_" class="st7" points="217.1,87.9 224,83.9 230.8,87.9 224,91.9 				"/>
				<polygon id="XMLID_708_" class="st2" points="224,109.7 224,91.9 230.8,87.9 230.8,105.8 				"/>
				<polygon id="XMLID_707_" class="st3" points="217.1,87.9 217.1,105.7 224,109.7 224,91.9 				"/>
			</g>
			<g id="XMLID_702_">
				<polygon id="XMLID_705_" class="st7" points="217.1,80.8 224,76.9 230.8,80.9 224,84.8 				"/>
				<polygon id="XMLID_704_" class="st3" points="224,88.5 224,84.8 230.8,80.9 230.8,84.6 				"/>
				<polygon id="XMLID_703_" class="st3" points="217.1,80.8 217.1,84.5 224,88.5 224,84.8 				"/>
			</g>
		</g>
	</g>
	<g id="_x33_">
		<g id="_x32__6_">
			<g id="XMLID_640_">
				<g id="XMLID_649_">
					<path id="XMLID_651_" class="st2" d="M55.2,255.5l-0.1-22.5L7.6,232l0.1,22.1c-0.2,0.5,0,1,0.7,1.4L30,268.3
						c1.1,0.7,3.1,0.6,4.4-0.1L54.1,257C54.9,256.6,55.3,256,55.2,255.5z"/>
					<path id="XMLID_650_" class="st3" d="M29.8,245.5L8.3,232.8c-1.1-0.7-1-1.8,0.3-2.5l19.8-11.2c1.3-0.7,3.3-0.8,4.4-0.1
						l21.6,12.7c1.1,0.7,1,1.8-0.3,2.5l-19.8,11.2C32.9,246.1,31,246.2,29.8,245.5z"/>
				</g>
				<g id="XMLID_644_">
					<path id="XMLID_648_" class="st2" d="M55.2,227.1v-9.7l-16-0.4l-6.3-3.7c-1.1-0.7-3.1-0.6-4.4,0.1l-5.7,3.2l-15.2-0.3v9.7
						c0,0.4,0.3,0.8,0.7,1.1L30,239.9c1.1,0.7,3.1,0.6,4.4-0.1l19.8-11.2C54.9,228.1,55.3,227.6,55.2,227.1z"/>
					<path id="XMLID_647_" class="st4" d="M30,230.1L8.4,217.4c-1.1-0.7-1-1.8,0.3-2.5l19.8-11.2c1.3-0.7,3.3-0.8,4.4-0.1l21.6,12.7
						c1.1,0.7,1,1.8-0.3,2.5L34.3,230C33,230.7,31.1,230.8,30,230.1z"/>
					<path id="XMLID_646_" class="st3" d="M30.6,224.7l-13.2-7.8c-0.7-0.4-0.6-1.1,0.2-1.6l12.1-6.8c0.8-0.5,2-0.5,2.7-0.1l13.2,7.8
						c0.7,0.4,0.6,1.1-0.2,1.6l-12.1,6.8C32.5,225.1,31.3,225.1,30.6,224.7z"/>
					<path id="XMLID_645_" class="st2" d="M17.4,216.9l2.2,1.3l10.1-5.7c0.8-0.5,2-0.5,2.7-0.1l11,6.5l2-1.1
						c0.8-0.5,0.9-1.1,0.2-1.6l-13.2-7.8c-0.7-0.4-1.9-0.4-2.7,0.1l-12.1,6.8C16.9,215.8,16.8,216.5,17.4,216.9z"/>
				</g>
				<g>
					<path id="XMLID_643_" class="st5" d="M30,216.6L8.4,203.8c-1.1-0.7-1-1.8,0.3-2.5l19.8-11.2c1.3-0.7,3.3-0.8,4.4-0.1l21.6,12.7
						c1.1,0.7,1,1.8-0.3,2.5l-19.8,11.2C33,217.2,31.1,217.2,30,216.6z"/>
					<path id="XMLID_642_" class="st6" d="M54.1,205.3l-19.8,11.2c-1.3,0.7-3.3,0.8-4.4,0.1L8.4,203.8c-0.5-0.3-0.7-0.7-0.7-1
						l0,13.6c0,0.4,0.3,0.8,0.7,1.1L30,230.2c1.1,0.7,3.1,0.6,4.4-0.1l19.8-11.2c0.8-0.4,1.1-1,1.1-1.5l0-13.6
						C55.2,204.4,54.9,204.9,54.1,205.3z"/>
					<path id="XMLID_641_" class="st6" d="M54.1,205.3l-19.8,11.2c-1.3,0.7-3.3,0.8-4.4,0.1L8.4,203.8c-0.5-0.3-0.7-0.7-0.7-1
						l0,13.6c0,0.4,0.3,0.8,0.7,1.1L30,230.2c1.1,0.7,3.1,0.6,4.4-0.1l19.8-11.2c0.8-0.4,1.1-1,1.1-1.5l0-13.6
						C55.2,204.4,54.9,204.9,54.1,205.3z"/>
				</g>
			</g>
		</g>
		<g id="XMLID_631_">
			<g id="XMLID_636_">
				<polygon id="XMLID_639_" class="st7" points="46.2,260.9 53.4,256.8 60.5,261 53.4,265.1 				"/>
				<polygon id="XMLID_638_" class="st2" points="53.4,278.3 53.4,265.1 60.5,261 60.5,274.2 				"/>
				<polygon id="XMLID_637_" class="st3" points="46.2,260.9 46.2,274.1 53.4,278.3 53.4,265.1 				"/>
			</g>
			<g id="XMLID_632_">
				<polygon id="XMLID_635_" class="st7" points="46.2,253.5 53.4,249.4 60.5,253.6 53.4,257.7 				"/>
				<polygon id="XMLID_634_" class="st3" points="53.4,261.6 53.4,257.7 60.5,253.6 60.5,257.4 				"/>
				<polygon id="XMLID_633_" class="st3" points="46.2,253.5 46.2,257.3 53.4,261.6 53.4,257.7 				"/>
			</g>
		</g>
	</g>
	<g id="_x32__1_">
		<g id="_x32_">
			<g id="XMLID_275_">
				<g id="XMLID_325_">
					<path id="XMLID_327_" class="st2" d="M270.1,257.2l-0.1-22.7l-47.9-0.9l0.1,22.3c-0.2,0.5,0,1.1,0.7,1.4l21.7,12.8
						c1.1,0.7,3.1,0.6,4.4-0.1l20-11.2C269.8,258.3,270.2,257.7,270.1,257.2z"/>
					<path id="XMLID_326_" class="st3" d="M244.6,247.1l-21.7-12.8c-1.1-0.7-1-1.8,0.3-2.5l20-11.2c1.3-0.7,3.3-0.8,4.4-0.1
						l21.7,12.8c1.1,0.7,1,1.8-0.3,2.5L249,247C247.7,247.7,245.7,247.8,244.6,247.1z"/>
				</g>
				<g id="XMLID_320_">
					<path id="XMLID_324_" class="st2" d="M270.1,228.6v-9.8l-16.1-0.4l-6.4-3.8c-1.1-0.7-3.1-0.6-4.4,0.1l-5.8,3.3l-15.3-0.3v9.8
						c0,0.4,0.3,0.8,0.8,1.1l21.7,12.8c1.1,0.7,3.1,0.6,4.4-0.1l20-11.2C269.8,229.6,270.2,229.1,270.1,228.6z"/>
					<path id="XMLID_323_" class="st4" d="M244.7,231.6l-21.7-12.8c-1.1-0.7-1-1.8,0.3-2.5l20-11.2c1.3-0.7,3.3-0.8,4.4-0.1
						l21.7,12.8c1.1,0.7,1,1.8-0.3,2.5l-20,11.2C247.8,232.2,245.8,232.3,244.7,231.6z"/>
					<path id="XMLID_322_" class="st3" d="M245.4,226.2l-13.3-7.9c-0.7-0.4-0.6-1.1,0.2-1.6l12.2-6.9c0.8-0.5,2-0.5,2.7-0.1
						l13.3,7.9c0.7,0.4,0.6,1.1-0.2,1.6l-12.2,6.9C247.3,226.6,246.1,226.6,245.4,226.2z"/>
					<path id="XMLID_321_" class="st2" d="M232.1,218.3l2.2,1.3l10.2-5.8c0.8-0.5,2-0.5,2.7-0.1l11.1,6.6l2-1.1
						c0.8-0.5,0.9-1.2,0.2-1.6l-13.3-7.9c-0.7-0.4-1.9-0.4-2.7,0.1l-12.2,6.9C231.5,217.2,231.4,217.9,232.1,218.3z"/>
				</g>
				<path id="XMLID_319_" class="st5" d="M244.7,218l-21.7-12.8c-1.1-0.7-1-1.8,0.3-2.6l20-11.2c1.3-0.7,3.3-0.8,4.4-0.1l21.7,12.8
					c1.1,0.7,1,1.8-0.3,2.5l-20,11.2C247.8,218.6,245.8,218.6,244.7,218z"/>
				<path id="XMLID_318_" class="st6" d="M269.1,206.6l-20,11.2c-1.3,0.7-3.3,0.8-4.4,0.1l-21.7-12.8c-0.5-0.3-0.7-0.7-0.8-1l0,13.7
					c0,0.4,0.3,0.8,0.8,1.1l21.7,12.8c1.1,0.7,3.1,0.6,4.4-0.1l20-11.2c0.8-0.4,1.1-1,1.1-1.5l0-13.7
					C270.1,205.7,269.8,206.2,269.1,206.6z"/>
				<path id="XMLID_317_" class="st6" d="M269.1,206.6l-20,11.2c-1.3,0.7-3.3,0.8-4.4,0.1l-21.7-12.8c-0.5-0.3-0.7-0.7-0.8-1l0,13.7
					c0,0.4,0.3,0.8,0.8,1.1l21.7,12.8c1.1,0.7,3.1,0.6,4.4-0.1l20-11.2c0.8-0.4,1.1-1,1.1-1.5l0-13.7
					C270.1,205.7,269.8,206.2,269.1,206.6z"/>
			</g>
		</g>
		<g id="XMLID_575_">
			<g id="XMLID_580_">
				<polygon id="XMLID_583_" class="st7" points="215.3,258.6 222.1,254.6 228.9,258.7 222.1,262.6 				"/>
				<polygon id="XMLID_582_" class="st2" points="222.1,280.4 222.1,262.6 228.9,258.7 228.9,276.5 				"/>
				<polygon id="XMLID_581_" class="st3" points="215.3,258.6 215.3,276.4 222.1,280.4 222.1,262.6 				"/>
			</g>
			<g id="XMLID_576_">
				<polygon id="XMLID_579_" class="st7" points="215.3,251.5 222.1,247.6 228.9,251.6 222.1,255.5 				"/>
				<polygon id="XMLID_578_" class="st3" points="222.1,259.2 222.1,255.5 228.9,251.6 228.9,255.3 				"/>
				<polygon id="XMLID_577_" class="st3" points="215.3,251.5 215.3,255.2 222.1,259.2 222.1,255.5 				"/>
			</g>
		</g>
	</g>
	<g id="_x35__3_">
		<g id="XMLID_371_">
			<g id="XMLID_399_">
				<path id="XMLID_401_" class="st2" d="M178.8,183.4v-75.3l-75.3-1.5v74.7c-0.3,0.8,0.1,1.7,1.1,2.3l34.2,20.2
					c1.8,1,4.9,1,6.9-0.2l31.4-17.7C178.3,185.1,178.9,184.2,178.8,183.4z"/>
				<path id="XMLID_400_" class="st3" d="M138.7,128l-34.2-20.2c-1.8-1-1.5-2.8,0.5-4l31.4-17.7c2.1-1.2,5.2-1.3,6.9-0.2l34.2,20.2
					c1.8,1,1.5,2.8-0.5,4l-31.4,17.7C143.6,129,140.5,129.1,138.7,128z"/>
			</g>
			<path id="XMLID_398_" class="st3" d="M139.8,119.5l-20.9-12.4c-1.1-0.6-0.9-1.7,0.3-2.5l19.2-10.8c1.3-0.7,3.2-0.8,4.3-0.1
				l20.9,12.4c1.1,0.6,0.9,1.7-0.3,2.5l-19.2,10.8C142.8,120.1,140.9,120.1,139.8,119.5z"/>
			<g id="XMLID_395_">
				<path id="XMLID_397_" class="st8" d="M132.8,175.8c0-1.4-0.8-3.1-1.9-3.7l-25.4-15c-0.5-0.3-0.9-0.3-1.3-0.1l0,0l0,0
					c0,0-0.1,0-0.2,0.1l-6.3,3.8l27.7,20.4l6.4-3.8c0.1,0,0.3-0.1,0.4-0.2l0,0l0,0C132.6,176.9,132.8,176.4,132.8,175.8z"/>
				<path id="XMLID_396_" class="st9" d="M124.4,181.1l-25.4-15c-1.1-0.6-1.9-2.3-1.9-3.7l0,0c0-1.4,0.9-2,2-1.4l25.4,15
					c1.1,0.6,1.9,2.3,1.9,3.7l0,0C126.3,181.1,125.4,181.7,124.4,181.1z"/>
			</g>
			<g id="XMLID_392_">
				<path id="XMLID_394_" class="st8" d="M132.8,164.6c0-1.4-0.8-3.1-1.9-3.7l-25.4-15c-0.5-0.3-0.9-0.3-1.3-0.1l0,0l0,0
					c0,0-0.1,0-0.2,0.1l-6.3,3.8l27.7,20.4l6.4-3.8c0.1,0,0.3-0.1,0.4-0.2l0,0l0,0C132.6,165.7,132.8,165.2,132.8,164.6z"/>
				<path id="XMLID_393_" class="st9" d="M124.3,169.9l-25.4-15c-1.1-0.6-1.9-2.3-1.9-3.7l0,0c0-1.4,0.9-2,2-1.4l25.4,15
					c1.1,0.6,1.9,2.3,1.9,3.7l0,0C126.3,169.9,125.4,170.5,124.3,169.9z"/>
			</g>
			<g id="XMLID_389_">
				<path id="XMLID_391_" class="st8" d="M132.9,153.4c0-1.4-0.8-3.1-1.9-3.7l-25.4-15c-0.5-0.3-0.9-0.3-1.3-0.1l0,0l0,0
					c0,0-0.1,0-0.2,0.1l-6.3,3.8l27.7,20.4l6.4-3.8c0.1,0,0.3-0.1,0.4-0.2l0,0l0,0C132.6,154.5,132.8,154.1,132.9,153.4z"/>
				<path id="XMLID_390_" class="st9" d="M124.4,158.7l-25.4-15c-1.1-0.6-1.9-2.3-1.9-3.7l0,0c0-1.4,0.9-2,2-1.4l25.4,15
					c1.1,0.6,1.9,2.3,1.9,3.7l0,0C126.4,158.7,125.5,159.3,124.4,158.7z"/>
			</g>
			<g id="XMLID_386_">
				<path id="XMLID_388_" class="st8" d="M132.9,142.3c0-1.4-0.8-3.1-1.9-3.7l-25.4-15c-0.5-0.3-0.9-0.3-1.3-0.1l0,0l0,0
					c0,0-0.1,0-0.2,0.1l-6.3,3.8l27.7,20.4l6.4-3.8c0.1,0,0.3-0.1,0.4-0.2l0,0l0,0C132.6,143.4,132.8,142.9,132.9,142.3z"/>
				<path id="XMLID_387_" class="st9" d="M124.4,147.5l-25.4-15c-1.1-0.6-1.9-2.3-1.9-3.7l0,0c0-1.4,0.9-2,2-1.4l25.4,15
					c1.1,0.6,1.9,2.3,1.9,3.7l0,0C126.4,147.5,125.5,148.1,124.4,147.5z"/>
			</g>
			<path id="XMLID_385_" class="st2" d="M118.9,107.1l3.5,2.1l16.1-9.1c1.3-0.7,3.2-0.8,4.3-0.1l17.4,10.3l3.2-1.8
				c1.3-0.7,1.4-1.8,0.3-2.5l-20.9-12.4c-1.1-0.6-3-0.6-4.3,0.1l-19.2,10.8C117.9,105.4,117.8,106.5,118.9,107.1z"/>
			<g id="XMLID_372_">
				<g id="XMLID_373_">
					<polygon id="XMLID_384_" class="st9" points="173.4,128.6 149.6,142.4 149.6,138.7 173.4,124.9 					"/>
					<polygon id="XMLID_383_" class="st9" points="173.4,135.7 166.1,140 166.1,136.3 173.4,132 					"/>
					<polygon id="XMLID_382_" class="st9" points="163.3,141.6 149.6,149.5 149.6,145.8 163.3,137.9 					"/>
					<polygon id="XMLID_381_" class="st9" points="173.4,142.6 156.4,152.4 156.4,148.7 173.4,138.9 					"/>
					<polygon id="XMLID_380_" class="st9" points="153.6,154 149.6,156.3 149.6,152.6 153.6,150.3 					"/>
					<polygon id="XMLID_379_" class="st9" points="173.4,149.7 149.6,163.5 149.6,159.8 173.4,146 					"/>
					<polygon id="XMLID_378_" class="st9" points="173.4,156.9 166.1,161.1 166.1,157.4 173.4,153.2 					"/>
					<polygon id="XMLID_377_" class="st9" points="163.3,162.7 149.6,170.6 149.6,166.9 163.3,159 					"/>
					<polygon id="XMLID_376_" class="st9" points="173.4,163.7 156.4,173.5 156.4,169.8 173.4,160 					"/>
					<polygon id="XMLID_375_" class="st9" points="153.6,175.1 149.6,177.5 149.6,173.8 153.6,171.4 					"/>
					<polygon id="XMLID_374_" class="st9" points="173.4,170.5 149.6,184.3 149.6,180.6 173.4,166.8 					"/>
				</g>
			</g>
		</g>
	</g>
	<g id="XMLID_794_">
		<g id="XMLID_592_">
			<polygon id="XMLID_855_" class="st7" points="129.7,208.4 139,203 148.3,208.5 139,213.8 			"/>
			<polygon id="XMLID_854_" class="st2" points="139,238.2 139,213.8 148.3,208.5 148.3,232.9 			"/>
			<polygon id="XMLID_593_" class="st3" points="129.7,208.4 129.7,232.8 139,238.2 139,213.8 			"/>
		</g>
		<g id="XMLID_588_">
			<polygon id="XMLID_591_" class="st7" points="129.7,194.8 139,189.5 148.3,195 139,200.3 			"/>
			<polygon id="XMLID_590_" class="st3" points="139,208.8 139,200.3 148.3,195 148.3,203.5 			"/>
			<polygon id="XMLID_589_" class="st3" points="129.7,194.8 129.7,203.3 139,208.8 139,200.3 			"/>
		</g>
		<g id="XMLID_795_">
			<polygon id="XMLID_804_" class="st7" points="129.7,185.3 139,179.9 148.3,185.4 139,190.7 			"/>
			<polygon id="XMLID_803_" class="st3" points="139,195.7 139,190.7 148.3,185.4 148.3,190.4 			"/>
			<polygon id="XMLID_796_" class="st3" points="129.7,185.3 129.7,190.3 139,195.7 139,190.7 			"/>
		</g>
	</g>
	
		<linearGradient id="XMLID_00000015348448497351665620000006099665009314545058_" gradientUnits="userSpaceOnUse" x1="2484.8557" y1="197.8936" x2="2484.8557" y2="233.8482" gradientTransform="matrix(-1.0015 0 0 -1 2629.2878 279.8633)">
		<stop  offset="0" style="stop-color:#4FA4FF"/>
		<stop  offset="1" style="stop-color:#1339E2"/>
	</linearGradient>
	<polygon id="XMLID_496_" style="fill:url(#XMLID_00000015348448497351665620000006099665009314545058_);" points="171.6,64 
		140.7,82 109.9,64 140.7,46 	"/>
	
		<linearGradient id="XMLID_00000018915652560111716110000002233012488995913396_" gradientUnits="userSpaceOnUse" x1="2484.8557" y1="203.6793" x2="2484.8557" y2="239.6338" gradientTransform="matrix(-1.0015 0 0 -1 2629.2878 279.8633)">
		<stop  offset="0" style="stop-color:#4F81FF"/>
		<stop  offset="1" style="stop-color:#1339E2"/>
	</linearGradient>
	<polygon id="XMLID_495_" style="fill:url(#XMLID_00000018915652560111716110000002233012488995913396_);" points="171.6,58.2 
		140.7,76.2 109.9,58.2 140.7,40.2 	"/>
	<g>
		<polygon id="XMLID_494_" class="st12" points="171.6,58.3 140.7,0 140.7,76.3 		"/>
		<polygon id="XMLID_493_" class="st12" points="109.9,58.9 140.7,0.6 140.7,76.9 		"/>
	</g>
	
		<linearGradient id="XMLID_00000026134903755022731640000015591180381450761644_" gradientUnits="userSpaceOnUse" x1="2490.9773" y1="178.2381" x2="2456.5776" y2="206.0705" gradientTransform="matrix(-1.0015 0 0 -1 2629.2878 279.8633)">
		<stop  offset="0" style="stop-color:#4F24FF"/>
		<stop  offset="1" style="stop-color:#00FFE2"/>
	</linearGradient>
	
		<polygon id="XMLID_492_" style="opacity:0.7;fill:url(#XMLID_00000026134903755022731640000015591180381450761644_);enable-background:new    ;" points="
		171.6,64 140.7,111.4 140.7,82 	"/>
	
		<linearGradient id="XMLID_00000149384007021441469630000016962640544926445954_" gradientUnits="userSpaceOnUse" x1="2511.4146" y1="181.9589" x2="2490.9312" y2="200.7224" gradientTransform="matrix(-1.0015 0 0 -1 2629.2878 279.8633)">
		<stop  offset="0" style="stop-color:#4F24FF"/>
		<stop  offset="1" style="stop-color:#00FFE2"/>
	</linearGradient>
	
		<polygon id="XMLID_491_" style="opacity:0.7;fill:url(#XMLID_00000149384007021441469630000016962640544926445954_);enable-background:new    ;" points="
		109.9,64 140.7,111.4 140.7,82 	"/>
	<polygon id="XMLID_489_" class="st7" points="171.6,64.3 140.7,82.3 109.9,64.3 140.7,46.3 	"/>
	<polygon id="XMLID_488_" class="st3" points="171.6,58.5 140.7,76.5 109.9,58.5 140.7,40.5 	"/>
	<g>
		<polygon id="XMLID_487_" class="st15" points="171.6,58.6 140.7,0.3 140.7,76.6 		"/>
		<polygon id="XMLID_486_" class="st15" points="109.9,58.6 140.7,0.3 140.7,76.6 		"/>
	</g>
	<polygon id="XMLID_485_" class="st15" points="171.6,64.3 140.7,111.7 140.7,82.3 	"/>
	<polygon id="XMLID_484_" class="st15" points="109.9,64.3 140.7,111.7 140.7,82.3 	"/>
</g>
</svg>
