<?xml version="1.0" encoding="utf-8"?>
<!-- Generator: Adobe Illustrator 26.3.1, SVG Export Plug-In . SVG Version: 6.00 Build 0)  -->
<svg version="1.1" id="Слой_1" xmlns="http://www.w3.org/2000/svg" xmlns:xlink="http://www.w3.org/1999/xlink" x="0px" y="0px"
	 viewBox="0 0 540.87 354.35" style="enable-background:new 0 0 540.87 354.35;" xml:space="preserve">
<g>
	<defs>
		<filter id="Adobe_OpacityMaskFilter" filterUnits="userSpaceOnUse" x="342.1" y="342.76" width="192.29" height="11.59">
			<feFlood  style="flood-color:white;flood-opacity:1" result="back"/>
			<feBlend  in="SourceGraphic" in2="back" mode="normal"/>
		</filter>
	</defs>
	<mask maskUnits="userSpaceOnUse" x="342.1" y="342.76" width="192.29" height="11.59" id="SVGID_1_">
		<g style="filter:url(#Adobe_OpacityMaskFilter);">
			<defs>
				
					<filter id="Adobe_OpacityMaskFilter_00000119829919893549081320000004553547009323469209_" filterUnits="userSpaceOnUse" x="342.1" y="342.76" width="192.29" height="11.59">
					<feFlood  style="flood-color:white;flood-opacity:1" result="back"/>
					<feBlend  in="SourceGraphic" in2="back" mode="normal"/>
				</filter>
			</defs>
			<mask maskUnits="userSpaceOnUse" x="342.1" y="342.76" width="192.29" height="11.59" id="SVGID_1_">
				<g style="filter:url(#Adobe_OpacityMaskFilter_00000119829919893549081320000004553547009323469209_);">
				</g>
			</mask>
			
				<linearGradient id="SVGID_00000148653273776053231160000004084351966733149594_" gradientUnits="userSpaceOnUse" x1="457.1726" y1="381.0716" x2="420.2613" y2="317.6465">
				<stop  offset="0" style="stop-color:#000000"/>
				<stop  offset="0.6943" style="stop-color:#FFFFFF"/>
			</linearGradient>
			<path style="mask:url(#SVGID_1_);fill:url(#SVGID_00000148653273776053231160000004084351966733149594_);" d="M534.39,348.55
				c0,3.2-43.04,5.79-96.14,5.79c-53.1,0-96.14-2.59-96.14-5.79s43.05-5.8,96.14-5.8C491.35,342.76,534.39,345.35,534.39,348.55z"/>
		</g>
	</mask>
	
		<linearGradient id="SVGID_00000022523210692092519940000017053744034140475537_" gradientUnits="userSpaceOnUse" x1="457.1726" y1="381.0716" x2="420.2613" y2="317.6465">
		<stop  offset="0" style="stop-color:#97CBEC"/>
		<stop  offset="0.6943" style="stop-color:#CCC2F5"/>
	</linearGradient>
	<path style="opacity:0.72;fill:url(#SVGID_00000022523210692092519940000017053744034140475537_);" d="M534.39,348.55
		c0,3.2-43.04,5.79-96.14,5.79c-53.1,0-96.14-2.59-96.14-5.79s43.05-5.8,96.14-5.8C491.35,342.76,534.39,345.35,534.39,348.55z"/>
	<g>
		<path style="fill:#4A3E46;" d="M463.38,336.81c0,1.35,1.1,2.44,2.44,2.44c1.35,0,2.45-1.09,2.45-2.44c0-1.35-1.09-2.44-2.45-2.44
			C464.47,334.37,463.38,335.46,463.38,336.81z"/>
		<polygon style="fill:#4A3E46;" points="518.41,334.39 517.79,336.13 491.64,328.03 492.89,324.5 		"/>
		
			<rect x="490.74" y="295.22" transform="matrix(-1 -1.224647e-16 1.224647e-16 -1 984.4562 622.0075)" style="fill:#4A3E46;" width="2.97" height="31.57"/>
		<polygon style="fill:#4A3E46;" points="465.82,334.39 466.44,336.13 492.59,328.03 491.44,324.28 		"/>
		<polygon style="fill:#4A3E46;" points="484.24,335.94 484.24,337.97 492.59,328.03 491.44,324.28 		"/>
		<path style="fill:#4A3E46;" d="M484.04,336.81c0,1.35,1.1,2.44,2.44,2.44c1.35,0,2.44-1.09,2.44-2.44c0-1.35-1.09-2.44-2.44-2.44
			C485.13,334.37,484.04,335.46,484.04,336.81z"/>
		<path style="fill:#B07042;" d="M454.92,328.31c0,0-0.03,1.66-0.57,3.59c-0.4,1.42-1.19,6.9-2.2,7.67c-1.01,0.77-4.28,2.8-3.8,4.89
			c0.48,2.09,0.89,3.54,4.41,2.31c3.52-1.24,5.88-1.94,6.56-5.04c0.68-3.09,2.6-5.91,2.6-5.91l2.55,6.34l1.34-0.54
			c0,0-2.03-6.84-1.85-7.45c0.17-0.61-0.93-6.05-5.19-7.39C454.51,325.42,454.92,328.31,454.92,328.31z"/>
		<path style="fill:#B07042;" d="M431.38,330.31c0,0-0.64,1.53-1.87,3.12c-0.89,1.17-3.67,5.96-4.9,6.29
			c-1.22,0.33-5.01,1-5.35,3.12c-0.33,2.12-0.5,3.62,3.23,3.79c3.73,0.17,6.18,0.39,7.96-2.23c1.78-2.62,4.62-4.51,4.62-4.51v6.83
			h1.45c0,0,0.67-7.11,1.06-7.61c0.39-0.5,1.39-5.96-2.06-8.8C432.08,327.47,431.38,330.31,431.38,330.31z"/>
		<path style="fill:#EEA886;" d="M469.32,237.52c0,0-0.83-2.94-0.91-3.32c-0.08-0.38-0.86-1.14-1.84-1.94
			c-0.98-0.8-2.65-1.43-2.86-1.37c-0.21,0.07-0.45,0.03-0.79,0.47c-0.34,0.44-0.39,1-0.39,1s-0.67,0.35-0.68,1.04
			c0,0-0.62,0.35-0.5,1.14c0,0-0.6,0.36-0.46,0.93c0,0,0.78,0.76,0.99,1.13c0.21,0.37,1.95,1.85,3.84,3
			C465.71,239.61,468.12,241.39,469.32,237.52z"/>
		<path style="fill:#CF8C6C;" d="M465.71,235.19c0,0-0.35,1.24-0.28,1.64c0.07,0.4-2.83,0.46-2.83,0.46S464.19,234.8,465.71,235.19z
			"/>
		<path style="fill:#F68B1D;" d="M498.38,242.58c-1.17-1.9-2.74-2.75-7.7,0.68c-4.97,3.43-3.8,2.76-4.99,3.85
			c-1.19,1.09-6.4,3.81-6.4,3.81s-3.05-3.03-4.5-5.17c-1.65-2.42-5.08-8.89-5.08-8.89l-4.81,3.58c0,0,9.35,16.96,11.31,18.21
			c1.95,1.25,7.84-0.84,10.91-2.13c3.06-1.29,6.31-2.96,7.71-3.31C496.22,252.86,501.44,247.53,498.38,242.58z"/>
		
			<rect x="463.37" y="222.84" transform="matrix(0.9764 -0.216 0.216 0.9764 -38.3592 105.5761)" style="fill:#EB4747;" width="0.92" height="10.88"/>
		<path style="fill:#DB9C7C;" d="M463.97,231.09c0,0,2.43,2.08,2.14,2.51c-0.29,0.43-0.65,0.42-0.65,0.42l0.61,1.31
			c0,0-0.08,1.1-1.25,0.68c0,0,0.03,1.03-1.05,0.5c0,0-0.29,0.69-0.83,0.53c-0.54-0.16-2.05-1.56-2.05-1.56s-0.22-0.45,0.43-0.94
			c0,0-0.15-0.75,0.51-1.15c0,0-0.06-0.64,0.66-1.05c0,0,0.07-1.37,1.22-1.45C463.7,230.89,463.87,231,463.97,231.09z"/>
		<path style="fill:#EEA886;" d="M468.37,234.23c0,0-1.62-1.47-2.86-1.88c-0.28-0.09-0.57-0.13-0.76,0.09
			c-0.19,0.23-0.11,0.79,0.56,1.46c0.67,0.67,1.23,1.85,1.23,1.85S467.43,236.24,468.37,234.23z"/>
		<path style="fill:#BD7947;" d="M475.24,252.88c0,0-0.98-3.54,0.17-6.29c0,0-0.44,2.84,0.8,4.86
			C477.12,252.92,475.24,252.88,475.24,252.88z"/>
		<path style="fill:#EDDAD3;" d="M457.5,253.43c0,0-2.62-19.42-7.19-27.89h6.72c0,0,7.53,13.26,6.12,26.66L457.5,253.43z"/>
		<path style="fill:#EEA886;" d="M455.89,238.89c0,0-0.77-1.43-0.95-1.89c-0.18-0.47-0.94,0.34-0.82,0.94
			C454.23,238.54,455.89,238.89,455.89,238.89z"/>
		<path style="fill:#EEA886;" d="M449.93,242.14c0,0,0.2,0.7,0.44,0.96c0,0,0.47,0.44,0.78,0.78c0.1,0.11,0.18,0.2,0.23,0.27
			c0.2,0.28,0.56,0.96,1.23,1.5c0.67,0.54,3.23,2.21,3.23,2.21l1.81-1.93l1.45-1.5c0,0-1.23-4.6-1.79-5.18
			c-0.05-0.05-0.11-0.11-0.17-0.15c-0.53-0.44-1.1-0.55-1.4-0.75c-0.11-0.07-1.27-0.72-1.64-0.58c-0.51,0.2-0.79,0.55-0.87,0.91
			c0,0-0.99,0.43-1.32,1.08c0,0-0.93,0.37-1.11,1.29C450.8,241.05,449.9,241.53,449.93,242.14z"/>
		<path style="fill:#EEA886;" d="M438.03,292.29c0,0,4.44,9.99,7.61,17.12c0.53,1.2,1.03,2.32,1.46,3.29
			c0.51,1.15,0.93,2.09,1.22,2.75c2.02,4.54,6.98,14.44,6.98,14.44s3.73,0.14,3.95-3.03c0,0-3.58-6.87-3.58-11.7
			c0-4.83-0.65-19.05-5.26-22.12C444.79,289.29,441.14,288.58,438.03,292.29z"/>
		<path style="fill:#EEA886;" d="M479.09,273.3c0,0-0.94,0.94-1.73,1.15c-0.79,0.22-14.05,1.23-20.17,3.24
			c-6.12,2.02-14.27,3.32-15.78,5.04c-1.51,1.73-4.03,11.24-3.96,13.04c0.07,1.8-5.38,32.16-6.06,34.53
			c-0.36,1.26,4.93,0.77,4.93,0.77s7.52-17.94,9.13-21.25c2.95-6.09,3.1-13.55,4.18-14.7c1.08-1.15,13.11-3.75,20.03-3.75
			c6.92,0,22.41,0.58,24.06-0.36c1.66-0.94,12.03-7.78,7.71-16.93C497.11,264.94,479.09,273.3,479.09,273.3z"/>
		<path style="fill:#1D3B54;" d="M449.2,279.9l10.94,21.07c0,0,3.31-7.84,9.07-9.18c5.77-1.35,28.78-0.62,28.78-0.62
			s10.56-13.36,1.52-20.37c-9.04-7.01-19.61,1.1-19.61,1.1s-2.18,2.37-3.24,2.42C475.62,274.36,467.17,274.15,449.2,279.9z"/>
		<path style="fill:#EEA886;" d="M424.62,339.72c0,0,3.34,0.84,4.62,0c1.28-0.83,5.64-8.19,7.08-8.63c0,0-1.4-2.83-4.93-0.77
			C431.38,330.31,425.56,338.49,424.62,339.72z"/>
		<path style="fill:#EEA886;" d="M452.16,339.56c0,0,3.41-0.47,4.29-1.72c0.88-1.25,2.17-9.7,3.35-10.65c0,0-2.35-2.11-4.87,1.12
			C454.92,328.31,452.58,338.07,452.16,339.56z"/>
		<path style="fill:#4A3E46;" d="M515.96,336.81c0,1.35,1.09,2.44,2.44,2.44c1.35,0,2.44-1.09,2.44-2.44c0-1.35-1.09-2.44-2.44-2.44
			C517.06,334.37,515.96,335.46,515.96,336.81z"/>
		<path style="fill:#EEA886;" d="M487.01,206.98c-2.64-0.13-8.48,1.2-9.39,8.18c0,0,0.21,1.88,0.67,3.36
			c0.46,1.48-0.87,5.84-0.52,6.06c0.34,0.22,1.77,0.49,1.77,0.49s1.54,4.77,3.21,4.73c1.67-0.04,8.01-1.35,10.99-7.28
			C496.73,216.59,497.65,207.5,487.01,206.98z"/>
		<path style="fill:#EEA886;" d="M485.02,227.63c0,0,0.2,0.67,0.44,1.66c0.12,0.51,0.25,1.1,0.36,1.72
			c0.31,1.74,0.48,3.77,0.03,5.12c0,0,3.7,1.28,6.62-3.95c0,0-1.25-5.63,0.38-9.05C494.48,219.73,485.02,227.63,485.02,227.63z"/>
		<path style="fill:#1D3B54;" d="M477.63,215.17c0,0,4.04,3.63,8.32,3.34c4.35-0.29,7.16,5.14,7.16,5.14s6.46-8.11,1.25-14.67
			C489.16,202.41,476.7,207.02,477.63,215.17z"/>
		<path style="fill:#EEA886;" d="M487.92,218.48c0.03-0.82,0.94-2.06,2.29-0.93c1.34,1.12-0.47,5.03-1.57,4.65
			C487.53,221.81,487.9,219.32,487.92,218.48z"/>
		<path style="fill:#A77860;" d="M485.46,229.29c0.12,0.51,0.25,1.1,0.36,1.72c3.43-2.18,5.16-4.83,5.16-4.83
			C489.02,227.96,485.46,229.29,485.46,229.29z"/>
		<path style="fill:#F68B1D;" d="M475.43,249.26c0.78,3.61,2.83,3.8,2.7,6.47c-0.12,2.67-0.92,2.89,0.46,7.1
			c0.25,0.78,0.46,1.62,0.63,2.49c0.02,0.1,0.04,0.2,0.06,0.31c0.09,0.49,0.16,0.97,0.23,1.46c0.12,0.89,0.21,1.76,0.27,2.56
			c0.16,2.07-1.36,3.68-1.36,3.68s13.49,8.08,22.75,6.95c0,0-2.4-10.08-3.72-13.54c-1.32-3.46-0.92-19.45,0.05-22.89
			c1.43-5.06-1.43-12.66-5.35-13.65l-6.07,2.81c0,0-6.11,7.3-7.48,8.4C477.23,242.51,474.64,245.61,475.43,249.26z"/>
		<path style="fill:#F68B1D;" d="M495.49,234.48c-1.71-1.43-4.19-3.87-7.81,0.96c-3.62,4.83-6.25,7.95-7.03,9.36
			c-0.78,1.41-7.58,11.23-7.58,11.23s-3.61-3.35-5.68-4.93c-2.33-1.77-8.68-8.39-8.68-8.39l-4.19,4.65c0,0,14.55,16.15,16.8,16.72
			c2.25,0.57,8.55-5.1,11.05-7.3c2.49-2.2,9.5-10.2,10.72-10.98C494.3,245.03,499.97,238.2,495.49,234.48z"/>
		<path style="fill:#A77860;" d="M445.64,309.41c0.53,1.2,1.03,2.32,1.46,3.29c1.64-5.25,1.5-14.03,1.5-14.03
			C447.62,304.8,445.67,309.34,445.64,309.41z"/>
		
			<rect x="469.22" y="291.16" transform="matrix(-1 -1.224647e-16 1.224647e-16 -1 985.1821 587.4626)" style="fill:#0E5BA8;" width="46.74" height="5.14"/>
		<path style="fill:#0E5BA8;" d="M491.64,274.75c0,0,1.18,4.77-4.37,5.85c-5.55,1.08-12.37,2.47-12.37,11.03h19.24L491.64,274.75z"
			/>
		<polygon style="fill:#EEA886;" points="463.11,222.87 462.31,221.41 462.21,223.07 		"/>
		<path style="fill:#0E5BA8;" d="M515.96,296.3l16.34-68.68c0,0-29.54-4.62-33.06,8.65c-3.52,13.27-9.31,52.67-16.35,55.11
			C475.85,293.82,515.96,296.3,515.96,296.3z"/>
		<path style="fill:#BD7947;" d="M477.96,260.53c0,0,0.3,1.26,0.62,2.3l7.19-9.32L477.96,260.53z"/>
		<path style="fill:#1D3B54;" d="M495.98,217.81c0,0-2.84,7.51-2.07,9.56c0,0-4.44-1.89-3.63-6.81
			C491.1,215.64,495.98,217.81,495.98,217.81z"/>
		<polygon style="fill:#D88A51;" points="485.74,233.42 485.74,231.93 492.04,228.86 494.22,231.38 		"/>
	</g>
	<defs>
		
			<filter id="Adobe_OpacityMaskFilter_00000127729206069353708620000006153947938435549627_" filterUnits="userSpaceOnUse" x="0" y="340.6" width="238.46" height="13.75">
			<feFlood  style="flood-color:white;flood-opacity:1" result="back"/>
			<feBlend  in="SourceGraphic" in2="back" mode="normal"/>
		</filter>
	</defs>
	
		<mask maskUnits="userSpaceOnUse" x="0" y="340.6" width="238.46" height="13.75" id="SVGID_00000168795759775572871560000006375927856957968298_">
		<g style="filter:url(#Adobe_OpacityMaskFilter_00000127729206069353708620000006153947938435549627_);">
			<defs>
				
					<filter id="Adobe_OpacityMaskFilter_00000040559126253734007860000008080116572649923458_" filterUnits="userSpaceOnUse" x="0" y="340.6" width="238.46" height="13.75">
					<feFlood  style="flood-color:white;flood-opacity:1" result="back"/>
					<feBlend  in="SourceGraphic" in2="back" mode="normal"/>
				</filter>
			</defs>
			
				<mask maskUnits="userSpaceOnUse" x="0" y="340.6" width="238.46" height="13.75" id="SVGID_00000168795759775572871560000006375927856957968298_">
				<g style="filter:url(#Adobe_OpacityMaskFilter_00000040559126253734007860000008080116572649923458_);">
				</g>
			</mask>
			
				<linearGradient id="SVGID_00000073714264890300981830000011918099906667011989_" gradientUnits="userSpaceOnUse" x1="142.6873" y1="387.7825" x2="96.9341" y2="309.1644">
				<stop  offset="0" style="stop-color:#000000"/>
				<stop  offset="0.6943" style="stop-color:#FFFFFF"/>
			</linearGradient>
			
				<path style="mask:url(#SVGID_00000168795759775572871560000006375927856957968298_);fill:url(#SVGID_00000073714264890300981830000011918099906667011989_);" d="
				M238.46,347.47c0,3.8-53.38,6.87-119.23,6.87C53.38,354.35,0,351.27,0,347.47c0-3.8,53.38-6.88,119.23-6.88
				C185.08,340.6,238.46,343.68,238.46,347.47z"/>
		</g>
	</mask>
	
		<linearGradient id="SVGID_00000091714865980113818750000007585744066246573739_" gradientUnits="userSpaceOnUse" x1="142.6873" y1="387.7825" x2="96.9341" y2="309.1644">
		<stop  offset="0" style="stop-color:#97CBEC"/>
		<stop  offset="0.6943" style="stop-color:#CCC2F5"/>
	</linearGradient>
	<path style="opacity:0.72;fill:url(#SVGID_00000091714865980113818750000007585744066246573739_);" d="M238.46,347.47
		c0,3.8-53.38,6.87-119.23,6.87C53.38,354.35,0,351.27,0,347.47c0-3.8,53.38-6.88,119.23-6.88
		C185.08,340.6,238.46,343.68,238.46,347.47z"/>
	<g>
		<g>
			<g>
				<g>
					<g>
						<polygon style="fill:#0E5BA8;" points="386.04,185.48 384.96,185.11 394.07,158.59 414.42,152.95 421.43,123.88 437.1,116.74 
							440.37,94.16 441.51,94.32 438.15,117.53 422.41,124.69 415.38,153.88 394.96,159.54 						"/>
					</g>
				</g>
			</g>
		</g>
		<g>
			<g>
				<path style="fill:#FFFFFF;" d="M417.25,151.45c1.09,1.3,0.91,3.23-0.38,4.32c-1.3,1.09-3.23,0.92-4.32-0.38
					c-1.09-1.3-0.92-3.23,0.38-4.32C414.23,149.98,416.17,150.15,417.25,151.45z"/>
			</g>
		</g>
		<g>
			<g>
				<path style="fill:#3AB4CC;" d="M417.24,156.21c-1.54,1.29-3.84,1.08-5.13-0.46c-1.29-1.54-1.08-3.84,0.46-5.13
					c1.54-1.29,3.84-1.08,5.12,0.46C418.98,152.62,418.78,154.92,417.24,156.21z M413.31,151.51c-1.06,0.88-1.2,2.45-0.31,3.51
					c0.88,1.05,2.45,1.19,3.5,0.31c1.05-0.88,1.19-2.45,0.31-3.51C415.93,150.77,414.36,150.62,413.31,151.51z"/>
			</g>
		</g>
		<g>
			<g>
				<path style="fill:#FFFFFF;" d="M424.35,122.49c1.09,1.3,0.92,3.23-0.38,4.32c-1.3,1.09-3.23,0.91-4.32-0.38
					c-1.09-1.3-0.92-3.23,0.38-4.32C421.34,121.02,423.27,121.19,424.35,122.49z"/>
			</g>
		</g>
		<g>
			<g>
				<path style="fill:#3AB4CC;" d="M424.34,127.25c-1.54,1.29-3.84,1.08-5.12-0.46c-1.29-1.54-1.08-3.84,0.45-5.13
					c1.54-1.29,3.84-1.08,5.13,0.46C426.08,123.66,425.88,125.96,424.34,127.25z M420.41,122.55c-1.05,0.88-1.19,2.45-0.31,3.51
					c0.88,1.05,2.45,1.19,3.51,0.31c1.05-0.88,1.19-2.45,0.31-3.51C423.03,121.81,421.46,121.67,420.41,122.55z"/>
			</g>
		</g>
		<g>
			<g>
				<path style="fill:#FFFFFF;" d="M439.79,115.16c1.09,1.3,0.92,3.23-0.38,4.32c-1.3,1.09-3.23,0.91-4.32-0.38
					c-1.09-1.3-0.91-3.23,0.38-4.32C436.77,113.69,438.7,113.86,439.79,115.16z"/>
			</g>
		</g>
		<g>
			<g>
				<path style="fill:#3AB4CC;" d="M439.77,119.92c-1.54,1.29-3.84,1.08-5.12-0.46c-1.29-1.54-1.08-3.84,0.45-5.13
					c1.54-1.29,3.84-1.08,5.13,0.46C441.51,116.33,441.31,118.63,439.77,119.92z M435.84,115.22c-1.05,0.88-1.19,2.46-0.31,3.51
					c0.88,1.05,2.45,1.19,3.51,0.31c1.05-0.88,1.19-2.45,0.31-3.51C438.46,114.48,436.89,114.34,435.84,115.22z"/>
			</g>
		</g>
		<g>
			<g>
				<path style="fill:#FFFFFF;" d="M396.98,157.35c1.08,1.3,0.91,3.23-0.38,4.32c-1.3,1.09-3.23,0.91-4.32-0.38
					c-1.09-1.3-0.91-3.23,0.38-4.32C393.96,155.88,395.9,156.06,396.98,157.35z"/>
			</g>
		</g>
		<g>
			<g>
				<path style="fill:#3AB4CC;" d="M396.97,162.11c-1.54,1.29-3.84,1.08-5.13-0.46c-1.29-1.54-1.08-3.84,0.46-5.13
					c1.54-1.29,3.84-1.08,5.12,0.46C398.71,158.52,398.5,160.82,396.97,162.11z M393.03,157.41c-1.05,0.88-1.19,2.45-0.31,3.51
					c0.88,1.05,2.46,1.19,3.51,0.31c1.05-0.88,1.19-2.45,0.31-3.51C395.66,156.67,394.08,156.53,393.03,157.41z"/>
			</g>
		</g>
	</g>
	
		<radialGradient id="SVGID_00000153697905161754363090000004997914867004809097_" cx="259.2404" cy="71.1141" r="174.7307" gradientUnits="userSpaceOnUse">
		<stop  offset="7.771892e-03" style="stop-color:#FFE571"/>
		<stop  offset="0.9948" style="stop-color:#FFF32D"/>
	</radialGradient>
	<path style="fill:url(#SVGID_00000153697905161754363090000004997914867004809097_);" d="M372.36,94.17
		c-0.21-42.44-40.93-76.65-90.96-76.4c-50.03,0.25-90.41,34.85-90.2,77.3c0.06,11.17,2.92,21.77,8.02,31.33
		c0.03,0.06,27.93,53.94,32.1,105.17c0.12,23.96,23.11,43.27,51.35,43.13c28.25-0.14,51.05-19.68,50.93-43.64
		c3.66-51.29,31.06-105.48,31.06-105.48l0,0C369.66,115.97,372.42,105.34,372.36,94.17z"/>
	<g>
		
			<radialGradient id="SVGID_00000101100352559397904410000001771997896555511208_" cx="372.6096" cy="56.5207" r="44.8968" gradientUnits="userSpaceOnUse">
			<stop  offset="7.771892e-03" style="stop-color:#FFE571"/>
			<stop  offset="0.9948" style="stop-color:#FFF32D"/>
		</radialGradient>
		<path style="fill:url(#SVGID_00000101100352559397904410000001771997896555511208_);" d="M398.35,113.04l-3.2-0.64
			c7.62-38.34,1.16-69.37-18.7-89.73c-15.02-15.4-32.59-19.45-32.77-19.49l0.7-3.18c0.75,0.17,18.57,4.25,34.28,20.28
			C393.13,35.04,408.28,63.11,398.35,113.04z"/>
	</g>
	<g>
		
			<radialGradient id="SVGID_00000132797116191793950540000012844627344837500316_" cx="175.0415" cy="115.8572" r="32.9551" gradientUnits="userSpaceOnUse">
			<stop  offset="7.771892e-03" style="stop-color:#FFE571"/>
			<stop  offset="0.9948" style="stop-color:#FFF32D"/>
		</radialGradient>
		<path style="fill:url(#SVGID_00000132797116191793950540000012844627344837500316_);" d="M182.27,161.35
			c-30.65-58.12-11.49-89.68-10.66-90.99l2.76,1.74c-0.19,0.31-18.91,31.43,10.78,87.73L182.27,161.35z"/>
	</g>
	<path style="fill:#FFFFFF;" d="M321.99,105.78c0.85-2.24,1.38-4.56,1.58-6.89l4.65-1.78l-0.9-5.33l-0.9-5.33l-4.97-0.16
		c-0.95-2.13-2.2-4.15-3.75-5.99l2.03-4.54l-4.41-3.13l-4.4-3.13l-3.62,3.4c-2.24-0.86-4.56-1.38-6.89-1.58l-1.78-4.65l-5.33,0.9
		l-5.33,0.9l-0.16,4.97c-2.13,0.95-4.15,2.2-5.99,3.75l-4.54-2.03l-3.13,4.4l-3.13,4.4l3.4,3.62c-0.86,2.24-1.38,4.56-1.58,6.89
		l-4.65,1.78l0.9,5.33l0.9,5.33l4.97,0.16c0.95,2.13,2.21,4.15,3.75,5.99l-2.03,4.54l4.4,3.13l4.41,3.13l3.62-3.4
		c2.24,0.86,4.56,1.38,6.88,1.58l1.78,4.65l5.33-0.9l5.33-0.9l0.16-4.97c2.14-0.95,4.16-2.2,5.99-3.75l4.54,2.03l3.13-4.4l3.14-4.4
		L321.99,105.78z M290.52,107.49c-5.96-4.24-7.36-12.52-3.11-18.48c4.24-5.96,12.52-7.36,18.48-3.11
		c5.96,4.24,7.36,12.52,3.11,18.48C304.76,110.34,296.48,111.73,290.52,107.49z"/>
	<path style="fill:#FFFFFF;" d="M273.15,134.68c0.54-1.42,0.87-2.88,1-4.35l2.94-1.13l-0.57-3.37l-0.57-3.37l-3.14-0.1
		c-0.6-1.35-1.39-2.63-2.37-3.79l1.28-2.87l-2.79-1.98l-2.78-1.98l-2.29,2.15c-1.41-0.54-2.88-0.87-4.36-1l-1.12-2.94l-3.37,0.57
		l-3.37,0.57l-0.1,3.15c-1.35,0.6-2.63,1.39-3.79,2.37l-2.87-1.28l-1.98,2.79l-1.98,2.79l2.15,2.29c-0.54,1.42-0.87,2.88-1,4.35
		l-2.94,1.12l0.57,3.37l0.57,3.37l3.15,0.1c0.6,1.35,1.39,2.63,2.37,3.79l-1.28,2.87l2.79,1.98l2.78,1.98l2.29-2.15
		c1.42,0.54,2.88,0.87,4.35,1l1.12,2.94l3.37-0.57l3.37-0.57l0.1-3.15c1.35-0.6,2.63-1.39,3.79-2.37l2.87,1.28l1.98-2.79l1.98-2.79
		L273.15,134.68z M253.25,135.76c-3.77-2.68-4.65-7.92-1.97-11.69c2.68-3.77,7.92-4.65,11.69-1.97c3.77,2.68,4.65,7.92,1.97,11.69
		C262.25,137.56,257.02,138.44,253.25,135.76z"/>
	<defs>
		
			<filter id="Adobe_OpacityMaskFilter_00000044158165994247844360000012989997482666476435_" filterUnits="userSpaceOnUse" x="250.78" y="165.84" width="15.46" height="99.87">
			<feFlood  style="flood-color:white;flood-opacity:1" result="back"/>
			<feBlend  in="SourceGraphic" in2="back" mode="normal"/>
		</filter>
	</defs>
	
		<mask maskUnits="userSpaceOnUse" x="250.78" y="165.84" width="15.46" height="99.87" id="SVGID_00000138565596974881758220000010773029833388897197_">
		<g style="filter:url(#Adobe_OpacityMaskFilter_00000044158165994247844360000012989997482666476435_);">
			<defs>
				
					<filter id="Adobe_OpacityMaskFilter_00000024702542559784483800000008952402807579348642_" filterUnits="userSpaceOnUse" x="250.78" y="165.84" width="15.46" height="99.87">
					<feFlood  style="flood-color:white;flood-opacity:1" result="back"/>
					<feBlend  in="SourceGraphic" in2="back" mode="normal"/>
				</filter>
			</defs>
			
				<mask maskUnits="userSpaceOnUse" x="250.78" y="165.84" width="15.46" height="99.87" id="SVGID_00000138565596974881758220000010773029833388897197_">
				<g style="filter:url(#Adobe_OpacityMaskFilter_00000024702542559784483800000008952402807579348642_);">
				</g>
			</mask>
			
				<linearGradient id="SVGID_00000041983518311550950670000016334991524922317710_" gradientUnits="userSpaceOnUse" x1="258.5092" y1="125.9834" x2="258.5092" y2="236.2164">
				<stop  offset="7.772020e-03" style="stop-color:#000000"/>
				<stop  offset="1" style="stop-color:#FFFFFF"/>
			</linearGradient>
			
				<polygon style="mask:url(#SVGID_00000138565596974881758220000010773029833388897197_);fill:url(#SVGID_00000041983518311550950670000016334991524922317710_);" points="
				266.24,265.35 263.37,265.71 250.78,166.2 253.64,165.84 			"/>
		</g>
	</mask>
	
		<linearGradient id="SVGID_00000178172153856159179090000009458766251251504816_" gradientUnits="userSpaceOnUse" x1="258.5092" y1="125.9834" x2="258.5092" y2="236.2164">
		<stop  offset="7.772020e-03" style="stop-color:#FFDD91"/>
		<stop  offset="1" style="stop-color:#FFFFFF"/>
	</linearGradient>
	<polygon style="fill:url(#SVGID_00000178172153856159179090000009458766251251504816_);" points="266.24,265.35 263.37,265.71 
		250.78,166.2 253.64,165.84 	"/>
	<defs>
		
			<filter id="Adobe_OpacityMaskFilter_00000067922051616369700560000005464873995653527975_" filterUnits="userSpaceOnUse" x="303.78" y="165.52" width="14.45" height="99.97">
			<feFlood  style="flood-color:white;flood-opacity:1" result="back"/>
			<feBlend  in="SourceGraphic" in2="back" mode="normal"/>
		</filter>
	</defs>
	
		<mask maskUnits="userSpaceOnUse" x="303.78" y="165.52" width="14.45" height="99.97" id="SVGID_00000151545833564366726590000002302093000111202729_">
		<g style="filter:url(#Adobe_OpacityMaskFilter_00000067922051616369700560000005464873995653527975_);">
			<defs>
				
					<filter id="Adobe_OpacityMaskFilter_00000053507697512376393360000006010455068804794041_" filterUnits="userSpaceOnUse" x="303.78" y="165.52" width="14.45" height="99.97">
					<feFlood  style="flood-color:white;flood-opacity:1" result="back"/>
					<feBlend  in="SourceGraphic" in2="back" mode="normal"/>
				</filter>
			</defs>
			
				<mask maskUnits="userSpaceOnUse" x="303.78" y="165.52" width="14.45" height="99.97" id="SVGID_00000151545833564366726590000002302093000111202729_">
				<g style="filter:url(#Adobe_OpacityMaskFilter_00000053507697512376393360000006010455068804794041_);">
				</g>
			</mask>
			
				<linearGradient id="SVGID_00000014627681689835382700000012487741959428490426_" gradientUnits="userSpaceOnUse" x1="311.0057" y1="125.9827" x2="311.0057" y2="236.2167">
				<stop  offset="7.772020e-03" style="stop-color:#000000"/>
				<stop  offset="1" style="stop-color:#FFFFFF"/>
			</linearGradient>
			
				<polygon style="mask:url(#SVGID_00000151545833564366726590000002302093000111202729_);fill:url(#SVGID_00000014627681689835382700000012487741959428490426_);" points="
				303.78,265.16 306.64,265.49 318.23,165.86 315.36,165.52 			"/>
		</g>
	</mask>
	
		<linearGradient id="SVGID_00000174563557458342383110000012288052672053686185_" gradientUnits="userSpaceOnUse" x1="311.0057" y1="125.9827" x2="311.0057" y2="236.2167">
		<stop  offset="7.772020e-03" style="stop-color:#FFDD91"/>
		<stop  offset="1" style="stop-color:#FFFFFF"/>
	</linearGradient>
	<polygon style="fill:url(#SVGID_00000174563557458342383110000012288052672053686185_);" points="303.78,265.16 306.64,265.49 
		318.23,165.86 315.36,165.52 	"/>
	<g>
		<defs>
			
				<filter id="Adobe_OpacityMaskFilter_00000072277919107768144010000001215284010095409792_" filterUnits="userSpaceOnUse" x="252.16" y="167.64" width="65" height="13.58">
				<feFlood  style="flood-color:white;flood-opacity:1" result="back"/>
				<feBlend  in="SourceGraphic" in2="back" mode="normal"/>
			</filter>
		</defs>
		
			<mask maskUnits="userSpaceOnUse" x="252.16" y="167.64" width="65" height="13.58" id="SVGID_00000054944115381396161350000015177276990731579299_">
			<g style="filter:url(#Adobe_OpacityMaskFilter_00000072277919107768144010000001215284010095409792_);">
				<defs>
					
						<filter id="Adobe_OpacityMaskFilter_00000014621567830552658800000003866090686604291724_" filterUnits="userSpaceOnUse" x="252.16" y="167.64" width="65" height="13.58">
						<feFlood  style="flood-color:white;flood-opacity:1" result="back"/>
						<feBlend  in="SourceGraphic" in2="back" mode="normal"/>
					</filter>
				</defs>
				
					<mask maskUnits="userSpaceOnUse" x="252.16" y="167.64" width="65" height="13.58" id="SVGID_00000054944115381396161350000015177276990731579299_">
					<g style="filter:url(#Adobe_OpacityMaskFilter_00000014621567830552658800000003866090686604291724_);">
					</g>
				</mask>
				
					<linearGradient id="SVGID_00000059997017950605681440000012028794228761439885_" gradientUnits="userSpaceOnUse" x1="284.6603" y1="125.9814" x2="284.6603" y2="236.2187">
					<stop  offset="7.772020e-03" style="stop-color:#000000"/>
					<stop  offset="1" style="stop-color:#FFFFFF"/>
				</linearGradient>
				
					<polygon style="mask:url(#SVGID_00000054944115381396161350000015177276990731579299_);fill:url(#SVGID_00000059997017950605681440000012028794228761439885_);" points="
					305.78,181.22 294.9,170.45 284.31,181.15 273.8,170.73 263.57,181.07 252.16,169.78 253.56,168.37 263.55,178.26 
					273.78,167.93 284.3,178.34 294.89,167.64 305.77,178.41 315.75,168.33 317.16,169.72 				"/>
			</g>
		</mask>
		
			<linearGradient id="SVGID_00000157281286864550402270000009881231881560140169_" gradientUnits="userSpaceOnUse" x1="284.6603" y1="125.9814" x2="284.6603" y2="236.2187">
			<stop  offset="7.772020e-03" style="stop-color:#FFDD91"/>
			<stop  offset="1" style="stop-color:#FFFFFF"/>
		</linearGradient>
		<polygon style="fill:url(#SVGID_00000157281286864550402270000009881231881560140169_);" points="305.78,181.22 294.9,170.45 
			284.31,181.15 273.8,170.73 263.57,181.07 252.16,169.78 253.56,168.37 263.55,178.26 273.78,167.93 284.3,178.34 294.89,167.64 
			305.77,178.41 315.75,168.33 317.16,169.72 		"/>
	</g>
	<path style="fill:#D46946;" d="M311.71,301.92l-57.99,0.29c-6.44,0.03-11.68-5.16-11.71-11.59l-0.11-22.82l81.29-0.4l0.11,22.82
		C323.34,296.65,318.15,301.89,311.71,301.92z"/>
	<path style="fill:#3AB4CC;" d="M318.86,287.69l-72.43,0.36c-9.67,0.05-17.54-7.75-17.59-17.42l-0.19-37.99l107.44-0.53l0.19,37.99
		C336.33,279.77,328.53,287.64,318.86,287.69z"/>
	<rect x="185.58" y="256.1" style="fill:#292C47;" width="193.77" height="60.61"/>
	<polygon style="fill:#292C47;" points="379.36,316.71 379.36,256.1 308.84,256.1 270.94,316.02 	"/>
	<rect x="189.39" y="228.35" style="fill:#706865;" width="2.36" height="107.14"/>
	<path style="fill:#BDAFAA;" d="M190.15,311h-77.85c-3.91,0-7.08-3.17-7.08-7.08V158.87c0-3.91,3.17-7.07,7.07-7.07h77.85
		c3.91,0,7.07,3.17,7.07,7.07v145.06C197.23,307.83,194.06,311,190.15,311z"/>
	<path style="fill:#FFFFFF;" d="M187.71,304.78h-72.97c-3.86,0-6.99-3.13-6.99-6.99V161.35c0-3.86,3.13-6.99,6.99-6.99h72.97
		c3.86,0,6.99,3.13,6.99,6.99v136.44C194.7,301.65,191.57,304.78,187.71,304.78z"/>
	<rect x="137.52" y="150.59" style="fill:#706865;" width="27.41" height="6.19"/>
	<g>
		<path style="fill:#B5DEFF;" d="M125.92,186.55c0-12.95,10.54-23.49,23.49-23.49v1.05c-12.38,0-22.44,10.07-22.44,22.44
			c0,13.61,11.98,23.93,25.2,22.27c11.06-1.35,19.68-10.78,19.68-22.27c0-1.1-0.08-2.21-0.24-3.29l1.04-0.15
			c0.17,1.13,0.25,2.29,0.25,3.45c0,12.02-9.02,21.9-20.61,23.32C138.39,211.59,125.92,200.76,125.92,186.55z"/>
	</g>
	<g>
		<g>
			<g>
				<g>
					<path style="fill:#EEA886;" d="M96.08,260.6c0,0,0.63,1.03,0.71,1.88c0.06,0.67,0.62,1.66,0.87,2.22
						c0.24,0.55,1.02,3.05,1.05,3.7c0.01,0.26-0.58,1.94-0.5,2.47c0.08,0.53,0.39,1.6-0.09,1.67c-0.48,0.07-1.02-0.8-1.02-0.8
						s0.05,0.49-0.36,0.68c-0.79,0.36-1.21,0.04-1.21,0.04s-0.29,0.54-0.66,0.61c-0.81,0.16-1.2-0.16-1.2-0.16s-0.36,0.3-0.91,0.29
						c-0.71-0.01-1.01-0.63-1.01-0.63s-0.9,0.18-1.17-0.24c-0.26-0.42-0.22-0.87-0.33-1.25c-0.11-0.38-0.03-3.83,1.14-6.31
						c1.17-2.48-0.3-4.91-0.3-4.91L96.08,260.6z"/>
				</g>
			</g>
		</g>
		<g>
			<g>
				<path style="fill:#DB9C7C;" d="M97.22,271.4c0,0,0.08-3.1-0.73-3.75c-0.81-0.66-0.91,0.46-0.91,0.46s0.11-1.1-0.78-1.25
					c-0.89-0.15-0.93,1.16-0.93,1.16s-0.14-0.85-1.08-0.68c-0.94,0.17-0.71,1.26-0.71,1.26s-0.89-1.06-1.47-0.04
					c-0.98,1.73-0.09,3.79-0.09,3.79s0.32,0.49,1.21,0.26c0,0,0.62,1.22,1.95,0.36c0,0,1.38,0.75,1.87-0.45
					C95.55,272.51,97.16,273.14,97.22,271.4z"/>
			</g>
		</g>
		<path style="fill:#3AB4CC;" d="M106.58,216.02c0,0-5.3,17.66-7.09,24.17c-0.56,2.04-1.92,21.55-2.16,22.34
			c-0.24,0.79-6.96,1.86-6.96,1.86s0.81-24.4,0.89-25.74c0.08-1.33,7.41-28.58,9.55-29.55c1.6-0.73,2.44-0.13,4.46,1.37
			C108.09,212.56,106.58,216.02,106.58,216.02z"/>
		<g>
			
				<rect x="157.35" y="187.23" transform="matrix(0.837 -0.5472 0.5472 0.837 -75.9179 120.6801)" style="fill:#4DA8F2;" width="14.49" height="1.08"/>
		</g>
		<path style="fill:#EFAA88;" d="M172.25,187.91c0,0-0.12,0.69-0.31,0.96c0,0-0.4,0.47-0.66,0.83c-0.08,0.11-0.15,0.21-0.19,0.28
			c-0.16,0.29-0.42,0.97-1,1.56c-0.58,0.58-2.83,2.45-2.83,2.45l-1.93-1.63l-2-0.9c0,0,1.12-4.87,1.6-5.48
			c0.05-0.06,0.1-0.12,0.14-0.17c0.45-0.47,0.99-0.64,1.26-0.86c0.1-0.08,1.13-0.82,1.49-0.73c0.51,0.13,0.81,0.43,0.93,0.77
			c0,0,0.98,0.3,1.37,0.88c0,0,0.92,0.25,1.19,1.11C171.31,186.98,172.21,187.34,172.25,187.91z"/>
		<g>
			<g>
				<path style="fill:#424773;" d="M102.28,336.58c0,0-0.48,3.35-0.54,3.86c-0.06,0.5-5.37-0.3-5.37-0.3l-0.43-3.99
					C95.93,336.15,101.61,336.1,102.28,336.58z"/>
			</g>
		</g>
		<g>
			<g>
				<path style="fill:#292C47;" d="M101.79,340.01c0,0,1.68,2.02,3.31,2.9c1.63,0.88,4.19,1.23,5.15,2.14
					c0.69,0.66,2.53,3.49-4.23,3.43c-6.76-0.06-10.02,0.4-10.74-0.68c-0.73-1.09,1.05-8.02,1.05-8.02S97.93,340.36,101.79,340.01z"
					/>
			</g>
		</g>
		<g>
			<g>
				<path style="fill:#424773;" d="M140.34,336.58c0,0-0.48,3.35-0.54,3.86c-0.06,0.5-5.37-0.3-5.37-0.3l-0.43-3.99
					C133.99,336.15,139.67,336.1,140.34,336.58z"/>
			</g>
		</g>
		<g>
			<g>
				<path style="fill:#292C47;" d="M139.85,340.01c0,0,1.68,2.02,3.31,2.9c1.63,0.88,7.62,1.6,8.58,2.51
					c0.69,0.66,1.85,3.31-7.66,3.06c-6.76-0.17-10.02,0.4-10.74-0.68c-0.73-1.09,1.05-8.02,1.05-8.02S135.89,340.39,139.85,340.01z"
					/>
			</g>
		</g>
		<g>
			<g>
				<path style="fill:#292C47;" d="M106.68,250.45c0,0-4.99,7.93-4.62,15.1c0.37,7.17-1.81,14.99-2.56,22.48
					c-0.84,8.35-4.26,28.11-4.38,32.58c-0.12,4.46,0.53,18.72,0.53,18.72l6.85,0.16c0,0,5.75-34.55,7.24-38.07
					c1.49-3.53,8.87-28.66,9.12-31.48C119.11,267.11,106.68,250.45,106.68,250.45z"/>
			</g>
		</g>
		<g>
			<g>
				<path style="fill:#292C47;" d="M132.95,251.52c0,0,3.76,19.65,4.26,24.03c0.5,4.39,0.83,21.23,1.08,23.97
					c0.25,2.74,2.32,35.8,2.98,39.95h-8.75c0,0-6.72-24.09-6.72-35.49s-5.19-24.78-8.54-32.3c-3.35-7.52-11.02-7.7-13.08-21.65
					C104.17,250.04,130.16,247.1,132.95,251.52z"/>
			</g>
		</g>
		<g>
			<g>
				<path style="fill:#EEA886;" d="M115.01,183.78c0,0,6.7-2.5,9.79,2.6c3.09,5.1,2.79,15.31-0.59,16.57
					c-3.38,1.25-8.45,0.6-10.18-2.59c-1.73-3.19-3.29-7.8-3.21-10.89C110.89,186.38,113.25,184.67,115.01,183.78z"/>
			</g>
		</g>
		<g>
			<g>
				<path style="fill:#EEA886;" d="M123.48,203.17c0,0-0.28,1.81,0.18,2.7c0.46,0.89-8.68,0.91-8.68,0.91s-0.74-4.85-2.15-8.94
					C111.43,193.75,123.48,203.17,123.48,203.17z"/>
			</g>
		</g>
		<g>
			<g>
				<path style="fill:#292C47;" d="M112.84,197.85c0,0,0.63,1.04,3.21,0.64c2.58-0.4,5.72-3.83,6.79-4.21
					c1.08-0.38,1.09-1.01,1.09-1.01l0.67,0.98l1.14,0.07c0,0-1.04-3.07,0.53-4.32c1.57-1.25-1.63-9.92-9.89-7.03
					c0,0-6.34,1.75-6.11,5.36C110.49,191.94,111.42,196.05,112.84,197.85z"/>
			</g>
		</g>
		<g>
			<g>
				<path style="fill:#E2D2CA;" d="M124.21,205.76c0,0-0.03-1.7-0.8-1.87c-0.77-0.16-8.52-0.91-9.46-0.54v1.98
					C113.94,205.35,115.77,206.47,124.21,205.76z"/>
			</g>
		</g>
		<g>
			<g>
				<path style="fill:#EEA886;" d="M123.75,191.96c-0.14-0.61-1.68-2.34-2.27-0.48c-0.59,1.85,0.89,4.34,1.72,4.13
					C124.02,195.39,124.11,193.49,123.75,191.96z"/>
			</g>
		</g>
		<g>
			<g>
				<g>
					<path style="fill:#3AB4CC;" d="M137.02,208.34c-5.31-0.7-12.81-2.58-12.81-2.58l-10.26-0.42c0,0-9.42,2.07-13.13,3.75
						c-0.35,0.16-0.35,8.4-1.32,10.57l3.08,6.49c0,0,1.78,12.85,2.15,18.57c0.17,2.62-3.67,24.61-3.67,24.61s4.11,1.21,11.11,1.98
						c7.01,0.77,24.51-0.28,24.62-1.11c0.11-0.83-3.39-30.81-3.54-32.37c-0.24-2.38,0.82-15.05,0.82-15.05
						c1.62-1.25,15.82-7.85,19.69-11.28c1.04-0.92,5.41-5.18,6.66-6.65c4.41-5.21,8.02-9.68,8.46-10.64c0.5-0.55-4.95-3.5-5.43-3.66
						c-0.42-0.14-6.21,7.66-8.5,10.14c-1.02,1.11-5.27,4.2-5.27,4.2S140.34,208.53,137.02,208.34z"/>
				</g>
			</g>
		</g>
		<g>
			<g>
				<path style="fill:#292C47;" d="M113.1,184.38c0,0-8.54,0.67-0.26,13.47L113.1,184.38z"/>
			</g>
		</g>
		<polygon style="fill:#DFE1E8;" points="170.96,184.25 171.66,183.18 170.37,183.35 		"/>
	</g>
	<polygon style="fill:#0E5BA8;" points="540.87,161.75 500.83,161.75 500.83,190.78 500.83,196.89 506.94,190.78 540.87,190.78 	"/>
	<g>
		<path style="fill:#202338;" d="M44.91,340.12c0,0-1.23,2.3-2.04,3.22c-0.81,0.91-3.89,2.55-3.91,5.26
			c-0.02,2.94,5.21,2.13,7.25,2.02c2.04-0.11,2.2-1.68,3.06-3.35c0.86-1.67,1.73-1.38,1.89-2.73c0.16-1.34-0.83-4.42-0.83-4.42
			H44.91z"/>
		<g>
			<g>
				<path style="fill:#3D295B;" d="M75.84,261.66c0,0-5.75-13.41-6.45-16.71c-0.31-1.5-1.18-5.21-1.72-8.27
					c-0.18-1.01-0.33-2.04-0.46-3.06c0,0,0,0,0,0c-0.51-4.05-0.64-7.74-0.64-7.74s-3.05-10.47,3.49-11.11c0,0,2.33,0.81,2.41,0.99
					c1.1,2.58,1.54,9.14,1.58,10.56c0.03,1.15,1.72,12.8,1.75,13.21c0.05,0.8,1.79,5,2.72,8.11c2.04,6.78,3.11,12.13,3.11,12.13
					L75.84,261.66z"/>
			</g>
		</g>
		<rect x="62.8" y="238.39" style="fill:#E2E3ED;" width="29.51" height="25.81"/>
		<g>
			<g>
				<rect x="81.95" y="251.69" style="fill:#AAB1E0;" width="1.64" height="7.94"/>
			</g>
		</g>
		<g>
			<g>
				<rect x="84.24" y="253.78" style="fill:#AAB1E0;" width="1.64" height="5.85"/>
			</g>
		</g>
		<g>
			<g>
				<rect x="86.5" y="250.7" style="fill:#AAB1E0;" width="1.64" height="8.93"/>
			</g>
		</g>
		<path style="fill:#EEA886;" d="M85.53,262.61c0,0-0.17,3.48-2.04,4.08c-1.87,0.6-3.91,0.06-4.77-0.46
			c-0.86-0.53-3.03-2.06-2.22-3.02C79.1,260.11,85.53,262.61,85.53,262.61z"/>
		<path style="fill:#EEA886;" d="M84.58,265.82c0,0,2.33,0.17,2.21-0.82c-0.13-0.99-1.81-0.61-1.81-0.61L84.58,265.82z"/>
		<g>
			<g>
				<rect x="74.82" y="253.58" style="fill:#AAB1E0;" width="1.64" height="6.04"/>
			</g>
		</g>
		<g>
			<g>
				<rect x="77.15" y="252.98" style="fill:#AAB1E0;" width="1.64" height="6.65"/>
			</g>
		</g>
		<g>
			<g>
				<rect x="79.52" y="254.24" style="fill:#AAB1E0;" width="1.64" height="5.39"/>
			</g>
		</g>
		<g>
			<g>
				<rect x="72.4" y="254.24" style="fill:#AAB1E0;" width="1.64" height="5.39"/>
			</g>
		</g>
		<g>
			<g>
				<g>
					<path style="fill:#AAB1E0;" d="M66.61,250.26c0.01,0.02,0.03,0.04,0.05,0.07l-0.07,0.04l-1.76,1.19l-0.04-0.07l1.76-1.19
						L66.61,250.26z"/>
				</g>
				<g>
					<path style="fill:#AAB1E0;" d="M72.96,250.6c-0.01,0.03-0.01,0.05-0.01,0.08l-0.08-0.01l-5.04-0.6l-0.08-0.01
						c0.01-0.03,0.01-0.05,0.01-0.08l0.08,0.01l5.04,0.6L72.96,250.6z"/>
				</g>
				<g>
					<path style="fill:#AAB1E0;" d="M77.91,246.83l-0.06,0.05l-3.74,3.39l-0.06,0.05c-0.02-0.02-0.03-0.04-0.05-0.06l0.06-0.05
						l3.74-3.39l0.06-0.05C77.87,246.79,77.89,246.81,77.91,246.83z"/>
				</g>
				<g>
					<path style="fill:#AAB1E0;" d="M84.02,246.39c0,0.01,0,0.03,0,0.04h-5.06c0-0.01,0-0.03,0-0.04c0-0.01,0-0.03,0-0.04h5.06
						C84.02,246.36,84.02,246.37,84.02,246.39z"/>
				</g>
				<g>
					<path style="fill:#AAB1E0;" d="M88.38,242.37l-3.24,3.53l-0.05,0.06c-0.02-0.02-0.04-0.04-0.06-0.05l0.05-0.06l3.24-3.53
						L88.38,242.37z"/>
				</g>
			</g>
			<g>
				<g>
					<path style="fill:#AAB1E0;" d="M67.14,249.25c-0.38,0-0.7,0.31-0.7,0.7c0,0.13,0.04,0.25,0.1,0.36
						c0.01,0.02,0.03,0.05,0.04,0.07c0.13,0.17,0.33,0.28,0.56,0.28c0.34,0,0.63-0.25,0.69-0.57c0.01-0.03,0.01-0.05,0.01-0.08
						c0-0.01,0-0.03,0-0.04C67.84,249.56,67.53,249.25,67.14,249.25z M67.75,250.06c-0.05,0.29-0.3,0.51-0.61,0.51
						c-0.2,0-0.38-0.09-0.49-0.24c-0.02-0.02-0.03-0.04-0.05-0.07c-0.05-0.09-0.08-0.2-0.08-0.31c0-0.34,0.28-0.62,0.62-0.62
						s0.62,0.28,0.62,0.62c0,0.01,0,0.02,0,0.03C67.76,250.01,67.76,250.04,67.75,250.06z"/>
				</g>
			</g>
			<g>
				<g>
					<path style="fill:#AAB1E0;" d="M74.11,250.27c-0.02-0.02-0.03-0.04-0.05-0.06c-0.13-0.12-0.3-0.2-0.49-0.2
						c-0.34,0-0.63,0.25-0.69,0.58c0,0.03-0.01,0.05-0.01,0.08c0,0.01,0,0.03,0,0.04c0,0.38,0.31,0.7,0.7,0.7s0.7-0.31,0.7-0.7
						C74.26,250.55,74.2,250.39,74.11,250.27z M73.57,251.33c-0.34,0-0.62-0.28-0.62-0.62c0-0.01,0-0.02,0-0.03
						c0-0.03,0-0.05,0.01-0.08c0.05-0.29,0.31-0.51,0.61-0.51c0.17,0,0.32,0.07,0.43,0.17c0.02,0.02,0.04,0.04,0.05,0.06
						c0.08,0.11,0.13,0.24,0.13,0.39C74.18,251.05,73.91,251.33,73.57,251.33z"/>
				</g>
			</g>
			<g>
				<g>
					<path style="fill:#AAB1E0;" d="M79.03,246.35c-0.02-0.37-0.32-0.66-0.7-0.66c-0.39,0-0.7,0.31-0.7,0.7
						c0,0.17,0.06,0.32,0.15,0.44c0.02,0.02,0.03,0.04,0.05,0.06c0.13,0.13,0.3,0.2,0.49,0.2c0.37,0,0.68-0.29,0.7-0.66
						c0-0.01,0-0.03,0-0.04C79.03,246.37,79.03,246.36,79.03,246.35z M78.34,247.01c-0.17,0-0.32-0.07-0.43-0.17
						c-0.02-0.02-0.04-0.04-0.05-0.06c-0.08-0.11-0.13-0.24-0.13-0.39c0-0.34,0.28-0.62,0.62-0.62c0.33,0,0.6,0.25,0.62,0.58
						c0,0.01,0,0.03,0,0.04c0,0.01,0,0.03,0,0.04C78.93,246.75,78.66,247.01,78.34,247.01z"/>
				</g>
			</g>
			<g>
				<g>
					<path style="fill:#AAB1E0;" d="M85.13,245.9c-0.02-0.02-0.04-0.04-0.06-0.05c-0.12-0.1-0.27-0.16-0.44-0.16
						c-0.37,0-0.68,0.29-0.7,0.66c0,0.01,0,0.03,0,0.04c0,0.01,0,0.03,0,0.04c0.02,0.37,0.33,0.66,0.7,0.66c0.38,0,0.7-0.31,0.7-0.7
						C85.33,246.2,85.26,246.03,85.13,245.9z M84.63,247.01c-0.33,0-0.6-0.26-0.62-0.58c0-0.01,0-0.03,0-0.04c0-0.01,0-0.03,0-0.04
						c0.02-0.32,0.29-0.58,0.62-0.58c0.15,0,0.28,0.05,0.39,0.14c0.02,0.02,0.04,0.03,0.06,0.05c0.11,0.11,0.17,0.26,0.17,0.43
						C85.25,246.73,84.97,247.01,84.63,247.01z"/>
				</g>
			</g>
		</g>
		<g>
			<g>
				<path style="fill:#EEA886;" d="M29.24,262.15c0,0-1.01,1.77-2.22,1.73c-1.02-0.03-2.39,0.63-2.81,0.83
					c-0.56,0.27-2.6,0.5-2.27,1.16c0.33,0.66,3.37-0.23,4.05-0.3c0.67-0.07-1.08,2.29-1.05,2.95c0.03,0.66,4.27,3.05,5.28,1.3
					c1.01-1.74,0.88-4.2,1.12-4.48c0.24-0.28,0.79-1.25,0.79-1.25L29.24,262.15z"/>
			</g>
		</g>
		<g>
			<g>
				<path style="fill:#EEA886;" d="M25.08,268.07c0,0-2.71,5.53-2.57,6.03c0.14,0.5,0.47,0.61,0.74,0.11
					c0.28-0.51,2.79-5.27,2.79-5.27s-2.06,7.02-2.04,7.45c0.01,0.26,0.62,0.51,0.8,0.25c0.17-0.26,2.64-7.11,2.64-7.11
					s-1.91,6.55-1.78,6.91c0.12,0.31,0.74,0.41,0.92-0.07c0.18-0.48,2.31-6.47,2.31-6.47s-1.08,4.84-0.77,5.08
					c0.19,0.14,0.7,0.38,0.94-0.87c0.24-1.26,1.12-4.17,1.12-4.17L25.08,268.07z"/>
			</g>
		</g>
		<g>
			<path style="fill:#202338;" d="M76.01,339.85c0,0,2.52,2.81,5.07,3.4c2.56,0.59,4.34,1.34,4.36,2.95
				c0.02,1.61-7.35,2.68-10.28,1.05c-4.36-2.43-4.81-1.69-5.29-2.91c-0.48-1.21,0.58-4.46,0.55-4.84
				C70.38,339.02,76.01,339.85,76.01,339.85z"/>
		</g>
		<g>
			<path style="fill:#81807E;" d="M75.72,338.5c0,0,0.33,1.32,0.28,1.34c-0.05,0.03-5.76,0.71-5.59-0.35
				c0.14-0.86,0.34-1.79,0.34-1.79L75.72,338.5z"/>
		</g>
		<g>
			<path style="fill:#81807E;" d="M50.25,339.23c0,0,0.24,1.26,0.19,1.29c-0.05,0.03-5.79,1.06-5.76,0.01
				c0.02-0.83,0.53-1.79,0.53-1.79L50.25,339.23z"/>
		</g>
		<g>
			<path style="fill:#292C47;" d="M70.53,259.68c0,0,2.08,20.17,3.16,27.07c1.26,8.07,1.69,14.74,2.04,18.92
				c0.44,5.25,0.53,31.1,0.84,32.64c0.31,1.54-6.88,0.42-6.88,0.42s-3.54-33.77-4.86-39.37c-1.23-5.21-5.79-27.64-6.91-26.22
				c-1.12,1.42-2.51,26.18-3.34,30.29c-0.83,4.11-3.35,36.28-3.35,36.28s-5.72,1.14-7.24-0.15c0,0-0.69-27.73-0.16-35.43
				c0.2-2.94-3.44-35.21,1.23-48.2C47.52,249.07,70.53,259.68,70.53,259.68z"/>
		</g>
		<g>
			<path style="fill:#DBD8E3;" d="M30,262.52c0,0,1.56,1.8,3.03,1.53c1.47-0.27,7.6-18.98,7.66-22.72
				c0.04-3.04,1.71-11.05,1.71-11.05s0,0.01,0,0.01c0,0,0,0.01,0,0.01c0,0,0,0.01,0,0.01c0.17,0.6,2.41,8.92,2.49,12.92
				c0.08,4.15-0.25,18.42-0.25,18.42l5.56,1.49l17.75,0.17l4.05-1.65c0,0-0.44-4.59-0.61-7.81c-0.1-2.05-0.5-5.72-0.4-9.29
				c0,0-0.06-3.77,0.31-5.39c0.04-7.16,0.47-14.25,0.47-14.25c0.24-3.25,0.41-6.28,0.5-9.11c-0.78-0.41-1.72-0.9-2.48-1.26
				c-2.33-1.11-5.58-2.6-7.66-3.56c-1.22-0.56-2.42-0.97-2.42-0.97s-8.33-0.8-9.01-0.76c-0.21,0.01-1.25,0.38-2.62,0.9
				c-2.96,1.12-8.65,3.4-9.56,4.06c-1.33,0.95-4.14,23.58-4.27,25.16C34.04,242.23,30,262.52,30,262.52z"/>
		</g>
		<path style="fill:#1D2033;" d="M71.46,260.14c0,0-12.19,1.04-22.87,0v3.5c0,0,15.9,1.52,23.4-0.67L71.46,260.14z"/>
		<g>
			<g>
				<path style="fill:#3D295B;" d="M61.06,210.53c0,0,1.98,4.66,3.47,15.07c0.57,4,1.63,10.73,2.4,17.6v0
					c0.61,5.42,1.99,10.97,2.43,15.12c0.46,4.3,1.83,16.95,1.83,16.95l3.33-2.1c0.48-0.44,1.14-1.01,0.95-1.63
					c-0.92-2.96-2.67-12.75-3.71-21.28c0-0.01,0-0.01,0-0.02c-0.05-0.41-0.1-0.82-0.14-1.22c0-0.02,0-0.04-0.01-0.06
					c-0.2-1.71-0.36-3.34-0.47-4.84c-0.09-1.15-0.01-2.27,0.15-3.37c0.46-7.66,0.7-15.73,0.7-15.73c0.24-3.31,0.38-6.39,0.48-9.27
					C72.47,215.75,62.01,210.81,61.06,210.53z"/>
			</g>
		</g>
		<g>
			<g>
				<path style="fill:#3D295B;" d="M40.95,241.51c-0.26,3.47-6.61,23.76-7.46,23.67c-1.48-0.16-6.47-1.73-6.47-1.73
					s6.14-20.62,6.36-22.79c0.16-1.58,2.68-25.31,4.01-26.26c0.77-0.55,6.46-2.57,9.25-3.67c0.51-0.2,2.19-0.84,2.65-1.01
					c0.59,0.66,4.73,5.14,6.18,22.16c0.24,2.87-0.52,8.94-1.04,13.9c-0.55,5.29-1.15,9.42-1.6,13.84
					c-0.87,8.72-1.49,15.65-1.49,15.65l-8.67-3.86c-1.4-0.7-3.35-3.59-2.82-5.06c2.01-5.62,4.53-15.21,4.53-20.14
					c0,0-0.97-12.07-1.73-14.72C42.64,231.49,41.28,237.09,40.95,241.51z"/>
			</g>
		</g>
		<path style="fill:#EEA886;" d="M55.87,188.09c0,0,8.7-3.22,8.15,8.34c-0.54,11.56-2.58,12.73-8.3,11.12
			c-5.72-1.61-6.2-8.91-6.95-12.42C48.03,191.62,53.03,188.59,55.87,188.09z"/>
		<path style="fill:#434343;" d="M49.99,200.86c0,0-0.02-3.09,1.26-3.37c1.28-0.28,1.94,1.5,1.94,1.5l1.03-0.06
			c0,0-0.93-3.13,0.3-3.85c1.22-0.72,8.55-0.09,9.46-1.14c0.92-1.05-0.41-7.31-2.41-7.92c-2-0.62-7.45-1.86-10.92,1.23
			c0,0-3.01,0.06-3.14,2.51C47.4,192.22,48.94,199.19,49.99,200.86z"/>
		<path style="fill:#EEA886;" d="M52.7,196.18c-0.38-1.02-2.55-0.89-2.33,0.72c0.22,1.61,2.02,4.1,2.73,3.63
			C53.82,200.07,53.23,197.58,52.7,196.18z"/>
		<g>
			<path style="fill:#EEA987;" d="M51.48,210.15c0,0,0.77-0.63-0.33-6.42c-0.29-1.55,8.16,1.85,8.16,1.85s-0.07,1.27-0.06,2.54
				c0,0.57,0.02,1.14,0.07,1.6c0.03,0.34,0.24,0.95,0.31,1.12C60.02,211.72,54.61,212.39,51.48,210.15z"/>
		</g>
		<path style="fill:#A77860;" d="M59.32,209.72c-5.08-0.07-6.71-3.93-6.76-4.05c2.67,2.71,6.69,2.45,6.69,2.45
			C59.26,208.69,59.27,209.26,59.32,209.72z"/>
		<path style="fill:#5282FC;" d="M57.28,213.15l1.54,2.07c0,0-0.9,1.21-2.5,0.32L57.28,213.15z"/>
		<path style="fill:#3AB4CC;" d="M58.38,215.3c0,0,5.71,21.98,4.53,39.09l-1.92,3.38l-1.8-3.55c0,0-0.49-30.61-2.06-38.99
			L58.38,215.3z"/>
		<path style="fill:#EEA987;" d="M58.93,211.22l-1.65,1.93c0,0-2.65-0.51-3.42-1.9C53.08,209.87,58.93,211.22,58.93,211.22z"/>
		<path style="fill:#C4C1CC;" d="M59.31,209.53c0,0-0.19,1.47-2.03,3.62l2,2.69l1.08-5.58L59.31,209.53z"/>
		<path style="fill:#C4C1CC;" d="M51.73,208.03c0,0,2.88,4.06,5.55,5.12l-1.24,3.08l-5.68-6.87L51.73,208.03z"/>
	</g>
	<g>
		<g>
			<polygon style="fill:#5C5049;" points="436.22,341.21 429.18,294.34 430.53,294.13 437.58,341.01 			"/>
		</g>
		<g>
			<polygon style="fill:#5C5049;" points="427.62,341.21 420.57,294.34 421.93,294.13 428.97,341.01 			"/>
		</g>
		<g>
			<polygon style="fill:#5C5049;" points="385.23,341.21 383.87,341.01 390.92,294.13 392.28,294.34 			"/>
		</g>
		<path style="fill:#FAB46C;" d="M431.38,294.82l5.52-58.09c0,0-9.65-1.26-15.49-0.95l-8.77,59.04H431.38z"/>
		<rect x="412.64" y="291.87" style="fill:#FAB46C;" width="18.74" height="2.95"/>
		<path style="fill:#FAB46C;" d="M400.38,292.45l-2.93-55.35c0,0,24.44-2.65,39.45-0.37L400.38,292.45z"/>
		<path style="fill:#FCCCA2;" d="M419.9,219.18c0,0,3.77-11.07-3.43-14.5c-7.2-3.43-13.31,1.53-14.47,4.21
			c-1.15,2.68-0.85,7.56,0.14,10.97c0.98,3.4,0.84,8.58-1.3,10.31c-2.14,1.73-4.79,4.61-4.66,10.47c0.08,3.63,14.3-9.29,14.3-9.29
			L419.9,219.18z"/>
		<path style="fill:#D4C3BD;" d="M410.29,338.26c0,0-0.22,7.82,0.89,8.29c1.12,0.47,5.34-2.25,7.21-4.94
			c1.86-2.69-2.34-8.95-3.03-12.4c-0.29-1.45-3.57-4.05-5.17-3.3c-1.6,0.74-2.77,2.65-2.77,2.65S411.49,331.35,410.29,338.26z"/>
		<g>
			<path style="fill:#DE9673;" d="M407.42,328.56c0,0,1.39,2.67,2.1,4.74c0.71,2.07,0.85,7.8,1.3,8.2c0.45,0.4,3.99-1.39,4.46-3.53
				c0.47-2.14-0.97-6.43-2.33-8.68c-1.37-2.25-2.76-3.38-2.76-3.38S407.78,326.38,407.42,328.56z"/>
		</g>
		<polygon style="fill:#D4C3BD;" points="415.36,329.21 419.17,334.76 418.45,335.25 415.51,330.96 		"/>
		<path style="fill:#DE9673;" d="M401.67,267.79c0,0,1.86,3.14,0,5.43c-1.86,2.29-14.38,8.57-14.28,12.2
			c0.09,3.63,2.39,9.31,3.21,10.75c0.83,1.44,3.86,7.42,5.44,10.92c1.58,3.5,10.71,20.25,12.49,24.03c1.78,3.78,0.69-15.1,0.69-15.1
			l-9.13-26.77l21.33-20.78C421.41,268.48,418.83,262.73,401.67,267.79z"/>
		<path style="fill:#0E5BA8;" d="M409.78,232.34c0,0-5.92,1.31-8.27,2.68c-2.35,1.37-7.57,7.69-7.57,10.4s22.82,5.25,22.82,5.25
			l4.33,15.79c0,0,11.53-2.81,12.9-5.15s-4.54-18.95-5.36-22.45c-0.82-3.5-5.14-5.86-9.94-6.53
			C413.88,231.67,409.78,232.34,409.78,232.34z"/>
		<path style="fill:#EEA886;" d="M423.77,268.31c0,0-0.41,2.7,0.69,3.84c1.1,1.14,6.16,7.81,3.48,14.37
			c-2.46,6.02-7.23,5.91-7.23,5.91h-7.38c0,0,2.14,10.83,1.45,17.97c-0.7,7.14-3.95,23.44-4.02,24.27c-0.07,0.82-3.12,3.4-4.01,2.09
			c0,0-0.08-9.82-0.56-13.52c-0.48-3.71-2.53-18.53-3.14-20.73c-0.62-2.2-4.26-8.86-4.26-9.54c0-0.69-3.55-11.43,4.2-14.18
			C410.74,276.04,413.48,268.37,423.77,268.31z"/>
		<path style="fill:#E6D3CC;" d="M403.06,344.33c0,0-5.09,5.94-4.52,7.01c0.57,1.07,5.57,1.61,8.71,0.69
			c3.14-0.92,3.81-8.43,5.45-11.54c0.69-1.31-0.23-5.39-1.95-5.82c-1.71-0.43-3.82,0.32-3.82,0.32S408.34,339.72,403.06,344.33z"/>
		<g>
			<path style="fill:#EEA886;" d="M406.93,334.99c0,0-0.6,2.95-1.35,5.01c-0.75,2.06-4.25,6.6-4.15,7.19
				c0.1,0.59,3.98,1.43,5.69,0.06c1.71-1.37,3.3-5.6,3.65-8.22c0.36-2.61-0.02-4.36-0.02-4.36S408.58,333.51,406.93,334.99z"/>
		</g>
		<polygon style="fill:#E6D3CC;" points="412.7,340.49 412.17,347.2 411.3,347.13 411.71,341.94 		"/>
		<path style="fill:#0E5BA8;" d="M427.94,286.52c-2.32,6.1-7.23,5.91-7.23,5.91h-7.38c0,0-3.08-4.88-10.62-5.72
			c-1.67-0.19-3.56-0.17-5.69,0.14c-0.03,0-0.05,0.01-0.08,0.01c-10.02,1.49-8.09,5.16-8.06,5.26c-0.83-2.03-1.71-5.27-1.5-7.01
			c0.96-7.93,12.42-9.6,14.28-11.88c1.86-2.29,0-5.43,0-5.43c17.17-5.06,19.75,0.69,19.75,0.69c0.75-0.1,2.68-1.22,3.5-1.22
			c0,0,0.86,1.87,1.46,3.57C426.91,272.32,430.45,279.91,427.94,286.52z"/>
		<polygon style="fill:#DED1C5;" points="420.81,242.85 423.35,266.47 389.92,266.47 387.38,242.85 		"/>
		<rect x="420.43" y="264.34" style="fill:#DED1C5;" width="5.58" height="2.12"/>
		<rect x="366.88" y="266.47" style="fill:#BC8551;" width="106.47" height="3.22"/>
		<path style="fill:#EEA886;" d="M413.48,206.56c0,0,7.49,2.22,6.42,12.61c-1.07,10.39-5.96,9.86-6.42,9.93
			c-0.46,0.08-6.27,0.46-8.1-12.15C403.54,204.35,413.48,206.56,413.48,206.56z"/>
		<path style="fill:#EEA886;" d="M417.05,227.2c0,0-0.4,3.44,0.26,5.58c0.66,2.14-8.72,2.2-8.72,0.44c0.01-2,0.96-3.67,0.06-7.09
			C407.76,222.7,417.05,227.2,417.05,227.2z"/>
		<path style="fill:#FCCCA2;" d="M411.55,211.2c0,0,4.07,6.47,8.35,7.98c0,0,2.34-10.86-7.32-13.14c-9.66-2.28-8.15,10.97-7.43,14.5
			C405.15,220.54,407.16,215.34,411.55,211.2z"/>
		<path style="fill:#A77860;" d="M409.77,227.64c0,0,2.96,3.09,6.75,0.32c0,0-0.31,1.97-3.04,2.23
			C410.76,230.44,409.77,227.64,409.77,227.64z"/>
		<path style="fill:#23344A;" d="M406.09,210.22c0,0,2.14-4.15,5.76-4.33c3.62-0.18,5.77,2.95,5.77,2.95s-1.41-3.53-5.77-3.53
			C407.5,205.31,406.09,210.22,406.09,210.22z"/>
		<path style="fill:#EEA886;" d="M418.27,232.29c0,0-0.13,7.19-5.84,7.41c-5.7,0.21-4.52-6.9-4.52-6.9S412.09,231.1,418.27,232.29z"
			/>
		<rect x="470.99" y="269.68" style="fill:#807066;" width="2.36" height="81.15"/>
		<rect x="366.88" y="269.68" style="fill:#807066;" width="2.36" height="81.15"/>
	</g>
	<g>
		<path style="fill:#FFFFFF;" d="M293.91,294.81c0,0-1.52,1.33-2.89,3.38c-1.37,2.05-4.99,2.16-5.15,4.96
			c-0.16,2.8,4.93,2.88,7.6,1.97c2.67-0.91,3.08-3.64,4.69-4.33c1.62-0.68,2.45-1.24,2.33-2.57c-0.13-1.33-1.02-3.5-1.02-3.5
			s-1,0.32-1.59,0.39C297.29,295.17,295.31,295.2,293.91,294.81z"/>
		<path style="fill:#D62937;" d="M312.21,219.03c0,0-1.02,6.08-1.85,10.1l0,0c-0.33,1.63-0.63,2.92-0.82,3.33
			c-0.24,0.51-2.16,2.57-4.51,4.99c-4.13,4.25-9.58,9.59-9.58,9.59l-2.13-4.04c0,0,4.84-5.67,8.12-9.46c1.52-1.75,2.7-3.1,2.92-3.29
			c0.69-0.61,1.48-6.66,2.6-11.64c1.12-4.98,3.36-7.74,3.36-7.74L312.21,219.03z"/>
		<path style="fill:#EEA886;" d="M305.03,237.45c-4.13,4.25-9.58,9.59-9.58,9.59l-2.13-4.04c0,0,4.84-5.67,8.12-9.46
			C302.45,234.04,304.3,235.21,305.03,237.45z"/>
		<g>
			<path style="fill:#FFFFFF;" d="M331.48,293.14c0,0,1.4,1.55,2.23,2.49c0.83,0.94,4,2.62,4.02,5.41c0.02,3.02-2.34,2.76-4.44,2.65
				c-2.1-0.11-3.8-1.56-4.69-3.27c-0.89-1.71-3.24-2.16-3.4-3.54c-0.16-1.38,1.09-3.87,1.09-3.87L331.48,293.14z"/>
		</g>
		<path style="fill:#5F8CC9;" d="M326.56,290.43l-0.27,2.57c0,0,4.38,1.91,5.19,0.14l-0.19-2.29L326.56,290.43z"/>
		<path style="fill:#5F8CC9;" d="M294.15,292.94l-0.24,1.86c0,0,2.65,0.93,5.56-0.08l0.06-1.66L294.15,292.94z"/>
		<path style="fill:#D62937;" d="M331.73,246.23c0.15,0.54-28.04,0-28.04,0s7.8-5.68,8.3-7.19c0.51-1.52-1.98-10.61-2.31-13.58
			c-0.26-2.37-0.91-12.97,0.65-14.59c1.63-1.69,7.51-3.47,7.51-3.47l8.57,0.32c0,0,1.41,0.3,2.43,0.77
			c1.01,0.47,6.79,2.53,7.73,5.42c0.94,2.89-5.77,12.18-5.77,12.18s-0.01,0.42-0.03,1.1l0,0c-0.03,0.91-0.06,2.3-0.1,3.8
			c-0.05,1.95-0.08,4.09-0.08,5.66C330.58,240.32,331.58,245.68,331.73,246.23z"/>
		<path style="fill:#1B4D8F;" d="M331.73,246.23c0,0,3.83,5.63,3.89,9.48c0.05,3.84-1.42,14.51-1.53,16.62
			c-0.11,2.11-2.1,19.71-2.1,19.71s-1.53,1.43-6.14-0.36c0,0-1.02-16.69-1.12-18.48c-0.11-1.79-0.11-10.02-1.14-11.21
			c-1.03-1.19-7.26-4.93-8.07-5.63c-0.81-0.7-14.97,2.67-16.45,3.06c-3.84,1-2.09,7.68-1.24,10.67c1.42,5.01,2.66,23.11,2.66,23.11
			s-2.74,1.17-7.31,0.18c0,0-9-32.67-9.29-35.92c-0.29-3.25-0.43-8.61,21.74-12.68L331.73,246.23z"/>
		<path style="fill:#EEA886;" d="M320.19,188.79c0,0-7.44-1.68-5.74,7.68c1.7,9.36,3.49,10.1,7.97,8.16
			c4.49-1.94,4.09-7.93,4.31-10.88C326.97,190.81,322.56,188.89,320.19,188.79z"/>
		<path style="fill:#EEA886;" d="M318.22,209.81c0,0,3.29,3.49,8.5,0.32c0,0-1.17-7.57-0.55-11.25c0.61-3.69-6.79,5.71-6.79,5.71
			c0.1,0.05,0.16,0.4,0.17,0.9c0.01,0.42-0.01,0.96-0.08,1.5C319.33,208.21,318.94,209.51,318.22,209.81z"/>
		<path style="fill:#EEA886;" d="M324.18,195.23c0.1-0.83,1.73-1.13,1.86,0.11c0.13,1.24-0.74,3.41-1.36,3.2
			C324.06,198.32,324.05,196.37,324.18,195.23z"/>
		<path style="fill:#3A3F47;" d="M326.38,198.56c0,0-0.19-2.95-1.27-3.04c-1.08-0.09-1.24,1.1-1.24,1.1l-1.09,0.21
			c0,0,0.34-2.58-0.73-3.04c-1.08-0.45-6.97,1.42-7.83,0.66c-0.86-0.76-0.46-6,1.1-6.72c1.56-0.72,5.88-2.33,9.04-0.19
			c0,0,2.46-0.28,2.83,1.71C327.54,191.23,327.05,197.08,326.38,198.56z"/>
		<path style="fill:#A77860;" d="M319.48,206.99c5.37-1.66,5.77-4.89,5.78-4.94c-1.77,3.04-5.7,3.44-5.7,3.44
			C319.57,205.91,319.55,206.44,319.48,206.99z"/>
		<path style="fill:#EEA886;" d="M328.92,208.53c0,0-3.93,7.83-10.29,7.33c-6.35-0.51-1.08-8.38-0.79-8.45
			C318.16,207.32,324.36,205.78,328.92,208.53z"/>
		<path style="fill:#E64053;" d="M300.46,245.83c0,0,19.47,2.4,31.26,0.4l-22.54-2.82C309.19,243.41,309.06,243.98,300.46,245.83z"
			/>
		<path style="fill:#EEA886;" d="M315.03,242.52l-1.45,0.73c0,0,0.33,2.3,1.12,3l1.63-0.41
			C316.33,245.84,315.99,243.32,315.03,242.52z"/>
		<path style="fill:#D62937;" d="M337.56,237.81c-0.29,0.34-4.12,1.87-8.44,3.54l0,0c-5.91,2.28-12.57,4.43-12.57,4.43l-1.51-3.25
			c0,0,6.98-3.79,11.69-6.45c2.23-1.26,3.95-2.26,4.19-2.49c0.76-0.72,0.95-1.88,0.4-3.9c-0.56-2.02-1.84-11.3-1.99-12.38
			c-0.14-1.08,0.36-3.97,3.07-4.12c2.71-0.14,4.09,0.62,4.09,0.62s0.68,0.28,1.18,6.85C338.17,227.23,338.24,237.01,337.56,237.81z"
			/>
		<path style="fill:#A32D3B;" d="M330.76,227.18L330.76,227.18c-0.03,0.91-0.06,2.3-0.1,3.8c-2.64-6.48-1.12-11.65-1.09-11.73
			C329.29,221.01,330.74,227.09,330.76,227.18z"/>
		<path style="fill:#A32D3B;" d="M310.36,229.14L310.36,229.14c-0.33,1.63-0.63,2.92-0.82,3.33c-0.9-4.37-0.09-9.96-0.09-9.96
			C309.57,225.17,310.36,229.14,310.36,229.14z"/>
		<path style="fill:#EEA886;" d="M329.11,241.35L329.11,241.35c-5.91,2.28-12.78,4.5-12.78,4.5l-1.3-3.32c0,0,6.98-3.79,11.69-6.45
			C326.72,236.07,328.43,236.91,329.11,241.35z"/>
		<polygon style="fill:#5E5853;" points="314.61,246.04 286.93,245.63 300.9,252.72 		"/>
		<polygon style="fill:#91887F;" points="300.9,252.72 314.61,247.42 314.61,246.04 299.82,251.37 		"/>
		<g>
			<path style="fill:#EEA886;" d="M313.89,243.31c0,0-1.73-0.27-2.92-0.55c-0.92-0.21-3.22,0.08-3.81,0.67
				c-0.59,0.59-2.45,4.73-2.8,4.98c-0.35,0.25,0.18,0.84,0.8,0.54c0,0,0.57,1.81,1.97,1.13c1.4-0.68,2.35-2.16,3.09-2.42
				c0.73-0.26,5.01-1.57,5.01-1.57S314.99,242.87,313.89,243.31z"/>
		</g>
		<g>
			<path style="fill:#EEA886;" d="M307.58,243.16c0,0-1.11,0.54-1.4,0.78c-0.29,0.24-1.46,1.12-1.75,1.33
				c-0.28,0.21,0.43,0.79,2.53-0.12C309.06,244.24,307.58,243.16,307.58,243.16z"/>
		</g>
		<polygon style="fill:#6E6760;" points="300.9,252.72 292.67,230.25 266.14,230.68 273.98,251.39 		"/>
		<path style="fill:#807066;" d="M284.18,240.19c0.81,1.62,0.56,3.38-0.55,3.94c-1.11,0.56-2.67-0.31-3.48-1.92
			c-0.81-1.62-0.56-3.38,0.54-3.94C281.82,237.71,283.37,238.57,284.18,240.19z"/>
	</g>
</g>
</svg>
