<?xml version="1.0" encoding="utf-8"?>
<!-- Generator: Adobe Illustrator 26.2.0, SVG Export Plug-In . SVG Version: 6.00 Build 0)  -->
<svg version="1.1" xmlns="http://www.w3.org/2000/svg" xmlns:xlink="http://www.w3.org/1999/xlink" x="0px" y="0px"
	 viewBox="0 0 343.91 242.35" style="enable-background:new 0 0 343.91 242.35;" xml:space="preserve">
<g id="Layer_2">
</g>
<g id="Layer_3">
</g>
<g id="Layer_1">
	<g>
		<g>
			<path style="fill:#141C26;" d="M103.37,201.44l24.4,14.09h15.91l23.91-13.81v-9.19l-24.4-14.09c-4.55,0-7.1,0-11.64,0
				l-28.18,9.99C103.37,191.06,103.37,198.81,103.37,201.44z"/>
			<path style="fill:#456185;" d="M103.37,192.88l24.4,14.09h15.91l23.91-13.81v-9.19l-24.4-14.09c-4.55,0-7.1,0-11.64,0
				l-28.18,16.27C103.37,188.79,103.37,190.26,103.37,192.88z"/>
			<polygon style="fill:#FBB03B;" points="128.2,205.41 104.94,191.98 104.94,187.07 131.98,171.46 142.78,171.46 166.03,184.88 
				166.03,192.26 143.27,205.41 			"/>
			<g>
				<path style="fill:#FFFFFF;" d="M136.67,173.62c-0.61-0.35-1.61-0.35-2.22,0c-0.61,0.35-0.61,0.93,0,1.28
					c0.51,0.3,1.29,0.34,1.89,0.14l3.39,1.96l-0.47,4.04l-6.65-3.84c0.34-0.35,0.27-0.8-0.25-1.09c-0.61-0.35-1.61-0.35-2.22,0
					c-0.61,0.35-0.61,0.93,0,1.28c0.51,0.3,1.29,0.34,1.89,0.14l10.42,6.01l-6.99,0.27l-7.16-4.13c0.34-0.35,0.27-0.8-0.25-1.09
					c-0.61-0.35-1.61-0.35-2.22,0c-0.61,0.35-0.61,0.93,0,1.28c0.51,0.3,1.29,0.34,1.89,0.14l7.29,4.21l0.13,0.08l3.51,2.02
					l-0.54,4.66l3.26,1.88l-6.99,0.27l-3.5-2.02l0.54-4.66l-7.42-4.28c0.34-0.35,0.27-0.8-0.25-1.09c-0.61-0.35-1.61-0.35-2.22,0
					c-0.61,0.35-0.61,0.93,0,1.28c0.51,0.3,1.29,0.34,1.89,0.14l7.16,4.13l-0.54,4.66l3.26,1.88l-6.99,0.27l-3.51-2.02l0.54-4.66
					l-3.65-2.11c0.34-0.35,0.27-0.8-0.25-1.09c-0.61-0.35-1.61-0.35-2.22,0c-0.61,0.35-0.61,0.93,0,1.28
					c0.51,0.3,1.29,0.34,1.89,0.14l3.39,1.96l-0.47,4.04l-6.65-3.84c0.34-0.35,0.27-0.8-0.25-1.09c-0.61-0.35-1.61-0.35-2.22,0
					c-0.61,0.35-0.61,0.93,0,1.28c0.51,0.3,1.29,0.34,1.89,0.14l10.42,6.01l-6.99,0.27l-7.16-4.13c0.34-0.35,0.27-0.8-0.25-1.09
					c-0.61-0.35-1.61-0.35-2.22,0c-0.61,0.35-0.61,0.93,0,1.28c0.51,0.3,1.29,0.34,1.89,0.14l7.42,4.28l8.07-0.31l7.53,4.35
					l16.15-0.62l3.64,2.1l0.58-0.33l-3.64-2.1l0.54-4.66l-3.77-2.17l0.54-4.66l-7.53-4.35l0.54-4.66l-3.65-2.11
					C137.25,174.37,137.18,173.92,136.67,173.62z M122.1,182.03c-0.29-0.17-0.29-0.45,0-0.62c0.29-0.17,0.77-0.17,1.07,0
					c0.29,0.17,0.29,0.45,0,0.62C122.87,182.2,122.4,182.2,122.1,182.03z M117.8,184.52c-0.29-0.17-0.29-0.45,0-0.62
					c0.29-0.17,0.77-0.17,1.07,0c0.29,0.17,0.29,0.45,0,0.62C118.57,184.69,118.09,184.69,117.8,184.52z M113.49,187.01
					c-0.29-0.17-0.29-0.45,0-0.62c0.29-0.17,0.77-0.17,1.07,0c0.29,0.17,0.29,0.45,0,0.62
					C114.26,187.17,113.78,187.17,113.49,187.01z M109.18,189.49c-0.29-0.17-0.29-0.45,0-0.61c0.29-0.17,0.77-0.17,1.07,0
					c0.29,0.17,0.29,0.45,0,0.61C109.95,189.66,109.48,189.66,109.18,189.49z M130.72,177.06c-0.29-0.17-0.29-0.45,0-0.62
					c0.29-0.17,0.77-0.17,1.07,0c0.29,0.17,0.29,0.45,0,0.62C131.49,177.23,131.01,177.23,130.72,177.06z M126.41,179.55
					c-0.29-0.17-0.29-0.45,0-0.62c0.29-0.17,0.77-0.17,1.07,0c0.29,0.17,0.29,0.45,0,0.62C127.18,179.72,126.7,179.72,126.41,179.55
					z M133.83,197.8l-6.77-3.91l6.99-0.27l8.07-0.31l3.64,2.1l3.13,1.81L133.83,197.8z M146.18,190.68l3.77,2.17l-0.47,4.04
					l-3.13-1.81l-3.9-2.25l-3.5-2.02l0.54-4.66l-3.26-1.88l6.99-0.27l3.5,2.02L146.18,190.68z M136.09,174.57
					c-0.29,0.17-0.77,0.17-1.07,0c-0.29-0.17-0.29-0.45,0-0.62c0.29-0.17,0.77-0.17,1.07,0
					C136.38,174.13,136.38,174.4,136.09,174.57z"/>
				<path style="fill:#FFFFFF;" d="M153.3,199.91l-3.67-2.12l-16.15,0.62c-0.03-0.02-7.53-4.35-7.53-4.35l-8.07,0.31
					c-0.03-0.02-7.4-4.27-7.4-4.27c-0.64,0.19-1.42,0.13-1.94-0.17c-0.34-0.19-0.52-0.46-0.52-0.75c0-0.29,0.18-0.55,0.52-0.75
					c0.65-0.37,1.7-0.37,2.34,0c0.3,0.17,0.48,0.4,0.51,0.66c0.02,0.17-0.03,0.35-0.14,0.51l7,4.04l6.53-0.25l-10-5.77
					c-0.64,0.19-1.43,0.13-1.94-0.17c-0.34-0.19-0.52-0.46-0.52-0.75c0-0.29,0.18-0.55,0.52-0.75c0.65-0.37,1.7-0.37,2.34,0
					c0.3,0.17,0.48,0.4,0.51,0.66c0.02,0.17-0.03,0.35-0.14,0.51l6.36,3.67l0.44-3.77l-3.27-1.89c-0.64,0.19-1.42,0.13-1.94-0.17
					c-0.34-0.19-0.52-0.46-0.52-0.75c0-0.29,0.18-0.55,0.52-0.75c0.65-0.37,1.7-0.37,2.34,0c0.29,0.17,0.48,0.4,0.51,0.66
					c0.02,0.17-0.03,0.35-0.14,0.51l3.59,2.08l-0.54,4.66l3.4,1.97l6.53-0.25l-2.96-1.71l0.54-4.66l-7.04-4.06
					c-0.64,0.19-1.43,0.13-1.94-0.17c-0.34-0.19-0.52-0.46-0.52-0.75c0-0.29,0.18-0.55,0.52-0.75c0.65-0.37,1.7-0.37,2.34,0
					c0.3,0.17,0.48,0.4,0.51,0.66c0.02,0.17-0.03,0.35-0.14,0.51l7.36,4.25l-0.54,4.66l3.4,1.97l6.53-0.25l-2.96-1.71l0.54-4.66
					l-10.81-6.24c-0.64,0.19-1.43,0.13-1.94-0.17c-0.34-0.19-0.52-0.46-0.52-0.75c0-0.29,0.18-0.55,0.52-0.75
					c0.65-0.37,1.7-0.37,2.34,0c0.3,0.17,0.48,0.4,0.51,0.66c0.02,0.17-0.03,0.35-0.14,0.51l7,4.04l6.53-0.25l-10-5.77
					c-0.64,0.19-1.43,0.13-1.94-0.17c-0.34-0.19-0.52-0.46-0.52-0.75c0-0.29,0.18-0.55,0.52-0.75c0.65-0.37,1.7-0.37,2.34,0
					c0.3,0.17,0.48,0.4,0.51,0.66c0.02,0.17-0.03,0.35-0.14,0.51l6.36,3.67l0.44-3.77l-3.27-1.89c-0.64,0.19-1.43,0.13-1.94-0.17
					c-0.34-0.19-0.52-0.46-0.52-0.75c0-0.29,0.18-0.55,0.52-0.75c0.65-0.37,1.7-0.37,2.34,0c0.3,0.17,0.48,0.4,0.51,0.66
					c0.02,0.17-0.02,0.35-0.14,0.51l3.59,2.08l-0.54,4.66l7.53,4.35l-0.54,4.66l3.77,2.17l-0.54,4.66l3.75,2.17L153.3,199.91z
					 M149.69,197.54c0.03,0.02,3.61,2.08,3.61,2.08l0.33-0.19l-3.52-2.03l0.54-4.66l-3.77-2.17l0.54-4.66l-7.53-4.35l0.54-4.66
					l-3.72-2.15l0.11-0.11c0.13-0.13,0.19-0.28,0.17-0.42c-0.02-0.18-0.16-0.34-0.39-0.47c-0.58-0.33-1.52-0.33-2.1,0
					c-0.26,0.15-0.4,0.34-0.4,0.53c0,0.2,0.14,0.39,0.4,0.53c0.47,0.27,1.2,0.33,1.79,0.13l0.05-0.02l3.51,2.03l-0.5,4.3l-0.16-0.09
					l-6.79-3.92l0.11-0.11c0.13-0.13,0.19-0.28,0.17-0.42c-0.02-0.18-0.16-0.34-0.39-0.48c-0.58-0.33-1.52-0.33-2.1,0
					c-0.26,0.15-0.4,0.34-0.4,0.53c0,0.2,0.14,0.39,0.4,0.53c0.47,0.27,1.2,0.32,1.79,0.13l0.05-0.02l0.05,0.03l10.79,6.23
					l-7.45,0.29c-0.03-0.02-7.33-4.23-7.33-4.23l0.11-0.11c0.13-0.13,0.19-0.28,0.17-0.42c-0.02-0.18-0.16-0.34-0.39-0.48
					c-0.58-0.33-1.52-0.33-2.1,0c-0.26,0.15-0.4,0.34-0.4,0.53c0,0.2,0.14,0.39,0.4,0.53c0.47,0.27,1.2,0.33,1.79,0.13l0.05-0.02
					l0.05,0.03l10.99,6.35l-0.54,4.66l3.56,2.06l-7.45,0.29c-0.03-0.02-3.61-2.08-3.61-2.08l0.54-4.66l-7.49-4.32l0.11-0.11
					c0.13-0.13,0.19-0.28,0.17-0.42c-0.02-0.18-0.16-0.34-0.39-0.48c-0.58-0.34-1.52-0.34-2.1,0c-0.26,0.15-0.4,0.34-0.4,0.53
					c0,0.2,0.14,0.39,0.4,0.53c0.47,0.27,1.2,0.33,1.79,0.13l0.05-0.02l0.05,0.03l7.23,4.17l-0.54,4.66l3.56,2.06l-7.45,0.29
					c-0.03-0.02-3.61-2.08-3.61-2.08l0.54-4.66l-3.72-2.15l0.11-0.11c0.13-0.13,0.19-0.28,0.17-0.42c-0.02-0.17-0.16-0.34-0.39-0.47
					c-0.58-0.33-1.52-0.33-2.1,0c-0.26,0.15-0.4,0.34-0.4,0.53c0,0.2,0.14,0.39,0.4,0.53c0.47,0.27,1.2,0.33,1.79,0.13l0.05-0.02
					l3.51,2.03l-0.5,4.3l-0.16-0.09l-6.79-3.92l0.11-0.11c0.13-0.13,0.19-0.28,0.17-0.42c-0.02-0.18-0.16-0.34-0.39-0.48
					c-0.58-0.33-1.52-0.33-2.1,0c-0.26,0.15-0.4,0.34-0.4,0.53c0,0.2,0.14,0.39,0.4,0.53c0.47,0.27,1.21,0.32,1.79,0.13l0.05-0.02
					l0.05,0.03l10.79,6.23l-7.45,0.29c-0.03-0.02-7.33-4.23-7.33-4.23l0.11-0.11c0.13-0.13,0.19-0.28,0.17-0.42
					c-0.02-0.18-0.16-0.34-0.39-0.48c-0.58-0.33-1.52-0.33-2.1,0c-0.26,0.15-0.4,0.34-0.4,0.53c0,0.2,0.14,0.39,0.4,0.53
					c0.47,0.27,1.2,0.33,1.79,0.13l0.05-0.02l0.05,0.03l7.39,4.27l8.07-0.31c0.03,0.02,7.53,4.35,7.53,4.35L149.69,197.54z
					 M133.8,197.93c-0.03-0.02-7.17-4.14-7.17-4.14l15.53-0.6c0.03,0.02,7.17,4.14,7.17,4.14L133.8,197.93z M127.5,194l6.37,3.68
					l14.6-0.56l-6.37-3.68L127.5,194z M149.58,197.09l-10.77-6.22l0.54-4.66l-3.56-2.06l7.45-0.29c0.03,0.02,3.61,2.08,3.61,2.08
					l-0.54,4.66l3.77,2.18L149.58,197.09z M139.07,190.74l10.3,5.95l0.44-3.77l-3.77-2.18l0.54-4.66l-3.4-1.97l-6.53,0.25l2.96,1.71
					L139.07,190.74z M109.71,189.74c-0.21,0-0.43-0.05-0.59-0.14c-0.18-0.11-0.28-0.25-0.28-0.41c0-0.16,0.1-0.31,0.28-0.41
					c0.33-0.19,0.86-0.19,1.19,0c0.18,0.11,0.28,0.25,0.28,0.41c0,0.16-0.1,0.31-0.28,0.41
					C110.14,189.69,109.93,189.74,109.71,189.74z M109.71,188.87c-0.17,0-0.34,0.04-0.47,0.11c-0.1,0.06-0.16,0.13-0.16,0.2
					c0,0.07,0.06,0.14,0.16,0.2c0.26,0.15,0.69,0.15,0.94,0c0.1-0.06,0.16-0.13,0.16-0.2c0-0.07-0.06-0.14-0.16-0.2
					C110.06,188.91,109.89,188.87,109.71,188.87z M114.02,187.26c-0.21,0-0.43-0.05-0.59-0.14c-0.18-0.11-0.28-0.25-0.28-0.41
					c0-0.16,0.1-0.31,0.28-0.41c0.33-0.19,0.85-0.19,1.19,0c0.18,0.11,0.28,0.25,0.28,0.41c0,0.16-0.1,0.31-0.28,0.41
					C114.45,187.21,114.23,187.26,114.02,187.26z M114.02,186.39c-0.17,0-0.34,0.04-0.47,0.11c-0.1,0.06-0.16,0.13-0.16,0.2
					c0,0.07,0.06,0.14,0.16,0.2c0.26,0.15,0.68,0.15,0.94,0c0.1-0.06,0.16-0.13,0.16-0.2c0-0.07-0.06-0.14-0.16-0.2
					C114.36,186.42,114.19,186.39,114.02,186.39z M118.33,184.77c-0.21,0-0.43-0.05-0.59-0.14c-0.18-0.11-0.28-0.25-0.28-0.41
					c0-0.16,0.1-0.31,0.28-0.41c0.33-0.19,0.86-0.19,1.19,0c0.18,0.11,0.28,0.25,0.28,0.41c0,0.16-0.1,0.31-0.28,0.41
					C118.76,184.72,118.54,184.77,118.33,184.77z M118.33,183.9c-0.17,0-0.34,0.04-0.47,0.11c-0.1,0.06-0.16,0.13-0.16,0.2
					c0,0.07,0.06,0.14,0.16,0.2c0.26,0.15,0.69,0.15,0.94,0c0.1-0.06,0.16-0.13,0.16-0.2c0-0.07-0.06-0.14-0.16-0.2
					C118.67,183.94,118.5,183.9,118.33,183.9z M122.63,182.28c-0.21,0-0.43-0.05-0.59-0.14c-0.18-0.1-0.28-0.25-0.28-0.41
					c0-0.16,0.1-0.31,0.28-0.42c0.33-0.19,0.86-0.19,1.19,0c0.18,0.11,0.28,0.25,0.28,0.42c0,0.16-0.1,0.31-0.28,0.41
					C123.06,182.24,122.85,182.28,122.63,182.28z M122.63,181.41c-0.17,0-0.34,0.04-0.47,0.11c-0.1,0.06-0.16,0.13-0.16,0.2
					c0,0.07,0.06,0.14,0.16,0.2c0.26,0.15,0.69,0.15,0.94,0c0.1-0.06,0.16-0.13,0.16-0.2c0-0.07-0.06-0.14-0.16-0.2
					C122.98,181.45,122.81,181.41,122.63,181.41z M126.94,179.8c-0.21,0-0.43-0.05-0.59-0.14c-0.18-0.1-0.28-0.25-0.28-0.41
					s0.1-0.31,0.28-0.42c0.33-0.19,0.85-0.19,1.19,0c0.18,0.11,0.28,0.25,0.28,0.42s-0.1,0.31-0.28,0.41
					C127.37,179.75,127.16,179.8,126.94,179.8z M126.94,178.93c-0.17,0-0.34,0.04-0.47,0.11c-0.1,0.06-0.16,0.13-0.16,0.2
					s0.06,0.14,0.16,0.2c0.26,0.15,0.69,0.15,0.94,0c0.1-0.06,0.16-0.13,0.16-0.2s-0.06-0.14-0.16-0.2
					C127.29,178.96,127.11,178.93,126.94,178.93z M131.25,177.31c-0.21,0-0.43-0.05-0.59-0.14c-0.18-0.1-0.28-0.25-0.28-0.41
					c0-0.16,0.1-0.31,0.28-0.42c0.33-0.19,0.86-0.19,1.19,0c0.18,0.11,0.28,0.25,0.28,0.42c0,0.16-0.1,0.31-0.28,0.41
					C131.68,177.26,131.46,177.31,131.25,177.31z M131.25,176.44c-0.17,0-0.34,0.04-0.47,0.11c-0.1,0.06-0.16,0.13-0.16,0.2
					s0.06,0.14,0.16,0.2c0.26,0.15,0.69,0.15,0.94,0c0.1-0.06,0.16-0.13,0.16-0.2s-0.06-0.14-0.16-0.2
					C131.59,176.48,131.42,176.44,131.25,176.44z M135.55,174.82c-0.21,0-0.43-0.05-0.59-0.14c-0.18-0.1-0.28-0.25-0.28-0.41
					c0-0.16,0.1-0.31,0.28-0.41c0.33-0.19,0.86-0.19,1.19,0c0.18,0.1,0.28,0.25,0.28,0.41c0,0.16-0.1,0.31-0.28,0.41
					C135.98,174.78,135.77,174.82,135.55,174.82z M135.55,173.95c-0.17,0-0.34,0.04-0.47,0.11c-0.1,0.06-0.16,0.13-0.16,0.2
					c0,0.07,0.06,0.14,0.16,0.2c0.26,0.15,0.69,0.15,0.94,0c0.1-0.06,0.16-0.13,0.16-0.2c0-0.07-0.06-0.14-0.16-0.2
					C135.9,173.99,135.73,173.95,135.55,173.95z"/>
			</g>
			<g>
				<path style="fill:#FBB03B;" d="M207.65,228.67l-2.99,5.18l-1.42,2.45l-48.67-28.1c-0.56-0.33-0.91-1.03-0.91-2.02
					c0-0.56,0.11-1.16,0.31-1.75c0.51-1.49,1.57-2.93,2.8-3.64c0.86-0.49,1.64-0.54,2.2-0.22L207.65,228.67z"/>
				<path style="fill:#456185;" d="M204.66,233.85l-1.42,2.45l-48.67-28.1c-0.56-0.33-0.91-1.03-0.91-2.02
					c0-0.56,0.11-1.16,0.31-1.75L204.66,233.85z"/>
				<path style="fill:#141C26;" d="M208.56,230.69c0-1.99-1.39-2.79-3.12-1.8c-1.72,0.99-3.12,3.41-3.12,5.4s1.39,2.79,3.12,1.8
					C207.17,235.09,208.56,232.68,208.56,230.69z"/>
			</g>
			<rect x="127.78" y="206.97" style="fill:#456185;" width="15.91" height="8.55"/>
			<g>
				<g>
					<path style="fill:#141C26;" d="M180.5,221.11l-2.78-1.61l-3.58,2.08c-1.54,0.9-2.98,1.8-4.23,2.61l3.82-5.13l0.01-1.87
						l-2.91-1.68l-16.21,9.42l-0.01,1.87l2.78,1.61l3.65-2.12c1.5-0.87,2.81-1.66,3.94-2.36l-3.59,4.92l-0.01,1.87l2.9,1.68
						l16.21-9.42L180.5,221.11z"/>
					<polygon style="fill:#141C26;" points="191.68,227.57 190.4,228.32 190.4,226.83 183.31,222.73 167.1,232.15 167.1,234.02 
						170.27,235.85 176.95,231.97 180.63,234.09 183.25,232.57 183.26,230.7 181.19,229.51 183.74,228.03 187.65,230.29 
						188.77,229.64 188.77,231.13 190.04,231.86 178.36,238.65 178.35,240.52 181.52,242.35 194.82,234.62 197.72,236.3 
						200.63,234.61 200.64,232.74 					"/>
					<g>
						<g>
							<path style="fill:#2D4057;" d="M180.5,221.11l-16.21,9.42l-2.9-1.68l3.66-5.02c0.84-1.1,2.13-2.72,3.23-3.79l-0.05-0.03
								c-1.56,0.99-3.94,2.51-7.19,4.4l-3.65,2.12l-2.78-1.61l16.21-9.42l2.91,1.68l-3.83,5.14c-0.77,1.01-2.06,2.68-2.99,3.76
								l0.05,0.03c1.61-1.05,4.21-2.81,7.18-4.54l3.58-2.08L180.5,221.11z"/>
						</g>
						<g>
							<path style="fill:#FBB03B;" d="M180.5,221.11l-16.21,9.42l-2.9-1.68l3.66-5.02c0.84-1.1,2.13-2.72,3.23-3.79l-0.05-0.03
								c-1.56,0.99-3.94,2.51-7.19,4.4l-3.65,2.12l-2.78-1.61l16.21-9.42l2.91,1.68l-3.83,5.14c-0.77,1.01-2.06,2.68-2.99,3.76
								l0.05,0.03c1.61-1.05,4.21-2.81,7.18-4.54l3.58-2.08L180.5,221.11z"/>
						</g>
					</g>
					<g>
						<g>
							<polygon style="fill:#2D4057;" points="190.4,226.83 187.66,228.42 183.74,226.16 179.58,228.58 183.26,230.7 180.64,232.22 
								176.96,230.1 170.28,233.98 167.1,232.15 183.31,222.73 							"/>
						</g>
						<g>
							<polygon style="fill:#FBB03B;" points="190.4,226.83 187.66,228.42 183.74,226.16 179.58,228.58 183.26,230.7 180.64,232.22 
								176.96,230.1 170.28,233.98 167.1,232.15 183.31,222.73 							"/>
						</g>
					</g>
					<g>
						<g>
							<polygon style="fill:#2D4057;" points="200.64,232.74 197.73,234.43 194.82,232.75 181.53,240.48 178.36,238.65 
								191.66,230.92 188.77,229.26 191.68,227.57 							"/>
						</g>
						<g>
							<polygon style="fill:#FBB03B;" points="200.64,232.74 197.73,234.43 194.82,232.75 181.53,240.48 178.36,238.65 
								191.66,230.92 188.77,229.26 191.68,227.57 							"/>
						</g>
					</g>
				</g>
				<polygon style="fill:#456185;" points="154.62,224.94 154.61,226.81 157.39,228.42 157.4,226.55 				"/>
				<polygon style="fill:#456185;" points="161.39,228.86 161.39,230.73 164.29,232.4 164.3,230.53 				"/>
				<polygon style="fill:#456185;" points="167.1,232.15 167.1,234.02 170.27,235.85 170.28,233.98 				"/>
				<polygon style="fill:#456185;" points="178.36,238.65 178.35,240.52 181.52,242.35 181.53,240.48 				"/>
			</g>
		</g>
		<path style="opacity:0.2;fill:#2D4057;" d="M192.24,160.09l-14.89-8.6l2.26-19.45l-15.71-9.07l2.25-19.45l-31.43-18.15l2.26-19.45
			l-15.06-8.69c1.26-1.58,0.77-3.51-1.48-4.81c-2.89-1.67-7.58-1.67-10.47,0c-2.89,1.67-2.89,4.38,0,6.04
			c2.25,1.3,5.59,1.57,8.32,0.85l13.43,7.75l-1.8,15.53l-25.96-14.99c1.26-1.58,0.77-3.51-1.48-4.81c-2.89-1.67-7.58-1.67-10.47,0
			c-2.89,1.67-2.89,4.38,0,6.04c2.25,1.3,5.59,1.57,8.32,0.85l41.69,24.07l-26.91,1.04L85.98,77.99c1.26-1.58,0.77-3.51-1.48-4.81
			c-2.89-1.67-7.58-1.67-10.47,0s-2.89,4.38,0,6.04c2.25,1.3,5.59,1.57,8.32,0.85l29.96,17.3l14.89,8.6l-2.25,19.45l12.55,7.25
			l-26.9,1.04l-14.07-8.12l2.25-19.45L68.01,88.36c1.26-1.58,0.77-3.51-1.48-4.81c-2.89-1.67-7.58-1.67-10.47,0
			c-2.89,1.67-2.89,4.38,0,6.04c2.25,1.3,5.59,1.57,8.32,0.85l29.14,16.82l-2.25,19.45l12.55,7.25L76.92,135l-14.07-8.13l2.26-19.45
			l-15.06-8.69c1.26-1.58,0.77-3.51-1.48-4.81c-2.89-1.67-7.58-1.67-10.47,0c-2.89,1.67-2.89,4.38,0,6.04
			c2.25,1.3,5.59,1.57,8.32,0.85l13.43,7.75l-1.8,15.53l-25.96-14.99c1.26-1.58,0.77-3.51-1.48-4.81c-2.89-1.67-7.58-1.67-10.47,0
			c-2.89,1.67-2.89,4.38,0,6.04c2.25,1.3,5.59,1.57,8.32,0.85l41.69,24.07l-26.91,1.04l-29.13-16.82c1.26-1.58,0.77-3.51-1.48-4.81
			c-2.89-1.67-7.58-1.67-10.47,0c-2.89,1.67-2.89,4.38,0,6.04c2.25,1.3,5.59,1.57,8.32,0.85l30.78,17.77l33.68-1.3l31.43,18.14
			l67.36-2.6l14.89,8.6L192.24,160.09z M113.59,56.39c-0.89-0.52-0.89-1.35,0-1.87c0.89-0.52,2.35-0.52,3.24,0
			c0.89,0.51,0.89,1.35,0,1.87C115.93,56.9,114.48,56.9,113.59,56.39z M59.68,87.51c-0.89-0.52-0.89-1.35,0-1.87
			c0.89-0.51,2.35-0.51,3.24,0c0.89,0.51,0.89,1.35,0,1.87C62.03,88.02,60.57,88.02,59.68,87.51z M41.72,97.88
			c-0.89-0.51-0.89-1.35,0-1.87c0.89-0.51,2.35-0.51,3.24,0c0.89,0.51,0.89,1.35,0,1.87C44.06,98.4,42.61,98.4,41.72,97.88z
			 M5.78,118.63c-0.89-0.52-0.89-1.35,0-1.87c0.89-0.51,2.35-0.51,3.24,0c0.89,0.52,0.89,1.35,0,1.87
			C8.13,119.14,6.67,119.14,5.78,118.63z M95.62,66.76c-0.89-0.51-0.89-1.35,0-1.87c0.89-0.52,2.35-0.52,3.24,0
			c0.89,0.51,0.89,1.35,0,1.87C97.96,67.28,96.51,67.28,95.62,66.76z M77.65,77.14c-0.89-0.52-0.89-1.35,0-1.87
			c0.89-0.51,2.35-0.51,3.24,0c0.89,0.51,0.89,1.35,0,1.87C80,77.65,78.54,77.65,77.65,77.14z M130.21,124.27l2.25-19.45
			l-12.55-7.25l26.91-1.04l14.07,8.12l-2.25,19.45l15.71,9.07l-1.8,15.53l-28.27-16.32L130.21,124.27z M23.75,108.26
			c-0.89-0.51-0.89-1.35,0-1.87c0.89-0.51,2.35-0.51,3.24,0c0.89,0.51,0.89,1.35,0,1.87C26.09,108.77,24.64,108.77,23.75,108.26z
			 M108.35,153.14l-26.62-15.37l26.9-1.04c0,0,33.68-1.3,33.68-1.3l7.68,4.43l7.22,4.17l11.73,6.77L108.35,153.14z"/>
		<g>
			<path style="fill:#F09911;" d="M287.1,167.05v8.7c0.11,6.35-3.43,12.7-10.64,17.9c-1.14,0.86-2.4,1.66-3.72,2.46
				c-0.86,0.51-1.77,0.97-2.69,1.37c-4.81,2.46-10.3,4.23-16.07,5.32c-2.12,0.46-4.29,0.8-6.46,1.09c-1.2,0.11-2.4,0.23-3.6,0.29
				c-6.12,0.46-12.41,0.17-18.42-0.74c-7.66-1.14-14.93-3.38-21.05-6.75c-0.4-0.17-0.8-0.34-1.14-0.57c-4-2.35-7.15-4.92-9.44-7.72
				c-3.38-3.95-4.98-8.29-4.92-12.64v-8.7H287.1z"/>
			<path style="opacity:0.15;fill:#FFFFFF;" d="M253.98,202.8c-2.12,0.46-4.29,0.8-6.46,1.09l-1.03-32.03
				c2.06,0.06,4.12,0.23,6.12,0.46L253.98,202.8z"/>
			<path style="opacity:0.15;fill:#FFFFFF;" d="M243.91,204.17c-6.12,0.46-12.41,0.17-18.42-0.74l0.11-29.4
				c5.55-1.37,11.5-2.12,17.56-2.23L243.91,204.17z"/>
			<path style="opacity:0.15;fill:#FFFFFF;" d="M204.44,196.68c-0.4-0.17-0.8-0.34-1.14-0.57c-4-2.35-7.15-4.92-9.44-7.72v-27.97
				c3.2-0.4,6.41-0.69,9.72-0.74l0.17,7.38L204.44,196.68z"/>
			<path style="opacity:0.15;fill:#FFFFFF;" d="M276.46,162.64v31c-1.14,0.86-2.4,1.66-3.72,2.46c-0.86,0.51-1.77,0.97-2.69,1.37
				l0.11-30.43v-3.26C272.23,163.27,274.34,162.93,276.46,162.64z"/>
			<path style="fill:#F09911;" d="M272.73,148.14c19.17,11.07,19.17,29.01,0,40.07c-19.17,11.07-50.24,11.07-69.41,0
				c-19.17-11.07-19.17-29.01,0-40.07C222.49,137.07,253.56,137.07,272.73,148.14z"/>
			<path style="fill:#FFD99E;" d="M272.73,147.03c19.17,11.07,19.17,29.01,0,40.07c-19.17,11.07-50.24,11.07-69.41,0
				c-19.17-11.07-19.17-29.01,0-40.07C222.49,135.96,253.56,135.96,272.73,147.03z"/>
			<path style="fill:#F09911;" d="M282.61,167.06c0,0.36-0.02,0.72-0.05,1.07c-0.47,5.73-4.71,11.25-12.07,15.66
				c-8.6,5.15-20.13,7.97-32.46,7.97s-23.86-2.83-32.45-7.97c-7.36-4.41-11.62-9.92-12.08-15.66c-0.03-0.35-0.04-0.71-0.04-1.07
				c0-6.1,4.31-12.04,12.13-16.72c8.59-5.15,20.12-7.97,32.45-7.97s23.86,2.82,32.46,7.97
				C278.31,155.02,282.61,160.96,282.61,167.06z"/>
			<path style="fill:#FBB03B;" d="M282.56,168.13c-0.47,5.73-4.71,11.25-12.07,15.66c-8.6,5.15-20.13,7.97-32.46,7.97
				s-23.86-2.83-32.45-7.97c-7.36-4.41-11.62-9.92-12.08-15.66c0.47-5.73,4.72-11.25,12.08-15.65c8.59-5.14,20.12-7.97,32.45-7.97
				s23.86,2.83,32.46,7.97C277.85,156.88,282.09,162.4,282.56,168.13z"/>
			<path style="opacity:0.2;fill:#FFFFFF;" d="M194.42,168.13c0.43,5.21,4.09,10.23,10.38,14.37l-2.67-26.81
				C197.48,159.43,194.78,163.71,194.42,168.13z"/>
			<path style="opacity:0.2;fill:#FFFFFF;" d="M239.84,145.14l7.06,45.36c2.14-0.25,4.23-0.58,6.27-0.99l-7.27-43.89
				C243.9,145.41,241.91,145.19,239.84,145.14z"/>
			<path style="opacity:0.2;fill:#FFFFFF;" d="M270.43,153.3c-0.25-0.16-0.47-0.32-0.73-0.48c-2.1-1.26-4.44-2.3-6.88-3.24
				l6.58,34.01c0.09-0.06,0.2-0.1,0.3-0.16c2.33-1.4,4.31-2.92,5.98-4.51L270.43,153.3z"/>
			<path style="opacity:0.2;fill:#FFFFFF;" d="M219.7,147.37l5.11,42.59c4.22,0.76,8.59,1.28,13.14,1.28c1.81,0,3.56-0.18,5.33-0.31
				l-6.67-45.81C230.68,145.23,224.96,145.98,219.7,147.37z"/>
			<path style="fill:#FFFFFF;" d="M240.66,146.27c-1.04-0.6-2.73-0.6-3.76,0c-1.04,0.6-1.04,1.57,0,2.17
				c0.81,0.47,2.01,0.56,2.99,0.3l4.83,2.79l-0.65,5.58l-9.34-5.39c0.45-0.57,0.28-1.26-0.53-1.73c-1.04-0.6-2.73-0.6-3.76,0
				c-1.04,0.6-1.04,1.57,0,2.17c0.81,0.47,2.01,0.56,2.99,0.3l14.98,8.65l-9.67,0.37l-10.47-6.05c0.45-0.57,0.28-1.26-0.53-1.73
				c-1.04-0.6-2.73-0.6-3.76,0c-1.04,0.6-1.04,1.57,0,2.17c0.81,0.47,2.01,0.56,2.99,0.3l10.77,6.22l0.3,0.17l5.06,2.92l-0.81,6.99
				l4.51,2.6l-9.67,0.37l-5.06-2.92l0.81-6.99l-11.06-6.39c0.45-0.57,0.28-1.26-0.53-1.73c-1.04-0.6-2.73-0.6-3.76,0
				c-1.04,0.6-1.04,1.57,0,2.17c0.81,0.47,2.01,0.56,2.99,0.3l10.47,6.05l-0.81,6.99l4.51,2.6l-9.67,0.37l-5.06-2.92l0.81-6.99
				l-5.42-3.13c0.45-0.57,0.28-1.26-0.53-1.73c-1.04-0.6-2.73-0.6-3.76,0c-1.04,0.6-1.04,1.57,0,2.17c0.81,0.47,2.01,0.56,2.99,0.3
				l4.83,2.79l-0.65,5.58l-9.34-5.39c0.45-0.57,0.28-1.26-0.53-1.73c-1.04-0.6-2.73-0.6-3.76,0c-1.04,0.6-1.04,1.57,0,2.17
				c0.81,0.47,2.01,0.56,2.99,0.3l14.98,8.65l-9.67,0.37l-10.47-6.05c0.45-0.57,0.28-1.26-0.53-1.73c-1.04-0.6-2.73-0.6-3.76,0
				c-1.04,0.6-1.04,1.57,0,2.17c0.81,0.47,2.01,0.56,2.99,0.3l11.06,6.39l12.1-0.47l11.3,6.52l24.21-0.94l5.35,3.09l1.3-0.75
				l-5.35-3.09l0.81-6.99l-5.65-3.26l0.81-6.99l-11.3-6.52l0.81-6.99l-5.42-3.13C241.64,147.43,241.47,146.74,240.66,146.27z
				 M218.82,158.21c0.32-0.19,0.84-0.19,1.16,0c0.32,0.19,0.32,0.49,0,0.67c-0.32,0.19-0.84,0.19-1.16,0
				C218.5,158.7,218.5,158.39,218.82,158.21z M212.37,161.94c0.32-0.19,0.84-0.19,1.16,0c0.32,0.19,0.32,0.49,0,0.67
				c-0.32,0.19-0.84,0.19-1.16,0C212.05,162.43,212.05,162.12,212.37,161.94z M205.91,165.67c0.32-0.19,0.84-0.19,1.16,0
				c0.32,0.19,0.32,0.49,0,0.67c-0.32,0.19-0.84,0.19-1.16,0C205.59,166.15,205.59,165.85,205.91,165.67z M199.45,169.39
				c0.32-0.19,0.84-0.19,1.16,0c0.32,0.19,0.32,0.49,0,0.67c-0.32,0.19-0.84,0.19-1.16,0C199.13,169.88,199.13,169.58,199.45,169.39
				z M231.74,150.75c0.32-0.19,0.84-0.19,1.16,0c0.32,0.19,0.32,0.49,0,0.67c-0.32,0.19-0.84,0.19-1.16,0
				C231.42,151.24,231.42,150.94,231.74,150.75z M225.28,154.48c0.32-0.19,0.84-0.19,1.16,0c0.32,0.19,0.32,0.49,0,0.67
				c-0.32,0.19-0.84,0.19-1.16,0C224.96,154.97,224.96,154.67,225.28,154.48z M236.31,182.47l-9.57-5.52l9.67-0.37l12.11-0.47
				l5.35,3.09l4.22,2.43L236.31,182.47z M254.39,172.04l5.65,3.26l-0.65,5.58l-4.22-2.43l-5.94-3.43l-5.06-2.92l0.81-6.99l-4.51-2.6
				l9.67-0.37l5.06,2.92L254.39,172.04z M238.2,147.02c0.32-0.19,0.84-0.19,1.16,0s0.32,0.49,0,0.67c-0.32,0.19-0.84,0.19-1.16,0
				C237.88,147.51,237.88,147.21,238.2,147.02z"/>
		</g>
		<g>
			<path style="fill:#F09911;" d="M288.86,156.05v8.7c0.11,6.35-3.43,12.7-10.64,17.9c-1.14,0.86-2.4,1.66-3.72,2.46
				c-0.86,0.51-1.77,0.97-2.69,1.37c-4.81,2.46-10.3,4.23-16.07,5.32c-2.12,0.46-4.29,0.8-6.46,1.09c-1.2,0.11-2.4,0.23-3.6,0.29
				c-6.12,0.46-12.41,0.17-18.42-0.74c-7.66-1.14-14.93-3.38-21.05-6.75c-0.4-0.17-0.8-0.34-1.14-0.57c-4-2.35-7.15-4.92-9.44-7.72
				c-3.38-3.95-4.98-8.29-4.92-12.64v-8.7H288.86z"/>
			<path style="opacity:0.15;fill:#FFFFFF;" d="M255.74,191.8c-2.12,0.46-4.29,0.8-6.46,1.09l-1.03-32.03
				c2.06,0.06,4.12,0.23,6.12,0.46L255.74,191.8z"/>
			<path style="opacity:0.15;fill:#FFFFFF;" d="M245.67,193.17c-6.12,0.46-12.41,0.17-18.42-0.74l0.11-29.4
				c5.55-1.37,11.5-2.12,17.56-2.23L245.67,193.17z"/>
			<path style="opacity:0.15;fill:#FFFFFF;" d="M206.2,185.68c-0.4-0.17-0.8-0.34-1.14-0.57c-4-2.35-7.15-4.92-9.44-7.72v-27.97
				c3.2-0.4,6.41-0.69,9.72-0.74l0.17,7.38L206.2,185.68z"/>
			<path style="opacity:0.15;fill:#FFFFFF;" d="M278.22,151.64v31c-1.14,0.86-2.4,1.66-3.72,2.46c-0.86,0.51-1.77,0.97-2.69,1.37
				l0.11-30.43v-3.26C273.99,152.27,276.11,151.93,278.22,151.64z"/>
			<path style="fill:#F09911;" d="M274.49,137.14c19.17,11.07,19.17,29.01,0,40.07c-19.17,11.07-50.24,11.07-69.41,0
				c-19.17-11.07-19.17-29.01,0-40.07C224.25,126.07,255.33,126.07,274.49,137.14z"/>
			<path style="fill:#FFD99E;" d="M274.49,136.03c19.17,11.07,19.17,29.01,0,40.07c-19.17,11.07-50.24,11.07-69.41,0
				c-19.17-11.07-19.17-29.01,0-40.07C224.25,124.96,255.33,124.96,274.49,136.03z"/>
			<path style="fill:#F09911;" d="M284.37,156.06c0,0.36-0.02,0.72-0.04,1.07c-0.47,5.73-4.71,11.25-12.07,15.65
				c-8.6,5.15-20.13,7.97-32.46,7.97c-12.33,0-23.86-2.83-32.45-7.97c-7.36-4.41-11.62-9.92-12.08-15.65
				c-0.03-0.35-0.05-0.71-0.05-1.07c0-6.1,4.31-12.04,12.13-16.72c8.59-5.15,20.12-7.97,32.45-7.97c12.33,0,23.86,2.82,32.46,7.97
				C280.07,144.02,284.37,149.96,284.37,156.06z"/>
			<path style="fill:#FBB03B;" d="M284.32,157.13c-0.47,5.73-4.71,11.25-12.07,15.65c-8.6,5.15-20.13,7.97-32.46,7.97
				c-12.33,0-23.86-2.83-32.45-7.97c-7.36-4.41-11.62-9.92-12.08-15.65c0.47-5.73,4.72-11.25,12.08-15.65
				c8.59-5.14,20.12-7.97,32.45-7.97c12.33,0,23.86,2.83,32.46,7.97C279.61,145.88,283.85,151.4,284.32,157.13z"/>
			<path style="opacity:0.2;fill:#FFFFFF;" d="M196.18,157.13c0.43,5.21,4.09,10.23,10.38,14.37l-2.67-26.81
				C199.24,148.43,196.54,152.71,196.18,157.13z"/>
			<path style="opacity:0.2;fill:#FFFFFF;" d="M241.61,134.14l7.06,45.36c2.14-0.25,4.23-0.58,6.27-0.99l-7.27-43.89
				C245.67,134.41,243.67,134.19,241.61,134.14z"/>
			<path style="opacity:0.2;fill:#FFFFFF;" d="M272.19,142.3c-0.25-0.16-0.47-0.32-0.73-0.48c-2.1-1.26-4.44-2.3-6.88-3.24
				l6.58,34.01c0.09-0.06,0.2-0.1,0.3-0.16c2.33-1.4,4.31-2.92,5.98-4.51L272.19,142.3z"/>
			<path style="opacity:0.2;fill:#FFFFFF;" d="M221.47,136.37l5.11,42.59c4.22,0.76,8.59,1.28,13.14,1.28
				c1.81,0,3.56-0.18,5.33-0.31l-6.67-45.81C232.44,134.23,226.73,134.98,221.47,136.37z"/>
			<path style="fill:#FFFFFF;" d="M242.42,135.27c-1.04-0.6-2.73-0.6-3.76,0c-1.04,0.6-1.04,1.57,0,2.17
				c0.81,0.47,2.01,0.56,2.99,0.3l4.83,2.79l-0.65,5.58l-9.34-5.39c0.45-0.57,0.28-1.26-0.53-1.73c-1.04-0.6-2.73-0.6-3.76,0
				c-1.04,0.6-1.04,1.57,0,2.17c0.81,0.47,2.01,0.56,2.99,0.3l14.98,8.65l-9.67,0.37l-10.47-6.05c0.45-0.57,0.28-1.26-0.53-1.73
				c-1.04-0.6-2.73-0.6-3.76,0c-1.04,0.6-1.04,1.57,0,2.17c0.81,0.47,2.01,0.56,2.99,0.3l10.77,6.22l0.3,0.17l5.06,2.92l-0.81,6.99
				l4.51,2.6l-9.67,0.37l-5.06-2.92l0.81-6.99l-11.06-6.39c0.45-0.57,0.28-1.26-0.53-1.73c-1.04-0.6-2.73-0.6-3.76,0
				c-1.04,0.6-1.04,1.57,0,2.17c0.81,0.47,2.01,0.56,2.99,0.3l10.47,6.05l-0.81,6.99l4.51,2.6l-9.67,0.37l-5.06-2.92l0.81-6.99
				l-5.42-3.13c0.45-0.57,0.28-1.26-0.53-1.73c-1.04-0.6-2.73-0.6-3.76,0c-1.04,0.6-1.04,1.57,0,2.17c0.81,0.47,2.01,0.56,2.99,0.3
				l4.83,2.79l-0.65,5.58l-9.34-5.39c0.45-0.57,0.28-1.26-0.53-1.73c-1.04-0.6-2.73-0.6-3.76,0c-1.04,0.6-1.04,1.57,0,2.17
				c0.81,0.47,2.01,0.56,2.99,0.3l14.98,8.65l-9.67,0.37l-10.47-6.05c0.45-0.57,0.28-1.26-0.53-1.73c-1.04-0.6-2.73-0.6-3.76,0
				c-1.04,0.6-1.04,1.57,0,2.17c0.81,0.47,2.01,0.56,2.99,0.3l11.06,6.39l12.1-0.47l11.3,6.52l24.21-0.94l5.35,3.09l1.3-0.75
				l-5.35-3.09l0.81-6.99l-5.65-3.26l0.81-6.99l-11.3-6.52l0.81-6.99l-5.42-3.13C243.4,136.43,243.23,135.74,242.42,135.27z
				 M220.59,147.21c0.32-0.19,0.84-0.19,1.16,0c0.32,0.19,0.32,0.49,0,0.67c-0.32,0.19-0.84,0.19-1.16,0
				C220.27,147.7,220.27,147.39,220.59,147.21z M214.13,150.94c0.32-0.19,0.84-0.19,1.16,0c0.32,0.19,0.32,0.49,0,0.67
				c-0.32,0.19-0.84,0.19-1.16,0C213.81,151.43,213.81,151.12,214.13,150.94z M207.67,154.67c0.32-0.19,0.84-0.19,1.16,0
				c0.32,0.19,0.32,0.49,0,0.67c-0.32,0.19-0.84,0.19-1.16,0C207.35,155.15,207.35,154.85,207.67,154.67z M201.21,158.39
				c0.32-0.19,0.84-0.19,1.16,0c0.32,0.19,0.32,0.49,0,0.67c-0.32,0.19-0.84,0.19-1.16,0C200.89,158.88,200.89,158.58,201.21,158.39
				z M233.5,139.75c0.32-0.19,0.84-0.19,1.16,0c0.32,0.19,0.32,0.49,0,0.67c-0.32,0.19-0.84,0.19-1.16,0
				C233.18,140.24,233.18,139.94,233.5,139.75z M227.04,143.48c0.32-0.19,0.84-0.19,1.16,0c0.32,0.19,0.32,0.49,0,0.67
				c-0.32,0.19-0.84,0.19-1.16,0C226.72,143.97,226.72,143.67,227.04,143.48z M238.08,171.47l-9.57-5.52l9.67-0.37l12.11-0.47
				l5.35,3.09l4.22,2.43L238.08,171.47z M256.15,161.04l5.65,3.26l-0.65,5.58l-4.22-2.43l-5.94-3.43l-5.06-2.92l0.81-6.99l-4.51-2.6
				l9.67-0.37l5.06,2.92L256.15,161.04z M239.96,136.02c0.32-0.19,0.84-0.19,1.16,0c0.32,0.19,0.32,0.49,0,0.67
				c-0.32,0.19-0.84,0.19-1.16,0C239.64,136.51,239.64,136.21,239.96,136.02z"/>
		</g>
		<g>
			<path style="fill:#F09911;" d="M196.53,142.99v8.15c-0.11,5.95,3.22,11.9,9.97,16.78c1.07,0.8,2.25,1.55,3.48,2.31
				c0.8,0.48,1.66,0.91,2.52,1.29c4.5,2.31,9.65,3.97,15.07,4.99c1.98,0.43,4.02,0.75,6.06,1.02c1.13,0.11,2.25,0.21,3.38,0.27
				c5.74,0.43,11.63,0.16,17.26-0.7c7.18-1.07,13.99-3.16,19.73-6.33c0.38-0.16,0.75-0.32,1.07-0.54c3.75-2.2,6.7-4.61,8.85-7.24
				c3.16-3.7,4.66-7.77,4.61-11.85v-8.15H196.53z"/>
			<path style="opacity:0.15;fill:#FFFFFF;" d="M227.58,176.5c1.98,0.43,4.02,0.75,6.06,1.02l0.97-30.02
				c-1.93,0.05-3.86,0.21-5.74,0.43L227.58,176.5z"/>
			<path style="opacity:0.15;fill:#FFFFFF;" d="M237.01,177.79c5.74,0.43,11.63,0.16,17.26-0.7l-0.11-27.56
				c-5.2-1.29-10.78-1.98-16.46-2.09L237.01,177.79z"/>
			<path style="opacity:0.15;fill:#FFFFFF;" d="M274.01,170.76c0.38-0.16,0.75-0.32,1.07-0.54c3.75-2.2,6.7-4.61,8.85-7.24v-26.22
				c-3-0.38-6-0.64-9.11-0.7l-0.16,6.92L274.01,170.76z"/>
			<path style="opacity:0.15;fill:#FFFFFF;" d="M206.51,138.86v29.06c1.07,0.8,2.25,1.55,3.48,2.31c0.8,0.48,1.66,0.91,2.52,1.29
				l-0.11-28.52v-3.06C210.47,139.45,208.49,139.13,206.51,138.86z"/>
			<path style="fill:#F09911;" d="M210,125.27c-17.96,10.37-17.96,27.19,0,37.56c17.96,10.37,47.09,10.37,65.05,0
				c17.96-10.37,17.96-27.19,0-37.56C257.09,114.89,227.97,114.89,210,125.27z"/>
			<path style="fill:#FFD99E;" d="M210,124.22c-17.96,10.37-17.96,27.19,0,37.56c17.96,10.37,47.09,10.37,65.05,0
				c17.96-10.37,17.96-27.19,0-37.56C257.09,113.85,227.97,113.85,210,124.22z"/>
			<path style="fill:#F09911;" d="M200.75,143c0,0.34,0.02,0.67,0.04,1c0.44,5.37,4.42,10.54,11.32,14.67
				c8.06,4.82,18.86,7.47,30.43,7.47s22.36-2.65,30.42-7.47c6.9-4.13,10.89-9.3,11.32-14.67c0.03-0.33,0.04-0.67,0.04-1
				c0-5.72-4.04-11.28-11.37-15.67c-8.05-4.82-18.86-7.47-30.42-7.47s-22.36,2.65-30.43,7.47
				C204.78,131.72,200.75,137.28,200.75,143z"/>
			<path style="fill:#FBB03B;" d="M200.79,144c0.44,5.37,4.42,10.54,11.32,14.67c8.06,4.82,18.86,7.47,30.43,7.47
				s22.36-2.65,30.42-7.47c6.9-4.13,10.89-9.3,11.32-14.67c-0.44-5.37-4.43-10.54-11.32-14.67c-8.05-4.82-18.86-7.47-30.42-7.47
				s-22.36,2.66-30.43,7.47C205.21,133.46,201.23,138.63,200.79,144z"/>
			<path style="opacity:0.2;fill:#FFFFFF;" d="M283.4,144c-0.4,4.88-3.83,9.58-9.73,13.47l2.5-25.13
				C280.53,135.85,283.07,139.86,283.4,144z"/>
			<path style="opacity:0.2;fill:#FFFFFF;" d="M240.83,122.46l-6.62,42.51c-2-0.23-3.97-0.54-5.88-0.93l6.81-41.14
				C237.02,122.7,238.89,122.5,240.83,122.46z"/>
			<path style="opacity:0.2;fill:#FFFFFF;" d="M212.16,130.1c0.23-0.15,0.44-0.3,0.68-0.45c1.97-1.18,4.16-2.15,6.44-3.04
				l-6.17,31.88c-0.09-0.05-0.19-0.09-0.28-0.15c-2.19-1.31-4.04-2.74-5.61-4.23L212.16,130.1z"/>
			<path style="opacity:0.2;fill:#FFFFFF;" d="M259.7,124.54l-4.79,39.91c-3.95,0.71-8.05,1.2-12.32,1.2c-1.7,0-3.33-0.17-4.99-0.29
				l6.25-42.93C249.41,122.54,254.77,123.24,259.7,124.54z"/>
			<path style="fill:#FFFFFF;" d="M239.57,125.14l-5.08,2.93l0.76,6.55l-10.59,6.11l0.76,6.55l-5.29,3.06l0.76,6.55l-5.02,2.9
				l1.22,0.7l5.02-2.9l22.69,0.88l10.59-6.11l11.35,0.44l10.37-5.99c0.92,0.24,2.05,0.15,2.8-0.29c0.97-0.56,0.97-1.47,0-2.04
				c-0.97-0.56-2.55-0.56-3.53,0c-0.76,0.44-0.92,1.09-0.49,1.62l-9.82,5.67l-9.06-0.35l14.04-8.11c0.92,0.24,2.05,0.15,2.8-0.29
				c0.97-0.56,0.97-1.48,0-2.04c-0.97-0.56-2.55-0.56-3.53,0c-0.76,0.44-0.92,1.09-0.49,1.62l-8.75,5.05l-0.61-5.23l4.52-2.61
				c0.92,0.24,2.05,0.15,2.8-0.29c0.97-0.56,0.97-1.47,0-2.04s-2.55-0.56-3.53,0c-0.76,0.44-0.92,1.09-0.49,1.62l-5.08,2.93
				l0.76,6.55l-4.74,2.74l-9.06-0.35l4.23-2.44l-0.76-6.55l9.82-5.67c0.92,0.24,2.05,0.15,2.8-0.29c0.97-0.56,0.97-1.48,0-2.04
				c-0.97-0.56-2.55-0.56-3.53,0c-0.76,0.44-0.92,1.09-0.49,1.62l-10.37,5.99l0.76,6.55l-4.74,2.74l-9.06-0.35l4.23-2.44l-0.76-6.55
				l4.74-2.74l0.28-0.16l10.09-5.83c0.92,0.24,2.05,0.15,2.8-0.29c0.97-0.56,0.97-1.47,0-2.04c-0.97-0.56-2.55-0.56-3.53,0
				c-0.76,0.44-0.92,1.09-0.49,1.62l-9.82,5.67l-9.06-0.35l14.04-8.11c0.92,0.24,2.05,0.15,2.8-0.29c0.97-0.56,0.97-1.47,0-2.04
				c-0.97-0.56-2.55-0.56-3.53,0c-0.76,0.44-0.92,1.09-0.49,1.62l-8.75,5.05l-0.61-5.23l4.52-2.61c0.92,0.24,2.05,0.15,2.8-0.29
				c0.97-0.56,0.97-1.47,0-2.04c-0.97-0.56-2.55-0.56-3.53,0C239.3,123.96,239.14,124.61,239.57,125.14z M260.53,135.34
				c-0.3,0.17-0.79,0.17-1.09,0c-0.3-0.17-0.3-0.46,0-0.63c0.3-0.17,0.79-0.17,1.09,0C260.83,134.88,260.83,135.16,260.53,135.34z
				 M266.58,138.83c-0.3,0.17-0.79,0.17-1.09,0c-0.3-0.17-0.3-0.46,0-0.63c0.3-0.17,0.79-0.17,1.09,0
				C266.88,138.37,266.88,138.66,266.58,138.83z M272.63,142.33c-0.3,0.17-0.79,0.17-1.09,0c-0.3-0.17-0.3-0.46,0-0.63
				c0.3-0.17,0.79-0.17,1.09,0C272.93,141.87,272.93,142.15,272.63,142.33z M278.68,145.82c-0.3,0.17-0.79,0.17-1.09,0
				c-0.3-0.17-0.3-0.46,0-0.63c0.3-0.17,0.79-0.17,1.09,0C278.99,145.36,278.99,145.65,278.68,145.82z M248.42,128.35
				c-0.3,0.17-0.79,0.17-1.09,0c-0.3-0.17-0.3-0.46,0-0.63c0.3-0.17,0.79-0.17,1.09,0C248.72,127.89,248.72,128.17,248.42,128.35z
				 M254.47,131.84c-0.3,0.17-0.79,0.17-1.09,0c-0.3-0.17-0.3-0.46,0-0.63c0.3-0.17,0.79-0.17,1.09,0
				C254.77,131.38,254.77,131.67,254.47,131.84z M223.72,156.66l3.95-2.28l5.02-2.9l11.35,0.44l9.06,0.35l-8.97,5.18L223.72,156.66z
				 M226.43,141.11l4.74-2.74l9.06,0.35l-4.23,2.44l0.76,6.55l-4.74,2.74l-5.57,3.22l-3.95,2.28l-0.61-5.23l5.29-3.06L226.43,141.11
				z M242.37,124.85c-0.3,0.17-0.79,0.17-1.09,0c-0.3-0.17-0.3-0.46,0-0.63c0.3-0.17,0.79-0.17,1.09,0
				C242.67,124.4,242.67,124.68,242.37,124.85z"/>
		</g>
		<g>
			<path style="fill:#F09911;" d="M189.44,132.68v8.15c-0.11,5.95,3.22,11.9,9.97,16.78c1.07,0.8,2.25,1.55,3.48,2.31
				c0.8,0.48,1.66,0.91,2.52,1.29c4.5,2.31,9.65,3.97,15.07,4.99c1.98,0.43,4.02,0.75,6.06,1.02c1.13,0.11,2.25,0.21,3.38,0.27
				c5.74,0.43,11.63,0.16,17.26-0.7c7.18-1.07,13.99-3.16,19.73-6.33c0.38-0.16,0.75-0.32,1.07-0.54c3.75-2.2,6.7-4.61,8.85-7.24
				c3.16-3.7,4.66-7.77,4.61-11.85v-8.15H189.44z"/>
			<path style="opacity:0.15;fill:#FFFFFF;" d="M220.48,166.19c1.98,0.43,4.02,0.75,6.06,1.02l0.97-30.02
				c-1.93,0.05-3.86,0.21-5.74,0.43L220.48,166.19z"/>
			<path style="opacity:0.15;fill:#FFFFFF;" d="M229.91,167.48c5.74,0.43,11.63,0.16,17.26-0.7l-0.11-27.56
				c-5.2-1.29-10.78-1.98-16.46-2.09L229.91,167.48z"/>
			<path style="opacity:0.15;fill:#FFFFFF;" d="M266.91,160.45c0.38-0.16,0.75-0.32,1.07-0.54c3.75-2.2,6.7-4.61,8.85-7.24v-26.22
				c-3-0.38-6-0.64-9.11-0.7l-0.16,6.92L266.91,160.45z"/>
			<path style="opacity:0.15;fill:#FFFFFF;" d="M199.41,128.55v29.06c1.07,0.8,2.25,1.55,3.48,2.31c0.8,0.48,1.66,0.91,2.52,1.29
				l-0.11-28.52v-3.06C203.38,129.14,201.39,128.82,199.41,128.55z"/>
			<path style="fill:#F09911;" d="M202.9,114.96c-17.96,10.37-17.96,27.19,0,37.56c17.96,10.37,47.09,10.37,65.05,0
				c17.96-10.37,17.96-27.19,0-37.56C249.99,104.58,220.87,104.58,202.9,114.96z"/>
			<path style="fill:#FFD99E;" d="M202.9,113.91c-17.96,10.37-17.96,27.19,0,37.56c17.96,10.37,47.09,10.37,65.05,0
				c17.96-10.37,17.96-27.19,0-37.56C249.99,103.54,220.87,103.54,202.9,113.91z"/>
			<path style="fill:#F09911;" d="M193.65,132.69c0,0.34,0.02,0.67,0.04,1c0.44,5.37,4.42,10.54,11.32,14.67
				c8.06,4.82,18.86,7.47,30.43,7.47s22.36-2.65,30.42-7.47c6.9-4.13,10.89-9.3,11.32-14.67c0.03-0.33,0.04-0.67,0.04-1
				c0-5.72-4.04-11.28-11.37-15.67c-8.05-4.82-18.86-7.47-30.42-7.47s-22.36,2.65-30.43,7.47
				C197.68,121.41,193.65,126.97,193.65,132.69z"/>
			<path style="fill:#FBB03B;" d="M193.69,133.69c0.44,5.37,4.42,10.54,11.32,14.67c8.06,4.82,18.86,7.47,30.43,7.47
				s22.36-2.65,30.42-7.47c6.9-4.13,10.89-9.3,11.32-14.67c-0.44-5.37-4.43-10.54-11.32-14.67c-8.05-4.82-18.86-7.47-30.42-7.47
				s-22.36,2.66-30.43,7.47C198.11,123.15,194.13,128.32,193.69,133.69z"/>
			<path style="opacity:0.2;fill:#FFFFFF;" d="M276.31,133.69c-0.4,4.88-3.83,9.58-9.73,13.47l2.5-25.13
				C273.44,125.54,275.97,129.55,276.31,133.69z"/>
			<path style="opacity:0.2;fill:#FFFFFF;" d="M233.73,112.15l-6.62,42.51c-2-0.23-3.97-0.54-5.88-0.93l6.81-41.14
				C229.92,112.39,231.8,112.19,233.73,112.15z"/>
			<path style="opacity:0.2;fill:#FFFFFF;" d="M205.06,119.79c0.23-0.15,0.44-0.3,0.68-0.45c1.97-1.18,4.16-2.15,6.44-3.04
				l-6.17,31.88c-0.09-0.05-0.19-0.09-0.28-0.15c-2.19-1.31-4.04-2.74-5.61-4.23L205.06,119.79z"/>
			<path style="opacity:0.2;fill:#FFFFFF;" d="M252.6,114.23l-4.79,39.91c-3.95,0.71-8.05,1.2-12.32,1.2c-1.7,0-3.33-0.17-4.99-0.29
				l6.25-42.93C242.32,112.23,247.67,112.93,252.6,114.23z"/>
			<path style="fill:#FFFFFF;" d="M232.47,114.83l-5.08,2.93l0.76,6.55l-10.59,6.11l0.76,6.55l-5.29,3.06l0.76,6.55l-5.02,2.9
				l1.22,0.7l5.02-2.9l22.69,0.88l10.59-6.11l11.35,0.44L270,136.5c0.92,0.24,2.05,0.15,2.8-0.29c0.97-0.56,0.97-1.48,0-2.04
				c-0.97-0.56-2.55-0.56-3.53,0c-0.76,0.44-0.92,1.09-0.49,1.62l-9.82,5.67l-9.06-0.35l14.04-8.11c0.92,0.24,2.05,0.15,2.8-0.29
				c0.97-0.56,0.97-1.47,0-2.04s-2.55-0.56-3.53,0c-0.76,0.44-0.92,1.09-0.49,1.62l-8.75,5.05l-0.61-5.23l4.52-2.61
				c0.92,0.24,2.05,0.15,2.8-0.29c0.97-0.56,0.97-1.47,0-2.04c-0.97-0.56-2.55-0.56-3.53,0c-0.76,0.44-0.92,1.09-0.49,1.62
				l-5.08,2.93l0.76,6.55l-4.74,2.74c0,0-9.06-0.35-9.06-0.35l4.23-2.44l-0.76-6.55l9.82-5.67c0.92,0.24,2.05,0.15,2.8-0.29
				c0.97-0.56,0.97-1.47,0-2.04c-0.97-0.56-2.55-0.56-3.53,0c-0.76,0.44-0.92,1.09-0.49,1.62l-10.37,5.99l0.76,6.55l-4.74,2.74
				l-9.06-0.35l4.23-2.44l-0.76-6.55l4.74-2.74l0.28-0.16l10.09-5.83c0.92,0.24,2.05,0.15,2.8-0.29c0.97-0.56,0.97-1.47,0-2.04
				c-0.97-0.56-2.55-0.56-3.53,0c-0.76,0.44-0.92,1.09-0.49,1.62l-9.82,5.67l-9.06-0.35l14.04-8.11c0.92,0.24,2.05,0.15,2.8-0.29
				c0.97-0.56,0.97-1.47,0-2.04c-0.97-0.56-2.55-0.56-3.53,0c-0.76,0.44-0.92,1.09-0.49,1.62l-8.75,5.05l-0.61-5.23l4.52-2.61
				c0.92,0.24,2.05,0.15,2.8-0.29c0.97-0.56,0.97-1.47,0-2.04c-0.97-0.56-2.55-0.56-3.53,0
				C232.21,113.65,232.05,114.3,232.47,114.83z M253.43,125.03c-0.3,0.17-0.79,0.17-1.09,0c-0.3-0.17-0.3-0.46,0-0.63
				c0.3-0.17,0.79-0.17,1.09,0C253.73,124.57,253.73,124.85,253.43,125.03z M259.48,128.52c-0.3,0.17-0.79,0.17-1.09,0
				c-0.3-0.17-0.3-0.46,0-0.63c0.3-0.17,0.79-0.17,1.09,0C259.78,128.06,259.78,128.35,259.48,128.52z M265.54,132.02
				c-0.3,0.17-0.79,0.17-1.09,0c-0.3-0.17-0.3-0.46,0-0.63c0.3-0.17,0.79-0.17,1.09,0C265.84,131.56,265.84,131.84,265.54,132.02z
				 M271.59,135.51c-0.3,0.17-0.79,0.17-1.09,0c-0.3-0.17-0.3-0.46,0-0.63c0.3-0.17,0.79-0.17,1.09,0
				C271.89,135.05,271.89,135.34,271.59,135.51z M241.32,118.04c-0.3,0.17-0.79,0.17-1.09,0c-0.3-0.17-0.3-0.46,0-0.63
				c0.3-0.17,0.79-0.17,1.09,0C241.62,117.58,241.62,117.86,241.32,118.04z M247.38,121.53c-0.3,0.17-0.79,0.17-1.09,0
				c-0.3-0.17-0.3-0.46,0-0.63c0.3-0.17,0.79-0.17,1.09,0C247.68,121.07,247.68,121.36,247.38,121.53z M216.63,146.35l3.95-2.28
				l5.02-2.9l11.35,0.44l9.06,0.35l-8.97,5.18L216.63,146.35z M219.34,130.8l4.74-2.74l9.06,0.35l-4.23,2.44l0.76,6.55l-4.74,2.74
				l-5.57,3.22l-3.95,2.28l-0.61-5.23l5.29-3.06L219.34,130.8z M235.27,114.54c-0.3,0.17-0.79,0.17-1.09,0
				c-0.3-0.17-0.3-0.46,0-0.63c0.3-0.17,0.79-0.17,1.09,0C235.57,114.09,235.57,114.37,235.27,114.54z"/>
		</g>
		<g>
			<path style="fill:#F09911;" d="M184.48,122.37v8.15c-0.11,5.95,3.22,11.9,9.97,16.78c1.07,0.8,2.25,1.55,3.48,2.31
				c0.8,0.48,1.66,0.91,2.52,1.29c4.5,2.31,9.65,3.97,15.07,4.99c1.98,0.43,4.02,0.75,6.06,1.02c1.13,0.11,2.25,0.21,3.38,0.27
				c5.74,0.43,11.63,0.16,17.26-0.7c7.18-1.07,13.99-3.16,19.73-6.33c0.38-0.16,0.75-0.32,1.07-0.54c3.75-2.2,6.7-4.61,8.85-7.24
				c3.16-3.7,4.66-7.77,4.61-11.85v-8.15H184.48z"/>
			<path style="opacity:0.15;fill:#FFFFFF;" d="M215.53,155.88c1.98,0.43,4.02,0.75,6.06,1.02l0.97-30.02
				c-1.93,0.05-3.86,0.21-5.74,0.43L215.53,155.88z"/>
			<path style="opacity:0.15;fill:#FFFFFF;" d="M224.96,157.17c5.74,0.43,11.63,0.16,17.26-0.7l-0.11-27.56
				c-5.2-1.29-10.78-1.98-16.46-2.09L224.96,157.17z"/>
			<path style="opacity:0.15;fill:#FFFFFF;" d="M261.96,150.14c0.38-0.16,0.75-0.32,1.07-0.54c3.75-2.2,6.7-4.61,8.85-7.24v-26.22
				c-3-0.38-6-0.64-9.11-0.7l-0.16,6.92L261.96,150.14z"/>
			<path style="opacity:0.15;fill:#FFFFFF;" d="M194.46,118.24v29.06c1.07,0.8,2.25,1.55,3.48,2.31c0.8,0.48,1.66,0.91,2.52,1.29
				l-0.11-28.52v-3.06C198.42,118.83,196.44,118.51,194.46,118.24z"/>
			<path style="fill:#F09911;" d="M197.95,104.65c-17.96,10.37-17.96,27.19,0,37.56c17.96,10.37,47.09,10.37,65.05,0
				c17.96-10.37,17.96-27.19,0-37.56C245.04,94.27,215.91,94.27,197.95,104.65z"/>
			<path style="fill:#FFD99E;" d="M197.95,103.6c-17.96,10.37-17.96,27.19,0,37.56c17.96,10.37,47.09,10.37,65.05,0
				c17.96-10.37,17.96-27.19,0-37.56S215.91,93.23,197.95,103.6z"/>
			<path style="fill:#F09911;" d="M188.7,122.38c0,0.34,0.02,0.67,0.04,1c0.44,5.37,4.42,10.54,11.32,14.67
				c8.06,4.82,18.86,7.47,30.43,7.47s22.36-2.65,30.42-7.47c6.9-4.13,10.89-9.3,11.32-14.67c0.03-0.33,0.04-0.67,0.04-1
				c0-5.72-4.04-11.28-11.37-15.67c-8.05-4.82-18.86-7.47-30.42-7.47s-22.36,2.65-30.43,7.47
				C192.73,111.1,188.7,116.66,188.7,122.38z"/>
			<path style="fill:#FBB03B;" d="M188.74,123.38c0.44,5.37,4.42,10.54,11.32,14.67c8.06,4.82,18.86,7.47,30.43,7.47
				s22.36-2.65,30.42-7.47c6.9-4.13,10.89-9.3,11.32-14.67c-0.44-5.37-4.43-10.54-11.32-14.67c-8.05-4.82-18.86-7.47-30.42-7.47
				s-22.36,2.66-30.43,7.47C193.16,112.84,189.18,118.01,188.74,123.38z"/>
			<path style="opacity:0.2;fill:#FFFFFF;" d="M271.35,123.38c-0.4,4.88-3.83,9.58-9.73,13.47l2.5-25.13
				C268.48,115.23,271.01,119.24,271.35,123.38z"/>
			<path style="opacity:0.2;fill:#FFFFFF;" d="M228.77,101.84l-6.62,42.51c-2-0.23-3.97-0.54-5.88-0.93l6.81-41.14
				C224.97,102.08,226.84,101.88,228.77,101.84z"/>
			<path style="opacity:0.2;fill:#FFFFFF;" d="M200.11,109.48c0.23-0.15,0.44-0.3,0.68-0.45c1.97-1.18,4.16-2.15,6.44-3.04
				l-6.17,31.88c-0.09-0.05-0.19-0.09-0.28-0.15c-2.19-1.31-4.04-2.74-5.61-4.23L200.11,109.48z"/>
			<path style="opacity:0.2;fill:#FFFFFF;" d="M247.65,103.92l-4.79,39.91c-3.95,0.71-8.05,1.2-12.32,1.2
				c-1.7,0-3.33-0.17-4.99-0.29l6.25-42.93C237.36,101.92,242.72,102.62,247.65,103.92z"/>
			<path style="fill:#FFFFFF;" d="M227.51,104.52l-5.08,2.93l0.76,6.55l-10.59,6.11l0.76,6.55l-5.29,3.06l0.76,6.55l-5.02,2.9
				l1.22,0.7l5.02-2.9l22.69,0.88l10.59-6.11l11.35,0.44l10.37-5.99c0.92,0.24,2.05,0.15,2.8-0.29c0.97-0.56,0.97-1.47,0-2.04
				c-0.97-0.56-2.55-0.56-3.53,0c-0.76,0.44-0.92,1.09-0.49,1.62l-9.82,5.67l-9.06-0.35l14.04-8.11c0.92,0.24,2.05,0.15,2.8-0.29
				c0.97-0.56,0.97-1.47,0-2.04c-0.97-0.56-2.55-0.56-3.53,0c-0.76,0.44-0.92,1.09-0.49,1.62l-8.75,5.05l-0.61-5.23l4.52-2.61
				c0.92,0.24,2.05,0.15,2.8-0.29c0.97-0.56,0.97-1.47,0-2.04c-0.97-0.56-2.55-0.56-3.53,0c-0.76,0.44-0.92,1.09-0.49,1.62
				l-5.08,2.93l0.76,6.55l-4.74,2.74l-9.06-0.35l4.23-2.44l-0.76-6.55l9.82-5.67c0.92,0.24,2.05,0.15,2.8-0.29
				c0.97-0.56,0.97-1.47,0-2.04c-0.97-0.56-2.55-0.56-3.53,0c-0.76,0.44-0.92,1.09-0.49,1.62l-10.37,5.99l0.76,6.55l-4.74,2.74
				l-9.06-0.35l4.23-2.44l-0.76-6.55l4.74-2.74l0.28-0.16l10.09-5.83c0.92,0.24,2.05,0.15,2.8-0.29c0.97-0.56,0.97-1.47,0-2.04
				c-0.97-0.56-2.55-0.56-3.53,0c-0.76,0.44-0.92,1.09-0.49,1.62l-9.82,5.67l-9.06-0.35l14.04-8.11c0.92,0.24,2.05,0.15,2.8-0.29
				c0.97-0.56,0.97-1.47,0-2.04c-0.97-0.56-2.55-0.56-3.53,0c-0.76,0.44-0.92,1.09-0.49,1.62l-8.75,5.05l-0.61-5.23l4.52-2.61
				c0.92,0.24,2.05,0.15,2.8-0.29c0.97-0.56,0.97-1.47,0-2.04c-0.97-0.56-2.55-0.56-3.53,0
				C227.25,103.34,227.09,103.99,227.51,104.52z M248.48,114.72c-0.3,0.17-0.79,0.17-1.09,0c-0.3-0.17-0.3-0.46,0-0.63
				c0.3-0.17,0.79-0.17,1.09,0C248.78,114.26,248.78,114.54,248.48,114.72z M254.53,118.21c-0.3,0.17-0.79,0.17-1.09,0
				c-0.3-0.17-0.3-0.46,0-0.63c0.3-0.17,0.79-0.17,1.09,0C254.83,117.75,254.83,118.04,254.53,118.21z M260.58,121.71
				c-0.3,0.17-0.79,0.17-1.09,0c-0.3-0.17-0.3-0.46,0-0.63c0.3-0.17,0.79-0.17,1.09,0C260.88,121.25,260.88,121.53,260.58,121.71z
				 M266.63,125.2c-0.3,0.17-0.79,0.17-1.09,0c-0.3-0.17-0.3-0.46,0-0.63c0.3-0.17,0.79-0.17,1.09,0
				C266.93,124.74,266.93,125.03,266.63,125.2z M236.37,107.73c-0.3,0.17-0.79,0.17-1.09,0c-0.3-0.17-0.3-0.46,0-0.63
				c0.3-0.17,0.79-0.17,1.09,0C236.67,107.27,236.67,107.55,236.37,107.73z M242.42,111.22c-0.3,0.17-0.79,0.17-1.09,0
				c-0.3-0.17-0.3-0.46,0-0.63c0.3-0.17,0.79-0.17,1.09,0C242.72,110.76,242.72,111.05,242.42,111.22z M211.67,136.04l3.95-2.28
				l5.02-2.9l11.35,0.44l9.06,0.35l-8.97,5.18L211.67,136.04z M214.38,120.49l4.74-2.74l9.06,0.35l-4.23,2.44l0.76,6.55l-4.74,2.74
				l-5.57,3.22l-3.95,2.28l-0.61-5.23l5.29-3.06L214.38,120.49z M230.32,104.23c-0.3,0.17-0.79,0.17-1.09,0
				c-0.3-0.17-0.3-0.46,0-0.63c0.3-0.17,0.79-0.17,1.09,0C230.62,103.78,230.62,104.06,230.32,104.23z"/>
		</g>
		<g>
			<path style="fill:#F09911;" d="M186.96,107.59v8.15c-0.11,5.95,3.22,11.9,9.97,16.78c1.07,0.8,2.25,1.55,3.48,2.31
				c0.8,0.48,1.66,0.91,2.52,1.29c4.5,2.31,9.65,3.97,15.07,4.99c1.98,0.43,4.02,0.75,6.06,1.02c1.13,0.11,2.25,0.21,3.38,0.27
				c5.74,0.43,11.63,0.16,17.26-0.7c7.18-1.07,13.99-3.16,19.73-6.33c0.38-0.16,0.75-0.32,1.07-0.54c3.75-2.2,6.7-4.61,8.85-7.24
				c3.16-3.7,4.66-7.77,4.61-11.85v-8.15H186.96z"/>
			<path style="opacity:0.15;fill:#FFFFFF;" d="M218,141.1c1.98,0.43,4.02,0.75,6.06,1.02l0.97-30.02
				c-1.93,0.05-3.86,0.21-5.74,0.43L218,141.1z"/>
			<path style="opacity:0.15;fill:#FFFFFF;" d="M227.44,142.39c5.74,0.43,11.63,0.16,17.26-0.7l-0.11-27.56
				c-5.2-1.29-10.78-1.98-16.46-2.09L227.44,142.39z"/>
			<path style="opacity:0.15;fill:#FFFFFF;" d="M264.43,135.37c0.38-0.16,0.75-0.32,1.07-0.54c3.75-2.2,6.7-4.61,8.85-7.24v-26.22
				c-3-0.38-6-0.64-9.11-0.7l-0.16,6.92L264.43,135.37z"/>
			<path style="opacity:0.15;fill:#FFFFFF;" d="M196.93,103.47v29.06c1.07,0.8,2.25,1.55,3.48,2.31c0.8,0.48,1.66,0.91,2.52,1.29
				l-0.11-28.52v-3.06C200.9,104.06,198.92,103.73,196.93,103.47z"/>
			<path style="fill:#F09911;" d="M200.43,89.87c-17.96,10.37-17.96,27.19,0,37.56c17.96,10.37,47.09,10.37,65.05,0
				c17.96-10.37,17.96-27.19,0-37.56C247.52,79.5,218.39,79.5,200.43,89.87z"/>
			<path style="fill:#FFD99E;" d="M200.43,88.83c-17.96,10.37-17.96,27.19,0,37.56c17.96,10.37,47.09,10.37,65.05,0
				c17.96-10.37,17.96-27.19,0-37.56C247.52,78.45,218.39,78.45,200.43,88.83z"/>
			<path style="fill:#F09911;" d="M191.17,107.6c0,0.34,0.02,0.67,0.04,1c0.44,5.37,4.42,10.54,11.32,14.67
				c8.06,4.82,18.86,7.47,30.42,7.47c11.56,0,22.36-2.65,30.42-7.47c6.9-4.13,10.89-9.3,11.32-14.67c0.03-0.33,0.04-0.67,0.04-1
				c0-5.72-4.04-11.28-11.37-15.67c-8.05-4.82-18.86-7.47-30.42-7.47c-11.56,0-22.36,2.65-30.42,7.47
				C195.2,96.32,191.17,101.89,191.17,107.6z"/>
			<path style="fill:#FBB03B;" d="M191.21,108.61c0.44,5.37,4.42,10.54,11.32,14.67c8.06,4.82,18.86,7.47,30.42,7.47
				c11.56,0,22.36-2.65,30.42-7.47c6.9-4.13,10.89-9.3,11.32-14.67c-0.44-5.37-4.43-10.54-11.32-14.67
				c-8.05-4.82-18.86-7.47-30.42-7.47c-11.56,0-22.36,2.66-30.42,7.47C195.63,98.07,191.65,103.24,191.21,108.61z"/>
			<path style="opacity:0.2;fill:#FFFFFF;" d="M273.83,108.61c-0.4,4.88-3.83,9.58-9.73,13.47l2.5-25.13
				C270.96,100.45,273.49,104.46,273.83,108.61z"/>
			<path style="opacity:0.2;fill:#FFFFFF;" d="M231.25,87.06l-6.62,42.51c-2-0.23-3.97-0.54-5.88-0.93l6.81-41.14
				C227.45,87.31,229.32,87.11,231.25,87.06z"/>
			<path style="opacity:0.2;fill:#FFFFFF;" d="M202.59,94.71c0.23-0.15,0.44-0.3,0.68-0.45c1.97-1.18,4.16-2.15,6.44-3.04
				l-6.17,31.88c-0.09-0.05-0.19-0.09-0.28-0.15c-2.19-1.31-4.04-2.74-5.61-4.23L202.59,94.71z"/>
			<path style="opacity:0.2;fill:#FFFFFF;" d="M250.13,89.15l-4.79,39.91c-3.95,0.71-8.05,1.2-12.32,1.2c-1.7,0-3.33-0.17-4.99-0.29
				l6.25-42.93C239.84,87.14,245.2,87.85,250.13,89.15z"/>
			<path style="fill:#FFFFFF;" d="M229.99,89.74l-5.08,2.93l0.76,6.55l-10.59,6.11l0.76,6.55l-5.29,3.06l0.76,6.55l-5.02,2.9
				l1.22,0.7l5.02-2.9l22.69,0.88l10.59-6.11l11.35,0.44l10.37-5.99c0.92,0.24,2.05,0.15,2.8-0.29c0.97-0.56,0.97-1.47,0-2.04
				c-0.97-0.56-2.55-0.56-3.53,0c-0.76,0.44-0.92,1.09-0.49,1.62l-9.82,5.67l-9.06-0.35l14.04-8.11c0.92,0.24,2.05,0.15,2.8-0.29
				c0.97-0.56,0.97-1.47,0-2.04c-0.97-0.56-2.55-0.56-3.53,0c-0.76,0.44-0.92,1.09-0.49,1.62l-8.75,5.05l-0.61-5.23l4.52-2.61
				c0.92,0.24,2.05,0.15,2.8-0.29c0.97-0.56,0.97-1.47,0-2.04c-0.97-0.56-2.55-0.56-3.53,0c-0.76,0.44-0.92,1.09-0.49,1.62
				l-5.08,2.93l0.76,6.55l-4.74,2.74l-9.06-0.35l4.23-2.44l-0.76-6.55l9.82-5.67c0.92,0.24,2.05,0.15,2.8-0.29
				c0.97-0.56,0.97-1.47,0-2.04s-2.55-0.56-3.53,0c-0.76,0.44-0.92,1.09-0.49,1.62l-10.37,5.99l0.76,6.55l-4.74,2.74l-9.06-0.35
				l4.23-2.44l-0.76-6.55l4.74-2.74l0.28-0.16l10.09-5.83c0.92,0.24,2.05,0.15,2.8-0.29c0.97-0.56,0.97-1.47,0-2.04
				c-0.97-0.56-2.55-0.56-3.53,0c-0.76,0.44-0.92,1.09-0.49,1.62l-9.82,5.67l-9.06-0.35l14.04-8.11c0.92,0.24,2.05,0.15,2.8-0.29
				c0.97-0.56,0.97-1.47,0-2.04c-0.97-0.56-2.55-0.56-3.53,0c-0.76,0.44-0.92,1.09-0.49,1.62l-8.75,5.05l-0.61-5.23l4.52-2.61
				c0.92,0.24,2.05,0.15,2.8-0.29c0.97-0.56,0.97-1.47,0-2.04c-0.97-0.56-2.55-0.56-3.53,0C229.73,88.56,229.57,89.21,229.99,89.74z
				 M250.95,99.94c-0.3,0.17-0.79,0.17-1.09,0c-0.3-0.17-0.3-0.46,0-0.63c0.3-0.17,0.79-0.17,1.09,0
				C251.25,99.48,251.25,99.77,250.95,99.94z M257.01,103.43c-0.3,0.17-0.79,0.17-1.09,0c-0.3-0.17-0.3-0.46,0-0.63
				c0.3-0.17,0.79-0.17,1.09,0C257.31,102.98,257.31,103.26,257.01,103.43z M263.06,106.93c-0.3,0.17-0.79,0.17-1.09,0
				c-0.3-0.17-0.3-0.46,0-0.63c0.3-0.17,0.79-0.17,1.09,0C263.36,106.47,263.36,106.76,263.06,106.93z M269.11,110.42
				c-0.3,0.17-0.79,0.17-1.09,0c-0.3-0.17-0.3-0.46,0-0.63c0.3-0.17,0.79-0.17,1.09,0C269.41,109.97,269.41,110.25,269.11,110.42z
				 M238.85,92.95c-0.3,0.17-0.79,0.17-1.09,0c-0.3-0.17-0.3-0.46,0-0.63c0.3-0.17,0.79-0.17,1.09,0
				C239.15,92.49,239.15,92.78,238.85,92.95z M244.9,96.44c-0.3,0.17-0.79,0.17-1.09,0c-0.3-0.17-0.3-0.46,0-0.63
				c0.3-0.17,0.79-0.17,1.09,0C245.2,95.99,245.2,96.27,244.9,96.44z M214.15,121.26l3.95-2.28l5.02-2.9l11.35,0.44l9.06,0.35
				l-8.97,5.18L214.15,121.26z M216.86,105.72l4.74-2.74l9.06,0.35l-4.23,2.44l0.76,6.55l-4.74,2.74l-5.57,3.22l-3.95,2.28
				l-0.61-5.23l5.29-3.06L216.86,105.72z M232.79,89.46c-0.3,0.17-0.79,0.17-1.09,0c-0.3-0.17-0.3-0.46,0-0.63
				c0.3-0.17,0.79-0.17,1.09,0C233.09,89,233.09,89.28,232.79,89.46z"/>
		</g>
		<g>
			<path style="fill:#2D4057;" d="M309.14,181.14c-1.16-3.88,5.44-32.59,7.49-43.25c1.4-7.25-0.57-12.87-5.26-17.82l-37.73-31.46
				l-21.19-4.42c-4.45,9.88-3.74,19.47-0.87,28.94c12.61,10.22,28.86,17.54,49.13,21.94c-8.77,14.2-6.58,22.01-6.9,38.97
				c-1.4,3.72,1.89,6.29,2.98,8.26C301.37,184.56,305.33,184.33,309.14,181.14z"/>
			<path style="fill:#FFB091;" d="M313.54,186.37c-1.55-1.98-3.22-3.59-4.41-5.23c-3.81,3.19-7.77,3.42-12.35,1.17
				c-0.02,0.89,0.02,1.78,0.08,2.76c1.15,4.12,3.62,7.43,6.85,10.27c4.3,3.14,8.52,5.64,12.22,4.21l7.83-4.45L313.54,186.37z"/>
			<path style="fill:#283440;" d="M298.71,176.55c-2.94,4.22-3.12,10.32-1.91,14.44c2.24,3.27,5.45,4.44,9.1,9.23l3.34,3.12
				c6.48,3.9,13.67,4.13,17.38,1.85c2.25-3.59,0.93-10.04-7.73-14.29c5.59,4.52,0.43,7.78-4.87,7.98c-3.6-0.43-6.27-4.13-10.54-9.14
				C299.51,184.46,297.54,180.77,298.71,176.55z"/>
			<path style="fill:#FFA27D;" d="M304.74,193.97c-2.28-2.66-4.18-5.55-5.13-8.37c-3.59,0.97-7.35,0.34-10.73-1.89
				c-1.04,3.38-2.2,5.61-1.72,8.57c1.56,4.22,4.38,7.64,7.93,10.61c4.66,3.29,9.17,5.94,12.78,4.58l8.18-4.73L304.74,193.97z"/>
			<path style="fill:#283440;" d="M289.07,183.12c-2.94,4.22-3.12,10.33-1.91,14.44c2.24,3.27,5.45,4.44,9.1,9.23l3.34,3.12
				c6.48,3.9,16.95,2.14,20.66-0.14c2.25-3.59-2.35-8.05-11.01-12.3c5.59,4.52,0.43,7.78-4.87,7.98c-3.6-0.43-6.28-4.13-10.54-9.14
				C289.87,191.03,287.89,187.34,289.07,183.12z"/>
			<path style="fill:#456185;" d="M301.17,189c-2.21-6.56-0.06-29.11,1.4-44.22c0.71-7.34-1.45-12.93-7.35-17.36l-44.48-34.24
				l-18.32-4.58c-3.54,9.94-7.68,22.43,1.93,29.41c13.76,10.71,29.17,18.11,50.12,23.08c-8.58,16.27,0.91,37.21-1.49,45.01
				C284.79,190.61,294.15,192.89,301.17,189z"/>
			<path style="fill:#D5E1F2;" d="M290.23,65.82c-0.74-8.56-1.82-17.59-4.29-34.12c-1.81-11.81-16.88-14.47-15.19,1.33
				c2.62,16.72,3.99,25.87,6.21,35.54c0.53,2.29,1.28,4.87,3.04,6.42c4.95,4.36,8.52,7.42,13.24,11.55l5.59-8.35L290.23,65.82z"/>
			<path style="fill:#D5E1F2;" d="M288.71,64.56c-1.19,6.59-6.56,8.95-9.37,9.75c-1.05,0.3-1.75,0.38-1.75,0.38
				c-2.26,5.24-2.28,9.75-0.81,14.84c-6.33,12.1-21.72,23.97-46.81,6.62c0,0,3.13-11.33,6.12-19.38c1.31-3.53,0.43-7.59-0.51-12.19
				c-1.02-5.02-2.1-10.67-0.45-16.95c4.14-15.75,39.47-25.29,39.47-25.29c9.34,2.97,10.33,10.63,9.05,19.05
				c-0.68,4.44,0.09,9,2.19,12.97C287.6,57.66,289.23,61.69,288.71,64.56z"/>
			<g>
				<polygon points="331.17,113.54 292.47,135.88 268.24,121.89 268.24,120.7 306.93,99.55 				"/>
				<polygon style="fill:#8196B3;" points="331.17,112.35 292.47,134.69 268.24,120.7 306.93,98.36 				"/>
				<g>
					<polygon style="fill:#FFFFFF;" points="325.45,113.27 322.96,114.7 321.07,113.61 323.55,112.17 					"/>
					<polygon style="fill:#FFFFFF;" points="322.56,114.94 320.07,116.37 318.18,115.28 320.66,113.84 					"/>
					<polygon style="fill:#FFFFFF;" points="319.67,116.6 317.18,118.04 315.29,116.94 317.77,115.51 					"/>
					<polygon style="fill:#FFFFFF;" points="316.78,118.27 314.29,119.71 312.4,118.61 314.88,117.18 					"/>
					<polygon style="fill:#FFFFFF;" points="313.89,119.94 311.4,121.38 309.51,120.28 311.99,118.85 					"/>
					<polygon style="fill:#FFFFFF;" points="311,121.61 308.51,123.05 306.62,121.95 309.1,120.52 					"/>
					<polygon style="fill:#FFFFFF;" points="308.11,123.28 305.62,124.71 303.73,123.62 306.21,122.19 					"/>
					<polygon style="fill:#FFFFFF;" points="305.22,124.95 302.73,126.38 300.84,125.29 303.32,123.85 					"/>
					<polygon style="fill:#FFFFFF;" points="302.33,126.62 299.84,128.05 297.95,126.96 300.43,125.52 					"/>
					<polygon style="fill:#FFFFFF;" points="299.44,128.29 296.95,129.72 295.06,128.63 297.54,127.19 					"/>
					<polygon style="fill:#FFFFFF;" points="296.54,129.96 294.06,131.39 292.16,130.3 294.65,128.86 					"/>
					<polygon style="fill:#FFFFFF;" points="322.05,111.31 319.57,112.74 317.67,111.65 320.16,110.21 					"/>
					<polygon style="fill:#FFFFFF;" points="319.16,112.97 316.68,114.41 314.78,113.31 317.26,111.88 					"/>
					<polygon style="fill:#FFFFFF;" points="316.27,114.64 313.79,116.08 311.89,114.98 314.37,113.55 					"/>
					<polygon style="fill:#FFFFFF;" points="313.38,116.31 310.89,117.75 309,116.65 311.48,115.22 					"/>
					<polygon style="fill:#FFFFFF;" points="310.49,117.98 308,119.41 306.11,118.32 308.59,116.89 					"/>
					<polygon style="fill:#FFFFFF;" points="307.6,119.65 305.11,121.08 303.22,119.99 305.7,118.55 					"/>
					<polygon style="fill:#FFFFFF;" points="304.71,121.32 302.22,122.75 300.33,121.66 302.81,120.22 					"/>
					<polygon style="fill:#FFFFFF;" points="301.82,122.99 299.33,124.42 297.44,123.33 299.92,121.89 					"/>
					<polygon style="fill:#FFFFFF;" points="298.93,124.66 296.44,126.09 294.55,125 297.03,123.56 					"/>
					<polygon style="fill:#FFFFFF;" points="296.04,126.32 293.55,127.76 291.66,126.66 294.14,125.23 					"/>
					<polygon style="fill:#FFFFFF;" points="293.15,127.99 290.66,129.43 288.77,128.33 291.25,126.9 					"/>
					<polygon style="fill:#FFFFFF;" points="319.88,110.05 317.39,111.48 315.5,110.39 317.98,108.96 					"/>
					<polygon style="fill:#FFFFFF;" points="316.99,111.72 314.5,113.15 312.61,112.06 315.09,110.62 					"/>
					<polygon style="fill:#FFFFFF;" points="314.1,113.39 311.61,114.82 309.72,113.73 312.2,112.29 					"/>
					<polygon style="fill:#FFFFFF;" points="311.21,115.06 308.72,116.49 306.83,115.4 309.31,113.96 					"/>
					<polygon style="fill:#FFFFFF;" points="308.32,116.73 305.83,118.16 303.94,117.07 306.42,115.63 					"/>
					<polygon style="fill:#FFFFFF;" points="305.43,118.39 302.94,119.83 301.05,118.73 303.53,117.3 					"/>
					<polygon style="fill:#FFFFFF;" points="302.53,120.06 300.05,121.5 298.15,120.4 300.64,118.97 					"/>
					<polygon style="fill:#FFFFFF;" points="299.64,121.73 297.16,123.17 295.26,122.07 297.75,120.64 					"/>
					<polygon style="fill:#FFFFFF;" points="296.75,123.4 294.27,124.84 292.37,123.74 294.86,122.31 					"/>
					<polygon style="fill:#FFFFFF;" points="293.86,125.07 291.38,126.5 289.48,125.41 291.97,123.98 					"/>
					<polygon style="fill:#FFFFFF;" points="317.7,108.8 315.22,110.23 313.32,109.14 315.81,107.7 					"/>
					<polygon style="fill:#FFFFFF;" points="314.81,110.46 312.33,111.9 310.43,110.8 312.92,109.37 					"/>
					<polygon style="fill:#FFFFFF;" points="311.92,112.13 309.44,113.57 307.54,112.47 310.03,111.04 					"/>
					<polygon style="fill:#FFFFFF;" points="309.03,113.8 306.55,115.24 304.65,114.14 307.14,112.71 					"/>
					<polygon style="fill:#FFFFFF;" points="306.14,115.47 303.66,116.91 301.76,115.81 304.25,114.38 					"/>
					<polygon style="fill:#FFFFFF;" points="303.25,117.14 300.77,118.57 298.87,117.48 301.36,116.05 					"/>
					<polygon style="fill:#FFFFFF;" points="300.36,118.81 297.88,120.24 295.98,119.15 298.47,117.71 					"/>
					<polygon style="fill:#FFFFFF;" points="297.47,120.48 294.99,121.91 293.09,120.82 295.58,119.38 					"/>
					<polygon style="fill:#FFFFFF;" points="294.58,122.15 292.1,123.58 290.2,122.49 292.69,121.05 					"/>
					<polygon style="fill:#FFFFFF;" points="290.97,126.74 288.8,125.48 291.69,123.82 289.8,122.72 286.9,124.39 286.18,124.81 
						284.42,125.82 286.03,126.76 286.32,126.92 288.49,128.17 					"/>
					<polygon style="fill:#FFFFFF;" points="311.88,109.65 312.64,109.21 315.53,107.54 313.64,106.45 310.75,108.12 309.99,108.55 
						308.26,109.55 310.16,110.64 					"/>
					<polygon style="fill:#FFFFFF;" points="309.75,110.88 307.27,112.31 305.37,111.22 307.85,109.78 					"/>
					<polygon style="fill:#FFFFFF;" points="306.86,112.55 304.38,113.98 302.48,112.89 304.96,111.45 					"/>
					<polygon style="fill:#FFFFFF;" points="303.97,114.22 301.48,115.65 299.59,114.56 302.07,113.12 					"/>
					<polygon style="fill:#FFFFFF;" points="301.08,115.89 298.59,117.32 296.7,116.23 299.18,114.79 					"/>
					<polygon style="fill:#FFFFFF;" points="298.19,117.55 295.7,118.99 293.81,117.89 296.29,116.46 					"/>
					<polygon style="fill:#FFFFFF;" points="295.3,119.22 292.81,120.66 290.92,119.56 293.4,118.13 					"/>
					<polygon style="fill:#FFFFFF;" points="292.41,120.89 289.92,122.33 288.03,121.23 290.51,119.8 					"/>
					<polygon style="fill:#FFFFFF;" points="287.03,123.99 287.46,123.75 289.52,122.56 287.62,121.47 285.56,122.66 285.14,122.9 
						282.25,124.57 284.14,125.66 					"/>
					<polygon style="fill:#FFFFFF;" points="313.36,106.29 310.87,107.72 308.98,106.63 311.46,105.19 					"/>
					<polygon style="fill:#FFFFFF;" points="310.47,107.96 307.98,109.39 306.09,108.3 308.57,106.86 					"/>
					<polygon style="fill:#FFFFFF;" points="307.58,109.62 305.09,111.06 303.2,109.96 305.68,108.53 					"/>
					<polygon style="fill:#FFFFFF;" points="291.88,118.69 293.13,117.97 293.53,117.73 296.02,116.3 296.42,116.07 298.91,114.63 
						299.31,114.4 301.8,112.96 304.69,111.29 302.79,110.2 299.9,111.87 297.42,113.3 297.01,113.54 294.53,114.97 294.12,115.21 
						291.64,116.64 291.23,116.87 289.99,117.59 288.74,118.31 290.64,119.4 					"/>
					<polygon style="fill:#FFFFFF;" points="290.23,119.64 287.75,121.07 285.85,119.98 288.34,118.54 					"/>
					<polygon style="fill:#FFFFFF;" points="287.34,121.31 284.86,122.74 282.96,121.65 285.45,120.21 					"/>
					<polygon style="fill:#FFFFFF;" points="284.45,122.97 281.97,124.41 280.07,123.31 282.56,121.88 					"/>
				</g>
				<polygon points="299.53,110.33 288.97,116.42 283.59,113.32 294.15,107.22 				"/>
				<polygon points="343.17,88.25 304.48,110.59 292.41,134.72 331.1,112.38 343.91,89.11 				"/>
				<polygon points="343.91,89.11 305.22,111.45 293.15,135.58 331.84,113.24 				"/>
			</g>
			<path style="fill:#FFA27D;" d="M272.21,113.99l2.95,1.51c3.25,2.45,6.16,2.95,8.99,2.94l3.01,2.01l2.27,3.2
				c1.62,1.98,2.34,0.71,1.56-0.91l-1.22-2.07l-2.56-3.06l0.97-0.6l2.17,0.63l3.11,1.71l0.82,0.9c0.45,0.49,1.16,0.63,1.76,0.35
				c0.15-0.07,0.46,0.08,0.46,0.08c0.48,0.24,1.06,0.06,1.32-0.4c0.29-0.5,0.28-1.12-0.02-1.62l-1.39-2.27l-2.51-2.08l2.03,0.32
				l1.64,1.17l1.07,1.31c1.17,1.27,1.89,0.12,1.4-1.14l-1.28-1.93l-3.39-2.52l-5.33-1.6l-10.24-0.11l-4.23-1.67l-4.05-0.66
				C268.43,105.49,269.86,112.16,272.21,113.99z"/>
			<g>
				<defs>
					<polygon id="SVGID_1_" points="304.48,110.59 328.35,96.81 316.05,79.41 286.52,93.34 					"/>
				</defs>
				<clipPath id="SVGID_00000122710056645339064260000017609159711326991754_">
					<use xlink:href="#SVGID_1_"  style="overflow:visible;"/>
				</clipPath>
				<path style="clip-path:url(#SVGID_00000122710056645339064260000017609159711326991754_);fill:#FFA27D;" d="M301.45,93.5
					l0.71,0.95l0.48,4.99l1.99,3.29l1.07,2.06l2.2,1.87c1.11,0.75,1.87-0.56,1.09-1.92l-1.55-2.07l-0.24-2.34
					c1.24-0.81,2.58-0.85,4.03-0.16c0,0,1.27,2.76,1.31,2.89c0.04,0.13,0.97,2.7,0.97,2.7c0.64,2.23,2.38,1.83,2.08-0.02l-0.91-3.31
					l-0.63-2.57l2.48,2.96l1.41,2.63c0.87,1.49,2.35,1.14,1.91-0.3l-1.06-2.45l-1.23-2.37l2.36,2.09l0.91,2.06
					c0.27,0.61,0.8,1.16,1.46,1.13c0.61-0.08,0.8-0.76,0.45-1.27c0.36-0.29,0.17-1.05-0.06-1.44l-2.13-3.05l-6.23-5.09l-5.84-3.55
					l-4.86-2.52C301.28,86.81,300.16,91.42,301.45,93.5z"/>
			</g>
			<path style="opacity:0.2;fill:#2D4057;" d="M277.58,74.68c-2.26,5.24-2.28,9.75-0.81,14.84c-6.33,12.1-21.72,23.97-46.81,6.62
				c0,0,3.13-11.33,6.12-19.38c1.31-3.53,0.43-7.59-0.51-12.19l9.61-13.82c10.37,2.53,7.62,29.1,19.65,31.22
				c11.21,2.11,8.41-11,14.5-7.67C278.28,74.6,277.58,74.68,277.58,74.68z"/>
			<path style="fill:#D5E1F2;" d="M234.7,57.87c2.62,16.72,3.06,22.05,5.29,31.72c0.53,2.29,1.8,4.34,3.62,5.81
				c7.96,6.47,16.95,14.11,31.27,19.83c0.57-2.97,2.09-4.91,4.93-5.44l-26.9-24.2c0-8.56-0.54-16.99-3.01-33.51
				C246.27,40.39,233.01,42.07,234.7,57.87z"/>
			<path style="fill:#FFA27D;" d="M264.23,17.36L259,34.41c0,0,12.69,24.6,17.25,31.61c4.01-14.88,0.52-28.89,0.52-28.89V19.35
				L264.23,17.36z"/>
			<path style="fill:#FFFFFF;" d="M259.75,26.07l-3.29,3.39c-1.98,2.33-4.7,5.84-4.52,10.89l5.53-0.56l-5.17,7.08
				c9.56,2.52,18.62,10.37,24.33,20.79C272.56,48.39,260.48,44.26,259.75,26.07z"/>
			<path style="fill:#FFFFFF;" d="M273,25.43c4.04,6.23,5.52,24.51,3.25,40.59c4.08-12.14,7.82-24.19,8.3-31.58l-4.59-1.36
				l3.91-1.59c-1.41-3.32-3.3-6.16-6.3-7.94L273,25.43z"/>
			<path style="fill:#FFC8B3;" d="M264.48,28.12c0,0,3.29,16.6,9.38,15.46c4.36-0.81,4.63-14.2,4.63-14.2L264.48,28.12z"/>
			<path style="fill:#FFA27D;" d="M288.74,13.74c0,0,0.44,17.96-10.16,23.87c-4.71,2.62-9.01-2.17-9.01-2.17
				c-4.63-4.9-7.79-9.71-7.45-14.29l6.11-11.21L288.74,13.74z"/>
			<path d="M257.18,35.88c5.09,1.79,14.32-4.54,14.53-3.39c0.18,0.99-1.39,3.4-2.49,5.42c5.54-0.72,16.62-10.48,17.31-20.55
				c1.52,2.15,1.3,5.91,0.45,8.58c5.26-1.77,13.16-26.16-16.36-25.94C248.2,0.16,257.18,35.88,257.18,35.88z"/>
			<path style="fill:#D5E1F2;" d="M307.54,90.73l-8.72-12.54c-2.84,1.62-4.7,4.41-5.59,8.35c2.93,2.56,4.49,3.98,8.93,7.93
				C302.7,92.14,305.43,89.63,307.54,90.73z"/>
		</g>
	</g>
</g>
</svg>
