<?xml version="1.0" encoding="utf-8"?>
<!-- Generator: Adobe Illustrator 26.3.1, SVG Export Plug-In . SVG Version: 6.00 Build 0)  -->
<svg version="1.1" id="Layer_1" xmlns="http://www.w3.org/2000/svg" xmlns:xlink="http://www.w3.org/1999/xlink" x="0px" y="0px"
	 viewBox="0 0 412.1 351.4" style="enable-background:new 0 0 412.1 351.4;" xml:space="preserve">
<style type="text/css">
	.st0{fill:#A1C7DB;}
	.st1{fill:#193751;}
	.st2{fill:#295475;}
	.st3{fill:#FFFFFF;}
	.st4{fill:#3D85B2;}
	.st5{fill:#0D5CA9;}
	.st6{fill:#DCEBF9;}
	.st7{fill:#B4D5EF;}
	.st8{fill:#FAAF76;}
	.st9{fill:#00D3D4;}
	.st10{fill:#F7941C;}
	.st11{fill:#24C5CF;}
</style>
<g>
	<g>
		<path class="st0" d="M217.4,326.9L217.4,326.9c-1.5,0-2.9,0-4.3,0l0-1.1c1.4,0,2.8,0,4.2,0L217.4,326.9z M221.6,326.8l0-1.1
			c1.4,0,2.8-0.1,4.2-0.2l0.1,1.1C224.5,326.7,223.1,326.8,221.6,326.8z M208.8,326.6c-1.4-0.1-2.9-0.2-4.3-0.3l0.1-1.1
			c1.4,0.1,2.8,0.2,4.2,0.3L208.8,326.6z M230.1,326.4l-0.1-1.1c1.4-0.1,2.8-0.2,4.2-0.4l0.1,1.1C233,326.1,231.6,326.2,230.1,326.4
			z M200.3,326c-1.4-0.1-2.8-0.3-4.2-0.5l0.1-1.1c1.4,0.2,2.8,0.4,4.2,0.5L200.3,326z M238.6,325.4l-0.1-1.1
			c1.4-0.2,2.8-0.4,4.2-0.6l0.2,1C241.5,325,240.1,325.2,238.6,325.4z M191.9,324.8c-1.4-0.2-2.8-0.5-4.2-0.7l0.2-1
			c1.4,0.3,2.8,0.5,4.2,0.7L191.9,324.8z M247.1,324.1l-0.2-1c1.4-0.3,2.8-0.5,4.2-0.9l0.2,1C249.9,323.5,248.5,323.8,247.1,324.1z
			 M183.5,323.2c-1.4-0.3-2.8-0.6-4.2-1l0.3-1c1.4,0.3,2.8,0.7,4.1,1L183.5,323.2z M255.4,322.2l-0.3-1c1.4-0.3,2.7-0.7,4.1-1.1
			l0.3,1C258.2,321.5,256.8,321.9,255.4,322.2z M175.2,321.2c-1.4-0.4-2.7-0.8-4.1-1.2l0.3-1c1.4,0.4,2.7,0.8,4.1,1.2L175.2,321.2z
			 M263.6,319.9l-0.3-1c1.4-0.4,2.7-0.9,4-1.3l0.3,1C266.4,319.1,265,319.5,263.6,319.9z M167,318.7c-1.4-0.5-2.7-0.9-4-1.4l0.4-1
			c1.3,0.5,2.7,1,4,1.4L167,318.7z M271.7,317.2l-0.4-1c1.3-0.5,2.6-1,4-1.5l0.4,1C274.4,316.2,273.1,316.7,271.7,317.2z
			 M158.9,315.7c-1.3-0.5-2.6-1.1-3.9-1.6l0.4-1c1.3,0.6,2.6,1.1,3.9,1.6L158.9,315.7z M279.6,314.1l-0.4-1c1.3-0.6,2.6-1.1,3.9-1.7
			l0.5,1C282.2,312.9,280.9,313.5,279.6,314.1z M151.1,312.3c-1.3-0.6-2.6-1.2-3.9-1.9l0.5-1c1.3,0.6,2.5,1.2,3.8,1.8L151.1,312.3z
			 M287.4,310.5l-0.5-1c1.3-0.6,2.5-1.3,3.8-1.9l0.5,0.9C289.9,309.2,288.6,309.8,287.4,310.5z M143.4,308.5
			c-1.3-0.7-2.5-1.4-3.8-2.1l0.5-0.9c1.2,0.7,2.5,1.4,3.7,2L143.4,308.5z M294.9,306.5l-0.5-0.9c1.2-0.7,2.5-1.4,3.6-2.1l0.5,0.9
			C297.4,305.1,296.1,305.8,294.9,306.5z M136,304.3c-1.2-0.7-2.4-1.5-3.6-2.3l0.6-0.9c1.2,0.8,2.4,1.5,3.6,2.2L136,304.3z
			 M302.2,302.1l-0.6-0.9c1.2-0.8,2.4-1.5,3.5-2.3l0.6,0.9C304.6,300.5,303.4,301.3,302.2,302.1z M128.8,299.7
			c-1.2-0.8-2.3-1.6-3.5-2.5l0.6-0.9c1.2,0.8,2.3,1.6,3.5,2.4L128.8,299.7z M309.2,297.3l-0.6-0.9c1.1-0.8,2.3-1.7,3.4-2.5l0.6,0.9
			C311.5,295.6,310.4,296.5,309.2,297.3z M121.8,294.7c-1.1-0.9-2.2-1.7-3.4-2.6l0.7-0.8c1.1,0.9,2.2,1.8,3.3,2.6L121.8,294.7z
			 M316,292.1l-0.7-0.8c1.1-0.9,2.2-1.8,3.3-2.7l0.7,0.8C318.2,290.3,317.1,291.2,316,292.1z M115.2,289.3c-1.1-0.9-2.2-1.9-3.2-2.8
			l0.7-0.8c1.1,0.9,2.1,1.9,3.2,2.8L115.2,289.3z M322.5,286.6l-0.7-0.8c1-0.9,2.1-1.9,3.1-2.9l0.7,0.8
			C324.6,284.7,323.6,285.6,322.5,286.6z M108.8,283.6c-1-1-2.1-2-3.1-3l0.8-0.8c1,1,2,2,3,3L108.8,283.6z M328.7,280.7L328,280
			c1-1,2-2,3-3l0.8,0.7C330.7,278.7,329.7,279.7,328.7,280.7z M102.8,277.6c-1-1-1.9-2.1-2.9-3.1l0.8-0.7c0.9,1,1.9,2.1,2.9,3.1
			L102.8,277.6z M334.6,274.5l-0.8-0.7c1-1,1.9-2.1,2.8-3.2l0.8,0.7C336.5,272.4,335.6,273.5,334.6,274.5z M97.1,271.2
			c-0.9-1.1-1.8-2.2-2.7-3.3l0.8-0.7c0.9,1.1,1.8,2.2,2.7,3.3L97.1,271.2z M340.1,268l-0.8-0.7c0.9-1.1,1.8-2.2,2.6-3.3l0.9,0.6
			C341.9,265.8,341,266.9,340.1,268z M91.8,264.6c-0.9-1.1-1.7-2.3-2.5-3.4l0.9-0.6c0.8,1.1,1.7,2.3,2.5,3.4L91.8,264.6z
			 M345.3,261.2l-0.9-0.6c0.8-1.1,1.6-2.3,2.4-3.5l0.9,0.6C347,258.9,346.2,260.1,345.3,261.2z M86.8,257.7
			c-0.8-1.2-1.6-2.4-2.3-3.6l0.9-0.6c0.8,1.2,1.5,2.4,2.3,3.5L86.8,257.7z M350.1,254.2l-0.9-0.6c0.8-1.2,1.5-2.4,2.2-3.6l0.9,0.6
			C351.6,251.8,350.9,253,350.1,254.2z M82.2,250.5c-0.7-1.2-1.4-2.4-2.2-3.7l0.9-0.5c0.7,1.2,1.4,2.4,2.1,3.6L82.2,250.5z
			 M354.5,246.9l-0.9-0.5c0.7-1.2,1.4-2.5,2-3.7l0.9,0.5C355.9,244.4,355.2,245.6,354.5,246.9z M78,243.1c-0.7-1.2-1.3-2.5-1.9-3.8
			l1-0.5c0.6,1.3,1.3,2.5,1.9,3.8L78,243.1z M358.6,239.3l-1-0.5c0.6-1.3,1.2-2.5,1.8-3.8l1,0.4C359.8,236.7,359.2,238,358.6,239.3z
			 M74.2,235.5c-0.6-1.3-1.2-2.6-1.7-3.9l1-0.4c0.6,1.3,1.1,2.6,1.7,3.9L74.2,235.5z M362.2,231.5l-1-0.4c0.6-1.3,1.1-2.6,1.6-3.9
			l1,0.4C363.3,228.9,362.7,230.2,362.2,231.5z M70.8,227.6c-0.5-1.3-1-2.6-1.5-4l1-0.4c0.5,1.3,1,2.6,1.5,4L70.8,227.6z
			 M365.3,223.6l-1-0.4c0.5-1.3,1-2.7,1.4-4l1,0.3C366.3,220.9,365.8,222.2,365.3,223.6z M67.9,219.6c-0.4-1.4-0.9-2.7-1.3-4.1
			l1-0.3c0.4,1.4,0.8,2.7,1.3,4L67.9,219.6z M368.1,215.5l-1-0.3c0.4-1.4,0.8-2.7,1.2-4.1l1,0.3
			C368.9,212.7,368.5,214.1,368.1,215.5z M65.3,211.5c-0.4-1.4-0.7-2.8-1.1-4.1l1-0.3c0.3,1.4,0.7,2.7,1.1,4.1L65.3,211.5z
			 M370.4,207.2l-1-0.3c0.3-1.4,0.7-2.8,1-4.1l1,0.2C371,204.5,370.7,205.9,370.4,207.2z M63.3,203.2c-0.3-1.4-0.6-2.8-0.9-4.2
			l1-0.2c0.3,1.4,0.5,2.8,0.9,4.1L63.3,203.2z M372.2,198.9l-1-0.2c0.3-1.4,0.5-2.8,0.7-4.2l1,0.2
			C372.7,196.1,372.5,197.5,372.2,198.9z M61.7,194.8c-0.2-1.4-0.4-2.8-0.6-4.2l1.1-0.1c0.2,1.4,0.4,2.8,0.6,4.2L61.7,194.8z
			 M373.5,190.5l-1.1-0.1c0.2-1.4,0.4-2.8,0.5-4.2l1.1,0.1C373.9,187.6,373.7,189.1,373.5,190.5z M60.5,186.3
			c-0.2-1.4-0.3-2.8-0.4-4.2l1.1-0.1c0.1,1.4,0.2,2.8,0.4,4.2L60.5,186.3z M374.5,182l-1.1-0.1c0.1-1.4,0.2-2.8,0.3-4.2l1.1,0.1
			C374.7,179.1,374.6,180.6,374.5,182z M59.8,177.8c-0.1-1.4-0.1-2.8-0.2-4.3l1.1,0c0,1.4,0.1,2.8,0.2,4.2L59.8,177.8z M374.9,173.4
			l-1.1,0c0-1.4,0.1-2.8,0.1-4.2v-0.2h1.1v0.2C375,170.6,375,172,374.9,173.4z M60.7,169.3h-1.1v-0.1c0-1.4,0-2.8,0-4.2l1.1,0
			c0,1.4,0,2.7,0,4.1V169.3z M373.9,164.7c0-1.4-0.1-2.8-0.2-4.2l1.1-0.1c0.1,1.4,0.1,2.8,0.2,4.3L373.9,164.7z M60.9,160.8
			l-1.1-0.1c0.1-1.4,0.2-2.8,0.3-4.3l1.1,0.1C61.1,158,61,159.4,60.9,160.8z M373.4,156.2c-0.1-1.4-0.2-2.8-0.4-4.2l1.1-0.1
			c0.1,1.4,0.3,2.8,0.4,4.2L373.4,156.2z M61.6,152.4l-1.1-0.1c0.2-1.4,0.3-2.8,0.5-4.2l1.1,0.1C61.9,149.6,61.7,150.9,61.6,152.4z
			 M372.5,147.8c-0.2-1.4-0.4-2.8-0.6-4.2l1-0.2c0.2,1.4,0.4,2.8,0.6,4.2L372.5,147.8z M62.7,144l-1-0.2c0.2-1.4,0.5-2.8,0.7-4.2
			l1,0.2C63.2,141.2,62.9,142.6,62.7,144z M371.1,139.4c-0.3-1.4-0.5-2.8-0.9-4.1l1-0.2c0.3,1.4,0.6,2.8,0.9,4.2L371.1,139.4z
			 M64.3,135.6l-1-0.2c0.3-1.4,0.6-2.8,1-4.2l1,0.3C64.9,132.9,64.6,134.2,64.3,135.6z M369.3,131.1c-0.3-1.4-0.7-2.7-1.1-4.1l1-0.3
			c0.4,1.4,0.8,2.8,1.1,4.1L369.3,131.1z M66.3,127.4l-1-0.3c0.4-1.4,0.8-2.7,1.2-4.1l1,0.3C67.1,124.7,66.7,126,66.3,127.4z
			 M367,123c-0.4-1.3-0.9-2.7-1.3-4l1-0.3c0.5,1.3,0.9,2.7,1.3,4.1L367,123z M68.8,119.3l-1-0.3c0.5-1.4,0.9-2.7,1.4-4l1,0.4
			C69.7,116.6,69.2,117.9,68.8,119.3z M364.3,114.9c-0.5-1.3-1-2.7-1.5-4l1-0.4c0.5,1.3,1,2.7,1.5,4L364.3,114.9z M71.7,111.3
			l-1-0.4c0.5-1.3,1.1-2.7,1.6-4l1,0.4C72.8,108.7,72.2,110,71.7,111.3z M361.1,107.1c-0.6-1.3-1.1-2.6-1.7-3.9l1-0.4
			c0.6,1.3,1.2,2.6,1.7,3.9L361.1,107.1z M75.1,103.5l-1-0.4c0.6-1.3,1.2-2.6,1.8-3.9l1,0.5C76.3,100.9,75.7,102.2,75.1,103.5z
			 M357.6,99.4c-0.6-1.3-1.3-2.5-1.9-3.8l0.9-0.5c0.7,1.2,1.3,2.5,2,3.8L357.6,99.4z M78.9,95.9l-0.9-0.5c0.7-1.3,1.3-2.5,2.1-3.8
			l0.9,0.5C80.2,93.4,79.5,94.6,78.9,95.9z M353.6,91.9c-0.7-1.2-1.4-2.4-2.1-3.7l0.9-0.6c0.7,1.2,1.5,2.4,2.1,3.7L353.6,91.9z
			 M83.1,88.5l-0.9-0.6c0.7-1.2,1.5-2.4,2.3-3.6l0.9,0.6C84.5,86.1,83.8,87.2,83.1,88.5z M349.2,84.7c-0.8-1.2-1.5-2.4-2.3-3.5
			l0.9-0.6c0.8,1.2,1.6,2.4,2.4,3.6L349.2,84.7z M87.6,81.3l-0.9-0.6c0.8-1.2,1.6-2.3,2.4-3.5l0.9,0.6C89.2,79,88.4,80.1,87.6,81.3z
			 M344.4,77.7c-0.8-1.2-1.7-2.3-2.5-3.4l0.9-0.7c0.9,1.1,1.7,2.3,2.5,3.4L344.4,77.7z M92.6,74.4l-0.8-0.7c0.9-1.1,1.7-2.3,2.6-3.4
			l0.8,0.7C94.3,72.2,93.4,73.3,92.6,74.4z M339.3,71c-0.9-1.1-1.8-2.2-2.7-3.3l0.8-0.7c0.9,1.1,1.8,2.2,2.7,3.3L339.3,71z
			 M97.9,67.8l-0.8-0.7C98,66,99,65,99.9,63.9l0.8,0.7C99.8,65.7,98.8,66.7,97.9,67.8z M333.8,64.5c-1-1-1.9-2.1-2.9-3.1l0.8-0.7
			c1,1,1.9,2.1,2.9,3.1L333.8,64.5z M103.6,61.5l-0.8-0.7c1-1,2-2,3-3.1l0.8,0.8C105.5,59.5,104.5,60.5,103.6,61.5z M328,58.4
			c-1-1-2-2-3-3l0.7-0.8c1,1,2,2,3.1,3L328,58.4z M109.6,55.5l-0.7-0.8c1-1,2.1-1.9,3.1-2.9l0.7,0.8
			C111.6,53.6,110.6,54.5,109.6,55.5z M321.8,52.5c-1-0.9-2.1-1.9-3.2-2.8l0.7-0.8c1.1,0.9,2.2,1.9,3.2,2.8L321.8,52.5z M115.9,49.8
			l-0.7-0.8c1.1-0.9,2.2-1.8,3.3-2.7l0.7,0.8C118,48,116.9,48.9,115.9,49.8z M315.3,47c-1.1-0.9-2.2-1.8-3.3-2.6l0.6-0.8
			c1.1,0.9,2.3,1.7,3.4,2.6L315.3,47z M122.5,44.5l-0.7-0.8c1.1-0.9,2.3-1.7,3.4-2.5l0.6,0.9C124.7,42.8,123.6,43.7,122.5,44.5z
			 M308.6,41.9c-1.1-0.8-2.3-1.6-3.5-2.4l0.6-0.9c1.2,0.8,2.4,1.6,3.5,2.5L308.6,41.9z M129.3,39.6l-0.6-0.9
			c1.2-0.8,2.4-1.6,3.6-2.3l0.6,0.9C131.7,38,130.5,38.8,129.3,39.6z M301.6,37.1c-1.2-0.8-2.4-1.5-3.6-2.2l0.5-0.9
			c1.2,0.7,2.4,1.5,3.6,2.2L301.6,37.1z M136.5,35l-0.6-0.9c1.2-0.7,2.4-1.5,3.7-2.1l0.5,0.9C138.9,33.6,137.7,34.3,136.5,35z
			 M294.3,32.8c-1.2-0.7-2.5-1.4-3.7-2l0.5-0.9c1.3,0.7,2.5,1.4,3.8,2.1L294.3,32.8z M143.8,30.8l-0.5-0.9c1.2-0.7,2.5-1.3,3.8-2
			l0.5,1C146.3,29.5,145.1,30.2,143.8,30.8z M286.8,28.8c-1.3-0.6-2.5-1.2-3.8-1.8l0.5-1c1.3,0.6,2.6,1.2,3.9,1.9L286.8,28.8z
			 M151.4,27l-0.4-1c1.3-0.6,2.6-1.2,3.9-1.7l0.4,1C154,25.9,152.7,26.5,151.4,27z M279.1,25.2c-1.3-0.6-2.6-1.1-3.9-1.6l0.4-1
			c1.3,0.5,2.6,1.1,4,1.6L279.1,25.2z M159.2,23.7l-0.4-1c1.3-0.5,2.6-1,4-1.5l0.4,1C161.8,22.7,160.5,23.2,159.2,23.7z M271.2,22.1
			c-1.3-0.5-2.7-1-4-1.4l0.3-1c1.4,0.5,2.7,0.9,4,1.4L271.2,22.1z M167.1,20.8l-0.3-1c1.4-0.5,2.7-0.9,4.1-1.3l0.3,1
			C169.8,19.9,168.5,20.3,167.1,20.8z M263.1,19.4c-1.4-0.4-2.7-0.8-4.1-1.2l0.3-1c1.4,0.4,2.7,0.8,4.1,1.2L263.1,19.4z M175.2,18.3
			l-0.3-1c1.4-0.4,2.8-0.7,4.1-1.1l0.3,1C177.9,17.5,176.6,17.9,175.2,18.3z M254.9,17.1c-1.4-0.3-2.8-0.7-4.1-1l0.2-1
			c1.4,0.3,2.8,0.6,4.2,1L254.9,17.1z M183.4,16.2l-0.2-1c1.4-0.3,2.8-0.6,4.2-0.9l0.2,1.1C186.2,15.6,184.8,15.9,183.4,16.2z
			 M246.6,15.3c-1.4-0.3-2.8-0.5-4.2-0.7l0.2-1.1c1.4,0.2,2.8,0.5,4.2,0.7L246.6,15.3z M191.8,14.6l-0.2-1.1
			c1.4-0.2,2.8-0.4,4.2-0.6L196,14C194.6,14.2,193.2,14.4,191.8,14.6z M238.3,13.9c-1.4-0.2-2.8-0.4-4.2-0.5l0.1-1.1
			c1.4,0.1,2.8,0.3,4.2,0.5L238.3,13.9z M200.2,13.5l-0.1-1.1c1.4-0.1,2.8-0.3,4.2-0.4l0.1,1.1C203,13.2,201.6,13.3,200.2,13.5z
			 M229.8,13.1c-1.4-0.1-2.8-0.2-4.2-0.3l0.1-1.1c1.4,0.1,2.8,0.2,4.3,0.3L229.8,13.1z M208.6,12.8l-0.1-1.1
			c1.4-0.1,2.8-0.1,4.3-0.2l0,1.1C211.5,12.7,210.1,12.7,208.6,12.8z M221.4,12.6c-1.4,0-2.7-0.1-4.1-0.1h-0.2v-1.1h0.2
			c1.4,0,2.7,0,4.1,0.1L221.4,12.6z"/>
	</g>
	<g>
		<path class="st0" d="M217.3,298.9L217.3,298.9c-1.2,0-2.4,0-3.5,0l0-0.9c1.1,0,2.3,0,3.4,0L217.3,298.9z M220.9,298.9l0-0.9
			c1.2,0,2.3-0.1,3.5-0.1l0.1,0.9C223.2,298.8,222,298.8,220.9,298.9z M210.3,298.7c-1.2-0.1-2.3-0.1-3.5-0.2l0.1-0.9
			c1.2,0.1,2.3,0.2,3.5,0.2L210.3,298.7z M227.9,298.5l-0.1-0.9c1.2-0.1,2.3-0.2,3.5-0.3l0.1,0.9C230.2,298.3,229,298.4,227.9,298.5
			z M203.3,298.1c-1.2-0.1-2.3-0.3-3.5-0.4l0.1-0.9c1.1,0.2,2.3,0.3,3.5,0.4L203.3,298.1z M234.9,297.7l-0.1-0.9
			c1.1-0.2,2.3-0.3,3.4-0.5l0.1,0.9C237.2,297.4,236,297.6,234.9,297.7z M196.4,297.2c-1.2-0.2-2.3-0.4-3.5-0.6l0.2-0.9
			c1.1,0.2,2.3,0.4,3.4,0.6L196.4,297.2z M241.8,296.6l-0.2-0.9c1.1-0.2,2.3-0.5,3.4-0.7l0.2,0.9
			C244.1,296.1,242.9,296.4,241.8,296.6z M189.5,295.9c-1.1-0.2-2.3-0.5-3.4-0.8l0.2-0.9c1.1,0.3,2.3,0.5,3.4,0.8L189.5,295.9z
			 M248.6,295.1l-0.2-0.9c1.1-0.3,2.2-0.6,3.4-0.9l0.2,0.8C250.9,294.5,249.8,294.8,248.6,295.1z M182.6,294.2
			c-1.1-0.3-2.2-0.6-3.4-1l0.3-0.8c1.1,0.3,2.2,0.7,3.4,1L182.6,294.2z M255.4,293.2l-0.3-0.8c1.1-0.3,2.2-0.7,3.3-1.1l0.3,0.8
			C257.6,292.5,256.5,292.9,255.4,293.2z M175.9,292.1c-1.1-0.4-2.2-0.8-3.3-1.2l0.3-0.8c1.1,0.4,2.2,0.8,3.3,1.2L175.9,292.1z
			 M262.1,291l-0.3-0.8c1.1-0.4,2.2-0.8,3.3-1.2l0.3,0.8C264.3,290.1,263.2,290.5,262.1,291z M169.3,289.7c-1.1-0.4-2.2-0.9-3.2-1.4
			l0.4-0.8c1.1,0.5,2.1,0.9,3.2,1.3L169.3,289.7z M268.6,288.4l-0.4-0.8c1.1-0.5,2.1-0.9,3.2-1.4l0.4,0.8
			C270.7,287.4,269.7,287.9,268.6,288.4z M162.8,286.9c-1.1-0.5-2.1-1-3.2-1.5l0.4-0.8c1,0.5,2.1,1,3.1,1.5L162.8,286.9z
			 M274.9,285.4l-0.4-0.8c1-0.5,2.1-1,3.1-1.6l0.4,0.8C277,284.4,276,284.9,274.9,285.4z M156.5,283.8c-1-0.5-2.1-1.1-3.1-1.7
			l0.4-0.8c1,0.6,2,1.1,3.1,1.7L156.5,283.8z M281.1,282.1l-0.4-0.8c1-0.6,2-1.2,3-1.8l0.5,0.8C283.1,281,282.1,281.5,281.1,282.1z
			 M150.4,280.3c-1-0.6-2-1.2-3-1.9l0.5-0.7c1,0.6,2,1.2,3,1.9L150.4,280.3z M287.1,278.5l-0.5-0.7c1-0.6,2-1.3,2.9-1.9l0.5,0.7
			C289.1,277.2,288.1,277.9,287.1,278.5z M144.5,276.5c-1-0.7-1.9-1.3-2.9-2l0.5-0.7c0.9,0.7,1.9,1.4,2.9,2L144.5,276.5z
			 M292.9,274.6l-0.5-0.7c0.9-0.7,1.9-1.4,2.8-2.1l0.5,0.7C294.8,273.2,293.9,273.9,292.9,274.6z M138.8,272.4
			c-0.9-0.7-1.9-1.4-2.8-2.2l0.6-0.7c0.9,0.7,1.8,1.5,2.8,2.1L138.8,272.4z M298.5,270.3l-0.5-0.7c0.9-0.7,1.8-1.5,2.7-2.2l0.6,0.7
			C300.3,268.8,299.4,269.6,298.5,270.3z M133.3,268c-0.9-0.8-1.8-1.5-2.6-2.3l0.6-0.6c0.9,0.8,1.7,1.5,2.6,2.3L133.3,268z
			 M303.9,265.8l-0.6-0.6c0.9-0.8,1.7-1.6,2.6-2.4l0.6,0.6C305.6,264.2,304.7,265,303.9,265.8z M128.1,263.3
			c-0.8-0.8-1.7-1.6-2.5-2.5l0.6-0.6c0.8,0.8,1.7,1.6,2.5,2.4L128.1,263.3z M309,261l-0.6-0.6c0.8-0.8,1.6-1.7,2.4-2.5l0.6,0.6
			C310.6,259.3,309.8,260.1,309,261z M123.1,258.4c-0.8-0.9-1.6-1.7-2.4-2.6l0.7-0.6c0.8,0.9,1.6,1.7,2.4,2.6L123.1,258.4z
			 M313.8,255.9l-0.6-0.6c0.8-0.9,1.5-1.7,2.3-2.6l0.7,0.6C315.4,254.1,314.6,255,313.8,255.9z M118.4,253.1
			c-0.8-0.9-1.5-1.8-2.2-2.7l0.7-0.6c0.7,0.9,1.5,1.8,2.2,2.7L118.4,253.1z M318.4,250.5l-0.7-0.6c0.7-0.9,1.5-1.8,2.1-2.8l0.7,0.5
			C319.8,248.7,319.1,249.6,318.4,250.5z M114,247.7c-0.7-0.9-1.4-1.9-2.1-2.8l0.7-0.5c0.7,0.9,1.4,1.9,2.1,2.8L114,247.7z
			 M322.6,244.9l-0.7-0.5c0.7-0.9,1.4-1.9,2-2.9l0.7,0.5C324,243,323.3,244,322.6,244.9z M109.9,242c-0.7-1-1.3-1.9-1.9-2.9l0.7-0.5
			c0.6,1,1.3,1.9,1.9,2.9L109.9,242z M326.6,239.1l-0.7-0.5c0.6-1,1.2-2,1.9-3l0.8,0.5C327.8,237.1,327.2,238.1,326.6,239.1z
			 M106.1,236.1c-0.6-1-1.2-2-1.8-3l0.8-0.4c0.6,1,1.2,2,1.8,3L106.1,236.1z M330.2,233.1l-0.8-0.4c0.6-1,1.1-2,1.7-3.1l0.8,0.4
			C331.4,231,330.8,232.1,330.2,233.1z M102.7,230c-0.6-1-1.1-2.1-1.6-3.1l0.8-0.4c0.5,1,1.1,2.1,1.6,3.1L102.7,230z M333.5,226.9
			l-0.8-0.4c0.5-1.1,1-2.1,1.5-3.1l0.8,0.4C334.5,224.8,334,225.8,333.5,226.9z M99.6,223.7c-0.5-1.1-1-2.1-1.4-3.2l0.8-0.4
			c0.5,1.1,0.9,2.1,1.4,3.2L99.6,223.7z M336.5,220.5l-0.8-0.4c0.5-1.1,0.9-2.1,1.3-3.2l0.8,0.3
			C337.4,218.3,336.9,219.4,336.5,220.5z M96.8,217.3c-0.4-1.1-0.8-2.2-1.3-3.3l0.8-0.3c0.4,1.1,0.8,2.2,1.2,3.3L96.8,217.3z
			 M339.1,213.9l-0.8-0.3c0.4-1.1,0.8-2.2,1.2-3.3l0.8,0.3C339.9,211.7,339.5,212.8,339.1,213.9z M94.4,210.7
			c-0.4-1.1-0.7-2.2-1.1-3.3l0.8-0.3c0.3,1.1,0.7,2.2,1.1,3.3L94.4,210.7z M341.3,207.2l-0.8-0.3c0.3-1.1,0.7-2.2,1-3.4l0.9,0.2
			C342,205,341.7,206.1,341.3,207.2z M92.3,204c-0.3-1.1-0.6-2.3-0.9-3.4l0.8-0.2c0.3,1.1,0.6,2.3,0.9,3.4L92.3,204z M343.2,200.5
			l-0.9-0.2c0.3-1.1,0.5-2.3,0.8-3.4l0.9,0.2C343.8,198.2,343.5,199.4,343.2,200.5z M90.6,197.2c-0.2-1.1-0.5-2.3-0.7-3.4l0.9-0.2
			c0.2,1.1,0.4,2.3,0.7,3.4L90.6,197.2z M344.7,193.6l-0.9-0.2c0.2-1.1,0.4-2.3,0.6-3.4l0.9,0.1
			C345.1,191.3,344.9,192.5,344.7,193.6z M89.3,190.3c-0.2-1.1-0.4-2.3-0.5-3.5l0.9-0.1c0.2,1.2,0.3,2.3,0.5,3.4L89.3,190.3z
			 M345.8,186.7l-0.9-0.1c0.1-1.1,0.3-2.3,0.4-3.5l0.9,0.1C346.1,184.4,346,185.5,345.8,186.7z M88.3,183.3
			c-0.1-1.2-0.2-2.3-0.3-3.5l0.9-0.1c0.1,1.2,0.2,2.3,0.3,3.5L88.3,183.3z M346.6,179.7l-0.9-0.1c0.1-1.2,0.2-2.3,0.2-3.5l0.9,0.1
			C346.8,177.4,346.7,178.5,346.6,179.7z M87.8,176.3c-0.1-1.2-0.1-2.3-0.1-3.5l0.9,0c0,1.2,0.1,2.3,0.1,3.5L87.8,176.3z M347,172.7
			l-0.9,0c0-1.2,0-2.3,0-3.5V169h0.9v0.2C347,170.4,347,171.5,347,172.7z M88.4,169.3h-0.9v-0.1c0-1.1,0-2.3,0-3.4l0.9,0
			C88.5,166.9,88.4,168,88.4,169.3L88.4,169.3z M346.1,165.5c0-1.2-0.1-2.3-0.1-3.5l0.9-0.1c0.1,1.2,0.1,2.3,0.1,3.5L346.1,165.5z
			 M88.6,162.3l-0.9-0.1c0.1-1.2,0.1-2.3,0.2-3.5l0.9,0.1C88.8,160,88.7,161.1,88.6,162.3z M345.7,158.5c-0.1-1.2-0.2-2.3-0.3-3.5
			l0.9-0.1c0.1,1.2,0.2,2.3,0.3,3.5L345.7,158.5z M89.2,155.4l-0.9-0.1c0.1-1.2,0.3-2.3,0.4-3.5l0.9,0.1
			C89.4,153,89.3,154.2,89.2,155.4z M344.9,151.6c-0.2-1.2-0.3-2.3-0.5-3.4l0.9-0.1c0.2,1.1,0.4,2.3,0.5,3.5L344.9,151.6z
			 M90.1,148.4l-0.9-0.1c0.2-1.2,0.4-2.3,0.6-3.5l0.9,0.2C90.5,146.1,90.3,147.3,90.1,148.4z M343.8,144.7c-0.2-1.1-0.5-2.3-0.7-3.4
			l0.9-0.2c0.2,1.1,0.5,2.3,0.7,3.4L343.8,144.7z M91.4,141.6l-0.9-0.2c0.2-1.1,0.5-2.3,0.8-3.4l0.8,0.2
			C91.9,139.3,91.7,140.4,91.4,141.6z M342.3,137.9c-0.3-1.1-0.6-2.2-0.9-3.4l0.8-0.2c0.3,1.1,0.6,2.3,0.9,3.4L342.3,137.9z
			 M93.1,134.8l-0.8-0.2c0.3-1.1,0.6-2.2,1-3.4l0.8,0.3C93.7,132.6,93.4,133.7,93.1,134.8z M340.4,131.2c-0.3-1.1-0.7-2.2-1.1-3.3
			l0.8-0.3c0.4,1.1,0.7,2.2,1.1,3.3L340.4,131.2z M95.1,128.1l-0.8-0.3c0.4-1.1,0.8-2.2,1.2-3.3l0.8,0.3
			C95.9,125.9,95.5,127,95.1,128.1z M338.2,124.6c-0.4-1.1-0.8-2.2-1.2-3.3l0.8-0.3c0.4,1.1,0.9,2.2,1.3,3.3L338.2,124.6z
			 M97.5,121.6l-0.8-0.3c0.4-1.1,0.9-2.2,1.3-3.2l0.8,0.3C98.4,119.4,98,120.5,97.5,121.6z M335.6,118.1c-0.5-1.1-0.9-2.1-1.4-3.2
			l0.8-0.4c0.5,1.1,1,2.1,1.4,3.2L335.6,118.1z M100.3,115.1l-0.8-0.4c0.5-1.1,1-2.1,1.5-3.2l0.8,0.4
			C101.3,113,100.8,114.1,100.3,115.1z M332.7,111.8c-0.5-1-1-2.1-1.6-3.1l0.8-0.4c0.5,1,1.1,2.1,1.6,3.1L332.7,111.8z M103.4,108.9
			l-0.8-0.4c0.6-1,1.1-2.1,1.7-3.1l0.8,0.4C104.5,106.8,104,107.8,103.4,108.9z M329.4,105.7c-0.6-1-1.2-2-1.8-3l0.8-0.4
			c0.6,1,1.2,2,1.8,3L329.4,105.7z M106.9,102.8l-0.8-0.4c0.6-1,1.2-2,1.9-3l0.7,0.5C108.1,100.8,107.5,101.8,106.9,102.8z
			 M325.8,99.7c-0.6-1-1.3-1.9-1.9-2.9l0.7-0.5c0.7,1,1.3,1.9,1.9,2.9L325.8,99.7z M110.6,96.9l-0.7-0.5c0.7-1,1.3-1.9,2-2.9
			l0.7,0.5C111.9,95,111.3,95.9,110.6,96.9z M321.9,93.9c-0.7-0.9-1.4-1.9-2.1-2.8l0.7-0.5c0.7,0.9,1.4,1.9,2.1,2.8L321.9,93.9z
			 M114.7,91.2l-0.7-0.5c0.7-0.9,1.4-1.9,2.2-2.8l0.7,0.6C116.1,89.4,115.4,90.3,114.7,91.2z M317.7,88.4c-0.7-0.9-1.5-1.8-2.2-2.7
			l0.7-0.6c0.8,0.9,1.5,1.8,2.2,2.7L317.7,88.4z M119.1,85.8l-0.7-0.6c0.8-0.9,1.5-1.8,2.3-2.7l0.7,0.6
			C120.6,84,119.8,84.9,119.1,85.8z M313.1,83.1c-0.8-0.9-1.6-1.7-2.4-2.6l0.6-0.6c0.8,0.8,1.6,1.7,2.4,2.6L313.1,83.1z M123.7,80.6
			l-0.6-0.6c0.8-0.8,1.6-1.7,2.4-2.5l0.6,0.6C125.3,78.9,124.5,79.8,123.7,80.6z M308.3,78c-0.8-0.8-1.7-1.6-2.5-2.4l0.6-0.6
			c0.9,0.8,1.7,1.6,2.5,2.4L308.3,78z M128.7,75.7l-0.6-0.6c0.9-0.8,1.7-1.6,2.6-2.4l0.6,0.7C130.4,74.1,129.5,74.9,128.7,75.7z
			 M303.3,73.2c-0.9-0.8-1.7-1.5-2.6-2.3l0.6-0.7c0.9,0.8,1.8,1.5,2.6,2.3L303.3,73.2z M133.9,71l-0.6-0.7c0.9-0.8,1.8-1.5,2.7-2.2
			l0.6,0.7C135.6,69.5,134.7,70.2,133.9,71z M298,68.7c-0.9-0.7-1.8-1.4-2.8-2.2l0.5-0.7c0.9,0.7,1.9,1.4,2.8,2.2L298,68.7z
			 M139.3,66.6l-0.5-0.7c0.9-0.7,1.9-1.4,2.8-2.1l0.5,0.7C141.1,65.2,140.2,65.9,139.3,66.6z M292.4,64.5c-0.9-0.7-1.9-1.3-2.9-2
			l0.5-0.7c1,0.7,1.9,1.3,2.9,2L292.4,64.5z M144.9,62.6l-0.5-0.7c1-0.7,1.9-1.3,2.9-1.9l0.5,0.7C146.9,61.3,145.9,61.9,144.9,62.6z
			 M286.6,60.6c-1-0.6-2-1.2-3-1.8l0.5-0.8c1,0.6,2,1.2,3,1.8L286.6,60.6z M150.8,58.8l-0.4-0.8c1-0.6,2-1.2,3-1.8l0.4,0.8
			C152.8,57.6,151.8,58.2,150.8,58.8z M280.6,57c-1-0.6-2-1.1-3.1-1.7l0.4-0.8c1,0.5,2.1,1.1,3.1,1.7L280.6,57z M156.9,55.4
			l-0.4-0.8c1-0.5,2.1-1.1,3.1-1.6l0.4,0.8C158.9,54.3,157.9,54.8,156.9,55.4z M274.5,53.7c-1-0.5-2.1-1-3.1-1.5l0.4-0.8
			c1.1,0.5,2.1,1,3.2,1.5L274.5,53.7z M163.1,52.3l-0.4-0.8c1.1-0.5,2.1-1,3.2-1.4l0.4,0.8C165.2,51.3,164.1,51.8,163.1,52.3z
			 M268.1,50.8c-1.1-0.5-2.1-0.9-3.2-1.3l0.3-0.8c1.1,0.4,2.2,0.9,3.3,1.3L268.1,50.8z M169.5,49.5l-0.3-0.8
			c1.1-0.4,2.2-0.8,3.3-1.3l0.3,0.8C171.6,48.7,170.6,49.1,169.5,49.5z M261.6,48.2c-1.1-0.4-2.2-0.8-3.3-1.2l0.3-0.8
			c1.1,0.4,2.2,0.8,3.3,1.2L261.6,48.2z M176,47.1l-0.3-0.8c1.1-0.4,2.2-0.7,3.3-1.1l0.3,0.8C178.2,46.4,177.1,46.7,176,47.1z
			 M255,45.9c-1.1-0.3-2.2-0.7-3.4-1l0.2-0.8c1.1,0.3,2.2,0.6,3.4,1L255,45.9z M182.7,45l-0.2-0.8c1.1-0.3,2.3-0.6,3.4-0.9l0.2,0.8
			C184.9,44.4,183.8,44.7,182.7,45z M248.2,44.1c-1.1-0.3-2.3-0.5-3.4-0.8l0.2-0.9c1.1,0.2,2.3,0.5,3.4,0.8L248.2,44.1z M189.5,43.3
			l-0.2-0.9c1.1-0.2,2.3-0.5,3.4-0.7l0.2,0.9C191.7,42.9,190.6,43.1,189.5,43.3z M241.4,42.6c-1.1-0.2-2.3-0.4-3.4-0.6l0.1-0.9
			c1.2,0.2,2.3,0.4,3.5,0.6L241.4,42.6z M196.3,42l-0.1-0.9c1.1-0.2,2.3-0.4,3.5-0.5l0.1,0.9C198.6,41.7,197.4,41.8,196.3,42z
			 M234.5,41.5c-1.1-0.2-2.3-0.3-3.5-0.4l0.1-0.9c1.2,0.1,2.3,0.3,3.5,0.4L234.5,41.5z M203.2,41.1l-0.1-0.9
			c1.2-0.1,2.3-0.2,3.5-0.3l0.1,0.9C205.5,40.9,204.4,41,203.2,41.1z M227.6,40.7c-1.2-0.1-2.3-0.2-3.5-0.2l0.1-0.9
			c1.2,0.1,2.3,0.1,3.5,0.2L227.6,40.7z M210.2,40.5l-0.1-0.9c1.2-0.1,2.3-0.1,3.5-0.2l0,0.9C212.5,40.4,211.3,40.5,210.2,40.5z
			 M220.6,40.4c-1.1,0-2.2,0-3.3,0h-0.1v-0.9h0.1c1.1,0,2.2,0,3.4,0L220.6,40.4z"/>
	</g>
	<g>
		<path class="st1" d="M323.6,222c0,4.9-4,9-9,9h-195c-4.9,0-9-4-9-9V113.5c0-4.9,4-9,9-9h195c4.9,0,9,4,9,9V222z"/>
		<path class="st2" d="M93,218.2v11.7c0,5.8,4.7,10.4,10.4,10.4h227.4c5.8,0,10.5-4.7,10.5-10.4v-11.7H93z"/>
		<rect x="121.2" y="113.7" class="st3" width="191.9" height="96.7"/>
		<path class="st4" d="M199.2,223.5h35.8c2.9,0,5.3-2.4,5.3-5.3H194C194,221.1,196.3,223.5,199.2,223.5z"/>
	</g>
	<g>
		<polygon class="st5" points="220,71.1 220,13.5 214.3,13.5 214.3,71.1 200.7,71.1 200.7,78.9 233.6,78.9 233.6,71.1 		"/>
		<g>
			<g>
				<g>
					<g>
						<path class="st6" d="M269.7,20.2c0,3.7-3,6.7-6.7,6.7h-91.6c-3.7,0-6.7-3-6.7-6.7V6.7c0-3.7,3-6.7,6.7-6.7H263
							c3.7,0,6.7,3,6.7,6.7V20.2z"/>
						<g>
							<g>
								<rect x="257.5" y="5" class="st7" width="4.2" height="17"/>
								<rect x="248.1" y="5" class="st7" width="4.2" height="17"/>
								<rect x="238.7" y="5" class="st7" width="4.2" height="17"/>
								<rect x="229.3" y="5" class="st7" width="4.3" height="17"/>
							</g>
							<g>
								<path class="st8" d="M178.2,8.8c0,1.6-1.2,2.8-2.8,2.8s-2.8-1.2-2.8-2.8c0-1.5,1.2-2.8,2.8-2.8C176.9,6,178.2,7.2,178.2,8.8
									z"/>
								<path class="st9" d="M187.6,8.8c0,1.6-1.2,2.8-2.8,2.8c-1.5,0-2.8-1.2-2.8-2.8c0-1.5,1.2-2.8,2.8-2.8
									C186.3,6,187.6,7.2,187.6,8.8z"/>
							</g>
						</g>
					</g>
					<g>
						<path class="st6" d="M269.7,56.4c0,3.7-3,6.7-6.7,6.7h-91.6c-3.7,0-6.7-3-6.7-6.7V42.9c0-3.7,3-6.7,6.7-6.7H263
							c3.7,0,6.7,3,6.7,6.7V56.4z"/>
						<g>
							<g>
								<rect x="257.5" y="41.2" class="st7" width="4.2" height="17"/>
								<rect x="248.1" y="41.2" class="st7" width="4.2" height="17"/>
								<rect x="238.7" y="41.2" class="st7" width="4.2" height="17"/>
								<rect x="229.3" y="41.2" class="st7" width="4.3" height="17"/>
							</g>
							<g>
								<path class="st9" d="M178.2,45c0,1.5-1.2,2.8-2.8,2.8s-2.8-1.2-2.8-2.8s1.2-2.8,2.8-2.8S178.2,43.4,178.2,45z"/>
								<path class="st8" d="M187.6,45c0,1.5-1.2,2.8-2.8,2.8c-1.5,0-2.8-1.2-2.8-2.8s1.2-2.8,2.8-2.8
									C186.3,42.2,187.6,43.4,187.6,45z"/>
							</g>
						</g>
					</g>
				</g>
			</g>
		</g>
	</g>
	<g>
		<path class="st5" d="M250.5,145.9c-21.8-1.3-33.4-21-33.4-21s-11.6,19.8-33.4,21c0,0-9.7,37,33.4,51.6
			C260.2,182.9,250.5,145.9,250.5,145.9z"/>
		<g>
			<path class="st3" d="M226.8,156.1c-0.1-5.3-4.4-9.6-9.7-9.6s-9.6,4.3-9.7,9.6c-1.2,1-2,2.4-2,4.1v12.7c0,2.9,2.4,5.3,5.3,5.3
				h12.7c2.9,0,5.3-2.4,5.3-5.3v-12.7C228.8,158.5,228,157,226.8,156.1z M217.2,150.6c2.6,0,4.8,1.8,5.4,4.3h-10.8
				C212.3,152.4,214.5,150.6,217.2,150.6z"/>
			<path class="st9" d="M220.9,164.2c0-2.1-1.7-3.8-3.8-3.8s-3.8,1.7-3.8,3.8c0,1.1,0.5,2.1,1.2,2.7l-1.5,5.2h8.3l-1.5-5.2
				C220.5,166.3,220.9,165.3,220.9,164.2z"/>
		</g>
	</g>
	<g>
		<ellipse class="st10" cx="341.7" cy="90.7" rx="50.2" ry="50.2"/>
		<g>
			<g>
				<rect x="309.1" y="72.8" class="st5" width="65.2" height="35.8"/>
				<path class="st11" d="M363.1,77.8h-42.6c0,3.3-2.7,6-6,6c-0.1,0-0.1,0-0.2,0v13.9c0.1,0,0.1,0,0.2,0c3.3,0,6,2.7,6,6h42.6
					c0-3.3,2.7-6,6-6V83.8C365.8,83.8,363.1,81.1,363.1,77.8z"/>
				<path class="st5" d="M341.7,101.3c-5.8,0-10.5-4.7-10.5-10.5s4.7-10.6,10.5-10.6c5.8,0,10.5,4.7,10.5,10.6
					C352.2,96.5,347.5,101.3,341.7,101.3z"/>
			</g>
			<g>
				<path class="st6" d="M341.9,84.1c0.4,0,0.7,0.3,0.7,0.7v0.3c0.9,0.1,1.7,0.4,2.4,0.8c0.2,0.1,0.5,0.4,0.5,0.7
					c0,0.5-0.4,0.8-0.9,0.8c-0.1,0-0.3,0-0.5-0.1c-0.5-0.3-1.1-0.6-1.6-0.7v2.9c2.3,0.6,3.3,1.5,3.3,3.2c0,1.7-1.3,2.8-3.3,3v0.9
					c0,0.4-0.3,0.7-0.7,0.7s-0.7-0.3-0.7-0.7v-0.9c-1.1-0.1-2.2-0.5-3.1-1.2c-0.3-0.2-0.4-0.4-0.4-0.7c0-0.5,0.4-0.8,0.8-0.8
					c0.2,0,0.4,0.1,0.5,0.2c0.7,0.5,1.4,0.9,2.3,1v-3c-2.2-0.6-3.3-1.4-3.3-3.2c0-1.6,1.3-2.8,3.2-2.9v-0.3
					C341.2,84.4,341.5,84.1,341.9,84.1z M341.2,89.3v-2.7c-1,0.1-1.5,0.6-1.5,1.3C339.8,88.5,340.1,88.9,341.2,89.3z M342.5,91.4
					v2.8c1-0.1,1.5-0.6,1.5-1.3C344,92.2,343.6,91.8,342.5,91.4z"/>
			</g>
		</g>
	</g>
	<g>
		<path class="st11" d="M141.2,90.7c0,27.7-22.5,50.2-50.2,50.2s-50.2-22.5-50.2-50.2s22.5-50.2,50.2-50.2
			C118.8,40.6,141.2,63,141.2,90.7z"/>
		<g>
			<g>
				<g>
					<g>
						<rect x="67.7" y="74.3" class="st5" width="4.6" height="32.3"/>
						<rect x="76.2" y="74.3" class="st5" width="4.6" height="32.3"/>
					</g>
					<g>
						<rect x="84.6" y="74.3" class="st5" width="4.6" height="32.3"/>
						<rect x="93" y="74.3" class="st5" width="4.6" height="32.3"/>
					</g>
					<g>
						<rect x="101.5" y="74.3" class="st5" width="4.6" height="32.3"/>
						<rect x="109.9" y="74.3" class="st5" width="4.6" height="32.3"/>
					</g>
				</g>
				<polygon class="st5" points="91.1,57.7 63.8,71.2 91.1,71.2 118.3,71.2 				"/>
				<rect x="63.8" y="109.6" class="st5" width="54.5" height="8.2"/>
			</g>
		</g>
	</g>
	<g>
		<path class="st6" d="M87.1,200.1c-0.6-12.8-11.1-23-24.1-23c-0.4,0-0.7,0-1.1,0.1c-2.5-6.9-9.1-11.8-16.8-11.8
			c-8.7,0-15.9,6.2-17.6,14.4c-1.6-0.4-3.3-0.6-5-0.6c-11.9,0-21.6,9.2-22.5,20.9H87.1z"/>
		<g>
			<g>
				<path class="st7" d="M63.2,159.9v6.6c-4.5-5-11-7.9-18-7.9c-13.4,0-24.3,10.9-24.3,24.3h5.2c0-10.6,8.6-19.2,19.2-19.2
					c5.8,0,11.1,2.6,14.7,6.9l-9-2.4l-1.4,5l18.7,5.1v-18.5L63.2,159.9L63.2,159.9z"/>
			</g>
			<g>
				<path class="st7" d="M26,207.3v-6.6c4.5,5,11,7.9,18,7.9c13.4,0,24.3-10.9,24.3-24.3h-5.2c0,10.6-8.6,19.2-19.2,19.2
					c-5.8,0-11.1-2.6-14.7-6.9l9,2.4l1.4-5l-18.7-5.1v18.5L26,207.3L26,207.3z"/>
			</g>
		</g>
	</g>
	<g>
		<path class="st6" d="M402,163.2h-48.8c-5.6,0-10.1,4.6-10.1,10.1v17.4c0,5.6,4.5,10.1,10.1,10.1h15v12.1l12.1-12.1H402
			c5.6,0,10.1-4.6,10.1-10.1v-17.4C412.1,167.8,407.6,163.2,402,163.2z"/>
		<g>
			<rect x="352.3" y="172.9" class="st7" width="50.7" height="5.1"/>
			<rect x="352.3" y="185.5" class="st7" width="50.7" height="5.1"/>
		</g>
	</g>
	<g>
		<polygon class="st7" points="234.3,262.4 174.8,262.4 174.8,342 249,342 249,277.7 		"/>
		<g>
			<g>
				<polygon class="st6" points="258.4,351.4 184.1,351.4 184.1,271.8 243.6,271.8 258.4,287 				"/>
				<polygon class="st7" points="258.4,287 243.6,271.8 243.6,287 				"/>
			</g>
			<g>
				<g>
					<rect x="196.2" y="291.5" class="st7" width="50.1" height="4"/>
					<rect x="196.2" y="301.3" class="st7" width="50.1" height="4"/>
				</g>
				<g>
					<rect x="196.2" y="311.2" class="st7" width="50.1" height="4"/>
					<rect x="196.2" y="321.1" class="st7" width="50.1" height="4"/>
				</g>
				<g>
					<rect x="196.2" y="330.9" class="st7" width="50.1" height="4"/>
				</g>
			</g>
		</g>
	</g>
	<g>
		<path class="st11" d="M378.8,256.1c0,22.3-18.1,40.5-40.5,40.5c-22.3,0-40.5-18.1-40.5-40.5c0-22.3,18.1-40.4,40.5-40.4
			C360.7,215.7,378.8,233.8,378.8,256.1z"/>
		<g>
			<g>
				<path class="st5" d="M361.7,270.3c0,5.2-4.3,9.5-9.5,9.5H324c-5.2,0-9.5-4.3-9.5-9.5v-28.2c0-5.2,4.3-9.5,9.5-9.5h28.2
					c5.2,0,9.5,4.3,9.5,9.5V270.3z"/>
				<path class="st9" d="M358.4,268.2c0,4.5-3.7,8.2-8.2,8.2H326c-4.5,0-8.2-3.7-8.2-8.2v-24.2c0-4.5,3.7-8.2,8.2-8.2h24.2
					c4.5,0,8.2,3.7,8.2,8.2V268.2z"/>
			</g>
			<g>
				<path class="st5" d="M351.3,256.2c0,7.3-5.9,13.2-13.2,13.2c-7.3,0-13.2-5.9-13.2-13.2c0-7.3,5.9-13.2,13.2-13.2
					C345.4,243,351.3,248.9,351.3,256.2z"/>
				<path class="st3" d="M349,256.2c0,6-4.9,10.9-10.9,10.9s-10.9-4.9-10.9-10.9s4.9-10.9,10.9-10.9
					C344.1,245.3,349,250.2,349,256.2z"/>
				<circle class="st5" cx="338.1" cy="256.2" r="8"/>
			</g>
			<g>
				<g>
					<rect x="325.2" y="278.2" class="st5" width="5.2" height="3.3"/>
					<rect x="346.6" y="278.2" class="st5" width="5.2" height="3.3"/>
				</g>
			</g>
			<g>
				<g>
					<rect x="312.9" y="243.5" class="st5" width="3.3" height="5.2"/>
					<rect x="312.9" y="264.9" class="st5" width="3.3" height="5.2"/>
				</g>
			</g>
		</g>
	</g>
	<g>
		<path class="st10" d="M136.4,256.1c0,22.3-18.1,40.5-40.4,40.5s-40.5-18.1-40.5-40.5c0-22.3,18.1-40.4,40.5-40.4
			C118.3,215.7,136.4,233.8,136.4,256.1z"/>
		<path class="st5" d="M99.2,256.8v-10.7h6.2v-4.6h-6.2v-3.4h6.2v-4.6h-6.2v-0.9l-1-3.8h-6l-1,3.8v24.1c-5.8,1.6-10.1,7-10.1,13.3
			c0,7.6,6.2,13.8,13.8,13.8s13.8-6.2,13.8-13.8C108.8,263.8,104.7,258.6,99.2,256.8z M94.9,277.5c-4.1,0-7.5-3.4-7.5-7.5
			s3.4-7.5,7.5-7.5s7.5,3.4,7.5,7.5C102.4,274.1,99.1,277.5,94.9,277.5z"/>
	</g>
</g>
</svg>
