<?xml version="1.0" encoding="utf-8"?>
<!-- Generator: Adobe Illustrator 26.3.1, SVG Export Plug-In . SVG Version: 6.00 Build 0)  -->
<svg version="1.1" id="Layer_1" xmlns="http://www.w3.org/2000/svg" xmlns:xlink="http://www.w3.org/1999/xlink" x="0px" y="0px"
	 viewBox="0 0 472 457.5" style="enable-background:new 0 0 472 457.5;" xml:space="preserve">
<style type="text/css">
	.st0{fill:#E1E1E1;}
	.st1{fill:#F5F5F5;}
	.st2{fill:#ECECEC;}
	.st3{fill:none;}
	.st4{fill:#1A2E35;}
	.st5{fill:#0E5BA9;}
	.st6{fill:#F47622;}
	.st7{fill:#FF735D;}
	.st8{fill:#DA2B3A;}
	.st9{opacity:0.3;}
	.st10{fill:#FFBF9D;}
	.st11{fill:#375A64;}
	.st12{fill:#FFFFFF;}
	.st13{fill:#49337C;}
</style>
<g>
	<g>
		<g>
			<g>
				<g>
					<g>
						<path class="st0" d="M366.2,117.7c2.3-1.4,4.7-2.4,7.2-3.1l1.5-7.2l12.1-0.2l1.7,7.1c2.5,0.6,5,1.6,7.3,2.9l6.1-4l8.7,8.4
							l-3.8,6.2c1.4,2.3,2.4,4.7,3.1,7.2l7.2,1.5l0.2,12.1l-7.1,1.7c-0.6,2.5-1.6,5-2.9,7.3l4,6.1l-8.4,8.7l-6.2-3.8
							c-2.3,1.4-4.7,2.4-7.2,3.1l-1.5,7.2l-12.1,0.2l-1.7-7.1c-2.5-0.6-5-1.6-7.3-2.9l-6.1,4l-8.7-8.4l3.8-6.2
							c-1.4-2.3-2.4-4.7-3.1-7.2l-7.2-1.5l-0.2-12.1l7.1-1.7c0.6-2.5,1.6-5,2.9-7.3l-4-6.1l8.4-8.7L366.2,117.7L366.2,117.7z
							 M372.7,133.8c-5,5.2-4.8,13.4,0.3,18.4s13.4,4.8,18.4-0.3s4.8-13.4-0.3-18.4C385.9,128.5,377.6,128.6,372.7,133.8z"/>
					</g>
				</g>
			</g>
			<g>
				<g>
					<g>
						<g>
							<path class="st0" d="M372.7,133.8c0,0,0.7-1,2.4-2.1c1.7-1.1,4.7-2.4,8.5-2c1.9,0.2,3.9,0.8,5.8,2c1.8,1.2,3.6,3,4.6,5.2
								c0.6,1.1,1,2.4,1.2,3.6c0.2,1.3,0.3,2.6,0.1,4c-0.3,2.7-1.6,5.4-3.6,7.5c-2,2.1-4.6,3.4-7.4,3.9c-1.3,0.2-2.7,0.3-4,0.1
								c-1.3-0.2-2.5-0.5-3.7-1.1c-2.3-1-4.1-2.7-5.4-4.5c-1.3-1.8-2-3.8-2.2-5.7c-0.5-3.8,0.6-6.8,1.7-8.5
								C371.7,134.5,372.7,133.8,372.7,133.8c0.1,0.1-0.8,0.9-1.8,2.6c-1,1.8-2,4.7-1.4,8.3c0.3,1.8,1,3.7,2.2,5.4
								c1.2,1.7,3,3.3,5.2,4.2c1.1,0.5,2.3,0.8,3.5,1c1.2,0.2,2.5,0.1,3.8-0.1c2.5-0.4,5-1.7,6.9-3.7c1.9-2,3.1-4.5,3.4-7.1
								c0.2-1.3,0.2-2.6,0-3.8c-0.2-1.2-0.6-2.4-1.1-3.5c-1-2.2-2.6-3.8-4.4-5c-1.8-1.2-3.7-1.8-5.5-2c-3.6-0.4-6.5,0.7-8.2,1.7
								C373.5,132.9,372.7,133.8,372.7,133.8z"/>
						</g>
					</g>
				</g>
			</g>
			<g>
				<g>
					<g>
						<g>
							<path class="st0" d="M366.2,117.7c0,0-0.1-0.1-0.4-0.2c-0.3-0.2-0.7-0.4-1.2-0.7c-1.1-0.7-2.7-1.6-4.7-2.8l0.1,0
								c-2.1,2.2-5,5.2-8.4,8.8l0-0.2c1.2,1.8,2.6,3.9,4,6.1l0.1,0.1l-0.1,0.1c-1.2,2.1-2.2,4.6-2.8,7.3l0,0.1l-0.1,0
								c-2.2,0.6-4.6,1.1-7.1,1.8l0.2-0.3c0.1,3.8,0.2,7.9,0.2,12.1l-0.2-0.3c2.2,0.5,4.7,1,7.2,1.5l0.2,0l0,0.2
								c0.7,2.3,1.7,4.8,3.1,7.1l0.1,0.2l-0.1,0.2c-1.2,1.9-2.5,4.1-3.8,6.3l0-0.4c2.7,2.6,5.7,5.5,8.7,8.4l-0.4,0
								c1.9-1.2,4-2.6,6.1-4l0.2-0.1l0.2,0.1c2.1,1.2,4.6,2.2,7.2,2.9l0.2,0.1l0,0.2c0.5,2.2,1.1,4.6,1.8,7.1l-0.4-0.3
								c3.8-0.1,7.9-0.1,12.1-0.2l-0.4,0.3c0.5-2.3,1-4.7,1.5-7.2l0-0.2l0.2-0.1c2.4-0.7,4.9-1.7,7.1-3.1h0l0.2-0.1l0.2,0.1
								c2.1,1.3,4.2,2.5,6.2,3.8l-0.5,0.1c2.8-2.9,5.6-5.8,8.4-8.7l0,0.5c-1.4-2.1-2.7-4.1-4-6.1l-0.1-0.2l0.1-0.2
								c1.3-2.3,2.2-4.8,2.9-7.2l0-0.2l0.2-0.1c2.4-0.6,4.8-1.2,7.1-1.7l-0.3,0.4c-0.1-4.1-0.1-8.2-0.2-12.1l0.3,0.3
								c-2.4-0.5-4.8-1-7.2-1.5l-0.2,0l0-0.2c-0.7-2.6-1.8-5-3.1-7.2l-0.1-0.2l0.1-0.2c1.3-2.1,2.6-4.2,3.8-6.2l0,0.4
								c-3.1-3-5.9-5.8-8.7-8.4l0.4,0c-2.1,1.4-4.2,2.7-6.1,4l-0.1,0.1l-0.1-0.1c-2.4-1.4-4.9-2.3-7.3-2.9l-0.1,0l0-0.1
								c-0.6-2.6-1.2-4.9-1.7-7.1l0.2,0.2c-4.7,0.1-8.7,0.1-12.1,0.2l0.2-0.1c-0.6,2.9-1.1,5.2-1.5,7.2l0,0.1l-0.1,0
								c-2.6,0.7-4.4,1.6-5.5,2.1c-0.6,0.3-1,0.5-1.3,0.7C366.4,117.6,366.2,117.7,366.2,117.7s0.1-0.1,0.4-0.3
								c0.3-0.2,0.7-0.4,1.3-0.7c1.2-0.6,3-1.5,5.5-2.2l-0.1,0.1c0.4-2,0.9-4.3,1.4-7.2l0-0.1h0.1c3.4-0.1,7.4-0.2,12.1-0.3h0.2
								l0,0.2c0.5,2.2,1.1,4.5,1.8,7.1l-0.2-0.2c2.4,0.6,4.9,1.5,7.4,2.9l-0.3,0c1.9-1.3,4-2.6,6.1-4l0.2-0.1l0.2,0.2
								c2.8,2.7,5.6,5.4,8.7,8.4l0.2,0.2l-0.1,0.2c-1.2,2-2.5,4.1-3.8,6.3v-0.3c1.4,2.2,2.4,4.7,3.2,7.3l-0.2-0.2
								c2.4,0.5,4.7,1,7.2,1.5l0.3,0.1v0.3c0.1,3.9,0.1,8,0.2,12.1l0,0.3l-0.3,0.1c-2.3,0.6-4.7,1.2-7.1,1.8l0.3-0.3
								c-0.6,2.6-1.6,5.1-2.9,7.4l0-0.4c1.3,2,2.7,4.1,4,6.1l0.2,0.2l-0.2,0.2c-2.8,2.9-5.6,5.8-8.4,8.7l-0.2,0.2l-0.2-0.1
								c-2.1-1.2-4.1-2.5-6.2-3.8h0.4h0c-2.4,1.4-4.9,2.5-7.3,3.2l0.3-0.3c-0.5,2.5-1,4.9-1.5,7.2l-0.1,0.3l-0.3,0
								c-4.2,0.1-8.3,0.1-12.1,0.2l-0.3,0l-0.1-0.3c-0.6-2.4-1.2-4.9-1.7-7.1l0.3,0.3c-2.7-0.7-5.2-1.7-7.4-2.9l0.4,0
								c-2.1,1.4-4.2,2.8-6.1,4l-0.2,0.1l-0.2-0.2c-3-2.9-6-5.8-8.7-8.4l-0.2-0.2l0.1-0.2c1.3-2.2,2.6-4.3,3.8-6.2v0.3
								c-1.4-2.4-2.5-4.9-3.2-7.3l0.2,0.2c-2.5-0.5-4.9-1-7.2-1.5l-0.2-0.1v-0.2c-0.1-4.2-0.1-8.3-0.2-12.1v-0.2l0.2-0.1
								c2.5-0.6,4.9-1.2,7.1-1.7l-0.2,0.2c0.7-2.7,1.7-5.2,2.9-7.4l0,0.2c-1.4-2.2-2.8-4.3-4-6.1l-0.1-0.1l0.1-0.1
								c3.4-3.5,6.3-6.4,8.5-8.7l0.1-0.1l0.1,0.1c2,1.2,3.5,2.2,4.6,2.9c0.5,0.3,0.9,0.6,1.2,0.8
								C366.1,117.5,366.2,117.6,366.2,117.7z"/>
						</g>
					</g>
				</g>
			</g>
		</g>
		<g>
			<g>
				<g>
					<g>
						<path class="st1" d="M55.1,189.6c2.3-1.4,4.7-2.4,7.2-3.1l1.5-7.2l12.1-0.2l1.7,7.1c2.5,0.6,5,1.6,7.3,2.9l6.1-4l8.7,8.4
							l-3.8,6.2c1.4,2.3,2.4,4.7,3.1,7.2l7.2,1.5l0.2,12.1l-7.1,1.7c-0.6,2.5-1.6,5-2.9,7.3l4,6.1l-8.4,8.7l-6.2-3.8
							c-2.3,1.4-4.7,2.4-7.2,3.1l-1.5,7.2l-12.1,0.2l-1.7-7.1c-2.5-0.6-5-1.6-7.3-2.9l-6.1,4l-8.7-8.4l3.8-6.2
							c-1.4-2.3-2.4-4.7-3.1-7.2l-7.2-1.5l-0.2-12.1l7.1-1.7c0.6-2.5,1.6-5,2.9-7.3l-4-6.1l8.4-8.7L55.1,189.6L55.1,189.6z
							 M61.5,205.7c-5,5.2-4.8,13.4,0.3,18.4s13.4,4.8,18.4-0.3c5-5.2,4.8-13.4-0.3-18.4S66.5,200.6,61.5,205.7z"/>
					</g>
				</g>
			</g>
			<g>
				<g>
					<g>
						<g>
							<path class="st1" d="M61.5,205.7c0,0,0.7-1,2.4-2.1c1.7-1.1,4.7-2.4,8.5-2c1.9,0.2,3.9,0.8,5.8,2c1.8,1.2,3.6,3,4.7,5.2
								c0.6,1.1,1,2.4,1.2,3.6c0.2,1.3,0.3,2.6,0.1,4c-0.3,2.7-1.6,5.4-3.6,7.5c-2,2.1-4.7,3.4-7.3,3.9c-1.3,0.2-2.7,0.3-4,0.1
								c-1.3-0.2-2.6-0.5-3.7-1.1c-2.3-1-4.1-2.7-5.4-4.5c-1.3-1.8-2-3.8-2.2-5.7c-0.5-3.8,0.6-6.8,1.7-8.5
								C60.6,206.4,61.5,205.7,61.5,205.7c0.1,0.1-0.8,0.9-1.8,2.6c-1,1.8-2,4.7-1.4,8.3c0.3,1.8,1,3.7,2.2,5.4
								c1.2,1.7,3,3.3,5.2,4.2c1.1,0.5,2.3,0.8,3.5,1c1.2,0.2,2.5,0.1,3.8-0.1c2.6-0.4,5-1.7,6.9-3.7c1.9-2,3.1-4.5,3.4-7.1
								c0.2-1.3,0.2-2.6-0.1-3.8c-0.2-1.2-0.6-2.4-1.1-3.5c-1-2.2-2.6-3.8-4.4-5c-1.8-1.2-3.7-1.8-5.5-2c-3.6-0.4-6.5,0.7-8.2,1.7
								C62.4,204.9,61.6,205.8,61.5,205.7z"/>
						</g>
					</g>
				</g>
			</g>
			<g>
				<g>
					<g>
						<g>
							<path class="st1" d="M55.1,189.6c0,0-0.1-0.1-0.4-0.2c-0.3-0.2-0.7-0.4-1.2-0.7c-1.1-0.6-2.7-1.6-4.7-2.8l0.2,0
								c-2.1,2.2-5,5.2-8.4,8.8l0-0.2c1.2,1.9,2.6,3.9,4,6.1l0.1,0.1l-0.1,0.1c-1.2,2.1-2.2,4.6-2.8,7.3l0,0.1l-0.1,0
								c-2.2,0.6-4.6,1.1-7.1,1.8l0.2-0.3c0.1,3.8,0.2,7.9,0.2,12.1l-0.2-0.3c2.2,0.5,4.7,1,7.2,1.5l0.2,0l0,0.2
								c0.7,2.3,1.7,4.8,3.1,7.1l0.1,0.2l-0.1,0.2c-1.2,1.9-2.5,4.1-3.8,6.3l0-0.4c2.7,2.6,5.7,5.5,8.7,8.4l-0.4,0
								c1.9-1.2,4-2.6,6.1-4l0.2-0.1l0.2,0.1c2.1,1.2,4.6,2.2,7.2,2.9l0.2,0.1l0,0.2c0.6,2.2,1.1,4.6,1.8,7.1l-0.4-0.3
								c3.8-0.1,7.9-0.1,12.1-0.2l-0.4,0.3c0.5-2.3,1-4.7,1.5-7.2l0.1-0.2l0.2-0.1c2.4-0.7,4.8-1.7,7.1-3.1h0l0.2-0.1l0.2,0.1
								c2.1,1.3,4.2,2.5,6.2,3.8l-0.5,0.1c2.8-2.9,5.6-5.8,8.4-8.7l0,0.5c-1.3-2.1-2.7-4.1-4-6.1l-0.1-0.2l0.1-0.2
								c1.3-2.3,2.2-4.8,2.9-7.2l0.1-0.2l0.2-0.1c2.4-0.6,4.8-1.2,7.1-1.7l-0.3,0.4c-0.1-4.1-0.1-8.2-0.2-12.1l0.3,0.3
								c-2.4-0.5-4.8-1-7.2-1.5l-0.2,0l-0.1-0.2c-0.7-2.6-1.8-5-3.1-7.2l-0.1-0.2l0.1-0.2c1.3-2.1,2.6-4.2,3.8-6.2l0.1,0.4
								c-3.1-3-5.9-5.8-8.7-8.4l0.3,0c-2.2,1.4-4.2,2.7-6.1,4l-0.1,0.1l-0.1-0.1c-2.4-1.4-4.9-2.3-7.3-2.9l-0.1,0l0-0.1
								c-0.6-2.6-1.2-4.9-1.7-7.1l0.2,0.2c-4.7,0.1-8.7,0.1-12.1,0.2l0.2-0.1c-0.6,2.9-1.1,5.2-1.5,7.1l0,0.1l-0.1,0
								c-2.6,0.7-4.4,1.6-5.5,2.1c-0.6,0.3-1,0.5-1.3,0.7C55.2,189.5,55.1,189.6,55.1,189.6c0,0,0.1-0.1,0.4-0.3
								c0.3-0.2,0.7-0.4,1.3-0.7c1.2-0.6,3-1.5,5.5-2.2l-0.1,0.1c0.4-2,0.9-4.3,1.4-7.2l0-0.1h0.1c3.4-0.1,7.4-0.2,12.1-0.3h0.2
								l0,0.2c0.6,2.2,1.1,4.5,1.8,7.1l-0.2-0.2c2.4,0.6,4.9,1.5,7.4,2.9l-0.3,0c1.9-1.3,4-2.6,6.1-4l0.2-0.1l0.2,0.2
								c2.8,2.6,5.7,5.4,8.7,8.4l0.2,0.2l-0.1,0.2c-1.2,2-2.5,4.1-3.8,6.3v-0.3c1.3,2.2,2.4,4.7,3.2,7.3l-0.2-0.2
								c2.3,0.5,4.7,1,7.2,1.5l0.3,0.1v0.3c0.1,3.9,0.2,8,0.2,12.1l0,0.3l-0.3,0.1c-2.3,0.6-4.7,1.2-7.1,1.8l0.3-0.3
								c-0.6,2.6-1.6,5.1-2.9,7.4l0-0.4c1.3,2,2.7,4.1,4,6.1l0.2,0.2l-0.2,0.2c-2.8,2.9-5.6,5.8-8.4,8.7l-0.2,0.2l-0.2-0.1
								c-2.1-1.2-4.2-2.5-6.2-3.8h0.4h0c-2.3,1.4-4.9,2.5-7.3,3.2l0.3-0.3c-0.5,2.5-1,4.9-1.5,7.2l-0.1,0.3l-0.3,0
								c-4.2,0.1-8.3,0.1-12.1,0.2l-0.3,0l-0.1-0.3c-0.6-2.4-1.2-4.9-1.7-7.1l0.3,0.3c-2.7-0.7-5.2-1.7-7.4-2.9l0.4,0
								c-2.1,1.4-4.2,2.8-6.1,4l-0.2,0.1l-0.2-0.2c-3-2.9-6-5.8-8.7-8.4l-0.2-0.2l0.1-0.2c1.3-2.2,2.6-4.3,3.8-6.2v0.3
								c-1.4-2.4-2.5-4.9-3.2-7.3l0.2,0.2c-2.5-0.5-4.9-1-7.2-1.5l-0.2-0.1v-0.2c-0.1-4.2-0.1-8.3-0.2-12.1v-0.2l0.2-0.1
								c2.5-0.6,4.9-1.2,7.1-1.7l-0.2,0.2c0.7-2.7,1.7-5.2,2.9-7.4l0,0.2c-1.4-2.2-2.8-4.3-4-6.1l-0.1-0.1l0.1-0.1
								c3.4-3.5,6.3-6.4,8.5-8.7l0.1-0.1l0.1,0.1c2,1.2,3.5,2.2,4.6,2.9c0.5,0.3,0.9,0.6,1.2,0.8C55,189.5,55.1,189.6,55.1,189.6z"
								/>
						</g>
					</g>
				</g>
			</g>
		</g>
		<g>
			<g>
				<g>
					<g>
						<path class="st1" d="M388.7,51.5c1.7-1,3.4-1.8,5.2-2.3l1.1-5.2l8.8-0.2l1.3,5.2c1.8,0.5,3.6,1.2,5.3,2.1l4.4-2.9l6.3,6.1
							l-2.8,4.5c1,1.7,1.8,3.4,2.3,5.2l5.2,1.1L426,74l-5.1,1.3c-0.5,1.8-1.1,3.6-2.1,5.3l2.9,4.4l-6.1,6.3l-4.5-2.8
							c-1.7,1-3.4,1.8-5.2,2.3l-1.1,5.2l-8.8,0.2l-1.3-5.2c-1.8-0.4-3.6-1.2-5.3-2.1l-4.4,2.9l-6.3-6.1l2.8-4.5
							c-1-1.7-1.8-3.4-2.3-5.2l-5.2-1.1l-0.1-8.8l5.1-1.3c0.5-1.8,1.1-3.6,2.1-5.3l-2.9-4.4l6.1-6.3L388.7,51.5L388.7,51.5z
							 M393.4,63.2c-3.6,3.7-3.5,9.7,0.2,13.3c3.7,3.6,9.7,3.5,13.3-0.2c3.6-3.7,3.5-9.7-0.2-13.3C403,59.4,397,59.5,393.4,63.2z"/>
					</g>
				</g>
			</g>
			<g>
				<g>
					<g>
						<g>
							<path class="st1" d="M393.4,63.2c0,0,0.5-0.7,1.8-1.5c1.2-0.8,3.4-1.7,6.1-1.5c1.4,0.2,2.8,0.6,4.2,1.5
								c1.3,0.9,2.6,2.2,3.4,3.8c0.4,0.8,0.7,1.7,0.9,2.6c0.2,0.9,0.2,1.9,0,2.9c-0.2,2-1.2,3.9-2.6,5.4c-1.5,1.5-3.4,2.5-5.3,2.8
								c-1,0.2-2,0.2-2.9,0.1c-0.9-0.1-1.9-0.4-2.7-0.8c-1.7-0.7-3-1.9-3.9-3.2c-0.9-1.3-1.4-2.8-1.6-4.1c-0.4-2.7,0.5-4.9,1.2-6.2
								C392.7,63.7,393.4,63.2,393.4,63.2c0,0-0.6,0.6-1.3,1.9c-0.7,1.3-1.5,3.4-1,6c0.2,1.3,0.7,2.7,1.6,3.9c0.9,1.2,2.2,2.4,3.8,3
								c0.8,0.4,1.6,0.6,2.5,0.7c0.9,0.1,1.8,0.1,2.7-0.1c1.9-0.3,3.6-1.2,5-2.7c1.4-1.4,2.2-3.3,2.5-5.1c0.1-0.9,0.1-1.8,0-2.7
								c-0.1-0.9-0.4-1.7-0.8-2.5c-0.7-1.6-1.9-2.8-3.2-3.7c-1.3-0.9-2.7-1.3-4-1.5c-2.6-0.3-4.7,0.5-6,1.2
								C394,62.6,393.5,63.3,393.4,63.2z"/>
						</g>
					</g>
				</g>
			</g>
			<g>
				<g>
					<g>
						<g>
							<path class="st1" d="M388.7,51.5c0,0-0.1,0-0.3-0.2c-0.2-0.1-0.5-0.3-0.9-0.5c-0.8-0.5-1.9-1.1-3.4-2l0.1,0
								c-1.5,1.6-3.6,3.8-6,6.3l0-0.2c0.9,1.3,1.9,2.8,2.9,4.4l0,0.1l0,0.1c-0.9,1.6-1.6,3.3-2.1,5.3l0,0.1l-0.1,0
								c-1.6,0.4-3.3,0.8-5.1,1.3l0.1-0.2c0,2.8,0.1,5.7,0.2,8.8l-0.2-0.2c1.6,0.3,3.4,0.7,5.2,1.1l0.1,0l0,0.1
								c0.5,1.7,1.2,3.5,2.3,5.2l0.1,0.1l-0.1,0.1c-0.9,1.4-1.8,2.9-2.7,4.5l0-0.3c2,1.9,4.1,4,6.3,6.1l-0.3,0
								c1.4-0.9,2.9-1.9,4.4-2.9l0.1-0.1l0.1,0.1c1.5,0.9,3.4,1.6,5.3,2.1l0.1,0l0,0.2c0.4,1.6,0.8,3.4,1.3,5.2l-0.3-0.2
								c2.8-0.1,5.8-0.1,8.8-0.2l-0.3,0.2c0.3-1.6,0.7-3.4,1.1-5.2l0-0.2l0.2,0c1.7-0.5,3.5-1.2,5.2-2.2l0,0l0.1-0.1l0.1,0.1
								c1.5,0.9,3,1.8,4.5,2.8l-0.3,0c2.1-2.1,4.1-4.2,6.1-6.3l0,0.3c-1-1.5-1.9-3-2.9-4.4l-0.1-0.1l0.1-0.1
								c0.9-1.7,1.6-3.4,2.1-5.2l0-0.2l0.1,0c1.7-0.4,3.5-0.8,5.1-1.3l-0.2,0.2c0-3-0.1-5.9-0.1-8.8l0.2,0.2
								c-1.8-0.4-3.5-0.7-5.2-1.1l-0.1,0l0-0.1c-0.5-1.9-1.3-3.6-2.2-5.2l-0.1-0.1l0.1-0.1c0.9-1.5,1.9-3.1,2.8-4.5l0,0.3
								c-2.2-2.2-4.3-4.2-6.3-6.1l0.3,0c-1.6,1-3,2-4.4,2.9l-0.1,0.1l-0.1-0.1c-1.8-1-3.5-1.7-5.3-2.1l-0.1,0l0-0.1
								c-0.5-1.9-0.9-3.6-1.2-5.2l0.2,0.1c-3.4,0-6.3,0.1-8.8,0.1l0.1-0.1c-0.4,2.1-0.8,3.8-1.1,5.2l0,0l-0.1,0
								c-1.9,0.5-3.2,1.1-4,1.5c-0.4,0.2-0.7,0.4-0.9,0.5C388.8,51.5,388.7,51.5,388.7,51.5c0,0,0.1-0.1,0.3-0.2
								c0.2-0.1,0.5-0.3,0.9-0.5c0.8-0.5,2.1-1.1,4-1.6l-0.1,0.1c0.3-1.4,0.6-3.1,1-5.2l0-0.1h0.1c2.5,0,5.4-0.1,8.8-0.2h0.1l0,0.1
								c0.4,1.6,0.8,3.3,1.3,5.1l-0.1-0.1c1.8,0.4,3.6,1.1,5.4,2.1l-0.2,0c1.4-0.9,2.9-1.9,4.4-2.9l0.1-0.1l0.1,0.1
								c2,1.9,4.1,3.9,6.3,6.1l0.1,0.1l-0.1,0.2c-0.9,1.5-1.8,3-2.7,4.5v-0.2c1,1.6,1.8,3.4,2.3,5.3l-0.2-0.2
								c1.7,0.3,3.4,0.7,5.2,1.1l0.2,0v0.2c0,2.8,0.1,5.8,0.2,8.8v0.2l-0.2,0.1c-1.7,0.4-3.4,0.8-5.1,1.3l0.2-0.2
								c-0.5,1.9-1.2,3.7-2.1,5.4l0-0.3c1,1.5,1.9,2.9,2.9,4.4L422,85l-0.1,0.2c-2,2.1-4,4.2-6.1,6.3l-0.1,0.2l-0.2-0.1
								c-1.5-0.9-3-1.8-4.5-2.8h0.3l0,0c-1.7,1-3.5,1.8-5.3,2.3l0.2-0.2c-0.4,1.8-0.7,3.6-1.1,5.2l0,0.2h-0.2c-3,0.1-6,0.1-8.8,0.2
								h-0.2l0-0.2c-0.4-1.8-0.9-3.5-1.3-5.2l0.2,0.2c-2-0.5-3.8-1.2-5.4-2.1l0.3,0c-1.5,1-3,2-4.4,2.9l-0.2,0.1l-0.2-0.1
								c-2.2-2.1-4.3-4.2-6.3-6.1l-0.1-0.1l0.1-0.2c1-1.6,1.9-3.1,2.8-4.5v0.2c-1-1.7-1.8-3.6-2.3-5.3l0.2,0.2
								c-1.8-0.4-3.6-0.8-5.2-1.1l-0.2,0v-0.2c0-3.1-0.1-6-0.1-8.8V66l0.1,0c1.8-0.4,3.5-0.9,5.1-1.2l-0.1,0.1
								c0.5-2,1.2-3.8,2.1-5.3l0,0.2c-1-1.6-2-3.1-2.9-4.4l-0.1-0.1L378,55c2.5-2.5,4.6-4.7,6.1-6.3l0,0l0.1,0
								c1.5,0.9,2.6,1.6,3.3,2.1c0.4,0.2,0.6,0.4,0.9,0.5C388.6,51.5,388.7,51.5,388.7,51.5z"/>
						</g>
					</g>
				</g>
			</g>
		</g>
		<g>
			<g>
				<g>
					<g>
						<path class="st0" d="M114.5,26.8c1.7-1,3.4-1.8,5.2-2.3l1.1-5.2l8.8-0.1l1.3,5.1c1.8,0.5,3.6,1.1,5.3,2.1l4.4-2.9l6.3,6.1
							l-2.8,4.5c1,1.7,1.8,3.4,2.3,5.2l5.2,1.1l0.1,8.8l-5.1,1.3c-0.4,1.8-1.1,3.6-2.1,5.3l2.9,4.4l-6.1,6.3l-4.5-2.8
							c-1.7,1-3.4,1.8-5.2,2.3l-1.1,5.2l-8.8,0.2l-1.3-5.2c-1.8-0.4-3.6-1.2-5.3-2.1l-4.4,2.9l-6.3-6.1l2.8-4.5
							c-1-1.7-1.8-3.4-2.3-5.2l-5.2-1.1l-0.2-8.8l5.2-1.3c0.4-1.8,1.2-3.6,2.1-5.3l-2.9-4.4l6.1-6.3L114.5,26.8L114.5,26.8z
							 M119.2,38.5c-3.6,3.7-3.5,9.7,0.2,13.3c3.7,3.6,9.7,3.5,13.3-0.2c3.6-3.7,3.5-9.7-0.2-13.3C128.8,34.7,122.8,34.8,119.2,38.5
							z"/>
					</g>
				</g>
			</g>
			<g>
				<g>
					<g>
						<g>
							<path class="st0" d="M119.2,38.5c0,0,0.5-0.7,1.8-1.5c1.2-0.8,3.4-1.7,6.1-1.5c1.4,0.2,2.8,0.6,4.2,1.5
								c1.3,0.9,2.6,2.2,3.4,3.8c0.4,0.8,0.7,1.7,0.9,2.6c0.2,0.9,0.2,1.9,0.1,2.9c-0.2,2-1.2,3.9-2.6,5.4c-1.5,1.5-3.4,2.5-5.3,2.8
								c-1,0.2-2,0.2-2.9,0c-0.9-0.1-1.8-0.4-2.7-0.8c-1.7-0.7-3-1.9-3.9-3.2c-0.9-1.3-1.4-2.8-1.6-4.1c-0.4-2.7,0.5-4.9,1.2-6.2
								C118.5,39,119.2,38.5,119.2,38.5c0.1,0-0.6,0.6-1.3,1.9c-0.7,1.3-1.5,3.4-1,6c0.2,1.3,0.7,2.7,1.6,3.9c0.9,1.2,2.2,2.4,3.8,3
								c0.8,0.4,1.6,0.6,2.5,0.7c0.9,0.1,1.8,0.1,2.7-0.1c1.9-0.3,3.6-1.2,5-2.7c1.4-1.4,2.2-3.3,2.5-5.1c0.1-0.9,0.1-1.8,0-2.7
								c-0.1-0.9-0.4-1.7-0.8-2.5c-0.7-1.6-1.9-2.8-3.2-3.7c-1.3-0.9-2.7-1.3-4-1.5c-2.6-0.3-4.7,0.5-6,1.2
								C119.8,37.9,119.2,38.6,119.2,38.5z"/>
						</g>
					</g>
				</g>
			</g>
			<g>
				<g>
					<g>
						<g>
							<path class="st0" d="M114.5,26.8c0,0-0.1,0-0.3-0.1c-0.2-0.1-0.5-0.3-0.9-0.5c-0.8-0.5-1.9-1.1-3.4-2l0.1,0
								c-1.6,1.6-3.6,3.8-6.1,6.3l0-0.2c0.9,1.3,1.9,2.8,2.9,4.4l0.1,0.1l-0.1,0.1c-0.9,1.6-1.6,3.3-2.1,5.3l0,0.1l-0.1,0
								c-1.6,0.4-3.3,0.8-5.1,1.3l0.2-0.2c0.1,2.8,0.1,5.7,0.2,8.8L99.8,50c1.6,0.3,3.4,0.7,5.2,1.1l0.1,0l0,0.1
								c0.5,1.7,1.2,3.5,2.3,5.2l0.1,0.1l-0.1,0.1c-0.8,1.4-1.8,3-2.7,4.5l0-0.3c2,1.9,4.1,4,6.3,6.1l-0.3,0C112,66,113.5,65,115,64
								l0.1-0.1l0.1,0.1c1.6,0.9,3.3,1.6,5.3,2.1l0.2,0l0,0.2c0.4,1.6,0.8,3.4,1.3,5.2l-0.3-0.2c2.8-0.1,5.8-0.1,8.8-0.2l-0.3,0.2
								c0.3-1.6,0.7-3.4,1.1-5.2l0-0.2l0.2,0c1.7-0.5,3.5-1.2,5.2-2.2l0,0l0.1-0.1l0.1,0.1c1.5,0.9,3,1.8,4.5,2.8l-0.3,0
								c2.1-2.1,4.1-4.2,6.1-6.3l0,0.3c-1-1.5-1.9-3-2.9-4.4l-0.1-0.1l0.1-0.1c0.9-1.7,1.6-3.4,2.1-5.2l0-0.2l0.1,0
								c1.7-0.4,3.5-0.8,5.1-1.3l-0.2,0.2c-0.1-3-0.1-5.9-0.1-8.8l0.2,0.2c-1.8-0.4-3.5-0.7-5.2-1.1l-0.1,0l0-0.1
								c-0.5-1.9-1.3-3.6-2.2-5.2l-0.1-0.1L144,34c0.9-1.5,1.9-3.1,2.8-4.5l0,0.3c-2.2-2.1-4.3-4.2-6.3-6.1l0.3,0
								c-1.6,1-3,2-4.4,2.9l-0.1,0.1l-0.1-0.1c-1.8-1-3.5-1.7-5.3-2.1l-0.1,0l0-0.1c-0.4-1.9-0.9-3.6-1.2-5.1l0.2,0.1
								c-3.4,0-6.3,0.1-8.8,0.1l0.1-0.1c-0.4,2.1-0.8,3.8-1.1,5.2l0,0l-0.1,0c-1.9,0.5-3.2,1.1-4,1.5c-0.4,0.2-0.7,0.4-0.9,0.5
								C114.6,26.8,114.5,26.8,114.5,26.8s0.1-0.1,0.3-0.2c0.2-0.1,0.5-0.3,0.9-0.5c0.8-0.5,2.1-1.1,4-1.6l-0.1,0.1
								c0.3-1.4,0.6-3.1,1.1-5.2l0-0.1h0.1c2.5,0,5.4-0.1,8.8-0.2h0.1l0,0.1c0.4,1.6,0.8,3.3,1.3,5.1l-0.1-0.1
								c1.8,0.4,3.6,1.1,5.4,2.1l-0.2,0c1.4-0.9,2.9-1.9,4.4-2.9l0.1-0.1l0.1,0.1c2,1.9,4.1,3.9,6.3,6.1l0.1,0.1l-0.1,0.1
								c-0.9,1.5-1.8,3-2.7,4.5V34c1,1.6,1.8,3.4,2.3,5.3l-0.2-0.2c1.7,0.3,3.4,0.7,5.2,1.1l0.2,0v0.2c0.1,2.8,0.1,5.8,0.2,8.8v0.2
								l-0.2,0c-1.7,0.4-3.4,0.8-5.1,1.3l0.2-0.2c-0.5,1.9-1.2,3.7-2.1,5.4l0-0.3c1,1.5,1.9,2.9,2.9,4.4l0.1,0.2l-0.1,0.2
								c-2,2.1-4,4.2-6.1,6.3l-0.1,0.2l-0.2-0.1c-1.5-0.9-3-1.8-4.5-2.8h0.3l0,0c-1.7,1-3.5,1.8-5.3,2.3l0.2-0.2
								c-0.4,1.8-0.7,3.6-1.1,5.2l0,0.2h-0.2c-3,0.1-6,0.1-8.8,0.2h-0.2l-0.1-0.2c-0.4-1.8-0.9-3.5-1.3-5.2l0.2,0.2
								c-1.9-0.5-3.8-1.2-5.4-2.1l0.3,0c-1.5,1-3.1,2-4.4,2.9l-0.2,0.1l-0.1-0.1c-2.2-2.1-4.3-4.2-6.3-6.1l-0.1-0.1l0.1-0.2
								c1-1.6,1.9-3.1,2.8-4.5v0.2c-1.1-1.7-1.8-3.6-2.3-5.3l0.2,0.2c-1.8-0.4-3.6-0.8-5.2-1.1l-0.2,0v-0.2c-0.1-3.1-0.1-6-0.1-8.8
								v-0.2l0.2,0c1.8-0.4,3.6-0.9,5.2-1.2l-0.1,0.1c0.5-2,1.2-3.8,2.1-5.3l0,0.2c-1-1.6-2-3.1-2.9-4.4l-0.1-0.1l0.1-0.1
								c2.5-2.5,4.6-4.7,6.1-6.3l0.1,0l0.1,0c1.4,0.9,2.6,1.6,3.3,2.1c0.4,0.2,0.7,0.4,0.9,0.5C114.4,26.8,114.5,26.8,114.5,26.8z"
								/>
						</g>
					</g>
				</g>
			</g>
		</g>
		<g>
			<g>
				<g>
					<g>
						<path class="st0" d="M346.5,54.2L346.5,54.2l-1-3.9c-1.4-0.3-2.7-0.9-4-1.6l-3.4,2.2l0,0l-4.8-4.6l0,0l2.1-3.4
							c-0.7-1.2-1.3-2.6-1.7-3.9l-3.9-0.8v0l-0.1-6.6h0l3.9-1c0.4-1.4,0.9-2.7,1.6-4l-2.2-3.4l0,0l4.6-4.8l0,0l3.4,2.1
							c1.2-0.7,2.6-1.3,3.9-1.7l0.8-3.9h0l6.6-0.1v0l1,3.9c1.4,0.4,2.7,0.9,4,1.6l3.4-2.2l0,0l4.8,4.6l0,0l-2.1,3.4
							c0.7,1.2,1.3,2.5,1.7,3.9l3.9,0.8v0l0.1,6.6h0l-3.9,1c-0.3,1.4-0.9,2.7-1.6,4l2.2,3.3l0,0l-4.6,4.8l0,0l-3.4-2.1
							c-1.2,0.7-2.5,1.3-3.9,1.7l-0.8,3.9h0L346.5,54.2z M341.5,48.6L341.5,48.6c1.3,0.7,2.6,1.2,4,1.6h0v0l1,3.9l6.6-0.1l0.8-3.9h0
							c1.4-0.4,2.7-1,4-1.7l0,0l0,0l3.4,2.1l4.6-4.7l-2.2-3.3l0,0c0.7-1.3,1.2-2.6,1.6-4v0h0l3.9-1l-0.1-6.6l-3.9-0.8v0
							c-0.4-1.4-1-2.7-1.7-4l0,0l0,0l2.1-3.4l-4.7-4.6l-3.3,2.2l0,0c-1.3-0.7-2.6-1.2-4-1.6h0v0l-1-3.9l-6.6,0.1l-0.8,3.9h0
							c-1.4,0.4-2.7,1-4,1.7l0,0l0,0l-3.4-2.1l-4.6,4.7l2.2,3.3l0,0c-0.7,1.3-1.2,2.6-1.6,4v0h0l-3.9,1l0.1,6.6l3.9,0.8v0
							c0.4,1.4,1,2.7,1.7,4l0,0l0,0l-2.1,3.4l4.7,4.6L341.5,48.6z M349.7,41.3c-1.8,0-3.6-0.7-5-2c-1.4-1.3-2.1-3.1-2.2-5
							c0-1.9,0.7-3.7,2-5.1l0,0c2.7-2.8,7.3-2.9,10.1-0.2s2.9,7.2,0.2,10.1C353.4,40.6,351.5,41.3,349.7,41.3z M349.7,27.1
							c-1.9,0-3.7,0.7-5.1,2.2l0,0c-1.3,1.4-2,3.2-2,5s0.8,3.7,2.2,5c2.8,2.7,7.3,2.6,10-0.2c2.7-2.8,2.6-7.3-0.2-10
							C353.2,27.8,351.4,27.1,349.7,27.1z"/>
					</g>
				</g>
			</g>
			<g>
				<g>
					<g>
						<g>
							<path class="st2" d="M344.5,29.2c0,0,0.4-0.5,1.3-1.2c0.9-0.6,2.6-1.3,4.6-1.1c1,0.1,2.1,0.5,3.1,1.1c1,0.7,2,1.6,2.5,2.9
								c0.3,0.6,0.5,1.3,0.6,2c0.1,0.7,0.1,1.5,0,2.2c-0.2,1.5-0.9,3-2,4.1c-1.1,1.1-2.5,1.9-4,2.1c-0.7,0.1-1.5,0.1-2.2,0
								c-0.7-0.1-1.4-0.3-2-0.6c-1.3-0.5-2.2-1.5-3-2.5s-1.1-2.1-1.2-3.1c-0.3-2.1,0.3-3.7,0.9-4.7C344,29.6,344.5,29.2,344.5,29.2
								c0,0-0.4,0.5-1,1.4c-0.5,1-1.1,2.6-0.8,4.6c0.2,1,0.5,2,1.2,3c0.7,0.9,1.6,1.8,2.8,2.3c0.6,0.3,1.2,0.5,1.9,0.5
								c0.7,0.1,1.4,0.1,2.1,0c1.4-0.2,2.8-0.9,3.8-2c1-1.1,1.7-2.5,1.9-3.9c0.1-0.7,0.1-1.4,0-2.1c-0.1-0.7-0.3-1.3-0.6-1.9
								c-0.5-1.2-1.5-2.1-2.4-2.8c-1-0.6-2-1-3-1.1c-2-0.2-3.6,0.4-4.5,0.9C345,28.8,344.6,29.3,344.5,29.2z"/>
						</g>
					</g>
				</g>
			</g>
			<g>
				<g>
					<g>
						<g>
							<path class="st2" d="M341,20.4c0,0-0.1,0-0.2-0.1c-0.2-0.1-0.4-0.2-0.7-0.4c-0.6-0.4-1.5-0.9-2.6-1.5l0.1,0
								c-1.2,1.2-2.7,2.8-4.6,4.8l0-0.1c0.7,1,1.4,2.1,2.2,3.3l0,0.1l0,0.1c-0.6,1.2-1.2,2.5-1.6,4l0,0.1l-0.1,0
								c-1.2,0.3-2.5,0.6-3.9,1l0.1-0.1c0,2.1,0.1,4.3,0.1,6.6l-0.1-0.2c1.2,0.2,2.5,0.5,3.9,0.8l0.1,0l0,0.1
								c0.4,1.3,0.9,2.6,1.7,3.9l0.1,0.1l-0.1,0.1c-0.6,1.1-1.4,2.2-2.1,3.4l0-0.2c1.5,1.4,3.1,3,4.8,4.6l-0.2,0
								c1-0.7,2.2-1.4,3.4-2.2l0.1-0.1l0.1,0.1c1.2,0.7,2.5,1.2,4,1.6l0.1,0l0,0.1c0.3,1.2,0.6,2.5,1,3.9l-0.2-0.2
								c2.1,0,4.4-0.1,6.6-0.1l-0.2,0.2c0.3-1.2,0.5-2.6,0.8-3.9l0-0.1l0.1,0c1.3-0.4,2.7-0.9,3.9-1.7l0,0l0.1-0.1l0.1,0.1
								c1.1,0.7,2.3,1.4,3.4,2.1l-0.2,0c1.6-1.6,3.1-3.2,4.6-4.8l0,0.2c-0.7-1.1-1.5-2.2-2.2-3.3l-0.1-0.1l0.1-0.1
								c0.7-1.3,1.2-2.6,1.6-4l0-0.1l0.1,0c1.3-0.3,2.6-0.6,3.9-1l-0.1,0.2c0-2.3-0.1-4.5-0.1-6.6l0.1,0.2c-1.3-0.3-2.6-0.5-3.9-0.8
								l-0.1,0l0-0.1c-0.4-1.4-1-2.7-1.7-3.9l-0.1-0.1l0.1-0.1c0.7-1.2,1.4-2.3,2.1-3.4l0,0.2c-1.7-1.6-3.2-3.1-4.8-4.6l0.2,0
								c-1.2,0.8-2.3,1.5-3.4,2.2l-0.1,0l-0.1,0c-1.3-0.8-2.7-1.2-4-1.6l-0.1,0l0-0.1c-0.3-1.4-0.6-2.7-0.9-3.9l0.1,0.1
								c-2.6,0-4.8,0.1-6.6,0.1l0.1-0.1c-0.3,1.6-0.6,2.8-0.8,3.9l0,0l0,0c-1.4,0.4-2.4,0.9-3,1.2c-0.3,0.2-0.5,0.3-0.7,0.4
								C341.1,20.4,341,20.4,341,20.4c0,0,0.1-0.1,0.2-0.1c0.1-0.1,0.4-0.2,0.7-0.4c0.6-0.3,1.6-0.8,3-1.2l0,0
								c0.2-1.1,0.5-2.4,0.8-3.9l0-0.1h0.1c1.9,0,4.1-0.1,6.6-0.1h0.1l0,0.1c0.3,1.2,0.6,2.5,1,3.9l-0.1-0.1
								c1.3,0.3,2.7,0.8,4.1,1.6l-0.1,0c1.1-0.7,2.2-1.4,3.3-2.2l0.1-0.1l0.1,0.1c1.5,1.5,3.1,3,4.8,4.6l0.1,0.1l-0.1,0.1
								c-0.7,1.1-1.4,2.2-2.1,3.4v-0.2c0.7,1.2,1.3,2.6,1.8,4l-0.1-0.1c1.3,0.3,2.6,0.5,3.9,0.8l0.1,0v0.1c0,2.1,0.1,4.4,0.1,6.6
								v0.2l-0.1,0c-1.3,0.3-2.6,0.6-3.9,1l0.1-0.1c-0.3,1.4-0.9,2.8-1.6,4.1l0-0.2c0.7,1.1,1.5,2.2,2.2,3.3l0.1,0.1l-0.1,0.1
								c-1.5,1.6-3,3.2-4.6,4.8l-0.1,0.1l-0.1-0.1c-1.1-0.7-2.3-1.4-3.4-2.1h0.2l0,0c-1.3,0.8-2.7,1.4-4,1.7l0.1-0.2
								c-0.3,1.3-0.6,2.7-0.8,3.9l0,0.2h-0.2c-2.3,0-4.5,0.1-6.6,0.1h-0.2l0-0.2c-0.3-1.3-0.6-2.7-1-3.9l0.1,0.1
								c-1.5-0.4-2.9-0.9-4.1-1.6l0.2,0c-1.2,0.8-2.3,1.5-3.4,2.2l-0.1,0.1L338,51c-1.6-1.6-3.3-3.2-4.8-4.6l-0.1-0.1l0.1-0.1
								c0.7-1.2,1.4-2.4,2.1-3.4v0.2c-0.8-1.3-1.4-2.7-1.7-4l0.1,0.1c-1.4-0.3-2.7-0.6-3.9-0.8l-0.1,0v-0.1c0-2.3-0.1-4.5-0.1-6.6
								v-0.1l0.1,0c1.4-0.3,2.7-0.6,3.9-0.9l-0.1,0.1c0.4-1.5,0.9-2.9,1.6-4v0.1c-0.8-1.2-1.5-2.3-2.2-3.4l0-0.1l0.1-0.1
								c1.9-1.9,3.4-3.5,4.6-4.7l0,0l0,0c1.1,0.7,1.9,1.2,2.5,1.6c0.3,0.2,0.5,0.3,0.6,0.4C340.9,20.4,341,20.4,341,20.4z"/>
						</g>
					</g>
				</g>
			</g>
		</g>
		<g>
			<g>
				<g>
					<g>
						<path class="st0" d="M38,173.7L38,173.7l-1-3.9c-1.4-0.4-2.7-0.9-4-1.6l-3.4,2.2l0,0l-4.8-4.6l0,0l2.1-3.4
							c-0.7-1.2-1.3-2.6-1.7-3.9l-3.9-0.8v0l-0.1-6.6h0l3.9-0.9c0.4-1.4,0.9-2.7,1.6-4l-2.2-3.4l0,0l4.6-4.8l0,0l3.4,2.1
							c1.2-0.7,2.5-1.3,3.9-1.7l0.8-3.9h0l6.6-0.1v0l1,3.9c1.4,0.4,2.7,0.9,4,1.6l3.3-2.2l0,0l4.8,4.6l0,0l-2.1,3.4
							c0.7,1.2,1.3,2.6,1.7,3.9l3.9,0.8v0l0.1,6.6h0l-3.9,0.9c-0.3,1.4-0.9,2.7-1.6,4l2.2,3.4l0,0l-4.6,4.8l0,0l-3.4-2.1
							c-1.2,0.7-2.6,1.3-3.9,1.7l-0.8,3.9h0L38,173.7z M33,168.1L33,168.1c1.3,0.7,2.6,1.2,4,1.6h0v0l1,3.9l6.6-0.1l0.8-3.9h0
							c1.4-0.4,2.7-1,4-1.7l0,0l0,0l3.4,2.1l4.6-4.7l-2.2-3.3l0,0c0.7-1.3,1.2-2.6,1.6-4v0h0l3.9-0.9l-0.1-6.6l-3.9-0.8v0
							c-0.4-1.4-1-2.7-1.7-4l0,0l0,0l2.1-3.4l-4.7-4.6l-3.3,2.2l0,0c-1.3-0.7-2.6-1.2-4-1.6h0v0l-1-3.9l-6.6,0.1l-0.8,3.9h0
							c-1.4,0.4-2.7,1-4,1.7l0,0l0,0l-3.4-2.1l-4.6,4.7l2.2,3.3l0,0c-0.7,1.3-1.2,2.6-1.6,4v0h0l-3.9,0.9l0.1,6.6l3.9,0.8v0
							c0.4,1.4,1,2.7,1.7,4l0,0l0,0l-2.1,3.4l4.7,4.6L33,168.1z M41.2,160.8c-1.8,0-3.6-0.7-5-2c-1.4-1.3-2.1-3.1-2.2-5
							c0-1.9,0.7-3.7,2-5.1c2.7-2.8,7.3-2.9,10.1-0.2c1.4,1.3,2.1,3.1,2.2,5c0,1.9-0.7,3.7-2,5.1C44.9,160.1,43.1,160.8,41.2,160.8z
							 M41.2,146.6c0,0-0.1,0-0.1,0c-1.9,0-3.7,0.8-5,2.2s-2,3.1-2,5s0.8,3.7,2.2,5c2.8,2.7,7.3,2.6,10-0.2c1.3-1.4,2-3.1,2-5
							s-0.8-3.7-2.2-5C44.8,147.3,43,146.6,41.2,146.6z"/>
					</g>
				</g>
			</g>
			<g>
				<g>
					<g>
						<g>
							<path class="st2" d="M36.1,148.8c0,0,0.4-0.5,1.3-1.2c0.9-0.6,2.6-1.3,4.6-1.1c1,0.1,2.1,0.4,3.2,1.1c1,0.7,2,1.6,2.5,2.9
								c0.3,0.6,0.5,1.3,0.7,2c0.1,0.7,0.2,1.4,0,2.2c-0.2,1.5-0.9,2.9-2,4.1c-1.1,1.1-2.5,1.9-4,2.1c-0.7,0.1-1.5,0.1-2.2,0
								c-0.7-0.1-1.4-0.3-2-0.6c-1.3-0.6-2.2-1.5-3-2.4c-0.7-1-1.1-2.1-1.2-3.1c-0.3-2.1,0.3-3.7,0.9-4.7
								C35.6,149.1,36.1,148.8,36.1,148.8c0,0-0.4,0.5-1,1.4c-0.5,1-1.1,2.6-0.8,4.6c0.2,1,0.5,2,1.2,3c0.7,0.9,1.6,1.8,2.8,2.3
								c0.6,0.3,1.2,0.4,1.9,0.5c0.7,0.1,1.4,0.1,2.1,0c1.4-0.2,2.8-0.9,3.8-2c1-1.1,1.7-2.5,1.9-3.9c0.1-0.7,0.1-1.4,0-2.1
								c-0.1-0.7-0.3-1.3-0.6-1.9c-0.5-1.2-1.5-2.1-2.4-2.8c-1-0.6-2-1-3-1.1c-2-0.2-3.6,0.4-4.5,0.9
								C36.5,148.3,36.1,148.8,36.1,148.8z"/>
						</g>
					</g>
				</g>
			</g>
			<g>
				<g>
					<g>
						<g>
							<path class="st2" d="M32.6,139.9c0,0-0.1,0-0.2-0.1c-0.2-0.1-0.4-0.2-0.7-0.4c-0.6-0.4-1.5-0.9-2.6-1.5l0.1,0
								c-1.2,1.2-2.7,2.8-4.6,4.8l0-0.1c0.7,1,1.4,2.1,2.2,3.3l0,0.1l0,0.1c-0.6,1.2-1.2,2.5-1.6,4l0,0.1l-0.1,0
								c-1.2,0.3-2.5,0.6-3.9,1l0.1-0.1c0,2.1,0.1,4.3,0.1,6.6l-0.1-0.1c1.2,0.2,2.5,0.5,3.9,0.8l0.1,0l0,0.1
								c0.4,1.3,0.9,2.6,1.7,3.9l0.1,0.1l-0.1,0.1c-0.6,1.1-1.4,2.2-2.1,3.4l0-0.2c1.5,1.4,3.1,3,4.8,4.6l-0.2,0
								c1-0.7,2.2-1.4,3.3-2.2l0.1-0.1l0.1,0.1c1.2,0.6,2.5,1.2,4,1.6l0.1,0l0,0.1c0.3,1.2,0.6,2.6,1,3.9l-0.2-0.1
								c2.1,0,4.3-0.1,6.6-0.1l-0.2,0.2c0.3-1.2,0.5-2.6,0.8-3.9l0-0.1l0.1,0c1.3-0.4,2.7-0.9,3.9-1.7l0,0l0.1-0.1l0.1,0.1
								c1.2,0.7,2.3,1.4,3.4,2.1l-0.2,0c1.6-1.6,3.1-3.2,4.6-4.8l0,0.2c-0.7-1.1-1.5-2.2-2.2-3.4l-0.1-0.1l0.1-0.1
								c0.7-1.3,1.2-2.6,1.6-4l0-0.1l0.1,0c1.3-0.3,2.6-0.6,3.9-0.9l-0.2,0.2c0-2.3-0.1-4.5-0.1-6.6l0.2,0.2
								c-1.3-0.3-2.6-0.6-3.9-0.8l-0.1,0l0-0.1c-0.4-1.4-1-2.7-1.7-3.9l-0.1-0.1l0.1-0.1c0.7-1.2,1.4-2.3,2.1-3.4l0,0.2
								c-1.7-1.6-3.2-3.1-4.8-4.6l0.2,0c-1.2,0.8-2.3,1.5-3.3,2.2l-0.1,0.1l-0.1,0c-1.3-0.8-2.7-1.2-4-1.6l-0.1,0l0-0.1
								c-0.3-1.4-0.7-2.7-0.9-3.9l0.1,0.1c-2.6,0-4.8,0.1-6.6,0.1l0.1-0.1c-0.3,1.6-0.6,2.9-0.8,3.9l0,0l0,0c-1.4,0.4-2.4,0.9-3,1.2
								c-0.3,0.2-0.5,0.3-0.7,0.4C32.6,139.9,32.6,139.9,32.6,139.9s0.1-0.1,0.2-0.1c0.2-0.1,0.4-0.2,0.7-0.4c0.6-0.3,1.6-0.8,3-1.2
								l0,0.1c0.2-1.1,0.5-2.4,0.8-3.9l0-0.1h0.1c1.9,0,4.1-0.1,6.6-0.1H44l0,0.1c0.3,1.2,0.6,2.5,1,3.9l-0.1-0.1
								c1.3,0.3,2.7,0.8,4.1,1.6l-0.2,0c1.1-0.7,2.2-1.4,3.3-2.2l0.1-0.1l0.1,0.1c1.5,1.4,3.1,3,4.8,4.6l0.1,0.1l-0.1,0.1
								c-0.7,1.1-1.4,2.2-2.1,3.4v-0.2c0.7,1.2,1.3,2.6,1.8,4l-0.1-0.1c1.3,0.3,2.6,0.5,3.9,0.8l0.2,0v0.1c0,2.1,0.1,4.4,0.1,6.6
								v0.1l-0.2,0c-1.3,0.3-2.6,0.6-3.9,1l0.1-0.1c-0.3,1.4-0.9,2.8-1.6,4.1l0-0.2c0.7,1.1,1.5,2.2,2.2,3.4l0.1,0.1l-0.1,0.1
								c-1.5,1.6-3,3.2-4.6,4.8l-0.1,0.1l-0.1-0.1c-1.1-0.7-2.3-1.4-3.4-2.1h0.2l0,0c-1.3,0.8-2.7,1.4-4,1.7l0.1-0.1
								c-0.3,1.4-0.6,2.7-0.8,3.9l0,0.2h-0.2c-2.3,0-4.5,0.1-6.6,0.1h-0.2l0-0.1c-0.3-1.3-0.7-2.7-1-3.9l0.1,0.1
								c-1.5-0.4-2.9-0.9-4.1-1.6l0.2,0c-1.2,0.8-2.3,1.5-3.4,2.2l-0.1,0.1l-0.1-0.1c-1.6-1.6-3.3-3.2-4.8-4.6l-0.1-0.1l0.1-0.1
								c0.7-1.2,1.4-2.4,2.1-3.4v0.2c-0.8-1.3-1.4-2.7-1.7-4l0.1,0.1c-1.4-0.3-2.7-0.6-3.9-0.8l-0.1,0v-0.1c0-2.3-0.1-4.5-0.1-6.6
								v-0.1l0.1,0c1.4-0.3,2.7-0.6,3.9-0.9l-0.1,0.1c0.4-1.5,0.9-2.9,1.6-4v0.1c-0.8-1.2-1.5-2.3-2.2-3.4l0-0.1l0.1-0.1
								c1.9-1.9,3.4-3.5,4.6-4.7l0,0l0,0c1.1,0.7,1.9,1.2,2.5,1.6c0.3,0.2,0.5,0.3,0.7,0.4C32.5,139.9,32.6,139.9,32.6,139.9z"/>
						</g>
					</g>
				</g>
			</g>
		</g>
	</g>
	<g>
		<g>
			<g>
				<g>
					<g>
						<path class="st0" d="M177.5,120.3c4.9-4.4,10.2-8.1,15.9-11l0.2-18l29.1-6.3l7.6,16.3c6.4,0.3,12.8,1.4,19.1,3.4l12.8-12.6
							l25,16.1l-6.1,16.9c4.4,4.9,8.1,10.2,11,15.9l18,0.2l6.3,29.1l-16.3,7.6c-0.3,6.4-1.4,12.8-3.5,19.1l12.6,12.8l-16.1,25
							l-16.9-6.1c-4.9,4.4-10.2,8.1-15.9,11l-0.2,18l-29.1,6.3l-7.6-16.3c-6.4-0.3-12.8-1.4-19.1-3.4l-12.8,12.6l-25-16.1l6.1-16.9
							c-4.4-4.9-8.1-10.2-11-15.9l-18-0.2l-6.3-29.1l16.3-7.6c0.3-6.4,1.4-12.8,3.4-19.1l-12.6-12.8l16.1-25L177.5,120.3
							L177.5,120.3z M193.8,153.1c-11.8,18.3-6.5,42.7,11.8,54.4c18.3,11.8,42.7,6.5,54.4-11.8c11.8-18.3,6.5-42.7-11.8-54.4
							S205.6,134.8,193.8,153.1z"/>
					</g>
					<g>
						<g>
							<path class="st3" d="M177.5,120.3c4.9-4.4,10.2-8.1,15.9-11l0.2-18l29.1-6.3l7.6,16.3c6.4,0.3,12.8,1.4,19.1,3.4l12.8-12.6
								l25,16.1l-6.1,16.9c4.4,4.9,8.1,10.2,11,15.9l18,0.2l6.3,29.1l-16.3,7.6c-0.3,6.4-1.4,12.8-3.5,19.1l12.6,12.8l-16.1,25
								l-16.9-6.1c-4.9,4.4-10.2,8.1-15.9,11l-0.2,18l-29.1,6.3l-7.6-16.3c-6.4-0.3-12.8-1.4-19.1-3.4l-12.8,12.6l-25-16.1l6.1-16.9
								c-4.4-4.9-8.1-10.2-11-15.9l-18-0.2l-6.3-29.1l16.3-7.6c0.3-6.4,1.4-12.8,3.4-19.1l-12.6-12.8l16.1-25L177.5,120.3
								L177.5,120.3z M193.8,153.1c-11.8,18.3-6.5,42.7,11.8,54.4c18.3,11.8,42.7,6.5,54.4-11.8c11.8-18.3,6.5-42.7-11.8-54.4
								S205.6,134.8,193.8,153.1z"/>
						</g>
						<g>
							<g>
								<path class="st4" d="M193.8,153.1c0,0,0.1-0.2,0.4-0.5c0.2-0.4,0.6-0.9,1.1-1.5c0.2-0.3,0.5-0.7,0.8-1.1
									c0.3-0.4,0.7-0.8,1.1-1.3s0.8-0.9,1.3-1.5c0.4-0.5,1-1,1.6-1.6c2.2-2.2,5.4-4.5,9.3-6.5c4-2,8.9-3.6,14.5-4.1
									c0.7-0.1,1.4-0.1,2.1-0.1c0.7,0,1.4,0,2.2,0c0.7,0,1.5,0,2.2,0.1c0.8,0.1,1.5,0.2,2.3,0.3c0.4,0.1,0.8,0.1,1.1,0.1
									c0.4,0.1,0.8,0.2,1.1,0.2c0.8,0.2,1.5,0.3,2.3,0.5c0.8,0.2,1.5,0.5,2.3,0.7c0.8,0.3,1.6,0.5,2.3,0.8
									c1.5,0.7,3.1,1.3,4.5,2.2c0.7,0.4,1.5,0.8,2.2,1.3c0.7,0.5,1.4,1,2.1,1.5c0.4,0.3,0.7,0.5,1.1,0.8l1,0.9
									c0.7,0.6,1.4,1.2,2,1.8c1.2,1.3,2.5,2.6,3.6,4.2c1.2,1.4,2.1,3.1,3.1,4.7c0.5,0.8,0.9,1.7,1.3,2.6c0.2,0.4,0.5,0.9,0.6,1.3
									l0.5,1.4c0.8,1.8,1.2,3.7,1.7,5.6c0.3,2,0.7,3.9,0.8,6l0.1,1.5l0,1.5l0,1.5c0,0.5,0,1-0.1,1.5c-0.1,1-0.2,2.1-0.4,3.1
									c-0.2,1-0.5,2-0.7,3.1c-1.1,4.1-2.8,8-5,11.6c-2.4,3.6-5.2,6.8-8.5,9.4c-0.8,0.6-1.7,1.3-2.5,1.9c-0.9,0.5-1.8,1.1-2.6,1.6
									l-0.7,0.4l-0.7,0.3l-1.4,0.7l-1.4,0.7l-1.4,0.5c-1.9,0.8-3.8,1.2-5.8,1.8c-2,0.3-3.9,0.7-5.9,0.8l-1.4,0.1c-0.5,0-1,0-1.4,0
									c-1,0-1.9,0-2.9-0.1c-1.9-0.2-3.8-0.4-5.6-0.9c-1.8-0.3-3.6-1-5.3-1.6c-0.8-0.3-1.6-0.7-2.5-1.1l-1.2-0.6
									c-0.4-0.2-0.8-0.4-1.2-0.6c-0.8-0.4-1.5-0.9-2.3-1.3c-0.7-0.5-1.4-1-2.1-1.5c-1.4-0.9-2.6-2.1-3.9-3.2
									c-0.6-0.5-1.1-1.2-1.7-1.8c-0.5-0.6-1.1-1.2-1.6-1.8c-0.5-0.6-1-1.3-1.4-1.9l-0.7-0.9l-0.6-1c-0.4-0.7-0.8-1.3-1.2-1.9
									c-0.4-0.6-0.7-1.3-1-2c-0.3-0.7-0.6-1.3-0.9-2c-0.2-0.7-0.5-1.3-0.7-2c-1.9-5.3-2.5-10.4-2.3-14.9c0.2-4.4,1-8.3,2.1-11.2
									c0.3-0.7,0.4-1.5,0.8-2.1c0.3-0.6,0.6-1.2,0.8-1.8c0.3-0.6,0.5-1.1,0.7-1.5c0.3-0.4,0.5-0.8,0.7-1.2c0.4-0.7,0.7-1.2,1-1.6
									C193.6,153.3,193.8,153.1,193.8,153.1s-0.1,0.2-0.3,0.6c-0.2,0.4-0.5,0.9-0.9,1.6c-0.2,0.4-0.4,0.8-0.7,1.2
									c-0.2,0.4-0.4,1-0.7,1.5c-0.2,0.6-0.5,1.1-0.8,1.8c-0.3,0.6-0.5,1.4-0.7,2.1c-1.1,2.9-1.8,6.7-2,11.1
									c-0.1,4.4,0.4,9.5,2.4,14.8c0.2,0.6,0.5,1.3,0.7,2c0.3,0.6,0.6,1.3,0.9,1.9c0.3,0.6,0.6,1.3,1,2c0.4,0.6,0.8,1.3,1.2,1.9
									l0.6,1l0.7,0.9c0.5,0.6,0.9,1.2,1.4,1.9c0.5,0.6,1.1,1.2,1.6,1.8c0.6,0.6,1.1,1.2,1.7,1.7c1.2,1.1,2.4,2.2,3.9,3.2
									c0.7,0.5,1.4,1,2.1,1.5c0.7,0.4,1.5,0.9,2.2,1.3c0.4,0.2,0.8,0.4,1.1,0.6l1.2,0.5c0.8,0.4,1.6,0.7,2.4,1.1
									c1.7,0.5,3.4,1.2,5.2,1.5c1.8,0.5,3.6,0.6,5.5,0.9c0.9,0.1,1.9,0.1,2.8,0.1c0.5,0,0.9,0.1,1.4,0l1.4-0.1
									c1.9-0.1,3.8-0.4,5.8-0.8c1.9-0.5,3.8-1,5.7-1.7l1.4-0.5l1.4-0.7l1.4-0.7l0.7-0.3l0.6-0.4c0.9-0.5,1.7-1.1,2.6-1.6
									c0.8-0.6,1.6-1.2,2.5-1.9c3.2-2.6,6-5.8,8.4-9.3c2.2-3.6,3.9-7.5,5-11.5c0.2-1,0.5-2,0.7-3c0.1-1,0.2-2,0.4-3
									c0.1-0.5,0.1-1,0.1-1.5l0-1.5l0-1.5l-0.1-1.5c-0.1-2-0.5-3.9-0.8-5.9c-0.5-1.9-0.9-3.8-1.7-5.6l-0.5-1.4
									c-0.2-0.4-0.4-0.9-0.6-1.3c-0.4-0.9-0.8-1.7-1.3-2.5c-1-1.6-1.9-3.2-3.1-4.6c-1-1.5-2.4-2.8-3.6-4.1c-0.6-0.6-1.3-1.2-2-1.8
									l-1-0.9c-0.3-0.3-0.7-0.5-1.1-0.8c-0.7-0.5-1.4-1-2.1-1.5c-0.7-0.5-1.5-0.9-2.2-1.3c-1.4-0.9-3-1.5-4.5-2.2
									c-0.7-0.4-1.5-0.6-2.3-0.8c-0.8-0.2-1.5-0.5-2.3-0.7c-0.8-0.2-1.5-0.4-2.3-0.5c-0.4-0.1-0.8-0.2-1.1-0.3
									c-0.4-0.1-0.8-0.1-1.1-0.1c-0.8-0.1-1.5-0.2-2.2-0.3c-0.7-0.1-1.5-0.1-2.2-0.1c-0.7,0-1.4-0.1-2.2-0.1
									c-0.7,0.1-1.4,0.1-2.1,0.1c-5.6,0.4-10.4,2-14.4,3.9c-3.9,2-7.1,4.2-9.3,6.4c-0.6,0.5-1.1,1-1.6,1.5c-0.5,0.5-0.9,1-1.3,1.4
									s-0.8,0.9-1.1,1.2c-0.3,0.4-0.6,0.8-0.8,1.1c-0.5,0.6-0.9,1.1-1.1,1.5C193.9,153,193.8,153.1,193.8,153.1z"/>
							</g>
						</g>
						<g>
							<g>
								<path class="st4" d="M177.5,120.3c0,0-0.4-0.1-1.1-0.4c-0.7-0.3-1.8-0.6-3.2-1.2c-2.9-1-7.1-2.6-12.6-4.6l0.1,0
									c-4.1,6.4-9.5,14.8-16.1,25l0-0.2c3.8,3.9,8.1,8.2,12.6,12.8l0.1,0.1l0,0.1c-1.9,5.8-3.1,12.2-3.4,19v0.1l-0.1,0
									c-5.1,2.4-10.6,4.9-16.3,7.6l0.1-0.2c2,9.1,4.1,18.9,6.3,29.1l-0.2-0.2c5.6,0.1,11.7,0.1,18,0.2h0.1l0.1,0.1
									c2.7,5.4,6.4,10.9,11,15.9l0.1,0.1l-0.1,0.1c-1.9,5.2-4,11-6.1,16.9l-0.1-0.3c7.9,5.1,16.3,10.5,25,16.1l-0.3,0
									c4-3.9,8.4-8.2,12.8-12.6l0.1-0.1l0.1,0.1c5.8,1.9,12.3,3.1,19,3.4l0.1,0l0.1,0.1c2.4,5.1,5,10.7,7.6,16.3l-0.3-0.1
									c9.2-2,19.1-4.1,29.1-6.3l-0.2,0.2c0-5.7,0.1-11.8,0.2-18v-0.2l0.1-0.1c5.5-2.8,11-6.5,15.9-11l0,0l0.1-0.1l0.1,0.1
									c5.7,2.1,11.3,4.1,16.9,6.1l-0.3,0.1c5.4-8.4,10.8-16.8,16.1-25l0,0.3c-4.2-4.3-8.4-8.6-12.6-12.8l-0.1-0.1l0-0.1
									c2-6.2,3.1-12.6,3.4-19l0-0.1l0.1-0.1c5.5-2.6,10.9-5.1,16.3-7.6l-0.1,0.3c-2.1-9.9-4.2-19.6-6.3-29.1l0.2,0.2
									c-6.1-0.1-12.1-0.1-18-0.2H292l-0.1-0.1c-3-5.9-6.7-11.2-11-15.9l-0.1-0.1l0-0.1c2.1-5.8,4.2-11.4,6.2-16.9l0.1,0.3
									c-8.8-5.7-17.1-11-25-16.1l0.2,0c-4.5,4.4-8.8,8.6-12.8,12.6l-0.1,0.1l-0.1,0c-6.6-2.1-12.9-3.2-19-3.5l-0.1,0l0-0.1
									c-2.8-5.9-5.2-11.3-7.6-16.3l0.2,0.1c-11.3,2.4-20.9,4.5-29.1,6.3l0.1-0.1c-0.1,7.2-0.1,13.1-0.2,18v0.1l-0.1,0
									c-5.8,3-9.8,5.9-12.3,7.9c-1.3,1-2.2,1.8-2.8,2.3C177.8,120,177.5,120.3,177.5,120.3s1.1-1.1,3.6-3.2c2.5-2,6.4-4.9,12.3-8
									l-0.1,0.1c0-4.9,0.1-10.8,0.1-18v-0.1l0.1,0c8.2-1.8,17.8-3.9,29.1-6.3l0.1,0l0.1,0.1c2.4,5,4.8,10.4,7.6,16.3l-0.1-0.1
									c6.1,0.3,12.5,1.3,19.1,3.4l-0.2,0c4.1-4,8.3-8.2,12.8-12.6l0.1-0.1l0.1,0.1c7.9,5.1,16.2,10.4,25,16.1l0.1,0.1l-0.1,0.2
									c-2,5.5-4,11.1-6.1,16.9l0-0.2c4.3,4.7,8,10.1,11.1,16l-0.2-0.1c5.9,0.1,11.9,0.1,18,0.2h0.2l0,0.2c2,9.4,4.1,19.1,6.3,29.1
									l0,0.2l-0.2,0.1c-5.4,2.5-10.8,5-16.3,7.6l0.1-0.2c-0.3,6.4-1.4,12.9-3.5,19.1l-0.1-0.3c4.1,4.2,8.4,8.5,12.6,12.8l0.1,0.1
									l-0.1,0.2c-5.3,8.2-10.7,16.6-16.1,25l-0.1,0.2L293,235c-5.6-2-11.2-4.1-16.9-6.1l0.3-0.1l0,0c-4.9,4.5-10.5,8.3-16,11.1
									l0.1-0.2c-0.1,6.2-0.1,12.3-0.2,18v0.2l-0.2,0c-10,2.2-19.9,4.3-29.1,6.3l-0.2,0l-0.1-0.2c-2.6-5.6-5.2-11.2-7.6-16.3
									l0.2,0.1c-6.7-0.3-13.3-1.6-19.1-3.5l0.2-0.1c-4.4,4.4-8.8,8.7-12.8,12.6l-0.1,0.1l-0.2-0.1c-8.7-5.6-17.1-11.1-25-16.1
									l-0.2-0.1l0.1-0.2c2.1-5.9,4.2-11.6,6.2-16.9l0,0.2c-4.6-5-8.3-10.6-11.1-16l0.2,0.1c-6.3-0.1-12.4-0.1-18-0.2h-0.2l0-0.2
									c-2.2-10.2-4.3-19.9-6.3-29.1l0-0.1l0.1-0.1c5.7-2.7,11.2-5.2,16.3-7.6l-0.1,0.1c0.3-6.9,1.6-13.3,3.5-19.1l0,0.1
									c-4.5-4.6-8.8-8.9-12.6-12.8l-0.1-0.1l0.1-0.1c6.6-10.2,12-18.6,16.1-25l0-0.1l0.1,0c5.5,2,9.7,3.6,12.6,4.6
									c1.4,0.5,2.5,0.9,3.2,1.2C177.2,120.1,177.5,120.3,177.5,120.3z"/>
							</g>
						</g>
					</g>
				</g>
			</g>
		</g>
	</g>
	<g>
		<g>
			<g>
				<polygon class="st5" points="311,271.6 253.1,308.6 442.9,308.6 442.9,271.6 				"/>
			</g>
		</g>
		<g>
			<g>
				<g>
					<polygon class="st5" points="418.1,248.8 418.1,252.5 418.1,331.5 472,290.1 					"/>
				</g>
			</g>
		</g>
		<g>
			<path class="st4" d="M347.6,288.5h1.6v5.5h3.4v1.3h-5V288.5z"/>
			<path class="st4" d="M357.9,293.8h-3.1l-0.6,1.5h-1.6l3-6.8h1.5l3,6.8h-1.6L357.9,293.8z M357.4,292.6l-1.1-2.6l-1.1,2.6H357.4z"
				/>
			<path class="st4" d="M360.7,292.2v-3.8h1.6v3.7c0,1.3,0.6,1.8,1.5,1.8s1.5-0.5,1.5-1.8v-3.7h1.5v3.8c0,2-1.1,3.1-3.1,3.1
				C361.8,295.3,360.7,294.2,360.7,292.2z"/>
			<path class="st4" d="M374.5,288.5v6.8h-1.3l-3.4-4.1v4.1h-1.5v-6.8h1.3l3.4,4.1v-4.1H374.5z"/>
			<path class="st4" d="M375.7,291.8c0-2,1.6-3.5,3.7-3.5c1.2,0,2.1,0.4,2.8,1.2l-1,0.9c-0.5-0.5-1-0.8-1.7-0.8
				c-1.3,0-2.2,0.9-2.2,2.2s0.9,2.2,2.2,2.2c0.7,0,1.2-0.3,1.7-0.8l1,0.9c-0.6,0.8-1.6,1.2-2.8,1.2
				C377.2,295.3,375.7,293.9,375.7,291.8z"/>
			<path class="st4" d="M389.4,288.5v6.8h-1.6v-2.8h-3.1v2.8h-1.6v-6.8h1.6v2.7h3.1v-2.7H389.4z"/>
		</g>
	</g>
	<g>
		<g>
			<g>
				<g>
					<path class="st6" d="M77.3,179.3c5.9,75.3,69.1,134.8,146,134.8v-37c-60.3,0-109.4-49.1-109.4-109.4c0,0,1.7-19.1,2.8-24.8
						l-36.4-6.9l0,0C78.9,142.5,76.8,172.6,77.3,179.3z"/>
				</g>
			</g>
		</g>
		<g>
			<path class="st4" d="M124.3,242.8l-0.6,2.2l0.1,0.1l0.9,1.1l1.5-1.2l1,1.2l-5.2,4.3l-1.8-2.3c-1.1-1.4-1.1-2.9,0-3.8
				c0.8-0.6,1.7-0.7,2.5-0.3l0.7-2.5L124.3,242.8z M121,247.4l0.8,1l1.8-1.5l-0.8-1c-0.6-0.7-1.2-0.8-1.8-0.4
				C120.5,246,120.4,246.7,121,247.4z"/>
			<path class="st4" d="M118.6,237.2l1-0.7l3.1,4.2l-5.4,4l-3-4.1l1-0.7l2.1,2.9l1.2-0.9l-1.9-2.5l1-0.7l1.9,2.5l1.3-0.9
				L118.6,237.2z"/>
			<path class="st4" d="M109.7,234l7.2-1.3l0.9,1.3l-4,6.2l-0.9-1.4l2.9-4.4l-5.2,0.9L109.7,234z"/>
			<path class="st4" d="M109.4,233.4l-0.8-1.3l5.7-3.6l0.8,1.3L109.4,233.4z"/>
			<path class="st4" d="M109.7,223.2l1.1-0.6l2.6,4.5l-5.8,3.4l-2.6-4.4l1.1-0.6l1.8,3.1l1.3-0.7l-1.6-2.7l1.1-0.6l1.6,2.7l1.3-0.8
				L109.7,223.2z"/>
			<path class="st4" d="M99.6,215.7l7-1.1l0.8,1.5l-3.4,3.4l4.8-0.7l0.8,1.5l-5,5l-0.7-1.4l3.5-3.5l-4.9,0.7l-0.7-1.3l3.6-3.5
				l-5,0.8L99.6,215.7z"/>
		</g>
	</g>
	<g>
		<g>
			<g>
				<polygon class="st5" points="139.4,133.6 66.7,113.7 90.2,170.4 				"/>
			</g>
		</g>
		<g>
			<g>
				<path class="st5" d="M120.9,132.2c15.4-41.9,55.6-71.8,102.8-71.8v-37c-63.3,0-117.4,40.4-137.8,96.7L120.9,132.2z"/>
			</g>
		</g>
		<g>
			<path class="st4" d="M125.9,81.8l2.5-1.7c1.8-1.2,3.8-1,5,0.7c1.1,1.7,0.6,3.6-1.2,4.9l-2.5,1.7L125.9,81.8z M131.5,84.6
				c1.1-0.8,1.4-1.9,0.6-3c-0.7-1.1-1.9-1.2-3-0.5L128,82l2.4,3.5L131.5,84.6z"/>
			<path class="st4" d="M139.9,78.9l0.7,1l-4.3,2.9l-3.8-5.6l4.2-2.9l0.7,1l-2.9,2l0.8,1.2l2.6-1.8l0.7,1l-2.6,1.8l0.9,1.3
				L139.9,78.9z"/>
			<path class="st4" d="M144.1,72.4c0.9,1.2,0.4,2.7-1.1,3.7l-1.1,0.8l1.1,1.5l-1.3,0.9l-3.8-5.6l2.4-1.7
				C141.8,71,143.2,71.1,144.1,72.4z M142.8,73.3c-0.4-0.6-1.1-0.7-1.9-0.2l-1.1,0.7l1.3,1.9l1.1-0.7
				C143,74.5,143.2,73.9,142.8,73.3z"/>
			<path class="st4" d="M143.6,69.7l1.3-0.9l3.1,4.5l2.8-1.9l0.7,1.1l-4.1,2.8L143.6,69.7z"/>
			<path class="st4" d="M149.9,69.5c-1.1-1.7-0.7-3.8,1.1-5c1.8-1.2,3.9-0.9,5,0.8s0.7,3.8-1.1,5C153.1,71.5,151,71.2,149.9,69.5z
				 M154.7,66.3c-0.7-1.1-2-1.3-3-0.6c-1,0.7-1.2,1.9-0.5,3s2,1.3,3,0.6S155.4,67.3,154.7,66.3z"/>
			<path class="st4" d="M159.9,63.8l1.4,2l-1.3,0.9l-1.4-2l-4.6-2.1l1.4-0.9l3.2,1.5l-0.2-3.5l1.3-0.9L159.9,63.8z"/>
		</g>
	</g>
	<g>
		<g>
			<polygon class="st0" points="244.5,87.5 196.3,34.8 257.8,0 			"/>
		</g>
		<g>
			<path class="st0" d="M311,95.6c-20.8-23.8-50.8-37.4-82.4-37.4v-37c42.3,0,82.4,18.3,110.3,50.1L311,95.6z"/>
		</g>
		<g>
			<path class="st4" d="M269.3,45.9l-2-0.8l0.5-1.2l5.5,2.1l-0.5,1.2l-2-0.8l-2,5.1l-1.5-0.6L269.3,45.9z"/>
			<path class="st4" d="M276.9,53.4l-0.5,1.2l-4.9-1.9l2.4-6.3l4.8,1.8l-0.5,1.2l-3.3-1.3l-0.5,1.4l2.9,1.1l-0.4,1.1l-2.9-1.1
				l-0.6,1.5L276.9,53.4z"/>
			<path class="st4" d="M277.4,54.2l0.9-0.9c0.4,0.6,1.1,1.2,1.8,1.5c0.9,0.3,1.3,0.2,1.5-0.2c0.5-1.2-3.5-1.8-2.6-4.1
				c0.4-1.1,1.6-1.6,3.4-1c0.8,0.3,1.5,0.8,2,1.4l-0.9,0.9c-0.5-0.6-1-1-1.6-1.2c-0.9-0.3-1.3-0.1-1.5,0.3c-0.5,1.2,3.5,1.8,2.6,4.1
				c-0.4,1-1.6,1.6-3.4,0.9C278.7,55.5,277.8,54.8,277.4,54.2z"/>
			<path class="st4" d="M286.6,52.5l-2-0.8l0.5-1.2l5.5,2.1l-0.5,1.2l-2-0.8l-2,5.1l-1.5-0.6L286.6,52.5z"/>
		</g>
	</g>
	<g>
		<g>
			<g>
				<g>
					<path class="st6" d="M358.4,235.1l-33.5-15.7c6.8-14.6,13.1-35.5,13.1-51.8c0-17.4-4-34-11.7-49.4c-1.4-2.7-6.2-11.6-7.6-13.8
						l31.6-19.2c2,3.2,7.3,13,9,16.2c10.4,20.6,15.7,42.8,15.7,66.1C375,189.3,367.5,215.6,358.4,235.1z"/>
				</g>
			</g>
		</g>
		<g>
			<g>
				<polygon class="st6" points="305.6,121.4 368.6,79.9 310.4,60.1 				"/>
			</g>
		</g>
		<g>
			<path class="st4" d="M352.9,128.2l0.8,2.9c0.6,2.1-0.3,3.9-2.2,4.5c-2,0.6-3.7-0.5-4.3-2.7l-0.8-2.9L352.9,128.2z M348.4,132.6
				c0.4,1.3,1.4,1.9,2.6,1.6c1.2-0.4,1.8-1.4,1.4-2.7l-0.4-1.4l-4,1.1L348.4,132.6z"/>
			<path class="st4" d="M350.8,142.5l-1.2,0.3l-1.1-5.1l6.6-1.5l1.1,5l-1.2,0.3l-0.8-3.5l-1.4,0.3l0.7,3.1l-1.2,0.3l-0.7-3.1
				l-1.5,0.3L350.8,142.5z"/>
			<path class="st4" d="M357.6,149l-7.1-1.7l-0.3-1.5l6.1-4.1l0.3,1.7l-4.4,2.9l5.1,1.2L357.6,149z"/>
			<path class="st4" d="M353,155.7l-1.2,0.2l-0.7-5.2l6.7-0.9l0.7,5.1l-1.2,0.2l-0.5-3.5l-1.5,0.2l0.4,3.1l-1.2,0.2l-0.4-3.1
				l-1.5,0.2L353,155.7z"/>
			<path class="st4" d="M358.5,156.4l0.1,1.6l-5.5,0.5l0.3,3.4l-1.3,0.1l-0.5-4.9L358.5,156.4z"/>
			<path class="st4" d="M355.7,162c2-0.1,3.6,1.4,3.7,3.5c0.1,2.1-1.3,3.8-3.3,3.9c-2,0.1-3.6-1.4-3.7-3.5
				C352.3,163.8,353.7,162.1,355.7,162z M356,167.8c1.3-0.1,2.1-1,2-2.2s-1-2.1-2.3-2c-1.3,0.1-2.1,1-2,2.2
				C353.8,167,354.7,167.9,356,167.8z"/>
			<path class="st4" d="M357,176.5c-1.5,0-2.4-1.1-2.5-2.9l0-1.4l-1.9,0l0-1.6l6.8,0l0,2.9C359.5,175.4,358.5,176.5,357,176.5z
				 M357,174.9c0.7,0,1.2-0.5,1.2-1.4l0-1.3l-2.3,0v1.3C355.9,174.4,356.3,174.9,357,174.9z"/>
		</g>
	</g>
	<g>
		<g>
			<g>
				<g>
					<path class="st7" d="M228.5,314.1H110.5v-37h118.1c34.4,0,66.1-15.7,87-43l29.4,22.5C317,293.1,274.5,314.1,228.5,314.1z"/>
				</g>
			</g>
			<g>
				<polygon class="st7" points="296.8,224.8 359.6,266.6 355.1,205.3 				"/>
			</g>
			<g>
				<g>
					<path class="st8" d="M359.6,266.6l-4.5-61.3l-58.3,19.5l17,11.4c-20.9,26.1-51.9,40.9-85.3,40.9H110.5v37h118.1
						c45.9,0,88.3-20.9,116.2-57.4L359.6,266.6z"/>
				</g>
			</g>
		</g>
		<g>
			<path class="st4" d="M295.9,274.4c0.9,1.2,0.6,2.6-0.9,3.7l-1.1,0.8l1.1,1.5l-1.2,0.9l-4.1-5.4l2.3-1.8
				C293.6,273.1,295,273.2,295.9,274.4z M294.7,275.4c-0.5-0.6-1.1-0.6-1.9-0.1l-1,0.8l1.4,1.9l1-0.8
				C295,276.6,295.1,275.9,294.7,275.4z"/>
			<path class="st4" d="M295.3,271.8l1.2-0.9l3.3,4.4l2.7-2l0.8,1l-4,3L295.3,271.8z"/>
			<path class="st4" d="M306.8,269.8l-2.5,1.9l0.4,1.5l-1.3,1l-1.7-7.2l1.2-0.9l6.5,3.6l-1.3,1L306.8,269.8z M305.7,269.1l-2.4-1.4
				l0.7,2.7L305.7,269.1z"/>
			<path class="st4" d="M310.9,260.1l4.1,5.4l-1,0.8l-5.1-1.2l2.5,3.3l-1.2,0.9l-4.1-5.4l1-0.8l5.1,1.2l-2.5-3.3L310.9,260.1z"/>
		</g>
	</g>
	<g>
		<g>
			<polygon class="st0" points="100.6,254.2 100.6,336.9 153.8,295.6 			"/>
		</g>
		<g>
			<g>
				<rect y="277.1" class="st0" width="110.5" height="37"/>
			</g>
		</g>
		<g>
			<path class="st4" d="M47.3,294.3c0,1.5-1.1,2.4-2.9,2.4H43v1.9h-1.6v-6.8h2.9C46.2,291.9,47.3,292.8,47.3,294.3z M45.8,294.3
				c0-0.7-0.5-1.2-1.4-1.2H43v2.3h1.3C45.3,295.5,45.8,295,45.8,294.3z"/>
			<path class="st4" d="M48.5,291.9H50v5.5h3.4v1.3h-5L48.5,291.9L48.5,291.9z"/>
			<path class="st4" d="M58.8,297.2h-3.1l-0.6,1.5h-1.6l3-6.8H58l3,6.8h-1.6L58.8,297.2z M58.3,296l-1.1-2.6l-1.1,2.6H58.3z"/>
			<path class="st4" d="M67.9,291.9v6.8h-1.3l-3.4-4.1v4.1h-1.5v-6.8H63l3.4,4.1v-4.1H67.9z"/>
		</g>
	</g>
	<g>
		<g>
			<g>
				<g>
					<g>
						<g>
							<g>
								<polygon class="st7" points="215.3,427.3 212.5,457.5 196.2,456.2 199,426 								"/>
							</g>
						</g>
					</g>
				</g>
			</g>
			<g>
				<g>
					<g>
						<g>
							<g>
								<g>
									<path class="st4" d="M204.5,455.7c-0.1,0,0.5-6.6,1.3-14.8c0.9-8.1,1.7-14.7,1.8-14.7c0.1,0-0.5,6.6-1.3,14.8
										C205.5,449.1,204.7,455.7,204.5,455.7z"/>
								</g>
							</g>
						</g>
					</g>
				</g>
			</g>
			<g>
				<g>
					<g>
						<g>
							<g>
								<polygon class="st4" points="212.7,455.4 196.4,454.1 196.2,456.2 212.5,457.5 								"/>
							</g>
						</g>
					</g>
				</g>
			</g>
			<g>
				<g>
					<g>
						<g>
							<g>
								<g>
									<path class="st4" d="M197.1,446.6c0,0,0.1-0.2,0.5-0.6s0.9-0.9,1.6-1.4c0.7-0.5,1.7-1.1,2.8-1.5c1.1-0.4,2.5-0.7,3.9-0.5
										c2.8,0.3,5.1,1.9,6.1,3.4c0.5,0.7,0.9,1.4,1,1.9c0.2,0.5,0.2,0.8,0.2,0.8c-0.1,0-0.4-1.1-1.5-2.4c-1.1-1.4-3.2-2.8-5.9-3.1
										c-2.7-0.3-5,0.9-6.4,1.8C197.9,445.8,197.1,446.6,197.1,446.6z"/>
								</g>
							</g>
						</g>
					</g>
				</g>
			</g>
			<g class="st9">
				<g>
					<g>
						<g>
							<g>
								<polygon points="198.2,434.6 197.9,437.9 214.2,439.1 214.5,436.6 								"/>
							</g>
						</g>
					</g>
				</g>
			</g>
		</g>
		<g>
			<g>
				<g>
					<g>
						<g>
							<g>
								<polygon class="st7" points="280.9,425.2 282.9,455.4 266.6,456.8 264.6,426.5 								"/>
							</g>
						</g>
					</g>
				</g>
			</g>
			<g>
				<g>
					<g>
						<g>
							<g>
								<g>
									<path class="st4" d="M274.8,455c-0.1,0-0.6-6.6-1-14.8c-0.4-8.2-0.7-14.8-0.5-14.8c0.1,0,0.6,6.6,1,14.8
										C274.7,448.3,274.9,455,274.8,455z"/>
								</g>
							</g>
						</g>
					</g>
				</g>
			</g>
			<g>
				<g>
					<g>
						<g>
							<g>
								<polygon class="st4" points="282.8,453.3 266.5,454.7 266.6,456.8 282.9,455.4 								"/>
							</g>
						</g>
					</g>
				</g>
			</g>
			<g>
				<g>
					<g>
						<g>
							<g>
								<g>
									<path class="st4" d="M266,447.1c0,0,0.1-0.3,0.4-0.7s0.7-1,1.4-1.6c0.6-0.6,1.5-1.4,2.5-1.9c1-0.6,2.3-1,3.8-1.1
										c2.8-0.2,5.3,1.1,6.5,2.4c0.6,0.6,1.1,1.3,1.3,1.7c0.2,0.5,0.3,0.7,0.3,0.7c-0.1,0-0.5-1-1.9-2.2c-1.3-1.2-3.6-2.3-6.3-2.1
										c-2.7,0.1-4.8,1.6-6.1,2.8C266.6,446.2,266,447.2,266,447.1z"/>
								</g>
							</g>
						</g>
					</g>
				</g>
			</g>
			<g class="st9">
				<g>
					<g>
						<g>
							<g>
								<polygon points="265.1,435.1 265.4,438.5 281.7,437 281.5,434.5 								"/>
							</g>
						</g>
					</g>
				</g>
			</g>
		</g>
		<g>
			<g>
				<g>
					<g>
						<g>
							<g>
								<g>
									<g>
										<g>
											<g>
												<g>
													<path class="st10" d="M234.8,157.7l-22.5,3.4l-1.1-19.2c0,0-1.6-0.1-3.1-8.3s-4.1-22.1-4.1-22.1l0,0
														c9.2-5.7,20.8-6.2,30.3-1.2l1.4,0.7L234.8,157.7z"/>
												</g>
											</g>
										</g>
									</g>
								</g>
							</g>
						</g>
					</g>
				</g>
			</g>
			<g>
				<g>
					<g>
						<g>
							<g>
								<g>
									<g>
										<g>
											<path class="st10" d="M234.8,121.5c0.1-0.1,5.6-2.6,6.3,3s-5.3,5.3-5.3,5.1S234.8,121.5,234.8,121.5z"/>
										</g>
									</g>
								</g>
							</g>
						</g>
					</g>
				</g>
			</g>
			<g>
				<g>
					<g>
						<g>
							<g>
								<g>
									<g>
										<g>
											<path class="st10" d="M207.3,124.8c-0.1,0-5.6-0.6-4.5,5c1.1,5.6,6.7,3.3,6.7,3.1C209.4,132.8,207.3,124.8,207.3,124.8z"
												/>
										</g>
									</g>
								</g>
							</g>
						</g>
					</g>
				</g>
			</g>
			<g>
				<g>
					<g>
						<g>
							<path class="st4" d="M236.6,120.6c-0.1,4.8,0.5,7.3,0.2,10.6c-0.5,5.2-2.4,9.4-6.6,12.6c-4.2,3.2-10.5,4.2-15.1,1.5
								c-3.1-1.9-5.5-4.2-6.5-7.7c-1-3.5-2.4-9.7-3-13.2c-1.1-6.4-2.5-12.5-2.5-12.5l18.4-6.4l11.8,4.4L236.6,120.6z"/>
						</g>
					</g>
				</g>
			</g>
			<g>
				<g>
					<g>
						<g>
							<g>
								<path class="st4" d="M221,148.2c0,0.1,1.5,0.2,3.4-0.2c1.8-0.5,3.1-1.4,3-1.5c-0.1-0.1-1.4,0.5-3.2,1
									C222.4,147.9,221,148.1,221,148.2z"/>
							</g>
						</g>
					</g>
				</g>
			</g>
			<g>
				<g>
					<g>
						<g>
							<path class="st4" d="M237,128.8c-0.2-4.9-0.8-10.5-0.8-15.7c0-2,0.2-4.8-0.2-6.7c-0.5-1.9-1-3.8-2.2-5.4
								c-1.5-2-3.9-3.3-6.5-3.4c-2.5-0.1-5.1,1.1-6.8,2.9c-1.7-1.8-4.6-2.4-6.9-1.4s-4,3.3-3.9,5.8c-1.6-1-3.8-0.9-5.3,0.3
								c-1.4,1.2-1.9,3.3-1.1,5c-1.3,0.4-2.4,1.6-2.8,2.9s0,2.8,0.9,3.8c1.1,1.2,2.8,1.6,4,2.7c1.4,1.2,1.8,3.3,1.1,5"/>
						</g>
					</g>
				</g>
				<g>
					<g>
						<g>
							<g>
								<path class="st11" d="M207.8,115.6c0,0,0.1,0.2,0.3,0.5s0.6,0.7,1.3,1c0.6,0.3,1.6,0.6,2.6,0.4c1-0.2,2.1-0.8,2.8-1.9
									l-0.4,0c0.4,1.2,1.6,2.1,3,2.4c1.4,0.3,3.1-0.2,4.2-1.2c1.1-0.9,1.7-2.2,1.9-3.4l-0.4,0.1c1.3,1.3,3.1,1.8,4.7,1.6
									c1.6-0.2,2.7-1.1,3.4-2c0.7-0.9,0.9-1.8,1-2.4c0.1-0.6,0-0.9,0-0.9c0,0,0,0.3-0.1,0.9c-0.1,0.6-0.4,1.4-1.1,2.2
									c-0.6,0.8-1.8,1.6-3.2,1.8c-1.4,0.2-3.1-0.3-4.2-1.5l-0.4-0.4l-0.1,0.5c-0.2,1.1-0.8,2.3-1.8,3.2c-1,1-2.5,1.4-3.7,1.1
									c-1.3-0.2-2.3-1.1-2.7-2.1l-0.2-0.4l-0.3,0.4c-0.6,1-1.6,1.5-2.5,1.7c-0.9,0.2-1.8,0-2.4-0.2
									C208.2,116.3,207.8,115.5,207.8,115.6z"/>
							</g>
						</g>
					</g>
				</g>
				<g>
					<g>
						<g>
							<g>
								<path class="st11" d="M207.4,113.4c0.1,0-0.2-0.9,0.5-2.2c0.3-0.6,0.9-1.3,1.8-1.6c0.9-0.3,2-0.4,3,0.1l0.5,0.2l-0.1-0.5
									c-0.1-0.5-0.2-1.1-0.1-1.7c0.2-1.3,1-2.4,1.9-3c0.9-0.6,2.1-0.8,2.9-0.7c1.8,0.2,2.6,1,2.7,0.9c0,0-0.1-0.2-0.6-0.6
									c-0.4-0.3-1.1-0.6-2.1-0.8c-0.9-0.1-2.1,0-3.2,0.7c-1.1,0.7-1.9,1.9-2.2,3.3c-0.1,0.6-0.1,1.3,0.1,1.8l0.4-0.3
									c-1.1-0.5-2.4-0.4-3.4,0c-1,0.4-1.6,1.2-1.9,1.9c-0.3,0.7-0.4,1.3-0.3,1.7C207.3,113.2,207.4,113.4,207.4,113.4z"/>
							</g>
						</g>
					</g>
				</g>
				<g>
					<g>
						<g>
							<g>
								<path class="st11" d="M219.6,111.6c0.1,0-0.1-0.3-0.1-0.8c-0.1-0.5,0-1.1,0.3-1.8c0.3-0.6,0.6-1.3,0.9-1.7
									c0.2-0.3,0.6-0.2,0.6-0.2c0,0,0-0.1-0.2-0.2c-0.2-0.1-0.5-0.1-0.7,0.2c-0.2,0.2-0.4,0.5-0.6,0.8c-0.2,0.3-0.4,0.6-0.5,1
									c-0.3,0.7-0.4,1.5-0.2,2C219.3,111.4,219.5,111.6,219.6,111.6z"/>
							</g>
						</g>
					</g>
				</g>
				<g>
					<g>
						<g>
							<g>
								<path class="st11" d="M229.7,102.7c0.1,0-0.1-0.4-0.5-1c-0.2-0.3-0.6-0.6-1-0.7c-0.4-0.2-1.1-0.2-1.6-0.1
									c-1.1,0.3-1.7,1.2-2.1,1.8c-0.3,0.6-0.5,1-0.4,1c0.1,0,0.3-0.3,0.7-0.8c0.4-0.5,1-1.2,1.9-1.5c0.9-0.3,1.7,0.2,2.2,0.6
									C229.4,102.4,229.6,102.7,229.7,102.7z"/>
							</g>
						</g>
					</g>
				</g>
				<g>
					<g>
						<g>
							<g>
								<path class="st11" d="M230.6,127c0.1,0.1,1-1.6,1.4-3.9c0.4-2.3,0.2-4.2,0.1-4.1c-0.2,0-0.2,1.8-0.6,4.1
									C231.1,125.2,230.4,126.9,230.6,127z"/>
							</g>
						</g>
					</g>
				</g>
				<g>
					<g>
						<g>
							<g>
								<path class="st11" d="M228.3,128.7c0.1,0,0.6-1.2,1-2.8c0.4-1.6,0.4-2.9,0.2-2.9c-0.1,0-0.4,1.3-0.8,2.8
									C228.4,127.4,228.1,128.7,228.3,128.7z"/>
							</g>
						</g>
					</g>
				</g>
				<g>
					<g>
						<g>
							<g>
								<path class="st11" d="M212.3,131.7c-0.1,0,0,2.4,1.4,4.8c1.4,2.5,3.5,3.8,3.6,3.6c0.1-0.1-1.7-1.5-3.1-3.9
									C212.9,133.9,212.5,131.7,212.3,131.7z"/>
							</g>
						</g>
					</g>
				</g>
				<g>
					<g>
						<g>
							<g>
								<path class="st11" d="M209.1,128c-0.1,0-0.5,2.1,0.4,4.5c0.9,2.4,2.6,3.8,2.6,3.7c0.1-0.1-1.3-1.6-2.1-3.9
									C209.1,130.1,209.3,128,209.1,128z"/>
							</g>
						</g>
					</g>
				</g>
			</g>
		</g>
		<g>
			<polygon class="st12" points="211.3,157.2 211.5,152.4 235,147.4 235.8,151.4 			"/>
		</g>
		<g>
			<g>
				<path class="st10" d="M137.8,215.5c0,0-1.2,0.6-0.4,1.4c0.8,0.9,11.5,10.3,12.9,11.3c1.4,0.9,5.8,2.1,5.8,2.1l2.8-0.5l1.6-6.8
					l2-3.3l-0.5-0.8l1.9-7.3c0,0-1.6-0.7-2.4,0.5c-1.1,1.6-2.5,4.3-2.5,4.3s-2.9,0.4-4-0.8c-1.1-1.3-7.3-11.8-8.1-12
					c-0.8-0.2-1.9,0.1-1.3,1.7s4.6,7.6,4.4,7.9c-0.1,0.3-0.8,0.8-1.1,0.5c-0.3-0.3-6.6-8.7-7.6-8.8c-1.1-0.1-1.8,0.7-0.9,2.3
					c1,1.6,6.1,7.5,5.9,7.9c-0.2,0.4-0.9-0.1-0.9-0.1s-5.9-6.2-6.7-6.1c-0.9,0.1-1.1,1.1-0.6,1.8c0.5,0.8,6.5,6.6,6.6,7
					c0.1,0.3-0.2,1.5-0.7,1.1S138.3,215.1,137.8,215.5z"/>
			</g>
			<g>
				<path class="st4" d="M198.2,276.9l-1.2,80.7l-2.7,83.8l22.7,1.6l7.7-85.4l8.7-60.6l1.9-0.1l17.2,63.1l10.7,81
					c1.3-0.3,21.5-1.9,21.5-1.9l-14-163.9l-2.3-13.6l-59.9,1.3L198.2,276.9z"/>
			</g>
			<g>
				<g>
					<path class="st13" d="M265.5,233.5l-1.7-46.7l-2.9-32.2h-19.6l-5-4.9l-25.2,4.9l-2.3,7c0,0-20.2,6.4-21.3,8.4
						c0,0,7.1,28,10.4,43.7c2.3,10.8,4.7,21.8,4.7,21.8l-6.4,51.6c-0.2,0,38.9-1.7,38.9-1.7l37.8-4.1L265.5,233.5z"/>
				</g>
			</g>
			<g>
				<path class="st10" d="M285.9,139.9c0,0-5.8,0.4-6.1,0.4s-6.3,0.6-6.3,0.6s0.3-1.4,1.6-2c1.4-0.6,4-1.6,4.2-2
					c0.3-0.5,0.9-1.2,0.3-1.9c-0.5-0.8-10.5-10.8-10.8-11.4c-0.3-0.6-0.9-1.6,0-1.8s2,0.8,2.7,1.4s4.6,3.9,5,3.7s0.1-0.6,0.1-0.6
					s-6.6-6.8-6.6-7s-0.8-2.2,1-1.9c0.9,0.2,7.7,7.1,8,6.9s-5.7-8-5.2-8.6c0.5-0.6,1.2-1.2,2.2,0s5.8,7.5,6.1,7.6
					c0.3,0.1,0.8-0.3,0.6-0.8c-0.1-0.5-2.9-5.3-2.9-5.9c0-0.6,0.5-0.7,1.1-0.8c0.5-0.1,6.4,8.4,6.4,8.4s4.5,7.3,5,8.1
					c0.5,1,1.3,3.7,1.3,3.7L285.9,139.9z"/>
			</g>
			<g>
				<g>
					<path class="st13" d="M284.5,140.3l3.9,15.1l-9,3.4l-19.3-4.2v28.6l2.7,7.4c0,0,40.5-19.5,43.2-21.7c5-4-3-17.9-3-17.9
						l-7.4-15.8L284.5,140.3z"/>
				</g>
			</g>
			<g>
				<g>
					<path class="st13" d="M187.4,170l-4.5,9.1l-11.4,37.9l-12.8,3.4l-2.4,11.7c0,0,20,4.7,23.7,3.1c6.3-2.7,16.8-28.8,16.8-28.8
						l-1.4-22.3L187.4,170z"/>
				</g>
			</g>
			<g>
				<g>
					<path class="st4" d="M301.1,161.6c-0.1,0.1-2.4-2.3-6-4.1c-3.6-1.8-6.9-2.2-6.9-2.4c0-0.1,0.8-0.1,2.1,0.2s3.1,0.8,4.9,1.7
						c1.8,0.9,3.3,2.1,4.3,3C300.6,160.9,301.1,161.6,301.1,161.6z"/>
				</g>
			</g>
			<g>
				<g>
					<path class="st4" d="M297.3,155.3c0,0.2-2.2-0.6-4.9-0.4c-2.7,0.1-4.7,1.1-4.8,1c-0.1-0.1,1.9-1.4,4.8-1.5
						C295.2,154.2,297.3,155.2,297.3,155.3z"/>
				</g>
			</g>
			<g>
				<g>
					<path class="st4" d="M241.2,154.6c0,0-0.4,0.3-1.1,0.8c-0.4,0.2-0.8,0.5-1.4,0.8c-0.5,0.3-1.1,0.6-1.9,1
						c-1.4,0.7-3.1,1.4-5,2.1c-1.9,0.7-4.1,1.3-6.4,1.8c-4.6,1-8.9,1.4-11.9,1.5c-1.5,0.1-2.8,0.1-3.6,0s-1.3-0.1-1.3-0.1
						c0,0,0.5-0.1,1.3-0.1c0.9,0,2.1-0.1,3.6-0.2c3.1-0.2,7.3-0.7,11.8-1.7c2.3-0.5,4.4-1.1,6.3-1.8c1.9-0.7,3.6-1.3,5-1.9
						c0.7-0.3,1.3-0.6,1.9-0.9c0.6-0.3,1-0.5,1.4-0.7C240.8,154.8,241.2,154.5,241.2,154.6z"/>
				</g>
			</g>
			<g>
				<g>
					<path class="st4" d="M247.2,235.5c0,0-0.5,0.2-1.4,0.4c-0.9,0.2-2.3,0.4-4,0.7c-3.4,0.5-8.1,0.8-13.4,0.4
						c-5.2-0.4-9.9-1.4-13.2-2.4c-1.6-0.5-3-0.9-3.9-1.3c-0.9-0.3-1.4-0.6-1.4-0.6c0,0,0.5,0.1,1.4,0.4c0.9,0.3,2.2,0.7,3.9,1.1
						c3.3,0.9,7.9,1.8,13.1,2.2c5.2,0.4,9.9,0.2,13.3-0.2c1.7-0.2,3.1-0.4,4-0.5C246.6,235.5,247.2,235.4,247.2,235.5z"/>
				</g>
			</g>
			<g>
				<g>
					<path class="st4" d="M170.7,220.4c-0.1,0,1.3-5.3,3.1-11.7c1.9-6.4,3.5-11.6,3.6-11.5c0.1,0-1.3,5.3-3.1,11.7
						C172.5,215.3,170.9,220.4,170.7,220.4z"/>
				</g>
			</g>
			<g>
				<g>
					<path class="st4" d="M232.1,250.6c0.1,0,0.4,5.8,0.6,13c0.2,7.2,0.2,13,0.1,13c-0.1,0-0.4-5.8-0.6-13
						C232,256.4,231.9,250.6,232.1,250.6z"/>
				</g>
			</g>
			<g>
				<g>
					<path class="st11" d="M246.4,294.8c0,0.1-5.1,1.2-11.4,2.4c-6.3,1.1-11.4,2-11.4,1.8c0-0.1,5.1-1.2,11.4-2.4
						C241.3,295.5,246.4,294.7,246.4,294.8z"/>
				</g>
			</g>
			<g>
				<g>
					<path class="st11" d="M269.5,356c0,0.2-3,0-6.5,0.9c-3.5,0.9-6.1,2.4-6.2,2.3c0,0,0.6-0.5,1.6-1.1s2.6-1.2,4.4-1.7
						s3.5-0.6,4.7-0.5C268.8,355.9,269.5,356,269.5,356z"/>
				</g>
			</g>
			<g>
				<g>
					<path class="st11" d="M214.8,360c0,0.1-1.9-0.2-4.2-0.1c-2.3,0.1-4.1,0.6-4.2,0.5c-0.1-0.1,1.8-0.9,4.1-1
						C212.9,359.2,214.8,359.9,214.8,360z"/>
				</g>
			</g>
		</g>
		<g>
			<g>
				<path class="st4" d="M202.5,235.4c0,0-0.1-0.2-0.2-0.5c-0.1-0.4-0.2-0.9-0.4-1.5c-0.3-1.4-0.8-3.2-1.3-5.5
					c-1.1-4.7-2.5-11.1-4.1-18.1c-1.6-7.1-3-13.4-4.1-18.1c-0.5-2.3-0.9-4.1-1.2-5.5c-0.1-0.6-0.2-1.1-0.3-1.5
					c-0.1-0.3-0.1-0.5-0.1-0.5c0,0,0.1,0.2,0.2,0.5c0.1,0.4,0.2,0.9,0.4,1.5c0.4,1.3,0.8,3.1,1.4,5.5c1.1,4.6,2.6,11,4.2,18.1
					s3,13.5,3.9,18.2c0.5,2.3,0.8,4.1,1.1,5.5c0.1,0.6,0.2,1.1,0.3,1.5C202.5,235.2,202.5,235.4,202.5,235.4z"/>
			</g>
		</g>
		<g>
			<g>
				<path class="st4" d="M262.8,170.7c0,0,0,0.1,0,0.3c0,0.2,0,0.5,0.1,0.8c0.1,0.7,0.1,1.8,0.2,3.2c0.2,2.8,0.4,6.9,0.7,11.9
					c0.5,10,1.1,23.9,1.7,39.2c0.1,2.5,0.2,4.9,0.3,7.2v0c2,13.5,3.9,25.4,5.2,34c0.6,4.3,1.1,7.7,1.5,10.1c0.2,1.2,0.3,2.1,0.4,2.7
					c0,0.3,0.1,0.5,0.1,0.7c0,0.2,0,0.2,0,0.2c0,0,0-0.1-0.1-0.2c0-0.2-0.1-0.4-0.1-0.7c-0.1-0.7-0.3-1.6-0.5-2.7
					c-0.4-2.4-0.9-5.8-1.6-10.1c-1.4-8.6-3.2-20.5-5.3-34v0v0c-0.1-2.3-0.2-4.7-0.3-7.2C263.8,196,262.9,173.6,262.8,170.7z"/>
			</g>
		</g>
		<g class="st9">
			<g>
				<path d="M238.6,156.3c-9.5,3.8-18.8,6.2-28.9,6.2c1.3,1.4,3.3,2.1,5.3,2.3c2,0.2,4-0.1,5.9-0.5c4.9-0.9,9.8-2.3,14.4-4.1
					C237,159.7,238.9,157.9,238.6,156.3z"/>
			</g>
		</g>
		<g class="st9">
			<g>
				<path d="M191.5,185.8c0.2,3.6-0.2,8,0.5,11.6c0.8,3.6,2.2,7.1,4.6,9.8C194.8,200.3,193.3,192.8,191.5,185.8z"/>
			</g>
		</g>
		<g class="st9">
			<g>
				<path d="M220.9,240.7l-0.3-0.1c3.1,3.5,8.1,3.8,12.8,3.9s9.7-0.3,12.8-3.7C237.8,242.5,229.2,242.4,220.9,240.7z"/>
			</g>
		</g>
	</g>
	<g>
		<g>
			<g>
				<g>
					<g>
						<g>
							<path class="st12" d="M193.8,142.8l-11-2.5c-3.1,3.5-7.2,6.3-12,7.7c-13.9,4.2-28.6-3.6-32.8-17.5s3.6-28.6,17.5-32.8
								c13.9-4.2,28.6,3.6,32.8,17.5c1.8,5.8,1.4,11.7-0.6,17l0,0L193.8,142.8z"/>
						</g>
					</g>
				</g>
				<g>
					<g>
						<g>
							<g>
								<path class="st4" d="M193.8,142.8c-0.4-0.6-2.2-3.9-6.1-10.6c0-0.1-0.1-0.1-0.1,0c0,0,0,0,0,0l0,0l0.2,0.1
									c1.4-3.5,2.3-8.3,1.4-13.6c-0.2-1.3-0.5-2.7-1-4c-0.2-0.7-0.5-1.4-0.8-2.1c-0.3-0.7-0.6-1.3-1-2c-1.4-2.7-3.4-5.3-5.9-7.5
									c-2.5-2.2-5.6-4-9-5.2c-3.4-1.2-7.2-1.7-11-1.3c-3.8,0.4-7.7,1.6-11.1,3.7c-3.4,2.1-6.5,5-8.7,8.6c-2.2,3.6-3.7,7.7-4,11.8
									c-0.3,4.1,0.3,8.2,1.7,11.8c1.4,3.6,3.6,6.9,6.2,9.4c2.6,2.6,5.7,4.4,8.9,5.7c3.2,1.2,6.4,1.8,9.5,1.8
									c3.1,0,5.9-0.6,8.5-1.4c5.1-1.7,8.9-4.8,11.3-7.6l-0.1,0C189.8,142,193.2,142.7,193.8,142.8c-0.7-0.1-4-0.9-11-2.6
									c0,0-0.1,0-0.1,0c-2.4,2.7-6.2,5.7-11.3,7.4c-2.6,0.8-5.4,1.4-8.4,1.4c-3,0-6.2-0.6-9.3-1.8c-3.1-1.2-6.1-3.1-8.7-5.6
									c-2.6-2.5-4.7-5.7-6.1-9.3c-1.4-3.6-2-7.6-1.7-11.6c0.3-4,1.7-8.1,3.9-11.6c2.1-3.5,5.2-6.4,8.6-8.4
									c3.4-2.1,7.2-3.3,10.9-3.7c3.8-0.4,7.5,0.1,10.9,1.3c3.4,1.1,6.4,2.9,8.9,5.1c2.5,2.2,4.4,4.7,5.9,7.3c0.3,0.7,0.6,1.3,1,2
									c0.3,0.7,0.5,1.4,0.8,2c0.5,1.3,0.8,2.7,1,4c0.9,5.3,0,10-1.3,13.5c0,0.1,0,0.1,0.1,0.1c0,0,0.1,0,0.1,0l0,0l-0.2,0
									C191.5,139,193.5,142.2,193.8,142.8z"/>
							</g>
						</g>
					</g>
				</g>
			</g>
		</g>
		<g>
			<g>
				<g>
					<g>
						<g>
							<g>
								<g>
									<g>
										<polygon class="st7" points="148.6,123.5 152.4,119.7 159.7,126.2 173.9,112.5 177.4,116.2 159.1,133.5 										"/>
									</g>
								</g>
							</g>
						</g>
					</g>
				</g>
			</g>
		</g>
	</g>
</g>
</svg>
