<?xml version="1.0" encoding="UTF-8"?><svg id="a" xmlns="http://www.w3.org/2000/svg" viewBox="0 0 455.58 455.8"><path d="M173.89,455.8H0v-173.86H158.61v-38.97h14.58c0,5.42,0,10.68,0,15.95,0,6,.27,12.01-.07,17.99-.24,4.32,.98,5.87,5.53,5.71,9.49-.34,18.99-.1,28.49-.1,1.79,0,3.57,0,5.63,0v14.48h-38.89v158.81Zm-87.61-14.23v.07c22.33,0,44.66-.12,66.98,.1,4.55,.04,5.95-1.19,5.93-5.84-.15-44.32-.14-88.65,.06-132.97,.02-4.95-1.16-6.51-6.34-6.49-44.32,.21-88.65,.18-132.97,.02-4.5-.02-5.94,1.11-5.92,5.79,.17,44.66,.18,89.32,0,133.97-.02,4.65,1.61,5.46,5.77,5.42,22.16-.18,44.32-.08,66.49-.08Z" fill="#414042"/><path d="M354.35,89.81c-5.64-4.96-11.46-10.08-18.35-16.15,21.65-5.78,41.62-11.1,62.76-16.75-5.56,20.93-10.86,40.91-16.54,62.28-5.8-6.61-10.98-12.52-15.94-18.18-35.82,35.85-70.26,70.32-105.46,105.55,5.35,4.75,11.23,9.97,17.12,15.19-.36,.62-.73,1.24-1.09,1.86-19.97,5.32-39.94,10.65-60.99,16.26,5.55-20.88,10.85-40.87,16.45-61.93,6.18,6.03,11.8,11.51,17.21,16.78,34.74-34.76,69.19-69.24,104.85-104.93Z" fill="#1c75bc"/><path d="M158.85,0h53.76V13.87c-2.22,.13-4.46,.38-6.7,.36-9.29-.07-18.58-.12-27.87-.38-3.68-.1-5.14,.66-4.98,4.97,.44,11.57,.15,23.16,.15,34.9h-14.36V0Z" fill="#414042"/><path d="M455.51,53.96h-13.78c-.1-1.73-.28-3.47-.29-5.21-.03-9.98-.13-19.97,.05-29.95,.06-3.44-1.01-4.65-4.53-4.58-9.81,.2-19.63,.07-29.45,.06-1.79,0-3.57,0-5.7,0V.16h53.7V53.96Z" fill="#414042"/><path d="M402.06,296.63c-2.27-13.98-2.16-14.12,10.99-14.12,7.99,0,15.98-.16,23.96,.06,3.58,.1,4.55-1.23,4.48-4.62-.18-9.46-.08-18.92-.09-28.38,0-2.11,0-4.22,0-6.64h14.17v53.69h-53.51Z" fill="#414042"/><path d="M276.1,13.84V.06h62.3V13.84h-62.3Z" fill="#414042"/><path d="M159.13,117.28q14.05-1.39,14.06,11.93c0,14.82,0,29.64,0,44.46,0,1.82,0,3.63,0,5.84h-14.06v-62.24Z" fill="#414042"/><path d="M441.9,117.17h13.65v62.36h-13.65v-62.36Z" fill="#414042"/><path d="M276.01,296.68v-13.71h62.45v13.71h-62.45Z" fill="#414042"/></svg>