<?xml version="1.0" encoding="utf-8"?>
<!-- Generator: Adobe Illustrator 26.3.1, SVG Export Plug-In . SVG Version: 6.00 Build 0)  -->
<svg version="1.1" id="Layer_1" xmlns="http://www.w3.org/2000/svg" xmlns:xlink="http://www.w3.org/1999/xlink" x="0px" y="0px"
	 viewBox="0 0 663.2 500.2" style="enable-background:new 0 0 663.2 500.2;" xml:space="preserve">
<style type="text/css">
	.st0{fill:none;stroke:#252A33;stroke-width:7;stroke-miterlimit:10;}
	.st1{fill:#9BB8D8;}
	.st2{fill:#FEB92F;}
	.st3{fill:#020237;}
	.st4{fill:#8BEFEC;}
	.st5{fill:#0E5BA8;}
	.st6{fill:#26C4CD;}
	.st7{fill:#DBE9F7;}
	.st8{fill:#DDE8F9;}
	.st9{fill:#FEBF45;}
	.st10{fill:#00033A;}
	.st11{fill:#BFD3F3;}
	.st12{fill:#422C6E;}
	.st13{fill:#0A1A60;}
	.st14{fill:#252A33;}
	.st15{fill:#66192D;}
	.st16{fill:#F37021;}
	.st17{fill:#FDAD9B;}
	.st18{fill:#020202;}
	.st19{fill:#FFFFFF;}
	.st20{fill:#E9633E;}
	.st21{fill:#080435;}
	.st22{fill:#F18C7E;}
	.st23{fill:#5C305D;}
	.st24{fill:#FF443C;}
	.st25{fill:#EC865C;}
	.st26{opacity:0.3;}
	.st27{fill:#E9845C;}
	.st28{fill:#DAEBE8;}
	.st29{fill:#4F1A44;}
	.st30{fill:#96B5E3;}
	.st31{fill:#FDB32F;}
	.st32{fill:#FFB41D;}
	.st33{fill:#8BACD3;}
	.st34{fill:none;stroke:#FFFFFF;stroke-width:2;stroke-miterlimit:10;}
	.st35{fill:none;stroke:#58595B;stroke-width:2;stroke-miterlimit:10;}
	.st36{fill:none;stroke:#00A79D;stroke-width:2;stroke-miterlimit:10;}
	.st37{fill:none;stroke:#231F20;stroke-width:2;stroke-miterlimit:10;}
	.st38{fill:none;stroke:#414042;stroke-width:2;stroke-miterlimit:10;}
	.st39{fill:none;stroke:#D1D3D4;stroke-width:2;stroke-miterlimit:10;}
	.st40{fill:none;stroke:#BCBEC0;stroke-width:2;stroke-miterlimit:10;}
</style>
<g>
	<path class="st0" d="M313.5,57.5l9.7-6.6c0,0,8.9-4.8,16.9,9.2c10.5,15.6,20.2,34.5,25.8,70.2c6.6,29.6,10.5,43.4,10.5,43.4
		s0.8,21.7,30.9,25.3c29.9-0.8,144.8,0,144.8,0s22.2-2,30.1,22c4.8,18.6,9.6,42.1,11.2,50.1c0.6,2.9,0.3,6-1.1,8.7
		c-1.8,3.4-5.4,6.7-12.8,5.2"/>
	<g>
		<polygon class="st1" points="91.5,60 91.8,64.4 100.4,55.4 96.3,54.7 		"/>
		<polygon class="st2" points="91.8,64.4 90.4,66 95.1,71.5 107.4,59 101.8,54.1 		"/>
		<polygon class="st3" points="96.6,69.9 95.2,71.5 104.1,80.6 116.9,67.8 107.4,58.9 		"/>
	</g>
	<g>
		<polygon class="st1" points="311.7,54.6 307.3,54.5 315.6,63.9 316.6,59.8 		"/>
		<polygon class="st2" points="307.3,54.5 305.8,53.1 300,57.3 311.4,70.5 316.8,65.3 		"/>
		<polygon class="st3" points="301.4,58.9 299.9,57.4 290.1,65.6 301.9,79.3 311.5,70.5 		"/>
	</g>
	<path class="st4" d="M580.9,342.4h-197c-1.6,0-3-1.2-3.3-2.8l-18.9-112.2c-0.3-2,1.2-3.9,3.3-3.9h189.4c1.5,0,2.9,1.1,3.2,2.6
		l26.5,112.2C584.6,340.4,583.1,342.4,580.9,342.4z"/>
	<path class="st5" d="M377,223.6H365c-2.1,0-3.6,1.8-3.3,3.9l18.9,112.2c0.3,1.6,1.6,2.8,3.3,2.8h20.5L377,223.6z"/>
	<path class="st5" d="M585.2,338.2L558.8,226c-0.3-1.5-1.7-2.6-3.2-2.6h-48.3l25.6,118.8H582C584.1,342.3,585.7,340.3,585.2,338.2z"
		/>
	<path class="st6" d="M363.2,236l196.5-1.4l-2-8.6c-0.4-1.5-1.7-2.6-3.2-2.6H365c-2,0-3.6,1.8-3.3,3.9L363.2,236z"/>
	<g>
		<path class="st7" d="M166,268.2h203c0,0,46.5-0.3,87.1,0c16.9-1,16.1,11.5,16.1,11.5s33.5,142.7,40.3,178.5
			c5.4,30.1,19.4,31.7,19.4,31.7L368.9,491c0,0-143-0.2-147.1,0c-2.7,0.1-5.3-1.1-7.7-2.4c0,0-12.1-3.6-14-19.6
			c-4-17.2-38-165-42.8-186c-0.4-1.6-0.6-3.3-0.6-5C156.8,278,156.4,268.8,166,268.2z"/>
		<path class="st6" d="M493.3,475.5H224.4c-5,0-9-3.8-9.4-8.7c0-0.5-0.1-1-0.2-1.5l-40.4-172.4c-0.7-3.1,0-6.4,2.3-8.7
			c1.7-1.7,4.1-2.8,6.7-2.8h265.9c5,0,9,3.8,9.4,8.7c0,0.5,0.1,1,0.2,1.5l43.3,172.2c1,4.2-0.7,8.7-4.5,10.6
			C496.3,475.1,494.9,475.5,493.3,475.5z"/>
		<path class="st8" d="M478.8,463.6H233.6c-4.6,0-8.3-3.5-8.7-8c0-0.5-0.1-0.9-0.2-1.4l-37.1-151.5c-0.7-2.8,0.1-5.9,2.1-8
			c1.6-1.6,3.8-2.5,6.2-2.5h242.5c4.6,0,8.3,3.5,8.7,8c0,0.5,0.1,0.9,0.2,1.4l39.8,151.3c1,3.8-0.7,8-4.2,9.8
			C481.6,463.3,480.2,463.6,478.8,463.6z"/>
		<path class="st9" d="M233.5,450.3l-8.8-39.4c-0.4-1.7,0.9-3.3,2.6-3.3h15.2c1.2,0,2.3,0.9,2.6,2.1l9.6,40.6L233.5,450.3
			L233.5,450.3z"/>
		<path class="st5" d="M257.8,450.3l-22.9-98.4c-0.4-1.7,0.9-3.3,2.6-3.3h15.2c1.2,0,2.3,0.9,2.6,2.1l23.6,99.6L257.8,450.3
			L257.8,450.3z"/>
		<path class="st5" d="M306.7,450.6l-25.2-109.1c-0.4-1.7,0.9-3.3,2.6-3.3h15.2c1.2,0,2.3,0.9,2.6,2.1l25.9,110.3H306.7z"/>
		<path class="st5" d="M355.9,450.3l-17.5-77.9c-0.4-1.7,0.9-3.3,2.6-3.3h15.2c1.2,0,2.3,0.9,2.6,2.1l18.3,79.1L355.9,450.3
			L355.9,450.3z"/>
		<path class="st5" d="M404.4,450.3l-8.7-37.3c-0.4-1.7,0.9-3.3,2.6-3.3h15.2c1.2,0,2.3,0.9,2.6,2.1l9.5,38.5H404.4z"/>
		<path class="st5" d="M453.1,450.3L432,358.4c-0.4-1.7,0.9-3.3,2.6-3.3h15.2c1.2,0,2.3,0.9,2.6,2.1l21.9,93.1L453.1,450.3
			L453.1,450.3z"/>
		<path class="st9" d="M282.3,450.3l-12.8-55.4c-0.4-1.7,0.9-3.3,2.6-3.3h15.2c1.2,0,2.3,0.8,2.6,2l13.6,56.6H282.3z"/>
		<path class="st9" d="M331,450.3l-31.7-136.6c-0.4-1.7,0.9-3.3,2.6-3.3h15.2c1.2,0,2.3,0.8,2.6,2l32.5,137.8L331,450.3L331,450.3z"
			/>
		<path class="st9" d="M380.1,450.3l-26.4-116.4c-0.4-1.7,0.9-3.3,2.6-3.3h15.2c1.2,0,2.3,0.8,2.6,2l27.2,117.6H380.1z"/>
		<path class="st9" d="M429.3,450.3L415,388.2c-0.4-1.7,0.9-3.3,2.6-3.3h15.2c1.2,0,2.3,0.8,2.6,2l15.1,63.3H429.3z"/>
		<rect x="233.6" y="450.6" class="st10" width="241.4" height="2.4"/>
		<path class="st11" d="M158.5,272.1L146.8,284c0,0-1.7,2.2,0,10.5c3.1,14.5,42.9,185.5,42.9,185.5s4.6,17.9,24.5,20.1
			c17.9,0.2,440.9,0,440.9,0s2.7,0.6,2.9-1.7c-0.3-2.7,0-6.4,0-6.4s0.1-2.3-3-2c-3.9,0.2-431.7,0-431.7,0s-14.5,2.3-22.4-16.7
			c-2.7-12.3-43.2-188.4-43.2-188.4S154.7,275.2,158.5,272.1z"/>
		<path class="st12" d="M158.5,272.1L146.8,284c0,0-1.7,2.2,0,10.5c3.1,14.5,42.9,185.5,42.9,185.5s4.6,17.9,24.5,20.1
			c17.9,0.2,153.8,0,153.8,0s2.7,0.6,2.9-1.7c-0.3-2.7,0-6.4,0-6.4s0.1-2.3-3-2c-3.9,0.2-144.5,0-144.5,0s-14.5,2.3-22.4-16.7
			c-2.7-12.3-43.2-188.4-43.2-188.4S154.7,275.2,158.5,272.1z"/>
	</g>
	<g>
		<path class="st6" d="M268.6,203.2c-3.5-9.2-2.9-17.8,2.6-26.6c7.5-11.8,12.6-24.8,16.7-38.2c8.2-26.2,9.7-52.3-0.7-78.2
			c-7.4-18.6-19.4-33.3-37.8-42.1c-20.2-9.6-41.3-12.4-63.2-7.3c-36.5,8.5-61.5,29.6-71.3,66.7c-2.2,8.1-2.9,16.3-0.8,24.9
			c2.4-1.4,4.3-2.8,6.5-3.9c5.9-3,11.9-5.4,18.7-3.2c2.4,0.8,3.8,2.2,3.4,4.7c-0.4,2.6-2.4,3.6-4.8,3.2c-6.5-1.3-11.7,1.6-17,4.6
			c-3.5,2-4.9,4.3-3.9,8.6c2.2,9.2,0.7,18.1-4.3,26.2c-3,4.9-6.1,9.7-9.1,14.7c-2.6,4.3-2.2,5.1,2.6,6c8.1,1.6,11.4,5.4,11.7,13.6
			c0.1,2.2,0.2,4.5,0.4,6.7c0.3-0.3,0.6-0.6,0.9-0.9c2.2,1.2,5.3,1.8,6.4,3.7c2.1,3.5-2.1,4.9-4,7c8.6,3.6,9.6,5.3,8.5,14.8
			c-0.1,0.8-0.2,1.5-0.2,2.3c-0.4,7.6,2.2,10.7,9.8,10.7c5.1,0,10.3-0.4,15.2-1.5c18.8-3.9,37.6-8.2,52.1-22.3c1-1,4.3-1.1,5.3-0.2
			c1,0.9,1.2,3.8,0.5,5.3c-0.9,2-2.8,3.7-4.7,4.9c-5.4,3.4-10.9,6.6-16.5,9.7c-1.8,1-3.8,1.8-5.3,2.6l-4,1.8c-2.2,1-4.5,1.7-6.9,2.2
			c-8.5,1.8-16.1,3.6-23.9,4.8c-6.9,1-13.9,2.1-20.8-1.1c-6.6-3.1-9.7-8-9.1-15.3c0.3-3.2,0.4-6.4,0.6-9.6c-1.3-0.5-2.6-0.6-3.4-1.3
			c-2-1.6-4.8-3.1-5.3-5.1c-1.7-6.1-2.8-12.4-3.6-18.7c-0.4-3.7-1.2-5.8-5.4-6.3c-9.5-1.2-13.1-8.3-8.6-16.6
			c2.9-5.3,6.1-10.4,9.4-15.4c4.9-7.5,5.2-15.6,3.4-24c-1.1-5.1-2.7-10.2-3.3-15.4c-2.3-18.5,3-35.3,12.4-50.8
			c16.1-26.7,40.6-41.6,70.8-47.3c20.9-4,41.3-1.4,60.8,7.2c24.9,10.9,39.9,30.4,48.1,55.7c8.7,27.1,6.2,53.9-3.2,80.2
			c-4.5,12.5-10.2,24.5-16.2,36.3c-3.2,6.2-4.5,11.9-2,18.2L268.6,203.2z"/>
		<path class="st6" d="M264.8,98.6c-10.4,3.8-10.3,3.9-3.7,12.4c1.6,2.1,3.9,4,6.2,5.3c5.6,3.1,8.2,9.7,5.8,15.7
			c-2.4,5.9-9.1,9.1-15.2,6.8c-2.2-0.9-3.6-0.4-5.1,0.9c-3.6,3.2-7.4,5.8-9.6,10.6c-2.7,5.8-10.4,7.3-16,4.2
			c-5.7-3.1-8.2-10.4-4.9-16.2c1.5-2.6,0.9-4.1-0.5-6.1c-3.4-5-6.5-10.1-10-15c-0.8-1.1-2.5-2.1-3.9-2.2c-4.4-0.3-7.4-2.4-9.9-5.7
			c-0.8-1.1-2.4-2.1-3.7-2.2c-5.5-0.2-11-0.2-16.5,0c-1.3,0.1-3.1,1-3.9,2.1c-4.2,5.9-11.4,7.6-17.2,3.9c-5.7-3.7-7.1-11-3.5-17.3
			c0.7-1.2,0.7-3.1,0.4-4.5c-0.7-2.6-2-5-3-7.5c-1.2-3.4-2.7-6.2-6.3-8c-4.2-2.1-5.8-6.4-5.4-11.1c0.5-4.7,2.8-8.3,7.2-10
			c5.3-2.1,6.9-7.3,10.1-11.1c0.4-0.5-0.2-1.9-0.5-2.8c-1.5-5.1,0.1-10.2,4.1-13.4c4.1-3.1,9.7-3.5,14-0.5c2,1.4,3.6,2,5.9,1.2
			c1.9-0.7,4-0.9,6-1.1c3.9-0.4,6.8-1.8,9.2-5.5c4.2-6.4,14.6-6.4,18.7,0.1c2.4,3.7,5.1,5.1,9,5.9c3.1,0.7,5.8,1.2,8.9-0.9
			c4.1-2.7,8.6-2.1,12.6,0.7c4,2.8,5.7,6.8,5,11.7c-0.5,3.8,4.8,8.4,8.5,7.3c5.1-1.6,10.4-0.2,13.6,3.7c3.4,4.2,3.6,9.4,0.9,14.3
			c-0.7,1.3-0.5,3.2-0.2,4.7c0.4,1.7,1.6,3.2,2.3,4.8c1.2,2.8,2.7,4.8,5.7,6.2c6.2,3.1,8.1,11,4.5,16.9c-3.6,5.9-11.3,7.7-17.1,3.9
			C266.6,100.1,265.8,99.4,264.8,98.6z M233.9,103.5c-4,0.8-8,1.5-12,2.4c-2.9,0.7-4.4,4.7-2.8,7.2c3.6,5.6,7.2,11.1,10.9,16.6
			c0.6,0.8,1.7,1.4,2.7,1.7c3.7,1.3,7.4,2.5,11.1,3.8c0.1,0.5,0.2,1.1,0.3,1.6c1.9-2.3,5.4-4.6,5.5-6.9c0.1-5.4,1.2-9.8,5.6-13.1
			c-1.4-1.9-2.5-3.6-3.8-5.2c-0.6-0.7-1.7-1.5-2.3-1.4C242.1,112.2,237.5,109.1,233.9,103.5z M212,39c6.6,5,10.6,12.9,18.9,16.2
			c1.7,0.7,2.9,2.8,4.5,4c0.8,0.6,1.9,1.4,2.7,1.3c3.9-0.7,7.7-1.6,11.4-2.4c0.1-0.9,0.2-1.4,0.3-1.9c0.5-4.7-4.6-8.9-9.2-7.5
			c-6.8,2.2-14-2.4-15.4-9.8c-0.2-1.1-0.7-2.6-1.5-3.1C218.8,33.3,215.8,34.1,212,39z M183.7,75.6c-1.6-5.4-5.2-6-9.7-5.7
			c-3,0.3-6.1,0-9.2,0.1c-0.9,0-2.1,0.3-2.7,1c-1.9,2-3.5,4.2-5.3,6.4c1.4,3.4,2.8,7,4.3,10.5c1.3,3.1,3.2,3.7,5.8,1.6
			C172.7,84.9,178.2,80.2,183.7,75.6z M193.2,78.4c-6.7,5.6-13.3,11.1-19.7,16.4c0.4,2.9,1.9,3.8,4.5,3.7c5-0.2,10,0,15-0.1
			c5.7,0,7.7-3.2,5.4-8.5C196.7,86.3,195,82.5,193.2,78.4z M158.4,54.7c2.3,6.8,7.3,7.7,13.1,6.9c1.4-0.2,2.8-0.2,4.2,0
			c3.9,0.6,6.2-1,7.2-5c-3-1.9-5.9-4.4-9.2-5.8c-3.3-1.3-7-1.5-10.5-2c-0.4-0.1-1,0.7-1.4,1.2C160.6,51.7,159.4,53.5,158.4,54.7z
			 M218.5,76.6c-3.4-2.8-4.7-7.7-10.7-6.8c-5.9,0.8-7.9,3.3-5.4,8.9c1.3,3,2.6,6.1,4.1,9c0.5,1,1.5,2.4,2.4,2.5c0.8,0.1,2.2-1,2.7-2
			C213.9,84.6,216,80.8,218.5,76.6z M190.8,51.8c2.6-4.3,4.9-8.2,7.2-12c-6.2-6.4-6.2-6.3-15.4-4.1c-4.7,1.1-2.1,5.6-4.7,7.9
			C182.3,46.4,186.4,49,190.8,51.8z M253.8,66.5c-10.7-0.7-18.1,2.7-20.2,9.2c4,3.2,8.1,6.4,12.5,9.9
			C248.7,79.1,251.2,73,253.8,66.5z M216.8,56.2c-3.9-4-7.7-8-11.7-12.2c-1.2,1.9-2.3,3.7-3.4,5.6c-1.1,1.8-2.2,3.7-3.4,5.8
			c3.9,1.3,3.8,6.7,9.2,6.6C212.5,61.9,214.8,59.6,216.8,56.2z M226,80.2c-2.7,4.5-5.5,8.6-7.6,13c-0.4,0.9,1.9,4.4,2.3,4.3
			c5.9-1.7,13.8,0.3,16.1-8.7C233.4,86.1,229.9,83.2,226,80.2z M257.1,93.2c1.6-1.1,3.8-1.9,4.7-3.4c2.1-3.4,3.6-7.2,5.7-11.7
			c-0.7-1.3-1.9-3.8-3.2-6.3c-0.4-0.7-1.4-1.8-1.7-1.6c-0.8,0.3-1.7,1.1-2,1.9c-1.9,4.5-3.4,9.1-5.5,13.5
			C253.6,88.5,253.8,90.7,257.1,93.2z M278.7,91.3c0-0.6,0-1.2,0-1.8c-1.6-1.1-3.2-3-4.8-2.9c-1.4,0.1-3.6,2.4-3.6,3.7
			c0,1.3,2.1,3.7,3.5,3.8C275.4,94.2,277.1,92.4,278.7,91.3z M214.1,102.7c-2.4-1.8-3.8-3.6-5.4-3.9c-2.4-0.4-4.2,1.4-4.2,3.9
			c0,2.5,1.8,4.3,4.2,4C210.3,106.4,211.7,104.5,214.1,102.7z M261.8,121.6c-1.9,2.6-3.6,3.9-3.9,5.5c-0.5,2.5,1.4,4.1,3.8,4.2
			c2.4,0,4.3-1.6,3.9-4.1C265.3,125.5,263.7,124.2,261.8,121.6z M155.8,66.5c0-0.6,0-1.2,0-1.8c-1.6-1-3.4-2.8-4.9-2.7
			c-1.3,0.1-3.5,2.5-3.4,3.9c0.1,1.4,2.3,3.7,3.6,3.7C152.6,69.6,154.2,67.7,155.8,66.5z M163.7,108.4c1.7-2.8,3.5-4.5,3.4-6.1
			c-0.1-1.4-2.4-3.4-3.9-3.6c-2.3-0.3-4.2,1.8-3.7,4.2C159.9,104.6,161.7,105.9,163.7,108.4z M224,70.4c0.5,0,1.1,0,1.6,0
			c1.1-1.5,2.9-2.8,3.2-4.4c0.5-2.5-1.4-4.5-3.7-4.1c-1.5,0.2-3.8,2.2-3.9,3.6C221,67.1,222.9,68.8,224,70.4z M232.4,148.3
			c0.5,0,1.1,0,1.7,0c1-1.6,3-3.3,2.9-4.9c-0.1-1.4-2.4-3.4-3.9-3.6c-2.3-0.3-4.3,1.6-3.7,4.1C229.6,145.5,231.3,146.9,232.4,148.3z
			 M166.5,41.6c0.6,0,1.2,0,1.8,0c1.1-1.4,2.7-2.7,3.1-4.3c0.5-2.4-1.1-4.1-3.7-4.2c-2.6-0.1-4.3,1.5-3.9,4
			C163.9,38.7,165.5,40.1,166.5,41.6z M262.5,52.9c-0.6,0-1.1,0-1.7,0c-1,1.5-2.7,2.9-2.9,4.6c-0.4,2.5,1.5,4.4,3.9,3.9
			c1.5-0.3,3.6-2.4,3.6-3.8C265.6,56.1,263.6,54.5,262.5,52.9z M187.6,65c0,0.6,0,1.2,0,1.8c1.5,1,2.9,2.7,4.5,2.9
			c2.4,0.3,4.4-1.6,3.8-4c-0.4-1.5-2.4-3.6-3.7-3.7C190.7,62,189.1,63.9,187.6,65z M244.4,103.1c0.6,0,1.1,0,1.7,0
			c1.1-1.4,2.8-2.7,3.1-4.3c0.4-2.3-1.1-4.2-3.7-4.2c-2.5,0-4.3,1.6-4,4C241.7,100.2,243.4,101.6,244.4,103.1z M208.9,29.8
			c0-0.6,0-1.1,0-1.7c-1.4-1.1-2.7-2.8-4.3-3.1c-2.4-0.4-4.1,1.2-4.1,3.8c-0.1,2.6,1.6,4.3,4,3.9C206.1,32.5,207.4,30.8,208.9,29.8z
			 M236.4,41.6c0.6,0,1.2,0,1.8,0c1-1.5,2.6-2.9,2.8-4.5c0.3-2.5-1.7-4.4-4.1-3.8c-1.5,0.4-3.3,2.5-3.4,4
			C233.4,38.6,235.4,40.2,236.4,41.6z"/>
		<g>
			<path class="st5" d="M194.7,169.8c-1.1,1-2.4,3-4.1,3.7c-2.6,1-4.8-0.2-6.1-2.9c-0.9-1.8-1.7-4.8-2.9-5c-4.2-0.6-8.6-0.4-12.8,0
				c-0.8,0.1-1.6,2.4-2.1,3.7c-1.7,3.9-4.3,5.6-7.3,4.1c-3.4-1.6-3.8-4.4-2.5-7.7c4.3-11.1,8.3-22.3,12.8-33.2
				c0.8-1.9,3.5-4,5.4-4.1c1.9-0.1,5,1.8,5.7,3.6c4.8,11.6,9.1,23.4,13.5,35.2C194.4,167.7,194.4,168.2,194.7,169.8z M172.5,154.3
				c2,0,3.7,0,5.8,0c-1-2.5-1.8-4.6-2.9-7.6C174.1,149.9,173.3,152,172.5,154.3z"/>
			<path class="st5" d="M211.3,151.2c0,5.5,0,11.1,0,16.7c0,3.4-1.4,5.7-4.9,6c-3.2,0.3-5.3-2-5.3-6c-0.1-11.2-0.1-22.5,0-33.7
				c0-4,2.1-6.3,5.3-6c3.5,0.3,5,2.5,4.9,6C211.2,139.8,211.3,145.5,211.3,151.2z"/>
		</g>
	</g>
	<g>
		<g>
			<path class="st13" d="M43.9,482.8c0,0,0.1,4,2.8,5.1s10.6,2.1,7.6,4.7c-1.7,1.5-9.6,0.5-11.8,0.5c-2.2,0-4.3,1-6-0.5
				c-1.8-1.6,0-9.8,0-9.8s1.9,1,3.7,1C42.7,483.7,43.9,482.8,43.9,482.8z"/>
		</g>
		<g>
			<path class="st13" d="M12.9,482.8c0,0,0.1,4,2.8,5.1s10.6,2.1,7.6,4.7c-1.7,1.5-9.6,0.5-11.8,0.5s-4.3,1-6-0.5
				c-1.8-1.6,0-9.8,0-9.8s1.9,1,3.7,1C11.6,483.7,12.9,482.8,12.9,482.8z"/>
		</g>
		<g>
			<path class="st14" d="M64.1,373.2c0,0,0.5,16.7-4.8,48.9c-3.9,23.2-8.4,46.5-10.6,57.7c-0.8,4-4.2,6.9-8.2,7.1l-2.2,0.1
				c-4.3,0.2-7.8-3.5-7.5-7.9l5.4-75.8l1.3-24.9L64.1,373.2z"/>
		</g>
		<g>
			<path class="st15" d="M15.2,387.9c0.2,2,11.8,1.8,25.9,0s25.1-4.8,24.8-6.9c-0.2-2-11.6-2.3-25.7-0.5S14.9,385.9,15.2,387.9z"/>
		</g>
		<g>
			<path class="st14" d="M47.9,385.1l-30.1,96.7c-1.3,4-4.9,6.8-9.1,6.9l-1.8,0c-4.3,0.1-7.5-3.9-6.8-8.2l16.5-90.9
				c0.2-1.1,1-1.9,2.1-2.2C24.3,385.9,48.4,381.1,47.9,385.1z"/>
		</g>
		<g>
			<g>
				<path class="st16" d="M31.9,321.6c2.1-0.2,4.2-0.3,6.3-0.1c0,0,0,0,0,0c0.7,0,1.5,0.1,2.2,0.2c0.5,0.1,1,0.1,1.5,0.2
					c8.9,1.4,19.8,10.6,19.8,10.6s-1.1,3.2-4.6,5.3c4.4,9.8,7.5,24.1,8.8,43.2c0,0-23.4-5.1-50.8,6.8c0,0-1.3-32.8,3.3-51
					C18.4,336.9,19.5,322.9,31.9,321.6z"/>
			</g>
		</g>
		<g>
			<path class="st17" d="M31.9,321.6c1.5-0.2,2.9-1.1,3.5-2.5l1.9-4.4l0.6-1.3l3.2-7.5l-0.6,7.8l-0.3,4.7l-0.1,1.3
				c-0.1,1.1,0.7,2.1,1.8,2.2h0c0.6,0.9,1.4,2.9-1,3.6C38,326.4,33.5,324.2,31.9,321.6C31.9,321.6,31.9,321.6,31.9,321.6z"/>
		</g>
		<g>
			<path class="st18" d="M34.4,428.4l-0.5-0.2l6.5-19.7c1.5-4.5,4.6-8.3,8.7-10.7l0.2,0.4c-4,2.3-7,6-8.4,10.4L34.4,428.4z"/>
		</g>
		<g>
			<path class="st14" d="M32.2,304.5c0,0,0.3,1.3-0.4,3.9c-1.1,3.9,3.3,5.5,4.4,4.4c0.1-0.1-0.1-6.7-0.1-6.7l-1.4-0.8L32.2,304.5z"
				/>
		</g>
		<g>
			<path class="st15" d="M37.2,314.5c0,0,0,0.1,0,0.1c0.2,2.5,2.9,3.7,2.9,3.7l0,0l0.3-4.7c-0.8-0.3-2-0.6-2.7-0.3
				C37.4,313.5,37.2,313.9,37.2,314.5z"/>
		</g>
		<g>
			<path class="st17" d="M48.7,307.1c0-5-3.3-9.1-7.3-9.1s-7.3,4-7.3,9.1s3.3,9.1,7.3,9.1C45.5,316.1,48.7,312.1,48.7,307.1z"/>
		</g>
		<g>
			<path class="st14" d="M44.3,300.1c-0.2,0.3,0.9,4.9-7.7,6s-3.4-9.4,2.9-9.6c9.2-0.3,10.5,5.8,9.7,8.1
				C48.3,306.9,44.3,300.1,44.3,300.1z"/>
		</g>
		<g>
			<path class="st14" d="M31,294.4c0,0,3.9,2.6,0.9,5c-3,2.4-11.2,3.5-8.9,7.6c2.2,4.1,4.2,10.2,0.2,11c-4,0.8-6.6,0.5-8.2,3.7
				s-8.9,1.2-8.4-2.6c0.6-3.8-5.7-7.2-3-10.7s9.2-6.6,10.9-11.1C16.1,292.7,27.9,292.4,31,294.4z"/>
		</g>
		<g>
			<path class="st14" d="M37.6,304.7c0,0-3.5,3.7-2.3,7.5c0,0-2.1-2.2-2.1-3.1c-0.1-0.8,0.5-3.9,0.5-3.9L37.6,304.7z"/>
		</g>
		<g>
			<path class="st17" d="M35,308.4c0.8,0.8,2,0.9,2.6,0.2c0.6-0.7,0.4-1.9-0.4-2.7s-2-0.9-2.6-0.2C34,306.4,34.2,307.7,35,308.4z"/>
		</g>
		<g>
			<path class="st19" d="M8.3,323c-0.1,0-0.1,0-0.2-0.1c0-0.1,0-0.2,0.1-0.2c0.9-0.4,1.5-0.8,1.7-1.3c0.3-0.8-0.3-1.8-0.9-2.9
				c-0.6-1-1.2-2.1-1-3.2c0.2-1.3,1.8-1.6,3.4-1.9c1.2-0.2,2.4-0.4,2.9-1.1c0.2-0.3,0.2-0.7,0.1-1.2c-0.2-0.6-0.4-1.2-0.6-1.7
				c-0.9-2.5-1.6-4.5,2.3-9c4.9-5.7,9-5.9,12.7-5.4c0.5,0.1,1.8,0.7,1.8,1.5c0,0.8-1.2,1.3-3.8,1.6c0,0-4.2,1-6.2,5.5
				c-1,2.3,0.4,4.8,1.7,7c0.9,1.5,1.7,2.8,1.4,3.8c-0.1,0.4-0.4,0.7-0.8,1c-0.9,0.5-1.9,0.8-2.9,1c-2.4,0.6-4.7,1.3-5,5.4
				c0,0.1-0.1,0.2-0.2,0.2c-0.1,0-0.2-0.1-0.2-0.2c0.3-4.4,2.8-5,5.2-5.7c0.9-0.3,1.9-0.5,2.8-1c0.3-0.2,0.6-0.4,0.7-0.7
				c0.2-0.8-0.5-2.1-1.4-3.5c-1.3-2.2-2.9-4.8-1.8-7.3c2.1-4.7,6.5-5.7,6.5-5.7c3.1-0.4,3.5-1,3.5-1.3c0-0.5-1.1-1-1.5-1.1
				c-3.6-0.5-7.6-0.3-12.4,5.3c-3.7,4.3-3.1,6.2-2.2,8.6c0.2,0.6,0.4,1.1,0.6,1.8c0.2,0.6,0.1,1.1-0.2,1.5c-0.5,0.8-1.8,1-3.1,1.3
				c-1.5,0.3-2.9,0.5-3.1,1.6c-0.1,0.9,0.4,2,1,2.9c0.6,1.1,1.2,2.2,0.9,3.2C10,322,9.4,322.5,8.3,323C8.4,323,8.4,323,8.3,323z"/>
		</g>
		<g>
			<path class="st19" d="M36.6,303.4c-0.1,0-0.2-0.1-0.2-0.2c0-0.1,0.1-0.2,0.2-0.2c3.1-0.1,4.7-2.6,4.8-2.6
				c0.1-0.1,0.2-0.1,0.2-0.1c0.1,0,0.1,0.2,0.1,0.2C41.5,300.7,39.9,303.4,36.6,303.4L36.6,303.4z"/>
		</g>
		<g>
			<path class="st14" d="M63.8,382.9c0,0-6.6-0.9-16.4-0.2c-15.2,1.1-28.2,4.7-28.2,4.7l4.8,0.8l30.3,1.2l6.1-5L63.8,382.9z"/>
		</g>
		<g>
			<path class="st20" d="M45.4,312.9c0,0-2.5,0.1-5-0.8c0,0-0.2,2.5,2.5,2.6C44.5,314.9,45.4,312.9,45.4,312.9z"/>
		</g>
		<g>
			<path class="st19" d="M45.4,312.9c0,0-0.6,0.5-2,0.5c-1.4,0-3-1.3-3-1.3S43.5,312.9,45.4,312.9z"/>
		</g>
		<g>
			<g>
				<path class="st21" d="M42.1,307.2c0.1,0,0.1,0,0.1-0.1c0-0.1,0-0.2-0.1-0.2c-0.1,0-1.2-0.6-2.2,0.5c-0.1,0.1-0.1,0.2,0,0.2
					c0.1,0.1,0.2,0,0.2,0C41,307,42,307.1,42.1,307.2C42,307.2,42.1,307.2,42.1,307.2z"/>
			</g>
		</g>
		<g>
			<path class="st21" d="M40.8,309c0,0.4,0.2,0.7,0.5,0.7c0.3,0,0.5-0.3,0.6-0.7c0-0.4-0.2-0.7-0.5-0.7
				C41,308.3,40.8,308.6,40.8,309z"/>
		</g>
		<g>
			<g>
				<path class="st21" d="M48.1,308c0.1,0,0.1,0,0.1,0c0.1-0.1,0.1-0.2,0-0.2c0,0-0.9-1-2.2-0.4c-0.1,0-0.1,0.1-0.1,0.2
					s0.1,0.1,0.2,0.1C47.1,307.5,47.9,307.9,48.1,308C48,308,48,308,48.1,308z"/>
			</g>
		</g>
		<g>
			<path class="st21" d="M46.1,309.2c-0.2,0.4-0.1,0.8,0.2,0.9s0.6-0.1,0.8-0.4c0.2-0.4,0.1-0.8-0.2-0.9
				C46.7,308.7,46.3,308.9,46.1,309.2z"/>
		</g>
		<g>
			
				<rect x="55.4" y="331.4" transform="matrix(0.8817 -0.4718 0.4718 0.8817 -151.485 65.851)" class="st15" width="0.3" height="7.1"/>
		</g>
		<g>
			<g>
				<path class="st5" d="M30.5,321.8c0,0,10,45.2,4.9,87.1c0,0-16.4,3.1-27.2,0C8.2,408.9,7,319.7,30.5,321.8z"/>
			</g>
		</g>
		<g>
			<g>
				<path class="st5" d="M28.4,321.9c0,0-7.7-0.4-12.7,4.8c-4.9,5.2-6.4,40-6.5,51.4c0,7.4,15.4-32,15.4-32L28.4,321.9z"/>
			</g>
		</g>
		<g>
			<g>
				<path class="st5" d="M43.4,322.2c0,0,20.6,30.5,13.9,85.7c0,0,8.6,2.2,11.8-1.3c0,0,2.2-58.6-7.4-74
					C61.7,332.5,52.7,323.1,43.4,322.2z"/>
			</g>
		</g>
		<g>
			<path class="st15" d="M36,362.1C36,362.1,36,362.1,36,362.1c-0.2-0.1-10-4.2-15.1-9.9c-0.1-0.1-0.1-0.2,0-0.2s0.2-0.1,0.2,0
				c5.1,5.7,14.8,9.8,14.9,9.8c0.1,0,0.1,0.1,0.1,0.2C36.1,362.1,36.1,362.1,36,362.1z"/>
		</g>
		<g>
			<g>
				<g>
					<g>
						<path class="st17" d="M74,350.8c0,0,2.1-7.2,6-9.1c3.9-1.9,10.4-1.3,8.2,0.4c-2.2,1.7-3.4,2.1-3.4,2.1s5.2-1.6,5.1,0.4
							c-0.1,2-5.5,3.9-5.5,3.9s7.9-2.1,7.2-0.3c-0.7,1.8-7.6,3.6-7.6,3.6s8.5-1.9,7.6,0.2c-0.9,2.1-7,1.5-7.2,3.5s-4,8.6-9.6,8.9
							L74,350.8z"/>
					</g>
				</g>
				<g>
					<path class="st22" d="M80.1,346.9l-0.3-0.1c0.6-1.3,2.8-1.8,2.9-1.8l0.1,0.3C82.7,345.4,80.6,345.8,80.1,346.9z"/>
				</g>
				<g>
					<path class="st22" d="M80.2,350.9l-0.3-0.2c1.2-1.7,3.3-2.1,3.4-2.1l0,0.3C83.3,349,81.2,349.3,80.2,350.9z"/>
				</g>
				<g>
					<path class="st22" d="M81.1,353.8l-0.3-0.1c0.5-1.5,3.1-2,3.2-2L84,352C84,352,81.5,352.5,81.1,353.8z"/>
				</g>
			</g>
		</g>
		<g>
			<g>
				<g>
					<path class="st5" d="M73.7,368.3c0,0,2.9-1.1,2.1-9.7c-0.2-2-1.8-7.7-1.8-7.7c-17.5,0-26.8-3.9-37.2-12.4
						c-3.5-2.9-6.1-5.9-7.8-8.2c-1.9-2.6-5.4-3.6-8.5-2.3l-1.4,0.6c-3.7,1.6-5.2,6.1-3.2,9.6c2.3,3.9,1.5,11.5,6.5,15.7
						C31.3,361.2,50.3,370.4,73.7,368.3z"/>
				</g>
			</g>
		</g>
		<g>
			<path class="st15" d="M72.8,351c-3.1,0-11.5-0.2-19.3-2.8c-0.1,0-0.1-0.1-0.1-0.2s0.1-0.1,0.2-0.1c9.7,3.1,20.3,2.7,20.4,2.7
				c0.1,0,0.2,0.1,0.2,0.2S74.1,351,74,351C74,351,73.6,351,72.8,351z"/>
		</g>
	</g>
	<g>
		<g>
			<g>
				<path class="st17" d="M580,376.8L580,376.8c-0.7,0.2-1.2,1-1,1.7l3.1,11.2c0.2,0.7,1,1.1,1.7,1l0,0c0.7-0.2,1.1-1,1-1.7
					l-3.1-11.2C581.5,377,580.8,376.6,580,376.8z"/>
			</g>
			<g>
				<path class="st17" d="M583.4,375.8L583.4,375.8c-0.7,0.2-1.2,1-1,1.7l3.5,12.5c0.2,0.7,1,1.1,1.7,1l0,0c0.7-0.2,1.1-1,1-1.7
					l-3.5-12.5C584.9,376.1,584.1,375.6,583.4,375.8z"/>
			</g>
			<g>
				<path class="st17" d="M582.3,369.2L582.3,369.2c-0.6,0.8-0.4,2,0.4,2.6l6.8,4.9c0.8,0.6,2,0.4,2.6-0.4l0,0
					c0.6-0.8,0.4-2-0.4-2.6l-6.8-4.9C584.1,368.2,583,368.4,582.3,369.2z"/>
			</g>
			<g>
				<path class="st17" d="M586.8,374.9L586.8,374.9c-0.7,0.2-1.1,1-1,1.7l2.8,10.1c0.2,0.7,1,1.1,1.7,1l0,0c0.7-0.2,1.2-1,1-1.7
					l-2.8-10.1C588.3,375.1,587.5,374.7,586.8,374.9z"/>
			</g>
			<g>
				<path class="st17" d="M576,371c0,0-2,7.5,1.3,12c1.2,1.5,11-1.5,11.4-3.6c0.4-2.1-2.2-8.7-2.2-8.7L576,371z"/>
			</g>
			<g>
				<path class="st17" d="M576.7,377.7L576.7,377.7c-0.7,0.2-1.1,1-1,1.7l2.8,10c0.2,0.7,1,1.1,1.7,1l0,0c0.7-0.2,1.2-1,1-1.7
					l-2.8-10C578.2,377.9,577.4,377.5,576.7,377.7z"/>
			</g>
		</g>
		<g>
			<g>
				<path class="st17" d="M588.2,371.4c0-15.2,1.2-37.1,6.8-54.9c1.3-4.1,1.9-5.7,3-8c0.9-1.8-1.3-5.5-4.5-7
					c-2.9-1.5-7.2-0.8-7.8,0.1c-1,1.5-2,4.4-3.6,9c-5.3,15.9-7.6,35.9-6.9,61.4L588.2,371.4z"/>
			</g>
		</g>
		<g>
			<path class="st15" d="M610.4,477.3c0,0-0.1,4.3-3,5.5c-2.9,1.2-11.4,2.3-8.2,5.1c1.8,1.6,10.4,0.6,12.8,0.6c2.4,0,4.7,1,6.5-0.6
				c2-1.8,0-10.6,0-10.6s-2.1,1.1-4,1C611.7,478.3,610.4,477.3,610.4,477.3z"/>
		</g>
		<g>
			<path class="st14" d="M585.2,347.1c0,0-0.6,19.5,5.6,56.8c4.5,27,9.8,54.1,12.4,67.1c0.9,4.7,4.9,8.1,9.5,8.2l2.5,0.1
				c5,0.2,9.1-4.1,8.7-9.2l-6.3-88.1l-1.5-29L585.2,347.1z"/>
		</g>
		<g>
			<path class="st15" d="M638,477.3c0,0-0.1,4.3-3,5.5c-2.9,1.2-11.4,2.3-8.2,5.1c1.8,1.6,10.4,0.6,12.8,0.6c2.4,0,4.7,1,6.5-0.6
				c2-1.8,0-10.6,0-10.6s-2.1,1.1-4,1C639.4,478.3,638,477.3,638,477.3z"/>
		</g>
		<g>
			<path class="st14" d="M612.8,347.1c0,0-0.6,19.5,5.6,56.8c4.5,27,9.8,54.1,12.4,67.1c0.9,4.7,4.9,8.1,9.5,8.2l2.5,0.1
				c5,0.2,9.1-4.1,8.7-9.2l-6.3-88.1l-1.5-29L612.8,347.1z"/>
		</g>
		<g>
			<path class="st16" d="M642.5,302c0,0-3.1-12.3-26-12.4c-33-0.2-30,30.2-33,76.3c0,0,32.5-4.6,63.4,2
				C646.8,367.9,649.6,320.8,642.5,302z"/>
		</g>
		<g>
			<path class="st16" d="M650.9,300.2l-15,8.3c0,0-32.8,3-41.5,1.5c-8.7-1.4-11.1-7.8-11.1-7.8s9.3-9.6,25-12.1
				c1.5-0.2,3-0.4,4.6-0.5c2.7-0.2,5.3-0.1,8,0.2C640.9,292,650.9,300.2,650.9,300.2z"/>
		</g>
		<g>
			<path class="st17" d="M619.6,286.8l-1.7-5.6l-0.5-1.6l-3-9.5l-0.4,9.5l-0.2,5.7l-0.1,1.8c0,1.2-0.8,1.5-1.7,2.5
				c-0.4,0.4-2.7,3,0,4.2c3.3,1.5,9.6-0.8,11.9-3.7C623.9,290.1,620.1,288.6,619.6,286.8z"/>
		</g>
		<g>
			<g>
				<path class="st5" d="M612,289.6c0,0-13.2,27.4-12,52.2c1.2,24.8,1.4,74.7,1.4,74.7s-12.8,4.1-22.1-3.1c0,0-0.5-92.6,9.8-111.1
					L612,289.6z"/>
			</g>
		</g>
		<g>
			<g>
				<path class="st23" d="M606.8,266.4c0,0-0.6,2.3,0,5.2c0.6,2.9,3.5-4.2,3.5-4.2L606.8,266.4z"/>
			</g>
			<g>
				
					<ellipse transform="matrix(0.1302 -0.9915 0.9915 0.1302 263.5803 847.5708)" class="st17" cx="614.9" cy="273.6" rx="10.2" ry="8.5"/>
			</g>
			<g>
				<path class="st15" d="M623.5,271.7l-4.1-0.4c-0.9-0.1-1.7-0.6-2.2-1.3c-0.8-1.3-1.9-2-5.7-1.9c-4.8,0.2-8.1-2.7-8.6-5.2
					c-0.5-2.6,2-4.4,4.4-3.1c2.4,1.2,1.4-1.8,3.7-2.1c4.4-0.6,5.2,2.8,8.8,2.7c4.7-0.1,13.1,3.4,9.1,11.7L623.5,271.7z"/>
			</g>
			<g>
				<g>
					<path class="st21" d="M614.4,273.1c0,0-0.1-0.1-0.1-0.1c0-0.1,0.1-0.2,0.2-0.2c0.1,0,1.3-0.2,2,1.1c0,0.1,0,0.2-0.1,0.2
						c-0.1,0-0.2,0-0.2-0.1c-0.6-0.7-1.6-0.9-1.7-0.9C614.5,273.2,614.4,273.1,614.4,273.1z"/>
				</g>
			</g>
			<g>
				<path class="st21" d="M615.1,275.3c-0.1,0.4-0.4,0.6-0.7,0.6c-0.3-0.1-0.4-0.5-0.3-0.9s0.4-0.6,0.7-0.6
					C615.1,274.6,615.3,274.9,615.1,275.3z"/>
			</g>
			<g>
				<g>
					<path class="st21" d="M608,272.6C608,272.6,608,272.6,608,272.6c-0.1-0.2-0.1-0.3,0-0.3c0,0,0.9-0.8,1.8,0.2
						c0,0.1,0.1,0.2,0,0.2c0,0.1-0.1,0.1-0.2,0C608.9,272.3,608.1,272.6,608,272.6C608.1,272.6,608.1,272.6,608,272.6z"/>
				</g>
			</g>
			<g>
				<path class="st21" d="M609.6,274.4c0,0.4-0.2,0.8-0.4,0.8c-0.3,0-0.6-0.3-0.6-0.7s0.1-0.8,0.4-0.8
					C609.3,273.7,609.5,274,609.6,274.4z"/>
			</g>
			<g>
				<path class="st15" d="M628.9,272c0,0-2.8,6.1-6.9,6.6c0,0,3.2-4.7-3.6-7.5C618.5,271.1,624.7,270.1,628.9,272z"/>
			</g>
			<g>
				<path class="st17" d="M623.2,275.4c-0.9,0.5-2,0.4-2.4-0.4c-0.5-0.8-0.2-1.8,0.7-2.4c0.9-0.5,2-0.4,2.4,0.4
					C624.4,273.8,624.1,274.8,623.2,275.4z"/>
			</g>
			<g>
				<path class="st15" d="M618.5,271.1c0,0,0.5,5.1-0.5,6.1c-1,1-8,1.4-11.2,0.1l0,0c0,3.3,2.3,6.2,5.5,6.8c1.1,0.2,2.2,0.2,3.3,0
					l0,0c2.3-0.4,4.5-1.3,5.4-3.4c0.3-0.6-0.5-4.6-0.5-4.6s-0.3-2.3,1-3.5C621.5,272.6,619.9,271.2,618.5,271.1z"/>
			</g>
			<g>
				<path class="st19" d="M608.5,279.2c0,0,2.6,0.7,5.5,0.4c0,0-0.4,2.7-3.3,2.1C609,281.4,608.5,279.2,608.5,279.2z"/>
			</g>
			<g>
				<path class="st15" d="M607.8,259.3C607.8,259.3,607.7,259.3,607.8,259.3l-0.1-0.2c1.1,0,1.2-0.9,1.2-0.9l0.2,0
					C609.2,258.2,609.1,259.3,607.8,259.3z"/>
			</g>
			<g>
				<path class="st19" d="M610.1,266.7c0,0-1.3-0.4-2.7-1.1c-1.8-1-2.8-2.1-2.9-3.2c-0.1-0.8,0.1-1.3,0.4-1.6
					c0.6-0.5,1.5-0.2,2.4-0.1c0.1,0,0.2,0.1,0.4,0.1l0,0.1c-0.1,0-0.2,0-0.4-0.1c-0.8-0.2-1.8-0.4-2.3,0c-0.3,0.3-0.5,0.8-0.4,1.5
					c0.2,2.7,5.4,4.2,5.4,4.2L610.1,266.7z"/>
			</g>
			<g>
				<path class="st19" d="M620.3,261.4c-4.1,0-6-2.3-6-2.3l0.1-0.1c0,0,0.6,0.7,1.8,1.4c1.1,0.6,3,1.2,5.7,0.8l0,0.1
					C621.3,261.3,620.7,261.4,620.3,261.4z"/>
			</g>
		</g>
		<g>
			<path class="st15" d="M589.3,308.9l-0.4-0.1c1-3.5,4.2-7.9,4.2-7.9l0.3,0.2C593.4,301.2,590.2,305.5,589.3,308.9z"/>
		</g>
		<g>
			<path class="st15" d="M619.5,411.6c0-0.2-2.6-16-4.3-21.6c-1.7-5.6-9.2-10.3-9.3-10.4l0.2-0.3c0.1,0,7.7,4.8,9.4,10.6
				c1.8,5.7,4.3,21.5,4.3,21.7L619.5,411.6z"/>
		</g>
		<g>
			<g>
				<path class="st5" d="M621.5,288.8c0,0-7.2,8.9-6.6,31.1c0.6,22.2,9.1,96.5,9.1,96.5h35.5c0,0,0.2-80.8-13.2-107.5
					C646.2,308.9,631.3,290.7,621.5,288.8z"/>
			</g>
		</g>
		<g>
			<g>
				<path class="st5" d="M621.5,288.8c0,0,19.5,1.9,29.4,11.4s35,64.2-37.6,67.7c0,0,5.2-13.4,0-26.5c0,0,17.4,1.1,20.5-4.3
					S619.7,300,619.7,300L621.5,288.8z"/>
			</g>
		</g>
		<g>
			<path class="st15" d="M616.6,355.9c0.5,9.9-2.2,12-3.3,12s-2-5.9-2-13.3c0-7.3,0.9-13.3,2-13.3
				C614.4,341.3,616.2,348.6,616.6,355.9z"/>
		</g>
		<g>
			<path class="st15" d="M613.3,368C613.3,368,613.3,368,613.3,368c-0.1,0-0.2-0.1-0.2-0.1c0-0.1,0.1-0.1,0.1-0.1c0,0,0,0,0,0
				c0.8,0,24.7-0.2,42.7-15.2c0.1,0,0.1,0,0.2,0s0,0.1,0,0.2C638.2,367.9,614.2,368,613.3,368z"/>
		</g>
		<g>
			<path class="st15" d="M615.1,341.5c-1,0-1.7,0-1.8,0c-0.1,0-0.1-0.1-0.1-0.1c0-0.1,0.1-0.1,0.1-0.1c0.8,0,19.4,1.2,23.7-11
				c1.1-3.2-0.7-10.4-0.7-10.5c0-0.1,0-0.1,0.1-0.2c0.1,0,0.1,0,0.2,0.1c0.1,0.3,1.8,7.3,0.7,10.6
				C633.6,340.6,620.1,341.5,615.1,341.5z"/>
		</g>
		<g>
			<g>
				<path class="st5" d="M612,289.6c0,0-20.6,1.3-28.6,12.7c-8,11.4-10.9,69.9-10.9,69.9s3.3,5.9,10.9,2.2
					c7.6-3.7,14.8-49.1,14.8-49.1l-3.7-20.2l9.3-9.1L612,289.6z"/>
			</g>
		</g>
		<g>
			<g>
				<g>
					<path class="st6" d="M604.6,371.6l-29.6-3.2c-1.8-0.2-3.3-1.5-3.8-3.2l-10.4-38.6c-0.7-2.6,1-5.2,3.7-5.5l29.6-3.7
						c2.2-0.3,4.3,1.2,4.8,3.4l10.4,45.6C610,369.2,607.6,371.9,604.6,371.6z"/>
				</g>
			</g>
			<g>
				<path class="st24" d="M568.9,319.1c0,0,0.2,2.9,1.7,3c1.5,0.1,13.3-0.7,13.3-1s-0.5-3.2-1.9-3.8
					C580.6,316.7,568.7,317.6,568.9,319.1z"/>
			</g>
		</g>
		<g>
			<g>
				<g>
					<path class="st17" d="M613.8,355.1c-0.2,0.7-1,1.1-1.8,0.9c-2.5-0.7-5.1-1.7-7.9-2.8c-1.4-0.6,3.7-12.9,4.9-12.2
						c1.1,0.7,2.5,1.2,3.9,1.6c0.3,0.1,0.6,0.3,0.8,0.6C614.6,345.2,615,351.3,613.8,355.1z"/>
				</g>
			</g>
			<g>
				<g>
					<g>
						<path class="st17" d="M608.9,341c0,0-0.8-6.4-3.9-8.5c-3.1-2.1-8.6-2.5-7-0.8s4.3,3.3,4.3,3.3s-5.9-3.2-6.1-1.5
							c-0.1,1.7,5,4.4,5,4.4s-7.4-3.2-7-1.6c0.4,1.7,6,4.1,6,4.1s-7-2.7-6.5-0.8c0.5,1.9,5.8,2.2,5.6,3.9c-0.2,1.7-0.1,8.5,4.6,9.5
							L608.9,341z"/>
					</g>
				</g>
				<g>
					<path class="st25" d="M604.5,337.2c-0.1,0-0.2-0.1-0.3-0.2c-0.2-1-1.9-1.6-2-1.6c-0.1,0-0.2-0.2-0.2-0.3c0-0.1,0.2-0.2,0.3-0.2
						c0.1,0,2,0.7,2.3,2C604.8,337,604.7,337.1,604.5,337.2C604.5,337.2,604.5,337.2,604.5,337.2z"/>
				</g>
				<g>
					<path class="st25" d="M603.9,340.5c-0.1,0-0.2-0.1-0.2-0.1c-0.7-1.4-2.4-2-2.4-2c-0.1,0-0.2-0.2-0.2-0.3c0-0.1,0.2-0.2,0.3-0.2
						c0.1,0,1.9,0.7,2.7,2.3c0.1,0.1,0,0.3-0.1,0.4C603.9,340.5,603.9,340.5,603.9,340.5z"/>
				</g>
				<g>
					<path class="st25" d="M602.7,342.9c-0.1,0-0.2-0.1-0.3-0.2c-0.2-0.9-1.6-1.6-2.2-1.8c-0.1,0-0.2-0.2-0.2-0.3
						c0-0.1,0.2-0.2,0.3-0.2c0.1,0,2.3,0.8,2.5,2.2C603,342.7,602.9,342.8,602.7,342.9C602.8,342.9,602.7,342.9,602.7,342.9z"/>
				</g>
			</g>
		</g>
		<g>
			<path class="st15" d="M579.9,375.6C579.9,375.6,579.9,375.6,579.9,375.6c-0.1,0-0.1-0.1-0.1-0.1l0.4-10.7c0-0.1,0.1-0.1,0.1-0.1
				s0.1,0.1,0.1,0.1l-0.4,10.7C580,375.6,580,375.6,579.9,375.6z"/>
		</g>
	</g>
	<g>
		<g>
			<path class="st13" d="M430.3,296.1c0,0,1.6,8.7,5.3,13c2.4,2.9,9.1,8.4,4.6,10.5c-3.6,1.7-10.9-5-13.3-6.6s-5.9-4.8-5.2-7.5
				c1.4-5.8,0.6-12.9,0.6-12.9L430.3,296.1z"/>
		</g>
		<g>
			<path class="st13" d="M412.3,289.9c0,0-1.5,8.7,0.5,14c1.3,3.5,5.6,11.1,0.6,11.4c-4,0.3-8.5-8.5-10.1-10.8
				c-1.6-2.4-3.9-6.5-2.3-8.9c3.3-4.9,5.1-11.9,5.1-11.9L412.3,289.9z"/>
		</g>
		<g>
			<g>
				<path class="st14" d="M415,295.9c46.5-33.4,43.3-61.1,36.3-71.7c-8.1-12.4-20.5-22-39.3-25.8c-5-1-9.7-1.6-13.7-1.8
					c-5.7-0.4-10.5,4.3-10.1,10.1l1,16.2h0c7.9-0.4,32.1,1.2,38.9,13.8c1.4,2.6-29.4,41.3-28,48C401.6,292.3,410.5,299.2,415,295.9z
					"/>
			</g>
		</g>
		<g>
			<g>
				<path class="st14" d="M433.6,300.1c5.5-0.2,9.7-4.9,9.2-10.4c-1.1-12.1-4.1-32.7-11.7-48.1c-4.3-8.7-11-16.6-19.8-23.3
					c-6.6-5.1-14.5-9.6-23.5-13.3c-14.9-6.2-25.4-4.9-25.4-4.9l-7.6,12.1c0.1,0-1.8,12,15.4,22c9.5,5.5,28.4,8.5,36.6,23.3
					c5.9,10.6,8.5,24.8,9.5,34.8c0.5,4.8,4.6,8.3,9.4,8.2L433.6,300.1z"/>
			</g>
		</g>
		<g>
			<path class="st17" d="M417.9,156.4c0,0,10.3,14.8,14.6,37.1c2.8,14.7-24.7-1.6-24.7-1.6l-2.2-30.9L417.9,156.4z"/>
		</g>
		<g>
			<path class="st16" d="M368.3,149.8c0,0,7.1-13,24.4-9.7c17.4,3.4,25,20.7,27.6,63c0,0-9.7,18.7-57,16.7
				c-5.2-0.2-12.7-0.7-10.5-9.2C357.1,194.6,360.7,163.1,368.3,149.8z"/>
		</g>
		<g>
			<path class="st16" d="M349.4,154.1l17.9,2.7c0,0,31.3,8.1,40,7.9s12.1-6.7,12.1-6.7s-7.4-11.6-22.3-16.8
				c-1.4-0.5-2.9-0.9-4.4-1.3c-2.6-0.6-5.2-1.1-7.8-1C355.7,139.7,349.4,154.1,349.4,154.1z"/>
		</g>
		<g>
			<path class="st15" d="M349.7,153.8c-0.3,1.4,3.5,3.6,8.5,4.9s9.4,1.2,9.7-0.2c0.3-1.4-3.5-3.6-8.5-4.9S350,152.4,349.7,153.8z"/>
		</g>
		<g>
			<g>
				<path class="st17" d="M354.1,193.1c8,11.6,23.2,18.7,39,17.7l-2.1-12.6c-12.3-1.8-21.9-9.5-23.9-16.1c-2.5-8.4-2-16.6-1.2-22.8
					c0.1-0.6-0.2-1.2-0.6-1.5c-1.6-1.1-5.7-3.4-13-3.3c-0.6,0-1.2,0.5-1.3,1.1C348.3,167,347,182.8,354.1,193.1z"/>
			</g>
		</g>
		<g class="st26">
			<path class="st22" d="M362.1,196.7c-0.3,0-0.6-0.1-0.8-0.2c-0.9-0.3-1.7-1.1-2.1-2.1c-0.8-1.8-0.4-3.7,0.9-4.3
				c0.5-0.2,1.1-0.2,1.7,0c0.9,0.3,1.7,1.1,2.1,2.1c0.8,1.8,0.4,3.7-0.9,4.3C362.7,196.7,362.4,196.7,362.1,196.7z M360.9,190.6
				c-0.2,0-0.4,0-0.6,0.1c-1,0.5-1.3,2.1-0.6,3.5l0,0c0.4,0.9,1.1,1.6,1.8,1.8c0.5,0.2,0.9,0.2,1.3,0c1-0.5,1.3-2.1,0.6-3.5
				c-0.4-0.9-1.1-1.6-1.8-1.8C361.3,190.6,361.1,190.6,360.9,190.6z"/>
		</g>
		<g>
			<g>
				<path class="st17" d="M391,198.2c0,0,11.2-4,14.9-2.4s7.1,6.4,4.7,5.9s-5.5-2-5.5-2s6.2,3.5,4.8,4.6c-1.5,1.1-6.8-2-6.8-2
					s7.1,4.8,5.4,5.4c-1.7,0.6-7.1-3.1-7.1-3.1s6.4,4.7,4.4,5.4s-5.3-3.9-6.7-2.8c-1.5,1.1-5.1,6-8.6,2.4L391,198.2z"/>
			</g>
			<g>
				<path class="st27" d="M404.9,199.8c0,0-1.6-1.2-2.7-0.9l-0.1-0.3c1.2-0.4,2.9,0.9,2.9,0.9L404.9,199.8z"/>
			</g>
			<g>
				<path class="st27" d="M402.9,202.4c0,0-1.5-1.2-3.2-1l0-0.3c1.8-0.2,3.4,1,3.5,1.1L402.9,202.4z"/>
			</g>
			<g>
				<path class="st27" d="M401.2,204.7c0,0-1.9-1.4-3-1l-0.1-0.3c1.3-0.5,3.2,0.9,3.3,1L401.2,204.7z"/>
			</g>
		</g>
		<g>
			<g>
				<path class="st15" d="M405.5,215.3l36.4-1.2c0.8,0,1.4-0.5,1.6-1.3l6.8-22.8c0.3-1.1-0.5-2.3-1.8-2.2l-35,1.2
					c-1.6,0.1-3,1.1-3.4,2.6l-6.4,21.5C403.4,214.2,404.3,215.4,405.5,215.3z"/>
			</g>
			<g>
				<path class="st15" d="M407.8,215.3l36.4-1.2c0.8,0,1.4-0.5,1.6-1.3l6.8-22.8c0.3-1.1-0.5-2.3-1.8-2.2l-35,1.2
					c-1.6,0.1-3,1.1-3.4,2.6L406,213C405.7,214.2,406.5,215.3,407.8,215.3z"/>
			</g>
			<g>
				<path class="st28" d="M432.8,200.6c0-0.9-1-1.2-1.9-1.1c-0.9,0-2.2,1-2.2,2.2c0,1.3,1.1,1.4,1.9,1.4
					C431.5,203.1,432.8,201.7,432.8,200.6z"/>
			</g>
			<g>
				<path class="st15" d="M394.3,212.5l49.7-1.7l0.1,3.2l-50.8,1.7c-0.6,0-1.1-0.4-1.1-1v0C392.2,213.5,393.1,212.6,394.3,212.5z"/>
			</g>
			<g>
				<path class="st29" d="M409.8,200.5l-0.2-0.1c0.1-0.3,1.6-6.8,2.7-9c1.1-2.2,2.5-2.6,2.6-2.7l0.1,0.2c0,0-1.4,0.5-2.5,2.5
					C411.4,193.7,409.9,200.4,409.8,200.5z"/>
			</g>
			<g>
				<path class="st29" d="M404.9,212.3l0-0.2c1.2,0,1.5-0.5,1.5-0.6l2.5-8.5l0.2,0.1l-2.5,8.6C406.5,211.6,406.2,212.2,404.9,212.3z
					"/>
			</g>
		</g>
		<g>
			<path class="st18" d="M440.4,273c0-0.1-1.1-10.9-4.9-23.1c-3.5-11.2-10-25.9-21.2-32.1l0.1-0.3c11.3,6.3,17.8,21,21.3,32.2
				c3.8,12.2,4.9,23,4.9,23.1L440.4,273z"/>
		</g>
		<g>
			<path class="st18" d="M416.9,294.5c-0.7-16.9-6.6-29.7-6.7-29.8l0.3-0.1c0.1,0.1,6,13,6.7,29.9L416.9,294.5z"/>
		</g>
		<g>
			<path class="st14" d="M400.2,140.4c0,0-4.1-1.9-4.6-4.3s-2.1-1.8-3-2.4c-0.9-0.6,2-6.9,2-6.9l8.9-2.7l-1.6,11.1L400.2,140.4z"/>
		</g>
		<g>
			<path class="st17" d="M382,138.9c1.9-0.1,3.6-1.2,4.4-2.8l2.6-5.2l0.8-1.5l4.5-9l-1.3,9.5l-0.8,5.7l-0.2,1.6
				c-0.2,1.3,0.7,2.6,2,2.9l0,0c0.6,1.2,1.5,3.6-1.5,4.3C389.2,145.2,383.8,142.2,382,138.9C382,138.9,382,138.9,382,138.9z"/>
		</g>
		<g>
			<path class="st22" d="M389.1,130.6c0,0.1,0,0.1,0,0.2c0,3.1,3.2,4.7,3.2,4.7l0,0l0.8-5.7c-1-0.4-2.4-0.9-3.2-0.5
				C389.4,129.5,389.1,129.9,389.1,130.6z"/>
		</g>
		<g>
			<path class="st17" d="M403.7,122.4c0.4-6.1-3.3-11.3-8.3-11.6c-4.9-0.3-9.2,4.4-9.6,10.5s3.3,11.3,8.3,11.6
				C399,133.2,403.3,128.5,403.7,122.4z"/>
		</g>
		<g>
			<path class="st19" d="M399.1,129.3c0,0-3.1-0.1-6-1.4c0,0-0.4,3,2.9,3.4C397.8,131.6,399.1,129.3,399.1,129.3z"/>
		</g>
		<g>
			<g>
				<path class="st21" d="M395.6,122c0.1,0,0.1-0.1,0.1-0.1c0-0.1,0-0.2-0.1-0.3c-0.1,0-1.4-0.8-2.7,0.4c-0.1,0.1-0.1,0.2,0,0.3
					c0.1,0.1,0.2,0.1,0.3,0c1-0.6,2.2-0.4,2.2-0.4C395.5,122,395.5,122,395.6,122z"/>
			</g>
		</g>
		<g>
			<path class="st21" d="M393.4,124c-0.1,0.5,0.2,0.9,0.6,0.9c0.3,0,0.7-0.3,0.7-0.8c0-0.5-0.2-0.9-0.6-0.9
				C393.8,123.2,393.5,123.6,393.4,124z"/>
		</g>
		<g>
			<path class="st21" d="M399.2,124.8c-0.1,0.5,0.1,0.9,0.5,1c0.4,0.1,0.7-0.3,0.8-0.8c0.1-0.5-0.1-0.9-0.5-1
				S399.3,124.3,399.2,124.8z"/>
		</g>
		<g>
			<path class="st14" d="M390.8,114.5c6.8,2.1,11.2,8.5,11,15.5c0,0.4,0,0.8-0.1,1.3c0,0-4.7,0.7-5.2,5.3c-0.2,1.4,3.8,4.1,4.1,4
				c2.2-0.8,8.2-5.7,7.5-16.2c-0.6-10.5-4.2-18.4-13.8-19.3c-9.5-0.9-8.7,5.6-8.7,5.6S387.3,113.5,390.8,114.5z"/>
		</g>
		<g>
			<path class="st14" d="M392.1,114.6c0,0-0.2,0.1-0.4,0.3c-1.1,0.7-3.7,2.8-4.4,6.2c-0.8,4.2,3.1,7.1,1.8,10.3
				c-1.3,3.2-4-0.6-6.5-0.2c-2.4,0.4-4.1-0.8-4-5.6c0.1-4.8,1.9-15.9,7.6-15.5L392.1,114.6z"/>
		</g>
		<g>
			<path class="st17" d="M385.8,123c1,1,2.4,1.2,3.1,0.4c0.8-0.8,0.6-2.3-0.3-3.3c-1-1-2.4-1.2-3.1-0.4
				C384.7,120.5,384.9,122,385.8,123z"/>
		</g>
		<g>
			<path class="st19" d="M403.8,135.5C403.8,135.5,403.8,135.5,403.8,135.5c-0.1,0-0.1-0.1-0.1-0.1c1.1-6.8-1-13.6-3.5-17.3
				c-3.9-5.8-8.4-5.3-8.5-5.3c-0.1,0-0.1,0-0.1-0.1c0-0.1,0-0.1,0.1-0.1c0,0,4.7-0.5,8.7,5.4c2.5,3.7,4.6,10.6,3.5,17.5
				C403.9,135.5,403.8,135.5,403.8,135.5z"/>
		</g>
		<g>
			<path class="st19" d="M382.8,127.4c0,0-0.1,0-0.1-0.1c-1.9-4.6-0.3-12.4,1.6-14.6c2-2.3,4.8-0.8,4.9-0.8c0,0,0.1,0.1,0,0.2
				c0,0.1-0.1,0.1-0.1,0.1c-0.1-0.1-2.7-1.4-4.6,0.8c-1.9,2.2-3.5,9.8-1.6,14.4C382.9,127.3,382.9,127.4,382.8,127.4
				C382.8,127.4,382.8,127.4,382.8,127.4z"/>
		</g>
		<g>
			<path class="st19" d="M404.9,127.1L404.9,127.1c-0.1,0-0.1-0.1-0.1-0.1c0-0.1,0-13-5-15.5s-8.9,0.1-9,0.1c-0.1,0-0.1,0-0.1,0
				c0-0.1,0-0.1,0-0.2c0,0,4.1-2.6,9.2-0.1c2.1,1.1,3.6,4,4.5,8.8c0.6,3.5,0.6,6.8,0.6,6.8C405,127,405,127.1,404.9,127.1z"/>
		</g>
	</g>
	<g>
		<polygon class="st30" points="162.3,398.9 167.4,392.2 174,415.7 166.9,420.8 		"/>
		<polygon class="st31" points="167.4,392.2 178.7,392.9 184,415.6 177.3,422 166.9,420.8 174,415.7 		"/>
	</g>
	<g>
		<polygon class="st32" points="581.2,298.9 573.5,298.9 567.5,270.8 575.2,270.8 		"/>
		<polygon class="st33" points="584.3,291.4 579.4,290.8 575.9,277.2 580.7,277.7 		"/>
	</g>
	<path class="st0" d="M169.3,407.7l-41-1.7c0,0-25.1,1.5-29.4-27.8c-0.8-5.2-1.7-10.5-3-15.6c-12.7-50.6-49.1-212.3-49.1-212.3
		s-12.2-32,7.3-63.3c6.6-11.6,12.4-20.7,16.2-26.4c5.2-7.7,15.9-9.7,23.2-3.9c0.3,0.2,0.6,0.4,0.8,0.7"/>
	<line class="st34" x1="460.7" y1="250.1" x2="499.2" y2="250.1"/>
	<line class="st35" x1="473" y1="268" x2="506.1" y2="268"/>
	<line class="st36" x1="453.8" y1="259" x2="473" y2="259"/>
	<line class="st34" x1="477.9" y1="275.9" x2="497.2" y2="275.9"/>
	<line class="st37" x1="477.9" y1="259" x2="503.9" y2="259"/>
	<line class="st38" x1="482" y1="284.9" x2="508" y2="284.9"/>
	<line class="st39" x1="486.2" y1="294.5" x2="512.2" y2="294.5"/>
	<line class="st40" x1="482" y1="304.1" x2="508" y2="304.1"/>
	<line class="st35" x1="490.9" y1="313.7" x2="516.9" y2="313.7"/>
</g>
</svg>
