<svg xmlns="http://www.w3.org/2000/svg" xmlns:xlink="http://www.w3.org/1999/xlink" viewBox="0 0 2577 2776.46"><defs><linearGradient id="linear-gradient" x1="2420.77" y1="1315.01" x2="2431.17" y2="5161.33" gradientUnits="userSpaceOnUse"><stop offset="0" stop-color="#aa80f9"/><stop offset="1" stop-color="#6165d7"/></linearGradient><linearGradient id="linear-gradient-2" x1="1039.23" y1="2386.93" x2="878.15" y2="2454.58" gradientUnits="userSpaceOnUse"><stop offset="0" stop-color="#40447e"/><stop offset="1" stop-color="#3c3b6b"/></linearGradient><linearGradient id="linear-gradient-3" x1="824.14" y1="1677" x2="649.33" y2="1750.42" xlink:href="#linear-gradient-2"/><linearGradient id="linear-gradient-4" x1="70.67" y1="1716.75" x2="1690.7" y2="1716.75" xlink:href="#linear-gradient-2"/><linearGradient id="linear-gradient-5" x1="1425.59" y1="910.09" x2="109" y2="2749.94" gradientUnits="userSpaceOnUse"><stop offset="0" stop-color="#ffc444"/><stop offset="1" stop-color="#f36f56"/></linearGradient><linearGradient id="linear-gradient-6" x1="70.67" y1="2315.83" x2="2363.68" y2="2315.83" xlink:href="#linear-gradient-2"/><linearGradient id="linear-gradient-7" x1="873.25" y1="1689.09" x2="1137.42" y2="1689.09" gradientUnits="userSpaceOnUse"><stop offset="0" stop-color="#ff9085"/><stop offset="1" stop-color="#fb6fbb"/></linearGradient><linearGradient id="linear-gradient-8" x1="295.54" y1="2297.04" x2="1975.61" y2="2297.04" xlink:href="#linear-gradient-2"/><linearGradient id="linear-gradient-9" x1="2295.18" y1="2552.92" x2="1850.72" y2="2173.78" gradientUnits="userSpaceOnUse"><stop offset="0" stop-color="#444b8c"/><stop offset="1" stop-color="#26264f"/></linearGradient><linearGradient id="linear-gradient-10" x1="-1968.7" y1="3416.76" x2="-390.13" y2="3475.48" gradientTransform="translate(-1488.76 701.06) rotate(-90)" xlink:href="#linear-gradient-9"/><linearGradient id="linear-gradient-11" x1="2087.38" y1="2043.72" x2="1522.67" y2="2803.01" xlink:href="#linear-gradient-5"/><linearGradient id="linear-gradient-12" x1="1855.9" y1="2180.89" x2="2062.73" y2="2180.89" xlink:href="#linear-gradient-7"/><linearGradient id="linear-gradient-13" x1="2602.78" y1="2646.52" x2="2325.97" y2="2410.39" xlink:href="#linear-gradient-9"/><linearGradient id="linear-gradient-14" x1="-2043.13" y1="3860.85" x2="-968.76" y2="3900.82" gradientTransform="translate(-1488.76 701.06) rotate(-90)" xlink:href="#linear-gradient-9"/><linearGradient id="linear-gradient-15" x1="2474.22" y1="2327.62" x2="2115.05" y2="2810.55" xlink:href="#linear-gradient-5"/><linearGradient id="linear-gradient-16" x1="2331.12" y1="2416.63" x2="2453.41" y2="2416.63" xlink:href="#linear-gradient-7"/><linearGradient id="linear-gradient-17" x1="779.47" y1="515.85" x2="2534.35" y2="515.85" xlink:href="#linear-gradient-9"/><linearGradient id="linear-gradient-18" x1="821" y1="528.9" x2="2577" y2="528.9" gradientUnits="userSpaceOnUse"><stop offset="0" stop-color="#e38ddd"/><stop offset="1" stop-color="#9571f6"/></linearGradient><linearGradient id="linear-gradient-19" x1="1990.62" y1="1355.25" x2="2001.02" y2="5201.56" xlink:href="#linear-gradient"/><linearGradient id="linear-gradient-20" x1="350.62" y1="1131.53" x2="361.02" y2="4977.84" xlink:href="#linear-gradient"/><linearGradient id="linear-gradient-21" x1="351.44" y1="1131.52" x2="361.84" y2="4977.84" xlink:href="#linear-gradient"/><linearGradient id="linear-gradient-22" x1="362.67" y1="1131.49" x2="373.07" y2="4977.81" xlink:href="#linear-gradient"/><linearGradient id="linear-gradient-23" x1="703.98" y1="1130.58" x2="714.38" y2="4976.95" xlink:href="#linear-gradient"/><linearGradient id="linear-gradient-24" x1="1045.26" y1="1129.65" x2="1055.66" y2="4975.97" xlink:href="#linear-gradient"/><linearGradient id="linear-gradient-25" x1="159.8" y1="2467.16" x2="474.97" y2="2714.35" xlink:href="#linear-gradient-7"/><linearGradient id="linear-gradient-26" x1="1005.57" y1="2721.41" x2="85.88" y2="2569.64" gradientTransform="matrix(1, 0.02, 0, 1, 0, -14.29)" gradientUnits="userSpaceOnUse"><stop offset="0" stop-color="#311944"/><stop offset="1" stop-color="#893976"/></linearGradient><linearGradient id="linear-gradient-27" x1="387.43" y1="2667.16" x2="384.87" y2="2536.41" gradientTransform="matrix(1, 0.02, 0, 1, 0, -14.29)" xlink:href="#linear-gradient-7"/><linearGradient id="linear-gradient-28" x1="161.78" y1="2464.4" x2="475.16" y2="2710.19" xlink:href="#linear-gradient-7"/><linearGradient id="linear-gradient-31" x1="159.88" y1="2363.05" x2="475.4" y2="2610.52" xlink:href="#linear-gradient-7"/><linearGradient id="linear-gradient-32" x1="1005.57" y1="2617.37" x2="85.88" y2="2465.6" xlink:href="#linear-gradient-26"/><linearGradient id="linear-gradient-33" x1="387.43" y1="2563.13" x2="384.87" y2="2432.38" gradientTransform="matrix(1, 0.02, 0, 1, 0, -14.29)" xlink:href="#linear-gradient-7"/><linearGradient id="linear-gradient-34" x1="161.78" y1="2360.36" x2="475.16" y2="2606.15" xlink:href="#linear-gradient-7"/><linearGradient id="linear-gradient-37" x1="159.88" y1="2258.76" x2="475.4" y2="2506.22" xlink:href="#linear-gradient-7"/><linearGradient id="linear-gradient-38" x1="1005.57" y1="2513.08" x2="85.88" y2="2361.31" xlink:href="#linear-gradient-26"/><linearGradient id="linear-gradient-39" x1="387.43" y1="2458.83" x2="384.87" y2="2328.08" gradientTransform="matrix(1, 0.02, 0, 1, 0, -14.29)" xlink:href="#linear-gradient-7"/><linearGradient id="linear-gradient-40" x1="161.78" y1="2256.07" x2="475.16" y2="2501.86" xlink:href="#linear-gradient-7"/><linearGradient id="linear-gradient-43" x1="159.88" y1="2154.47" x2="475.4" y2="2401.93" xlink:href="#linear-gradient-7"/><linearGradient id="linear-gradient-44" x1="1005.57" y1="2408.79" x2="85.88" y2="2257.02" xlink:href="#linear-gradient-26"/><linearGradient id="linear-gradient-45" x1="387.43" y1="2354.54" x2="384.87" y2="2223.79" gradientTransform="matrix(1, 0.02, 0, 1, 0, -14.29)" xlink:href="#linear-gradient-7"/><linearGradient id="linear-gradient-46" x1="161.78" y1="2151.78" x2="475.16" y2="2397.57" xlink:href="#linear-gradient-7"/><linearGradient id="linear-gradient-49" x1="159.88" y1="2050.18" x2="475.4" y2="2297.64" xlink:href="#linear-gradient-7"/><linearGradient id="linear-gradient-50" x1="1005.57" y1="2304.5" x2="85.88" y2="2152.73" xlink:href="#linear-gradient-26"/><linearGradient id="linear-gradient-51" x1="387.43" y1="2250.25" x2="384.87" y2="2119.5" gradientTransform="matrix(1, 0.02, 0, 1, 0, -14.29)" xlink:href="#linear-gradient-7"/><linearGradient id="linear-gradient-52" x1="161.78" y1="2047.49" x2="475.16" y2="2293.28" xlink:href="#linear-gradient-7"/><linearGradient id="linear-gradient-55" x1="159.88" y1="1945.88" x2="475.4" y2="2193.35" xlink:href="#linear-gradient-7"/><linearGradient id="linear-gradient-56" x1="1005.57" y1="2200.2" x2="85.88" y2="2048.44" xlink:href="#linear-gradient-26"/><linearGradient id="linear-gradient-57" x1="387.43" y1="2145.96" x2="384.87" y2="2015.21" gradientTransform="matrix(1, 0.02, 0, 1, 0, -14.29)" xlink:href="#linear-gradient-7"/><linearGradient id="linear-gradient-58" x1="161.78" y1="1943.19" x2="475.16" y2="2188.98" xlink:href="#linear-gradient-7"/><linearGradient id="linear-gradient-61" x1="159.88" y1="1841.59" x2="475.4" y2="2089.06" xlink:href="#linear-gradient-7"/><linearGradient id="linear-gradient-62" x1="1005.57" y1="2095.91" x2="85.88" y2="1944.14" xlink:href="#linear-gradient-26"/><linearGradient id="linear-gradient-63" x1="387.43" y1="2041.66" x2="384.87" y2="1910.92" gradientTransform="matrix(1, 0.02, 0, 1, 0, -14.29)" xlink:href="#linear-gradient-7"/><linearGradient id="linear-gradient-64" x1="161.78" y1="1838.9" x2="475.16" y2="2084.69" xlink:href="#linear-gradient-7"/><linearGradient id="linear-gradient-67" x1="427.93" y1="1708.59" x2="420.93" y2="1846.82" xlink:href="#linear-gradient-7"/><linearGradient id="linear-gradient-68" x1="427.93" y1="1708.59" x2="420.93" y2="1846.82" xlink:href="#linear-gradient"/><linearGradient id="linear-gradient-69" x1="410.29" y1="1832.59" x2="819.38" y2="1832.59" xlink:href="#linear-gradient"/><linearGradient id="linear-gradient-70" x1="410.29" y1="1833.54" x2="819.38" y2="1833.54" xlink:href="#linear-gradient"/><linearGradient id="linear-gradient-71" x1="526.14" y1="1991.77" x2="447.4" y2="1893.79" gradientUnits="userSpaceOnUse"><stop offset="0" stop-color="#311944"/><stop offset="1" stop-color="#6b3976"/></linearGradient><linearGradient id="linear-gradient-72" x1="477.8" y1="1968.5" x2="369.31" y2="1832.02" xlink:href="#linear-gradient-5"/><linearGradient id="linear-gradient-73" x1="244.25" y1="1828.01" x2="154.11" y2="2015.5" xlink:href="#linear-gradient"/><linearGradient id="linear-gradient-74" x1="247.19" y1="1690.27" x2="535.17" y2="1690.27" xlink:href="#linear-gradient"/><linearGradient id="linear-gradient-75" x1="248.34" y1="1809.75" x2="528.23" y2="1809.75" xlink:href="#linear-gradient"/><linearGradient id="linear-gradient-76" x1="238.49" y1="1818.72" x2="336.28" y2="1818.72" xlink:href="#linear-gradient-9"/><linearGradient id="linear-gradient-77" x1="372.17" y1="1540.8" x2="474.1" y2="1388.24" gradientUnits="userSpaceOnUse"><stop offset="0" stop-color="#f36f56"/><stop offset="1" stop-color="#ffc444"/></linearGradient><linearGradient id="linear-gradient-78" x1="-1384.33" y1="653.71" x2="-1430.1" y2="537.45" gradientTransform="matrix(-0.79, -0.61, -0.61, 0.79, -307.3, 89.12)" xlink:href="#linear-gradient-71"/><linearGradient id="linear-gradient-79" x1="443.94" y1="1423.97" x2="501.2" y2="1423.97" xlink:href="#linear-gradient-77"/><linearGradient id="linear-gradient-80" x1="-1398.31" y1="659.28" x2="-1444.14" y2="542.9" gradientTransform="matrix(-0.79, -0.61, -0.61, 0.79, -307.3, 89.12)" xlink:href="#linear-gradient-71"/><linearGradient id="linear-gradient-81" x1="471.18" y1="1438.86" x2="482.53" y2="1438.86" xlink:href="#linear-gradient-77"/><linearGradient id="linear-gradient-82" x1="323.97" y1="1739.93" x2="672.68" y2="1739.93" xlink:href="#linear-gradient-9"/><linearGradient id="linear-gradient-83" x1="330.54" y1="1743.21" x2="672.99" y2="1743.21" xlink:href="#linear-gradient-9"/><linearGradient id="linear-gradient-84" x1="330.54" y1="1747.16" x2="647.1" y2="1747.16" xlink:href="#linear-gradient-9"/></defs><g style="isolation:isolate"><g id="Illustration"><path d="M2421.4,2049a13.87,13.87,0,0,1-13.86-13.86v-41.58a13.86,13.86,0,0,1,27.72,0v41.58A13.87,13.87,0,0,1,2421.4,2049Zm0-103.95a13.86,13.86,0,0,1-13.86-13.86v-41.57a13.86,13.86,0,1,1,27.72,0v41.57A13.86,13.86,0,0,1,2421.4,1945Zm0-103.94a13.87,13.87,0,0,1-13.86-13.86v-41.58a13.86,13.86,0,0,1,27.72,0v41.58A13.87,13.87,0,0,1,2421.4,1841.06Zm0-104a13.86,13.86,0,0,1-13.86-13.86v-41.57a13.86,13.86,0,1,1,27.72,0v41.57A13.86,13.86,0,0,1,2421.4,1737.11Zm0-103.94a13.87,13.87,0,0,1-13.86-13.86v-41.58a13.86,13.86,0,0,1,27.72,0v41.58A13.87,13.87,0,0,1,2421.4,1633.17Zm0-103.94a13.87,13.87,0,0,1-13.86-13.86v-41.58a13.86,13.86,0,0,1,27.72,0v41.58A13.87,13.87,0,0,1,2421.4,1529.23Zm0-104a13.86,13.86,0,0,1-13.86-13.86v-41.58a13.86,13.86,0,0,1,27.72,0v41.58A13.86,13.86,0,0,1,2421.4,1425.28Zm0-103.94a13.87,13.87,0,0,1-13.86-13.86V1265.9a13.86,13.86,0,0,1,27.72,0v41.58A13.87,13.87,0,0,1,2421.4,1321.34Zm0-103.95a13.86,13.86,0,0,1-13.86-13.86V1162a13.86,13.86,0,1,1,27.72,0v41.57A13.86,13.86,0,0,1,2421.4,1217.39Zm0-103.94a13.87,13.87,0,0,1-13.86-13.86V1058a13.86,13.86,0,0,1,27.72,0v41.58A13.87,13.87,0,0,1,2421.4,1113.45Z" fill="url(#linear-gradient)"/><path d="M2363.68,2298.79l-2293-20v59.09c0,16,10,29.67,23.55,32.1l648.39,116.36a89,89,0,0,0,23.27,1.09l1572.88-132.67c14-1.18,24.92-14.86,24.92-31.34Z" fill="url(#linear-gradient-2)"/><path d="M1625.53,2203,95.91,2311.1c-27.37,1.93-49.62-18.62-49.62-45.92V1171.69a49.54,49.54,0,0,1,49.62-49.42H1625.53c22.55,0,40.78,20,40.78,44.67v988.5C1666.31,2180.12,1648.08,2201.41,1625.53,2203Z" fill="url(#linear-gradient-3)"/><path d="M1649.92,2203,120.3,2311.1c-27.37,1.93-49.63-18.62-49.63-45.92V1171.69a49.55,49.55,0,0,1,49.63-49.42H1649.92c22.55,0,40.78,20,40.78,44.67v988.5C1690.7,2180.12,1672.47,2201.41,1649.92,2203Z" fill="url(#linear-gradient-4)"/><path d="M1602.27,2133.31l-1424.68,93.9c-22.28,1.46-40.38-15.41-40.38-37.69V1232.16a40.58,40.58,0,0,1,40.38-40.51l1424.68-5.89c18.6-.08,33.65,16.31,33.65,36.6v872C1635.92,2114.64,1620.87,2132.08,1602.27,2133.31Z" fill="url(#linear-gradient-5)"/><path d="M1611.75,2198.1,70.67,2311.88l671.94,120.58a89,89,0,0,0,23.27,1.09l1597.8-134.76-727.41-99.92A116.26,116.26,0,0,0,1611.75,2198.1Z" fill="url(#linear-gradient-6)"/><ellipse cx="1005.33" cy="1694.98" rx="246.79" ry="249.94" fill="#fff"/><path d="M996.64,1829.66a30.46,30.46,0,0,1-26.18-15l-92.84-156.51a31.17,31.17,0,0,1,10.45-42.46A30.33,30.33,0,0,1,930,1626.27l64.45,108.65,85.2-169.49a30.37,30.37,0,0,1,41.08-13.53,31.13,31.13,0,0,1,13.37,41.61l-110.22,219.25a30.52,30.52,0,0,1-26.15,16.88Z" fill="url(#linear-gradient-7)"/><polygon points="295.54 2314.74 1578.54 2218.6 1975.61 2272.7 703.67 2375.47 295.54 2314.74" opacity="0.3" fill="url(#linear-gradient-8)" style="mix-blend-mode:multiply"/><path d="M1281.38,1903.09c-117.92-63.45-210.64,17-300.12-62.37-54.25-48.09-27.61-84-94.37-155.82-73.93-79.59-122.07-52.84-196.37-124.47-93.95-90.58-47-161.06-127.89-226.09-98.17-78.9-204-5.87-297.5-81.54-40.31-32.63-62.43-80.08-74-130.53H99.71a29,29,0,0,0-29,29v1133.5a26.69,26.69,0,0,0,29,26.95l1558.93-110.66c7.65-.54,14.44-5,18.79-11.49-114.12-4.16-184.23-42.41-229-82C1360.72,2030.25,1375.92,1954,1281.38,1903.09Z" fill="#fff" opacity="0.48" style="mix-blend-mode:soft-light"/><path d="M2236.55,1781.14v853.73c0,12.77-14,16.51-29.82,18.05l-548.1,61.29-8.37.81c-17.2,1.67-31.3-7.87-31.3-21.21V1801.69c0-13.34,14.1-24.7,31.3-25.24l11.37-.36,550,1.8C2227.51,1777.39,2236.55,1768.37,2236.55,1781.14Z" fill="url(#linear-gradient-9)"/><path d="M2253.46,1780.17v853.49c0,12.77-12.94,24.47-28.78,26l-557.2,54.12c-17.19,1.67-31.28-7.88-31.28-21.21V1800.71c0-13.34,14.09-24.7,31.28-25.24l557.2-17.6C2240.52,1757.37,2253.46,1767.4,2253.46,1780.17Z" fill="url(#linear-gradient-10)"/><path d="M2235.59,1828.13V2619c0,11.92-12.09,22.83-26.9,24.25l-523.94,50.21c-16,1.53-29.1-7.38-29.1-19.8V1849.42c0-12.42,13.11-23,29.1-23.6l523.94-18.42C2223.5,1806.88,2235.59,1816.21,2235.59,1828.13Z" fill="url(#linear-gradient-11)"/><path d="M2152.11,2175.41c0,106.85-86.09,199.22-192.63,206.34-106.89,7.15-193.82-74.19-193.82-181.7s86.93-199.93,193.82-206.42C2066,1987.17,2152.11,2068.57,2152.11,2175.41Z" fill="#fff"/><path d="M1952.68,2292.7a22.19,22.19,0,0,1-20.51-10.31l-72.84-117c-6.83-11-3.15-26,8.21-33.53s26.08-4.79,32.9,6.17l50.51,81.19,66.66-135.75c6-12.18,20.35-17.77,32.09-12.49s16.4,19.43,10.43,31.61L1974,2278.19a25.94,25.94,0,0,1-20.47,14.44Z" fill="url(#linear-gradient-12)"/><g opacity="0.48" style="mix-blend-mode:soft-light"><path d="M2073.33,2271.3c-50.69-101.72-169.17-77.44-213.67-188.39-26.55-66.18,6.5-97.57-13.41-178.31-13.47-54.64-42.87-98.19-76.19-132.37l-102.58,3.24c-17.19.54-31.28,11.9-31.28,25.24v891.87c0,13.33,14.09,22.88,31.28,21.21l448.41-43.56c-33.21-46.14-47.42-89.53-52.54-127.18C2047.46,2426.27,2118.36,2361.66,2073.33,2271.3Z" fill="#fff"/></g><path d="M2540,2138.16v589.18c0,8.81-7.52,11.25-16.06,12.14l-294.14,36.42-4.48.47a14.8,14.8,0,0,1-16.72-14.91V2148.57a17.35,17.35,0,0,1,16.72-17.15l6.08-.18,295.19,4.53C2535.17,2135.51,2540,2129.35,2540,2138.16Z" fill="url(#linear-gradient-13)"/><path d="M2549.16,2137.59v589.09c0,8.81-7,16.75-15.51,17.65l-299.08,31.37a14.79,14.79,0,0,1-16.72-14.9V2148a17.35,17.35,0,0,1,16.72-17.15l299.08-8.82A15.26,15.26,0,0,1,2549.16,2137.59Z" fill="url(#linear-gradient-14)"/><path d="M2539.53,2170.58v545.81c0,8.23-6.52,15.63-14.5,16.46l-281.23,29.08a13.8,13.8,0,0,1-15.55-13.91V2181.6a16.25,16.25,0,0,1,15.55-16l281.23-9.44A14.19,14.19,0,0,1,2539.53,2170.58Z" fill="url(#linear-gradient-15)"/><path d="M2506.35,2413.14c0,63.62-51,118.69-114,123s-114.45-43.9-114.45-107.75,51.29-118.95,114.45-123.06S2506.35,2349.52,2506.35,2413.14Z" fill="#fff"/><path d="M2388.3,2483.22a13.09,13.09,0,0,1-12.12-6.11l-43-69.42c-4-6.51-1.86-15.43,4.85-20s15.4-2.89,19.43,3.61l29.85,48.19,39.42-80.86c3.54-7.26,12-10.62,19-7.5s9.71,11.53,6.18,18.79l-51,104.59a15.39,15.39,0,0,1-12.1,8.61Z" fill="url(#linear-gradient-16)"/><g opacity="0.48" style="mix-blend-mode:soft-light"><path d="M2451.93,2490.41c-27.29-68.61-100.86-52.4-123.77-121.75-18.71-56.6,22.9-89.77,6.61-155.31-9.14-36.77-31.63-64.09-54.62-83.85l-45.58,1.35a17.35,17.35,0,0,0-16.72,17.15v612.8a14.79,14.79,0,0,0,16.72,14.9l229.29-24c-18.4-29-25.79-55.52-28.41-77.53C2426,2594,2476.93,2553.27,2451.93,2490.41Z" fill="#fff"/></g><path d="M2353.52,368.15C2260.58,325.53,2157,336.93,2072,389.06,2047.94,235.28,1957.47,100.8,1817.83,37,1590.39-67,1319.18,56,1210.9,310.32a557.86,557.86,0,0,0-44.51,199.54,223.31,223.31,0,0,0-36.72-21.78C1008,430.91,862.31,496.44,804,634c-58.22,137.3-9.72,300.25,113.14,353.22,65.82,28.37,171.69,37.21,171.69,37.21s1052.85,3.34,1085.8,6.18c131.92,11.41,266.22-69.3,327.71-210.18C2579.39,643.89,2512.51,441.06,2353.52,368.15Z" fill="url(#linear-gradient-17)"/><path d="M2396,381.11c-93-42.63-196.72-31.22-281.76,20.93-24.08-153.83-114.62-288.37-254.38-352.23-227.63-104-499.07,19.12-607.44,273.51a558,558,0,0,0-44.54,199.62,224.71,224.71,0,0,0-36.75-21.78c-121.8-57.19-267.59,8.38-326,146-58.26,137.36-7.71,295.36,113.24,353.35,25.65,12.31,171.83,37.22,171.83,37.22S2184,1041,2217,1043.88c132,11.4,266.45-69.35,328-210.29C2622.09,657,2555.15,454,2396,381.11Z" fill="url(#linear-gradient-18)"/><g opacity="0.3" style="mix-blend-mode:soft-light"><path d="M1719.82,764.61c-129.65-157.45-12-343.44-142.3-455.34-88.49-76-198.4-37.56-285.78-61.61a560.64,560.64,0,0,0-83.84,275.28,224.71,224.71,0,0,0-36.75-21.78c-121.8-57.19-267.59,8.38-326,146-58.26,137.36-7.71,295.36,113.24,353.35,25.65,12.31,171.83,37.22,171.83,37.22S2184,1041,2217,1043.88a291.14,291.14,0,0,0,64.45-1.66c-41-41.19-81.58-71.06-119.09-93.33C1972.91,836.46,1829.72,898.07,1719.82,764.61Z" fill="#fff"/></g><path d="M1990.73,1727.56a13.85,13.85,0,0,1-13.86-13.86v-41.57a13.86,13.86,0,1,1,27.72,0v41.57A13.86,13.86,0,0,1,1990.73,1727.56Zm0-103.94a13.86,13.86,0,0,1-13.86-13.86v-41.58a13.86,13.86,0,1,1,27.72,0v41.58A13.87,13.87,0,0,1,1990.73,1623.62Zm0-103.94a13.86,13.86,0,0,1-13.86-13.86v-41.58a13.86,13.86,0,1,1,27.72,0v41.58A13.87,13.87,0,0,1,1990.73,1519.68Zm0-104a13.85,13.85,0,0,1-13.86-13.86v-41.58a13.86,13.86,0,0,1,27.72,0v41.58A13.86,13.86,0,0,1,1990.73,1415.73Zm0-103.94a13.86,13.86,0,0,1-13.86-13.86v-41.58a13.86,13.86,0,1,1,27.72,0v41.58A13.87,13.87,0,0,1,1990.73,1311.79Zm0-104a13.85,13.85,0,0,1-13.86-13.86v-41.57a13.86,13.86,0,1,1,27.72,0V1194A13.86,13.86,0,0,1,1990.73,1207.84Zm0-103.94a13.86,13.86,0,0,1-13.86-13.86v-13.86a13.86,13.86,0,1,1,27.72,0V1090A13.87,13.87,0,0,1,1990.73,1103.9Z" fill="url(#linear-gradient-19)"/><path d="M350.22,1005.71a13.86,13.86,0,0,1-13.86-13.86V971.06a13.86,13.86,0,1,1,27.72,0v20.79A13.87,13.87,0,0,1,350.22,1005.71Z" fill="url(#linear-gradient-20)"/><path d="M350.22,922.55a13.85,13.85,0,0,1-13.86-13.86V867.12a13.86,13.86,0,1,1,27.72,0v41.57A13.86,13.86,0,0,1,350.22,922.55Zm0-103.94a13.86,13.86,0,0,1-13.86-13.86V763.17a13.86,13.86,0,1,1,27.72,0v41.58A13.87,13.87,0,0,1,350.22,818.61Zm0-104a13.85,13.85,0,0,1-13.86-13.85V659.23a13.86,13.86,0,1,1,27.72,0v41.58A13.86,13.86,0,0,1,350.22,714.66Zm0-103.94a13.85,13.85,0,0,1-13.86-13.86V555.28a13.86,13.86,0,1,1,27.72,0v41.58A13.86,13.86,0,0,1,350.22,610.72Zm0-103.94a13.86,13.86,0,0,1-13.86-13.86V451.34a13.86,13.86,0,1,1,27.72,0v41.58A13.87,13.87,0,0,1,350.22,506.78Z" fill="url(#linear-gradient-21)"/><path d="M350.22,392.44a13.86,13.86,0,0,1-13.86-13.86V357.79a13.86,13.86,0,0,1,13.86-13.86H371a13.86,13.86,0,0,1,0,27.72h-6.93v6.93A13.87,13.87,0,0,1,350.22,392.44Z" fill="url(#linear-gradient-22)"/><path d="M973.88,371.65H932.3a13.86,13.86,0,1,1,0-27.72h41.58a13.86,13.86,0,1,1,0,27.72Zm-100.48,0H831.82a13.86,13.86,0,0,1,0-27.72H873.4a13.86,13.86,0,1,1,0,27.72Zm-100.48,0H731.34a13.86,13.86,0,0,1,0-27.72h41.58a13.86,13.86,0,1,1,0,27.72Zm-100.48,0H630.87a13.86,13.86,0,0,1,0-27.72h41.57a13.86,13.86,0,0,1,0,27.72Zm-100.48,0H530.39a13.86,13.86,0,0,1,0-27.72H572a13.86,13.86,0,1,1,0,27.72Zm-100.48,0H429.91a13.86,13.86,0,0,1,0-27.72h41.57a13.86,13.86,0,0,1,0,27.72Z" fill="url(#linear-gradient-23)"/><path d="M1053.57,371.65h-20.79a13.86,13.86,0,0,1,0-27.72h20.79a13.86,13.86,0,1,1,0,27.72Z" fill="url(#linear-gradient-24)"/><path d="M14.63,2612.7v54.89h.08c3.37,33.13,141.94,94,343.21,95.11,295.93,1.65,395.87-64.43,400.52-98.27h.11v-50.58Z" fill="url(#linear-gradient-25)"/><path d="M758.55,2614.05c0,34.13-170.75,61.07-378,60.2-203.56-.86-365.95-28.32-365.95-61.35s162.39-60,366-60.22C587.8,2552.46,758.55,2579.93,758.55,2614.05Z" fill="url(#linear-gradient-26)"/><path d="M755.67,2609.9c0,33.87-169.45,60.66-375.14,59.87-202.11-.78-363.37-28-363.37-60.8s161.26-59.62,363.37-59.89C586.22,2548.81,755.67,2576,755.67,2609.9Z" fill="url(#linear-gradient-27)"/><polygon points="758.55 2664.43 758.55 2613.85 14.63 2612.7 14.63 2667.59 758.55 2664.43" fill="url(#linear-gradient-28)"/><path d="M758.55,2614.05c0,34.13-170.75,61.07-378,60.2-203.56-.86-365.95-28.32-365.95-61.35s162.39-60,366-60.22C587.8,2552.46,758.55,2579.93,758.55,2614.05Z" fill="url(#linear-gradient-26)"/><path d="M755.67,2609.9c0,33.87-169.45,60.66-375.14,59.87-202.11-.78-363.37-28-363.37-60.8s161.26-59.62,363.37-59.89C586.22,2548.81,755.67,2576,755.67,2609.9Z" fill="url(#linear-gradient-27)"/><path d="M14.63,2508.66v54.89h.08c3.37,33.13,141.94,91.09,343.21,90.06,318.93-1.64,395.87-59.39,400.52-93.23h.11v-50.58Z" fill="url(#linear-gradient-31)"/><path d="M758.55,2510c0,34.12-170.75,61.06-378,60.19-203.56-.85-365.95-28.32-365.95-61.35s162.39-60,366-60.21C587.8,2448.42,758.55,2475.9,758.55,2510Z" fill="url(#linear-gradient-32)"/><path d="M755.67,2505.86c0,33.87-169.45,60.67-375.14,59.87-202.11-.78-363.37-28-363.37-60.8s161.26-59.61,363.37-59.88C586.22,2444.77,755.67,2472,755.67,2505.86Z" fill="url(#linear-gradient-33)"/><polygon points="758.55 2560.39 758.55 2509.81 14.63 2508.66 14.63 2563.55 758.55 2560.39" fill="url(#linear-gradient-34)"/><path d="M758.55,2510c0,34.12-170.75,61.06-378,60.19-203.56-.85-365.95-28.32-365.95-61.35s162.39-60,366-60.21C587.8,2448.42,758.55,2475.9,758.55,2510Z" fill="url(#linear-gradient-32)"/><path d="M755.67,2505.86c0,33.87-169.45,60.67-375.14,59.87-202.11-.78-363.37-28-363.37-60.8s161.26-59.61,363.37-59.88C586.22,2444.77,755.67,2472,755.67,2505.86Z" fill="url(#linear-gradient-33)"/><path d="M14.63,2404.37v54.89h.08c3.37,33.13,141.94,91.09,343.21,90.05,318.93-1.64,395.87-59.38,400.52-93.22h.11v-50.58Z" fill="url(#linear-gradient-37)"/><path d="M758.55,2405.72c0,34.13-170.75,61.07-378,60.2-203.56-.86-365.95-28.32-365.95-61.35s162.39-60,366-60.22C587.8,2344.13,758.55,2371.6,758.55,2405.72Z" fill="url(#linear-gradient-38)"/><path d="M755.67,2401.57c0,33.87-169.45,60.67-375.14,59.87-202.11-.78-363.37-28-363.37-60.8s161.26-59.61,363.37-59.88C586.22,2340.48,755.67,2367.71,755.67,2401.57Z" fill="url(#linear-gradient-39)"/><polygon points="758.55 2456.1 758.55 2405.52 14.63 2404.37 14.63 2459.26 758.55 2456.1" fill="url(#linear-gradient-40)"/><path d="M758.55,2405.72c0,34.13-170.75,61.07-378,60.2-203.56-.86-365.95-28.32-365.95-61.35s162.39-60,366-60.22C587.8,2344.13,758.55,2371.6,758.55,2405.72Z" fill="url(#linear-gradient-38)"/><path d="M755.67,2401.57c0,33.87-169.45,60.67-375.14,59.87-202.11-.78-363.37-28-363.37-60.8s161.26-59.61,363.37-59.88C586.22,2340.48,755.67,2367.71,755.67,2401.57Z" fill="url(#linear-gradient-39)"/><path d="M14.63,2300.08V2355h.08c3.37,33.13,141.94,91.1,343.21,90.06,318.93-1.64,395.87-59.38,400.52-93.22h.11v-50.58Z" fill="url(#linear-gradient-43)"/><path d="M758.55,2301.43c0,34.12-170.75,61.07-378,60.2-203.56-.86-365.95-28.32-365.95-61.36s162.39-60,366-60.21C587.8,2239.84,758.55,2267.31,758.55,2301.43Z" fill="url(#linear-gradient-44)"/><path d="M755.67,2297.28c0,33.87-169.45,60.66-375.14,59.87-202.11-.78-363.37-28-363.37-60.8s161.26-59.62,363.37-59.89C586.22,2236.19,755.67,2263.41,755.67,2297.28Z" fill="url(#linear-gradient-45)"/><polygon points="758.55 2351.81 758.55 2301.23 14.63 2300.08 14.63 2354.97 758.55 2351.81" fill="url(#linear-gradient-46)"/><path d="M758.55,2301.43c0,34.12-170.75,61.07-378,60.2-203.56-.86-365.95-28.32-365.95-61.36s162.39-60,366-60.21C587.8,2239.84,758.55,2267.31,758.55,2301.43Z" fill="url(#linear-gradient-44)"/><path d="M755.67,2297.28c0,33.87-169.45,60.66-375.14,59.87-202.11-.78-363.37-28-363.37-60.8s161.26-59.62,363.37-59.89C586.22,2236.19,755.67,2263.41,755.67,2297.28Z" fill="url(#linear-gradient-45)"/><path d="M14.63,2195.79v54.89h.08c3.37,33.13,141.94,91.1,343.21,90.06,318.93-1.64,395.87-59.39,400.52-93.22h.11v-50.58Z" fill="url(#linear-gradient-49)"/><path d="M758.55,2197.14c0,34.12-170.75,61.07-378,60.2C177,2256.48,14.63,2229,14.63,2196s162.39-60,366-60.21C587.8,2135.54,758.55,2163,758.55,2197.14Z" fill="url(#linear-gradient-50)"/><path d="M755.67,2193c0,33.86-169.45,60.66-375.14,59.87-202.11-.79-363.37-28-363.37-60.81s161.26-59.61,363.37-59.88C586.22,2131.9,755.67,2159.12,755.67,2193Z" fill="url(#linear-gradient-51)"/><polygon points="758.55 2247.52 758.55 2196.94 14.63 2195.79 14.63 2250.68 758.55 2247.52" fill="url(#linear-gradient-52)"/><path d="M758.55,2197.14c0,34.12-170.75,61.07-378,60.2C177,2256.48,14.63,2229,14.63,2196s162.39-60,366-60.21C587.8,2135.54,758.55,2163,758.55,2197.14Z" fill="url(#linear-gradient-50)"/><path d="M755.67,2193c0,33.86-169.45,60.66-375.14,59.87-202.11-.79-363.37-28-363.37-60.81s161.26-59.61,363.37-59.88C586.22,2131.9,755.67,2159.12,755.67,2193Z" fill="url(#linear-gradient-51)"/><path d="M14.63,2091.49v54.9h.08c3.37,33.13,141.94,91.09,343.21,90.06,318.93-1.64,395.87-59.39,400.52-93.23h.11v-50.58Z" fill="url(#linear-gradient-55)"/><path d="M758.55,2092.85c0,34.12-170.75,61.06-378,60.19-203.56-.85-365.95-28.31-365.95-61.35s162.39-60,366-60.21C587.8,2031.25,758.55,2058.73,758.55,2092.85Z" fill="url(#linear-gradient-56)"/><path d="M755.67,2088.7c0,33.86-169.45,60.66-375.14,59.86-202.11-.78-363.37-28-363.37-60.8s161.26-59.61,363.37-59.88C586.22,2027.6,755.67,2054.83,755.67,2088.7Z" fill="url(#linear-gradient-57)"/><polygon points="758.55 2143.22 758.55 2092.64 14.63 2091.49 14.63 2146.39 758.55 2143.22" fill="url(#linear-gradient-58)"/><path d="M758.55,2092.85c0,34.12-170.75,61.06-378,60.19-203.56-.85-365.95-28.31-365.95-61.35s162.39-60,366-60.21C587.8,2031.25,758.55,2058.73,758.55,2092.85Z" fill="url(#linear-gradient-56)"/><path d="M755.67,2088.7c0,33.86-169.45,60.66-375.14,59.86-202.11-.78-363.37-28-363.37-60.8s161.26-59.61,363.37-59.88C586.22,2027.6,755.67,2054.83,755.67,2088.7Z" fill="url(#linear-gradient-57)"/><path d="M14.63,1987.2v54.89h.08c3.37,33.13,141.94,91.09,343.21,90.06,318.93-1.64,395.87-59.39,400.52-93.23h.11v-50.58Z" fill="url(#linear-gradient-61)"/><path d="M758.55,1988.56c0,34.12-170.75,61.06-378,60.19C177,2047.9,14.63,2020.43,14.63,1987.4s162.39-60,366-60.22C587.8,1927,758.55,1954.43,758.55,1988.56Z" fill="url(#linear-gradient-62)"/><path d="M755.67,1984.4c0,33.87-169.45,60.67-375.14,59.87-202.11-.78-363.37-28-363.37-60.8s161.26-59.61,363.37-59.88C586.22,1923.31,755.67,1950.54,755.67,1984.4Z" fill="url(#linear-gradient-63)"/><polygon points="758.55 2038.93 758.55 1988.35 14.63 1987.2 14.63 2042.09 758.55 2038.93" fill="url(#linear-gradient-64)"/><path d="M758.55,1988.56c0,34.12-170.75,61.06-378,60.19C177,2047.9,14.63,2020.43,14.63,1987.4s162.39-60,366-60.22C587.8,1927,758.55,1954.43,758.55,1988.56Z" fill="url(#linear-gradient-62)"/><path d="M755.67,1984.4c0,33.87-169.45,60.67-375.14,59.87-202.11-.78-363.37-28-363.37-60.8s161.26-59.61,363.37-59.88C586.22,1923.31,755.67,1950.54,755.67,1984.4Z" fill="url(#linear-gradient-63)"/><polygon points="420.56 1814.69 747.07 1733.02 763.4 1812.35 464.49 1950.31 227.81 1891.84 85.03 1751.65 420.56 1814.69" fill="url(#linear-gradient-67)"/><polygon points="420.56 1814.69 747.07 1733.02 763.4 1812.35 464.49 1950.31 227.81 1891.84 85.03 1751.65 420.56 1814.69" fill="url(#linear-gradient-68)"/><path d="M410.29,1924.49a886.27,886.27,0,0,0,145.36-97c64-52.7,93.37-92.46,158.18-108.17,11.58-2.81,77.56-18.8,98.86,10.5,23.57,32.44-22.26,100.28-27.83,108.52-82.79,122.55-293.62,116.83-359.75,112.85Z" fill="url(#linear-gradient-69)"/><path d="M812.69,1729.81c-6.23-8.56-16.31-13.18-27.69-15.47,3.79,13.12,4.13,25.42-.6,36.17-12.94,29.39-51.25,20.34-78.15,54.83-26.43,33.87-8.14,66.52-31.5,80.49-26.78,16-60-21.4-88.65-3.5-19.5,12.16-13.44,35.25-36.16,47.82-15.71,8.69-31.1,4.58-49,2.33-20.51-2.57-48.6-3.12-83.87,4.24l8,14.46c66.13,4,277,9.7,359.75-112.85C790.43,1830.09,836.26,1762.25,812.69,1729.81Z" opacity="0.3" fill="url(#linear-gradient-70)" style="mix-blend-mode:multiply"/><path d="M459.36,1942.8s11.89-8.52,29.14-2.71,44.66,10.5,44.62,18.93-27.46,13.72-46.4,10.25C468.59,1966,454.34,1950.21,459.36,1942.8Z" fill="url(#linear-gradient-71)"/><path d="M441.93,1928.4l31.76,10.22s5.16,8.59-1.81,14-31.15-6.08-31.15-6.08Z" fill="url(#linear-gradient-72)"/><path d="M.53,1782C-8.85,1836.6,109,1895.66,136,1909.18c55,27.55,158.41,66.45,311.92,51.59q3.06-18.37,6.13-36.74a726.7,726.7,0,0,1-85.21-35.4c-59.52-29.27-82.11-50.18-164.7-100.11-91.39-55.25-118-62.34-145.24-55.5C35.57,1738.86,4.89,1756.64.53,1782Z" fill="url(#linear-gradient-73)"/><path d="M123.3,1678.19c-19.92-72,13-169.22,82.24-216.09,56.54-38.25,122.8-35.76,143.47-35,22.63.85,20.3,3.79,91.54,17,98.9,18.3,108,13.86,136.8,27.65,54.1,25.93,80.35,73,85.26,82.2,25.14,46.91,45.6,134.11-2.15,176.75-27.14,24.25-65.2,24.15-86.61,21.88q-2.19-14.44-4.37-28.87c4.35-3.38,30.06-24,33.24-60.37,3.65-41.81-25.57-68.8-28.87-71.74a283.95,283.95,0,0,0-22.1,204.89A339,339,0,0,1,426,1836.54c-42.45,4.7-95,10.51-128.6-15.75-47.42-37-51.42-133.54-4.6-234-17.14,11.48-42,32.25-52.27,65.13-1.56,5-4.19,14.73-5.25,52.49C233.39,1772.29,143.94,1752.84,123.3,1678.19Z" fill="#fff"/><path d="M444.37,1728.06c-23.86,2.93-30.35,27.7-52.49,26.25-48.17-3.16-86.83-86.55-66.49-132.11,13.27-29.7,47.85-34.88,45.49-54.24-1.88-15.49-25.89-27.41-45.49-28-30.52-.91-50.67,25.67-57.74,35-16.52,21.79-20.09,45.72-20.46,61.11,12.13-23.79,31.44-39.76,45.61-49.25-46.82,100.43-42.82,196.92,4.6,234,33.6,26.26,86.15,20.45,128.6,15.75A337,337,0,0,0,535.17,1805C509.58,1763.34,477,1724.06,444.37,1728.06Z" opacity="0.2" fill="url(#linear-gradient-74)" style="mix-blend-mode:multiply"/><polygon points="527.52 1796.01 248.34 1791.84 322.58 1827.67 528.23 1814.21 527.52 1796.01" fill="url(#linear-gradient-75)"/><path d="M238.49,1799.26h0a12.43,12.43,0,0,0,8.18,11.68l89.21,35,.4-24.25-87.94-29.82A7.72,7.72,0,0,0,238.49,1799.26Z" fill="url(#linear-gradient-76)"/><path d="M136.8,1630.2c21.54-20.39,74.39-7.55,94.11,21.75,14.51,21.57,2.5,39.31,13.12,66.49,13,33.29,62.09,63.38,92.25,73.4-4.72,10.17-3.33,12.8-8,23-19.19-2.39-157.88-23.64-191.81-106C134.66,1704.52,113.7,1652.06,136.8,1630.2Z" fill="#fff"/><path d="M462.79,1407.75s-25.31,27.37-46.32,30.22-51.37-2.73-56.6,0,26.38,14,51.46,20.86,70.61,20.62,83.19,17.61-13.75-19.15-24.18-23.43,4.49-26.26,4.49-26.26Z" fill="url(#linear-gradient-77)"/><path d="M500.35,1423.42c9.15-2.52,17.51-12.79,17.41-23.44-.09-9.16-6.53-15.41-10.38-19.16-11.15-10.84-30.54-17.63-44.6-10.5-8.33,4.22-12.13,23.41-13,26.73-.95,3.76.52,6.44.92,10.15.56,5.15,1.39,13.27,2.58,26.73a63.65,63.65,0,0,1,9.18-6.17,56.62,56.62,0,0,1,13.34-5.28C488.21,1419.61,491.67,1425.82,500.35,1423.42Z" fill="url(#linear-gradient-78)"/><path d="M448.06,1419.34s-2.13,19.41,14.7,30.71c15.07,10.12,42-20.44,38.06-34.33-1.3-4.63-6.7-10.3-12.75-12.74-3.58-1.44-5.52-1-11.31-3.45-5.35-2.28-6.23-3.74-8.45-3.65-2.77.12-6.68,2.64-11.11,14.22-.61-4.88-3.07-8.48-6.25-9.17a6.15,6.15,0,0,0-3.34.39C442.77,1403.45,442.51,1410.73,448.06,1419.34Z" fill="url(#linear-gradient-79)"/><path d="M469.15,1393.46c.29,1-3.81,2-6.78,5.53-5.78,6.86-5.16,20.9,1.61,27.27,4,3.76,7.21,2.07,14.95,6.83a41.43,41.43,0,0,1,10,8.64c-3.75,9.52-11.84,15.64-19.81,15.24-8.59-.44-13.93-8.3-16.16-11.59-1.49-2.2-6.29-9.23-5.11-17.69,1.23-8.81,7.5-9.86,6.68-17.09-.41-3.65-2.36-6.59-1.83-12.63a25.5,25.5,0,0,1,.65-3.85C460.05,1393.05,468.72,1391.94,469.15,1393.46Z" fill="url(#linear-gradient-80)"/><path d="M481.48,1440.6s-4.35-.76-9.48-5.19c-.24-.22-.59-.36-.73-.25-.51.41,1.17,5.34,5,6.88,2.74,1.1,6.12.32,6.24-.45C482.58,1441.26,482,1440.9,481.48,1440.6Z" fill="url(#linear-gradient-81)"/><path d="M343.69,1651.55,324,1830.73c-.68,6.18,8,15.39,14.19,15.09l288.68-17.72a10.12,10.12,0,0,0,9.5-8.39l36.23-173.06c1.08-6.29-10.24-12.8-16.63-12.62l-302.52,8.51A10.11,10.11,0,0,0,343.69,1651.55Z" fill="url(#linear-gradient-82)"/><path d="M350.28,1656.78,330.61,1836a10.12,10.12,0,0,0,10.54,11.22l292.33-13.84a10.14,10.14,0,0,0,9.5-8.4l29.86-173.84a10.12,10.12,0,0,0-10.26-11.83l-302.52,8.5A10.13,10.13,0,0,0,350.28,1656.78Z" fill="url(#linear-gradient-83)"/><path d="M521.94,1791.34c-25.52-10.82-16.51-31.45-46.66-57.16-39.76-33.91-80.29-19.2-94.48-45.49-4.42-8.19-6.53-20.92,1.17-41.54l-21.91.61a10.13,10.13,0,0,0-9.78,9L330.61,1836a10.12,10.12,0,0,0,10.54,11.22l292.33-13.84a10.14,10.14,0,0,0,9.5-8.4l4.12-24A110.63,110.63,0,0,0,615.26,1789C572.37,1780.31,551.33,1803.8,521.94,1791.34Z" opacity="0.3" fill="url(#linear-gradient-84)" style="mix-blend-mode:multiply"/></g></g></svg>