<?xml version="1.0" encoding="utf-8"?>
<!-- Generator: Adobe Illustrator 26.3.1, SVG Export Plug-In . SVG Version: 6.00 Build 0)  -->
<svg version="1.1" id="Layer_1" xmlns="http://www.w3.org/2000/svg" xmlns:xlink="http://www.w3.org/1999/xlink" x="0px" y="0px"
	 viewBox="0 0 1542.41 1590.69" style="enable-background:new 0 0 1542.41 1590.69;" xml:space="preserve">
<g>
	<g>
		<g>
			<path style="fill:#0F5BA7;" d="M1522.28,1429.14L15.06,1416.29v38.01c0,10.32,6.57,19.09,15.48,20.65l426.2,74.86
				c5.06,0.89,10.19,1.12,15.29,0.7l1033.88-85.35c9.23-0.76,16.38-9.56,16.38-20.16v-15.86H1522.28z"/>
			<g>
				<path style="fill:#BFC8D6;" d="M975.32,1368.22l-944.67,69.54C13.74,1439.01,0,1425.78,0,1408.23V704.76
					c0-17.56,13.74-31.79,30.65-31.79h944.67c13.93,0,25.19,12.87,25.19,28.74v635.92C1000.5,1353.5,989.24,1367.2,975.32,1368.22z"
					/>
				<path style="fill:#BFC8D6;" d="M990.38,1368.22l-944.67,69.54c-16.9,1.24-30.65-11.98-30.65-29.54V704.76
					c0-17.56,13.74-31.79,30.65-31.79h944.67c13.93,0,25.19,12.87,25.19,28.74v635.92C1015.57,1353.5,1004.31,1367.2,990.38,1368.22
					z"/>
				<path style="fill:#BB4079;" d="M960.95,1323.39L81.09,1383.8c-13.76,0.94-24.94-9.91-24.94-24.24v-615.9
					c0-14.33,11.18-26,24.94-26.06l879.86-3.79c11.49-0.05,20.78,10.49,20.78,23.55v560.96
					C981.73,1311.38,972.44,1322.6,960.95,1323.39z"/>
				<path style="fill:#FFFFFF;" d="M551.41,692.21c0,6.54-4.86,11.85-10.87,11.87s-10.89-5.28-10.89-11.83s4.88-11.87,10.89-11.87
					C546.55,680.37,551.41,685.67,551.41,692.21z"/>
				<path style="opacity:0.48;fill:#FFFFFF;enable-background:new    ;" d="M45.71,1437.76l939.89-69.19l4.78-0.35
					c6.39-0.47,12.2-3.63,16.64-8.42c-67.64-3.7-109.65-27.7-136.74-52.5c-54.42-49.81-44.98-98.92-103.67-131.67
					c-73.2-40.84-130.75,10.91-186.3-40.15c-33.67-30.96-17.14-54.04-58.58-100.31c-45.89-51.24-75.77-34.02-121.9-80.13
					c-58.32-58.31-29.15-103.68-79.39-145.55C259.5,758.7,193.78,805.71,135.77,757c-25.02-21.01-38.75-51.55-45.92-84.03H45.71
					c-16.9,0-30.65,14.23-30.65,31.79v703.47C15.06,1425.78,28.8,1439,45.71,1437.76z"/>
			</g>
			<path style="fill:#D8DEE8;" d="M1028.03,1364.36l-1012.97,73.2l441.67,77.57c5.06,0.89,10.19,1.12,15.29,0.7l1050.25-86.7
				l-478.14-64.28C1038.8,1364.14,1033.41,1363.98,1028.03,1364.36z"/>
			<polygon style="fill:#0F5BA7;" points="162.87,1438.19 1006.2,1376.34 1267.2,1411.15 431.14,1477.26 			"/>
		</g>
	</g>
	<g>
		<path style="fill:#EDEDED;" d="M1113.07,1179.17c0,77.83-63.49,144.95-142.9,149.99l-884.6,56.16l0,0
			c93.54-5.94,168.23-79.1,168.23-163.49V250.99l859.27,32.87V1179.17z"/>
		<g>
			<polygon style="fill:#D8DEE8;" points="1052.08,815.4 387.29,824.61 387.29,797.94 1052.08,790.35 			"/>
			<polygon style="fill:#D8DEE8;" points="333.06,825.36 363.17,824.95 363.17,798.21 333.06,798.56 			"/>
		</g>
		<g>
			<polygon style="fill:#D8DEE8;" points="1052.08,856.76 387.29,868.66 387.29,841.98 1052.08,831.71 			"/>
			
				<linearGradient id="SVGID_1_" gradientUnits="userSpaceOnUse" x1="325.0038" y1="794.505" x2="378.8544" y2="648.6193" gradientTransform="matrix(1 0 0 -1 0 1587.8899)">
				<stop  offset="0" style="stop-color:#FF9085"/>
				<stop  offset="1" style="stop-color:#FB6FBB"/>
			</linearGradient>
			<polygon style="fill:url(#SVGID_1_);" points="333.06,869.63 363.17,869.09 363.17,842.36 333.06,842.82 			"/>
		</g>
		<g>
			<polygon style="fill:#D8DEE8;" points="1052.08,898.12 387.29,912.71 387.29,886.03 1052.08,873.07 			"/>
			
				<linearGradient id="SVGID_00000050638308677581507210000007222179225482292647_" gradientUnits="userSpaceOnUse" x1="339.4968" y1="711.0373" x2="393.1721" y2="565.6262" gradientTransform="matrix(1 0 0 -1 0 1587.8899)">
				<stop  offset="0" style="stop-color:#FF9085"/>
				<stop  offset="1" style="stop-color:#FB6FBB"/>
			</linearGradient>
			<polygon style="fill:url(#SVGID_00000050638308677581507210000007222179225482292647_);" points="333.06,913.9 363.17,913.24 
				363.17,886.5 333.06,887.09 			"/>
		</g>
		<g>
			<polygon style="fill:#D8DEE8;" points="1052.08,939.49 387.29,956.75 387.29,930.08 1052.08,914.43 			"/>
			<polygon style="fill:#D8DEE8;" points="333.06,958.16 363.17,957.38 363.17,930.65 333.06,931.35 			"/>
		</g>
		<g>
			<polygon style="fill:#D8DEE8;" points="1052.08,1022.21 333.06,1046.69 333.06,1019.89 1052.08,997.16 			"/>
		</g>
		<g>
			<polygon style="fill:#D8DEE8;" points="1052.08,1063.57 333.06,1090.96 333.06,1064.15 1052.08,1038.52 			"/>
		</g>
		<g>
			<polygon style="fill:#D8DEE8;" points="1052.08,1104.93 333.06,1135.23 333.06,1108.42 1052.08,1079.88 			"/>
		</g>
		<g>
			<polygon style="fill:#D8DEE8;" points="1052.08,1146.29 333.06,1179.49 333.06,1152.68 1052.08,1121.24 			"/>
		</g>
		<g>
			<polygon style="fill:#D8DEE8;" points="333.06,553.24 1051.58,556.06 1051.58,583.83 333.06,583.83 			"/>
			<polygon style="fill:#D8DEE8;" points="333.06,506.24 1051.58,513.39 1051.58,541.16 333.06,536.84 			"/>
			<polygon style="fill:#BFC8D6;" points="333.06,430.89 1051.58,444.98 1051.58,498.5 333.06,489.84 			"/>
		</g>
		<g>
			<polygon style="fill:#D8DEE8;" points="333.06,637.99 1051.58,636.3 1051.58,649.53 333.06,651.75 			"/>
			<polygon style="fill:#D8DEE8;" points="333.06,664.25 1051.58,661.55 1051.58,674.78 333.06,678.01 			"/>
			<polygon style="fill:#D8DEE8;" points="333.06,690.51 1051.58,686.81 1051.58,700.04 333.06,704.27 			"/>
			<polygon style="fill:#D8DEE8;" points="333.06,716.77 1051.58,712.06 1051.58,725.3 333.06,730.53 			"/>
			<polygon style="fill:#D8DEE8;" points="798.91,1268.2 1052.08,1253.44 1052.08,1267.59 798.91,1282.34 			"/>
		</g>
		<polygon style="fill:#D8DEE8;" points="676.31,1291.33 423.14,1306.6 423.14,1292.46 676.31,1277.19 		"/>
	</g>
	<g>
		<g>
			<ellipse style="fill:#EDEDED;" cx="290.35" cy="406.97" rx="213.65" ry="213.65"/>
			<ellipse style="fill:#F7921E;" cx="290.35" cy="406.97" rx="189.78" ry="189.78"/>
		</g>
		<path style="fill:#FFFFFF;" d="M402.32,357.52l-111.96-86.01L178.4,357.52c-5.43,4.17-2.48,12.86,4.37,12.86h15.83
			c-0.19,0.92-0.29,1.87-0.29,2.84v128.42c0,7.85,6.36,14.2,14.21,14.2H368.2c7.85,0,14.21-6.36,14.21-14.2V373.23
			c0-0.97-0.1-1.92-0.29-2.84h15.83C404.8,370.39,407.75,361.7,402.32,357.52z M326.75,465.9h-72.78v-72.78h72.78V465.9z"/>
	</g>
	<g>
		<g>
			
				<ellipse transform="matrix(0.7071 -0.7071 0.7071 0.7071 64.7883 583.7198)" style="fill:#EDEDED;" cx="737.01" cy="213.65" rx="213.65" ry="213.65"/>
			
				<ellipse transform="matrix(0.7071 -0.7071 0.7071 0.7071 64.7883 583.7198)" style="fill:#412B6C;" cx="737.01" cy="213.65" rx="189.78" ry="189.78"/>
		</g>
		<g>
			<path style="fill:#FFFFFF;" d="M719.39,331.55v-26.01c-23.12-1.16-45.66-7.52-58.08-14.16l10.4-41.61
				c14.45,6.94,35.25,14.45,57.79,14.45c15.32,0,26.88-3.47,26.88-13c0-8.67-8.97-13.58-32.95-19.36
				c-33.8-8.09-60.39-23.41-60.39-54.91c0-28.03,20.22-49.41,56.36-55.48V95.74h34.39v23.7c22.82,0.87,37.57,5.2,48.84,9.82
				l-10.12,40.17c-8.38-3.18-24.85-10.98-49.99-10.98c-18.49,0-23.12,6.07-23.12,11.85c0,7.22,12.42,13,38.14,20.23
				c40.17,10.98,55.19,27.17,55.19,55.77c0,27.45-20.52,50.57-58.94,56.64v28.61H719.39z"/>
		</g>
	</g>
	<g>
		<g>
			
				<linearGradient id="SVGID_00000149378118566456903350000011723260959835420831_" gradientUnits="userSpaceOnUse" x1="697.0986" y1="194.8348" x2="1014.9509" y2="194.8348" gradientTransform="matrix(1 0 0 -1 0 1587.8899)">
				<stop  offset="0" style="stop-color:#FCB148"/>
				<stop  offset="0.0521" style="stop-color:#FDBA46"/>
				<stop  offset="0.1424" style="stop-color:#FFC244"/>
				<stop  offset="0.3183" style="stop-color:#FFC444"/>
				<stop  offset="0.4849" style="stop-color:#FDB946"/>
				<stop  offset="0.7754" style="stop-color:#F99C4D"/>
				<stop  offset="0.8658" style="stop-color:#F8924F"/>
				<stop  offset="1" style="stop-color:#F8924F"/>
			</linearGradient>
			<path style="fill:url(#SVGID_00000149378118566456903350000011723260959835420831_);" d="M720.72,1368.77v30.64
				c0,9.9,61.85,17.93,138.14,17.93S997,1409.31,997,1399.41v-30.64H720.72z"/>
			
				<linearGradient id="SVGID_00000031929377042346964060000005051909337862739868_" gradientUnits="userSpaceOnUse" x1="857.4941" y1="230.6376" x2="874.251" y2="90.3586" gradientTransform="matrix(1 0 0 -1 0 1587.8899)">
				<stop  offset="0" style="stop-color:#FFDB44"/>
				<stop  offset="1" style="stop-color:#FEEF06"/>
			</linearGradient>
			<path style="fill:url(#SVGID_00000031929377042346964060000005051909337862739868_);" d="M997.01,1368.77
				c0,9.9-61.85,17.93-138.14,17.93s-138.14-8.03-138.14-17.93s61.85-17.93,138.14-17.93S997.01,1358.87,997.01,1368.77z"/>
			
				<linearGradient id="SVGID_00000158027917908019849610000000312284887602777014_" gradientUnits="userSpaceOnUse" x1="856.7634" y1="236.8933" x2="861.9098" y2="193.8105" gradientTransform="matrix(1 0 0 -1 0 1587.8899)">
				<stop  offset="0" style="stop-color:#FFDB44"/>
				<stop  offset="1" style="stop-color:#FEEF06"/>
			</linearGradient>
			<path style="fill:url(#SVGID_00000158027917908019849610000000312284887602777014_);" d="M858.86,1387.94
				c-67.57,0-138.22-6.45-138.22-18.9c0-0.68,0.24-1.89,0.93-1.89c0.68,0,0.39,0.94,0.39,1.62c0,7.89,56.23,16.69,136.91,16.69
				s136.91-8.8,136.91-16.69c0-0.68,0.12-1.32,0.8-1.32s0.52,0.91,0.52,1.6C997.09,1381.49,926.43,1387.94,858.86,1387.94z"/>
			<g>
				<path style="fill:#FCB048;" d="M845.81,1369.77c1.36-0.94,2.8-1.86,4.34-2.78c1.53-0.91,3.52-1.74,5.93-2.47
					c2.43-0.74,5.46-1.34,9.11-1.8c3.64-0.46,8.2-0.71,13.64-0.74c5.34-0.03,10.35,0.14,15.04,0.51c4.68,0.36,8.8,0.91,12.36,1.64
					c3.55,0.73,6.45,1.63,8.68,2.69c2.22,1.07,3.54,2.3,3.97,3.68l15.55,0.16c1.13,0.01,2.13,0.1,2.98,0.28
					c0.87,0.18,1.29,0.4,1.29,0.67l0.01,1.28l-20-0.19c-0.7,1.57-2.49,3-5.36,4.3c-2.86,1.3-6.51,2.43-10.97,3.38l-7.28-1.01
					c-0.65-0.1-1.19-0.23-1.61-0.38s-0.62-0.32-0.62-0.5c0-0.25,0.56-0.53,1.69-0.84c1.13-0.32,2.4-0.71,3.81-1.17
					c1.42-0.46,2.8-1.02,4.17-1.65c1.36-0.63,2.27-1.39,2.74-2.27l-47.2-0.47c-1.24,0.91-2.64,1.81-4.17,2.69
					c-1.54,0.88-3.58,1.67-6.12,2.38c-2.54,0.7-5.71,1.28-9.5,1.72c-3.8,0.44-8.56,0.67-14.32,0.7c-4.33,0.02-8.54-0.14-12.66-0.49
					c-4.13-0.35-7.79-0.87-10.99-1.57s-5.82-1.56-7.88-2.58c-2.05-1.03-3.19-2.2-3.43-3.54l-12.81-0.13
					c-1.13-0.01-2.13-0.1-3.03-0.27c-0.88-0.17-1.33-0.4-1.33-0.68l-0.01-1.28l17.51,0.17c0.77-1.35,2.36-2.53,4.79-3.53
					s5.39-1.89,8.89-2.67l5.86,0.81c1.78,0.25,2.67,0.54,2.67,0.88c0,0.18-0.36,0.41-1.1,0.68c-0.75,0.27-1.62,0.59-2.63,0.96
					c-1,0.37-1.98,0.81-2.92,1.32c-0.95,0.5-1.66,1.07-2.13,1.71L845.81,1369.77z M802.61,1371.52c0.35,0.84,1.14,1.56,2.33,2.17
					s2.67,1.11,4.45,1.5s3.78,0.68,5.99,0.86c2.23,0.18,4.56,0.27,6.99,0.26c2.84-0.01,5.31-0.14,7.42-0.37
					c2.1-0.23,3.95-0.54,5.55-0.94c1.59-0.4,2.99-0.85,4.17-1.38c1.18-0.52,2.24-1.09,3.19-1.7L802.61,1371.52z M905.36,1370.37
					c-0.35-0.85-1.21-1.6-2.54-2.24c-1.33-0.64-3.04-1.18-5.12-1.61c-2.07-0.44-4.49-0.76-7.25-0.97c-2.75-0.21-5.79-0.31-9.12-0.29
					c-2.95,0.01-5.51,0.15-7.64,0.4s-3.98,0.58-5.55,1.01c-1.56,0.42-2.9,0.91-3.99,1.47c-1.1,0.56-2.12,1.16-3.06,1.8
					L905.36,1370.37z"/>
			</g>
			
				<linearGradient id="SVGID_00000075123290257870438060000008550129071214026138_" gradientUnits="userSpaceOnUse" x1="-415.5417" y1="222.1374" x2="-410.4137" y2="179.208" gradientTransform="matrix(-1 0 0 1 446.0514 1167.4255)">
				<stop  offset="3.597120e-03" style="stop-color:#F36F56"/>
				<stop  offset="0.3059" style="stop-color:#F99C4C"/>
				<stop  offset="0.545" style="stop-color:#FDB946"/>
				<stop  offset="0.6817" style="stop-color:#FFC444"/>
				<stop  offset="0.8038" style="stop-color:#FFC244"/>
				<stop  offset="0.8667" style="stop-color:#FEBA46"/>
				<stop  offset="0.916" style="stop-color:#FCAD49"/>
				<stop  offset="0.958" style="stop-color:#F99A4D"/>
				<stop  offset="0.9955" style="stop-color:#F58152"/>
				<stop  offset="1" style="stop-color:#F57E53"/>
			</linearGradient>
			<path style="fill:url(#SVGID_00000075123290257870438060000008550129071214026138_);" d="M858.88,1352.79
				c-61.6,0-125.73,5.42-135.99,15.91c0.4,0.37,0.77,0.76,1.12,1.18c8.65-7.29,61.6-14.62,134.87-14.62
				c75.14,0,128.95,7.72,135.47,15.18c0.32-0.41,0.66-0.8,1.03-1.17C986.91,1358.41,921.57,1352.79,858.88,1352.79z"/>
		</g>
		<g>
			
				<linearGradient id="SVGID_00000070091159463247001650000016160014650442474912_" gradientUnits="userSpaceOnUse" x1="658.6956" y1="227.0148" x2="976.5475" y2="227.0148" gradientTransform="matrix(1 0 0 -1 0 1587.8899)">
				<stop  offset="0" style="stop-color:#FCB148"/>
				<stop  offset="0.0521" style="stop-color:#FDBA46"/>
				<stop  offset="0.1424" style="stop-color:#FFC244"/>
				<stop  offset="0.3183" style="stop-color:#FFC444"/>
				<stop  offset="0.4849" style="stop-color:#FDB946"/>
				<stop  offset="0.7754" style="stop-color:#F99C4D"/>
				<stop  offset="0.8658" style="stop-color:#F8924F"/>
				<stop  offset="1" style="stop-color:#F8924F"/>
			</linearGradient>
			<path style="fill:url(#SVGID_00000070091159463247001650000016160014650442474912_);" d="M682.31,1336.59v30.64
				c0,9.9,61.85,17.93,138.14,17.93s138.14-8.03,138.14-17.93v-30.64H682.31z"/>
			
				<linearGradient id="SVGID_00000101788867419272250140000003394558677683761333_" gradientUnits="userSpaceOnUse" x1="819.0837" y1="262.8212" x2="835.8405" y2="122.5424" gradientTransform="matrix(1 0 0 -1 0 1587.8899)">
				<stop  offset="0" style="stop-color:#FFDB44"/>
				<stop  offset="1" style="stop-color:#FEEF06"/>
			</linearGradient>
			<path style="fill:url(#SVGID_00000101788867419272250140000003394558677683761333_);" d="M958.6,1336.59
				c0,9.9-61.85,17.93-138.14,17.93s-138.14-8.03-138.14-17.93s61.85-17.93,138.14-17.93
				C896.75,1318.66,958.6,1326.69,958.6,1336.59z"/>
			
				<linearGradient id="SVGID_00000103258440376464707140000007007503623568899766_" gradientUnits="userSpaceOnUse" x1="818.3633" y1="269.0833" x2="823.5101" y2="225.9972" gradientTransform="matrix(1 0 0 -1 0 1587.8899)">
				<stop  offset="0" style="stop-color:#FFDB44"/>
				<stop  offset="1" style="stop-color:#FEEF06"/>
			</linearGradient>
			<path style="fill:url(#SVGID_00000103258440376464707140000007007503623568899766_);" d="M820.46,1355.75
				c-67.57,0-138.22-6.45-138.22-18.9c0-0.68,0.24-1.89,0.93-1.89c0.68,0,0.39,0.94,0.39,1.62c0,7.89,56.23,16.69,136.91,16.69
				s136.91-8.8,136.91-16.69c0-0.68,0.12-1.32,0.8-1.32s0.52,0.91,0.52,1.6C958.68,1349.31,888.03,1355.75,820.46,1355.75z"/>
			<g>
				<path style="fill:#FCB048;" d="M807.4,1337.59c1.36-0.94,2.8-1.86,4.34-2.78c1.53-0.91,3.52-1.74,5.93-2.47
					c2.43-0.74,5.46-1.34,9.11-1.8s8.2-0.71,13.64-0.74c5.34-0.03,10.35,0.14,15.04,0.51c4.68,0.36,8.8,0.91,12.36,1.64
					c3.55,0.73,6.45,1.63,8.68,2.69c2.22,1.07,3.54,2.3,3.97,3.68l15.55,0.16c1.13,0.01,2.13,0.1,2.98,0.28
					c0.87,0.18,1.29,0.4,1.29,0.67l0.01,1.28l-20-0.19c-0.7,1.57-2.49,3-5.36,4.3c-2.86,1.3-6.51,2.43-10.97,3.38l-7.28-1.01
					c-0.65-0.1-1.19-0.23-1.61-0.38s-0.62-0.32-0.62-0.5c0-0.25,0.56-0.53,1.69-0.84c1.13-0.32,2.4-0.71,3.81-1.17
					c1.42-0.46,2.8-1.01,4.17-1.65c1.36-0.63,2.27-1.39,2.74-2.27l-47.2-0.47c-1.24,0.91-2.64,1.81-4.17,2.69
					c-1.54,0.88-3.58,1.67-6.12,2.38c-2.54,0.7-5.71,1.28-9.5,1.72c-3.8,0.44-8.56,0.67-14.32,0.7c-4.33,0.02-8.54-0.14-12.66-0.49
					c-4.13-0.35-7.79-0.87-10.99-1.57s-5.82-1.56-7.88-2.58c-2.05-1.03-3.19-2.2-3.43-3.53l-12.81-0.13
					c-1.13-0.01-2.13-0.1-3.03-0.27c-0.88-0.17-1.33-0.4-1.33-0.68l-0.01-1.28l17.51,0.17c0.77-1.35,2.36-2.53,4.79-3.53
					s5.39-1.89,8.89-2.67l5.86,0.81c1.78,0.25,2.66,0.54,2.67,0.88c0,0.18-0.36,0.41-1.1,0.68c-0.75,0.27-1.62,0.59-2.63,0.96
					c-1,0.37-1.98,0.81-2.92,1.32c-0.95,0.5-1.66,1.07-2.13,1.71L807.4,1337.59z M764.21,1339.33c0.35,0.84,1.14,1.56,2.33,2.17
					s2.67,1.11,4.45,1.5s3.78,0.68,5.99,0.86c2.23,0.18,4.56,0.27,6.99,0.26c2.84-0.01,5.31-0.14,7.42-0.37
					c2.1-0.23,3.95-0.54,5.55-0.94c1.59-0.4,2.99-0.86,4.17-1.38s2.24-1.09,3.19-1.7L764.21,1339.33z M866.96,1338.19
					c-0.35-0.85-1.21-1.6-2.54-2.24c-1.33-0.64-3.04-1.18-5.12-1.61c-2.07-0.44-4.49-0.76-7.25-0.97c-2.75-0.21-5.79-0.31-9.12-0.3
					c-2.95,0.01-5.51,0.15-7.64,0.4s-3.98,0.58-5.55,1.01c-1.56,0.42-2.9,0.91-3.99,1.47c-1.1,0.56-2.12,1.16-3.06,1.8
					L866.96,1338.19z"/>
			</g>
			
				<linearGradient id="SVGID_00000073687234622943439590000010606666948076271774_" gradientUnits="userSpaceOnUse" x1="-377.1422" y1="189.9522" x2="-372.0143" y2="147.023" gradientTransform="matrix(-1 0 0 1 446.0514 1167.4255)">
				<stop  offset="3.597120e-03" style="stop-color:#F36F56"/>
				<stop  offset="0.3059" style="stop-color:#F99C4C"/>
				<stop  offset="0.545" style="stop-color:#FDB946"/>
				<stop  offset="0.6817" style="stop-color:#FFC444"/>
				<stop  offset="0.8038" style="stop-color:#FFC244"/>
				<stop  offset="0.8667" style="stop-color:#FEBA46"/>
				<stop  offset="0.916" style="stop-color:#FCAD49"/>
				<stop  offset="0.958" style="stop-color:#F99A4D"/>
				<stop  offset="0.9955" style="stop-color:#F58152"/>
				<stop  offset="1" style="stop-color:#F57E53"/>
			</linearGradient>
			<path style="fill:url(#SVGID_00000073687234622943439590000010606666948076271774_);" d="M820.48,1320.6
				c-61.6,0-125.73,5.42-135.99,15.91c0.4,0.37,0.77,0.77,1.12,1.18c8.65-7.29,61.6-14.62,134.87-14.62
				c75.14,0,128.95,7.72,135.47,15.18c0.32-0.41,0.66-0.8,1.03-1.17C948.51,1326.22,883.17,1320.6,820.48,1320.6z"/>
		</g>
		<g>
			
				<linearGradient id="SVGID_00000146459941578613078490000010038843611120506537_" gradientUnits="userSpaceOnUse" x1="691.8321" y1="259.1048" x2="1009.6843" y2="259.1048" gradientTransform="matrix(1 0 0 -1 0 1587.8899)">
				<stop  offset="0" style="stop-color:#FCB148"/>
				<stop  offset="0.0521" style="stop-color:#FDBA46"/>
				<stop  offset="0.1424" style="stop-color:#FFC244"/>
				<stop  offset="0.3183" style="stop-color:#FFC444"/>
				<stop  offset="0.4849" style="stop-color:#FDB946"/>
				<stop  offset="0.7754" style="stop-color:#F99C4D"/>
				<stop  offset="0.8658" style="stop-color:#F8924F"/>
				<stop  offset="1" style="stop-color:#F8924F"/>
			</linearGradient>
			<path style="fill:url(#SVGID_00000146459941578613078490000010038843611120506537_);" d="M715.45,1304.5v30.64
				c0,9.9,61.85,17.93,138.14,17.93s138.14-8.03,138.14-17.93v-30.64H715.45z"/>
			
				<linearGradient id="SVGID_00000170985879404873275130000001197347621475983235_" gradientUnits="userSpaceOnUse" x1="852.2236" y1="294.9119" x2="868.9805" y2="154.6329" gradientTransform="matrix(1 0 0 -1 0 1587.8899)">
				<stop  offset="0" style="stop-color:#FFDB44"/>
				<stop  offset="1" style="stop-color:#FEEF06"/>
			</linearGradient>
			<path style="fill:url(#SVGID_00000170985879404873275130000001197347621475983235_);" d="M991.74,1304.5
				c0,9.9-61.85,17.93-138.14,17.93s-138.14-8.03-138.14-17.93s61.85-17.93,138.14-17.93S991.74,1294.6,991.74,1304.5z"/>
			
				<linearGradient id="SVGID_00000111888210610428648770000013752539881260225198_" gradientUnits="userSpaceOnUse" x1="851.4933" y1="301.1733" x2="856.6402" y2="258.0868" gradientTransform="matrix(1 0 0 -1 0 1587.8899)">
				<stop  offset="0" style="stop-color:#FFDB44"/>
				<stop  offset="1" style="stop-color:#FEEF06"/>
			</linearGradient>
			<path style="fill:url(#SVGID_00000111888210610428648770000013752539881260225198_);" d="M853.59,1323.66
				c-67.57,0-138.22-6.45-138.22-18.9c0-0.68,0.24-1.89,0.93-1.89c0.68,0,0.39,0.94,0.39,1.62c0,7.89,56.23,16.69,136.91,16.69
				s136.91-8.8,136.91-16.69c0-0.68,0.12-1.32,0.8-1.32s0.52,0.91,0.52,1.6C991.82,1317.22,921.16,1323.66,853.59,1323.66z"/>
			<g>
				<path style="fill:#FCB048;" d="M840.54,1305.5c1.36-0.94,2.8-1.86,4.34-2.78c1.53-0.91,3.52-1.74,5.93-2.47
					c2.43-0.74,5.46-1.34,9.11-1.8c3.64-0.46,8.2-0.71,13.64-0.74c5.34-0.03,10.35,0.14,15.04,0.51c4.68,0.36,8.8,0.91,12.36,1.64
					c3.55,0.73,6.45,1.63,8.68,2.69c2.22,1.07,3.54,2.3,3.97,3.68l15.55,0.16c1.13,0.01,2.13,0.1,2.98,0.28
					c0.87,0.18,1.29,0.4,1.29,0.67l0.01,1.28l-20-0.19c-0.7,1.57-2.49,3-5.36,4.3c-2.86,1.3-6.51,2.43-10.97,3.38l-7.28-1.01
					c-0.65-0.1-1.19-0.23-1.61-0.38s-0.62-0.32-0.62-0.5c0-0.25,0.56-0.53,1.69-0.84c1.13-0.32,2.4-0.71,3.81-1.17
					c1.42-0.46,2.8-1.02,4.17-1.65c1.36-0.63,2.27-1.39,2.74-2.27l-47.2-0.47c-1.24,0.91-2.64,1.81-4.17,2.69
					c-1.54,0.88-3.58,1.67-6.12,2.38c-2.54,0.7-5.71,1.28-9.5,1.72c-3.8,0.44-8.56,0.67-14.32,0.7c-4.33,0.02-8.54-0.14-12.66-0.49
					c-4.13-0.35-7.79-0.87-10.99-1.57s-5.82-1.56-7.88-2.58c-2.05-1.03-3.19-2.2-3.43-3.53l-12.81-0.13
					c-1.13-0.01-2.13-0.1-3.03-0.27c-0.88-0.17-1.33-0.4-1.33-0.68l-0.01-1.28l17.51,0.17c0.77-1.35,2.36-2.53,4.79-3.53
					s5.39-1.89,8.88-2.67l5.86,0.81c1.78,0.25,2.66,0.54,2.67,0.88c0,0.18-0.36,0.41-1.1,0.68c-0.75,0.27-1.62,0.59-2.63,0.96
					c-1,0.37-1.98,0.81-2.92,1.32c-0.95,0.5-1.66,1.07-2.13,1.71L840.54,1305.5z M797.35,1307.24c0.35,0.84,1.14,1.56,2.33,2.17
					s2.67,1.11,4.45,1.5s3.78,0.68,5.99,0.86c2.23,0.18,4.56,0.27,6.99,0.26c2.84-0.01,5.31-0.14,7.42-0.37
					c2.1-0.23,3.95-0.54,5.55-0.94c1.59-0.4,2.99-0.86,4.17-1.38s2.24-1.09,3.19-1.7L797.35,1307.24z M900.1,1306.1
					c-0.35-0.85-1.21-1.6-2.54-2.24c-1.33-0.64-3.04-1.18-5.12-1.61c-2.07-0.44-4.49-0.76-7.25-0.97c-2.75-0.21-5.79-0.31-9.12-0.29
					c-2.95,0.01-5.51,0.15-7.64,0.4s-3.98,0.58-5.55,1.01c-1.56,0.42-2.9,0.91-3.99,1.47c-1.1,0.56-2.12,1.16-3.06,1.8L900.1,1306.1
					z"/>
			</g>
			
				<linearGradient id="SVGID_00000137842281053273314140000008324100547630330299_" gradientUnits="userSpaceOnUse" x1="-410.2723" y1="157.8628" x2="-405.1443" y2="114.9336" gradientTransform="matrix(-1 0 0 1 446.0514 1167.4255)">
				<stop  offset="3.597120e-03" style="stop-color:#F36F56"/>
				<stop  offset="0.3059" style="stop-color:#F99C4C"/>
				<stop  offset="0.545" style="stop-color:#FDB946"/>
				<stop  offset="0.6817" style="stop-color:#FFC444"/>
				<stop  offset="0.8038" style="stop-color:#FFC244"/>
				<stop  offset="0.8667" style="stop-color:#FEBA46"/>
				<stop  offset="0.916" style="stop-color:#FCAD49"/>
				<stop  offset="0.958" style="stop-color:#F99A4D"/>
				<stop  offset="0.9955" style="stop-color:#F58152"/>
				<stop  offset="1" style="stop-color:#F57E53"/>
			</linearGradient>
			<path style="fill:url(#SVGID_00000137842281053273314140000008324100547630330299_);" d="M853.61,1288.51
				c-61.6,0-125.73,5.42-135.99,15.91c0.4,0.37,0.77,0.77,1.12,1.18c8.65-7.29,61.6-14.62,134.87-14.62
				c75.14,0,128.95,7.72,135.47,15.18c0.32-0.41,0.66-0.8,1.03-1.17C981.64,1294.13,916.3,1288.51,853.61,1288.51z"/>
		</g>
		<g>
			
				<linearGradient id="SVGID_00000122695227479713952220000003137685619733299112_" gradientUnits="userSpaceOnUse" x1="711.9408" y1="291.2947" x2="1029.7927" y2="291.2947" gradientTransform="matrix(1 0 0 -1 0 1587.8899)">
				<stop  offset="0" style="stop-color:#FCB148"/>
				<stop  offset="0.0521" style="stop-color:#FDBA46"/>
				<stop  offset="0.1424" style="stop-color:#FFC244"/>
				<stop  offset="0.3183" style="stop-color:#FFC444"/>
				<stop  offset="0.4849" style="stop-color:#FDB946"/>
				<stop  offset="0.7754" style="stop-color:#F99C4D"/>
				<stop  offset="0.8658" style="stop-color:#F8924F"/>
				<stop  offset="1" style="stop-color:#F8924F"/>
			</linearGradient>
			<path style="fill:url(#SVGID_00000122695227479713952220000003137685619733299112_);" d="M735.56,1272.31v30.64
				c0,9.9,61.85,17.93,138.14,17.93s138.14-8.03,138.14-17.93v-30.64H735.56z"/>
			
				<linearGradient id="SVGID_00000054971437274620188150000006020488312599108002_" gradientUnits="userSpaceOnUse" x1="872.3244" y1="327.0955" x2="889.0812" y2="186.8165" gradientTransform="matrix(1 0 0 -1 0 1587.8899)">
				<stop  offset="0" style="stop-color:#FFDB44"/>
				<stop  offset="1" style="stop-color:#FEEF06"/>
			</linearGradient>
			
				<ellipse style="fill:url(#SVGID_00000054971437274620188150000006020488312599108002_);" cx="873.7" cy="1272.31" rx="138.14" ry="17.93"/>
			
				<linearGradient id="SVGID_00000172402838680115840870000009324097189076180629_" gradientUnits="userSpaceOnUse" x1="871.6033" y1="333.3533" x2="876.7498" y2="290.2705" gradientTransform="matrix(1 0 0 -1 0 1587.8899)">
				<stop  offset="0" style="stop-color:#FFDB44"/>
				<stop  offset="1" style="stop-color:#FEEF06"/>
			</linearGradient>
			<path style="fill:url(#SVGID_00000172402838680115840870000009324097189076180629_);" d="M873.7,1291.48
				c-67.57,0-138.22-6.45-138.22-18.9c0-0.68,0.24-1.89,0.93-1.89c0.68,0,0.39,0.94,0.39,1.62c0,7.89,56.23,16.69,136.91,16.69
				s136.91-8.8,136.91-16.69c0-0.68,0.12-1.32,0.8-1.32s0.52,0.91,0.52,1.6C1011.93,1285.03,941.27,1291.48,873.7,1291.48z"/>
			<g>
				<path style="fill:#FCB048;" d="M860.65,1273.31c1.36-0.94,2.8-1.86,4.34-2.78c1.53-0.91,3.52-1.74,5.93-2.47
					c2.43-0.74,5.46-1.34,9.11-1.8c3.64-0.46,8.2-0.71,13.64-0.74c5.34-0.03,10.35,0.14,15.04,0.51c4.68,0.36,8.8,0.91,12.36,1.64
					c3.55,0.73,6.45,1.63,8.68,2.69c2.22,1.07,3.54,2.3,3.97,3.68l15.55,0.16c1.13,0.01,2.13,0.1,2.98,0.28
					c0.87,0.18,1.29,0.4,1.29,0.67l0.01,1.28l-20-0.19c-0.7,1.57-2.49,3-5.36,4.3c-2.86,1.3-6.51,2.43-10.97,3.38l-7.28-1.01
					c-0.65-0.1-1.19-0.23-1.61-0.38s-0.62-0.32-0.62-0.5c0-0.25,0.56-0.53,1.69-0.84c1.13-0.32,2.4-0.71,3.81-1.18
					c1.42-0.46,2.8-1.01,4.17-1.65c1.36-0.63,2.27-1.39,2.74-2.27l-47.2-0.47c-1.24,0.91-2.64,1.81-4.17,2.69
					c-1.54,0.88-3.58,1.67-6.12,2.38c-2.54,0.7-5.71,1.28-9.5,1.72c-3.8,0.44-8.56,0.67-14.32,0.7c-4.33,0.02-8.54-0.14-12.66-0.49
					c-4.13-0.35-7.79-0.87-10.99-1.57s-5.82-1.56-7.88-2.58c-2.05-1.03-3.19-2.2-3.43-3.54l-12.81-0.13
					c-1.13-0.01-2.13-0.1-3.03-0.27c-0.88-0.17-1.33-0.4-1.33-0.68l-0.01-1.28l17.51,0.17c0.77-1.35,2.36-2.53,4.79-3.53
					s5.39-1.89,8.89-2.67l5.86,0.81c1.78,0.25,2.67,0.54,2.67,0.88c0,0.18-0.36,0.41-1.1,0.67c-0.75,0.27-1.62,0.59-2.63,0.96
					c-1,0.37-1.98,0.81-2.92,1.32c-0.95,0.5-1.66,1.07-2.13,1.71L860.65,1273.31z M817.45,1275.06c0.35,0.84,1.14,1.56,2.33,2.17
					s2.67,1.11,4.45,1.5s3.78,0.68,5.99,0.86c2.23,0.18,4.56,0.27,6.99,0.26c2.84-0.01,5.31-0.14,7.42-0.37
					c2.1-0.23,3.95-0.54,5.55-0.94c1.59-0.4,2.99-0.85,4.17-1.38c1.18-0.52,2.24-1.09,3.19-1.7L817.45,1275.06z M920.21,1273.91
					c-0.35-0.85-1.21-1.6-2.54-2.24c-1.33-0.64-3.04-1.18-5.12-1.61c-2.07-0.44-4.49-0.76-7.25-0.97c-2.75-0.21-5.79-0.31-9.12-0.29
					c-2.95,0.01-5.51,0.15-7.64,0.4s-3.98,0.58-5.55,1.01c-1.56,0.42-2.9,0.91-3.99,1.47c-1.1,0.56-2.12,1.16-3.06,1.8
					L920.21,1273.91z"/>
			</g>
			
				<linearGradient id="SVGID_00000025428966557006980620000003536073034407201920_" gradientUnits="userSpaceOnUse" x1="-430.3818" y1="125.6782" x2="-425.2538" y2="82.7489" gradientTransform="matrix(-1 0 0 1 446.0514 1167.4255)">
				<stop  offset="3.597120e-03" style="stop-color:#F36F56"/>
				<stop  offset="0.3059" style="stop-color:#F99C4C"/>
				<stop  offset="0.545" style="stop-color:#FDB946"/>
				<stop  offset="0.6817" style="stop-color:#FFC444"/>
				<stop  offset="0.8038" style="stop-color:#FFC244"/>
				<stop  offset="0.8667" style="stop-color:#FEBA46"/>
				<stop  offset="0.916" style="stop-color:#FCAD49"/>
				<stop  offset="0.958" style="stop-color:#F99A4D"/>
				<stop  offset="0.9955" style="stop-color:#F58152"/>
				<stop  offset="1" style="stop-color:#F57E53"/>
			</linearGradient>
			<path style="fill:url(#SVGID_00000025428966557006980620000003536073034407201920_);" d="M873.72,1256.33
				c-61.6,0-125.73,5.42-135.99,15.91c0.4,0.37,0.77,0.76,1.12,1.18c8.65-7.29,61.6-14.62,134.87-14.62
				c75.14,0,128.95,7.72,135.47,15.18c0.32-0.41,0.66-0.8,1.03-1.17C1001.75,1261.95,936.41,1256.33,873.72,1256.33z"/>
		</g>
		<g>
			
				<linearGradient id="SVGID_00000093865825187568909040000015627573029233949824_" gradientUnits="userSpaceOnUse" x1="697.0986" y1="326.0148" x2="1014.9509" y2="326.0148" gradientTransform="matrix(1 0 0 -1 0 1587.8899)">
				<stop  offset="0" style="stop-color:#FCB148"/>
				<stop  offset="0.0521" style="stop-color:#FDBA46"/>
				<stop  offset="0.1424" style="stop-color:#FFC244"/>
				<stop  offset="0.3183" style="stop-color:#FFC444"/>
				<stop  offset="0.4849" style="stop-color:#FDB946"/>
				<stop  offset="0.7754" style="stop-color:#F99C4D"/>
				<stop  offset="0.8658" style="stop-color:#F8924F"/>
				<stop  offset="1" style="stop-color:#F8924F"/>
			</linearGradient>
			<path style="fill:url(#SVGID_00000093865825187568909040000015627573029233949824_);" d="M720.72,1237.59v30.64
				c0,9.9,61.85,17.93,138.14,17.93S997,1278.13,997,1268.23v-30.64H720.72z"/>
			
				<linearGradient id="SVGID_00000010310057506530468330000013124140321920287620_" gradientUnits="userSpaceOnUse" x1="857.4938" y1="361.8203" x2="874.2507" y2="221.5412" gradientTransform="matrix(1 0 0 -1 0 1587.8899)">
				<stop  offset="0" style="stop-color:#FFDB44"/>
				<stop  offset="1" style="stop-color:#FEEF06"/>
			</linearGradient>
			<path style="fill:url(#SVGID_00000010310057506530468330000013124140321920287620_);" d="M997.01,1237.59
				c0,9.9-61.85,17.93-138.14,17.93s-138.14-8.03-138.14-17.93s61.85-17.93,138.14-17.93S997.01,1227.69,997.01,1237.59z"/>
			
				<linearGradient id="SVGID_00000003827525450296710380000003206241587542702527_" gradientUnits="userSpaceOnUse" x1="856.7634" y1="368.0833" x2="861.9102" y2="324.9968" gradientTransform="matrix(1 0 0 -1 0 1587.8899)">
				<stop  offset="0" style="stop-color:#FFDB44"/>
				<stop  offset="1" style="stop-color:#FEEF06"/>
			</linearGradient>
			<path style="fill:url(#SVGID_00000003827525450296710380000003206241587542702527_);" d="M858.86,1256.75
				c-67.57,0-138.22-6.45-138.22-18.9c0-0.68,0.24-1.89,0.93-1.89c0.68,0,0.39,0.94,0.39,1.62c0,7.89,56.23,16.69,136.91,16.69
				s136.91-8.8,136.91-16.69c0-0.68,0.12-1.32,0.8-1.32s0.52,0.91,0.52,1.6C997.09,1250.31,926.43,1256.75,858.86,1256.75z"/>
			<g>
				<path style="fill:#FCB048;" d="M845.81,1238.59c1.36-0.94,2.8-1.86,4.34-2.78c1.53-0.91,3.52-1.74,5.93-2.47
					c2.43-0.74,5.46-1.34,9.11-1.8c3.64-0.46,8.2-0.71,13.64-0.74c5.34-0.03,10.35,0.14,15.04,0.51c4.68,0.36,8.8,0.91,12.36,1.64
					c3.55,0.73,6.45,1.62,8.68,2.69c2.22,1.07,3.54,2.3,3.97,3.68l15.55,0.16c1.13,0.01,2.13,0.1,2.98,0.28
					c0.87,0.18,1.29,0.4,1.29,0.67l0.01,1.28l-20-0.19c-0.7,1.57-2.49,3-5.36,4.3c-2.86,1.3-6.51,2.43-10.97,3.38l-7.28-1.01
					c-0.65-0.1-1.19-0.23-1.61-0.38s-0.62-0.32-0.62-0.5c0-0.25,0.56-0.53,1.69-0.84c1.13-0.32,2.4-0.71,3.81-1.18
					c1.42-0.46,2.8-1.01,4.17-1.65c1.36-0.63,2.27-1.39,2.74-2.27l-47.2-0.47c-1.24,0.91-2.64,1.81-4.17,2.69
					c-1.54,0.88-3.58,1.67-6.12,2.38c-2.54,0.7-5.71,1.28-9.5,1.72c-3.8,0.44-8.56,0.67-14.32,0.7c-4.33,0.02-8.54-0.14-12.66-0.49
					c-4.13-0.35-7.79-0.87-10.99-1.57s-5.82-1.56-7.88-2.58c-2.05-1.03-3.19-2.2-3.43-3.53l-12.81-0.13
					c-1.13-0.01-2.13-0.1-3.03-0.27c-0.88-0.17-1.33-0.4-1.33-0.68l-0.01-1.28l17.51,0.17c0.77-1.35,2.36-2.53,4.79-3.53
					s5.39-1.89,8.89-2.67l5.86,0.81c1.78,0.25,2.67,0.54,2.67,0.88c0,0.18-0.36,0.41-1.1,0.67c-0.75,0.27-1.62,0.59-2.63,0.96
					c-1,0.37-1.98,0.81-2.92,1.32c-0.95,0.5-1.66,1.07-2.13,1.71L845.81,1238.59z M802.61,1240.34c0.35,0.84,1.14,1.56,2.33,2.17
					s2.67,1.11,4.45,1.5s3.78,0.68,5.99,0.86c2.23,0.18,4.56,0.27,6.99,0.26c2.84-0.01,5.31-0.14,7.42-0.37
					c2.1-0.23,3.95-0.54,5.55-0.94c1.59-0.4,2.99-0.85,4.17-1.38c1.18-0.52,2.24-1.09,3.19-1.7L802.61,1240.34z M905.36,1239.19
					c-0.35-0.85-1.21-1.6-2.54-2.24c-1.33-0.64-3.04-1.18-5.12-1.61c-2.07-0.44-4.49-0.76-7.25-0.97c-2.75-0.21-5.79-0.31-9.12-0.29
					c-2.95,0.01-5.51,0.15-7.64,0.4s-3.98,0.59-5.55,1.01c-1.56,0.42-2.9,0.91-3.99,1.47c-1.1,0.56-2.12,1.16-3.06,1.8
					L905.36,1239.19z"/>
			</g>
			
				<linearGradient id="SVGID_00000066502541391910106410000014985937261993047173_" gradientUnits="userSpaceOnUse" x1="-415.5425" y1="90.9542" x2="-410.4145" y2="48.0252" gradientTransform="matrix(-1 0 0 1 446.0514 1167.4255)">
				<stop  offset="3.597120e-03" style="stop-color:#F36F56"/>
				<stop  offset="0.3059" style="stop-color:#F99C4C"/>
				<stop  offset="0.545" style="stop-color:#FDB946"/>
				<stop  offset="0.6817" style="stop-color:#FFC444"/>
				<stop  offset="0.8038" style="stop-color:#FFC244"/>
				<stop  offset="0.8667" style="stop-color:#FEBA46"/>
				<stop  offset="0.916" style="stop-color:#FCAD49"/>
				<stop  offset="0.958" style="stop-color:#F99A4D"/>
				<stop  offset="0.9955" style="stop-color:#F58152"/>
				<stop  offset="1" style="stop-color:#F57E53"/>
			</linearGradient>
			<path style="fill:url(#SVGID_00000066502541391910106410000014985937261993047173_);" d="M858.88,1221.6
				c-61.6,0-125.73,5.42-135.99,15.91c0.4,0.37,0.77,0.77,1.12,1.18c8.65-7.29,61.6-14.62,134.87-14.62
				c75.14,0,128.95,7.72,135.47,15.18c0.32-0.41,0.66-0.8,1.03-1.17C986.91,1227.22,921.57,1221.6,858.88,1221.6z"/>
		</g>
		<g>
			
				<linearGradient id="SVGID_00000144334102497319499470000012875657227840117917_" gradientUnits="userSpaceOnUse" x1="658.6956" y1="358.1948" x2="976.5475" y2="358.1948" gradientTransform="matrix(1 0 0 -1 0 1587.8899)">
				<stop  offset="0" style="stop-color:#FCB148"/>
				<stop  offset="0.0521" style="stop-color:#FDBA46"/>
				<stop  offset="0.1424" style="stop-color:#FFC244"/>
				<stop  offset="0.3183" style="stop-color:#FFC444"/>
				<stop  offset="0.4849" style="stop-color:#FDB946"/>
				<stop  offset="0.7754" style="stop-color:#F99C4D"/>
				<stop  offset="0.8658" style="stop-color:#F8924F"/>
				<stop  offset="1" style="stop-color:#F8924F"/>
			</linearGradient>
			<path style="fill:url(#SVGID_00000144334102497319499470000012875657227840117917_);" d="M682.31,1205.41v30.64
				c0,9.9,61.85,17.93,138.14,17.93s138.14-8.03,138.14-17.93v-30.64H682.31z"/>
			
				<linearGradient id="SVGID_00000102502908866624839710000014739837419440700051_" gradientUnits="userSpaceOnUse" x1="819.0834" y1="394.0041" x2="835.8402" y2="253.7247" gradientTransform="matrix(1 0 0 -1 0 1587.8899)">
				<stop  offset="0" style="stop-color:#FFDB44"/>
				<stop  offset="1" style="stop-color:#FEEF06"/>
			</linearGradient>
			
				<ellipse style="fill:url(#SVGID_00000102502908866624839710000014739837419440700051_);" cx="820.46" cy="1205.41" rx="138.14" ry="17.93"/>
			
				<linearGradient id="SVGID_00000044138840943527045780000013239071481617771196_" gradientUnits="userSpaceOnUse" x1="818.3633" y1="400.2633" x2="823.5101" y2="357.1773" gradientTransform="matrix(1 0 0 -1 0 1587.8899)">
				<stop  offset="0" style="stop-color:#FFDB44"/>
				<stop  offset="1" style="stop-color:#FEEF06"/>
			</linearGradient>
			<path style="fill:url(#SVGID_00000044138840943527045780000013239071481617771196_);" d="M820.46,1224.57
				c-67.57,0-138.22-6.45-138.22-18.9c0-0.68,0.24-1.89,0.93-1.89c0.68,0,0.39,0.94,0.39,1.62c0,7.89,56.23,16.69,136.91,16.69
				s136.91-8.8,136.91-16.69c0-0.68,0.12-1.32,0.8-1.32s0.52,0.91,0.52,1.6C958.68,1218.13,888.03,1224.57,820.46,1224.57z"/>
			<g>
				<path style="fill:#FCB048;" d="M807.4,1206.41c1.36-0.94,2.8-1.86,4.34-2.78c1.53-0.91,3.52-1.74,5.93-2.47
					c2.43-0.74,5.46-1.34,9.11-1.8c3.64-0.46,8.2-0.71,13.64-0.74c5.34-0.03,10.35,0.14,15.04,0.51c4.68,0.36,8.8,0.91,12.36,1.64
					c3.55,0.73,6.45,1.62,8.68,2.69c2.22,1.07,3.54,2.3,3.97,3.68l15.55,0.16c1.13,0.01,2.13,0.1,2.98,0.28
					c0.87,0.18,1.29,0.4,1.29,0.67l0.01,1.28l-20-0.19c-0.7,1.57-2.49,3-5.36,4.3c-2.86,1.3-6.51,2.43-10.97,3.38l-7.28-1.01
					c-0.65-0.1-1.19-0.23-1.61-0.38s-0.62-0.32-0.62-0.5c0-0.25,0.56-0.53,1.69-0.84c1.13-0.32,2.4-0.71,3.81-1.17
					c1.42-0.46,2.8-1.02,4.17-1.65c1.36-0.63,2.27-1.39,2.74-2.27l-47.2-0.47c-1.24,0.91-2.64,1.81-4.17,2.69
					c-1.54,0.88-3.58,1.67-6.12,2.38c-2.54,0.7-5.71,1.28-9.5,1.72c-3.8,0.44-8.56,0.67-14.32,0.7c-4.33,0.02-8.54-0.14-12.66-0.49
					c-4.13-0.35-7.79-0.87-10.99-1.57s-5.82-1.56-7.88-2.58c-2.05-1.03-3.19-2.2-3.43-3.54l-12.81-0.13
					c-1.13-0.01-2.13-0.1-3.03-0.27c-0.88-0.17-1.33-0.4-1.33-0.68l-0.01-1.28l17.51,0.17c0.77-1.35,2.36-2.53,4.79-3.53
					s5.39-1.89,8.89-2.67l5.86,0.8c1.78,0.25,2.66,0.54,2.67,0.88c0,0.18-0.36,0.41-1.1,0.67c-0.75,0.27-1.62,0.59-2.63,0.96
					c-1,0.37-1.98,0.81-2.92,1.32c-0.95,0.5-1.66,1.07-2.13,1.71L807.4,1206.41z M764.21,1208.15c0.35,0.84,1.14,1.56,2.33,2.17
					s2.67,1.11,4.45,1.5s3.78,0.68,5.99,0.86c2.23,0.18,4.56,0.27,6.99,0.26c2.84-0.01,5.31-0.14,7.42-0.37
					c2.1-0.23,3.95-0.54,5.55-0.94c1.59-0.4,2.99-0.85,4.17-1.38s2.24-1.09,3.19-1.7L764.21,1208.15z M866.96,1207.01
					c-0.35-0.85-1.21-1.6-2.54-2.24c-1.33-0.64-3.04-1.18-5.12-1.61c-2.07-0.44-4.49-0.76-7.25-0.97c-2.75-0.21-5.79-0.31-9.12-0.29
					c-2.95,0.01-5.51,0.15-7.64,0.4s-3.98,0.59-5.55,1.01c-1.56,0.42-2.9,0.91-3.99,1.47c-1.1,0.56-2.12,1.16-3.06,1.8
					L866.96,1207.01z"/>
			</g>
			
				<linearGradient id="SVGID_00000079483513488037418760000000926830318038239876_" gradientUnits="userSpaceOnUse" x1="-377.1419" y1="58.7693" x2="-372.0139" y2="15.8402" gradientTransform="matrix(-1 0 0 1 446.0514 1167.4255)">
				<stop  offset="3.597120e-03" style="stop-color:#F36F56"/>
				<stop  offset="0.3059" style="stop-color:#F99C4C"/>
				<stop  offset="0.545" style="stop-color:#FDB946"/>
				<stop  offset="0.6817" style="stop-color:#FFC444"/>
				<stop  offset="0.8038" style="stop-color:#FFC244"/>
				<stop  offset="0.8667" style="stop-color:#FEBA46"/>
				<stop  offset="0.916" style="stop-color:#FCAD49"/>
				<stop  offset="0.958" style="stop-color:#F99A4D"/>
				<stop  offset="0.9955" style="stop-color:#F58152"/>
				<stop  offset="1" style="stop-color:#F57E53"/>
			</linearGradient>
			<path style="fill:url(#SVGID_00000079483513488037418760000000926830318038239876_);" d="M820.48,1189.42
				c-61.6,0-125.73,5.42-135.99,15.91c0.4,0.37,0.77,0.77,1.12,1.18c8.65-7.29,61.6-14.62,134.87-14.62
				c75.14,0,128.95,7.72,135.47,15.18c0.32-0.41,0.66-0.8,1.03-1.17C948.51,1195.04,883.17,1189.42,820.48,1189.42z"/>
		</g>
		<g>
			
				<linearGradient id="SVGID_00000090988954200863529860000014654750487077927062_" gradientUnits="userSpaceOnUse" x1="691.8321" y1="390.2849" x2="1009.6843" y2="390.2849" gradientTransform="matrix(1 0 0 -1 0 1587.8899)">
				<stop  offset="0" style="stop-color:#FCB148"/>
				<stop  offset="0.0521" style="stop-color:#FDBA46"/>
				<stop  offset="0.1424" style="stop-color:#FFC244"/>
				<stop  offset="0.3183" style="stop-color:#FFC444"/>
				<stop  offset="0.4849" style="stop-color:#FDB946"/>
				<stop  offset="0.7754" style="stop-color:#F99C4D"/>
				<stop  offset="0.8658" style="stop-color:#F8924F"/>
				<stop  offset="1" style="stop-color:#F8924F"/>
			</linearGradient>
			<path style="fill:url(#SVGID_00000090988954200863529860000014654750487077927062_);" d="M715.45,1173.32v30.64
				c0,9.9,61.85,17.93,138.14,17.93s138.14-8.03,138.14-17.93v-30.64H715.45z"/>
			
				<linearGradient id="SVGID_00000094585063132564029660000007751695008728032171_" gradientUnits="userSpaceOnUse" x1="852.2233" y1="426.0948" x2="868.9802" y2="285.8153" gradientTransform="matrix(1 0 0 -1 0 1587.8899)">
				<stop  offset="0" style="stop-color:#FFDB44"/>
				<stop  offset="1" style="stop-color:#FEEF06"/>
			</linearGradient>
			
				<ellipse style="fill:url(#SVGID_00000094585063132564029660000007751695008728032171_);" cx="853.6" cy="1173.32" rx="138.14" ry="17.93"/>
			
				<linearGradient id="SVGID_00000111153481521107406450000013415320473451121079_" gradientUnits="userSpaceOnUse" x1="851.4933" y1="432.3533" x2="856.6402" y2="389.2668" gradientTransform="matrix(1 0 0 -1 0 1587.8899)">
				<stop  offset="0" style="stop-color:#FFDB44"/>
				<stop  offset="1" style="stop-color:#FEEF06"/>
			</linearGradient>
			<path style="fill:url(#SVGID_00000111153481521107406450000013415320473451121079_);" d="M853.59,1192.48
				c-67.57,0-138.22-6.45-138.22-18.9c0-0.68,0.24-1.89,0.93-1.89c0.68,0,0.39,0.94,0.39,1.62c0,7.89,56.23,16.69,136.91,16.69
				s136.91-8.8,136.91-16.69c0-0.68,0.12-1.32,0.8-1.32s0.52,0.91,0.52,1.6C991.82,1186.04,921.16,1192.48,853.59,1192.48z"/>
			<g>
				<path style="fill:#FCB048;" d="M840.54,1174.32c1.36-0.94,2.8-1.86,4.34-2.78c1.53-0.91,3.52-1.74,5.93-2.47
					c2.43-0.74,5.46-1.34,9.11-1.8c3.64-0.46,8.2-0.71,13.64-0.74c5.34-0.03,10.35,0.14,15.04,0.51c4.68,0.36,8.8,0.91,12.36,1.64
					c3.55,0.73,6.45,1.62,8.68,2.69c2.22,1.07,3.54,2.3,3.97,3.68l15.55,0.16c1.13,0.01,2.13,0.1,2.98,0.28
					c0.87,0.18,1.29,0.4,1.29,0.67l0.01,1.28l-20-0.19c-0.7,1.57-2.49,3-5.36,4.3c-2.86,1.3-6.51,2.43-10.97,3.38l-7.28-1.01
					c-0.65-0.1-1.19-0.23-1.61-0.38s-0.62-0.32-0.62-0.5c0-0.25,0.56-0.53,1.69-0.84c1.13-0.32,2.4-0.71,3.81-1.17
					c1.42-0.46,2.8-1.02,4.17-1.65c1.36-0.63,2.27-1.39,2.74-2.27l-47.2-0.47c-1.24,0.91-2.64,1.81-4.17,2.69
					c-1.54,0.88-3.58,1.67-6.12,2.38c-2.54,0.7-5.71,1.28-9.5,1.72c-3.8,0.44-8.56,0.67-14.32,0.7c-4.33,0.02-8.54-0.14-12.66-0.49
					c-4.13-0.35-7.79-0.87-10.99-1.57s-5.82-1.56-7.88-2.58c-2.05-1.03-3.19-2.2-3.43-3.54l-12.81-0.13
					c-1.13-0.01-2.13-0.1-3.03-0.27c-0.88-0.17-1.33-0.4-1.33-0.68l-0.01-1.28l17.51,0.17c0.77-1.35,2.36-2.53,4.79-3.53
					s5.39-1.89,8.88-2.67l5.86,0.81c1.78,0.25,2.66,0.54,2.67,0.88c0,0.18-0.36,0.41-1.1,0.67c-0.75,0.27-1.62,0.59-2.63,0.96
					c-1,0.37-1.98,0.81-2.92,1.32c-0.95,0.5-1.66,1.07-2.13,1.71L840.54,1174.32z M797.35,1176.06c0.35,0.84,1.14,1.56,2.33,2.17
					s2.67,1.11,4.45,1.5s3.78,0.68,5.99,0.86c2.23,0.18,4.56,0.27,6.99,0.26c2.84-0.01,5.31-0.14,7.42-0.37
					c2.1-0.23,3.95-0.54,5.55-0.94c1.59-0.4,2.99-0.85,4.17-1.38c1.18-0.52,2.24-1.09,3.19-1.7L797.35,1176.06z M900.1,1174.92
					c-0.35-0.85-1.21-1.6-2.54-2.24c-1.33-0.64-3.04-1.18-5.12-1.61c-2.07-0.44-4.49-0.76-7.25-0.97c-2.75-0.21-5.79-0.31-9.12-0.29
					c-2.95,0.01-5.51,0.15-7.64,0.4s-3.98,0.58-5.55,1.01c-1.56,0.42-2.9,0.91-3.99,1.47c-1.1,0.56-2.12,1.16-3.06,1.8
					L900.1,1174.92z"/>
			</g>
			
				<linearGradient id="SVGID_00000133497145892426603870000014372636258070619800_" gradientUnits="userSpaceOnUse" x1="-410.272" y1="26.6798" x2="-405.144" y2="-16.2493" gradientTransform="matrix(-1 0 0 1 446.0514 1167.4255)">
				<stop  offset="3.597120e-03" style="stop-color:#F36F56"/>
				<stop  offset="0.3059" style="stop-color:#F99C4C"/>
				<stop  offset="0.545" style="stop-color:#FDB946"/>
				<stop  offset="0.6817" style="stop-color:#FFC444"/>
				<stop  offset="0.8038" style="stop-color:#FFC244"/>
				<stop  offset="0.8667" style="stop-color:#FEBA46"/>
				<stop  offset="0.916" style="stop-color:#FCAD49"/>
				<stop  offset="0.958" style="stop-color:#F99A4D"/>
				<stop  offset="0.9955" style="stop-color:#F58152"/>
				<stop  offset="1" style="stop-color:#F57E53"/>
			</linearGradient>
			<path style="fill:url(#SVGID_00000133497145892426603870000014372636258070619800_);" d="M853.61,1157.33
				c-61.6,0-125.73,5.42-135.99,15.91c0.4,0.37,0.77,0.77,1.12,1.18c8.65-7.28,61.6-14.62,134.87-14.62
				c75.14,0,128.95,7.72,135.47,15.18c0.32-0.41,0.66-0.8,1.03-1.17C981.64,1162.95,916.3,1157.33,853.61,1157.33z"/>
		</g>
		<g>
			
				<linearGradient id="SVGID_00000121978730517323234240000005951200407086261165_" gradientUnits="userSpaceOnUse" x1="674.5966" y1="422.4748" x2="992.4485" y2="422.4748" gradientTransform="matrix(1 0 0 -1 0 1587.8899)">
				<stop  offset="0" style="stop-color:#FCB148"/>
				<stop  offset="0.0521" style="stop-color:#FDBA46"/>
				<stop  offset="0.1424" style="stop-color:#FFC244"/>
				<stop  offset="0.3183" style="stop-color:#FFC444"/>
				<stop  offset="0.4849" style="stop-color:#FDB946"/>
				<stop  offset="0.7754" style="stop-color:#F99C4D"/>
				<stop  offset="0.8658" style="stop-color:#F8924F"/>
				<stop  offset="1" style="stop-color:#F8924F"/>
			</linearGradient>
			<path style="fill:url(#SVGID_00000121978730517323234240000005951200407086261165_);" d="M698.22,1141.13v30.64
				c0,9.9,61.85,17.93,138.14,17.93s138.14-8.03,138.14-17.93v-30.64H698.22z"/>
			
				<linearGradient id="SVGID_00000157994308677146259440000011290628970538087859_" gradientUnits="userSpaceOnUse" x1="834.984" y1="458.2787" x2="851.7409" y2="317.9989" gradientTransform="matrix(1 0 0 -1 0 1587.8899)">
				<stop  offset="0" style="stop-color:#FFDB44"/>
				<stop  offset="1" style="stop-color:#FEEF06"/>
			</linearGradient>
			
				<ellipse style="fill:url(#SVGID_00000157994308677146259440000011290628970538087859_);" cx="836.36" cy="1141.13" rx="138.14" ry="17.93"/>
			
				<linearGradient id="SVGID_00000021104784756402403230000006945632084109832320_" gradientUnits="userSpaceOnUse" x1="834.2634" y1="464.5329" x2="839.4096" y2="421.4511" gradientTransform="matrix(1 0 0 -1 0 1587.8899)">
				<stop  offset="0" style="stop-color:#FFDB44"/>
				<stop  offset="1" style="stop-color:#FEEF06"/>
			</linearGradient>
			<path style="fill:url(#SVGID_00000021104784756402403230000006945632084109832320_);" d="M836.36,1160.3
				c-67.57,0-138.22-6.45-138.22-18.9c0-0.68,0.24-1.89,0.93-1.89c0.68,0,0.39,0.94,0.39,1.62c0,7.89,56.23,16.69,136.91,16.69
				s136.91-8.8,136.91-16.69c0-0.68,0.12-1.32,0.8-1.32s0.52,0.91,0.52,1.6C974.58,1153.85,903.93,1160.3,836.36,1160.3z"/>
			<g>
				<path style="fill:#FCB048;" d="M823.31,1142.13c1.36-0.94,2.8-1.86,4.34-2.78c1.53-0.91,3.52-1.74,5.93-2.47
					c2.43-0.74,5.46-1.34,9.11-1.8c3.64-0.46,8.2-0.71,13.64-0.74c5.34-0.03,10.35,0.14,15.04,0.51c4.68,0.36,8.8,0.91,12.36,1.64
					c3.55,0.73,6.45,1.62,8.68,2.69c2.22,1.07,3.54,2.3,3.97,3.68l15.55,0.16c1.13,0.01,2.13,0.1,2.98,0.28
					c0.87,0.18,1.29,0.4,1.29,0.67l0.01,1.28l-20-0.19c-0.7,1.57-2.49,3-5.36,4.3c-2.86,1.3-6.51,2.43-10.97,3.38l-7.28-1.01
					c-0.65-0.1-1.19-0.23-1.61-0.38s-0.62-0.32-0.62-0.5c0-0.25,0.56-0.53,1.69-0.84c1.13-0.32,2.4-0.71,3.81-1.18
					c1.42-0.46,2.8-1.01,4.17-1.65c1.36-0.63,2.26-1.39,2.74-2.27l-47.2-0.47c-1.24,0.91-2.64,1.81-4.17,2.69
					c-1.54,0.88-3.58,1.67-6.12,2.38c-2.54,0.7-5.71,1.28-9.5,1.72c-3.8,0.44-8.56,0.67-14.32,0.7c-4.33,0.02-8.54-0.14-12.66-0.49
					c-4.13-0.35-7.79-0.87-10.99-1.57s-5.82-1.56-7.88-2.58c-2.05-1.03-3.19-2.2-3.43-3.53l-12.81-0.13
					c-1.13-0.01-2.13-0.1-3.03-0.27c-0.88-0.17-1.33-0.4-1.33-0.68l-0.01-1.28l17.51,0.17c0.77-1.35,2.36-2.53,4.79-3.53
					s5.39-1.89,8.89-2.67l5.86,0.81c1.78,0.25,2.66,0.54,2.67,0.88c0,0.18-0.36,0.41-1.1,0.67c-0.75,0.27-1.62,0.59-2.63,0.96
					c-1,0.37-1.98,0.81-2.92,1.32c-0.95,0.5-1.66,1.07-2.13,1.71L823.31,1142.13z M780.11,1143.88c0.35,0.84,1.14,1.56,2.33,2.17
					s2.67,1.11,4.45,1.5s3.78,0.68,5.99,0.86c2.23,0.18,4.56,0.27,6.99,0.26c2.84-0.01,5.31-0.14,7.42-0.37
					c2.1-0.23,3.95-0.54,5.55-0.94c1.59-0.4,2.99-0.85,4.17-1.38c1.18-0.52,2.24-1.09,3.19-1.7L780.11,1143.88z M882.86,1142.73
					c-0.35-0.85-1.21-1.6-2.54-2.24c-1.33-0.64-3.04-1.18-5.12-1.61c-2.07-0.44-4.49-0.76-7.25-0.97c-2.75-0.21-5.79-0.31-9.12-0.29
					c-2.95,0.01-5.51,0.15-7.64,0.4s-3.98,0.59-5.55,1.01c-1.56,0.42-2.9,0.91-3.99,1.47c-1.1,0.56-2.12,1.16-3.06,1.8
					L882.86,1142.73z"/>
			</g>
			
				<linearGradient id="SVGID_00000072281131119416146540000007273283279728656029_" gradientUnits="userSpaceOnUse" x1="-393.0426" y1="-5.5054" x2="-387.9145" y2="-48.4346" gradientTransform="matrix(-1 0 0 1 446.0514 1167.4255)">
				<stop  offset="3.597120e-03" style="stop-color:#F36F56"/>
				<stop  offset="0.3059" style="stop-color:#F99C4C"/>
				<stop  offset="0.545" style="stop-color:#FDB946"/>
				<stop  offset="0.6817" style="stop-color:#FFC444"/>
				<stop  offset="0.8038" style="stop-color:#FFC244"/>
				<stop  offset="0.8667" style="stop-color:#FEBA46"/>
				<stop  offset="0.916" style="stop-color:#FCAD49"/>
				<stop  offset="0.958" style="stop-color:#F99A4D"/>
				<stop  offset="0.9955" style="stop-color:#F58152"/>
				<stop  offset="1" style="stop-color:#F57E53"/>
			</linearGradient>
			<path style="fill:url(#SVGID_00000072281131119416146540000007273283279728656029_);" d="M836.38,1125.14
				c-61.6,0-125.73,5.42-135.99,15.91c0.4,0.37,0.77,0.77,1.12,1.18c8.65-7.29,61.6-14.62,134.87-14.62
				c75.14,0,128.95,7.72,135.47,15.18c0.32-0.41,0.66-0.8,1.03-1.17C964.41,1130.77,899.07,1125.14,836.38,1125.14z"/>
		</g>
	</g>
	<g>
		
			<linearGradient id="SVGID_00000025432055690995450200000011324603795939694212_" gradientUnits="userSpaceOnUse" x1="757.4374" y1="532.5867" x2="623.6866" y2="489.662" gradientTransform="matrix(1 0 0 -1 0 1587.8899)">
			<stop  offset="0" style="stop-color:#FCB148"/>
			<stop  offset="0.0521" style="stop-color:#FDBA46"/>
			<stop  offset="0.1424" style="stop-color:#FFC244"/>
			<stop  offset="0.3183" style="stop-color:#FFC444"/>
			<stop  offset="0.4849" style="stop-color:#FDB946"/>
			<stop  offset="0.7754" style="stop-color:#F99C4D"/>
			<stop  offset="0.8658" style="stop-color:#F8924F"/>
			<stop  offset="1" style="stop-color:#F8924F"/>
		</linearGradient>
		<path style="fill:url(#SVGID_00000025432055690995450200000011324603795939694212_);" d="M911.41,1050.45
			c0,62.05-48.52,110.86-110.53,108.96c-64.54-1.98-118.81-57.72-118.81-124.42s54.28-115.12,118.81-108.4
			C862.89,933.04,911.41,988.4,911.41,1050.45z"/>
		
			<linearGradient id="SVGID_00000072265425993586030130000015396171247539646127_" gradientUnits="userSpaceOnUse" x1="865.6351" y1="665.7252" x2="746.2307" y2="402.2968" gradientTransform="matrix(1 0 0 -1 0 1587.8899)">
			<stop  offset="0" style="stop-color:#FFDB44"/>
			<stop  offset="1" style="stop-color:#FEEF06"/>
		</linearGradient>
		<path style="fill:url(#SVGID_00000072265425993586030130000015396171247539646127_);" d="M928.17,1045.1
			c0,62.05-48.52,110.86-110.53,108.95c-64.54-1.98-118.81-57.72-118.81-124.42s54.28-115.12,118.81-108.4
			C879.65,927.69,928.17,983.05,928.17,1045.1z"/>
		
			<linearGradient id="SVGID_00000109741702712751972450000007938954443608997044_" gradientUnits="userSpaceOnUse" x1="843.6669" y1="387.5746" x2="820.6276" y2="513.4376" gradientTransform="matrix(1 0 0 -1 0 1587.8899)">
			<stop  offset="0" style="stop-color:#FCB148"/>
			<stop  offset="0.0521" style="stop-color:#FDBA46"/>
			<stop  offset="0.1424" style="stop-color:#FFC244"/>
			<stop  offset="0.3183" style="stop-color:#FFC444"/>
			<stop  offset="0.4849" style="stop-color:#FDB946"/>
			<stop  offset="0.7754" style="stop-color:#F99C4D"/>
			<stop  offset="0.8658" style="stop-color:#F8924F"/>
			<stop  offset="1" style="stop-color:#F8924F"/>
		</linearGradient>
		<path style="fill:url(#SVGID_00000109741702712751972450000007938954443608997044_);" d="M923.3,1044.77
			c0,59.32-46.42,105.9-105.66,103.98c-61.54-1.99-113.21-55.18-113.21-118.74c0-63.55,51.67-109.78,113.21-103.47
			C876.88,932.61,923.3,985.45,923.3,1044.77z"/>
		
			<linearGradient id="SVGID_00000168795788114680449660000007553271957936457403_" gradientUnits="userSpaceOnUse" x1="794.8218" y1="591.2988" x2="889.77" y2="389.7419" gradientTransform="matrix(1 0 0 -1 0 1587.8899)">
			<stop  offset="0" style="stop-color:#FCB148"/>
			<stop  offset="0.0521" style="stop-color:#FDBA46"/>
			<stop  offset="0.1424" style="stop-color:#FFC244"/>
			<stop  offset="0.3183" style="stop-color:#FFC444"/>
			<stop  offset="0.4849" style="stop-color:#FDB946"/>
			<stop  offset="0.7754" style="stop-color:#F99C4D"/>
			<stop  offset="0.8658" style="stop-color:#F8924F"/>
			<stop  offset="1" style="stop-color:#F8924F"/>
		</linearGradient>
		<path style="fill:url(#SVGID_00000168795788114680449660000007553271957936457403_);" d="M919.82,1044.53
			c0,57.36-44.92,102.35-102.18,100.43c-59.4-1.99-109.22-53.37-109.22-114.68s49.81-105.97,109.22-99.95
			C874.9,936.13,919.82,987.17,919.82,1044.53z"/>
		<g>
			
				<linearGradient id="SVGID_00000178888438244163007600000012868610850223327110_" gradientUnits="userSpaceOnUse" x1="791.0105" y1="634.6632" x2="838.7537" y2="455.7302" gradientTransform="matrix(1 0 0 -1 0 1587.8899)">
				<stop  offset="0" style="stop-color:#FFDB44"/>
				<stop  offset="1" style="stop-color:#FEEF06"/>
			</linearGradient>
			<path style="fill:url(#SVGID_00000178888438244163007600000012868610850223327110_);" d="M817.05,949.84L817.05,949.84
				c3.05,0.29,5.51,3.03,5.51,6.13v10.56c6.09,0.68,12.19,1.74,18.3,3.18c4.5,1.06,8.98,2.32,13.42,3.78
				c2.66,0.88,4.48,3.56,4.21,6.34l-1.3,13.24c-0.34,3.51-3.82,5.58-7.09,4.12c-2.93-1.31-5.93-2.42-9.01-3.35
				c-5.37-1.62-11.03-2.68-16.99-3.17l-1.56-0.13v30.24c15.89,4.45,27.57,10.43,35.11,17.95c7.51,7.49,11.25,16.82,11.25,28.03
				c0,12.12-4.14,21.82-12.44,29.14c-8.35,7.36-20.05,11.49-35.19,12.39v11.66c0,3.1-2.47,5.51-5.52,5.39h-0.1
				c-3.06-0.12-5.54-2.74-5.54-5.84V1108l-2.46-0.11c-7.1-0.32-13.89-1.04-20.38-2.17c-4.81-0.84-9.5-1.92-14.09-3.24
				c-2.77-0.8-4.67-3.44-4.42-6.28l1.53-17.02c0.33-3.68,4.03-5.82,7.53-4.44c4.08,1.61,8.21,2.96,12.39,4.07
				c6.51,1.72,13.12,2.82,19.81,3.31l0.1-33.64c-15.26-3.78-26.68-9.37-34.18-16.77c-7.54-7.44-11.32-16.96-11.32-28.54
				c0-11.98,4.1-21.23,12.28-27.72c8.13-6.46,19.69-9.67,34.61-9.66v-10.8C811.52,951.83,814,949.55,817.05,949.84z M811.52,990.21
				c-4.72,0.34-8.39,1.64-11.02,3.89c-2.64,2.25-3.96,5.28-3.96,9.08c0,3.6,1.22,6.61,3.66,9.02c2.43,2.41,6.21,4.34,11.32,5.77
				L811.52,990.21L811.52,990.21z M821.3,1051.13v30.85c5.13,0.01,9.06-1.21,11.8-3.67c2.74-2.45,4.11-5.91,4.11-10.39
				c0-4.08-1.27-7.46-3.82-10.15C830.84,1055.08,826.81,1052.87,821.3,1051.13z"/>
		</g>
		
			<linearGradient id="SVGID_00000128453907474696807650000012814024949542443178_" gradientUnits="userSpaceOnUse" x1="766.8846" y1="578.2531" x2="861.6412" y2="377.103" gradientTransform="matrix(1 0 0 -1 0 1587.8899)">
			<stop  offset="0" style="stop-color:#FCB148"/>
			<stop  offset="0.0521" style="stop-color:#FDBA46"/>
			<stop  offset="0.1424" style="stop-color:#FFC244"/>
			<stop  offset="0.3183" style="stop-color:#FFC444"/>
			<stop  offset="0.4849" style="stop-color:#FDB946"/>
			<stop  offset="0.7754" style="stop-color:#F99C4D"/>
			<stop  offset="0.8658" style="stop-color:#F8924F"/>
			<stop  offset="1" style="stop-color:#F8924F"/>
		</linearGradient>
		<path style="opacity:0.3;fill:url(#SVGID_00000128453907474696807650000012814024949542443178_);enable-background:new    ;" d="
			M799.15,1058.58c3.45-34.1,34.79-48.53,30.7-79.89c-2.52-19.33-17.17-35.62-33.52-48.34c-49.57,5.2-87.91,46.25-87.91,99.94
			c0,61.31,49.81,112.68,109.22,114.68c5.77,0.19,11.4-0.11,16.88-0.82C810.92,1120.66,796.18,1087.87,799.15,1058.58z"/>
	</g>
	<g>
		<path style="fill:#26C4CD;" d="M1030.85,737.58c-19.94-21.29,35.27-101.29,64.82-136.35c25.82-30.62,52.35-62.1,84.94-58.11
			c28.61,3.5,56.45,33.67,58.11,62.59C1243.21,683.49,1059.2,767.85,1030.85,737.58z"/>
		<path style="fill:#2E273F;" d="M1270.31,1559.64c3.75,3.05,4.44,10.67,4.9,15.65c0.2,2.23,0.3,3.34,0.05,4.12
			c-1.81,5.73-12.93,6.34-30.37,8.12c-27.55,2.82-35.75,4.98-37.91,0.88c-2.02-3.84,2.87-10.13,3.42-10.83
			c2.96-3.73,6.59-5.09,13.62-7.4c13-4.28,21.78-6.62,24.44-7.33C1265.07,1558.43,1267.85,1557.63,1270.31,1559.64z"/>
		
			<linearGradient id="SVGID_00000080198345597183206710000013954913003155720348_" gradientUnits="userSpaceOnUse" x1="-143.8788" y1="35.8782" x2="-119.2688" y2="35.8782" gradientTransform="matrix(1 0 0 -1 1395.0488 1587.8899)">
			<stop  offset="0" style="stop-color:#FFC444"/>
			<stop  offset="0.9964" style="stop-color:#F36F56"/>
		</linearGradient>
		<path style="fill:url(#SVGID_00000080198345597183206710000013954913003155720348_);" d="M1253.93,1534.46l-2.76,31.4
			c0.78,1.52,10.12,6.06,17.53,2.16l7.08-30.86L1253.93,1534.46z"/>
		<path style="fill:#2E273F;" d="M1051.79,1555.6c4.5,4.97,5.52,14.12,1.61,18.63c-3.85,4.43-9.63,1.11-26.03,1.6
			c-17.57,0.53-22.16,4.67-34.1,1.38c-4.82-1.33-13.34-4.57-13.18-8.01c0.11-2.42,4.45-3.67,18.94-8.53
			c20.56-6.89,20.47-7.26,24.84-7.99C1034.84,1550.86,1045.85,1549.04,1051.79,1555.6z"/>
		
			<linearGradient id="SVGID_00000111174170939122305110000013061557019651254407_" gradientUnits="userSpaceOnUse" x1="-363.3188" y1="43.9972" x2="-332.9188" y2="43.9972" gradientTransform="matrix(1 0 0 -1 1395.0488 1587.8899)">
			<stop  offset="0" style="stop-color:#FFC444"/>
			<stop  offset="0.9964" style="stop-color:#F36F56"/>
		</linearGradient>
		<path style="fill:url(#SVGID_00000111174170939122305110000013061557019651254407_);" d="M1040.54,1526.95l-8.81,29.31
			c0.67,1.57,9.62,6.82,17.31,3.49l13.09-28.45L1040.54,1526.95z"/>
		<path style="fill:#2E273F;" d="M1118.83,884.97c-1.26,98.51-7.98,209.27-24.11,329.61c-15.94,118.94-38.28,226.4-62.65,320.9
			c11.24,3.03,22.49,6.05,33.73,9.07c28.52-26.6,64.51-68.46,81.87-127.63c10.78-36.72,7.18-55.59,14.02-100.76
			c10.88-71.92,32.93-109.59,55.71-167.59c20.47-52.11,44.68-128.59,57.65-230.82C1222.98,906.82,1170.9,895.89,1118.83,884.97z"/>
		<path style="fill:#2E273F;" d="M1220.32,875.57c6.88,125.29,12.54,252.91,16.83,382.79c3.22,97.46,5.58,193.69,7.15,288.65
			c11.48,1.42,22.97,2.84,34.45,4.25c11.1-20.66,25.84-52.25,35.93-92.73c12.26-49.17,9.42-78.37,14.8-129.33
			c6.03-57.16,14.8-69.61,30.33-141.72c31.51-146.33,47.27-219.5,12.12-265.01C1360.52,907.69,1324.75,870.62,1220.32,875.57z"/>
		<path style="fill:#26C4CD;" d="M1387.7,560.68c-26.9-7.56-66.31-16.41-114.59-19.14c-68.85-3.89-103.28-5.84-127.67,10.56
			c-56.34,37.87-12.72,125.27-35.79,341.93c-3.29,30.94-4.03,62.1-6.42,93.13c-3.95,51.37-4.85,54.16-1.27,59.36
			c22.41,32.64,106.03-16.59,228.6,2.87c68.58,10.89,99.68,35.98,118.47,17.88c21.91-21.1,3.12-77.86-13.06-126.71
			c-18.57-56.08-30.04-56.8-40.58-99.04c-11.02-44.15-4.35-66.88-2.64-136.49C1393.56,671.71,1393.38,622.14,1387.7,560.68z"/>
		<g style="opacity:0.15;">
			
				<linearGradient id="SVGID_00000047750559209682875950000011802832882057034376_" gradientUnits="userSpaceOnUse" x1="774.4797" y1="241.972" x2="861.4827" y2="655.2344" gradientTransform="matrix(-1 0 0 -1 2133.0151 1587.8899)">
				<stop  offset="0" style="stop-color:#AA80F9"/>
				<stop  offset="0.9964" style="stop-color:#6165D7"/>
			</linearGradient>
			<path style="fill:url(#SVGID_00000047750559209682875950000011802832882057034376_);" d="M1221.03,967.43
				c32.03-2.51,52.82,15.6,80.47,1.49c37.92-19.35,50.1-79.57,47.68-122.19c-3.67-64.75-40.65-81.82-34.27-123.68
				c3.45-22.64,19.61-52.69,77.63-83.39c0.77,25.84,0.63,47.87,0.2,65.37c-1.72,69.62-8.38,92.35,2.64,136.49
				c10.54,42.24,22.01,42.96,40.58,99.04c16.18,48.86,34.97,105.61,13.06,126.71c-18.79,18.09-49.89-6.99-118.47-17.88
				c-105.61-16.77-182.26,17.42-215.8,6.33C1155.28,988.75,1192.04,969.7,1221.03,967.43z"/>
		</g>
		<path style="fill:#26C4CD;" d="M1344,565.12c22.88-18.8,68.88,2.48,81.18,8.17c68.57,31.72,130.15,117.2,114.89,207.53
			c-2.29,13.55-12.9,76.91-66.55,107.62c-48.41,27.7-113.79,20.58-166.17-18.66c-7.16-6.35-14.32-12.7-21.48-19.05
			c-7.04-7.61-14.09-15.22-21.13-22.84c11.07-9.21,29.88-22.49,56.3-31.02c34.83-11.24,60.18,8.93,76.34-6.4
			c11.15-10.58,11.18-29.27,8.42-40.59c-5.55-22.83-25.67-29.25-42.47-45.45C1323.88,666.36,1316.61,587.63,1344,565.12z"/>
		<g>
			<polygon style="fill:#553D8E;" points="1015.22,860.02 1321.87,855.44 1240.33,894.79 1014.43,880.01 			"/>
			<path style="fill:#412B6C;" d="M1332.69,863.59L1332.69,863.59c0,5.74-3.59,10.87-8.98,12.83l-97.99,38.41l-0.45-26.63
				l96.6-32.76C1327.29,853.88,1332.69,857.95,1332.69,863.59z"/>
		</g>
		
			<linearGradient id="SVGID_00000034769090116829421220000011383994782005618104_" gradientUnits="userSpaceOnUse" x1="-186.2288" y1="738.6284" x2="-109.3575" y2="738.6284" gradientTransform="matrix(1 0 0 -1 1395.0488 1587.8899)">
			<stop  offset="0" style="stop-color:#FFC444"/>
			<stop  offset="0.9964" style="stop-color:#F36F56"/>
		</linearGradient>
		<path style="fill:url(#SVGID_00000034769090116829421220000011383994782005618104_);" d="M1285.48,845.44
			c1.88-0.42-9.17-22.44-17.84-19.9c-8.67,2.54-51.1,27.13-54.96,37.26c-3.86,10.12-3.86,10.12-3.86,10.12s18.51,1.45,29.99-2.41
			C1250.28,866.66,1270.17,848.85,1285.48,845.44z"/>
		<g>
			<g>
				
					<linearGradient id="SVGID_00000028292737849439568740000000445329085539790756_" gradientUnits="userSpaceOnUse" x1="1117.48" y1="745.1437" x2="1045.1565" y2="847.8428" gradientTransform="matrix(-1 0 0 -1 2133.0151 1587.8899)">
					<stop  offset="0" style="stop-color:#444B8C"/>
					<stop  offset="0.9964" style="stop-color:#26264F"/>
				</linearGradient>
				<path style="fill:url(#SVGID_00000028292737849439568740000000445329085539790756_);" d="M1217.14,701.34l21.62,196.81
					c0.75,6.79-8.76,16.91-15.59,16.59l-317.1-19.47c-5.21-0.25-9.55-4.08-10.43-9.22l-39.8-190.08
					c-1.19-6.92,11.25-14.06,18.26-13.87l332.3,9.34C1211.95,691.6,1216.54,695.82,1217.14,701.34z"/>
				<path style="fill:#553D8E;" d="M1209.9,707.08l21.62,196.81c0.75,6.79-4.75,12.64-11.58,12.32l-321.11-15.2
					c-5.21-0.25-9.55-4.08-10.43-9.22l-32.81-190.95c-1.19-6.92,4.25-13.19,11.27-13l332.3,9.34
					C1204.71,697.33,1209.29,701.56,1209.9,707.08z"/>
			</g>
			<path style="fill:#412B6C;" d="M1021.34,854.89c28.04-11.88,18.14-34.55,51.25-62.78c43.68-37.25,88.2-21.1,103.79-49.97
				c4.85-8.99,7.17-22.99-1.28-45.63l24.06,0.68c5.55,0.15,10.13,4.38,10.74,9.9l21.62,196.81c0.74,6.79-4.75,12.64-11.58,12.32
				l-321.11-15.2c-5.21-0.25-9.55-4.08-10.43-9.22l-4.53-26.35c9.74-5.42,21.39-10.35,34.97-13.11
				C965.95,842.77,989.06,868.57,1021.34,854.89z"/>
		</g>
		
			<linearGradient id="SVGID_00000047047911202597128590000007305052661895044764_" gradientUnits="userSpaceOnUse" x1="-516.5787" y1="699.2978" x2="-464.7186" y2="699.2978" gradientTransform="matrix(1 0 0 -1 1395.0488 1587.8899)">
			<stop  offset="0" style="stop-color:#FFC444"/>
			<stop  offset="0.9964" style="stop-color:#F36F56"/>
		</linearGradient>
		<path style="fill:url(#SVGID_00000047047911202597128590000007305052661895044764_);" d="M878.6,873.48
			c-0.52-1.59,0.58-3.22,2.25-3.3c6.79-0.35,22.53-0.49,31.22,4.83c11.29,6.91,25.88,19.53,13.59,25.9l-11.48,5.95
			c-0.53,0.27-1.1,0.36-1.68,0.23c-4.08-0.9-21.24-4.7-23.12-5.65C887.67,900.57,881.13,881.15,878.6,873.48z"/>
		<g>
			
				<linearGradient id="SVGID_00000128467023226678423820000012290406370510434442_" gradientUnits="userSpaceOnUse" x1="-123.9031" y1="1118.5242" x2="-136.4319" y2="905.5372" gradientTransform="matrix(1 0 0 -1 1395.0488 1587.8899)">
				<stop  offset="0" style="stop-color:#FFC444"/>
				<stop  offset="0.9964" style="stop-color:#F36F56"/>
			</linearGradient>
			<path style="fill:url(#SVGID_00000128467023226678423820000012290406370510434442_);" d="M1267.99,469.18
				c-0.16,19.29,1.99,34.58,4.03,45.06c2.33,12,4.01,15.1,6.16,17.62c3.23,3.79,8.12,6.96,35.76,13.82
				c15.04,3.73,16.97,3.63,17.31,5.12c1.62,7.28-39.39,32.09-81.76,26.11c-25.93-3.66-49.52-18.45-48.07-26.22
				c1.46-7.82,27.36-3.62,35.08-17.77c5.37-9.84-0.65-23.81-7.77-35.38C1235.6,484.63,1261.1,482.1,1267.99,469.18z"/>
			<g>
				<path style="fill:#412B6C;" d="M1225.64,466.32c-3.11-9.69,1.19-23.23,10.79-29.39c8.27-5.3,17.65-3.21,23.27-1.96
					c16.28,3.63,33.76,17.02,35.63,33.82c1.11,9.95-13.86,24.63-16.35,27.34c-2.81,3.06-6.07,3.32-9.64,5.13
					c-4.94,2.52-12.71,6.56-25.48,13.39c0.31-3.22,0.49-7.27,0.13-11.86c-0.14-1.77-0.75-8.69-3.1-15.06
					C1236.19,474.96,1228.59,475.5,1225.64,466.32z"/>
				
					<linearGradient id="SVGID_00000137819602628552988920000011400234954488622774_" gradientUnits="userSpaceOnUse" x1="1752.3201" y1="3.9784" x2="1815.2002" y2="3.9784" gradientTransform="matrix(0.9446 0.3281 0.3281 -0.9446 -439.6737 -88.2887)">
					<stop  offset="0" style="stop-color:#FFC444"/>
					<stop  offset="0.9964" style="stop-color:#F36F56"/>
				</linearGradient>
				<path style="fill:url(#SVGID_00000137819602628552988920000011400234954488622774_);" d="M1260.03,510.8
					c0,0-16.15,13.31-36.18,4.86c-17.93-7.57-6.33-49.64,8.42-54.3c4.92-1.55,13.17-0.04,18.92,3.95c3.39,2.36,4.12,4.36,9.75,8.11
					c5.18,3.46,7.01,3.39,8.23,5.43c1.52,2.56,1.56,7.54-6.21,18.32c4.73-2.33,9.4-2.23,11.89,0.21c0.4,0.39,1.36,1.68,1.62,3.23
					C1277.39,506.2,1271.01,510.71,1260.03,510.8z"/>
				<path style="fill:#412B6C;" d="M1270.84,476.68c-1.11,0.35,0.44,4.59-0.98,9.33c-2.76,9.2-15.72,16.9-25.4,14.57
					c-5.73-1.38-6.09-5.24-14.9-9.39c-5.46-2.57-10.43-3.48-13.62-3.87c-6.33,8.95-7.07,19.8-2.02,26.71
					c5.44,7.44,15.62,7.61,19.88,7.68c2.85,0.05,11.97,0.22,18.86-5.81c7.18-6.28,4.44-12.52,11.4-16.04
					c3.51-1.77,7.3-1.75,12.4-5.78c1.38-1.09,2.41-2.13,3.07-2.84C1276.55,484.6,1272.46,476.17,1270.84,476.68z"/>
				
					<linearGradient id="SVGID_00000016773534984280454080000015942187260280546190_" gradientUnits="userSpaceOnUse" x1="1758.3669" y1="-6.8262" x2="1772.1814" y2="-6.8262" gradientTransform="matrix(0.9446 0.3281 0.3281 -0.9446 -439.6737 -88.2887)">
					<stop  offset="0" style="stop-color:#FFC444"/>
					<stop  offset="0.9964" style="stop-color:#F36F56"/>
				</linearGradient>
				<path style="fill:url(#SVGID_00000016773534984280454080000015942187260280546190_);" d="M1221.32,493.33
					c0,0,3.24,3.45,10.22,5.44c0.34,0.1,0.67,0.32,0.66,0.51c-0.07,0.7-5.47,2.09-9.12-0.45c-2.59-1.81-3.88-5.3-3.26-5.86
					C1220.09,492.73,1220.72,492.99,1221.32,493.33z"/>
			</g>
		</g>
	</g>
	<g>
		<g>
			<rect x="538.87" y="972.53" style="fill:#D9DBDB;" width="152.67" height="468.77"/>
			<g>
				<g>
					<rect x="576.73" y="925.38" style="fill:#0F5BA7;" width="114.24" height="47.16"/>
					<g>
						<rect x="586.24" y="932.65" style="fill:#1F7ECC;" width="9.77" height="32.61"/>
						<rect x="603.33" y="932.65" style="fill:#1F7ECC;" width="9.77" height="32.61"/>
						<rect x="620.42" y="932.65" style="fill:#1F7ECC;" width="9.77" height="32.61"/>
						<rect x="637.51" y="932.65" style="fill:#1F7ECC;" width="9.77" height="32.61"/>
						<rect x="654.6" y="932.65" style="fill:#1F7ECC;" width="9.77" height="32.61"/>
						<rect x="671.69" y="932.65" style="fill:#1F7ECC;" width="9.77" height="32.61"/>
					</g>
				</g>
				<g>
					
						<linearGradient id="SVGID_00000120554508378365605630000018361828692349161349_" gradientUnits="userSpaceOnUse" x1="690.9711" y1="948.9531" x2="742.9188" y2="948.9531">
						<stop  offset="0" style="stop-color:#D8DEE8"/>
						<stop  offset="1" style="stop-color:#FFFFFF"/>
					</linearGradient>
					
						<rect x="690.97" y="925.38" style="fill:url(#SVGID_00000120554508378365605630000018361828692349161349_);" width="51.95" height="47.16"/>
					<g>
						<rect x="698.25" y="932.65" style="fill:#0F5BA7;" width="8.31" height="32.61"/>
						<rect x="712.79" y="932.65" style="fill:#0F5BA7;" width="8.31" height="32.61"/>
						<rect x="727.33" y="932.65" style="fill:#0F5BA7;" width="8.31" height="32.61"/>
					</g>
				</g>
			</g>
			<g>
				<rect x="690.97" y="972.53" style="fill:#0F5BA7;" width="77.7" height="468.77"/>
			</g>
			<g>
				<rect x="598.4" y="901.48" style="fill:#1A2E35;" width="3.5" height="23.89"/>
				<rect x="665.81" y="901.48" style="fill:#1A2E35;" width="3.5" height="23.89"/>
				<rect x="582.92" y="859.7" style="fill:#FFC800;" width="101.87" height="41.78"/>
			</g>
			<g>
				<rect x="570.12" y="1004.82" style="fill:#0F5BA7;" width="28.18" height="43.15"/>
				<rect x="627.48" y="1004.82" style="fill:#0F5BA7;" width="28.18" height="43.15"/>
				<rect x="570.12" y="1072.82" style="fill:#0F5BA7;" width="28.18" height="43.15"/>
				<rect x="627.48" y="1072.82" style="fill:#0F5BA7;" width="28.18" height="43.15"/>
				<rect x="570.12" y="1140.81" style="fill:#0F5BA7;" width="28.18" height="43.15"/>
				<rect x="627.48" y="1140.81" style="fill:#0F5BA7;" width="28.18" height="43.15"/>
				<rect x="570.12" y="1208.81" style="fill:#0F5BA7;" width="28.18" height="43.15"/>
				<rect x="627.48" y="1208.81" style="fill:#0F5BA7;" width="28.18" height="43.15"/>
				<rect x="570.12" y="1276.81" style="fill:#0F5BA7;" width="28.18" height="43.15"/>
				<rect x="627.48" y="1276.81" style="fill:#0F5BA7;" width="28.18" height="43.15"/>
				<rect x="570.12" y="1344.81" style="fill:#0F5BA7;" width="28.18" height="43.15"/>
				<rect x="627.48" y="1344.81" style="fill:#0F5BA7;" width="28.18" height="43.15"/>
			</g>
			<g>
				<rect x="705.24" y="1004.82" style="fill:#1F7ECC;" width="16.19" height="43.15"/>
				<rect x="738.21" y="1004.82" style="fill:#1F7ECC;" width="16.19" height="43.15"/>
				<rect x="705.24" y="1072.82" style="fill:#1F7ECC;" width="16.19" height="43.15"/>
				<rect x="738.21" y="1072.82" style="fill:#1F7ECC;" width="16.19" height="43.15"/>
				<rect x="705.24" y="1140.81" style="fill:#1F7ECC;" width="16.19" height="43.15"/>
				<rect x="738.21" y="1140.81" style="fill:#1F7ECC;" width="16.19" height="43.15"/>
				<rect x="705.24" y="1208.81" style="fill:#1F7ECC;" width="16.19" height="43.15"/>
				<rect x="738.21" y="1208.81" style="fill:#1F7ECC;" width="16.19" height="43.15"/>
				<rect x="705.24" y="1276.81" style="fill:#1F7ECC;" width="16.19" height="43.15"/>
				<rect x="738.21" y="1276.81" style="fill:#1F7ECC;" width="16.19" height="43.15"/>
				<rect x="705.24" y="1344.81" style="fill:#1F7ECC;" width="16.19" height="43.15"/>
				<rect x="738.21" y="1344.81" style="fill:#1F7ECC;" width="16.19" height="43.15"/>
			</g>
		</g>
		<g>
			<g>
				<rect x="459.94" y="839.92" style="fill:#0F5BA7;" width="81.66" height="601.37"/>
				<rect x="459.94" y="873.61" style="fill:#1F7ECC;" width="81.66" height="6.32"/>
				<g>
					<rect x="468.35" y="898.51" style="fill:#1F7ECC;" width="15.03" height="35.16"/>
					<rect x="468.35" y="942.87" style="fill:#1F7ECC;" width="15.03" height="35.16"/>
					<rect x="468.35" y="987.24" style="fill:#1F7ECC;" width="15.03" height="35.16"/>
					<rect x="468.35" y="1031.58" style="fill:#1F7ECC;" width="15.03" height="35.16"/>
					<rect x="468.35" y="1075.94" style="fill:#1F7ECC;" width="15.03" height="35.16"/>
					<rect x="468.35" y="1120.31" style="fill:#1F7ECC;" width="15.03" height="35.16"/>
					<rect x="468.35" y="1164.65" style="fill:#1F7ECC;" width="15.03" height="35.16"/>
					<rect x="468.35" y="1209.01" style="fill:#1F7ECC;" width="15.03" height="35.16"/>
					<rect x="468.35" y="1253.38" style="fill:#1F7ECC;" width="15.03" height="35.16"/>
					<rect x="468.35" y="1297.71" style="fill:#1F7ECC;" width="15.03" height="35.16"/>
					<rect x="468.35" y="1342.08" style="fill:#1F7ECC;" width="15.03" height="35.16"/>
					<rect x="468.35" y="1386.44" style="fill:#1F7ECC;" width="15.03" height="35.16"/>
					<rect x="468.35" y="898.51" style="fill:#1F7ECC;" width="15.03" height="35.16"/>
					<rect x="468.35" y="942.87" style="fill:#1F7ECC;" width="15.03" height="35.16"/>
					<rect x="468.35" y="987.24" style="fill:#1F7ECC;" width="15.03" height="35.16"/>
					<rect x="468.35" y="1031.58" style="fill:#1F7ECC;" width="15.03" height="35.16"/>
					<rect x="468.35" y="1075.94" style="fill:#1F7ECC;" width="15.03" height="35.16"/>
					<rect x="468.35" y="1120.31" style="fill:#1F7ECC;" width="15.03" height="35.16"/>
					<rect x="468.35" y="1164.65" style="fill:#1F7ECC;" width="15.03" height="35.16"/>
					<rect x="468.35" y="1209.01" style="fill:#1F7ECC;" width="15.03" height="35.16"/>
					<rect x="468.35" y="1253.38" style="fill:#1F7ECC;" width="15.03" height="35.16"/>
					<rect x="468.35" y="1297.71" style="fill:#1F7ECC;" width="15.03" height="35.16"/>
					<rect x="468.35" y="1342.08" style="fill:#1F7ECC;" width="15.03" height="35.16"/>
					<rect x="468.35" y="1386.44" style="fill:#1F7ECC;" width="15.03" height="35.16"/>
					<rect x="493.25" y="898.51" style="fill:#1F7ECC;" width="15.03" height="35.16"/>
					<rect x="493.25" y="942.87" style="fill:#1F7ECC;" width="15.03" height="35.16"/>
					<rect x="493.25" y="987.24" style="fill:#1F7ECC;" width="15.03" height="35.16"/>
					<rect x="493.25" y="1031.58" style="fill:#1F7ECC;" width="15.03" height="35.16"/>
					<rect x="493.25" y="1075.94" style="fill:#1F7ECC;" width="15.03" height="35.16"/>
					<rect x="493.25" y="1120.31" style="fill:#1F7ECC;" width="15.03" height="35.16"/>
					<rect x="493.25" y="1164.65" style="fill:#1F7ECC;" width="15.03" height="35.16"/>
					<rect x="493.25" y="1209.01" style="fill:#1F7ECC;" width="15.03" height="35.16"/>
					<rect x="493.25" y="1253.38" style="fill:#1F7ECC;" width="15.03" height="35.16"/>
					<rect x="493.25" y="1297.71" style="fill:#1F7ECC;" width="15.03" height="35.16"/>
					<rect x="493.25" y="1342.08" style="fill:#1F7ECC;" width="15.03" height="35.16"/>
					<rect x="493.25" y="1386.44" style="fill:#1F7ECC;" width="15.03" height="35.16"/>
					<rect x="493.25" y="898.51" style="fill:#1F7ECC;" width="15.03" height="35.16"/>
					<rect x="493.25" y="942.87" style="fill:#1F7ECC;" width="15.03" height="35.16"/>
					<rect x="493.25" y="987.24" style="fill:#1F7ECC;" width="15.03" height="35.16"/>
					<rect x="493.25" y="1031.58" style="fill:#1F7ECC;" width="15.03" height="35.16"/>
					<rect x="493.25" y="1075.94" style="fill:#1F7ECC;" width="15.03" height="35.16"/>
					<rect x="493.25" y="1120.31" style="fill:#1F7ECC;" width="15.03" height="35.16"/>
					<rect x="493.25" y="1164.65" style="fill:#1F7ECC;" width="15.03" height="35.16"/>
					<rect x="493.25" y="1209.01" style="fill:#1F7ECC;" width="15.03" height="35.16"/>
					<rect x="493.25" y="1253.38" style="fill:#1F7ECC;" width="15.03" height="35.16"/>
					<rect x="493.25" y="1297.71" style="fill:#1F7ECC;" width="15.03" height="35.16"/>
					<rect x="493.25" y="1342.08" style="fill:#1F7ECC;" width="15.03" height="35.16"/>
					<rect x="493.25" y="1386.44" style="fill:#1F7ECC;" width="15.03" height="35.16"/>
					<rect x="518.15" y="898.51" style="fill:#1F7ECC;" width="15.03" height="35.16"/>
					<rect x="518.15" y="942.87" style="fill:#1F7ECC;" width="15.03" height="35.16"/>
					<rect x="518.15" y="987.24" style="fill:#1F7ECC;" width="15.03" height="35.16"/>
					<rect x="518.15" y="1031.58" style="fill:#1F7ECC;" width="15.03" height="35.16"/>
					<rect x="518.15" y="1075.94" style="fill:#1F7ECC;" width="15.03" height="35.16"/>
					<rect x="518.15" y="1120.31" style="fill:#1F7ECC;" width="15.03" height="35.16"/>
					<rect x="518.15" y="1164.65" style="fill:#1F7ECC;" width="15.03" height="35.16"/>
					<rect x="518.15" y="1209.01" style="fill:#1F7ECC;" width="15.03" height="35.16"/>
					<rect x="518.15" y="1253.38" style="fill:#1F7ECC;" width="15.03" height="35.16"/>
					<rect x="518.15" y="1297.71" style="fill:#1F7ECC;" width="15.03" height="35.16"/>
					<rect x="518.15" y="1342.08" style="fill:#1F7ECC;" width="15.03" height="35.16"/>
					<rect x="518.15" y="1386.44" style="fill:#1F7ECC;" width="15.03" height="35.16"/>
					<rect x="518.15" y="898.51" style="fill:#1F7ECC;" width="15.03" height="35.16"/>
					<rect x="518.15" y="942.87" style="fill:#1F7ECC;" width="15.03" height="35.16"/>
					<rect x="518.15" y="987.24" style="fill:#1F7ECC;" width="15.03" height="35.16"/>
					<rect x="518.15" y="1031.58" style="fill:#1F7ECC;" width="15.03" height="35.16"/>
					<rect x="518.15" y="1075.94" style="fill:#1F7ECC;" width="15.03" height="35.16"/>
					<rect x="518.15" y="1120.31" style="fill:#1F7ECC;" width="15.03" height="35.16"/>
					<rect x="518.15" y="1164.65" style="fill:#1F7ECC;" width="15.03" height="35.16"/>
					<rect x="518.15" y="1209.01" style="fill:#1F7ECC;" width="15.03" height="35.16"/>
					<rect x="518.15" y="1253.38" style="fill:#1F7ECC;" width="15.03" height="35.16"/>
					<rect x="518.15" y="1297.71" style="fill:#1F7ECC;" width="15.03" height="35.16"/>
					<rect x="518.15" y="1342.08" style="fill:#1F7ECC;" width="15.03" height="35.16"/>
					<rect x="518.15" y="1386.44" style="fill:#1F7ECC;" width="15.03" height="35.16"/>
				</g>
			</g>
			<g>
				<rect x="320.34" y="839.92" style="fill:#D9DBDB;" width="139.6" height="601.37"/>
				<rect x="320.34" y="873.61" style="fill:#0F5BA7;" width="139.6" height="6.32"/>
				<rect x="370.1" y="806.14" style="fill:#1F7ECC;" width="89.84" height="33.79"/>
				
					<rect x="459.94" y="806.14" transform="matrix(-1 -1.224647e-16 1.224647e-16 -1 962.0923 1646.0629)" style="fill:#0F5BA7;" width="42.22" height="33.79"/>
				<g>
					<rect x="335.29" y="898.51" style="fill:#0F5BA7;" width="24.4" height="35.16"/>
					<rect x="335.29" y="942.87" style="fill:#0F5BA7;" width="24.4" height="35.16"/>
					<rect x="335.29" y="987.24" style="fill:#0F5BA7;" width="24.4" height="35.16"/>
					<rect x="335.29" y="1031.58" style="fill:#0F5BA7;" width="24.4" height="35.16"/>
					<rect x="335.29" y="1075.94" style="fill:#0F5BA7;" width="24.4" height="35.16"/>
					<rect x="335.29" y="1120.31" style="fill:#0F5BA7;" width="24.4" height="35.16"/>
					<rect x="335.29" y="1164.65" style="fill:#0F5BA7;" width="24.4" height="35.16"/>
					<rect x="335.29" y="1209.01" style="fill:#0F5BA7;" width="24.4" height="35.16"/>
					<rect x="335.29" y="1253.38" style="fill:#0F5BA7;" width="24.4" height="35.16"/>
					<rect x="335.29" y="1297.71" style="fill:#0F5BA7;" width="24.4" height="35.16"/>
					<rect x="335.29" y="1342.08" style="fill:#0F5BA7;" width="24.4" height="35.16"/>
					<rect x="335.29" y="1386.44" style="fill:#0F5BA7;" width="24.4" height="35.16"/>
					<rect x="335.29" y="898.51" style="fill:#0F5BA7;" width="24.4" height="35.16"/>
					<rect x="335.29" y="942.87" style="fill:#0F5BA7;" width="24.4" height="35.16"/>
					<rect x="335.29" y="987.24" style="fill:#0F5BA7;" width="24.4" height="35.16"/>
					<rect x="335.29" y="1031.58" style="fill:#0F5BA7;" width="24.4" height="35.16"/>
					<rect x="335.29" y="1075.94" style="fill:#0F5BA7;" width="24.4" height="35.16"/>
					<rect x="335.29" y="1120.31" style="fill:#0F5BA7;" width="24.4" height="35.16"/>
					<rect x="335.29" y="1164.65" style="fill:#0F5BA7;" width="24.4" height="35.16"/>
					<rect x="335.29" y="1209.01" style="fill:#0F5BA7;" width="24.4" height="35.16"/>
					<rect x="335.29" y="1253.38" style="fill:#0F5BA7;" width="24.4" height="35.16"/>
					<rect x="335.29" y="1297.71" style="fill:#0F5BA7;" width="24.4" height="35.16"/>
					<rect x="335.29" y="1342.08" style="fill:#0F5BA7;" width="24.4" height="35.16"/>
					<rect x="335.29" y="1386.44" style="fill:#0F5BA7;" width="24.4" height="35.16"/>
					<rect x="375.72" y="898.51" style="fill:#0F5BA7;" width="24.4" height="35.16"/>
					<rect x="375.72" y="942.87" style="fill:#0F5BA7;" width="24.4" height="35.16"/>
					<rect x="375.72" y="987.24" style="fill:#0F5BA7;" width="24.4" height="35.16"/>
					<rect x="375.72" y="1031.58" style="fill:#0F5BA7;" width="24.4" height="35.16"/>
					<rect x="375.72" y="1075.94" style="fill:#0F5BA7;" width="24.4" height="35.16"/>
					<rect x="375.72" y="1120.31" style="fill:#0F5BA7;" width="24.4" height="35.16"/>
					<rect x="375.72" y="1164.65" style="fill:#0F5BA7;" width="24.4" height="35.16"/>
					<rect x="375.72" y="1209.01" style="fill:#0F5BA7;" width="24.4" height="35.16"/>
					<rect x="375.72" y="1253.38" style="fill:#0F5BA7;" width="24.4" height="35.16"/>
					<rect x="375.72" y="1297.71" style="fill:#0F5BA7;" width="24.4" height="35.16"/>
					<rect x="375.72" y="1342.08" style="fill:#0F5BA7;" width="24.4" height="35.16"/>
					<rect x="375.72" y="1386.44" style="fill:#0F5BA7;" width="24.4" height="35.16"/>
					<rect x="375.72" y="898.51" style="fill:#0F5BA7;" width="24.4" height="35.16"/>
					<rect x="375.72" y="942.87" style="fill:#0F5BA7;" width="24.4" height="35.16"/>
					<rect x="375.72" y="987.24" style="fill:#0F5BA7;" width="24.4" height="35.16"/>
					<rect x="375.72" y="1031.58" style="fill:#0F5BA7;" width="24.4" height="35.16"/>
					<rect x="375.72" y="1075.94" style="fill:#0F5BA7;" width="24.4" height="35.16"/>
					<rect x="375.72" y="1120.31" style="fill:#0F5BA7;" width="24.4" height="35.16"/>
					<rect x="375.72" y="1164.65" style="fill:#0F5BA7;" width="24.4" height="35.16"/>
					<rect x="375.72" y="1209.01" style="fill:#0F5BA7;" width="24.4" height="35.16"/>
					<rect x="375.72" y="1253.38" style="fill:#0F5BA7;" width="24.4" height="35.16"/>
					<rect x="375.72" y="1297.71" style="fill:#0F5BA7;" width="24.4" height="35.16"/>
					<rect x="375.72" y="1342.08" style="fill:#0F5BA7;" width="24.4" height="35.16"/>
					<rect x="375.72" y="1386.44" style="fill:#0F5BA7;" width="24.4" height="35.16"/>
					<rect x="416.15" y="898.51" style="fill:#0F5BA7;" width="24.4" height="35.16"/>
					<rect x="416.15" y="942.87" style="fill:#0F5BA7;" width="24.4" height="35.16"/>
					<rect x="416.15" y="987.24" style="fill:#0F5BA7;" width="24.4" height="35.16"/>
					<rect x="416.15" y="1031.58" style="fill:#0F5BA7;" width="24.4" height="35.16"/>
					<rect x="416.15" y="1075.94" style="fill:#0F5BA7;" width="24.4" height="35.16"/>
					<rect x="416.15" y="1120.31" style="fill:#0F5BA7;" width="24.4" height="35.16"/>
					<rect x="416.15" y="1164.65" style="fill:#0F5BA7;" width="24.4" height="35.16"/>
					<rect x="416.15" y="1209.01" style="fill:#0F5BA7;" width="24.4" height="35.16"/>
					<rect x="416.15" y="1253.38" style="fill:#0F5BA7;" width="24.4" height="35.16"/>
					<rect x="416.15" y="1297.71" style="fill:#0F5BA7;" width="24.4" height="35.16"/>
					<rect x="416.15" y="1342.08" style="fill:#0F5BA7;" width="24.4" height="35.16"/>
					<rect x="416.15" y="1386.44" style="fill:#0F5BA7;" width="24.4" height="35.16"/>
					<rect x="416.15" y="898.51" style="fill:#0F5BA7;" width="24.4" height="35.16"/>
					<rect x="416.15" y="942.87" style="fill:#0F5BA7;" width="24.4" height="35.16"/>
					<rect x="416.15" y="987.24" style="fill:#0F5BA7;" width="24.4" height="35.16"/>
					<rect x="416.15" y="1031.58" style="fill:#0F5BA7;" width="24.4" height="35.16"/>
					<rect x="416.15" y="1075.94" style="fill:#0F5BA7;" width="24.4" height="35.16"/>
					<rect x="416.15" y="1120.31" style="fill:#0F5BA7;" width="24.4" height="35.16"/>
					<rect x="416.15" y="1164.65" style="fill:#0F5BA7;" width="24.4" height="35.16"/>
					<rect x="416.15" y="1209.01" style="fill:#0F5BA7;" width="24.4" height="35.16"/>
					<rect x="416.15" y="1253.38" style="fill:#0F5BA7;" width="24.4" height="35.16"/>
					<rect x="416.15" y="1297.71" style="fill:#0F5BA7;" width="24.4" height="35.16"/>
					<rect x="416.15" y="1342.08" style="fill:#0F5BA7;" width="24.4" height="35.16"/>
					<rect x="416.15" y="1386.44" style="fill:#0F5BA7;" width="24.4" height="35.16"/>
				</g>
			</g>
		</g>
		<g>
			<polygon style="fill:#189DA0;" points="267.36,1441.3 156.69,1441.3 156.69,1094.12 267.36,1022.4 			"/>
			<g>
				<polygon style="fill:#189DA0;" points="253.13,1441.3 169.14,1441.3 169.14,1103.83 253.13,1049.4 				"/>
				<g style="opacity:0.3;">
					<rect x="178.76" y="1109.68" width="74.37" height="2.68"/>
					<rect x="178.76" y="1131.61" width="74.37" height="2.68"/>
					<rect x="178.76" y="1153.54" width="74.37" height="2.68"/>
					<rect x="178.76" y="1175.47" width="74.37" height="2.68"/>
					<rect x="178.76" y="1197.39" width="74.37" height="2.68"/>
					<rect x="178.76" y="1219.32" width="74.37" height="2.68"/>
					<rect x="178.76" y="1241.25" width="74.37" height="2.68"/>
					<rect x="178.76" y="1263.18" width="74.37" height="2.68"/>
					<rect x="178.76" y="1285.11" width="74.37" height="2.68"/>
					<rect x="178.76" y="1307.04" width="74.37" height="2.68"/>
					<rect x="178.76" y="1328.97" width="74.37" height="2.68"/>
					<rect x="178.76" y="1350.9" width="74.37" height="2.68"/>
					<rect x="178.76" y="1372.83" width="74.37" height="2.68"/>
					<rect x="178.76" y="1394.76" width="74.37" height="2.68"/>
					<rect x="178.76" y="1416.69" width="74.37" height="2.68"/>
					<rect x="178.76" y="1438.62" width="74.37" height="2.68"/>
					
						<rect x="37.39" y="1261.41" transform="matrix(6.123234e-17 -1 1 6.123234e-17 -1046.8003 1478.6901)" width="357.1" height="2.68"/>
				</g>
				<g>
					<polygon style="fill:#FFC800;" points="253.13,1049.4 253.13,1061.48 178.76,1109.68 178.76,1441.3 169.15,1441.3 
						169.15,1103.83 					"/>
					<polygon style="fill:#0B5759;" points="253.13,1049.4 253.13,1061.48 178.76,1109.68 178.76,1441.3 169.15,1441.3 
						169.15,1103.83 					"/>
				</g>
			</g>
			<g>
				<g>
					<rect x="267.36" y="1022.4" style="fill:#FFC800;" width="97.5" height="418.9"/>
					<rect x="267.36" y="1022.4" style="fill:#26C4CF;" width="97.5" height="418.9"/>
				</g>
				<g style="opacity:0.2;">
					<rect x="276.82" y="1049.4" width="78.58" height="9.48"/>
					<rect x="276.82" y="1070.88" width="78.58" height="9.48"/>
					<rect x="276.82" y="1092.36" width="78.58" height="9.48"/>
					<rect x="276.82" y="1113.84" width="78.58" height="9.48"/>
					<rect x="276.82" y="1135.33" width="78.58" height="9.48"/>
					<rect x="276.82" y="1156.81" width="78.58" height="9.48"/>
					<rect x="276.82" y="1178.29" width="78.58" height="9.48"/>
					<rect x="276.82" y="1199.77" width="78.58" height="9.48"/>
					<rect x="276.82" y="1221.25" width="78.58" height="9.48"/>
					<rect x="276.82" y="1242.74" width="78.58" height="9.48"/>
					<rect x="276.82" y="1264.22" width="78.58" height="9.48"/>
					<rect x="276.82" y="1285.7" width="78.58" height="9.48"/>
					<rect x="276.82" y="1307.18" width="78.58" height="9.48"/>
					<rect x="276.82" y="1328.66" width="78.58" height="9.48"/>
					<rect x="276.82" y="1350.15" width="78.58" height="9.48"/>
					<rect x="276.82" y="1371.63" width="78.58" height="9.48"/>
					<rect x="276.82" y="1393.11" width="78.58" height="9.48"/>
					<rect x="276.82" y="1414.59" width="78.58" height="9.48"/>
				</g>
			</g>
		</g>
	</g>
</g>
<g>
	<rect x="93.35" y="-584.86" style="fill:#F47322;" width="193.46" height="163.4"/>
	<rect x="333.54" y="-584.86" style="fill:#DE2C38;" width="193.46" height="163.4"/>
	<rect x="573.73" y="-584.86" style="fill:#F78F1E;" width="193.46" height="163.4"/>
	<rect x="810.65" y="-584.86" style="fill:#4BC2C0;" width="193.46" height="163.4"/>
	<rect x="1057.71" y="-584.86" style="fill:#B93F7A;" width="193.46" height="163.4"/>
	<rect x="93.35" y="-403.82" style="fill:#422C6C;" width="193.46" height="163.4"/>
	<rect x="333.54" y="-395.98" style="fill:#0F5BA7;" width="193.46" height="163.4"/>
	<rect x="573.73" y="-395.98" style="fill:#26C4CF;" width="193.46" height="163.4"/>
</g>
</svg>
