<?xml version="1.0" encoding="utf-8"?>
<!-- Generator: Adobe Illustrator 26.3.1, SVG Export Plug-In . SVG Version: 6.00 Build 0)  -->
<svg version="1.1" id="Layer_1" xmlns="http://www.w3.org/2000/svg" xmlns:xlink="http://www.w3.org/1999/xlink" x="0px" y="0px"
	 viewBox="0 0 516.3 424.5" style="enable-background:new 0 0 516.3 424.5;" xml:space="preserve">
<style type="text/css">
	.st0{fill:none;stroke:#0A58CF;stroke-miterlimit:10;}
	.st1{opacity:0.1;fill:#FFFFFF;enable-background:new    ;}
	.st2{opacity:0.24;fill:#FFFFFF;enable-background:new    ;}
	.st3{opacity:0.14;fill:#FFFFFF;enable-background:new    ;}
	.st4{fill:#F7951D;}
	.st5{fill:#063985;}
	.st6{fill:#412B6C;}
	.st7{fill:#0E5BA8;}
	.st8{fill:none;stroke:#063985;stroke-width:1.1156;stroke-miterlimit:10;}
	.st9{fill:#0848A8;}
	.st10{fill:none;stroke:#FFFFFF;stroke-width:1.1156;stroke-miterlimit:10;}
	.st11{fill:#819DC7;}
	.st12{fill:#FFADA0;}
	.st13{fill:#CC3737;}
	.st14{fill:none;stroke:#CC3737;stroke-width:1.1156;stroke-linecap:round;stroke-linejoin:round;stroke-miterlimit:10;}
	.st15{fill:#FFFFFF;}
	.st16{fill:#FFD685;}
	.st17{fill:none;stroke:#FFD685;stroke-width:1.1156;stroke-miterlimit:10;}
	.st18{fill:#0C2C5E;}
	.st19{fill:none;stroke:#CC3737;stroke-width:1.1156;stroke-miterlimit:10;}
	.st20{fill:#020914;}
	.st21{fill:#FFBB00;}
	.st22{opacity:0.39;fill:#FFFFFF;enable-background:new    ;}
	.st23{fill:#26C4CD;}
	.st24{fill:none;stroke:#FFFFFF;stroke-width:1.265;stroke-miterlimit:10;}
	.st25{fill:none;stroke:#FFFFFF;stroke-width:0.9169;stroke-miterlimit:10;}
	.st26{fill:#D42940;}
	.st27{fill:#FF6363;}
	.st28{fill:#0A58CF;}
	.st29{fill:none;stroke:#FFFFFF;stroke-width:0.9163;stroke-miterlimit:10;}
	.st30{fill:#7DAEFA;}
	.st31{opacity:0.2;}
</style>
<g>
	<path class="st0" d="M220.8,340.9L27.3,388.4c-20.2,5-31.8-7.8-25.7-28.4l74.8-256.3c6-20.7,27.3-41.4,47.6-46.4L317.5,9.8
		c20.2-5,31.8,7.8,25.7,28.4l-74.8,256.2C262.4,315.2,241.1,335.9,220.8,340.9z"/>
	<g>
		<path class="st1" d="M279.4,127.3L226,140.4c-5.6,1.4-8.8-2.1-7.1-7.9l20.6-70.7c1.7-5.7,7.5-11.4,13.1-12.8l53.4-13.1
			c5.6-1.4,8.8,2.1,7.1,7.8l-20.6,70.7C290.9,120.2,285,125.9,279.4,127.3z"/>
		<path class="st1" d="M155.4,330.8L102,343.9c-5.6,1.4-8.8-2.1-7.1-7.9l20.7-70.7c1.7-5.7,7.5-11.4,13.1-12.8l53.4-13.1
			c5.6-1.4,8.8,2.1,7.1,7.9L168.5,318C166.9,323.7,161,329.4,155.4,330.8z"/>
		<path class="st1" d="M133.6,298.8l-53.4,13.1c-5.6,1.4-8.8-2.1-7.1-7.9l20.7-70.7c1.7-5.7,7.5-11.4,13.1-12.8l53.4-13.1
			c5.6-1.4,8.8,2.1,7.1,7.9L146.7,286C145,291.7,139.1,297.4,133.6,298.8z"/>
		<path class="st2" d="M252.5,89.8l-32.7,8c-3.4,0.8-5.4-1.3-4.4-4.8L228,49.7c1-3.5,4.6-7,8-7.8l32.7-8c3.4-0.8,5.4,1.3,4.4,4.8
			L260.5,82C259.5,85.5,255.9,89,252.5,89.8z"/>
		<path class="st1" d="M389.3,319l-32.7,8c-3.4,0.8-5.4-1.3-4.4-4.8l12.6-43.3c1-3.5,4.6-7,8-7.8l32.7-8c3.4-0.8,5.4,1.3,4.4,4.8
			l-12.6,43.3C396.4,314.7,392.8,318.2,389.3,319z"/>
		<path class="st2" d="M404.5,329.2l-24.1,5.9c-2.5,0.6-4-1-3.2-3.5l6.9-23.2c0.8-2.6,3.4-5.2,5.9-5.8l24.1-5.9c2.5-0.6,4,1,3.2,3.5
			l-6.9,23.2C409.7,326,407,328.6,404.5,329.2z"/>
		<g>
			<path class="st3" d="M437.5,31.1l-58.4,14.3c-3.5,0.8-5.5-1.3-4.4-4.9l2.8-9.7c1-3.5,4.7-7.1,8.2-8l58.4-14.3
				c3.5-0.8,5.5,1.3,4.4,4.9l-2.8,9.7C444.6,26.7,441,30.3,437.5,31.1z"/>
			<path class="st3" d="M432.9,22.7L374.6,37c-3.5,0.8-5.5-1.3-4.4-4.9l2.8-9.7c1-3.5,4.7-7.1,8.2-8l58.4-14.3
				c3.5-0.9,5.5,1.3,4.4,4.9l-2.8,9.7C440.1,18.3,436.4,21.9,432.9,22.7z"/>
		</g>
	</g>
	<ellipse class="st4" cx="133.4" cy="87.2" rx="61" ry="61"/>
	<g>
		<path class="st5" d="M328,395.4c2,5.3,25-8.4,25-8.4l-6.8-14.2C346.2,372.8,324.2,385.1,328,395.4z"/>
		<path class="st4" d="M356.4,369.4c0,0,8.7,12,12.7,15.9s19.7,3.5,26,1.8c6.3-1.7,19.7-6.4,22.4-2s-20.1,18.5-25.1,21.8
			c-5,3.3-9.9,7.4-14.8,10.3c-4.8,2.9-7.5,11.2-13.4,4.9c-6-6.3-6.5-20-9-22.3c-2.6-2.4-20.8-19.5-20.8-19.5S351.3,369,356.4,369.4z
			"/>
		<path class="st6" d="M377.7,417.2c4.8-2.9,9.8-7,14.8-10.3c5-3.3,27.7-17.4,25.1-21.8c-2.6-4.5-16.1,0.3-22.4,2
			c-5,1.3-15.9,1.8-22.2,0.1c-2.7,4.7-4.5,15.3-8.7,17.7c-2.2,1.3-4.3,3.1-5.9,4.6c1.2,4.5,2.8,9.5,5.8,12.7
			C370.2,428.5,372.9,420.2,377.7,417.2z"/>
		<g>
			<path class="st4" d="M305.1,331.6c0,0-11.3,18.7-14.1,24s-9.1,22.3-10.5,29.2s1.9,18-3.5,19.6c-5.3,1.7-9.3-13.1-9.9-24.2
				c-0.6-11.1-4.4-16.3-5-21.8c-0.6-5.5,7.7-8.5,12.2-9.7c4.5-1.2,13.2-26.1,13.2-26.1L305.1,331.6z"/>
			<path class="st6" d="M266.9,380.3c0.6,11.5,4.7,26.6,10.2,24.9s2.1-13.1,3.5-20.2c0.9-4.4,3.6-12.6,6.3-19.5
				c-4.5-4.1-10.4-3.2-13.1-5.2c-2.4-1.7-2.4-7.5-1.3-11.9c-4.8,1.5-11.4,4.5-10.8,9.5C262.4,363.5,266.3,368.8,266.9,380.3z"/>
		</g>
		<path class="st7" d="M215.7,192.5c0,0,7.5,2.7,10.2,10.9c0,0,52.9,6.8,79.7,8.9c26.8,2.1,53.8,9.5,46,41.7s-37,89.1-37,89.1
			l-28.9-18.8c0,0,6.1-10,6.9-18.6c0.8-8.6,2.3-15.7,6.3-22.8s4.8-18.2,5.9-27.8l-80.7,4.6l-56.9-43.2L215.7,192.5z"/>
		<line class="st8" x1="304.8" y1="255" x2="332.2" y2="253.7"/>
		<line class="st8" x1="311.6" y1="259.7" x2="327.5" y2="266.1"/>
		<path class="st9" d="M318.5,285.1c-7.6-12.1-13.3-15.1-14.2-25.5l0,0c-0.9,8.4-2,17.2-5.4,23.2c-4,7.1-5.4,14.2-6.3,22.8
			c-0.8,8.6-6.9,18.6-6.9,18.6l28.9,18.8c0,0,7.2-14.1,15.5-32.2C326,303.5,323.7,293.4,318.5,285.1z"/>
		<path class="st9" d="M280.9,256.4c-5-2.6-11.8-5.3-15.8-7.2c-6.3-3-11-8.6-20.7-11.6c-15.6-4.8-17.6-6-29.5-12.7
			s-18.4-5.2-18.4-5.2l3.2,21.5l24.4,18.5L280.9,256.4z"/>
		<path class="st7" d="M143.3,226.6c0,0-3.9,31,24.2,44.7c37.4,18.2,85.9,34,85.9,34s4,14.2,15.5,23.4c11.5,9.2,13.8,11.1,18.6,18.8
			c4.8,7.7,5.2,11.1,15.5,16.5c10.2,5.4,12.8,11.7,25.1,31.4c0,0-0.4-8.8,31-23.4c0,0-48.5-69.4-63-85.8s-28-25.9-51.9-39
			c-23.9-13.1-47.7-27.6-47.7-27.6l-6.9-12.7L143.3,226.6z"/>
		<path class="st10" d="M158.8,242c0,0,6.7,11.9,36.4,24.9c29.7,13,65.9,26.1,65.9,26.1s11.7,16.3,21.5,25.9s15.3,21.8,30.3,34.5
			s26.1,24.3,27.3,28.7"/>
		<path class="st9" d="M225.9,203.4c-2.7-8.2-10.2-10.9-10.2-10.9l-48.5,23.9l-23.9,10.1c0,0-0.2,1.5-0.2,4l1.9,3
			c0,0,10.6-0.3,24-4.6c13.5-4.2,19.1-12.5,36.7-13.4c9.4-0.5,20,0.5,25.3-3.9c3.3-2.8,8.2-4.8,14.4-5.9
			C234,204.4,225.9,203.4,225.9,203.4z"/>
		<path class="st11" d="M209,163.4c10,2.1,22.4-15.8,22.1-29.6c-0.2-7-24.7,1.6-24.7,1.6S200.1,161.6,209,163.4z"/>
		<g>
			<path class="st12" d="M235.4,109.4l14.8,2.5c0,0,47-39.8,50.3-43.3c3.4-3.4,10-10.3,13.8-12.1c3.8-1.8,16.5-4.9,19.6-5.9
				c3-0.9-0.1,2-2.3,2.7c-2.2,0.7-7.1,3-7.1,3s1.3,2,0.8,4c0.7,2.6,0,4.6,0,4.6s0.6,1.9-1.2,3.8c-1.8,1.9-7,4.2-10.1,2.8
				c0,0-28.7,41.3-37.9,54.6c-9.2,13.3-21,23.8-43.9,21.9c-22.9-1.9-32.1-3.5-32.1-3.5S222.2,108.6,235.4,109.4z"/>
			<path class="st13" d="M227.9,140.5c-4.9-9.5-2.6-23.4,2.8-27.8l-3.8-0.1c-12.5,8.6-27,32-27,32c-2.7-0.8,9.6,1.5,23.3,2.9
				C226.9,147.8,229.6,143.8,227.9,140.5z"/>
			<path class="st14" d="M316,58c2.5-0.5,6,0.1,6.7,1.5s0.7,6.8,0,7.1s-2.5-2.1-2.5-5c0,0-1.5,4.8-6.7,4.1"/>
		</g>
		<path class="st15" d="M101.3,122.8c0,0,43.3-12.2,58.4-17.1c15.1-4.9,28.9-3.3,36.6,0c2.7,1.2,4.8-1.1,13.6,1.4
			c8.8,2.5,18.4-1.7,25.5,2.3c0,0-13,6.7-22.8,28s-3.6,25.9-3.6,25.9l-12.8-1.5c0,0,6.9,2.7,10,9s2.5,10,8.4,12.3s13.4,4.6,11.3,8.4
			c-2.1,3.8-30.5,16.9-51.2,28c-20.7,11.1-34.3,17.4-38.1,13.8c-3.8-3.6-2.5-6.4-6.7-13.8c-4.2-7.5-18.7-31.6-18.7-31.6l-4,9.7
			c-0.9,2.2-2.8,4-5.1,4.6c-5.3,1.6-15.3,3.4-24.7-0.8c-13.6-6.1-16.9-11.5-18.4-15.5c-1.3-3.6,5-3.4,5.9-9
			c0.8-5.6,0.6-7.7,4.4-12.3c3.8-4.6,7.1-8.6,9.6-16.5C81.4,140.4,87.1,128.1,101.3,122.8z"/>
		
			<ellipse transform="matrix(0.3912 -0.9203 0.9203 0.3912 -142.7315 289.0253)" class="st4" cx="147.1" cy="252.4" rx="36" ry="36"/>
		<path class="st16" d="M130.9,164.4c3-13.3-6.8-12.9-8.9-6.8c-2.2,6.1-10.7,30.4-10.7,30.4s8.6,14.2,14.4,24.2
			C121.1,194.3,128.2,176.6,130.9,164.4z"/>
		<path class="st17" d="M178.3,127.1c8,6.8,6.5,26,18.1,33.5"/>
		<g>
			<path class="st16" d="M196.2,161.9l0.2,0.1C196.3,162,196.2,161.9,196.2,161.9z"/>
			<path class="st16" d="M196.2,161.9l12.8,1.5c0,0-2.7-2-1.8-9.5c-4.1-5.2-6.9-11.9-11-15.8c-0.1-0.1-0.2-0.2-0.4-0.3
				c-4.6-4.1-11.7,0.4-9.9,6.4C188,151.1,190.4,158.2,196.2,161.9z"/>
		</g>
		<g>
			<path class="st10" d="M133.2,248.2c1.8-2.3,10.5-7.5,15.4-10.2"/>
			<path class="st7" d="M133.8,265c-1.4-0.8-1.7-2.6-0.7-3.8c4.9-6.1,17.9-22.2,20.8-25.5c3.5-4,7.3-3.3,15.3-1.5
				c8,1.7,9.7,4.2,8.9,6.5s-5.2,3.2-9.9,3.5c-4.7,0.3-7,1.4-11.1,6.6c-4.1,5.2-14.4,19.2-14.4,19.2L133.8,265z"/>
			<path class="st18" d="M173.5,243.5c-2.6,0.8-7.3,2.9-7.3,2.9l-11.6,11.9l-3.9-2l4.9-9.8c1.7-3.4,5-5.7,8.8-6.2
				c1.9-0.2,3.9-0.5,5.6-0.6C174.6,239.1,176.9,242.4,173.5,243.5z"/>
			<path class="st12" d="M101.6,198l-9.9,23.7c0,0,42.2,27.9,47.2,28.2c5,0.3,11.8-3.6,19.4-3.1c7.7,0.5,8.2,3.9,6,4.1s-6.9-0.2-8,0
				c0,0,4.6,0.3,3.9,3.1c-0.6,2.8-6.4,8.6-9.6,8.8c-3.1,0.2-5.2-0.3-8.5,0c-3.3,0.3-6.6-0.5-7.2-3.6c0,0-36.9-5.3-60.1-12.7
				c-23.2-7.4-22.6-23.2-18.8-35.9c3.8-12.7,7.5-25.3,7.5-25.3L101.6,198z"/>
			<path class="st13" d="M79,211.2c6.3-1.3,12.5-1.5,18.6-3.6l4-9.6l-38-12.7c0,0-3.8,12.6-7.5,25.3c-0.1,0.5-0.3,0.9-0.4,1.4
				C63.4,217.1,72.2,212.6,79,211.2z"/>
			<line class="st19" x1="91.7" y1="221.7" x2="82.6" y2="216.4"/>
			<path class="st15" d="M108.8,268.3c-2.5-0.1-4.4-1.1-5.7-3c-1.2-1.8-1.2-4-0.1-6.6c3.1-6.8,13.5-13.9,22.3-15.2
				c11.5-1.7,20.8-3.5,27.5-6.6c0.4-0.5,0.7-0.8,0.9-1.1c0.6-0.7,1.2-1.2,1.8-1.6c-6.7,4.2-17,6.4-30.5,8.3
				c-9.1,1.3-19.9,8.7-23.1,15.8c-1.3,2.9-1.2,5.5,0.1,7.6c1.5,2.2,3.7,3.5,6.6,3.5c0.1,0,0.2,0,0.3,0c5.8,0,13.4-4.7,18.7-11.4
				l-1.3-0.2C121.3,264.1,114,268.5,108.8,268.3z"/>
		</g>
		<path class="st15" d="M107.8,196.5l-42.6-21.9c-0.1,0.8-0.2,1.6-0.4,2.6c-0.8,5.6-7.2,5.3-5.9,9c1.5,4,4.8,9.4,18.4,15.5
			c9.4,4.2,19.4,2.3,24.7,0.8c2.3-0.7,4.2-2.4,5.1-4.6L107.8,196.5z"/>
		<g>
			<path class="st20" d="M121.6,62.8c2.1,0.1,4.1-0.3,5.8-1.5c1.8-1.3,3.3-2.8,6.3-4.5c4.7-2.5,8,1.1,13.2-0.8c5.2-1.9,10,0.6,11,6
				s-5.2,8.5-9.9,8.9c-4.7,0.5-4.4,3.4-10.8,4.1c-6.4,0.6-10-0.9-11.9,0c0,0,0.3,19.9-5.8,23.1c0,0-1.2-5.5-3.6-10
				c-2.3-4.6-3.7-6.9-4-13C111.6,69.6,116.1,62.4,121.6,62.8z"/>
			<path class="st12" d="M144.1,70.5c0,0-0.5,7.7,1.1,14.1c1.7,6.4,4.5,20.2-4.9,20.7l1.4,6c0,0,16.4,13.4,13.4,18
				c-3,4.6-16.8-10.8-32.1-12.4l-3.7-18.8c0,0-7.7,2.3-8.2-3.6c-0.6-6.7,6.4-7.2,9.8-3.9c1.6-6.3,1.3-16.7,1.3-16.7s4.8-1.7,9.3-0.6
				C136.2,74.3,141.9,72.8,144.1,70.5z"/>
			<path class="st13" d="M140.4,105.3c-4,0.4-10.6-0.2-14.7-4.9c-0.4-0.5-1.2-0.1-1,0.6c1.8,6.1,5.5,11,17.1,10.4L140.4,105.3z"/>
			<g>
				<path class="st7" d="M124.2,81.3l-7.3,5.4l2.3,4.4c0,0,3.4-2.1,7.7,0.3L124.2,81.3z"/>
				<path class="st18" d="M148.1,88.7l-19.8,2.9c-1.8,0.3-3.5-1-3.8-2.8l-0.8-5.2c-0.3-1.8,1-3.5,2.8-3.8l19.8-2.9
					c3.3-0.5,6.3,1.8,6.8,5.1l0,0C153.6,85.2,151.4,88.2,148.1,88.7z"/>
				<path class="st7" d="M149.3,88.5l-14.4,2.1c-2.6,0.4-5.1-1.4-5.4-4.1l-0.3-2.3c-0.4-2.6,1.4-5.1,4.1-5.4l14.4-2.1
					c2.6-0.4,5.1,1.4,5.4,4.1l0.3,2.3C153.7,85.7,151.9,88.1,149.3,88.5z"/>
				<path class="st21" d="M147.5,83.3l-10.7,1.6c-0.4,0.1-0.8-0.2-0.9-0.7l0,0c-0.1-0.4,0.2-0.8,0.7-0.9l10.7-1.6
					c0.4-0.1,0.8,0.2,0.9,0.7l0,0C148.2,82.9,147.9,83.3,147.5,83.3z"/>
			</g>
			<path class="st18" d="M121.6,62.8c-0.4,0-0.8,0-1.2,0.1c-5,4.7-7.9,13.5-4.8,24.4l2.2-0.6c-2.6-9.1-0.6-20,6.7-24
				C123.5,62.8,122.6,62.8,121.6,62.8z"/>
			<g>
				<path class="st18" d="M116.8,83.3c-1.7,0.3-3.6,2-3.6,2l0.2,1.4c-0.7,1.8-0.9,4.3-0.5,6.9c0.4,2.1,1.1,4,2.1,5.5l0.3,2.3
					c0,0,4.4,0.7,4.7,0.6c3.1-0.5,4.8-5.1,4-10.2C123,86.5,119.8,82.8,116.8,83.3z"/>
				<path class="st7" d="M120,92.3c0.8,4.4-1.1,8.4-4.2,8.9c-3.1,0.5-6.1-2.6-6.9-7.1c-0.8-4.4,1.1-8.4,4.2-8.9
					C116.2,84.7,119.3,87.9,120,92.3z"/>
				<path class="st21" d="M115.9,94.2l-3.7,0.6c-0.5,0.1-1-0.3-1.1-0.8l0,0c-0.1-0.5,0.3-1,0.8-1.1l3.7-0.6c0.5-0.1,1,0.3,1.1,0.8
					l0,0C116.8,93.6,116.5,94.1,115.9,94.2z"/>
			</g>
		</g>
		<path class="st16" d="M174.7,219.6c20.7-11.1,49.1-24.2,51.2-28c2.1-3.8-5.4-6.1-11.3-8.4c-5.9-2.3-5.2-6.1-8.4-12.3
			c-1.1-2.2-2.7-4-4.3-5.4c4.3,5.4-0.6,20.1-11.5,31.9c-8.8,9.7-14.6,17.6-17,22.8C173.9,220,174.3,219.8,174.7,219.6z"/>
	</g>
	<g>
		<g>
			<path class="st22" d="M402,149.3l22.7-77.9c1.4-4.8-1.3-7.8-6-6.7l-84.1,20.6c-4.7,1.2-9.7,6-11.1,10.9l-22.7,77.9L402,149.3z"/>
			<path class="st15" d="M300.8,174.1l-14.4,49.4c-1.4,4.8,1.3,7.8,6,6.7l84.1-20.6c4.7-1.2,9.7-6,11.1-10.9l14.4-49.4L300.8,174.1z
				"/>
			<g>
				<g>
					<g>
						<path class="st7" d="M355.7,93.6l25.4-6.2c1.3-0.3,0.9,1.7-0.5,2.3l-21,9.1L355.7,93.6z"/>
						<path class="st7" d="M339.2,150l25.4-6.2c1.3-0.3,2.1-2.4,0.9-2.4l-18.5,0.6L339.2,150z"/>
					</g>
				</g>
				<g>
					<g>
						<g>
							<path class="st4" d="M354,106.3l-10.8,2.7c-1.2,0.3-1.8-0.5-1.4-1.8l0,0c0.4-1.3,1.6-2.6,2.8-2.9l10.8-2.7
								c1.2-0.3,1.8,0.5,1.4,1.8l0,0C356.5,104.7,355.2,106,354,106.3z"/>
							<path class="st4" d="M356.1,114.3l-10.8,2.7c-1.2,0.3-1.8-0.5-1.4-1.8l0,0c0.4-1.3,1.6-2.6,2.8-2.9l10.8-2.7
								c1.2-0.3,1.8,0.5,1.4,1.8l0,0C358.5,112.7,357.2,114,356.1,114.3z"/>
						</g>
						<g>
							<path class="st4" d="M345.3,136.2l-10.8,2.6c-1.2,0.3-2.4,1.6-2.8,2.9l0,0c-0.4,1.3,0.2,2.1,1.4,1.9l10.8-2.6
								c1.2-0.3,2.4-1.6,2.8-2.9l0,0C347.1,136.7,346.5,135.9,345.3,136.2z"/>
							<path class="st4" d="M352.7,125.9l-10.8,2.7c-1.2,0.3-2.4,1.6-2.8,2.9l0,0c-0.4,1.3,0.2,2.1,1.4,1.9l10.8-2.6
								c1.2-0.3,2.4-1.6,2.8-2.9l0,0C354.5,126.4,353.9,125.6,352.7,125.9z"/>
						</g>
					</g>
				</g>
				<path class="st7" d="M394.2,108.5l-41-19.1c-0.8-0.3-1.6,0.2-1.6,1l0.2,16.8c0.1,8.7-2.9,19-8.5,29.1l-9.4,17
					c-0.6,1.1,0.7,2.2,1.6,1.4l59-43.4C395.5,110.6,395.3,109.1,394.2,108.5z"/>
				<path class="st15" d="M382.4,113.2c-1.5,5.2-6.5,10.3-11.1,11.4c-4.6,1.1-7.1-2.2-5.6-7.3s6.5-10.3,11.1-11.4
					C381.4,104.7,383.9,108,382.4,113.2z"/>
			</g>
			<g>
				<path class="st4" d="M381.8,166.7l-69.9,17.1c-1.1,0.3-1.7-0.5-1.4-1.8l0,0c0.4-1.2,1.6-2.5,2.7-2.8l69.9-17.1
					c1.1-0.3,1.7,0.5,1.4,1.8l0,0C384.1,165.2,382.9,166.5,381.8,166.7z"/>
				<path class="st23" d="M349.4,170.5l-36.2,8.9c-1.1,0.3-2.3,1.5-2.7,2.8c-0.4,1.2,0.2,2,1.4,1.8l36.2-8.9L349.4,170.5z"/>
				<path class="st7" d="M353.9,171.5c-0.7,2.3-2.9,4.6-5,5.1c-2.1,0.5-3.2-1-2.5-3.3c0.7-2.3,2.9-4.6,5-5.1
					C353.4,167.7,354.5,169.2,353.9,171.5z"/>
			</g>
			<g>
				<path class="st4" d="M377.1,182.2l-69.7,17.1c-1.2,0.3-1.8-0.4-1.5-1.6l0.1-0.2c0.4-1.2,1.6-2.4,2.7-2.7l69.7-17.1
					c1.2-0.3,1.8,0.4,1.5,1.6l-0.1,0.2C379.5,180.7,378.3,181.9,377.1,182.2z"/>
				<path class="st23" d="M366.1,180.7l-57.4,14.1c-1.1,0.3-2.3,1.5-2.7,2.8c-0.4,1.2,0.2,2,1.4,1.8l57.4-14.1L366.1,180.7z"/>
				<path class="st7" d="M369.2,182.1c-0.7,2.3-2.9,4.6-5,5.1c-2.1,0.5-3.2-1-2.5-3.3c0.7-2.3,2.9-4.6,5-5.1
					C368.7,178.3,369.9,179.8,369.2,182.1z"/>
			</g>
			<g>
				<path class="st4" d="M372.7,197.7l-69.9,17.1c-1.1,0.3-1.7-0.5-1.4-1.8l0,0c0.4-1.2,1.6-2.5,2.7-2.8l69.9-17.1
					c1.1-0.3,1.7,0.5,1.4,1.8l0,0C375,196.2,373.9,197.4,372.7,197.7z"/>
				<path class="st23" d="M366.8,194.9l-62.6,15.4c-1.1,0.3-2.3,1.5-2.7,2.8s0.2,2,1.4,1.8l62.6-15.4L366.8,194.9z"/>
				<path class="st7" d="M368.4,196.6c-0.7,2.3-2.9,4.6-5,5.1c-2.1,0.5-3.2-1-2.5-3.3c0.7-2.3,2.9-4.6,5-5.1
					C368,192.8,369.1,194.3,368.4,196.6z"/>
			</g>
		</g>
		<g>
			<path class="st7" d="M458.1,189.6l-53.3,13.1c-5.7,1.4-8.9-2.2-7.2-8l22.8-78c1.7-5.8,7.7-11.7,13.4-13.1L487,90.5
				c5.7-1.4,8.9,2.2,7.2,8l-22.8,78C469.8,182.3,463.8,188.2,458.1,189.6z"/>
			<path class="st24" d="M462.4,121.1c-2,6.9-8.7,13.8-14.8,15.3c-6.2,1.5-9.5-2.9-7.5-9.8c2-6.9,8.7-13.8,14.8-15.3
				C461.1,109.8,464.4,114.1,462.4,121.1z"/>
			<path class="st23" d="M459.9,137.1c-14.3,2.4-22.3,21.2-35.6,22.5c-7,0.7-13.7,4-18.6,7.1l-8,27.4c-1.8,6.1,1.2,10,6.6,8.6
				l54.2-13.3c5.4-1.3,11.3-7.4,13.1-13.5l17.5-59.8C479.9,123.5,470.5,135.3,459.9,137.1z"/>
			<polyline class="st25" points="467.3,143.6 442.6,176.3 414.2,180.6 			"/>
			<path class="st26" d="M466.8,70.6c-6.2,1.5-15.3,7.8-18.7,19.4c-2.1,7.3-0.8,11.7,1.3,17.7c1.3,3.7,1.2,11.4,1.1,15.8
				c0,0.9,1.2,0.6,1.7-0.4c2.6-5,7.4-13.9,11.2-18.8c6.2-8,10.5-13.8,12.7-21.2C479.5,71.5,472.9,69.1,466.8,70.6z M460.2,93.2
				c-3.3,0.8-5.2-1.6-4.1-5.3c1.1-3.8,4.7-7.5,8-8.3s5.2,1.6,4.1,5.3C467.1,88.6,463.5,92.3,460.2,93.2z"/>
			<path class="st15" d="M472.8,142.3c-1,3.4-4.2,6.7-7.2,7.4s-4.6-1.4-3.6-4.8c1-3.4,4.2-6.7,7.2-7.4
				C472.1,136.9,473.7,139,472.8,142.3z"/>
			<path class="st15" d="M448.1,175c-1,3.4-4.2,6.7-7.2,7.4s-4.6-1.4-3.6-4.8c1-3.4,4.2-6.7,7.2-7.4
				C447.4,169.5,449,171.6,448.1,175z"/>
			<path class="st15" d="M419.6,179.3c-1,3.4-4.2,6.7-7.2,7.4s-4.6-1.4-3.6-4.8c1-3.4,4.2-6.7,7.2-7.4S420.6,175.9,419.6,179.3z"/>
		</g>
		<g>
			<path class="st4" d="M367.4,47.7c-2.9,9.9-12.4,19.7-21.2,21.8s-13.6-4.1-10.7-14c2.9-9.9,12.4-19.7,21.2-21.8
				C365.5,31.6,370.3,37.8,367.4,47.7z"/>
			<g>
				<path class="st15" d="M349.5,58.2c-3.2,0.8-5-1.5-3.9-5.1s4.5-7.2,7.8-8s5,1.5,3.9,5.1C356.2,53.8,352.7,57.4,349.5,58.2z
					 M352.8,47c-2.3,0.6-4.7,3.1-5.5,5.7s0.5,4.2,2.8,3.6c2.3-0.6,4.7-3.1,5.5-5.7S355,46.4,352.8,47z"/>
			</g>
			<polygon class="st15" points="349.1,62.5 347.3,62.9 353.8,40.8 355.5,40.4 			"/>
			<polygon class="st15" points="341.3,55 341.9,53 361.5,48.2 360.9,50.2 			"/>
		</g>
		<path class="st23" d="M436.8,47.3L374,62.7c-2.3,0.6-3.5-1-2.8-3.6l0,0c0.7-2.5,3.2-5,5.4-5.6l62.8-15.4c2.3-0.6,3.5,1,2.8,3.6
			l0,0C441.5,44.3,439,46.8,436.8,47.3z"/>
		<g>
			<g>
				<path class="st7" d="M468.2,35.3c-0.7,2.5-3.2,5-5.4,5.6s-3.5-1-2.8-3.6c0.7-2.5,3.2-5,5.4-5.6C467.7,31.2,469,32.8,468.2,35.3z
					"/>
				<path class="st7" d="M484.2,31.4c-0.7,2.5-3.2,5-5.4,5.6s-3.5-1-2.8-3.6c0.7-2.5,3.2-5,5.4-5.6
					C483.7,27.3,484.9,28.9,484.2,31.4z"/>
				<path class="st7" d="M500.1,27.5c-0.7,2.5-3.2,5.1-5.4,5.6c-2.3,0.6-3.5-1-2.8-3.6c0.7-2.5,3.2-5.1,5.4-5.6
					C499.7,23.4,500.9,25,500.1,27.5z"/>
				<path class="st7" d="M516.1,23.6c-0.7,2.5-3.2,5.1-5.4,5.6s-3.5-1-2.8-3.6c0.7-2.5,3.2-5,5.4-5.6
					C515.6,19.5,516.9,21.1,516.1,23.6z"/>
			</g>
		</g>
		<g>
			<path class="st22" d="M261.4,247.5L209,260.4c-5.5,1.3-8.6-2.1-7-7.7l20.3-69.4c1.6-5.6,7.4-11.2,12.9-12.6l52.4-12.9
				c5.5-1.3,8.6,2.1,7,7.7L274.3,235C272.7,240.6,266.9,246.2,261.4,247.5z"/>
			<g>
				<g>
					
						<ellipse transform="matrix(0.6438 -0.7652 0.7652 0.6438 -69.7102 252.8451)" class="st15" cx="236.7" cy="201.3" rx="17.1" ry="9.7"/>
					<path class="st20" d="M239.6,191.5c-2,0.5-3.2,1.8-3.5,3.3s-0.2,4.8-0.2,4.8l1.4-0.3l1.4-0.3c0,0,2.2-3.8,2.8-5.4
						C242.1,191.9,241.6,191,239.6,191.5z"/>
					<path class="st21" d="M223.8,211.3c1,3.6,4.2,5.3,8.8,4.2c4.6-1.1,9.4-4.9,12.8-9.5c-0.1-0.9-0.1-1.7-0.3-2.3
						c-0.6-2.8-3.1-2.1-4.7-1.9l-4.4,1.9l-3.9,0.2c-1.8,0.7-4.2,1.1-6.7,4.7C225,209.3,224.4,210.3,223.8,211.3z"/>
					<path class="st27" d="M238.4,200.7l0.6-3.1l-1.2,0.3l-1.2,0.3l-1.3,3.3c-0.3,0.8-1,1.5-1.6,1.7l-1.3,0.6
						c0.1,1.1,1.6,1.8,3.4,1.4s4-2,4.8-3.4l-1.2,0.1C238.6,201.9,238.3,201.4,238.4,200.7z"/>
					<path class="st13" d="M238.6,199.9l0.4-2.3l-1.2,0.3l-1.2,0.3l-0.7,1.8c0.1,0.7,0.4,1.3,1.2,1.1
						C237.5,201,238.1,200.5,238.6,199.9z"/>
					<path class="st27" d="M241.1,195.3c-0.1-0.3-1,0.3-1,0.3l0.3-1.5l-1.7,0.4l-1.7,0.4l-0.6,1.6c0,0-0.6-0.2-1,0.2
						c-0.6,0.7-0.5,2,0.4,1.4c-0.2,1,0,2.5,1.1,2.2c1.1-0.3,2.3-2.1,2.7-3.1C240.4,197.3,241.3,195.8,241.1,195.3z"/>
				</g>
				<g>
					
						<ellipse transform="matrix(0.6438 -0.7652 0.7652 0.6438 -53.4818 273.0733)" class="st15" cx="266.6" cy="194" rx="17.1" ry="9.7"/>
					<g>
						<path class="st5" d="M271.1,190.9c0.5-1.2,0.7-1.9,0.6-2.7s-0.3-1.1-0.1-2.2c0.2-1.4-0.4-2.3-2.2-1.9
							c-1.8,0.4-3.1,1.8-3.7,3.3c-0.5,1.2-0.9,1.6-1.5,2.6c-0.6,1-0.7,1.6-1,2.8s-1,2.2-1,2.2l4.4-1.1l4.4-1.1
							C271,192.9,270.7,192.2,271.1,190.9z"/>
						<path class="st27" d="M268.7,194.3c-0.4,0.1-0.7-0.2-0.6-0.7l0.6-2.9l-1.2,0.3l-1.2,0.3l-1.2,3c-0.2,0.5-0.7,1-1.1,1.2
							l-1.4,0.5c0.1,2.2,2.5,3.2,2.5,3.2s3.4-2.4,5-5.1L268.7,194.3z"/>
						<path class="st13" d="M268.1,193.5l0.6-2.8l-1.2,0.3l-1.2,0.3l-0.9,2.4C265.6,194.4,266.4,195.2,268.1,193.5z"/>
						<path class="st5" d="M274.3,199.2c0.3-2.7-0.7-4.8-2.8-5.2c-0.5-0.1-0.9-0.1-1.4,0l-4.5,3.4l-3-1.6c-0.5,0.1-1,0.4-1.6,0.7
							c-2.7,1.6-5.2,4.5-6.5,7.4L254,205c1.3,2.9,4.3,4.2,8.4,3.2c4.1-1,8.4-4.1,11.7-8.1L274.3,199.2z"/>
						<path class="st27" d="M270.9,188c-0.1-0.3-1,0.3-1,0.3c-0.8-0.2-0.7-1.6-0.7-1.6c-1.2,1.5-2.9,2.5-2.9,2.5s-0.6-0.2-1,0.2
							c-0.6,0.7-0.5,2,0.4,1.4c-0.2,1,0,2.5,1.1,2.2c1.1-0.3,2.3-2.1,2.7-3.1C270.2,190,271.2,188.5,270.9,188z"/>
					</g>
				</g>
				<g>
					<path class="st15" d="M239.5,231.9c-2.3,7.8-9.8,15.6-16.8,17.3c-7,1.7-10.8-3.2-8.5-11.1c2.3-7.8,9.8-15.6,16.8-17.3
						S241.8,224,239.5,231.9z"/>
					<path class="st5" d="M234.1,238.9c0.3-1.2-0.2-2.1-1.2-2.1l-3.4-0.2l-0.1-1.6l-2.5,0.1l-2.8,1.2l-1.2,1.9l-4,2
						c-1.2,0.6-2.3,1.8-2.7,3.1l-1.3,3.6c1.5,2.2,4.3,3.1,7.9,2.3c3.6-0.9,7.4-3.4,10.6-6.8L234.1,238.9z"/>
					<g>
						<polygon class="st28" points="224.1,241.7 222.9,238.6 223.4,238.4 224.2,240.8 225.7,238.9 226.2,240.3 228.8,236.9 
							229.2,237.2 226.1,241.2 225.5,239.9 						"/>
					</g>
					<path class="st28" d="M222.6,249.2c0.1,0,0.1,0,0.2,0c0.1,0,0.1-0.1,0.2-0.1l2.4-8.1l-0.4,0.1L222.6,249.2z"/>
					<path class="st5" d="M231.9,226.1c0.7-0.9,0.2-1.8-0.8-1.1c-0.1-1-1.3,0.1-1.3,0.1s-0.7-0.7-1.4,0.5c-0.6-0.3-1.8,1-1.6,1.6
						c-0.7,0.1-1.2,1.4-0.6,1.4c-0.1,0.7-0.4,2.3-0.4,2.3l2.2,0.5l2.9-1.8c0,0,0.6-1.6,0.9-2.4C232.4,227.1,232.6,225.9,231.9,226.1
						z"/>
					<polygon class="st27" points="227.9,236.6 225.9,238.5 224.6,237.4 226.6,231.9 229.2,231.2 					"/>
					<path class="st13" d="M228.3,235.2l0.9-4l-2.5,0.6l-1.2,3.3C225.9,236.1,227,236.2,228.3,235.2z"/>
					<path class="st27" d="M231.3,228.9c-0.1-0.3-1,0.3-1,0.3l0.3-1.5l-1.7,0.4l-1.7,0.4l-0.6,1.6c0,0-0.6-0.2-1,0.2
						c-0.6,0.7-0.5,2,0.4,1.4c-0.2,1,0,2.5,1.1,2.2c1.1-0.3,2.3-2.1,2.7-3.1C230.6,231,231.5,229.4,231.3,228.9z"/>
				</g>
				<g>
					<path class="st15" d="M269.4,224.5c-2.3,7.8-9.8,15.6-16.8,17.3c-7,1.7-10.8-3.2-8.5-11.1c2.3-7.8,9.8-15.6,16.8-17.3
						C267.9,211.7,271.7,216.7,269.4,224.5z"/>
					<path class="st16" d="M261.6,226.4c0.1-1,0.3-1.6,0.4-2.4c0-0.8-0.3-1.3,0-2.2c0.2-0.9,0.4-1.7,0-2.1c-0.4-0.4-0.3-2.3-2.4-1.8
						c-2.1,0.5-3.2,2.6-3.9,3.3c-0.7,0.7-1,1.5-1.3,2.4s-1,1.7-1.4,2.6s-0.5,1.4-1,2.5s-1.8,3.4-1.8,3.4l5.7-1.4l5.7-1.4
						C261.5,229.4,261.5,227.4,261.6,226.4z"/>
					<path class="st27" d="M263.1,227.7c-0.9-0.1-3,0.1-4.2,0.2c-0.5,0.1-0.7-0.3-0.6-0.8l0.5-2.9l-1.1,0.3l-1.1,0.3l-1.2,3.1
						c-0.2,0.6-0.7,1.1-1.2,1.2c-1.3,0.4-3.6,1.3-4.7,1.9c-1.4,0.8-2.1,2.2-2.1,2.2s2.9,0.4,8.1-0.9c5.1-1.3,8.8-3.2,8.8-3.2
						S264.2,227.9,263.1,227.7z"/>
					<path class="st13" d="M258.3,227l0.5-2.8l-1.1,0.3l-1.1,0.3l-0.9,2.2C256,228.3,257,228.4,258.3,227z"/>
					<path class="st21" d="M265.4,232.3c-0.4-1.1-0.5-2.4-0.3-3.1c0.2-1-0.3-1.2-1.8-0.6c-1.5,0.6-7.6,2.9-7.6,2.9s-5.6,0.6-7,0.7
						c-1.4,0.1-2.1,0.6-2.5,1.6c-0.3,0.7-1.1,2.2-2.3,3.8c1,3.6,4.2,5.3,8.8,4.2C257.2,240.7,262,237,265.4,232.3z"/>
					<path class="st27" d="M261.1,221.6c-0.1-0.3-1,0.3-1,0.3c-0.8-0.2-0.7-1.6-0.7-1.6c-1.2,1.5-2.9,2.5-2.9,2.5s-0.6-0.2-1,0.2
						c-0.6,0.7-0.5,2,0.4,1.4c-0.2,1,0,2.5,1.1,2.2c1.1-0.3,2.3-2.1,2.7-3.1C260.4,223.7,261.4,222.1,261.1,221.6z"/>
				</g>
			</g>
			<path class="st23" d="M277.1,166.1l-35,8.6c-3.2,0.8-5.1-1.2-4.1-4.6l0.2-0.6c1-3.3,4.4-6.7,7.6-7.4l35-8.6
				c3.2-0.8,5.1,1.2,4.1,4.6l-0.2,0.6C283.8,162,280.4,165.4,277.1,166.1z"/>
		</g>
		<path class="st29" d="M438.4,34.6l-58.4,14.3c-3.5,0.8-5.5-1.3-4.4-4.9l2.8-9.7c1-3.5,4.7-7.1,8.2-8L445,12
			c3.5-0.9,5.5,1.3,4.4,4.9l-2.8,9.7C445.6,30.2,441.9,33.8,438.4,34.6z"/>
		<g>
			<path class="st15" d="M393,34.3c-0.6,2-2.3,3.5-4.4,4l-1.1,0.3l-0.6,2.1l-2.5,0.6l2.5-8.4l3.6-0.9
				C392.6,31.5,393.6,32.3,393,34.3z M390.4,34.9c0.2-0.6,0-0.9-0.7-0.7l-0.9,0.2l-0.6,2l0.9-0.2C389.8,36,390.3,35.5,390.4,34.9z"
				/>
			<path class="st15" d="M396.9,30.4l2.5-0.6l-1.8,6.2l3.4-0.8l-0.6,2.2l-5.9,1.5L396.9,30.4z"/>
			<path class="st15" d="M408.9,33.9l-2.9,0.7l-0.9,1.6l-2.6,0.6l5.8-9.2l2.5-0.6l0.8,7.6l-2.6,0.6L408.9,33.9z M408.8,32l-0.1-1.9
				l-1.4,2.3L408.8,32z"/>
			<path class="st15" d="M419,30l-0.9,3.1l-2.5,0.6l0.9-3.1l-1.3-4.6l2.7-0.7l0.7,2.5l2.4-3.3l2.5-0.6L419,30z"/>
		</g>
		<path class="st15" d="M440.6,22.6l-7-3.5c-0.5-0.3-1.1,0-1.3,0.6l-3.3,11.2c-0.2,0.9,0.7,1.5,1.5,1l10.3-7.7
			C441.3,23.7,441.3,22.9,440.6,22.6z"/>
	</g>
	<g>
		<path class="st7" d="M446.1,212.7l-69.9,17.1c-1.1,0.3-1.7-0.5-1.4-1.8l0,0c0.4-1.2,1.6-2.5,2.7-2.8l69.9-17.1
			c1.1-0.3,1.7,0.5,1.4,1.8l0,0C448.4,211.2,447.2,212.4,446.1,212.7z"/>
		<path class="st30" d="M413.8,216.4l-36.2,8.9c-1.1,0.3-2.3,1.5-2.7,2.8s0.2,2,1.4,1.8l36.2-8.9L413.8,216.4z"/>
		<path class="st15" d="M418.2,217.4c-0.7,2.3-2.9,4.6-5,5.1c-2.1,0.5-3.2-1-2.5-3.3c0.7-2.3,2.9-4.6,5-5.1
			C417.8,213.6,418.9,215.1,418.2,217.4z"/>
	</g>
	<g>
		<path class="st7" d="M441.5,228.2l-69.7,17.1c-1.2,0.3-1.8-0.4-1.5-1.6l0.1-0.2c0.4-1.2,1.6-2.4,2.7-2.7l69.7-17.1
			c1.2-0.3,1.8,0.4,1.5,1.6l-0.1,0.2C443.9,226.7,442.7,227.9,441.5,228.2z"/>
		<path class="st30" d="M430.5,226.7l-57.4,14.1c-1.1,0.3-2.3,1.5-2.7,2.8c-0.4,1.2,0.2,2,1.4,1.8l57.4-14.1L430.5,226.7z"/>
		<path class="st15" d="M433.5,228c-0.7,2.3-2.9,4.6-5,5.1c-2.1,0.5-3.2-1-2.5-3.3c0.7-2.3,2.9-4.6,5-5.1
			C433.1,224.2,434.2,225.7,433.5,228z"/>
	</g>
	<g>
		<path class="st7" d="M437.1,243.6l-69.9,17.1c-1.1,0.3-1.7-0.5-1.4-1.8l0,0c0.4-1.2,1.6-2.5,2.7-2.8l69.9-17.1
			c1.1-0.3,1.7,0.5,1.4,1.8l0,0C439.4,242.1,438.2,243.4,437.1,243.6z"/>
		<path class="st30" d="M431.1,240.9l-62.6,15.4c-1.1,0.3-2.3,1.5-2.7,2.8c-0.4,1.2,0.2,2,1.4,1.8l62.6-15.4L431.1,240.9z"/>
		<path class="st15" d="M432.8,242.6c-0.7,2.3-2.9,4.6-5,5.1c-2.1,0.5-3.2-1-2.5-3.3c0.7-2.3,2.9-4.6,5-5.1
			C432.3,238.8,433.5,240.2,432.8,242.6z"/>
	</g>
	<g class="st31">
		<path class="st15" d="M463.9,51.8c-0.7,2.5-3.2,5-5.4,5.6s-3.5-1-2.8-3.6c0.7-2.5,3.2-5,5.4-5.6C463.4,47.6,464.6,49.2,463.9,51.8
			z"/>
		<path class="st15" d="M479.9,47.8c-0.7,2.5-3.2,5-5.4,5.6s-3.5-1-2.8-3.6c0.7-2.5,3.2-5,5.4-5.6C479.4,43.7,480.6,45.3,479.9,47.8
			z"/>
		<path class="st15" d="M495.8,43.9c-0.7,2.5-3.2,5-5.4,5.6s-3.5-1-2.8-3.6c0.7-2.5,3.2-5,5.4-5.6C495.3,39.8,496.6,41.4,495.8,43.9
			z"/>
		<path class="st15" d="M511.8,40c-0.7,2.5-3.2,5-5.4,5.6s-3.5-1-2.8-3.6c0.7-2.5,3.2-5,5.4-5.6C511.3,35.8,512.5,37.5,511.8,40z"/>
	</g>
	<polygon class="st21" points="216.5,320.9 207.6,320.9 207.6,312 204.2,312 204.2,320.9 195.4,320.9 195.4,324.3 204.2,324.3 
		204.2,333.2 207.6,333.2 207.6,324.3 216.5,324.3 	"/>
	<polygon class="st4" points="454.8,275 445.9,275 445.9,266.1 442.5,266.1 442.5,275 433.7,275 433.7,278.4 442.5,278.4 
		442.5,287.2 445.9,287.2 445.9,278.4 454.8,278.4 	"/>
	<polygon class="st4" points="206.8,16.9 197.9,16.9 197.9,8.1 194.6,8.1 194.6,16.9 185.7,16.9 185.7,20.3 194.6,20.3 194.6,29.2 
		197.9,29.2 197.9,20.3 206.8,20.3 	"/>
</g>
</svg>
