<?xml version="1.0" encoding="utf-8"?>
<!-- Generator: Adobe Illustrator 26.3.1, SVG Export Plug-In . SVG Version: 6.00 Build 0)  -->
<svg version="1.1" id="Layer_1" xmlns="http://www.w3.org/2000/svg" xmlns:xlink="http://www.w3.org/1999/xlink" x="0px" y="0px"
	 viewBox="0 0 441.7 438.6" style="enable-background:new 0 0 441.7 438.6;" xml:space="preserve">
<style type="text/css">
	.st0{opacity:0.3;}
	.st1{fill:#91B3FA;}
	.st2{fill:#BDD0FB;}
	.st3{fill:#0E5CA7;}
	.st4{fill:#197CCE;}
	.st5{opacity:0.6;}
	.st6{fill:#F6791F;}
	.st7{opacity:0.87;}
	.st8{fill:#FFFFFF;}
	.st9{fill-rule:evenodd;clip-rule:evenodd;fill:#FFFFFF;}
	.st10{opacity:0.89;}
	.st11{opacity:0.87;fill:#FFFFFF;enable-background:new    ;}
	.st12{fill:url(#SVGID_1_);}
	.st13{fill:url(#SVGID_00000119833743450657953980000007747398552198870956_);}
	.st14{fill:url(#SVGID_00000178181090419632130390000000732025040681413051_);}
	.st15{fill:url(#SVGID_00000074421966039044222440000006482149287008034193_);}
	.st16{fill:url(#SVGID_00000051346645705234079790000000716669625524971392_);}
	.st17{fill:#1A2833;}
	.st18{fill:url(#SVGID_00000137111900435257082170000018247799587524093071_);}
	.st19{fill:#26C4CD;}
</style>
<g>
	<g>
		<g>
			<g class="st0">
				<path class="st1" d="M368.7,97c-1-0.3-1.5-1.3-1.2-2.3c0.6-1.9,1.1-3.9,1.5-5.8c0.2-1,1.2-1.6,2.2-1.4c0,0,0,0,0,0
					c1,0.2,1.6,1.2,1.4,2.2c-0.4,2.1-1,4.1-1.6,6.2c-0.3,0.9-1.2,1.5-2.1,1.3C368.9,97.1,368.8,97.1,368.7,97z M370.3,79.2
					c0.1-2,0.2-4,0.1-6c0-1,0.8-1.9,1.8-1.9s1.9,0.8,1.9,1.8c0,2.1,0,4.2-0.2,6.3c-0.1,1-1,1.8-2,1.7c-0.1,0-0.1,0-0.2,0
					C370.9,80.9,370.2,80.1,370.3,79.2z M369.6,63.4c-0.3-2-0.7-4-1.2-5.9c-0.2-1,0.4-2,1.4-2.3s2,0.4,2.3,1.4
					c0.5,2,0.9,4.1,1.3,6.2c0.2,1-0.5,2-1.5,2.1c-0.2,0-0.4,0-0.6,0C370.4,64.8,369.7,64.2,369.6,63.4z M365.4,48.1
					c-0.8-1.9-1.6-3.7-2.5-5.5c-0.5-0.9-0.1-2,0.8-2.5c0.9-0.5,2-0.1,2.5,0.8c1,1.9,1.8,3.8,2.6,5.8c0.4,1-0.1,2-1,2.4
					c-0.3,0.1-0.7,0.2-1,0.1C366.2,49.1,365.6,48.7,365.4,48.1z M357.9,34.2c-1.1-1.6-2.4-3.3-3.6-4.8c-0.6-0.8-0.5-2,0.2-2.6
					c0.8-0.7,2-0.5,2.6,0.2c1.4,1.6,2.6,3.3,3.8,5.1c0.6,0.8,0.4,2-0.5,2.6c-0.4,0.3-0.9,0.4-1.4,0.3
					C358.6,34.9,358.2,34.6,357.9,34.2z M347.5,22.3c-1.5-1.4-3-2.7-4.6-3.9c-0.8-0.6-1-1.8-0.3-2.6s1.8-1,2.6-0.3
					c1.7,1.3,3.3,2.7,4.9,4.1c0.8,0.7,0.8,1.9,0.1,2.6c-0.5,0.5-1.1,0.7-1.7,0.6C348.1,22.7,347.8,22.5,347.5,22.3z M280.7,4.4
					c-0.2-1,0.4-2,1.4-2.2c2-0.5,4.1-0.9,6.2-1.2c1-0.2,2,0.5,2.1,1.5c0.2,1-0.5,2-1.5,2.1c-2,0.3-4,0.7-5.9,1.2
					c-0.3,0.1-0.5,0.1-0.8,0C281.5,5.6,280.9,5.1,280.7,4.4z M334.7,13c-1.7-1-3.5-1.9-5.4-2.8c-0.9-0.4-1.3-1.5-0.9-2.5
					s1.5-1.3,2.5-0.9c1.9,0.9,3.8,1.9,5.6,2.9c0.9,0.5,1.2,1.6,0.7,2.5c-0.4,0.7-1.2,1.1-2,0.9C335.1,13.1,334.9,13.1,334.7,13z
					 M296.7,1.9c0-1,0.8-1.9,1.8-1.9c2.1,0,4.2,0,6.4,0.2c1,0.1,1.8,1,1.7,2c-0.1,1-1,1.8-2,1.7c-2-0.1-4-0.2-6-0.2
					c-0.1,0-0.2,0-0.4,0C297.4,3.5,296.8,2.8,296.7,1.9z M320.2,6.7c-1.9-0.6-3.9-1.1-5.9-1.5c-1-0.2-1.6-1.2-1.4-2.2
					c0.2-1,1.2-1.6,2.2-1.5c0,0,0,0,0,0c2.1,0.4,4.1,1,6.1,1.6c1,0.3,1.5,1.3,1.2,2.3c-0.3,0.9-1.2,1.5-2.1,1.3
					C320.4,6.8,320.3,6.8,320.2,6.7z"/>
				<path class="st1" d="M269.8,10c0.4,0.1,0.7,0,1.1-0.1c0.9-0.4,1.8-0.8,2.7-1.1c1-0.4,1.4-1.5,1-2.4c-0.4-1-1.5-1.4-2.4-1
					c-0.9,0.4-1.9,0.8-2.8,1.2C268.4,6.9,268,8,268.4,9C268.7,9.5,269.2,9.9,269.8,10z"/>
			</g>
			<g class="st0">
				<path class="st1" d="M231.2,51.7c0.9,0.2,1.8-0.3,2.1-1.2c0.3-0.9,0.7-1.8,1-2.7c0.4-1-0.1-2-1-2.4c-1-0.4-2,0.1-2.4,1
					c-0.4,0.9-0.8,1.9-1.1,2.8c-0.4,1,0.2,2,1.1,2.4C231,51.6,231.1,51.7,231.2,51.7z"/>
				<path class="st1" d="M282.4,146.8c-1-0.2-1.6-1.2-1.4-2.2c0.2-1,1.2-1.6,2.2-1.4c1.9,0.5,3.9,0.8,5.8,1.1c1,0.1,1.7,1.1,1.6,2.1
					c-0.2,1-1.1,1.7-2.1,1.6c-0.9-0.1-1.7-0.3-2.5-0.4C284.8,147.3,283.6,147,282.4,146.8z M296.8,146.9c0-1,0.9-1.9,1.9-1.8
					c2,0,4,0,5.9-0.1c1-0.1,1.9,0.7,2,1.7c0.1,1-0.7,1.9-1.7,2c-2.1,0.1-4.2,0.2-6.2,0.2c-0.1,0-0.2,0-0.3,0
					C297.4,148.6,296.8,147.8,296.8,146.9z M272.7,143.7c-1.9-0.8-3.9-1.6-5.7-2.5c-0.9-0.4-1.3-1.6-0.9-2.5
					c0.5-0.9,1.6-1.3,2.5-0.9c1.8,0.9,3.6,1.7,5.4,2.4c1,0.4,1.4,1.4,1.1,2.4c-0.3,0.9-1.2,1.3-2.1,1.1
					C272.9,143.8,272.8,143.8,272.7,143.7z M312.7,145.8c-0.2-1,0.4-2,1.4-2.2c1.9-0.4,3.9-0.9,5.8-1.4c1-0.3,2,0.3,2.3,1.2
					c0.3,1-0.3,2-1.2,2.3c-2,0.6-4,1.1-6.1,1.5c-0.2,0.1-0.5,0.1-0.7,0C313.5,147.1,312.9,146.6,312.7,145.8z M258.2,136.1
					c-1.7-1.2-3.4-2.4-5-3.7c-0.8-0.6-0.9-1.8-0.3-2.6c0.6-0.8,1.8-0.9,2.6-0.3c1.5,1.2,3.1,2.4,4.8,3.5c0.9,0.6,1.1,1.7,0.5,2.6
					c-0.4,0.6-1.2,0.9-1.9,0.8C258.6,136.4,258.4,136.3,258.2,136.1z M245.7,125.5c-1.4-1.5-2.8-3.1-4.1-4.7c-0.6-0.8-0.5-2,0.3-2.6
					c0.8-0.6,2-0.5,2.6,0.3c1.2,1.5,2.5,3.1,3.9,4.5c0.7,0.8,0.7,1.9-0.1,2.6c-0.4,0.4-1.1,0.6-1.6,0.5
					C246.4,126,246,125.8,245.7,125.5z M235.8,112.5c-1.1-1.8-2.1-3.6-3-5.5c-0.4-0.9-0.1-2,0.9-2.5c0.9-0.4,2-0.1,2.5,0.9
					c0.9,1.8,1.8,3.5,2.8,5.2c0.5,0.9,0.2,2-0.6,2.6c-0.4,0.2-0.9,0.3-1.3,0.2C236.6,113.2,236.1,112.9,235.8,112.5z M229.1,97.6
					c-0.6-2-1.2-4-1.7-6c-0.2-1,0.4-2,1.4-2.2s2,0.4,2.2,1.4c0.4,1.9,1,3.8,1.6,5.7c0.3,1-0.2,2-1.2,2.3c-0.3,0.1-0.6,0.1-0.9,0.1
					C229.8,98.7,229.3,98.2,229.1,97.6z M225.7,81.5c-0.2-2.1-0.3-4.2-0.3-6.2c0-1,0.8-1.9,1.8-1.9c1,0,1.9,0.8,1.9,1.8
					c0,2,0.1,4,0.3,5.9c0.1,1-0.6,1.9-1.7,2c-0.2,0-0.4,0-0.5,0C226.4,83,225.8,82.4,225.7,81.5z M225.9,65.1c0.2-1.5,0.4-3,0.7-4.5
					c0.1-0.5,0.2-1.1,0.3-1.6c0.2-1,1.2-1.7,2.2-1.4c1,0.2,1.6,1.2,1.4,2.2c-0.1,0.5-0.2,1-0.3,1.5c-0.3,1.4-0.5,2.9-0.7,4.3
					c-0.1,1-1.1,1.7-2.1,1.6c0,0-0.1,0-0.1,0C226.5,67,225.8,66.1,225.9,65.1z"/>
				<path class="st1" d="M329.4,142.3c0.4,0.1,0.8,0,1.1-0.1c0.9-0.4,1.8-0.9,2.8-1.3c0.9-0.5,1.3-1.6,0.8-2.5
					c-0.5-0.9-1.6-1.3-2.5-0.8c-0.9,0.4-1.7,0.9-2.6,1.3c-0.9,0.4-1.4,1.5-0.9,2.5C328.4,141.8,328.9,142.2,329.4,142.3z"/>
			</g>
			<g>
				<path class="st1" d="M340.7,112.4c0.3-0.2,0.4-0.6,0.2-1l-3.8-9.9c3-4,5.3-8.4,6.9-13.3l10.3-2.6c0.4-0.1,0.6-0.4,0.6-0.8
					l1.1-12.7c0-0.4-0.2-0.7-0.5-0.9l-9.7-4.3c-0.7-5-2.3-9.8-4.5-14.2l5.4-9.1c0.2-0.3,0.2-0.7-0.1-1l-8.2-9.7
					c-0.2-0.3-0.6-0.4-1-0.2l-9.9,3.8c-4-3-8.4-5.3-13.3-6.9l-2.6-10.3c-0.1-0.4-0.4-0.6-0.8-0.6l-12.7-1.1c-0.4,0-0.7,0.2-0.9,0.5
					l-4.3,9.7c-5,0.7-9.8,2.3-14.2,4.5l-9.1-5.4c-0.3-0.2-0.7-0.2-1,0.1l-9.7,8.2c-0.3,0.2-0.4,0.6-0.2,1l3.8,9.9
					c-3,4-5.3,8.4-6.9,13.3L245.4,62c-0.4,0.1-0.6,0.4-0.6,0.8l-1.1,12.7c0,0.4,0.2,0.7,0.5,0.9l9.7,4.3c0.7,5,2.3,9.8,4.5,14.2
					L253,104c-0.2,0.3-0.2,0.7,0.1,1l8.2,9.7c0.2,0.3,0.6,0.4,1,0.2l9.9-3.8c4,3,8.4,5.3,13.3,6.9l2.6,10.3c0.1,0.4,0.4,0.6,0.8,0.6
					l12.7,1.1c0.4,0,0.7-0.2,0.9-0.5l4.3-9.7c5-0.7,9.8-2.3,14.2-4.5l9.1,5.4c0.3,0.2,0.7,0.2,1-0.1L340.7,112.4z"/>
				<g>
					<path class="st2" d="M295.7,85.9c-6.7-2.3-10.2-9.6-7.9-16.2c1.1-3.2,3.4-5.8,6.5-7.3c3.1-1.5,6.5-1.7,9.8-0.6
						c6.7,2.3,10.2,9.6,7.9,16.2c-2.1,6.1-8.3,9.5-14.4,8.4C296.9,86.3,296.3,86.1,295.7,85.9z M295.5,65c-2.4,1.2-4.1,3.1-5,5.6
						c-1.8,5.1,1,10.7,6.1,12.4c5.1,1.8,10.7-1,12.5-6.1s-1-10.7-6.1-12.4c-0.5-0.2-0.9-0.3-1.4-0.4C299.6,63.8,297.5,64.1,295.5,65
						z"/>
				</g>
				<path class="st2" d="M293.8,104.5c1,0.2,2.1,0.3,3.2,0.4l0,0c0.3,0,0.7,0.1,1,0.1c1.7,0.1,3.4,0,5-0.1c0,0,0,0,0.1,0
					c0.1,0,0.1,0,0.2,0c0.1,0,0.2,0,0.4-0.1c0.3,0,0.6-0.3,0.6-0.6c0-0.1,0-0.2,0-0.2c0-0.4-0.4-0.7-0.8-0.6
					c-2.1,0.3-4.2,0.3-6.4,0.1c-10.6-0.9-19.4-7.2-24-16c-2.5-4.9-3.8-10.5-3.3-16.4c0.1-1,0.2-2.1,0.4-3.1
					c1.3-6.8,4.8-12.8,10.1-17.3c6.1-5.2,13.9-7.6,21.8-6.9c16.5,1.4,28.7,15.9,27.3,32.3c-0.1,1-0.2,2-0.4,3
					c-0.8,4.3-2.5,8.4-5.1,11.9c-0.1,0.1-0.1,0.2-0.1,0.3c0,0.3,0,0.6,0.3,0.7c0.3,0.2,0.8,0.2,1-0.2c2.7-3.7,4.5-8,5.4-12.5
					c0.2-1,0.3-2.1,0.4-3.2c1.5-17.3-11.4-32.5-28.6-34c-8.4-0.7-16.5,1.9-22.9,7.3c-5.6,4.7-9.3,11.1-10.6,18.2
					c-0.2,1.1-0.3,2.1-0.4,3.2c-0.7,8.4,1.9,16.5,7.3,22.9C280.4,99.5,286.7,103.2,293.8,104.5z"/>
			</g>
		</g>
		<g>
			<g class="st0">
				<path class="st1" d="M422.3,157.1c0.5,0.1,1-0.1,1.2-0.6c0.4-0.9,0.9-1.8,1.3-2.7c0.2-0.6,0-1.3-0.6-1.5c-0.6-0.3-1.3,0-1.5,0.6
					c-0.4,0.9-0.8,1.7-1.2,2.5c-0.3,0.6-0.1,1.3,0.5,1.6C422.1,157,422.2,157.1,422.3,157.1z"/>
				<path class="st1" d="M425.5,148.8c-0.6-0.2-1-0.8-0.8-1.4c0.5-1.5,0.8-3.1,1.1-4.7c0.1-0.3,0.1-0.7,0.2-1
					c0.1-0.6,0.7-1.1,1.3-0.9c0.6,0.1,1,0.7,1,1.3c-0.1,0.4-0.1,0.7-0.2,1.1c-0.3,1.6-0.7,3.3-1.2,4.9c-0.2,0.6-0.7,0.9-1.3,0.8
					C425.6,148.8,425.5,148.8,425.5,148.8z M426.6,135.9c0.1-1.9,0-3.9-0.1-5.8c0-0.6,0.4-1.2,1-1.2c0.6-0.1,1.2,0.4,1.2,1.1
					c0.2,2,0.2,4.1,0.1,6.1c0,0.6-0.6,1.1-1.2,1.1c-0.1,0-0.1,0-0.2,0C427,137,426.6,136.5,426.6,135.9z M425.7,124.2
					c-0.4-1.9-0.9-3.8-1.5-5.6c-0.2-0.6,0.1-1.3,0.7-1.5c0.6-0.2,1.3,0.1,1.5,0.7c0.7,1.9,1.2,3.9,1.6,5.9c0.1,0.6-0.3,1.2-0.9,1.4
					c-0.1,0-0.3,0-0.5,0C426.2,125.1,425.8,124.7,425.7,124.2z M421.9,113.2c-0.9-1.8-1.8-3.5-2.9-5.1c-0.4-0.5-0.2-1.2,0.3-1.6
					s1.2-0.2,1.6,0.3c1.1,1.7,2.1,3.5,3,5.3c0.3,0.6,0,1.3-0.5,1.5c-0.2,0.1-0.5,0.1-0.7,0.1C422.4,113.8,422.1,113.6,421.9,113.2z
					 M415.6,103.4c-1.2-1.5-2.6-2.9-4-4.2c-0.5-0.4-0.5-1.2-0.1-1.6c0.4-0.5,1.2-0.5,1.6-0.1c1.5,1.4,2.9,2.9,4.2,4.4
					c0.4,0.5,0.3,1.2-0.1,1.6c-0.3,0.2-0.6,0.3-1,0.2C416,103.8,415.8,103.6,415.6,103.4z M407.1,95.5c-1.6-1.1-3.2-2.2-4.9-3.1
					c-0.6-0.3-0.8-1-0.5-1.6c0.3-0.6,1-0.8,1.6-0.4c1.8,1,3.5,2.1,5.2,3.3c0.5,0.4,0.6,1.1,0.3,1.6c-0.3,0.4-0.7,0.5-1.1,0.5
					C407.4,95.7,407.2,95.6,407.1,95.5z M396.9,89.9c-1.8-0.7-3.7-1.3-5.5-1.8c-0.6-0.2-1-0.8-0.8-1.4s0.8-1,1.4-0.8
					c2,0.5,3.9,1.2,5.8,1.9c0.6,0.2,0.9,0.9,0.6,1.5c-0.2,0.5-0.8,0.8-1.3,0.7C397,89.9,396.9,89.9,396.9,89.9z M378.6,85.3
					c0-0.6,0.5-1.2,1.2-1.1c1.8,0,3.5,0.1,5.3,0.3c0.3,0,0.5,0.1,0.8,0.1c0.6,0.1,1.1,0.7,1,1.3c-0.1,0.6-0.7,1.1-1.3,1
					c-0.2,0-0.5-0.1-0.8-0.1c-1.7-0.2-3.4-0.3-5.1-0.3c-0.1,0-0.1,0-0.2,0C379,86.4,378.6,85.9,378.6,85.3z"/>
			</g>
			<g class="st0">
				<path class="st1" d="M369.4,182.6c-2-0.4-3.9-0.9-5.8-1.5c-0.6-0.2-0.9-0.9-0.7-1.4c0.2-0.6,0.9-0.9,1.5-0.7
					c1.8,0.6,3.7,1.1,5.5,1.5c0.6,0.1,1,0.7,0.9,1.4C370.7,182.3,370.1,182.7,369.4,182.6C369.5,182.6,369.4,182.6,369.4,182.6z
					 M374.4,182.2c0-0.6,0.6-1.1,1.2-1.1c1.9,0.1,3.8,0.2,5.8,0.1c0.6,0,1.2,0.5,1.2,1.1s-0.5,1.2-1.1,1.2c-2,0.1-4,0-6-0.1
					c0,0-0.1,0-0.1,0C374.7,183.3,374.3,182.8,374.4,182.2z M358,178.8c-1.8-0.9-3.6-1.8-5.3-2.9c-0.5-0.3-0.7-1.1-0.4-1.6
					c0.3-0.5,1-0.7,1.6-0.4c1.6,1,3.3,1.9,5,2.8c0.6,0.3,0.8,1,0.5,1.5c-0.2,0.5-0.8,0.7-1.2,0.6C358.2,178.9,358.1,178.9,358,178.8
					z M386.1,182c-0.1-0.6,0.3-1.2,1-1.3c1.9-0.3,3.8-0.7,5.6-1.3c0.6-0.2,1.2,0.2,1.4,0.8s-0.2,1.2-0.8,1.4c-1.9,0.6-3.9,1-5.9,1.4
					c-0.1,0-0.3,0-0.4,0C386.6,182.8,386.2,182.5,386.1,182z M347.9,172.4c-1.5-1.3-3-2.6-4.4-4.1c-0.4-0.5-0.4-1.2,0-1.6
					c0.5-0.4,1.2-0.4,1.6,0c1.3,1.4,2.7,2.7,4.2,3.9c0.5,0.4,0.6,1.1,0.2,1.6c-0.3,0.3-0.7,0.5-1.1,0.4
					C348.2,172.6,348,172.5,347.9,172.4z M339.5,163.7c-1.2-1.6-2.3-3.3-3.3-5c-0.3-0.6-0.1-1.2,0.4-1.6c0.5-0.3,1.2-0.1,1.6,0.4
					c1,1.6,2,3.3,3.2,4.8c0.4,0.5,0.3,1.2-0.2,1.6c-0.3,0.2-0.6,0.3-0.9,0.2C340,164.1,339.7,163.9,339.5,163.7z M333.5,153.3
					c-0.8-1.9-1.5-3.8-2-5.7c-0.2-0.6,0.2-1.2,0.8-1.4c0.6-0.2,1.2,0.2,1.4,0.8c0.5,1.8,1.2,3.7,1.9,5.4c0.2,0.6,0,1.3-0.6,1.5
					c-0.2,0.1-0.5,0.1-0.7,0.1C334,153.9,333.7,153.6,333.5,153.3z"/>
				<path class="st1" d="M398.4,179.6c0.2,0,0.5,0,0.7-0.1c0.9-0.4,1.8-0.8,2.7-1.2c0.6-0.3,0.8-1,0.5-1.6c-0.3-0.6-1-0.8-1.5-0.5
					c-0.8,0.4-1.7,0.8-2.5,1.2c-0.6,0.2-0.9,0.9-0.6,1.5C397.7,179.3,398,179.5,398.4,179.6z"/>
			</g>
			<g>
				<path class="st1" d="M406.7,159.3c0.2-0.2,0.3-0.4,0.2-0.7l-2.5-6.6c2-2.7,3.5-5.6,4.6-8.9l6.9-1.7c0.2-0.1,0.4-0.3,0.4-0.5
					l0.7-8.5c0-0.2-0.1-0.5-0.3-0.6l-6.5-2.9c-0.5-3.4-1.5-6.6-3-9.5l3.6-6.1c0.1-0.2,0.1-0.5,0-0.7l-5.5-6.5
					c-0.2-0.2-0.4-0.3-0.7-0.2l-6.6,2.6c-2.7-2-5.6-3.6-8.9-4.6l-1.7-6.9c-0.1-0.2-0.3-0.4-0.5-0.4l-8.5-0.7c-0.2,0-0.5,0.1-0.6,0.3
					l-2.9,6.5c-3.4,0.5-6.6,1.5-9.5,3l-6.1-3.6c-0.2-0.1-0.5-0.1-0.7,0.1l-6.5,5.5c-0.2,0.2-0.3,0.4-0.2,0.7l2.5,6.6
					c-2,2.7-3.5,5.7-4.6,8.9l-6.9,1.7c-0.2,0.1-0.4,0.3-0.4,0.5l-0.7,8.5c0,0.2,0.1,0.5,0.3,0.6l6.5,2.9c0.5,3.4,1.5,6.6,3,9.5
					l-3.6,6.1c-0.1,0.2-0.1,0.5,0,0.7l5.5,6.5c0.2,0.2,0.4,0.3,0.7,0.2l6.6-2.6c2.7,2,5.6,3.6,8.9,4.6l1.7,6.9
					c0.1,0.2,0.3,0.4,0.5,0.4l8.5,0.7c0.2,0,0.5-0.1,0.6-0.3l2.9-6.5c3.4-0.5,6.6-1.5,9.5-3l6.1,3.6c0.2,0.1,0.5,0.1,0.7-0.1
					L406.7,159.3z"/>
				<g>
					<path class="st2" d="M376.5,141.7c-2.2-0.8-4-2.3-5-4.4s-1.2-4.4-0.4-6.6c1.6-4.5,6.5-6.9,11.1-5.4c4.5,1.6,7,6.5,5.4,11.1
						c-0.8,2.2-2.3,4-4.4,5c-1.7,0.8-3.6,1.1-5.4,0.7C377.3,142,376.9,141.9,376.5,141.7z M373.3,131.4c-0.6,1.6-0.5,3.4,0.3,4.9
						s2,2.7,3.7,3.2l0,0c1.6,0.6,3.4,0.4,4.9-0.3s2.7-2.1,3.2-3.7c1.1-3.3-0.6-7-4-8.1c-0.3-0.1-0.6-0.2-0.9-0.2
						C377.4,126.6,374.3,128.4,373.3,131.4z"/>
				</g>
				<path class="st2" d="M375.2,154.7c0.7,0.1,1.4,0.2,2.2,0.3c1.5,0.1,3,0.1,4.4-0.1c0.1,0,0.1,0,0.2,0c0.5-0.1,0.9-0.4,1-0.9
					c0-0.1,0-0.2,0-0.4c-0.1-0.6-0.7-1.1-1.3-1c-1.4,0.2-2.8,0.2-4.1,0.1l0,0c-0.1,0-0.1,0-0.2,0c-3.2-0.3-6.3-1.4-8.9-3.2
					c-1.4-1-2.7-2.1-3.9-3.5c0,0,0,0,0,0c0,0-0.1-0.1-0.1-0.1c-3.3-4-4.9-9-4.5-14.1c0.1-0.7,0.1-1.3,0.3-2
					c0.8-4.4,3.1-8.3,6.5-11.2c4-3.3,9-4.9,14.1-4.5c5.1,0.4,9.8,2.9,13.2,6.8c3.3,4,4.9,9,4.5,14.1c-0.1,0.7-0.1,1.3-0.3,1.9
					c-0.5,2.8-1.6,5.4-3.3,7.7c-0.1,0.1-0.2,0.3-0.2,0.5c-0.1,0.4,0.1,0.9,0.5,1.1c0.5,0.4,1.2,0.3,1.6-0.3c1.9-2.6,3.1-5.5,3.7-8.6
					c0.1-0.7,0.2-1.4,0.3-2.2c0.5-5.8-1.3-11.4-5-15.8c-3.7-4.4-9-7.1-14.7-7.6c-5.8-0.5-11.4,1.3-15.8,5c-3.9,3.2-6.4,7.6-7.3,12.5
					c-0.1,0.7-0.2,1.5-0.3,2.2C356.7,142.7,364.4,152.6,375.2,154.7z"/>
			</g>
		</g>
	</g>
	<g>
		<path class="st3" d="M2.4,239c7-29.1,29.9-52,59-59c20-4.8,39.3-2.2,55.5,5.6c5.4,2.6,11.8-0.3,13.3-6.1
			c14.4-55.7,64.9-96.8,125.1-96.8c71.3,0,129.2,57.8,129.2,129.2c0,1.9,0,4.5-0.1,7c0.2,5.3,2.6,7.6,6.1,8.2
			c28,2.9,49.9,25.9,51.1,54.4c1.4,32.6-25.2,59.7-57.8,59.7H81.7C30,341-10.5,292.9,2.4,239z"/>
		<path class="st4" d="M25.8,249.9c6.3-26,26.7-46.4,52.7-52.7c17.9-4.3,35-2,49.6,5c4.8,2.3,10.5-0.3,11.9-5.5
			c12.8-49.7,58-86.4,111.7-86.4c63.7,0,115.3,51.6,115.3,115.3c0,1.7,0,4-0.1,6.2c0.2,4.8,2.3,6.8,5.4,7.3
			c25,2.6,44.6,23.2,45.6,48.5c1.2,29.1-22.5,53.3-51.6,53.3H96.6C50.4,341,14.3,298,25.8,249.9z"/>
		<path class="st2" d="M373.4,194.9c-0.4,0-0.7-0.2-0.8-0.6c-11.6-50.9-41.2-75.7-63.9-87.5c-24.6-12.8-46.8-13.6-47-13.6
			c-0.4,0-0.8-0.4-0.8-0.8c0-0.4,0.4-0.8,0.8-0.8c0.2,0,22.7,0.8,47.7,13.8c14.7,7.6,27.3,17.9,37.6,30.5c12.8,15.8,22,35.3,27.1,58
			c0.1,0.4-0.2,0.9-0.6,1C373.5,194.9,373.5,194.9,373.4,194.9z"/>
	</g>
	<g class="st5">
		<path class="st2" d="M285.7,399.4c0,0,106.8-172.8,54.5-223.4c-29.2-28.3-89.8-20.5-114.8,3.6v-23.6c0-3-4.1-3.7-5.1-0.9
			l-18.1,50.5l41.9,14.8c2.5,0.9,4.6-2.1,2.9-4.2l-17.4-21.1c0,0,148.2-45.3-35,184.1L285.7,399.4z"/>
	</g>
	<g>
		<path class="st6" d="M189.6,162.8l-57.6-3c-4.7-0.2-8.5,3.4-8.3,8.2l1.5,53c0.1,4.3,3.9,7.6,8.3,7.4l54.7-2.7
			c3.7-0.2,6.8-3.5,6.9-7.4l1.3-47.5C196.5,166.6,193.5,163,189.6,162.8z"/>
		<g class="st7">
			<path class="st8" d="M159,215.6c-12,0-21.7-9.7-21.7-21.7s9.7-21.7,21.7-21.7s21.7,9.7,21.7,21.7
				C180.7,205.8,171,215.6,159,215.6z M159,175.8c-10,0-18.1,8.1-18.1,18.1S149.1,212,159,212s18.1-8.1,18.1-18.1
				C177.1,183.9,169,175.8,159,175.8z"/>
			<path class="st9" d="M152.2,202.2v-15.6c0-1.7,1.8-2.7,3.2-1.9l13.1,7.8c1.4,0.8,1.4,2.9,0,3.7l-13.1,7.8
				C154.1,204.9,152.2,203.9,152.2,202.2z"/>
		</g>
	</g>
	<g>
		<path class="st6" d="M60.7,19.9L8.1,17.2c-4.3-0.2-7.7,3.1-7.6,7.5L1.9,73c0.1,3.9,3.5,7,7.6,6.8l49.9-2.5
			c3.4-0.2,6.2-3.2,6.3-6.7l1.2-43.3C67,23.4,64.2,20.1,60.7,19.9z"/>
		<g class="st10">
			<path class="st8" d="M51.8,67H15c-2.8,0-5.1-2.3-5.1-5.1V35c0-2.8,2.3-5.1,5.1-5.1h36.8c2.8,0,5.1,2.3,5.1,5.1v26.9
				C57,64.7,54.7,67,51.8,67z M15,33.4c-0.9,0-1.6,0.7-1.6,1.6v26.9c0,0.9,0.7,1.6,1.6,1.6h36.8c0.9,0,1.6-0.7,1.6-1.6V35
				c0-0.9-0.7-1.6-1.6-1.6H15z"/>
			<path class="st8" d="M33.4,49.5c-0.4,0-0.7-0.1-1-0.3L11.8,34.5c-0.8-0.6-1-1.7-0.4-2.5c0.6-0.8,1.7-1,2.5-0.4l19.6,13.9
				l19.3-13.7c0.8-0.6,1.9-0.4,2.5,0.4c0.6,0.8,0.4,1.9-0.4,2.5L34.5,49.1C34.2,49.3,33.8,49.5,33.4,49.5z"/>
			<path class="st8" d="M13.1,66.2l-0.5-3.5l0.2,1.8l-1.5-1c0.4-0.6,7.8-13.6,12.7-22.2c0.5-0.9,1.6-1.2,2.4-0.7s1.1,1.6,0.7,2.4
				c0,0-3.2,5.6-6.4,11.2c-1.6,2.8-3.2,5.6-4.4,7.7C13.9,66.1,13.9,66.1,13.1,66.2z"/>
			<path class="st8" d="M53.7,66.2c-0.9-0.1-0.9-0.1-3.3-4.4c-1.2-2.1-2.8-4.9-4.4-7.7C42.8,48.6,39.6,43,39.6,43
				c-0.5-0.9-0.2-2,0.7-2.4c0.9-0.5,2-0.2,2.4,0.7c4.9,8.6,12.3,21.6,12.7,22.2l-1.5,1L53.7,66.2z"/>
		</g>
	</g>
	<g>
		<path class="st6" d="M125.9,56.8l-50.5-2.6c-4.1-0.2-7.4,3-7.3,7.2l1.3,46.5c0.1,3.8,3.4,6.7,7.3,6.5l48-2.4c3.2-0.2,5.9-3,6-6.5
			l1.2-41.6C131.9,60.1,129.3,56.9,125.9,56.8z"/>
		<path class="st11" d="M103.6,65.5c-0.8-0.3-1.7,0.3-1.7,1.2v1.8v3.6v17.8c-1.8-1.4-4.2-2.3-6.9-2.3c-5.3,0-9.7,3.5-9.7,7.7
			c0,4.3,4.3,7.7,9.7,7.7c5.3,0,9.7-3.5,9.7-7.7c0,0,0-0.1,0-0.1h0v-23c3.8,0.6,6.4,3.5,8,5.9c0.6,1,2.2,0.5,2.1-0.7
			C114.3,70.1,107,66.7,103.6,65.5z"/>
	</g>
	<g>
		<path class="st6" d="M111.7,123.8l-42.4-2.2c-3.5-0.2-6.2,2.5-6.1,6l1.1,39c0.1,3.2,2.8,5.6,6.1,5.5l40.3-2c2.7-0.1,5-2.6,5.1-5.4
			l1-35C116.8,126.6,114.6,124,111.7,123.8z"/>
		<g class="st7">
			<path class="st8" d="M104.2,163.7H73.8c-3.4,0-6.1-2.7-6.1-6.1v-20.1c0-3.4,2.7-6.1,6.1-6.1h30.4c3.4,0,6.1,2.7,6.1,6.1v20.1
				C110.3,161,107.6,163.7,104.2,163.7z M73.8,134.3c-1.8,0-3.2,1.4-3.2,3.2v20.1c0,1.8,1.4,3.2,3.2,3.2h30.4c1.8,0,3.2-1.4,3.2-3.2
				v-20.1c0-1.8-1.4-3.2-3.2-3.2L73.8,134.3L73.8,134.3z"/>
			<path class="st8" d="M104.6,130.6c0,1.1-0.9,2-2,2h-5.2c-1.1,0-2-0.9-2-2l0,0c0-1.1,0.9-2,2-2h5.2
				C103.7,128.6,104.6,129.5,104.6,130.6L104.6,130.6z"/>
			<path class="st8" d="M102.8,140.2c0,0.9-0.7,1.6-1.6,1.6h-5.5c-0.9,0-1.6-0.7-1.6-1.6v-0.3c0-0.9,0.7-1.6,1.6-1.6h5.5
				c0.9,0,1.6,0.7,1.6,1.6V140.2z"/>
			<path class="st8" d="M85,157.4h-0.7c-5,0-9.2-4.1-9.2-9.1v-0.7c0-5,4.1-9.1,9.2-9.1H85c5,0,9.2,4.1,9.2,9.1v0.7
				C94.2,153.3,90.1,157.4,85,157.4z M84.3,141.2c-3.4,0-6.3,2.8-6.3,6.3v0.7c0,3.4,2.8,6.3,6.3,6.3H85c3.4,0,6.3-2.8,6.3-6.3v-0.7
				c0-3.4-2.8-6.3-6.3-6.3H84.3z"/>
		</g>
	</g>
	<g>
		<path class="st6" d="M180.8,104.2l-40.4-2.1c-3.3-0.2-5.9,2.4-5.8,5.7l1,37.2c0.1,3,2.7,5.4,5.8,5.2l38.4-1.9
			c2.6-0.1,4.8-2.4,4.8-5.2l0.9-33.3C185.7,106.8,183.6,104.3,180.8,104.2z"/>
		<g class="st10">
			<path class="st8" d="M175.6,108.9H147c-2.6,0-5.6,1.4-5.6,4.1v15.9c0,2.6,3,5.2,5.6,5.2h19.6c0.7,0,1.1,0.8,1.1,1.5v2.4
				c0,1,1,1.3,1.4,1.5c0.2,0.2,0.6,0.4,1.1,0.4c0.4,0,0.8-0.2,1-0.5l4.2-5c2.7-0.1,3.8-2.9,3.8-5.5v-15.9
				C179.2,110.5,178.1,108.9,175.6,108.9z M176.5,128.9c0,1.2,0.1,2.5-0.9,2.5h-1.1l-4.6,5.1v-3.4c0-0.7,0-1.7-0.7-1.7H147
				c-1.2,0-3.4-1.3-3.4-2.5v-15.2c0-1.8,2.2-2,3.4-2h28.6c1.2,0,0.9,0.2,0.9,1.4L176.5,128.9L176.5,128.9z"/>
			<path class="st8" d="M173.7,116.8c0,0.5-0.4,0.9-0.9,0.9h-25.5c-0.5,0-0.9-0.4-0.9-0.9v-0.3c0-0.5,0.4-0.9,0.9-0.9h25.5
				c0.5,0,0.9,0.4,0.9,0.9V116.8z"/>
			<path class="st8" d="M173.7,122.3c0,0.5-0.4,0.9-0.9,0.9h-25.5c-0.5,0-0.9-0.4-0.9-0.9V122c0-0.5,0.4-0.9,0.9-0.9h25.5
				c0.5,0,0.9,0.4,0.9,0.9V122.3z"/>
			<path class="st8" d="M173.7,127.8c0,0.5-0.4,1-0.9,1h-25.5c-0.5,0-0.9-0.4-0.9-0.9v-0.3c0-0.5,0.4-0.9,0.9-0.9h25.5
				c0.5,0,0.9,0.4,0.9,0.9V127.8z"/>
		</g>
	</g>
	<g>
		<g>
			<path class="st6" d="M239.9,388.1c-23.7,1.4-16.3-36.4-15.9-37.9l-35.9,25.4c0,0,1.9,20.2,31.8,30.8c7.6,2.7,14.5,2.8,20.6,1.5
				C237.8,400.3,238.3,393.5,239.9,388.1z"/>
			
				<linearGradient id="SVGID_1_" gradientUnits="userSpaceOnUse" x1="238.5725" y1="46.9821" x2="300.9599" y2="46.9821" gradientTransform="matrix(1 0 0 -1 0 437.8898)">
				<stop  offset="0" style="stop-color:#FEBBBA"/>
				<stop  offset="1" style="stop-color:#FF928E"/>
			</linearGradient>
			<path class="st12" d="M285.6,376.7c-8.8-6.1-18.8,0-18.8,0c-11.8,7.7-20.5,11-26.9,11.4c-1.5,5.4-2.1,12.2,0.6,19.8
				c13.2-2.8,22.7-12.4,26.8-17.3c1.5-1.8,4.1-2.1,5.9-0.6c1.8,1.5,3.6,3.4,3.3,5.5c-0.6,4.1,4.1,5.4,4.5,3.9s-1.6-10.4-1.6-10.4
				s9.6,9.6,13.3,13.3c3.7,3.7,8.4,0,8.4,0S294.4,382.8,285.6,376.7z"/>
			<path class="st6" d="M129.5,291.8c0,0,34.4-13.8,98.5,39.1c0,0,5.4,11.1-0.5,20.9c-5.8,9.9-61.5,57.9-69.1,84.5
				c0,0-33.1,10.8-67.4-14.8C91,421.6,94,347.5,129.5,291.8z"/>
			
				<linearGradient id="SVGID_00000074399848615387177080000002670702569805137562_" gradientUnits="userSpaceOnUse" x1="179.0579" y1="139.0451" x2="220.44" y2="139.0451" gradientTransform="matrix(1 0 0 -1 0 437.8898)">
				<stop  offset="0" style="stop-color:#FEBBBA"/>
				<stop  offset="1" style="stop-color:#FF928E"/>
			</linearGradient>
			<path style="fill:url(#SVGID_00000074399848615387177080000002670702569805137562_);" d="M197.6,279.5L180.6,300
				c-1.7,2-2.1,4.9-0.9,7.2c2.4,4.8,7.9,11.8,20.3,10.8c3.7-0.3,6.9-2.5,8.6-5.8l11.9-24.5L197.6,279.5z"/>
			<path class="st6" d="M102.8,379.8c-4-16.3,36.5-52.6,36.5-52.6l-9.8-35.4c0,0-87.4,58.2-65.1,105c3.2,6.7,7.4,11.4,12.3,14.5
				C83.8,392.4,95,383.7,102.8,379.8z"/>
			
				<linearGradient id="SVGID_00000074416190936488200660000012855075067467502743_" gradientUnits="userSpaceOnUse" x1="149.4789" y1="191.8717" x2="104.7643" y2="32.1767" gradientTransform="matrix(1 0 0 -1 0 437.8898)">
				<stop  offset="0" style="stop-color:#E1473D"/>
				<stop  offset="1" style="stop-color:#E9605A"/>
			</linearGradient>
			<path style="fill:url(#SVGID_00000074416190936488200660000012855075067467502743_);" d="M102.8,377.4c-0.4,0-0.8-0.3-0.9-0.7
				c-4.1-16.6,35.1-52,36.8-53.5c0.4-0.4,1-0.3,1.4,0.1s0.3,1-0.1,1.4c-0.4,0.4-40,36.1-36.2,51.6c0.1,0.5-0.2,1-0.7,1.2
				C103,377.4,102.9,377.4,102.8,377.4z"/>
			
				<linearGradient id="SVGID_00000054961733776594163600000015638177382032656034_" gradientUnits="userSpaceOnUse" x1="150.8423" y1="46.2229" x2="-7.6205" y2="-229.1386" gradientTransform="matrix(1 0 0 -1 0 437.8898)">
				<stop  offset="0" style="stop-color:#FEBBBA"/>
				<stop  offset="1" style="stop-color:#FF928E"/>
			</linearGradient>
			<path style="fill:url(#SVGID_00000054961733776594163600000015638177382032656034_);" d="M164.2,378.4c0,0-48,18.6-59.7,4.6
				c-0.8-1-1.3-2-1.6-3.2c-7.9,3.9-19.1,12.6-26.1,31.5c25.2,16.1,68.4-9,80.1-16.4c1.9-1.2,4.2-1.6,6.4-1.2
				c4.5,0.9,12.3,2.3,16.5,1.7c6.1-0.9,14.9,20.7,24.9,14C204.6,409.5,196.1,371.9,164.2,378.4z"/>
			<g>
				
					<linearGradient id="SVGID_00000136400027624909587970000012690850644067394212_" gradientUnits="userSpaceOnUse" x1="455.371" y1="1438.3279" x2="403.6287" y2="1369.8771" gradientTransform="matrix(0.9683 -0.2499 -0.2499 -0.9683 143.1968 1758.6726)">
					<stop  offset="0" style="stop-color:#FEBBBA"/>
					<stop  offset="1" style="stop-color:#FF928E"/>
				</linearGradient>
				<path style="fill:url(#SVGID_00000136400027624909587970000012690850644067394212_);" d="M234.4,249.3c0.2,0.7-4,45.6-4,45.6
					l-25.6-2.9l-2.4-43.1C202.5,248.8,231.6,238.2,234.4,249.3z"/>
				<path class="st17" d="M209.1,257.8l-0.5,22.8c0,0.3,0,0.6,0.1,0.9c0.4,1.7,2.4,7.6,8.3,5.2c5.3-2.2,10.2-4,13.8-3.4
					c1.6,0.3,2.7,1.8,2.6,3.4c-0.4,4.1-1.4,13.3-3.5,21.1c-0.4,1.6-2,2.6-3.6,2.3c-4.9-0.9-15.1-3-23-6.6c-1.1-0.5-1.8-1.5-1.9-2.7
					c-0.4-5.7-1.6-23-2.7-27.8c-1-4.5-6.9-6.6-9.4-7.3c-0.8-0.2-1.5-0.8-1.9-1.5c-1.4-2.7-3.7-9,4.2-12.6c1.6-0.8,2.4-2.7,1.6-4.3
					c-1.6-3.2-2.7-8.3,3.4-11.9c6.1-3.6,11.3-0.7,14.2,1.8c1.2,1,2.9,1,4.1,0c0.7-0.6,1.6-0.8,2.9-0.2c1.7,0.8,3.6-0.1,4.3-1.8
					c1.2-3.3,4-7.1,10.4-6.7c11.4,0.7,14,12.9,11.9,20.5s-14.5,6.1-20.9,3.1c-4.9-2.3-10.5,1.3-12.9,3.1
					C209.6,255.9,209.2,256.8,209.1,257.8z"/>
				
					<linearGradient id="SVGID_00000114782283877744851130000000281287911281939864_" gradientUnits="userSpaceOnUse" x1="379.5851" y1="1384.1229" x2="421.0862" y2="1426.7017" gradientTransform="matrix(0.9683 -0.2499 -0.2499 -0.9683 143.1968 1758.6726)">
					<stop  offset="0" style="stop-color:#FEBBBA"/>
					<stop  offset="1" style="stop-color:#FF928E"/>
				</linearGradient>
				<path style="fill:url(#SVGID_00000114782283877744851130000000281287911281939864_);" d="M198.6,281.3c0,0,3.2-13.4-1.9-16
					c-5.1-2.6-11.9-0.2-9.3,8.9C190.6,285.6,198.6,281.3,198.6,281.3z"/>
			</g>
		</g>
		<g>
			<path class="st17" d="M188.8,415.1c0.1,0,0.1,0,0.2,0l100.7-0.1c2.5,0,4.5-2,4.5-4.5c0-2.5-2-4.5-4.5-4.5L189,406.1
				c-2.5,0-4.5,2-4.5,4.5C184.5,413,186.4,415,188.8,415.1z"/>
			<path class="st17" d="M380.2,323.7h-83.9c-6.2,0-11.8,3.6-14.5,9.2l-38.8,82.2h104.2c4,0,7.6-2.4,9-6.1l30.1-76.1
				C388.2,328.5,385,323.7,380.2,323.7z"/>
			
				<ellipse transform="matrix(0.3064 -0.9519 0.9519 0.3064 -123.0822 566.847)" class="st19" cx="327.4" cy="367.9" rx="10.7" ry="6.6"/>
		</g>
		<path class="st4" d="M16.8,421.6c-0.2-1.3,0.1-2.7,0.8-3.7c0.7-1,1.7-1.6,2.8-1.6h361.4c1.4,0,2.7,0.9,3.5,2.4
			c0.8,1.5,0.9,3.3,0.3,4.9l-3.9,10.6c-0.9,2.4-2.8,4-5,4H22.8c-2,0-3.7-1.8-4.1-4.2L16.8,421.6z"/>
	</g>
</g>
</svg>
