<?xml version="1.0" encoding="utf-8"?>
<!-- Generator: Adobe Illustrator 26.3.1, SVG Export Plug-In . SVG Version: 6.00 Build 0)  -->
<svg version="1.1" id="Layer_1" xmlns="http://www.w3.org/2000/svg" xmlns:xlink="http://www.w3.org/1999/xlink" x="0px" y="0px"
	 viewBox="0 0 758.68 749.79" style="enable-background:new 0 0 758.68 749.79;" xml:space="preserve">
<g>
	<g>
		<g>
			<g>
				<polyline style="fill:none;stroke:#7C97F4;stroke-width:4;stroke-linecap:round;stroke-linejoin:round;" points="96.27,597.17 
					90.77,594.78 89.2,588.99 				"/>
				
					<line style="fill:none;stroke:#7C97F4;stroke-width:4;stroke-linecap:round;stroke-linejoin:round;stroke-dasharray:11.6775,11.6775;" x1="86.14" y1="577.72" x2="32.59" y2="380.51"/>
				<polyline style="fill:none;stroke:#7C97F4;stroke-width:4;stroke-linecap:round;stroke-linejoin:round;" points="31.06,374.87 
					29.49,369.08 32.53,363.91 				"/>
				
					<polyline style="fill:none;stroke:#7C97F4;stroke-width:4;stroke-linecap:round;stroke-linejoin:round;stroke-dasharray:12.1776,12.1776;" points="
					38.7,353.41 173.49,123.97 450.87,46.54 				"/>
				<polyline style="fill:none;stroke:#7C97F4;stroke-width:4;stroke-linecap:round;stroke-linejoin:round;" points="456.73,44.91 
					462.51,43.29 467.33,46.87 				"/>
				
					<polyline style="fill:none;stroke:#7C97F4;stroke-width:4;stroke-linecap:round;stroke-linejoin:round;stroke-dasharray:11.8573,11.8573;" points="
					476.85,53.93 684.13,207.72 730.09,415.04 642.26,620.32 417.13,726.54 				"/>
				<polyline style="fill:none;stroke:#7C97F4;stroke-width:4;stroke-linecap:round;stroke-linejoin:round;" points="411.77,729.07 
					406.34,731.63 400.84,729.25 				"/>
				
					<line style="fill:none;stroke:#7C97F4;stroke-width:4;stroke-linecap:round;stroke-linejoin:round;stroke-dasharray:12.2952,12.2952;" x1="389.56" y1="724.36" x2="101.91" y2="599.62"/>
			</g>
		</g>
		<g>
			<g>
				<polyline style="fill:none;stroke:#7C97F4;stroke-width:4;stroke-linecap:round;stroke-linejoin:round;" points="179.41,124.95 
					173.49,123.97 172.45,129.88 				"/>
				
					<line style="fill:none;stroke:#7C97F4;stroke-width:4;stroke-linecap:round;stroke-linejoin:round;stroke-dasharray:11.9492,11.9492;" x1="170.39" y1="141.65" x2="92.84" y2="582.99"/>
				<polyline style="fill:none;stroke:#7C97F4;stroke-width:4;stroke-linecap:round;stroke-linejoin:round;" points="91.81,588.87 
					90.77,594.78 96.76,595.06 				"/>
				
					<line style="fill:none;stroke:#7C97F4;stroke-width:4;stroke-linecap:round;stroke-linejoin:round;stroke-dasharray:12.0018,12.0018;" x1="108.75" y1="595.62" x2="630.27" y2="619.76"/>
				<polyline style="fill:none;stroke:#7C97F4;stroke-width:4;stroke-linecap:round;stroke-linejoin:round;" points="636.26,620.04 
					642.26,620.32 642.86,614.35 				"/>
				
					<line style="fill:none;stroke:#7C97F4;stroke-width:4;stroke-linecap:round;stroke-linejoin:round;stroke-dasharray:12.2035,12.2035;" x1="644.1" y1="602.2" x2="682.91" y2="219.76"/>
				<polyline style="fill:none;stroke:#7C97F4;stroke-width:4;stroke-linecap:round;stroke-linejoin:round;" points="683.52,213.69 
					684.13,207.72 678.21,206.75 				"/>
				
					<line style="fill:none;stroke:#7C97F4;stroke-width:4;stroke-linecap:round;stroke-linejoin:round;stroke-dasharray:11.7549,11.7549;" x1="666.61" y1="204.85" x2="185.21" y2="125.9"/>
			</g>
		</g>
		<g>
			<g>
				<polyline style="fill:none;stroke:#7C97F4;stroke-width:4;stroke-linecap:round;stroke-linejoin:round;" points="464.14,49.07 
					462.51,43.29 459.16,48.27 				"/>
				
					<line style="fill:none;stroke:#7C97F4;stroke-width:4;stroke-linecap:round;stroke-linejoin:round;stroke-dasharray:11.8742,11.8742;" x1="452.52" y1="58.12" x2="97.44" y2="584.88"/>
				<polyline style="fill:none;stroke:#7C97F4;stroke-width:4;stroke-linecap:round;stroke-linejoin:round;" points="94.12,589.81 
					90.77,594.78 96.31,592.49 				"/>
				
					<line style="fill:none;stroke:#7C97F4;stroke-width:4;stroke-linecap:round;stroke-linejoin:round;stroke-dasharray:12.16,12.16;" x1="107.55" y1="587.84" x2="551.44" y2="404.33"/>
				<polyline style="fill:none;stroke:#7C97F4;stroke-width:4;stroke-linecap:round;stroke-linejoin:round;" points="557.05,402.01 
					562.6,399.72 560.98,393.94 				"/>
				
					<line style="fill:none;stroke:#7C97F4;stroke-width:4;stroke-linecap:round;stroke-linejoin:round;stroke-dasharray:12.3521,12.3521;" x1="557.64" y1="382.05" x2="465.81" y2="55.02"/>
			</g>
		</g>
		<g>
			<g>
				
					<line style="fill:none;stroke:#7C97F4;stroke-width:4;stroke-linecap:round;stroke-linejoin:round;" x1="29.49" y1="369.08" x2="35.48" y2="369.53"/>
				
					<line style="fill:none;stroke:#7C97F4;stroke-width:4;stroke-linecap:round;stroke-linejoin:round;stroke-dasharray:12.1145,12.1145;" x1="47.56" y1="370.42" x2="718.06" y2="420.27"/>
				
					<line style="fill:none;stroke:#7C97F4;stroke-width:4;stroke-linecap:round;stroke-linejoin:round;" x1="724.1" y1="420.72" x2="730.09" y2="421.17"/>
			</g>
		</g>
	</g>
	<path style="fill:#0E5BA9;" d="M381.83,235.29l-175.35,84.25c-16.31,7.84-26.92,24.09-27.5,42.18
		c-1.47,45.68,0.68,134.62,33.43,200.48c15.01,30.02,58.03,124.04,170,172.36c12.28,5.3,26.24,5.17,38.48-0.23
		c52.34-23.06,161.07-89.15,196.96-243c5.19-43.82,9.66-76.54,8.72-128.73c-0.33-18.34-10.94-34.95-27.47-42.91l-175.18-84.38
		C410.62,228.9,395.13,228.9,381.83,235.29z"/>
	<path style="fill:#4E53FF;" d="M394.35,277.9l-161.78,77.73c-6.41,3.08-10.64,9.38-11.06,16.48
		c-1.79,30.53,2.17,114.83,32.25,175.33c12.58,25.16,45.96,96.97,141.2,143.79c4.18,2.05,9.16,1.65,13.5-0.03
		c37.49-14.58,128.85-67.97,163.78-199.86c4.62-39.01,13.77-68.49,11.97-118.53c-0.26-7.26-4.52-13.79-11.07-16.94l-161.83-77.95
		C405.96,275.33,399.72,275.33,394.35,277.9z"/>
	<path style="fill:none;stroke:#BBCFFB;stroke-width:9;stroke-linecap:round;stroke-linejoin:round;stroke-miterlimit:10;" d="
		M193.52,414.03v-49.09c0-11.5,6.61-21.98,17-26.92l121.89-58.04"/>
	
		<line style="fill:none;stroke:#BBCFFB;stroke-width:9;stroke-linecap:round;stroke-linejoin:round;stroke-miterlimit:10;" x1="347.73" y1="273.09" x2="390.11" y2="251.65"/>
	<circle style="opacity:0.8;fill:#FFFFFF;" cx="406.41" cy="438.66" r="93.32"/>
	<path style="fill:#DB2B36;" d="M404.92,485.23c-3.31,0-6.39-1.73-8.12-4.56l-34.38-56.51c-2.73-4.48-1.3-10.33,3.18-13.05
		c4.48-2.73,10.33-1.3,13.05,3.18l25.92,42.61l35.29-63.07c2.56-4.58,8.35-6.21,12.93-3.65c4.58,2.56,6.21,8.35,3.65,12.93
		l-43.23,77.28c-1.65,2.95-4.74,4.8-8.12,4.86C405.04,485.23,404.98,485.23,404.92,485.23z"/>
	<g>
		<path style="fill:#26C4CD;" d="M216.11,155.98h-87.32c-3.17,0-5.74-2.57-5.74-5.74V62.92c0-3.17,2.57-5.74,5.74-5.74h87.32
			c3.17,0,5.74,2.57,5.74,5.74v87.32C221.86,153.41,219.28,155.98,216.11,155.98z"/>
		<path style="fill:#47EAEA;" d="M205.39,145.26h-65.87c-3.17,0-5.74-2.57-5.74-5.74V73.64c0-3.17,2.57-5.74,5.74-5.74h65.87
			c3.17,0,5.74,2.57,5.74,5.74v65.87C211.13,142.69,208.56,145.26,205.39,145.26z"/>
	</g>
	<g>
		<path style="fill:#26C4CD;" d="M487.15,78.62h-67.13c-3.17,0-5.74-2.57-5.74-5.74V5.74c0-3.17,2.57-5.74,5.74-5.74h67.13
			c3.17,0,5.74,2.57,5.74,5.74v67.13C492.89,76.05,490.32,78.62,487.15,78.62z"/>
		<path style="fill:#47EAEA;" d="M478.62,70.09h-50.07c-3.17,0-5.74-2.57-5.74-5.74V14.28c0-3.17,2.57-5.74,5.74-5.74h50.07
			c3.17,0,5.74,2.57,5.74,5.74v50.07C484.36,67.52,481.79,70.09,478.62,70.09z"/>
	</g>
	<g>
		<path style="fill:#26C4CD;" d="M752.94,448.58H685.8c-3.17,0-5.74-2.57-5.74-5.74V375.7c0-3.17,2.57-5.74,5.74-5.74h67.13
			c3.17,0,5.74,2.57,5.74,5.74v67.13C758.68,446.01,756.11,448.58,752.94,448.58z"/>
		<path style="fill:#47EAEA;" d="M744.4,440.05h-50.07c-3.17,0-5.74-2.57-5.74-5.74v-50.07c0-3.17,2.57-5.74,5.74-5.74h50.07
			c3.17,0,5.74,2.57,5.74,5.74v50.07C750.15,437.47,747.58,440.05,744.4,440.05z"/>
	</g>
	<g>
		<path style="fill:#26C4CD;" d="M676.52,650.37h-67.13c-3.17,0-5.74-2.57-5.74-5.74V577.5c0-3.17,2.57-5.74,5.74-5.74h67.13
			c3.17,0,5.74,2.57,5.74,5.74v67.13C682.27,647.8,679.69,650.37,676.52,650.37z"/>
		<path style="fill:#47EAEA;" d="M667.99,641.84h-50.07c-3.17,0-5.74-2.57-5.74-5.74v-50.07c0-3.17,2.57-5.74,5.74-5.74h50.07
			c3.17,0,5.74,2.57,5.74,5.74v50.07C673.73,639.27,671.16,641.84,667.99,641.84z"/>
	</g>
	<g>
		<path style="fill:#26C4CD;" d="M128.03,641.94H60.89c-3.17,0-5.74-2.57-5.74-5.74v-67.13c0-3.17,2.57-5.74,5.74-5.74h67.13
			c3.17,0,5.74,2.57,5.74,5.74v67.13C133.77,639.37,131.2,641.94,128.03,641.94z"/>
		<path style="fill:#47EAEA;" d="M119.49,633.41H69.43c-3.17,0-5.74-2.57-5.74-5.74V577.6c0-3.17,2.57-5.74,5.74-5.74h50.07
			c3.17,0,5.74,2.57,5.74,5.74v50.07C125.24,630.84,122.67,633.41,119.49,633.41z"/>
	</g>
	<g>
		<path style="fill:#26C4CD;" d="M72.88,394.89H5.74c-3.17,0-5.74-2.57-5.74-5.74v-67.13c0-3.17,2.57-5.74,5.74-5.74h67.13
			c3.17,0,5.74,2.57,5.74,5.74v67.13C78.62,392.32,76.05,394.89,72.88,394.89z"/>
		<path style="fill:#47EAEA;" d="M64.34,386.36H14.28c-3.17,0-5.74-2.57-5.74-5.74v-50.07c0-3.17,2.57-5.74,5.74-5.74h50.07
			c3.17,0,5.74,2.57,5.74,5.74v50.07C70.09,383.79,67.52,386.36,64.34,386.36z"/>
	</g>
	<g>
		<path style="fill:#26C4CD;" d="M746.59,242.2h-87.76c-3.17,0-5.74-2.57-5.74-5.74V146c0-3.17,2.57-5.74,5.74-5.74h87.76
			c3.17,0,5.74,2.57,5.74,5.74v90.45C752.34,239.62,749.76,242.2,746.59,242.2z"/>
		<path style="fill:#47EAEA;" d="M735.82,231.13h-66.21c-3.17,0-5.74-2.57-5.74-5.74v-68.32c0-3.17,2.57-5.74,5.74-5.74h66.21
			c3.17,0,5.74,2.57,5.74,5.74v68.32C741.56,228.56,738.99,231.13,735.82,231.13z"/>
	</g>
	<g>
		<path style="fill:#404773;" d="M654.72,677.31c-0.67,4.67-28.72,24.32-34.25,28.25c-4.43,3.15-8.29,4.6-14.99,7.12c0,0,0,0,0,0
			c-15.23,4.01-110.82,32.53-110.82,32.53c-0.25-0.97-0.39-1.81-0.95-2.91c-3.57,1.42-7.24,2.34-9.57,3.07
			c-3.56,1.11-31.8,2-37.59,3.11c-5.78,1.11-17.35,2.89-22.02-1.56c-4.67-4.45,2.89-14.01,9.34-16.46
			c6.45-2.45,30.03-3.11,34.25-3.56c4.23-0.44,9.79-2,12.46-1.11c0.84,0.28,4.57-0.81,9.28-2.44c-0.12-1.73-0.14-2.82-0.14-2.82
			l25.1-7.24l-4.65-44.44c0,0,10.92-41.15,54.54-9.76c0,0,9.73,2.86,13.07,3.75c0.24,0.06,0.61,0.07,1.12,0.03
			c6.65-0.5,35.25-9.15,45.59-9.15c11.12,0,14.68-0.67,18.68,1.33C647.15,657.07,655.38,672.64,654.72,677.31z"/>
		<path style="fill:#404773;" d="M610.02,746.93c-4.67,4.45-16.24,2.67-22.02,1.56c-5.78-1.11-34.03-2-37.59-3.11
			c-3.56-1.11-10.23-2.67-14.9-5.78c-0.38-0.25-1.23-0.62-2.5-1.1c0,0,0,0,0,0l-7.06,5.1l-98.21-31.26
			c-5.88-1.61-10.55-4.07-13.66-6.77c-5.12-4.45-33.58-23.58-34.25-28.25c-0.67-4.67,7.56-20.24,11.57-22.24
			c4-2,7.56-1.33,18.68-1.33s43.37,10.01,46.71,9.12c1.52-0.41,4.66-2,7.63-3.63c3.57-1.95,6.9-3.93,6.9-3.93
			c47.77-21.32,53.08,13.57,53.08,13.57l-2.83,43.07c0,0,3.98,1.97,9.16,4.43l23.68,6.69l-3.1,2.24c1.34,0.43,2.29,0.63,2.67,0.5
			c2.67-0.89,8.23,0.67,12.46,1.11c4.23,0.44,27.8,1.11,34.25,3.56C607.13,732.91,614.7,742.48,610.02,746.93z"/>
		<path style="fill:#404773;" d="M464.42,659.23c3.29,0.23,25.55,13.12,30.83,16.2c-8.03-4.19-38.47-12.57-38.47-12.57
			C458.3,662.45,461.44,660.85,464.42,659.23z"/>
		<path style="fill:#404773;" d="M578.88,662.89c0,0-38.34,9.3-45.36,13.2c0.32-0.23,20.21-15.34,30.65-17.36
			c0,0,10.26,3.24,13.59,4.13C578,662.92,578.37,662.93,578.88,662.89C578.88,662.89,578.88,662.89,578.88,662.89z"/>
		<path style="fill:#EEA886;" d="M610.02,746.93c-4.67,4.45-16.24,2.67-22.02,1.56c-5.78-1.11-34.03-2-37.59-3.11
			c-1.02-0.32-2.3-0.68-3.72-1.09c0,0,0,0,0,0c-3.51-1.04-7.85-2.47-11.18-4.69c-0.38-0.25-1.23-0.62-2.5-1.1l17.77-12.83l0.51-0.37
			c1.34,0.43,2.29,0.63,2.67,0.5c2.67-0.89,8.23,0.67,12.46,1.11c4.23,0.44,27.8,1.11,34.25,3.56
			C607.13,732.91,614.7,742.48,610.02,746.93z"/>
		<path style="fill:#C5CDDB;" d="M610.02,746.93c-4.67,4.45-16.24,2.67-22.02,1.56c-5.78-1.11-34.03-2-37.59-3.11
			c-1.02-0.32-2.3-0.68-3.72-1.09c0,0,0,0,0,0c0,0,0,0,0,0s7.78-7.69,4.1-18.61l0.51-0.37c1.34,0.43,2.29,0.63,2.67,0.5
			c2.67-0.89,8.23,0.67,12.46,1.11c4.23,0.44,27.8,1.11,34.25,3.56C607.13,732.91,614.7,742.48,610.02,746.93z"/>
		<path style="fill:#E55353;" d="M474.17,669.04c0.05,0.12,0.04,0.2-0.04,0.26C473.69,669.64,473.76,669.49,474.17,669.04z"/>
		<path style="fill:#DB2B36;" d="M602.71,617.04c-0.37-0.75-20.63-32.62-26.12-47.15c-5.49-14.53-18.68-21.2-24.91-23.28
			c-2.22-0.74-6.18-2.03-10.36-3.38c-7.52-2.43-15.74-5.07-15.74-5.07h-25.95c0,0-8.99,3.01-18.54,6.36c-0.01,0-0.01,0.01-0.01,0.01
			c-8.8,3.08-18.06,6.45-21.19,8.02c-6.52,3.26-17.49,26.54-19.72,29.21c-2.22,2.67-19.33,34.37-21.8,46.56
			c-1.92,9.46,54.25,37.18,55.79,40.74c1.78-1.97,9.96-9.82,9.96-9.82s-2.62-1.65-6.31-4.07c15.05,0.69,51.81-0.61,57.09-0.34
			c1.06,0.05,2.21,0.02,3.4-0.07c0,0-0.01,0-0.01,0c1.63,1.19,12.16,10.49,12.16,10.49s25.95-10.77,37.88-22.83
			C605.29,625.27,604.57,620.82,602.71,617.04z M455.17,638.13c-5.56-6.67-13.21-10.71-11.29-13.67
			c1.93-2.96,18.24-31.14,18.24-31.14s8.45,18.53,10.82,28.17c2.37,9.64,2.19,14.05,1.19,17.05c-0.9,2.69-1.62,4.52-2.42,12.52
			C465.06,646.52,457.72,641.18,455.17,638.13z M569.9,634.94c-2.18,2.48-10.81,7.96-18.57,12.47c-0.59-5.38-1.48-13.84-1.58-16.88
			c-0.15-4.59,1.78-17.79,4.15-22.83c2.37-5.04,4-18.83,4-18.83s19.65,26.69,22.76,29.51C583.78,621.19,577.26,626.57,569.9,634.94z
			"/>
		<g>
			<path style="fill:#EEA886;" d="M515.7,466.84c0,0,20.29,3.2,17.2,34.95c-3.09,31.75-21,29.15-22.2,29.12
				c-1.2-0.03-17.98,0.58-19.29-38.19C491.42,492.71,490.85,464.05,515.7,466.84z"/>
		</g>
		<g>
			<path style="fill:#EEA886;" d="M533.22,492.82c0,0,2.22-2.37,3.04,0.03c0.82,2.4-3.03,13.12-3.17,13.62c0,0-0.41,0.93-0.94,0.42
				C531.61,506.37,533.22,492.82,533.22,492.82z"/>
		</g>
		<g>
			<path style="fill:#EEA886;" d="M491.97,492.41c0,0-2.18-2.42-3.04-0.03c-0.86,2.39,2.74,13.17,2.91,13.68
				c0,0,0.39,0.94,0.93,0.44C493.31,506,491.97,492.41,491.97,492.41z"/>
		</g>
		<g>
			<path style="fill:#434343;" d="M533.21,497.68l-2.91,3.88c0,0,0.08-8.51-0.38-9.85c-0.47-1.33-1.18-5.41-1.57-6.38
				c-0.39-0.96-17.43-5.74-32.47,1.39c0,0,0.66,6.12-0.78,6.67c-1.44,0.54-0.73,9.97-0.73,9.97l-2.39-2.7c0,0-3.66-24.43-2.75-26.97
				c0.9-2.55,3.78-17.85,34.65-8.77c0,0,9.62-2.04,11.56,4.61C537.36,476.19,533.21,497.68,533.21,497.68z"/>
		</g>
		<path style="fill:#282C47;" d="M485.84,700.71c0,0-31.06-18.62-44.63-21.54c-12.82-2.77-17.5-7.56-17.5-7.56s20.39,0,33.95,9.64
			C466.89,687.79,485.84,700.71,485.84,700.71z"/>
		<path style="fill:#282C47;" d="M513.44,713.69c0,0,54.03-28.37,76.09-34.52c12.63-3.52,17.5-7.56,17.5-7.56
			s-33.4,3.26-53.72,15.49C543.63,692.93,513.44,713.69,513.44,713.69z"/>
		<path style="fill:#EEA886;" d="M493.7,742.3c-3.57,1.42-7.24,2.34-9.57,3.07c-3.56,1.11-31.8,2-37.59,3.11
			c-5.78,1.11-17.35,2.89-22.02-1.56c-4.67-4.45,2.89-14.01,9.34-16.46c6.45-2.45,30.03-3.11,34.25-3.56
			c4.23-0.44,9.79-2,12.46-1.11c0.84,0.28,4.57-0.81,9.28-2.44C489.99,726.18,493.7,742.3,493.7,742.3z"/>
		<path style="fill:#404773;" d="M513.44,739.61l53.12-15.72l-10.5-3.21C556.05,720.68,513.61,736.07,513.44,739.61z"/>
		<polygon style="fill:#282C47;" points="513.44,739.61 538.3,732.03 521.06,742.03 		"/>
		<path style="fill:#525252;" d="M496.37,676.09c-0.05-0.03-0.45-0.26-1.12-0.66C495.69,675.66,496.07,675.88,496.37,676.09z"/>
		<path style="fill:#C5CDDB;" d="M484.13,745.37c-3.56,1.11-31.8,2-37.59,3.11c-5.78,1.11-17.35,2.89-22.02-1.56
			c-4.67-4.45,2.89-14.01,9.34-16.46c6.45-2.45,30.03-3.11,34.25-3.56c4.23-0.44,9.79-2,12.46-1.11
			C480.57,725.8,473.44,736.7,484.13,745.37z"/>
		<path style="fill:#F04F23;" d="M541.32,543.23c0,0-8.51,37.39-28.78,37.39c-20.26,0-31.46-36.1-31.46-36.1s0,0,0.01-0.01
			c9.55-3.35,18.54-6.36,18.54-6.36h25.95C525.58,538.16,533.8,540.79,541.32,543.23z"/>
		<path style="fill:#F6961D;" d="M466.57,671.6l-8.18-46.56l105.82-2.45l-6.82,45.82c0,0-33.78,12.36-45.24,19.58
			C512.15,687.99,483.18,676.09,466.57,671.6z"/>
		<path style="fill:#EEA886;" d="M525.85,538.24c-0.01-0.03-0.02-0.06-0.03-0.09c-1.26-2.83-0.65-16.61-0.65-16.61
			s-25.85-6.58-25.11-1.55c0.74,5.03-2.23,18.76-2.23,18.76l-13.26,4.54c0,0,14.13,37.93,30.36,33.04
			c16.24-4.89,22.37-34.41,22.37-34.41L525.85,538.24z"/>
		<path style="fill:#A77860;" d="M500.02,525.11c0,0,4.58,5.85,11.81,5.85c4.75,0,8.51-1.66,13.24-6.28c0,0-2.39,9.1-13.21,9.91
			C511.86,534.6,503.6,535.12,500.02,525.11z"/>
	</g>
</g>
</svg>
