<?xml version="1.0" encoding="utf-8"?>
<!-- Generator: Adobe Illustrator 26.3.1, SVG Export Plug-In . SVG Version: 6.00 Build 0)  -->
<svg version="1.1" id="Layer_1" xmlns="http://www.w3.org/2000/svg" xmlns:xlink="http://www.w3.org/1999/xlink" x="0px" y="0px"
	 viewBox="0 0 324.3 325.1" style="enable-background:new 0 0 324.3 325.1;" xml:space="preserve">
<g>
	<path style="fill:#232C2D;" d="M252.91,315.7H110.84c-6.12,0-10.46-4.95-9.69-11.05l34.98-276.32c0.77-6.1,6.36-11.05,12.48-11.05
		l134.94-1.58c15.49,0,17.59,6.52,16.82,12.62l-34.98,276.32C264.62,310.75,259.03,315.7,252.91,315.7"/>
	<path style="fill:#26C4CE;" d="M244.36,315.7H102.29c-6.12,0-10.46-4.96-9.69-11.08l34.98-277.2c0.77-6.12,6.36-11.08,12.48-11.08
		h142.07c6.12,0,10.46,4.96,9.69,11.08l-34.98,277.2C256.07,310.74,250.48,315.7,244.36,315.7"/>
	<path style="fill:#D9F5F9;" d="M100.7,305l33.4-264.68c0.18-1.41,1.47-2.56,2.88-2.56h142.83c1.41,0,2.42,1.15,2.24,2.56
		L248.65,305c-0.18,1.41-1.47,2.56-2.88,2.56H102.94C101.53,307.56,100.52,306.41,100.7,305"/>
	<path style="fill:#CADDFF;" d="M209.33,30.43c-2.29,0-3.92-1.86-3.63-4.15c0.29-2.29,2.38-4.15,4.68-4.15
		c2.29,0,3.92,1.86,3.63,4.15C213.71,28.57,211.62,30.43,209.33,30.43"/>
	<path d="M244.36,316.29H102.29c-3.11,0-5.9-1.21-7.84-3.41c-1.96-2.23-2.82-5.18-2.43-8.33l20.87-165.39
		c0.04-0.32,0.33-0.55,0.65-0.51c0.32,0.04,0.55,0.33,0.51,0.65L93.19,304.69c-0.35,2.81,0.41,5.44,2.14,7.41
		c1.72,1.94,4.19,3.02,6.96,3.02h142.07c5.83,0,11.17-4.74,11.9-10.57l34.98-277.2c0.35-2.81-0.41-5.44-2.14-7.41
		c-1.72-1.94-4.19-3.02-6.96-3.02H140.07c-5.83,0-11.17,4.74-11.9,10.57l-10.54,83.55c-0.04,0.32-0.33,0.55-0.65,0.51
		c-0.32-0.04-0.55-0.33-0.51-0.65l10.54-83.55c0.81-6.39,6.67-11.59,13.06-11.59h142.07c3.12,0,5.9,1.21,7.84,3.41
		c1.96,2.23,2.82,5.18,2.43,8.33l-34.98,277.2C256.62,311.08,250.76,316.29,244.36,316.29"/>
	<path style="fill:#0E5BA9;" d="M233.42,271.9l-108.49-0.13c-0.58,0-1.02-0.52-0.92-1.1l1.5-8.66c0.08-0.45,0.47-0.78,0.93-0.78
		l108.25,0.14c0.57,0,1.01,0.51,0.93,1.07l-1.26,8.64C234.28,271.56,233.88,271.9,233.42,271.9"/>
	<path style="fill:#0E5BA9;" d="M228.69,291.53H124.91c-1.93,0-3.39-1.74-3.06-3.64l0.74-4.2c0.26-1.48,1.55-2.57,3.06-2.57
		L229.32,281c1.9,0,3.36,1.68,3.08,3.56l-0.64,4.32C231.54,290.41,230.23,291.53,228.69,291.53"/>
	<path style="fill:#0E5BA9;" d="M319,64.66c2.98,0,5.06,2.41,4.66,5.39l-5.03,37.09c-0.4,2.98-3.14,5.39-6.12,5.39h-85.56
		c-2.98,0-5.06-2.41-4.66-5.39l5.03-37.09c0.4-2.98,3.14-5.39,6.12-5.39H319"/>
	<path d="M225.32,85.42c-0.03,0-0.05,0-0.08-0.01c-0.32-0.04-0.55-0.34-0.5-0.66l2-14.79c0.44-3.25,3.45-5.9,6.7-5.9l42.8,0.47
		c0.32,0,0.58,0.27,0.58,0.59c0,0.32-0.26,0.58-0.58,0.58c0,0-0.01,0-0.01,0l-42.8-0.47c-2.68,0-5.17,2.19-5.54,4.88l-2,14.79
		C225.86,85.21,225.61,85.42,225.32,85.42"/>
	<path d="M255.65,114.11c-0.32,0-0.58-0.26-0.58-0.57c-0.01-0.32,0.25-0.59,0.57-0.6l56.86-1c2.7,0,5.18-2.19,5.55-4.88l5.03-37.09
		c0.17-1.28-0.16-2.47-0.94-3.36c-0.77-0.88-1.88-1.36-3.14-1.36l-19.88-0.05c-0.32,0-0.58-0.26-0.58-0.59
		c0-0.32,0.26-0.58,0.59-0.58c0,0,0,0,0,0L319,64.07c1.6,0,3.03,0.63,4.02,1.76c1,1.15,1.44,2.68,1.21,4.29l-5.03,37.09
		c-0.44,3.25-3.45,5.9-6.7,5.9L255.65,114.11C255.66,114.11,255.66,114.11,255.65,114.11"/>
	<path style="fill:#99B9FF;" d="M303.6,80.73h-49.14c-1.39,0-2.37-1.13-2.18-2.52c0.19-1.39,1.47-2.52,2.87-2.52h49.14
		c1.4,0,2.37,1.13,2.18,2.52C306.27,79.6,304.99,80.73,303.6,80.73"/>
	<path style="fill:#CADDFF;" d="M247.35,78.21c-0.19,1.39-1.47,2.52-2.86,2.52c-1.39,0-2.37-1.13-2.18-2.52
		c0.19-1.39,1.47-2.52,2.87-2.52C246.56,75.69,247.54,76.82,247.35,78.21"/>
	<path style="fill:#CADDFF;" d="M302.12,91.6h-49.14c-1.39,0-2.37-1.13-2.18-2.52c0.19-1.39,1.47-2.52,2.87-2.52h49.14
		c1.39,0,2.37,1.13,2.18,2.52C304.8,90.47,303.52,91.6,302.12,91.6"/>
	<path style="fill:#CADDFF;" d="M245.88,89.08c-0.19,1.39-1.47,2.52-2.87,2.52c-1.39,0-2.37-1.13-2.18-2.52
		c0.19-1.39,1.47-2.52,2.86-2.52C245.09,86.55,246.07,87.68,245.88,89.08"/>
	<path style="fill:#CADDFF;" d="M300.65,102.46h-49.14c-1.39,0-2.37-1.13-2.18-2.52c0.19-1.4,1.47-2.52,2.87-2.52h49.14
		c1.39,0,2.37,1.13,2.18,2.52C303.33,101.34,302.04,102.46,300.65,102.46"/>
	<path style="fill:#CADDFF;" d="M244.41,99.94c-0.19,1.39-1.47,2.52-2.86,2.52c-1.39,0-2.37-1.13-2.18-2.52
		c0.19-1.39,1.47-2.52,2.87-2.52C243.62,97.42,244.6,98.55,244.41,99.94"/>
	<path style="fill:#FFFFFF;" d="M144.88,30.89c2.97,0,5.05,2.41,4.65,5.38l-5.01,36.99c-0.4,2.97-3.13,5.38-6.1,5.38H30.32
		l-2.23,10.04l-6.14-10.04H5.45c-2.97,0-5.05-2.41-4.65-5.38l5.01-36.99c0.4-2.97,3.14-5.38,6.1-5.38H144.88"/>
	<path d="M138.41,79.22h-10.17c-0.32,0-0.58-0.26-0.58-0.59c0-0.32,0.26-0.58,0.58-0.58h10.17c2.68,0,5.16-2.19,5.53-4.87
		l5.01-36.99c0.17-1.27-0.16-2.47-0.94-3.36c-0.77-0.88-1.88-1.36-3.13-1.36l-10.43-0.48c-0.32-0.01-0.57-0.29-0.56-0.61
		c0.01-0.32,0.28-0.57,0.61-0.56l10.4,0.48h0c1.57,0,3,0.62,3.98,1.76c1,1.14,1.43,2.67,1.22,4.28l-5.01,36.99
		C144.65,76.58,141.65,79.22,138.41,79.22"/>
	<path d="M28.68,91.18l-7.06-11.96H5.45c-1.6,0-3.02-0.63-4.01-1.76c-1-1.15-1.43-2.67-1.21-4.28l5.01-36.99
		c0.44-3.24,3.44-5.88,6.68-5.88l104.87-0.48c0,0,0,0,0,0c0.32,0,0.58,0.26,0.58,0.58c0,0.32-0.26,0.59-0.58,0.59L11.92,31.47
		c-2.68,0-5.16,2.19-5.53,4.87L1.38,73.34c-0.17,1.28,0.16,2.47,0.94,3.35c0.77,0.88,1.88,1.36,3.13,1.36h16.84l5.79,9.82l1.75-9.82
		h42.22c0.32,0,0.59,0.26,0.59,0.58c0,0.32-0.26,0.59-0.59,0.59H30.81L28.68,91.18"/>
	<path style="fill:#99B9FF;" d="M97.51,46.92H20.49c-1.11,0-1.88-1.13-1.73-2.52c0.15-1.39,1.17-2.52,2.28-2.52h77.02
		c1.11,0,1.88,1.13,1.73,2.52C99.63,45.79,98.61,46.92,97.51,46.92"/>
	<path style="fill:#CADDFF;" d="M116.75,57.76H18.39c-1.41,0-2.41-1.13-2.21-2.52c0.19-1.39,1.49-2.51,2.91-2.51h98.37
		c1.41,0,2.41,1.13,2.21,2.51C119.47,56.63,118.17,57.76,116.75,57.76"/>
	<path style="fill:#CADDFF;" d="M131.07,68.59H16.54c-1.65,0-2.8-1.13-2.58-2.52c0.22-1.39,1.74-2.52,3.39-2.52h114.53
		c1.65,0,2.8,1.13,2.58,2.52C134.23,67.47,132.72,68.59,131.07,68.59"/>
	<path style="fill:#FFFFFF;" d="M305.59,0.59c3.37,0,5.73,2.73,5.28,6.1l-5.69,42c-0.46,3.37-3.56,6.1-6.93,6.1H173.73
		c-3.37,0-5.73-2.73-5.28-6.1l5.69-42c0.46-3.37,3.56-6.1,6.93-6.1H305.59"/>
	<path style="fill:#CADDFF;" d="M288.15,18.78h-83.28c-1.58,0-2.68-1.28-2.47-2.86c0.21-1.58,1.67-2.86,3.24-2.86h83.28
		c1.58,0,2.68,1.28,2.47,2.86C291.18,17.51,289.73,18.78,288.15,18.78"/>
	<path style="fill:#CADDFF;" d="M196.83,15.93c-0.21,1.58-1.67,2.86-3.24,2.86s-2.68-1.28-2.47-2.86c0.21-1.58,1.67-2.86,3.24-2.86
		C195.94,13.07,197.04,14.35,196.83,15.93"/>
	<path style="fill:#CADDFF;" d="M286.48,31.09H203.2c-1.58,0-2.68-1.28-2.47-2.86c0.22-1.58,1.67-2.86,3.24-2.86h83.28
		c1.58,0,2.68,1.28,2.47,2.86C289.51,29.81,288.06,31.09,286.48,31.09"/>
	<path style="fill:#CADDFF;" d="M195.16,28.23c-0.22,1.58-1.67,2.86-3.24,2.86c-1.58,0-2.68-1.28-2.47-2.86
		c0.21-1.58,1.67-2.86,3.24-2.86C194.27,25.38,195.37,26.65,195.16,28.23"/>
	<path style="fill:#CADDFF;" d="M284.82,43.39h-83.28c-1.58,0-2.68-1.28-2.47-2.86c0.21-1.58,1.67-2.86,3.24-2.86h83.28
		c1.58,0,2.68,1.28,2.47,2.86C287.84,42.12,286.39,43.39,284.82,43.39"/>
	<path style="fill:#CADDFF;" d="M193.49,40.54c-0.21,1.58-1.66,2.86-3.24,2.86c-1.58,0-2.68-1.28-2.47-2.86
		c0.21-1.58,1.67-2.86,3.24-2.86C192.6,37.68,193.71,38.96,193.49,40.54"/>
	<path d="M298.25,55.38H173.73c-1.79,0-3.39-0.7-4.5-1.97c-1.12-1.28-1.6-2.99-1.36-4.8l3.33-24.6c0.04-0.32,0.34-0.55,0.66-0.5
		c0.32,0.04,0.55,0.34,0.5,0.66l-3.33,24.6c-0.2,1.47,0.19,2.84,1.08,3.87c0.88,1.01,2.17,1.57,3.62,1.57h124.52
		c3.08,0,5.93-2.51,6.35-5.6l5.69-42c0.2-1.47-0.19-2.85-1.08-3.87c-0.88-1.01-2.17-1.57-3.62-1.57H181.07
		c-3.08,0-5.93,2.51-6.35,5.6l-0.3,2.24c-0.04,0.32-0.34,0.54-0.66,0.5c-0.32-0.04-0.55-0.34-0.5-0.66l0.3-2.24
		c0.49-3.65,3.86-6.61,7.51-6.61h124.52c1.79,0,3.39,0.7,4.5,1.97c1.12,1.28,1.6,2.99,1.36,4.8l-5.69,42
		C305.26,52.41,301.9,55.38,298.25,55.38"/>
	<path style="fill:#232C2D;" d="M259.55,185.96c-0.12,6.69-1.25,15.73-5.8,21.45c-2.63,3.3-6.05,5.19-10.17,5.62
		c-18.51,1.94-28.67-20.54-29.09-21.5c-0.76-1.73,0.02-3.74,1.74-4.51c1.73-0.76,3.74,0.02,4.5,1.74
		c0.08,0.19,8.58,18.89,22.13,17.47c2.26-0.24,4.08-1.24,5.54-3.08c5.01-6.29,4.58-20.22,3.99-25.05c-0.23-1.87,1.11-3.58,2.98-3.81
		c1.87-0.23,3.58,1.11,3.8,2.98C259.22,177.62,259.64,181.2,259.55,185.96"/>
	<path style="fill:#232C2D;" d="M263.62,162.45l-0.12,6.56c-0.07,3.58-2.81,6.5-6.38,6.79l-2.29,0.19
		c-1.95,0.16-3.89-0.52-5.32-1.86c-1.43-1.34-2.23-3.23-2.19-5.19l0.19-10.46c0.04-1.89,1.59-3.39,3.48-3.35
		c1.89,0.03,3.39,1.59,3.35,3.48l-0.19,10.46c0,0.02,0,0.05,0.04,0.09c0.04,0.03,0.07,0.03,0.09,0.03l2.29-0.19
		c0.06,0,0.1-0.05,0.1-0.11l0.12-6.56c0.04-1.89,1.59-3.39,3.48-3.35C262.15,159,263.66,160.56,263.62,162.45"/>
	<path style="fill:#232C2D;" d="M143.81,223.04c0.02,0,0.04-0.01,0.06-0.01c5.87-1.2,11.19-5.95,15.83-14.13
		c3.25-5.73,4.97-11.09,5.05-11.32c0.57-1.8-0.42-3.72-2.22-4.29c-1.8-0.57-3.72,0.42-4.29,2.22c-1.68,5.24-7.77,19.19-15.74,20.82
		c-0.01,0-0.02,0.01-0.04,0.01c-2.53,0.51-4.64,0.13-6.46-1.18c-4.35-3.12-6.16-10.75-6.49-13.42c-0.23-1.87-1.94-3.2-3.81-2.97
		c-1.87,0.23-3.2,1.94-2.97,3.81c0.06,0.51,1.65,12.65,9.29,18.13C135.41,223.15,139.38,223.94,143.81,223.04"/>
	<path style="fill:#232C2D;" d="M133.83,188.94l-0.12,6.56c-0.07,3.58-2.81,6.51-6.38,6.8l-2.29,0.19
		c-1.95,0.16-3.89-0.52-5.32-1.86c-1.43-1.34-2.23-3.23-2.19-5.19l0.19-10.46c0.04-1.89,1.59-3.39,3.48-3.35
		c1.89,0.03,3.39,1.59,3.35,3.48l-0.19,10.46c0,0.02,0,0.05,0.04,0.09c0.04,0.04,0.07,0.03,0.09,0.03l2.29-0.19
		c0.06,0,0.1-0.05,0.1-0.11l0.12-6.56c0.04-1.89,1.59-3.39,3.48-3.35C132.36,185.5,133.86,187.05,133.83,188.94"/>
	<path style="fill:#FFFFFF;" d="M135.39,144.57h7.22v-20.2h-7.22c-1.74,0-3.14,1.41-3.14,3.14v13.91
		C132.25,143.17,133.66,144.57,135.39,144.57"/>
	<path d="M142.61,145.16h-0.27c-5.89,0-10.69-4.79-10.69-10.69c0-5.89,4.8-10.69,10.69-10.69h0.27c0.32,0,0.58,0.26,0.58,0.59v20.2
		C143.2,144.9,142.94,145.16,142.61,145.16 M142.03,124.96c-5.1,0.17-9.2,4.37-9.2,9.51c0,5.14,4.1,9.34,9.2,9.51V124.96z"/>
	<path style="fill:#FFFFFF;" d="M241.06,144.57h-7.22v-20.2h7.22c1.74,0,3.15,1.41,3.15,3.14v13.91
		C244.2,143.17,242.8,144.57,241.06,144.57"/>
	<path d="M234.1,145.16h-0.26c-0.32,0-0.58-0.26-0.58-0.58v-20.2c0-0.33,0.26-0.59,0.58-0.59h0.26c5.89,0,10.69,4.79,10.69,10.69
		C244.79,140.37,239.99,145.16,234.1,145.16 M234.42,124.96v19.02c5.1-0.17,9.19-4.37,9.19-9.51
		C243.62,129.33,239.52,125.13,234.42,124.96z"/>
	<path style="fill:#FFFFFF;" d="M237.1,133.64c0-21.71-21.88-44.16-48.88-44.16c-26.99,0-48.88,22.46-48.88,44.16
		c0,21.71,21.88,34.45,48.88,34.45C215.22,168.09,237.1,155.35,237.1,133.64"/>
	<path d="M188.23,168.67c-13.62,0-26.01-3.26-34.89-9.18c-9.54-6.36-14.58-15.3-14.58-25.85c0-10.8,5.28-21.97,14.5-30.65
		c9.66-9.09,22.08-14.1,34.96-14.1c12.89,0,25.3,5.01,34.96,14.1c9.21,8.68,14.5,19.85,14.5,30.65c0,10.55-5.04,19.49-14.58,25.85
		C214.23,165.41,201.84,168.67,188.23,168.67 M188.23,90.06c-27.64,0-48.29,23.01-48.29,43.58c0,10.14,4.86,18.74,14.06,24.88
		c8.69,5.79,20.85,8.98,34.24,8.98c13.39,0,25.55-3.19,34.24-8.98c9.19-6.13,14.06-14.73,14.06-24.88
		C236.52,113.07,215.87,90.06,188.23,90.06z"/>
	<path style="fill:#FFFFFF;" d="M175.98,174.61h24.49c10.73,0,19.43,8.7,19.43,19.43c0,7.09-0.69,14.16-2.06,21.12l-3.52,17.83
		c-2.46,12.46-13.39,21.44-26.09,21.44c-12.7,0-23.63-8.98-26.09-21.44l-3.52-17.83c-1.37-6.95-2.06-14.03-2.06-21.12
		C156.55,183.31,165.25,174.61,175.98,174.61"/>
	<path d="M188.22,255.01c-12.94,0-24.16-9.21-26.66-21.91l-3.52-17.83c-1.38-6.97-2.08-14.12-2.08-21.23
		c0-11.04,8.98-20.02,20.02-20.02h24.49c11.04,0,20.02,8.98,20.02,20.02c0,7.11-0.7,14.25-2.08,21.23l-3.52,17.83
		C212.38,245.79,201.17,255.01,188.22,255.01 M175.98,175.19c-10.39,0-18.85,8.46-18.85,18.85c0,7.03,0.69,14.1,2.05,21l3.52,17.83
		c2.4,12.15,13.13,20.97,25.51,20.97c12.39,0,23.12-8.82,25.52-20.97l3.52-17.83c1.36-6.9,2.05-13.97,2.05-21
		c0-10.39-8.45-18.85-18.85-18.85H175.98z"/>
	<path style="fill:#0E5BA9;" d="M188.22,217.66c7.36,0,13.33-5.97,13.33-13.33v-29.72H174.9v29.72
		C174.9,211.69,180.87,217.66,188.22,217.66"/>
	<path d="M201.55,175.19H174.9c-0.32,0-0.58-0.26-0.58-0.58c0-0.32,0.26-0.59,0.58-0.59h26.66c0.32,0,0.59,0.26,0.59,0.59
		C202.14,174.93,201.88,175.19,201.55,175.19"/>
	<path style="fill:#232C2D;" d="M155.36,127.12h47.07c4.89,0,8.85,4.27,8.85,9.54v6.22c0,4.02-2.15,8.28-5.84,8.97
		c-13.04,2.45-40.04,2.45-53.09,0c-3.7-0.7-5.84-4.95-5.84-8.97v-6.22C146.51,131.39,150.48,127.12,155.36,127.12"/>
	<path style="fill:#5479F7;" d="M189.96,139.65c0,1.77,1.33,3.2,2.97,3.2c1.64,0,2.97-1.43,2.97-3.2c0-1.77-1.33-3.2-2.97-3.2
		C191.29,136.45,189.96,137.88,189.96,139.65"/>
	<path style="fill:#5479F7;" d="M158.4,139.65c0,1.77,1.33,3.2,2.97,3.2c1.64,0,2.97-1.43,2.97-3.2c0-1.77-1.33-3.2-2.97-3.2
		C159.73,136.45,158.4,137.88,158.4,139.65"/>
	<polyline style="fill:#FFFFFF;" points="46.34,297.38 45.98,310.8 41.24,311.31 38.9,296.87 46.34,297.38 	"/>
	<path d="M41.24,311.89c-0.28,0-0.53-0.21-0.58-0.49l-2.34-14.43c-0.03-0.18,0.02-0.36,0.15-0.49c0.12-0.13,0.29-0.2,0.47-0.19
		l7.44,0.51c0.31,0.02,0.55,0.28,0.55,0.6l-0.36,13.41c-0.01,0.29-0.23,0.53-0.52,0.57l-4.74,0.51
		C41.28,311.89,41.26,311.89,41.24,311.89 M39.59,297.51l2.14,13.16l3.68-0.4l0.33-12.34L39.59,297.51z"/>
	<polyline style="fill:#FFFFFF;" points="73.22,301.79 73.98,312.47 67.72,312.98 65.48,301.79 73.22,301.79 	"/>
	<path d="M67.72,313.57c-0.28,0-0.52-0.2-0.57-0.47l-2.23-11.2c-0.03-0.17,0.01-0.35,0.12-0.48c0.11-0.14,0.28-0.21,0.45-0.21h7.74
		c0.31,0,0.56,0.24,0.58,0.54l0.76,10.68c0.02,0.32-0.22,0.6-0.54,0.63l-6.26,0.51C67.75,313.57,67.73,313.57,67.72,313.57
		 M66.19,302.37l1.99,9.98l5.16-0.42l-0.68-9.56H66.19z"/>
	<path style="fill:#0E5BA9;" d="M66.04,317.58c-0.43-0.29-0.7-0.78-0.71-1.3c-0.04-1.57-0.05-4.91,0.59-6.16
		c0.84-1.66,4.3,0.66,4.3,0.66s2.03-2.81,3.21-3.4c0.61-0.31,4.21,2.09,7.83,5.35c3.97,3.57,5.76,4.71,6.62,7.79
		c0.4,1.44-0.66,2.9-2.16,3.01C82.07,323.79,74.71,323.35,66.04,317.58"/>
	<path d="M84.11,324.17c-4.04,0-10.72-1-18.39-6.1c-0.59-0.39-0.95-1.06-0.97-1.77c-0.06-2.23,0.01-5.17,0.65-6.44
		c0.22-0.43,0.59-0.73,1.06-0.85c1.16-0.31,2.8,0.52,3.61,0.99c0.65-0.85,2.08-2.63,3.1-3.14c1.56-0.77,8.2,5.18,8.48,5.44
		c0.62,0.56,1.19,1.06,1.72,1.52c2.78,2.44,4.3,3.79,5.07,6.55c0.24,0.85,0.08,1.75-0.44,2.48c-0.52,0.74-1.34,1.2-2.24,1.27
		C85.27,324.14,84.72,324.17,84.11,324.17 M67.03,310.11c-0.1,0-0.19,0.01-0.28,0.03c-0.15,0.04-0.24,0.11-0.31,0.25
		c-0.4,0.8-0.6,3-0.52,5.88c0.01,0.33,0.18,0.64,0.45,0.83c8.54,5.68,15.76,6.1,19.31,5.85c0.55-0.04,1.05-0.32,1.37-0.78
		c0.31-0.44,0.41-0.98,0.27-1.49c-0.67-2.43-1.94-3.54-4.72-5.98c-0.52-0.46-1.1-0.97-1.73-1.53c-3.67-3.3-6.59-5.1-7.25-5.22
		c-0.79,0.46-2.2,2.17-2.92,3.17c-0.18,0.26-0.54,0.32-0.8,0.15C69.17,310.78,67.84,310.11,67.03,310.11z"/>
	<path d="M82.3,321.31c-3.82,0-9.96-0.93-16.02-5.76c-0.25-0.2-0.29-0.57-0.09-0.82c0.2-0.25,0.57-0.3,0.82-0.09
		c9.17,7.31,18.78,5.2,18.88,5.18c0.31-0.07,0.63,0.12,0.7,0.44c0.07,0.31-0.12,0.63-0.44,0.7
		C86.01,320.98,84.56,321.31,82.3,321.31"/>
	<path style="fill:#0E5BA9;" d="M48.21,314.06l-0.07-7.34c0,0-1.47-2.23-3.49-0.42c0,0-1.87-2.62-5.33,0.64
		c0,0-4.88,9.09-7.03,14.49c-0.58,1.45,0.45,3.03,2.01,3.07c2.24,0.05,5.13-0.07,6.39-0.92c1.97-1.33,5.34-5.53,6.81-7.42
		C47.97,315.56,48.22,314.82,48.21,314.06"/>
	<path d="M35.19,325.1c-0.29,0-0.59,0-0.9-0.01c-0.92-0.02-1.77-0.49-2.28-1.26c-0.51-0.77-0.61-1.75-0.27-2.61
		c2.15-5.37,7.01-14.46,7.06-14.55c0.03-0.06,0.07-0.11,0.11-0.15c1.39-1.31,2.73-1.91,3.99-1.78c0.83,0.08,1.43,0.46,1.79,0.78
		c0.6-0.41,1.21-0.57,1.84-0.49c1.28,0.16,2.05,1.32,2.09,1.37c0.06,0.1,0.1,0.21,0.1,0.32l0.07,7.34c0.01,0.89-0.29,1.77-0.83,2.47
		c-1.74,2.24-4.96,6.21-6.95,7.55C40,324.75,38.05,325.1,35.19,325.1 M39.79,307.3c-0.5,0.94-4.95,9.31-6.96,14.35
		c-0.21,0.51-0.15,1.07,0.16,1.53c0.3,0.45,0.78,0.72,1.33,0.74c3.01,0.07,5.16-0.22,6.05-0.82c1.92-1.3,5.31-5.53,6.68-7.3
		c0.38-0.49,0.59-1.11,0.59-1.74l-0.07-7.15c-0.18-0.22-0.61-0.66-1.17-0.73c-0.43-0.05-0.88,0.13-1.35,0.55
		c-0.12,0.11-0.29,0.16-0.46,0.15c-0.17-0.02-0.32-0.11-0.41-0.24c-0.02-0.02-0.5-0.66-1.4-0.74
		C41.9,305.82,40.87,306.31,39.79,307.3z"/>
	<path d="M44.65,310.84c-0.32,0-0.59-0.26-0.59-0.58l0-3.96c0-0.32,0.26-0.58,0.59-0.58c0.32,0,0.59,0.26,0.59,0.58l0,3.96
		C45.24,310.58,44.98,310.84,44.65,310.84C44.65,310.84,44.65,310.84,44.65,310.84"/>
	<path style="fill:#232C2D;" d="M75.12,302.39c0,0,1.79-26.97-1.14-51.22c-2.93-24.25-13.83-58.89-13.83-58.89
		s-11.73-0.53-20.27,0.62c-8.54,1.15-11.92-0.03-11.92-0.03s-6.37,7.3-5.85,21.02c0.52,13.72,15.39,71.59,14.83,85.17
		c0,0,5,2.51,11.48,1.26l-2.68-77.99c0,0,5.56,16.06,8.16,27.06c2.13,8.97,5.82,14.77,5.82,14.77S59.55,285,64.34,302.3
		C64.34,302.3,69.99,304.07,75.12,302.39"/>
	<path style="fill:#FFFFFF;" d="M65.74,273.68c-0.19,0-0.37-0.09-0.48-0.25l-4.1-5.96c-0.18-0.27-0.12-0.63,0.15-0.81
		c0.27-0.18,0.63-0.11,0.81,0.15l4.1,5.96c0.18,0.27,0.12,0.63-0.15,0.81C65.97,273.65,65.86,273.68,65.74,273.68"/>
	<path style="fill:#FFFFFF;" d="M38.2,259.19c-1.46,0-3.32-0.28-4.87-1.44c-0.26-0.19-0.31-0.56-0.12-0.82
		c0.19-0.26,0.56-0.31,0.82-0.12c2.56,1.9,6.33,0.98,6.37,0.97c0.31-0.08,0.63,0.11,0.71,0.42c0.08,0.31-0.11,0.63-0.42,0.71
		C40.6,258.94,39.57,259.19,38.2,259.19"/>
	<path style="fill:#FFFFFF;" d="M103.69,123.42l3.6-3.47c0,0,1.69,1.33-0.9,4.47c0.71,0.02,1.44,0.07,2.63,0.16
		c0.95,0.07,1.9-0.18,2.62-0.82c0.84-0.75,1.89-1.65,2.28-1.9c0.69-0.44,1.59-1.12,2.52-1.11c0.22,0,0.44,0.05,0.64,0.11
		c0.67,0.21,0.92,1.02,0.49,1.58l-2.55,3.33c-1.34,1.76-3.19,3.03-5.28,3.62l-3.33,0.95c-1.9,0.54-3.3,2.22-3.53,4.24l-3.44,27.49
		c-0.36,2.9-3.19,4.83-6.03,4.1l-28.3-6.55l1.1-17.15l19.3,9.63c2.42,1.12,5.27-0.09,6.16-2.59c1.91-5.37,5.1-14.14,7.43-19.52
		C100.18,127.52,101.74,125.29,103.69,123.42"/>
	<path d="M94.63,166.9c-0.45,0-0.91-0.06-1.35-0.17l-28.29-6.54c-0.28-0.06-0.47-0.32-0.45-0.61l1.1-17.15
		c0.01-0.2,0.12-0.37,0.29-0.47c0.17-0.1,0.38-0.1,0.55-0.02l19.3,9.63c1,0.46,2.13,0.48,3.16,0.05c1.03-0.43,1.81-1.26,2.18-2.31
		c1.76-4.95,5.06-14.06,7.45-19.55c1.11-2.54,2.69-4.82,4.71-6.76l3.6-3.46c0.21-0.2,0.54-0.22,0.77-0.04
		c0.07,0.05,0.64,0.53,0.75,1.52c0.09,0.87-0.21,1.83-0.89,2.87c0.43,0.02,0.93,0.06,1.55,0.1c0.85,0.06,1.63-0.18,2.19-0.68
		c1.84-1.63,2.23-1.88,2.36-1.96c0.09-0.06,0.19-0.12,0.29-0.19c0.7-0.46,1.56-1.03,2.55-1.01c0.26,0,0.53,0.05,0.81,0.14
		c0.49,0.15,0.88,0.54,1.04,1.03c0.16,0.5,0.07,1.05-0.25,1.46l-2.54,3.33c-1.43,1.87-3.36,3.2-5.59,3.83l-3.33,0.95
		c-1.68,0.48-2.9,1.95-3.11,3.74l-3.44,27.49c-0.19,1.55-1.05,2.94-2.34,3.83C96.78,166.58,95.71,166.9,94.63,166.9 M65.74,159.16
		l27.82,6.43c1.2,0.31,2.47,0.09,3.48-0.6c1.01-0.69,1.68-1.78,1.84-3l3.44-27.49c0.26-2.26,1.82-4.12,3.95-4.73l3.33-0.95
		c1.98-0.56,3.7-1.74,4.98-3.41l2.54-3.33c0.12-0.16,0.09-0.33,0.07-0.4c-0.02-0.08-0.09-0.21-0.27-0.27
		c-0.17-0.05-0.33-0.08-0.48-0.08c-0.62,0-1.29,0.43-1.89,0.82c-0.11,0.07-0.21,0.14-0.31,0.2c-0.16,0.1-0.66,0.48-2.2,1.84
		c-0.8,0.71-1.88,1.05-3.05,0.97c-1.19-0.08-1.92-0.13-2.61-0.15c-0.22-0.01-0.42-0.14-0.51-0.34c-0.09-0.2-0.06-0.44,0.08-0.61
		c1.36-1.64,1.4-2.65,1.25-3.18l-3.09,2.97c-1.91,1.84-3.41,3.98-4.45,6.39c-2.37,5.46-5.67,14.55-7.42,19.48
		c-0.48,1.35-1.51,2.44-2.83,3c-1.32,0.56-2.82,0.53-4.12-0.07l-18.53-9.25L65.74,159.16z"/>
	<path style="fill:#0E5BA9;" d="M23.35,152.15c1.18-6.44,3.6-10.8,11.87-14.31c4.53-1.92,10.05-2.33,18.39-1.53
		c6.11,0.59,21.7,6.02,27.9,11.83c0.4,0.37-7.86,15.54-7.86,15.54l-5.01-0.65l1.09,31.69c0.06,1.84-1.01,3.52-2.71,4.23
		c-3.97,1.65-13.12,3.1-33.09-1.85c0,0-8.9-3.56-11.97,10.24c0,0-6.37-0.78-6.3-7.7C15.72,194.51,20.74,166.38,23.35,152.15"/>
	<path style="fill:#CADDFF;" d="M31.83,165.75h-2.16c-0.32,0-0.59-0.26-0.59-0.59c0-0.32,0.26-0.58,0.59-0.58h1.76l3.2-8.61
		c0.11-0.3,0.45-0.46,0.75-0.35c0.3,0.11,0.46,0.45,0.34,0.75l-3.35,8.99C32.3,165.59,32.08,165.75,31.83,165.75"/>
	<path style="fill:#0E5BA9;" d="M27.42,164.81c0,0-14.76-0.06-14.76-0.22c-0.02-0.53,5.49-22.32,25.95-27.81L27.42,164.81"/>
	<path style="fill:#FFFFFF;" d="M28.64,164.73c0,0-9.34,23.26-10.1,24.87c0,0-3.84,8.38-2.94,12.24c0.57,2.44,0.36,7.16-2.86,10.32
		c-0.67,0.66-1.8,0.01-1.56-0.9c0-0.01,0.01-0.03,0.01-0.04c0.37-1.29,1.13-2.98,1.13-2.98s-1.99,0.35-3.8,2.34
		c-1.81,1.99-5.75,5.67-6.83,4.83c-1.85-1.44-2.11-8.77,5.18-14.68c1.8-1.46,2.44-2.5,2.87-4.5c0,0,2.18-13.75,4.03-22.44
		c0.49-2.29,1.01-4.68,1.54-9.27L28.64,164.73"/>
	<path d="M2.05,216.1c-0.27,0-0.52-0.07-0.72-0.23c-0.81-0.63-1.31-2.03-1.33-3.73c-0.02-1.53,0.4-6.92,6.5-11.87
		c1.67-1.35,2.26-2.29,2.66-4.16c0.02-0.11,2.2-13.83,4.03-22.44l0.05-0.25c0.48-2.25,0.97-4.57,1.48-8.97
		c0.03-0.3,0.29-0.53,0.59-0.52l13.34,0.22c0.19,0,0.37,0.1,0.48,0.26c0.11,0.16,0.13,0.37,0.06,0.54
		c-0.38,0.95-9.36,23.29-10.11,24.9c-0.03,0.08-3.74,8.23-2.9,11.86c0.52,2.23,0.55,7.37-3.02,10.87c-0.49,0.48-1.23,0.57-1.83,0.22
		c-0.6-0.35-0.89-1.03-0.71-1.7c0,0,0.01-0.04,0.01-0.04c0.17-0.61,0.42-1.28,0.64-1.84c-0.66,0.31-1.51,0.85-2.32,1.74
		C8.1,211.9,4.16,216.1,2.05,216.1 M15.82,165.11c-0.49,4.12-0.97,6.37-1.43,8.55l-0.05,0.25c-1.83,8.58-4,22.28-4.02,22.41
		c-0.47,2.2-1.18,3.32-3.08,4.86c-5.69,4.62-6.08,9.54-6.07,10.95c0.02,1.59,0.48,2.51,0.88,2.82c0.57,0.21,3.39-1.86,6.04-4.76
		c1.92-2.11,4.04-2.51,4.13-2.52c0.21-0.04,0.43,0.05,0.56,0.22c0.13,0.17,0.16,0.4,0.07,0.6c-0.01,0.02-0.75,1.66-1.1,2.9
		c-0.07,0.26,0.09,0.38,0.16,0.42c0.07,0.04,0.25,0.12,0.42-0.05c3.2-3.14,3.16-7.76,2.7-9.77c-0.93-4.01,2.82-12.27,2.98-12.62
		c0.66-1.41,8.13-19.97,9.77-24.05L15.82,165.11z"/>
	<path style="fill:#232C2D;" d="M44.53,104.15c-3.09,2.22-1.52,4.41-5.65,9.71c-3.03,3.9-5.44,4.73-5.55,7.41
		c-0.09,2.42,1.77,4.28,3,5.52c5.58,5.6,13.79,5.6,18.84,5.61c4.08,0,9.68,0.01,10.61-2.48c0.93-2.46-3.76-4.52-3.84-9.51
		c-0.07-4.01,2.92-4.93,2.51-8.51c-0.53-4.63-6.03-7.35-6.91-7.78C54,102.37,48.33,101.41,44.53,104.15"/>
	<path style="fill:#232C2D;" d="M47.93,103.96c0,0,2.48-7.44-3.92-8.45c-6.4-1.01-4.11,7.39-0.23,9.99
		C47.65,108.09,47.93,103.96,47.93,103.96"/>
	<path style="fill:#FFFFFF;" d="M43.98,135.92l4.97-12.9c0,0,0.27-0.73-0.01-1.01c-0.73-0.73-1.9-2.22-1.58-3.92
		c0.16-0.85,0.77-2.1,1.6-2.14c0.58-0.03,1.25,0.55,1.68,1.54c0.22,0.53,0.95,0.6,1.27,0.12c0,0,0.01-0.01,0.01-0.02
		c0.31-0.47,0.62-1.01,0.75-1.46c0.09-0.3,0.36-0.5,0.67-0.51c6.36-0.12,3.1-7.76,7.21-6.67c0.16,0.04,0.36,0.19,0.45,0.32
		c0.56,0.84,0.97,1.22,1.41,2.07c0.94,1.77,0.9,5.94,2.73,7.77c0.21,0.21,0.3,0.52,0.18,0.8c-0.29,0.7-0.94,0.79-1.47,1.08
		c-0.22,0.11-0.35,0.34-0.35,0.59c-0.03,1.01-0.36,3.35-0.49,5.14c-0.08,1.12-1.02,1.99-2.14,1.99c-0.89,0-1.83-0.1-2.81-0.33
		c-0.19-0.04-0.4-0.01-0.56,0.1c-0.75,0.49-1.52,6.08-1.89,9.13c-0.15,1.28-1.14,2.3-2.41,2.48c-0.41,0.06-2.19,0.39-3.78,0.44
		C44.38,140.68,43.28,137.75,43.98,135.92"/>
	<path d="M49.05,141.13c-3.06,0-4.5-1.11-5.18-2.07c-0.7-0.99-0.86-2.24-0.44-3.35l4.97-12.9c0.05-0.14,0.09-0.34,0.08-0.43
		c-0.81-0.83-2.06-2.46-1.69-4.39c0.2-1.02,0.93-2.56,2.15-2.62c0.87-0.04,1.73,0.69,2.24,1.9c0.03,0.06,0.08,0.08,0.12,0.08
		c0.04,0,0.09-0.01,0.13-0.06c0.45-0.68,0.62-1.09,0.68-1.31c0.16-0.54,0.66-0.92,1.22-0.93c3.03-0.06,3.53-1.98,4.02-3.84
		c0.3-1.12,0.58-2.18,1.43-2.68c0.51-0.3,1.14-0.34,1.92-0.13c0.29,0.08,0.62,0.31,0.78,0.56c0.21,0.31,0.39,0.56,0.57,0.79
		c0.3,0.39,0.58,0.77,0.87,1.33c0.4,0.75,0.63,1.84,0.87,2.99c0.36,1.7,0.76,3.63,1.76,4.64c0.39,0.39,0.51,0.95,0.31,1.44
		c-0.31,0.75-0.93,1.02-1.38,1.21c-0.12,0.05-0.24,0.1-0.35,0.16c-0.02,0.01-0.04,0.05-0.04,0.09c-0.01,0.55-0.11,1.43-0.22,2.44
		c-0.1,0.88-0.21,1.88-0.27,2.72c-0.1,1.42-1.3,2.53-2.72,2.53c0,0,0,0,0,0c-0.95,0-1.94-0.11-2.94-0.34
		c-0.02,0-0.06-0.01-0.09,0.01c-0.33,0.42-0.95,2.94-1.66,8.72c-0.19,1.54-1.38,2.77-2.91,2.99c-0.06,0.01-0.15,0.02-0.26,0.04
		c-0.66,0.11-2.19,0.36-3.59,0.4C49.3,141.13,49.17,141.13,49.05,141.13 M49,116.53c0,0-0.01,0-0.01,0
		c-0.37,0.02-0.9,0.84-1.05,1.66c-0.27,1.44,0.77,2.74,1.42,3.39c0.5,0.5,0.24,1.37,0.14,1.63l-4.97,12.91
		c-0.29,0.74-0.17,1.58,0.3,2.25c0.76,1.07,2.38,1.63,4.57,1.57c1.32-0.04,2.8-0.28,3.43-0.38c0.12-0.02,0.22-0.04,0.28-0.05
		c1.01-0.15,1.79-0.96,1.92-1.97c1.07-8.84,1.8-9.32,2.15-9.55c0.3-0.2,0.66-0.26,1.01-0.18c0.92,0.21,1.82,0.31,2.69,0.31
		c0,0,0,0,0,0c0.82,0,1.5-0.63,1.56-1.44c0.06-0.87,0.17-1.88,0.27-2.77c0.11-0.95,0.2-1.84,0.22-2.34
		c0.01-0.46,0.27-0.88,0.66-1.09c0.14-0.08,0.3-0.14,0.45-0.21c0.42-0.18,0.64-0.28,0.76-0.58c0.02-0.04-0.01-0.11-0.06-0.16
		c-1.25-1.25-1.69-3.36-2.08-5.23c-0.22-1.07-0.43-2.08-0.76-2.69c-0.25-0.48-0.49-0.8-0.77-1.17c-0.18-0.24-0.39-0.51-0.61-0.85
		c-0.02-0.02-0.08-0.07-0.12-0.08c-0.45-0.12-0.79-0.12-1.02,0.02c-0.44,0.26-0.66,1.09-0.89,1.96c-0.52,1.95-1.22,4.63-5.14,4.71
		c-0.05,0-0.1,0.04-0.12,0.09c-0.13,0.44-0.4,0.99-0.82,1.62c-0.28,0.42-0.74,0.64-1.22,0.59c-0.48-0.04-0.9-0.35-1.09-0.79
		C49.77,116.94,49.29,116.53,49,116.53z M43.98,135.92L43.98,135.92L43.98,135.92z"/>
	<path d="M58.07,128.97c-0.04,0-0.08,0-0.12-0.01c-3.29-0.68-5.29-3.1-5.38-3.2c-0.2-0.25-0.17-0.62,0.09-0.82
		c0.25-0.2,0.62-0.16,0.82,0.09c0.02,0.02,1.83,2.21,4.7,2.8c0.32,0.07,0.52,0.37,0.46,0.69C58.58,128.78,58.34,128.97,58.07,128.97
		"/>
	<path d="M24.54,277.44c-0.17,0-0.33-0.07-0.45-0.21c-7.35-8.67-12.06-18.92-14.01-30.46c-0.05-0.32,0.16-0.62,0.48-0.68
		c0.32-0.05,0.62,0.16,0.67,0.48c1.91,11.33,6.54,21.39,13.75,29.9c0.21,0.25,0.18,0.61-0.07,0.82
		C24.81,277.4,24.67,277.44,24.54,277.44"/>
	<path d="M21.52,284.01c-0.15,0-0.31-0.06-0.42-0.18c-8.05-8.48-17.69-22.56-17.89-41.49c0-0.32,0.26-0.59,0.58-0.59
		c0.31-0.01,0.59,0.26,0.59,0.58c0.19,18.55,9.66,32.37,17.57,40.7c0.22,0.23,0.21,0.6-0.02,0.83
		C21.81,283.96,21.66,284.01,21.52,284.01"/>
	<path d="M295.08,182.73c-0.06,0-0.12-0.01-0.17-0.02c-0.31-0.1-0.48-0.42-0.39-0.73c6.06-19.74,6.15-38.73,0.26-56.44
		c-0.1-0.31,0.06-0.64,0.37-0.74c0.3-0.1,0.64,0.06,0.74,0.37c5.97,17.95,5.89,37.18-0.25,57.16
		C295.56,182.57,295.32,182.73,295.08,182.73"/>
	<path d="M297.25,190.62c-0.08,0-0.16-0.02-0.24-0.05c-0.29-0.13-0.42-0.48-0.29-0.78c8.58-18.8,8.86-36.62,7.58-48.26
		c-1.39-12.63-4.86-20.91-4.89-20.99c-0.13-0.3,0.01-0.64,0.31-0.77c0.3-0.13,0.64,0.01,0.77,0.31c0.04,0.08,3.56,8.49,4.97,21.28
		c1.3,11.79,1.03,29.86-7.67,48.92C297.69,190.49,297.47,190.62,297.25,190.62"/>
	<path d="M135.26,164.26c-0.32,0-0.59-0.26-0.59-0.59v-3.03c0-0.32,0.26-0.58,0.59-0.58c0.32,0,0.58,0.26,0.58,0.58v3.03
		C135.84,164,135.58,164.26,135.26,164.26"/>
	<path d="M135.26,171.31c-0.32,0-0.59-0.26-0.59-0.58v-3.03c0-0.32,0.26-0.59,0.59-0.59c0.32,0,0.58,0.26,0.58,0.59v3.03
		C135.84,171.05,135.58,171.31,135.26,171.31"/>
	<path d="M133.25,166.27h-3.03c-0.32,0-0.59-0.26-0.59-0.59c0-0.32,0.26-0.58,0.59-0.58h3.03c0.32,0,0.58,0.26,0.58,0.58
		C133.83,166.01,133.57,166.27,133.25,166.27"/>
	<path d="M140.3,166.27h-3.03c-0.32,0-0.59-0.26-0.59-0.59c0-0.32,0.26-0.58,0.59-0.58h3.03c0.32,0,0.59,0.26,0.59,0.58
		C140.88,166.01,140.62,166.27,140.3,166.27"/>
	<path d="M25.34,98.06c-0.32,0-0.59-0.26-0.59-0.59v-3.03c0-0.32,0.26-0.59,0.59-0.59c0.32,0,0.59,0.26,0.59,0.59v3.03
		C25.92,97.8,25.66,98.06,25.34,98.06"/>
	<path d="M25.34,105.11c-0.32,0-0.59-0.26-0.59-0.59v-3.03c0-0.32,0.26-0.58,0.59-0.58c0.32,0,0.59,0.26,0.59,0.58v3.03
		C25.92,104.85,25.66,105.11,25.34,105.11"/>
	<path d="M23.32,100.07H20.3c-0.32,0-0.59-0.26-0.59-0.58c0-0.32,0.26-0.59,0.59-0.59h3.03c0.32,0,0.59,0.26,0.59,0.59
		C23.91,99.81,23.65,100.07,23.32,100.07"/>
	<path d="M30.37,100.07h-3.03c-0.32,0-0.59-0.26-0.59-0.58c0-0.32,0.26-0.59,0.59-0.59h3.03c0.32,0,0.59,0.26,0.59,0.59
		C30.96,99.81,30.7,100.07,30.37,100.07"/>
	<path d="M260.89,123.2c-0.32,0-0.59-0.26-0.59-0.59v-3.03c0-0.32,0.26-0.59,0.59-0.59c0.32,0,0.58,0.26,0.58,0.59v3.03
		C261.47,122.94,261.21,123.2,260.89,123.2"/>
	<path d="M260.89,130.25c-0.32,0-0.59-0.26-0.59-0.59v-3.03c0-0.32,0.26-0.59,0.59-0.59c0.32,0,0.58,0.26,0.58,0.59v3.03
		C261.47,129.99,261.21,130.25,260.89,130.25"/>
	<path d="M258.88,125.21h-3.03c-0.33,0-0.59-0.26-0.59-0.58c0-0.32,0.26-0.58,0.59-0.58h3.03c0.32,0,0.58,0.26,0.58,0.58
		C259.46,124.95,259.2,125.21,258.88,125.21"/>
	<path d="M265.93,125.21h-3.03c-0.32,0-0.58-0.26-0.58-0.58c0-0.32,0.26-0.59,0.58-0.59h3.03c0.32,0,0.59,0.26,0.59,0.59
		C266.51,124.95,266.25,125.21,265.93,125.21"/>
	<path style="fill:#FFFFFF;" d="M239.94,236.19c-0.57,0-1.14-0.11-1.69-0.32c-1.19-0.46-2.13-1.37-2.64-2.56
		c-1.05-2.42,0.04-5.26,2.42-6.33c1.14-0.51,2.42-0.55,3.59-0.09c1.19,0.46,2.13,1.37,2.64,2.56c1.05,2.42-0.04,5.26-2.42,6.33
		C241.24,236.05,240.59,236.19,239.94,236.19 M238.52,228.05c-1.8,0.81-2.61,2.96-1.82,4.8c0.39,0.9,1.09,1.58,1.99,1.93
		c0.88,0.34,1.83,0.32,2.69-0.07c1.8-0.81,2.62-2.96,1.82-4.8c-0.39-0.9-1.09-1.58-1.99-1.93
		C240.33,227.64,239.37,227.66,238.52,228.05z"/>
	<path d="M81.68,115.65c-0.24,0-0.46-0.15-0.55-0.39c-0.11-0.3,0.05-0.64,0.35-0.75l23.3-8.36c0.3-0.11,0.64,0.05,0.75,0.35
		c0.11,0.3-0.05,0.64-0.35,0.75l-23.3,8.36C81.81,115.64,81.74,115.65,81.68,115.65"/>
	<path d="M80.12,110.97c-0.2,0-0.39-0.1-0.5-0.28c-0.17-0.28-0.08-0.63,0.2-0.8l28.14-17.16c0.28-0.17,0.64-0.08,0.8,0.19
		c0.17,0.28,0.08,0.64-0.19,0.8l-28.14,17.17C80.32,110.94,80.22,110.97,80.12,110.97"/>
</g>
</svg>
