<?xml version="1.0" encoding="utf-8"?>
<!-- Generator: Adobe Illustrator 26.3.1, SVG Export Plug-In . SVG Version: 6.00 Build 0)  -->
<svg version="1.1" id="Layer_1" xmlns="http://www.w3.org/2000/svg" xmlns:xlink="http://www.w3.org/1999/xlink" x="0px" y="0px"
	 viewBox="0 0 545.4 446.6" style="enable-background:new 0 0 545.4 446.6;" xml:space="preserve">
<style type="text/css">
	.st0{fill:#2C3A41;}
	.st1{fill:#DEE6EC;}
	.st2{fill:#FFFFFF;}
	.st3{fill:#DE2C38;}
	.st4{fill:#F78F1E;}
	.st5{fill:#0F5BA7;}
	.st6{fill:none;stroke:#FFFFFF;stroke-width:2;stroke-miterlimit:10;}
	.st7{fill:none;stroke:#FFEEDE;stroke-width:2;stroke-miterlimit:10;}
	.st8{fill:#FFB27D;}
	.st9{fill:#163560;}
	.st10{fill:#E37970;}
	.st11{fill:#ED975D;}
	.st12{fill:#2B478B;}
	.st13{fill:#E7F1FD;}
	.st14{fill:#C45446;}
	.st15{fill:#233862;}
	.st16{fill:#ED7D2B;}
	.st17{fill:#F6B68E;}
	.st18{fill:#C4764B;}
	.st19{fill:#444C72;}
	.st20{fill:#222850;}
	.st21{fill:#ED5867;}
	.st22{fill:#F4F4F4;}
	.st23{fill:#D64F38;}
	.st24{fill:#F47322;}
	.st25{fill:#4BC2C0;}
	.st26{fill:#B93F7A;}
	.st27{fill:#422C6C;}
	.st28{fill:#26C4CF;}
</style>
<g>
	<circle class="st0" cx="272.3" cy="221" r="169.4"/>
	<path class="st1" d="M402.6,58.6c-0.4,0.9-0.7,1.8-1.1,2.4c-0.7,1-1.6,1.9-2.5,2.8c-4.5,4.6-4.7,4.7-10.4,1.6
		c-6.4-3.6-6.2-2.7-8.2,3.3c-0.7,2.1-1.7,5.2-3.1,5.6c-3.2,0.8-6.8,0.4-10.2,0.1c-0.8-0.1-1.6-1.5-2-2.5c-0.8-2-1.4-4.2-2-6.3
		c-0.7-2.3-2-3.1-4.2-1.8c-1.4,0.8-3,1.4-4.4,2.4c-2.8,1.9-5.3,1.6-7.5-1c-0.3-0.4-0.8-0.7-1.1-1.1c-4.6-4.5-4.7-4.7-1.6-10.4
		c3.5-6.3,2.9-6.1-3.3-8.2c-2.1-0.7-5.2-1.7-5.6-3.1c-0.8-3.2-0.4-6.8-0.1-10.2c0-0.7,1.3-1.5,2.2-1.9c2.1-0.8,4.3-1.5,6.5-2.2
		c2.3-0.7,3.1-2,1.8-4.2c-0.8-1.4-1.4-3.1-2.4-4.4c-2-3-1.5-5.5,1.2-7.7c0.3-0.3,0.6-0.6,0.9-0.9c4.6-4.6,4.7-4.7,10.4-1.6
		c6.4,3.5,6.1,2.9,8.2-3.3c0.7-2.1,1.7-5.2,3.1-5.6c3.2-0.8,6.8-0.4,10.2-0.1c0.8,0.1,1.6,1.5,2,2.5c0.8,2,1.4,4.2,2,6.3
		c0.7,2.3,2,3.1,4.2,1.8c1.5-0.9,3.2-1.5,4.7-2.5c2.6-1.7,4.9-1.5,6.9,0.8c0.4,0.5,0.9,0.9,1.4,1.3c4.6,4.5,4.7,4.7,1.6,10.4
		c-3.6,6.5-2.7,6.1,3.3,8.2c2.1,0.7,5.2,1.7,5.6,3.1c0.8,3.2,0.4,6.8,0.1,10.2c-0.1,0.8-1.5,1.6-2.5,2c-1.9,0.8-4,1.3-6,1.9
		c-2.9,1-3.3,1.9-2,4.6C400,53.6,401.3,56.1,402.6,58.6z"/>
	<path class="st1" d="M496.4,150.7c-0.6,1.4-1,2.5-1.6,3.4c-1.1,1.4-2.3,2.7-3.6,4c-6.4,6.6-6.7,6.8-14.8,2.2
		c-9.1-5.1-8.8-3.8-11.7,4.7c-1,2.9-2.4,7.4-4.5,8c-4.6,1.2-9.7,0.6-14.5,0.2c-1.1-0.1-2.3-2.2-2.9-3.5c-1.2-2.9-2-5.9-2.9-8.9
		c-1-3.3-2.8-4.4-6-2.6c-2.1,1.2-4.3,2-6.3,3.4c-4,2.7-7.5,2.3-10.6-1.4c-0.5-0.6-1.1-1-1.6-1.5c-6.6-6.4-6.7-6.7-2.2-14.9
		c4.9-9,4.1-8.7-4.7-11.7c-2.9-1-7.4-2.4-8-4.5c-1.2-4.6-0.5-9.7-0.2-14.5c0.1-1,1.9-2.2,3.2-2.7c3-1.2,6.2-2.1,9.3-3.1
		c3.2-1,4.4-2.8,2.6-6c-1.2-2.1-2-4.3-3.4-6.3c-2.9-4.3-2.1-7.8,1.7-11c0.5-0.4,0.8-0.9,1.2-1.3c6.5-6.6,6.7-6.7,14.9-2.3
		c9.1,5,8.7,4.1,11.7-4.7c1-2.9,2.4-7.4,4.5-7.9c4.6-1.2,9.7-0.6,14.5-0.2c1.1,0.1,2.3,2.2,2.9,3.6c1.2,2.9,2,5.9,2.9,8.9
		c1,3.2,2.8,4.4,6,2.6c2.2-1.2,4.6-2.1,6.7-3.5c3.7-2.5,6.9-2.1,9.9,1.2c0.6,0.7,1.3,1.2,1.9,1.8c6.6,6.4,6.7,6.7,2.3,14.9
		c-5.1,9.2-3.8,8.7,4.7,11.7c2.9,1,7.4,2.4,8,4.5c1.2,4.6,0.6,9.7,0.2,14.5c-0.1,1.1-2.1,2.3-3.5,2.9c-2.7,1.1-5.7,1.8-8.5,2.7
		c-4.2,1.4-4.7,2.6-2.8,6.5C492.7,143.6,494.6,147.1,496.4,150.7z"/>
	<path class="st2" d="M535.8,446.6H9.5c-5.3,0-9.5-4.3-9.5-9.5v-12.3c0-5.3,4.3-9.5,9.5-9.5h526.3c5.3,0,9.5,4.3,9.5,9.5V437
		C545.4,442.3,541.1,446.6,535.8,446.6z"/>
	<g>
		<path class="st3" d="M453.7,330.5C416.2,391.4,348.9,432,272.1,432c-76.5,0-143.6-40.3-181.2-100.9l173.5-106.4L453.7,330.5z"/>
		<path class="st4" d="M462.2,315.4c14.7-29,23-61.8,23-96.5c0-116.1-92.9-210.6-208.4-213.1v216.4L462.2,315.4z"/>
		<path class="st5" d="M265.1,5.9C150.6,9.6,59,103.5,59,218.9c0,37.5,9.7,72.8,26.7,103.4l179.4-107V5.9z"/>
		<circle class="st0" cx="272.7" cy="217.2" r="85.6"/>
		<g>
			<rect x="132.2" y="78.7" transform="matrix(0.866 0.5 -0.5 0.866 67.673 -61.6891)" class="st6" width="33.5" height="33.5"/>
			<rect x="103.5" y="128.3" transform="matrix(0.866 0.5 -0.5 0.866 88.6541 -40.708)" class="st6" width="33.5" height="33.5"/>
			<rect x="76" y="179.6" transform="matrix(0.866 0.5 -0.5 0.866 110.6001 -20.0766)" class="st6" width="33.5" height="33.5"/>
			<rect x="183.7" y="106" transform="matrix(0.866 0.5 -0.5 0.866 88.2537 -83.7593)" class="st6" width="33.5" height="33.5"/>
			<rect x="155" y="155.7" transform="matrix(0.866 0.5 -0.5 0.866 109.2348 -62.7782)" class="st6" width="33.5" height="33.5"/>
			<rect x="127.5" y="207" transform="matrix(0.866 0.5 -0.5 0.866 131.1808 -42.1467)" class="st6" width="33.5" height="33.5"/>
			<polygon class="st6" points="95.6,170.2 113,160.2 112.4,180.1 105.2,176 103.1,180.1 99.9,178.2 102.2,174.2 			"/>
			<polygon class="st6" points="123.1,120.4 140.6,110.5 139.9,130.4 132.7,126.3 130.6,130.4 127.4,128.5 129.7,124.5 			"/>
			<polygon class="st6" points="175.2,98.8 184.2,116.7 164.4,115.1 168.9,108 164.9,105.7 167,102.7 170.9,105.2 			"/>
			<polygon class="st6" points="180.7,139.2 181.2,159.3 197.9,148.5 190.7,144.4 193.1,140.5 189.8,138.8 187.6,142.8 			"/>
			<polygon class="st6" points="151.7,188.9 152.1,209 168.9,198.2 161.7,194.1 164.1,190.2 160.8,188.5 158.5,192.5 			"/>
		</g>
		<g>
			<polygon class="st6" points="382.7,149 369.9,237.7 436.8,237.7 445.4,149 			"/>
			<path class="st6" d="M436.8,237.7"/>
			<polyline class="st6" points="445.4,149 453.7,149 453.7,230.4 			"/>
			<polyline class="st6" points="453.7,149 460.7,149 470.2,241.5 453.7,229.9 436.8,237.7 			"/>
			<rect x="395.2" y="131.6" class="st6" width="40.1" height="17.4"/>
			<rect x="400.2" y="134.9" class="st6" width="31.1" height="14.1"/>
			<rect x="408.2" y="138.7" class="st6" width="23.1" height="10.4"/>
			<rect x="413.4" y="142" class="st6" width="18" height="7"/>
			<rect x="435.3" y="138.7" class="st6" width="13.9" height="10.4"/>
			<rect x="435.3" y="142" class="st6" width="9" height="7"/>
			<rect x="382.5" y="212.2" class="st6" width="47.2" height="12.5"/>
		</g>
		<g>
			<path class="st7" d="M278,378.9c-0.6,1.2-0.9,2.3-1.5,3.1c-0.9,1.3-2.1,2.5-3.2,3.6c-5.8,5.9-6,6-13.3,2
				c-8.2-4.5-7.9-3.4-10.5,4.2c-0.9,2.6-2.2,6.6-4,7.1c-4.1,1.1-8.7,0.5-13,0.1c-1-0.1-2.1-1.9-2.6-3.2c-1.1-2.6-1.8-5.3-2.6-8
				c-0.9-2.9-2.5-3.9-5.4-2.3c-1.9,1.1-3.9,1.8-5.6,3c-3.6,2.4-6.7,2-9.5-1.2c-0.4-0.5-1-0.9-1.4-1.4c-5.9-5.8-6-6-2-13.3
				c4.4-8,3.7-7.8-4.2-10.5c-2.6-0.9-6.6-2.2-7.1-4c-1.1-4.1-0.5-8.6-0.2-13c0.1-0.9,1.7-1.9,2.8-2.4c2.7-1.1,5.5-1.9,8.3-2.8
				c2.9-0.9,3.9-2.5,2.3-5.4c-1.1-1.8-1.8-3.9-3-5.6c-2.6-3.8-1.9-7,1.5-9.8c0.4-0.3,0.7-0.8,1.1-1.2c5.8-5.9,6-6,13.3-2
				c8.1,4.4,7.8,3.7,10.5-4.2c0.9-2.6,2.2-6.6,4-7.1c4.1-1.1,8.7-0.5,13-0.1c1,0.1,2.1,1.9,2.6,3.2c1.1,2.6,1.8,5.3,2.6,8
				c0.9,2.9,2.5,3.9,5.4,2.3c2-1.1,4.1-1.9,6-3.2c3.4-2.2,6.2-1.9,8.9,1.1c0.5,0.6,1.2,1.1,1.7,1.7c5.9,5.8,6,6,2,13.3
				c-4.6,8.3-3.4,7.8,4.2,10.5c2.6,0.9,6.6,2.2,7.1,4c1.1,4.1,0.5,8.7,0.1,13c-0.1,1-1.9,2.1-3.2,2.6c-2.5,1-5.1,1.6-7.6,2.5
				c-3.7,1.2-4.2,2.4-2.5,5.8C274.7,372.5,276.3,375.7,278,378.9z"/>
			<path class="st7" d="M238.9,371.9c-11.1-0.1-20-9.3-19.8-20.4c0.2-11.1,9.4-19.9,20.5-19.7c10.9,0.2,19.7,9.3,19.6,20.2
				C259.1,363,249.9,372,238.9,371.9z"/>
		</g>
		<g>
			<path class="st7" d="M343.6,384.7c-0.3,0.7-0.5,1.2-0.8,1.7c-0.5,0.7-1.1,1.4-1.7,2c-3.2,3.2-3.3,3.3-7.3,1.1
				c-4.5-2.5-4.3-1.9-5.8,2.3c-0.5,1.4-1.2,3.6-2.2,3.9c-2.2,0.6-4.8,0.3-7.1,0.1c-0.5,0-1.1-1.1-1.4-1.7c-0.6-1.4-1-2.9-1.4-4.4
				c-0.5-1.6-1.4-2.2-2.9-1.3c-1,0.6-2.1,1-3.1,1.7c-2,1.3-3.7,1.1-5.2-0.7c-0.2-0.3-0.5-0.5-0.8-0.8c-3.2-3.2-3.3-3.3-1.1-7.3
				c2.4-4.4,2-4.3-2.3-5.8c-1.4-0.5-3.6-1.2-3.9-2.2c-0.6-2.2-0.3-4.8-0.1-7.1c0-0.5,0.9-1.1,1.6-1.3c1.5-0.6,3-1,4.6-1.5
				c1.6-0.5,2.2-1.4,1.3-3c-0.6-1-1-2.1-1.7-3.1c-1.4-2.1-1-3.8,0.8-5.4c0.2-0.2,0.4-0.4,0.6-0.6c3.2-3.2,3.3-3.3,7.3-1.1
				c4.5,2.4,4.3,2,5.8-2.3c0.5-1.4,1.2-3.6,2.2-3.9c2.2-0.6,4.8-0.3,7.1-0.1c0.5,0,1.1,1.1,1.4,1.7c0.6,1.4,1,2.9,1.4,4.4
				c0.5,1.6,1.4,2.2,3,1.3c1.1-0.6,2.3-1.1,3.3-1.7c1.8-1.2,3.4-1,4.9,0.6c0.3,0.3,0.6,0.6,1,0.9c3.2,3.2,3.3,3.3,1.1,7.3
				c-2.5,4.5-1.9,4.3,2.3,5.8c1.4,0.5,3.6,1.2,3.9,2.2c0.6,2.2,0.3,4.8,0.1,7.1c0,0.5-1.1,1.1-1.7,1.4c-1.3,0.6-2.8,0.9-4.2,1.4
				c-2.1,0.7-2.3,1.3-1.4,3.2C341.8,381.1,342.7,382.9,343.6,384.7z"/>
			<path class="st7" d="M322.1,380.8c-6.1-0.1-11-5.1-10.9-11.2c0.1-6.1,5.2-11,11.3-10.8c6,0.1,10.8,5.1,10.8,11.1
				C333.2,375.9,328.2,380.9,322.1,380.8z"/>
		</g>
	</g>
	<g>
		<g>
			<path class="st2" d="M210.4,194.9c3.2-0.5,7.7-1,14.1-1c6.4,0,11.1,1.2,14.2,3.7c3,2.3,4.9,6.2,4.9,10.7c0,4.5-1.5,8.4-4.2,11
				c-3.6,3.4-8.9,4.9-15,4.9c-1.4,0-2.6-0.1-3.6-0.2v16.6h-10.4V194.9z M220.8,215.9c0.9,0.2,1.9,0.3,3.5,0.3c5.6,0,9-2.8,9-7.5
				c0-4.3-2.9-6.8-8.2-6.8c-2.1,0-3.5,0.2-4.3,0.3V215.9z"/>
			<path class="st2" d="M250.3,194.3h10.5v37.5h18.4v8.8h-28.9V194.3z"/>
			<path class="st2" d="M324.5,222.9c-0.2-5.6-0.4-12.3-0.4-19.1h-0.2c-1.5,5.9-3.4,12.5-5.2,18l-5.7,18h-8.1l-5-17.9
				c-1.5-5.4-3-12-4.2-18.1h-0.1c-0.2,6.3-0.5,13.4-0.8,19.2l-0.9,17.6h-9.7l3-46.2h13.9l4.5,15.5c1.5,5.3,2.9,11.1,3.9,16.5h0.2
				c1.3-5.4,2.8-11.5,4.4-16.6l4.9-15.4h13.7l2.5,46.2h-10.2L324.5,222.9z"/>
		</g>
	</g>
	<g>
		<path class="st8" d="M113.3,239.5c0,0,5.2-4.2,7-4.2c1.9,0,5.4-0.9,5.2-0.3c-0.1,0.6-3.1,1.4-2.6,1.7c0.5,0.3,4.8-0.9,6-0.2
			c1.2,0.7,4,3.6,1.8,4.8c-2.3,1.3-9.1,3.2-10.8,3c-1.8-0.2-5.7-0.5-5.7-0.5L113.3,239.5z"/>
		<polygon class="st8" points="47.4,396.3 51.7,414.5 58.2,414.5 58.5,396.3 		"/>
		<polygon class="st8" points="101.9,397 114.2,414.5 119,408.3 111.6,394.7 		"/>
		<path class="st9" d="M76.7,176.8C76.7,176.7,76.7,176.7,76.7,176.8c0,0,0-0.1,0-0.1c-0.1-0.9-0.2-1.8-0.3-2.7c0,0,0,0,0,0
			c-0.4-2.7-0.9-5.4-1.6-7.7c-0.4-1.3-0.8-2.6-1.2-3.7c-0.1-0.2-0.1-0.3-0.2-0.5l0,0c-1.1-2.6-2.3-4.4-3.5-5.1
			c-2.2-1.3-4.9-1.4-6.8-1.3c0.5-0.5,1.4-0.7,1.4-0.7c-1.2-0.2-3.8,1-3.8,1c-16.2-6.2-18.7,17.6-18.4,23.1
			c0.3,5.5-5.4,7.3-13.9,11.7c-16.1,8.3-17.5,19.5-17.5,19.5c0.1,0.1,0.3,0.2,0.4,0.3c0.8-1.3,2.4-3.9,3.8-4.3
			c-0.1,0.1-1.6,3.5-2.2,5.4c2,1.5,4.8,3.9,7.8,6.5c0,0,0,0,0,0c4,3.5,8.4,7.5,12,10.7c0-1.1,0-2.7,0.4-3.5l0.7,4.1l0.1,0.5
			c2.3,2.1,4,3.7,4.9,4.6c0.1,0.1,0.2,0.2,0.2,0.2c0.3,0.2,0.4,0.4,0.4,0.4c-0.1-1.4,1.9-4.8,5-8.9c0.2-0.3,0.4-0.6,0.7-0.9
			c1-1.3,2.1-2.7,3.3-4.1c0.4-0.5,0.9-1,1.3-1.5c0,0,0,0,0,0c0.4-0.4,0.7-0.8,1.1-1.2l0,0c0.9-1,1.8-2,2.7-3
			c2.4-2.6,4.9-5.1,7.3-7.4c3.5-3.4,6.9-6.2,9.7-8.1c0.1-0.2,0.2-0.3,0.3-0.5c0.5-0.8,0.9-1.8,1.3-2.7c0.1-0.3,0.2-0.6,0.3-0.9
			c1.1-3.1,1.6-6.3,1.7-7c-0.3,3.1-0.7,5.4-1.2,7.1c-0.1,0.4-0.2,0.7-0.3,1v0c-0.2,0.7-0.5,1.3-0.7,1.8c0.5-0.4,0.9-0.9,1.3-1.5
			c0.3-0.4,0.5-0.7,0.7-1.1C76.8,191.5,77.3,184,76.7,176.8z"/>
		<path class="st8" d="M70,200.3c0.1,0-5.2,2.8-9.1,1.7c-3.7-1-6.1-5.8-6.1-5.8c1.6-0.3,2-2.5,2-11.8l0.7,0.1l12,2.4
			c0,0-0.3,3.8-0.3,7.3C69.1,197.1,69.3,199.9,70,200.3z"/>
		<path class="st10" d="M56.5,160.8c0,0,5.9-6.3,13.3-0.3C69.8,160.4,65.5,159.7,56.5,160.8z"/>
		<path class="st11" d="M69.4,186.8c0,0-0.3,3.8-0.3,7.3c-6.7-0.2-10.2-6.3-11.7-9.7L69.4,186.8z"/>
		<path class="st9" d="M56.2,183.2c0,0-3.5-5.5-4.3-10.3c-0.6-3.4,1.1-15.9,13.7-14.1c0,0,3.7,0.4,7.1,2.7c2.7,1.8,6.7,5.8,2.3,16.8
			l-1.1,3.7L56.2,183.2z"/>
		<path class="st12" d="M117.1,403.6l-6.3,0.2l-6.9,0.2c0,0-15.8-17.6-24.7-45.9c-0.2-0.7-0.4-1.3-0.7-2c-4.9-14.2-15-32-20.3-48.1
			c-0.8-2.6-1.6-5-2.3-7.3c-0.2-0.7-0.4-1.5-0.6-2.2c-3.9-13.6-5.1-22.5-6.1-32.1l38.4,0.3C87.6,266.7,93.8,331.9,117.1,403.6z"/>
		<path class="st13" d="M82.2,244.7c-0.1,18.3,2.7,26.1,2.7,26.1s-16.4,8.3-36,2.2c-0.2-0.1-16.2-3.7-16.2-3.7
			c0.3-0.7,3.2-13,3.6-13.7c4.1-8.9,7.3-12.7,7.7-15.5c0.9-5.1,0.9-10.3,0.5-15.3c-1.2-13.1-4.7-24-4.7-24
			c5.3-1.2,10.3-3.3,15.8-5.4c1.3,1.6,5.2,3.2,8.5,3.2c3.9-0.1,5.2-1.8,5-3.6c4.1,2.3,7.5,4.5,7.5,4.5c3.5,6.1,10.7,12.1,11.2,21.5
			C87.9,223.2,82.2,244.1,82.2,244.7z"/>
		<path class="st8" d="M71.6,190.2c0,0-15.8,0.3-15.8-9.6c0-9.9-2.1-16.5,8-17.1c10.1-0.6,12.1,3.2,12.9,6.5
			C77.5,173.3,75.8,189.9,71.6,190.2z"/>
		<path class="st9" d="M71.1,163.3c0,0-4.3,11.6-11,13.3c-6.7,1.7-9.5-0.1-9.5-0.1s5.1-4.1,6.2-11.1
			C56.7,165.4,67.8,157.8,71.1,163.3z"/>
		<path class="st9" d="M70,164.2c0,0,3.2,2.6,4,5.1c0.8,2.5,1.1,7.7,2.7,7.5c0,0,3.3-7.9-0.4-12.3C72.4,159.8,70,164.2,70,164.2z"/>
		<path class="st8" d="M51.5,413.5c0,0,0.5,3.6-0.8,7.5c0,0-1.1,4.8,3.7,4.9c4.8,0.1,5.9-0.4,5.4-3.3c-0.5-3-1.6-8.1-1.6-8.1
			L51.5,413.5z"/>
		<path class="st14" d="M60.4,428.7H50c-0.4-2.1,0.5-6.7,0.7-7.6c0-0.1,0-0.1,0-0.1c0,0,0,0,0,0c5.4,4.9,8.8-0.1,8.8-0.1
			c0,0,0,0,0,0C60.3,422.8,60.4,428,60.4,428.7z"/>
		<path class="st8" d="M130.5,423c0,0-8.8-9.7-11.5-14.7l-6.5,3.3l14.6,13.7l3.4-0.4L130.5,423z"/>
		<path class="st14" d="M136.1,428.7c0,0-10.9,0-11,0c-1.6,0-2.9-2.7-4.7-6.2c-0.7-1.4-2.3-2.2-4-2.7l0,8.9h-2.5l-2.3-9.4
			c-1.6-2.9-0.1-5.4,1-7.7c1.3,0,4.7,0.9,11.2,8.2c2.1,2.4,4.5,3.3,6.8,3.2c0,0,0.1,0,0.1,0.1C136,425.5,136.1,428.7,136.1,428.7z"
			/>
		<path class="st15" d="M110.7,403.7l-6.9,0.2c0,0-15.8-17.6-24.7-45.9c-0.2-0.7-0.4-1.3-0.7-2c-4.9-14.2-15-32-20.3-48.1
			c-0.8-2.6-1.6-5-2.3-7.3c-0.2-0.7-0.4-1.5-0.6-2.2l5.7-4.3c0,0,17,27.5,22.2,53.3C87.7,370,106,397,110.7,403.7z"/>
		<path class="st12" d="M61.5,349.9c0.1,12.6-0.5,41.5-2.2,53.5h-6.1c-3.4,0-5,0-5,0c-4.1-20.8-7-38-9.2-52.9
			c-1.7-12.2-3.3-22.6-4.5-31.6c-1.2-9-2-16.6-2.3-23c0-1-0.1-2-0.1-2.9c0-1,0-1.9,0-2.8l33.2-3.2C64.9,308.9,61.5,342.6,61.5,349.9
			z"/>
		<path class="st15" d="M53.3,403.4c-3.4,0-5,0-5,0c-4.1-20.8-7-38-9.2-52.9c-1.7-12.2-3.3-22.6-4.5-31.6c-1.2-9-2-16.6-2.3-23
			l12.2,7.2c0,0-7.8,2.7-4.8,23.5C42.6,347.3,49.1,400.5,53.3,403.4z"/>
		<path class="st4" d="M54.8,295.7c0,0-2.3,8.4-10.4,7.4c-8.1-1.1-19.6-5.9-19.6-5.9s3.5-10.9,7.7-25.2c5.2-17.4,6.5-41.7,9.5-55.9
			c0.9-4,6.6-5.2,6.8-7.6l6.7-13c0,0,10,22.4,10.5,28.1C66.7,229.1,54.8,295.7,54.8,295.7z"/>
		<path class="st16" d="M49.2,240.1c-0.4,9.2-3.6,24.8-16.4,31.6c0,0-0.1,0.1-0.2,0.1c5.2-17.4,5.1-34,8.2-48.1
			C47.7,222.3,49.4,235.1,49.2,240.1z"/>
		<g>
			<path class="st14" d="M132.8,234.7h-12.4c0,0.1,0,0.3,0,0.6c0,1.1-0.1,3.3-0.1,3.5c0.2,2.6,2,4.1,3.8,4.8h0c0,0,0,0,0,0
				c0.4,0.2,0.8,0.3,1.2,0.4c0.3,0.1,0.6,0.1,0.8,0.1c0.2,0,0.3,0,0.5,0c0.9,0,1.8-0.2,2.5-0.5c2.2-1,3.7-3.2,3.7-5.7v-2.4
				C132.9,235.2,132.8,234.9,132.8,234.7z"/>
			<path class="st10" d="M131.8,234.7h-1.7c0,0.3,0.1,0.5,0.1,0.8v2.4c0,1.7-0.7,3.2-1.8,4.4c-0.5,0.6-1.2,1-1.9,1.3
				c-0.4,0.2-0.8,0.3-1.2,0.4c-0.2,0-0.4,0.1-0.5,0.1c0.3,0,0.6,0.1,0.8,0.1c0.2,0,0.4,0,0.5,0c0.7-0.1,1.4-0.2,2-0.5
				c1.2-0.5,2.1-1.4,2.8-2.5c0,0,0,0,0,0c0.3-0.4,0.5-0.9,0.6-1.4c0.2-0.6,0.3-1.2,0.3-1.8v-2.4
				C131.8,235.2,131.8,234.9,131.8,234.7z"/>
			
				<rect x="124" y="243.6" transform="matrix(-1 -1.224647e-16 1.224647e-16 -1 253.2046 487.9328)" class="st14" width="5.1" height="0.8"/>
		</g>
		<path class="st8" d="M35.1,260.5c0,0,5.8-1.2,7.3,0.4c1.5,1.6,2.3,4.3,0.8,5.2c-1.5,0.9-5.8-1.6-7.3-0.6c-1.1,0.7-1.5,2.6-2.6,1.9
			c-1.1-0.6-2.3-4.9-2.3-4.9L35.1,260.5z"/>
		<path class="st4" d="M55.6,195.4c0,0-15.6,0.7-19.3,4.2c-3.7,3.5-26.2,30.3-26.5,37.4C9.4,244,29.4,264,29.4,264s5.6-1.3,8-4.8
			c0,0-12.4-22.1-11.7-23.1c0.7-1,21.8-18.2,23.5-14.4C50.7,225,55.6,195.4,55.6,195.4z"/>
		<path class="st4" d="M114.9,237.2c0,0-17.8,5.9-20,5.4c-2.2-0.5-5.4-24.6-7.1-32.9c-2.2-10.6-10.6-12.8-10.6-12.8l-8-2.1
			c0,0,9.2,22.6,9.4,27.2c0.3,4.6,1.1,74.9,1.1,74.9s-0.5,3.2,5.7,1.9c6.2-1.3,7.8-2.7,7.8-2.7s-2.7-19.7-3.9-37.1
			c6.3-1.1,26.6-11.4,26.6-11.4C118.9,242.8,114.9,237.2,114.9,237.2z"/>
	</g>
	<g>
		<path class="st17" d="M420.3,430.9h35.9c1.5-4.8,0-11.6,0-11.6l0.6-6.4l0.7-7.1l-13.7-1.6l-1.1,4.5l-1.7,7.1
			c-1.8,1.7-13.8,4.2-16.8,7.2C421.2,426.1,420.3,430.9,420.3,430.9z"/>
		<path class="st18" d="M442.6,408.7c4.1,3,10.7,3.9,14.1,4.2l0.7-7.1l-13.7-1.6L442.6,408.7z"/>
		<path class="st19" d="M420.3,430.9h35.9c1.5-4.8,0-11.6,0-11.6s-11.1,2.1-15.2-3.5c-1.8,1.7-13.8,4.2-16.8,7.2
			C421.2,426.1,420.3,430.9,420.3,430.9z"/>
		<path class="st17" d="M473,430.9h35.9c1.5-4.8,0-11.6,0-11.6l-0.5-4.8l-0.6-5.1l-14.5-2.3l0.2,5.1l0.1,3.6
			c-1.8,1.7-13.8,4.2-16.8,7.2C473.8,426.1,473,430.9,473,430.9z"/>
		<path class="st18" d="M507.8,409.4l-14.5-2.3l0.2,5.1c5.7,1.9,11.6,2.3,14.9,2.3L507.8,409.4z"/>
		<path class="st19" d="M506.1,296.7l1.6,55.4l2.6,57.6c0,0-10.2,3.1-18.7-0.8l-7.5-55.8l-6.2-34.9l-8.4,34.6l-9.8,54.8
			c0,0-10.3,2-17.7-2.6l6.1-58.2l6.2-53.1L506.1,296.7z"/>
		<path class="st20" d="M469.4,176.9c0,0-3.7-2.2-3.3-6.3c0.4-4.1,5.2-4.5,6.8-6.5c1.7-2,4-6.1,10.2-6.1c6.2,0,10.4,4.1,10.1,7.6
			c0,0,5.4-1.1,7.6,2.9c2.2,4,0.2,7.9,1.1,9.8s0.9,6.6-1.7,9.4c-2.5,2.7-0.9,5-3.7,8.4s-6.9,2.7-6.9,2.7L469.4,176.9z"/>
		<path class="st17" d="M402.2,201.4c0.3,1.1,3.6,3.1,6.5,4.6c2.2,1.2,4.2,2.1,4.2,2.1l6.1-4.7l-1.4-2.3l-0.5-0.9
			c0,0-1.4-11.1-2.7-12c-1.3-1-2.4,0.3-2.6,1.6c-0.2,1.3-0.2,4.4-0.2,4.4s-2.4-3.6-2.4-3.7c0-0.1-2.2-6.7-3.5-6.8
			c-1.3-0.1-1.5,0.7-1.6,1.5c-0.1,0.8,0.8,4.7,0.8,4.7s-2.1,1.8-2.2,2.5C402.5,193.1,401.7,199.5,402.2,201.4z"/>
		<path class="st18" d="M408.6,206.1c2.2,1.2,4.2,2.1,4.2,2.1l6.1-4.7l-1.4-2.3C415.4,201.6,411.1,202.9,408.6,206.1z"/>
		<path class="st3" d="M463.6,207l-21.4,19.3l-21.9-23.8c0,0-6.1-0.2-8.8,6.5c0,0,20.2,26.6,29.3,32.5l17.7-5.6
			C458.4,236,463.9,222.5,463.6,207z"/>
		<path class="st17" d="M468.8,194.9c0.3,0.4,0.6,0.7,0.9,1c0,0,0,0,0,0c2.2,1.9,5.9,1.7,5.9,1.7l-0.3,3.3l-0.5,5.1
			c0,0,1.2,3.4,6.5,3.3c5.4-0.1,8.5-3.6,8.5-3.6l-0.5-15.9c0,0,2.1-0.7,2.5-2.3c0.4-1.7,1.3-4.9,0-5.3c-1.3-0.4-3.2,0.1-3.7,1.6
			l-0.5,2.3L486,186c0,0,0.4-3.8-0.8-5.3c-1.2-1.5-5.6-2.7-5.6-6.2c0,0-4.2,4.8-10.3,2.3C469.4,176.8,466.8,191.9,468.8,194.9z"/>
		<path class="st3" d="M453.1,276.1c0.4,2.6,0.9,5.1,1.3,7.2c0.7,3.5,1.3,5.9,1.3,5.9s19,5.8,42.1,2c1.9-0.3,3.8-0.7,5.8-1.1
			c0,0,1.1-1.9,2.4-4.2c1.7-2.9,3.6-6.5,3.7-7.6c0.1-1.3-2.9-31.6-5-51.6c-1-10.1-1.8-17.6-1.8-17.6s-3.7-3.9-10.7-6.1v0
			c-0.8-0.2-1.6-0.5-2.4-0.7c0,0-3.6,5.7-9.5,4.6c-5.9-1-5.2-3.2-5.2-3.2l0.2-1.8c0,0-0.9,0.3-2.3,0.8c-2.9,1-7.6,2.9-9.4,4.4
			C463.6,207,452,269.1,453.1,276.1z"/>
		<path class="st21" d="M498.1,260.2l3.2,19l-3.2,8.3l-0.3,3.8l-0.7,7.6c0,0,0,0,0,0c3.5-0.5,6.4-1.2,9-2.1c0,0,3.6-5.7-0.1-10.9
			c1.7-2.9,3.6-6.5,3.7-7.6c0.1-1.3-2.9-31.6-5-51.6l-3.4-1.8v15.4h-25.2v6L498.1,260.2z"/>
		<path class="st3" d="M454.2,293.6c0,0,5.3,4,20.7,5.4c9.5,0.9,16.6,0.7,22.3-0.2c0,0,0,0,0,0c3.5-0.5,6.4-1.2,9-2.1
			c0,0,3.6-5.7-0.1-10.9c0,0-2.5,0.9-7.9,1.6c-4.3,0.5-10.6,0.9-18.9,0.4c-18.7-1-24.8-4.6-24.8-4.6S451.5,287.9,454.2,293.6z"/>
		<path class="st21" d="M497.1,298.8C497.1,298.8,497.1,298.8,497.1,298.8c3.5-0.5,6.4-1.2,9-2.1c0,0,3.6-5.7-0.1-10.9
			c0,0-2.5,0.9-7.9,1.6l-0.3,3.8L497.1,298.8z"/>
		<path class="st17" d="M467.7,233.6c0.3,0.7,0.7,3.1,1.2,4.4c0.5,1.3,3.2,3.5,4.5,4.3c1.3,0.7,5.5,1.4,7.7,1.5c0.1,0,0.2,0,0.2,0
			c2.1,0,4.9,0,4.9,0l2.4-8.9c0,0-3.1-2.4-4.3-3.3c-1.1-0.9-3.9-3.1-5.4-3.4c-1.4-0.2-3,0-3.3,0l0.7,2l0,0c0,0.2,0.2,1.8-0.1,2
			c-0.3,0.3-3,0.3-4.2-0.1c-1.1-0.5-4.2-2.3-4.8-1.5C466.5,231.3,467.4,232.9,467.7,233.6z"/>
		<path class="st22" d="M446.1,222.1l12.8,30.7l24.6-2.4l-2.3-6.6c-2.2,0-6.4-0.8-7.7-1.5c-1.3-0.7-4-3-4.5-4.3
			c-0.5-1.3-0.9-3.7-1.2-4.4c-0.3-0.7-1.1-2.3-0.5-3c0.7-0.7,3.7,1.1,4.8,1.5c1.1,0.5,3.9,0.4,4.2,0.1c0.3-0.3,0.1-1.8,0.1-2l0,0
			l-0.7-2l-4.4-12.4L446.1,222.1z"/>
		<path class="st3" d="M502.9,209.1c0,0,15.7,26.9,15.9,42c0,0-0.8,3.6-7.1,4.1c-6.2,0.5-26.4-10.3-26.4-10.3s-1-8.2,2.8-11.2
			l15.5,4.5C503.6,238.2,498.2,217,502.9,209.1z"/>
		<path class="st23" d="M480.3,210.1c6.9,0.7,11.9-7.2,11.9-7.2v0c-0.8-0.2-1.6-0.5-2.4-0.7c0,0-3.6,5.7-9.5,4.6
			c-5.9-1-5.2-3.2-5.2-3.2l0.2-1.8c0,0-0.9,0.3-2.3,0.8C471.7,205.4,473.4,209.4,480.3,210.1z"/>
		<path class="st22" d="M484.2,206.6l4.7,6.9c0,0,4.6-4.7,5.2-9.9l-4.4-2.7L484.2,206.6z"/>
		<path class="st22" d="M476.9,205.9l-1.6-4.6l-4.4,2.1c0,0-0.4,2.9,0.8,6.7L476.9,205.9z"/>
		<path class="st19" d="M473,430.9h35.9c1.5-4.8,0-11.6,0-11.6s-11.1,2.1-15.2-3.5c-1.8,1.7-13.8,4.2-16.8,7.2
			C473.8,426.1,473,430.9,473,430.9z"/>
		<polygon class="st20" points="477.8,318.2 470.7,310.3 475,329.7 		"/>
		<polygon class="st21" points="503.6,238.2 507.5,243.8 498.1,236.6 		"/>
		<path class="st18" d="M475.6,197.6l-0.3,3.3c10.8-0.2,10.2-11.3,10.2-11.3c-6.5,9.1-15.3,6.4-15.8,6.3
			C472,197.9,475.6,197.6,475.6,197.6z"/>
	</g>
</g>
<g>
	<rect x="621.4" y="-327.1" class="st24" width="59.2" height="50"/>
	<rect x="694.9" y="-327.1" class="st3" width="59.2" height="50"/>
	<rect x="768.4" y="-327.1" class="st4" width="59.2" height="50"/>
	<rect x="840.9" y="-327.1" class="st25" width="59.2" height="50"/>
	<rect x="916.5" y="-327.1" class="st26" width="59.2" height="50"/>
	<rect x="621.4" y="-271.7" class="st27" width="59.2" height="50"/>
	<rect x="694.9" y="-269.3" class="st5" width="59.2" height="50"/>
	<rect x="768.4" y="-269.3" class="st28" width="59.2" height="50"/>
</g>
</svg>
