<?xml version="1.0" encoding="utf-8"?>
<!-- Generator: Adobe Illustrator 26.3.1, SVG Export Plug-In . SVG Version: 6.00 Build 0)  -->
<svg version="1.1" id="Layer_1" xmlns="http://www.w3.org/2000/svg" xmlns:xlink="http://www.w3.org/1999/xlink" x="0px" y="0px"
	 viewBox="0 0 309.81 344.13" style="enable-background:new 0 0 309.81 344.13;" xml:space="preserve">
<g>
	<path style="fill:#26C4CD;" d="M174.48,59.83c-1.16,3.21-2.05,6.47-2.64,9.76l-15.43,3.47l-0.02,14.51l15.44,3.5
		c0.6,3.32,1.46,6.58,2.6,9.75l-11.65,10.74l7.23,12.57l15.1-4.69c2.15,2.55,4.54,4.94,7.14,7.14l-4.72,15.12l12.54,7.27
		l10.75-11.63c3.21,1.16,6.46,2.05,9.75,2.64l3.46,15.44l14.49,0.01l3.5-15.46c3.31-0.6,6.57-1.47,9.74-2.6l10.73,11.66l12.56-7.24
		l-4.68-15.12c2.55-2.15,4.94-4.55,7.14-7.15l15.11,4.72l7.26-12.56l-11.62-10.76c1.16-3.21,2.05-6.47,2.64-9.76l15.43-3.47
		l0.02-14.51l-15.44-3.5c-0.6-3.32-1.47-6.58-2.6-9.75l11.65-10.74l-7.24-12.57l-15.1,4.69c-2.15-2.55-4.54-4.94-7.14-7.14
		l4.72-15.13l-12.55-7.27l-10.75,11.63c-3.21-1.16-6.46-2.05-9.75-2.64l-3.46-15.44l-14.5-0.01l-3.5,15.46
		c-3.32,0.59-6.57,1.47-9.75,2.6l-10.73-11.66l-12.56,7.24l4.68,15.12c-2.55,2.15-4.94,4.55-7.13,7.15l-15.11-4.73l-7.26,12.56
		L174.48,59.83 M199.09,61.68c10.32-17.85,33.15-23.95,50.98-13.62C267.91,58.4,274,81.25,263.68,99.1
		c-10.32,17.85-33.15,23.95-50.98,13.62C194.86,102.38,188.77,79.53,199.09,61.68z"/>
	<path style="fill:#263238;" d="M264.51,87.6L19.49,78.13c-5.83,0-10.57,4.74-10.57,10.58v171.23c0,5.83,4.74,10.58,10.57,10.58
		l88.53-6l-11.37,41.53l-12.03,0.09c-3.75,0-6.8,3.06-6.8,6.81s3.05,6.81,6.8,6.81l100.72-4.81c3.75,0-3.27-44.43-3.27-44.43
		S270.33,87.6,264.51,87.6"/>
	<polyline style="fill:#FFFFFF;" points="180.5,248.63 118.02,248.63 100.29,313.39 198.22,313.39 180.5,248.63 	"/>
	<path style="fill:#263238;" d="M198.22,314.02h-97.93c-0.19,0-0.38-0.09-0.5-0.25c-0.12-0.15-0.16-0.36-0.11-0.54l17.73-64.77
		c0.08-0.27,0.32-0.46,0.6-0.46h62.48c0.28,0,0.53,0.19,0.6,0.46l17.72,64.77c0.05,0.19,0.01,0.39-0.11,0.54
		C198.6,313.93,198.41,314.02,198.22,314.02 M101.11,312.77h96.29l-17.38-63.52h-61.53L101.11,312.77z"/>
	<path style="fill:#FFFFFF;" d="M274,78.73H24.52c-5.51,0-9.97,4.47-9.97,9.98v171.23c0,5.51,4.46,9.98,9.97,9.98H274
		c5.51,0,9.97-4.47,9.97-9.98V88.71C283.97,83.2,279.5,78.73,274,78.73"/>
	<path style="fill:#263238;" d="M273.99,270.54H24.52c-5.84,0-10.59-4.76-10.59-10.61V88.71c0-5.85,4.75-10.61,10.59-10.61h249.48
		c5.84,0,10.6,4.76,10.6,10.61v171.23C284.59,265.79,279.83,270.54,273.99,270.54 M24.52,79.36c-5.15,0-9.35,4.2-9.35,9.36v171.23
		c0,5.16,4.19,9.36,9.35,9.36h249.48c5.15,0,9.35-4.2,9.35-9.36V88.71c0-5.16-4.19-9.36-9.35-9.36H24.52z"/>
	<path style="fill:#FFFFFF;" d="M208.85,306.74H89.66c-3.43,0-6.2,2.78-6.2,6.21c0,3.43,2.78,6.21,6.2,6.21h119.2
		c3.43,0,6.2-2.78,6.2-6.21C215.06,309.52,212.28,306.74,208.85,306.74"/>
	<path style="fill:#263238;" d="M208.85,319.78H89.66c-3.76,0-6.83-3.07-6.83-6.84c0-3.77,3.06-6.84,6.83-6.84h119.2
		c3.76,0,6.83,3.07,6.83,6.84C215.68,316.72,212.62,319.78,208.85,319.78 M89.66,307.36c-3.08,0-5.58,2.51-5.58,5.59
		c0,3.08,2.5,5.59,5.58,5.59h119.2c3.08,0,5.58-2.51,5.58-5.59c0-3.08-2.5-5.59-5.58-5.59H89.66z"/>
	<path style="fill:#26C4CD;" d="M264.11,93.25H36.18c-2.37,0-4.28,1.92-4.28,4.29v3.15c0,2.37,1.92,4.29,4.28,4.29h227.93
		c2.37,0,4.28-1.92,4.28-4.29v-3.15C268.39,95.17,266.47,93.25,264.11,93.25"/>
	<path style="fill:#FFFFFF;" d="M263,99.12c0,1.56-1.26,2.82-2.82,2.82c-1.56,0-2.82-1.26-2.82-2.82c0-1.56,1.26-2.82,2.82-2.82
		C261.74,96.29,263,97.56,263,99.12"/>
	<polyline style="fill:#FFFFFF;" points="146.44,252.87 31.99,252.87 31.99,110.49 146.44,110.49 146.44,252.87 	"/>
	<path style="fill:#26C4CD;" d="M146.44,253.49h-4.99c-0.35,0-0.63-0.28-0.63-0.62c0-0.34,0.28-0.63,0.63-0.63h4.37v-3.36
		c0-0.34,0.28-0.62,0.62-0.62c0.34,0,0.63,0.28,0.63,0.62v3.99C147.07,253.21,146.79,253.49,146.44,253.49 M136.46,253.49h-4.99
		c-0.34,0-0.62-0.28-0.62-0.62c0-0.34,0.28-0.63,0.62-0.63h4.99c0.35,0,0.62,0.28,0.62,0.63
		C137.08,253.21,136.8,253.49,136.46,253.49z M126.47,253.49h-4.99c-0.35,0-0.62-0.28-0.62-0.62c0-0.34,0.28-0.63,0.62-0.63h4.99
		c0.35,0,0.63,0.28,0.63,0.63C127.09,253.21,126.81,253.49,126.47,253.49z M116.48,253.49h-4.99c-0.34,0-0.63-0.28-0.63-0.62
		c0-0.34,0.28-0.63,0.63-0.63h4.99c0.35,0,0.62,0.28,0.62,0.63C117.1,253.21,116.83,253.49,116.48,253.49z M106.49,253.49h-4.99
		c-0.34,0-0.62-0.28-0.62-0.62c0-0.34,0.28-0.63,0.62-0.63h4.99c0.35,0,0.63,0.28,0.63,0.63
		C107.12,253.21,106.84,253.49,106.49,253.49z M96.5,253.49h-4.99c-0.35,0-0.62-0.28-0.62-0.62c0-0.34,0.28-0.63,0.62-0.63h4.99
		c0.35,0,0.62,0.28,0.62,0.63C97.13,253.21,96.85,253.49,96.5,253.49z M86.52,253.49h-4.99c-0.35,0-0.62-0.28-0.62-0.62
		c0-0.34,0.28-0.63,0.62-0.63h4.99c0.35,0,0.62,0.28,0.62,0.63C87.14,253.21,86.86,253.49,86.52,253.49z M76.53,253.49h-4.99
		c-0.34,0-0.62-0.28-0.62-0.62c0-0.34,0.28-0.63,0.62-0.63h4.99c0.35,0,0.62,0.28,0.62,0.63C77.15,253.21,76.87,253.49,76.53,253.49
		z M66.54,253.49h-4.99c-0.35,0-0.62-0.28-0.62-0.62c0-0.34,0.28-0.63,0.62-0.63h4.99c0.35,0,0.62,0.28,0.62,0.63
		C67.17,253.21,66.89,253.49,66.54,253.49z M56.55,253.49h-4.99c-0.35,0-0.62-0.28-0.62-0.62c0-0.34,0.28-0.63,0.62-0.63h4.99
		c0.34,0,0.62,0.28,0.62,0.63C57.18,253.21,56.9,253.49,56.55,253.49z M46.57,253.49h-4.99c-0.35,0-0.62-0.28-0.62-0.62
		c0-0.34,0.28-0.63,0.62-0.63h4.99c0.34,0,0.62,0.28,0.62,0.63C47.19,253.21,46.91,253.49,46.57,253.49z M36.58,253.49h-4.58
		c-0.35,0-0.62-0.28-0.62-0.62v-0.41c0-0.34,0.28-0.62,0.62-0.62c0.27,0,0.5,0.17,0.59,0.41h4c0.35,0,0.62,0.28,0.62,0.63
		C37.2,253.21,36.92,253.49,36.58,253.49z M31.99,248.08c-0.35,0-0.62-0.28-0.62-0.62v-5c0-0.34,0.28-0.63,0.62-0.63
		c0.35,0,0.62,0.28,0.62,0.63v5C32.62,247.8,32.34,248.08,31.99,248.08z M146.44,244.5c-0.35,0-0.62-0.28-0.62-0.62v-5
		c0-0.34,0.28-0.63,0.62-0.63c0.34,0,0.63,0.28,0.63,0.63v5C147.07,244.22,146.79,244.5,146.44,244.5z M31.99,238.08
		c-0.35,0-0.62-0.28-0.62-0.62v-5c0-0.34,0.28-0.62,0.62-0.62c0.35,0,0.62,0.28,0.62,0.62v5C32.62,237.8,32.34,238.08,31.99,238.08z
		 M146.44,234.5c-0.35,0-0.62-0.28-0.62-0.62v-5c0-0.34,0.28-0.62,0.62-0.62c0.34,0,0.63,0.28,0.63,0.62v5
		C147.07,234.23,146.79,234.5,146.44,234.5z M31.99,228.09c-0.35,0-0.62-0.28-0.62-0.63v-5c0-0.34,0.28-0.63,0.62-0.63
		c0.35,0,0.62,0.28,0.62,0.63v5C32.62,227.8,32.34,228.09,31.99,228.09z M146.44,224.51c-0.35,0-0.62-0.28-0.62-0.63v-5
		c0-0.35,0.28-0.63,0.62-0.63c0.34,0,0.63,0.28,0.63,0.63v5C147.07,224.23,146.79,224.51,146.44,224.51z M31.99,218.09
		c-0.35,0-0.62-0.28-0.62-0.62v-5c0-0.34,0.28-0.62,0.62-0.62c0.35,0,0.62,0.28,0.62,0.62v5C32.62,217.81,32.34,218.09,31.99,218.09
		z M146.44,214.51c-0.35,0-0.62-0.28-0.62-0.62v-5c0-0.34,0.28-0.62,0.62-0.62c0.34,0,0.63,0.28,0.63,0.62v5
		C147.07,214.23,146.79,214.51,146.44,214.51z M31.99,208.09c-0.35,0-0.62-0.28-0.62-0.63v-5c0-0.35,0.28-0.62,0.62-0.62
		c0.35,0,0.62,0.28,0.62,0.62v5C32.62,207.81,32.34,208.09,31.99,208.09z M146.44,204.51c-0.35,0-0.62-0.28-0.62-0.63v-5
		c0-0.35,0.28-0.63,0.62-0.63c0.34,0,0.63,0.28,0.63,0.63v5C147.07,204.23,146.79,204.51,146.44,204.51z M31.99,198.09
		c-0.35,0-0.62-0.28-0.62-0.62v-5c0-0.34,0.28-0.63,0.62-0.63c0.35,0,0.62,0.28,0.62,0.63v5C32.62,197.81,32.34,198.09,31.99,198.09
		z M146.44,194.51c-0.35,0-0.62-0.28-0.62-0.62v-5c0-0.34,0.28-0.63,0.62-0.63c0.34,0,0.63,0.28,0.63,0.63v5
		C147.07,194.23,146.79,194.51,146.44,194.51z M31.99,188.09c-0.35,0-0.62-0.28-0.62-0.63v-5c0-0.34,0.28-0.62,0.62-0.62
		c0.35,0,0.62,0.28,0.62,0.62v5C32.62,187.81,32.34,188.09,31.99,188.09z M146.44,184.51c-0.35,0-0.62-0.28-0.62-0.63v-5
		c0-0.34,0.28-0.62,0.62-0.62c0.34,0,0.63,0.28,0.63,0.62v5C147.07,184.23,146.79,184.51,146.44,184.51z M31.99,178.09
		c-0.35,0-0.62-0.28-0.62-0.62v-5c0-0.34,0.28-0.63,0.62-0.63c0.35,0,0.62,0.28,0.62,0.63v5C32.62,177.81,32.34,178.09,31.99,178.09
		z M146.44,174.52c-0.35,0-0.62-0.28-0.62-0.62v-5c0-0.34,0.28-0.63,0.62-0.63c0.34,0,0.63,0.28,0.63,0.63v5
		C147.07,174.24,146.79,174.52,146.44,174.52z M31.99,168.1c-0.35,0-0.62-0.28-0.62-0.62v-5c0-0.34,0.28-0.62,0.62-0.62
		c0.35,0,0.62,0.28,0.62,0.62v5C32.62,167.82,32.34,168.1,31.99,168.1z M146.44,164.52c-0.35,0-0.62-0.28-0.62-0.62v-5
		c0-0.34,0.28-0.62,0.62-0.62c0.34,0,0.63,0.28,0.63,0.62v5C147.07,164.24,146.79,164.52,146.44,164.52z M31.99,158.1
		c-0.35,0-0.62-0.28-0.62-0.63v-5c0-0.34,0.28-0.63,0.62-0.63c0.35,0,0.62,0.28,0.62,0.63v5C32.62,157.82,32.34,158.1,31.99,158.1z
		 M146.44,154.52c-0.35,0-0.62-0.28-0.62-0.63v-5c0-0.35,0.28-0.63,0.62-0.63c0.34,0,0.63,0.28,0.63,0.63v5
		C147.07,154.24,146.79,154.52,146.44,154.52z M31.99,148.1c-0.35,0-0.62-0.28-0.62-0.62v-5c0-0.34,0.28-0.62,0.62-0.62
		c0.35,0,0.62,0.28,0.62,0.62v5C32.62,147.82,32.34,148.1,31.99,148.1z M146.44,144.52c-0.35,0-0.62-0.28-0.62-0.62v-5
		c0-0.34,0.28-0.62,0.62-0.62c0.34,0,0.63,0.28,0.63,0.62v5C147.07,144.24,146.79,144.52,146.44,144.52z M31.99,138.1
		c-0.35,0-0.62-0.28-0.62-0.63v-5c0-0.34,0.28-0.62,0.62-0.62c0.35,0,0.62,0.28,0.62,0.62v5C32.62,137.82,32.34,138.1,31.99,138.1z
		 M146.44,134.52c-0.35,0-0.62-0.28-0.62-0.63v-5c0-0.35,0.28-0.63,0.62-0.63c0.34,0,0.63,0.28,0.63,0.63v5
		C147.07,134.24,146.79,134.52,146.44,134.52z M31.99,128.1c-0.35,0-0.62-0.28-0.62-0.62v-5c0-0.34,0.28-0.63,0.62-0.63
		c0.35,0,0.62,0.28,0.62,0.63v5C32.62,127.82,32.34,128.1,31.99,128.1z M146.44,124.52c-0.35,0-0.62-0.28-0.62-0.62v-5
		c0-0.34,0.28-0.62,0.62-0.62c0.34,0,0.63,0.28,0.63,0.62v5C147.07,124.25,146.79,124.52,146.44,124.52z M31.99,118.11
		c-0.35,0-0.62-0.28-0.62-0.63v-5c0-0.34,0.28-0.62,0.62-0.62c0.35,0,0.62,0.28,0.62,0.62v5C32.62,117.82,32.34,118.11,31.99,118.11
		z M146.44,114.53c-0.35,0-0.62-0.28-0.62-0.63v-2.79h-0.96c-0.35,0-0.63-0.28-0.63-0.62c0-0.34,0.28-0.63,0.63-0.63h1.58
		c0.34,0,0.63,0.28,0.63,0.63v3.41C147.07,114.25,146.79,114.53,146.44,114.53z M139.87,111.11h-4.99c-0.34,0-0.62-0.28-0.62-0.62
		c0-0.34,0.28-0.63,0.62-0.63h4.99c0.35,0,0.63,0.28,0.63,0.63C140.49,110.83,140.21,111.11,139.87,111.11z M129.88,111.11h-4.99
		c-0.35,0-0.63-0.28-0.63-0.62c0-0.34,0.28-0.63,0.63-0.63h4.99c0.34,0,0.62,0.28,0.62,0.63
		C130.5,110.83,130.22,111.11,129.88,111.11z M119.89,111.11h-4.99c-0.34,0-0.62-0.28-0.62-0.62c0-0.34,0.28-0.63,0.62-0.63h4.99
		c0.34,0,0.62,0.28,0.62,0.63C120.52,110.83,120.24,111.11,119.89,111.11z M109.9,111.11h-4.99c-0.35,0-0.63-0.28-0.63-0.62
		c0-0.34,0.28-0.63,0.63-0.63h4.99c0.34,0,0.62,0.28,0.62,0.63C110.53,110.83,110.25,111.11,109.9,111.11z M99.92,111.11h-4.99
		c-0.35,0-0.62-0.28-0.62-0.62c0-0.34,0.28-0.63,0.62-0.63h4.99c0.34,0,0.62,0.28,0.62,0.63
		C100.54,110.83,100.26,111.11,99.92,111.11z M89.93,111.11h-4.99c-0.34,0-0.62-0.28-0.62-0.62c0-0.34,0.28-0.63,0.62-0.63h4.99
		c0.35,0,0.62,0.28,0.62,0.63C90.55,110.83,90.27,111.11,89.93,111.11z M79.94,111.11h-4.99c-0.35,0-0.62-0.28-0.62-0.62
		c0-0.34,0.28-0.63,0.62-0.63h4.99c0.35,0,0.62,0.28,0.62,0.63C80.56,110.83,80.29,111.11,79.94,111.11z M69.95,111.11h-4.99
		c-0.35,0-0.62-0.28-0.62-0.62c0-0.34,0.28-0.63,0.62-0.63h4.99c0.35,0,0.62,0.28,0.62,0.63C70.58,110.83,70.3,111.11,69.95,111.11z
		 M59.97,111.11h-4.99c-0.34,0-0.62-0.28-0.62-0.62c0-0.34,0.28-0.63,0.62-0.63h4.99c0.35,0,0.62,0.28,0.62,0.63
		C60.59,110.83,60.31,111.11,59.97,111.11z M49.98,111.11h-4.99c-0.35,0-0.62-0.28-0.62-0.62c0-0.34,0.28-0.63,0.62-0.63h4.99
		c0.35,0,0.62,0.28,0.62,0.63C50.6,110.83,50.32,111.11,49.98,111.11z M39.99,111.11H35c-0.34,0-0.62-0.28-0.62-0.62
		c0-0.34,0.28-0.63,0.62-0.63h4.99c0.34,0,0.62,0.28,0.62,0.63C40.61,110.83,40.33,111.11,39.99,111.11z"/>
	<polyline style="fill:#FFFFFF;" points="268.29,158.25 153.84,158.25 153.84,110.49 268.29,110.49 268.29,158.25 	"/>
	<path style="fill:#26C4CD;" d="M268.29,158.87h-4.99c-0.34,0-0.62-0.28-0.62-0.62c0-0.35,0.28-0.62,0.62-0.62h4.37v-4.09
		c0-0.35,0.28-0.62,0.62-0.62c0.35,0,0.63,0.28,0.63,0.62v4.72C268.91,158.59,268.63,158.87,268.29,158.87 M258.3,158.87h-4.99
		c-0.34,0-0.62-0.28-0.62-0.62c0-0.35,0.28-0.62,0.62-0.62h4.99c0.34,0,0.62,0.28,0.62,0.62
		C258.93,158.59,258.65,158.87,258.3,158.87z M248.31,158.87h-4.99c-0.35,0-0.62-0.28-0.62-0.62c0-0.35,0.28-0.62,0.62-0.62h4.99
		c0.34,0,0.62,0.28,0.62,0.62C248.94,158.59,248.66,158.87,248.31,158.87z M238.33,158.87h-4.99c-0.34,0-0.62-0.28-0.62-0.62
		c0-0.35,0.28-0.62,0.62-0.62h4.99c0.35,0,0.62,0.28,0.62,0.62C238.95,158.59,238.67,158.87,238.33,158.87z M228.34,158.87h-4.99
		c-0.34,0-0.62-0.28-0.62-0.62c0-0.35,0.28-0.62,0.62-0.62h4.99c0.35,0,0.63,0.28,0.63,0.62
		C228.97,158.59,228.69,158.87,228.34,158.87z M218.35,158.87h-4.99c-0.35,0-0.63-0.28-0.63-0.62c0-0.35,0.28-0.62,0.63-0.62h4.99
		c0.34,0,0.62,0.28,0.62,0.62C218.98,158.59,218.69,158.87,218.35,158.87z M208.36,158.87h-4.99c-0.34,0-0.62-0.28-0.62-0.62
		c0-0.35,0.28-0.62,0.62-0.62h4.99c0.35,0,0.62,0.28,0.62,0.62C208.99,158.59,208.71,158.87,208.36,158.87z M198.38,158.87h-4.99
		c-0.34,0-0.63-0.28-0.63-0.62c0-0.35,0.28-0.62,0.63-0.62h4.99c0.35,0,0.63,0.28,0.63,0.62C199,158.59,198.72,158.87,198.38,158.87
		z M188.39,158.87h-4.99c-0.35,0-0.62-0.28-0.62-0.62c0-0.35,0.28-0.62,0.62-0.62h4.99c0.34,0,0.62,0.28,0.62,0.62
		C189.01,158.59,188.73,158.87,188.39,158.87z M178.4,158.87h-5c-0.34,0-0.62-0.28-0.62-0.62c0-0.35,0.28-0.62,0.62-0.62h5
		c0.34,0,0.62,0.28,0.62,0.62C179.03,158.59,178.75,158.87,178.4,158.87z M168.41,158.87h-4.99c-0.34,0-0.63-0.28-0.63-0.62
		c0-0.35,0.28-0.62,0.63-0.62h4.99c0.35,0,0.62,0.28,0.62,0.62C169.04,158.59,168.76,158.87,168.41,158.87z M158.43,158.87h-4.58
		c-0.34,0-0.62-0.28-0.62-0.62v-0.41c0-0.34,0.28-0.63,0.62-0.63c0.27,0,0.5,0.17,0.59,0.41h4c0.34,0,0.62,0.28,0.62,0.62
		C159.05,158.59,158.77,158.87,158.43,158.87z M153.84,153.46c-0.34,0-0.62-0.28-0.62-0.62v-5c0-0.35,0.28-0.62,0.62-0.62
		c0.35,0,0.62,0.28,0.62,0.62v5C154.47,153.18,154.19,153.46,153.84,153.46z M268.29,149.16c-0.34,0-0.62-0.28-0.62-0.63v-5
		c0-0.35,0.28-0.62,0.62-0.62c0.35,0,0.63,0.28,0.63,0.62v5C268.91,148.88,268.63,149.16,268.29,149.16z M153.84,143.46
		c-0.34,0-0.62-0.28-0.62-0.62v-5c0-0.34,0.28-0.63,0.62-0.63c0.35,0,0.62,0.28,0.62,0.63v5
		C154.47,143.18,154.19,143.46,153.84,143.46z M268.29,139.16c-0.34,0-0.62-0.28-0.62-0.62v-5c0-0.35,0.28-0.63,0.62-0.63
		c0.35,0,0.63,0.28,0.63,0.63v5C268.91,138.88,268.63,139.16,268.29,139.16z M153.84,133.47c-0.34,0-0.62-0.28-0.62-0.62v-5
		c0-0.34,0.28-0.62,0.62-0.62c0.35,0,0.62,0.28,0.62,0.62v5C154.47,133.19,154.19,133.47,153.84,133.47z M268.29,129.16
		c-0.34,0-0.62-0.28-0.62-0.62v-5c0-0.34,0.28-0.62,0.62-0.62c0.35,0,0.63,0.28,0.63,0.62v5
		C268.91,128.88,268.63,129.16,268.29,129.16z M153.84,123.47c-0.34,0-0.62-0.28-0.62-0.63v-5c0-0.34,0.28-0.63,0.62-0.63
		c0.35,0,0.62,0.28,0.62,0.63v5C154.47,123.19,154.19,123.47,153.84,123.47z M268.29,119.16c-0.34,0-0.62-0.28-0.62-0.62v-5
		c0-0.34,0.28-0.62,0.62-0.62c0.35,0,0.63,0.28,0.63,0.62v5C268.91,118.88,268.63,119.16,268.29,119.16z M153.84,113.47
		c-0.34,0-0.62-0.28-0.62-0.62v-2.36c0-0.34,0.28-0.63,0.62-0.63h2.64c0.34,0,0.62,0.28,0.62,0.63c0,0.35-0.28,0.62-0.62,0.62h-2.01
		v1.73C154.47,113.19,154.19,113.47,153.84,113.47z M266.34,111.11h-4.99c-0.35,0-0.63-0.28-0.63-0.62c0-0.34,0.28-0.63,0.63-0.63
		h4.99c0.34,0,0.62,0.28,0.62,0.63C266.97,110.83,266.69,111.11,266.34,111.11z M256.36,111.11h-5c-0.34,0-0.62-0.28-0.62-0.62
		c0-0.34,0.28-0.63,0.62-0.63h5c0.34,0,0.62,0.28,0.62,0.63C256.98,110.83,256.7,111.11,256.36,111.11z M246.37,111.11h-4.99
		c-0.34,0-0.62-0.28-0.62-0.62c0-0.34,0.28-0.63,0.62-0.63h4.99c0.35,0,0.62,0.28,0.62,0.63
		C246.99,110.83,246.71,111.11,246.37,111.11z M236.38,111.11h-4.99c-0.35,0-0.62-0.28-0.62-0.62c0-0.34,0.28-0.63,0.62-0.63h4.99
		c0.34,0,0.62,0.28,0.62,0.63C237,110.83,236.72,111.11,236.38,111.11z M226.39,111.11h-4.99c-0.34,0-0.62-0.28-0.62-0.62
		c0-0.34,0.28-0.63,0.62-0.63h4.99c0.34,0,0.62,0.28,0.62,0.63C227.02,110.83,226.74,111.11,226.39,111.11z M216.4,111.11h-4.99
		c-0.34,0-0.62-0.28-0.62-0.62c0-0.34,0.28-0.63,0.62-0.63h4.99c0.35,0,0.62,0.28,0.62,0.63
		C217.03,110.83,216.75,111.11,216.4,111.11z M206.42,111.11h-4.99c-0.34,0-0.62-0.28-0.62-0.62c0-0.34,0.28-0.63,0.62-0.63h4.99
		c0.34,0,0.63,0.28,0.63,0.63C207.04,110.83,206.76,111.11,206.42,111.11z M196.43,111.11h-4.99c-0.35,0-0.63-0.28-0.63-0.62
		c0-0.34,0.28-0.63,0.63-0.63h4.99c0.34,0,0.62,0.28,0.62,0.63C197.05,110.83,196.77,111.11,196.43,111.11z M186.44,111.11h-4.99
		c-0.34,0-0.62-0.28-0.62-0.62c0-0.34,0.28-0.63,0.62-0.63h4.99c0.35,0,0.63,0.28,0.63,0.63
		C187.07,110.83,186.79,111.11,186.44,111.11z M176.46,111.11h-4.99c-0.35,0-0.63-0.28-0.63-0.62c0-0.34,0.28-0.63,0.63-0.63h4.99
		c0.34,0,0.62,0.28,0.62,0.63C177.08,110.83,176.8,111.11,176.46,111.11z M166.47,111.11h-4.99c-0.35,0-0.62-0.28-0.62-0.62
		c0-0.34,0.28-0.63,0.62-0.63h4.99c0.34,0,0.62,0.28,0.62,0.63C167.09,110.83,166.81,111.11,166.47,111.11z"/>
	<polyline style="fill:#FFFFFF;" points="268.29,252.87 153.84,252.87 153.84,167.26 268.29,167.26 268.29,252.87 	"/>
	<path style="fill:#26C4CD;" d="M268.29,253.49h-4.99c-0.34,0-0.62-0.28-0.62-0.62c0-0.34,0.28-0.63,0.62-0.63h4.4
		c0.08-0.25,0.32-0.43,0.59-0.43c0.35,0,0.63,0.28,0.63,0.63v0.43C268.91,253.21,268.63,253.49,268.29,253.49 M258.3,253.49h-4.99
		c-0.34,0-0.62-0.28-0.62-0.62c0-0.34,0.28-0.63,0.62-0.63h4.99c0.34,0,0.62,0.28,0.62,0.63
		C258.93,253.21,258.65,253.49,258.3,253.49z M248.31,253.49h-4.99c-0.35,0-0.62-0.28-0.62-0.62c0-0.34,0.28-0.63,0.62-0.63h4.99
		c0.34,0,0.62,0.28,0.62,0.63C248.94,253.21,248.66,253.49,248.31,253.49z M238.33,253.49h-4.99c-0.34,0-0.62-0.28-0.62-0.62
		c0-0.34,0.28-0.63,0.62-0.63h4.99c0.35,0,0.62,0.28,0.62,0.63C238.95,253.21,238.67,253.49,238.33,253.49z M228.34,253.49h-4.99
		c-0.34,0-0.62-0.28-0.62-0.62c0-0.34,0.28-0.63,0.62-0.63h4.99c0.35,0,0.63,0.28,0.63,0.63
		C228.97,253.21,228.69,253.49,228.34,253.49z M218.35,253.49h-4.99c-0.35,0-0.63-0.28-0.63-0.62c0-0.34,0.28-0.63,0.63-0.63h4.99
		c0.34,0,0.62,0.28,0.62,0.63C218.98,253.21,218.69,253.49,218.35,253.49z M208.36,253.49h-4.99c-0.34,0-0.62-0.28-0.62-0.62
		c0-0.34,0.28-0.63,0.62-0.63h4.99c0.35,0,0.62,0.28,0.62,0.63C208.99,253.21,208.71,253.49,208.36,253.49z M198.38,253.49h-4.99
		c-0.34,0-0.63-0.28-0.63-0.62c0-0.34,0.28-0.63,0.63-0.63h4.99c0.35,0,0.63,0.28,0.63,0.63C199,253.21,198.72,253.49,198.38,253.49
		z M188.39,253.49h-4.99c-0.35,0-0.62-0.28-0.62-0.62c0-0.34,0.28-0.63,0.62-0.63h4.99c0.34,0,0.62,0.28,0.62,0.63
		C189.01,253.21,188.73,253.49,188.39,253.49z M178.4,253.49h-5c-0.34,0-0.62-0.28-0.62-0.62c0-0.34,0.28-0.63,0.62-0.63h5
		c0.34,0,0.62,0.28,0.62,0.63C179.03,253.21,178.75,253.49,178.4,253.49z M168.41,253.49h-4.99c-0.34,0-0.63-0.28-0.63-0.62
		c0-0.34,0.28-0.63,0.63-0.63h4.99c0.35,0,0.62,0.28,0.62,0.63C169.04,253.21,168.76,253.49,168.41,253.49z M158.43,253.49h-4.58
		c-0.34,0-0.62-0.28-0.62-0.62v-0.41c0-0.34,0.28-0.62,0.62-0.62c0.27,0,0.5,0.17,0.59,0.41h4c0.34,0,0.62,0.28,0.62,0.63
		C159.05,253.21,158.77,253.49,158.43,253.49z M153.84,248.08c-0.34,0-0.62-0.28-0.62-0.62v-5c0-0.35,0.28-0.63,0.62-0.63
		c0.35,0,0.62,0.28,0.62,0.63v5C154.47,247.8,154.19,248.08,153.84,248.08z M268.29,248.07c-0.34,0-0.62-0.28-0.62-0.63v-5
		c0-0.35,0.28-0.62,0.62-0.62c0.35,0,0.63,0.28,0.63,0.62v5C268.91,247.79,268.63,248.07,268.29,248.07z M153.84,238.08
		c-0.34,0-0.62-0.28-0.62-0.62v-5c0-0.35,0.28-0.62,0.62-0.62c0.35,0,0.62,0.28,0.62,0.62v5
		C154.47,237.8,154.19,238.08,153.84,238.08z M268.29,238.07c-0.34,0-0.62-0.28-0.62-0.62v-5c0-0.34,0.28-0.63,0.62-0.63
		c0.35,0,0.63,0.28,0.63,0.63v5C268.91,237.79,268.63,238.07,268.29,238.07z M153.84,228.09c-0.34,0-0.62-0.28-0.62-0.63v-5
		c0-0.34,0.28-0.63,0.62-0.63c0.35,0,0.62,0.28,0.62,0.63v5C154.47,227.8,154.19,228.09,153.84,228.09z M268.29,228.07
		c-0.34,0-0.62-0.28-0.62-0.62v-5c0-0.35,0.28-0.62,0.62-0.62c0.35,0,0.63,0.28,0.63,0.62v5
		C268.91,227.79,268.63,228.07,268.29,228.07z M153.84,218.09c-0.34,0-0.62-0.28-0.62-0.62v-5c0-0.35,0.28-0.62,0.62-0.62
		c0.35,0,0.62,0.28,0.62,0.62v5C154.47,217.81,154.19,218.09,153.84,218.09z M268.29,218.07c-0.34,0-0.62-0.28-0.62-0.63v-5
		c0-0.34,0.28-0.63,0.62-0.63c0.35,0,0.63,0.28,0.63,0.63v5C268.91,217.79,268.63,218.07,268.29,218.07z M153.84,208.09
		c-0.34,0-0.62-0.28-0.62-0.63v-5c0-0.35,0.28-0.62,0.62-0.62c0.35,0,0.62,0.28,0.62,0.62v5
		C154.47,207.81,154.19,208.09,153.84,208.09z M268.29,208.07c-0.34,0-0.62-0.28-0.62-0.62v-5c0-0.34,0.28-0.62,0.62-0.62
		c0.35,0,0.63,0.28,0.63,0.62v5C268.91,207.79,268.63,208.07,268.29,208.07z M153.84,198.09c-0.34,0-0.62-0.28-0.62-0.62v-5
		c0-0.34,0.28-0.63,0.62-0.63c0.35,0,0.62,0.28,0.62,0.63v5C154.47,197.81,154.19,198.09,153.84,198.09z M268.29,198.08
		c-0.34,0-0.62-0.28-0.62-0.63v-5c0-0.35,0.28-0.62,0.62-0.62c0.35,0,0.63,0.28,0.63,0.62v5
		C268.91,197.79,268.63,198.08,268.29,198.08z M153.84,188.09c-0.34,0-0.62-0.28-0.62-0.63v-5c0-0.35,0.28-0.62,0.62-0.62
		c0.35,0,0.62,0.28,0.62,0.62v5C154.47,187.81,154.19,188.09,153.84,188.09z M268.29,188.08c-0.34,0-0.62-0.28-0.62-0.62v-5
		c0-0.34,0.28-0.63,0.62-0.63c0.35,0,0.63,0.28,0.63,0.63v5C268.91,187.8,268.63,188.08,268.29,188.08z M153.84,178.09
		c-0.34,0-0.62-0.28-0.62-0.62v-5c0-0.35,0.28-0.63,0.62-0.63c0.35,0,0.62,0.28,0.62,0.63v5
		C154.47,177.82,154.19,178.09,153.84,178.09z M268.29,178.08c-0.34,0-0.62-0.28-0.62-0.63v-5c0-0.35,0.28-0.62,0.62-0.62
		c0.35,0,0.63,0.28,0.63,0.62v5C268.91,177.8,268.63,178.08,268.29,178.08z M153.84,168.1c-0.34,0-0.62-0.28-0.62-0.62v-0.21
		c0-0.34,0.28-0.62,0.62-0.62h4.78c0.35,0,0.63,0.28,0.63,0.62c0,0.35-0.28,0.63-0.63,0.63h-4.31
		C154.2,168.01,154.03,168.1,153.84,168.1z M268.29,168.08c-0.18,0-0.34-0.07-0.45-0.2h-4.34c-0.35,0-0.62-0.28-0.62-0.63
		c0-0.34,0.28-0.62,0.62-0.62h4.79c0.35,0,0.63,0.28,0.63,0.62v0.2C268.91,167.8,268.63,168.08,268.29,168.08z M258.5,167.88h-4.99
		c-0.34,0-0.62-0.28-0.62-0.63c0-0.34,0.28-0.62,0.62-0.62h4.99c0.35,0,0.63,0.28,0.63,0.62
		C259.12,167.6,258.84,167.88,258.5,167.88z M248.51,167.88h-4.99c-0.34,0-0.63-0.28-0.63-0.63c0-0.34,0.28-0.62,0.63-0.62h4.99
		c0.34,0,0.62,0.28,0.62,0.62C249.14,167.6,248.86,167.88,248.51,167.88z M238.52,167.88h-4.99c-0.35,0-0.62-0.28-0.62-0.63
		c0-0.34,0.28-0.62,0.62-0.62h4.99c0.34,0,0.62,0.28,0.62,0.62C239.15,167.6,238.87,167.88,238.52,167.88z M228.54,167.88h-4.99
		c-0.34,0-0.62-0.28-0.62-0.63c0-0.34,0.28-0.62,0.62-0.62h4.99c0.34,0,0.62,0.28,0.62,0.62
		C229.16,167.6,228.88,167.88,228.54,167.88z M218.55,167.88h-4.99c-0.34,0-0.62-0.28-0.62-0.63c0-0.34,0.28-0.62,0.62-0.62h4.99
		c0.35,0,0.62,0.28,0.62,0.62C219.17,167.6,218.89,167.88,218.55,167.88z M208.56,167.88h-4.99c-0.35,0-0.63-0.28-0.63-0.63
		c0-0.34,0.28-0.62,0.63-0.62h4.99c0.34,0,0.62,0.28,0.62,0.62C209.18,167.6,208.9,167.88,208.56,167.88z M198.57,167.88h-5
		c-0.34,0-0.62-0.28-0.62-0.63c0-0.34,0.28-0.62,0.62-0.62h5c0.34,0,0.62,0.28,0.62,0.62C199.2,167.6,198.92,167.88,198.57,167.88z
		 M188.58,167.88h-4.99c-0.34,0-0.62-0.28-0.62-0.63c0-0.34,0.28-0.62,0.62-0.62h4.99c0.35,0,0.63,0.28,0.63,0.62
		C189.21,167.6,188.93,167.88,188.58,167.88z M178.6,167.88h-4.99c-0.35,0-0.63-0.28-0.63-0.63c0-0.34,0.28-0.62,0.63-0.62h4.99
		c0.34,0,0.62,0.28,0.62,0.62C179.22,167.6,178.94,167.88,178.6,167.88z M168.61,167.88h-4.99c-0.35,0-0.62-0.28-0.62-0.63
		c0-0.34,0.28-0.62,0.62-0.62h4.99c0.34,0,0.62,0.28,0.62,0.62C169.24,167.6,168.96,167.88,168.61,167.88z"/>
	<path style="fill:#263238;" d="M98.36,23.97c1.63-0.35,2.92,0.65,4.16-0.31c1.47-1.14,1.51-3.96,0.72-5.9
		c-1.4-3.45-5.9-5.27-9.51-4.82c-3.57,0.46-3.85,2.84-6.5,3.04c-4.73,0.37-6.18-7.05-13.32-11.87c-5.39-3.64-12.93-5.07-19.14-3.44
		c-8.17,2.15-8.09,8.04-16.03,9.66c-7.13,1.45-8.97-2.23-16.02-1.35c-6.43,0.8-13.3,6.94-14.05,13.96
		c-0.7,6.58,4.01,13.91,10.3,16.56c13.88,5.84,33.23-12.07,39.83-5.54c1.54,1.52,2.66,4.65,5.61,5.05c2.01,0.27,3.52-0.91,4.7-1.58
		c7.74-4.43,15.93,4.01,21.54,0.24C95.56,34.36,93.82,24.93,98.36,23.97"/>
	<path style="fill:#263238;" d="M97.22,132.57c-0.13,0-0.25-0.04-0.36-0.12c-1.75-1.25-2.14-6.29-2.2-7.29
		c-0.01-0.2,0.08-0.4,0.24-0.53c2.69-2.11,5.16-6.39,5.18-6.44c0.14-0.24,0.41-0.36,0.68-0.3l5.5,1.24
		c0.21,0.04,0.37,0.19,0.45,0.39c0.07,0.2,0.04,0.42-0.08,0.59l-8.89,12.21C97.6,132.49,97.41,132.57,97.22,132.57 M95.92,125.41
		c0.15,1.87,0.59,4.4,1.25,5.54l7.87-10.8l-4.12-0.93C100.25,120.33,98.23,123.49,95.92,125.41z"/>
	<path style="fill:#F36A20;" d="M96.13,123.06c0,0-5.64,1.2-6.48,2.61c-0.71,1.19,2.92,15.72,4.21,20.42
		c0.23,0.83,1.29,1.1,1.87,0.46c1.44-1.58,3.67-5.76,5.52-16.86c0.1-0.58-0.14-1.17-0.61-1.51L98,126.25l-1.3,1.84L96.13,123.06"/>
	<path style="fill:#263238;" d="M94.93,147.53c-0.14,0-0.27-0.02-0.41-0.05c-0.61-0.15-1.1-0.62-1.27-1.23
		c-0.05-0.19-5.19-19.15-4.14-20.91c0.94-1.57,5.9-2.69,6.89-2.9c0.17-0.04,0.35,0,0.49,0.11c0.14,0.1,0.24,0.26,0.26,0.44l0.39,3.4
		l0.36-0.5c0.1-0.14,0.24-0.23,0.41-0.26c0.17-0.03,0.33,0.01,0.47,0.11l2.62,1.93c0.67,0.49,0.99,1.3,0.86,2.12
		c-1.84,11.08-4.1,15.46-5.67,17.18C95.85,147.34,95.41,147.53,94.93,147.53 M90.2,125.97c-0.38,1.4,2.53,13.69,4.26,19.96
		c0.05,0.17,0.18,0.3,0.36,0.34c0.08,0.02,0.28,0.05,0.45-0.14c1.19-1.31,3.48-5.2,5.36-16.54c0.06-0.35-0.08-0.7-0.37-0.91
		l-2.11-1.56l-0.93,1.32c-0.15,0.21-0.41,0.31-0.66,0.24c-0.25-0.06-0.44-0.28-0.46-0.54l-0.49-4.33
		C93.44,124.34,90.69,125.24,90.2,125.97z"/>
	<path style="fill:#263238;" d="M99.66,137.98c-0.04,0-0.08,0-0.12-0.01l-3.07-0.58c-0.34-0.06-0.56-0.39-0.5-0.73
		c0.06-0.34,0.39-0.56,0.73-0.5l3.07,0.58c0.34,0.06,0.56,0.39,0.5,0.73C100.22,137.77,99.95,137.98,99.66,137.98"/>
	<path style="fill:#263238;" d="M95.16,144.8c-0.29,0-0.55-0.2-0.61-0.5l-3.82-18.12c-0.07-0.34,0.14-0.67,0.48-0.74
		c0.34-0.07,0.67,0.15,0.74,0.48l3.82,18.12c0.07,0.34-0.14,0.67-0.48,0.74C95.24,144.79,95.2,144.8,95.16,144.8"/>
	<path style="fill:#263238;" d="M83.81,160.94c-0.2,0-0.39-0.1-0.51-0.27l-3.85-5.51c-0.09-0.13-0.13-0.28-0.11-0.44l1.31-9.98
		c0.02-0.17,0.12-0.33,0.26-0.43c0.14-0.1,0.32-0.14,0.49-0.1l5.55,1.11c0.16,0.03,0.31,0.13,0.4,0.27
		c0.09,0.14,0.12,0.31,0.09,0.47l-3.01,14.39c-0.05,0.24-0.24,0.43-0.49,0.48C83.89,160.94,83.85,160.94,83.81,160.94 M80.61,154.64
		l2.88,4.13l2.59-12.35l-4.28-0.86L80.61,154.64z"/>
	<path style="fill:#F36A20;" d="M74.15,153.52c1.2-0.67,3.11-1.74,5.57-3.09l1.55,3.91l4.42,1.44c0,0,1.79,10.36,0.23,16.75
		c-0.29,1.19-1.81,1.54-2.57,0.58c-2.28-2.9-6.92-9.99-10.02-17.21C72.96,155.02,73.31,153.99,74.15,153.52"/>
	<path style="fill:#263238;" d="M84.49,174.29c-0.63,0-1.22-0.28-1.62-0.79c-2.34-2.98-6.97-10.05-10.1-17.35
		c-0.51-1.18-0.04-2.55,1.08-3.17c1.21-0.68,3.12-1.74,5.57-3.09c0.16-0.09,0.34-0.1,0.51-0.04c0.17,0.06,0.3,0.19,0.37,0.36
		l1.44,3.63l4.14,1.35c0.22,0.07,0.38,0.26,0.42,0.49c0.07,0.43,1.79,10.56,0.23,17.01c-0.19,0.79-0.8,1.39-1.59,1.56
		C84.79,174.28,84.64,174.29,84.49,174.29 M74.46,154.06c-0.56,0.31-0.8,1-0.54,1.59c3.06,7.14,7.72,14.26,9.93,17.07
		c0.2,0.25,0.51,0.37,0.83,0.3c0.33-0.07,0.57-0.31,0.65-0.64c1.34-5.53,0.11-14.24-0.18-16.13l-4.06-1.32
		c-0.18-0.06-0.32-0.19-0.39-0.36l-1.29-3.25C77.25,152.51,75.56,153.45,74.46,154.06z"/>
	<path style="fill:#263238;" d="M84.57,172.07c-0.18,0-0.36-0.08-0.49-0.24c-3.07-3.86-9.52-16.22-9.79-16.74
		c-0.16-0.3-0.04-0.68,0.26-0.84c0.31-0.16,0.68-0.04,0.84,0.27c0.07,0.13,6.66,12.78,9.66,16.54c0.21,0.27,0.17,0.66-0.1,0.88
		C84.85,172.02,84.71,172.07,84.57,172.07"/>
	<path style="fill:#263238;" d="M82.87,164.91c-0.26,0-0.51-0.17-0.59-0.44c-0.1-0.33,0.08-0.68,0.4-0.78l3.61-1.16
		c0.33-0.1,0.68,0.08,0.78,0.41c0.11,0.33-0.08,0.68-0.4,0.79l-3.61,1.16C82.99,164.9,82.93,164.91,82.87,164.91"/>
	<path style="fill:#263238;" d="M84.62,64.77c0.67-0.08,25.06,9.96,30.4,15.51c5.34,5.55,5.9,24.31-9.07,41.26l-7.41-1.71
		c0,0-1.97-4.99,0.53-9.99c2.5-4.99,5.44-12.54,3.05-14.93c-2.39-2.4-28.93-15.54-28.93-15.54l-5.23-20.13L84.62,64.77"/>
	<path style="fill:#263238;" d="M80.58,147.13l6.44,1.1c0,0,8.84-20.08,7.79-37.58c-1.06-17.49-14.23-36.91-14.23-36.91l-0.61-12.47
		H58.16c0,0-5.69,7.46-3.31,14.21c2.38,6.75,18.04,21.53,21.08,29.27c3.04,7.74,4.01,9.13,2.25,15.64
		C76.41,126.9,75.46,138.49,80.58,147.13"/>
	<path style="fill:#FFFFFF;" d="M87.17,86.02c-0.22,0-0.43-0.11-0.54-0.32l-6.6-11.65c-0.17-0.3-0.06-0.68,0.23-0.85
		c0.3-0.17,0.68-0.06,0.85,0.24l6.6,11.65c0.17,0.3,0.06,0.68-0.24,0.85C87.38,85.99,87.28,86.02,87.17,86.02"/>
	<path style="fill:#FFFFFF;" d="M138.19,74.03l-4.68-5.75l-5.86-0.86c-1.38-1.15-3-2.72-4.56-3.58c-0.47,0.42-0.02,0.84-0.51,1.25
		c-0.79,0.66-1.59,1.32-2.39,1.96c3.7,2.02,6.7,2.32,6.7,2.32c1.44,3.98,4.59,3.14,5.34,2.7c0.75-0.44,1.77-0.35,3.55,1.15
		C137.72,74.88,138.19,74.03,138.19,74.03"/>
	<path style="fill:#263238;" d="M137.69,74.88c-0.63,0-1.39-0.38-2.31-1.16c-1.93-1.62-2.59-1.23-2.83-1.09
		c-0.52,0.31-1.9,0.76-3.35,0.24c-1.21-0.44-2.14-1.41-2.75-2.91c-0.95-0.15-3.51-0.69-6.55-2.34c-0.18-0.1-0.3-0.28-0.32-0.49
		c-0.02-0.21,0.07-0.41,0.23-0.54c0.72-0.59,1.56-1.27,2.38-1.96c0.03-0.04,0.03-0.11,0.04-0.17c0.01-0.24,0.02-0.69,0.46-1.07
		c0.2-0.18,0.48-0.21,0.71-0.08c1.24,0.67,2.5,1.77,3.61,2.74c0.32,0.27,0.63,0.54,0.92,0.8l5.69,0.83c0.15,0.02,0.29,0.1,0.39,0.22
		l4.68,5.74c0.16,0.2,0.19,0.47,0.06,0.7c-0.11,0.2-0.38,0.44-0.78,0.52C137.87,74.87,137.78,74.88,137.69,74.88 M133.06,71.24
		c1.15,0,2.28,0.82,3.12,1.53c0.17,0.15,0.33,0.27,0.47,0.37l-3.47-4.26l-5.62-0.82c-0.11-0.02-0.22-0.06-0.31-0.14
		c-0.35-0.29-0.71-0.6-1.08-0.93c-0.9-0.78-1.82-1.59-2.73-2.19c-0.04,0.24-0.15,0.53-0.46,0.79c-0.56,0.47-1.12,0.94-1.66,1.37
		c3.16,1.55,5.6,1.81,5.63,1.82c0.24,0.02,0.44,0.18,0.52,0.41c0.48,1.33,1.2,2.18,2.14,2.51c0.97,0.35,1.96,0.06,2.29-0.14
		C132.29,71.33,132.68,71.24,133.06,71.24z"/>
	<path style="fill:#F36A20;" d="M90.07,49.39c0,0,11.22,18.18,31.77,19.68l3.97-4.36c0,0-18.95-15.66-23.01-21.07
		c-4.06-5.41-7.47-10-10.2-10.28C89.88,33.07,90.07,49.39,90.07,49.39"/>
	<path style="fill:#F36A20;" d="M64.11,42.7c0,0-7.86,10.65-9.84,18.64c-1.98,8,10.47-1.04,30.36,3.43l8.43-19.46l1.33-11.26
		c0,0-10.35-5.48-19.38-4.9C71.47,29.38,64.11,42.7,64.11,42.7"/>
	<path style="fill:#FFFFFF;" d="M39.94,71.16c0,0-0.72,7.78,1.17,9.22c1.89,1.44,6.24,2.52,6.96,6.05c0.72,3.53,1.21-3.69-0.01-5.39
		c-1.22-1.7-4.97-3.16-4.97-3.16l0.62-7.71L39.94,71.16"/>
	<path style="fill:#263238;" d="M48.44,88.02c-0.04,0-0.08,0-0.12-0.01c-0.55-0.1-0.72-0.72-0.87-1.45
		c-0.47-2.27-2.69-3.43-4.65-4.46c-0.78-0.41-1.52-0.79-2.08-1.22c-2.06-1.57-1.54-8.42-1.41-9.78c0.02-0.26,0.21-0.48,0.46-0.55
		l3.78-0.99c0.2-0.05,0.4,0,0.56,0.13c0.16,0.13,0.24,0.33,0.22,0.53l-0.59,7.26c1.06,0.45,3.75,1.71,4.81,3.2
		c1.07,1.49,1.04,6.13,0.5,6.98C48.9,87.92,48.65,88.02,48.44,88.02 M48.86,86.97L48.86,86.97L48.86,86.97z M40.52,71.65
		c-0.24,3.08-0.1,7.42,0.96,8.23c0.48,0.36,1.17,0.72,1.9,1.11c1.72,0.9,3.78,1.98,4.79,3.91c-0.02-1.34-0.2-2.9-0.63-3.49
		c-0.91-1.27-3.69-2.55-4.69-2.94c-0.26-0.1-0.42-0.36-0.4-0.63l0.55-6.83L40.52,71.65z"/>
	<path style="fill:#F36A20;" d="M39.06,73.13c0.02,0.3,5.23,0.32,5.23,0.32s1.99-22.43,23.64-28.51l8.95-15.84
		C76.88,29.1,36.2,26.95,39.06,73.13"/>
	<path style="fill:#FFFFFF;" d="M92.89,47.57c-0.35,0-0.62-0.28-0.62-0.63v-8.61c0-0.34,0.28-0.63,0.62-0.63
		c0.34,0,0.62,0.28,0.62,0.63v8.61C93.51,47.3,93.23,47.57,92.89,47.57"/>
	<path style="fill:#FFFFFF;" d="M60.16,61.33c-0.12,0-0.2,0-0.23,0c-0.35-0.01-0.62-0.29-0.61-0.64c0.01-0.34,0.29-0.61,0.62-0.61
		c0.01,0,0,0,0.13,0c1.11,0,10.45-0.2,19.28-6.55c0.28-0.2,0.67-0.14,0.87,0.14c0.2,0.28,0.14,0.67-0.14,0.87
		C71.06,61.03,61.77,61.33,60.16,61.33"/>
	<path style="fill:#FFFFFF;" d="M99.95,24.66c0.55-2.36,1.8-4.51,1.8-4.51c-1.46,1.63-4.06,0.05-5.56-0.21
		c-1.51-0.26-3.34,1.82-3.34,1.82s-1.48-1.37-2.87,0.4c-1.39,1.77,0.12,3.24,0.12,3.24l-6.39,3.68l-4.91,0.42
		c3.7,5.2,12.75,4.29,12.75,4.29l-2.37-1.66l4.59-3.21c2.68,1.82,3.12,1.57,3.12,1.57c0.61-0.34,1.5-1.79,2.3-3.03l0.24,0.09
		c0.29,0.1,0.6-0.12,0.59-0.43L99.95,24.66"/>
	<path style="fill:#263238;" d="M89.9,34.48c-2.9,0-8.72-0.54-11.62-4.62c-0.13-0.18-0.15-0.42-0.06-0.63
		c0.09-0.2,0.29-0.34,0.51-0.36l4.77-0.4l5.66-3.26c-0.47-0.83-0.73-2.11,0.31-3.44c0.55-0.7,1.19-1.09,1.9-1.14
		c0.56-0.05,1.04,0.13,1.38,0.31c0.69-0.67,2.14-1.87,3.53-1.63c0.42,0.07,0.89,0.23,1.39,0.4c1.63,0.54,2.84,0.86,3.6,0.01
		c0.21-0.24,0.57-0.28,0.83-0.09s0.33,0.54,0.17,0.82c-0.01,0.02-1.19,2.05-1.71,4.26l0.07,2.37c0.01,0.35-0.15,0.69-0.44,0.89
		c-0.22,0.16-0.48,0.23-0.75,0.2c-0.96,1.49-1.64,2.49-2.27,2.85c-0.22,0.12-0.73,0.4-3.42-1.36l-3.51,2.46l1.64,1.15
		c0.21,0.15,0.31,0.42,0.25,0.67c-0.07,0.25-0.28,0.44-0.54,0.46C91.51,34.42,90.86,34.48,89.9,34.48 M80.04,30.02
		c2.64,2.68,7.1,3.16,9.6,3.2l-0.83-0.58c-0.17-0.12-0.27-0.31-0.27-0.51c0-0.2,0.1-0.39,0.27-0.51l4.59-3.21
		c0.21-0.15,0.49-0.15,0.71,0c1.63,1.1,2.34,1.38,2.59,1.45c0.44-0.37,1.17-1.5,1.71-2.35l0.25-0.38c0.16-0.24,0.45-0.35,0.72-0.25
		l-0.06-2.19c0-0.05,0-0.11,0.02-0.16c0.26-1.12,0.67-2.19,1.04-3.03c-1.05,0.1-2.17-0.27-3.09-0.58c-0.45-0.15-0.88-0.29-1.21-0.35
		c-0.95-0.16-2.35,1.15-2.76,1.62c-0.11,0.13-0.27,0.2-0.44,0.21c-0.17,0.01-0.33-0.05-0.46-0.16c0,0-0.43-0.38-0.95-0.34
		c-0.35,0.03-0.68,0.26-1.01,0.67c-1.03,1.32,0.02,2.37,0.06,2.41c0.14,0.14,0.21,0.33,0.18,0.53c-0.02,0.2-0.14,0.37-0.31,0.46
		l-6.39,3.68c-0.08,0.05-0.17,0.07-0.26,0.08L80.04,30.02z M99.39,27.13L99.39,27.13L99.39,27.13z"/>
	<path style="fill:#263238;" d="M93.76,29.54c-0.14,0-0.28-0.05-0.39-0.14l-1.74-1.42c-0.27-0.22-0.31-0.61-0.09-0.88
		c0.22-0.27,0.61-0.31,0.88-0.09l1.74,1.42c0.27,0.22,0.31,0.61,0.09,0.88C94.12,29.46,93.94,29.54,93.76,29.54"/>
	<path style="fill:#025BA6;" d="M294.83,257.55c0,0-2.94,9.5-17.92,8.21c-14.98-1.3-20.88-7.78-28.37-8.52
		c-7.5-0.74-9.64-8.96-7.85-16.55c3.3-14.01,16.43-53.01,16.78-53.65C257.81,186.41,294.83,257.55,294.83,257.55"/>
	<path style="fill:#263238;" d="M251.48,332.74h-6.65l-3.44-11.69h8.24L251.48,332.74 M245.76,331.49h4.25l-1.46-9.19h-5.5
		L245.76,331.49z"/>
	<path style="fill:#025BA6;" d="M251.54,330.1c-0.23-0.49-0.8-0.71-1.3-0.5l-3.2,1.32l-1.97-1.28c-0.39-0.25-0.87-0.31-1.32-0.16
		c-2.93,1.03-14.29,5.04-16.74,6.54c-1.3,0.8-2.06,1.75-2.5,2.56c-0.41,0.75,0.14,1.66,1,1.66h26.44c0.9,0,1.65-0.71,1.67-1.61
		C253.69,335.1,252.27,331.66,251.54,330.1"/>
	<path style="fill:#263238;" d="M251.96,340.86h-26.45c-0.63,0-1.19-0.32-1.51-0.87c-0.31-0.54-0.33-1.18-0.03-1.72
		c0.62-1.12,1.54-2.06,2.72-2.79c2.47-1.51,13.53-5.43,16.86-6.59c0.63-0.22,1.3-0.14,1.86,0.23l1.69,1.1l2.9-1.2
		c0.8-0.33,1.73,0.02,2.1,0.81c0.83,1.75,2.21,5.21,2.15,8.8C254.23,339.86,253.2,340.86,251.96,340.86 M244.25,330.03
		c-0.1,0-0.19,0.02-0.29,0.05c-6.8,2.38-14.74,5.33-16.62,6.48c-1,0.61-1.77,1.39-2.28,2.32c-0.12,0.22-0.03,0.41,0.01,0.48
		c0.04,0.08,0.18,0.25,0.44,0.25h26.45c0.57,0,1.04-0.45,1.05-1c0.06-3.46-1.4-6.91-2.03-8.24c-0.09-0.19-0.31-0.27-0.5-0.19
		l-3.2,1.32c-0.19,0.08-0.41,0.06-0.58-0.05l-1.97-1.28C244.58,330.07,244.42,330.03,244.25,330.03z"/>
	<path style="fill:#263238;" d="M251.39,338.6h-24.02c-0.34,0-0.62-0.28-0.62-0.63c0-0.34,0.28-0.62,0.62-0.62h24.02
		c0.34,0,0.62,0.28,0.62,0.62C252.01,338.32,251.73,338.6,251.39,338.6"/>
	<path style="fill:#263238;" d="M239.02,335.06c-0.25,0-0.49-0.15-0.58-0.4l-1.02-2.66c-0.12-0.32,0.04-0.68,0.36-0.81
		c0.32-0.13,0.68,0.04,0.81,0.36l1.02,2.66c0.12,0.32-0.04,0.68-0.36,0.81C239.17,335.05,239.09,335.06,239.02,335.06"/>
	<polyline style="fill:#FFFFFF;" points="283.91,323.07 287.28,330.22 291.61,327.92 289.7,320.04 283.91,323.07 	"/>
	<path style="fill:#263238;" d="M287.28,330.85c-0.07,0-0.13-0.01-0.2-0.03c-0.16-0.05-0.29-0.17-0.37-0.33l-3.38-7.15
		c-0.14-0.3-0.02-0.66,0.28-0.82l5.8-3.03c0.17-0.09,0.37-0.09,0.55-0.01c0.18,0.08,0.3,0.24,0.35,0.42l1.91,7.88
		c0.07,0.28-0.06,0.57-0.32,0.7l-4.33,2.3C287.48,330.82,287.38,330.85,287.28,330.85 M284.73,323.35l2.84,6.02l3.32-1.76
		l-1.61-6.63L284.73,323.35z"/>
	<path style="fill:#025BA6;" d="M289.22,327.58l2.12-1.96c0.53-0.49,1.35-0.42,1.8,0.14l2.95,3.68c0.48,0.6,0.44,1.46-0.08,2.01
		c-2.56,2.72-9.74,10.23-11.14,10.58c-1.15,0.29-5.24,0.19-7.82,0.09c-1.2-0.04-1.94-1.34-1.35-2.39c0.57-1.03,1.54-2.28,3.17-3.52
		c2.87-2.18,5.27-6.05,6.24-7.77c0.3-0.53,0.87-0.86,1.48-0.86H289.22"/>
	<path style="fill:#263238;" d="M281.5,342.85c-1.21,0-2.71-0.03-4.48-0.1c-0.78-0.03-1.48-0.46-1.87-1.14
		c-0.39-0.68-0.39-1.5-0.01-2.18c0.76-1.36,1.88-2.61,3.34-3.71c2.81-2.13,5.19-6.01,6.08-7.58c0.41-0.73,1.19-1.18,2.02-1.18h2.39
		l1.94-1.8c0.38-0.35,0.89-0.53,1.4-0.49c0.51,0.04,0.99,0.29,1.31,0.69l2.94,3.68c0.67,0.84,0.62,2.05-0.11,2.83
		c-6.46,6.85-10.31,10.47-11.44,10.76C284.46,342.78,283.28,342.85,281.5,342.85 M286.59,328.2c-0.39,0-0.75,0.21-0.94,0.54
		c-0.93,1.64-3.42,5.7-6.41,7.96c-1.32,1-2.33,2.12-3,3.32c-0.17,0.3-0.17,0.65,0,0.96c0.17,0.3,0.48,0.49,0.83,0.51
		c4.06,0.15,6.85,0.12,7.65-0.08c0.69-0.19,4.32-3.48,10.84-10.4c0.31-0.33,0.33-0.84,0.05-1.19l-2.95-3.68
		c-0.11-0.13-0.26-0.22-0.43-0.23c-0.17-0.02-0.33,0.04-0.46,0.16l-2.12,1.96c-0.12,0.11-0.27,0.17-0.42,0.17H286.59z"/>
	<path style="fill:#263238;" d="M280.43,340.61h-3.04c-0.35,0-0.62-0.28-0.62-0.63s0.28-0.62,0.62-0.62h3.04
		c2.08,0,4.07-0.78,5.6-2.2l7.51-6.97c0.25-0.23,0.65-0.22,0.88,0.03c0.23,0.25,0.22,0.65-0.03,0.88l-7.52,6.97
		C285.12,339.71,282.83,340.61,280.43,340.61"/>
	<path style="fill:#263238;" d="M285.21,335.25c-0.14,0-0.29-0.05-0.41-0.16l-2.63-2.32c-0.26-0.23-0.28-0.62-0.05-0.88
		c0.23-0.26,0.62-0.28,0.88-0.06l2.63,2.32c0.26,0.23,0.28,0.62,0.06,0.88C285.56,335.18,285.38,335.25,285.21,335.25"/>
	<path style="fill:#263238;" d="M240.08,323.98c0.31,1.43,12.45-0.86,12.45-0.86s-0.89-49.98,20.39-72.79l-19.18-8.2
		C253.74,242.14,228.43,270.55,240.08,323.98"/>
	<path style="fill:#263238;" d="M266.55,242.33c0,0-7.99,52.88,17.35,82.53l8.62-3.28c0,0-2.27-19.73-6.38-30.49
		c-1.91-5.01-5.41-12.49-2.55-20.3c2.85-7.81,4.4-23.2,4.4-23.2L266.55,242.33"/>
	<path style="fill:#FFFFFF;" d="M291.29,184.15c-0.1-1.55-1.21-2.83-2.72-3.16c-5.25-1.12-17.63-3.02-27.62,1.2
		c-1.17,0.5-2.02,1.54-2.29,2.79l-11.03,51.8c-0.68,3.21,1.05,6.45,4.1,7.64c6.43,2.52,17.8,6.05,28.57,4.74
		C294.57,247.43,292.08,196.25,291.29,184.15"/>
	<path style="fill:#025BA6;" d="M223.7,149.11c0,0,10.08,33.51,41.58,30.92c0.52-0.04,5.82-0.38,5.38-0.1
		c-7.5,4.79-24.83,61.79-24.84,60.77c0-1.1,6.43-38.17,6.43-38.17s-32.9-4.65-33.74-51.43L223.7,149.11"/>
	<path style="fill:#025BA6;" d="M281.71,254.7l3.72-73.88l-4.31-0.96c0.01-0.43,3.19,0.01,3.61,0.07
		c6.16,0.94,11.37,2.38,13.84,5.32c0,0-2.11,61.33-3.74,72.3c-0.34,2.29-5.66,2-9.45,1.5C283.23,258.76,281.64,256.87,281.71,254.7"
		/>
	<path style="fill:#025BA6;" d="M275.96,232.54l1.18,6.01c0,0,16.75,5.73,28.75-11.3c12-17.04-7.31-42.01-7.31-42.01l-5.63,23.81
		C292.94,209.06,296.33,231.4,275.96,232.54"/>
	<path style="fill:#263238;" d="M269.88,246.35c-0.11,0-0.22-0.03-0.31-0.08c-0.16,0.01-0.33-0.04-0.46-0.16
		c-0.26-0.23-0.28-0.62-0.05-0.88c1.14-1.28,3.95-5.06,3.36-7.13c-0.07-0.24-0.14-0.48-0.21-0.71c-0.47-1.55-0.91-3.02-0.09-3.97
		c0.64-0.75,1.86-0.95,3.93-0.65l0.42,0.06l1.05,4.44c0,0.08,0.56,8.44-7.58,9.08C269.92,246.35,269.9,246.35,269.88,246.35
		 M274.43,233.89c-0.9,0-1.24,0.2-1.37,0.35c-0.37,0.43-0.01,1.63,0.34,2.79c0.07,0.24,0.15,0.48,0.22,0.73
		c0.66,2.32-1.43,5.52-2.73,7.21c5.61-1.09,5.42-6.91,5.38-7.55l-0.82-3.46C275.05,233.91,274.71,233.89,274.43,233.89z"/>
	<path style="fill:#FFFFFF;" d="M272.86,180l-0.5-7.03c-0.34-0.02-4.58-0.41-4.75-2.02c-0.11-1.01,0.66-1.7,1.15-3.57
		c0.05-0.2,0.04-0.41-0.04-0.6l-0.33-0.78c-0.07-0.26,0.02-0.54,0.23-0.71l0.18-0.14c0.64-0.52,1.72-2.26,2.14-2.97
		c0.4-0.66,1.06-1.89,1.52-2.11c1.29-0.62,6.51-3.35,9.43,1.43c2.27,3.73-1.44,8.85-2.8,10.53c-0.33,0.41,2.21,8.37,2.21,8.37
		l3.27,0.79c0,0-2.53,4.49-10.2,2.64c-5.46-1.32-4.6-3.36-4.6-3.36L272.86,180"/>
	<path style="fill:#263238;" d="M277.89,184.9c-1.08,0-2.3-0.14-3.68-0.47c-2.66-0.65-4.31-1.57-4.9-2.74
		c-0.4-0.79-0.16-1.41-0.13-1.47c0.08-0.2,0.27-0.34,0.48-0.37l2.52-0.37l-0.42-5.92c-1.36-0.16-4.59-0.72-4.79-2.53
		c-0.08-0.73,0.18-1.3,0.49-1.96c0.22-0.49,0.47-1.05,0.68-1.83c0.02-0.07,0.01-0.14-0.01-0.2l-0.34-0.79
		c-0.01-0.03-0.02-0.06-0.03-0.08c-0.13-0.5,0.04-1.03,0.43-1.35l0.18-0.15c0.45-0.37,1.33-1.68,2.01-2.81l0.17-0.29
		c0.61-1.05,1.08-1.81,1.61-2.06l0.13-0.07c4.63-2.24,8.02-1.65,10.09,1.73c2.37,3.87-1.02,8.96-2.73,11.11
		c0.07,0.83,1.07,4.36,2.1,7.59l2.93,0.71c0.19,0.05,0.35,0.18,0.43,0.36c0.08,0.18,0.07,0.39-0.03,0.56
		C285.01,181.66,283.12,184.9,277.89,184.9 M270.38,181c0.02,0.06,0.05,0.12,0.08,0.18c0.26,0.45,1.13,1.32,4.05,2.02
		c5.25,1.27,7.91-0.57,8.96-1.65l-2.33-0.56c-0.21-0.05-0.38-0.21-0.45-0.42c-2.63-8.28-2.33-8.65-2.1-8.95
		c1.49-1.86,4.75-6.53,2.75-9.81c-2.53-4.14-7.01-1.97-8.48-1.26l-0.14,0.07c-0.25,0.15-0.82,1.14-1.07,1.56l-0.18,0.3
		c-0.44,0.74-1.55,2.53-2.29,3.14l-0.18,0.15c-0.01,0.01-0.02,0.03-0.02,0.04l0.31,0.72c0.13,0.31,0.16,0.67,0.07,1.01
		c-0.23,0.88-0.52,1.52-0.75,2.03c-0.28,0.61-0.42,0.95-0.38,1.32c0.08,0.72,2.52,1.35,4.17,1.46c0.31,0.02,0.56,0.27,0.58,0.58
		l0.49,7.03c0.02,0.32-0.21,0.61-0.53,0.66L270.38,181z"/>
	<path style="fill:#263238;" d="M280.27,155.41c-1.41-0.31-3.04-0.09-3.73-0.34c-1.11-0.41-1.14-1.73-2.67-2.11
		c-1.85-0.45-2.63,0.34-3.35,1.44c-0.12,0.19-0.23,0.39-0.31,0.62c-1.16,3.13,0.31,4.66,0.96,5.16c0,0,4.17,2.16,4.89,2.77
		c0.67,0.58,1.44,1.94,0.95,3.91c-0.06,0.25,0.05,0.52,0.26,0.65c0.25,0.15,0.58,0.08,0.75-0.17c0.54-0.79,1.73-2.31,2.57-1.95
		c1.06,0.45,0.73,3.63-1.61,4c-0.72,0.11-1.3,0.85-1.23,1.6c0.05,0.49,0.51,1.09,1.2,1.24c0.42,0.1,0.83-0.07,1.2-0.31
		c1.53-0.98,5.83-5.11,6.36-8.82C287.15,158.65,282.15,155.82,280.27,155.41"/>
	<path style="fill:#263238;" d="M271.83,173.48c-0.31,0-0.57-0.25-0.58-0.56c-0.01-0.32,0.24-0.59,0.56-0.6
		c0.01,0,1.45-0.07,2.41-0.89c0.24-0.21,0.61-0.18,0.82,0.07c0.21,0.25,0.18,0.61-0.07,0.82c-1.28,1.09-3.05,1.17-3.12,1.17
		C271.85,173.48,271.84,173.48,271.83,173.48"/>
	<path style="fill:#FFFFFF;" d="M278.94,232.04c-0.35,0-0.63-0.28-0.63-0.63c0-0.34,0.28-0.62,0.63-0.62
		c0.39,0,9.53-0.24,13.34-15.15c0.08-0.33,0.43-0.54,0.76-0.45c0.33,0.09,0.53,0.43,0.45,0.76
		C289.42,231.85,279.37,232.04,278.94,232.04"/>
	<path style="fill:#FFFFFF;" d="M275.96,295.91c-0.04,0-0.08,0-0.12-0.01l-4.12-0.8c-0.34-0.06-0.56-0.39-0.49-0.73
		c0.06-0.34,0.39-0.56,0.73-0.5l4.12,0.8c0.34,0.07,0.56,0.39,0.49,0.73C276.51,295.7,276.25,295.91,275.96,295.91"/>
	<path style="fill:#FFFFFF;" d="M247.48,320.38c-0.01,0-0.02,0-0.03,0c-0.34-0.01-0.61-0.3-0.6-0.65
		c0.43-10.83-7.19-21.77-7.27-21.88c-0.2-0.28-0.13-0.67,0.15-0.87c0.28-0.2,0.67-0.13,0.87,0.15c0.32,0.46,7.94,11.4,7.5,22.65
		C248.09,320.12,247.81,320.38,247.48,320.38"/>
	<polyline style="fill:#FFFFFF;" points="3.97,327.18 5,337.1 10.25,337.04 10.18,326.45 3.97,327.18 	"/>
	<path style="fill:#263238;" d="M5,337.72c-0.32,0-0.59-0.24-0.62-0.56l-1.03-9.92c-0.04-0.34,0.21-0.64,0.55-0.68l6.21-0.73
		c0.18-0.02,0.35,0.03,0.49,0.15c0.13,0.12,0.21,0.28,0.21,0.46l0.07,10.58c0,0.34-0.27,0.63-0.62,0.63L5,337.72
		C5,337.72,5,337.72,5,337.72 M4.65,327.73l0.91,8.74l4.07-0.05l-0.06-9.26L4.65,327.73z"/>
	<polyline style="fill:#FFFFFF;" points="51.11,325.43 56.09,336.2 61.14,336.2 57.86,324.64 51.11,325.43 	"/>
	<path style="fill:#263238;" d="M61.14,336.82h-5.05c-0.24,0-0.46-0.14-0.57-0.36l-4.98-10.77c-0.08-0.18-0.08-0.39,0.02-0.57
		c0.1-0.17,0.27-0.29,0.47-0.31l6.75-0.79c0.31-0.03,0.59,0.16,0.67,0.45l3.28,11.56c0.05,0.19,0.02,0.39-0.1,0.55
		C61.52,336.73,61.34,336.82,61.14,336.82 M56.49,335.57h3.83l-2.91-10.25l-5.36,0.63L56.49,335.57z"/>
	<path style="fill:#26C4CD;" d="M26.89,341.09c-1.84-2.19-6.22-5.65-16.52-8.62c-0.51-0.15-1.05,0.02-1.4,0.42l-1.91,2.19
		l-2.79-1.46c-0.73-0.38-1.62,0.03-1.79,0.84c-0.31,1.44-0.7,3.73-0.75,6.36c-0.03,1.25,0.95,2.29,2.19,2.34
		c4.41,0.18,14.67,0.52,21.93,0.25C27.01,343.36,27.64,341.98,26.89,341.09"/>
	<path style="fill:#263238;" d="M19.62,344.13c-6.15,0-12.66-0.23-15.73-0.35c-1.57-0.06-2.82-1.4-2.79-2.98
		c0.06-2.67,0.45-5,0.76-6.48c0.12-0.58,0.5-1.05,1.03-1.3c0.53-0.25,1.14-0.24,1.66,0.04l2.35,1.23l1.59-1.82
		c0.51-0.58,1.31-0.82,2.04-0.61c10.27,2.96,14.81,6.43,16.82,8.82c0.5,0.6,0.61,1.41,0.3,2.12c-0.32,0.72-1.01,1.19-1.8,1.22
		C23.94,344.1,21.8,344.13,19.62,344.13 M3.69,334.1c-0.09,0-0.18,0.02-0.27,0.06c-0.18,0.08-0.3,0.24-0.34,0.43
		c-0.31,1.43-0.68,3.67-0.74,6.24c-0.02,0.9,0.7,1.67,1.59,1.7c4.14,0.17,14.57,0.52,21.88,0.25c0.31-0.01,0.58-0.19,0.7-0.48
		c0.12-0.28,0.08-0.58-0.11-0.81c-1.9-2.25-6.25-5.55-16.21-8.42c-0.27-0.08-0.57,0.01-0.76,0.23l-1.92,2.19
		c-0.19,0.22-0.5,0.28-0.76,0.14l-2.79-1.46C3.88,334.12,3.79,334.1,3.69,334.1z"/>
	<path style="fill:#263238;" d="M24.86,342.32c-0.01,0-0.01,0-0.02,0l-21.29-0.7c-0.34-0.01-0.61-0.3-0.6-0.65
		c0.01-0.34,0.3-0.61,0.64-0.61l21.28,0.71c0.35,0.01,0.61,0.3,0.6,0.64C25.47,342.05,25.19,342.32,24.86,342.32"/>
	<path style="fill:#263238;" d="M14.21,338.7c-0.11,0-0.21-0.03-0.31-0.08c-0.3-0.17-0.4-0.55-0.23-0.85l2.09-3.61
		c0.17-0.3,0.55-0.4,0.85-0.23c0.3,0.17,0.4,0.56,0.23,0.86l-2.09,3.61C14.64,338.59,14.43,338.7,14.21,338.7"/>
	<path style="fill:#26C4CD;" d="M77.5,340.17c-1.84-2.19-6.23-5.65-16.52-8.62c-0.51-0.15-1.05,0.02-1.4,0.42l-1.92,2.19l-2.79-1.46
		c-0.73-0.38-1.62,0.03-1.79,0.84c-0.31,1.43-0.7,3.73-0.75,6.36c-0.03,1.25,0.95,2.29,2.19,2.34c4.41,0.18,14.67,0.52,21.93,0.25
		C77.62,342.44,78.25,341.06,77.5,340.17"/>
	<path style="fill:#263238;" d="M70.24,343.21c-6.15,0-12.67-0.23-15.75-0.35c-1.57-0.06-2.82-1.4-2.79-2.98
		c0.06-2.67,0.45-4.99,0.76-6.48c0.12-0.57,0.5-1.05,1.03-1.3c0.53-0.25,1.14-0.24,1.66,0.03l2.35,1.23l1.59-1.82
		c0.51-0.58,1.31-0.82,2.05-0.61c10.27,2.96,14.81,6.43,16.82,8.82c0.5,0.6,0.61,1.41,0.3,2.12c-0.32,0.72-1.01,1.19-1.8,1.22
		C74.56,343.18,72.42,343.21,70.24,343.21 M54.3,333.18c-0.09,0-0.18,0.02-0.27,0.06c-0.18,0.08-0.3,0.24-0.34,0.43
		c-0.31,1.43-0.68,3.67-0.74,6.24c-0.02,0.9,0.7,1.67,1.59,1.7c4.15,0.17,14.59,0.52,21.88,0.25c0.31-0.01,0.58-0.19,0.7-0.48
		c0.12-0.28,0.08-0.58-0.11-0.81c-1.9-2.26-6.25-5.55-16.21-8.42c-0.27-0.08-0.57,0.01-0.76,0.23l-1.92,2.19
		c-0.19,0.22-0.5,0.28-0.76,0.14l-2.79-1.46C54.49,333.2,54.4,333.18,54.3,333.18z"/>
	<path style="fill:#263238;" d="M75.47,341.4c-0.01,0-0.01,0-0.02,0l-21.29-0.71c-0.34-0.01-0.61-0.3-0.6-0.64
		c0.01-0.35,0.31-0.62,0.64-0.6l21.29,0.7c0.34,0.01,0.61,0.3,0.6,0.64C76.08,341.13,75.8,341.4,75.47,341.4"/>
	<path style="fill:#263238;" d="M64.82,337.78c-0.11,0-0.21-0.03-0.31-0.08c-0.3-0.17-0.4-0.56-0.23-0.85l2.09-3.61
		c0.17-0.3,0.55-0.4,0.85-0.23c0.3,0.17,0.4,0.55,0.23,0.85l-2.09,3.61C65.25,337.67,65.04,337.78,64.82,337.78"/>
	<path style="fill:#263238;" d="M12.04,228.11c0,0-5.58,7.5-7.43,20.77c-1.84,13.27-1.28,28.06-2.67,34.62
		c-1.39,6.56-4.18,29.45,1.42,44.64h8.25c0,0,11.71-60.95,15.84-70.77c0,0,3.15,8.73,4.71,17.06c1.56,8.33,1.29,18.97,4.94,28.12
		c3.65,9.15,14.2,25.96,14.2,25.96l9.06-0.39c0,0-14.73-63.57-16.56-94.43C43.78,233.7,22.83,222.2,12.04,228.11"/>
	<path style="fill:#FFFFFF;" d="M26.58,262.4c-0.05,0-0.1-0.01-0.15-0.02c-0.33-0.08-0.54-0.42-0.45-0.76l2.6-10.31
		c0.04-0.16,0.14-0.3,0.29-0.39l2.81-1.67c0.3-0.18,0.68-0.08,0.86,0.22c0.18,0.3,0.08,0.68-0.22,0.86l-2.59,1.53l-2.54,10.06
		C27.12,262.21,26.86,262.4,26.58,262.4"/>
	<path style="fill:#FFFFFF;" d="M12.08,295.72c-0.26,0-0.5-0.16-0.59-0.41c-0.12-0.32,0.05-0.68,0.37-0.8
		c3.56-1.29,4.59-4.07,4.63-4.19c0.12-0.32,0.47-0.49,0.8-0.38c0.32,0.11,0.5,0.47,0.38,0.79c-0.05,0.14-1.24,3.45-5.38,4.95
		C12.22,295.71,12.15,295.72,12.08,295.72"/>
	<path style="fill:#26C4CD;" d="M105.76,174.65c0,0-20.96,10.15-33.88,9.59c-12.92-0.56-13.29-2.79-25.61-1.97
		c-12.32,0.82-17.67-1.03-30.65,19.91c-12.98,20.94-15.38,26.93-3.92,33.93c11.46,7,31.27,0.84,34.57,3.67
		c4.48,3.85,8.31-9.35,10.63-20.26c1.4-6.58,6.48-11.8,13.06-13.2c8.5-1.8,21.54-7.95,37.25-26.47L105.76,174.65"/>
	<path style="fill:#263238;" d="M48.1,175.49c0,0-5.08-4.7-6.94-5.79c-1.86-1.09-4.18-5.58,2.08-8.33c2.03-0.89,2.43-3.36,6.34-3.78
		c3.91-0.42,7.16,1.56,7.58,4.03c0.42,2.47-1.92,4.61-3.66,4.89C51.74,166.8,48.1,175.49,48.1,175.49"/>
	<path style="fill:#FFFFFF;" d="M56.93,169.69l0.54-0.79l-2.15-2.76l-1.48-3.62c-4.17-0.28-5.84,0.86-5.9,4.06
		c-0.03,2.05-1.11,2.1-1.11,2.1s-1.59-1.71-2.41,0.32c-0.82,2.03,2.59,3.43,2.59,3.43l0.72,1.52l-7.06,9.6
		c0,0,11.37,3.01,11.49,1.22c0.03-0.51-0.14-0.94-0.4-1.3c-1.31-1.79,1.06-6.62,1.06-6.62l3.8-1.53c0.7-0.28,1.07-1.04,0.86-1.77
		l-0.75-2.58C56.6,170.54,56.67,170.07,56.93,169.69"/>
	<path style="fill:#263238;" d="M50.51,185.96c-2.95,0-8.14-1.3-9.99-1.79c-0.2-0.05-0.36-0.2-0.43-0.4
		c-0.07-0.19-0.04-0.41,0.09-0.58l6.84-9.31l-0.46-0.97c-1.47-0.67-3.49-2.2-2.7-4.15c0.4-0.98,0.98-1.28,1.41-1.36
		c0.69-0.13,1.33,0.25,1.7,0.54c0.16-0.17,0.35-0.58,0.37-1.38c0.03-1.61,0.45-2.76,1.29-3.53c1.04-0.95,2.71-1.32,5.28-1.14
		c0.24,0.02,0.45,0.17,0.54,0.39l1.44,3.54l2.1,2.69c0.17,0.22,0.18,0.51,0.02,0.74l-0.54,0.79c0,0,0,0,0,0
		c-0.15,0.22-0.2,0.49-0.12,0.75l0.75,2.59c0.3,1.03-0.23,2.11-1.22,2.52l-3.57,1.44c-0.83,1.77-1.77,4.73-1.01,5.76
		c0.39,0.53,0.56,1.11,0.52,1.72c-0.02,0.31-0.18,0.59-0.45,0.78C51.99,185.86,51.34,185.96,50.51,185.96 M41.73,183.19
		c4.27,1.07,8.93,1.86,9.82,1.44c-0.01-0.27-0.1-0.53-0.29-0.78c-1.49-2.03,0.74-6.73,1-7.26c0.07-0.14,0.18-0.25,0.33-0.3l3.8-1.54
		c0.4-0.16,0.61-0.6,0.49-1.01l-0.75-2.58c-0.18-0.62-0.07-1.28,0.29-1.81l0.28-0.41l-1.87-2.4c-0.04-0.04-0.06-0.1-0.09-0.15
		l-1.33-3.26c-1.98-0.09-3.24,0.18-3.96,0.84c-0.58,0.53-0.86,1.37-0.88,2.63c-0.04,2.61-1.64,2.71-1.71,2.72
		c-0.19,0.01-0.36-0.07-0.49-0.2c-0.2-0.22-0.63-0.52-0.89-0.47c-0.22,0.04-0.39,0.39-0.48,0.6c-0.57,1.4,2.22,2.61,2.25,2.62
		c0.14,0.06,0.26,0.17,0.33,0.31l0.72,1.52c0.1,0.21,0.07,0.45-0.06,0.64L41.73,183.19z M56.93,169.69L56.93,169.69L56.93,169.69z"
		/>
	<path style="fill:#4499D3;" d="M244.36,138.26L73.51,179.64c-2.02,0.49-3.25,2.52-2.77,4.54l23.6,97.68
		c0.49,2.02,2.52,3.26,4.53,2.77l170.85-41.38c2.01-0.49,3.26-2.52,2.77-4.54l-23.6-97.68
		C248.41,139.02,246.38,137.78,244.36,138.26"/>
	<path style="fill:#263238;" d="M98,285.35c-1.98,0-3.77-1.35-4.26-3.35l-23.6-97.67c-0.28-1.14-0.09-2.32,0.52-3.32
		c0.61-1,1.57-1.7,2.71-1.98l170.85-41.37c2.35-0.57,4.72,0.88,5.29,3.23l23.6,97.67c0.28,1.14,0.09,2.32-0.52,3.32
		c-0.61,1-1.57,1.7-2.71,1.98L99.03,285.23C98.68,285.31,98.34,285.35,98,285.35 M244.51,138.87L73.66,180.25
		c-0.81,0.2-1.5,0.7-1.94,1.41c-0.44,0.72-0.57,1.56-0.37,2.37l23.6,97.68c0.41,1.68,2.1,2.72,3.78,2.31l170.85-41.38
		c1.68-0.41,2.71-2.1,2.31-3.78l-23.6-97.68C247.88,139.5,246.19,138.46,244.51,138.87z"/>
	<polyline style="fill:#025BA6;" points="254.72,221.04 149.01,246.64 131.79,175.37 237.5,149.77 254.72,221.04 	"/>
	<polyline style="fill:#CADDFF;" points="258.37,236.15 105.75,273.11 103.85,265.29 256.48,228.33 258.37,236.15 	"/>
	<polyline style="fill:#FFFFFF;" points="133.29,217.01 94.46,226.42 102.09,258 140.92,248.6 133.29,217.01 	"/>
	<polyline style="fill:#FFFFFF;" points="123.7,177.33 84.87,186.73 92.5,218.32 131.33,208.91 123.7,177.33 	"/>
	<path style="fill:#CADDFF;" d="M206.31,193.29c1.69,6.99-2.6,14.02-9.58,15.71c-6.98,1.69-14.01-2.6-15.7-9.59
		c-1.69-6.99,2.6-14.03,9.58-15.71C197.6,182.01,204.63,186.31,206.31,193.29"/>
	<path style="fill:#FFFFFF;" d="M197.27,193.49l-4.58-1.72c-1.75-0.66-3.53,0.92-3.09,2.74l1.29,5.33c0.44,1.82,2.74,2.41,4,1.02
		l3.29-3.62C199.29,196.03,198.81,194.07,197.27,193.49"/>
	<path style="fill:#FFFFFF;" d="M86.78,176.26c0,0,4.23-4.99,9.69-2.77c5.46,2.23,3.07,4.15,0.93,4.01
		C95.26,177.35,90.42,175.05,86.78,176.26"/>
	<path style="fill:#263238;" d="M97.63,178.13c-0.09,0-0.18,0-0.27-0.01c-0.72-0.05-1.67-0.31-2.76-0.61
		c-2.35-0.64-5.28-1.44-7.62-0.66c-0.27,0.09-0.56-0.01-0.71-0.24c-0.16-0.23-0.14-0.54,0.04-0.75c0.05-0.06,4.59-5.31,10.4-2.94
		c2.74,1.12,3.99,2.33,3.69,3.6C100.15,177.59,98.84,178.13,97.63,178.13 M89.15,175.28c2.03,0,4.12,0.57,5.78,1.03
		c1.03,0.28,1.92,0.52,2.52,0.57c0.87,0.06,1.66-0.3,1.74-0.64c0.07-0.3-0.46-1.15-2.95-2.16c-3.17-1.29-5.88,0.04-7.47,1.22
		C88.89,175.29,89.02,175.28,89.15,175.28z"/>
	<path style="fill:#FFFFFF;" d="M80.31,229l3.92-4.73c0.13-0.16,0.3-0.27,0.49-0.34l6.61-2.21c0.12-0.04,0.24,0.03,0.26,0.16
		c0.06,0.37,0.08,1.09-0.5,1.41c-0.61,0.33,1.33-0.27,2.27-0.56c0.28-0.09,0.56,0.15,0.51,0.44c-0.05,0.32-0.21,0.72-0.66,1.07
		c0,0,0.55,3.63-3.61,4.77c-4.16,1.14-7.28,3.77-8.25,4.26C80.38,233.75,78.35,231.37,80.31,229"/>
	<path style="fill:#263238;" d="M81.08,233.95c-0.52,0-1.08-0.31-1.52-0.86c-0.84-1.06-1.08-2.85,0.28-4.49l3.92-4.73
		c0.2-0.25,0.47-0.43,0.77-0.53l6.61-2.21c0.23-0.08,0.48-0.05,0.69,0.08c0.21,0.13,0.35,0.34,0.38,0.58
		c0.03,0.22,0.04,0.44,0.03,0.63c0.26-0.08,0.57-0.17,0.94-0.29c0.34-0.11,0.7-0.03,0.97,0.2c0.27,0.23,0.4,0.58,0.35,0.94
		c-0.05,0.34-0.2,0.81-0.63,1.24c0.03,1.04-0.25,4.05-4.08,5.1c-3.06,0.84-5.53,2.5-7.01,3.5c-0.5,0.34-0.86,0.58-1.13,0.72
		C81.46,233.91,81.27,233.95,81.08,233.95 M90.96,222.5l-6.04,2.02c-0.08,0.03-0.15,0.08-0.21,0.14l-3.92,4.73
		c-1.09,1.31-0.58,2.41-0.4,2.72c0.27,0.45,0.6,0.6,0.69,0.58c0.19-0.1,0.56-0.34,0.98-0.63c1.54-1.04,4.12-2.78,7.38-3.67
		c3.58-0.98,3.17-3.94,3.15-4.07c-0.03-0.22,0.06-0.45,0.23-0.59c0.11-0.09,0.2-0.18,0.27-0.29c-2.15,0.68-2.46,0.74-2.7,0.16
		c-0.05-0.13-0.19-0.57,0.39-0.88C90.88,222.69,90.93,222.6,90.96,222.5z M80.31,229L80.31,229L80.31,229z"/>
	<path style="fill:#26C4CD;" d="M23.6,201.6c0,0,9.27,47.11,56.85,33.55l-2.07-7.14c0,0-30.01,2.24-38.06-29.33
		C40.32,198.68,34.02,187.57,23.6,201.6"/>
	<path style="fill:#FFFFFF;" d="M47.56,234.68c-0.05,0-0.11-0.01-0.17-0.02c-12.09-3.33-20.4-21.49-20.75-22.26
		c-0.14-0.31,0-0.68,0.31-0.83c0.31-0.14,0.68,0,0.83,0.31c0.08,0.18,8.42,18.4,19.94,21.57c0.33,0.09,0.53,0.44,0.44,0.77
		C48.09,234.5,47.83,234.68,47.56,234.68"/>
	<path style="fill:#FFFFFF;" d="M62.37,224.9c-0.05,0-0.09-0.01-0.14-0.01c-5.12-1.15-9.49-4.68-12.99-10.48
		c-4.98-8.26-6.52-18.44-6.27-19.37c0.09-0.33,0.43-0.53,0.77-0.44c0.32,0.09,0.52,0.41,0.45,0.73
		c-0.14,1.65,3.66,25.05,18.32,28.34c0.34,0.08,0.55,0.41,0.47,0.75C62.92,224.71,62.66,224.9,62.37,224.9 M44.18,195.34
		c0,0.01,0,0.01-0.01,0.02C44.18,195.36,44.18,195.35,44.18,195.34z"/>
	<polyline style="fill:#4499D3;" points="247.5,32.19 278.68,41.26 300.81,16.63 247.5,32.19 	"/>
	<polyline style="fill:#025BA6;" points="263.04,46.84 258.68,35.44 293.14,20.9 264.17,37.04 270.68,38.94 263.04,46.84 	"/>
	<path style="fill:#4499D3;" d="M263.9,44.35c-0.02,0-0.05,0-0.07,0c-0.32-0.04-0.55-0.32-0.51-0.64l0.73-6.36
		c0.04-0.32,0.33-0.55,0.64-0.51c0.32,0.04,0.55,0.32,0.51,0.64l-0.73,6.36C264.44,44.13,264.19,44.35,263.9,44.35"/>
	<path style="fill:#263238;" d="M279.99,3.67c-0.16,0-0.32-0.06-0.44-0.18l-1.83-1.83c-0.24-0.24-0.24-0.64,0-0.88
		c0.24-0.24,0.64-0.24,0.88,0l1.83,1.83c0.24,0.24,0.24,0.64,0,0.88C280.31,3.61,280.15,3.67,279.99,3.67"/>
	<path style="fill:#263238;" d="M286.38,10.06c-0.16,0-0.32-0.06-0.44-0.18l-1.82-1.83c-0.24-0.24-0.24-0.64,0-0.88
		c0.24-0.24,0.64-0.24,0.88,0l1.83,1.83c0.24,0.24,0.24,0.64,0,0.88C286.7,10,286.54,10.06,286.38,10.06"/>
	<path style="fill:#263238;" d="M278.16,10.06c-0.16,0-0.32-0.06-0.44-0.18c-0.24-0.25-0.24-0.64,0-0.88l1.83-1.83
		c0.24-0.24,0.64-0.24,0.88,0c0.24,0.25,0.24,0.64,0,0.88l-1.82,1.83C278.48,10,278.33,10.06,278.16,10.06"/>
	<path style="fill:#263238;" d="M284.55,3.67c-0.16,0-0.32-0.06-0.44-0.18c-0.25-0.24-0.25-0.64,0-0.88l1.82-1.83
		c0.24-0.24,0.64-0.24,0.88,0c0.24,0.24,0.24,0.64,0,0.88l-1.83,1.83C284.87,3.61,284.71,3.67,284.55,3.67"/>
	<path style="fill:#263238;" d="M125.79,157.02c-0.15,0-0.29-0.08-0.37-0.22c-0.79-1.47-1.49-3.02-2.09-4.6
		c-0.08-0.22,0.03-0.46,0.24-0.54c0.21-0.08,0.46,0.03,0.54,0.24c0.58,1.54,1.27,3.06,2.04,4.5c0.11,0.2,0.03,0.46-0.17,0.56
		C125.92,157.01,125.86,157.02,125.79,157.02 M122.26,147.7c-0.19,0-0.36-0.13-0.4-0.32c-0.39-1.61-0.69-3.29-0.88-4.97
		c-0.03-0.23,0.14-0.43,0.36-0.46c0.23-0.03,0.44,0.13,0.46,0.36c0.2,1.65,0.49,3.29,0.87,4.87c0.05,0.22-0.09,0.45-0.31,0.5
		C122.32,147.7,122.29,147.7,122.26,147.7z M121.08,137.8c-0.23,0-0.41-0.18-0.42-0.41v-0.23c0-1.59,0.08-3.2,0.25-4.81
		c0.02-0.23,0.23-0.39,0.46-0.37c0.23,0.02,0.4,0.23,0.37,0.46c-0.16,1.58-0.24,3.16-0.24,4.72v0.23
		C121.5,137.61,121.31,137.79,121.08,137.8C121.08,137.8,121.08,137.8,121.08,137.8z M122.08,127.87c-0.03,0-0.06,0-0.08-0.01
		c-0.22-0.05-0.37-0.27-0.32-0.49c0.34-1.63,0.76-3.27,1.26-4.88c0.07-0.22,0.3-0.34,0.52-0.27c0.22,0.07,0.34,0.3,0.27,0.52
		c-0.49,1.58-0.91,3.19-1.24,4.8C122.45,127.73,122.28,127.87,122.08,127.87z M125.05,118.34c-0.05,0-0.11-0.01-0.16-0.03
		c-0.21-0.09-0.31-0.34-0.22-0.55c0.65-1.54,1.38-3.07,2.18-4.54c0.11-0.2,0.36-0.28,0.56-0.17c0.2,0.11,0.28,0.36,0.17,0.56
		c-0.78,1.45-1.5,2.95-2.14,4.47C125.36,118.24,125.21,118.34,125.05,118.34z M129.79,109.56c-0.08,0-0.16-0.02-0.23-0.07
		c-0.19-0.13-0.24-0.39-0.11-0.58c0.94-1.39,1.96-2.75,3.03-4.03c0.14-0.18,0.41-0.2,0.58-0.05c0.18,0.15,0.2,0.41,0.05,0.59
		c-1.05,1.26-2.05,2.59-2.97,3.96C130.05,109.49,129.92,109.56,129.79,109.56z M136.18,101.89c-0.11,0-0.22-0.04-0.3-0.12
		c-0.16-0.16-0.16-0.43,0-0.59c1.19-1.16,2.45-2.29,3.76-3.35c0.18-0.14,0.44-0.12,0.59,0.06c0.14,0.18,0.12,0.44-0.06,0.59
		c-1.28,1.04-2.53,2.15-3.7,3.3C136.39,101.85,136.29,101.89,136.18,101.89z M143.92,95.59c-0.13,0-0.27-0.06-0.35-0.18
		c-0.13-0.19-0.08-0.45,0.11-0.58c1.37-0.93,2.81-1.82,4.28-2.64c0.2-0.11,0.45-0.04,0.56,0.16c0.11,0.2,0.04,0.45-0.16,0.57
		c-1.45,0.81-2.87,1.69-4.22,2.6C144.08,95.57,144,95.59,143.92,95.59z M152.62,90.7c-0.16,0-0.31-0.09-0.38-0.24
		c-0.1-0.21-0.01-0.46,0.2-0.55c1.5-0.69,3.06-1.34,4.64-1.92c0.21-0.08,0.46,0.03,0.53,0.25c0.08,0.22-0.03,0.46-0.25,0.53
		c-1.56,0.58-3.1,1.22-4.58,1.9C152.73,90.69,152.67,90.7,152.62,90.7z M226.26,89.37L226.26,89.37c-0.2,0-0.39,0-0.59-0.01
		c-1.42-0.03-2.91-0.1-4.43-0.22c-0.23-0.02-0.4-0.22-0.38-0.45c0.02-0.23,0.22-0.4,0.45-0.38c1.51,0.12,2.98,0.19,4.38,0.21
		c0.19,0,0.38,0.01,0.57,0.01c0.23,0,0.41,0.19,0.41,0.42C226.68,89.18,226.49,89.37,226.26,89.37z M231.25,89.17
		c-0.21,0-0.39-0.16-0.41-0.38c-0.02-0.23,0.15-0.43,0.38-0.45c1.66-0.15,3.31-0.38,4.9-0.68c0.23-0.04,0.44,0.1,0.49,0.33
		c0.04,0.23-0.11,0.45-0.33,0.49c-1.62,0.31-3.3,0.54-4.99,0.69C231.28,89.17,231.27,89.17,231.25,89.17z M216.31,88.63
		c-0.02,0-0.04,0-0.05,0c-1.51-0.19-3.14-0.43-4.95-0.72c-0.23-0.04-0.38-0.25-0.35-0.48c0.03-0.23,0.25-0.38,0.48-0.35
		c1.81,0.29,3.42,0.52,4.93,0.72c0.23,0.03,0.39,0.24,0.36,0.46C216.7,88.48,216.52,88.63,216.31,88.63z M241.04,87.27
		c-0.18,0-0.34-0.11-0.4-0.29c-0.07-0.22,0.05-0.45,0.27-0.52c1.61-0.5,3.16-1.1,4.61-1.77c0.21-0.1,0.46,0,0.55,0.2
		c0.1,0.21,0,0.46-0.2,0.55c-1.48,0.69-3.07,1.29-4.71,1.81C241.13,87.26,241.09,87.27,241.04,87.27z M161.97,87.23
		c-0.18,0-0.35-0.12-0.4-0.3c-0.07-0.22,0.06-0.45,0.28-0.52c1.59-0.46,3.23-0.88,4.87-1.23c0.22-0.05,0.45,0.09,0.49,0.32
		c0.05,0.22-0.09,0.45-0.32,0.5c-1.62,0.35-3.24,0.76-4.81,1.22C162.05,87.22,162.01,87.23,161.97,87.23z M206.44,87.09
		c-0.02,0-0.05,0-0.07-0.01l-1.38-0.24c-1.18-0.21-2.35-0.41-3.53-0.61c-0.23-0.04-0.38-0.25-0.34-0.48
		c0.04-0.23,0.25-0.38,0.48-0.34c1.18,0.2,2.36,0.41,3.54,0.61l1.38,0.24c0.23,0.04,0.38,0.25,0.34,0.48
		C206.82,86.94,206.64,87.09,206.44,87.09z M196.59,85.44c-0.02,0-0.04,0-0.06-0.01c-1.78-0.26-3.4-0.47-4.94-0.64
		c-0.23-0.02-0.39-0.23-0.37-0.46c0.03-0.23,0.22-0.4,0.46-0.37c1.55,0.17,3.18,0.38,4.97,0.64c0.23,0.04,0.38,0.25,0.35,0.47
		C196.97,85.29,196.8,85.44,196.59,85.44z M171.72,85.11c-0.2,0-0.38-0.15-0.41-0.35c-0.03-0.23,0.12-0.44,0.35-0.47
		c1.64-0.24,3.32-0.43,4.99-0.56c0.23-0.02,0.43,0.15,0.45,0.38c0.02,0.23-0.15,0.43-0.38,0.45c-1.65,0.13-3.31,0.32-4.94,0.56
		C171.76,85.11,171.74,85.11,171.72,85.11z M186.67,84.4c-0.01,0-0.02,0-0.02,0c-1.64-0.08-3.31-0.11-4.96-0.08
		c-0.24,0.02-0.42-0.18-0.43-0.41c0-0.23,0.18-0.42,0.41-0.42c1.67-0.02,3.36,0,5.02,0.09c0.23,0.01,0.41,0.21,0.4,0.44
		C187.07,84.23,186.89,84.4,186.67,84.4z M250.07,83.06c-0.14,0-0.27-0.06-0.35-0.19c-0.13-0.19-0.07-0.45,0.12-0.58
		c1.4-0.93,2.69-1.96,3.84-3.06c0.17-0.16,0.43-0.15,0.59,0.01c0.16,0.17,0.15,0.43-0.01,0.59c-1.19,1.14-2.52,2.2-3.96,3.15
		C250.23,83.04,250.15,83.06,250.07,83.06z M257.22,76.17c-0.08,0-0.16-0.02-0.24-0.07c-0.19-0.13-0.23-0.39-0.1-0.58
		c0.31-0.45,0.62-0.92,0.9-1.4c0.54-0.9,1.04-1.87,1.48-2.89c0.09-0.21,0.33-0.31,0.55-0.22c0.21,0.09,0.31,0.34,0.21,0.55
		c-0.46,1.04-0.97,2.05-1.53,2.98c-0.29,0.5-0.61,0.98-0.93,1.45C257.48,76.11,257.35,76.17,257.22,76.17z M261.27,67.09
		c-0.04,0-0.07,0-0.11-0.01c-0.22-0.06-0.35-0.29-0.29-0.51c0.39-1.48,0.72-3.07,1-4.85c0.04-0.23,0.25-0.38,0.48-0.35
		c0.23,0.04,0.38,0.25,0.35,0.48c-0.29,1.81-0.62,3.43-1.02,4.94C261.62,66.97,261.45,67.09,261.27,67.09z M262.9,57.24
		c-0.01,0-0.03,0-0.04,0c-0.23-0.02-0.4-0.23-0.37-0.46c0.12-1.16,0.22-2.31,0.32-3.46c0.02-0.23,0.22-0.4,0.45-0.38
		c0.23,0.02,0.4,0.22,0.38,0.45c-0.1,1.15-0.21,2.31-0.32,3.47C263.29,57.08,263.11,57.24,262.9,57.24z"/>
	<path style="fill:#263238;" d="M244.59,133.97c-0.32,0-0.58-0.26-0.58-0.58v-16.33c0-0.32,0.26-0.58,0.58-0.58
		c0.32,0,0.58,0.26,0.58,0.58v16.33C245.17,133.71,244.91,133.97,244.59,133.97"/>
	<path style="fill:#263238;" d="M249.11,135.68c-0.05,0-0.1-0.01-0.15-0.02c-0.31-0.08-0.5-0.4-0.42-0.71l6.05-23.62
		c0.08-0.31,0.4-0.5,0.71-0.42c0.31,0.08,0.5,0.39,0.42,0.7l-6.05,23.62C249.6,135.51,249.37,135.68,249.11,135.68"/>
	<path style="fill:#263238;" d="M253.67,140.01c-0.19,0-0.38-0.1-0.49-0.27c-0.17-0.27-0.08-0.63,0.18-0.8l12-7.48
		c0.27-0.17,0.63-0.08,0.8,0.19c0.17,0.27,0.09,0.63-0.19,0.8l-11.99,7.48C253.88,139.98,253.77,140.01,253.67,140.01"/>
</g>
</svg>
