<?xml version="1.0" encoding="utf-8"?>
<!-- Generator: Adobe Illustrator 26.3.1, SVG Export Plug-In . SVG Version: 6.00 Build 0)  -->
<svg version="1.1" id="Layer_1" xmlns="http://www.w3.org/2000/svg" xmlns:xlink="http://www.w3.org/1999/xlink" x="0px" y="0px"
	 viewBox="0 0 542.5 631.6" style="enable-background:new 0 0 542.5 631.6;" xml:space="preserve">
<style type="text/css">
	.st0{fill:#91B3FA;}
	.st1{opacity:0.86;fill:#FFFFFF;enable-background:new    ;}
	.st2{fill:#0E5BA9;}
	.st3{fill:#FFFFFF;}
	.st4{opacity:0.68;fill:#FFFFFF;enable-background:new    ;}
	.st5{fill:url(#SVGID_1_);}
	.st6{fill:url(#SVGID_00000049922206075629650920000001160822186949804977_);}
	.st7{fill:url(#SVGID_00000067209077059067028840000004460449774580332979_);}
	.st8{fill:url(#SVGID_00000114773230941608643210000010505067992820028035_);}
	.st9{fill:#2AAFD2;}
	.st10{fill:#14181E;}
	.st11{fill:url(#SVGID_00000165945153762933632200000013177882722044659339_);}
	.st12{fill:url(#SVGID_00000051372441239754346300000005099766109331467408_);}
	.st13{fill:#F36B21;}
	.st14{fill:#EC3128;}
	.st15{opacity:0.7;fill:#FFFFFF;enable-background:new    ;}
	.st16{opacity:0.3;}
	.st17{fill:#7D97F4;}
	.st18{fill:#BDD0FB;}
</style>
<g>
	<g>
		<g>
			<path class="st0" d="M480.7,616.3H103.2c-21.4,0-38.8-17.4-38.8-38.8V97.7c0-21.5,17.4-38.8,38.8-38.8h377.5
				c21.5,0,38.8,17.4,38.8,38.8v479.8C519.5,599,502.2,616.3,480.7,616.3z"/>
			<path class="st1" d="M466.9,603.2H117.1c-21.4,0-38.8-17.4-38.8-38.8V118.6c0-21.4,17.4-38.8,38.8-38.8h349.8
				c21.5,0,38.8,17.4,38.8,38.8v445.8C505.7,585.8,488.3,603.2,466.9,603.2z"/>
		</g>
		<path class="st2" d="M164.1,602.6l21.3-169.2c4.3-28.8-4.2-57.6-23-77.9l0,0c-10.4-11.3-17-26.2-18.5-42.2
			c-2.3-25.1-2-66.1,13.1-116c20.1-66,80.1-104.8,141.2-93.3c29.8,5.6,64.2,16.9,99.7,38.1c20.2,12.1,34,34.7,36.2,60.3
			c1,11.9,2.9,25.1,6.3,36.9c4.3,14.7,6.1,24.8,6.9,31.4c0.7,5.9-1.3,11.9-5.3,15.8l0,0c-4.1,4.1-5.1,10.9-2.4,16.2L471,357l0.6,3.3
			c-1.8,6.2-6.4,14-11.5,14.5l-17.9,1.9l0.7,21.1c0.1,4.1-2.2,7.8-5.6,9l-4.1,1.4l3.8,3.3c3,2.7,3.9,7.6,1.9,11.6l-5.3,10.6
			c-2.4,4.8-2.1,10.7,0.9,14.9c4.8,6.9,4.3,21.4-1.2,27c-11.4,11.8-34.9,12.4-46.6,11.5c-18-1.3-34.2-9.6-50.8-1
			c-4.9,2.5-8.3,5.7-10.4,7.9l1.4,108.6L164.1,602.6L164.1,602.6z"/>
		<g>
			<path class="st3" d="M292.3,316.5c-0.2,0-0.3,0-0.5-0.1l-27.7-8.9c-0.2-0.1-0.5-0.2-0.6-0.4L250.6,294l-21.1-4.6l-28.4,2.5
				c-0.3,0-0.6,0-0.9-0.2l-29.9-18c-0.3-0.2-0.5-0.4-0.6-0.7l-9.8-21.5c-0.1-0.3-0.2-0.6-0.1-0.9l5.6-31.3l-0.8-21.4
				c0-0.4,0.1-0.7,0.3-1l14.9-19.6l12.2-23.5c0.2-0.3,0.5-0.6,0.8-0.7l27.7-10.8l21.5-11.9c0.1-0.1,0.3-0.1,0.5-0.2l40.9-7.7
				c0.3-0.1,0.6,0,0.9,0.1l23.3,9.4l34.1-2.1c0.4,0,0.8,0.1,1.1,0.4l23.8,21.7l28.5,8.4c0.5,0.1,0.9,0.5,1,1l16.1,46
				c0.1,0.2,0.1,0.3,0.1,0.5V237c0,0.2,0,0.3-0.1,0.5L401,270c-0.1,0.3-0.3,0.5-0.5,0.7L366.9,297c-0.3,0.2-0.6,0.3-0.9,0.3
				l-33.7,0.8L293,316.3C292.8,316.4,292.5,316.5,292.3,316.5z M265.4,304.7l26.8,8.5l39-18c0.2-0.1,0.4-0.1,0.6-0.1l33.5-0.8
				l32.9-25.7l11-31.8v-28.7l-15.8-45l-28.1-8.2c-0.2-0.1-0.4-0.2-0.6-0.3L341.2,133l-33.9,2.1c-0.2,0-0.5,0-0.7-0.1l-23.2-9.3
				l-40.2,7.6l-21.4,11.8c-0.1,0-0.1,0.1-0.2,0.1l-27.3,10.7l-12,23.1c0,0.1-0.1,0.1-0.1,0.2l-14.6,19.3l0.8,21c0,0.1,0,0.2,0,0.3
				l-5.5,31l9.4,20.6l29.1,17.5l28.1-2.5c0.1,0,0.3,0,0.5,0l21.8,4.7c0.3,0.1,0.6,0.2,0.8,0.4L265.4,304.7z"/>
			<path class="st3" d="M219.7,340.3c-0.1,0-0.1,0-0.2,0l-25.7-4.4c-0.2,0-0.4-0.1-0.5-0.2l-15.8-11.9c-0.2-0.2-0.4-0.5-0.4-0.8
				l-2.2-17.8l-9.8-13.5c-0.2-0.3-0.3-0.6-0.2-1l5.1-18.6l2.2,0.6l-5,18.1l9.6,13.3c0.1,0.2,0.2,0.3,0.2,0.5l2.2,17.6l15.2,11.4
				l25.1,4.3l25.4-10.4c0.1,0,0.1,0,0.2-0.1l25.8-5.7l8.1-11.5l1.9,1.3l-8.4,11.9c-0.2,0.2-0.4,0.4-0.7,0.5l-26.2,5.8l-25.6,10.5
				C220,340.2,219.9,340.3,219.7,340.3z"/>
			<polygon class="st3" points="307.6,280.4 262.8,280.4 259.7,251.3 200.2,251.3 215.1,216.9 206.9,189.9 165.9,198.8 165.6,197.3 
				208,188.2 216.7,217 202.5,249.8 261.1,249.8 264.2,278.9 306.5,278.9 318.5,238.9 352,255.4 372.8,230 398.6,233.3 409.8,208.2 
				351.8,183.7 323.4,210.6 287.6,212.4 285.3,173.2 243,160.8 239.4,133.4 240.9,133.2 244.4,159.6 286.8,172 289,210.8 
				322.8,209.1 351.5,181.9 411.9,207.4 399.6,235 373.5,231.7 352.4,257.3 319.5,241.1 			"/>
			<path class="st3" d="M301.8,312.6l-38.3-32.8l-12.1,13.4l-0.3-0.2l-49.8-42l0,0l-0.1,0.2l-0.1-0.1l-29.7,21.7l-0.4-0.6l29.5-21.5
				l-17.7-10.8l-1.1-19.2l0-0.1l12.6-28.8l-4.4-33.3l17.9,30.2l45,3.7l-36.1-23l26.9-9.6l18.1-32.1l31.2,15.8l-6.3,28.6l36.3-0.6
				l9-39.7l20.1,50.3l43.4-21.1l-6.8,37.2l-14.9,32.4l20.6,43.7l-41.2,0.8L301.8,312.6z M263.5,278.7l38.4,32.9l50.8-37.1l40.3-0.8
				l-20.3-42.9l0.1-0.2l14.9-32.6l6.5-35.5l-42.8,20.8L332,134.6l-8.5,37.9l-37.8,0.6l6.4-29l-30.1-15.2L244,160.5l-25.7,9.2
				l37.4,23.8l-48.5-4L191,162.1l3.9,29.8l0,0.1l-12.6,28.8l1.1,18.6l17.7,10.8l0.4-0.3l50,42.1L263.5,278.7z"/>
			<path class="st4" d="M264.6,306.4c-0.1,0-0.1,0-0.2-0.1c-0.1,0-0.1-0.1-0.1-0.2l-1.1-26.8c0-0.1,0-0.1,0.1-0.2l31.4-35l-6.5-31.8
				l-27.5,38.3c-0.1,0.1-0.1,0.1-0.2,0.1c-0.1,0-0.2-0.1-0.2-0.1l-13.8-25.7l-29.9-7.5l14.6,33c0,0.1,0,0.1,0,0.1l-2.9,22.3
				c0,0.1-0.1,0.2-0.2,0.2l-33.6,13.6c-0.1,0-0.2,0-0.2,0c-0.1,0-0.1-0.1-0.1-0.2l-6.7-25.7L161.2,248c-0.1-0.1-0.2-0.1-0.2-0.2
				s0.1-0.2,0.1-0.3l54.3-30.7l-21-24.6l-27.6,24.1c-0.1,0.1-0.3,0.1-0.4,0c-0.1-0.1-0.1-0.3,0-0.4l27.8-24.3
				c0.1-0.1,0.1-0.1,0.2-0.1c0.1,0,0.1,0,0.2,0.1l21.3,25l30.6,7.6c0.1,0,0.1,0.1,0.2,0.1l13.6,25.4l27.6-38.5
				c0.1-0.1,0.2-0.1,0.3-0.1c0.1,0,0.2,0.1,0.2,0.2l6.7,32.6c0,0.1,0,0.2-0.1,0.2l-31.4,35l1.1,26.4l22.5-6.1l19.4-20.5
				c0,0,0,0,0.1-0.1l45.2-23c0.1,0,0.2,0,0.3,0c0.1,0.1,0.1,0.1,0.1,0.2l0.6,18.6c0,0.2-0.1,0.3-0.3,0.3c-0.2,0-0.3-0.1-0.3-0.3
				l-0.5-18.2l-44.8,22.8L287.7,300c0,0-0.1,0.1-0.1,0.1L264.6,306.4C264.6,306.4,264.6,306.4,264.6,306.4z M161.9,247.7l25.7,12.5
				c0.1,0,0.1,0.1,0.1,0.2l6.7,25.5l33.2-13.4l2.8-22.1l-14.6-33.1L161.9,247.7z"/>
			<path class="st4" d="M369.2,293.5C369.2,293.5,369.2,293.5,369.2,293.5l-33.8-5.7l-28.6-8.2c-0.1,0-0.2-0.1-0.2-0.2s0-0.2,0-0.3
				l24.9-30.3c0,0,0.1-0.1,0.1-0.1l41-18.1l-21-47.1l-11.4,36c0,0.1,0,0.1-0.1,0.1L319.2,240c-0.1,0.1-0.2,0.1-0.3,0.1
				c-0.1-0.1-0.2-0.2-0.1-0.3l4.1-30.6l-36-20.5c-0.1-0.1-0.1-0.1-0.1-0.3c0-0.1,0.1-0.2,0.2-0.2l36.2-16.4c0,0,0.1,0,0.2,0
				l25.6,3.8l16.8-22.3c0.1-0.1,0.2-0.1,0.3-0.1c0.1,0,0.2,0.1,0.2,0.2l4.5,20.2l20.6,8.1c0,0,0.1,0.1,0.1,0.1l19.8,26
				c0.1,0.1,0.1,0.3-0.1,0.4c-0.1,0.1-0.3,0.1-0.4-0.1L390.9,182l-20.7-8.1c-0.1,0-0.1-0.1-0.2-0.2l-4.4-19.7l-16.5,22
				c-0.1,0.1-0.2,0.1-0.3,0.1l-25.7-3.8l-35.5,16.1l35.6,20.3c0.1,0.1,0.2,0.2,0.1,0.3l-4,30l20.5-19.7l11.6-36.7
				c0-0.1,0.1-0.2,0.3-0.2c0.1,0,0.2,0.1,0.3,0.2l21.5,48c0,0.1,0,0.1,0,0.2c0,0.1-0.1,0.1-0.1,0.2l-41.2,18.1l-24.5,29.9l28.1,8.1
				l33.7,5.7c0.2,0,0.3,0.2,0.2,0.3C369.5,293.4,369.4,293.5,369.2,293.5z"/>
			<path class="st3" d="M357,291.4c-0.1,0-0.1,0-0.2-0.1c-0.1-0.1-0.1-0.3,0-0.4l14.3-16.4l-19-18.1c-0.1-0.1-0.1-0.2-0.1-0.3
				s0.1-0.2,0.2-0.2l30.1-5.8l16.7-16.2c0.1-0.1,0.2-0.1,0.3-0.1s0.2,0.1,0.2,0.2l5.1,18.1c0,0.1,0,0.3-0.2,0.4
				c-0.1,0.1-0.3-0.1-0.4-0.2l-5-17.6l-16.4,15.9c0,0-0.1,0.1-0.1,0.1l-29.6,5.7l18.8,17.9c0.1,0.1,0.1,0.3,0,0.4l-14.5,16.6
				C357.1,291.3,357,291.4,357,291.4z"/>
			<path class="st3" d="M207.1,189.7C207.1,189.7,207,189.7,207.1,189.7c-0.2,0-0.4-0.2-0.4-0.3l-3.1-38.5c0-0.2,0.1-0.4,0.4-0.4
				c0.2,0,0.4,0.1,0.4,0.4l2.9,37.2l10.6-20.2l8.6-27.3c0.1-0.2,0.3-0.3,0.5-0.2s0.3,0.3,0.2,0.5l-8.6,27.4l-11.2,21.4
				C207.4,189.6,207.2,189.7,207.1,189.7z"/>
			<path class="st4" d="M260.4,250.7c-0.1,0-0.1,0-0.2-0.1l-44.5-33.5c-0.1-0.1-0.1-0.2-0.1-0.4l12.5-26l-12.4-22
				c-0.1-0.1-0.1-0.2,0-0.3s0.2-0.1,0.3-0.1l54.6,11.1l-13.8-15.2c-0.1-0.1-0.1-0.1-0.1-0.2s0.1-0.2,0.1-0.2l35.4-20.3l14.8-10.2
				c0.1-0.1,0.3-0.1,0.4,0.1s0.1,0.3-0.1,0.4L292.6,144l-35.1,20.1l14,15.4l14.5-7.2l45.8-39.3c0.1-0.1,0.3-0.1,0.4,0s0.1,0.3,0,0.4
				l-45.8,39.3l-14.7,7.4l-17.1,12.9l-7.5,31.1l41.3-12.9c0.1,0,0.2,0,0.3,0.1l30.7,28.2c0.1,0.1,0.1,0.2,0.1,0.3
				c0,0.1-0.1,0.2-0.2,0.2L260.4,250.7C260.4,250.7,260.4,250.7,260.4,250.7z M216.3,216.8l44.2,33.3l57.9-10.5l-30.1-27.8
				l-41.6,12.9c-0.1,0-0.2,0-0.3-0.1c-0.1-0.1-0.1-0.2-0.1-0.3l7.6-31.6c0-0.1,0.1-0.1,0.1-0.2l16.7-12.6l-54.2-11.1l12.2,21.6
				c0.1,0.1,0.1,0.2,0,0.3L216.3,216.8z"/>
			<path class="st3" d="M288.3,211.9c0,0-0.1,0-0.1,0l-34.1-18.6c-0.1-0.1-0.2-0.2-0.1-0.3c0-0.1,0.1-0.2,0.2-0.2l32.8-4.5l64.7-5.6
				c0.2,0,0.3,0.1,0.3,0.3c0,0.2-0.1,0.3-0.3,0.3l-64.7,5.6l-31.9,4.4l33.4,18.2c0.1,0.1,0.2,0.2,0.1,0.4
				C288.5,211.8,288.4,211.9,288.3,211.9z"/>
			<polygon class="st3" points="241.9,329.1 231.1,312.4 203.7,306.4 200.7,291 176.1,305.1 175.7,304.5 201.3,289.8 204.4,305.8 
				231.5,311.8 242.1,328 264.8,314.7 264.2,306.4 243,302.3 226.6,288.4 227.1,287.8 243.3,301.6 265,305.8 265.6,315.1 			"/>
			<path class="st4" d="M208.8,337.6c-0.1,0-0.2,0-0.3-0.1l-15.1-17.6l-7.2,9c-0.1,0.2-0.4,0.2-0.5,0.1c-0.2-0.1-0.2-0.4-0.1-0.5
				l7.3-9.1l-0.1-0.1c0,0-0.1-0.1-0.1-0.1l-6.4-19.8c0,0,0-0.1,0-0.1v-16.9l-20,9.2c-0.2,0.1-0.4,0-0.5-0.2s0-0.4,0.2-0.5l20.5-9.4
				c0.1,0,0.3,0,0.4,0s0.2,0.2,0.2,0.3v17.4l6.3,19.5l10.3-12.8c0.1-0.1,0.1-0.1,0.2-0.1l32.8-9.5c0.1,0,0.3,0,0.4,0.1
				s0.1,0.3,0.1,0.4l-9.9,28c0,0.1-0.1,0.1-0.1,0.2L209,337.6C208.9,337.6,208.9,337.6,208.8,337.6z M193.9,319.2l15,17.5l17.8-12.4
				l9.6-27.2l-31.9,9.3L193.9,319.2z"/>
			<circle class="st3" cx="207.1" cy="189.3" r="4"/>
			<ellipse class="st3" cx="244.6" cy="160.5" rx="4" ry="4"/>
			<circle class="st3" cx="307.2" cy="279.7" r="4"/>
			<ellipse transform="matrix(0.9239 -0.3827 0.3827 0.9239 -43.7142 148.5974)" class="st3" cx="351.7" cy="184.2" rx="4" ry="4"/>
			<ellipse transform="matrix(0.2298 -0.9732 0.9732 0.2298 82.4884 393.552)" class="st3" cx="289.9" cy="144.7" rx="4" ry="4"/>
			<ellipse transform="matrix(0.9239 -0.3827 0.3827 0.9239 -59.0258 126.4448)" class="st3" cx="288.3" cy="211.6" rx="4" ry="4"/>
			<ellipse transform="matrix(0.9239 -0.3827 0.3827 0.9239 -76.0405 118.5892)" class="st3" cx="260.1" cy="250.4" rx="4" ry="4"/>
			<circle class="st3" cx="201.4" cy="250.9" r="4"/>
			
				<ellipse transform="matrix(0.2298 -0.9732 0.9732 0.2298 -139.7202 435.6452)" class="st3" cx="205.4" cy="306.1" rx="4" ry="4"/>
			<circle class="st3" cx="374.2" cy="231.4" r="4"/>
			<ellipse transform="matrix(0.2298 -0.9732 0.9732 0.2298 104.577 531.0765)" class="st3" cx="387.8" cy="199.5" rx="4" ry="4"/>
			<circle class="st3" cx="218.5" cy="169.2" r="2.5"/>
			<circle class="st3" cx="370.1" cy="173.1" r="2.5"/>
			<circle class="st3" cx="352.8" cy="257" r="2.5"/>
			<circle class="st3" cx="383.8" cy="250.4" r="2.5"/>
			
				<ellipse transform="matrix(0.9239 -0.3827 0.3827 0.9239 -101.7783 112.5381)" class="st3" cx="232" cy="312.1" rx="2.5" ry="2.5"/>
			<circle class="st3" cx="193.6" cy="320.4" r="2.5"/>
			
				<ellipse transform="matrix(0.9239 -0.3827 0.3827 0.9239 -100.619 93.8276)" class="st3" cx="185.5" cy="299.8" rx="2.5" ry="2.5"/>
			<circle class="st3" cx="254.2" cy="192.9" r="2.5"/>
			<circle class="st3" cx="295" cy="243.9" r="2.5"/>
			<circle class="st3" cx="323.1" cy="171.7" r="2.5"/>
			<circle class="st3" cx="226.9" cy="273.1" r="2.5"/>
			<ellipse class="st3" cx="247.1" cy="223.3" rx="2.5" ry="2.5"/>
			<circle class="st3" cx="215.9" cy="217" r="2.5"/>
			<circle class="st3" cx="323.1" cy="209" r="2.5"/>
		</g>
	</g>
	<g>
		
			<linearGradient id="SVGID_1_" gradientUnits="userSpaceOnUse" x1="-3490.282" y1="373.5604" x2="-3517.8931" y2="288.9268" gradientTransform="matrix(-1 0 0 -1 -3433.0054 631.8898)">
			<stop  offset="0" style="stop-color:#FEBBBA"/>
			<stop  offset="1" style="stop-color:#FF928E"/>
		</linearGradient>
		<path class="st5" d="M84.2,264.6c0,0,38.4,49.2-5.4,99.2l-16.5-1.5c0,0,31.7-50.9,17.6-91.5l-23.3,1.7L43.6,264L84.2,264.6z"/>
		
			<linearGradient id="SVGID_00000091719166794756714890000016063512701417766022_" gradientUnits="userSpaceOnUse" x1="-3496.1255" y1="72.8049" x2="-3437.9412" y2="72.8049" gradientTransform="matrix(-1 0 0 -1 -3433.0054 631.8898)">
			<stop  offset="0" style="stop-color:#FEBBBA"/>
			<stop  offset="1" style="stop-color:#FF928E"/>
		</linearGradient>
		<path style="fill:url(#SVGID_00000091719166794756714890000016063512701417766022_);" d="M63.1,505.4c0,0-31.1,67.8-47.5,95.9
			c0,0-3.2,17.7,0,23.2l2.8,1.2l-12.9-0.4c0,0-1.2-23.8-0.2-25.1C6.2,598.9,8,599,8,599s5.5-43.8,21.5-53.2L45,492.4L63.1,505.4z"/>
		<path class="st2" d="M23.9,629.1c0,0.3-10.1,0.2-15.6,0.1c-2,0-3.8-1.5-4.2-3.4L0.1,604c-0.4-2.1,0.9-4.1,3-4.5l2.3-0.5
			c0,0,3.3,4.5,2.3,8.8s-2,15.3,0.7,16.6c2.6,1.3,10.2,1.5,10.2,1.5S23.8,626.3,23.9,629.1z"/>
		<path class="st2" d="M92.6,629.5c1,0.6,0.6,2.1-0.6,2.1c-9.2-0.1-29.7-0.4-31.6-1.1c-2.4-1,0.9-9.5,4.2-12.3l18.7,6.1L92.6,629.5z
			"/>
		
			<linearGradient id="SVGID_00000137852480257360399240000006760809178387619234_" gradientUnits="userSpaceOnUse" x1="-3531.4253" y1="68.4798" x2="-3497.7354" y2="68.4798" gradientTransform="matrix(-1 0 0 -1 -3433.0054 631.8898)">
			<stop  offset="0" style="stop-color:#FEBBBA"/>
			<stop  offset="1" style="stop-color:#FF928E"/>
		</linearGradient>
		<path style="fill:url(#SVGID_00000137852480257360399240000006760809178387619234_);" d="M98.4,501c0,0-20.1,97.3-25.8,116.3
			l13.5,8.5c0,0-6.7-1.2-11.8-1.5c-5-0.4-9.6-6.1-9.6-6.1l1.6-2.6c0,0,5-96.8,3.8-107.8L98.4,501z"/>
		
			<linearGradient id="SVGID_00000024000073416671569180000012304287340831098538_" gradientUnits="userSpaceOnUse" x1="-3604.0044" y1="321.2498" x2="-3538.0554" y2="321.2498" gradientTransform="matrix(-1 0 0 -1 -3433.0054 631.8898)">
			<stop  offset="0" style="stop-color:#FEBBBA"/>
			<stop  offset="1" style="stop-color:#FF928E"/>
		</linearGradient>
		<path style="fill:url(#SVGID_00000024000073416671569180000012304287340831098538_);" d="M148.4,274.1c0,0,2.8,50.6-43.3,76.5
			l11.1,25.3c0,0,41.7-25.2,40.2-94.1c0-2,0.7-3.9,2-5.4l8.9-10.3c3.4-3.9,4.6-9.2,3.4-14.2l-1.2-4.7c-0.4-1.6-2.2-2.3-3.6-1.5
			l-0.9,0.5c-2.9,1.7-5.3,4.3-6.7,7.4l-4.4,9.7c-1.6,3.6-5.4,5.8-9.3,5.5l-2.7-0.2L148.4,274.1z"/>
		<path class="st9" d="M106.7,346.8c-7.7,2.1-33.8,9-50.1,8.7l10,56.5l-0.8,9.2l32.6-0.1c0,0,9.2-21.3,16.4-32
			c2.1-3.1,0.5-6.7-0.7-10.3l1.6-1.1c1.7-1.1,2.4-3.2,1.8-5.1l-7.9-24.3C109.2,347.1,107.9,346.4,106.7,346.8z"/>
		<path class="st10" d="M101,416.2l-0.6,5.6c0,0,9.2,27.6-4.6,92.1c0,0-30,8.5-54.6-11.8c0,0,7-60.9,8.8-63.7
			c9.5-14.1,15.8-17.2,15.8-17.2l0.3-6.1C66,415.1,92.4,419.9,101,416.2z"/>
		
			<linearGradient id="SVGID_00000018948746720242465830000012227940810619199674_" gradientUnits="userSpaceOnUse" x1="-3521.2166" y1="288.8712" x2="-3500.6055" y2="288.8712" gradientTransform="matrix(-1 0 0 -1 -3433.0054 631.8898)">
			<stop  offset="0" style="stop-color:#FEBBBA"/>
			<stop  offset="1" style="stop-color:#FF928E"/>
		</linearGradient>
		<path style="fill:url(#SVGID_00000018948746720242465830000012227940810619199674_);" d="M88.2,351.3c0.1-0.1-6.8-20.9-6.8-20.9
			l-9.9,0.9l-3.9,23.6C67.6,354.9,83.2,358,88.2,351.3z"/>
		
			<linearGradient id="SVGID_00000031168172677494078940000009800348566240600726_" gradientUnits="userSpaceOnUse" x1="-3488.4507" y1="315.5089" x2="-3338.3911" y2="305.3048" gradientTransform="matrix(-1 0 0 -1 -3433.0054 631.8898)">
			<stop  offset="0" style="stop-color:#FEBBBA"/>
			<stop  offset="1" style="stop-color:#FF928E"/>
		</linearGradient>
		<path style="fill:url(#SVGID_00000031168172677494078940000009800348566240600726_);" d="M73.8,297.7c0.7,0.4,21.2,8.9,16.8,30.2
			c-0.3,1.3-1.1,2.3-2.3,2.9c-3,1.3-9.5,3.6-17.3,2.9c-10.8-1.1-17.8-19.9-17.5-25.3C53.9,302.8,67.3,293.6,73.8,297.7z"/>
		<path class="st10" d="M67.6,289.4c0.5,0.1,11.9,4,6.2,12.2c-5.6,8.2-7.7,13-5.1,16.6c2.4,3.3,7.8,1.4,7.3,8.2
			c-0.1,1.4,0.5,2.7,1.6,3.5c5.1,3.4,17.4,14,5.2,29c-1,1.2-1.2,2.9-0.4,4.3c3.6,6.4,11.1,25.2-16.1,35.7
			c-26.9,10.3-36.6-7.3-39.3-14.3c-0.6-1.5-2.1-2.5-3.7-2.4c-3,0.1-7.1-0.4-7-4.3c0.1-2.4,1.6-4.5,3.4-6.3c1.8-1.7,1.4-4.7-0.7-5.9
			c-1.6-0.9-3-2.3-3.6-4.6c-1.6-6,1.6-24.1,18.9-27.2c1.4-0.3,3-1.6,3.2-3.1c0,0,0,0,0-0.1c0.2-1.4-0.2-2.8-1.4-3.7
			c-2.8-2-6.3-6.1-3.4-12.7c2.5-5.8,7.5-7.8,11.1-8.4c2.1-0.4,3.5-2.4,3.1-4.5C45.7,295.9,46.7,286.6,67.6,289.4z"/>
		<path class="st13" d="M179.1,265.8H24.9c-11,0-19.9-8.9-19.9-19.9V111.4c0-11,8.9-19.9,19.9-19.9h154.2c11,0,19.9,8.9,19.9,19.9
			v134.4C199,256.8,190.1,265.8,179.1,265.8z"/>
		<path class="st14" d="M168.9,255.7H35c-11,0-19.9-8.9-19.9-19.9V119.6c0-11,8.9-19.9,19.9-19.9h133.9c11,0,19.9,8.9,19.9,19.9
			v116.2C188.9,246.8,179.9,255.7,168.9,255.7z"/>
		<path class="st15" d="M18.2,167.1c-0.4,0-0.8-0.3-0.8-0.8v-47.7c0-8.8,7.2-16,16-16h54.8c0.4,0,0.8,0.3,0.8,0.8
			c0,0.4-0.3,0.8-0.8,0.8H33.4c-8,0-14.5,6.5-14.5,14.5v47.7C18.9,166.7,18.6,167.1,18.2,167.1z"/>
		<path class="st15" d="M18.2,204.4c-0.4,0-0.8-0.3-0.8-0.8v-31.4c0-0.4,0.3-0.8,0.8-0.8s0.8,0.3,0.8,0.8v31.4
			C18.9,204.1,18.6,204.4,18.2,204.4z"/>
	</g>
	<g>
		<path class="st13" d="M534.1,626.7H271.4c-4.6,0-8.4-3.8-8.4-8.4v-39.9c0-4.6,3.8-8.4,8.4-8.4h262.7c4.6,0,8.4,3.8,8.4,8.4v39.9
			C542.5,623,538.8,626.7,534.1,626.7z"/>
		<path class="st14" d="M528.2,622H276.6c-4.6,0-8.4-3.8-8.4-8.4V582c0-4.6,3.8-8.4,8.4-8.4h251.5c4.6,0,8.4,3.8,8.4,8.4v31.7
			C536.5,618.3,532.8,622,528.2,622z"/>
		<g>
			<path class="st3" d="M290.8,598c0,2-0.2,3.7-0.6,5.2c-0.4,1.5-1,2.7-1.8,3.6s-1.6,1.7-2.7,2.1c-1,0.5-2.1,0.7-3.3,0.7
				c-1.2,0-2.3-0.2-3.3-0.7c-1-0.5-1.9-1.2-2.6-2.1s-1.3-2.2-1.7-3.6c-0.4-1.5-0.6-3.2-0.6-5.2c0-2,0.2-3.7,0.6-5.2s1-2.7,1.7-3.6
				s1.6-1.7,2.6-2.1c1-0.5,2.1-0.7,3.3-0.7c1.2,0,2.3,0.2,3.3,0.7c1,0.5,1.9,1.2,2.7,2.1s1.3,2.2,1.8,3.6
				C290.6,594.3,290.8,596,290.8,598z M286.8,598c0-1.7-0.1-3-0.4-4.1s-0.6-1.9-1-2.6c-0.4-0.6-0.9-1.1-1.4-1.3
				c-0.5-0.3-1.1-0.4-1.6-0.4s-1.1,0.1-1.6,0.4c-0.5,0.3-1,0.7-1.4,1.3c-0.4,0.6-0.7,1.5-1,2.6c-0.2,1.1-0.4,2.4-0.4,4.1
				c0,1.6,0.1,3,0.4,4.1c0.2,1.1,0.5,1.9,1,2.6c0.4,0.6,0.9,1.1,1.4,1.3c0.5,0.3,1.1,0.4,1.6,0.4c0.6,0,1.1-0.1,1.6-0.4
				c0.5-0.3,1-0.7,1.4-1.3c0.4-0.6,0.7-1.5,1-2.6S286.8,599.7,286.8,598z"/>
			<path class="st3" d="M309,598c0,2-0.2,3.7-0.6,5.2c-0.4,1.5-1,2.7-1.8,3.6s-1.6,1.7-2.7,2.1c-1,0.5-2.1,0.7-3.3,0.7
				c-1.2,0-2.3-0.2-3.3-0.7c-1-0.5-1.9-1.2-2.6-2.1s-1.3-2.2-1.7-3.6c-0.4-1.5-0.6-3.2-0.6-5.2c0-2,0.2-3.7,0.6-5.2s1-2.7,1.7-3.6
				s1.6-1.7,2.6-2.1c1-0.5,2.1-0.7,3.3-0.7c1.2,0,2.3,0.2,3.3,0.7c1,0.5,1.9,1.2,2.7,2.1s1.3,2.2,1.8,3.6
				C308.8,594.3,309,596,309,598z M305,598c0-1.7-0.1-3-0.4-4.1s-0.6-1.9-1-2.6c-0.4-0.6-0.9-1.1-1.4-1.3c-0.5-0.3-1.1-0.4-1.6-0.4
				s-1.1,0.1-1.6,0.4c-0.5,0.3-1,0.7-1.4,1.3c-0.4,0.6-0.7,1.5-1,2.6c-0.2,1.1-0.4,2.4-0.4,4.1c0,1.6,0.1,3,0.4,4.1
				c0.2,1.1,0.5,1.9,1,2.6c0.4,0.6,0.9,1.1,1.4,1.3c0.5,0.3,1.1,0.4,1.6,0.4c0.6,0,1.1-0.1,1.6-0.4c0.5-0.3,1-0.7,1.4-1.3
				c0.4-0.6,0.7-1.5,1-2.6S305,599.7,305,598z"/>
			<path class="st3" d="M314,606.5h4.6v-13.2c0-0.5,0-1,0-1.6l-3.3,2.7c-0.1,0.1-0.3,0.2-0.4,0.2c-0.1,0-0.3,0.1-0.4,0.1
				c-0.2,0-0.4,0-0.6-0.1s-0.3-0.2-0.4-0.3l-1.2-1.7l6.9-5.9h3.2v19.8h4.1v2.9H314L314,606.5L314,606.5z"/>
			<path class="st3" d="M332.2,606.5h4.6v-13.2c0-0.5,0-1,0-1.6l-3.3,2.7c-0.1,0.1-0.3,0.2-0.4,0.2c-0.1,0-0.3,0.1-0.4,0.1
				c-0.2,0-0.4,0-0.6-0.1s-0.3-0.2-0.4-0.3l-1.2-1.7l6.9-5.9h3.2v19.8h4.1v2.9h-12.6L332.2,606.5L332.2,606.5z"/>
			<path class="st3" d="M363.7,598c0,2-0.2,3.7-0.6,5.2c-0.4,1.5-1,2.7-1.8,3.6s-1.6,1.7-2.7,2.1c-1,0.5-2.1,0.7-3.3,0.7
				c-1.2,0-2.3-0.2-3.3-0.7c-1-0.5-1.9-1.2-2.6-2.1s-1.3-2.2-1.7-3.6c-0.4-1.5-0.6-3.2-0.6-5.2c0-2,0.2-3.7,0.6-5.2s1-2.7,1.7-3.6
				s1.6-1.7,2.6-2.1c1-0.5,2.1-0.7,3.3-0.7c1.2,0,2.3,0.2,3.3,0.7c1,0.5,1.9,1.2,2.7,2.1s1.3,2.2,1.8,3.6
				C363.5,594.3,363.7,596,363.7,598z M359.7,598c0-1.7-0.1-3-0.4-4.1s-0.6-1.9-1-2.6c-0.4-0.6-0.9-1.1-1.4-1.3
				c-0.5-0.3-1.1-0.4-1.6-0.4s-1.1,0.1-1.6,0.4c-0.5,0.3-1,0.7-1.4,1.3c-0.4,0.6-0.7,1.5-1,2.6c-0.2,1.1-0.4,2.4-0.4,4.1
				c0,1.6,0.1,3,0.4,4.1c0.2,1.1,0.5,1.9,1,2.6c0.4,0.6,0.9,1.1,1.4,1.3c0.5,0.3,1.1,0.4,1.6,0.4c0.6,0,1.1-0.1,1.6-0.4
				c0.5-0.3,1-0.7,1.4-1.3c0.4-0.6,0.7-1.5,1-2.6S359.7,599.7,359.7,598z"/>
			<path class="st3" d="M368.7,606.5h4.6v-13.2c0-0.5,0-1,0-1.6l-3.3,2.7c-0.1,0.1-0.3,0.2-0.4,0.2c-0.1,0-0.3,0.1-0.4,0.1
				c-0.2,0-0.4,0-0.6-0.1s-0.3-0.2-0.4-0.3l-1.2-1.7l6.9-5.9h3.2v19.8h4.1v2.9h-12.6L368.7,606.5L368.7,606.5z"/>
			<path class="st3" d="M386.9,606.5h4.6v-13.2c0-0.5,0-1,0-1.6l-3.3,2.7c-0.1,0.1-0.3,0.2-0.4,0.2c-0.1,0-0.3,0.1-0.4,0.1
				c-0.2,0-0.4,0-0.6-0.1s-0.3-0.2-0.4-0.3l-1.2-1.7l6.9-5.9h3.2v19.8h4.1v2.9h-12.6L386.9,606.5L386.9,606.5z"/>
			<path class="st3" d="M418.4,598c0,2-0.2,3.7-0.6,5.2c-0.4,1.5-1,2.7-1.8,3.6s-1.6,1.7-2.7,2.1c-1,0.5-2.1,0.7-3.3,0.7
				c-1.2,0-2.3-0.2-3.3-0.7c-1-0.5-1.9-1.2-2.6-2.1s-1.3-2.2-1.7-3.6c-0.4-1.5-0.6-3.2-0.6-5.2c0-2,0.2-3.7,0.6-5.2s1-2.7,1.7-3.6
				s1.6-1.7,2.6-2.1c1-0.5,2.1-0.7,3.3-0.7c1.2,0,2.3,0.2,3.3,0.7c1,0.5,1.9,1.2,2.7,2.1s1.3,2.2,1.8,3.6
				C418.2,594.3,418.4,596,418.4,598z M414.4,598c0-1.7-0.1-3-0.4-4.1s-0.6-1.9-1-2.6c-0.4-0.6-0.9-1.1-1.4-1.3
				c-0.5-0.3-1.1-0.4-1.6-0.4s-1.1,0.1-1.6,0.4c-0.5,0.3-1,0.7-1.4,1.3c-0.4,0.6-0.7,1.5-1,2.6c-0.2,1.1-0.4,2.4-0.4,4.1
				c0,1.6,0.1,3,0.4,4.1c0.2,1.1,0.5,1.9,1,2.6c0.4,0.6,0.9,1.1,1.4,1.3c0.5,0.3,1.1,0.4,1.6,0.4c0.6,0,1.1-0.1,1.6-0.4
				c0.5-0.3,1-0.7,1.4-1.3c0.4-0.6,0.7-1.5,1-2.6S414.4,599.7,414.4,598z"/>
			<path class="st3" d="M423.4,606.5h4.6v-13.2c0-0.5,0-1,0-1.6l-3.3,2.7c-0.1,0.1-0.3,0.2-0.4,0.2c-0.1,0-0.3,0.1-0.4,0.1
				c-0.2,0-0.4,0-0.6-0.1s-0.3-0.2-0.4-0.3l-1.2-1.7l6.9-5.9h3.2v19.8h4.1v2.9h-12.6L423.4,606.5L423.4,606.5z"/>
			<path class="st3" d="M454.9,598c0,2-0.2,3.7-0.6,5.2c-0.4,1.5-1,2.7-1.8,3.6s-1.6,1.7-2.7,2.1c-1,0.5-2.1,0.7-3.3,0.7
				c-1.2,0-2.3-0.2-3.3-0.7c-1-0.5-1.9-1.2-2.6-2.1s-1.3-2.2-1.7-3.6c-0.4-1.5-0.6-3.2-0.6-5.2c0-2,0.2-3.7,0.6-5.2s1-2.7,1.7-3.6
				s1.6-1.7,2.6-2.1c1-0.5,2.1-0.7,3.3-0.7c1.2,0,2.3,0.2,3.3,0.7c1,0.5,1.9,1.2,2.7,2.1s1.3,2.2,1.8,3.6
				C454.6,594.3,454.9,596,454.9,598z M450.9,598c0-1.7-0.1-3-0.4-4.1s-0.6-1.9-1-2.6c-0.4-0.6-0.9-1.1-1.4-1.3
				c-0.5-0.3-1.1-0.4-1.6-0.4s-1.1,0.1-1.6,0.4c-0.5,0.3-1,0.7-1.4,1.3c-0.4,0.6-0.7,1.5-1,2.6c-0.2,1.1-0.4,2.4-0.4,4.1
				c0,1.6,0.1,3,0.4,4.1c0.2,1.1,0.5,1.9,1,2.6c0.4,0.6,0.9,1.1,1.4,1.3c0.5,0.3,1.1,0.4,1.6,0.4c0.6,0,1.1-0.1,1.6-0.4
				c0.5-0.3,1-0.7,1.4-1.3c0.4-0.6,0.7-1.5,1-2.6S450.9,599.7,450.9,598z"/>
			<path class="st3" d="M459.9,606.5h4.6v-13.2c0-0.5,0-1,0-1.6l-3.3,2.7c-0.1,0.1-0.3,0.2-0.4,0.2c-0.1,0-0.3,0.1-0.4,0.1
				c-0.2,0-0.4,0-0.6-0.1s-0.3-0.2-0.4-0.3l-1.2-1.7l6.9-5.9h3.2v19.8h4.1v2.9h-12.6L459.9,606.5L459.9,606.5z"/>
			<path class="st3" d="M478.1,606.5h4.6v-13.2c0-0.5,0-1,0-1.6l-3.3,2.7c-0.1,0.1-0.3,0.2-0.4,0.2c-0.1,0-0.3,0.1-0.4,0.1
				c-0.2,0-0.4,0-0.6-0.1s-0.3-0.2-0.4-0.3l-1.2-1.7l6.9-5.9h3.2v19.8h4.1v2.9h-12.6V606.5z"/>
			<path class="st3" d="M496.3,606.5h4.6v-13.2c0-0.5,0-1,0-1.6l-3.3,2.7c-0.1,0.1-0.3,0.2-0.4,0.2c-0.1,0-0.3,0.1-0.4,0.1
				c-0.2,0-0.4,0-0.6-0.1s-0.3-0.2-0.4-0.3l-1.2-1.7l6.9-5.9h3.2v19.8h4.1v2.9h-12.6L496.3,606.5L496.3,606.5z"/>
			<path class="st3" d="M514.6,606.5h4.6v-13.2c0-0.5,0-1,0-1.6l-3.3,2.7c-0.1,0.1-0.3,0.2-0.4,0.2c-0.1,0-0.3,0.1-0.4,0.1
				c-0.2,0-0.4,0-0.6-0.1s-0.3-0.2-0.4-0.3l-1.2-1.7l6.9-5.9h3.2v19.8h4.1v2.9h-12.6V606.5z"/>
		</g>
	</g>
	<g>
		<g>
			<g class="st16">
				<path class="st0" d="M413.4,47c-0.5-0.8-0.4-1.9,0.4-2.6c1.7-1.4,3.5-2.7,5.3-4c0.9-0.6,2.1-0.4,2.7,0.5c0,0,0,0,0,0
					c0.6,0.9,0.3,2.1-0.5,2.7c-1.7,1.2-3.4,2.4-5,3.8c-0.8,0.7-2,0.5-2.7-0.3C413.5,47.1,413.5,47.1,413.4,47z M427.7,37.9
					c0-0.1-0.1-0.1-0.1-0.2c-0.5-1-0.1-2.1,0.9-2.6c2-1,4-1.9,6-2.7c1-0.4,2.1,0.1,2.5,1.1c0.4,1-0.1,2.1-1.1,2.5
					c-1.9,0.8-3.9,1.6-5.8,2.5C429.3,39,428.2,38.7,427.7,37.9z M443.6,32.1c-0.1-0.2-0.2-0.4-0.3-0.6c-0.2-1,0.4-2.1,1.4-2.3
					c2.1-0.5,4.3-0.9,6.5-1.3c1.1-0.2,2,0.6,2.2,1.6s-0.6,2-1.6,2.2c-2.1,0.3-4.1,0.7-6.2,1.2C444.8,33.2,444,32.8,443.6,32.1z
					 M460.3,30.1c-0.2-0.3-0.3-0.7-0.3-1c0-1.1,0.9-2,1.9-2c2.2,0,4.4,0,6.6,0.2c1.1,0.1,1.9,1,1.8,2.1s-1,1.9-2.1,1.8
					c-2.1-0.2-4.2-0.2-6.3-0.2C461.3,31,460.7,30.6,460.3,30.1z M477.2,31.8c-0.3-0.4-0.4-0.9-0.3-1.5c0.2-1,1.3-1.7,2.3-1.5
					c2.1,0.5,4.3,1,6.4,1.7c1,0.3,1.6,1.4,1.3,2.4c-0.3,1-1.4,1.6-2.4,1.3c-2-0.6-4-1.2-6.1-1.6C477.9,32.5,477.4,32.2,477.2,31.8z
					 M493.2,37.2c-0.4-0.5-0.4-1.2-0.1-1.9c0.5-1,1.6-1.4,2.6-0.9c2,0.9,4,2,5.9,3c0.9,0.5,1.2,1.7,0.7,2.7
					c-0.5,0.9-1.7,1.2-2.6,0.7c-1.8-1-3.7-2-5.6-2.9C493.6,37.7,493.4,37.5,493.2,37.2z M535.9,94.3c-0.2-0.2-0.2-0.5-0.3-0.8
					c-0.3-2.1-0.7-4.1-1.2-6.2c-0.2-1,0.4-2.1,1.4-2.3s2.1,0.4,2.3,1.4c0.5,2.1,1,4.3,1.3,6.5c0.2,1.1-0.6,2.1-1.6,2.2
					C537,95.2,536.3,94.9,535.9,94.3z M507.6,46c-0.4-0.7-0.4-1.6,0.1-2.2c0.7-0.8,1.9-1,2.7-0.3c1.7,1.3,3.4,2.8,5,4.3
					c0.8,0.7,0.8,2,0.1,2.7c-0.7,0.8-2,0.8-2.7,0.1c-1.5-1.4-3.1-2.8-4.8-4.1C507.9,46.3,507.7,46.2,507.6,46z M531.5,77.9
					c-0.1-0.1-0.1-0.2-0.2-0.3c-0.8-1.9-1.6-3.9-2.6-5.8c-0.5-1-0.1-2.1,0.9-2.6c1-0.5,2.1-0.1,2.6,0.9c1,2,1.9,4,2.7,6.1
					c0.4,1-0.1,2.1-1.1,2.5C533,79,532,78.7,531.5,77.9z M519.7,57.8c-0.5-0.8-0.4-1.9,0.4-2.6c0.8-0.7,2-0.5,2.7,0.3
					c1.4,1.7,2.7,3.5,4,5.3c0,0,0,0,0,0c0.6,0.9,0.3,2.1-0.5,2.7c-0.9,0.6-2.1,0.4-2.7-0.5c-1.2-1.7-2.4-3.4-3.8-5
					C519.8,57.9,519.7,57.9,519.7,57.8z"/>
				<path class="st0" d="M536.7,107.9c-0.2-0.3-0.3-0.7-0.3-1.1c0-1,0-2,0-3c0-1.1,0.8-1.9,1.9-2s2,0.8,2,1.9c0,1.1,0,2.1,0,3.2
					c0,1.1-0.9,1.9-2,1.9C537.6,108.7,537,108.4,536.7,107.9z"/>
			</g>
			<g class="st16">
				<path class="st0" d="M512,161.6c-0.5-0.8-0.4-1.9,0.3-2.5c0.7-0.7,1.5-1.4,2.2-2.1c0.8-0.8,2-0.7,2.8,0c0.8,0.8,0.7,2,0,2.8
					c-0.8,0.7-1.5,1.5-2.3,2.2c-0.8,0.7-2,0.7-2.7-0.1C512.1,161.8,512,161.7,512,161.6z"/>
				<path class="st0" d="M397.9,147c-0.5-0.8-1-1.5-1.4-2.3c-0.5-0.9-0.3-2.1,0.7-2.7c0.9-0.6,2.1-0.3,2.7,0.7
					c1.1,1.8,2.2,3.5,3.4,5.2c0.6,0.9,0.4,2.1-0.4,2.7c-0.9,0.6-2.1,0.4-2.7-0.4C399.3,149.1,398.6,148.1,397.9,147z M391.7,135.6
					c-0.1-0.1-0.1-0.2-0.2-0.3c-0.9-2-1.6-4-2.3-6.1c-0.3-1,0.2-2.1,1.2-2.5c1-0.3,2.1,0.2,2.5,1.2c0.6,2,1.4,3.9,2.2,5.8
					c0.4,1,0,2.1-1,2.6C393.2,136.7,392.2,136.4,391.7,135.6z M406.6,158c-0.5-0.8-0.4-1.8,0.3-2.5c0.8-0.7,2-0.7,2.7,0.1
					c1.4,1.5,2.9,2.9,4.5,4.3c0.8,0.7,0.9,1.9,0.2,2.7s-1.9,0.9-2.7,0.2c-1.6-1.4-3.2-2.9-4.7-4.5
					C406.7,158.2,406.6,158.1,406.6,158z M386.9,119.7c-0.1-0.2-0.2-0.4-0.3-0.7c-0.4-2.1-0.7-4.3-0.9-6.4c-0.1-1.1,0.7-2,1.7-2.1
					c1.1-0.1,2,0.7,2.1,1.7c0.2,2,0.5,4.1,0.9,6.1c0.2,1.1-0.5,2.1-1.5,2.3C388,120.7,387.3,120.3,386.9,119.7z M419.3,168.6
					c-0.4-0.6-0.4-1.5,0-2.1c0.6-0.9,1.8-1.1,2.7-0.6c1.7,1.1,3.5,2.2,5.3,3.2c0.9,0.5,1.3,1.7,0.8,2.6c-0.5,0.9-1.7,1.3-2.6,0.8
					c-1.9-1-3.8-2.2-5.6-3.4C419.7,169.1,419.5,168.9,419.3,168.6z M434.1,176.2c-0.3-0.5-0.4-1.1-0.2-1.8c0.4-1,1.5-1.5,2.5-1.1
					c1.9,0.7,3.9,1.4,5.9,2c1,0.3,1.6,1.4,1.3,2.4c-0.3,1-1.4,1.6-2.4,1.3c-2.1-0.6-4.1-1.3-6.2-2.1
					C434.7,176.9,434.3,176.6,434.1,176.2z M450.2,180.5c-0.2-0.4-0.4-0.9-0.3-1.3c0.2-1.1,1.1-1.8,2.2-1.6c2,0.3,4.1,0.5,6.1,0.6
					c1.1,0.1,1.9,1,1.8,2.1c-0.1,1.1-1,1.9-2.1,1.8c-2.2-0.1-4.3-0.4-6.5-0.7C451,181.2,450.5,180.9,450.2,180.5z M466.9,181.1
					c-0.2-0.3-0.3-0.6-0.3-0.9c-0.1-1.1,0.7-2,1.8-2.1c2-0.1,4.1-0.4,6.1-0.7c1.1-0.2,2,0.6,2.2,1.6s-0.5,2.1-1.6,2.2
					c-2.1,0.3-4.3,0.6-6.5,0.8C467.9,182,467.2,181.6,466.9,181.1z M483.2,178c-0.1-0.1-0.2-0.3-0.2-0.5c-0.3-1,0.3-2.1,1.3-2.4
					c2-0.6,3.9-1.3,5.8-2.1c1-0.4,2.1,0.1,2.5,1.1c0.4,1-0.1,2.1-1.1,2.5c-2,0.8-4.1,1.5-6.1,2.2C484.6,179,483.7,178.7,483.2,178z
					 M498.5,171.4c0,0,0-0.1-0.1-0.1c-0.5-0.9-0.2-2.1,0.7-2.6c1.3-0.8,2.6-1.5,3.9-2.4c0.5-0.3,0.9-0.6,1.4-0.9
					c0.9-0.6,2.1-0.4,2.7,0.5c0.6,0.9,0.4,2.1-0.5,2.7c-0.5,0.3-1,0.6-1.4,1c-1.3,0.9-2.7,1.7-4.1,2.5
					C500.2,172.5,499,172.2,498.5,171.4z"/>
				<path class="st0" d="M385.6,103.1c-0.2-0.3-0.3-0.7-0.3-1.1c0-1.1,0.1-2.1,0.2-3.2c0.1-1.1,1-1.9,2.1-1.8c1.1,0.1,1.9,1,1.8,2.1
					c-0.1,1-0.1,2-0.2,3c0,1.1-0.9,1.9-2,1.9C386.5,103.9,385.9,103.6,385.6,103.1z"/>
			</g>
			<g>
				<g>
					<path class="st17" d="M405.9,92.9c-0.1,0.4,0,0.8,0.3,1l8.9,6.6c-0.4,5.1,0,10.4,1.3,15.5l-7.6,8c-0.3,0.3-0.3,0.7-0.1,1
						l6.1,11.8c0.2,0.3,0.5,0.5,0.9,0.5l10.9-1.6c3.5,4,7.5,7.4,11.9,10.1l0.3,11c0,0.4,0.3,0.7,0.6,0.8l12.6,4c0.4,0.1,0.8,0,1-0.3
						l6.6-8.9c5.1,0.4,10.4,0,15.5-1.3l8,7.6c0.3,0.3,0.7,0.3,1,0.1l11.8-6.1c0.3-0.2,0.5-0.6,0.5-0.9l-1.6-10.9
						c4-3.4,7.4-7.5,10-11.9l11-0.3c0.4,0,0.7-0.3,0.8-0.6l4-12.6c0.1-0.4,0-0.8-0.3-1l-8.9-6.6c0.4-5.1,0-10.4-1.3-15.5l7.6-8
						c0.3-0.3,0.3-0.7,0.2-1l-6.1-11.8c-0.2-0.3-0.5-0.5-0.9-0.5l-10.9,1.6c-3.5-4-7.5-7.4-11.9-10l-0.3-11c0-0.4-0.3-0.7-0.6-0.8
						l-12.6-4c-0.4-0.1-0.8,0-1,0.3l-6.6,8.8c-5.1-0.4-10.4,0-15.5,1.3l-8-7.6c-0.3-0.3-0.7-0.3-1-0.2l-11.8,6.1
						c-0.3,0.2-0.5,0.5-0.5,0.9l1.6,10.9c-4,3.4-7.4,7.5-10,11.9l-11,0.3c-0.4,0-0.7,0.3-0.8,0.6L405.9,92.9z"/>
				</g>
				<g>
					<path class="st18" d="M452.1,111.6c-3.5-5.4-2.7-12.8,2.3-17.2c5.5-4.9,13.9-4.3,18.8,1.2c2.4,2.7,3.5,6.1,3.3,9.6
						c-0.2,3.6-1.8,6.8-4.5,9.2c-5.5,4.9-13.9,4.3-18.8-1.2C452.9,112.6,452.5,112.1,452.1,111.6z M471.9,98.8
						c-0.3-0.4-0.6-0.8-0.9-1.2c-3.7-4.2-10.2-4.6-14.4-0.9s-4.6,10.2-0.9,14.4c3.7,4.2,10.2,4.6,14.4,0.9c2-1.8,3.3-4.3,3.4-7
						C473.6,102.7,473.1,100.6,471.9,98.8z"/>
				</g>
				<g>
					<path class="st18" d="M436.2,122.3c-0.6-0.9-1.2-1.9-1.7-2.9l0,0c-0.2-0.3-0.3-0.6-0.5-1c-0.8-1.6-1.4-3.2-1.9-4.9
						c0,0,0-0.1,0-0.1c0-0.1,0-0.1-0.1-0.2c0-0.1-0.1-0.2-0.1-0.4c-0.1-0.3,0-0.7,0.3-0.8c0.1,0,0.1-0.1,0.2-0.1
						c0.4-0.1,0.8,0.1,1,0.6c0.6,2.1,1.4,4.2,2.4,6.2c5.1,9.8,14.7,15.8,24.9,16.8c5.7,0.5,11.6-0.5,17.1-3.3c1-0.5,1.9-1,2.8-1.6
						c6-3.9,10.4-9.7,12.6-16.6c2.5-7.9,1.8-16.4-2-23.8c-7.9-15.3-26.7-21.3-42-13.4c-0.9,0.5-1.9,1-2.7,1.6
						c-3.8,2.5-7.1,5.8-9.5,9.7c-0.1,0.1-0.1,0.2-0.2,0.2c-0.2,0.2-0.6,0.2-0.8,0c-0.4-0.2-0.5-0.7-0.2-1.1
						c2.5-4.1,5.9-7.5,9.9-10.2c0.9-0.6,1.9-1.2,2.9-1.7c16-8.3,35.8-2,44.1,14.1c4,7.8,4.8,16.6,2.1,25c-2.3,7.2-7,13.3-13.3,17.4
						c-0.9,0.6-1.9,1.2-2.9,1.7c-7.8,4-16.6,4.8-25,2.1C446.4,133.2,440.3,128.6,436.2,122.3z"/>
				</g>
			</g>
		</g>
		<g>
			<g class="st16">
				<path class="st0" d="M334.4,19.5c-0.3-0.4-0.3-1,0.1-1.4c0.7-0.8,1.4-1.5,2.1-2.3c0.5-0.5,1.2-0.5,1.7,0s0.5,1.2,0,1.7
					c-0.7,0.7-1.3,1.4-2,2.2c-0.4,0.5-1.2,0.6-1.7,0.1C334.5,19.6,334.5,19.5,334.4,19.5z"/>
				<path class="st0" d="M341,13c-0.3-0.5-0.2-1.2,0.2-1.6c1.4-1.1,2.8-2.1,4.3-3.1c0.3-0.2,0.6-0.4,0.9-0.6
					c0.6-0.3,1.3-0.1,1.6,0.4c0.4,0.6,0.2,1.3-0.4,1.6c-0.3,0.2-0.6,0.4-0.9,0.6c-1.4,0.9-2.8,1.9-4.1,3
					C342.3,13.7,341.5,13.6,341,13C341.1,13.1,341,13.1,341,13z M351.6,6.4c0-0.1-0.1-0.1-0.1-0.2c-0.3-0.6,0-1.3,0.6-1.6
					C354,3.8,356,3,358,2.4c0.6-0.2,1.3,0.2,1.5,0.8c0.2,0.6-0.1,1.3-0.8,1.5c-1.9,0.6-3.8,1.4-5.7,2.2
					C352.6,7.1,351.9,6.9,351.6,6.4z M363.5,2.6c-0.1-0.1-0.1-0.3-0.2-0.4c-0.1-0.6,0.3-1.3,1-1.4c2.1-0.4,4.2-0.7,6.3-0.8
					c0.7,0,1.2,0.5,1.3,1.1c0,0.7-0.5,1.2-1.1,1.3c-2,0.1-4,0.4-6,0.8C364.2,3.2,363.7,3,363.5,2.6z M375.9,1.9
					c-0.1-0.2-0.2-0.5-0.2-0.7c0-0.7,0.6-1.2,1.3-1.1c2.1,0.1,4.2,0.4,6.3,0.8c0.6,0.1,1.1,0.8,1,1.4s-0.8,1.1-1.4,1
					c-2-0.4-4-0.6-6-0.7C376.4,2.4,376.1,2.2,375.9,1.9z M388.1,4.1c-0.2-0.3-0.2-0.7-0.1-1c0.2-0.6,0.9-1,1.5-0.8
					c2,0.6,4,1.4,6,2.3c0.6,0.3,0.9,1,0.6,1.6s-1,0.9-1.6,0.6c-1.8-0.8-3.8-1.6-5.7-2.2C388.5,4.5,388.3,4.3,388.1,4.1z M399.4,9.3
					c-0.2-0.4-0.3-0.9,0-1.3c0.4-0.6,1.1-0.7,1.6-0.4c1.8,1.1,3.6,2.3,5.2,3.7c0.5,0.4,0.6,1.2,0.2,1.7c-0.4,0.5-1.2,0.6-1.7,0.2
					c-1.6-1.3-3.2-2.4-5-3.5C399.6,9.6,399.5,9.4,399.4,9.3z M409.1,17.1c-0.3-0.5-0.2-1.1,0.2-1.5c0.5-0.5,1.2-0.4,1.7,0
					c1.5,1.5,2.9,3.1,4.1,4.8c0.4,0.5,0.3,1.3-0.2,1.7c-0.5,0.4-1.3,0.3-1.7-0.2c-1.2-1.6-2.6-3.2-4-4.6
					C409.2,17.2,409.2,17.1,409.1,17.1z M419.4,32.6c0-0.1-0.1-0.1-0.1-0.2c-0.7-1.6-1.5-3.2-2.3-4.8c-0.1-0.2-0.3-0.5-0.4-0.7
					c-0.3-0.6-0.1-1.3,0.4-1.6c0.6-0.3,1.3-0.1,1.6,0.4c0.1,0.2,0.3,0.5,0.4,0.7c0.9,1.6,1.7,3.3,2.4,5c0.3,0.6,0,1.3-0.6,1.6
					C420.4,33.3,419.7,33.1,419.4,32.6z"/>
			</g>
			<g class="st16">
				<path class="st0" d="M330.9,80.6c-0.4-0.6-0.2-1.3,0.3-1.7s1.3-0.2,1.7,0.3c1.1,1.7,2.3,3.3,3.6,4.8c0.4,0.5,0.4,1.3-0.1,1.7
					s-1.3,0.4-1.7-0.1C333.3,84,332,82.3,330.9,80.6C330.9,80.6,330.9,80.6,330.9,80.6z M327.8,75.3c0,0,0-0.1-0.1-0.1
					c-1-1.9-1.8-3.8-2.5-5.8c-0.2-0.6,0.1-1.3,0.7-1.5s1.3,0.1,1.5,0.7c0.7,1.9,1.5,3.7,2.4,5.5c0.3,0.6,0.1,1.3-0.5,1.6
					C328.8,75.9,328.1,75.8,327.8,75.3z M338.9,89.8c-0.3-0.4-0.3-1.1,0.1-1.5c0.4-0.5,1.2-0.5,1.7-0.1c1.5,1.3,3,2.6,4.7,3.7
					c0.5,0.4,0.7,1.1,0.3,1.7s-1.1,0.7-1.7,0.3c-1.7-1.2-3.4-2.5-4.9-3.9C339,90,338.9,89.9,338.9,89.8z M323.6,63.8
					c-0.1-0.1-0.1-0.2-0.2-0.4c-0.5-2-0.8-4.1-1-6.2c-0.1-0.7,0.4-1.2,1.1-1.3s1.2,0.4,1.3,1.1c0.2,2,0.5,4,1,5.9
					c0.1,0.6-0.2,1.3-0.9,1.4C324.3,64.4,323.8,64.2,323.6,63.8z M348.9,96.9c-0.2-0.4-0.3-0.8,0-1.2c0.3-0.6,1-0.8,1.6-0.5
					c1.8,0.9,3.6,1.8,5.4,2.5c0.6,0.2,0.9,0.9,0.7,1.6c-0.2,0.6-0.9,0.9-1.5,0.7c-1.9-0.8-3.9-1.6-5.7-2.6
					C349.1,97.2,349,97,348.9,96.9z M360.3,101.3c-0.2-0.3-0.2-0.6-0.2-0.9c0.2-0.6,0.8-1,1.5-0.9c1.9,0.5,3.9,0.9,5.9,1.1
					c0.7,0.1,1.1,0.7,1,1.3c-0.1,0.7-0.7,1.1-1.3,1c-2.1-0.3-4.1-0.7-6.2-1.2C360.7,101.8,360.4,101.6,360.3,101.3z M372.4,102.9
					c-0.1-0.2-0.2-0.4-0.2-0.7c0-0.7,0.5-1.2,1.2-1.2c2,0,4-0.1,6-0.3c0.7-0.1,1.2,0.4,1.3,1.1c0.1,0.7-0.4,1.2-1.1,1.3
					c-2.1,0.2-4.2,0.3-6.3,0.3C373,103.5,372.6,103.3,372.4,102.9z"/>
				<path class="st0" d="M322.3,51.5c-0.1-0.2-0.2-0.4-0.2-0.7c0-1,0.1-2.1,0.1-3.1c0-0.7,0.6-1.2,1.3-1.1c0.7,0,1.1,0.6,1.1,1.3
					c-0.1,1-0.1,1.9-0.1,2.9c0,0.7-0.6,1.2-1.2,1.2C322.8,52.1,322.5,51.8,322.3,51.5z"/>
			</g>
			<g>
				<g>
					<path class="st17" d="M335.8,43.9c-0.1,0.2,0,0.5,0.2,0.7l5.9,4.4c-0.3,3.4,0,7,0.9,10.4l-5.1,5.3c-0.2,0.2-0.2,0.5-0.1,0.7
						l4.1,7.9c0.1,0.2,0.4,0.4,0.6,0.3l7.3-1.1c2.3,2.7,5,5,8,6.7l0.2,7.4c0,0.3,0.2,0.5,0.4,0.6l8.4,2.7c0.2,0.1,0.5,0,0.7-0.2
						l4.4-5.9c3.4,0.3,7,0,10.4-0.9l5.3,5.1c0.2,0.2,0.5,0.2,0.7,0.1L396,84c0.2-0.1,0.4-0.4,0.3-0.6l-1.1-7.3c2.7-2.3,5-5,6.7-8
						l7.4-0.2c0.3,0,0.5-0.2,0.6-0.4l2.7-8.4c0.1-0.2,0-0.5-0.2-0.7l-5.9-4.4c0.3-3.4,0-7-0.9-10.4l5.1-5.3c0.2-0.2,0.2-0.5,0.1-0.7
						l-4.1-7.9c-0.1-0.2-0.4-0.4-0.6-0.3l-7.3,1.1c-2.3-2.7-5-5-8-6.7l-0.2-7.4c0-0.3-0.2-0.5-0.4-0.6l-8.4-2.7
						c-0.2-0.1-0.5,0-0.7,0.2l-4.4,5.9c-3.4-0.3-7,0-10.4,0.9L361,15c-0.2-0.2-0.5-0.2-0.7-0.1l-7.9,4.1c-0.2,0.1-0.4,0.4-0.3,0.6
						l1.1,7.3c-2.7,2.3-5,5-6.7,8L339,35c-0.3,0-0.5,0.2-0.6,0.4L335.8,43.9z"/>
				</g>
				<g>
					<path class="st18" d="M366.6,56.4c-1.1-1.6-1.6-3.5-1.4-5.5c0.1-2.4,1.2-4.6,3-6.2c3.8-3.3,9.5-3,12.8,0.8
						c3.3,3.8,3,9.5-0.8,12.8c-1.8,1.6-4.1,2.4-6.6,2.3c-2.4-0.2-4.6-1.2-6.2-3C367.1,57.2,366.8,56.8,366.6,56.4z M379.8,47.9
						c-0.2-0.3-0.4-0.5-0.6-0.8c-2.4-2.8-6.7-3-9.4-0.6c-1.3,1.2-2.1,2.8-2.2,4.6s0.5,3.5,1.7,4.8l0,0c1.2,1.3,2.8,2.1,4.6,2.2
						s3.5-0.5,4.8-1.7C381.1,54.3,381.6,50.6,379.8,47.9z"/>
				</g>
				<g>
					<path class="st18" d="M355.5,63.9c-0.4-0.6-0.8-1.3-1.1-2c-0.7-1.4-1.3-2.8-1.7-4.3c0-0.1,0-0.1,0-0.2c-0.1-0.5,0.1-1,0.5-1.3
						c0.1-0.1,0.2-0.1,0.3-0.2c0.6-0.2,1.3,0.2,1.5,0.8c0.4,1.4,0.9,2.7,1.6,4l0,0c0,0.1,0.1,0.1,0.1,0.2c1.6,3,3.9,5.5,6.6,7.3
						c1.5,1,3.1,1.8,4.9,2.4c0,0,0,0,0,0c0,0,0.1,0,0.1,0c5.1,1.6,10.6,1.2,15.4-1.3c0.6-0.3,1.2-0.7,1.8-1
						c3.9-2.5,6.8-6.3,8.2-10.8c1.6-5.1,1.2-10.6-1.3-15.4s-6.7-8.3-11.8-10c-5.1-1.6-10.6-1.2-15.4,1.3c-0.6,0.3-1.2,0.7-1.8,1
						c-2.5,1.6-4.6,3.8-6.1,6.3c-0.1,0.2-0.2,0.3-0.4,0.4c-0.4,0.2-0.9,0.3-1.3,0c-0.6-0.3-0.7-1.1-0.4-1.7c1.7-2.8,4.1-5.2,6.9-7
						c0.6-0.4,1.3-0.8,2-1.1c5.4-2.8,11.5-3.3,17.2-1.5s10.4,5.8,13.2,11.2c2.8,5.4,3.3,11.5,1.5,17.2c-1.6,5-4.8,9.2-9.1,12
						c-0.6,0.4-1.3,0.8-2,1.2C374.4,77,361.7,73.5,355.5,63.9z"/>
				</g>
			</g>
		</g>
	</g>
</g>
</svg>
