<?xml version="1.0" encoding="utf-8"?>
<!-- Generator: Adobe Illustrator 26.3.1, SVG Export Plug-In . SVG Version: 6.00 Build 0)  -->
<svg version="1.1" id="Layer_1" xmlns="http://www.w3.org/2000/svg" xmlns:xlink="http://www.w3.org/1999/xlink" x="0px" y="0px"
	 viewBox="0 0 518.51 373.93" style="enable-background:new 0 0 518.51 373.93;" xml:space="preserve">
<g>
	<g>
		<g>
			<g>
				<path style="fill:#6ABEE2;" d="M12.78,46.67c-1.03-8.81,9-21.24,27.13-10.26c0.5-4.17,23.25-17.15,33.79,10.15
					c1.8-6.62,18.32-3.3,21.29,7.89c6.21-2.76,21.14,11.11,1.38,13.5c-25.24,3.06-83.05,2.17-93.42-12.97
					C-7.41,39.84,12.78,46.67,12.78,46.67z"/>
			</g>
		</g>
		<path style="fill:#6ABEE2;" d="M113.98,34.51c-0.66-5.65,5.77-13.62,17.41-6.58c0.32-2.67,14.92-11,21.68,6.51
			c1.16-4.25,11.75-2.12,13.66,5.06c3.98-1.77,13.56,7.12,0.88,8.66c-16.19,1.96-53.28,1.39-59.93-8.32
			C101.03,30.12,113.98,34.51,113.98,34.51z"/>
	</g>
	<g>
		<g>
			<g>
				<path style="fill:#1379CE;" d="M376.47,157.43c-1.72-3.07-2.46-6.59-2.05-10.08c0.53-4.5,0.81-10.08,0.28-16.19
					c-1.48-17.04-8.6-31.44-20.74-42.16c-1.6-1.41-2.42-3.52-2.15-5.63c0.41-3.17,0.54-6.96,0-11.15
					c-1.28-9.96-6.7-23.98-24.93-35.52c-1.87-5.85-7.25-16.52-22.61-24.92c-11.4-6.23-22.2-7.72-30.42-4.21
					c-3.39,1.45-6.21,3.73-8.22,6.57c-2.36,0.43-4.87,1.4-7.16,3.15c-1.29,0.98-2.43,2.13-3.44,3.46c-1.5,1.98-4.47,1.98-5.97,0
					c-1.01-1.33-2.16-2.48-3.44-3.46c-2.3-1.75-4.8-2.72-7.16-3.15c-2-2.84-4.82-5.12-8.22-6.57c-8.22-3.51-19.03-2.02-30.42,4.21
					c-15.36,8.39-20.74,19.06-22.61,24.92c-18.22,11.54-23.65,25.57-24.93,35.52c-0.33,2.58-0.41,5.01-0.32,7.23
					c0.17,4.55-1.46,9.01-4.68,12.23c-10.4,10.39-16.52,23.82-17.87,39.47c-0.53,6.17-0.24,11.8,0.3,16.32
					c0.41,3.41-0.31,6.85-2,9.85c-6.37,11.25-7.19,30.75-1.53,52.42c3.39,12.96,9.19,22.46,17.24,28.22
					c0.01,0.01,0.03,0.02,0.04,0.03c2.25,1.61,3.88,3.91,4.65,6.57c0.29,1.02,0.69,2.03,1.19,3.02
					c6.62,13.22,30.14,20.27,50.51,21.39c1.04,0.06,2.05,0.09,3.05,0.09c10.02,0,17.97-2.9,23.66-8.63
					c4.44-4.48,6.51-9.73,7.45-13.98c8.04-0.98,13.91-3.9,17.49-8.72c0.21-0.28,0.4-0.57,0.59-0.86c0.19,0.29,0.38,0.57,0.59,0.86
					c3.59,4.82,9.45,7.74,17.49,8.72c0.94,4.25,3.01,9.5,7.45,13.98c5.69,5.74,13.64,8.63,23.66,8.63c0.99,0,2.01-0.03,3.05-0.09
					c20.37-1.12,43.89-8.18,50.51-21.39c0.5-1,0.89-2,1.19-3.02c0.76-2.66,2.4-4.96,4.65-6.57c0.01-0.01,0.03-0.02,0.04-0.03
					c8.05-5.77,13.85-15.26,17.24-28.22C383.58,188.15,382.78,168.7,376.47,157.43z"/>
			</g>
		</g>
		<path style="fill:#6ABEE2;" d="M246.8,41.94v182.22c0,0,4.68,15.09-19.88,14.84c0,0,1.5,23.72-26.66,22.17
			c-28.15-1.55-51.34-13.81-43.31-25.88c0,0-16.15-0.65-23.18-27.53c-7.03-26.88-2.7-47.29,5.56-51.69c0,0-13.15-42.59,22.58-66.25
			c0,0-12.31-28.28,22.14-48.13c0,0,1.44-13.18,19.54-23.07c17-9.29,27.92-4.56,30.02,3.24C233.61,21.88,246.8,18.23,246.8,41.94z"
			/>
		<path style="fill:#6ABEE2;" d="M257.34,41.94v182.22c0,0-4.68,15.09,19.88,14.84c0,0-1.5,23.72,26.66,22.17
			c28.15-1.55,51.34-13.81,43.31-25.88c0,0,16.15-0.65,23.18-27.53c7.03-26.88,2.7-47.29-5.56-51.69c0,0,13.15-42.59-22.58-66.25
			c0,0,12.31-28.28-22.14-48.13c0,0-1.44-13.18-19.53-23.07c-17-9.29-27.92-4.56-30.02,3.24C270.52,21.88,257.34,18.23,257.34,41.94
			z"/>
		<path style="opacity:0.8;fill:#FFFFFF;" d="M231.7,44.75c-0.08,0-0.16-0.01-0.25-0.02c-3.89-0.75-10.95-4.53-9.88-13.47
			c1.02-8.49,8.31-10.67,12.05-10.68c0.71,0,1.29,0.58,1.28,1.3c0,0.71-0.58,1.28-1.29,1.28c0,0,0,0-0.01,0
			c-0.34,0-8.47,0.1-9.47,8.41c-1.06,8.81,7.44,10.55,7.8,10.62c0.7,0.13,1.16,0.81,1.02,1.51C232.84,44.32,232.3,44.75,231.7,44.75
			z"/>
		<path style="opacity:0.8;fill:#FFFFFF;" d="M210.66,79.28c-2.19,0-4.36-0.44-6.13-1.14c-2.75-1.08-4.4-2.67-4.65-4.48
			c-0.1-0.71,0.39-1.36,1.1-1.46c0.7-0.1,1.36,0.39,1.46,1.1c0.08,0.61,0.93,1.61,3.04,2.44c3.25,1.28,8.15,1.46,10.81-0.72
			c1.74-1.42,2.36-3.71,1.82-6.79c-1.8-10.34-10.53-11.14-20.64-12.07c-2.23-0.2-4.53-0.42-6.78-0.74c-4.45-0.64-7.3-2.27-8.47-4.84
			c-1.66-3.65,0.86-7.64,0.97-7.81c0.39-0.6,1.19-0.77,1.78-0.38c0.6,0.39,0.77,1.18,0.39,1.78c-0.04,0.06-1.87,3-0.79,5.36
			c0.98,2.13,4.07,3,6.49,3.35c2.18,0.32,4.45,0.52,6.65,0.73c10.23,0.94,20.81,1.91,22.94,14.2c0.88,5.07-1,7.82-2.73,9.23
			C215.94,78.63,213.29,79.28,210.66,79.28z"/>
		<path style="opacity:0.8;fill:#FFFFFF;" d="M187.3,111.12c-2.54,0-4.73-1.09-5.51-2.9c-0.28-0.65,0.02-1.41,0.67-1.7
			c0.65-0.28,1.41,0.02,1.7,0.67c0.43,0.99,2.42,1.69,4.7,1.15c1.3-0.31,5.53-1.81,5.17-8.22c-0.24-4.17-1.58-7.01-3.99-8.44
			c-2.97-1.76-7.58-1.31-13,1.27c-11.34,5.39-15.13-0.78-15.29-1.05c-0.36-0.61-0.16-1.41,0.46-1.77c0.61-0.36,1.39-0.16,1.76,0.44
			c0.13,0.21,2.91,4.34,11.96,0.04c6.31-3,11.64-3.4,15.43-1.16c2.2,1.3,4.89,4.19,5.25,10.51c0.38,6.68-3.45,10-7.15,10.87
			C188.72,111.04,188,111.12,187.3,111.12z"/>
		<path style="opacity:0.8;fill:#FFFFFF;" d="M178.44,143.2c-0.74,0-1.5-0.06-2.27-0.18c-4.6-0.73-8.52-3.69-11.66-8.8
			c-3.14-5.11-4.08-10.07-2.8-14.76c2.15-7.89,9.81-12.02,10.14-12.19c0.63-0.33,1.41-0.09,1.74,0.54c0.33,0.63,0.09,1.41-0.54,1.74
			c-0.1,0.05-7.02,3.82-8.86,10.61c-1.08,3.96-0.23,8.24,2.51,12.71c2.73,4.44,6.05,7,9.87,7.61c6.63,1.06,12.71-4.02,12.77-4.08
			c0.54-0.46,1.36-0.39,1.82,0.15c0.46,0.54,0.4,1.36-0.15,1.82C190.76,138.58,185.24,143.2,178.44,143.2z"/>
		<path style="opacity:0.8;fill:#FFFFFF;" d="M226.89,146.55c-0.2,0-0.4-0.05-0.58-0.14c-0.64-0.32-0.89-1.1-0.57-1.73
			c0-0.01,0.71-1.49,0.66-4.14c-0.04-2.47-0.77-6.49-3.97-11.61c-6.08-9.72-17.65-7.59-17.76-7.57c-0.7,0.13-1.38-0.32-1.51-1.02
			c-0.14-0.7,0.32-1.38,1.02-1.51c0.13-0.03,13.43-2.47,20.44,8.74c6.93,11.07,3.57,17.99,3.42,18.28
			C227.82,146.29,227.37,146.55,226.89,146.55z"/>
		<path style="opacity:0.8;fill:#FFFFFF;" d="M212.23,180.43c-0.36,0-0.73-0.15-0.98-0.45c-0.46-0.54-0.4-1.36,0.14-1.82
			c1.54-1.32,3.32-3.49,3.05-6.38c-0.38-3.95-4.47-8.23-11.84-12.39c-8.04-4.54-14.61-5.76-19.53-3.64
			c-5.58,2.41-7.13,8.49-7.15,8.55c-0.17,0.69-0.87,1.12-1.56,0.95c-0.69-0.17-1.12-0.86-0.95-1.55c0.07-0.3,1.85-7.36,8.6-10.3
			c5.7-2.48,13.06-1.22,21.85,3.74c8.25,4.66,12.67,9.5,13.14,14.39c0.3,3.12-1.1,6.17-3.94,8.59
			C212.82,180.33,212.52,180.43,212.23,180.43z"/>
		<path style="opacity:0.8;fill:#FFFFFF;" d="M222.1,213.32c-4.65,0-9.17-2.4-11.65-6.57c-0.37-0.61-0.17-1.4,0.45-1.77
			c0.61-0.36,1.4-0.16,1.77,0.45c2.74,4.59,8.52,6.53,13.46,4.53c2.15-0.87,8.93-4.73,5.86-17.65c-3.03-12.76-3.09-20.68-0.19-24.93
			c1.45-2.12,3.65-3.36,6.71-3.78c7.28-1.01,9.35,2.95,9.44,3.12c0.32,0.64,0.06,1.41-0.58,1.73c-0.63,0.32-1.39,0.07-1.72-0.56
			c-0.08-0.14-1.5-2.47-6.78-1.73c-2.34,0.32-3.91,1.18-4.94,2.68c-2.43,3.55-2.25,11.04,0.57,22.88c1.85,7.77,0.87,17.27-7.4,20.63
			C225.48,213.01,223.78,213.32,222.1,213.32z"/>
		<path style="opacity:0.8;fill:#FFFFFF;" d="M176.14,192.4c-10.36,0-15.31-13.49-19.38-24.58c-1.04-2.84-2.03-5.53-3.03-7.8
			c-1.54-3.49-3.46-5.49-5.69-5.97c-3.21-0.68-6.17,1.97-6.2,1.99c-0.53,0.48-1.34,0.44-1.82-0.09c-0.48-0.53-0.44-1.34,0.09-1.82
			c0.16-0.15,3.98-3.56,8.47-2.61c3.09,0.65,5.62,3.16,7.52,7.45c1.04,2.34,2.04,5.07,3.1,7.95c4.44,12.1,9.48,25.82,20.53,22.28
			c4.14-1.33,6.58-3.25,7.26-5.7c1.11-4-2.65-8.34-2.69-8.38c-0.47-0.54-0.42-1.35,0.12-1.82c0.54-0.47,1.35-0.42,1.82,0.12
			c0.19,0.22,4.71,5.45,3.24,10.77c-0.93,3.35-3.94,5.86-8.96,7.47C178.94,192.17,177.49,192.4,176.14,192.4z"/>
		<path style="opacity:0.8;fill:#FFFFFF;" d="M158.07,235.54c-0.22,0-0.44-0.06-0.64-0.17c-0.62-0.36-0.83-1.14-0.47-1.76
			c8.35-14.5,20.64-18.99,21.16-19.17c0.67-0.24,1.41,0.11,1.65,0.79c0.24,0.67-0.11,1.41-0.78,1.65l0,0
			c-0.12,0.04-11.93,4.39-19.78,18.03C158.95,235.3,158.51,235.54,158.07,235.54z"/>
		<path style="opacity:0.8;fill:#FFFFFF;" d="M225.78,238.87c-0.33,0-0.65-0.12-0.9-0.37c-5.09-4.97-10.32-4.21-15.85-3.41
			c-5.01,0.73-10.19,1.48-14.61-2.72c-3.3-3.14-4.91-6.6-4.78-10.31c0.23-6.67,6.08-11.57,6.33-11.77c0.55-0.45,1.36-0.37,1.82,0.17
			c0.45,0.55,0.38,1.36-0.17,1.82c-0.07,0.06-5.21,4.39-5.39,9.88c-0.1,2.93,1.24,5.73,3.98,8.33c3.51,3.33,7.66,2.73,12.46,2.03
			c5.64-0.82,12.03-1.74,18.03,4.12c0.51,0.5,0.52,1.31,0.02,1.82C226.45,238.74,226.12,238.87,225.78,238.87z"/>
		<path style="opacity:0.8;fill:#FFFFFF;" d="M281.52,46.1c-1.96,0-4.12-0.44-6.44-1.45c-3.83-1.67-6.38-4.24-7.57-7.63
			c-2.32-6.61,1.43-13.89,1.6-14.2c0.33-0.63,1.11-0.87,1.74-0.54c0.63,0.33,0.87,1.11,0.54,1.74c-0.05,0.09-3.39,6.63-1.44,12.15
			c0.94,2.68,3.02,4.73,6.16,6.11c6.74,2.95,11.23,0.17,13.03-3.1c1.23-2.23,1.45-5.38-0.97-7c-0.59-0.4-0.75-1.2-0.35-1.79
			c0.4-0.59,1.2-0.75,1.79-0.35c3.17,2.13,3.92,6.5,1.79,10.38C289.65,43.63,286.16,46.1,281.52,46.1z"/>
		<path style="opacity:0.8;fill:#FFFFFF;" d="M291.34,64.78c-0.53,0-1.03-0.33-1.22-0.86c-0.08-0.24-2-5.86,1-9.9
			c2-2.7,5.62-3.95,10.74-3.73c8.35,0.37,13.61-0.52,15.64-2.63c0.84-0.87,1.17-2,1.05-3.54c-0.06-0.71,0.47-1.33,1.18-1.39
			c0.71-0.05,1.33,0.47,1.39,1.18c0.18,2.27-0.41,4.14-1.76,5.54c-2.64,2.74-8.24,3.82-17.61,3.41c-4.21-0.19-7.08,0.72-8.55,2.68
			c-2.19,2.93-0.66,7.48-0.64,7.52c0.23,0.67-0.12,1.41-0.8,1.64C291.62,64.76,291.48,64.78,291.34,64.78z"/>
		<path style="opacity:0.8;fill:#FFFFFF;" d="M268.53,88.98c-0.05,0-0.09,0-0.13,0c-0.71-0.01-1.28-0.6-1.27-1.31
			c0.01-0.71,0.61-1.28,1.31-1.27c2.83,0.03,6.06-2.47,7.85-6.14c2.06-4.24,1.68-8.76-1.03-12.1c-1.94-2.39-3.84-3.55-5.63-3.49
			c-2.38,0.1-3.98,2.43-3.99,2.45c-0.4,0.59-1.2,0.75-1.79,0.35c-0.59-0.4-0.75-1.19-0.36-1.78c0.09-0.14,2.31-3.42,6-3.59
			c2.67-0.12,5.28,1.37,7.77,4.44c3.36,4.14,3.87,9.69,1.35,14.85C276.39,85.95,272.35,88.98,268.53,88.98z"/>
		<path style="opacity:0.8;fill:#FFFFFF;" d="M314.02,97.9c-3.09,0-6.83-0.93-11.19-3.61c-8.57-5.26-9.75-13.74-8.14-19.4
			c1.38-4.89,4.71-8.17,8.29-8.17c0,0,0,0,0.01,0c2.87,0,4.94,0.79,6.16,2.34c1.58,2.01,1.02,4.47,0.99,4.58
			c-0.16,0.69-0.86,1.12-1.55,0.96c-0.69-0.16-1.12-0.85-0.96-1.54c0.01-0.04,0.28-1.41-0.52-2.41c-0.7-0.87-2.13-1.34-4.13-1.34
			c0,0,0,0,0,0c-2.37,0-4.76,2.59-5.81,6.29c-1.42,5.03-0.33,12,7.01,16.5c5.26,3.23,10.01,4.06,14.11,2.48
			c2.95-1.14,4.49-3.18,4.5-3.2c0.42-0.58,1.22-0.71,1.8-0.29c0.58,0.42,0.71,1.22,0.29,1.8C324.83,92.95,321.13,97.9,314.02,97.9z"
			/>
		<path style="opacity:0.8;fill:#FFFFFF;" d="M313.39,144.78c-3.68,0-7.96-1.3-12.58-4.93c-14.19-11.16-2.37-27.23-2.25-27.39
			c0.43-0.57,1.24-0.68,1.81-0.26c0.57,0.43,0.68,1.24,0.26,1.81l0,0c-0.03,0.04-2.72,3.67-3.79,8.45
			c-1.39,6.19,0.48,11.36,5.58,15.36c12.18,9.58,20.11,0.57,20.44,0.18c0.46-0.54,1.28-0.61,1.82-0.15
			c0.54,0.46,0.61,1.27,0.15,1.81C322.84,142.02,318.75,144.78,313.39,144.78z"/>
		<path style="opacity:0.8;fill:#FFFFFF;" d="M338.36,129.49c-2.44,0-5.55-0.87-9.09-3.79c-5.64-4.65-8.53-12.24-7.19-18.88
			c0.92-4.56,3.7-7.85,7.64-9.03c8.27-2.48,9.97-6.71,9.99-6.75c0.25-0.66,0.99-1,1.65-0.76c0.66,0.24,1.01,0.97,0.77,1.63
			c-0.08,0.22-2.03,5.45-11.67,8.34c-3.04,0.91-5.12,3.42-5.85,7.07c-0.96,4.77,0.61,11.69,6.3,16.38
			c4.09,3.37,8.33,4.14,11.36,2.05c1.95-1.34,2.87-3.6,2.23-5.5c-0.23-0.68,0.14-1.41,0.81-1.63c0.68-0.22,1.41,0.14,1.63,0.81
			c1,2.98-0.32,6.46-3.22,8.45C342.95,128.43,341.06,129.49,338.36,129.49z"/>
		<path style="opacity:0.8;fill:#FFFFFF;" d="M327.18,190.33c-0.02,0-0.05,0-0.07,0c-3.67-0.02-6.47-1.12-8.32-3.26
			c-2.89-3.33-2.31-7.91-2.28-8.1c0.1-0.71,0.75-1.2,1.45-1.11c0.71,0.1,1.2,0.74,1.11,1.45l0,0c0,0.04-0.44,3.65,1.69,6.08
			c1.35,1.54,3.49,2.33,6.38,2.35c0.02,0,0.04,0,0.05,0c5.25,0,9.78-4.6,12.66-8.47c3.47-4.66,5.98-10.17,6.84-13.31
			c0.14-0.51,0.27-1.04,0.41-1.59c1.03-4.02,2.31-9.03,6.38-10.89c2.84-1.3,6.45-0.83,11.04,1.45c0.64,0.32,0.9,1.09,0.58,1.73
			c-0.32,0.64-1.09,0.9-1.73,0.58c-3.79-1.88-6.76-2.36-8.82-1.41c-2.95,1.35-4.02,5.52-4.95,9.19c-0.14,0.56-0.28,1.11-0.43,1.63
			C347.51,172.72,338.87,190.32,327.18,190.33z"/>
		<g style="opacity:0.8;">
			<path style="fill:#FFFFFF;" d="M287.86,209.06c-0.11,0-0.22-0.01-0.33-0.04c-12.04-3.16-19.74-10.27-21.68-20.01
				c-2.06-10.35,2.8-20.48,8.42-24.75c6.46-4.91,14.58-3.99,24.14,2.75c0.23,0.17,0.5,0.35,0.62,0.43c0.52,0.21,0.87,0.74,0.81,1.32
				c-0.07,0.71-0.71,1.23-1.41,1.16c-0.43-0.04-0.68-0.22-1.51-0.8c-3.18-2.24-12.87-9.06-21.09-2.8
				c-5.07,3.85-9.24,13.21-7.45,22.19c1.23,6.17,5.66,14.3,19.8,18.01c0.69,0.18,1.1,0.89,0.92,1.58
				C288.95,208.68,288.43,209.06,287.86,209.06z M298.69,167.35C298.69,167.35,298.69,167.35,298.69,167.35
				C298.69,167.35,298.69,167.35,298.69,167.35z M298.69,167.35C298.69,167.35,298.69,167.35,298.69,167.35
				C298.69,167.35,298.69,167.35,298.69,167.35z"/>
		</g>
		<path style="opacity:0.8;fill:#FFFFFF;" d="M277.49,238.87c-0.7,0-1.28-0.56-1.29-1.26c0-0.15-0.04-3.83,3.01-6.91
			c2.71-2.74,6.9-4.09,12.44-4.05c9.48,0.11,16.36-1.97,17.98-5.37c1.01-2.14,0.07-4.98-2.82-8.45c-0.46-0.55-0.38-1.36,0.17-1.82
			c0.55-0.46,1.36-0.38,1.82,0.17c3.58,4.31,4.65,8.08,3.16,11.2c-3,6.31-15.22,6.88-20.33,6.84c-4.83-0.03-8.39,1.06-10.58,3.28
			c-2.25,2.27-2.26,5.02-2.26,5.04c0.01,0.71-0.55,1.3-1.26,1.32C277.51,238.87,277.5,238.87,277.49,238.87z"/>
		<path style="opacity:0.8;fill:#FFFFFF;" d="M346.08,235.85c-0.51,0-0.99-0.3-1.19-0.8c-5.69-13.77-18.07-15.33-18.2-15.34
			c-0.71-0.08-1.22-0.72-1.14-1.43c0.08-0.71,0.73-1.22,1.43-1.14c0.57,0.06,14.03,1.76,20.29,16.92c0.27,0.66-0.04,1.41-0.7,1.69
			C346.41,235.82,346.24,235.85,346.08,235.85z"/>
	</g>
	<g>
		<g>
			<path style="fill:#E54E3D;" d="M311.26,331.27l87.09-166.84h-17.84c-3.29,0-5.1-3.83-3.01-6.37l92.82-113.13
				c4.02-4.9,11.97-1.79,11.6,4.54l-6.52,110.62c-0.37,6.33-5.99,11.05-12.29,10.33l-12.44-1.42l-86.41,187.13
				c-2.25,4.87-7.13,7.99-12.49,7.99H321.8L311.26,331.27z"/>
			<path style="fill:#EF752C;" d="M239.26,214.26l61.48,136.58c3.64,8.09,11.69,13.29,20.56,13.29H353c4.21,0,8.08-2.28,10.12-5.96
				l1.13-2.03l0,0c-3.41,0-6.52-1.91-8.07-4.94l-81.92-160.51L239.26,214.26z"/>
			<path style="fill:#E54E3D;" d="M282.53,206.9L282.53,206.9c-6.17-4.87-15.17-3.44-19.53,3.1l-90.4,135.81
				c-7.24,10.88-19.44,17.41-32.51,17.41h-12.72l-10.35-29.82c0,0,84.04-128.86,105.7-148.35c0,0,21.57-19.44,42.84-4.74
				c5.62,3.88,9.88,9.43,12.49,15.74L282.53,206.9z"/>
			<path style="fill:#EF752C;" d="M18.71,253.21c0,0,15.13-18.91,44.45-21.86c0,0,13.93,4.74,41.67,54.46
				c27.75,49.72,46.16,72.39,67.77,60l-1.79,2.97c-5.9,9.79-16.49,15.78-27.92,15.78h-11.95c-13.16,0-25.51-6.33-33.2-17.01
				C76.16,317.53,31.97,257.87,18.71,253.21z"/>
			<linearGradient id="SVGID_1_" gradientUnits="userSpaceOnUse" x1="272.8871" y1="-147.7287" x2="596.892" y2="224.7756">
				<stop  offset="0" style="stop-color:#FF928E"/>
				<stop  offset="1" style="stop-color:#FEB3B1"/>
			</linearGradient>
			<path style="fill:url(#SVGID_1_);" d="M471.44,84.56c-0.04,0-0.07,0-0.11-0.01c-0.53-0.06-0.91-0.54-0.85-1.07l0.61-5.4
				c0.06-0.53,0.54-0.92,1.07-0.85c0.53,0.06,0.91,0.54,0.85,1.07l-0.61,5.4C472.34,84.19,471.92,84.56,471.44,84.56z"/>
			
				<linearGradient id="SVGID_00000016036343810604452660000016726537419060894116_" gradientUnits="userSpaceOnUse" x1="241.0424" y1="-120.0297" x2="565.0476" y2="252.4751">
				<stop  offset="0" style="stop-color:#FF928E"/>
				<stop  offset="1" style="stop-color:#FEB3B1"/>
			</linearGradient>
			<path style="fill:url(#SVGID_00000016036343810604452660000016726537419060894116_);" d="M393.95,152.74
				c-0.21,0-0.41-0.07-0.59-0.2c-0.42-0.33-0.5-0.93-0.18-1.36l76.64-99.59c0.92-1.2,2.48-1.62,3.88-1.05
				c1.4,0.57,2.22,1.95,2.05,3.45l-1.35,11.94c-0.06,0.53-0.54,0.91-1.07,0.85c-0.53-0.06-0.91-0.54-0.85-1.07l1.35-11.94
				c0.09-0.77-0.39-1.25-0.86-1.44c-0.47-0.19-1.14-0.18-1.62,0.44l-76.64,99.59C394.53,152.61,394.24,152.74,393.95,152.74z"/>
			
				<linearGradient id="SVGID_00000078757732759561645300000017388959015885823933_" gradientUnits="userSpaceOnUse" x1="71.5584" y1="27.3875" x2="395.5641" y2="399.8927">
				<stop  offset="0" style="stop-color:#FF928E"/>
				<stop  offset="1" style="stop-color:#FEB3B1"/>
			</linearGradient>
			<path style="fill:url(#SVGID_00000078757732759561645300000017388959015885823933_);" d="M220.08,257.15
				c-0.19,0-0.37-0.05-0.54-0.17c-0.44-0.3-0.56-0.9-0.26-1.34l39.64-58.76c1.44-2.14,3.84-3.3,6.42-3.11
				c2.57,0.2,4.77,1.7,5.87,4.04c0.23,0.48,0.02,1.06-0.46,1.29c-0.48,0.23-1.06,0.02-1.29-0.46c-0.8-1.7-2.4-2.79-4.27-2.94
				c-1.87-0.14-3.61,0.7-4.66,2.26l-39.64,58.76C220.69,257,220.39,257.15,220.08,257.15z"/>
			<path style="fill:#FFFFFF;" d="M209.77,272.41c-0.19,0-0.37-0.05-0.54-0.17c-0.44-0.3-0.56-0.9-0.26-1.34l2.54-3.77
				c0.3-0.44,0.9-0.56,1.34-0.26c0.44,0.3,0.56,0.9,0.26,1.34l-2.54,3.77C210.39,272.27,210.09,272.41,209.77,272.41z"/>
		</g>
	</g>
	<g>
		<path style="fill:#0E5BA9;" d="M268.88,125.88c-0.06-0.74-0.82-1.39-2.11-1.9c1.4-0.77,2.17-1.6,2.11-2.41
			c-0.2-2.45-7.96-3.82-17.34-3.07c-9.38,0.76-16.82,3.36-16.62,5.81c0.06,0.74,0.82,1.39,2.11,1.9c-1.4,0.77-2.17,1.6-2.11,2.41
			c0.06,0.74,0.82,1.39,2.11,1.9c-1.4,0.77-2.17,1.6-2.11,2.41c0.06,0.74,0.82,1.39,2.11,1.9c-1.4,0.77-2.17,1.6-2.11,2.41
			c0.09,1.08,1.66,1.96,4.19,2.53c-0.03,0.8-0.01,1.68,0.06,2.65c0.37,4.52,5.45,8.06,12.17,8.06c6.72,0,12.53-4.83,12.6-9.36
			c0.02-1.11-0.03-2.09-0.13-2.96c3.21-1.07,5.17-2.38,5.07-3.66c-0.06-0.74-0.82-1.39-2.11-1.9c1.4-0.77,2.17-1.6,2.11-2.41
			c-0.06-0.74-0.82-1.39-2.11-1.9C268.18,127.52,268.95,126.69,268.88,125.88z"/>
		<g>
			
				<linearGradient id="SVGID_00000021114930995099811470000016437761288345132948_" gradientUnits="userSpaceOnUse" x1="250.2459" y1="142.8943" x2="235.5331" y2="196.491">
				<stop  offset="0" style="stop-color:#09005D"/>
				<stop  offset="1" style="stop-color:#1A0F91"/>
			</linearGradient>
			<path style="fill:url(#SVGID_00000021114930995099811470000016437761288345132948_);" d="M247.21,140.74
				c-2.78,0-5.33-0.2-7.44-0.61c-0.12-0.02-0.2-0.14-0.18-0.26c0.02-0.12,0.14-0.2,0.26-0.18c3.29,0.63,7.69,0.77,12.39,0.39
				c3.84-0.31,7.44-0.93,10.39-1.79c0.12-0.03,0.24,0.03,0.28,0.15c0.03,0.12-0.03,0.24-0.15,0.28c-2.98,0.87-6.61,1.5-10.48,1.81
				C250.54,140.67,248.83,140.74,247.21,140.74z"/>
			
				<linearGradient id="SVGID_00000110457803332534848640000000918479171864193665_" gradientUnits="userSpaceOnUse" x1="249.7014" y1="142.7448" x2="234.9885" y2="196.3418">
				<stop  offset="0" style="stop-color:#09005D"/>
				<stop  offset="1" style="stop-color:#1A0F91"/>
			</linearGradient>
			<path style="fill:url(#SVGID_00000110457803332534848640000000918479171864193665_);" d="M247.26,136.43
				c-3.62,0-6.85-0.34-9.13-0.99c-0.12-0.03-0.19-0.16-0.15-0.28c0.03-0.12,0.16-0.19,0.28-0.15c3.25,0.93,8.48,1.21,14,0.77
				c5.46-0.44,10.54-1.55,13.61-2.96c0.11-0.05,0.25,0,0.3,0.11c0.05,0.11,0,0.25-0.11,0.3c-3.11,1.44-8.26,2.56-13.76,3
				C250.56,136.36,248.87,136.43,247.26,136.43z"/>
			
				<linearGradient id="SVGID_00000076583661005066889800000015363414200507618460_" gradientUnits="userSpaceOnUse" x1="248.3336" y1="142.3693" x2="233.6208" y2="195.9661">
				<stop  offset="0" style="stop-color:#09005D"/>
				<stop  offset="1" style="stop-color:#1A0F91"/>
			</linearGradient>
			<path style="fill:url(#SVGID_00000076583661005066889800000015363414200507618460_);" d="M247.21,132.12
				c-3.91,0-7.33-0.4-9.63-1.16c-0.12-0.04-0.18-0.17-0.14-0.28c0.04-0.12,0.17-0.18,0.28-0.14c3.2,1.06,8.63,1.4,14.52,0.93
				c5.46-0.44,10.54-1.55,13.61-2.96c0.11-0.05,0.25,0,0.3,0.11c0.05,0.11,0,0.25-0.11,0.3c-3.11,1.44-8.26,2.56-13.76,3
				C250.54,132.05,248.83,132.12,247.21,132.12z"/>
			
				<linearGradient id="SVGID_00000036244807981958218920000007186026246357398163_" gradientUnits="userSpaceOnUse" x1="247.9673" y1="142.2687" x2="233.2545" y2="195.8655">
				<stop  offset="0" style="stop-color:#09005D"/>
				<stop  offset="1" style="stop-color:#1A0F91"/>
			</linearGradient>
			<path style="fill:url(#SVGID_00000036244807981958218920000007186026246357398163_);" d="M247.24,127.81
				c-3.1,0-5.92-0.25-8.11-0.74c-0.12-0.03-0.2-0.15-0.17-0.27c0.03-0.12,0.15-0.2,0.27-0.17c3.29,0.73,8.04,0.92,13.02,0.52
				c5.41-0.44,10.47-1.53,13.54-2.93c0.11-0.05,0.25,0,0.3,0.11c0.05,0.11,0,0.25-0.11,0.3c-3.12,1.42-8.24,2.53-13.69,2.97
				C250.56,127.74,248.86,127.81,247.24,127.81z"/>
		</g>
		<path style="fill:#FEBD46;" d="M228.64,104.13c-1.14-4.03-3.07-7.8-5.68-11.09c-5.58-7.04-14.69-21.34-15.81-40.87
			c-1.63-28.4,23.56-42.62,46.55-40.69c22.99,1.93,45.67,19.05,43.18,45.47c-1.53,16.26-10.63,28.59-17.4,35.67
			c-4.3,4.5-7.37,10.01-9.03,16c-2.03,7.34-6.87,16.49-18.37,17.05C237.19,126.4,231.01,112.52,228.64,104.13z"/>
		<path style="fill:#FFFFFF;" d="M255.87,120.01l8.04-52.31c0.17-1.08,0.7-1.81,1.19-1.62c0.49,0.19,0.75,1.21,0.59,2.29
			c0,0.03-0.01,0.06-0.02,0.09l-9.16,51.83c-0.07,0.39-0.27,0.64-0.44,0.55C255.9,120.76,255.81,120.39,255.87,120.01z"/>
		<path style="fill:#FFFFFF;" d="M247.52,120.43l-8.04-52.31c-0.17-1.08-0.7-1.81-1.19-1.62c-0.49,0.19-0.75,1.21-0.59,2.29
			c0,0.03,0.01,0.06,0.02,0.09l9.16,51.83c0.07,0.39,0.27,0.64,0.44,0.55C247.49,121.17,247.58,120.8,247.52,120.43z"/>
		<path style="fill:#FFFFFF;" d="M263.86,63.21c-0.2-0.33-0.68-0.45-1.06-0.27l-4.48,2.09l-1.55-4.43
			c-0.08-0.23-0.27-0.44-0.54-0.55c-0.52-0.21-1.13-0.02-1.38,0.42l-0.01,0.01l-3.68,6.72l-3.42-9.56l-0.01-0.02
			c-0.08-0.23-0.26-0.44-0.52-0.58c-0.57-0.31-1.33-0.16-1.69,0.33l-5.15,7.09c-0.21,0.29-0.14,0.68,0.18,0.89
			c0.34,0.23,0.83,0.18,1.09-0.12l4.53-5.06l4.08,9.09l0,0.01c0.07,0.15,0.19,0.27,0.36,0.35c0.38,0.18,0.86,0.06,1.07-0.28
			l3.94-6.32l1.48,3.2l0.01,0.03c0.01,0.02,0.02,0.05,0.04,0.07c0.2,0.33,0.68,0.45,1.05,0.27l5.32-2.48
			C263.92,63.95,264.06,63.54,263.86,63.21z"/>
		<path style="fill:#FFFFFF;" d="M279.65,85.83c-0.2,0-0.4-0.06-0.58-0.19c-0.43-0.32-0.52-0.92-0.2-1.35
			c1.37-1.84,2.63-3.75,3.73-5.67c0.27-0.46,0.86-0.62,1.32-0.35c0.46,0.27,0.62,0.86,0.35,1.32c-1.15,1.98-2.44,3.96-3.86,5.86
			C280.24,85.69,279.95,85.83,279.65,85.83z"/>
		<path style="fill:#FFFFFF;" d="M286.27,74.47c-0.13,0-0.26-0.03-0.38-0.08c-0.49-0.21-0.72-0.78-0.5-1.27
			c8.51-19.59,1.17-36.04,1.09-36.21c-0.22-0.49-0.01-1.06,0.48-1.28c0.49-0.22,1.06-0.01,1.28,0.48c0.32,0.7,7.77,17.41-1.08,37.79
			C287,74.25,286.64,74.47,286.27,74.47z"/>
	</g>
	<g>
		<g>
			<g>
				<path style="fill:#1379CE;" d="M402.27,325.86c-0.22,0-0.43-0.11-0.55-0.31c-0.46-0.75-0.88-1.53-1.26-2.32
					c-0.15-0.32-0.02-0.71,0.3-0.86c0.32-0.15,0.71-0.02,0.86,0.3c0.36,0.75,0.77,1.5,1.2,2.21c0.19,0.3,0.09,0.7-0.22,0.89
					C402.5,325.83,402.38,325.86,402.27,325.86z"/>
				<path style="fill:#1379CE;" d="M398.72,316.02c-0.31,0-0.59-0.23-0.64-0.55c-0.19-1.29-0.29-2.61-0.29-3.91
					c0-0.36,0.01-0.73,0.02-1.09c0.01-0.36,0.3-0.63,0.67-0.62c0.36,0.01,0.63,0.31,0.62,0.67c-0.01,0.34-0.02,0.69-0.02,1.04
					c0,1.24,0.09,2.49,0.27,3.72c0.05,0.35-0.19,0.68-0.54,0.73C398.79,316.01,398.76,316.02,398.72,316.02z M399.99,303.37
					c-0.07,0-0.15-0.01-0.22-0.04c-0.34-0.12-0.51-0.49-0.39-0.83c0.57-1.57,1.28-3.09,2.13-4.53c0.18-0.31,0.58-0.41,0.88-0.23
					c0.31,0.18,0.41,0.58,0.23,0.88c-0.81,1.37-1.49,2.82-2.03,4.31C400.5,303.21,400.26,303.37,399.99,303.37z M407.06,292.82
					c-0.18,0-0.35-0.07-0.48-0.21c-0.24-0.26-0.22-0.67,0.05-0.91c1.24-1.12,2.58-2.13,4-3c0.3-0.19,0.7-0.09,0.89,0.21
					c0.19,0.3,0.09,0.7-0.21,0.89c-1.35,0.83-2.63,1.79-3.81,2.85C407.37,292.76,407.22,292.82,407.06,292.82z M418.27,286.84
					c-0.29,0-0.55-0.2-0.63-0.49c-0.09-0.35,0.12-0.7,0.47-0.78c0.45-0.11,0.91-0.21,1.37-0.3c1.18-0.23,2.38-0.38,3.57-0.45
					c0.36-0.02,0.66,0.25,0.68,0.61c0.02,0.36-0.25,0.66-0.61,0.68c-1.14,0.07-2.28,0.21-3.41,0.43c-0.44,0.09-0.87,0.18-1.3,0.29
					C418.37,286.84,418.32,286.84,418.27,286.84z"/>
				<path style="fill:#1379CE;" d="M433.47,287.6c-0.07,0-0.15-0.01-0.22-0.04c-0.79-0.28-1.6-0.53-2.41-0.74
					c-0.35-0.09-0.55-0.44-0.47-0.78c0.09-0.35,0.44-0.56,0.78-0.47c0.85,0.21,1.7,0.47,2.53,0.77c0.34,0.12,0.51,0.49,0.39,0.83
					C433.99,287.43,433.74,287.6,433.47,287.6z"/>
			</g>
			<g>
				<path style="fill:#1379CE;" d="M449.08,302.91c-0.26,0-0.51-0.16-0.6-0.42c-0.3-0.78-0.64-1.56-1.01-2.31
					c-0.16-0.32-0.03-0.71,0.29-0.87c0.32-0.16,0.71-0.03,0.87,0.29c0.39,0.78,0.75,1.6,1.06,2.42c0.13,0.33-0.04,0.71-0.37,0.83
					C449.24,302.9,449.16,302.91,449.08,302.91z"/>
				<path style="fill:#1379CE;" d="M424.8,338.41c-0.35,0-0.64-0.29-0.65-0.64c0-0.36,0.28-0.65,0.64-0.65
					c1.55-0.01,3.12-0.17,4.66-0.46c0.35-0.07,0.69,0.16,0.76,0.51c0.07,0.35-0.16,0.69-0.51,0.76
					C428.08,338.23,426.43,338.4,424.8,338.41C424.8,338.41,424.8,338.41,424.8,338.41z M436.91,335.35c-0.23,0-0.45-0.12-0.57-0.34
					c-0.17-0.31-0.05-0.71,0.27-0.87c1.38-0.73,2.69-1.6,3.91-2.57c0.28-0.22,0.68-0.18,0.91,0.1c0.22,0.28,0.18,0.68-0.1,0.91
					c-1.28,1.02-2.67,1.93-4.11,2.7C437.12,335.33,437.01,335.35,436.91,335.35z M446.22,327.02c-0.13,0-0.25-0.04-0.36-0.11
					c-0.29-0.2-0.37-0.6-0.17-0.9c0.88-1.29,1.65-2.66,2.28-4.09c0.14-0.33,0.53-0.47,0.85-0.33c0.33,0.14,0.47,0.53,0.33,0.85
					c-0.66,1.5-1.47,2.94-2.4,4.29C446.63,326.92,446.43,327.02,446.22,327.02z M450.62,315.32c-0.03,0-0.05,0-0.08,0
					c-0.35-0.04-0.61-0.36-0.56-0.72c0.12-0.98,0.18-1.99,0.18-2.98c0-0.56-0.02-1.14-0.06-1.7c-0.02-0.36,0.25-0.66,0.6-0.69
					c0.36-0.02,0.66,0.25,0.69,0.6c0.04,0.59,0.06,1.19,0.06,1.79c0,1.04-0.06,2.1-0.18,3.13
					C451.22,315.08,450.94,315.32,450.62,315.32z"/>
				<path style="fill:#1379CE;" d="M417.07,337.3c-0.06,0-0.12-0.01-0.19-0.03c-0.84-0.25-1.68-0.55-2.49-0.89
					c-0.33-0.14-0.49-0.51-0.35-0.84c0.14-0.33,0.51-0.49,0.84-0.35c0.77,0.32,1.57,0.6,2.37,0.85c0.34,0.1,0.53,0.46,0.43,0.8
					C417.6,337.12,417.35,337.3,417.07,337.3z"/>
			</g>
			<g>
				<g>
					<g>
						<path style="fill:#6ABEE2;" d="M414.67,329.06c0.11,0.08,0.26,0.08,0.36,0l3.12-2.2c1.65,0.69,3.42,1.11,5.25,1.24l1.81,3.37
							c0.06,0.12,0.19,0.18,0.33,0.16l4.53-0.73c0.13-0.02,0.24-0.12,0.26-0.26l0.65-3.76c1.7-0.7,3.24-1.67,4.59-2.84l3.66,1.1
							c0.13,0.04,0.27-0.01,0.35-0.12l2.68-3.72c0.08-0.11,0.08-0.26,0-0.36l-2.2-3.12c0.69-1.65,1.11-3.42,1.24-5.25l3.37-1.81
							c0.12-0.06,0.18-0.19,0.16-0.33l-0.73-4.53c-0.02-0.13-0.12-0.24-0.26-0.26l-3.76-0.65c-0.7-1.7-1.67-3.24-2.84-4.59l1.1-3.66
							c0.04-0.13-0.01-0.27-0.12-0.35l-3.72-2.68c-0.11-0.08-0.26-0.08-0.36,0l-3.12,2.2c-1.65-0.69-3.42-1.11-5.25-1.24l-1.81-3.37
							c-0.06-0.12-0.19-0.18-0.33-0.16l-4.53,0.73c-0.13,0.02-0.24,0.12-0.26,0.26l-0.65,3.76c-1.7,0.7-3.24,1.67-4.59,2.84
							l-3.66-1.1c-0.13-0.04-0.27,0.01-0.35,0.12l-2.68,3.72c-0.08,0.11-0.08,0.26,0,0.36l2.2,3.12c-0.69,1.65-1.11,3.42-1.24,5.25
							l-3.37,1.81c-0.12,0.06-0.18,0.19-0.16,0.33l0.73,4.53c0.02,0.13,0.12,0.24,0.26,0.26l3.76,0.65c0.7,1.7,1.67,3.24,2.84,4.59
							l-1.1,3.66c-0.04,0.13,0.01,0.27,0.12,0.35L414.67,329.06z"/>
					</g>
				</g>
				<g style="opacity:0.8;">
					<path style="fill:#FFFFFF;" d="M424.59,316.42c-1.95,0-3.81-1.14-4.63-3.04c-1.1-2.55,0.07-5.52,2.63-6.63
						c2.55-1.1,5.52,0.07,6.63,2.63c1.1,2.55-0.07,5.52-2.63,6.63h0C425.94,316.29,425.26,316.42,424.59,316.42z M426.2,315.12
						L426.2,315.12L426.2,315.12z M424.58,308.28c-0.41,0-0.83,0.08-1.23,0.26c-1.57,0.68-2.3,2.51-1.62,4.08
						c0.68,1.57,2.51,2.3,4.08,1.62c1.57-0.68,2.3-2.51,1.62-4.08C426.93,308.98,425.78,308.28,424.58,308.28z"/>
				</g>
				<path style="opacity:0.8;fill:#FFFFFF;" d="M424.62,323.34c-0.07,0-0.14,0-0.21,0c-0.13,0-0.26-0.01-0.39-0.01
					c0,0-0.01,0-0.01,0l0.1-1.93c0.71,0.04,1.44,0,2.15-0.12c0,0,0.01,0,0.01,0c2.66-0.43,4.99-1.88,6.57-4.06
					c1.25-1.74,1.91-3.78,1.91-5.88c0-0.54-0.04-1.09-0.13-1.64c-0.89-5.5-6.09-9.24-11.59-8.35c-4.95,0.8-8.48,5.1-8.48,9.96
					c0,0.53,0.04,1.08,0.13,1.62c0.29,1.81,1.07,3.5,2.24,4.89l-1.48,1.25c-1.4-1.66-2.32-3.67-2.67-5.83
					c-0.11-0.65-0.16-1.29-0.16-1.93c0-5.79,4.21-10.92,10.11-11.87c6.55-1.06,12.74,3.4,13.81,9.95c0.11,0.65,0.16,1.3,0.16,1.95
					c0,2.5-0.78,4.94-2.27,7.01c-1.88,2.61-4.66,4.33-7.83,4.84h0C425.92,323.28,425.27,323.34,424.62,323.34z"/>
			</g>
		</g>
		<g>
			<g>
				<path style="fill:#1379CE;" d="M436.76,297.49c-0.22,0-0.43-0.11-0.55-0.31c-0.45-0.74-0.89-1.51-1.3-2.28
					c-0.17-0.32-0.05-0.71,0.27-0.87c0.32-0.17,0.71-0.05,0.87,0.27c0.39,0.74,0.82,1.49,1.26,2.21c0.19,0.3,0.09,0.7-0.22,0.89
					C436.99,297.46,436.87,297.49,436.76,297.49z"/>
				<path style="fill:#1379CE;" d="M432.29,287.54c-0.28,0-0.53-0.18-0.62-0.46c-0.45-1.48-0.83-3-1.13-4.53l-0.1-0.53
					c-0.06-0.35,0.17-0.69,0.52-0.75c0.35-0.07,0.69,0.17,0.75,0.52l0.1,0.52c0.29,1.48,0.66,2.96,1.1,4.4
					c0.1,0.34-0.09,0.7-0.43,0.81C432.42,287.53,432.36,287.54,432.29,287.54z M430.36,274.24
					C430.36,274.24,430.36,274.24,430.36,274.24c-0.36,0-0.65-0.29-0.65-0.65c0.02-1.74,0.13-3.49,0.35-5.2
					c0.05-0.35,0.37-0.6,0.72-0.56c0.35,0.05,0.6,0.37,0.56,0.72c-0.21,1.67-0.33,3.37-0.34,5.05
					C431,273.96,430.71,274.24,430.36,274.24z M432.55,260.99c-0.07,0-0.14-0.01-0.2-0.03c-0.34-0.11-0.52-0.48-0.41-0.81
					c0.54-1.64,1.19-3.27,1.92-4.85c0.15-0.32,0.54-0.46,0.86-0.31c0.32,0.15,0.46,0.53,0.31,0.86c-0.71,1.53-1.34,3.11-1.86,4.71
					C433.07,260.81,432.82,260.99,432.55,260.99z M438.66,249.02c-0.13,0-0.26-0.04-0.38-0.12c-0.29-0.21-0.35-0.61-0.15-0.9
					c1.01-1.4,2.12-2.76,3.29-4.04c0.24-0.26,0.65-0.28,0.91-0.04c0.26,0.24,0.28,0.65,0.04,0.91c-1.14,1.24-2.21,2.56-3.19,3.92
					C439.06,248.93,438.86,249.02,438.66,249.02z M448.09,239.46c-0.2,0-0.39-0.09-0.52-0.26c-0.21-0.29-0.15-0.69,0.13-0.9
					c1.39-1.03,2.86-1.99,4.36-2.85c0.31-0.18,0.7-0.07,0.88,0.24c0.18,0.31,0.07,0.7-0.24,0.88c-1.46,0.84-2.88,1.77-4.23,2.77
					C448.36,239.42,448.23,239.46,448.09,239.46z M459.98,233.22c-0.27,0-0.52-0.17-0.61-0.44c-0.12-0.34,0.06-0.7,0.4-0.82
					c1.63-0.56,3.32-1.03,5.02-1.39c0.35-0.08,0.69,0.15,0.77,0.49c0.08,0.35-0.15,0.69-0.49,0.77c-1.65,0.36-3.29,0.81-4.88,1.35
					C460.12,233.2,460.05,233.22,459.98,233.22z M478.34,231.04c-0.02,0-0.04,0-0.06,0c-1.68-0.16-3.37-0.22-5.06-0.18
					c-0.37-0.01-0.65-0.27-0.66-0.63c-0.01-0.36,0.27-0.65,0.63-0.66c1.74-0.04,3.48,0.02,5.21,0.18c0.35,0.03,0.61,0.35,0.58,0.7
					C478.95,230.79,478.67,231.04,478.34,231.04z"/>
				<path style="fill:#1379CE;" d="M489.01,233.43c-0.07,0-0.15-0.01-0.22-0.04c-0.8-0.29-1.61-0.55-2.41-0.79
					c-0.34-0.1-0.54-0.46-0.44-0.8c0.1-0.34,0.46-0.54,0.8-0.44c0.83,0.24,1.67,0.52,2.49,0.81c0.34,0.12,0.51,0.49,0.39,0.83
					C489.52,233.26,489.27,233.43,489.01,233.43z"/>
			</g>
			<g>
				<path style="fill:#1379CE;" d="M514.5,257.45c-0.25,0-0.49-0.15-0.59-0.39c-0.33-0.78-0.69-1.55-1.07-2.31
					c-0.16-0.32-0.03-0.71,0.29-0.87c0.32-0.16,0.71-0.03,0.87,0.29c0.39,0.78,0.76,1.58,1.1,2.38c0.14,0.33-0.01,0.71-0.34,0.85
					C514.67,257.44,514.58,257.45,514.5,257.45z"/>
				<path style="fill:#1379CE;" d="M472.92,318.49c-0.01,0-0.01,0-0.02,0c-1.71-0.05-3.43-0.2-5.11-0.44
					c-0.35-0.05-0.6-0.38-0.55-0.73c0.05-0.35,0.38-0.6,0.73-0.54c1.63,0.24,3.3,0.38,4.96,0.43c0.36,0.01,0.64,0.31,0.63,0.66
					C473.55,318.21,473.27,318.49,472.92,318.49z M481.1,317.95c-0.31,0-0.58-0.22-0.64-0.54c-0.06-0.35,0.18-0.68,0.53-0.74
					c0.49-0.08,0.97-0.17,1.46-0.26c1.14-0.22,2.29-0.5,3.4-0.81c0.34-0.1,0.7,0.1,0.79,0.45c0.1,0.34-0.1,0.7-0.45,0.8
					c-1.15,0.32-2.32,0.6-3.5,0.83c-0.5,0.1-1,0.19-1.5,0.27C481.17,317.95,481.14,317.95,481.1,317.95z M493.69,313.93
					c-0.24,0-0.47-0.13-0.58-0.36c-0.16-0.32-0.03-0.71,0.29-0.86c1.48-0.74,2.94-1.57,4.32-2.47c0.3-0.2,0.7-0.11,0.89,0.19
					c0.19,0.3,0.11,0.7-0.19,0.89c-1.43,0.93-2.92,1.78-4.45,2.54C493.89,313.91,493.79,313.93,493.69,313.93z M504.5,306.33
					c-0.17,0-0.34-0.07-0.47-0.2c-0.25-0.26-0.24-0.67,0.02-0.91c1.19-1.14,2.33-2.37,3.39-3.64c0.23-0.27,0.63-0.31,0.91-0.09
					c0.27,0.23,0.31,0.63,0.09,0.91c-1.09,1.31-2.26,2.58-3.49,3.75C504.82,306.27,504.66,306.33,504.5,306.33z M512.55,295.86
					c-0.11,0-0.21-0.03-0.31-0.08c-0.31-0.17-0.42-0.56-0.25-0.88c0.8-1.45,1.53-2.96,2.15-4.49c0.14-0.33,0.51-0.49,0.84-0.35
					c0.33,0.14,0.49,0.51,0.35,0.84c-0.65,1.57-1.39,3.13-2.22,4.62C513,295.74,512.78,295.86,512.55,295.86z M517.14,283.46
					c-0.04,0-0.09,0-0.13-0.01c-0.35-0.07-0.57-0.41-0.5-0.76c0.33-1.62,0.57-3.28,0.71-4.93c0.03-0.35,0.34-0.62,0.7-0.59
					c0.36,0.03,0.62,0.34,0.59,0.7c-0.15,1.7-0.39,3.41-0.74,5.08C517.7,283.25,517.44,283.46,517.14,283.46z M517.79,270.26
					c-0.33,0-0.61-0.25-0.64-0.58c-0.13-1.3-0.33-2.62-0.58-3.92c-0.07-0.33-0.13-0.67-0.21-1c-0.08-0.35,0.14-0.69,0.49-0.77
					c0.35-0.08,0.69,0.14,0.77,0.49c0.07,0.34,0.15,0.68,0.21,1.03c0.26,1.34,0.46,2.69,0.6,4.03c0.04,0.35-0.22,0.67-0.58,0.71
					C517.83,270.25,517.81,270.26,517.79,270.26z"/>
				<path style="fill:#1379CE;" d="M459.89,316.11c-0.07,0-0.14-0.01-0.21-0.04c-0.81-0.28-1.64-0.59-2.45-0.93
					c-0.33-0.14-0.49-0.51-0.35-0.84c0.14-0.33,0.51-0.49,0.84-0.35c0.79,0.33,1.58,0.63,2.37,0.9c0.34,0.12,0.52,0.48,0.4,0.82
					C460.4,315.94,460.15,316.11,459.89,316.11z"/>
			</g>
			<g>
				<g>
					<g>
						<path style="fill:#6ABEE2;" d="M457.53,303.29c0.18,0.13,0.43,0.13,0.61,0l5.23-3.69c2.76,1.15,5.72,1.87,8.79,2.08l3.03,5.64
							c0.11,0.2,0.33,0.31,0.55,0.27l7.58-1.23c0.22-0.04,0.4-0.21,0.43-0.43l1.09-6.3c2.84-1.17,5.43-2.79,7.68-4.75l6.13,1.85
							c0.21,0.06,0.45-0.01,0.58-0.2l4.49-6.23c0.13-0.18,0.13-0.43,0-0.61l-3.69-5.23c1.15-2.76,1.87-5.72,2.08-8.79l5.64-3.03
							c0.2-0.11,0.31-0.33,0.27-0.55l-1.23-7.58c-0.04-0.22-0.21-0.4-0.43-0.43l-6.3-1.09c-1.17-2.84-2.79-5.43-4.75-7.68l1.85-6.13
							c0.06-0.21-0.01-0.45-0.2-0.58l-6.23-4.49c-0.18-0.13-0.43-0.13-0.61,0l-5.23,3.69c-2.76-1.15-5.72-1.87-8.79-2.08l-3.03-5.64
							c-0.11-0.2-0.33-0.31-0.55-0.27l-7.58,1.23c-0.22,0.04-0.4,0.21-0.43,0.43l-1.09,6.3c-2.84,1.17-5.43,2.79-7.68,4.75
							l-6.13-1.85c-0.21-0.06-0.45,0.01-0.58,0.2l-4.49,6.23c-0.13,0.18-0.13,0.43,0,0.61l3.69,5.23c-1.15,2.76-1.87,5.72-2.08,8.79
							l-5.64,3.03c-0.2,0.11-0.31,0.33-0.27,0.55l1.23,7.58c0.04,0.22,0.21,0.4,0.43,0.43l6.3,1.09c1.17,2.84,2.79,5.43,4.75,7.68
							l-1.85,6.13c-0.06,0.21,0.01,0.45,0.2,0.58L457.53,303.29z"/>
					</g>
				</g>
				<g style="opacity:0.8;">
					<path style="fill:#FFFFFF;" d="M474.14,281.48c-3.01,0-5.89-1.76-7.16-4.7c-0.83-1.91-0.86-4.03-0.09-5.96
						c0.77-1.93,2.24-3.45,4.15-4.28c1.91-0.83,4.03-0.86,5.96-0.09c1.93,0.77,3.45,2.24,4.28,4.15c1.7,3.94-0.12,8.53-4.06,10.24h0
						C476.21,281.27,475.17,281.48,474.14,281.48z M476.83,279.95L476.83,279.95L476.83,279.95z M474.13,267.84
						c-0.79,0-1.58,0.16-2.32,0.48c-1.43,0.62-2.54,1.76-3.12,3.21c-0.58,1.45-0.55,3.04,0.07,4.48c1.28,2.96,4.73,4.33,7.69,3.05h0
						c2.96-1.28,4.33-4.73,3.05-7.69c-0.62-1.43-1.76-2.54-3.21-3.12C475.59,267.97,474.86,267.84,474.13,267.84z"/>
				</g>
				<path style="opacity:0.8;fill:#FFFFFF;" d="M474.19,293.05c-0.12,0-0.23,0-0.35,0h0c0,0-0.01,0-0.01,0c0,0,0,0,0,0
					c-0.21,0-0.42-0.01-0.63-0.02l0.1-1.93c1.24,0.06,2.5-0.01,3.73-0.21h0c0.02,0,0.05-0.01,0.07-0.01
					c4.42-0.74,8.31-3.08,11.03-6.61c0.11-0.14,0.22-0.29,0.33-0.44c2.18-3.02,3.32-6.58,3.32-10.23c0-0.95-0.08-1.9-0.23-2.85
					c-1.55-9.56-10.59-16.07-20.15-14.52c-4.63,0.75-8.69,3.26-11.43,7.07c-2.18,3.02-3.32,6.58-3.32,10.23
					c0,0.95,0.08,1.9,0.23,2.85c0.51,3.14,1.86,6.08,3.9,8.5l-1.48,1.25c-2.27-2.69-3.77-5.95-4.33-9.44
					c-0.17-1.05-0.25-2.1-0.25-3.13c0-9.39,6.81-17.69,16.37-19.24c10.61-1.72,20.65,5.51,22.37,16.12
					c0.17,1.06,0.26,2.11,0.26,3.16c0,4.06-1.27,8-3.68,11.36c-3.05,4.23-7.55,7.01-12.69,7.85
					C476.29,292.96,475.24,293.05,474.19,293.05z"/>
			</g>
		</g>
	</g>
	<g>
		<g>
			<path style="fill:#6ABEE2;" d="M404.98,37.73c0.07-1.56-1.15-2.88-2.72-2.93c-5.15-0.16-16.53,1.32-27.15,15.28
				c-14.31,18.82-2.65,44.7,27.55,45.19c27.76,0.45,37.25-20.5,36.82-33.19c-0.06-1.61-1.67-2.7-3.2-2.2l-29.6,9.75
				c-1.52,0.5-3.06-0.67-2.99-2.27L404.98,37.73z"/>
			<path style="fill:#6ABEE2;" d="M412.29,34.18l-4.67,27.8c-0.25,1.46,1.25,2.61,2.6,1.98l25.49-11.77
				c1.69-0.78,2.55-2.7,1.97-4.47c-1.63-4.97-6.65-14.15-21.78-16.21C414.17,31.27,412.57,32.46,412.29,34.18z"/>
		</g>
	</g>
	<g>
		<g>
			<path style="fill:#1379CE;" d="M129.68,17.24l-1.72,0.86l-0.01,0c-0.29,0.15-0.65,0.03-0.79-0.26c-0.15-0.29-0.03-0.65,0.26-0.79
				l0,0l1.74-0.87c0.29-0.15,0.64-0.03,0.79,0.26C130.1,16.74,129.98,17.09,129.68,17.24L129.68,17.24z"/>
			<path style="fill:#1379CE;" d="M122.88,20.85l-1.67,0.96l-0.01,0c-0.29,0.17-0.66,0.07-0.82-0.22c-0.17-0.29-0.07-0.66,0.22-0.82
				l0,0l1.69-0.96c0.29-0.16,0.65-0.06,0.82,0.22C123.27,20.32,123.17,20.69,122.88,20.85L122.88,20.85z"/>
			<path style="fill:#1379CE;" d="M116.24,24.8l-1.64,1.02l0,0c-0.29,0.18-0.66,0.09-0.84-0.19c-0.18-0.29-0.09-0.66,0.19-0.84l0,0
				l1.65-1.02c0.29-0.18,0.66-0.09,0.84,0.2C116.62,24.24,116.53,24.62,116.24,24.8L116.24,24.8z"/>
			<path style="fill:#1379CE;" d="M109.74,28.97l-1.61,1.07l0,0c-0.29,0.19-0.67,0.11-0.86-0.17c-0.19-0.29-0.11-0.67,0.17-0.86l0,0
				l1.62-1.07c0.29-0.19,0.67-0.11,0.86,0.17C110.11,28.39,110.03,28.78,109.74,28.97L109.74,28.97z"/>
			<path style="fill:#1379CE;" d="M103.36,33.32l-1.58,1.11l0,0c-0.29,0.2-0.68,0.13-0.88-0.15c-0.2-0.29-0.13-0.68,0.15-0.88l0,0
				l1.59-1.11c0.28-0.2,0.68-0.13,0.88,0.15C103.72,32.72,103.65,33.12,103.36,33.32L103.36,33.32z"/>
			<path style="fill:#1379CE;" d="M97.09,37.82l-1.55,1.15l0,0c-0.29,0.21-0.69,0.15-0.9-0.13c-0.21-0.29-0.15-0.69,0.13-0.9l0,0
				l1.56-1.15c0.28-0.21,0.69-0.15,0.9,0.14C97.43,37.21,97.37,37.61,97.09,37.82L97.09,37.82z"/>
			<path style="fill:#1379CE;" d="M90.91,42.47l-1.53,1.18l0,0c-0.29,0.22-0.7,0.17-0.92-0.12c-0.22-0.29-0.17-0.7,0.12-0.92l0,0
				l1.54-1.18c0.28-0.22,0.69-0.17,0.91,0.12C91.25,41.84,91.2,42.25,90.91,42.47L90.91,42.47z"/>
			<path style="fill:#1379CE;" d="M84.84,47.24l-1.5,1.22l0,0c-0.28,0.23-0.7,0.19-0.93-0.1c-0.23-0.28-0.19-0.7,0.1-0.93l0,0
				l1.51-1.22c0.28-0.23,0.7-0.18,0.93,0.1C85.17,46.6,85.13,47.01,84.84,47.24L84.84,47.24z"/>
			<path style="fill:#1379CE;" d="M78.87,52.16L77.4,53.4l0,0c-0.28,0.24-0.71,0.21-0.95-0.08c-0.24-0.28-0.21-0.71,0.08-0.95l0,0
				l1.48-1.25c0.28-0.24,0.71-0.2,0.95,0.08C79.2,51.49,79.16,51.92,78.87,52.16L78.87,52.16z"/>
			<path style="fill:#1379CE;" d="M73.02,57.2l-1.44,1.28l0,0c-0.28,0.25-0.71,0.23-0.97-0.06c-0.25-0.28-0.23-0.71,0.06-0.97l0,0
				l1.45-1.29c0.28-0.25,0.71-0.22,0.96,0.06C73.33,56.52,73.31,56.95,73.02,57.2L73.02,57.2z"/>
			<path style="fill:#1379CE;" d="M67.3,62.39l-1.41,1.32l0,0c-0.28,0.26-0.72,0.25-0.98-0.03c-0.26-0.28-0.25-0.72,0.03-0.98l0,0
				l1.42-1.33c0.28-0.26,0.72-0.25,0.98,0.03C67.6,61.69,67.58,62.13,67.3,62.39L67.3,62.39z"/>
			<path style="fill:#1379CE;" d="M61.73,67.74l-1.36,1.37l0,0c-0.28,0.28-0.72,0.28-1,0c-0.28-0.28-0.28-0.72,0-1l0,0l1.38-1.37
				c0.27-0.27,0.72-0.27,0.99,0C62.01,67.02,62.01,67.46,61.73,67.74L61.73,67.74z"/>
			<path style="fill:#1379CE;" d="M56.36,73.27l-1.31,1.42l-0.01,0.01c-0.27,0.29-0.72,0.31-1.01,0.04
				c-0.29-0.27-0.31-0.72-0.04-1.01l0,0l1.32-1.42c0.27-0.29,0.72-0.3,1.01-0.04C56.61,72.53,56.63,72.98,56.36,73.27L56.36,73.27z"
				/>
			<path style="fill:#1379CE;" d="M51.23,79.03l-1.23,1.48l-0.01,0.01c-0.26,0.31-0.71,0.35-1.02,0.09
				c-0.31-0.26-0.35-0.71-0.09-1.02l0,0l1.25-1.49c0.26-0.31,0.71-0.35,1.02-0.09C51.45,78.26,51.49,78.71,51.23,79.03L51.23,79.03z
				"/>
			<path style="fill:#1379CE;" d="M46.45,85.06l-1.12,1.56l-0.01,0.01c-0.24,0.33-0.7,0.41-1.03,0.17c-0.33-0.24-0.41-0.7-0.17-1.03
				l0,0l1.14-1.59c0.24-0.33,0.69-0.4,1.02-0.17c0.33,0.24,0.4,0.69,0.17,1.02L46.45,85.06z"/>
			<path style="fill:#1379CE;" d="M42.18,91.44l-1,1.64l-0.01,0.01c-0.21,0.35-0.67,0.46-1.02,0.25c-0.35-0.21-0.46-0.67-0.25-1.02
				l0,0l1.01-1.66c0.21-0.35,0.67-0.46,1.02-0.25C42.29,90.63,42.4,91.08,42.18,91.44L42.18,91.44z"/>
			<path style="fill:#1379CE;" d="M38.36,98.12l-0.88,1.71l-0.01,0.01c-0.19,0.37-0.65,0.52-1.02,0.32
				c-0.37-0.19-0.52-0.65-0.32-1.02l0,0l0.9-1.73c0.19-0.37,0.65-0.51,1.02-0.32C38.42,97.29,38.56,97.74,38.36,98.12L38.36,98.12z"
				/>
			<path style="fill:#1379CE;" d="M35,105.04l-0.77,1.76l-0.01,0.01c-0.17,0.39-0.62,0.57-1.01,0.4c-0.39-0.17-0.57-0.62-0.4-1.01
				l0,0l0.78-1.78c0.17-0.39,0.62-0.56,1.01-0.39C35,104.19,35.18,104.64,35,105.04L35,105.04z"/>
			<path style="fill:#1379CE;" d="M32.11,112.16l-0.65,1.81l0,0.01c-0.14,0.4-0.59,0.61-0.99,0.47c-0.4-0.14-0.61-0.59-0.47-0.99
				l0,0l0.66-1.83c0.15-0.4,0.59-0.61,0.99-0.47c0.4,0.15,0.61,0.59,0.47,0.99L32.11,112.16z"/>
			<path style="fill:#1379CE;" d="M29.71,119.46l-0.52,1.85l0,0.01c-0.12,0.42-0.55,0.66-0.97,0.54c-0.42-0.12-0.66-0.55-0.54-0.97
				l0,0l0.53-1.87c0.12-0.42,0.55-0.66,0.97-0.54c0.42,0.12,0.66,0.55,0.54,0.97L29.71,119.46z"/>
			<path style="fill:#1379CE;" d="M27.82,126.91l-0.39,1.88l0,0.01c-0.09,0.43-0.51,0.71-0.94,0.62c-0.43-0.09-0.71-0.51-0.62-0.94
				l0,0l0.4-1.91c0.09-0.43,0.51-0.7,0.94-0.61c0.43,0.09,0.7,0.51,0.61,0.94L27.82,126.91z"/>
			<path style="fill:#1379CE;" d="M26.46,134.48l-0.25,1.9l0,0.02c-0.06,0.44-0.46,0.75-0.91,0.7c-0.44-0.06-0.75-0.46-0.7-0.91l0,0
				l0.26-1.93c0.06-0.44,0.46-0.75,0.91-0.69c0.44,0.06,0.75,0.46,0.69,0.91L26.46,134.48z"/>
			<path style="fill:#1379CE;" d="M25.68,142.11l-0.1,1.92l0,0.02c-0.02,0.45-0.41,0.8-0.86,0.77c-0.45-0.02-0.8-0.41-0.77-0.86l0,0
				l0.11-1.95c0.03-0.45,0.41-0.79,0.86-0.77c0.45,0.03,0.79,0.41,0.77,0.86L25.68,142.11z"/>
			<path style="fill:#1379CE;" d="M25.49,149.79l0.05,1.92l0,0.02c0.01,0.45-0.35,0.83-0.8,0.84c-0.45,0.01-0.83-0.35-0.84-0.8l0,0
				l-0.05-1.95c-0.01-0.45,0.35-0.83,0.8-0.84c0.45-0.01,0.83,0.35,0.84,0.8L25.49,149.79z"/>
			<path style="fill:#1379CE;" d="M25.93,157.45l0.21,1.9l0,0.02c0.05,0.45-0.27,0.86-0.73,0.91c-0.45,0.05-0.86-0.27-0.91-0.73l0,0
				l-0.22-1.94c-0.05-0.45,0.27-0.86,0.73-0.91c0.45-0.05,0.86,0.27,0.91,0.73L25.93,157.45z"/>
			<path style="fill:#1379CE;" d="M27.04,165.03l0.38,1.88l0,0.02c0.09,0.45-0.2,0.88-0.64,0.97c-0.45,0.09-0.88-0.2-0.97-0.64l0,0
				l-0.39-1.91c-0.09-0.45,0.2-0.88,0.64-0.97c0.45-0.09,0.88,0.2,0.97,0.64L27.04,165.03z"/>
			<path style="fill:#1379CE;" d="M28.84,172.48l0.56,1.83l0.01,0.02c0.13,0.44-0.11,0.9-0.55,1.03c-0.44,0.13-0.9-0.11-1.03-0.55
				l0,0l-0.58-1.87c-0.13-0.44,0.11-0.9,0.55-1.03c0.44-0.13,0.9,0.11,1.03,0.55L28.84,172.48z"/>
			<path style="fill:#1379CE;" d="M31.39,179.69l0.76,1.76l0.01,0.02c0.18,0.42-0.01,0.91-0.43,1.09c-0.42,0.18-0.91-0.01-1.09-0.43
				l0,0l-0.77-1.8c-0.18-0.42,0.01-0.91,0.43-1.09c0.42-0.18,0.91,0.01,1.09,0.43L31.39,179.69z"/>
			<path style="fill:#1379CE;" d="M34.69,186.6l0.94,1.67l0.01,0.02c0.22,0.4,0.08,0.91-0.32,1.13c-0.4,0.22-0.91,0.08-1.13-0.32
				l0,0l-0.96-1.71c-0.22-0.4-0.08-0.91,0.32-1.13s0.91-0.08,1.13,0.32L34.69,186.6z"/>
			<path style="fill:#1379CE;" d="M38.69,193.12l1.1,1.56l0.01,0.02c0.27,0.38,0.18,0.9-0.2,1.16c-0.38,0.27-0.9,0.18-1.16-0.2l0,0
				l-1.13-1.6c-0.27-0.38-0.18-0.9,0.2-1.16c0.38-0.27,0.9-0.18,1.16,0.2L38.69,193.12z"/>
			<path style="fill:#1379CE;" d="M43.35,199.19l1.26,1.44l0.01,0.02c0.3,0.35,0.27,0.88-0.08,1.18c-0.35,0.3-0.88,0.27-1.18-0.08
				l0,0l-1.29-1.47c-0.3-0.35-0.27-0.87,0.08-1.18c0.35-0.3,0.87-0.27,1.18,0.08L43.35,199.19z"/>
			<path style="fill:#1379CE;" d="M48.63,204.72l1.41,1.29l0.02,0.02c0.34,0.31,0.37,0.84,0.05,1.18c-0.31,0.34-0.84,0.37-1.18,0.05
				l0,0l-1.45-1.32c-0.34-0.31-0.37-0.84-0.05-1.18c0.31-0.34,0.84-0.37,1.18-0.05L48.63,204.72z"/>
			<path style="fill:#1379CE;" d="M54.49,209.62l1.55,1.11l0.02,0.01c0.38,0.27,0.46,0.8,0.19,1.17c-0.27,0.38-0.8,0.46-1.17,0.19
				l0,0l-1.59-1.14c-0.38-0.27-0.46-0.8-0.19-1.17c0.27-0.38,0.8-0.46,1.17-0.19L54.49,209.62z"/>
			<path style="fill:#1379CE;" d="M60.89,213.78l1.68,0.91l0.02,0.01c0.41,0.22,0.56,0.73,0.34,1.14c-0.22,0.41-0.73,0.56-1.14,0.34
				l0,0l-1.73-0.94c-0.41-0.22-0.56-0.73-0.34-1.14c0.22-0.41,0.73-0.56,1.14-0.34L60.89,213.78z"/>
			<path style="fill:#1379CE;" d="M67.77,217.06l1.78,0.67l0.03,0.01c0.44,0.16,0.66,0.65,0.5,1.09c-0.16,0.44-0.65,0.66-1.09,0.5
				l0,0l-1.84-0.69c-0.44-0.16-0.66-0.65-0.5-1.09c0.16-0.44,0.65-0.66,1.09-0.5L67.77,217.06z"/>
			<path style="fill:#1379CE;" d="M75.04,219.32l1.86,0.39l0.03,0.01c0.46,0.1,0.75,0.54,0.66,1c-0.1,0.46-0.54,0.75-1,0.66l0,0
				l-1.93-0.4c-0.46-0.1-0.75-0.54-0.66-1c0.1-0.46,0.54-0.75,1-0.66L75.04,219.32z"/>
			<path style="fill:#1379CE;" d="M82.56,220.42l1.9,0.08l0.04,0c0.47,0.02,0.83,0.42,0.81,0.89c-0.02,0.47-0.42,0.83-0.89,0.81h0
				l-1.97-0.08c-0.47-0.02-0.83-0.42-0.81-0.89c0.02-0.47,0.42-0.83,0.89-0.81L82.56,220.42z"/>
			<path style="fill:#1379CE;" d="M90.15,220.26l1.89-0.23l0.03,0c0.47-0.06,0.89,0.28,0.95,0.74c0.06,0.47-0.28,0.89-0.74,0.95l0,0
				l-1.95,0.24c-0.47,0.06-0.89-0.28-0.95-0.74c-0.06-0.47,0.28-0.89,0.74-0.95L90.15,220.26z"/>
			<path style="fill:#1379CE;" d="M97.64,218.91l1.84-0.5l0.03-0.01c0.46-0.12,0.93,0.14,1.05,0.6c0.12,0.46-0.14,0.93-0.6,1.05l0,0
				l-1.9,0.51c-0.46,0.12-0.92-0.15-1.05-0.6s0.15-0.92,0.6-1.05L97.64,218.91z"/>
			<path style="fill:#1379CE;" d="M104.89,216.56l1.77-0.73l0.02-0.01c0.44-0.18,0.94,0.03,1.12,0.47c0.18,0.44-0.03,0.94-0.47,1.12
				l0,0l-1.81,0.74c-0.44,0.18-0.94-0.03-1.12-0.47c-0.18-0.44,0.03-0.94,0.47-1.12L104.89,216.56z"/>
			<path style="fill:#1379CE;" d="M111.85,213.38l1.69-0.9l0.02-0.01c0.42-0.22,0.94-0.06,1.16,0.36c0.22,0.42,0.06,0.94-0.36,1.16
				l0,0l-1.72,0.91c-0.42,0.22-0.94,0.06-1.16-0.36c-0.22-0.42-0.06-0.94,0.36-1.16L111.85,213.38z"/>
			<path style="fill:#1379CE;" d="M118.52,209.58l1.62-1.02l0.01-0.01c0.4-0.25,0.93-0.13,1.19,0.27c0.25,0.4,0.13,0.94-0.27,1.19
				l0,0l-1.65,1.04c-0.4,0.25-0.93,0.13-1.19-0.27c-0.25-0.4-0.13-0.93,0.27-1.19L118.52,209.58z"/>
			<path style="fill:#1379CE;" d="M124.94,205.34l1.57-1.11l0.01-0.01c0.39-0.28,0.93-0.18,1.2,0.21c0.28,0.39,0.18,0.93-0.21,1.2
				l0,0l-1.59,1.12c-0.39,0.28-0.93,0.18-1.2-0.21C124.45,206.16,124.54,205.62,124.94,205.34L124.94,205.34z"/>
			<path style="fill:#1379CE;" d="M131.17,200.8l1.54-1.17l0,0c0.38-0.29,0.93-0.21,1.21,0.17c0.29,0.38,0.21,0.93-0.17,1.21l0,0
				l-1.55,1.17c-0.38,0.29-0.92,0.21-1.21-0.17C130.71,201.64,130.78,201.09,131.17,200.8L131.17,200.8z"/>
			<path style="fill:#1379CE;" d="M137.29,196.09l1.52-1.19c0.38-0.3,0.92-0.23,1.22,0.15c0.3,0.38,0.23,0.92-0.15,1.22l0,0
				l-1.53,1.19c-0.38,0.3-0.92,0.23-1.22-0.15C136.85,196.93,136.91,196.38,137.29,196.09z"/>
			<path style="fill:#1379CE;" d="M143.38,191.3l1.52-1.2c0.38-0.3,0.93-0.23,1.22,0.15c0.3,0.38,0.23,0.93-0.15,1.22l0,0
				l-1.52,1.19c-0.38,0.3-0.93,0.23-1.22-0.15C142.93,192.15,143,191.6,143.38,191.3z"/>
			<path style="fill:#1379CE;" d="M149.5,186.55l1.55-1.17c0.38-0.29,0.93-0.22,1.22,0.17c0.29,0.38,0.22,0.93-0.17,1.22l0,0l0,0
				l-1.54,1.16l0,0c-0.38,0.29-0.93,0.22-1.22-0.17C149.04,187.39,149.12,186.84,149.5,186.55z"/>
			<path style="fill:#1379CE;" d="M155.75,181.93l1.59-1.12c0.4-0.28,0.94-0.18,1.22,0.21c0.28,0.4,0.18,0.94-0.21,1.22l0,0
				l-0.01,0.01l-1.58,1.11l-0.01,0.01c-0.4,0.28-0.94,0.18-1.22-0.21C155.26,182.75,155.35,182.21,155.75,181.93z"/>
			<path style="fill:#1379CE;" d="M162.2,177.56l1.65-1.04c0.41-0.26,0.95-0.13,1.21,0.28c0.26,0.41,0.13,0.95-0.28,1.21l0,0
				l-0.01,0.01l-1.63,1.02l-0.01,0.01c-0.41,0.26-0.95,0.13-1.21-0.28C161.67,178.36,161.79,177.82,162.2,177.56z"/>
			<path style="fill:#1379CE;" d="M168.89,173.56l1.71-0.94c0.43-0.23,0.96-0.08,1.2,0.35c0.23,0.43,0.08,0.96-0.35,1.2l0,0
				l-0.01,0.01l-1.69,0.93l-0.01,0.01c-0.43,0.23-0.96,0.08-1.2-0.35C168.31,174.33,168.46,173.79,168.89,173.56z"/>
			<path style="fill:#1379CE;" d="M175.79,169.94l1.76-0.84c0.44-0.21,0.97-0.03,1.18,0.41s0.03,0.97-0.41,1.18l0,0l-0.01,0.01
				l-1.74,0.83l-0.01,0.01c-0.44,0.21-0.97,0.03-1.18-0.41C175.17,170.68,175.35,170.15,175.79,169.94z"/>
			<path style="fill:#1379CE;" d="M182.89,166.72l1.8-0.74c0.45-0.19,0.97,0.03,1.16,0.48c0.19,0.45-0.03,0.97-0.48,1.16l0,0
				l-0.01,0l-1.78,0.73l-0.01,0c-0.45,0.19-0.97-0.03-1.16-0.48C182.22,167.42,182.44,166.91,182.89,166.72z"/>
			<path style="fill:#1379CE;" d="M190.15,163.89l1.84-0.64c0.46-0.16,0.97,0.08,1.13,0.54c0.16,0.46-0.08,0.97-0.54,1.13l0,0
				l-0.01,0l-1.82,0.63l-0.01,0c-0.46,0.16-0.97-0.08-1.13-0.54C189.44,164.56,189.69,164.05,190.15,163.89z"/>
			<path style="fill:#1379CE;" d="M197.56,161.47l1.87-0.54c0.47-0.14,0.97,0.14,1.1,0.61c0.14,0.47-0.14,0.97-0.61,1.1l0,0l-0.01,0
				l-1.85,0.53l-0.01,0c-0.47,0.14-0.96-0.14-1.1-0.61C196.81,162.1,197.08,161.61,197.56,161.47z"/>
			<path style="fill:#1379CE;" d="M205.08,159.46l1.9-0.44c0.48-0.11,0.96,0.19,1.07,0.67c0.11,0.48-0.19,0.96-0.67,1.07l0,0
				l-0.01,0l-1.88,0.43l-0.01,0c-0.48,0.11-0.96-0.19-1.07-0.67S204.6,159.57,205.08,159.46z"/>
			<path style="fill:#1379CE;" d="M212.71,157.87l1.92-0.33c0.49-0.08,0.95,0.24,1.03,0.73c0.08,0.49-0.24,0.95-0.73,1.03h0l-0.01,0
				l-1.9,0.33l-0.01,0c-0.49,0.08-0.95-0.24-1.03-0.73C211.9,158.42,212.23,157.96,212.71,157.87z"/>
			<path style="fill:#1379CE;" d="M220.42,156.71l1.94-0.22c0.49-0.06,0.94,0.3,0.99,0.79c0.06,0.49-0.3,0.94-0.79,0.99h0l-0.01,0
				l-1.91,0.22l-0.01,0c-0.49,0.06-0.94-0.3-0.99-0.79C219.58,157.21,219.93,156.77,220.42,156.71z"/>
			<path style="fill:#1379CE;" d="M228.18,155.98l1.95-0.11c0.5-0.03,0.92,0.35,0.95,0.85c0.03,0.5-0.35,0.92-0.85,0.95h0l-0.01,0
				l-1.92,0.11l-0.01,0c-0.5,0.03-0.92-0.35-0.95-0.85C227.31,156.43,227.68,156.01,228.18,155.98z"/>
			<path style="fill:#1379CE;" d="M235.97,155.7l1.95,0c0.5,0,0.9,0.4,0.9,0.9c0,0.5-0.4,0.9-0.9,0.9h0h-0.01l-1.92,0h-0.01
				c-0.5,0-0.9-0.4-0.9-0.9C235.07,156.1,235.47,155.7,235.97,155.7z"/>
			<path style="fill:#1379CE;" d="M243.76,155.86l1.95,0.11c0.5,0.03,0.88,0.46,0.85,0.95c-0.03,0.5-0.46,0.88-0.95,0.85h0l-0.01,0
				l-1.92-0.11l-0.01,0c-0.5-0.03-0.88-0.46-0.85-0.95C242.84,156.21,243.27,155.83,243.76,155.86z"/>
			<path style="fill:#1379CE;" d="M251.53,156.49l1.94,0.23c0.5,0.06,0.85,0.51,0.79,1.01c-0.06,0.5-0.51,0.85-1.01,0.79l0,0
				l-0.01,0l-1.91-0.23l-0.01,0c-0.5-0.06-0.85-0.51-0.79-1.01C250.59,156.79,251.04,156.43,251.53,156.49z"/>
			<path style="fill:#1379CE;" d="M259.25,157.57l1.92,0.33c0.49,0.08,0.83,0.55,0.74,1.05c-0.08,0.49-0.55,0.83-1.05,0.74h0
				l-0.01,0l-1.9-0.33l-0.01,0c-0.49-0.09-0.83-0.55-0.74-1.05C258.28,157.82,258.75,157.49,259.25,157.57z"/>
			<path style="fill:#1379CE;" d="M266.89,159.02l1.9,0.42c0.49,0.11,0.8,0.59,0.69,1.08c-0.11,0.49-0.59,0.8-1.08,0.69l0,0l-0.01,0
				l-1.88-0.41l-0.01,0c-0.49-0.11-0.8-0.59-0.69-1.08C265.92,159.22,266.4,158.91,266.89,159.02z"/>
			<path style="fill:#1379CE;" d="M274.47,160.82l1.88,0.51c0.49,0.13,0.78,0.63,0.64,1.12c-0.13,0.49-0.63,0.78-1.12,0.64h0
				l-0.01,0l-1.86-0.5l-0.01,0c-0.49-0.13-0.77-0.63-0.64-1.12C273.48,160.98,273.98,160.69,274.47,160.82z"/>
			<path style="fill:#1379CE;" d="M281.95,162.99l1.85,0.6c0.48,0.16,0.74,0.67,0.59,1.15c-0.16,0.48-0.67,0.74-1.15,0.59l0,0
				l-0.01,0l-1.83-0.6l-0.01,0c-0.48-0.16-0.74-0.67-0.59-1.15C280.95,163.09,281.47,162.83,281.95,162.99z"/>
			<path style="fill:#1379CE;" d="M289.3,165.56l1.82,0.71c0.47,0.18,0.71,0.72,0.52,1.19c-0.18,0.47-0.72,0.71-1.19,0.52l0,0
				l-0.01-0.01l-1.79-0.7l-0.01,0c-0.47-0.18-0.71-0.72-0.52-1.19C288.3,165.6,288.83,165.37,289.3,165.56z"/>
			<path style="fill:#1379CE;" d="M296.5,168.56l1.77,0.82c0.46,0.21,0.66,0.76,0.45,1.22c-0.21,0.46-0.76,0.66-1.22,0.45l0,0
				l-0.01-0.01l-1.74-0.81l-0.01-0.01c-0.46-0.21-0.66-0.76-0.44-1.22C295.5,168.54,296.04,168.34,296.5,168.56z"/>
			<path style="fill:#1379CE;" d="M303.49,172.04l1.71,0.95c0.44,0.25,0.6,0.81,0.36,1.25c-0.25,0.44-0.81,0.6-1.25,0.36l0,0
				l-0.02-0.01l-1.67-0.94l-0.02-0.01c-0.44-0.25-0.6-0.81-0.36-1.25C302.49,171.95,303.05,171.79,303.49,172.04z"/>
			<path style="fill:#1379CE;" d="M310.2,176.06l1.62,1.1c0.42,0.29,0.53,0.86,0.25,1.28c-0.29,0.42-0.86,0.53-1.28,0.25l0,0
				l-0.02-0.01l-1.59-1.07l-0.02-0.01c-0.42-0.29-0.53-0.86-0.25-1.28C309.2,175.88,309.78,175.77,310.2,176.06z"/>
			<path style="fill:#1379CE;" d="M316.53,180.67l1.51,1.25c0.39,0.33,0.45,0.91,0.12,1.31c-0.33,0.39-0.91,0.45-1.31,0.12l0,0
				l-0.02-0.02l-1.47-1.22l-0.02-0.02c-0.39-0.33-0.45-0.91-0.12-1.3C315.55,180.4,316.13,180.35,316.53,180.67z"/>
			<path style="fill:#1379CE;" d="M322.34,185.94l1.36,1.42c0.35,0.37,0.34,0.96-0.03,1.31c-0.37,0.35-0.96,0.34-1.31-0.03l0,0
				l-0.02-0.02l-1.31-1.38l-0.02-0.02c-0.35-0.37-0.34-0.96,0.03-1.31C321.4,185.55,321.99,185.57,322.34,185.94z"/>
			<path style="fill:#1379CE;" d="M327.48,191.88l1.16,1.59c0.3,0.42,0.21,1-0.21,1.3c-0.42,0.3-1,0.21-1.3-0.21l0,0l-0.02-0.03
				l-1.12-1.54l-0.02-0.03c-0.3-0.42-0.21-1,0.21-1.3C326.6,191.37,327.18,191.47,327.48,191.88z"/>
			<path style="fill:#1379CE;" d="M331.75,198.5l0.9,1.76c0.24,0.46,0.05,1.02-0.41,1.26c-0.46,0.24-1.02,0.05-1.26-0.41l0,0
				l-0.02-0.03l-0.86-1.69l-0.02-0.03c-0.23-0.46-0.05-1.02,0.41-1.26C330.95,197.86,331.52,198.04,331.75,198.5z"/>
			<path style="fill:#1379CE;" d="M334.91,205.73l0.6,1.88c0.16,0.49-0.11,1.02-0.61,1.18c-0.49,0.16-1.02-0.11-1.18-0.61l0,0
				l-0.01-0.04l-0.58-1.81l-0.01-0.04c-0.16-0.49,0.11-1.02,0.61-1.18C334.22,204.97,334.75,205.24,334.91,205.73z"/>
			<path style="fill:#1379CE;" d="M336.86,213.37l0.3,1.95c0.08,0.51-0.27,0.99-0.79,1.07c-0.51,0.08-0.99-0.27-1.07-0.79l0,0
				l-0.01-0.04l-0.29-1.88l-0.01-0.04c-0.08-0.51,0.27-0.99,0.79-1.07C336.3,212.5,336.78,212.85,336.86,213.37z"/>
			<path style="fill:#1379CE;" d="M337.61,221.2l0.01,1.97c0,0.52-0.42,0.94-0.94,0.94c-0.52,0-0.94-0.42-0.94-0.94v0l0-0.03
				l-0.01-1.9l0-0.03c0-0.52,0.42-0.94,0.94-0.94C337.18,220.27,337.61,220.68,337.61,221.2z"/>
			<path style="fill:#1379CE;" d="M337.23,229.06l-0.26,1.95c-0.07,0.52-0.54,0.88-1.06,0.81c-0.52-0.07-0.88-0.54-0.81-1.06l0,0
				l0-0.03l0.26-1.89l0-0.03c0.07-0.52,0.54-0.88,1.06-0.81C336.93,228.07,337.3,228.54,337.23,229.06z"/>
			<path style="fill:#1379CE;" d="M335.8,236.79l-0.51,1.9c-0.14,0.5-0.65,0.8-1.16,0.67c-0.5-0.14-0.8-0.65-0.67-1.16l0,0
				l0.01-0.03l0.5-1.84l0.01-0.03c0.14-0.5,0.65-0.8,1.16-0.67C335.64,235.77,335.93,236.28,335.8,236.79z"/>
			<path style="fill:#1379CE;" d="M333.41,244.27l-0.74,1.82c-0.2,0.49-0.75,0.72-1.23,0.52c-0.49-0.2-0.72-0.75-0.52-1.23l0,0
				l0.01-0.03l0.72-1.77l0.01-0.03c0.2-0.48,0.75-0.72,1.23-0.52C333.38,243.23,333.61,243.79,333.41,244.27z"/>
			<path style="fill:#1379CE;" d="M330.15,251.41l-0.95,1.72c-0.25,0.46-0.83,0.63-1.29,0.38c-0.46-0.25-0.63-0.83-0.38-1.29l0,0
				l0.01-0.02l0.92-1.67l0.01-0.02c0.25-0.46,0.83-0.63,1.29-0.37C330.24,250.37,330.41,250.95,330.15,251.41z"/>
			<path style="fill:#1379CE;" d="M326.07,258.12l-1.14,1.6c-0.31,0.43-0.9,0.53-1.33,0.22c-0.43-0.31-0.53-0.9-0.22-1.33l0,0
				l0.02-0.02l1.11-1.55l0.02-0.02c0.31-0.43,0.9-0.53,1.33-0.22C326.28,257.09,326.38,257.69,326.07,258.12z"/>
			<path style="fill:#1379CE;" d="M321.23,264.3l-1.32,1.45c-0.36,0.39-0.96,0.42-1.35,0.06c-0.39-0.36-0.42-0.96-0.06-1.35l0,0
				l0.02-0.02l1.29-1.41l0.02-0.02c0.36-0.39,0.96-0.42,1.35-0.06C321.56,263.31,321.59,263.91,321.23,264.3z"/>
			<path style="fill:#1379CE;" d="M315.68,269.85l-1.5,1.28c-0.4,0.34-1.01,0.3-1.35-0.11c-0.34-0.4-0.3-1.01,0.11-1.35l0,0
				l0.02-0.02l1.45-1.24l0.02-0.02c0.4-0.34,1.01-0.3,1.35,0.11S316.08,269.51,315.68,269.85z"/>
			<path style="fill:#1379CE;" d="M309.46,274.67l-1.65,1.07c-0.44,0.29-1.04,0.16-1.33-0.28c-0.29-0.44-0.16-1.04,0.28-1.33l0,0
				l0.03-0.02l1.6-1.04l0.03-0.02c0.44-0.29,1.04-0.16,1.33,0.28S309.9,274.38,309.46,274.67z"/>
			<path style="fill:#1379CE;" d="M302.65,278.61l-1.79,0.83c-0.48,0.22-1.05,0.02-1.28-0.46c-0.22-0.48-0.02-1.05,0.46-1.28l0,0
				l0.03-0.01l1.72-0.8l0.03-0.01c0.48-0.22,1.05-0.02,1.28,0.47C303.34,277.81,303.13,278.38,302.65,278.61z"/>
			<path style="fill:#1379CE;" d="M295.42,281.64l-1.84,0.65c-0.5,0.18-1.05-0.08-1.23-0.59c-0.18-0.5,0.08-1.05,0.59-1.23l0,0
				l0.02-0.01l1.8-0.64l0.02-0.01c0.5-0.18,1.05,0.08,1.23,0.59C296.18,280.91,295.92,281.46,295.42,281.64z"/>
			<path style="fill:#1379CE;" d="M287.98,284.04l-1.88,0.51c-0.52,0.14-1.05-0.16-1.19-0.68c-0.14-0.52,0.16-1.05,0.68-1.19l0,0
				l0.02,0l1.85-0.5l0.02,0c0.51-0.14,1.05,0.16,1.19,0.68C288.8,283.37,288.5,283.9,287.98,284.04z"/>
			<path style="fill:#1379CE;" d="M280.4,285.89l-1.91,0.38c-0.52,0.1-1.02-0.23-1.12-0.75c-0.1-0.52,0.23-1.02,0.74-1.12l0.01,0
				l1.88-0.39l0.01,0c0.52-0.11,1.03,0.23,1.14,0.75C281.26,285.27,280.93,285.78,280.4,285.89L280.4,285.89z"/>
			<path style="fill:#1379CE;" d="M272.73,287.25l-1.93,0.28c-0.51,0.07-0.98-0.28-1.05-0.79c-0.07-0.51,0.28-0.98,0.78-1.05l0.01,0
				l1.9-0.28l0.01,0c0.51-0.08,0.99,0.28,1.07,0.79C273.6,286.7,273.25,287.17,272.73,287.25L272.73,287.25z"/>
			<path style="fill:#1379CE;" d="M265,288.21l-1.94,0.19c-0.5,0.05-0.94-0.32-0.99-0.82c-0.05-0.5,0.31-0.94,0.81-0.99l0.01,0
				l1.92-0.2l0.01,0c0.5-0.05,0.95,0.31,1,0.81C265.87,287.71,265.51,288.16,265,288.21L265,288.21z"/>
			<path style="fill:#1379CE;" d="M257.25,288.84l-1.94,0.11c-0.49,0.03-0.9-0.34-0.93-0.83c-0.03-0.48,0.34-0.9,0.82-0.93l0.01,0
				l1.92-0.12l0.01,0c0.49-0.03,0.91,0.34,0.94,0.83C258.12,288.38,257.74,288.81,257.25,288.84L257.25,288.84z"/>
			<path style="fill:#1379CE;" d="M249.48,289.15l-1.94,0.03c-0.45,0.01-0.83-0.35-0.83-0.81c-0.01-0.45,0.34-0.82,0.79-0.83l0.01,0
				l1.93-0.07l0.01,0c0.46-0.02,0.85,0.35,0.87,0.81c0.02,0.46-0.35,0.85-0.81,0.87C249.5,289.15,249.49,289.15,249.48,289.15z"/>
			<path style="fill:#1379CE;" d="M241.72,289.19l-1.94-0.02c-0.41,0-0.75-0.34-0.74-0.76c0-0.41,0.34-0.74,0.74-0.74h0.01
				l1.93-0.02h0c0.42,0,0.77,0.34,0.77,0.76c0,0.42-0.34,0.77-0.76,0.77C241.73,289.19,241.72,289.19,241.72,289.19z"/>
			<path style="fill:#1379CE;" d="M233.96,289.04l-1.94-0.07c-0.37-0.01-0.66-0.33-0.65-0.7c0.01-0.37,0.32-0.65,0.68-0.65h0
				l1.93,0.02h0c0.38,0,0.69,0.32,0.69,0.7c0,0.38-0.32,0.69-0.7,0.69C233.97,289.04,233.97,289.04,233.96,289.04z"/>
			<path style="fill:#1379CE;" d="M226.21,288.7l-1.93-0.11c-0.31-0.02-0.54-0.28-0.53-0.59c0.02-0.3,0.27-0.54,0.57-0.53l1.93,0.05
				c0.32,0.01,0.58,0.28,0.57,0.6c-0.01,0.32-0.28,0.58-0.6,0.57C226.23,288.7,226.22,288.7,226.21,288.7z"/>
			<path style="fill:#1379CE;" d="M218.48,288.23l-1.93-0.14c-0.23-0.02-0.41-0.22-0.39-0.46c0.02-0.23,0.21-0.4,0.44-0.4l1.93,0.06
				c0.26,0.01,0.46,0.22,0.45,0.48c-0.01,0.26-0.22,0.46-0.48,0.45C218.49,288.23,218.48,288.23,218.48,288.23z"/>
		</g>
		<g>
			<polygon style="fill:#1379CE;" points="140.16,9.5 141.25,17.51 146.2,13.33 			"/>
			<path style="fill:#6ABEE2;" d="M175.55,0L156.5,21.92c-0.36,0.42-0.88,0.67-1.44,0.7c-0.56,0.03-1.1-0.17-1.5-0.55L132.27,2.11
				c-0.24-0.23-0.32-0.58-0.2-0.89s0.42-0.52,0.75-0.52L175.55,0z"/>
			<polygon style="fill:#1379CE;" points="140.16,9.5 175.55,0 143.59,12.73 143.79,14.96 			"/>
			<polygon style="fill:#1379CE;" points="145.63,14.63 141.25,17.51 143.59,12.73 			"/>
		</g>
	</g>
	<g>
		<g>
			
				<rect x="153.72" y="330.1" transform="matrix(-1 -1.224647e-16 1.224647e-16 -1 310.7923 696.4931)" style="fill:#91B3FA;" width="3.36" height="36.29"/>
			<path style="fill:#91B3FA;" d="M140.7,367.09h29.39l0,0c0-1.21-0.98-2.18-2.18-2.18h-25.02
				C141.68,364.91,140.7,365.88,140.7,367.09L140.7,367.09z"/>
			<path style="fill:#91B3FA;" d="M136.34,328.84c0,1.98,1.62,3.61,3.61,3.61h29.73c1.98,0,3.61-1.62,3.61-3.61v-3.26
				c0-1.98-1.62-3.61-3.61-3.61h-29.73c-1.98,0-3.61,1.62-3.61,3.61V328.84z"/>
		</g>
		<g>
			
				<linearGradient id="SVGID_00000102503291336069768550000012275752938568684207_" gradientUnits="userSpaceOnUse" x1="2728.5916" y1="335.677" x2="2752.4502" y2="335.677" gradientTransform="matrix(-1 0 0 1 2920.6067 0)">
				<stop  offset="0" style="stop-color:#FF928E"/>
				<stop  offset="1" style="stop-color:#FEB3B1"/>
			</linearGradient>
			<path style="fill:url(#SVGID_00000102503291336069768550000012275752938568684207_);" d="M180.17,305.91
				c0,0,4.99,0.77,10.59,4.52c0.88,0.59,1.37,1.62,1.23,2.67c-0.67,5.32-3.43,22.53-12.53,39.34c-0.48,0.89-0.62,1.92-0.41,2.9
				l1.58,7.36l2.93,2.75h-7.55l-5.03-13.61l2.15-0.68c1.67-0.53,2.81-2.06,2.84-3.81l0.25-14.6c-0.22-6.5,3.99-10.99,3.99-10.99
				l-12.06-0.59L180.17,305.91z"/>
			<path style="fill:#333333;" d="M186.52,366.77c0.69,0.9-7.4,2.09-11.49,0.12c0,0-5.67-9.86-5.67-14.94c0,0,0.45-1.04,3.78-0.8
				c0,0,1.9,11.67,3.91,12.98c2.01,1.31,5.62,0.13,5.62,0.13S185.5,365.45,186.52,366.77z"/>
			
				<linearGradient id="SVGID_00000114043528756603674730000000058742496285020340_" gradientUnits="userSpaceOnUse" x1="197.0202" y1="359.7348" x2="192.9785" y2="330.3205">
				<stop  offset="0" style="stop-color:#FF928E"/>
				<stop  offset="1" style="stop-color:#FEB3B1"/>
			</linearGradient>
			<path style="fill:url(#SVGID_00000114043528756603674730000000058742496285020340_);" d="M169.68,321.97
				c0.06-0.11,12.99-1.55,12.99-1.55s-0.42,3.93,0.9,9.34c1.32,5.41,20.3,28.84,20.3,28.84l-1.99,6.31
				c6.15,2.14,12.2,2.49,18.16,1.09l-12.33-7.4c0,0-11.54-39.32-18.61-46.34l-12.95-4.48L169.68,321.97z"/>
			<path style="fill:#333333;" d="M140.7,299.09c0,0-7.45,11.07-8.06,16.13c-0.61,5.05,2.04,7.1,9.85,7.44
				c7.81,0.34,28.67,0.33,28.67,0.33l17.8-15.21c0,0-12.97-4.63-16.34-5.94C169.25,300.53,140.7,299.09,140.7,299.09z"/>
			<path style="fill:#333333;" d="M202.63,362.78c0,0-2.14,2.07-0.69,4.38c0,0,16.97,3.01,21.57,1.64c0,0-0.96-2.18-6.14-4.67
				l0.38,0.29c0.48,0.37,0.2,1.15-0.41,1.11C213.92,365.35,206.84,364.72,202.63,362.78z"/>
		</g>
		<g>
			<path style="fill:#26C4CE;" d="M160.84,297.63c0,0,8.67-8.26,12.94-13.72c2.31-2.96,3.03-6.85,1.96-10.44
				c-1.95-6.56-5.41-13.36-5.73-14.42c-0.48-1.62-10.21-1.55-10.21-1.55s-19.13,12.42-26.65,33.45l8.44,2.63
				c0,0,4.99-8.38,9.93-13.71c0,0-8.54,11.28-8.84,15.9L160.84,297.63z"/>
			
				<linearGradient id="SVGID_00000096057985495522560140000012005600188077016473_" gradientUnits="userSpaceOnUse" x1="167.7977" y1="250.4684" x2="162.7083" y2="261.8449">
				<stop  offset="0" style="stop-color:#FF928E"/>
				<stop  offset="1" style="stop-color:#FEB3B1"/>
			</linearGradient>
			<path style="fill:url(#SVGID_00000096057985495522560140000012005600188077016473_);" d="M171.19,249.97
				c-0.1,0.34-2.64,8.75-2.84,8.92c-0.2,0.17-5.56,0.46-8.09-1.26l4.29-8.97L171.19,249.97z"/>
			
				<linearGradient id="SVGID_00000026856455929925465920000017123833630314696364_" gradientUnits="userSpaceOnUse" x1="175.268" y1="233.2241" x2="161.6461" y2="250.4385">
				<stop  offset="0" style="stop-color:#FF928E"/>
				<stop  offset="1" style="stop-color:#FEB3B1"/>
			</linearGradient>
			<path style="fill:url(#SVGID_00000026856455929925465920000017123833630314696364_);" d="M167.02,232.31c0,0,4.58,1.93,7.7,8.55
				c3.11,6.62,0.79,9.68-2.13,10.1c-2.92,0.42-7.29,0.36-11.91-3.92C156.05,242.76,161.07,230.01,167.02,232.31z"/>
			
				<linearGradient id="SVGID_00000121280525590753192880000015533311808460967818_" gradientUnits="userSpaceOnUse" x1="2785.0642" y1="209.3697" x2="2747.7544" y2="248.187" gradientTransform="matrix(-1 0 0 1 2920.6067 0)">
				<stop  offset="0" style="stop-color:#09005D"/>
				<stop  offset="1" style="stop-color:#1A0F91"/>
			</linearGradient>
			<path style="fill:url(#SVGID_00000121280525590753192880000015533311808460967818_);" d="M163.78,243.5c0,0-3.46-9.68,5.13-9.8
				l2.02,1.41c0,0,3.15-5.37-2.02-7.93c-5.17-2.56-12.89-0.28-15.09,6.69c-2.2,6.97-0.91,11.46,2.75,14.8
				c3.66,3.33,5.17-0.45,5.17-0.45s-1.99-3.12-1.18-4.79c0.81-1.67,2.68,0.34,2.68,0.34L163.78,243.5z"/>
			
				<linearGradient id="SVGID_00000098919096464451895220000012720499376613931183_" gradientUnits="userSpaceOnUse" x1="2747.5762" y1="235.7915" x2="2769.8208" y2="250.901" gradientTransform="matrix(-1 0 0 1 2920.6067 0)">
				<stop  offset="0" style="stop-color:#FF928E"/>
				<stop  offset="1" style="stop-color:#FEB3B1"/>
			</linearGradient>
			<path style="fill:url(#SVGID_00000098919096464451895220000012720499376613931183_);" d="M162.81,244.58c0,0-1.75-4.99-4.08-3
				s1.89,4.61,3.55,5.46L162.81,244.58z"/>
			
				<linearGradient id="SVGID_00000081633195110984186830000013980117672407387552_" gradientUnits="userSpaceOnUse" x1="143.97" y1="290.9532" x2="151.0429" y2="295.1071">
				<stop  offset="0" style="stop-color:#FF928E"/>
				<stop  offset="1" style="stop-color:#FEB3B1"/>
			</linearGradient>
			<path style="fill:url(#SVGID_00000081633195110984186830000013980117672407387552_);" d="M178.5,298.24l-6.37-6.14l-8.81,3.72
				c0,0-8.77,1.36-13.79,0c-5.02-1.36-5.02-1.36-5.02-1.36l-11.34-3.53l-1.78,5.04c-0.45,1.28,0,2.7,1.11,3.48
				c0.98,0.7,2.13,1.46,2.87,1.78c1.49,0.65,36.83-0.45,36.83-0.45L178.5,298.24z"/>
			
				<linearGradient id="SVGID_00000068649701567513457370000017767398269914989483_" gradientUnits="userSpaceOnUse" x1="2801.6472" y1="225.3085" x2="2764.3372" y2="264.1259" gradientTransform="matrix(-1 0 0 1 2920.6067 0)">
				<stop  offset="0" style="stop-color:#09005D"/>
				<stop  offset="1" style="stop-color:#1A0F91"/>
			</linearGradient>
			<path style="fill:url(#SVGID_00000068649701567513457370000017767398269914989483_);" d="M154.49,234.96
				c1.1-1.13,0.39-3.03-1.17-3.28c-5.03-0.79-12.71,0.02-15.93,10.79c-3.63,12.14-5.99,18.21-8.42,19.27
				c-1.59,0.7-1.7,2.91-0.11,3.62c1.17,0.53,2.85,0.71,5.26,0.18C152.67,261.47,148.02,241.57,154.49,234.96z"/>
		</g>
		<g>
			
				<linearGradient id="SVGID_00000038374397792981349380000007398983662551327904_" gradientUnits="userSpaceOnUse" x1="2708.9858" y1="561.6863" x2="2679.2134" y2="569.8461" gradientTransform="matrix(-0.9988 -0.0494 -0.0494 0.9988 2881.6062 -135.8728)">
				<stop  offset="0" style="stop-color:#09005D"/>
				<stop  offset="1" style="stop-color:#1A0F91"/>
			</linearGradient>
			<path style="fill:url(#SVGID_00000038374397792981349380000007398983662551327904_);" d="M154.39,301.13c0.03,0,0.06,0,0.08,0
				l36.95-0.04c0.91,0,1.65-0.74,1.65-1.66c0-0.91-0.74-1.67-1.66-1.65l-36.95,0.04c-0.91,0-1.65,0.74-1.65,1.66
				C152.82,300.37,153.52,301.09,154.39,301.13z"/>
			
				<linearGradient id="SVGID_00000023242340574787196180000012665542995547139494_" gradientUnits="userSpaceOnUse" x1="2732.1873" y1="272.0823" x2="2711.0623" y2="294.41" gradientTransform="matrix(-1 0 0 1 2920.6067 0)">
				<stop  offset="0" style="stop-color:#09005D"/>
				<stop  offset="1" style="stop-color:#1A0F91"/>
			</linearGradient>
			<path style="fill:url(#SVGID_00000023242340574787196180000012665542995547139494_);" d="M224.65,267.58h-30.77
				c-2.27,0-4.34,1.31-5.3,3.36l-14.23,30.17h38.24c1.46,0,2.78-0.89,3.32-2.25l11.03-27.92
				C227.57,269.33,226.38,267.58,224.65,267.58z"/>
		</g>
		<g>
			<path style="fill:#91B3FA;" d="M102.75,302.48c-0.09-0.42,0.03-0.85,0.32-1.18c0.29-0.33,0.72-0.52,1.18-0.52h154.2
				c0.6,0,1.16,0.29,1.48,0.76c0.32,0.47,0.37,1.07,0.11,1.58l-1.67,3.39c-0.38,0.78-1.21,1.27-2.12,1.27H105.3
				c-0.85,0-1.58-0.56-1.74-1.35L102.75,302.48z"/>
			<g>
				<path style="fill:#91B3FA;" d="M249.8,373.93c0.18,0,0.36-0.04,0.53-0.11c0.69-0.3,1-1.12,0.71-1.82l-28.38-67.5
					c-0.3-0.7-1.09-1.03-1.78-0.72c-0.69,0.3-1,1.12-0.71,1.82l28.38,67.5C248.78,373.62,249.28,373.93,249.8,373.93z"/>
				<path style="fill:#91B3FA;" d="M217.83,373.93c0.52,0,1.02-0.31,1.24-0.84l28.38-67.5c0.3-0.7-0.02-1.52-0.71-1.82
					c-0.69-0.3-1.48,0.02-1.78,0.72L216.59,372c-0.3,0.7,0.02,1.52,0.71,1.82C217.47,373.9,217.65,373.93,217.83,373.93z"/>
				<path style="fill:#91B3FA;" d="M138.04,373.93c0.18,0,0.36-0.04,0.53-0.11c0.69-0.3,1-1.12,0.71-1.82l-28.38-67.5
					c-0.3-0.7-1.09-1.03-1.78-0.72c-0.69,0.3-1,1.12-0.71,1.82l28.38,67.5C137.02,373.62,137.52,373.93,138.04,373.93z"/>
				<path style="fill:#91B3FA;" d="M106.07,373.93c0.52,0,1.02-0.31,1.24-0.84l28.38-67.5c0.3-0.7-0.02-1.52-0.71-1.82
					c-0.69-0.3-1.48,0.02-1.78,0.72L104.83,372c-0.3,0.7,0.02,1.52,0.71,1.82C105.71,373.9,105.89,373.93,106.07,373.93z"/>
			</g>
		</g>
	</g>
	<g>
		<g>
			<path style="fill:#0E5BA9;" d="M92.04,188.96c0,0,66.84-33.03,44.98-57.34c-21.86-24.32-62.61-14.6-64.68,11
				C70.28,168.21,119.88,162.2,92.04,188.96z"/>
			<g>
				<path style="fill:#FFFFFF;" d="M131.37,138.55h-29.5c-0.36,0-0.65-0.29-0.65-0.65s0.29-0.65,0.65-0.65h29.5
					c0.36,0,0.65,0.29,0.65,0.65S131.73,138.55,131.37,138.55z"/>
				<path style="fill:#FFFFFF;" d="M93.11,138.55h-8.75c-0.36,0-0.65-0.29-0.65-0.65s0.29-0.65,0.65-0.65h8.75
					c0.36,0,0.65,0.29,0.65,0.65S93.47,138.55,93.11,138.55z"/>
				<path style="fill:#FFFFFF;" d="M132.36,144.52h-11.08c-0.36,0-0.65-0.29-0.65-0.65s0.29-0.65,0.65-0.65h11.08
					c0.36,0,0.65,0.29,0.65,0.65S132.72,144.52,132.36,144.52z"/>
				<path style="fill:#FFFFFF;" d="M105.03,144.52H85.35c-0.36,0-0.65-0.29-0.65-0.65s0.29-0.65,0.65-0.65h19.68
					c0.36,0,0.65,0.29,0.65,0.65S105.39,144.52,105.03,144.52z"/>
				<path style="fill:#FFFFFF;" d="M133.36,150.49h-29.44c-0.36,0-0.65-0.29-0.65-0.65c0-0.36,0.29-0.65,0.65-0.65h29.44
					c0.36,0,0.65,0.29,0.65,0.65C134,150.2,133.71,150.49,133.36,150.49z"/>
				<path style="fill:#FFFFFF;" d="M96.54,150.49H86.35c-0.36,0-0.65-0.29-0.65-0.65c0-0.36,0.29-0.65,0.65-0.65h10.19
					c0.36,0,0.65,0.29,0.65,0.65C97.18,150.2,96.9,150.49,96.54,150.49z"/>
			</g>
		</g>
		<g>
			<path style="fill:#333333;" d="M69.96,362.83c0,0-0.66,3.75-0.99,7.46c-0.13,1.45,0.99,2.71,2.45,2.77
				c4.94,0.21,15.52,0.61,19.32,0.44c0.57-0.03,0.94-0.61,0.73-1.14l0,0c-0.18-0.44-0.52-0.8-0.95-1l-17.47-8.03L69.96,362.83z"/>
			
				<linearGradient id="SVGID_00000161606548907736255720000012823765544444796595_" gradientUnits="userSpaceOnUse" x1="3674.4109" y1="362.8148" x2="3680.0933" y2="362.8148" gradientTransform="matrix(1 0 0 1 -3604.9897 0)">
				<stop  offset="0" style="stop-color:#FF928E"/>
				<stop  offset="1" style="stop-color:#FEB3B1"/>
			</linearGradient>
			<path style="fill:url(#SVGID_00000161606548907736255720000012823765544444796595_);" d="M69.42,360.63l0.53,4.49
				c0,0,3.06,1.42,5.15-0.18l-1.27-5L69.42,360.63z"/>
			<path style="fill:#333333;" d="M69.82,276.28c-0.23,1.17-1.23,58.47,4.89,84.14c0.1,0.42-0.11,0.85-0.51,1.01
				c-0.94,0.38-2.78,0.94-4.99,1.01c-0.68,0.02-1.3-0.42-1.49-1.08c-1.75-5.96-10.14-35.8-11.23-64.31c-1.22-31.86,0-1.08,0-1.08
				l0.72-19.69L69.82,276.28z"/>
			<path style="fill:#333333;" d="M49.87,364.79c0,0-1.05,1.89-2.08,6.92c-0.18,0.91,0.45,1.78,1.37,1.87
				c1.63,0.16,4.15,0.37,6.16,0.35c0.93-0.01,1.65-0.81,1.54-1.74c-0.22-1.84-0.92-4.85-3.06-7.2L49.87,364.79z"/>
			
				<linearGradient id="SVGID_00000023982401411733568880000008896667625349609366_" gradientUnits="userSpaceOnUse" x1="3653.9309" y1="362.5235" x2="3658.8374" y2="362.5235" gradientTransform="matrix(1 0 0 1 -3604.9897 0)">
				<stop  offset="0" style="stop-color:#FF928E"/>
				<stop  offset="1" style="stop-color:#FEB3B1"/>
			</linearGradient>
			<path style="fill:url(#SVGID_00000023982401411733568880000008896667625349609366_);" d="M48.94,359.02l1.24,6.78
				c0,0,1.23,0.91,3.66,0.25l-0.59-7.3L48.94,359.02z"/>
			<path style="fill:#333333;" d="M45.58,278.04c-5.01,30.23,1.09,74.71,3.14,83.42c0.13,0.53,0.56,0.94,1.1,1.03
				c0.92,0.15,2.43,0.28,3.92-0.16c0.51-0.15,0.87-0.61,0.89-1.15c0.28-7.04-0.22-50.25,4.45-67.33c0.24-0.87,0.76-1.62,1.5-2.14
				l9.06-6.44l0.69-10.41L45.58,278.04z"/>
			<g>
				<path style="fill:#0E5BA9;" d="M77.5,220.76c-15.01-0.25-31.57,3.94-31.57,3.94c-4.47,26.11-0.78,56.22-0.78,56.22
					c11.62,3.05,24.73-1.86,24.73-1.86c1.93-10.91,10.94-41.62,10.94-41.62c7.33-0.91,13.38-3.03,18.35-5.82
					c-3.8-4.4-5.58-10-6.36-13.31C87.5,219.96,82.13,220.84,77.5,220.76z"/>
				
					<linearGradient id="SVGID_00000044161108670708714150000012379061035578942397_" gradientUnits="userSpaceOnUse" x1="100.5471" y1="222.8325" x2="146.0157" y2="148.1743">
					<stop  offset="0" style="stop-color:#FF928E"/>
					<stop  offset="1" style="stop-color:#FEB3B1"/>
				</linearGradient>
				<path style="fill:url(#SVGID_00000044161108670708714150000012379061035578942397_);" d="M121.84,198.65
					c-1.47-1.78-2.96-2.18-2.96-2.18c-2.21,9.33-14.18,18.14-26.07,21.84c0.78,3.31,2.57,8.91,6.36,13.31
					C118.91,220.51,121.84,198.65,121.84,198.65z"/>
			</g>
			<g>
				
					<linearGradient id="SVGID_00000112605077406500276770000003053547409418482581_" gradientUnits="userSpaceOnUse" x1="103.5232" y1="224.6449" x2="148.9918" y2="149.9867">
					<stop  offset="0" style="stop-color:#FF928E"/>
					<stop  offset="1" style="stop-color:#FEB3B1"/>
				</linearGradient>
				<path style="fill:url(#SVGID_00000112605077406500276770000003053547409418482581_);" d="M121.48,199.11
					c0.15,0.49-1.63,1.24-2.68-0.77c-0.04-0.96-0.62-5.08-0.05-5.86c3.06-4.17,8.99-9.4,8.99-9.4c1,0.99,0.18,1.96,0.18,1.96
					l-2.88,3c0.6,1.09,1.34,2.01,1.68,3.32c0.26,1,0.1,2.06-0.4,2.97c-0.51,0.91-1.19,2.09-1.85,3.02
					C123.24,199.09,121.48,199.11,121.48,199.11z"/>
				
					<linearGradient id="SVGID_00000058556350372396429710000018228324315746608557_" gradientUnits="userSpaceOnUse" x1="-1939.7883" y1="202.0414" x2="-1947.3405" y2="186.8068" gradientTransform="matrix(-1 0 0 1 -1821.562 0)">
					<stop  offset="0" style="stop-color:#FF928E"/>
					<stop  offset="1" style="stop-color:#FEB3B1"/>
				</linearGradient>
				<path style="fill:url(#SVGID_00000058556350372396429710000018228324315746608557_);" d="M123.78,189.98l-2.62,2.22l-0.82,2.21
					l2.34,2.59c0,0,0.79-4.39,1.37-5.34C124.63,190.71,124.32,190.25,123.78,189.98z"/>
			</g>
			<path style="fill:#0E5BA9;" d="M51.68,239.24l-5.76-14.53c0,0-14.02,9.53-16.33,21.6c2.65,0.2,7.47,0.88,12.19,3.27
				C42.82,243.87,51.68,239.24,51.68,239.24z"/>
			
				<linearGradient id="SVGID_00000166666158634128789890000012832507942352893850_" gradientUnits="userSpaceOnUse" x1="57.2684" y1="244.8247" x2="47.1643" y2="252.0098">
				<stop  offset="0" style="stop-color:#FF928E"/>
				<stop  offset="1" style="stop-color:#FEB3B1"/>
			</linearGradient>
			<path style="fill:url(#SVGID_00000166666158634128789890000012832507942352893850_);" d="M63.93,252.91c0,0-15.74,8.9-21.05,1.3
				c-1.1-1.58-1.37-3.15-1.09-4.64c-4.72-2.38-9.54-3.07-12.19-3.27c-0.7,3.64-0.33,7.51,1.81,11.43
				c9.3,17.02,34.61-0.94,34.61-0.94L63.93,252.91z"/>
			<g>
				
					<linearGradient id="SVGID_00000152986624323404582930000013915948055517826955_" gradientUnits="userSpaceOnUse" x1="3682.1223" y1="229.566" x2="3702.324" y2="313.739" gradientTransform="matrix(1 0 0 1 -3604.9897 0)">
					<stop  offset="0" style="stop-color:#09005D"/>
					<stop  offset="1" style="stop-color:#1A0F91"/>
				</linearGradient>
				<path style="fill:url(#SVGID_00000152986624323404582930000013915948055517826955_);" d="M62.04,264.17l8.59-30
					c0.1-0.34,0.39-0.59,0.74-0.63c1.56-0.18,6.07-0.69,11.27-1.13c6.27-0.53,13.56-0.96,17.91-0.59c0.62,0.05,0.99,0.71,0.72,1.26
					c-2.48,5.01-12.66,25.38-17.76,32.05c-0.17,0.22-0.43,0.35-0.71,0.35l-19.93-0.19C62.3,265.28,61.88,264.73,62.04,264.17z"/>
				
					<linearGradient id="SVGID_00000045616157842413858070000001651277067880693931_" gradientUnits="userSpaceOnUse" x1="3694.7705" y1="216.2981" x2="3690.468" y2="235.191" gradientTransform="matrix(1 0 0 1 -3604.9897 0)">
					<stop  offset="0" style="stop-color:#FE7062"/>
					<stop  offset="1" style="stop-color:#FF928E"/>
				</linearGradient>
				<path style="fill:url(#SVGID_00000045616157842413858070000001651277067880693931_);" d="M83.54,229.8l6.23-1.04
					c0.33-0.06,0.6,0.26,0.5,0.58l-0.62,1.87c-0.05,0.16-0.2,0.28-0.37,0.3l-5.99,0.8c-0.31,0.04-0.57-0.24-0.49-0.54l0.38-1.63
					C83.22,229.97,83.36,229.83,83.54,229.8z"/>
				
					<linearGradient id="SVGID_00000134943357665047855830000003832105704333214857_" gradientUnits="userSpaceOnUse" x1="3692.5188" y1="224.2231" x2="3690.4612" y2="236.569" gradientTransform="matrix(1 0 0 1 -3604.9897 0)">
					<stop  offset="0" style="stop-color:#FE7062"/>
					<stop  offset="1" style="stop-color:#FF928E"/>
				</linearGradient>
				<path style="fill:url(#SVGID_00000134943357665047855830000003832105704333214857_);" d="M78.88,235.08l0.51-2.67
					c0.05-0.27,0.27-0.47,0.54-0.5l12.58-1.28c0.42-0.04,0.76,0.35,0.66,0.76l-0.8,3.33c-0.06,0.27-0.3,0.46-0.57,0.47l-12.29,0.62
					C79.11,235.83,78.8,235.47,78.88,235.08z"/>
				
					<linearGradient id="SVGID_00000095303567154760551400000013277737963104943247_" gradientUnits="userSpaceOnUse" x1="3668.2798" y1="251.8342" x2="3679.7256" y2="251.8342" gradientTransform="matrix(1 0 0 1 -3604.9897 0)">
					<stop  offset="0" style="stop-color:#FF928E"/>
					<stop  offset="1" style="stop-color:#FEB3B1"/>
				</linearGradient>
				<path style="fill:url(#SVGID_00000095303567154760551400000013277737963104943247_);" d="M64.12,256.92c0,0-1.2-4.92-0.71-6.67
					c0.48-1.75,1.42-3.99,4.54-3.49c3.12,0.5,6.8,1.81,6.8,1.81s-0.19,2.27-2.56,1.54l1.47,1.14c0,0-0.21,1.82-2.21,0.85l1.37,1.51
					c0,0-0.86,1.5-2.33,0.54C69,253.18,68.29,257.51,64.12,256.92z"/>
			</g>
			
				<linearGradient id="SVGID_00000147918748958699269120000013729251944687960974_" gradientUnits="userSpaceOnUse" x1="67.6407" y1="212.0484" x2="61.5782" y2="224.7347">
				<stop  offset="0" style="stop-color:#FF928E"/>
				<stop  offset="1" style="stop-color:#FEB3B1"/>
			</linearGradient>
			<path style="fill:url(#SVGID_00000147918748958699269120000013729251944687960974_);" d="M62.29,208.58l-4.78,13.81
				c-0.08,0.23,0.01,0.48,0.23,0.6c1.3,0.72,5.99,2.8,11.64-0.78c0.59-0.37,0.99-0.98,1.08-1.67l1.55-11.95H62.29z"/>
			<g>
				
					<linearGradient id="SVGID_00000121994310370213811980000006626421642833083287_" gradientUnits="userSpaceOnUse" x1="74.7533" y1="192.8298" x2="66.3332" y2="209.7823">
					<stop  offset="0" style="stop-color:#FF928E"/>
					<stop  offset="1" style="stop-color:#FEB3B1"/>
				</linearGradient>
				<path style="fill:url(#SVGID_00000121994310370213811980000006626421642833083287_);" d="M72.69,195.79
					c0,0,5.24,9.87,4.57,13.86c-0.67,3.99-7.17,3.7-12.85,0.46l-3.97-10.66L72.69,195.79z"/>
				
					<linearGradient id="SVGID_00000141417749176180489030000012291596718490575536_" gradientUnits="userSpaceOnUse" x1="-3272.2986" y1="398.9728" x2="-3267.7581" y2="424.8704" gradientTransform="matrix(0.746 -0.6659 0.6659 0.746 2226.5034 -2289.4971)">
					<stop  offset="0" style="stop-color:#09005D"/>
					<stop  offset="1" style="stop-color:#1A0F91"/>
				</linearGradient>
				<path style="fill:url(#SVGID_00000141417749176180489030000012291596718490575536_);" d="M64.66,204.87
					c0.23-0.1,0.32-0.38,0.18-0.6c-0.42-0.64-1.21-1.95-1.46-3.1c0,0-0.94-0.6,2.4-1.4c3.34-0.8,8.33-2.04,9.37-4.89
					c1.02-2.77-1.66-9.75-5.94-4.19c-0.16,0.21-0.48,0.22-0.64,0c-0.7-0.91-2.55-2.81-5.11-1.66c-2.4,1.08-2.67,2.83-2.63,3.72
					c0.01,0.26-0.22,0.46-0.48,0.41c-1.21-0.23-4.12-0.43-5.48,2.55c-1.12,2.46-0.39,3.85,0.27,4.53c0.21,0.22,0.12,0.58-0.17,0.67
					c-0.8,0.24-1.83,0.92-1.72,2.79c0.14,2.58,3.03,2.35,3.85,2.24c0.13-0.02,0.27,0.03,0.36,0.13c0.7,0.78,3.88,4.09,7.31,4.49
					c0.3,0.03,0.53-0.26,0.43-0.54l-1.49-4.32c-0.07-0.2,0.03-0.42,0.22-0.51L64.66,204.87z"/>
				
					<linearGradient id="SVGID_00000105392042961200231390000001950957502589511606_" gradientUnits="userSpaceOnUse" x1="-3272.9502" y1="430.0824" x2="-3277.8337" y2="413.975" gradientTransform="matrix(0.746 -0.6659 0.6659 0.746 2226.5034 -2289.4971)">
					<stop  offset="0" style="stop-color:#FF928E"/>
					<stop  offset="1" style="stop-color:#FEB3B1"/>
				</linearGradient>
				<path style="fill:url(#SVGID_00000105392042961200231390000001950957502589511606_);" d="M65.26,205.49c0,0-3.73-2.56-4.01-0.4
					c-0.27,2.16,3.36,3.13,5.16,2.32L65.26,205.49z"/>
			</g>
		</g>
	</g>
</g>
</svg>
