<?xml version="1.0" encoding="utf-8"?>
<!-- Generator: Adobe Illustrator 26.3.1, SVG Export Plug-In . SVG Version: 6.00 Build 0)  -->
<svg version="1.1" id="Layer_1" xmlns="http://www.w3.org/2000/svg" xmlns:xlink="http://www.w3.org/1999/xlink" x="0px" y="0px"
	 viewBox="0 0 687.5 438.3" style="enable-background:new 0 0 687.5 438.3;" xml:space="preserve">
<style type="text/css">
	.st0{fill:#EDF5FF;}
	.st1{fill:#FFFFFF;}
	.st2{opacity:0.68;}
	.st3{fill:#A5CDF2;}
	.st4{opacity:0.24;}
	.st5{opacity:0.61;}
	.st6{opacity:0.79;}
	.st7{fill:#1B1B25;}
	.st8{fill:#0A0A0A;}
	.st9{fill:#DE2C38;}
	.st10{fill:#CF0019;}
	.st11{opacity:0.37;fill:#95A1E6;}
	.st12{fill:#26C4CF;}
	.st13{opacity:0.6;}
	.st14{fill:#FCFAF5;}
	.st15{fill:none;stroke:#4F6AFF;stroke-width:0.3478;stroke-miterlimit:10;}
	.st16{fill:none;stroke:#4F6AFF;stroke-width:0.6955;stroke-miterlimit:10;stroke-dasharray:5.5642;}
	.st17{fill:#18004C;}
	.st18{fill:none;stroke:#18004C;stroke-width:0.679;stroke-miterlimit:10;}
	.st19{fill:#4F6AFF;}
	.st20{fill:#FEB38C;}
	.st21{fill:#F79A88;}
	.st22{fill:#EC7A65;}
	.st23{fill:#1E274D;}
	.st24{fill:#F5836B;}
	.st25{fill:#0F5BA7;}
	.st26{fill:none;stroke:#FFFFFF;stroke-width:0.314;stroke-miterlimit:10;}
	.st27{opacity:0.21;fill:#1E274D;}
	.st28{fill:#422C6C;}
	.st29{fill:#98CCFE;}
	.st30{opacity:0.6;fill:#1E274D;}
	.st31{fill:none;stroke:#FFFFFF;stroke-width:0.3166;stroke-miterlimit:10;}
	.st32{fill:#18293D;}
	.st33{fill:#18293D;stroke:#EAEBEC;stroke-width:0.4326;stroke-miterlimit:10;}
	.st34{fill:none;stroke:#FFFFFF;stroke-width:0.8127;stroke-linecap:round;stroke-miterlimit:10;}
	.st35{fill:#FF9C75;}
	.st36{fill:#E6713E;}
	.st37{fill:#FF8752;}
	.st38{fill:#E5F1FF;}
	.st39{fill:#FF7B4D;}
	.st40{fill:none;stroke:#FFFFFF;stroke-width:0.3147;stroke-miterlimit:10;}
	.st41{opacity:0.21;}
	.st42{opacity:0.37;}
	.st43{fill:#95A1E6;}
	.st44{fill:#020F2B;}
	.st45{fill:#FF3040;}
	.st46{fill:none;stroke:#FBEFDF;stroke-width:0.2024;stroke-miterlimit:10;}
	.st47{fill:#3054F2;}
	.st48{fill:none;stroke:#FFFFFF;stroke-width:0.4048;stroke-miterlimit:10;}
	.st49{fill:none;stroke:#FFFFFF;stroke-width:0.3264;stroke-miterlimit:10;}
	.st50{clip-path:url(#SVGID_00000117649214711994671910000007756987829440250766_);}
	.st51{fill:#000F30;stroke:#1C254F;stroke-width:0;stroke-miterlimit:10;}
	.st52{clip-path:url(#SVGID_00000096036622559752475570000003216579781931664052_);}
	.st53{fill:#000F30;}
	.st54{fill:#F47322;}
	.st55{fill:#F78F1E;}
	.st56{fill:#4BC2C0;}
	.st57{fill:#B93F7A;}
</style>
<g>
	<g>
		<g>
			<g>
				<path class="st0" d="M185.6,88.5c-2.1-4.3-1.2-9.9,2.2-13.3c3.3-3.4,8.8-4.5,13.2-2.6c-0.1-9.7,6.8-18,14.6-23.8
					c4-3,8.5-5.6,13.5-6.1c6.5-0.7,13.1,2.3,17.9,6.7c4.9,4.4,8.3,10.1,11.5,15.9c2-3.4,6.7-4.8,10.2-3s5.3,6.3,3.8,10
					c7.7-1.3,15.8,5.3,16.2,13.1"/>
			</g>
			<g>
				<path class="st0" d="M439,45.4c1.7-3.6,1-8.3-1.8-11.1c-2.8-2.9-7.4-3.8-11.1-2.2c0.1-8.1-5.7-15.1-12.2-19.9
					c-3.4-2.5-7.1-4.7-11.3-5.1c-5.5-0.6-10.9,1.9-15,5.6c-4.1,3.7-7,8.5-9.7,13.3c-1.7-2.8-5.6-4-8.6-2.5c-2.9,1.5-4.4,5.3-3.2,8.3
					c-6.5-1.1-13.3,4.4-13.6,11"/>
			</g>
			<g>
				<path class="st0" d="M116.8,145.9c1.4-2.9,0.8-6.5-1.4-8.8c-2.2-2.3-5.9-3-8.8-1.7c0.1-6.4-4.5-11.9-9.6-15.7
					c-2.7-2-5.6-3.7-8.9-4.1c-4.3-0.5-8.6,1.5-11.9,4.4c-3.2,2.9-5.5,6.7-7.6,10.5c-1.3-2.2-4.5-3.1-6.8-2c-2.3,1.1-3.5,4.2-2.5,6.6
					c-5.1-0.9-10.5,3.5-10.7,8.7"/>
			</g>
			<g>
				<path class="st0" d="M573.7,145.9c1.4-2.9,0.8-6.5-1.4-8.8c-2.2-2.3-5.9-3-8.8-1.7c0.1-6.4-4.5-11.9-9.6-15.7
					c-2.7-2-5.6-3.7-8.9-4.1c-4.3-0.5-8.6,1.5-11.9,4.4c-3.2,2.9-5.5,6.7-7.6,10.5c-1.3-2.2-4.5-3.1-6.8-2c-2.3,1.1-3.5,4.2-2.5,6.6
					c-5.1-0.9-10.5,3.5-10.7,8.7"/>
			</g>
		</g>
		<g>
			<path class="st0" d="M499.9,177.6c0-2.6-2.1-4.7-4.7-4.7s-4.7,2.1-4.7,4.7s2.1,4.7,4.7,4.7S499.9,180.1,499.9,177.6z"/>
			<path class="st0" d="M241.2,136.3c0-2.2-1.8-4-4-4c-2.2,0-4,1.8-4,4c0,2.2,1.8,4,4,4C239.4,140.3,241.2,138.5,241.2,136.3z"/>
			<path class="st0" d="M269.8,93.1c0-2.6-2.1-4.7-4.7-4.7c-2.6,0-4.7,2.1-4.7,4.7s2.1,4.7,4.7,4.7
				C267.7,97.8,269.8,95.7,269.8,93.1z"/>
			<path class="st1" d="M251.2,85.1c0-0.7-0.6-1.3-1.3-1.3c-0.7,0-1.3,0.6-1.3,1.3c0,0.7,0.6,1.3,1.3,1.3
				C250.6,86.5,251.2,85.9,251.2,85.1z"/>
			<circle class="st0" cx="396.8" cy="97.8" r="3.3"/>
			<path class="st0" d="M613.6,345.8c0-2.6-2.1-4.7-4.7-4.7s-4.7,2.1-4.7,4.7s2.1,4.7,4.7,4.7S613.6,348.4,613.6,345.8z"/>
			<path class="st1" d="M121.5,244.8c0-1.5-1.2-2.7-2.7-2.7c-1.5,0-2.7,1.2-2.7,2.7c0,1.5,1.2,2.7,2.7,2.7
				C120.3,247.4,121.5,246.2,121.5,244.8z"/>
			<path class="st0" d="M117.5,184.9c0-3.7-3-6.7-6.7-6.7c-3.7,0-6.7,3-6.7,6.7c0,3.7,3,6.7,6.7,6.7
				C114.5,191.5,117.5,188.6,117.5,184.9z"/>
		</g>
	</g>
	<g>
		<g>
			<g class="st2">
				<path class="st3" d="M5.5,432.3c-7.2-8.1-7.1-31.6-1.4-40.8c5.7-9.2,17.7-14,28.2-11.2c-4.9-19.1-0.9-39.4,5.1-58.3
					c4.4-14,10.1-28,20.1-38.7c15.3-16.6,39.3-23.3,61.8-21.5s43.8,11.1,63.2,22.7c12.9-50,27.3-102.8,64.6-138.6
					c47.6-45.6,126.8-50.9,183-16.5s87.5,103.2,82,168.9c20.6-2.1,42.7,1.1,59.1,13.7c16.4,12.6,25.3,36.3,16.6,55.1
					c42.9-9.8,90.8,20.9,99.7,64"/>
			</g>
			<g class="st4">
				<path class="st3" d="M5.5,432.3c-7.2-6.7-7.1-25.9-1.4-33.5c5.7-7.5,17.7-11.5,28.2-9.2c-4.9-15.7-0.9-32.4,5.1-47.8
					c4.4-11.5,10.1-22.9,20.1-31.8c15.3-13.6,39.3-19.1,61.8-17.7s43.8,9.1,63.2,18.6c12.9-41,27.3-84.3,64.6-113.7
					c47.6-37.4,126.8-41.7,183-13.6s87.5,84.7,82,138.5c20.6-1.7,42.7,0.9,59.1,11.2c16.4,10.3,25.3,29.8,16.6,45.2
					c42.9-8.1,90.8,17.2,99.7,52.5"/>
			</g>
		</g>
		<g>
			<g>
				<g class="st5">
					<path class="st1" d="M49.1,432.3c2.8-14.4,24.1-28.8,38.4-25.4c4.1-16.4,26.5-24.9,40.5-15.4c4.6-17.5,10.2-36.5,25.4-46.3
						c17.2-11.2,41.2-5.7,57.1,7.3c15.9,13,25.5,32,34.7,50.3c1.5-4.6,8-5.8,12.2-3.4c4.2,2.4,6.6,7,8.7,11.4
						c23.1-11.4,39.5-35.3,41.9-61l42.9-9.1c4.1,17.7,8.8,36.4,21.9,49s37.6,14.8,47.8-0.2c2.3-3.3,3.9-7.5,7.5-9.2
						c7.1-3.4,14,5,17.5,12.1c6.3-12.4,26.3-14.4,35-3.6c7.2-24.7,33.6-42.1,59.2-39.1c25.5,3,47.1,26.2,48.3,51.9
						c16.9-6.5,45.2,12,50.2,29.4"/>
				</g>
				<g class="st6">
					<path class="st1" d="M311,360.4c-1.6,3.5-2.5,7.3-2.8,11.2c0,0.6-0.1,1.2,0.1,1.7c0.5,1.3,2.2,1.7,3.5,1.3
						c1.3-0.4,2.3-1.5,3.2-2.5c0.7,13.1,7,25.9,16.9,34.5c0.5,0.4,1.1,0.9,1.7,0.8c0.5-0.1,1-0.4,1.4-0.8c9.4-9.3,14.5-22.8,13.4-36
						c2.3,1.5,5.6-1,5.8-3.8c0.2-2.8-1.5-5.3-3-7.6"/>
				</g>
				<g>
					<path class="st7" d="M363,337.6L363,337.6l0-21h-61.1v21v-0.1c-8,5.2-11.9,14.3-11.9,24.5l0,0h84.8l0,0
						C374.9,351.7,371,342.8,363,337.6z"/>
					<path class="st8" d="M321.9,321.6c13.4,5.5,41.2,15.9,41.2,15.9v-21h-53.5C313.6,318.3,317.7,319.9,321.9,321.6z"/>
					<g>
						<g>
							<path class="st9" d="M388.1,238.1l23.1,27c5.6,6.6,8.2,15.2,7.1,23.8l-6.3,48.8c-0.4,3.4-3.7,5.8-7.1,5.2l0,0
								c-3-0.5-5.2-3.2-5-6.3l1.2-22c0.7-13.5-8.6-25.6-21.8-28.3l0,0L388.1,238.1z"/>
							<path class="st9" d="M278.3,238.1l-23.1,27c-5.6,6.6-8.2,15.2-7.1,23.8l6.3,48.8c0.4,3.4,3.7,5.8,7.1,5.2l0,0
								c3-0.5,5.2-3.2,5-6.3l-1.2-22c-0.7-13.5,8.6-25.6,21.8-28.3l0,0L278.3,238.1z"/>
						</g>
					</g>
					<g>
						<path class="st10" d="M402.8,255.4l-14.8-17.3l-8.8,48.2l0,0c2.6,0.5,5.1,1.4,7.3,2.6C391.8,277.7,397.1,266.5,402.8,255.4z"
							/>
						<path class="st10" d="M265.9,269c5,6.5,10.2,12.9,15.3,19.3c1.9-0.9,3.8-1.5,5.9-2l0,0l-8.8-48.2l-18.6,21.8
							C262,263.2,264,266.6,265.9,269z"/>
					</g>
					<path class="st1" d="M289.6,309.4c0,0-14.3-36.7-13.6-75.3c0.7-38.7-8.8-124.2,18.3-179.9C310.6,21,320.8,7.3,326.3,1.7
						c2.5-2.5,6.7-2.2,8.8,0.6c8.5,11.4,30.5,41.5,36,54.5c6.8,16.3,22.4,47.5,17,181.2c0,0-2.7,49.6-12.2,71.3H289.6z"/>
					<path class="st11" d="M290.5,98.2c4-26.6,10.4-54.1,26.4-76.3c0.7-0.9,1.5-1.6,2.3-2.1c4.1-6.6,8.2-13.1,12.3-19.7
						c-1.8-0.3-3.7,0.2-5.2,1.6c-5.6,5.6-15.7,19.2-31.9,52.4c-27.2,55.7-17.6,141.2-18.3,179.9c-0.7,38.7,13.6,75.3,13.6,75.3
						l86.9-0.4c-84.7-0.9-91.5-76.8-92.6-118.9C283.1,159.4,286,128.5,290.5,98.2z"/>
					<path class="st9" d="M360.1,54.9c3.7,0.6,7.3,1.3,11,2c0,0,0,0,0,0c-5.4-13.1-27.4-43.1-36-54.5c-2.1-2.9-6.3-3.2-8.8-0.6
						c-5.6,5.6-15.7,19.2-31.9,52.4c-0.3,0.7-0.7,1.4-1,2.2C315.1,50.9,338.1,51.4,360.1,54.9z"/>
					<path class="st10" d="M317.5,29.7c6.4-8.5,12.4-17.3,18.8-25.8c-0.4-0.6-0.8-1.1-1.2-1.6c-2.1-2.9-6.3-3.2-8.8-0.6
						c-5.6,5.6-15.7,19.2-31.9,52.4c-0.3,0.7-0.7,1.4-1,2.2c3.1-0.8,6.2-1.4,9.3-1.9C306.1,45.4,311.7,37.4,317.5,29.7z"/>
					<path class="st7" d="M372.9,320.6h-79.6c-3.6,0-6.5-2.9-6.5-6.5l0,0c0-3.6,2.9-6.5,6.5-6.5h79.6c3.6,0,6.5,2.9,6.5,6.5l0,0
						C379.3,317.7,376.5,320.6,372.9,320.6z"/>
					<path class="st12" d="M331.2,84.7c-18.9,0-34.2,15.3-34.2,34.2c0,18.9,15.3,34.2,34.2,34.2c18.9,0,34.2-15.3,34.2-34.2
						C365.5,100,350.1,84.7,331.2,84.7z M331.2,143.1c-13.4,0-24.3-10.9-24.3-24.3c0-13.4,10.9-24.3,24.3-24.3
						c13.4,0,24.3,10.9,24.3,24.3C355.5,132.3,344.6,143.1,331.2,143.1z"/>
					
						<ellipse transform="matrix(0.9744 -0.2246 0.2246 0.9744 -18.2403 77.4482)" class="st11" cx="331.2" cy="118.9" rx="24.3" ry="24.3"/>
					<g class="st13">
						<path class="st14" d="M307.1,120.6c0.9,12.6,11.3,22.6,24.2,22.6c2,0,3.9-0.3,5.8-0.7C327,135.3,317,128,307.1,120.6z"/>
						<path class="st14" d="M349.8,134.5c3.6-4.2,5.7-9.7,5.7-15.6c0-13.4-10.9-24.3-24.3-24.3c-8.7,0-16.3,4.6-20.6,11.4
							C323.6,115.8,336.6,125.3,349.8,134.5z"/>
					</g>
					<g>
						<g>
							<path class="st15" d="M333.6,89.7c0-1.3-1-2.3-2.3-2.3s-2.3,1-2.3,2.3c0,1.3,1,2.3,2.3,2.3S333.6,91,333.6,89.7z"/>
							<path class="st15" d="M333.6,148c0-1.3-1-2.3-2.3-2.3s-2.3,1-2.3,2.3c0,1.3,1,2.3,2.3,2.3S333.6,149.3,333.6,148z"/>
						</g>
						<g>
							<path class="st15" d="M353.5,99.9c0.9-0.9,0.9-2.4,0-3.3c-0.9-0.9-2.4-0.9-3.3,0c-0.9,0.9-0.9,2.4,0,3.3
								C351.1,100.8,352.6,100.8,353.5,99.9z"/>
							<path class="st15" d="M312.3,141.1c0.9-0.9,0.9-2.4,0-3.3c-0.9-0.9-2.4-0.9-3.3,0c-0.9,0.9-0.9,2.4,0,3.3
								C309.9,142,311.4,142,312.3,141.1z"/>
						</g>
						<g>
							<path class="st15" d="M360.4,121.2c1.3,0,2.3-1,2.3-2.3c0-1.3-1-2.3-2.3-2.3s-2.3,1-2.3,2.3
								C358.1,120.2,359.1,121.2,360.4,121.2z"/>
							<path class="st15" d="M302.1,121.2c1.3,0,2.3-1,2.3-2.3c0-1.3-1-2.3-2.3-2.3s-2.3,1-2.3,2.3
								C299.8,120.2,300.8,121.2,302.1,121.2z"/>
						</g>
						<g>
							<path class="st15" d="M350.2,141.1c0.9,0.9,2.4,0.9,3.3,0c0.9-0.9,0.9-2.4,0-3.3c-0.9-0.9-2.4-0.9-3.3,0
								C349.3,138.8,349.3,140.2,350.2,141.1z"/>
							<path class="st15" d="M309,99.9c0.9,0.9,2.4,0.9,3.3,0c0.9-0.9,0.9-2.4,0-3.3c-0.9-0.9-2.4-0.9-3.3,0
								C308.1,97.5,308.1,99,309,99.9z"/>
						</g>
					</g>
					<path class="st16" d="M275.7,167.9c0,0,57.4-19.4,111-0.9"/>
					<path class="st16" d="M282.7,84.5c16-4.2,57.2-12.6,97.6-0.9"/>
					<path class="st16" d="M275.7,181.8c0,0,57.4-19.4,111-0.9"/>
				</g>
				<g>
					<g class="st6">
						<path class="st1" d="M353.9,377.1c5.2,19.2,21.3,33.1,41.1,35.6C374.9,413.4,356,397.1,353.9,377.1L353.9,377.1z"/>
					</g>
					<g class="st6">
						<path class="st1" d="M311.9,381.8c-2.2,17.5-15.3,33.4-32.1,38.9C295.2,412.6,306.9,398.4,311.9,381.8L311.9,381.8z"/>
					</g>
					<g class="st6">
						<path class="st1" d="M315.8,405c-1.4,5.8-4.1,11.3-8,16C309.2,415.2,312,409.7,315.8,405L315.8,405z"/>
					</g>
					<g class="st6">
						<path class="st1" d="M333.8,415c1.8,2.2,2.3,5.3,1.3,8C333.3,420.7,332.8,417.7,333.8,415L333.8,415z"/>
					</g>
					<g class="st6">
						<path class="st1" d="M347.2,404.3c1.5,2.5,3.7,6.1,5.5,8.4c1.7,2.3,4.4,5.5,6.4,7.7C352.7,417.6,348,411.2,347.2,404.3
							L347.2,404.3z"/>
					</g>
				</g>
			</g>
		</g>
	</g>
	<g>
		<g>
			
				<rect x="157.5" y="367.4" transform="matrix(-1 -1.224647e-16 1.224647e-16 -1 396.3675 740.6451)" class="st17" width="81.3" height="5.9"/>
			<polyline class="st18" points="205.2,436.7 237.7,373.5 157.8,373.5 125.2,436.7 			"/>
			<line class="st18" x1="225.5" y1="396.1" x2="146" y2="396.1"/>
			<line class="st18" x1="211.5" y1="423.2" x2="132" y2="423.2"/>
			<g>
				<polygon class="st19" points="206.2,438.2 211,428.9 206.5,429 201.8,438.3 				"/>
			</g>
			<g>
				<polygon class="st19" points="127.2,438.2 132,428.9 127.5,429 122.8,438.3 				"/>
			</g>
			<line class="st18" x1="254.9" y1="432.4" x2="237.7" y2="373.5"/>
			<line class="st18" x1="175.2" y1="432.4" x2="158" y2="373.5"/>
		</g>
		<g>
			<g>
				<path class="st20" d="M250.5,187.9c0,0-17.2,26.3-21.9,23c0,0-7.5-3.8-4.8-19.3c0-1.5,0-2.5,0-2.8c0,0-1.2-15.3-3.7-18.4
					c-0.3-0.3-1.1-1-1-1c7.7-1.9,10.7,14.4,12.8,23.3c0.1,0.4,14.6-10.9,14.6-10.9s7.7-10.1,8.2-9.5c0.8,0.8-2.2,5.4-2.2,5.4
					s0.2,0.5,0.8,0.8c0.6,0.3,0.9,0.6,1.1,1.4c0.2,0.8,1,1.2,1.1,1.7C255.6,181.9,252.2,186.7,250.5,187.9z"/>
				<path class="st20" d="M246.8,181.7c0,0,1.5-4.4,2.2-4.3c0.6,0.1,3.5,1.4,3.4,2.5c-0.1,1.1-2.5,0.2-2.5,0.2s0.5,2.5-0.8,2.8
					C247.9,183.2,246.8,181.7,246.8,181.7z"/>
				<g>
					<path class="st21" d="M250.6,179.9c0,0-0.1,1.1,0.8,1.3c0,0,0.2,1.2,1.4,0.9c0,0-0.3,0.5,0.4,0.6
						C253.2,182.7,250.1,186,250.6,179.9z"/>
					<g>
						<path class="st22" d="M250,177.7c0.9,0.3,1.8,0.6,2.7,1.2c0.1,0.1,0.3,0.3,0.4,0.5c0.2,1.3-1.9,1.2-2.6,1.2c0-0.1,0,0.2,0,0.3
							l0.1,1l0,0l-0.2-1c0-0.2-0.1-0.3,0-0.5c0.7-0.2,1.6,0.1,2.3-0.5c0.3-0.2,0.1-0.6-0.2-0.8C252.1,178.8,250.3,178,250,177.7
							L250,177.7z"/>
					</g>
					<g>
						<path class="st22" d="M252.6,177.4c-0.1,0.5-0.5,0.9-1,1c0,0,0,0,0,0C251.9,178.1,252.2,177.7,252.6,177.4L252.6,177.4z"/>
					</g>
					<g>
						<path class="st22" d="M253.9,179.1c-0.3,0.8-2.5,3.1-3.3,1.9c0,0,0,0,0,0c0.2,0.3,0.6,0.2,0.9,0.1
							C252.4,180.5,253.2,179.7,253.9,179.1L253.9,179.1z"/>
					</g>
					<g>
						<path class="st22" d="M251.4,181.2c0.6,1.6,1.5,0.6,2.3-0.1c0.3-0.2,0.6-0.6,0.9-0.7c-0.2,0.3-0.5,0.6-0.8,0.9
							c-0.5,0.5-1.2,1.4-2,1C251.5,182,251.3,181.5,251.4,181.2L251.4,181.2z"/>
					</g>
					<g>
						<path class="st22" d="M252.7,181.9c0.1,0.3,0.3,0.6,0.5,0.8c0.2,0.1,0.5,0,0.8-0.1c0.3,0,0.4,0,0.7-0.1l0,0
							c-0.1,0.2-0.4,0.3-0.6,0.4c-0.3,0.1-0.8,0.2-1.1,0C252.9,182.7,252.6,182.1,252.7,181.9L252.7,181.9z"/>
					</g>
				</g>
			</g>
			<g>
				<path class="st17" d="M202.2,180.4c0,0-10.2-1.2-9-1.8c1.2-0.6,9.8-3.8,11.4-4.8c1.7-1,2.8-0.8,2.8-0.8l12.1-28
					c0.2-1.6-2.8-5.6-4.2-6.4c-4-2.3-8.8-2.6-13.3-1.7c-14.6,3-37.7,13.4-45.5,20.9c0,0,34.9,33.2,46.3,31.6"/>
				<g>
					<g>
						<path class="st17" d="M154.3,155.3c7.5-3.7,15.3-7.1,23.1-10.1c6.4-2.5,12.9-4.8,19.5-6.4c2.4-0.6,4.8-1.1,7.2-1.2
							c0.6,0,0.6-0.9,0-0.9c-5,0-10.1,1.8-14.8,3.3c-7.5,2.4-14.9,5.3-22.2,8.4c-4.5,1.9-8.9,4-13.3,6.1
							C153.3,154.8,153.8,155.5,154.3,155.3L154.3,155.3z"/>
					</g>
				</g>
				<path class="st20" d="M204.2,151.2c0,0.2-0.2,0.4-0.4,0.4c-0.9,0-3-0.2-3.3,2.2c-0.3,2.4,2,3.8,3.4,3.9c0.4,0,1.3,0.1,1.6,0.4
					c0.8,0.9,1.2,2.9,1.9,5.4c1.4,5.5-2.9,8-2.9,8s14.4,7.1,14.2,0c0,0-1.1-13-1.1-13.1c1.1-1.1,5.5-1.6,2.7-10.9
					c-2.5-8.6-8.8-8-10.4-7.7C208.5,140,203.8,140.3,204.2,151.2z"/>
				<path class="st17" d="M214.3,138.9c0,0-8.8,11.6-10.3,12.6C204,151.5,198,137.3,214.3,138.9z"/>
				<g>
					<path class="st22" d="M201.5,154.5c0,0,1.4-3,3.3,1"/>
					<path class="st21" d="M212.1,151.2c1.2,0,2.2,0.9,2.2,2.1s-0.9,2.2-2.1,2.2c-1.2,0-2.2-0.9-2.2-2.1
						C210,152.2,210.9,151.2,212.1,151.2z"/>
					<path class="st21" d="M221.1,152c-1-0.2-1.7-1-1.8-2.1c0-0.8,0.4-1.5,1-1.9C220.4,148,221.3,150.4,221.1,152z"/>
					<path class="st1" d="M219.3,150.9l-3.3,1.6c0,0,1.6,1.2,2.5,0.5C219.4,152.4,219.3,150.9,219.3,150.9z"/>
					<path class="st22" d="M216.8,148.5l0.5,2.3l1.1-0.5c0.2-0.1,0.2-0.4,0.1-0.5L216.8,148.5z"/>
					<path class="st23" d="M212.6,147.6c-0.3,0.4-0.1-1,0.3-1.3c0.5-0.3,1.1-0.3,1.3,0.2C214.3,146.5,213.3,146.7,212.6,147.6z"/>
					<path class="st23" d="M218.8,145.3c0.5,0.1-0.5-0.8-1.1-0.8c-0.6,0-1,0.5-1,1C216.7,145.4,217.6,145,218.8,145.3z"/>
					<path class="st23" d="M214.5,149.4c0.2,0.4,0.4,0.6,0.6,0.6c0.2-0.1,0.2-0.5,0.1-0.9c-0.2-0.4-0.4-0.6-0.6-0.6
						C214.3,148.6,214.3,149,214.5,149.4z"/>
					<path class="st23" d="M217.5,147.9c0.2,0.4,0.4,0.6,0.6,0.5c0.2-0.1,0.2-0.4,0.1-0.8c-0.2-0.4-0.4-0.6-0.6-0.5
						C217.4,147.2,217.4,147.5,217.5,147.9z"/>
				</g>
				<path class="st23" d="M217.6,158.3c0,0-4.1,0.8-6.2,0.6C209.4,158.8,219.7,170.7,217.6,158.3z"/>
				<g>
					<g>
						<path class="st17" d="M212.9,140c0.2,2.8-1.5,5.7-3.3,7.7c-1.7,1.9-4.3,3.3-6.9,3.1c-0.6-0.1-0.5,0.8,0,0.9
							c2.8,0.3,5.7-1.3,7.5-3.3c2-2.2,3.8-5.2,3.6-8.3C213.7,139.5,212.9,139.5,212.9,140L212.9,140z"/>
					</g>
				</g>
				<g>
					<path class="st1" d="M207.4,160.7c0,1-0.8,1.9-1.9,1.9c-1,0-1.9-0.8-1.9-1.9s0.8-1.9,1.9-1.9
						C206.6,158.8,207.4,159.6,207.4,160.7z"/>
					<path class="st1" d="M207.4,164.4c0,1-0.8,1.9-1.9,1.9c-1,0-1.9-0.8-1.9-1.9s0.8-1.9,1.9-1.9
						C206.6,162.5,207.4,163.4,207.4,164.4z"/>
					<polygon class="st19" points="208.1,156.6 205.5,160.3 203.1,156.5 					"/>
				</g>
			</g>
			<g>
				<g>
					<path class="st24" d="M206.7,347.6l1.6,11.3c0,0,2.5,7.5,4.9,4.6c2.4-2.9,4.7-4.4,4.7-4.4l0.8-11.7L206.7,347.6z"/>
					<path class="st20" d="M212.9,348l0.4,15.3c0,0-7.5,1.1-4.7-3.9l-1.6-10.6L212.9,348z"/>
					<path class="st24" d="M180.9,347.9l-3.5,11.2c0,0-2.7,2.3-3.6,2.3c-1.8-0.1-2.7-3.1-2.7-3.1l-0.3-10.4H180.9z"/>
					<path class="st20" d="M175.9,344.9l-2.5,18.6c0,0-5,1.3-2.2-3.7l-0.6-14.3L175.9,344.9z"/>
					<path class="st9" d="M218.7,359l9.4,7.6c0.5,0.4,0.1,1-0.6,1l-13.9,0.1c-0.3,0-0.6-0.1-0.7-0.4l-1-2.2c-0.3-0.6-0.9-0.7-0.9,0
						l-0.5,2.1c0,0.3-3.3,0.2-3.3-0.1c-0.2-1.8,0.2-7.9,0.5-9.6c0-0.2,0.3-0.4,0.6-0.5l0,0c0.3,0,0.6,0,0.8,0.2
						c0.9,0.9,3.9,3.6,5.5,3.1c1.1-0.4,2.5-1,2.9-1.4C217.8,358.7,218.4,358.7,218.7,359z"/>
					<path class="st9" d="M171,357.9l-5.4,9c-0.6,0.9-0.3,1.9,0.8,2.5c1.7,1,3,3,4.1,3c1.9,0.1,4.9-2,6.6-2.7
						c1.2-0.5,2.1-1.2,1.9-2.2l-1.3-9c0-0.1-0.2-0.2-0.3-0.1l-2.1,1.9c-0.7,0.6-2.5,0.5-2.9-0.2c-0.3-0.5-1.1-2.2-1.1-2.2
						C171.2,357.8,171.1,357.8,171,357.9z"/>
				</g>
				<path class="st25" d="M197.3,207.8c-4.1,7.2-6.2,12.4-8.5,21.6c-2.7,10.6-27.8,100.2-29,119.5c3.3,0.8,29.2,0.7,31.3,0.6
					c6.7-19.2,15.7-81.7,18.6-93.8c0.4-1.9,3.3-1.5,3.1,0.4c-1.6,13.8-11.7,72.1-16,93.4c1.8,0.9,28.4,0.7,30.4,0.4
					c2.2-23.7,13.9-113.6-3.7-142.7C215.3,206.1,205.5,207.6,197.3,207.8z"/>
				<g>
					<path class="st26" d="M221.7,208.4c0,0,7.8,19.7,7.8,44.8c0,25.1-8.8,95.9-8.8,95.9"/>
					<line class="st26" x1="165" y1="348.7" x2="201.3" y2="209.6"/>
					<path class="st26" d="M206.3,210.3c0,0-0.2,23-10.5,21.1"/>
					<path class="st26" d="M227.7,232.5c-10.3,1.8-8.9-22.7-8.9-22.7"/>
				</g>
				<path class="st27" d="M223.5,208.6l-33.4,27.2c0,0-0.2-17.4,5.7-28.5L223.5,208.6z"/>
			</g>
			<g>
				<path class="st28" d="M221.6,170.4c-0.2,0.6,6.4,17,6.1,22.6c-0.3,5.6-0.2,13.7,0.1,14.5c0,0-8.3,4.9-32.4,1.1
					c-7.4-6.5-0.9-28.5,1.6-35.4c0,0,4.7-2.4,6.8-2.5C203.8,170.6,212.5,174.2,221.6,170.4z"/>
				<g>
					<path class="st1" d="M203.7,170.6l3.4-4.5c0,0,4.1,2.9,10.2,5l-0.1,7.9c0,0.2-0.3,0.4-0.5,0.2
						C214.8,178.2,206.3,174.4,203.7,170.6z"/>
					<path class="st1" d="M218.1,165.9c0,0,1,3.6-0.9,5.1l2.7,7.7c0.2,0.6,0.6,0.6,0.7,0.3c0.4-2,1.2-6.2,0.7-8.8L218.1,165.9z"/>
					<path class="st1" d="M219.4,179.3c0,0.6-0.2,1-0.6,1s-0.6-0.5-0.6-1c0-0.6,0.2-1,0.6-1S219.4,178.7,219.4,179.3z"/>
					<path class="st1" d="M219.7,183.8c0,0.6-0.2,1-0.6,1s-0.6-0.5-0.6-1c0-0.6,0.2-1,0.6-1S219.7,183.2,219.7,183.8z"/>
					<path class="st1" d="M219.9,188.7c0,0.6-0.2,1-0.6,1s-0.6-0.5-0.6-1c0-0.6,0.2-1,0.6-1S219.9,188.1,219.9,188.7z"/>
					<ellipse class="st1" cx="219.3" cy="194.1" rx="0.6" ry="1"/>
					<path class="st1" d="M219.9,199.5c0,0.6-0.2,1-0.6,1s-0.6-0.5-0.6-1c0-0.6,0.2-1,0.6-1S219.9,198.9,219.9,199.5z"/>
					<ellipse class="st1" cx="219.3" cy="204.9" rx="0.6" ry="1"/>
				</g>
			</g>
			<g>
				<g>
					<path class="st29" d="M201,258.8l-31.1-19.9l12.9-20.1l26.8,17.2c2.3,1.5,3,4.6,1.5,6.9L201,258.8z"/>
					<path class="st1" d="M196.2,238.6c0,2.4-1.9,4.3-4.3,4.3c-2.4,0-4.3-1.9-4.3-4.3c0-2.4,1.9-4.3,4.3-4.3
						C194.2,234.4,196.2,236.3,196.2,238.6z"/>
				</g>
				<g>
					<path class="st30" d="M190,222.8c0,0-5,2.3-1.1,16.5c0.2,0.8,0.4,1.6,0.2,2.4l-0.9,6.1c-0.1,0.7-0.2,1.5,0.3,1.9
						c0.7,0.5,4.6,4.1,5.1,4.3c1,0.3-0.1-4.5,0.1-7c0-0.5,0.1,1.6,0.2,2.5l0.1,2c1.2-0.5,1.2-2.8,1.3-3.6c0.2-1,0-1.7-0.1-1.9
						c-0.5-1.1-1.6-3.4-1.7-5.4c-0.1-1.2,0.7-5.6,1.4-13.7L190,222.8z"/>
					<path class="st20" d="M189.3,188.2c-9.3,51.9-3.3,61.7-2.6,62.1c0.8,0.5,5.1,4.5,5.6,4.7c1.1,0.4-0.1-4.9,0.1-7.7
						c0-0.5,0.1,1.8,0.2,2.8l0.1,2.2c1.3-0.6,1.3-3.1,1.5-3.9c0.3-1.1,0.1-1.9-0.1-2.1c-0.6-1.2-1.7-3.7-1.9-5.9
						c-0.1-1.3,8.7-43.4,10.2-49.6c2.1-8.4-0.5-18.1-3.5-18.4C195.3,171.8,190.1,183.9,189.3,188.2z"/>
				</g>
			</g>
		</g>
	</g>
	<g>
		<g>
			<path class="st9" d="M246.5,132.5h17.1l5.6,6.6v-15.8c0-5.1-3.1-9.2-6.9-9.2h-15.8c-3.8,0-6.9,4.1-6.9,9.2l0,0
				C239.6,128.4,242.6,132.5,246.5,132.5z"/>
			<rect x="252.6" y="120.8" class="st1" width="2.9" height="6.8"/>
			<rect x="248.5" y="123" class="st1" width="2.9" height="4.6"/>
			<rect x="257.1" y="118.8" class="st1" width="2.9" height="8.8"/>
		</g>
		<g>
			<g>
				<path class="st25" d="M438.1,174.2c0-6.6-5.3-11.9-11.9-11.9c-6.6,0-11.9,5.3-11.9,11.9c0,6.6,11.3,16.9,11.3,16.9
					S438.1,180.8,438.1,174.2z"/>
				<path class="st12" d="M425.6,191.1c0,0,12.5-10.3,12.5-16.9c0-6.6-5.3-11.9-11.9-11.9"/>
				<path class="st31" d="M422.7,185.7c0,0,1.5-12.5-0.2-11.7c-1.7,0.8-2.7,2.7-0.8,3.1c1.9,0.4,9.6,0,9.6,0s0.7-2.2-0.6-2.7
					c-1.9-0.8-1.9,6.5-2.3,11.7"/>
				<g>
					<path class="st32" d="M430.4,188.4h-9.6c-0.7,0-1.3-0.6-1.3-1.3l0,0c0-0.7,0.6-1.3,1.3-1.3h9.6c0.7,0,1.3,0.6,1.3,1.3l0,0
						C431.7,187.8,431.1,188.4,430.4,188.4z"/>
					<path class="st33" d="M425.8,194.5L425.8,194.5c-3.1,0-5.6-2.5-5.6-5.6v-1h11.1v1C431.3,192.1,428.9,194.5,425.8,194.5z"/>
				</g>
			</g>
			<g>
				<g>
					<line class="st34" x1="404.7" y1="174.3" x2="410.1" y2="174.3"/>
					<line class="st34" x1="442.6" y1="174.3" x2="448" y2="174.3"/>
				</g>
				<g>
					<line class="st34" x1="411.1" y1="159" x2="414.9" y2="162.8"/>
					<line class="st34" x1="437.8" y1="185.8" x2="441.6" y2="189.6"/>
				</g>
				<g>
					<line class="st34" x1="426.3" y1="152.7" x2="426.3" y2="158.1"/>
				</g>
				<g>
					<line class="st34" x1="441.6" y1="159" x2="437.8" y2="162.8"/>
					<line class="st34" x1="414.9" y1="185.8" x2="411.1" y2="189.6"/>
				</g>
			</g>
		</g>
	</g>
	<g>
		<g>
			<path class="st7" d="M437.2,228.4c-0.2-1.7,5.3-21.5,6.1-22.9c2.1-3.8,11.6-4.6,15.7-2c6.7,4.2,17,23.4,14.9,28.4L437.2,228.4z"
				/>
			<path class="st35" d="M457.3,217c0,0.2,0.2,0.4,0.4,0.4c0.9,0,3-0.2,3.3,2.2c0.3,2.4-2,3.8-3.4,3.9c-0.4,0-1.3,0.1-1.6,0.4
				c-0.8,0.9-1.2,2.9-1.9,5.4c-1.4,5.5,2.9,8,2.9,8s-14.4,7.1-14.3,0c0,0,1.1-13,1.1-13.1c-1.1-1.1-5.5-1.6-2.7-10.9
				c2.5-8.6,8.9-8,10.5-7.7C453,205.8,457.7,206.1,457.3,217z"/>
			<path class="st35" d="M457.7,216.8c0,0.2,0.2,0.4,0.4,0.4c0.9,0,3-0.2,3.3,2.2c0.3,2.4-2,3.8-3.4,3.9c-0.4,0-1.3,0.1-1.6,0.4
				c-0.8,0.9-1.2,2.9-1.9,5.4c-1.4,5.5,2.9,8,2.9,8s-14.4,7.1-14.3,0c0,0,1.1-13,1.1-13.1c-1.1-1.1-5.5-1.6-2.7-10.9
				c2.5-8.6,8.9-8,10.5-7.7C453.3,205.6,458,205.9,457.7,216.8z"/>
			<path class="st7" d="M448,204.2c0,0,2.7,12.4,6.1,13.7c3.7,1.4,3.4-4.5,3.8-0.6C457.9,217.3,464.7,199,448,204.2z"/>
			<g>
				<path class="st36" d="M460,220.3c0,0-1.4-3.1-3.3,1"/>
				<path class="st37" d="M449.3,217c-1.2,0-2.2,0.9-2.2,2.1c0,1.2,0.9,2.2,2.1,2.2c1.2,0,2.2-0.9,2.2-2.1
					C451.5,218.1,450.5,217.1,449.3,217z"/>
				<path class="st37" d="M440.3,217.8c1-0.2,1.7-1,1.8-2.1c0-0.8-0.4-1.5-1.1-1.9C441.1,213.9,440.1,216.3,440.3,217.8z"/>
				<polygon class="st36" points="445.2,213.4 444.3,216.6 443.2,216.1 				"/>
				<path d="M449.2,213.6c0-0.3,0.1-0.8,0-1c-0.1-0.2-0.7-0.6-0.8-0.7c-0.5-0.3-1-0.2-1,0.2c0.2,0.3,0.8,0.2,1.4,0.7
					C448.9,213.1,449,213.3,449.2,213.6z"/>
				<path d="M442.6,210.9c-0.3,0.1,0.3-0.4,0.7-0.5c0.4-0.2,0.9,0,1.1,0c0.6,0.1,0.8,0.5,0.4,0.8
					C444.3,211.6,443.7,210.6,442.6,210.9z"/>
				<path d="M447,215.2c-0.2,0.4-0.4,0.7-0.6,0.6c-0.2-0.1-0.2-0.5-0.1-0.9c0.2-0.4,0.4-0.7,0.6-0.6
					C447.1,214.4,447.2,214.8,447,215.2z"/>
				<path d="M444,213.7c-0.2,0.4-0.4,0.6-0.6,0.5c-0.2-0.1-0.2-0.4-0.1-0.8c0.2-0.4,0.4-0.6,0.6-0.5
					C444.1,213,444.1,213.4,444,213.7z"/>
				<path d="M443.9,224.2c0,0,4.1,0.8,6.2,0.7C452.1,224.7,443.2,230,443.9,224.2z"/>
				<g>
					<path class="st14" d="M442.5,216.8c0,0-0.4,1.6,0.3,1.9c1.3,0.5,2.4-0.5,2.4-0.5L442.5,216.8z"/>
				</g>
			</g>
		</g>
		<ellipse class="st38" cx="467" cy="431.6" rx="42.9" ry="2.5"/>
		<g>
			<path class="st39" d="M446.1,414l-1.5,10.6c0,0-2.4,7-4.6,4.3c-2.2-2.7-4.4-4.2-4.4-4.2l-0.7-11L446.1,414z"/>
			<path class="st37" d="M440.3,414.4l-0.4,14.4c0,0,7,1.1,4.4-3.7l1.5-10L440.3,414.4z"/>
			<path class="st39" d="M481.6,413.2l3.3,10.6c0,0,2.5,2.2,3.4,2.1c1.6-0.1,2.5-2.9,2.5-2.9l0.3-9.8H481.6z"/>
			<path class="st37" d="M486.3,410.3l2.3,17.5c0,0,4.7,1.2,2.1-3.5l0.6-13.5L486.3,410.3z"/>
			<path class="st25" d="M434.9,424.7l-8.9,7.2c-0.5,0.3-0.1,0.9,0.5,0.9l13.1,0.1c0.3,0,0.6-0.1,0.7-0.4l1-2c0.3-0.6,0.9-0.6,0.8,0
				l0.5,2c0,0.3,3.1,0.2,3.1-0.1c0.2-1.7-0.2-7.4-0.5-9c0-0.2-0.3-0.4-0.6-0.5l0,0c-0.3,0-0.6,0-0.7,0.2c-0.9,0.9-3.7,3.4-5.2,2.9
				c-1-0.3-2.3-1-2.7-1.3C435.7,424.5,435.2,424.5,434.9,424.7z"/>
			<path class="st25" d="M490.9,422.6l5,8.4c0.5,0.8,0.2,1.8-0.7,2.4c-1.6,0.9-2.9,2.8-3.9,2.8c-1.8,0-4.6-1.8-6.2-2.5
				c-1.1-0.5-1.9-1.2-1.8-2.1l1.3-8.5c0-0.1,0.2-0.1,0.3-0.1l1.9,1.8c0.6,0.6,2.4,0.5,2.8-0.2c0.3-0.5,1-2.1,1-2.1
				C490.7,422.5,490.9,422.5,490.9,422.6z"/>
		</g>
		<g>
			<path class="st7" d="M464.2,273.8c4.1,7.2,6.2,12.5,8.6,21.6c2.7,10.6,17.9,100.3,19.1,119.6c-3.3,0.8-8.4,0.4-10.5,0.3
				c-6.7-19.3-26.7-81.5-29.5-93.7c-0.4-1.9-3.3-1.5-3.1,0.4c1.6,13.9-0.9,70.2-2.2,93.6c-1.8,0.9-10.1,0.7-12.2,0.5
				c-2.2-23.8-13.9-113.8,3.8-143C446.2,272.1,456,273.5,464.2,273.8z"/>
			<path class="st40" d="M439.1,276.3c0,0-7.2,17.8-7.2,42.9s4.7,88.9,4.7,88.9"/>
			<line class="st40" x1="486" y1="407.8" x2="460.2" y2="275.5"/>
			<path class="st40" d="M455.2,276.2c0,0,0.2,23,10.6,21.2"/>
			<path class="st41" d="M438.2,276.8l33.2,25c0,0,1.4-13.5-4.5-24.6L438.2,276.8z"/>
			<path class="st40" d="M433.7,298.5c10.3,1.8,8.7-21.1,8.7-21.1"/>
		</g>
		<line class="st40" x1="446.8" y1="408.5" x2="433.3" y2="408.2"/>
		<line class="st40" x1="491.2" y1="408.5" x2="479.1" y2="408.1"/>
		<g>
			<path class="st35" d="M402.3,260.6c0,0,30.9,20.6,34.4,15.4c0,0,4-5.9-4.6-20.6c-0.6-1.5-1-2.6-1-2.8c0,0,9.2-12.4,10.6-16.5
				c0.1-0.5,0.7-1.4,0.6-1.4c-8.5,1-8.6,20.8-16.8,28c-0.3,0.3-20.3-8.5-20.3-8.5s-11.7-7.4-12-6.6c-0.5,1.2,4.3,4.6,4.3,4.6
				s0,0.6-0.5,1.1c-0.5,0.5-0.7,1-0.6,1.9c0.1,0.9-0.5,1.6-0.5,2.1C395.9,257.6,400.1,260,402.3,260.6z"/>
			<path class="st35" d="M404.9,254.1c0,0-3.3-3.9-3.9-3.5c-0.6,0.4-3,2.7-2.5,3.8c0.5,1.1,2.6-0.8,2.6-0.8s0.5,2.7,1.9,2.5
				C404.3,256,404.9,254.1,404.9,254.1z"/>
			<g>
				<path class="st37" d="M400.3,253.7c0,0,0.5,1.1-0.4,1.6c0,0,0.2,1.3-1,1.4c0,0,0.5,0.4-0.1,0.8
					C398.7,257.6,403.1,259.8,400.3,253.7z"/>
				<g>
					<path class="st36" d="M400.1,251.3c-0.6,0.9-1.3,1.7-1.9,2.5c-0.5,0.9,1.4,0.5,1.9,0.3c0.2,0,0.3-0.2,0.7-0.1
						c0.2,0.1,0.2,0.3,0.2,0.4c0,0.2,0.1,1.1,0.1,1.3c-0.1,0.1-0.2-1.1-0.2-1c0-0.2,0-0.4-0.2-0.5c-0.8,0.1-1.6,0.7-2.6,0.3
						c-0.4-0.1-0.4-0.6-0.2-0.9C398.3,253.1,399.6,251.8,400.1,251.3C400,251.3,400.1,251.3,400.1,251.3L400.1,251.3z"/>
				</g>
				<g>
					<path class="st36" d="M397.3,251.9c0.6-0.1,1.1,0.1,1.4,0.6C398.3,252.5,397.7,252.2,397.3,251.9
						C397.3,252,397.3,251.9,397.3,251.9L397.3,251.9z"/>
				</g>
				<g>
					<path class="st36" d="M396.6,254.1c1.2,0.2,2.4,0.9,3.6,1c0.2,0,0.3-0.1,0.4-0.2l0,0c-0.1,0.4-0.6,0.5-0.9,0.4
						C398.6,255.1,397.4,254.7,396.6,254.1L396.6,254.1z"/>
				</g>
				<g>
					<path class="st36" d="M400,255.3c0.8,2.1-1.4,2.1-2.6,1.1c-0.3-0.2-0.8-0.5-1-0.8c0.4,0.2,0.7,0.4,1.1,0.6
						C398.8,256.9,400.3,257.3,400,255.3L400,255.3z"/>
				</g>
				<g>
					<path class="st36" d="M398.9,256.5c0.8,1.3-0.2,2.1-1.5,1.7c-0.1,0-0.4-0.2-0.3-0.3c0.2,0.1,0.5,0.1,0.7,0.1
						c0.4,0,0.8-0.1,1-0.4C399,257.3,398.9,256.8,398.9,256.5L398.9,256.5z"/>
				</g>
			</g>
		</g>
		<path class="st1" d="M442.4,233.4c0,0-4.2,0.6-7,6.1c-2.3,4.4-10.8,22.5-10.8,22.5l-16.9-7.3l-1.5,10.6c0,0,26.1,15.7,30.6,12.2
			C441.2,274.1,444.5,239,442.4,233.4z"/>
		<g>
			<path class="st1" d="M443.1,233.1c0.2,0.6-9.6,20.2-9.4,25.8c0.3,5.6,4.1,15.1,3.8,16c0,0,4.4,3.4,28.5-0.3
				c7.4-6.5,0.9-28.5-1.6-35.5c0,0-6.6-0.9-9.3-4.3C455.1,234.7,444.4,243,443.1,233.1z"/>
		</g>
		<g class="st42">
			<path class="st43" d="M466.4,244.9c2.7,9.4,5.6,24.5-0.3,29.6c-15.2,2.4-22.6,1.9-25.9,1.2C449.1,265.6,458,255.4,466.4,244.9z"
				/>
		</g>
		<g>
			<path class="st19" d="M447,278.4l-14.6-17.8l-15.5,0.1l11.9,16.4l7,1C436.3,278.1,447,278.4,447,278.4z"/>
			<polygon class="st44" points="438.6,268.1 438.6,270.7 442.1,272 			"/>
		</g>
		<path class="st35" d="M453.7,281.9c-12.1-2.6-19.5-5.4-20.9-5.9c-0.8-0.3-3.1-1.3-3.1-1.7c0-0.8,4.6,1.3,4.5,1.1
			c-0.2-0.2-5.7-2-5.7-2.7c0-1,6.1,1.2,6.2,1.2c1.6,0.5-5.9-1.8-6.1-2.5c-0.2-0.7,3.3,0.2,3.5,0.2c0,0,2.9,0.9,3.1,0.7
			c0.1-0.2-5.8-3.7-5.2-4.1c0.6-0.4,5.1,1.7,6.2,2.1c1.1,0.4,2.7,0.6,3.1,0.3c0.3-0.2,0-1.9-0.7-2.6c0,0,2.7,1.2,3.9,2.6
			c0.7,0.7,1.3,1.8,1.3,1.8l10.1,2L453.7,281.9z"/>
		<path class="st1" d="M459.5,246.2c0,0-1.4-9.3,3.3-8.5c8,1.3,17.2,19.6,13.7,44c-1.1,7.9-33.2,0.2-33.2,0.2l2.1-11.6l16.8,2.8
			L459.5,246.2z"/>
	</g>
	<g>
		<g>
			<path class="st45" d="M510.8,240.5c0,1.6,1.3,2.9,2.9,2.9s2.9-1.3,2.9-2.9s-1.3-2.9-2.9-2.9S510.8,238.9,510.8,240.5z"/>
			<circle class="st45" cx="521" cy="228" r="5.7"/>
			<path class="st23" d="M516.3,231.5l-3.1-1.1c-0.3-0.1-0.3-0.5,0-0.6l6.8-2.1c0.3-0.1,0.5,0.2,0.4,0.4l-2.3,6.8
				c-0.1,0.3-0.5,0.3-0.6,0l-1-3.2C516.5,231.6,516.4,231.5,516.3,231.5z"/>
		</g>
		<g>
			<g>
				<path class="st20" d="M493.2,255.5c-0.4,0.1,4.1,6.5,9.9,9.9c0,0,26.5,24.8,31.4,23c4.8-1.8,26.7-49.5,14.7-51.6
					c0,0-3.1-2.3-5.3,0.6c-2.2,2.8-8.7,6.4-19,30c0,0-14.8-7.7-16.5-8.5c0,0-3.4-8.2-4-6.8c-0.6,1.3,0.8,4.9,0.8,4.9
					s-8.5-6.5-9.7-5.9C494.3,251.5,493.2,255.5,493.2,255.5z"/>
				<path class="st24" d="M529.5,258.7c7.2-13.9,12.6-19.2,14.3-21.5c2.2-2.8,5.3-0.6,5.3-0.6c8,1.4,0.8,23.3-6.2,38.1
					C538.7,269.2,534.3,263.8,529.5,258.7z"/>
				<path class="st25" d="M535.4,240c0,0,4.6-13,13.7-7.6c9.1,5.5,2.6,32.2-2.4,37.7l-20.2-11.1L535.4,240z"/>
				<path class="st46" d="M533.4,244.4c1.5-1.3,3.4-3.2,5.3-2.7c0.9,0.2,1.7,0.6,2.2,1.3c1.1,1.3,0.9,3.4,0.1,4.9
					c-0.8,1.5-2.1,2.8-3.2,4.1c-2.4,3-3.8,6.7-4,10.5"/>
				<path class="st47" d="M546.5,269.9c3.3-0.6,8.6-21.4,6.6-25.1c0,0-10-5.9-10.6-5.3C536,246.3,546.5,269.9,546.5,269.9z"/>
			</g>
			<g>
				<g>
					<path class="st38" d="M526.6,431c0-1.6,22.8-2.9,50.9-2.9c28.1,0,50.9,1.3,50.9,2.9c0,1.6-22.8,2.9-50.9,2.9
						C549.4,433.9,526.6,432.6,526.6,431z"/>
					<g>
						<polygon class="st20" points="534.6,422.5 534.7,412.8 544.1,413.5 543.8,422.8 539.5,430.4 531.6,424.4 						"/>
						<path class="st24" d="M535.5,413l7.2,15.3c0,0-1.4-2.4,1.4-4.9l0-10.3H535.5z"/>
						<g>
							<path class="st17" d="M533.1,421.8c0,0,2.5,2.8,5.6,5.2c1.9,1.4,4.7-4.7,5.6-5.4c0.2-0.2,0.4,0,0.5,0.3l1.1,10h-27.6
								c-0.3,0-0.7-0.3-0.6-0.8C519.1,423.7,533.1,421.8,533.1,421.8z"/>
						</g>
						<g>
							<path class="st48" d="M529.7,430.1c0,0-1.1-5.1-4.7-6.1c0,0-5.7,1.9-7.1,6.2h27.6"/>
							<line class="st48" x1="544.9" y1="423.9" x2="539.2" y2="430.2"/>
						</g>
					</g>
					<g>
						<polygon class="st20" points="578.9,423.8 576,414.4 586.1,414.1 588.2,423.9 584.5,430.4 576.7,424.4 						"/>
						<path class="st24" d="M578.2,414.4l8.3,11.5c0,0-0.1,0.4,2.7-2.2l-3.2-9.7L578.2,414.4z"/>
						<g>
							<path class="st17" d="M577.6,423.1c0,0,2.5,2.8,5.6,5.2c1.9,1.4,4.7-4.7,5.6-5.4c0.2-0.2,0.4,0,0.5,0.3l1.1,10h-27.6
								c-0.3,0-0.7-0.3-0.6-0.8C563.6,424.9,577.6,423.1,577.6,423.1z"/>
						</g>
						<g>
							<path class="st48" d="M574.2,431.3c0,0-1.1-5.1-4.7-6.1c0,0-5.7,1.9-7.1,6.2H590"/>
							<line class="st48" x1="589.4" y1="425.1" x2="583.7" y2="431.4"/>
						</g>
					</g>
					<g>
						<path class="st8" d="M534.5,301.8c0,0-3.6,42.5-3.9,54.3c-0.3,11.7,2.7,57.6,2.7,57.6l11.9,0c0,0,12.6-81.1,26.9-109.4
							L534.5,301.8z"/>
						<polyline class="st49" points="539.4,406.4 541.3,352.6 549.6,321.1 						"/>
						<polygon class="st25" points="546.7,414 533,413.7 532.1,405.9 548,405.9 						"/>
					</g>
					<g>
						<path class="st17" d="M534.5,301.8c0,0,8.2,35.4,16.6,60.5c6.7,20.3,24.6,52.3,24.6,52.3l11.9-0.5l-12.7-51.1
							c-0.8-3-1.3-6.1-1.4-9.2c-0.7-11.8,1.7-35.6,2.7-50.8L534.5,301.8z"/>
						<path class="st49" d="M581.1,406.7c0.3-0.8-16.4-49.3-16.4-55.5c0-6.2,0.3-27.5,0.3-27.5"/>
						<polygon class="st25" points="588.9,414 575.7,414.6 571.2,407.2 587.9,406.4 						"/>
					</g>
					<g>
						<path class="st25" d="M566.6,227.9c0,0,18.6,1.9,19.7,17.3c1.2,15.4-6.6,79.1-6.6,79.1l-50.6-3.2l4.8-72.3
							c0.2-3.9,1.4-7.7,3.5-11c1.9-3,4.2-6.5,5.5-6.6l20.8-5.4L566.6,227.9z"/>
						<path class="st25" d="M570.9,229.6c12.4,1.9,14.9,7.9,15.4,15.6c1.2,15.4-6.6,78.6-6.6,78.6l-50.1-2.7"/>
						<g>
							<defs>
								<path id="SVGID_1_" d="M566.6,227.9c0,0,18.6,1.9,19.7,17.3c1.2,15.4-6.6,79.1-6.6,79.1l-50.6-3.2l4.8-72.3
									c0.2-3.9,1.4-7.7,3.5-11c1.9-3,4.2-6.5,5.5-6.6l20.8-5.4L566.6,227.9z"/>
							</defs>
							<clipPath id="SVGID_00000042701779063990181290000016458987133408716198_">
								<use xlink:href="#SVGID_1_"  style="overflow:visible;"/>
							</clipPath>
							<g style="clip-path:url(#SVGID_00000042701779063990181290000016458987133408716198_);">
								<path class="st46" d="M561.8,230.9c-1.2,3.9-2.8,7.8-4.6,11.5c-2.5,5-5.9,10-11.2,11.7c-2.3,0.7-4.7,0.8-7,1.4
									c-2.3,0.6-4.7,1.9-5.5,4.1"/>
								<g>
									<path class="st46" d="M585.3,294c-4.8-0.6-10.5-0.8-13.3,3.2c-2.2,3.1-1.4,7.4-3.2,10.8c-2.3,4.4-7.8,5.5-12.2,7.9
										c-6.3,3.4-10.6,10.2-11,17.3"/>
									<path class="st46" d="M532.3,320c7.9-3,15.9-8.1,18.7-16.1c0.2-0.5,0.3-1,0.2-1.5c-0.1-0.5-0.6-0.8-1-1.1
										c-2.6-1.8-5.9-2.2-8.4-4.1c-1-0.8-1.8-1.7-2.8-2.5c-3.3-2.6-8.4-2.5-11.6,0.2"/>
									<path class="st46" d="M532.3,263.5c4.3,0.5,8.3,3.4,10.1,7.3c2.9,6.3,0.4,14.3,3.9,20.4c3.4,5.8,12.4,7.3,17.4,2.7
										c2-1.9,3.4-4.5,5.9-5.8c4.4-2.4,11,0.2,14.3-3.6"/>
								</g>
							</g>
						</g>
					</g>
					<g>
						<path class="st20" d="M560.8,214l5.4,14.5l-4,2c-6.2,2.3-11.8,0.8-12.7-1.7l0,0l0.8-8.6l8.7-7.9c0,0,1.3,1,1.5,1.3
							C560.7,213.9,560.8,214,560.8,214z"/>
						<path class="st24" d="M559,212.3l-8.7,7.9l-0.3,3.1c0,0,7.3,1.7,10-9.8"/>
					</g>
					<g>
						<g>
							<path class="st38" d="M543.8,286.1l-17-30.8c-0.9-1.7-2.5-2.8-4.3-3.2l-38.5-2.6c-0.7-0.1-1.2,0.6-0.8,1.2l16.3,29.2
								c0.9,1.6,2.3,2.7,4.1,3.1l39.4,4.3C543.6,287.5,544.1,286.8,543.8,286.1z"/>
							<path class="st17" d="M542.4,288.3l-15.4-29.5c-0.9-1.7-3.5-3.2-5.3-3.6l-40.8-2.6c-0.7-0.1-1.2,0.6-0.8,1.2l16.3,29.2
								c0.9,1.6,2.3,2.7,4.1,3.1l41,3.3C542.2,289.7,542.8,289,542.4,288.3z"/>
							<polygon class="st51" points="533.3,267 525.4,269.8 535.9,271.8 							"/>
							<polygon class="st14" points="534.8,282 498.3,279.9 500.3,283.7 537.3,286 							"/>
						</g>
						<path class="st20" d="M533.6,279.1c1.3,0.8,16.6,14,28.9,20c3.4,1.7,7.8-2.2,9-5.7l11.4-30l-18.5-9.4
							c-0.1,0.2-3.3,18.8-6,25.3c-1,2.3-0.4,2-2.5,1.2l-16.7-8.5c0,0-1.4-1.3-1.9-2.2c-1-1.7-4.4-3.6-4.4-3.6l2,3.7
							c0.4,0.6-0.1,0.8-1.3,0.2l-8.3-3.5c0,0-1.9-0.4-0.9,0.4c1,0.8,4.3,2.8,4.4,2.9c2.1,1.1-5.5-2.4-5.4-1.7c0,0.7,4.4,3.2,4.3,3.3
							c-0.1,0.1-4.7-2.1-4.8-1.4c0,0.7,4.1,2.7,4.3,2.7c0.3,0-3.3-1.9-3.4-1.5C523.7,271.5,532.8,278.6,533.6,279.1z"/>
						<path class="st24" d="M561.8,266.9c1.4-6.5,2.5-12.7,2.6-12.8l18.5,9.4l-7.2,19C571.1,277.1,566.5,271.9,561.8,266.9z"/>
						<path class="st24" d="M563.9,294.5c1.7-1.1,5.8-2.4,7.3-0.3c-1.5,3.3-5.6,6.5-8.7,5c-0.5-0.2-1-0.5-1.4-0.7
							C561.4,296.8,562.3,295.5,563.9,294.5z"/>
						<g>
							<defs>
								<path id="SVGID_00000026121528371058028550000017944844281470697918_" d="M566.1,240.5c0,0,2.1-13.8,12-10.1
									c9.9,3.7,9.7,45,5.8,51.4l-28.4-13.7L566.1,240.5z"/>
							</defs>
							<use xlink:href="#SVGID_00000026121528371058028550000017944844281470697918_"  style="overflow:visible;fill:#1B7CCC;"/>
							<clipPath id="SVGID_00000056406607532782767810000007453158886965149831_">
								<use xlink:href="#SVGID_00000026121528371058028550000017944844281470697918_"  style="overflow:visible;"/>
							</clipPath>
							<g style="clip-path:url(#SVGID_00000056406607532782767810000007453158886965149831_);">
								<path class="st46" d="M569.3,230.8c-0.9,7.7,0.1,15.8,4.2,22.4c4.1,6.6,11.7,11.2,19.4,10.4"/>
								<path class="st46" d="M563.8,249.8c1.8,0.9,3.3,2.1,4.7,3.5c0.5,0.5,0.9,1.1,1.1,1.8c0.5,2.1-2.1,3.7-2.5,5.9
									c-0.3,1.5,0.6,2.9,1.6,4c1.1,1.1,2.3,1.9,3.3,3c2.5,2.9,2.3,7.8-0.5,10.5"/>
								<path class="st46" d="M586.2,271.9c-1.2-0.9-3-1-4.2-0.1c-2.2,1.5-2,4.7-3,7.2"/>
							</g>
						</g>
					</g>
					<g>
						<path class="st17" d="M543.8,199c-0.2,2.8,2.2,1.7,2.2,1.7c6,3.9,13.7,10.6,13.7,10.6s2.8-0.5,2.8-1.2
							c0.1-5.4-0.2-11.9-0.2-11.9s1.7-1.2,1.5-3.1c0,0-0.6-2.3-2.5-1.9c0,0,0.4-1.4-0.6-2.1c-1-0.7-1.9,0.2-1.9,0.2
							s-0.1-2.6-2.8-3.2c-2.7-0.6-3.8,1.9-3.8,1.9s-0.5-1.4-1.3-1.3c-0.8,0.1-1.1,1.4-1.1,1.4s-0.2-2.1-2.6-1.8
							c-2.4,0.3-2.6,3.2-2.6,3.2s-0.1-0.9-1.2-0.7c-1.5,0.2-2.3,2-0.9,3.7c0,0-1.1,0.7-1,2.3C541.6,198.2,543.8,199,543.8,199z"/>
						<path class="st20" d="M559.9,209.4c0.1,0.3,0.4,0.4,0.7,0.2c0.7-0.7,2.1-1.6,2.6,1.1c0.7,3.8-3.2,3.1-3.5,3.6
							c-0.6,1-2.7,4.5-5.7,5.8c-1.8,0.8-4.6,0.9-6.6-1c-2-1.9-3.1,0.3-2.3-20.3c0,0,0.5,1.7,2.5,1.3c1.4-0.3,2.5-1.4,4-1.9
							c1.2-0.3,4.6-1.2,6.1,3.1C558.2,203.2,559.2,207.8,559.9,209.4z"/>
						<g>
							<path class="st1" d="M545.3,212.7c0,0,1.2,0.6,4.2,0.3c0,0-1.6,2.2-2.8,1.7C545.6,214.3,545.3,212.7,545.3,212.7z"/>
							<path class="st24" d="M562.5,210.4l-2.1,1.6C560.5,211.9,561.2,208.2,562.5,210.4z"/>
							<path class="st53" d="M547.7,208.3c0,0.5,0.2,0.8,0.4,0.8c0.2,0,0.4-0.4,0.4-0.8c0-0.5-0.2-0.8-0.4-0.8
								C547.9,207.5,547.7,207.8,547.7,208.3z"/>
							<path class="st53" d="M545.1,207.9c0,0.5,0.2,0.8,0.4,0.8c0.2,0,0.4-0.4,0.4-0.8s-0.2-0.8-0.4-0.8
								C545.3,207.1,545.1,207.4,545.1,207.9z"/>
							<path class="st53" d="M551.1,204.8c0.6,0.4-0.3-1.5-1.1-1.7c-0.8-0.2-1.6,0.2-1.8,0.9C548.2,204,549.7,203.8,551.1,204.8z"/>
							<path class="st53" d="M545,204.6c0.8-0.1,1.5,0,1.5,0c-0.1-0.7-0.7-1.1-1.5-1.2"/>
							<path class="st24" d="M546.4,207.9l-1.2,3.5c0,0.1,0,0.1,0.1,0.1l1.4,0.1c0,0,0.1,0,0.1-0.1l-0.2-3.6
								C546.5,207.8,546.4,207.8,546.4,207.9z"/>
						</g>
					</g>
				</g>
			</g>
		</g>
	</g>
</g>
<g>
	<rect x="233.5" y="-325.4" class="st54" width="59.2" height="50"/>
	<rect x="307" y="-325.4" class="st9" width="59.2" height="50"/>
	<rect x="380.5" y="-325.4" class="st55" width="59.2" height="50"/>
	<rect x="453" y="-325.4" class="st56" width="59.2" height="50"/>
	<rect x="528.6" y="-325.4" class="st57" width="59.2" height="50"/>
	<rect x="233.5" y="-270" class="st28" width="59.2" height="50"/>
	<rect x="307" y="-267.6" class="st25" width="59.2" height="50"/>
	<rect x="380.5" y="-267.6" class="st12" width="59.2" height="50"/>
</g>
</svg>
