<?xml version="1.0" encoding="utf-8"?>
<!-- Generator: Adobe Illustrator 26.3.1, SVG Export Plug-In . SVG Version: 6.00 Build 0)  -->
<svg version="1.1" id="Layer_1" xmlns="http://www.w3.org/2000/svg" xmlns:xlink="http://www.w3.org/1999/xlink" x="0px" y="0px"
	 viewBox="0 0 300.2 285.8" style="enable-background:new 0 0 300.2 285.8;" xml:space="preserve">
<g>
	<g>
		<g>
			<path style="fill:#97A6B7;" d="M184.2,61.1h-7.7c-0.5-5.1-1.7-9.9-3.6-14.5l6.5-3.8c1.8-1,2.4-3.3,1.4-5.2l-2.7-4.9
				c-1-1.8-3.3-2.5-5.1-1.5l-6.4,3.6c-3-4.2-6.5-7.9-10.6-11.2l3.7-6.3c1.1-1.8,0.4-4.2-1.4-5.3l-4.9-3c-1.9-1.1-4.2-0.6-5.3,1.2
				l-3.7,6.3c-4.7-2.2-9.9-3.8-15.3-4.7V4.4c0-2.2-1.8-4-4-4.2l-6-0.3c-2.3-0.1-4.1,1.6-4.1,3.8v7.5c-5.6,0.5-10.9,1.7-16,3.7
				l-4-6.8c-1.2-2-3.8-2.8-5.8-1.7l-5.5,2.8c-2.1,1.1-2.8,3.6-1.6,5.6l4.1,6.9c-4.5,3.2-8.6,7-12,11.4l-7.5-4.2
				c-2.1-1.2-4.8-0.6-6.1,1.4l-3.3,5.3c-1.2,2-0.5,4.6,1.6,5.7l7.7,4.3c-2.1,4.9-3.6,10.2-4.2,15.8h-9.3c-2.5,0-4.5,1.9-4.5,4.2v6.2
				c0,2.3,2,4.2,4.5,4.2l9.5-0.1c0.8,5.4,2.4,10.5,4.6,15.3L58.8,96c-2.1,1.2-2.9,3.8-1.6,5.8l3.3,5.2c1.2,2,3.9,2.5,6.1,1.3
				l8.5-4.9c3.4,4,7.3,7.5,11.7,10.5l-4.9,8.3c-1.2,2-0.5,4.5,1.6,5.5l5.5,2.7c2,1,4.6,0.2,5.8-1.8l4.9-8.3
				c4.8,1.7,9.9,2.8,15.1,3.1v9.3c0,2.2,1.8,3.9,4.1,3.8l6-0.4c2.2-0.1,4-2,4-4.2v-9.2c5.1-0.9,9.9-2.4,14.5-4.5l4.5,7.6
				c1.1,1.8,3.5,2.3,5.3,1.1l4.9-3.1c1.8-1.2,2.5-3.6,1.4-5.4l-4.4-7.5c3.9-3.1,7.4-6.7,10.4-10.6l7.3,4c1.8,1,4.1,0.3,5.1-1.6
				l2.7-4.9c1-1.9,0.4-4.2-1.4-5.2l-7.1-4c1.9-4.5,3.2-9.3,3.9-14.2l7.9-0.1c2,0,3.7-1.7,3.7-3.8v-5.6
				C187.9,62.8,186.2,61.1,184.2,61.1z M122.1,106.9c-22.7,0.8-41.7-16.8-41.7-39.4s19-40.5,41.7-39.9c21.9,0.5,39.2,18.2,39.2,39.4
				C161.3,88.2,144,106.1,122.1,106.9z"/>
			<polygon style="fill:#97A6B7;" points="96.7,6.2 91.3,6 89.4,10.9 			"/>
			<polygon style="fill:#97A6B7;" points="150.9,8.5 157.2,8.5 157.2,13.2 			"/>
			<polygon style="fill:#97A6B7;" points="174.9,30.9 181.2,31.1 179.6,34.6 			"/>
			<polygon style="fill:#97A6B7;" points="184.8,61.2 191.1,61.7 189,64.8 			"/>
			<polygon style="fill:#97A6B7;" points="174.2,104.7 180.4,105.6 181.1,100.6 			"/>
			<polygon style="fill:#97A6B7;" points="150.7,127.4 156.2,128.4 156.6,124.3 			"/>
			<polygon style="fill:#97A6B7;" points="123,137.2 118.1,136.3 122.3,130 			"/>
			<polygon style="fill:#97A6B7;" points="96.1,131.8 90.4,130.7 94.8,125.3 			"/>
			<polygon style="fill:#97A6B7;" points="63.7,28.4 69.7,28.5 67.3,32.9 			"/>
			<polygon style="fill:#97A6B7;" points="51.7,75.6 57.2,76.5 56.8,71.9 			"/>
			<polygon style="fill:#97A6B7;" points="63.6,108.7 69,109.6 69.4,106 			"/>
		</g>
		<path style="fill:#D8DEE8;" d="M190.4,61.6h-7.7c-0.5-5.1-1.8-10-3.6-14.6l6.5-3.8c1.8-1,2.4-3.4,1.4-5.2l-2.7-4.9
			c-1-1.9-3.3-2.5-5.1-1.5l-6.5,3.7c-3-4.2-6.6-8-10.7-11.3l3.7-6.4c1.1-1.8,0.4-4.2-1.4-5.4l-4.9-3.1c-1.9-1.2-4.3-0.6-5.4,1.2
			l-3.7,6.3c-4.8-2.2-10-3.8-15.4-4.7V4.5c0-2.2-1.8-4.1-4.1-4.2l-6-0.3c-2.3-0.1-4.1,1.6-4.1,3.9v7.6c-5.6,0.5-11,1.7-16.1,3.7
			l-4-6.8c-1.2-2-3.8-2.8-5.9-1.7l-5.5,2.8c-2.1,1.1-2.8,3.6-1.6,5.6l4.2,7c-4.6,3.2-8.6,7.1-12.1,11.4l-7.5-4.3
			c-2.1-1.2-4.9-0.6-6.1,1.4l-3.3,5.3c-1.2,2-0.5,4.6,1.7,5.8l7.8,4.3c-2.2,5-3.6,10.3-4.3,15.9h-9.3c-2.5,0-4.6,1.9-4.6,4.3v6.2
			c0,2.3,2,4.2,4.6,4.2l9.6-0.1c0.8,5.4,2.4,10.6,4.7,15.4l-8.5,4.8c-2.2,1.2-2.9,3.8-1.7,5.8l3.3,5.3c1.2,2,4,2.6,6.1,1.3l8.6-5
			c3.4,4,7.4,7.6,11.8,10.6l-4.9,8.4c-1.2,2-0.5,4.5,1.6,5.6l5.5,2.7c2.1,1,4.7,0.2,5.9-1.8l4.9-8.4c4.8,1.7,10,2.8,15.3,3.2v9.4
			c0,2.2,1.9,3.9,4.1,3.8l6-0.4c2.2-0.1,4.1-2,4.1-4.2v-9.3c5.1-0.9,10-2.4,14.6-4.5l4.5,7.6c1.1,1.8,3.5,2.3,5.4,1.2l4.9-3.1
			c1.8-1.2,2.5-3.6,1.4-5.4l-4.4-7.5c3.9-3.1,7.5-6.7,10.5-10.7l7.4,4.1c1.8,1,4.1,0.3,5.1-1.6l2.7-5c1-1.9,0.4-4.2-1.4-5.2l-7.1-4
			c1.9-4.5,3.3-9.3,4-14.3l7.9-0.1c2,0,3.7-1.8,3.7-3.9v-5.6C194.1,63.3,192.5,61.6,190.4,61.6z M127.8,107.8
			c-22.9,0.8-42-16.9-42-39.7s19.2-40.8,42-40.2c22.1,0.5,39.5,18.3,39.5,39.7S149.9,107,127.8,107.8z"/>
	</g>
	<g>
		<g>
			<path style="fill:#0F5BA7;" d="M300.2,258.6L3.2,256v7.7c0,2.1,1.3,3.8,3.1,4.2l84,15.1c1,0.2,2,0.2,3,0.1L297,265.8
				c1.8-0.2,3.2-1.9,3.2-4.1V258.6z"/>
			<g>
				<path style="fill:#97A6B7;" d="M204.6,246.2l-198.1,14c-3.5,0.3-6.4-2.4-6.4-5.9V112.6c0-3.5,2.9-6.4,6.4-6.4h198.1
					c2.9,0,5.3,2.6,5.3,5.8v128C209.9,243.2,207.5,246,204.6,246.2z"/>
				<path style="fill:#0F5BA7;" d="M207.7,246.2l-198.1,14c-3.5,0.3-6.4-2.4-6.4-5.9V112.6c0-3.5,2.9-6.4,6.4-6.4h198.1
					c2.9,0,5.3,2.6,5.3,5.8v128C213,243.2,210.7,246,207.7,246.2z"/>
				<path style="fill:#1B76C1;" d="M201.6,237.1L17,249.3c-2.9,0.2-5.2-2-5.2-4.9v-124c0-2.9,2.3-5.2,5.2-5.2l184.6-0.8
					c2.4,0,4.4,2.1,4.4,4.7v113C205.9,234.7,204,237,201.6,237.1z"/>
				<path style="fill:#FFFFFF;" d="M115.7,110c0,1.3-1,2.4-2.3,2.4s-2.3-1.1-2.3-2.4s1-2.4,2.3-2.4
					C114.6,107.7,115.7,108.7,115.7,110z"/>
				<path style="fill:#0F5BA7;" d="M160,207.3c-15.3-8.2-27.3,2.2-38.9-8.1c-7-6.2-3.6-10.9-12.2-20.2c-9.6-10.3-15.8-6.8-25.4-16.1
					c-12.2-11.7-6.1-20.9-16.6-29.3c-12.7-10.2-26.4-0.8-38.5-10.6c-5.2-4.2-8.1-10.4-9.6-16.9H6.9c-2.1,0-3.8,1.7-3.8,3.8v146.8
					c0,2.1,1.7,3.6,3.8,3.5l201.9-14.3c1-0.1,1.9-0.6,2.4-1.5c-14.8-0.5-23.9-5.5-29.7-10.6C170.3,223.8,172.2,213.9,160,207.3z"/>
			</g>
			<path style="fill:#D8DEE8;" d="M202.8,245.5L3.2,260.3l87,15.6c1,0.2,2,0.2,3,0.1l207-17.5L206,245.6
				C204.9,245.5,203.9,245.5,202.8,245.5z"/>
			<polygon style="opacity:0.3;fill:#D8DEE8;enable-background:new    ;" points="32.3,260.6 198.5,248.2 249.9,255.2 85.2,268.5 
							"/>
		</g>
		<g>
			<polygon style="fill:#D8DEE8;" points="201.1,149.7 16.5,152.5 16.5,118.9 201.1,118.9 			"/>
			<polygon style="fill:#D8DEE8;" points="142.5,209.5 25.6,214.6 25.6,158.3 142.5,156.2 			"/>
			<polygon style="fill:#D8DEE8;" points="193.4,170.9 149.4,172 149.4,156.1 193.4,155.3 			"/>
			<polygon style="fill:#D8DEE8;" points="193.4,207.3 149.4,209.2 149.4,177.7 193.4,176.4 			"/>
			<polygon style="fill:#D8DEE8;" points="193.4,214.4 25.6,222.3 25.6,235.7 193.4,226.8 			"/>
		</g>
	</g>
	<g>
		<path style="fill:#422C6C;" d="M97,242c-3.9,0.1-7.7-0.9-10.9-2.8c-10-6-24.8-15.9-38-28.8c-16.9-16.4-26.5-33.1-28.7-49.5v-0.3
			l-0.4-70c0-13.8,9-25.1,26-32.4c14-6.1,32.5-9.1,52.1-8.5c19.4,0.6,37.3,4.6,50.5,11.2c15.8,7.9,24,19,24,32.2l-0.4,66.9v0.2
			c-1.9,15.7-10.8,31.9-26.6,48.3c-12.6,13.2-26.9,23.6-36.7,30.1C104.7,240.7,100.9,241.9,97,242z"/>
		<path style="fill:#583D99;" d="M100.9,242c-3.8,0.1-7.6-0.9-10.8-2.8c-9.9-6-24.4-15.9-37.5-28.8C36,194,26.4,177.3,24.3,160.9
			v-0.3l-0.4-70c0-13.8,8.9-25.1,25.6-32.4c13.8-6.1,32.1-9.1,51.4-8.5c19.1,0.6,36.8,4.6,49.9,11.2c15.6,7.9,23.7,19,23.7,32.2
			l-0.4,66.9v0.2c-1.9,15.7-10.7,31.9-26.2,48.3c-12.5,13.2-26.5,23.6-36.2,30.1C108.4,240.7,104.7,241.9,100.9,242z"/>
		<path style="fill:#07E0CB;" d="M28.5,90.6l0.4,69.6c4.6,35.5,46.3,64.3,64.5,75.2c5.2,3.1,11.9,2.9,17-0.5
			c17.8-11.7,57.3-41.2,61.5-75.4l0.4-66.7C172.3,43.5,28.5,39,28.5,90.6z"/>
		<path style="fill:#119093;" d="M101.9,224.7c-0.3,0-0.8,0-1.3-0.4c-7.5-4.5-22-14-34.6-26.4c-13.6-13.4-21.5-26.4-23.3-38.7
			l-0.4-68.5c0-6.6,5.2-12.2,15.4-16.7c11.4-5,27.5-7.7,44.3-7.3c16.6,0.4,32.2,3.7,43.1,9.1c9.6,4.8,14.5,10.4,14.5,16.7l-0.4,66.1
			c-1.7,11.8-9.1,24.6-22,38c-12.2,12.6-26.4,22.6-33.9,27.5C102.7,224.7,102.2,224.7,101.9,224.7z"/>
		<path style="fill:#26C4CF;" d="M100.2,220.1c-7.6-4.7-21-13.6-32.7-25.2c-12.8-12.6-20.2-24.7-22-35.9l-0.4-68.1
			c0-4.7,4.3-9,12.8-12.8c10.8-4.8,26.2-7.3,42.3-6.9c15.9,0.4,30.9,3.5,41.3,8.6c8,4,12.1,8.3,12.1,12.9l-0.4,65.9
			c-1.6,10.9-8.6,22.7-20.9,35.4C120.9,205.7,107.7,215.1,100.2,220.1z"/>
		<g>
			<path style="fill:#422C6C;" d="M127.3,130.9l-50.9,0.5c-3.9,0-7.1,3.1-7.1,6.8v32.6c0,3.7,3.2,6.6,7.1,6.4l50.7-2.1
				c3.6-0.1,6.5-3.1,6.6-6.7l0.2-31.2C133.8,133.8,130.9,130.9,127.3,130.9z"/>
			<path style="fill:#FFFFFF;" d="M108.8,149.6c0-3.6-3.1-6.5-6.9-6.2c-3.3,0.2-6.1,2.9-6.3,6.2c-0.1,2.5,1.2,4.7,3.3,5.8
				c0.9,0.5,1.3,1.5,1.1,2.4l-1.5,8.2c-0.2,1,0.6,2,1.7,1.9l3.7-0.1c1.1,0,1.9-1,1.7-2l-1.4-8.2c-0.2-1,0.3-1.9,1.2-2.5
				C107.5,154,108.8,152,108.8,149.6z"/>
			<path style="fill:#422C6C;" d="M126.5,127.7c-1.5,0-2.8-1.2-2.8-2.7v-7.1c0-7.1-5.9-13-13.2-13.1L94,104.6
				c-7.6-0.1-13.9,5.9-13.9,13.2v7.3c0,1.6-1.3,2.8-3,2.8c-1.6,0-3-1.2-3-2.8v-7.4c0-10.5,9-19,19.8-18.8l16.6,0.2
				c10.4,0.1,18.8,8.5,18.7,18.6v7.1C129.3,126.5,128.1,127.7,126.5,127.7z"/>
		</g>
	</g>
	<g>
		<path style="fill:#272E33;" d="M221.7,279.9c0,0,0.3,2.1,0.1,2.8c-0.2,0.7-6.3,1.2-8.3,1c-2.1-0.2,1.2-2.3,2.5-2.7
			C217.4,280.6,221.7,279.9,221.7,279.9z"/>
		
			<linearGradient id="SVGID_1_" gradientUnits="userSpaceOnUse" x1="220.0435" y1="3.7536" x2="221.2954" y2="32.0454" gradientTransform="matrix(1 0 0 -1 0 285.8898)">
			<stop  offset="0" style="stop-color:#FFC444"/>
			<stop  offset="0.9964" style="stop-color:#F36F56"/>
		</linearGradient>
		<path style="fill:url(#SVGID_1_);" d="M218.7,276.5l0.6,4.2c0,0,1.6,0.7,2.4,0l0.1-4.4L218.7,276.5z"/>
		<path style="fill:#272E33;" d="M252.9,276.3c0,0-1.3,1-0.9,2.1c0.3,1.1,3.4,5.7,5.5,7s1.5-1.4,0.8-3.1c-0.6-1.7-2.2-5.4-2.8-6
			C254.9,275.6,252.9,276.3,252.9,276.3z"/>
		
			<linearGradient id="SVGID_00000011023901364690942090000011207263897499693244_" gradientUnits="userSpaceOnUse" x1="253.3837" y1="2.2784" x2="254.6356" y2="30.5701" gradientTransform="matrix(1 0 0 -1 0 285.8898)">
			<stop  offset="0" style="stop-color:#FFC444"/>
			<stop  offset="0.9964" style="stop-color:#F36F56"/>
		</linearGradient>
		<path style="fill:url(#SVGID_00000011023901364690942090000011207263897499693244_);" d="M250.6,271.7c0.6,1.7,1.2,3.2,1.7,4.2
			c1,2.3,1.6,3.2,2.2,4c0.6,0.7,1.9,2.1,2.2,1.8c0.4-0.2-0.6-2-2.5-7c-0.3-0.7-1.1-3-1.1-3l0,0H250.6z"/>
		
			<linearGradient id="SVGID_00000168797861677231926270000017691558528741288077_" gradientUnits="userSpaceOnUse" x1="216.1064" y1="47.6592" x2="240.1418" y2="51.4147" gradientTransform="matrix(1 0 0 -1 0 285.8898)">
			<stop  offset="0" style="stop-color:#444B8C"/>
			<stop  offset="0.9964" style="stop-color:#26264F"/>
		</linearGradient>
		<path style="fill:url(#SVGID_00000168797861677231926270000017691558528741288077_);" d="M205.9,199.1c-0.4,4.4-0.9,11.1-0.2,19.4
			c0.8,10.7,3,17.5,5.7,28.9c1.6,7,3.9,17.3,5.9,30.1c0.5,0.3,1.8,1,3.6,0.7c1-0.1,1.7-0.5,2.2-0.8c5.3-16.1,3.7-26,1.2-32.2
			c-1.1-2.6-2.4-4.7-3.1-8.8c-0.9-5.4,0.2-8.4,1.9-20.8c1.2-8.9,1-10.2,0.2-11.6C220,198.7,210.5,198.8,205.9,199.1z"/>
		
			<linearGradient id="SVGID_00000000198399788937711720000008821973453230077331_" gradientUnits="userSpaceOnUse" x1="218.0438" y1="72.9137" x2="287.1455" y2="8.6942" gradientTransform="matrix(1 0 0 -1 0 285.8898)">
			<stop  offset="0" style="stop-color:#444B8C"/>
			<stop  offset="0.9964" style="stop-color:#26264F"/>
		</linearGradient>
		<path style="fill:url(#SVGID_00000000198399788937711720000008821973453230077331_);" d="M224,201c3.2,16.6,6.4,25.4,8.8,30.3
			c0.6,1.2,2.6,5.1,4.4,10.8c1.6,5,2.3,8.7,2.7,10.3c1.1,5.1,3.9,12.5,11.2,22.3c0.1,0.1,1.4,0.8,2.6,0.1c0.6-0.3,0.9-0.8,1-1.1
			c-1-9.3-2.1-17.2-3-23.2c-0.2-1.3-1.1-6.8-2.5-14.2c-0.5-2.9-1.3-7.1-2.3-11.4c-1.2-5.4-3-12.7-5.8-21.5
			C235.4,202.6,229.7,201.8,224,201z"/>
		<path style="fill:#272E33;" d="M221.3,135.2c-1.8-1.7-5.3-3.6-7.1-8.2c-0.5-1.4-2.4-6.2,0.4-9.9c1.6-2.2,4.7-3.7,7.4-3.2
			c2.3,0.4,2.6,2,6.5,5.3c1.5,1.2,3.9,3.3,6.7,4.4c4.6,1.9,7.4,0.1,12.1,0.3c5.7,0.3,12.4,3.4,15.6,8.1c5.7,8.2-2.5,16.6,3.7,26.3
			c2,3.2,3,2.5,7.9,8.6c4.8,6.1,7.3,9.2,6.8,13c-0.6,5.2-6.2,10.2-11.5,10.5c-5.2,0.3-8.4-3.7-11.1-2c-1.9,1.3-0.8,3.7-2.8,6.7
			c-2.6,3.8-7.6,4.6-8.4,4.7c-7.5,1.1-17.7-7.7-22.1-18.2C217.5,162.7,231.2,144.4,221.3,135.2z"/>
		<path style="fill:#DE2C38;" d="M190.3,140.5c-0.1-5.3,11.9-9.5,17.4-10.9c8.5-2.1,15.4-0.8,17-0.4c10.6,2.3,17.3,8.6,19.8,11.3
			c-2,1.3-7.7,5.4-10.5,13.1c-0.9,2.4-3.4,10.6,0.2,18.3c2.1,4.4,5.9,7.7,8.7,10.3c4.3,3.8,6.5,4.4,7.9,7.7c1.6,3.7,0,5.5,1.9,8
			c2.1,2.7,4.5,1.5,8,4.2c3.6,2.8,2.3,5.1,5.6,8.2c4.8,4.5,11.1,3,11.4,5.1c0.3,1.7-4.2,4.1-8.1,5.1c-7.6,1.9-14.1-1.3-16.1-2.3
			c-5.4-2.7-4.5-4.5-8.6-6.6c-6.9-3.5-11.7,0.4-27.4,0.8c-8.5,0.2-12.9,0.3-15.2-2.6c-2.2-2.6-1-5.5,0.3-18
			c0.6-5.9,0.8-11.9,1.3-17.9c1.3-16.8,1.3-18.3,0.2-20.6C200,144.9,190.4,145.2,190.3,140.5z"/>
		<g style="opacity:0.3;">
			
				<linearGradient id="SVGID_00000123431641334107822280000006330790360251942056_" gradientUnits="userSpaceOnUse" x1="238.812" y1="157.4023" x2="250.9455" y2="83.2008" gradientTransform="matrix(1 0 0 -1 0 285.8898)">
				<stop  offset="0" style="stop-color:#FFC444"/>
				<stop  offset="0.9964" style="stop-color:#F36F56"/>
			</linearGradient>
			<path style="fill:url(#SVGID_00000123431641334107822280000006330790360251942056_);" d="M266.4,210.3c-3.3-3.1-2-5.4-5.6-8.2
				c-3.5-2.7-5.9-1.5-8-4.2c-1.9-2.5-0.4-4.3-1.9-8c-1.4-3.4-3.6-4-7.9-7.7c-2.8-2.5-6.6-5.8-8.7-10.3c-3.7-7.7-1.1-15.9-0.2-18.3
				c2.8-7.7,8.4-11.8,10.5-13.1c-0.2-0.2-0.4-0.5-0.7-0.7c-13.5,1.8-21.3,9.6-22.3,11.9c-2.2,5.3,1.3,7.3,1.4,22.6
				c0,7.3-0.7,10.2,1.6,13.3c2.7,3.5,5.9,2.4,9.8,7c3,3.5,2.5,5.8,5.4,7.2c3,1.6,5-0.3,8.4,0.5c5.7,1.2,6.9,7.8,10.7,11.4
				c2.9,2.7,8.2,4.6,18.6,2.6c0.2-0.4,0.4-0.7,0.3-1C277.5,213.3,271.2,214.8,266.4,210.3z"/>
		</g>
		<path style="fill:#DE2C38;" d="M225.7,155.9c-1.4,3,5.1,10.1,12.5,13.5c1.5,0.7,12.2,5.6,16.9,0.9c3.9-3.9,1.4-12,0.5-14.9
			c-4.5-14.2-18.1-21.4-23.9-24c-4.3,10.7-1.8,15.5-0.8,17c1,1.6,3.9,4.8,7,7.7c2.2,2,3.5,3,3.3,3.3c-0.2,0.4-2.8-0.3-12.6-5.1
			C227.5,154.4,226.1,154.8,225.7,155.9z"/>
		<path style="fill:#26C4CF;" d="M184.5,138.4l4.8,24c0.2,0.8,0.8,1.4,1.5,1.5l36,7.7c1.3,0.3,2.5-0.8,2.4-2.1l-1.9-24.4
			c-0.1-0.8-0.7-1.6-1.5-1.8c-5.7-1.4-27.7-6.7-39.3-7.4C185.3,136,184.2,137.1,184.5,138.4z"/>
		
			<linearGradient id="SVGID_00000040573271532750260650000002913108579565690007_" gradientUnits="userSpaceOnUse" x1="215.6733" y1="151.596" x2="241.5864" y2="181.0144" gradientTransform="matrix(1 0 0 -1 0 285.8898)">
			<stop  offset="0" style="stop-color:#FFC444"/>
			<stop  offset="0.9964" style="stop-color:#F36F56"/>
		</linearGradient>
		<path style="fill:url(#SVGID_00000040573271532750260650000002913108579565690007_);" d="M220.4,120.8c0,0,0.7,5.4,2.7,6.7
			c2,1.2,5.2,2.9,5.6,3.3c0.4,0.4-12.4,1.8-18.7-1.4l0,0c2.1-0.4,2.7-0.6,2.7-0.6c0.6-0.2,1.6-0.5,2.7-1.1c0.7-0.4,1.9-1.2,2.9-2.7
			v-3L220.4,120.8z"/>
		
			<linearGradient id="SVGID_00000003064565253589874630000017959207858976860347_" gradientUnits="userSpaceOnUse" x1="-8.1364" y1="169.032" x2="18.9034" y2="146.624" gradientTransform="matrix(0.8633 0.5047 0.5047 -0.8633 278.6269 649.7935)">
			<stop  offset="0" style="stop-color:#FFC444"/>
			<stop  offset="0.9964" style="stop-color:#F36F56"/>
		</linearGradient>
		<path style="fill:url(#SVGID_00000003064565253589874630000017959207858976860347_);" d="M220.7,122.8c0,0-1.3,1.8-3.4,1
			c-1.8-0.7-0.7-5.4,0.7-5.9c0.5-0.2,1.4-0.1,2,0.3c0.4,0.3,1.5,1.7,0.9,3.2c0.5-0.1,0.9,0,1,0.2c0.1,0.3-0.3,0.7-0.4,0.8
			C221.2,122.7,220.9,122.7,220.7,122.8z"/>
		
			<linearGradient id="SVGID_00000013161437668673261700000001812909662501751472_" gradientUnits="userSpaceOnUse" x1="184.4587" y1="132.1428" x2="225.4321" y2="132.1428" gradientTransform="matrix(1 0 0 -1 0 285.8898)">
			<stop  offset="0" style="stop-color:#AA80F9"/>
			<stop  offset="0.9964" style="stop-color:#6165D7"/>
		</linearGradient>
		<path style="opacity:0.3;fill:url(#SVGID_00000013161437668673261700000001812909662501751472_);enable-background:new    ;" d="
			M216.9,159.2c-3.9-1.1-7.1,1.6-10.2-0.5c-3.2-2.2-1.1-5.9-4.4-9.6c-3.5-3.9-8-2-11.2-5.6c-1.2-1.3-2.3-3.5-2.3-7.2
			c-0.8-0.1-1.6-0.1-2.3-0.2c-1.3-0.1-2.3,1.1-2.1,2.4l4.8,24c0.2,0.8,0.8,1.4,1.5,1.5l34.6,7.4C223,162.8,219.7,160,216.9,159.2z"
			/>
		
			<linearGradient id="SVGID_00000066501879251819079600000007302597272296140977_" gradientUnits="userSpaceOnUse" x1="198.3165" y1="130.8339" x2="225.3564" y2="108.4258" gradientTransform="matrix(1 0 0 -1 0 285.8898)">
			<stop  offset="0" style="stop-color:#FFC444"/>
			<stop  offset="0.9964" style="stop-color:#F36F56"/>
		</linearGradient>
		<path style="fill:url(#SVGID_00000066501879251819079600000007302597272296140977_);" d="M186.8,151.2c0,0-2.3-2.1-2.5-4.6
			s1.5-4.4,3.2-4.9s2.6,0.2,1.4,2.7C187.7,146.8,185.9,148.3,186.8,151.2z"/>
	</g>
</g>
<g>
	<rect x="48" y="-246.1" style="fill:#F47322;" width="59.2" height="50"/>
	<rect x="121.5" y="-246.1" style="fill:#DE2C38;" width="59.2" height="50"/>
	<rect x="195" y="-246.1" style="fill:#F78F1E;" width="59.2" height="50"/>
	<rect x="267.5" y="-246.1" style="fill:#4BC2C0;" width="59.2" height="50"/>
	<rect x="343.1" y="-246.1" style="fill:#B93F7A;" width="59.2" height="50"/>
	<rect x="48" y="-190.7" style="fill:#422C6C;" width="59.2" height="50"/>
	<rect x="121.5" y="-188.3" style="fill:#0F5BA7;" width="59.2" height="50"/>
	<rect x="195" y="-188.3" style="fill:#26C4CF;" width="59.2" height="50"/>
</g>
</svg>
