<?xml version="1.0" encoding="utf-8"?>
<!-- Generator: Adobe Illustrator 26.3.1, SVG Export Plug-In . SVG Version: 6.00 Build 0)  -->
<svg version="1.1" id="Layer_1" xmlns="http://www.w3.org/2000/svg" xmlns:xlink="http://www.w3.org/1999/xlink" x="0px" y="0px"
	 viewBox="0 0 359.24 311.57" style="enable-background:new 0 0 359.24 311.57;" xml:space="preserve">
<g>
	<ellipse style="fill:#B2D3EA;" cx="292.55" cy="292.87" rx="24.95" ry="14.4"/>
	<g>
		<g>
			<path style="fill:#B2D3EA;" d="M226.39,292.51l-80.92-46.14c-2.96-1.71-2.59-4.69,0.83-6.67l46.56-26.88
				c3.42-1.97,8.59-2.19,11.55-0.48l80.92,46.14c2.96,1.71,2.59,4.69-0.83,6.67l-46.56,26.88
				C234.52,294,229.35,294.22,226.39,292.51z"/>
			<path style="fill:#6093C6;" d="M292.54,242.95L292.54,242.95V54.05l-75.1-19.66l-13.83-7.99c-3.17-1.83-8.72-1.6-12.39,0.51
				l-12.91,7.45l-40.05-0.02l11.86,182.36c-0.09,1.24,0.6,2.44,2.13,3.32l74.94,56.55c3.17,1.83,8.72,1.6,12.39-0.51l49.94-28.84
				C291.64,246.01,292.66,244.43,292.54,242.95z"/>
			<path style="fill:#D4ECFF;" d="M197.86,25.18c-2.32,0.06-4.73,0.64-6.64,1.74l-12.91,7.45l-40.05-0.02v189.41
				c-0.09,1.24,0.6,2.44,2.13,3.32l86.8,49.5c1.53,0.88,3.6,1.28,5.75,1.23l0.9-190.59L197.86,25.18z"/>
			<path style="fill:#5793CE;" d="M227.99,276.97c2.74,1.17,6.7,1.11,9.9-0.11V84.96h-9.9V276.97z"/>
			<path style="fill:#D4ECFF;" d="M227.19,87.23l-86.8-49.5c-3.17-1.83-2.78-5.03,0.89-7.15l49.94-28.84
				c3.67-2.12,9.21-2.35,12.39-0.51l86.8,49.5c3.17,1.83,2.78,5.03-0.89,7.15l-49.94,28.84C235.91,88.84,230.37,89.07,227.19,87.23z
				"/>
			<path style="fill:#FAFDFF;" d="M289.52,54.37l-49.94,28.84c-3.67,2.12-9.21,2.35-12.39,0.51l-86.8-49.5
				c-0.71-0.41-1.23-0.89-1.58-1.41c-1.09,1.75-0.6,3.66,1.58,4.92l86.8,49.5c3.17,1.83,8.72,1.6,12.39-0.51l49.94-28.84
				c2.85-1.64,3.71-3.94,2.47-5.75C291.5,52.94,290.67,53.71,289.52,54.37z"/>
			<g>
				<path style="fill:#0F5BA7;" d="M229.65,67.17l-57.79-33.5c-1.49-0.86-1.3-2.36,0.42-3.35l23.37-13.49
					c1.72-0.99,4.31-1.1,5.8-0.24l57.79,33.5c1.49,0.86,1.3,2.36-0.42,3.35l-23.37,13.49C233.73,67.92,231.13,68.03,229.65,67.17z"
					/>
				<g>
					<path style="fill:#D4ECFF;" d="M198.45,35.18l-3.35-1.93c-0.21-0.12-0.18-0.33,0.06-0.46l3.23-1.87
						c0.24-0.14,0.6-0.15,0.8-0.03l3.35,1.93c0.21,0.12,0.18,0.33-0.06,0.46l-3.23,1.87C199.01,35.28,198.65,35.3,198.45,35.18z"/>
					<path style="fill:#D4ECFF;" d="M209.64,41.61l-3.35-1.93c-0.21-0.12-0.18-0.33,0.06-0.46l3.23-1.87
						c0.24-0.14,0.6-0.15,0.8-0.03l3.35,1.93c0.21,0.12,0.18,0.33-0.06,0.46l-3.23,1.87C210.2,41.71,209.84,41.73,209.64,41.61z"/>
					<path style="fill:#D4ECFF;" d="M220.82,48.04l-3.35-1.93c-0.21-0.12-0.18-0.33,0.06-0.46l3.23-1.87
						c0.24-0.14,0.6-0.15,0.8-0.03l3.35,1.93c0.21,0.12,0.18,0.33-0.06,0.46l-3.23,1.87C221.39,48.15,221.03,48.16,220.82,48.04z"/>
					<path style="fill:#D4ECFF;" d="M232.01,54.48l-3.35-1.93c-0.21-0.12-0.18-0.33,0.06-0.46l3.23-1.87
						c0.24-0.14,0.6-0.15,0.8-0.03l3.35,1.93c0.21,0.12,0.18,0.33-0.06,0.46l-3.23,1.87C232.58,54.58,232.22,54.6,232.01,54.48z"/>
				</g>
				<path style="fill:#5793CE;" d="M171.86,33.67l0.07,0.04c0.11-0.08,0.22-0.16,0.35-0.24l23.37-13.49c1.72-0.99,4.31-1.1,5.8-0.24
					l57.72,33.46c1.37-0.98,1.44-2.31,0.07-3.11l-57.79-33.5c-1.49-0.86-4.08-0.75-5.8,0.24l-23.37,13.49
					C170.56,31.32,170.37,32.82,171.86,33.67z"/>
			</g>
			<g>
				<path style="fill:#5793CE;" d="M217.6,124.66l-64.14-37.03c-1.85-1.07-3.35-3.93-3.35-6.4V69.48c0-2.47,1.5-3.6,3.35-2.53
					l64.14,37.03c1.85,1.07,3.35,3.93,3.35,6.4v11.75C220.95,124.59,219.45,125.73,217.6,124.66z"/>
				<g>
					<path style="fill:#173D7A;" d="M212.75,114.27l-3.01-1.74c-0.4-0.23-0.73-0.86-0.73-1.39v-3.22c0-0.54,0.33-0.78,0.73-0.55
						l3.01,1.74c0.4,0.23,0.73,0.86,0.73,1.39v3.22C213.48,114.26,213.15,114.5,212.75,114.27z"/>
					<path style="fill:#173D7A;" d="M202.67,108.45l-3.01-1.74c-0.4-0.23-0.73-0.86-0.73-1.39v-3.22c0-0.54,0.33-0.78,0.73-0.55
						l3.01,1.74c0.4,0.23,0.73,0.86,0.73,1.39v3.22C203.4,108.44,203.08,108.68,202.67,108.45z"/>
				</g>
			</g>
			<g>
				<path style="fill:#5793CE;" d="M217.6,167.11l-64.14-37.03c-1.85-1.07-3.35-3.93-3.35-6.4v-11.75c0-2.47,1.5-3.6,3.35-2.53
					l64.14,37.03c1.85,1.07,3.35,3.93,3.35,6.4v11.75C220.95,167.05,219.45,168.18,217.6,167.11z"/>
				<g>
					<path style="fill:#173D7A;" d="M212.75,156.73l-3.01-1.74c-0.4-0.23-0.73-0.86-0.73-1.39v-3.22c0-0.54,0.33-0.78,0.73-0.55
						l3.01,1.74c0.4,0.23,0.73,0.86,0.73,1.39v3.22C213.48,156.71,213.15,156.96,212.75,156.73z"/>
					<path style="fill:#D4ECFF;" d="M202.67,150.91l-3.01-1.74c-0.4-0.23-0.73-0.86-0.73-1.39v-3.22c0-0.54,0.33-0.78,0.73-0.55
						l3.01,1.74c0.4,0.23,0.73,0.86,0.73,1.39v3.22C203.4,150.89,203.08,151.14,202.67,150.91z"/>
				</g>
			</g>
			<g>
				<path style="fill:#5793CE;" d="M217.6,209.57l-64.14-37.03c-1.85-1.07-3.35-3.93-3.35-6.4v-11.75c0-2.47,1.5-3.6,3.35-2.53
					l64.14,37.03c1.85,1.07,3.35,3.93,3.35,6.4v11.75C220.95,209.5,219.45,210.64,217.6,209.57z"/>
				<g>
					<path style="fill:#D4ECFF;" d="M212.75,199.18l-3.01-1.74c-0.4-0.23-0.73-0.86-0.73-1.39v-3.22c0-0.54,0.33-0.78,0.73-0.55
						l3.01,1.74c0.4,0.23,0.73,0.86,0.73,1.39v3.22C213.48,199.17,213.15,199.42,212.75,199.18z"/>
					<path style="fill:#173D7A;" d="M202.67,193.36l-3.01-1.74c-0.4-0.23-0.73-0.86-0.73-1.39v-3.22c0-0.54,0.33-0.78,0.73-0.55
						l3.01,1.74c0.4,0.23,0.73,0.86,0.73,1.39v3.22C203.4,193.35,203.08,193.6,202.67,193.36z"/>
				</g>
			</g>
			<g>
				<path style="fill:#5793CE;" d="M217.6,252.03l-64.14-37.03c-1.85-1.07-3.35-3.93-3.35-6.4v-11.75c0-2.47,1.5-3.6,3.35-2.53
					l64.14,37.03c1.85,1.07,3.35,3.93,3.35,6.4v11.75C220.95,251.96,219.45,253.09,217.6,252.03z"/>
				<g>
					<path style="fill:#D4ECFF;" d="M212.75,241.64l-3.01-1.74c-0.4-0.23-0.73-0.86-0.73-1.39v-3.22c0-0.54,0.33-0.78,0.73-0.55
						l3.01,1.74c0.4,0.23,0.73,0.86,0.73,1.39v3.22C213.48,241.62,213.15,241.87,212.75,241.64z"/>
					<path style="fill:#D4ECFF;" d="M202.67,235.82l-3.01-1.74c-0.4-0.23-0.73-0.86-0.73-1.39v-3.22c0-0.54,0.33-0.78,0.73-0.55
						l3.01,1.74c0.4,0.23,0.73,0.86,0.73,1.39v3.22C203.4,235.8,203.08,236.05,202.67,235.82z"/>
				</g>
			</g>
		</g>
		<g>
			<path style="fill:#0F5BA7;" d="M249.33,124.66l32.86-18.81c1.85-1.07,3.35-3.93,3.35-6.4V87.7c0-2.47-1.5-3.6-3.35-2.53
				l-32.86,18.81c-1.85,1.07-3.35,3.93-3.35,6.4v11.75C245.98,124.59,247.48,125.73,249.33,124.66z"/>
			<path style="fill:#0F5BA7;" d="M249.33,167.11l32.86-18.81c1.85-1.07,3.35-3.93,3.35-6.4v-11.75c0-2.47-1.5-3.6-3.35-2.53
				l-32.86,18.81c-1.85,1.07-3.35,3.93-3.35,6.4v11.75C245.98,167.05,247.48,168.18,249.33,167.11z"/>
			<path style="fill:#0F5BA7;" d="M249.33,209.57l32.86-18.81c1.85-1.07,3.35-3.93,3.35-6.4v-11.75c0-2.47-1.5-3.6-3.35-2.53
				l-32.86,18.81c-1.85,1.07-3.35,3.93-3.35,6.4v11.75C245.98,209.5,247.48,210.64,249.33,209.57z"/>
			<path style="fill:#0F5BA7;" d="M249.33,252.03l32.86-18.81c1.85-1.07,3.35-3.93,3.35-6.4v-11.75c0-2.47-1.5-3.6-3.35-2.53
				l-32.86,18.81c-1.85,1.07-3.35,3.93-3.35,6.4v11.75C245.98,251.96,247.48,253.09,249.33,252.03z"/>
		</g>
	</g>
	<path style="opacity:0.5;fill:#173D7A;" d="M206.14,100.02L173.45,77.1c-11.69-8.2-23.46-15.39-35.19-21.56v168.22
		c-0.09,1.24,0.6,2.44,2.13,3.32l25.84,14.74c41.32-7.69,39.91-53.72,39.91-53.72V100.02z"/>
	<g>
		<path style="fill:#721BD5;" d="M186.04,196.1v-88.07l-32.69-22.92c-16.5-11.57-33.14-21.18-49.64-28.66L71.02,41.62l-13.2,7.73
			l14.61,10.59v68.94c0,0-1.79,56.2,57.51,121.06c7.63,0.47,14.24-0.1,19.98-1.42l-0.98,3.19l11.61-6.84c1-0.54,1.96-1.11,2.89-1.7
			l0.16-0.1l-0.01,0C187.01,227.92,186.04,196.1,186.04,196.1z"/>
		<path style="fill:#B45EF4;" d="M128.46,69.21c-8.26-4.77-16.53-9.03-24.76-12.76L71.02,41.62l-13.2,7.73l14.61,10.59v41.62
			L128.46,69.21z"/>
		<path style="fill:#7E23DC;" d="M117.07,62.97l-27.55,15.9l22.69,13.1l27.56-15.91C132.21,71.28,124.64,66.9,117.07,62.97z"/>
		<path style="fill:#573E93;" d="M172.84,203.83v-88.07l-32.69-22.92c-16.5-11.57-33.14-21.18-49.64-28.66L57.82,49.35v88.07
			c0,0-1.79,56.2,57.51,121.06C174.63,262.1,172.84,203.83,172.84,203.83z"/>
		<path style="fill:#422C6C;" d="M150.06,238.54c-7.13,6.92-17.28,10.38-30.2,10.24c-52.74-59.41-52.2-110.57-52.19-111.04
			l0.01-73.09l18.76,8.51c15.92,7.22,32.09,16.56,48.06,27.75l28.49,19.98v82.94l0,0.3C162.99,204.35,163.27,225.71,150.06,238.54z"
			/>
		<g>
			<path style="fill:#FF2C9C;" d="M120.38,161.69c0,1.65,1.16,3.65,2.58,4.47c1.43,0.82,2.58,0.16,2.58-1.49
				c0-1.65-1.16-3.65-2.58-4.47C121.53,159.38,120.38,160.05,120.38,161.69z"/>
			<path style="fill:#FF2C9C;" d="M112.07,156.89c0,1.65,1.16,3.65,2.58,4.47c1.43,0.82,2.58,0.16,2.58-1.49
				c0-1.65-1.16-3.65-2.58-4.47C113.22,154.58,112.07,155.25,112.07,156.89z"/>
			<path style="fill:#FF2C9C;" d="M103.76,152.1c0,1.65,1.16,3.65,2.58,4.47c1.43,0.82,2.58,0.16,2.58-1.49
				c0-1.65-1.16-3.65-2.58-4.47C104.91,149.78,103.76,150.45,103.76,152.1z"/>
		</g>
	</g>
	<g>
		<g>
			<g>
				<path style="fill:#B2D3EA;" d="M27.55,252.27L7.36,240.52c-1.7-0.98-1.49-2.7,0.48-3.84l19.24-11.21
					c1.97-1.14,4.94-1.26,6.65-0.28l20.19,11.75c1.7,0.98,1.49,2.7-0.48,3.84L34.2,251.99C32.23,253.13,29.25,253.25,27.55,252.27z"
					/>
				<path style="fill:#173D7A;" d="M61.27,214.93L61.27,214.93v-5.07l-26.94-0.02l0.19-0.01c-2.14-1.23-5.87-1.08-8.34,0.35
					l0.8-0.33l-26.96-0.02v5.41c-0.06,0.83,0.4,1.64,1.43,2.23l25.32,14.73c2.14,1.23,5.87,1.08,8.34-0.35l24.13-14.06
					C60.66,216.98,61.35,215.92,61.27,214.93z"/>
				<path style="fill:#396CAA;" d="M30.64,209.01c-1.56,0.04-3.19,0.43-4.47,1.17l0.8-0.33l-26.96-0.02v5.41
					c-0.06,0.83,0.4,1.64,1.43,2.23l25.32,14.73c1.03,0.59,2.42,0.86,3.87,0.83L30.64,209.01z"/>
				<path style="fill:#B2D3EA;" d="M3.06,209.83l-3.05,0v5.41c-0.06,0.83,0.4,1.64,1.43,2.23l1.62,0.94V209.83z"/>
				<path style="fill:#274F89;" d="M27.3,232.48c1.84,0.79,4.51,0.75,6.66-0.08v-7.09H27.3V232.48z"/>
				<path style="fill:#D4ECFF;" d="M26.76,226.84L1.44,212.11c-2.14-1.23-1.87-3.39,0.6-4.81l24.13-14.06
					c2.47-1.42,6.2-1.58,8.34-0.35l25.32,14.73c2.14,1.23,1.87,3.39-0.6,4.81L35.1,226.5C32.63,227.92,28.9,228.08,26.76,226.84z"/>
			</g>
		</g>
		<g>
			<path style="fill:#396CAA;" d="M26.37,206.19c-1.32,0.75-3.46,0.74-4.77-0.02c-1.31-0.77-1.31-2,0.01-2.75
				c1.32-0.75,3.46-0.74,4.77,0.02C27.7,204.2,27.69,205.44,26.37,206.19z"/>
			<path style="fill:#396CAA;" d="M34.02,210.66c-1.32,0.75-3.46,0.74-4.77-0.02c-1.31-0.77-1.31-2,0.01-2.75
				c1.32-0.75,3.46-0.74,4.77,0.02C35.35,208.67,35.34,209.9,34.02,210.66z"/>
			<path style="fill:#396CAA;" d="M41.67,215.13c-1.32,0.75-3.46,0.74-4.77-0.02c-1.31-0.77-1.31-2,0.01-2.75
				c1.32-0.75,3.46-0.74,4.77,0.02C43,213.14,43,214.37,41.67,215.13z"/>
		</g>
	</g>
	<g>
		<path style="fill:#313B4C;" d="M303.87,149.66c0,0-0.53,10.92-1.36,18.26s-18.5-5.64-18.5-5.64v-8.36L303.87,149.66z"/>
		<g>
			<path style="fill:#173D7A;" d="M294.45,285.52c-0.27,0.66-4.84,6.24-9.42,7.63c-1.99,0.61-3.33,0.68-4.21,0.58
				c-0.88-0.1-1.42-1.01-1.13-1.85c0.79-2.22,3.05-6.84,8.79-9.68C296.24,278.35,294.45,285.52,294.45,285.52z"/>
			<path style="fill:#173D7A;" d="M295.98,287.66c0,0-1.73,4.05-2.26,7.43c-0.32,2.06,0.81,4.75,1.74,6.52
				c0.58,1.1,2.05,1.35,2.97,0.51c1.5-1.36,3.4-3.72,3.72-7.1c0.53-5.71,0-6.7,0-6.7L295.98,287.66z"/>
			<path style="fill:#FDD762;" d="M307.01,218.68c0,0,0.6,7.2,0,15.16c-0.6,7.96-2.74,45.21-3.13,54.17c0,0,0.2,2.71-5.05,2.12
				c-5.25-0.6-4.83-3.61-4.83-3.61s-7.37-0.1-7.61-4.45c-0.23-4.35-7.55-51.91-7.55-69.01L307.01,218.68z"/>
			<g>
				<polygon style="fill:#FFC2B0;" points="281.37,181.51 277.12,207.53 273.25,207.46 273.61,183.62 				"/>
				<path style="fill:#E85665;" d="M283.16,158.48c0,0-5.74-0.15-7.74,8.15c-2,8.3-3.56,18.68-1.82,19.54
					c5.22,2.59,8.52-0.44,8.52-0.44L283.16,158.48z"/>
				<path style="fill:#DE2C38;" d="M281.44,158.83c0.98-0.41,2.08-0.46,3.1-0.17c4.89,1.4,23.28,6.8,26.31,9.39
					c3.5,2.99-5.25,19.81-5.12,25.32c0.13,5.51,0.75,12.01,1.23,18.01c0.49,5.99,1.15,9.28-3.76,11.83
					c-4.9,2.55-13.27,2.67-19.54-2.11c-6.27-4.77-5.13-8.04-4.87-11.51c0.26-3.47,2.39-18.46,2.21-22.71c0,0-2.21-1.63-3.84-4.42
					c-1.64-2.79,1.25-7.92,2.45-11.25c1.2-3.33-0.68-7.14-0.31-9.86C279.5,159.95,280.39,159.27,281.44,158.83z"/>
				<path style="fill:#FFFFFF;" d="M287.32,164.56c-0.39,3.03,2.39,5.88,6.21,6.37c3.82,0.49,7.22-1.57,7.61-4.6
					c0.39-3.03-2.39-5.88-6.21-6.37C291.11,159.48,287.7,161.54,287.32,164.56z"/>
				<path style="fill:#FFC2B0;" d="M289.29,164.82c-0.28,2.16,1.71,4.2,4.44,4.55c2.73,0.35,5.16-1.12,5.44-3.29
					c0.28-2.16-1.71-4.2-4.44-4.55C292,161.18,289.56,162.65,289.29,164.82z"/>
				<path style="fill:#FFC2B0;" d="M292,157.71c0,0,3.32-2.73,3.97-1.35c0.65,1.38,1.19,7.32,1.19,7.32l-6.59,1.77l1-6.01
					C291.57,159.44,290.25,158.32,292,157.71z"/>
				<path style="fill:#FFC2B0;" d="M281.69,151.21c0.32,5.43,4.98,9.56,10.4,9.24c5.43-0.32,9.56-4.98,9.24-10.4
					c-0.32-5.43-4.98-9.56-10.4-9.24C285.51,141.12,281.37,145.78,281.69,151.21z"/>
				<path style="fill:#EA9C92;" d="M296.43,158.08c0.06,0.31,0.11,0.64,0.17,0.98c-0.66,3.42-5.79,4.92-5.79,4.92l0.76-4.55
					c0,0-0.62-0.53-0.45-1.05C293.15,157.74,295.7,157.18,296.43,158.08z"/>
				<path style="fill:#FFC2B0;" d="M281.69,151.21c0.32,5.43,4.98,9.56,10.4,9.24c5.43-0.32,9.56-4.98,9.24-10.4
					c-0.32-5.43-4.98-9.56-10.4-9.24C285.51,141.12,281.37,145.78,281.69,151.21z"/>
				<polygon style="fill:#FFC2B0;" points="315.77,192.29 314.66,218.62 310.81,219.02 308.31,195.31 				"/>
				<path style="fill:#E85665;" d="M303.11,190.08c1.27-5.62,3.79-18.05,3.79-18.05l1.08,12.36c-1.24,3.66-2.31,7.03-2.26,8.98
					c0.07,3.24,0.32,6.81,0.61,10.43l0,0.01C306.33,203.81,301.84,195.71,303.11,190.08z"/>
				<path style="fill:#E85665;" d="M310.11,167.51c0,0,3.08,1.18,4.82,10.63c1.74,9.46,3.05,18.93-0.06,20.15
					c-3.11,1.22-5.7,2.14-6.62-0.39c-0.91-2.53-1.48-14.72-1.59-19.1C306.54,174.42,306.38,168.38,310.11,167.51z"/>
			</g>
			<path style="fill:#D8892B;" d="M294,286.51c0,0-0.91-0.01-2.11-0.22l0,0l-1.44-57.89L294,286.51z"/>
		</g>
		<g>
			<path style="fill:#983BE9;" d="M299.57,255.24l2.05-2.67l21.54-12.47c0.69-0.4,1.25-1.47,1.25-2.39l-0.02-17.64l1.24-1.62
				l-1.16-0.67l0,0c-0.22-0.14-0.52-0.14-0.84,0.05l-24.42,14.14c-0.69,0.4-1.25,1.47-1.25,2.39l0.02,19.21
				c0,0.52,0.18,0.88,0.46,1.02l0,0L299.57,255.24z"/>
			<path style="fill:#D29FFF;" d="M314.47,245.13l1.53-0.89l8.4-14.59l-0.01-9.58l1.24-1.62l-1.16-0.67l0,0
				c-0.22-0.14-0.52-0.14-0.84,0.05l-24.42,14.14c-0.36,0.21-0.69,0.61-0.92,1.08L314.47,245.13z"/>
			<path style="fill:#D29FFF;" d="M325.08,219.16l0.55-0.72l-1.16-0.67l0,0c-0.22-0.14-0.52-0.14-0.84,0.05l-0.43,0.25
				L325.08,219.16z"/>
			<path style="fill:#983BE9;" d="M298.98,232.11c-0.54,0.44-0.96,1.28-1.02,2.06l2.39,1.38l1.14-1.99L298.98,232.11z"/>
			<path style="fill:#422C6C;" d="M300.37,232.63l24.42-14.14c0.69-0.4,1.25,0.02,1.25,0.94l0.02,19.21c0,0.92-0.56,1.99-1.25,2.39
				l-24.42,14.14c-0.69,0.4-1.25-0.02-1.25-0.94l-0.02-19.21C299.12,234.1,299.68,233.03,300.37,232.63z"/>
		</g>
		<path style="fill:#FFC2B0;" d="M314.63,218.4c0,0,1.02,6.15,0.86,8.12c-0.15,1.97-1.21,5.22-2.01,5.15
			c-0.8-0.07-0.03-7.92-1.43-7.14c-1.4,0.78-1.55,2.12-2.19,1.65c-0.64-0.47,1.11-7.18,0.64-10.09
			C310.05,213.18,314.63,218.4,314.63,218.4z"/>
		<path style="fill:#FFC2B0;" d="M273.25,207.46c0,0-1.02,6.15-0.86,8.12c0.15,1.97,1.21,5.22,2.01,5.15
			c0.8-0.07,0.03-7.92,1.43-7.14c1.4,0.78,1.55,2.12,2.19,1.65c0.64-0.47-1.11-7.18-0.64-10.09
			C277.83,202.23,273.25,207.46,273.25,207.46z"/>
		<path style="fill:#EA9C92;" d="M287.74,151.49c-4.94,1.75-5.9,0.68-5.95,0.63c-0.05-0.3-0.08-0.6-0.1-0.91
			c-0.06-1.09,0.06-2.15,0.33-3.14l12.81-1.73C294.83,146.33,292.81,149.69,287.74,151.49z"/>
		<path style="fill:#313B4C;" d="M281.34,141.4c1.16-1,5.36-5.93,12.88-4.76c4.7,0.73,8.66,3.93,9.54,11.25
			c0.59,4.93-1.22,9.78-4.55,13.37c-0.18-0.08-0.37-0.16-0.53-0.27c-1.88-1.24-2.09-1.92-2.09-1.93l-0.42-3.73
			c0.01-0.53,0.41-1,0.94-1.03c0.41-0.03,0.91-0.22,1.38-0.84c1.08-1.41,0.58-3.62-1.58-3.7c-1.13-0.04-1.57-0.65-1.73-1.23
			c-0.14-0.5-0.67-0.78-1.15-0.6c-2.46,0.89-8.51,2.81-12.41,1.7C276.64,148.22,280.18,142.4,281.34,141.4z"/>
		<path style="fill:#FFFFFF;" d="M286.95,155.93l-3.01-0.83c0,0,1.44,2.26,3.54,2.84c2.1,0.58,2.42-1.2,2.42-1.2L286.95,155.93z"/>
		<polygon style="fill:#D29FFF;" points="309.52,225.99 312.08,224.52 311.12,226.09 309.82,226.57 		"/>
	</g>
	<g>
		<path style="fill:#B2D3EA;" d="M85.99,258.08c-10.56-6.1-27.68-6.1-38.24,0c-10.56,6.1-10.56,15.98,0,22.08
			c10.56,6.1,27.68,6.1,38.24,0C96.55,274.06,96.55,264.18,85.99,258.08z M66.21,269.33c-2.72,1.57-7.12,1.57-9.83,0
			s-2.72-4.11,0-5.68c2.72-1.57,7.12-1.57,9.83,0C68.93,265.22,68.93,267.76,66.21,269.33z"/>
		<path style="fill:#B2D3EA;" d="M91.69,275.26c-1.41,1.4-3.15,2.73-5.23,3.93c-2.08,1.2-4.37,2.21-6.8,3.02l5.17,2.98l7.79,0.4
			l3.85,2.22l-1.57,0.91l2.92,1.68l3.15-1.82l5.1,2.94l-5.12,2.96l3.76,2.17l3.65,2.11l4.55-2.63l6.74,3.89l-2.57,1.49l4.33,2.5
			l2.57-1.49l2.03,1.17l-2.05,4.07l6.55,3.78l24.07,0L91.69,275.26z"/>
	</g>
	<g>
		<path style="fill:#E8A200;" d="M93.91,266.97v-7.31l-2.15,1.22c-1.32-1.79-3.24-3.47-5.77-4.93c-10.56-6.1-27.68-6.1-38.24,0
			c-2.93,1.69-5.04,3.67-6.35,5.79l-1.57-2.07v7.31c-0.01,4,2.63,8,7.92,11.05c10.56,6.1,27.68,6.1,38.24,0
			C91.27,274.97,93.91,270.97,93.91,266.97z M66.12,262.21c-2.72,1.57-7.12,1.57-9.83,0c-2.72-1.57-2.72-4.11,0-5.68
			c2.72-1.57,7.12-1.57,9.83,0C68.83,258.1,68.83,260.64,66.12,262.21z"/>
		<path style="fill:#FDD762;" d="M64.6,272.73l-11.67-5.75l-10.37-6.85c-0.44,0.52-0.83,1.05-1.16,1.6l-1.57-2.07v7.31
			c-0.01,4,2.63,8,7.92,11.05c4.7,2.72,10.71,4.22,16.86,4.51V272.73z"/>
		<path style="fill:#FDD762;" d="M85.99,248.62c-10.56-6.1-27.68-6.1-38.24,0c-10.56,6.1-10.56,15.98,0,22.08
			c10.56,6.1,27.68,6.1,38.24,0C96.55,264.6,96.55,254.72,85.99,248.62z M66.21,259.87c-2.72,1.57-7.12,1.57-9.83,0
			s-2.72-4.11,0-5.68c2.72-1.57,7.12-1.57,9.83,0C68.93,255.76,68.93,258.3,66.21,259.87z"/>
		<path style="fill:#E8A200;" d="M71.52,252.48H56.84c-1.34,0.31-2.65,0.68-3.91,1.12v12.44h18.58V252.48z M66.12,262.21
			c-2.72,1.57-7.12,1.57-9.83,0c-2.72-1.57-2.72-4.11,0-5.68c2.72-1.57,7.12-1.57,9.83,0C68.83,258.1,68.83,260.64,66.12,262.21z"/>
		<path style="fill:#F78F1E;" d="M83.72,249.93c-9.31-5.37-24.4-5.37-33.71,0c-9.31,5.37-9.31,14.09,0,19.46
			c9.31,5.37,24.4,5.37,33.71,0C93.03,264.02,93.03,255.31,83.72,249.93z M66.21,259.87c-2.72,1.57-7.12,1.57-9.83,0
			s-2.72-4.11,0-5.68c2.72-1.57,7.12-1.57,9.83,0C68.93,255.76,68.93,258.3,66.21,259.87z"/>
		<path style="fill:#E8A200;" d="M50.01,251.95c9.31-5.37,24.4-5.37,33.71,0c4.21,2.43,6.51,5.54,6.91,8.72
			c0.49-3.85-1.81-7.8-6.91-10.74c-9.31-5.37-24.4-5.37-33.71,0c-5.1,2.94-7.4,6.89-6.91,10.74
			C43.51,257.49,45.8,254.38,50.01,251.95z"/>
		<g>
			<path style="fill:#F2B42A;" d="M91.69,273.07c-1.41,1.4-3.15,2.73-5.23,3.93c-2.08,1.2-4.37,2.21-6.8,3.02l5.17,2.98l7.79,0.4
				l3.85,2.22l-1.57,0.91l2.92,1.68l3.15-1.82l5.1,2.94l-5.12,2.96l3.76,2.17l3.65,2.11l4.55-2.63l6.74,3.89l-2.57,1.49l4.33,2.5
				l2.57-1.49l2.03,1.17l-2.05,4.07l6.55,3.78l24.07,0L91.69,273.07z"/>
			<path style="fill:#FDD762;" d="M91.69,267.79c-1.41,1.4-3.15,2.73-5.23,3.93c-2.08,1.2-4.37,2.21-6.8,3.02l5.17,2.98l7.79,0.4
				l3.85,2.22l-1.57,0.91l2.92,1.68l3.15-1.82l5.1,2.94l-5.12,2.96l3.76,2.17l3.65,2.11l4.55-2.63l6.74,3.89l-2.57,1.49l4.33,2.5
				l2.57-1.49l2.03,1.17l-2.05,4.07l6.55,3.78l24.07,0L91.69,267.79z"/>
			<rect x="130.51" y="304.1" style="fill:#E8A200;" width="24.07" height="5.28"/>
			<polygon style="fill:#E8A200;" points="121.4,301.84 121.4,296.55 123.97,295.07 123.97,300.35 			"/>
			<polygon style="fill:#EEAD00;" points="117.07,294.05 117.07,299.34 121.4,301.84 121.4,296.55 			"/>
			<polygon style="fill:#E8A200;" points="112.9,288.68 112.9,293.96 108.35,296.59 108.35,291.3 			"/>
			<polygon style="fill:#EEAD00;" points="100.93,287.02 100.93,292.31 108.35,296.59 108.35,291.3 			"/>
			<polygon style="fill:#EEAD00;" points="123.97,300.35 123.95,305.6 130.51,309.38 130.51,304.1 			"/>
			<polygon style="fill:#EEAD00;" points="97.81,282.94 97.81,288.22 94.9,286.54 94.9,281.25 			"/>
			<polygon style="fill:#E8A200;" points="84.82,277.72 84.82,283 92.61,283.4 92.61,278.12 			"/>
			<polygon style="fill:#E8A200;" points="138.15,300.35 92.11,273.75 94.67,272.27 143.24,300.34 			"/>
			<polygon style="fill:#F2B42A;" points="94.67,273.55 141.04,300.34 143.24,300.34 94.67,272.27 92.11,273.75 93.22,274.39 			"/>
			<polygon style="fill:#E8A200;" points="84.82,283 84.82,277.72 79.66,274.74 79.66,280.02 			"/>
			<polygon style="fill:#E8A200;" points="100.96,281.12 100.96,286.41 97.81,288.22 97.81,282.94 			"/>
		</g>
		<path style="fill:#FDD762;" d="M83.72,249.93c-5.23-3.02-12.29-4.34-19.12-3.97v2.02c6.83-0.37,13.89,0.95,19.12,3.97
			c4.21,2.43,6.51,5.54,6.91,8.72C91.12,256.82,88.82,252.88,83.72,249.93z"/>
	</g>
	<g>
		<g>
			<g>
				<path style="fill:#B2D3EA;" d="M325.38,128.4l-21-12.22c-1.77-1.02-1.55-2.81,0.5-3.99l20.02-11.66
					c2.05-1.18,5.14-1.31,6.91-0.29l21,12.22c1.77,1.02,1.55,2.81-0.5,3.99l-20.02,11.66C330.25,129.3,327.16,129.43,325.38,128.4z"
					/>
				<path style="fill:#721BD5;" d="M359.22,90.52L359.22,90.52v-5.07l-26.94-0.01l0.19-0.01c-2.14-1.23-5.87-1.08-8.34,0.35
					l0.8-0.33l-26.96-0.02v5.41c-0.06,0.83,0.4,1.64,1.43,2.23l25.32,14.73c2.14,1.23,5.87,1.08,8.34-0.35l24.13-14.06
					C358.62,92.58,359.3,91.51,359.22,90.52z"/>
				<path style="fill:#983BE9;" d="M328.6,84.6c-1.56,0.04-3.19,0.43-4.47,1.17l0.8-0.33l-26.96-0.02v5.41
					c-0.06,0.83,0.4,1.64,1.43,2.23l25.32,14.73c1.03,0.59,2.42,0.86,3.87,0.83L328.6,84.6z"/>
				<path style="fill:#B45EF4;" d="M301.02,85.43l-3.05,0v5.41c-0.06,0.83,0.4,1.64,1.43,2.23l1.62,0.94V85.43z"/>
				<path style="fill:#7E23DC;" d="M325.26,108.07c1.84,0.79,4.51,0.75,6.66-0.08v-7.09h-6.66V108.07z"/>
				<path style="fill:#422C6C;" d="M324.72,102.44L299.4,87.7c-2.14-1.23-1.87-3.39,0.6-4.81l24.13-14.06
					c2.47-1.42,6.2-1.58,8.34-0.35l25.32,14.73c2.14,1.23,1.87,3.39-0.6,4.81l-24.13,14.06
					C330.59,103.51,326.86,103.67,324.72,102.44z"/>
			</g>
		</g>
		<g>
			<path style="fill:#B45EF4;" d="M322.79,81.69c-1.32,0.75-3.46,0.74-4.77-0.02c-1.31-0.77-1.31-2,0.01-2.75
				c1.32-0.75,3.46-0.74,4.77,0.02C324.11,79.7,324.11,80.93,322.79,81.69z"/>
			<path style="fill:#B45EF4;" d="M330.44,86.15c-1.32,0.75-3.46,0.74-4.77-0.02c-1.31-0.77-1.31-2,0.01-2.75
				c1.32-0.75,3.46-0.74,4.77,0.02C331.77,84.17,331.76,85.4,330.44,86.15z"/>
			<path style="fill:#B45EF4;" d="M338.09,90.62c-1.32,0.75-3.46,0.74-4.77-0.02c-1.31-0.77-1.31-2,0.01-2.75
				c1.32-0.75,3.46-0.74,4.77,0.02C339.42,88.63,339.41,89.87,338.09,90.62z"/>
		</g>
	</g>
</g>
<g>
	<rect x="-175.95" y="-402.08" style="fill:#F47322;" width="95.06" height="80.29"/>
	<rect x="-57.92" y="-402.08" style="fill:#DE2C38;" width="95.06" height="80.29"/>
	<rect x="60.1" y="-402.08" style="fill:#F78F1E;" width="95.06" height="80.29"/>
	<rect x="176.52" y="-402.08" style="fill:#4BC2C0;" width="95.06" height="80.29"/>
	<rect x="297.93" y="-402.08" style="fill:#B93F7A;" width="95.06" height="80.29"/>
	<rect x="-175.95" y="-313.12" style="fill:#422C6C;" width="95.06" height="80.29"/>
	<rect x="-57.92" y="-309.27" style="fill:#0F5BA7;" width="95.06" height="80.29"/>
	<rect x="60.1" y="-309.27" style="fill:#26C4CF;" width="95.06" height="80.29"/>
</g>
</svg>
