<?xml version="1.0" encoding="utf-8"?>
<!-- Generator: Adobe Illustrator 26.3.1, SVG Export Plug-In . SVG Version: 6.00 Build 0)  -->
<svg version="1.1" id="Layer_1" xmlns="http://www.w3.org/2000/svg" xmlns:xlink="http://www.w3.org/1999/xlink" x="0px" y="0px"
	 viewBox="0 0 274.2 261.8" style="enable-background:new 0 0 274.2 261.8;" xml:space="preserve">
<style type="text/css">
	.st0{fill:#F47322;}
	.st1{fill:#DE2C38;}
	.st2{fill:#F78F1E;}
	.st3{fill:#4BC2C0;}
	.st4{fill:#B93F7A;}
	.st5{fill:#422C6C;}
	.st6{fill:#0F5BA7;}
	.st7{fill:#26C4CF;}
	.st8{fill:#0B4677;}
	.st9{fill:#2380CC;}
	.st10{fill:#0A7C7F;}
	.st11{fill:none;stroke:#FFFFFF;stroke-width:3;stroke-linecap:round;stroke-miterlimit:10;}
	.st12{fill:#586773;}
	.st13{fill:#93ACBF;}
	.st14{fill:#2EC6FC;}
	.st15{fill:#BBDBF3;}
	.st16{fill:#26C4CF;stroke:#FFFFFF;stroke-width:4;stroke-linecap:round;stroke-linejoin:round;stroke-miterlimit:10;}
	.st17{fill:none;stroke:#FFFFFF;stroke-width:4;stroke-linecap:round;stroke-linejoin:round;stroke-miterlimit:10;}
	.st18{fill:none;}
	.st19{fill:#FFFFFF;}
	.st20{fill:#F7A58E;}
	.st21{fill:#00050D;}
	.st22{fill:#E6856A;}
</style>
<g>
	<rect x="305" y="-235.4" class="st0" width="59.2" height="50"/>
	<rect x="378.5" y="-235.4" class="st1" width="59.2" height="50"/>
	<rect x="452" y="-235.4" class="st2" width="59.2" height="50"/>
	<rect x="524.5" y="-235.4" class="st3" width="59.2" height="50"/>
	<rect x="600.1" y="-235.4" class="st4" width="59.2" height="50"/>
	<rect x="305" y="-180" class="st5" width="59.2" height="50"/>
	<rect x="378.5" y="-177.6" class="st6" width="59.2" height="50"/>
	<rect x="452" y="-177.6" class="st7" width="59.2" height="50"/>
</g>
<g>
	<path class="st8" d="M200.1,257.2H83.7c-6.9,0-12.4-5.6-12.4-12.4V12.4C71.3,5.6,76.9,0,83.7,0h116.4c6.9,0,12.4,5.6,12.4,12.4
		v232.4C212.6,251.7,207,257.2,200.1,257.2z"/>
	<path class="st6" d="M191.8,257.2H75.4c-6.9,0-12.4-5.6-12.4-12.4V15.1c0-6.9,5.6-12.4,12.4-12.4h116.4c6.9,0,12.4,5.6,12.4,12.4
		v229.7C204.2,251.7,198.6,257.2,191.8,257.2z"/>
	<rect x="71.3" y="25.7" class="st9" width="125" height="208.5"/>
	<path class="st10" d="M181.2,163h-80.2c-5,0-9-4-9-9V73.8c0-5,4-9,9-9h80.2c5,0,9,4,9,9V154C190.3,159,186.2,163,181.2,163z"/>
	<path class="st8" d="M151.7,14.8h-37.2c-0.6,0-1-0.5-1-1v-0.5c0-0.6,0.5-1,1-1h37.2c0.6,0,1,0.5,1,1v0.5
		C152.7,14.4,152.3,14.8,151.7,14.8z"/>
	<path class="st11" d="M170.8,117.6v11.5c0,8.4-6.8,15.3-15.3,15.3h-9.2"/>
	<g>
		<ellipse class="st12" cx="240.1" cy="251.8" rx="34.1" ry="10"/>
		<ellipse class="st13" cx="240.1" cy="249.4" rx="28.2" ry="8.2"/>
		<rect x="211.9" y="237.7" class="st13" width="56.3" height="11.6"/>
		<ellipse class="st12" cx="240.1" cy="237.7" rx="28.2" ry="8.2"/>
		<path class="st14" d="M264.1,230.3v9c0,0.5-0.3,1-0.8,1.2c-5.1,2.2-13.6,3.6-23.2,3.6c-9.6,0-18.1-1.4-23.2-3.6
			c-0.5-0.2-0.8-0.7-0.8-1.2v-9c0-0.7,0.6-1.3,1.3-1.3h45.4C263.5,229,264.1,229.5,264.1,230.3z"/>
		<ellipse class="st13" cx="240.1" cy="233" rx="28.2" ry="8.2"/>
		<rect x="211.9" y="221.3" class="st13" width="56.3" height="11.6"/>
		<path class="st12" d="M268.2,221.3c0,1.6-1.5,3.1-4.2,4.3c-5,2.4-13.9,3.9-24,3.9c-10.2,0-19-1.6-24-3.9c-2.6-1.3-4.2-2.7-4.2-4.3
			c0-0.2,0-0.4,0.1-0.7c0.4-1.3,1.8-2.6,4.1-3.6c5-2.4,13.9-3.9,24-3.9c10.2,0,19.1,1.6,24,3.9c2.3,1.1,3.7,2.3,4.1,3.6
			C268.2,220.9,268.2,221.1,268.2,221.3z"/>
		<path class="st12" d="M264.1,215.7v8.6c-5,2.4-13.9,3.9-24,3.9c-10.2,0-19-1.6-24-3.9v-8.6c2.2-1,5.1-1.9,8.6-2.6
			c4.4-0.8,9.7-1.3,15.4-1.3c5.7,0,10.9,0.5,15.4,1.3C258.9,213.8,261.9,214.7,264.1,215.7z"/>
		<path class="st14" d="M264.1,214.3v9.3c0,0.5-0.3,0.9-0.7,1.1c-5.1,2.2-13.6,3.6-23.3,3.6c-9.7,0-18.2-1.4-23.3-3.6
			c-0.4-0.2-0.7-0.6-0.7-1.1v-9.3c0-0.7,0.5-1.2,1.2-1.2h45.6C263.5,213.1,264.1,213.6,264.1,214.3z"/>
		<ellipse class="st13" cx="240.1" cy="216.7" rx="28.2" ry="8.2"/>
		<rect x="211.9" y="205.1" class="st13" width="56.3" height="11.6"/>
		<ellipse class="st15" cx="240.1" cy="205.1" rx="28.2" ry="8.2"/>
		<circle class="st15" cx="252.7" cy="216.6" r="1.1"/>
		<circle class="st15" cx="259.9" cy="215.2" r="1.1"/>
		<circle class="st14" cx="256.3" cy="216.1" r="1.1"/>
		<circle class="st15" cx="252.7" cy="232" r="1.1"/>
		<circle class="st12" cx="259.9" cy="230.6" r="1.1"/>
		<circle class="st15" cx="256.3" cy="231.4" r="1.1"/>
		<circle class="st12" cx="252.7" cy="248.5" r="1.1"/>
		<circle class="st14" cx="259.9" cy="247" r="1.1"/>
		<circle class="st15" cx="256.3" cy="247.9" r="1.1"/>
	</g>
	<g>
		<ellipse class="st12" cx="42.1" cy="243.8" rx="34.1" ry="10"/>
		<ellipse class="st13" cx="42.1" cy="241.4" rx="28.2" ry="8.2"/>
		<rect x="13.9" y="229.7" class="st13" width="56.3" height="11.6"/>
		<ellipse class="st12" cx="42.1" cy="229.7" rx="28.2" ry="8.2"/>
		<path class="st14" d="M66.1,222.3v9c0,0.5-0.3,1-0.8,1.2c-5.1,2.2-13.6,3.6-23.2,3.6c-9.6,0-18.1-1.4-23.2-3.6
			c-0.5-0.2-0.8-0.7-0.8-1.2v-9c0-0.7,0.6-1.3,1.3-1.3h45.4C65.5,221,66.1,221.6,66.1,222.3z"/>
		<ellipse class="st13" cx="42.1" cy="225" rx="28.2" ry="8.2"/>
		<rect x="13.9" y="213.3" class="st13" width="56.3" height="11.6"/>
		<path class="st12" d="M70.3,213.3c0,1.6-1.5,3.1-4.2,4.3c-5,2.4-13.9,3.9-24,3.9c-10.2,0-19-1.6-24-3.9c-2.6-1.3-4.2-2.7-4.2-4.3
			c0-0.2,0-0.4,0.1-0.7c0.4-1.3,1.8-2.6,4.1-3.6c5-2.4,13.9-3.9,24-3.9c10.2,0,19.1,1.6,24,3.9c2.3,1.1,3.7,2.3,4.1,3.6
			C70.2,212.9,70.3,213.1,70.3,213.3z"/>
		<path class="st12" d="M66.1,207.7v8.6c-5,2.4-13.9,3.9-24,3.9c-10.2,0-19-1.6-24-3.9v-8.6c2.2-1,5.1-1.9,8.6-2.6
			c4.4-0.8,9.7-1.3,15.4-1.3c5.7,0,10.9,0.5,15.4,1.3C61,205.8,63.9,206.7,66.1,207.7z"/>
		<path class="st14" d="M66.1,206.3v9.3c0,0.5-0.3,0.9-0.7,1.1c-5.1,2.2-13.6,3.6-23.3,3.6c-9.7,0-18.2-1.4-23.3-3.6
			c-0.4-0.2-0.7-0.6-0.7-1.1v-9.3c0-0.7,0.5-1.2,1.2-1.2h45.6C65.6,205.1,66.1,205.6,66.1,206.3z"/>
		<ellipse class="st13" cx="42.1" cy="208.7" rx="28.2" ry="8.2"/>
		<rect x="13.9" y="197.1" class="st13" width="56.3" height="11.6"/>
		<ellipse class="st15" cx="42.1" cy="197.1" rx="28.2" ry="8.2"/>
		<circle class="st15" cx="54.8" cy="208.6" r="1.1"/>
		<circle class="st15" cx="62" cy="207.2" r="1.1"/>
		<circle class="st14" cx="58.4" cy="208.1" r="1.1"/>
		<circle class="st15" cx="54.8" cy="224" r="1.1"/>
		<circle class="st12" cx="62" cy="222.6" r="1.1"/>
		<circle class="st15" cx="58.4" cy="223.4" r="1.1"/>
		<circle class="st12" cx="54.8" cy="240.5" r="1.1"/>
		<circle class="st14" cx="62" cy="239" r="1.1"/>
		<circle class="st15" cx="58.4" cy="239.9" r="1.1"/>
	</g>
	<g>
		<path class="st10" d="M242.2,147.2c0,0-8.1,12.1-25.1,13.6c-0.6,8.1,0.3,27.5,25.1,42.6c10.7-6,21.6-13,26.6-42.6
			C262.3,159.7,250.7,158.5,242.2,147.2z"/>
		<path class="st16" d="M237.3,147.2c0,0-8.1,12.1-25.1,13.6c-0.6,8.1,0.3,27.5,25.1,42.6c10.7-6,21.6-13,26.6-42.6
			C257.3,159.7,245.7,158.5,237.3,147.2z"/>
		<polyline class="st17" points="225.9,173 232.1,181.7 250.1,168.8 		"/>
	</g>
	<circle class="st7" cx="40.3" cy="174" r="21.9"/>
	<circle class="st18" cx="39.3" cy="176.1" r="20.7"/>
	<polyline class="st17" points="28.4,173.9 34.6,182.6 52.6,169.7 	"/>
	<path class="st7" d="M173.9,154.4H93.7c-5,0-9-4-9-9V65.2c0-5,4-9,9-9h80.2c5,0,9,4,9,9v80.2C182.9,150.4,178.9,154.4,173.9,154.4z
		"/>
	<path class="st11" d="M146.1,65.8h9.4c8.4,0,15.3,6.8,15.3,15.3v12.7"/>
	<path class="st11" d="M96,92.8V81.1c0-8.4,6.8-15.3,15.3-15.3h11.5"/>
	<path class="st11" d="M121.9,144.4h-10.7c-8.4,0-15.3-6.8-15.3-15.3v-11.3"/>
	<path class="st11" d="M145.1,144.4h10.7c8.4,0,15.3-6.8,15.3-15.3v-11.3"/>
	<path class="st8" d="M143.9,250h-21.6c-2.1,0-3.8-1.7-3.8-3.8v-1.8c0-2.1,1.7-3.8,3.8-3.8h21.6c2.1,0,3.8,1.7,3.8,3.8v1.8
		C147.7,248.3,146,250,143.9,250z"/>
	<g>
		<g>
			<path class="st6" d="M150.7,188.5c0-1.2-1-2.2-2.3-2.2l-17.3,0.2c-1.4,0-2.5,1.1-2.5,2.4v11.3c0,1.3,1.1,2.3,2.5,2.2l17.3-0.2
				c1.3-0.1,2.3-1.1,2.3-2.3L150.7,188.5z M141.3,194.8c-0.3,0.2-0.5,0.5-0.4,0.9l0.5,2.8c0.1,0.4-0.2,0.7-0.6,0.7l-1.3,0
				c-0.4,0-0.7-0.3-0.6-0.7l0.5-2.9c0.1-0.3-0.1-0.7-0.4-0.8c-0.7-0.4-1.2-1.1-1.1-2c0.1-1.1,1-2.1,2.2-2.1c1.3-0.1,2.4,0.9,2.4,2.2
				C142.4,193.6,141.9,194.3,141.3,194.8z"/>
			<path class="st6" d="M148.6,185.2c-0.5,0-1-0.4-1-0.9l0-2.5c0-2.5-2-4.5-4.6-4.5l-5.8-0.1c-2.6,0-4.8,2-4.8,4.6l0,2.5
				c0,0.5-0.5,1-1,1c-0.6,0-1-0.4-1-1l0-2.6c0-3.7,3.1-6.6,6.9-6.5l5.8,0.1c3.6,0.1,6.5,3,6.5,6.5l0,2.5
				C149.5,184.8,149.1,185.2,148.6,185.2z"/>
		</g>
		<g>
			<path class="st19" d="M149.4,188.5c0-1.2-1-2.2-2.3-2.2l-17.3,0.2c-1.4,0-2.5,1.1-2.5,2.4v11.3c0,1.3,1.1,2.3,2.5,2.2l17.3-0.2
				c1.3-0.1,2.3-1.1,2.3-2.3L149.4,188.5z M140,194.8c-0.3,0.2-0.5,0.5-0.4,0.9l0.5,2.8c0.1,0.4-0.2,0.7-0.6,0.7l-1.3,0
				c-0.4,0-0.7-0.3-0.6-0.7l0.5-2.9c0.1-0.3-0.1-0.7-0.4-0.8c-0.7-0.4-1.2-1.1-1.1-2c0.1-1.1,1-2.1,2.2-2.1c1.3-0.1,2.4,0.9,2.4,2.2
				C141.1,193.6,140.7,194.3,140,194.8z"/>
			<path class="st19" d="M147.3,185.2c-0.5,0-1-0.4-1-0.9l0-2.5c0-2.5-2-4.5-4.6-4.5l-5.8-0.1c-2.6,0-4.8,2-4.8,4.6l0,2.5
				c0,0.5-0.5,1-1,1c-0.6,0-1-0.4-1-1l0-2.6c0-3.7,3.1-6.6,6.9-6.5l5.8,0.1c3.6,0.1,6.5,3,6.5,6.5l0,2.5
				C148.3,184.8,147.9,185.2,147.3,185.2z"/>
		</g>
	</g>
	<g>
		<path class="st19" d="M109.1,98.3c-0.1-3,0-6,1.5-8.8c3.5-6.9,9.8-10.9,18.8-12.1c5.6-0.7,10.8,0.3,15.6,2.7
			c1.4,0.7,1.8,1.6,1.2,2.4c-0.6,0.8-1.7,0.8-3.1,0.1c-10.5-5.1-23.8-1.9-28.7,7.2c-1,1.9-1.2,4.2-1.6,6.3c-0.3,1.9-0.2,3.8-0.2,5.8
			c0,1-0.5,1.7-1.7,1.8c-1.1,0.1-1.8-0.7-1.8-1.9C109.1,100.7,109.1,99.5,109.1,98.3z"/>
		<path class="st19" d="M116.3,105.1c0-3.2-0.1-6.4,0-9.5c0.1-1.4,0.6-2.8,1.1-4.1c0.3-0.9,1.2-1.4,2.4-1c1.2,0.3,1.2,1.1,1,2
			c-0.4,1.9-0.9,3.8-1,5.7c-0.1,5.2-0.1,10.4,0,15.5c0,5.3,4,9.3,10.2,10.4c0.7,0.1,1.4,0.1,2.1,0.2c1.4,0.1,2.2,0.7,2.1,1.7
			c-0.1,0.9-1,1.4-2.3,1.4c-8.5-0.2-15.6-6-15.7-12.9C116.3,111.3,116.3,108.2,116.3,105.1C116.3,105.1,116.3,105.1,116.3,105.1z"/>
		<path class="st19" d="M109.1,115c0-0.2,0-0.4,0-0.6c0-1.1,0.7-1.9,1.7-1.8c1.2,0.1,1.7,0.7,1.8,1.7c0.2,3.7,1.5,7,4.4,9.9
			c6.3,6.3,17.4,8,25.9,3.7c0.2-0.1,0.4-0.2,0.6-0.3c1-0.4,2-0.5,2.7,0.4c0.6,0.9,0.2,1.6-0.8,2.1c-2.8,1.5-5.9,2.5-9.2,2.9
			c-11.4,1.3-21.8-3.7-25.8-12.5c-0.8-1.7-1.1-3.6-1.6-5.5C108.9,115,109,115,109.1,115z"/>
		<path class="st19" d="M132.7,139.2c-12.6-0.1-24-6.3-28.5-15.4c-0.5-1-0.2-1.9,0.8-2.2c1.1-0.3,2,0,2.5,0.9
			c0.1,0.2,0.3,0.5,0.4,0.7c2.6,4.6,6.6,8.1,12.1,10.4c7,2.9,14.3,3.3,21.7,1.2c0.5-0.1,1-0.3,1.5-0.4c1.1-0.2,2,0,2.3,0.9
			c0.3,0.9-0.2,1.6-1.2,1.8c-2.7,0.6-5.5,1.2-8.2,1.7C134.9,139.1,133.6,139.1,132.7,139.2z"/>
		<path class="st19" d="M148.8,102.3c0,2.3,0,4.6,0,7c0,1.2-0.7,1.9-1.8,1.8c-1.3-0.1-1.7-0.8-1.7-1.8c0-4.2,0-8.4,0-12.6
			c0-5.2-4-9.3-10.1-10.4c-2.3-0.4-4.7-0.3-7,0.4c-1.6,0.5-2.5,0.2-2.9-0.7c-0.4-0.9,0.1-1.6,1.7-2.1c10.3-3.2,21.7,3.1,21.8,12.1
			C148.8,98.1,148.8,100.2,148.8,102.3C148.8,102.3,148.8,102.3,148.8,102.3z"/>
		<path class="st19" d="M163.3,98.7c0,2.1,0,3.6,0,5.1c0,1.2-0.6,1.8-1.8,1.7c-1.4-0.1-1.7-0.8-1.7-1.8c-0.1-3.6,0-7.2-0.6-10.7
			c-1.3-7.4-6-13-14.4-16.4c-0.6-0.2-1.1-0.4-1.7-0.7c-1-0.5-1.4-1.1-0.8-2c0.5-0.8,1.4-1,2.5-0.6c6,2.1,10.8,5.4,14.2,10
			C162.5,88.3,163.6,93.7,163.3,98.7z"/>
		<path class="st19" d="M101.9,97.6c-0.4-6.2,1.8-12.1,7-17.2c2.9-2.9,6.6-5.2,10.8-6.8c1.7-0.6,2.7-0.5,3.3,0.4
			c0.5,0.9,0,1.6-1.7,2.3c-5.2,2-9.2,5-12.1,9c-2.5,3.5-3.6,7.3-3.7,11.3c0,1.8,0,3.6,0,5.4c0,1-0.6,1.6-1.7,1.7
			c-1,0.1-1.8-0.7-1.8-1.7C101.8,100.7,101.9,99.4,101.9,97.6z"/>
		<path class="st19" d="M123.6,102.5c0-2.2-0.1-4.5,0-6.7c0.1-3.6,4.5-6.9,9.1-6.8c4.7,0.1,8.8,3.4,8.8,7c0,1.1-0.6,1.9-1.7,1.8
			c-1.2-0.1-1.7-0.6-1.9-1.6c-0.4-2.4-2.1-3.9-4.5-4.2c-2.5-0.3-4.8,0.6-5.7,2.4c-0.4,0.8-0.6,1.7-0.6,2.6c-0.1,4.1,0,8.2,0,12.3
			c0,1.1-0.7,1.8-1.8,1.8c-1.2-0.1-1.8-0.7-1.8-1.7C123.6,107.1,123.6,104.8,123.6,102.5C123.6,102.5,123.6,102.5,123.6,102.5z"/>
		<path class="st19" d="M156.2,107.4c-0.1,3.3-0.1,6.7-0.5,10c-0.3,2.6-1.6,4.9-3.3,7.1c-0.7,0.8-1.4,1.3-2.6,0.8
			c-1-0.5-1.2-1.3-0.4-2.3c2.4-3,3.3-6.4,3.3-10c0-4.7,0-9.4,0-14c0-0.5,0.5-1.3,1.1-1.6c0.4-0.2,1.4,0.1,1.9,0.4
			c0.3,0.2,0.4,0.8,0.4,1.3c0,2.8,0,5.6,0,8.4C156.1,107.4,156.1,107.4,156.2,107.4z"/>
		<path class="st19" d="M141.6,110.2c0,1.4,0,2.7,0,4.1c-0.1,3.3-2.9,6.2-6.8,6.9c-4.1,0.8-8.3-0.7-10.2-3.7c-0.7-1.2-0.6-2,0.5-2.4
			c1-0.5,1.8-0.2,2.7,1c1.5,2,3.7,2.8,6.2,2.3c2.4-0.5,4.1-2.3,4.1-4.6c0-2.7,0-5.4,0-8.1c0-1.3,0.6-1.9,1.8-1.8
			c1.4,0.1,1.7,0.8,1.7,1.8C141.5,107.1,141.6,108.6,141.6,110.2C141.6,110.2,141.6,110.2,141.6,110.2z"/>
		<path class="st19" d="M163.3,114.2c-0.1,7.5-3.6,13.7-10.4,18.7c-0.1,0.1-0.2,0.2-0.3,0.2c-0.9,0.6-1.9,0.9-2.8,0.1
			c-0.9-0.8-0.5-1.6,0.3-2.3c1.4-1.2,3-2.4,4.2-3.7c3.8-4,5.4-8.7,5.5-13.7c0-0.6,0-1.3,0-1.9c0.1-0.8,0.8-1.4,1.8-1.2
			c0.6,0.1,1.4,0.7,1.6,1.2C163.4,112.5,163.3,113.4,163.3,114.2z"/>
		<path class="st19" d="M130.8,105.2c0-2.8,0-5.6,0-8.5c0-1.2,0.8-2,1.8-1.8c1.3,0.1,1.7,0.8,1.7,1.8c0,5.6,0,11.3,0,16.9
			c0,1.2-0.8,2-1.8,1.8c-1.3-0.1-1.7-0.8-1.7-1.8C130.8,110.9,130.8,108,130.8,105.2z"/>
		<path class="st19" d="M155.7,93.1c-0.4,0.3-0.9,1-1.5,1.1c-0.6,0.1-1.7-0.4-1.9-0.8c-1.2-2.1-2.3-4.2-3.3-6.3
			c-0.2-0.5,0.2-1.4,0.7-1.7c0.5-0.3,1.8-0.2,2.1,0.2C153.9,87.6,155,90.1,155.7,93.1z"/>
		<path class="st19" d="M142.7,124.1c-0.6-0.4-1.3-0.7-1.4-1.1c-0.2-0.5,0-1.1,0.3-1.6c0.8-1.1,1.8-2.1,2.6-3.2
			c0.4-0.6,0.6-1.3,0.8-2c0.4-0.8,1-1.4,2.2-1.1c1.2,0.2,1.6,1,1.3,1.9c-0.7,2.4-2.1,4.5-4.2,6.3
			C143.9,123.6,143.3,123.7,142.7,124.1z"/>
		<path class="st19" d="M105.4,111.1c0,0.9,0,1.9,0,2.8c0,1-0.6,1.5-1.7,1.6c-1.1,0-1.8-0.5-1.8-1.5c0-2,0-3.9,0-5.9
			c0-0.9,0.7-1.4,1.7-1.4c1.1,0,1.8,0.5,1.8,1.5C105.4,109.2,105.4,110.2,105.4,111.1z"/>
		<path class="st19" d="M132.6,74.4c-1,0-1.9,0-2.9,0c-1.1,0-1.7-0.4-1.8-1.3c-0.1-0.9,0.6-1.5,1.7-1.5c2,0,4,0,6,0
			c1.1,0,1.7,0.6,1.6,1.5c0,0.9-0.7,1.3-1.8,1.4C134.5,74.4,133.6,74.4,132.6,74.4C132.6,74.4,132.6,74.4,132.6,74.4z"/>
		<path class="st19" d="M112.6,107.8c0,1.2-0.8,2-1.8,1.9c-1-0.1-1.7-0.5-1.7-1.4c0-0.8,0.8-1.6,1.8-1.5
			C111.9,106.8,112.6,107.2,112.6,107.8z"/>
	</g>
	<g id="female_2_">
		<path class="st20" d="M57.3,88.9l-2.1,8.6l-0.4,1.6c-0.4,2-13.9,1.2-12.9-1.2l0.8-1.8l4.1-9.1L57.3,88.9z"/>
		<g>
			<g>
				<path class="st20" d="M65.2,76.1c0.1,9.4-4.2,17-11,16.9c-6.8,0-13.4-5.8-13.6-17C40.5,68.8,46.2,63,53,63
					C59.8,63.1,65.1,68.9,65.2,76.1z"/>
			</g>
			<path d="M53.2,60.5c0,0,13.5,0.7,14.7,10.9c1.5,9-5.2,2.4-8,8.4c-3.2,6.9,0.1,12,4.2,13.4c-3.6,5.1-24.5,4.9-29.9-4
				C30.4,77.9,35.6,61.1,53.2,60.5z"/>
			<path class="st20" d="M62.7,79.4c0.1,1.4-0.9,2.6-2.3,2.7c-1.4,0.1-2.6-0.9-2.7-2.3c-0.1-1.4,0.9-2.6,2.3-2.7
				C61.3,77,62.5,78,62.7,79.4z"/>
		</g>
		<path class="st1" d="M60.6,253.4c0.6-0.7,3.6-0.7,3.9,0.3c0.3,1-0.3,1.7,1,3.3c-0.7,0.2-3.3,0.2-4.1,0
			C60.6,256.8,60,254.1,60.6,253.4z"/>
		<path class="st21" d="M55.6,256.8h7.3c0.7-30.9,0.6-64.5,0.3-89.8c-0.1-9.1-0.3-13.6-2-19.1c-3.3-11-18.9-7.6-20,2.4
			c-0.5,5.5-0.8,16.3,9.4,52.9C46.2,219.4,53.9,238.7,55.6,256.8z"/>
		<path class="st1" d="M67,257.3c-1.1-0.1-3.6-1.1-4.1-1.8c-0.7,0.8-2.1,1-3.9,0.7c-2.1-0.3-2.3-1.3-3.8-1.1
			c-0.6,1.7-2.2,5.6-0.7,6.6c0,0,8.7,0,15.3,0C71.3,260.4,71.2,257.7,67,257.3z"/>
		<g>
			<path class="st1" d="M23.5,254.2c0.5-0.6,3-0.6,3.3,0.3c0.2,0.8-0.2,1.4,0.8,2.8c-0.6,0.2-2.8,0.2-3.4,0
				C23.5,257,22.9,254.8,23.5,254.2z"/>
			<path class="st21" d="M47.5,150c-1.5-11.4-21.7-10.2-23.1-0.3c-0.5,5.3-2,13.4,1.8,53.1c-8,15.2-5.8,36.9-8.2,52.9
				c-0.3,2.4,6.6,3,7.2,0.8c7.4-29.7,17.6-63,21.4-87.7C48.1,159.9,48.2,155.7,47.5,150z"/>
			<path class="st1" d="M28.9,256.8c-1.1-0.1-2.7-1.5-3.1-2.2c-0.7,0.8-2,1.8-3.8,1.6c-2.1-0.3-2.3-1.3-3.8-1.1
				c-0.6,1.7-2.2,5.6-0.7,6.6c0,0,8.3,0,14.9,0C33.7,260.4,33.1,257.2,28.9,256.8z"/>
		</g>
		<g>
			<path class="st20" d="M121,93.2l-1.8-3.4c-1.9,0.6-5,1.2-8.4,2.2l2.4,5.9C116.5,96.1,119.2,94.4,121,93.2z"/>
			<path class="st1" d="M110.9,92c-6.8,1.6-19.2,3.3-21.8,4l-31,3.7c-5.6,2.2-3.8,15.3,5.1,14.8c0,0,42.8-12.3,50.1-16.5L110.9,92z"
				/>
			<g>
				<path class="st20" d="M125,93.9c1.5-2.2-0.1-5.7-0.2-6l-5.4,1.8c-2.7,0.8-1.9,4.2,0.8,4.9C120.2,94.6,123.5,95.9,125,93.9z"/>
				<path class="st20" d="M124.7,89.9c5.6-2.8,4.5-3.8,4.5-3.8s-2.1,0.7-5.6,2.3C121.6,89.3,123.3,90.4,124.7,89.9z"/>
			</g>
		</g>
		<path id="XMLID_1_" class="st1" d="M63.1,116.1c1.3-6.2,2-12.4-4.5-16.2c-3.8-2.3-16-3.9-21.8-2c-5.8,2.6-4.5,13.8-5.6,31.5
			c-4,8.9-5.7,11.8-6.9,20.4c0,0,2.1,6.5,17.1,6.5c6.8,0,16.8-0.6,21.4-4.1c-0.5-5.9-2.9-11.5-3.9-19.9
			C58.9,132.3,63,116.8,63.1,116.1z"/>
		<g>
			<g>
				<path class="st1" d="M33.8,99.1c-7,5.4-13.9,13.8-17.1,18.3c-3.2,4.5-11.6,22.5-11.6,22.5l5.3,3.9l14.4-19.7l17.6-14.5
					C48.6,103.4,40.6,93.9,33.8,99.1z"/>
				<path class="st20" d="M2.8,144.4l3.5-7.1c0.8,2.1,4.8,4.1,5.9,4.1c0,0-3.7,5.4-4.6,6.3C6.7,148.5,2.9,147,2.8,144.4z"/>
			</g>
			<g>
				<path class="st20" d="M8.4,146.4c0,0.1,0,0.1,0,0.2c-0.2,2.6-2.2,3.8-2.7,4.1c0,0-0.1,0-0.1,0.1c1.9-0.4,2.4,2.1,1.5,2.7
					c-2.8,1.9-6.7-0.7-7-2.3c-0.3-1.6,2.8-6.8,2.8-6.8C4.4,143.1,8.6,143.3,8.4,146.4z"/>
				<path class="st22" d="M8.4,146.6c-0.1,2.9-2.8,4.1-2.8,4.2c-1.6,0-2.1-0.1-3.6-0.1c1-0.5,2.9-1.7,2.2-4.2
					C5.7,145.3,8,146.3,8.4,146.6z"/>
				<path class="st20" d="M8.5,146.2c0.4,2.4,0.2,5.9-0.3,7.4c0,0-1.5,0.1-1.3-2.7c0-0.7-0.1-2.3-0.8-2.8c-2.2-1.5-2.6-2.8-1.8-3.9
					C5.3,142.7,8.4,144.2,8.5,146.2z"/>
				<path class="st20" d="M1.6,152.9c1.2,0.8,4.4,2.5,4.9,2.1c0.5-0.4-2.1-3.1-3.7-3.5C1.1,151.1,1,152.4,1.6,152.9z"/>
			</g>
		</g>
	</g>
</g>
</svg>
