<?xml version="1.0" encoding="utf-8"?>
<!-- Generator: Adobe Illustrator 26.1.0, SVG Export Plug-In . SVG Version: 6.00 Build 0)  -->
<svg version="1.1" id="Layer_1" xmlns="http://www.w3.org/2000/svg" xmlns:xlink="http://www.w3.org/1999/xlink" x="0px" y="0px"
	 viewBox="0 0 552.4 512.89" style="enable-background:new 0 0 552.4 512.89;" xml:space="preserve">
<g>
	<g>
		<path style="fill:#1F65CF;" d="M549.46,311.96l-0.03,0.02l-2.19,0.62l-5.34,1.58c-2.33-7.93-6.25-15.54-11.8-22.35l6.12-4.98
			c-6.12-7.51-13.45-13.49-21.48-17.82l-3.77,6.92c-7.52-4.13-15.75-6.61-24.14-7.49l0.8-7.82c-5.39-0.55-10.85-0.5-16.26,0.17
			c-3.88,0.47-7.73,1.28-11.52,2.39l2.22,7.56c-7.93,2.33-15.54,6.25-22.35,11.79l-4.98-6.12c-7.51,6.11-13.49,13.44-17.82,21.48
			l6.92,3.77c-4.13,7.52-6.61,15.75-7.49,24.13l-7.82-0.8c-0.97,9.27-0.11,18.71,2.57,27.78l0.07-0.02l4.97-1.46l2.52-0.74
			c2.33,7.93,6.27,15.56,11.8,22.35l-6.12,4.98c6.12,7.51,13.43,13.47,21.44,17.82l3.77-6.92c7.55,4.11,15.79,6.62,24.18,7.5
			l-0.8,7.82c1.53,0.16,3.06,0.26,4.59,0.32c7.76,0.31,15.59-0.63,23.16-2.87l-0.49-1.69l-1.74-5.87
			c7.93-2.33,15.56-6.27,22.38-11.81l4.98,6.12c7.51-6.11,13.47-13.43,17.8-21.46l-6.92-3.77c4.13-7.52,6.63-15.77,7.51-24.15
			l7.83,0.8C552.97,330.49,552.14,321.04,549.46,311.96z M466.32,343.75c-6.28-7.72-5.12-19.06,2.6-25.34
			c2.58-2.1,5.56-3.37,8.63-3.84c6.11-0.94,12.54,1.29,16.72,6.43c2.99,3.67,4.29,8.15,4.01,12.52c-0.31,4.84-2.56,9.54-6.62,12.84
			C483.95,352.64,472.61,351.48,466.32,343.75z"/>
	</g>
	<g>
		<path style="fill:none;stroke:#9FD1FC;stroke-width:2.4056;stroke-miterlimit:10;" d="M61.5,172.11c2.5,3.07,5.49,5.5,8.76,7.28
			l1.54-2.83c3.08,1.68,6.45,2.7,9.88,3.06l-0.33,3.2c3.78,0.39,7.63,0.05,11.34-1.04l-0.2-0.69l-0.71-2.4
			c3.24-0.95,6.36-2.56,9.14-4.83l2.04,2.5c3.07-2.5,5.5-5.49,7.27-8.77l-2.83-1.54c1.69-3.07,2.71-6.44,3.07-9.87l3.2,0.33
			c0.39-3.78,0.05-7.64-1.05-11.35l-0.01,0.01l-0.89,0.26l-2.18,0.64c-0.95-3.24-2.55-6.35-4.82-9.13l2.5-2.04
			c-2.5-3.07-5.49-5.51-8.78-7.28l-1.54,2.83c-3.07-1.69-6.43-2.7-9.86-3.06l0.33-3.2c-3.78-0.39-7.64-0.05-11.35,1.05l0.91,3.09
			c-3.24,0.95-6.35,2.55-9.13,4.82l-2.04-2.5c-3.07,2.5-5.51,5.49-7.28,8.78l2.83,1.54c-1.69,3.07-2.7,6.43-3.06,9.86l-3.2-0.33
			c-0.4,3.79-0.05,7.64,1.05,11.35l0.03-0.01l2.03-0.6l1.03-0.3c0.95,3.24,2.56,6.36,4.82,9.13L61.5,172.11z M74.33,161.67
			c-4.51-5.54-3.67-13.68,1.87-18.18c5.54-4.51,13.69-3.68,18.19,1.86c4.51,5.54,3.68,13.69-1.87,18.2
			C86.99,168.05,78.85,167.21,74.33,161.67z"/>
	</g>
	<g>
		<g>
			<g>
				<path style="fill:#48C6AA;" d="M198.93,45.27c0.82,3.13,2.22,5.96,4.05,8.39l2.11-1.58c1.72,2.3,3.88,4.2,6.31,5.63l-1.33,2.27
					c2.68,1.57,5.66,2.63,8.79,3.07l0.09-0.58l0.29-2.03c2.73,0.39,5.6,0.25,8.44-0.49l0.67,2.55c3.13-0.82,5.96-2.22,8.39-4.06
					l-1.58-2.11c2.3-1.72,4.2-3.87,5.63-6.3l2.27,1.33c1.57-2.68,2.63-5.67,3.07-8.8l-0.01,0l-0.75-0.11l-1.84-0.26
					c0.39-2.73,0.25-5.59-0.49-8.43l2.55-0.67c-0.82-3.13-2.22-5.97-4.06-8.4l-2.11,1.58c-1.72-2.3-3.87-4.19-6.3-5.62l1.33-2.27
					c-2.68-1.57-5.67-2.63-8.8-3.07l-0.37,2.61c-2.73-0.39-5.59-0.25-8.43,0.49l-0.67-2.55c-3.13,0.82-5.97,2.22-8.4,4.06l1.58,2.11
					c-2.3,1.72-4.19,3.87-5.62,6.3l-2.27-1.33c-1.58,2.68-2.63,5.67-3.07,8.8l0.02,0l1.72,0.24l0.87,0.12
					c-0.39,2.74-0.25,5.6,0.49,8.43L198.93,45.27z"/>
			</g>
			<g>
				<g>
					<g>
						<g>
							<path style="fill:#D9FFFF;" d="M231.78,30.81L231.78,30.81c0-0.03,0-0.05,0-0.05C231.78,30.76,231.78,30.81,231.78,30.81z"/>
							<path style="fill:#D9FFFF;" d="M231.78,30.81L231.78,30.81c0-0.03,0-0.05,0-0.05C231.78,30.76,231.78,30.81,231.78,30.81z"/>
							<path style="fill:#D9FFFF;" d="M212.12,31.03c0,0,0-0.04,0-0.05C212.12,30.98,212.12,30.99,212.12,31.03L212.12,31.03z"/>
							<path style="fill:#D9FFFF;" d="M212.12,31.03c0,0,0-0.04,0-0.05C212.12,30.98,212.12,30.99,212.12,31.03L212.12,31.03z"/>
							<path style="fill:#FFFFFF;" d="M212.14,31.61c0.01,0.88,0.03,2.96,0.09,7.77c0.1,8.86,8.7,13.12,9.98,13.7
								c1.31-0.67,9.75-5.06,9.65-13.91c-0.05-4.45-0.07-6.56-0.08-7.55l-9.8-4.01L212.14,31.61z"/>
						</g>
					</g>
				</g>
				<g>
					<path style="fill:#48C6AA;" d="M217.99,38.05l0.04,5.81c0,0.65,7.94,0.6,7.94-0.05L225.93,38L217.99,38.05z M220.99,40.22
						c0-0.54,0.43-0.98,0.97-0.98c0.54,0,0.99,0.43,0.99,0.97c0,0.39-0.23,0.74-0.57,0.89l0.01,1.65c0,0.22-0.18,0.4-0.4,0.4
						c-0.22,0-0.4-0.18-0.4-0.4l-0.01-1.65C221.23,40.96,221,40.62,220.99,40.22z"/>
					<path style="fill:#48C6AA;" d="M218.68,37.63l0.8-0.01l0-0.39c-0.01-1.36,1.09-2.47,2.45-2.48c1.36-0.01,2.48,1.09,2.49,2.44
						l0,0.39l0.8-0.01l0-0.39c-0.01-1.8-1.49-3.25-3.3-3.24c-1.81,0.01-3.26,1.48-3.25,3.28L218.68,37.63z"/>
				</g>
			</g>
		</g>
		<g id="cloud_4_">
			<path style="fill:#C9F5FF;" d="M208.67,55.88c0.22-1.65,0.38-3.33,0.38-5.04c0-20.63-16.72-37.35-37.35-37.35
				c-15.48,0-28.75,9.41-34.42,22.82c-4.61-4.11-10.67-6.62-17.33-6.62c-14.41,0-26.1,11.69-26.1,26.1h-4.87
				c-13.86,0-25.2,11.34-25.2,25.2v0c0,13.86,11.34,25.2,25.2,25.2h117.83c13.86,0,25.2-11.34,25.2-25.2v0
				C232.01,67.75,221.67,56.84,208.67,55.88z"/>
		</g>
		<g>
			
				<rect x="139.21" y="47.78" transform="matrix(-1 -1.224647e-16 1.224647e-16 -1 331.2997 143.4046)" style="fill:#453B73;" width="52.89" height="47.84"/>
			<g>
				<rect x="136.97" y="47.78" style="fill:#48C6C6;" width="57.37" height="14.44"/>
				<g>
					
						<rect x="186.23" y="51.46" transform="matrix(-1 -1.224647e-16 1.224647e-16 -1 378.1253 110.5777)" style="fill:#453B73;" width="5.67" height="7.65"/>
					
						<rect x="177.72" y="51.46" transform="matrix(-1 -1.224647e-16 1.224647e-16 -1 361.109 110.5777)" style="fill:#453B73;" width="5.67" height="7.65"/>
					
						<rect x="169.21" y="51.46" transform="matrix(-1 -1.224647e-16 1.224647e-16 -1 344.0927 110.5777)" style="fill:#453B73;" width="5.67" height="7.65"/>
				</g>
			</g>
			<g>
				<rect x="136.97" y="64.93" style="fill:#48C6C6;" width="57.37" height="14.44"/>
				<g>
					
						<rect x="186.23" y="68.61" transform="matrix(-1 -1.224647e-16 1.224647e-16 -1 378.1253 144.874)" style="fill:#453B73;" width="5.67" height="7.65"/>
					
						<rect x="177.72" y="68.61" transform="matrix(-1 -1.224647e-16 1.224647e-16 -1 361.109 144.874)" style="fill:#453B73;" width="5.67" height="7.65"/>
					
						<rect x="169.21" y="68.61" transform="matrix(-1 -1.224647e-16 1.224647e-16 -1 344.0927 144.874)" style="fill:#453B73;" width="5.67" height="7.65"/>
				</g>
			</g>
			<g>
				<rect x="136.97" y="82.08" style="fill:#48C6C6;" width="57.37" height="14.44"/>
				<g>
					
						<rect x="186.23" y="85.76" transform="matrix(-1 -1.224647e-16 1.224647e-16 -1 378.1253 179.1704)" style="fill:#453B73;" width="5.67" height="7.65"/>
					
						<rect x="177.72" y="85.76" transform="matrix(-1 -1.224647e-16 1.224647e-16 -1 361.109 179.1704)" style="fill:#453B73;" width="5.67" height="7.65"/>
					
						<rect x="169.21" y="85.76" transform="matrix(-1 -1.224647e-16 1.224647e-16 -1 344.0927 179.1704)" style="fill:#453B73;" width="5.67" height="7.65"/>
				</g>
			</g>
		</g>
		<g>
			<g>
				<rect x="116.45" y="65.33" style="fill:#5C5099;" width="8.83" height="16.85"/>
				<polygon style="fill:#5C5099;" points="120.93,88.16 113.12,78.88 128.63,78.88 				"/>
			</g>
			<g>
				
					<rect x="102.59" y="71.41" transform="matrix(-1 -1.224647e-16 1.224647e-16 -1 214.0089 159.6824)" style="fill:#5C5099;" width="8.83" height="16.85"/>
				<polygon style="fill:#5C5099;" points="106.94,65.44 114.76,74.72 99.25,74.72 				"/>
			</g>
		</g>
	</g>
	<g id="cloud_3_">
		<path style="fill:#C9F5FF;" d="M312.71,65.32c0.06-0.48,0.11-0.96,0.11-1.46c0-5.98-4.85-10.83-10.83-10.83
			c-4.49,0-8.33,2.73-9.98,6.61c-1.34-1.19-3.09-1.92-5.02-1.92c-4.18,0-7.56,3.39-7.56,7.56h-1.41c-4.02,0-7.3,3.29-7.3,7.3v0
			c0,4.02,3.29,7.3,7.3,7.3h34.15c4.02,0,7.3-3.29,7.3-7.3v0C319.47,68.77,316.47,65.6,312.71,65.32z"/>
	</g>
	<g>
		<g>
			<path style="fill:#9FD1FC;" d="M471.16,333.53l-6.29-0.7l-15.43-1.57c2.35-22.88,0.27-46.58-6.83-69.97l21.01-6.38
				c-7.83-25.78-20.42-48.9-36.55-68.51l-16.99,13.86c-15.02-18.55-33.59-33.6-54.26-44.7l10.3-19.3
				c-22.82-12.18-48.05-19.99-74.24-22.64l-2.24,21.8c-13.23-1.36-26.74-1.24-40.31,0.48c-9.88,1.25-19.8,3.35-29.66,6.35
				l-6.38-21.01c-4.37,1.33-8.67,2.79-12.89,4.39c-20.64,7.81-39.34,18.76-55.62,32.15l13.85,17
				c-17.97,14.55-32.66,32.43-43.65,52.32c-0.36,0.64-0.71,1.29-1.05,1.93l-3.62-1.93l-15.67-8.37c-1.48,2.76-2.89,5.55-4.24,8.37
				c-9.82,20.57-16.07,42.85-18.4,65.87l0.18,0.03l14.35,1.46l7.27,0.75c-0.43,4.24-0.72,8.51-0.84,12.8
				c-0.27,9.27,0.18,18.64,1.4,28.03c1.26,9.73,3.34,19.48,6.28,29.15l-15.47,4.7l-5.54,1.68c1.64,5.41,3.49,10.69,5.54,15.84
				c3.19,8.05,6.86,15.78,10.96,23.18c5.82,10.5,12.51,20.33,19.94,29.43l17-13.85c15.1,18.53,33.69,33.65,54.36,44.75l-10.3,19.3
				c22.82,12.18,47.97,20.02,74.15,22.66l0.53-4.85l1.71-16.95c22.88,2.35,46.66,0.25,70.05-6.86l6.38,21.01
				c25.78-7.83,48.82-20.39,68.43-36.52l-13.86-17c18.55-15.02,33.68-33.61,44.78-54.28l19.3,10.3
				c12.18-22.82,19.99-48.05,22.64-74.24L471.16,333.53z M362.01,348.61c-10.46,26.69-32.6,48.5-62.19,57.48
				c-51.24,15.57-105.39-13.35-120.99-64.67c-2.06-6.77-3.34-13.59-3.89-20.37c-3.64-44.51,24.01-87.08,68.48-100.59
				c12.69-3.85,25.55-4.99,37.95-3.74c16.02,1.61,31.29,7.2,44.46,16.05c17.88,12.01,31.88,30.03,38.63,52.25
				C371.07,306.76,369.7,329.01,362.01,348.61z M471.16,333.53l-6.29-0.7l-15.43-1.57c2.35-22.88,0.27-46.58-6.83-69.97l21.01-6.38
				c-7.83-25.78-20.42-48.9-36.55-68.51l-16.99,13.86c-15.02-18.55-33.59-33.6-54.26-44.7l10.3-19.3
				c-22.82-12.18-48.05-19.99-74.24-22.64l-2.24,21.8c-13.23-1.36-26.74-1.24-40.31,0.48c-9.88,1.25-19.8,3.35-29.66,6.35
				l-6.38-21.01c-4.37,1.33-8.67,2.79-12.89,4.39c-20.64,7.81-39.34,18.76-55.62,32.15l13.85,17
				c-17.97,14.55-32.66,32.43-43.65,52.32c-0.36,0.64-0.71,1.29-1.05,1.93l-3.62-1.93l-15.67-8.37c-1.48,2.76-2.89,5.55-4.24,8.37
				c-9.82,20.57-16.07,42.85-18.4,65.87l0.18,0.03l14.35,1.46l7.27,0.75c-0.43,4.24-0.72,8.51-0.84,12.8
				c-0.27,9.27,0.18,18.64,1.4,28.03c1.26,9.73,3.34,19.48,6.28,29.15l-15.47,4.7l-5.54,1.68c1.64,5.41,3.49,10.69,5.54,15.84
				c3.19,8.05,6.86,15.78,10.96,23.18c5.82,10.5,12.51,20.33,19.94,29.43l17-13.85c15.1,18.53,33.69,33.65,54.36,44.75l-10.3,19.3
				c22.82,12.18,47.97,20.02,74.15,22.66l0.53-4.85l1.71-16.95c22.88,2.35,46.66,0.25,70.05-6.86l6.38,21.01
				c25.78-7.83,48.82-20.39,68.43-36.52l-13.86-17c18.55-15.02,33.68-33.61,44.78-54.28l19.3,10.3
				c12.18-22.82,19.99-48.05,22.64-74.24L471.16,333.53z M362.01,348.61c-10.46,26.69-32.6,48.5-62.19,57.48
				c-51.24,15.57-105.39-13.35-120.99-64.67c-2.06-6.77-3.34-13.59-3.89-20.37c-3.64-44.51,24.01-87.08,68.48-100.59
				c12.69-3.85,25.55-4.99,37.95-3.74c16.02,1.61,31.29,7.2,44.46,16.05c17.88,12.01,31.88,30.03,38.63,52.25
				C371.07,306.76,369.7,329.01,362.01,348.61z"/>
			<path style="fill:none;stroke:#FFFFFF;stroke-width:1.3238;stroke-miterlimit:10;" d="M440.69,338.39l0.82-7.94
				c0.59-5.7,0.88-11.5,0.88-17.23c0-16.73-2.5-33.42-7.42-49.61l-2.32-7.63l20.85-6.34c-6.56-18.82-15.84-36.23-27.69-51.94
				l-16.91,13.79l-5.04-6.22c-14.12-17.44-31.56-31.8-51.84-42.7l-7.01-3.76l10.22-19.13c-17.85-8.62-36.71-14.37-56.27-17.17
				l-2.22,21.65l-7.93-0.82c-5.7-0.59-11.5-0.88-17.22-0.88c-7.07,0-14.21,0.45-21.24,1.34c-0.01,0-0.02,0-0.03,0
				c-9.54,1.21-19.07,3.25-28.35,6.07l-7.63,2.32l-6.34-20.85c-1.61,0.56-3.21,1.14-4.8,1.75c-0.58,0.22-1.15,0.44-1.72,0.66
				c-16.34,6.37-31.57,14.85-45.41,25.28l13.79,16.91l-6.22,5.04c-15.79,12.78-29.05,28.28-39.49,46.12
				c-1.1,1.88-2.17,3.78-3.21,5.71l-3.76,7.01L98.03,229.6c-8.6,17.76-14.35,36.63-17.15,56.28l6.45,0.66l15.2,1.56l-0.82,7.93
				c-0.41,3.96-0.67,7.97-0.8,11.98c-0.05,1.75-0.08,3.5-0.08,5.25c0,7.24,0.48,14.56,1.41,21.75c1.21,9.37,3.23,18.74,6,27.86
				l2.32,7.63l-20.85,6.33c0.9,2.58,1.85,5.13,2.85,7.64c3.02,7.61,6.56,15.1,10.52,22.26c4.23,7.63,9,15,14.23,21.98l16.88-13.76
				l5.04,6.18c14.3,17.54,31.78,31.93,51.95,42.77l7.01,3.76l-10.22,19.14c17.88,8.64,36.73,14.4,56.21,17.18l2.19-21.65l7.95,0.82
				c5.68,0.58,11.46,0.88,17.18,0.88c16.77,0,33.51-2.5,49.74-7.43l7.63-2.32l6.34,20.85c18.77-6.55,36.16-15.82,51.86-27.66
				l-13.79-16.92l6.22-5.03c17.52-14.19,31.91-31.64,42.77-51.86l3.76-7.01l19.14,10.22c8.62-17.85,14.37-36.72,17.16-56.28
				L440.69,338.39z M369.44,351.52c-11.81,30.13-36.33,52.8-67.3,62.21c-9.95,3.03-20.23,4.56-30.54,4.56
				c-46.5,0-86.85-29.95-100.39-74.54c-2.18-7.2-3.6-14.61-4.21-22.03c-0.1-1.24-0.18-2.48-0.24-3.72c-0.08-1.6-0.11-3.2-0.11-4.79
				c0-46.5,29.93-86.83,74.45-100.36c9.98-3.03,20.28-4.57,30.63-4.57c0.29,0,0.58,0,0.88,0c3.18,0.03,6.4,0.2,9.57,0.52
				c17.13,1.73,33.77,7.73,48.11,17.37c1.85,1.24,3.65,2.54,5.41,3.89c17.23,13.26,30.05,31.73,36.4,52.66
				c3.04,9.98,4.57,20.28,4.57,30.62c0,12.07-2.07,23.92-6.14,35.28C370.18,349.59,369.81,350.56,369.44,351.52z"/>
			<path style="fill:#83C4FC;" d="M281.38,216.73c-12.41-1.24-25.27-0.11-37.95,3.74c-44.47,13.51-72.12,56.09-68.48,100.59
				c-8.05-2.64-13.65-5.31-15.92-7.95c-17.51-20.36,17.1-105.88,24.84-116.87c7.74-11,36.24-16.7,36.24-16.7s0-6.52-0.81-19.14
				c-5.7,0-11.81-14.66-11.81-14.66l-5.7-9.77l-1.4-10.33c4.21-1.6,8.51-3.07,12.89-4.39l6.38,21.01c9.86-3,19.78-5.1,29.67-6.35
				l7.43,57.08L281.38,216.73z"/>
			<path style="fill:#83C4FC;" d="M405.8,338.77c-2.24,2.04-21.95,11.12-43.79,9.84c7.68-19.61,9.06-41.85,2.46-63.58
				c-6.75-22.22-20.75-40.24-38.63-52.25l52.68-14.55c0,0,37.46-0.41,42.35,6.92C425.76,232.48,414.76,330.62,405.8,338.77z"/>
		</g>
		<g>
			<defs>
				<path id="SVGID_1_" d="M443.47,0H119.73v335.96h58.74c10.23,41.96,48.06,73.11,93.17,73.11c45.11,0,82.94-31.15,93.17-73.11
					h78.66V0z"/>
			</defs>
			<clipPath id="SVGID_00000173150772634234891980000003057704849106778020_">
				<use xlink:href="#SVGID_1_"  style="overflow:visible;"/>
			</clipPath>
			<g style="clip-path:url(#SVGID_00000173150772634234891980000003057704849106778020_);">
				<path style="fill:#F7A594;" d="M299.02,192.87l52.98,28.82l26.96-66.64l13.86,3.48c0,0-8.98,77.42-23.4,91.59
					c-14.42,14.17-87.98-17.05-87.98-17.05C263.41,221.54,279.83,184.98,299.02,192.87z"/>
				<g>
					<path style="fill:#F7A594;" d="M377.99,164.8c0,0-4.53-14.86-3.45-18.7c1.08-3.83,15.94-7.55,16.49-5.75
						c0.55,1.8,1.65,6.21-8.01,7.91C388.8,154.67,394.82,166.92,377.99,164.8z"/>
					<g>
						<path style="fill:#F7A594;" d="M377.17,165.38c0,0,0-13.03,2.57-18.03c3.43-6.66,12.08-10.35,12.08-10.35
							s13.52,12.79,13.77,14.9c0.26,2.11-13.06,13.65-13.06,13.65S382.7,173.31,377.17,165.38z"/>
						<path style="fill:#F7A594;" d="M380.46,148.6c0,0,6.54-31.89,11.54-30.49c2.3,0.65-3.84,31.11-3.84,31.11L380.46,148.6z"/>
						<path style="fill:#E6836F;" d="M376.73,160.59c0.03,0.01,0.07,0.02,0.11,0.01c0.09-0.02,0.15-0.12,0.12-0.21
							c-1.11-4.35-2.88-11.99-2.25-14.23c0.83-2.96,10.63-6.04,14.73-6.09c1.22-0.01,1.4,0.26,1.43,0.34
							c0.36,1.19,0.62,2.59-0.24,3.99c-1.07,1.75-3.64,2.99-7.63,3.7l-0.31,0.05l0.21,0.23c2.4,2.66,5.18,6.75,5.79,10.25
							c0.02,0.1,0.11,0.16,0.2,0.14c0.09-0.02,0.16-0.11,0.14-0.2c-0.61-3.48-3.29-7.5-5.67-10.2c3.92-0.73,6.46-2.01,7.56-3.8
							c1.06-1.72,0.51-3.51,0.28-4.27c-0.13-0.41-0.7-0.6-1.76-0.59c-4.16,0.05-14.16,3.14-15.06,6.34
							c-0.65,2.32,1.13,10.03,2.25,14.41C376.64,160.53,376.68,160.57,376.73,160.59z"/>
						<path style="fill:#E6836F;" d="M394.82,156.09c0.05,0.02,0.09,0.04,0.14,0.05l0.12,0.04l0.07-0.1
							c2.37-3.07,7.43-3.93,7.48-3.94c0.09-0.02,0.16-0.1,0.14-0.2c-0.01-0.09-0.11-0.16-0.2-0.14c-0.21,0.03-5.14,0.87-7.62,3.97
							c-0.01,0-0.01,0-0.01-0.01c-3.01-1.18-6.69-8.91-6.73-8.98c-0.04-0.09-0.14-0.12-0.23-0.08s-0.12,0.14-0.08,0.23
							C388.05,147.26,391.67,154.86,394.82,156.09z"/>
					</g>
				</g>
				<path style="fill:#002E73;" d="M289.35,189.49c0,0,11.1,1.48,37.73,18.5c-2.96,11.47-11.84,41.43-11.84,41.43
					s-40.69-12.58-46.24-26.26S269.38,183.94,289.35,189.49z"/>
				<g>
					<g>
						<path style="fill:#231F20;" d="M159.39,655.89h42.05c0.87-0.49,1.51-1.05,1.89-1.69c2.17-31.28,5.28-46.34,5.28-46.34
							l-29.29-1.19l-6.63,23.27C162.88,636.65,151.18,651.04,159.39,655.89z"/>
						<path style="fill:#231F20;" d="M204.63,656.46h-49.86c-1.26,0-0.84-6.93,0.42-6.93l49.56,0.28
							C206.05,649.8,205.93,656.46,204.63,656.46z"/>
					</g>
					<path style="fill:#002E73;" d="M222,322.78c-14.66,22.54-25.36,131.45-45.55,295.42l29.85,1.57
						c8.97-43.68,19.08-65.82,29.35-128.78c24.59-55.57,37.35-108.21,43.89-162.41C285.9,287.72,235.74,266.26,222,322.78z"/>
				</g>
				<g>
					<path style="fill:#002E73;" d="M257.3,330.54c2.11,79.75,16.32,147.48,16.32,147.48c3.26,66.78,7.67,64.55,13.85,142.39
						l26.98-0.36c2.27-33.35,20.26-188.82,6.29-288.6C313.98,286.5,252.99,271.62,257.3,330.54z"/>
					<path style="fill:#231F20;" d="M287.47,620.41c-2.41,12.89-4.13,22.94-3.12,34.61l65.34,1.27c0,0,6.47-6.3-1.66-15.75
						c-8.13-9.45-23.57-3.98-33.57-20.49L287.47,620.41z"/>
					<path style="fill:#231F20;" d="M352.66,656.46h-69.42c-1.26,0-0.93-6.93,0.33-6.93l69.12,0.28
						C353.99,649.8,353.96,656.46,352.66,656.46z"/>
				</g>
				<path style="fill:#002E73;" d="M318.73,326.77c0,13.79-97.93,9.8-97.93-3.99c-5.61-120.36-34.7-108.05-27.26-120.16
					c12.83-20.89,77.64-19.7,100.98-10.73c9.27,3.57,21.71,18.09,25.69,41.25c2.05,11.91-6.72,25.77-8.11,35.39
					C308.89,290.8,318.08,323.57,318.73,326.77z"/>
				<path style="fill:#F7A594;" d="M257.68,201.36c-16.53,2.41-26.82-9.13-29.23-13.96l1.16-33.46l18.95-1.85
					c5.5,0.46,10.99,1.77,15.72,3.64l4.27,22.03l0.94,4.78C271.63,187.25,274.22,198.96,257.68,201.36z"/>
				<path style="fill:#E6836F;" d="M235.98,161.52c2.97,4.58,15.42,16.29,32.56,16.25l-3.69-19.06L235.98,161.52z"/>
				<g>
					<g>
						<path style="fill:#F7A594;" d="M277.93,117.45c1.49,6.59,4.55,21.06,4.05,27.73c-0.76,10.15-10.24,21.4-18.51,22.88
							c-9.57,0.97-22.47-1.87-29.47-7.89c-3.9-4.57-11.44-15.4-14.91-24.89c-7.24-19.78,6.74-37.13,24.47-41.14
							C261.3,90.13,273.3,96.9,277.93,117.45z"/>
						<path style="fill:#73382A;" d="M225.03,148.35c-3.7-6.51,1.22-9.15,6.6-4.09c-0.92-4.91-6.52-19.3-1.56-24.08
							c5.6-5.54,30.26-3.13,43.5-16.94c0,0-9.87-21.64-42.27-8.86C194.71,113.78,225.03,148.35,225.03,148.35z"/>
						
							<ellipse transform="matrix(0.7691 -0.6391 0.6391 0.7691 -41.4596 177.3938)" style="fill:#F7A594;" cx="224.81" cy="146.08" rx="6.21" ry="7.99"/>
					</g>
				</g>
				<path style="fill:#FDB477;" d="M200.26,195.84c11.01-1.32,21.8,51.84,14.24,66.41c-0.02,1.08-0.03,2.16-0.06,3.26
					c-0.08,4.15-0.19,8.43-0.32,12.76c-0.06,1.91-0.12,3.84-0.19,5.77c-0.15,4.25-0.31,8.53-0.48,12.76
					c-1.35,32.85-3.39,63.5-3.39,63.5h114.7c-0.92-22.53-4.2-45.65-6.45-63.5c-0.58-4.65-1.1-8.94-1.47-12.76
					c-0.21-2.07-0.37-4-0.49-5.77c-0.28-4.25-0.29-7.65,0.1-9.96c0.13-0.8,0.22-1.74,0.26-2.8c0.58-16.77-10.43-65.51-18.6-74.33
					c-11.45-5.31-24.23-4.01-24.23-4.01c0.8,23.91-8.71,45.37-8.71,45.37s-24.29-20.85-37.53-45.65
					C216,188.77,205.39,191.1,200.26,195.84z"/>
				<path style="fill:#FFFFFF;" d="M316.34,278.27c-0.28-4.25-0.29-7.65,0.1-9.96c0.13-0.8,0.22-1.74,0.26-2.8H214.44
					c-0.08,4.15-0.19,8.43-0.32,12.76H316.34z"/>
				<path style="fill:#FFFFFF;" d="M213.45,296.81H318.3c-0.58-4.65-1.1-8.94-1.47-12.76h-102.9
					C213.78,288.3,213.62,292.57,213.45,296.81z"/>
				<path style="fill:#5C2D22;" d="M269.78,106.23c0,0,10.11,4.39,20.62,0.13c-1.6,7.19-52.42,17.83-58.94,15.04
					C224.94,118.6,255.94,103.16,269.78,106.23z"/>
				<path style="fill:#FFF890;" d="M213.56,129.92c-1.41-10.33-3.02-36.87,20.48-43.69c20.88-6.06,35.86,6.49,42.94,14.76
					c3.06,0.47,11.31-1.77,12.77-0.06c0.34,1.02,0.02,2.99-8.37,6.32c0.03,0.05,0.04,0.08,0.04,0.08
					c-30.33,6.65-56.2,15.13-67.13,29.67c0,0-1.97,0.9-3.12,0.9C210.17,137.89,212.68,133.84,213.56,129.92z"/>
				<path style="fill:#FFDD69;" d="M255.29,107.82c0,0-9.55-22.51-32.18-16.5l-0.44-0.96c0,0,5.71-3.58,12.17-5.52
					c7.15-1.13,23.71,1.63,33.24,19.01C263.2,106.36,255.29,107.82,255.29,107.82z"/>
				<g>
					<path style="fill:#F79683;" d="M216.14,256.61l-14.05,39.09l60.59,38.43l-1.21,13.69c0,0-81.42-16.9-88.96-35.76
						s17.67-99.44,17.67-99.44C198.77,192.01,213.64,239.41,216.14,256.61z"/>
					<path style="fill:#F79683;" d="M262.45,335.01l31.86,0.81c0,0-9.78,15.66-32.05,12.82
						C232.95,344.9,244.54,333.78,262.45,335.01z"/>
					<g>
						<path style="fill:#5D4F99;" d="M392.07,331.41v1.65c0,0.08-0.01,0.17-0.02,0.25c-0.17,1.07-1.46,1.9-3.02,1.9h-139.3
							c-1.56,0-2.84-0.83-3.01-1.9c-0.01-0.08-0.02-0.16-0.02-0.25v-1.65H392.07z"/>
						<path style="fill:#241F3C;" d="M392.05,333.31c-0.17,1.07-1.46,1.9-3.02,1.9h-139.3c-1.56,0-2.84-0.83-3.01-1.9H392.05z"/>
						<g>
							<polygon style="fill:#241F3C;" points="408.23,236.15 409.04,236.94 408.6,237.56 407.57,236.11 							"/>
							<path style="fill:#5D4F99;" d="M390.04,331.16H277.03c-1.93,0-3.23-1.56-2.9-3.49l14.91-88.85c0.32-1.93,2.15-3.49,4.07-3.49
								h113.01c1.93,0,3.23,1.56,2.9,3.49l-14.91,88.85C393.79,329.6,391.97,331.16,390.04,331.16z"/>
						</g>
						<path style="fill:#241F3C;" d="M390.87,331.97H277.86c-1.93,0-3.23-1.56-2.9-3.49l14.91-88.85c0.32-1.93,2.15-3.49,4.07-3.49
							h113.01c1.93,0,3.23,1.56,2.9,3.49l-14.91,88.85C394.62,330.41,392.8,331.97,390.87,331.97z"/>
						
							<ellipse transform="matrix(0.1144 -0.9934 0.9934 0.1144 19.7503 595.0886)" style="fill:#48C6AA;" cx="343.65" cy="286.47" rx="15.49" ry="14.92"/>
					</g>
				</g>
				<path style="fill:#002E73;" d="M215.22,261.8l-39.03-19.3c0,0,10.83-38.5,23.15-45.86c6.01,3.61,11.98,12.19,15.26,27.08
					C217.45,236.59,217.49,249.73,215.22,261.8z"/>
				<path style="fill:#73382A;" d="M264.96,142.28c0.03,0,0.05,0,0.08-0.01c0.17-0.03,4.18-0.86,5.45-2.98
					c1.26-2.1-7.06-10.45-9.64-12.96c-0.15-0.15-0.4-0.15-0.55,0.01c-0.15,0.15-0.15,0.4,0.01,0.55
					c5.08,4.94,10.16,10.92,9.52,11.99c-1.09,1.82-4.89,2.6-4.93,2.61c-0.21,0.04-0.35,0.25-0.31,0.46
					C264.61,142.15,264.78,142.28,264.96,142.28z"/>
				<path style="fill:#73382A;" d="M258.45,151.45c6.66,0,12.26-2.28,12.35-2.32c0.2-0.08,0.29-0.31,0.21-0.51
					c-0.08-0.2-0.31-0.29-0.51-0.21c-0.14,0.06-14.29,5.82-24.07-1.25c-0.17-0.13-0.42-0.09-0.55,0.09
					c-0.13,0.18-0.09,0.42,0.09,0.55C249.83,150.58,254.34,151.45,258.45,151.45z"/>
				<path style="fill:#5C2D22;" d="M268.32,123.19c0.36,1.55,1.35,2.64,2.22,2.44s1.29-1.62,0.93-3.16
					c-0.36-1.55-1.35-2.64-2.22-2.44C268.38,120.22,267.97,121.64,268.32,123.19z"/>
				<path style="fill:#5C2D22;" d="M243.17,130.06c0.54,1.65,1.73,2.75,2.66,2.44c0.93-0.3,1.25-1.89,0.7-3.54
					c-0.54-1.65-1.73-2.75-2.66-2.44S242.62,128.41,243.17,130.06z"/>
			</g>
			<g style="clip-path:url(#SVGID_00000173150772634234891980000003057704849106778020_);">
				<g>
					<path style="fill:#C9F5FF;" d="M396.72,111.87c-1.87,1.07-4.26,0.43-5.35-1.43c-1.09-1.85-0.46-4.22,1.41-5.29
						c1.87-1.07,4.26-0.43,5.35,1.43C399.22,108.44,398.59,110.81,396.72,111.87z"/>
					<g>
						<path style="fill:#C9F5FF;" d="M412.35,99.65L412.35,99.65c0.57-0.37,0.73-1.13,0.36-1.7c-6.64-10.17-19.58-13.3-30.11-7.29
							c-0.59,0.34-0.78,1.09-0.45,1.68l0,0c0.34,0.6,1.11,0.83,1.71,0.49c9.37-5.23,20.8-2.47,26.74,6.47
							C410.99,99.88,411.78,100.03,412.35,99.65z"/>
						<path style="fill:#C9F5FF;" d="M408,102.53L408,102.53c0.59-0.39,0.74-1.17,0.34-1.74c-5.21-7.64-15.02-10.01-23.13-5.61
							c-0.61,0.33-0.83,1.1-0.49,1.7l0,0.01c0.33,0.59,1.08,0.82,1.69,0.5c6.97-3.69,15.35-1.67,19.86,4.81
							C406.66,102.76,407.43,102.9,408,102.53z"/>
						<path style="fill:#C9F5FF;" d="M403.78,105.31l0.01-0.01c0.59-0.39,0.74-1.19,0.32-1.75c-3.81-5.22-10.63-6.87-16.4-3.98
							c-0.63,0.32-0.86,1.1-0.51,1.71l0.01,0.01c0.33,0.58,1.05,0.8,1.66,0.51c4.65-2.23,10.08-0.91,13.2,3.2
							C402.47,105.55,403.22,105.68,403.78,105.31z"/>
					</g>
				</g>
			</g>
		</g>
		<path style="fill:#83C4FC;" d="M163.88,341.08v64.5c0,2.78-2.25,5.02-5.02,5.02H96.11c-4.1-7.4-7.77-15.14-10.96-23.18V369.9
			l15.47-4.7c-2.93-9.67-5.02-19.42-6.28-29.15h64.51C161.63,336.05,163.88,338.3,163.88,341.08z"/>
		<path style="fill:#83C4FC;" d="M143.92,235.11v64.9c0,4.42-3.58,8-8.01,8H92.94c0.13-4.29,0.41-8.56,0.84-12.8l-7.27-0.75
			l-14.35-1.46l-0.18-0.03c2.33-23.02,8.59-45.3,18.4-65.87h45.53C140.34,227.11,143.92,230.69,143.92,235.11z"/>
	</g>
	<g>
		<g>
			<path style="fill:#C9F5FF;" d="M111.22,298.59H43.23c-9.79,0-17.72-7.93-17.72-17.72v-45.47c0-9.79,7.93-17.72,17.72-17.72h67.98
				c9.79,0,17.72,7.93,17.72,17.72v45.47C128.94,290.65,121,298.59,111.22,298.59z"/>
			<path style="fill:#FFFFFF;" d="M117.29,240.8H38.12c-0.1,0-0.19-0.08-0.19-0.19c0-0.1,0.08-0.19,0.19-0.19h79.17
				c0.1,0,0.19,0.08,0.19,0.19C117.48,240.72,117.39,240.8,117.29,240.8z"/>
			<path style="fill:#FFFFFF;" d="M117.29,267.92H38.12c-0.1,0-0.19-0.08-0.19-0.19c0-0.1,0.08-0.19,0.19-0.19h79.17
				c0.1,0,0.19,0.08,0.19,0.19C117.48,267.84,117.39,267.92,117.29,267.92z"/>
			<path style="fill:#FFFFFF;" d="M117.29,254.71H38.12c-0.1,0-0.19-0.08-0.19-0.19c0-0.1,0.08-0.19,0.19-0.19h79.17
				c0.1,0,0.19,0.08,0.19,0.19C117.48,254.63,117.39,254.71,117.29,254.71z"/>
			<path style="fill:#7362BF;" d="M117.29,281.67H37.75l-0.16-48.37c0-0.21,0.17-0.38,0.38-0.38c0,0,0,0,0,0
				c0.21,0,0.38,0.17,0.38,0.38l0.16,47.62h78.79c0.21,0,0.38,0.17,0.38,0.38C117.67,281.51,117.5,281.67,117.29,281.67z"/>
			<path style="fill:#7362BF;" d="M104.16,245.59l-29.11,27.98l-15-13.27l-22.18,20.72c-0.15,0.14-0.16,0.38-0.02,0.53
				c0.07,0.08,0.17,0.12,0.28,0.12c0.09,0,0.18-0.03,0.26-0.1l21.68-20.25l15.01,13.28l29.09-27.96V245.59z"/>
			<path style="fill:#7362BF;" d="M62.07,260.86c0,1.12-0.9,2.02-2.02,2.02c-1.12,0-2.02-0.9-2.02-2.02s0.9-2.02,2.02-2.02
				C61.17,258.84,62.07,259.74,62.07,260.86z"/>
			<path style="fill:#7362BF;" d="M77.32,273.89c0,1.12-0.9,2.02-2.02,2.02s-2.02-0.9-2.02-2.02s0.9-2.02,2.02-2.02
				S77.32,272.77,77.32,273.89z"/>
			<path style="fill:#7362BF;" d="M106.42,245.8c0,1.12-0.9,2.02-2.02,2.02s-2.02-0.9-2.02-2.02c0-1.12,0.9-2.02,2.02-2.02
				S106.42,244.69,106.42,245.8z"/>
		</g>
		<g>
			<path style="fill:#48C6C6;" d="M85.93,401.91h56.48c6.14,0,11.12-4.98,11.12-11.12v-52.31c0-6.14-4.98-11.12-11.12-11.12H85.93
				c-6.14,0-11.12,4.98-11.12,11.12v52.31C74.81,396.93,79.79,401.91,85.93,401.91z"/>
			<rect x="131.99" y="367.94" style="fill:#FDFDFF;" width="7.44" height="21.51"/>
			<rect x="121.61" y="364.7" style="fill:#FDFDFF;" width="7.44" height="24.76"/>
			<rect x="111.23" y="358.12" style="fill:#FDFDFF;" width="7.44" height="31.33"/>
			<rect x="100.86" y="353.53" style="fill:#FDFDFF;" width="7.44" height="35.93"/>
			<rect x="90.48" y="343.61" style="fill:#FDFDFF;" width="7.44" height="45.84"/>
			<path style="fill:#247F7D;" d="M143.6,390.26H83.36c-0.28,0-0.5-0.23-0.5-0.5c0-0.28,0.23-0.5,0.5-0.5h60.24
				c0.28,0,0.5,0.23,0.5,0.5C144.1,390.04,143.87,390.26,143.6,390.26z"/>
		</g>
		<g>
			<path style="fill:#C9F5FF;" d="M44.11,359.59H9.47c-5.23,0-9.47-4.24-9.47-9.47v-29.36c0-5.23,4.24-9.47,9.47-9.47h34.64
				c5.23,0,9.47,4.24,9.47,9.47v29.36C53.58,355.35,49.34,359.59,44.11,359.59z"/>
			<g>
				<g>
					<path style="fill:#48C6C6;" d="M14.55,332.97H9.02c-0.43,0-0.78-0.35-0.78-0.78l0,0c0-0.43,0.35-0.78,0.78-0.78h5.53
						c0.43,0,0.78,0.35,0.78,0.78l0,0C15.34,332.61,14.99,332.97,14.55,332.97z"/>
					<path style="fill:#48C6C6;" d="M14.55,335.82H9.02c-0.43,0-0.78-0.35-0.78-0.78l0,0c0-0.43,0.35-0.78,0.78-0.78h5.53
						c0.43,0,0.78,0.35,0.78,0.78l0,0C15.34,335.46,14.99,335.82,14.55,335.82z"/>
					<path style="fill:#48C6C6;" d="M14.55,338.66H9.02c-0.43,0-0.78-0.35-0.78-0.78l0,0c0-0.43,0.35-0.78,0.78-0.78h5.53
						c0.43,0,0.78,0.35,0.78,0.78l0,0C15.34,338.31,14.99,338.66,14.55,338.66z"/>
					<path style="fill:#48C6C6;" d="M14.55,341.51H9.02c-0.43,0-0.78-0.35-0.78-0.78l0,0c0-0.43,0.35-0.78,0.78-0.78h5.53
						c0.43,0,0.78,0.35,0.78,0.78l0,0C15.34,341.16,14.99,341.51,14.55,341.51z"/>
				</g>
				<g>
					<path style="fill:#51DEDE;" d="M30.72,324.7c-0.01,0-0.01,0-0.02,0c-6.49,0-11.75,5.26-11.75,11.75
						c0,6.49,5.26,11.75,11.75,11.75c1.97,0,3.82-0.48,5.45-1.34l-5.43-10.41V324.7z"/>
					<path style="fill:#FD9463;" d="M36.16,346.87c3.75-1.96,6.3-5.89,6.3-10.41H30.72L36.16,346.87z"/>
					<path style="fill:#FFFFFF;" d="M30.72,324.7v11.75h11.73C42.46,329.97,37.21,324.71,30.72,324.7z"/>
				</g>
			</g>
		</g>
	</g>
</g>
</svg>
